<?xml version='1.0' encoding='utf-8'?>
<xmeml version="4">
	<sequence id="sequence-4" TL.SQAudioVisibleBase="0" TL.SQVideoVisibleBase="0" TL.SQVisibleBaseTime="0" TL.SQAVDividerPosition="0.5" TL.SQHideShyTracks="0" TL.SQHeaderWidth="236" Monitor.ProgramZoomOut="1814802071040000" Monitor.ProgramZoomIn="0" TL.SQTimePerPixel="7.4109473684210521" MZ.EditLine="175067827200000" MZ.Sequence.PreviewFrameSizeHeight="1080" MZ.Sequence.PreviewFrameSizeWidth="1920" MZ.Sequence.AudioTimeDisplayFormat="200" MZ.Sequence.PreviewRenderingClassID="1061109567" MZ.Sequence.PreviewRenderingPresetCodec="1297107278" MZ.Sequence.PreviewRenderingPresetPath="EncoderPresets/SequencePreview/795454d9-d3c2-429d-9474-923ab13b7018/I-Frame Only MPEG.epr" MZ.Sequence.PreviewUseMaxRenderQuality="false" MZ.Sequence.PreviewUseMaxBitDepth="false" MZ.Sequence.EditingModeGUID="795454d9-d3c2-429d-9474-923ab13b7018" MZ.Sequence.VideoTimeDisplayFormat="101" MZ.WorkOutPoint="15240960000000" MZ.WorkInPoint="0" explodedTracks="true">
		<uuid>ab3f8bf5-81ff-441b-ba4f-30ece09ccc41</uuid>
		<duration>178350</duration>
		<rate>
			<timebase>25</timebase>
			<ntsc>FALSE</ntsc>
		</rate>
		<name>wqedqw</name>
		<media>
			<video>
				<format>
					<samplecharacteristics>
						<rate>
							<timebase>25</timebase>
							<ntsc>FALSE</ntsc>
						</rate>
						<codec>
							<name>Apple ProRes 422</name>
							<appspecificdata>
								<appname>Final Cut Pro</appname>
								<appmanufacturer>Apple Inc.</appmanufacturer>
								<appversion>7.0</appversion>
								<data>
									<qtcodec>
										<codecname>Apple ProRes 422</codecname>
										<codectypename>Apple ProRes 422</codectypename>
										<codectypecode>apcn</codectypecode>
										<codecvendorcode>appl</codecvendorcode>
										<spatialquality>1024</spatialquality>
										<temporalquality>0</temporalquality>
										<keyframerate>0</keyframerate>
										<datarate>0</datarate>
									</qtcodec>
								</data>
							</appspecificdata>
						</codec>
						<width>1920</width>
						<height>1080</height>
						<anamorphic>FALSE</anamorphic>
						<pixelaspectratio>square</pixelaspectratio>
						<fielddominance>none</fielddominance>
						<colordepth>24</colordepth>
					</samplecharacteristics>
				</format>
				<track TL.SQTrackShy="0" TL.SQTrackExpandedHeight="25" TL.SQTrackExpanded="0" MZ.TrackTargeted="1">
					<enabled>TRUE</enabled>
					<locked>FALSE</locked>
				<clipitem id="clipitem-89">
						<masterclipid>clipitem-5-9</masterclipid>
						<name>Travis_Kelce_s_appearance_on_The_Eras_Tour_during_I_Can_Do_It_With_A_Broken_Heart_in_London.mp4</name>
						<enabled>TRUE</enabled>
						<duration>150</duration>
						<rate>
							<timebase>25</timebase>
							<ntsc>FALSE</ntsc>
						</rate>
						<start>0</start>
						<end>150</end>
						<in>1200</in>
						<out>1350</out>
						<pproTicksIn>0</pproTicksIn>
						<pproTicksOut>27525173760000</pproTicksOut>
						<alphatype>none</alphatype>
						<pixelaspectratio>square</pixelaspectratio>
						<anamorphic>FALSE</anamorphic>
						<file id="file-33">
							<name>Travis_Kelce_s_appearance_on_The_Eras_Tour_during_I_Can_Do_It_With_A_Broken_Heart_in_London.mp4</name>
							<pathurl>file://localhost/Users/themalikano/Documents/VideoAutomation/premiere_videos/Travis_Kelce_s_appearance_on_The_Eras_Tour_during_I_Can_Do_It_With_A_Broken_Heart_in_London.mp4</pathurl>
							<rate>
								<timebase>24</timebase>
								<ntsc>TRUE</ntsc>
							</rate>
							<duration>2599</duration>
							<timecode>
								<rate>
									<timebase>24</timebase>
									<ntsc>TRUE</ntsc>
								</rate>
								<string>00:00:00:00</string>
								<frame>0</frame>
								<displayformat>NDF</displayformat>
							</timecode>
							<media>
								<video>
									<samplecharacteristics>
										<rate>
											<timebase>24</timebase>
											<ntsc>TRUE</ntsc>
										</rate>
										<width>1920</width>
										<height>1080</height>
										<anamorphic>FALSE</anamorphic>
										<pixelaspectratio>square</pixelaspectratio>
										<fielddominance>none</fielddominance>
									</samplecharacteristics>
								</video>
								<audio>
									<samplecharacteristics>
										<depth>16</depth>
										<samplerate>44100</samplerate>
									</samplecharacteristics>
									<channelcount>2</channelcount>
								</audio>
							</media>
						</file>
						<link>
							<linkclipref>clipitem-89</linkclipref>
							<mediatype>video</mediatype>
							<trackindex>1</trackindex>
							<clipindex>5</clipindex>
						</link>
						<link>
							<linkclipref>clipitem-97</linkclipref>
							<mediatype>audio</mediatype>
							<trackindex>1</trackindex>
							<clipindex>5</clipindex>
							<groupindex>1</groupindex>
						</link>
						<link>
							<linkclipref>clipitem-105</linkclipref>
							<mediatype>audio</mediatype>
							<trackindex>2</trackindex>
							<clipindex>5</clipindex>
							<groupindex>1</groupindex>
						</link>
						<logginginfo>
							<description />
							<scene />
							<shottake />
							<lognote />
							<good />
							<originalvideofilename />
							<originalaudiofilename />
						</logginginfo>
						<colorinfo>
							<lut />
							<lut1 />
							<asc_sop />
							<asc_sat />
							<lut2 />
						</colorinfo>
					<labels><label2>Cerulean</label2></labels></clipitem>
					<clipitem id="clipitem-92">
						<masterclipid>clipitem-8-9</masterclipid>
						<name>Why_Travis_Kelce_Jokes_Taylor_Swift_Is_Going_to_KILL_Him.mp4</name>
						<enabled>TRUE</enabled>
						<duration>150</duration>
						<rate>
							<timebase>25</timebase>
							<ntsc>FALSE</ntsc>
						</rate>
						<start>150</start>
						<end>300</end>
						<in>1200</in>
						<out>1350</out>
						<pproTicksIn>0</pproTicksIn>
						<pproTicksOut>25249190400000</pproTicksOut>
						<alphatype>none</alphatype>
						<pixelaspectratio>square</pixelaspectratio>
						<anamorphic>FALSE</anamorphic>
						<file id="file-36">
							<name>Why_Travis_Kelce_Jokes_Taylor_Swift_Is_Going_to_KILL_Him.mp4</name>
							<pathurl>file://localhost/Users/themalikano/Documents/VideoAutomation/premiere_videos/Why_Travis_Kelce_Jokes_Taylor_Swift_Is_Going_to_KILL_Him.mp4</pathurl>
							<rate>
								<timebase>30</timebase>
								<ntsc>TRUE</ntsc>
							</rate>
							<duration>2980</duration>
							<timecode>
								<rate>
									<timebase>30</timebase>
									<ntsc>TRUE</ntsc>
								</rate>
								<string>00:00:00:00</string>
								<frame>0</frame>
								<displayformat>NDF</displayformat>
							</timecode>
							<media>
								<video>
									<samplecharacteristics>
										<rate>
											<timebase>30</timebase>
											<ntsc>TRUE</ntsc>
										</rate>
										<width>1920</width>
										<height>1080</height>
										<anamorphic>FALSE</anamorphic>
										<pixelaspectratio>square</pixelaspectratio>
										<fielddominance>none</fielddominance>
									</samplecharacteristics>
								</video>
								<audio>
									<samplecharacteristics>
										<depth>16</depth>
										<samplerate>44100</samplerate>
									</samplecharacteristics>
									<channelcount>2</channelcount>
								</audio>
							</media>
						</file>
						<link>
							<linkclipref>clipitem-92</linkclipref>
							<mediatype>video</mediatype>
							<trackindex>1</trackindex>
							<clipindex>8</clipindex>
						</link>
						<link>
							<linkclipref>clipitem-100</linkclipref>
							<mediatype>audio</mediatype>
							<trackindex>1</trackindex>
							<clipindex>8</clipindex>
							<groupindex>1</groupindex>
						</link>
						<link>
							<linkclipref>clipitem-108</linkclipref>
							<mediatype>audio</mediatype>
							<trackindex>2</trackindex>
							<clipindex>8</clipindex>
							<groupindex>1</groupindex>
						</link>
						<logginginfo>
							<description />
							<scene />
							<shottake />
							<lognote />
							<good />
							<originalvideofilename />
							<originalaudiofilename />
						</logginginfo>
						<colorinfo>
							<lut />
							<lut1 />
							<asc_sop />
							<asc_sat />
							<lut2 />
						</colorinfo>
					<labels><label2>Mango</label2></labels></clipitem>
					<clipitem id="clipitem-88">
						<masterclipid>clipitem-4-44</masterclipid>
						<name>Travis_Kelce_ANNOUNCE_WEDDING_DATE_with_Taylor_Swift_Why_He_was_Delaying_all_Along.mp4</name>
						<enabled>TRUE</enabled>
						<duration>150</duration>
						<rate>
							<timebase>25</timebase>
							<ntsc>FALSE</ntsc>
						</rate>
						<start>300</start>
						<end>450</end>
						<in>6450</in>
						<out>6600</out>
						<pproTicksIn>0</pproTicksIn>
						<pproTicksOut>419410897920000</pproTicksOut>
						<alphatype>none</alphatype>
						<pixelaspectratio>square</pixelaspectratio>
						<anamorphic>FALSE</anamorphic>
						<file id="file-32">
							<name>Travis_Kelce_ANNOUNCE_WEDDING_DATE_with_Taylor_Swift_Why_He_was_Delaying_all_Along.mp4</name>
							<pathurl>file://localhost/Users/themalikano/Documents/VideoAutomation/premiere_videos/Travis_Kelce_ANNOUNCE_WEDDING_DATE_with_Taylor_Swift_Why_He_was_Delaying_all_Along.mp4</pathurl>
							<rate>
								<timebase>24</timebase>
								<ntsc>FALSE</ntsc>
							</rate>
							<duration>39627</duration>
							<timecode>
								<rate>
									<timebase>24</timebase>
									<ntsc>FALSE</ntsc>
								</rate>
								<string>00:00:00:00</string>
								<frame>0</frame>
								<displayformat>NDF</displayformat>
							</timecode>
							<media>
								<video>
									<samplecharacteristics>
										<rate>
											<timebase>24</timebase>
											<ntsc>FALSE</ntsc>
										</rate>
										<width>852</width>
										<height>480</height>
										<anamorphic>FALSE</anamorphic>
										<pixelaspectratio>square</pixelaspectratio>
										<fielddominance>none</fielddominance>
									</samplecharacteristics>
								</video>
								<audio>
									<samplecharacteristics>
										<depth>16</depth>
										<samplerate>44100</samplerate>
									</samplecharacteristics>
									<channelcount>2</channelcount>
								</audio>
							</media>
						</file>
						<filter>
							<effect>
								<name>Basic Motion</name>
								<effectid>basic</effectid>
								<effectcategory>motion</effectcategory>
								<effecttype>motion</effecttype>
								<mediatype>video</mediatype>
								<pproBypass>false</pproBypass>
								<parameter authoringApp="PremierePro">
									<parameterid>scale</parameterid>
									<name>Scale</name>
									<valuemin>0</valuemin>
									<valuemax>1000</valuemax>
									<value>225</value>
								</parameter>
								<parameter authoringApp="PremierePro">
									<parameterid>rotation</parameterid>
									<name>Rotation</name>
									<valuemin>-8640</valuemin>
									<valuemax>8640</valuemax>
									<value>0</value>
								</parameter>
								<parameter authoringApp="PremierePro">
									<parameterid>center</parameterid>
									<name>Center</name>
									<value>
										<horiz>0</horiz>
										<vert>0</vert>
									</value>
								</parameter>
								<parameter authoringApp="PremierePro">
									<parameterid>centerOffset</parameterid>
									<name>Anchor Point</name>
									<value>
										<horiz>0</horiz>
										<vert>0</vert>
									</value>
								</parameter>
								<parameter authoringApp="PremierePro">
									<parameterid>antiflicker</parameterid>
									<name>Anti-flicker Filter</name>
									<valuemin>0.0</valuemin>
									<valuemax>1.0</valuemax>
									<value>0</value>
								</parameter>
							</effect>
						</filter>
						<link>
							<linkclipref>clipitem-88</linkclipref>
							<mediatype>video</mediatype>
							<trackindex>1</trackindex>
							<clipindex>4</clipindex>
						</link>
						<link>
							<linkclipref>clipitem-96</linkclipref>
							<mediatype>audio</mediatype>
							<trackindex>1</trackindex>
							<clipindex>4</clipindex>
							<groupindex>1</groupindex>
						</link>
						<link>
							<linkclipref>clipitem-104</linkclipref>
							<mediatype>audio</mediatype>
							<trackindex>2</trackindex>
							<clipindex>4</clipindex>
							<groupindex>1</groupindex>
						</link>
						<logginginfo>
							<description />
							<scene />
							<shottake />
							<lognote />
							<good />
							<originalvideofilename />
							<originalaudiofilename />
						</logginginfo>
						<colorinfo>
							<lut />
							<lut1 />
							<asc_sop />
							<asc_sat />
							<lut2 />
						</colorinfo>
					<labels><label2>Lavender</label2></labels></clipitem>
					<clipitem id="clipitem-91">
						<masterclipid>clipitem-7-29</masterclipid>
						<name>What_Caused_Taylor_Swift-Blake_Lively_Rift_The_View.mp4</name>
						<enabled>TRUE</enabled>
						<duration>150</duration>
						<rate>
							<timebase>25</timebase>
							<ntsc>FALSE</ntsc>
						</rate>
						<start>450</start>
						<end>600</end>
						<in>4200</in>
						<out>4350</out>
						<pproTicksIn>0</pproTicksIn>
						<pproTicksOut>45733040640000</pproTicksOut>
						<alphatype>none</alphatype>
						<pixelaspectratio>square</pixelaspectratio>
						<anamorphic>FALSE</anamorphic>
						<file id="file-35">
							<name>What_Caused_Taylor_Swift-Blake_Lively_Rift_The_View.mp4</name>
							<pathurl>file://localhost/Users/themalikano/Documents/VideoAutomation/premiere_videos/What_Caused_Taylor_Swift-Blake_Lively_Rift_The_View.mp4</pathurl>
							<rate>
								<timebase>30</timebase>
								<ntsc>TRUE</ntsc>
							</rate>
							<duration>5397</duration>
							<timecode>
								<rate>
									<timebase>30</timebase>
									<ntsc>TRUE</ntsc>
								</rate>
								<string>00:00:00:00</string>
								<frame>0</frame>
								<displayformat>NDF</displayformat>
							</timecode>
							<media>
								<video>
									<samplecharacteristics>
										<rate>
											<timebase>30</timebase>
											<ntsc>TRUE</ntsc>
										</rate>
										<width>1280</width>
										<height>720</height>
										<anamorphic>FALSE</anamorphic>
										<pixelaspectratio>square</pixelaspectratio>
										<fielddominance>none</fielddominance>
									</samplecharacteristics>
								</video>
								<audio>
									<samplecharacteristics>
										<depth>16</depth>
										<samplerate>44100</samplerate>
									</samplecharacteristics>
									<channelcount>2</channelcount>
								</audio>
							</media>
						</file>
						<filter>
							<effect>
								<name>Basic Motion</name>
								<effectid>basic</effectid>
								<effectcategory>motion</effectcategory>
								<effecttype>motion</effecttype>
								<mediatype>video</mediatype>
								<pproBypass>false</pproBypass>
								<parameter authoringApp="PremierePro">
									<parameterid>scale</parameterid>
									<name>Scale</name>
									<valuemin>0</valuemin>
									<valuemax>1000</valuemax>
									<value>150</value>
								</parameter>
								<parameter authoringApp="PremierePro">
									<parameterid>rotation</parameterid>
									<name>Rotation</name>
									<valuemin>-8640</valuemin>
									<valuemax>8640</valuemax>
									<value>0</value>
								</parameter>
								<parameter authoringApp="PremierePro">
									<parameterid>center</parameterid>
									<name>Center</name>
									<value>
										<horiz>0</horiz>
										<vert>0</vert>
									</value>
								</parameter>
								<parameter authoringApp="PremierePro">
									<parameterid>centerOffset</parameterid>
									<name>Anchor Point</name>
									<value>
										<horiz>0</horiz>
										<vert>0</vert>
									</value>
								</parameter>
								<parameter authoringApp="PremierePro">
									<parameterid>antiflicker</parameterid>
									<name>Anti-flicker Filter</name>
									<valuemin>0.0</valuemin>
									<valuemax>1.0</valuemax>
									<value>0</value>
								</parameter>
							</effect>
						</filter>
						<link>
							<linkclipref>clipitem-91</linkclipref>
							<mediatype>video</mediatype>
							<trackindex>1</trackindex>
							<clipindex>7</clipindex>
						</link>
						<link>
							<linkclipref>clipitem-99</linkclipref>
							<mediatype>audio</mediatype>
							<trackindex>1</trackindex>
							<clipindex>7</clipindex>
							<groupindex>1</groupindex>
						</link>
						<link>
							<linkclipref>clipitem-107</linkclipref>
							<mediatype>audio</mediatype>
							<trackindex>2</trackindex>
							<clipindex>7</clipindex>
							<groupindex>1</groupindex>
						</link>
						<logginginfo>
							<description />
							<scene />
							<shottake />
							<lognote />
							<good />
							<originalvideofilename />
							<originalaudiofilename />
						</logginginfo>
						<colorinfo>
							<lut />
							<lut1 />
							<asc_sop />
							<asc_sat />
							<lut2 />
						</colorinfo>
					<labels><label2>Rose</label2></labels></clipitem>
					<clipitem id="clipitem-86">
						<masterclipid>clipitem-2-46</masterclipid>
						<name>Taylor_Swift_Shares_The_Story_Of_Calling_Travis_Kelce_For_The_First_Time.mp4</name>
						<enabled>TRUE</enabled>
						<duration>150</duration>
						<rate>
							<timebase>25</timebase>
							<ntsc>FALSE</ntsc>
						</rate>
						<start>600</start>
						<end>750</end>
						<in>6750</in>
						<out>6900</out>
						<pproTicksIn>0</pproTicksIn>
						<pproTicksOut>236438092800000</pproTicksOut>
						<alphatype>none</alphatype>
						<pixelaspectratio>square</pixelaspectratio>
						<anamorphic>FALSE</anamorphic>
						<file id="file-30">
							<name>Taylor_Swift_Shares_The_Story_Of_Calling_Travis_Kelce_For_The_First_Time.mp4</name>
							<pathurl>file://localhost/Users/themalikano/Documents/VideoAutomation/premiere_videos/Taylor_Swift_Shares_The_Story_Of_Calling_Travis_Kelce_For_The_First_Time.mp4</pathurl>
							<rate>
								<timebase>30</timebase>
								<ntsc>TRUE</ntsc>
							</rate>
							<duration>27897</duration>
							<timecode>
								<rate>
									<timebase>30</timebase>
									<ntsc>TRUE</ntsc>
								</rate>
								<string>00:00:00:00</string>
								<frame>0</frame>
								<displayformat>NDF</displayformat>
							</timecode>
							<media>
								<video>
									<samplecharacteristics>
										<rate>
											<timebase>30</timebase>
											<ntsc>TRUE</ntsc>
										</rate>
										<width>1920</width>
										<height>1080</height>
										<anamorphic>FALSE</anamorphic>
										<pixelaspectratio>square</pixelaspectratio>
										<fielddominance>none</fielddominance>
									</samplecharacteristics>
								</video>
								<audio>
									<samplecharacteristics>
										<depth>16</depth>
										<samplerate>44100</samplerate>
									</samplecharacteristics>
									<channelcount>2</channelcount>
								</audio>
							</media>
						</file>
						<link>
							<linkclipref>clipitem-86</linkclipref>
							<mediatype>video</mediatype>
							<trackindex>1</trackindex>
							<clipindex>2</clipindex>
						</link>
						<link>
							<linkclipref>clipitem-94</linkclipref>
							<mediatype>audio</mediatype>
							<trackindex>1</trackindex>
							<clipindex>2</clipindex>
							<groupindex>1</groupindex>
						</link>
						<link>
							<linkclipref>clipitem-102</linkclipref>
							<mediatype>audio</mediatype>
							<trackindex>2</trackindex>
							<clipindex>2</clipindex>
							<groupindex>1</groupindex>
						</link>
						<logginginfo>
							<description />
							<scene />
							<shottake />
							<lognote />
							<good />
							<originalvideofilename />
							<originalaudiofilename />
						</logginginfo>
						<colorinfo>
							<lut />
							<lut1 />
							<asc_sop />
							<asc_sat />
							<lut2 />
						</colorinfo>
					<labels><label2>Iris</label2></labels></clipitem>
					<clipitem id="clipitem-88">
						<masterclipid>clipitem-4-113</masterclipid>
						<name>Travis_Kelce_ANNOUNCE_WEDDING_DATE_with_Taylor_Swift_Why_He_was_Delaying_all_Along.mp4</name>
						<enabled>TRUE</enabled>
						<duration>150</duration>
						<rate>
							<timebase>25</timebase>
							<ntsc>FALSE</ntsc>
						</rate>
						<start>750</start>
						<end>900</end>
						<in>16800</in>
						<out>16950</out>
						<pproTicksIn>0</pproTicksIn>
						<pproTicksOut>419410897920000</pproTicksOut>
						<alphatype>none</alphatype>
						<pixelaspectratio>square</pixelaspectratio>
						<anamorphic>FALSE</anamorphic>
						<file id="file-32">
							<name>Travis_Kelce_ANNOUNCE_WEDDING_DATE_with_Taylor_Swift_Why_He_was_Delaying_all_Along.mp4</name>
							<pathurl>file://localhost/Users/themalikano/Documents/VideoAutomation/premiere_videos/Travis_Kelce_ANNOUNCE_WEDDING_DATE_with_Taylor_Swift_Why_He_was_Delaying_all_Along.mp4</pathurl>
							<rate>
								<timebase>24</timebase>
								<ntsc>FALSE</ntsc>
							</rate>
							<duration>39627</duration>
							<timecode>
								<rate>
									<timebase>24</timebase>
									<ntsc>FALSE</ntsc>
								</rate>
								<string>00:00:00:00</string>
								<frame>0</frame>
								<displayformat>NDF</displayformat>
							</timecode>
							<media>
								<video>
									<samplecharacteristics>
										<rate>
											<timebase>24</timebase>
											<ntsc>FALSE</ntsc>
										</rate>
										<width>852</width>
										<height>480</height>
										<anamorphic>FALSE</anamorphic>
										<pixelaspectratio>square</pixelaspectratio>
										<fielddominance>none</fielddominance>
									</samplecharacteristics>
								</video>
								<audio>
									<samplecharacteristics>
										<depth>16</depth>
										<samplerate>44100</samplerate>
									</samplecharacteristics>
									<channelcount>2</channelcount>
								</audio>
							</media>
						</file>
						<filter>
							<effect>
								<name>Basic Motion</name>
								<effectid>basic</effectid>
								<effectcategory>motion</effectcategory>
								<effecttype>motion</effecttype>
								<mediatype>video</mediatype>
								<pproBypass>false</pproBypass>
								<parameter authoringApp="PremierePro">
									<parameterid>scale</parameterid>
									<name>Scale</name>
									<valuemin>0</valuemin>
									<valuemax>1000</valuemax>
									<value>225</value>
								</parameter>
								<parameter authoringApp="PremierePro">
									<parameterid>rotation</parameterid>
									<name>Rotation</name>
									<valuemin>-8640</valuemin>
									<valuemax>8640</valuemax>
									<value>0</value>
								</parameter>
								<parameter authoringApp="PremierePro">
									<parameterid>center</parameterid>
									<name>Center</name>
									<value>
										<horiz>0</horiz>
										<vert>0</vert>
									</value>
								</parameter>
								<parameter authoringApp="PremierePro">
									<parameterid>centerOffset</parameterid>
									<name>Anchor Point</name>
									<value>
										<horiz>0</horiz>
										<vert>0</vert>
									</value>
								</parameter>
								<parameter authoringApp="PremierePro">
									<parameterid>antiflicker</parameterid>
									<name>Anti-flicker Filter</name>
									<valuemin>0.0</valuemin>
									<valuemax>1.0</valuemax>
									<value>0</value>
								</parameter>
							</effect>
						</filter>
						<link>
							<linkclipref>clipitem-88</linkclipref>
							<mediatype>video</mediatype>
							<trackindex>1</trackindex>
							<clipindex>4</clipindex>
						</link>
						<link>
							<linkclipref>clipitem-96</linkclipref>
							<mediatype>audio</mediatype>
							<trackindex>1</trackindex>
							<clipindex>4</clipindex>
							<groupindex>1</groupindex>
						</link>
						<link>
							<linkclipref>clipitem-104</linkclipref>
							<mediatype>audio</mediatype>
							<trackindex>2</trackindex>
							<clipindex>4</clipindex>
							<groupindex>1</groupindex>
						</link>
						<logginginfo>
							<description />
							<scene />
							<shottake />
							<lognote />
							<good />
							<originalvideofilename />
							<originalaudiofilename />
						</logginginfo>
						<colorinfo>
							<lut />
							<lut1 />
							<asc_sop />
							<asc_sat />
							<lut2 />
						</colorinfo>
					<labels><label2>Lavender</label2></labels></clipitem>
					<clipitem id="clipitem-91">
						<masterclipid>clipitem-7-18</masterclipid>
						<name>What_Caused_Taylor_Swift-Blake_Lively_Rift_The_View.mp4</name>
						<enabled>TRUE</enabled>
						<duration>150</duration>
						<rate>
							<timebase>25</timebase>
							<ntsc>FALSE</ntsc>
						</rate>
						<start>900</start>
						<end>1050</end>
						<in>2550</in>
						<out>2700</out>
						<pproTicksIn>0</pproTicksIn>
						<pproTicksOut>45733040640000</pproTicksOut>
						<alphatype>none</alphatype>
						<pixelaspectratio>square</pixelaspectratio>
						<anamorphic>FALSE</anamorphic>
						<file id="file-35">
							<name>What_Caused_Taylor_Swift-Blake_Lively_Rift_The_View.mp4</name>
							<pathurl>file://localhost/Users/themalikano/Documents/VideoAutomation/premiere_videos/What_Caused_Taylor_Swift-Blake_Lively_Rift_The_View.mp4</pathurl>
							<rate>
								<timebase>30</timebase>
								<ntsc>TRUE</ntsc>
							</rate>
							<duration>5397</duration>
							<timecode>
								<rate>
									<timebase>30</timebase>
									<ntsc>TRUE</ntsc>
								</rate>
								<string>00:00:00:00</string>
								<frame>0</frame>
								<displayformat>NDF</displayformat>
							</timecode>
							<media>
								<video>
									<samplecharacteristics>
										<rate>
											<timebase>30</timebase>
											<ntsc>TRUE</ntsc>
										</rate>
										<width>1280</width>
										<height>720</height>
										<anamorphic>FALSE</anamorphic>
										<pixelaspectratio>square</pixelaspectratio>
										<fielddominance>none</fielddominance>
									</samplecharacteristics>
								</video>
								<audio>
									<samplecharacteristics>
										<depth>16</depth>
										<samplerate>44100</samplerate>
									</samplecharacteristics>
									<channelcount>2</channelcount>
								</audio>
							</media>
						</file>
						<filter>
							<effect>
								<name>Basic Motion</name>
								<effectid>basic</effectid>
								<effectcategory>motion</effectcategory>
								<effecttype>motion</effecttype>
								<mediatype>video</mediatype>
								<pproBypass>false</pproBypass>
								<parameter authoringApp="PremierePro">
									<parameterid>scale</parameterid>
									<name>Scale</name>
									<valuemin>0</valuemin>
									<valuemax>1000</valuemax>
									<value>150</value>
								</parameter>
								<parameter authoringApp="PremierePro">
									<parameterid>rotation</parameterid>
									<name>Rotation</name>
									<valuemin>-8640</valuemin>
									<valuemax>8640</valuemax>
									<value>0</value>
								</parameter>
								<parameter authoringApp="PremierePro">
									<parameterid>center</parameterid>
									<name>Center</name>
									<value>
										<horiz>0</horiz>
										<vert>0</vert>
									</value>
								</parameter>
								<parameter authoringApp="PremierePro">
									<parameterid>centerOffset</parameterid>
									<name>Anchor Point</name>
									<value>
										<horiz>0</horiz>
										<vert>0</vert>
									</value>
								</parameter>
								<parameter authoringApp="PremierePro">
									<parameterid>antiflicker</parameterid>
									<name>Anti-flicker Filter</name>
									<valuemin>0.0</valuemin>
									<valuemax>1.0</valuemax>
									<value>0</value>
								</parameter>
							</effect>
						</filter>
						<link>
							<linkclipref>clipitem-91</linkclipref>
							<mediatype>video</mediatype>
							<trackindex>1</trackindex>
							<clipindex>7</clipindex>
						</link>
						<link>
							<linkclipref>clipitem-99</linkclipref>
							<mediatype>audio</mediatype>
							<trackindex>1</trackindex>
							<clipindex>7</clipindex>
							<groupindex>1</groupindex>
						</link>
						<link>
							<linkclipref>clipitem-107</linkclipref>
							<mediatype>audio</mediatype>
							<trackindex>2</trackindex>
							<clipindex>7</clipindex>
							<groupindex>1</groupindex>
						</link>
						<logginginfo>
							<description />
							<scene />
							<shottake />
							<lognote />
							<good />
							<originalvideofilename />
							<originalaudiofilename />
						</logginginfo>
						<colorinfo>
							<lut />
							<lut1 />
							<asc_sop />
							<asc_sat />
							<lut2 />
						</colorinfo>
					<labels><label2>Rose</label2></labels></clipitem>
					<clipitem id="clipitem-87">
						<masterclipid>clipitem-3-370</masterclipid>
						<name>Taylor_Swift_Travis_Kelce_-_The_New_Power_Couple.mp4</name>
						<enabled>TRUE</enabled>
						<duration>150</duration>
						<rate>
							<timebase>25</timebase>
							<ntsc>FALSE</ntsc>
						</rate>
						<start>1050</start>
						<end>1200</end>
						<in>55350</in>
						<out>55500</out>
						<pproTicksIn>0</pproTicksIn>
						<pproTicksOut>875013995520000</pproTicksOut>
						<alphatype>none</alphatype>
						<pixelaspectratio>square</pixelaspectratio>
						<anamorphic>FALSE</anamorphic>
						<file id="file-31">
							<name>Taylor_Swift_Travis_Kelce_-_The_New_Power_Couple.mp4</name>
							<pathurl>file://localhost/Users/themalikano/Documents/VideoAutomation/premiere_videos/Taylor_Swift_Travis_Kelce_-_The_New_Power_Couple.mp4</pathurl>
							<rate>
								<timebase>25</timebase>
								<ntsc>FALSE</ntsc>
							</rate>
							<duration>86118</duration>
							<timecode>
								<rate>
									<timebase>25</timebase>
									<ntsc>FALSE</ntsc>
								</rate>
								<string>00:00:00:00</string>
								<frame>0</frame>
								<displayformat>NDF</displayformat>
							</timecode>
							<media>
								<video>
									<samplecharacteristics>
										<rate>
											<timebase>25</timebase>
											<ntsc>FALSE</ntsc>
										</rate>
										<width>1920</width>
										<height>1080</height>
										<anamorphic>FALSE</anamorphic>
										<pixelaspectratio>square</pixelaspectratio>
										<fielddominance>none</fielddominance>
									</samplecharacteristics>
								</video>
								<audio>
									<samplecharacteristics>
										<depth>16</depth>
										<samplerate>44100</samplerate>
									</samplecharacteristics>
									<channelcount>2</channelcount>
								</audio>
							</media>
						</file>
						<link>
							<linkclipref>clipitem-87</linkclipref>
							<mediatype>video</mediatype>
							<trackindex>1</trackindex>
							<clipindex>3</clipindex>
						</link>
						<link>
							<linkclipref>clipitem-95</linkclipref>
							<mediatype>audio</mediatype>
							<trackindex>1</trackindex>
							<clipindex>3</clipindex>
							<groupindex>1</groupindex>
						</link>
						<link>
							<linkclipref>clipitem-103</linkclipref>
							<mediatype>audio</mediatype>
							<trackindex>2</trackindex>
							<clipindex>3</clipindex>
							<groupindex>1</groupindex>
						</link>
						<logginginfo>
							<description />
							<scene />
							<shottake />
							<lognote />
							<good />
							<originalvideofilename />
							<originalaudiofilename />
						</logginginfo>
						<colorinfo>
							<lut />
							<lut1 />
							<asc_sop />
							<asc_sat />
							<lut2 />
						</colorinfo>
					<labels><label2>Caribbean</label2></labels></clipitem>
					<clipitem id="clipitem-88">
						<masterclipid>clipitem-4-100</masterclipid>
						<name>Travis_Kelce_ANNOUNCE_WEDDING_DATE_with_Taylor_Swift_Why_He_was_Delaying_all_Along.mp4</name>
						<enabled>TRUE</enabled>
						<duration>150</duration>
						<rate>
							<timebase>25</timebase>
							<ntsc>FALSE</ntsc>
						</rate>
						<start>1200</start>
						<end>1350</end>
						<in>14850</in>
						<out>15000</out>
						<pproTicksIn>0</pproTicksIn>
						<pproTicksOut>419410897920000</pproTicksOut>
						<alphatype>none</alphatype>
						<pixelaspectratio>square</pixelaspectratio>
						<anamorphic>FALSE</anamorphic>
						<file id="file-32">
							<name>Travis_Kelce_ANNOUNCE_WEDDING_DATE_with_Taylor_Swift_Why_He_was_Delaying_all_Along.mp4</name>
							<pathurl>file://localhost/Users/themalikano/Documents/VideoAutomation/premiere_videos/Travis_Kelce_ANNOUNCE_WEDDING_DATE_with_Taylor_Swift_Why_He_was_Delaying_all_Along.mp4</pathurl>
							<rate>
								<timebase>24</timebase>
								<ntsc>FALSE</ntsc>
							</rate>
							<duration>39627</duration>
							<timecode>
								<rate>
									<timebase>24</timebase>
									<ntsc>FALSE</ntsc>
								</rate>
								<string>00:00:00:00</string>
								<frame>0</frame>
								<displayformat>NDF</displayformat>
							</timecode>
							<media>
								<video>
									<samplecharacteristics>
										<rate>
											<timebase>24</timebase>
											<ntsc>FALSE</ntsc>
										</rate>
										<width>852</width>
										<height>480</height>
										<anamorphic>FALSE</anamorphic>
										<pixelaspectratio>square</pixelaspectratio>
										<fielddominance>none</fielddominance>
									</samplecharacteristics>
								</video>
								<audio>
									<samplecharacteristics>
										<depth>16</depth>
										<samplerate>44100</samplerate>
									</samplecharacteristics>
									<channelcount>2</channelcount>
								</audio>
							</media>
						</file>
						<filter>
							<effect>
								<name>Basic Motion</name>
								<effectid>basic</effectid>
								<effectcategory>motion</effectcategory>
								<effecttype>motion</effecttype>
								<mediatype>video</mediatype>
								<pproBypass>false</pproBypass>
								<parameter authoringApp="PremierePro">
									<parameterid>scale</parameterid>
									<name>Scale</name>
									<valuemin>0</valuemin>
									<valuemax>1000</valuemax>
									<value>225</value>
								</parameter>
								<parameter authoringApp="PremierePro">
									<parameterid>rotation</parameterid>
									<name>Rotation</name>
									<valuemin>-8640</valuemin>
									<valuemax>8640</valuemax>
									<value>0</value>
								</parameter>
								<parameter authoringApp="PremierePro">
									<parameterid>center</parameterid>
									<name>Center</name>
									<value>
										<horiz>0</horiz>
										<vert>0</vert>
									</value>
								</parameter>
								<parameter authoringApp="PremierePro">
									<parameterid>centerOffset</parameterid>
									<name>Anchor Point</name>
									<value>
										<horiz>0</horiz>
										<vert>0</vert>
									</value>
								</parameter>
								<parameter authoringApp="PremierePro">
									<parameterid>antiflicker</parameterid>
									<name>Anti-flicker Filter</name>
									<valuemin>0.0</valuemin>
									<valuemax>1.0</valuemax>
									<value>0</value>
								</parameter>
							</effect>
						</filter>
						<link>
							<linkclipref>clipitem-88</linkclipref>
							<mediatype>video</mediatype>
							<trackindex>1</trackindex>
							<clipindex>4</clipindex>
						</link>
						<link>
							<linkclipref>clipitem-96</linkclipref>
							<mediatype>audio</mediatype>
							<trackindex>1</trackindex>
							<clipindex>4</clipindex>
							<groupindex>1</groupindex>
						</link>
						<link>
							<linkclipref>clipitem-104</linkclipref>
							<mediatype>audio</mediatype>
							<trackindex>2</trackindex>
							<clipindex>4</clipindex>
							<groupindex>1</groupindex>
						</link>
						<logginginfo>
							<description />
							<scene />
							<shottake />
							<lognote />
							<good />
							<originalvideofilename />
							<originalaudiofilename />
						</logginginfo>
						<colorinfo>
							<lut />
							<lut1 />
							<asc_sop />
							<asc_sat />
							<lut2 />
						</colorinfo>
					<labels><label2>Lavender</label2></labels></clipitem>
					<clipitem id="clipitem-86">
						<masterclipid>clipitem-2-56</masterclipid>
						<name>Taylor_Swift_Shares_The_Story_Of_Calling_Travis_Kelce_For_The_First_Time.mp4</name>
						<enabled>TRUE</enabled>
						<duration>150</duration>
						<rate>
							<timebase>25</timebase>
							<ntsc>FALSE</ntsc>
						</rate>
						<start>1350</start>
						<end>1500</end>
						<in>8250</in>
						<out>8400</out>
						<pproTicksIn>0</pproTicksIn>
						<pproTicksOut>236438092800000</pproTicksOut>
						<alphatype>none</alphatype>
						<pixelaspectratio>square</pixelaspectratio>
						<anamorphic>FALSE</anamorphic>
						<file id="file-30">
							<name>Taylor_Swift_Shares_The_Story_Of_Calling_Travis_Kelce_For_The_First_Time.mp4</name>
							<pathurl>file://localhost/Users/themalikano/Documents/VideoAutomation/premiere_videos/Taylor_Swift_Shares_The_Story_Of_Calling_Travis_Kelce_For_The_First_Time.mp4</pathurl>
							<rate>
								<timebase>30</timebase>
								<ntsc>TRUE</ntsc>
							</rate>
							<duration>27897</duration>
							<timecode>
								<rate>
									<timebase>30</timebase>
									<ntsc>TRUE</ntsc>
								</rate>
								<string>00:00:00:00</string>
								<frame>0</frame>
								<displayformat>NDF</displayformat>
							</timecode>
							<media>
								<video>
									<samplecharacteristics>
										<rate>
											<timebase>30</timebase>
											<ntsc>TRUE</ntsc>
										</rate>
										<width>1920</width>
										<height>1080</height>
										<anamorphic>FALSE</anamorphic>
										<pixelaspectratio>square</pixelaspectratio>
										<fielddominance>none</fielddominance>
									</samplecharacteristics>
								</video>
								<audio>
									<samplecharacteristics>
										<depth>16</depth>
										<samplerate>44100</samplerate>
									</samplecharacteristics>
									<channelcount>2</channelcount>
								</audio>
							</media>
						</file>
						<link>
							<linkclipref>clipitem-86</linkclipref>
							<mediatype>video</mediatype>
							<trackindex>1</trackindex>
							<clipindex>2</clipindex>
						</link>
						<link>
							<linkclipref>clipitem-94</linkclipref>
							<mediatype>audio</mediatype>
							<trackindex>1</trackindex>
							<clipindex>2</clipindex>
							<groupindex>1</groupindex>
						</link>
						<link>
							<linkclipref>clipitem-102</linkclipref>
							<mediatype>audio</mediatype>
							<trackindex>2</trackindex>
							<clipindex>2</clipindex>
							<groupindex>1</groupindex>
						</link>
						<logginginfo>
							<description />
							<scene />
							<shottake />
							<lognote />
							<good />
							<originalvideofilename />
							<originalaudiofilename />
						</logginginfo>
						<colorinfo>
							<lut />
							<lut1 />
							<asc_sop />
							<asc_sat />
							<lut2 />
						</colorinfo>
					<labels><label2>Iris</label2></labels></clipitem>
					<clipitem id="clipitem-89">
						<masterclipid>clipitem-5-12</masterclipid>
						<name>Travis_Kelce_s_appearance_on_The_Eras_Tour_during_I_Can_Do_It_With_A_Broken_Heart_in_London.mp4</name>
						<enabled>TRUE</enabled>
						<duration>150</duration>
						<rate>
							<timebase>25</timebase>
							<ntsc>FALSE</ntsc>
						</rate>
						<start>1500</start>
						<end>1650</end>
						<in>1650</in>
						<out>1800</out>
						<pproTicksIn>0</pproTicksIn>
						<pproTicksOut>27525173760000</pproTicksOut>
						<alphatype>none</alphatype>
						<pixelaspectratio>square</pixelaspectratio>
						<anamorphic>FALSE</anamorphic>
						<file id="file-33">
							<name>Travis_Kelce_s_appearance_on_The_Eras_Tour_during_I_Can_Do_It_With_A_Broken_Heart_in_London.mp4</name>
							<pathurl>file://localhost/Users/themalikano/Documents/VideoAutomation/premiere_videos/Travis_Kelce_s_appearance_on_The_Eras_Tour_during_I_Can_Do_It_With_A_Broken_Heart_in_London.mp4</pathurl>
							<rate>
								<timebase>24</timebase>
								<ntsc>TRUE</ntsc>
							</rate>
							<duration>2599</duration>
							<timecode>
								<rate>
									<timebase>24</timebase>
									<ntsc>TRUE</ntsc>
								</rate>
								<string>00:00:00:00</string>
								<frame>0</frame>
								<displayformat>NDF</displayformat>
							</timecode>
							<media>
								<video>
									<samplecharacteristics>
										<rate>
											<timebase>24</timebase>
											<ntsc>TRUE</ntsc>
										</rate>
										<width>1920</width>
										<height>1080</height>
										<anamorphic>FALSE</anamorphic>
										<pixelaspectratio>square</pixelaspectratio>
										<fielddominance>none</fielddominance>
									</samplecharacteristics>
								</video>
								<audio>
									<samplecharacteristics>
										<depth>16</depth>
										<samplerate>44100</samplerate>
									</samplecharacteristics>
									<channelcount>2</channelcount>
								</audio>
							</media>
						</file>
						<link>
							<linkclipref>clipitem-89</linkclipref>
							<mediatype>video</mediatype>
							<trackindex>1</trackindex>
							<clipindex>5</clipindex>
						</link>
						<link>
							<linkclipref>clipitem-97</linkclipref>
							<mediatype>audio</mediatype>
							<trackindex>1</trackindex>
							<clipindex>5</clipindex>
							<groupindex>1</groupindex>
						</link>
						<link>
							<linkclipref>clipitem-105</linkclipref>
							<mediatype>audio</mediatype>
							<trackindex>2</trackindex>
							<clipindex>5</clipindex>
							<groupindex>1</groupindex>
						</link>
						<logginginfo>
							<description />
							<scene />
							<shottake />
							<lognote />
							<good />
							<originalvideofilename />
							<originalaudiofilename />
						</logginginfo>
						<colorinfo>
							<lut />
							<lut1 />
							<asc_sop />
							<asc_sat />
							<lut2 />
						</colorinfo>
					<labels><label2>Cerulean</label2></labels></clipitem>
					<clipitem id="clipitem-85">
						<masterclipid>clipitem-1-22</masterclipid>
						<name>Taylor_Swift_Reveals_What_Fiance_Travis_Kelce_Said_Before_Proposal_E_News.mp4</name>
						<enabled>TRUE</enabled>
						<duration>150</duration>
						<rate>
							<timebase>25</timebase>
							<ntsc>FALSE</ntsc>
						</rate>
						<start>1650</start>
						<end>1800</end>
						<in>3150</in>
						<out>3300</out>
						<pproTicksIn>0</pproTicksIn>
						<pproTicksOut>36039790080000</pproTicksOut>
						<alphatype>none</alphatype>
						<pixelaspectratio>square</pixelaspectratio>
						<anamorphic>FALSE</anamorphic>
						<file id="file-29">
							<name>Taylor_Swift_Reveals_What_Fiance_Travis_Kelce_Said_Before_Proposal_E_News.mp4</name>
							<pathurl>file://localhost/Users/themalikano/Documents/VideoAutomation/premiere_videos/Taylor_Swift_Reveals_What_Fiance_Travis_Kelce_Said_Before_Proposal_E_News.mp4</pathurl>
							<rate>
								<timebase>29</timebase>
								<ntsc>FALSE</ntsc>
							</rate>
							<duration>4115</duration>
							<timecode>
								<rate>
									<timebase>29</timebase>
									<ntsc>FALSE</ntsc>
								</rate>
								<string>00:00:00:00</string>
								<frame>0</frame>
								<displayformat>NDF</displayformat>
							</timecode>
							<media>
								<video>
									<samplecharacteristics>
										<rate>
											<timebase>29</timebase>
											<ntsc>FALSE</ntsc>
										</rate>
										<width>1920</width>
										<height>1080</height>
										<anamorphic>FALSE</anamorphic>
										<pixelaspectratio>square</pixelaspectratio>
										<fielddominance>none</fielddominance>
									</samplecharacteristics>
								</video>
								<audio>
									<samplecharacteristics>
										<depth>16</depth>
										<samplerate>44100</samplerate>
									</samplecharacteristics>
									<channelcount>2</channelcount>
								</audio>
							</media>
						</file>
						<link>
							<linkclipref>clipitem-85</linkclipref>
							<mediatype>video</mediatype>
							<trackindex>1</trackindex>
							<clipindex>1</clipindex>
						</link>
						<link>
							<linkclipref>clipitem-93</linkclipref>
							<mediatype>audio</mediatype>
							<trackindex>1</trackindex>
							<clipindex>1</clipindex>
							<groupindex>1</groupindex>
						</link>
						<link>
							<linkclipref>clipitem-101</linkclipref>
							<mediatype>audio</mediatype>
							<trackindex>2</trackindex>
							<clipindex>1</clipindex>
							<groupindex>1</groupindex>
						</link>
						<logginginfo>
							<description />
							<scene />
							<shottake />
							<lognote />
							<good />
							<originalvideofilename />
							<originalaudiofilename />
						</logginginfo>
						<colorinfo>
							<lut />
							<lut1 />
							<asc_sop />
							<asc_sat />
							<lut2 />
						</colorinfo>
					<labels><label2>Violet</label2></labels></clipitem>
					<clipitem id="clipitem-87">
						<masterclipid>clipitem-3-501</masterclipid>
						<name>Taylor_Swift_Travis_Kelce_-_The_New_Power_Couple.mp4</name>
						<enabled>TRUE</enabled>
						<duration>150</duration>
						<rate>
							<timebase>25</timebase>
							<ntsc>FALSE</ntsc>
						</rate>
						<start>1800</start>
						<end>1950</end>
						<in>75000</in>
						<out>75150</out>
						<pproTicksIn>0</pproTicksIn>
						<pproTicksOut>875013995520000</pproTicksOut>
						<alphatype>none</alphatype>
						<pixelaspectratio>square</pixelaspectratio>
						<anamorphic>FALSE</anamorphic>
						<file id="file-31">
							<name>Taylor_Swift_Travis_Kelce_-_The_New_Power_Couple.mp4</name>
							<pathurl>file://localhost/Users/themalikano/Documents/VideoAutomation/premiere_videos/Taylor_Swift_Travis_Kelce_-_The_New_Power_Couple.mp4</pathurl>
							<rate>
								<timebase>25</timebase>
								<ntsc>FALSE</ntsc>
							</rate>
							<duration>86118</duration>
							<timecode>
								<rate>
									<timebase>25</timebase>
									<ntsc>FALSE</ntsc>
								</rate>
								<string>00:00:00:00</string>
								<frame>0</frame>
								<displayformat>NDF</displayformat>
							</timecode>
							<media>
								<video>
									<samplecharacteristics>
										<rate>
											<timebase>25</timebase>
											<ntsc>FALSE</ntsc>
										</rate>
										<width>1920</width>
										<height>1080</height>
										<anamorphic>FALSE</anamorphic>
										<pixelaspectratio>square</pixelaspectratio>
										<fielddominance>none</fielddominance>
									</samplecharacteristics>
								</video>
								<audio>
									<samplecharacteristics>
										<depth>16</depth>
										<samplerate>44100</samplerate>
									</samplecharacteristics>
									<channelcount>2</channelcount>
								</audio>
							</media>
						</file>
						<link>
							<linkclipref>clipitem-87</linkclipref>
							<mediatype>video</mediatype>
							<trackindex>1</trackindex>
							<clipindex>3</clipindex>
						</link>
						<link>
							<linkclipref>clipitem-95</linkclipref>
							<mediatype>audio</mediatype>
							<trackindex>1</trackindex>
							<clipindex>3</clipindex>
							<groupindex>1</groupindex>
						</link>
						<link>
							<linkclipref>clipitem-103</linkclipref>
							<mediatype>audio</mediatype>
							<trackindex>2</trackindex>
							<clipindex>3</clipindex>
							<groupindex>1</groupindex>
						</link>
						<logginginfo>
							<description />
							<scene />
							<shottake />
							<lognote />
							<good />
							<originalvideofilename />
							<originalaudiofilename />
						</logginginfo>
						<colorinfo>
							<lut />
							<lut1 />
							<asc_sop />
							<asc_sat />
							<lut2 />
						</colorinfo>
					<labels><label2>Caribbean</label2></labels></clipitem>
					<clipitem id="clipitem-85">
						<masterclipid>clipitem-1-14</masterclipid>
						<name>Taylor_Swift_Reveals_What_Fiance_Travis_Kelce_Said_Before_Proposal_E_News.mp4</name>
						<enabled>TRUE</enabled>
						<duration>150</duration>
						<rate>
							<timebase>25</timebase>
							<ntsc>FALSE</ntsc>
						</rate>
						<start>1950</start>
						<end>2100</end>
						<in>1950</in>
						<out>2100</out>
						<pproTicksIn>0</pproTicksIn>
						<pproTicksOut>36039790080000</pproTicksOut>
						<alphatype>none</alphatype>
						<pixelaspectratio>square</pixelaspectratio>
						<anamorphic>FALSE</anamorphic>
						<file id="file-29">
							<name>Taylor_Swift_Reveals_What_Fiance_Travis_Kelce_Said_Before_Proposal_E_News.mp4</name>
							<pathurl>file://localhost/Users/themalikano/Documents/VideoAutomation/premiere_videos/Taylor_Swift_Reveals_What_Fiance_Travis_Kelce_Said_Before_Proposal_E_News.mp4</pathurl>
							<rate>
								<timebase>29</timebase>
								<ntsc>FALSE</ntsc>
							</rate>
							<duration>4115</duration>
							<timecode>
								<rate>
									<timebase>29</timebase>
									<ntsc>FALSE</ntsc>
								</rate>
								<string>00:00:00:00</string>
								<frame>0</frame>
								<displayformat>NDF</displayformat>
							</timecode>
							<media>
								<video>
									<samplecharacteristics>
										<rate>
											<timebase>29</timebase>
											<ntsc>FALSE</ntsc>
										</rate>
										<width>1920</width>
										<height>1080</height>
										<anamorphic>FALSE</anamorphic>
										<pixelaspectratio>square</pixelaspectratio>
										<fielddominance>none</fielddominance>
									</samplecharacteristics>
								</video>
								<audio>
									<samplecharacteristics>
										<depth>16</depth>
										<samplerate>44100</samplerate>
									</samplecharacteristics>
									<channelcount>2</channelcount>
								</audio>
							</media>
						</file>
						<link>
							<linkclipref>clipitem-85</linkclipref>
							<mediatype>video</mediatype>
							<trackindex>1</trackindex>
							<clipindex>1</clipindex>
						</link>
						<link>
							<linkclipref>clipitem-93</linkclipref>
							<mediatype>audio</mediatype>
							<trackindex>1</trackindex>
							<clipindex>1</clipindex>
							<groupindex>1</groupindex>
						</link>
						<link>
							<linkclipref>clipitem-101</linkclipref>
							<mediatype>audio</mediatype>
							<trackindex>2</trackindex>
							<clipindex>1</clipindex>
							<groupindex>1</groupindex>
						</link>
						<logginginfo>
							<description />
							<scene />
							<shottake />
							<lognote />
							<good />
							<originalvideofilename />
							<originalaudiofilename />
						</logginginfo>
						<colorinfo>
							<lut />
							<lut1 />
							<asc_sop />
							<asc_sat />
							<lut2 />
						</colorinfo>
					<labels><label2>Violet</label2></labels></clipitem>
					<clipitem id="clipitem-92">
						<masterclipid>clipitem-8-12</masterclipid>
						<name>Why_Travis_Kelce_Jokes_Taylor_Swift_Is_Going_to_KILL_Him.mp4</name>
						<enabled>TRUE</enabled>
						<duration>150</duration>
						<rate>
							<timebase>25</timebase>
							<ntsc>FALSE</ntsc>
						</rate>
						<start>2100</start>
						<end>2250</end>
						<in>1650</in>
						<out>1800</out>
						<pproTicksIn>0</pproTicksIn>
						<pproTicksOut>25249190400000</pproTicksOut>
						<alphatype>none</alphatype>
						<pixelaspectratio>square</pixelaspectratio>
						<anamorphic>FALSE</anamorphic>
						<file id="file-36">
							<name>Why_Travis_Kelce_Jokes_Taylor_Swift_Is_Going_to_KILL_Him.mp4</name>
							<pathurl>file://localhost/Users/themalikano/Documents/VideoAutomation/premiere_videos/Why_Travis_Kelce_Jokes_Taylor_Swift_Is_Going_to_KILL_Him.mp4</pathurl>
							<rate>
								<timebase>30</timebase>
								<ntsc>TRUE</ntsc>
							</rate>
							<duration>2980</duration>
							<timecode>
								<rate>
									<timebase>30</timebase>
									<ntsc>TRUE</ntsc>
								</rate>
								<string>00:00:00:00</string>
								<frame>0</frame>
								<displayformat>NDF</displayformat>
							</timecode>
							<media>
								<video>
									<samplecharacteristics>
										<rate>
											<timebase>30</timebase>
											<ntsc>TRUE</ntsc>
										</rate>
										<width>1920</width>
										<height>1080</height>
										<anamorphic>FALSE</anamorphic>
										<pixelaspectratio>square</pixelaspectratio>
										<fielddominance>none</fielddominance>
									</samplecharacteristics>
								</video>
								<audio>
									<samplecharacteristics>
										<depth>16</depth>
										<samplerate>44100</samplerate>
									</samplecharacteristics>
									<channelcount>2</channelcount>
								</audio>
							</media>
						</file>
						<link>
							<linkclipref>clipitem-92</linkclipref>
							<mediatype>video</mediatype>
							<trackindex>1</trackindex>
							<clipindex>8</clipindex>
						</link>
						<link>
							<linkclipref>clipitem-100</linkclipref>
							<mediatype>audio</mediatype>
							<trackindex>1</trackindex>
							<clipindex>8</clipindex>
							<groupindex>1</groupindex>
						</link>
						<link>
							<linkclipref>clipitem-108</linkclipref>
							<mediatype>audio</mediatype>
							<trackindex>2</trackindex>
							<clipindex>8</clipindex>
							<groupindex>1</groupindex>
						</link>
						<logginginfo>
							<description />
							<scene />
							<shottake />
							<lognote />
							<good />
							<originalvideofilename />
							<originalaudiofilename />
						</logginginfo>
						<colorinfo>
							<lut />
							<lut1 />
							<asc_sop />
							<asc_sat />
							<lut2 />
						</colorinfo>
					<labels><label2>Mango</label2></labels></clipitem>
					<clipitem id="clipitem-91">
						<masterclipid>clipitem-7-16</masterclipid>
						<name>What_Caused_Taylor_Swift-Blake_Lively_Rift_The_View.mp4</name>
						<enabled>TRUE</enabled>
						<duration>150</duration>
						<rate>
							<timebase>25</timebase>
							<ntsc>FALSE</ntsc>
						</rate>
						<start>2250</start>
						<end>2400</end>
						<in>2250</in>
						<out>2400</out>
						<pproTicksIn>0</pproTicksIn>
						<pproTicksOut>45733040640000</pproTicksOut>
						<alphatype>none</alphatype>
						<pixelaspectratio>square</pixelaspectratio>
						<anamorphic>FALSE</anamorphic>
						<file id="file-35">
							<name>What_Caused_Taylor_Swift-Blake_Lively_Rift_The_View.mp4</name>
							<pathurl>file://localhost/Users/themalikano/Documents/VideoAutomation/premiere_videos/What_Caused_Taylor_Swift-Blake_Lively_Rift_The_View.mp4</pathurl>
							<rate>
								<timebase>30</timebase>
								<ntsc>TRUE</ntsc>
							</rate>
							<duration>5397</duration>
							<timecode>
								<rate>
									<timebase>30</timebase>
									<ntsc>TRUE</ntsc>
								</rate>
								<string>00:00:00:00</string>
								<frame>0</frame>
								<displayformat>NDF</displayformat>
							</timecode>
							<media>
								<video>
									<samplecharacteristics>
										<rate>
											<timebase>30</timebase>
											<ntsc>TRUE</ntsc>
										</rate>
										<width>1280</width>
										<height>720</height>
										<anamorphic>FALSE</anamorphic>
										<pixelaspectratio>square</pixelaspectratio>
										<fielddominance>none</fielddominance>
									</samplecharacteristics>
								</video>
								<audio>
									<samplecharacteristics>
										<depth>16</depth>
										<samplerate>44100</samplerate>
									</samplecharacteristics>
									<channelcount>2</channelcount>
								</audio>
							</media>
						</file>
						<filter>
							<effect>
								<name>Basic Motion</name>
								<effectid>basic</effectid>
								<effectcategory>motion</effectcategory>
								<effecttype>motion</effecttype>
								<mediatype>video</mediatype>
								<pproBypass>false</pproBypass>
								<parameter authoringApp="PremierePro">
									<parameterid>scale</parameterid>
									<name>Scale</name>
									<valuemin>0</valuemin>
									<valuemax>1000</valuemax>
									<value>150</value>
								</parameter>
								<parameter authoringApp="PremierePro">
									<parameterid>rotation</parameterid>
									<name>Rotation</name>
									<valuemin>-8640</valuemin>
									<valuemax>8640</valuemax>
									<value>0</value>
								</parameter>
								<parameter authoringApp="PremierePro">
									<parameterid>center</parameterid>
									<name>Center</name>
									<value>
										<horiz>0</horiz>
										<vert>0</vert>
									</value>
								</parameter>
								<parameter authoringApp="PremierePro">
									<parameterid>centerOffset</parameterid>
									<name>Anchor Point</name>
									<value>
										<horiz>0</horiz>
										<vert>0</vert>
									</value>
								</parameter>
								<parameter authoringApp="PremierePro">
									<parameterid>antiflicker</parameterid>
									<name>Anti-flicker Filter</name>
									<valuemin>0.0</valuemin>
									<valuemax>1.0</valuemax>
									<value>0</value>
								</parameter>
							</effect>
						</filter>
						<link>
							<linkclipref>clipitem-91</linkclipref>
							<mediatype>video</mediatype>
							<trackindex>1</trackindex>
							<clipindex>7</clipindex>
						</link>
						<link>
							<linkclipref>clipitem-99</linkclipref>
							<mediatype>audio</mediatype>
							<trackindex>1</trackindex>
							<clipindex>7</clipindex>
							<groupindex>1</groupindex>
						</link>
						<link>
							<linkclipref>clipitem-107</linkclipref>
							<mediatype>audio</mediatype>
							<trackindex>2</trackindex>
							<clipindex>7</clipindex>
							<groupindex>1</groupindex>
						</link>
						<logginginfo>
							<description />
							<scene />
							<shottake />
							<lognote />
							<good />
							<originalvideofilename />
							<originalaudiofilename />
						</logginginfo>
						<colorinfo>
							<lut />
							<lut1 />
							<asc_sop />
							<asc_sat />
							<lut2 />
						</colorinfo>
					<labels><label2>Rose</label2></labels></clipitem>
					<clipitem id="clipitem-92">
						<masterclipid>clipitem-8-11</masterclipid>
						<name>Why_Travis_Kelce_Jokes_Taylor_Swift_Is_Going_to_KILL_Him.mp4</name>
						<enabled>TRUE</enabled>
						<duration>150</duration>
						<rate>
							<timebase>25</timebase>
							<ntsc>FALSE</ntsc>
						</rate>
						<start>2400</start>
						<end>2550</end>
						<in>1500</in>
						<out>1650</out>
						<pproTicksIn>0</pproTicksIn>
						<pproTicksOut>25249190400000</pproTicksOut>
						<alphatype>none</alphatype>
						<pixelaspectratio>square</pixelaspectratio>
						<anamorphic>FALSE</anamorphic>
						<file id="file-36">
							<name>Why_Travis_Kelce_Jokes_Taylor_Swift_Is_Going_to_KILL_Him.mp4</name>
							<pathurl>file://localhost/Users/themalikano/Documents/VideoAutomation/premiere_videos/Why_Travis_Kelce_Jokes_Taylor_Swift_Is_Going_to_KILL_Him.mp4</pathurl>
							<rate>
								<timebase>30</timebase>
								<ntsc>TRUE</ntsc>
							</rate>
							<duration>2980</duration>
							<timecode>
								<rate>
									<timebase>30</timebase>
									<ntsc>TRUE</ntsc>
								</rate>
								<string>00:00:00:00</string>
								<frame>0</frame>
								<displayformat>NDF</displayformat>
							</timecode>
							<media>
								<video>
									<samplecharacteristics>
										<rate>
											<timebase>30</timebase>
											<ntsc>TRUE</ntsc>
										</rate>
										<width>1920</width>
										<height>1080</height>
										<anamorphic>FALSE</anamorphic>
										<pixelaspectratio>square</pixelaspectratio>
										<fielddominance>none</fielddominance>
									</samplecharacteristics>
								</video>
								<audio>
									<samplecharacteristics>
										<depth>16</depth>
										<samplerate>44100</samplerate>
									</samplecharacteristics>
									<channelcount>2</channelcount>
								</audio>
							</media>
						</file>
						<link>
							<linkclipref>clipitem-92</linkclipref>
							<mediatype>video</mediatype>
							<trackindex>1</trackindex>
							<clipindex>8</clipindex>
						</link>
						<link>
							<linkclipref>clipitem-100</linkclipref>
							<mediatype>audio</mediatype>
							<trackindex>1</trackindex>
							<clipindex>8</clipindex>
							<groupindex>1</groupindex>
						</link>
						<link>
							<linkclipref>clipitem-108</linkclipref>
							<mediatype>audio</mediatype>
							<trackindex>2</trackindex>
							<clipindex>8</clipindex>
							<groupindex>1</groupindex>
						</link>
						<logginginfo>
							<description />
							<scene />
							<shottake />
							<lognote />
							<good />
							<originalvideofilename />
							<originalaudiofilename />
						</logginginfo>
						<colorinfo>
							<lut />
							<lut1 />
							<asc_sop />
							<asc_sat />
							<lut2 />
						</colorinfo>
					<labels><label2>Mango</label2></labels></clipitem>
					<clipitem id="clipitem-89">
						<masterclipid>clipitem-5-15</masterclipid>
						<name>Travis_Kelce_s_appearance_on_The_Eras_Tour_during_I_Can_Do_It_With_A_Broken_Heart_in_London.mp4</name>
						<enabled>TRUE</enabled>
						<duration>150</duration>
						<rate>
							<timebase>25</timebase>
							<ntsc>FALSE</ntsc>
						</rate>
						<start>2550</start>
						<end>2700</end>
						<in>2100</in>
						<out>2250</out>
						<pproTicksIn>0</pproTicksIn>
						<pproTicksOut>27525173760000</pproTicksOut>
						<alphatype>none</alphatype>
						<pixelaspectratio>square</pixelaspectratio>
						<anamorphic>FALSE</anamorphic>
						<file id="file-33">
							<name>Travis_Kelce_s_appearance_on_The_Eras_Tour_during_I_Can_Do_It_With_A_Broken_Heart_in_London.mp4</name>
							<pathurl>file://localhost/Users/themalikano/Documents/VideoAutomation/premiere_videos/Travis_Kelce_s_appearance_on_The_Eras_Tour_during_I_Can_Do_It_With_A_Broken_Heart_in_London.mp4</pathurl>
							<rate>
								<timebase>24</timebase>
								<ntsc>TRUE</ntsc>
							</rate>
							<duration>2599</duration>
							<timecode>
								<rate>
									<timebase>24</timebase>
									<ntsc>TRUE</ntsc>
								</rate>
								<string>00:00:00:00</string>
								<frame>0</frame>
								<displayformat>NDF</displayformat>
							</timecode>
							<media>
								<video>
									<samplecharacteristics>
										<rate>
											<timebase>24</timebase>
											<ntsc>TRUE</ntsc>
										</rate>
										<width>1920</width>
										<height>1080</height>
										<anamorphic>FALSE</anamorphic>
										<pixelaspectratio>square</pixelaspectratio>
										<fielddominance>none</fielddominance>
									</samplecharacteristics>
								</video>
								<audio>
									<samplecharacteristics>
										<depth>16</depth>
										<samplerate>44100</samplerate>
									</samplecharacteristics>
									<channelcount>2</channelcount>
								</audio>
							</media>
						</file>
						<link>
							<linkclipref>clipitem-89</linkclipref>
							<mediatype>video</mediatype>
							<trackindex>1</trackindex>
							<clipindex>5</clipindex>
						</link>
						<link>
							<linkclipref>clipitem-97</linkclipref>
							<mediatype>audio</mediatype>
							<trackindex>1</trackindex>
							<clipindex>5</clipindex>
							<groupindex>1</groupindex>
						</link>
						<link>
							<linkclipref>clipitem-105</linkclipref>
							<mediatype>audio</mediatype>
							<trackindex>2</trackindex>
							<clipindex>5</clipindex>
							<groupindex>1</groupindex>
						</link>
						<logginginfo>
							<description />
							<scene />
							<shottake />
							<lognote />
							<good />
							<originalvideofilename />
							<originalaudiofilename />
						</logginginfo>
						<colorinfo>
							<lut />
							<lut1 />
							<asc_sop />
							<asc_sat />
							<lut2 />
						</colorinfo>
					<labels><label2>Cerulean</label2></labels></clipitem>
					<clipitem id="clipitem-88">
						<masterclipid>clipitem-4-229</masterclipid>
						<name>Travis_Kelce_ANNOUNCE_WEDDING_DATE_with_Taylor_Swift_Why_He_was_Delaying_all_Along.mp4</name>
						<enabled>TRUE</enabled>
						<duration>150</duration>
						<rate>
							<timebase>25</timebase>
							<ntsc>FALSE</ntsc>
						</rate>
						<start>2700</start>
						<end>2850</end>
						<in>34200</in>
						<out>34350</out>
						<pproTicksIn>0</pproTicksIn>
						<pproTicksOut>419410897920000</pproTicksOut>
						<alphatype>none</alphatype>
						<pixelaspectratio>square</pixelaspectratio>
						<anamorphic>FALSE</anamorphic>
						<file id="file-32">
							<name>Travis_Kelce_ANNOUNCE_WEDDING_DATE_with_Taylor_Swift_Why_He_was_Delaying_all_Along.mp4</name>
							<pathurl>file://localhost/Users/themalikano/Documents/VideoAutomation/premiere_videos/Travis_Kelce_ANNOUNCE_WEDDING_DATE_with_Taylor_Swift_Why_He_was_Delaying_all_Along.mp4</pathurl>
							<rate>
								<timebase>24</timebase>
								<ntsc>FALSE</ntsc>
							</rate>
							<duration>39627</duration>
							<timecode>
								<rate>
									<timebase>24</timebase>
									<ntsc>FALSE</ntsc>
								</rate>
								<string>00:00:00:00</string>
								<frame>0</frame>
								<displayformat>NDF</displayformat>
							</timecode>
							<media>
								<video>
									<samplecharacteristics>
										<rate>
											<timebase>24</timebase>
											<ntsc>FALSE</ntsc>
										</rate>
										<width>852</width>
										<height>480</height>
										<anamorphic>FALSE</anamorphic>
										<pixelaspectratio>square</pixelaspectratio>
										<fielddominance>none</fielddominance>
									</samplecharacteristics>
								</video>
								<audio>
									<samplecharacteristics>
										<depth>16</depth>
										<samplerate>44100</samplerate>
									</samplecharacteristics>
									<channelcount>2</channelcount>
								</audio>
							</media>
						</file>
						<filter>
							<effect>
								<name>Basic Motion</name>
								<effectid>basic</effectid>
								<effectcategory>motion</effectcategory>
								<effecttype>motion</effecttype>
								<mediatype>video</mediatype>
								<pproBypass>false</pproBypass>
								<parameter authoringApp="PremierePro">
									<parameterid>scale</parameterid>
									<name>Scale</name>
									<valuemin>0</valuemin>
									<valuemax>1000</valuemax>
									<value>225</value>
								</parameter>
								<parameter authoringApp="PremierePro">
									<parameterid>rotation</parameterid>
									<name>Rotation</name>
									<valuemin>-8640</valuemin>
									<valuemax>8640</valuemax>
									<value>0</value>
								</parameter>
								<parameter authoringApp="PremierePro">
									<parameterid>center</parameterid>
									<name>Center</name>
									<value>
										<horiz>0</horiz>
										<vert>0</vert>
									</value>
								</parameter>
								<parameter authoringApp="PremierePro">
									<parameterid>centerOffset</parameterid>
									<name>Anchor Point</name>
									<value>
										<horiz>0</horiz>
										<vert>0</vert>
									</value>
								</parameter>
								<parameter authoringApp="PremierePro">
									<parameterid>antiflicker</parameterid>
									<name>Anti-flicker Filter</name>
									<valuemin>0.0</valuemin>
									<valuemax>1.0</valuemax>
									<value>0</value>
								</parameter>
							</effect>
						</filter>
						<link>
							<linkclipref>clipitem-88</linkclipref>
							<mediatype>video</mediatype>
							<trackindex>1</trackindex>
							<clipindex>4</clipindex>
						</link>
						<link>
							<linkclipref>clipitem-96</linkclipref>
							<mediatype>audio</mediatype>
							<trackindex>1</trackindex>
							<clipindex>4</clipindex>
							<groupindex>1</groupindex>
						</link>
						<link>
							<linkclipref>clipitem-104</linkclipref>
							<mediatype>audio</mediatype>
							<trackindex>2</trackindex>
							<clipindex>4</clipindex>
							<groupindex>1</groupindex>
						</link>
						<logginginfo>
							<description />
							<scene />
							<shottake />
							<lognote />
							<good />
							<originalvideofilename />
							<originalaudiofilename />
						</logginginfo>
						<colorinfo>
							<lut />
							<lut1 />
							<asc_sop />
							<asc_sat />
							<lut2 />
						</colorinfo>
					<labels><label2>Lavender</label2></labels></clipitem>
					<clipitem id="clipitem-86">
						<masterclipid>clipitem-2-145</masterclipid>
						<name>Taylor_Swift_Shares_The_Story_Of_Calling_Travis_Kelce_For_The_First_Time.mp4</name>
						<enabled>TRUE</enabled>
						<duration>150</duration>
						<rate>
							<timebase>25</timebase>
							<ntsc>FALSE</ntsc>
						</rate>
						<start>2850</start>
						<end>3000</end>
						<in>21600</in>
						<out>21750</out>
						<pproTicksIn>0</pproTicksIn>
						<pproTicksOut>236438092800000</pproTicksOut>
						<alphatype>none</alphatype>
						<pixelaspectratio>square</pixelaspectratio>
						<anamorphic>FALSE</anamorphic>
						<file id="file-30">
							<name>Taylor_Swift_Shares_The_Story_Of_Calling_Travis_Kelce_For_The_First_Time.mp4</name>
							<pathurl>file://localhost/Users/themalikano/Documents/VideoAutomation/premiere_videos/Taylor_Swift_Shares_The_Story_Of_Calling_Travis_Kelce_For_The_First_Time.mp4</pathurl>
							<rate>
								<timebase>30</timebase>
								<ntsc>TRUE</ntsc>
							</rate>
							<duration>27897</duration>
							<timecode>
								<rate>
									<timebase>30</timebase>
									<ntsc>TRUE</ntsc>
								</rate>
								<string>00:00:00:00</string>
								<frame>0</frame>
								<displayformat>NDF</displayformat>
							</timecode>
							<media>
								<video>
									<samplecharacteristics>
										<rate>
											<timebase>30</timebase>
											<ntsc>TRUE</ntsc>
										</rate>
										<width>1920</width>
										<height>1080</height>
										<anamorphic>FALSE</anamorphic>
										<pixelaspectratio>square</pixelaspectratio>
										<fielddominance>none</fielddominance>
									</samplecharacteristics>
								</video>
								<audio>
									<samplecharacteristics>
										<depth>16</depth>
										<samplerate>44100</samplerate>
									</samplecharacteristics>
									<channelcount>2</channelcount>
								</audio>
							</media>
						</file>
						<link>
							<linkclipref>clipitem-86</linkclipref>
							<mediatype>video</mediatype>
							<trackindex>1</trackindex>
							<clipindex>2</clipindex>
						</link>
						<link>
							<linkclipref>clipitem-94</linkclipref>
							<mediatype>audio</mediatype>
							<trackindex>1</trackindex>
							<clipindex>2</clipindex>
							<groupindex>1</groupindex>
						</link>
						<link>
							<linkclipref>clipitem-102</linkclipref>
							<mediatype>audio</mediatype>
							<trackindex>2</trackindex>
							<clipindex>2</clipindex>
							<groupindex>1</groupindex>
						</link>
						<logginginfo>
							<description />
							<scene />
							<shottake />
							<lognote />
							<good />
							<originalvideofilename />
							<originalaudiofilename />
						</logginginfo>
						<colorinfo>
							<lut />
							<lut1 />
							<asc_sop />
							<asc_sat />
							<lut2 />
						</colorinfo>
					<labels><label2>Iris</label2></labels></clipitem>
					<clipitem id="clipitem-92">
						<masterclipid>clipitem-8-7</masterclipid>
						<name>Why_Travis_Kelce_Jokes_Taylor_Swift_Is_Going_to_KILL_Him.mp4</name>
						<enabled>TRUE</enabled>
						<duration>150</duration>
						<rate>
							<timebase>25</timebase>
							<ntsc>FALSE</ntsc>
						</rate>
						<start>3000</start>
						<end>3150</end>
						<in>900</in>
						<out>1050</out>
						<pproTicksIn>0</pproTicksIn>
						<pproTicksOut>25249190400000</pproTicksOut>
						<alphatype>none</alphatype>
						<pixelaspectratio>square</pixelaspectratio>
						<anamorphic>FALSE</anamorphic>
						<file id="file-36">
							<name>Why_Travis_Kelce_Jokes_Taylor_Swift_Is_Going_to_KILL_Him.mp4</name>
							<pathurl>file://localhost/Users/themalikano/Documents/VideoAutomation/premiere_videos/Why_Travis_Kelce_Jokes_Taylor_Swift_Is_Going_to_KILL_Him.mp4</pathurl>
							<rate>
								<timebase>30</timebase>
								<ntsc>TRUE</ntsc>
							</rate>
							<duration>2980</duration>
							<timecode>
								<rate>
									<timebase>30</timebase>
									<ntsc>TRUE</ntsc>
								</rate>
								<string>00:00:00:00</string>
								<frame>0</frame>
								<displayformat>NDF</displayformat>
							</timecode>
							<media>
								<video>
									<samplecharacteristics>
										<rate>
											<timebase>30</timebase>
											<ntsc>TRUE</ntsc>
										</rate>
										<width>1920</width>
										<height>1080</height>
										<anamorphic>FALSE</anamorphic>
										<pixelaspectratio>square</pixelaspectratio>
										<fielddominance>none</fielddominance>
									</samplecharacteristics>
								</video>
								<audio>
									<samplecharacteristics>
										<depth>16</depth>
										<samplerate>44100</samplerate>
									</samplecharacteristics>
									<channelcount>2</channelcount>
								</audio>
							</media>
						</file>
						<link>
							<linkclipref>clipitem-92</linkclipref>
							<mediatype>video</mediatype>
							<trackindex>1</trackindex>
							<clipindex>8</clipindex>
						</link>
						<link>
							<linkclipref>clipitem-100</linkclipref>
							<mediatype>audio</mediatype>
							<trackindex>1</trackindex>
							<clipindex>8</clipindex>
							<groupindex>1</groupindex>
						</link>
						<link>
							<linkclipref>clipitem-108</linkclipref>
							<mediatype>audio</mediatype>
							<trackindex>2</trackindex>
							<clipindex>8</clipindex>
							<groupindex>1</groupindex>
						</link>
						<logginginfo>
							<description />
							<scene />
							<shottake />
							<lognote />
							<good />
							<originalvideofilename />
							<originalaudiofilename />
						</logginginfo>
						<colorinfo>
							<lut />
							<lut1 />
							<asc_sop />
							<asc_sat />
							<lut2 />
						</colorinfo>
					<labels><label2>Mango</label2></labels></clipitem>
					<clipitem id="clipitem-85">
						<masterclipid>clipitem-1-7</masterclipid>
						<name>Taylor_Swift_Reveals_What_Fiance_Travis_Kelce_Said_Before_Proposal_E_News.mp4</name>
						<enabled>TRUE</enabled>
						<duration>150</duration>
						<rate>
							<timebase>25</timebase>
							<ntsc>FALSE</ntsc>
						</rate>
						<start>3150</start>
						<end>3300</end>
						<in>900</in>
						<out>1050</out>
						<pproTicksIn>0</pproTicksIn>
						<pproTicksOut>36039790080000</pproTicksOut>
						<alphatype>none</alphatype>
						<pixelaspectratio>square</pixelaspectratio>
						<anamorphic>FALSE</anamorphic>
						<file id="file-29">
							<name>Taylor_Swift_Reveals_What_Fiance_Travis_Kelce_Said_Before_Proposal_E_News.mp4</name>
							<pathurl>file://localhost/Users/themalikano/Documents/VideoAutomation/premiere_videos/Taylor_Swift_Reveals_What_Fiance_Travis_Kelce_Said_Before_Proposal_E_News.mp4</pathurl>
							<rate>
								<timebase>29</timebase>
								<ntsc>FALSE</ntsc>
							</rate>
							<duration>4115</duration>
							<timecode>
								<rate>
									<timebase>29</timebase>
									<ntsc>FALSE</ntsc>
								</rate>
								<string>00:00:00:00</string>
								<frame>0</frame>
								<displayformat>NDF</displayformat>
							</timecode>
							<media>
								<video>
									<samplecharacteristics>
										<rate>
											<timebase>29</timebase>
											<ntsc>FALSE</ntsc>
										</rate>
										<width>1920</width>
										<height>1080</height>
										<anamorphic>FALSE</anamorphic>
										<pixelaspectratio>square</pixelaspectratio>
										<fielddominance>none</fielddominance>
									</samplecharacteristics>
								</video>
								<audio>
									<samplecharacteristics>
										<depth>16</depth>
										<samplerate>44100</samplerate>
									</samplecharacteristics>
									<channelcount>2</channelcount>
								</audio>
							</media>
						</file>
						<link>
							<linkclipref>clipitem-85</linkclipref>
							<mediatype>video</mediatype>
							<trackindex>1</trackindex>
							<clipindex>1</clipindex>
						</link>
						<link>
							<linkclipref>clipitem-93</linkclipref>
							<mediatype>audio</mediatype>
							<trackindex>1</trackindex>
							<clipindex>1</clipindex>
							<groupindex>1</groupindex>
						</link>
						<link>
							<linkclipref>clipitem-101</linkclipref>
							<mediatype>audio</mediatype>
							<trackindex>2</trackindex>
							<clipindex>1</clipindex>
							<groupindex>1</groupindex>
						</link>
						<logginginfo>
							<description />
							<scene />
							<shottake />
							<lognote />
							<good />
							<originalvideofilename />
							<originalaudiofilename />
						</logginginfo>
						<colorinfo>
							<lut />
							<lut1 />
							<asc_sop />
							<asc_sat />
							<lut2 />
						</colorinfo>
					<labels><label2>Violet</label2></labels></clipitem>
					<clipitem id="clipitem-90">
						<masterclipid>clipitem-6-23</masterclipid>
						<name>Travis_Kelce_talks_about_postponing_his_wedding_to_Fiance_Taylor_Swift_on_the_New_Heights_Podcast.mp4</name>
						<enabled>TRUE</enabled>
						<duration>150</duration>
						<rate>
							<timebase>25</timebase>
							<ntsc>FALSE</ntsc>
						</rate>
						<start>3300</start>
						<end>3450</end>
						<in>3300</in>
						<out>3450</out>
						<pproTicksIn>0</pproTicksIn>
						<pproTicksOut>149391889920000</pproTicksOut>
						<alphatype>none</alphatype>
						<pixelaspectratio>square</pixelaspectratio>
						<anamorphic>FALSE</anamorphic>
						<file id="file-34">
							<name>Travis_Kelce_talks_about_postponing_his_wedding_to_Fiance_Taylor_Swift_on_the_New_Heights_Podcast.mp4</name>
							<pathurl>file://localhost/Users/themalikano/Documents/VideoAutomation/premiere_videos/Travis_Kelce_talks_about_postponing_his_wedding_to_Fiance_Taylor_Swift_on_the_New_Heights_Podcast.mp4</pathurl>
							<rate>
								<timebase>30</timebase>
								<ntsc>FALSE</ntsc>
							</rate>
							<duration>17644</duration>
							<timecode>
								<rate>
									<timebase>30</timebase>
									<ntsc>FALSE</ntsc>
								</rate>
								<string>00:00:00:00</string>
								<frame>0</frame>
								<displayformat>NDF</displayformat>
							</timecode>
							<media>
								<video>
									<samplecharacteristics>
										<rate>
											<timebase>30</timebase>
											<ntsc>FALSE</ntsc>
										</rate>
										<width>1920</width>
										<height>1080</height>
										<anamorphic>FALSE</anamorphic>
										<pixelaspectratio>square</pixelaspectratio>
										<fielddominance>none</fielddominance>
									</samplecharacteristics>
								</video>
								<audio>
									<samplecharacteristics>
										<depth>16</depth>
										<samplerate>44100</samplerate>
									</samplecharacteristics>
									<channelcount>2</channelcount>
								</audio>
							</media>
						</file>
						<link>
							<linkclipref>clipitem-90</linkclipref>
							<mediatype>video</mediatype>
							<trackindex>1</trackindex>
							<clipindex>6</clipindex>
						</link>
						<link>
							<linkclipref>clipitem-98</linkclipref>
							<mediatype>audio</mediatype>
							<trackindex>1</trackindex>
							<clipindex>6</clipindex>
							<groupindex>1</groupindex>
						</link>
						<link>
							<linkclipref>clipitem-106</linkclipref>
							<mediatype>audio</mediatype>
							<trackindex>2</trackindex>
							<clipindex>6</clipindex>
							<groupindex>1</groupindex>
						</link>
						<logginginfo>
							<description />
							<scene />
							<shottake />
							<lognote />
							<good />
							<originalvideofilename />
							<originalaudiofilename />
						</logginginfo>
						<colorinfo>
							<lut />
							<lut1 />
							<asc_sop />
							<asc_sat />
							<lut2 />
						</colorinfo>
					<labels><label2>Forest</label2></labels></clipitem>
					<clipitem id="clipitem-88">
						<masterclipid>clipitem-4-62</masterclipid>
						<name>Travis_Kelce_ANNOUNCE_WEDDING_DATE_with_Taylor_Swift_Why_He_was_Delaying_all_Along.mp4</name>
						<enabled>TRUE</enabled>
						<duration>150</duration>
						<rate>
							<timebase>25</timebase>
							<ntsc>FALSE</ntsc>
						</rate>
						<start>3450</start>
						<end>3600</end>
						<in>9150</in>
						<out>9300</out>
						<pproTicksIn>0</pproTicksIn>
						<pproTicksOut>419410897920000</pproTicksOut>
						<alphatype>none</alphatype>
						<pixelaspectratio>square</pixelaspectratio>
						<anamorphic>FALSE</anamorphic>
						<file id="file-32">
							<name>Travis_Kelce_ANNOUNCE_WEDDING_DATE_with_Taylor_Swift_Why_He_was_Delaying_all_Along.mp4</name>
							<pathurl>file://localhost/Users/themalikano/Documents/VideoAutomation/premiere_videos/Travis_Kelce_ANNOUNCE_WEDDING_DATE_with_Taylor_Swift_Why_He_was_Delaying_all_Along.mp4</pathurl>
							<rate>
								<timebase>24</timebase>
								<ntsc>FALSE</ntsc>
							</rate>
							<duration>39627</duration>
							<timecode>
								<rate>
									<timebase>24</timebase>
									<ntsc>FALSE</ntsc>
								</rate>
								<string>00:00:00:00</string>
								<frame>0</frame>
								<displayformat>NDF</displayformat>
							</timecode>
							<media>
								<video>
									<samplecharacteristics>
										<rate>
											<timebase>24</timebase>
											<ntsc>FALSE</ntsc>
										</rate>
										<width>852</width>
										<height>480</height>
										<anamorphic>FALSE</anamorphic>
										<pixelaspectratio>square</pixelaspectratio>
										<fielddominance>none</fielddominance>
									</samplecharacteristics>
								</video>
								<audio>
									<samplecharacteristics>
										<depth>16</depth>
										<samplerate>44100</samplerate>
									</samplecharacteristics>
									<channelcount>2</channelcount>
								</audio>
							</media>
						</file>
						<filter>
							<effect>
								<name>Basic Motion</name>
								<effectid>basic</effectid>
								<effectcategory>motion</effectcategory>
								<effecttype>motion</effecttype>
								<mediatype>video</mediatype>
								<pproBypass>false</pproBypass>
								<parameter authoringApp="PremierePro">
									<parameterid>scale</parameterid>
									<name>Scale</name>
									<valuemin>0</valuemin>
									<valuemax>1000</valuemax>
									<value>225</value>
								</parameter>
								<parameter authoringApp="PremierePro">
									<parameterid>rotation</parameterid>
									<name>Rotation</name>
									<valuemin>-8640</valuemin>
									<valuemax>8640</valuemax>
									<value>0</value>
								</parameter>
								<parameter authoringApp="PremierePro">
									<parameterid>center</parameterid>
									<name>Center</name>
									<value>
										<horiz>0</horiz>
										<vert>0</vert>
									</value>
								</parameter>
								<parameter authoringApp="PremierePro">
									<parameterid>centerOffset</parameterid>
									<name>Anchor Point</name>
									<value>
										<horiz>0</horiz>
										<vert>0</vert>
									</value>
								</parameter>
								<parameter authoringApp="PremierePro">
									<parameterid>antiflicker</parameterid>
									<name>Anti-flicker Filter</name>
									<valuemin>0.0</valuemin>
									<valuemax>1.0</valuemax>
									<value>0</value>
								</parameter>
							</effect>
						</filter>
						<link>
							<linkclipref>clipitem-88</linkclipref>
							<mediatype>video</mediatype>
							<trackindex>1</trackindex>
							<clipindex>4</clipindex>
						</link>
						<link>
							<linkclipref>clipitem-96</linkclipref>
							<mediatype>audio</mediatype>
							<trackindex>1</trackindex>
							<clipindex>4</clipindex>
							<groupindex>1</groupindex>
						</link>
						<link>
							<linkclipref>clipitem-104</linkclipref>
							<mediatype>audio</mediatype>
							<trackindex>2</trackindex>
							<clipindex>4</clipindex>
							<groupindex>1</groupindex>
						</link>
						<logginginfo>
							<description />
							<scene />
							<shottake />
							<lognote />
							<good />
							<originalvideofilename />
							<originalaudiofilename />
						</logginginfo>
						<colorinfo>
							<lut />
							<lut1 />
							<asc_sop />
							<asc_sat />
							<lut2 />
						</colorinfo>
					<labels><label2>Lavender</label2></labels></clipitem>
					<clipitem id="clipitem-87">
						<masterclipid>clipitem-3-191</masterclipid>
						<name>Taylor_Swift_Travis_Kelce_-_The_New_Power_Couple.mp4</name>
						<enabled>TRUE</enabled>
						<duration>150</duration>
						<rate>
							<timebase>25</timebase>
							<ntsc>FALSE</ntsc>
						</rate>
						<start>3600</start>
						<end>3750</end>
						<in>28500</in>
						<out>28650</out>
						<pproTicksIn>0</pproTicksIn>
						<pproTicksOut>875013995520000</pproTicksOut>
						<alphatype>none</alphatype>
						<pixelaspectratio>square</pixelaspectratio>
						<anamorphic>FALSE</anamorphic>
						<file id="file-31">
							<name>Taylor_Swift_Travis_Kelce_-_The_New_Power_Couple.mp4</name>
							<pathurl>file://localhost/Users/themalikano/Documents/VideoAutomation/premiere_videos/Taylor_Swift_Travis_Kelce_-_The_New_Power_Couple.mp4</pathurl>
							<rate>
								<timebase>25</timebase>
								<ntsc>FALSE</ntsc>
							</rate>
							<duration>86118</duration>
							<timecode>
								<rate>
									<timebase>25</timebase>
									<ntsc>FALSE</ntsc>
								</rate>
								<string>00:00:00:00</string>
								<frame>0</frame>
								<displayformat>NDF</displayformat>
							</timecode>
							<media>
								<video>
									<samplecharacteristics>
										<rate>
											<timebase>25</timebase>
											<ntsc>FALSE</ntsc>
										</rate>
										<width>1920</width>
										<height>1080</height>
										<anamorphic>FALSE</anamorphic>
										<pixelaspectratio>square</pixelaspectratio>
										<fielddominance>none</fielddominance>
									</samplecharacteristics>
								</video>
								<audio>
									<samplecharacteristics>
										<depth>16</depth>
										<samplerate>44100</samplerate>
									</samplecharacteristics>
									<channelcount>2</channelcount>
								</audio>
							</media>
						</file>
						<link>
							<linkclipref>clipitem-87</linkclipref>
							<mediatype>video</mediatype>
							<trackindex>1</trackindex>
							<clipindex>3</clipindex>
						</link>
						<link>
							<linkclipref>clipitem-95</linkclipref>
							<mediatype>audio</mediatype>
							<trackindex>1</trackindex>
							<clipindex>3</clipindex>
							<groupindex>1</groupindex>
						</link>
						<link>
							<linkclipref>clipitem-103</linkclipref>
							<mediatype>audio</mediatype>
							<trackindex>2</trackindex>
							<clipindex>3</clipindex>
							<groupindex>1</groupindex>
						</link>
						<logginginfo>
							<description />
							<scene />
							<shottake />
							<lognote />
							<good />
							<originalvideofilename />
							<originalaudiofilename />
						</logginginfo>
						<colorinfo>
							<lut />
							<lut1 />
							<asc_sop />
							<asc_sat />
							<lut2 />
						</colorinfo>
					<labels><label2>Caribbean</label2></labels></clipitem>
					<clipitem id="clipitem-92">
						<masterclipid>clipitem-8-10</masterclipid>
						<name>Why_Travis_Kelce_Jokes_Taylor_Swift_Is_Going_to_KILL_Him.mp4</name>
						<enabled>TRUE</enabled>
						<duration>150</duration>
						<rate>
							<timebase>25</timebase>
							<ntsc>FALSE</ntsc>
						</rate>
						<start>3750</start>
						<end>3900</end>
						<in>1350</in>
						<out>1500</out>
						<pproTicksIn>0</pproTicksIn>
						<pproTicksOut>25249190400000</pproTicksOut>
						<alphatype>none</alphatype>
						<pixelaspectratio>square</pixelaspectratio>
						<anamorphic>FALSE</anamorphic>
						<file id="file-36">
							<name>Why_Travis_Kelce_Jokes_Taylor_Swift_Is_Going_to_KILL_Him.mp4</name>
							<pathurl>file://localhost/Users/themalikano/Documents/VideoAutomation/premiere_videos/Why_Travis_Kelce_Jokes_Taylor_Swift_Is_Going_to_KILL_Him.mp4</pathurl>
							<rate>
								<timebase>30</timebase>
								<ntsc>TRUE</ntsc>
							</rate>
							<duration>2980</duration>
							<timecode>
								<rate>
									<timebase>30</timebase>
									<ntsc>TRUE</ntsc>
								</rate>
								<string>00:00:00:00</string>
								<frame>0</frame>
								<displayformat>NDF</displayformat>
							</timecode>
							<media>
								<video>
									<samplecharacteristics>
										<rate>
											<timebase>30</timebase>
											<ntsc>TRUE</ntsc>
										</rate>
										<width>1920</width>
										<height>1080</height>
										<anamorphic>FALSE</anamorphic>
										<pixelaspectratio>square</pixelaspectratio>
										<fielddominance>none</fielddominance>
									</samplecharacteristics>
								</video>
								<audio>
									<samplecharacteristics>
										<depth>16</depth>
										<samplerate>44100</samplerate>
									</samplecharacteristics>
									<channelcount>2</channelcount>
								</audio>
							</media>
						</file>
						<link>
							<linkclipref>clipitem-92</linkclipref>
							<mediatype>video</mediatype>
							<trackindex>1</trackindex>
							<clipindex>8</clipindex>
						</link>
						<link>
							<linkclipref>clipitem-100</linkclipref>
							<mediatype>audio</mediatype>
							<trackindex>1</trackindex>
							<clipindex>8</clipindex>
							<groupindex>1</groupindex>
						</link>
						<link>
							<linkclipref>clipitem-108</linkclipref>
							<mediatype>audio</mediatype>
							<trackindex>2</trackindex>
							<clipindex>8</clipindex>
							<groupindex>1</groupindex>
						</link>
						<logginginfo>
							<description />
							<scene />
							<shottake />
							<lognote />
							<good />
							<originalvideofilename />
							<originalaudiofilename />
						</logginginfo>
						<colorinfo>
							<lut />
							<lut1 />
							<asc_sop />
							<asc_sat />
							<lut2 />
						</colorinfo>
					<labels><label2>Mango</label2></labels></clipitem>
					<clipitem id="clipitem-88">
						<masterclipid>clipitem-4-241</masterclipid>
						<name>Travis_Kelce_ANNOUNCE_WEDDING_DATE_with_Taylor_Swift_Why_He_was_Delaying_all_Along.mp4</name>
						<enabled>TRUE</enabled>
						<duration>150</duration>
						<rate>
							<timebase>25</timebase>
							<ntsc>FALSE</ntsc>
						</rate>
						<start>3900</start>
						<end>4050</end>
						<in>36000</in>
						<out>36150</out>
						<pproTicksIn>0</pproTicksIn>
						<pproTicksOut>419410897920000</pproTicksOut>
						<alphatype>none</alphatype>
						<pixelaspectratio>square</pixelaspectratio>
						<anamorphic>FALSE</anamorphic>
						<file id="file-32">
							<name>Travis_Kelce_ANNOUNCE_WEDDING_DATE_with_Taylor_Swift_Why_He_was_Delaying_all_Along.mp4</name>
							<pathurl>file://localhost/Users/themalikano/Documents/VideoAutomation/premiere_videos/Travis_Kelce_ANNOUNCE_WEDDING_DATE_with_Taylor_Swift_Why_He_was_Delaying_all_Along.mp4</pathurl>
							<rate>
								<timebase>24</timebase>
								<ntsc>FALSE</ntsc>
							</rate>
							<duration>39627</duration>
							<timecode>
								<rate>
									<timebase>24</timebase>
									<ntsc>FALSE</ntsc>
								</rate>
								<string>00:00:00:00</string>
								<frame>0</frame>
								<displayformat>NDF</displayformat>
							</timecode>
							<media>
								<video>
									<samplecharacteristics>
										<rate>
											<timebase>24</timebase>
											<ntsc>FALSE</ntsc>
										</rate>
										<width>852</width>
										<height>480</height>
										<anamorphic>FALSE</anamorphic>
										<pixelaspectratio>square</pixelaspectratio>
										<fielddominance>none</fielddominance>
									</samplecharacteristics>
								</video>
								<audio>
									<samplecharacteristics>
										<depth>16</depth>
										<samplerate>44100</samplerate>
									</samplecharacteristics>
									<channelcount>2</channelcount>
								</audio>
							</media>
						</file>
						<filter>
							<effect>
								<name>Basic Motion</name>
								<effectid>basic</effectid>
								<effectcategory>motion</effectcategory>
								<effecttype>motion</effecttype>
								<mediatype>video</mediatype>
								<pproBypass>false</pproBypass>
								<parameter authoringApp="PremierePro">
									<parameterid>scale</parameterid>
									<name>Scale</name>
									<valuemin>0</valuemin>
									<valuemax>1000</valuemax>
									<value>225</value>
								</parameter>
								<parameter authoringApp="PremierePro">
									<parameterid>rotation</parameterid>
									<name>Rotation</name>
									<valuemin>-8640</valuemin>
									<valuemax>8640</valuemax>
									<value>0</value>
								</parameter>
								<parameter authoringApp="PremierePro">
									<parameterid>center</parameterid>
									<name>Center</name>
									<value>
										<horiz>0</horiz>
										<vert>0</vert>
									</value>
								</parameter>
								<parameter authoringApp="PremierePro">
									<parameterid>centerOffset</parameterid>
									<name>Anchor Point</name>
									<value>
										<horiz>0</horiz>
										<vert>0</vert>
									</value>
								</parameter>
								<parameter authoringApp="PremierePro">
									<parameterid>antiflicker</parameterid>
									<name>Anti-flicker Filter</name>
									<valuemin>0.0</valuemin>
									<valuemax>1.0</valuemax>
									<value>0</value>
								</parameter>
							</effect>
						</filter>
						<link>
							<linkclipref>clipitem-88</linkclipref>
							<mediatype>video</mediatype>
							<trackindex>1</trackindex>
							<clipindex>4</clipindex>
						</link>
						<link>
							<linkclipref>clipitem-96</linkclipref>
							<mediatype>audio</mediatype>
							<trackindex>1</trackindex>
							<clipindex>4</clipindex>
							<groupindex>1</groupindex>
						</link>
						<link>
							<linkclipref>clipitem-104</linkclipref>
							<mediatype>audio</mediatype>
							<trackindex>2</trackindex>
							<clipindex>4</clipindex>
							<groupindex>1</groupindex>
						</link>
						<logginginfo>
							<description />
							<scene />
							<shottake />
							<lognote />
							<good />
							<originalvideofilename />
							<originalaudiofilename />
						</logginginfo>
						<colorinfo>
							<lut />
							<lut1 />
							<asc_sop />
							<asc_sat />
							<lut2 />
						</colorinfo>
					<labels><label2>Lavender</label2></labels></clipitem>
					<clipitem id="clipitem-91">
						<masterclipid>clipitem-7-17</masterclipid>
						<name>What_Caused_Taylor_Swift-Blake_Lively_Rift_The_View.mp4</name>
						<enabled>TRUE</enabled>
						<duration>150</duration>
						<rate>
							<timebase>25</timebase>
							<ntsc>FALSE</ntsc>
						</rate>
						<start>4050</start>
						<end>4200</end>
						<in>2400</in>
						<out>2550</out>
						<pproTicksIn>0</pproTicksIn>
						<pproTicksOut>45733040640000</pproTicksOut>
						<alphatype>none</alphatype>
						<pixelaspectratio>square</pixelaspectratio>
						<anamorphic>FALSE</anamorphic>
						<file id="file-35">
							<name>What_Caused_Taylor_Swift-Blake_Lively_Rift_The_View.mp4</name>
							<pathurl>file://localhost/Users/themalikano/Documents/VideoAutomation/premiere_videos/What_Caused_Taylor_Swift-Blake_Lively_Rift_The_View.mp4</pathurl>
							<rate>
								<timebase>30</timebase>
								<ntsc>TRUE</ntsc>
							</rate>
							<duration>5397</duration>
							<timecode>
								<rate>
									<timebase>30</timebase>
									<ntsc>TRUE</ntsc>
								</rate>
								<string>00:00:00:00</string>
								<frame>0</frame>
								<displayformat>NDF</displayformat>
							</timecode>
							<media>
								<video>
									<samplecharacteristics>
										<rate>
											<timebase>30</timebase>
											<ntsc>TRUE</ntsc>
										</rate>
										<width>1280</width>
										<height>720</height>
										<anamorphic>FALSE</anamorphic>
										<pixelaspectratio>square</pixelaspectratio>
										<fielddominance>none</fielddominance>
									</samplecharacteristics>
								</video>
								<audio>
									<samplecharacteristics>
										<depth>16</depth>
										<samplerate>44100</samplerate>
									</samplecharacteristics>
									<channelcount>2</channelcount>
								</audio>
							</media>
						</file>
						<filter>
							<effect>
								<name>Basic Motion</name>
								<effectid>basic</effectid>
								<effectcategory>motion</effectcategory>
								<effecttype>motion</effecttype>
								<mediatype>video</mediatype>
								<pproBypass>false</pproBypass>
								<parameter authoringApp="PremierePro">
									<parameterid>scale</parameterid>
									<name>Scale</name>
									<valuemin>0</valuemin>
									<valuemax>1000</valuemax>
									<value>150</value>
								</parameter>
								<parameter authoringApp="PremierePro">
									<parameterid>rotation</parameterid>
									<name>Rotation</name>
									<valuemin>-8640</valuemin>
									<valuemax>8640</valuemax>
									<value>0</value>
								</parameter>
								<parameter authoringApp="PremierePro">
									<parameterid>center</parameterid>
									<name>Center</name>
									<value>
										<horiz>0</horiz>
										<vert>0</vert>
									</value>
								</parameter>
								<parameter authoringApp="PremierePro">
									<parameterid>centerOffset</parameterid>
									<name>Anchor Point</name>
									<value>
										<horiz>0</horiz>
										<vert>0</vert>
									</value>
								</parameter>
								<parameter authoringApp="PremierePro">
									<parameterid>antiflicker</parameterid>
									<name>Anti-flicker Filter</name>
									<valuemin>0.0</valuemin>
									<valuemax>1.0</valuemax>
									<value>0</value>
								</parameter>
							</effect>
						</filter>
						<link>
							<linkclipref>clipitem-91</linkclipref>
							<mediatype>video</mediatype>
							<trackindex>1</trackindex>
							<clipindex>7</clipindex>
						</link>
						<link>
							<linkclipref>clipitem-99</linkclipref>
							<mediatype>audio</mediatype>
							<trackindex>1</trackindex>
							<clipindex>7</clipindex>
							<groupindex>1</groupindex>
						</link>
						<link>
							<linkclipref>clipitem-107</linkclipref>
							<mediatype>audio</mediatype>
							<trackindex>2</trackindex>
							<clipindex>7</clipindex>
							<groupindex>1</groupindex>
						</link>
						<logginginfo>
							<description />
							<scene />
							<shottake />
							<lognote />
							<good />
							<originalvideofilename />
							<originalaudiofilename />
						</logginginfo>
						<colorinfo>
							<lut />
							<lut1 />
							<asc_sop />
							<asc_sat />
							<lut2 />
						</colorinfo>
					<labels><label2>Rose</label2></labels></clipitem>
					<clipitem id="clipitem-88">
						<masterclipid>clipitem-4-144</masterclipid>
						<name>Travis_Kelce_ANNOUNCE_WEDDING_DATE_with_Taylor_Swift_Why_He_was_Delaying_all_Along.mp4</name>
						<enabled>TRUE</enabled>
						<duration>150</duration>
						<rate>
							<timebase>25</timebase>
							<ntsc>FALSE</ntsc>
						</rate>
						<start>4200</start>
						<end>4350</end>
						<in>21450</in>
						<out>21600</out>
						<pproTicksIn>0</pproTicksIn>
						<pproTicksOut>419410897920000</pproTicksOut>
						<alphatype>none</alphatype>
						<pixelaspectratio>square</pixelaspectratio>
						<anamorphic>FALSE</anamorphic>
						<file id="file-32">
							<name>Travis_Kelce_ANNOUNCE_WEDDING_DATE_with_Taylor_Swift_Why_He_was_Delaying_all_Along.mp4</name>
							<pathurl>file://localhost/Users/themalikano/Documents/VideoAutomation/premiere_videos/Travis_Kelce_ANNOUNCE_WEDDING_DATE_with_Taylor_Swift_Why_He_was_Delaying_all_Along.mp4</pathurl>
							<rate>
								<timebase>24</timebase>
								<ntsc>FALSE</ntsc>
							</rate>
							<duration>39627</duration>
							<timecode>
								<rate>
									<timebase>24</timebase>
									<ntsc>FALSE</ntsc>
								</rate>
								<string>00:00:00:00</string>
								<frame>0</frame>
								<displayformat>NDF</displayformat>
							</timecode>
							<media>
								<video>
									<samplecharacteristics>
										<rate>
											<timebase>24</timebase>
											<ntsc>FALSE</ntsc>
										</rate>
										<width>852</width>
										<height>480</height>
										<anamorphic>FALSE</anamorphic>
										<pixelaspectratio>square</pixelaspectratio>
										<fielddominance>none</fielddominance>
									</samplecharacteristics>
								</video>
								<audio>
									<samplecharacteristics>
										<depth>16</depth>
										<samplerate>44100</samplerate>
									</samplecharacteristics>
									<channelcount>2</channelcount>
								</audio>
							</media>
						</file>
						<filter>
							<effect>
								<name>Basic Motion</name>
								<effectid>basic</effectid>
								<effectcategory>motion</effectcategory>
								<effecttype>motion</effecttype>
								<mediatype>video</mediatype>
								<pproBypass>false</pproBypass>
								<parameter authoringApp="PremierePro">
									<parameterid>scale</parameterid>
									<name>Scale</name>
									<valuemin>0</valuemin>
									<valuemax>1000</valuemax>
									<value>225</value>
								</parameter>
								<parameter authoringApp="PremierePro">
									<parameterid>rotation</parameterid>
									<name>Rotation</name>
									<valuemin>-8640</valuemin>
									<valuemax>8640</valuemax>
									<value>0</value>
								</parameter>
								<parameter authoringApp="PremierePro">
									<parameterid>center</parameterid>
									<name>Center</name>
									<value>
										<horiz>0</horiz>
										<vert>0</vert>
									</value>
								</parameter>
								<parameter authoringApp="PremierePro">
									<parameterid>centerOffset</parameterid>
									<name>Anchor Point</name>
									<value>
										<horiz>0</horiz>
										<vert>0</vert>
									</value>
								</parameter>
								<parameter authoringApp="PremierePro">
									<parameterid>antiflicker</parameterid>
									<name>Anti-flicker Filter</name>
									<valuemin>0.0</valuemin>
									<valuemax>1.0</valuemax>
									<value>0</value>
								</parameter>
							</effect>
						</filter>
						<link>
							<linkclipref>clipitem-88</linkclipref>
							<mediatype>video</mediatype>
							<trackindex>1</trackindex>
							<clipindex>4</clipindex>
						</link>
						<link>
							<linkclipref>clipitem-96</linkclipref>
							<mediatype>audio</mediatype>
							<trackindex>1</trackindex>
							<clipindex>4</clipindex>
							<groupindex>1</groupindex>
						</link>
						<link>
							<linkclipref>clipitem-104</linkclipref>
							<mediatype>audio</mediatype>
							<trackindex>2</trackindex>
							<clipindex>4</clipindex>
							<groupindex>1</groupindex>
						</link>
						<logginginfo>
							<description />
							<scene />
							<shottake />
							<lognote />
							<good />
							<originalvideofilename />
							<originalaudiofilename />
						</logginginfo>
						<colorinfo>
							<lut />
							<lut1 />
							<asc_sop />
							<asc_sat />
							<lut2 />
						</colorinfo>
					<labels><label2>Lavender</label2></labels></clipitem>
					<clipitem id="clipitem-91">
						<masterclipid>clipitem-7-15</masterclipid>
						<name>What_Caused_Taylor_Swift-Blake_Lively_Rift_The_View.mp4</name>
						<enabled>TRUE</enabled>
						<duration>150</duration>
						<rate>
							<timebase>25</timebase>
							<ntsc>FALSE</ntsc>
						</rate>
						<start>4350</start>
						<end>4500</end>
						<in>2100</in>
						<out>2250</out>
						<pproTicksIn>0</pproTicksIn>
						<pproTicksOut>45733040640000</pproTicksOut>
						<alphatype>none</alphatype>
						<pixelaspectratio>square</pixelaspectratio>
						<anamorphic>FALSE</anamorphic>
						<file id="file-35">
							<name>What_Caused_Taylor_Swift-Blake_Lively_Rift_The_View.mp4</name>
							<pathurl>file://localhost/Users/themalikano/Documents/VideoAutomation/premiere_videos/What_Caused_Taylor_Swift-Blake_Lively_Rift_The_View.mp4</pathurl>
							<rate>
								<timebase>30</timebase>
								<ntsc>TRUE</ntsc>
							</rate>
							<duration>5397</duration>
							<timecode>
								<rate>
									<timebase>30</timebase>
									<ntsc>TRUE</ntsc>
								</rate>
								<string>00:00:00:00</string>
								<frame>0</frame>
								<displayformat>NDF</displayformat>
							</timecode>
							<media>
								<video>
									<samplecharacteristics>
										<rate>
											<timebase>30</timebase>
											<ntsc>TRUE</ntsc>
										</rate>
										<width>1280</width>
										<height>720</height>
										<anamorphic>FALSE</anamorphic>
										<pixelaspectratio>square</pixelaspectratio>
										<fielddominance>none</fielddominance>
									</samplecharacteristics>
								</video>
								<audio>
									<samplecharacteristics>
										<depth>16</depth>
										<samplerate>44100</samplerate>
									</samplecharacteristics>
									<channelcount>2</channelcount>
								</audio>
							</media>
						</file>
						<filter>
							<effect>
								<name>Basic Motion</name>
								<effectid>basic</effectid>
								<effectcategory>motion</effectcategory>
								<effecttype>motion</effecttype>
								<mediatype>video</mediatype>
								<pproBypass>false</pproBypass>
								<parameter authoringApp="PremierePro">
									<parameterid>scale</parameterid>
									<name>Scale</name>
									<valuemin>0</valuemin>
									<valuemax>1000</valuemax>
									<value>150</value>
								</parameter>
								<parameter authoringApp="PremierePro">
									<parameterid>rotation</parameterid>
									<name>Rotation</name>
									<valuemin>-8640</valuemin>
									<valuemax>8640</valuemax>
									<value>0</value>
								</parameter>
								<parameter authoringApp="PremierePro">
									<parameterid>center</parameterid>
									<name>Center</name>
									<value>
										<horiz>0</horiz>
										<vert>0</vert>
									</value>
								</parameter>
								<parameter authoringApp="PremierePro">
									<parameterid>centerOffset</parameterid>
									<name>Anchor Point</name>
									<value>
										<horiz>0</horiz>
										<vert>0</vert>
									</value>
								</parameter>
								<parameter authoringApp="PremierePro">
									<parameterid>antiflicker</parameterid>
									<name>Anti-flicker Filter</name>
									<valuemin>0.0</valuemin>
									<valuemax>1.0</valuemax>
									<value>0</value>
								</parameter>
							</effect>
						</filter>
						<link>
							<linkclipref>clipitem-91</linkclipref>
							<mediatype>video</mediatype>
							<trackindex>1</trackindex>
							<clipindex>7</clipindex>
						</link>
						<link>
							<linkclipref>clipitem-99</linkclipref>
							<mediatype>audio</mediatype>
							<trackindex>1</trackindex>
							<clipindex>7</clipindex>
							<groupindex>1</groupindex>
						</link>
						<link>
							<linkclipref>clipitem-107</linkclipref>
							<mediatype>audio</mediatype>
							<trackindex>2</trackindex>
							<clipindex>7</clipindex>
							<groupindex>1</groupindex>
						</link>
						<logginginfo>
							<description />
							<scene />
							<shottake />
							<lognote />
							<good />
							<originalvideofilename />
							<originalaudiofilename />
						</logginginfo>
						<colorinfo>
							<lut />
							<lut1 />
							<asc_sop />
							<asc_sat />
							<lut2 />
						</colorinfo>
					<labels><label2>Rose</label2></labels></clipitem>
					<clipitem id="clipitem-92">
						<masterclipid>clipitem-8-3</masterclipid>
						<name>Why_Travis_Kelce_Jokes_Taylor_Swift_Is_Going_to_KILL_Him.mp4</name>
						<enabled>TRUE</enabled>
						<duration>150</duration>
						<rate>
							<timebase>25</timebase>
							<ntsc>FALSE</ntsc>
						</rate>
						<start>4500</start>
						<end>4650</end>
						<in>300</in>
						<out>450</out>
						<pproTicksIn>0</pproTicksIn>
						<pproTicksOut>25249190400000</pproTicksOut>
						<alphatype>none</alphatype>
						<pixelaspectratio>square</pixelaspectratio>
						<anamorphic>FALSE</anamorphic>
						<file id="file-36">
							<name>Why_Travis_Kelce_Jokes_Taylor_Swift_Is_Going_to_KILL_Him.mp4</name>
							<pathurl>file://localhost/Users/themalikano/Documents/VideoAutomation/premiere_videos/Why_Travis_Kelce_Jokes_Taylor_Swift_Is_Going_to_KILL_Him.mp4</pathurl>
							<rate>
								<timebase>30</timebase>
								<ntsc>TRUE</ntsc>
							</rate>
							<duration>2980</duration>
							<timecode>
								<rate>
									<timebase>30</timebase>
									<ntsc>TRUE</ntsc>
								</rate>
								<string>00:00:00:00</string>
								<frame>0</frame>
								<displayformat>NDF</displayformat>
							</timecode>
							<media>
								<video>
									<samplecharacteristics>
										<rate>
											<timebase>30</timebase>
											<ntsc>TRUE</ntsc>
										</rate>
										<width>1920</width>
										<height>1080</height>
										<anamorphic>FALSE</anamorphic>
										<pixelaspectratio>square</pixelaspectratio>
										<fielddominance>none</fielddominance>
									</samplecharacteristics>
								</video>
								<audio>
									<samplecharacteristics>
										<depth>16</depth>
										<samplerate>44100</samplerate>
									</samplecharacteristics>
									<channelcount>2</channelcount>
								</audio>
							</media>
						</file>
						<link>
							<linkclipref>clipitem-92</linkclipref>
							<mediatype>video</mediatype>
							<trackindex>1</trackindex>
							<clipindex>8</clipindex>
						</link>
						<link>
							<linkclipref>clipitem-100</linkclipref>
							<mediatype>audio</mediatype>
							<trackindex>1</trackindex>
							<clipindex>8</clipindex>
							<groupindex>1</groupindex>
						</link>
						<link>
							<linkclipref>clipitem-108</linkclipref>
							<mediatype>audio</mediatype>
							<trackindex>2</trackindex>
							<clipindex>8</clipindex>
							<groupindex>1</groupindex>
						</link>
						<logginginfo>
							<description />
							<scene />
							<shottake />
							<lognote />
							<good />
							<originalvideofilename />
							<originalaudiofilename />
						</logginginfo>
						<colorinfo>
							<lut />
							<lut1 />
							<asc_sop />
							<asc_sat />
							<lut2 />
						</colorinfo>
					<labels><label2>Mango</label2></labels></clipitem>
					<clipitem id="clipitem-87">
						<masterclipid>clipitem-3-472</masterclipid>
						<name>Taylor_Swift_Travis_Kelce_-_The_New_Power_Couple.mp4</name>
						<enabled>TRUE</enabled>
						<duration>150</duration>
						<rate>
							<timebase>25</timebase>
							<ntsc>FALSE</ntsc>
						</rate>
						<start>4650</start>
						<end>4800</end>
						<in>70650</in>
						<out>70800</out>
						<pproTicksIn>0</pproTicksIn>
						<pproTicksOut>875013995520000</pproTicksOut>
						<alphatype>none</alphatype>
						<pixelaspectratio>square</pixelaspectratio>
						<anamorphic>FALSE</anamorphic>
						<file id="file-31">
							<name>Taylor_Swift_Travis_Kelce_-_The_New_Power_Couple.mp4</name>
							<pathurl>file://localhost/Users/themalikano/Documents/VideoAutomation/premiere_videos/Taylor_Swift_Travis_Kelce_-_The_New_Power_Couple.mp4</pathurl>
							<rate>
								<timebase>25</timebase>
								<ntsc>FALSE</ntsc>
							</rate>
							<duration>86118</duration>
							<timecode>
								<rate>
									<timebase>25</timebase>
									<ntsc>FALSE</ntsc>
								</rate>
								<string>00:00:00:00</string>
								<frame>0</frame>
								<displayformat>NDF</displayformat>
							</timecode>
							<media>
								<video>
									<samplecharacteristics>
										<rate>
											<timebase>25</timebase>
											<ntsc>FALSE</ntsc>
										</rate>
										<width>1920</width>
										<height>1080</height>
										<anamorphic>FALSE</anamorphic>
										<pixelaspectratio>square</pixelaspectratio>
										<fielddominance>none</fielddominance>
									</samplecharacteristics>
								</video>
								<audio>
									<samplecharacteristics>
										<depth>16</depth>
										<samplerate>44100</samplerate>
									</samplecharacteristics>
									<channelcount>2</channelcount>
								</audio>
							</media>
						</file>
						<link>
							<linkclipref>clipitem-87</linkclipref>
							<mediatype>video</mediatype>
							<trackindex>1</trackindex>
							<clipindex>3</clipindex>
						</link>
						<link>
							<linkclipref>clipitem-95</linkclipref>
							<mediatype>audio</mediatype>
							<trackindex>1</trackindex>
							<clipindex>3</clipindex>
							<groupindex>1</groupindex>
						</link>
						<link>
							<linkclipref>clipitem-103</linkclipref>
							<mediatype>audio</mediatype>
							<trackindex>2</trackindex>
							<clipindex>3</clipindex>
							<groupindex>1</groupindex>
						</link>
						<logginginfo>
							<description />
							<scene />
							<shottake />
							<lognote />
							<good />
							<originalvideofilename />
							<originalaudiofilename />
						</logginginfo>
						<colorinfo>
							<lut />
							<lut1 />
							<asc_sop />
							<asc_sat />
							<lut2 />
						</colorinfo>
					<labels><label2>Caribbean</label2></labels></clipitem>
					<clipitem id="clipitem-88">
						<masterclipid>clipitem-4-74</masterclipid>
						<name>Travis_Kelce_ANNOUNCE_WEDDING_DATE_with_Taylor_Swift_Why_He_was_Delaying_all_Along.mp4</name>
						<enabled>TRUE</enabled>
						<duration>150</duration>
						<rate>
							<timebase>25</timebase>
							<ntsc>FALSE</ntsc>
						</rate>
						<start>4800</start>
						<end>4950</end>
						<in>10950</in>
						<out>11100</out>
						<pproTicksIn>0</pproTicksIn>
						<pproTicksOut>419410897920000</pproTicksOut>
						<alphatype>none</alphatype>
						<pixelaspectratio>square</pixelaspectratio>
						<anamorphic>FALSE</anamorphic>
						<file id="file-32">
							<name>Travis_Kelce_ANNOUNCE_WEDDING_DATE_with_Taylor_Swift_Why_He_was_Delaying_all_Along.mp4</name>
							<pathurl>file://localhost/Users/themalikano/Documents/VideoAutomation/premiere_videos/Travis_Kelce_ANNOUNCE_WEDDING_DATE_with_Taylor_Swift_Why_He_was_Delaying_all_Along.mp4</pathurl>
							<rate>
								<timebase>24</timebase>
								<ntsc>FALSE</ntsc>
							</rate>
							<duration>39627</duration>
							<timecode>
								<rate>
									<timebase>24</timebase>
									<ntsc>FALSE</ntsc>
								</rate>
								<string>00:00:00:00</string>
								<frame>0</frame>
								<displayformat>NDF</displayformat>
							</timecode>
							<media>
								<video>
									<samplecharacteristics>
										<rate>
											<timebase>24</timebase>
											<ntsc>FALSE</ntsc>
										</rate>
										<width>852</width>
										<height>480</height>
										<anamorphic>FALSE</anamorphic>
										<pixelaspectratio>square</pixelaspectratio>
										<fielddominance>none</fielddominance>
									</samplecharacteristics>
								</video>
								<audio>
									<samplecharacteristics>
										<depth>16</depth>
										<samplerate>44100</samplerate>
									</samplecharacteristics>
									<channelcount>2</channelcount>
								</audio>
							</media>
						</file>
						<filter>
							<effect>
								<name>Basic Motion</name>
								<effectid>basic</effectid>
								<effectcategory>motion</effectcategory>
								<effecttype>motion</effecttype>
								<mediatype>video</mediatype>
								<pproBypass>false</pproBypass>
								<parameter authoringApp="PremierePro">
									<parameterid>scale</parameterid>
									<name>Scale</name>
									<valuemin>0</valuemin>
									<valuemax>1000</valuemax>
									<value>225</value>
								</parameter>
								<parameter authoringApp="PremierePro">
									<parameterid>rotation</parameterid>
									<name>Rotation</name>
									<valuemin>-8640</valuemin>
									<valuemax>8640</valuemax>
									<value>0</value>
								</parameter>
								<parameter authoringApp="PremierePro">
									<parameterid>center</parameterid>
									<name>Center</name>
									<value>
										<horiz>0</horiz>
										<vert>0</vert>
									</value>
								</parameter>
								<parameter authoringApp="PremierePro">
									<parameterid>centerOffset</parameterid>
									<name>Anchor Point</name>
									<value>
										<horiz>0</horiz>
										<vert>0</vert>
									</value>
								</parameter>
								<parameter authoringApp="PremierePro">
									<parameterid>antiflicker</parameterid>
									<name>Anti-flicker Filter</name>
									<valuemin>0.0</valuemin>
									<valuemax>1.0</valuemax>
									<value>0</value>
								</parameter>
							</effect>
						</filter>
						<link>
							<linkclipref>clipitem-88</linkclipref>
							<mediatype>video</mediatype>
							<trackindex>1</trackindex>
							<clipindex>4</clipindex>
						</link>
						<link>
							<linkclipref>clipitem-96</linkclipref>
							<mediatype>audio</mediatype>
							<trackindex>1</trackindex>
							<clipindex>4</clipindex>
							<groupindex>1</groupindex>
						</link>
						<link>
							<linkclipref>clipitem-104</linkclipref>
							<mediatype>audio</mediatype>
							<trackindex>2</trackindex>
							<clipindex>4</clipindex>
							<groupindex>1</groupindex>
						</link>
						<logginginfo>
							<description />
							<scene />
							<shottake />
							<lognote />
							<good />
							<originalvideofilename />
							<originalaudiofilename />
						</logginginfo>
						<colorinfo>
							<lut />
							<lut1 />
							<asc_sop />
							<asc_sat />
							<lut2 />
						</colorinfo>
					<labels><label2>Lavender</label2></labels></clipitem>
					<clipitem id="clipitem-85">
						<masterclipid>clipitem-1-21</masterclipid>
						<name>Taylor_Swift_Reveals_What_Fiance_Travis_Kelce_Said_Before_Proposal_E_News.mp4</name>
						<enabled>TRUE</enabled>
						<duration>150</duration>
						<rate>
							<timebase>25</timebase>
							<ntsc>FALSE</ntsc>
						</rate>
						<start>4950</start>
						<end>5100</end>
						<in>3000</in>
						<out>3150</out>
						<pproTicksIn>0</pproTicksIn>
						<pproTicksOut>36039790080000</pproTicksOut>
						<alphatype>none</alphatype>
						<pixelaspectratio>square</pixelaspectratio>
						<anamorphic>FALSE</anamorphic>
						<file id="file-29">
							<name>Taylor_Swift_Reveals_What_Fiance_Travis_Kelce_Said_Before_Proposal_E_News.mp4</name>
							<pathurl>file://localhost/Users/themalikano/Documents/VideoAutomation/premiere_videos/Taylor_Swift_Reveals_What_Fiance_Travis_Kelce_Said_Before_Proposal_E_News.mp4</pathurl>
							<rate>
								<timebase>29</timebase>
								<ntsc>FALSE</ntsc>
							</rate>
							<duration>4115</duration>
							<timecode>
								<rate>
									<timebase>29</timebase>
									<ntsc>FALSE</ntsc>
								</rate>
								<string>00:00:00:00</string>
								<frame>0</frame>
								<displayformat>NDF</displayformat>
							</timecode>
							<media>
								<video>
									<samplecharacteristics>
										<rate>
											<timebase>29</timebase>
											<ntsc>FALSE</ntsc>
										</rate>
										<width>1920</width>
										<height>1080</height>
										<anamorphic>FALSE</anamorphic>
										<pixelaspectratio>square</pixelaspectratio>
										<fielddominance>none</fielddominance>
									</samplecharacteristics>
								</video>
								<audio>
									<samplecharacteristics>
										<depth>16</depth>
										<samplerate>44100</samplerate>
									</samplecharacteristics>
									<channelcount>2</channelcount>
								</audio>
							</media>
						</file>
						<link>
							<linkclipref>clipitem-85</linkclipref>
							<mediatype>video</mediatype>
							<trackindex>1</trackindex>
							<clipindex>1</clipindex>
						</link>
						<link>
							<linkclipref>clipitem-93</linkclipref>
							<mediatype>audio</mediatype>
							<trackindex>1</trackindex>
							<clipindex>1</clipindex>
							<groupindex>1</groupindex>
						</link>
						<link>
							<linkclipref>clipitem-101</linkclipref>
							<mediatype>audio</mediatype>
							<trackindex>2</trackindex>
							<clipindex>1</clipindex>
							<groupindex>1</groupindex>
						</link>
						<logginginfo>
							<description />
							<scene />
							<shottake />
							<lognote />
							<good />
							<originalvideofilename />
							<originalaudiofilename />
						</logginginfo>
						<colorinfo>
							<lut />
							<lut1 />
							<asc_sop />
							<asc_sat />
							<lut2 />
						</colorinfo>
					<labels><label2>Violet</label2></labels></clipitem>
					<clipitem id="clipitem-91">
						<masterclipid>clipitem-7-5</masterclipid>
						<name>What_Caused_Taylor_Swift-Blake_Lively_Rift_The_View.mp4</name>
						<enabled>TRUE</enabled>
						<duration>150</duration>
						<rate>
							<timebase>25</timebase>
							<ntsc>FALSE</ntsc>
						</rate>
						<start>5100</start>
						<end>5250</end>
						<in>600</in>
						<out>750</out>
						<pproTicksIn>0</pproTicksIn>
						<pproTicksOut>45733040640000</pproTicksOut>
						<alphatype>none</alphatype>
						<pixelaspectratio>square</pixelaspectratio>
						<anamorphic>FALSE</anamorphic>
						<file id="file-35">
							<name>What_Caused_Taylor_Swift-Blake_Lively_Rift_The_View.mp4</name>
							<pathurl>file://localhost/Users/themalikano/Documents/VideoAutomation/premiere_videos/What_Caused_Taylor_Swift-Blake_Lively_Rift_The_View.mp4</pathurl>
							<rate>
								<timebase>30</timebase>
								<ntsc>TRUE</ntsc>
							</rate>
							<duration>5397</duration>
							<timecode>
								<rate>
									<timebase>30</timebase>
									<ntsc>TRUE</ntsc>
								</rate>
								<string>00:00:00:00</string>
								<frame>0</frame>
								<displayformat>NDF</displayformat>
							</timecode>
							<media>
								<video>
									<samplecharacteristics>
										<rate>
											<timebase>30</timebase>
											<ntsc>TRUE</ntsc>
										</rate>
										<width>1280</width>
										<height>720</height>
										<anamorphic>FALSE</anamorphic>
										<pixelaspectratio>square</pixelaspectratio>
										<fielddominance>none</fielddominance>
									</samplecharacteristics>
								</video>
								<audio>
									<samplecharacteristics>
										<depth>16</depth>
										<samplerate>44100</samplerate>
									</samplecharacteristics>
									<channelcount>2</channelcount>
								</audio>
							</media>
						</file>
						<filter>
							<effect>
								<name>Basic Motion</name>
								<effectid>basic</effectid>
								<effectcategory>motion</effectcategory>
								<effecttype>motion</effecttype>
								<mediatype>video</mediatype>
								<pproBypass>false</pproBypass>
								<parameter authoringApp="PremierePro">
									<parameterid>scale</parameterid>
									<name>Scale</name>
									<valuemin>0</valuemin>
									<valuemax>1000</valuemax>
									<value>150</value>
								</parameter>
								<parameter authoringApp="PremierePro">
									<parameterid>rotation</parameterid>
									<name>Rotation</name>
									<valuemin>-8640</valuemin>
									<valuemax>8640</valuemax>
									<value>0</value>
								</parameter>
								<parameter authoringApp="PremierePro">
									<parameterid>center</parameterid>
									<name>Center</name>
									<value>
										<horiz>0</horiz>
										<vert>0</vert>
									</value>
								</parameter>
								<parameter authoringApp="PremierePro">
									<parameterid>centerOffset</parameterid>
									<name>Anchor Point</name>
									<value>
										<horiz>0</horiz>
										<vert>0</vert>
									</value>
								</parameter>
								<parameter authoringApp="PremierePro">
									<parameterid>antiflicker</parameterid>
									<name>Anti-flicker Filter</name>
									<valuemin>0.0</valuemin>
									<valuemax>1.0</valuemax>
									<value>0</value>
								</parameter>
							</effect>
						</filter>
						<link>
							<linkclipref>clipitem-91</linkclipref>
							<mediatype>video</mediatype>
							<trackindex>1</trackindex>
							<clipindex>7</clipindex>
						</link>
						<link>
							<linkclipref>clipitem-99</linkclipref>
							<mediatype>audio</mediatype>
							<trackindex>1</trackindex>
							<clipindex>7</clipindex>
							<groupindex>1</groupindex>
						</link>
						<link>
							<linkclipref>clipitem-107</linkclipref>
							<mediatype>audio</mediatype>
							<trackindex>2</trackindex>
							<clipindex>7</clipindex>
							<groupindex>1</groupindex>
						</link>
						<logginginfo>
							<description />
							<scene />
							<shottake />
							<lognote />
							<good />
							<originalvideofilename />
							<originalaudiofilename />
						</logginginfo>
						<colorinfo>
							<lut />
							<lut1 />
							<asc_sop />
							<asc_sat />
							<lut2 />
						</colorinfo>
					<labels><label2>Rose</label2></labels></clipitem>
					<clipitem id="clipitem-92">
						<masterclipid>clipitem-8-5</masterclipid>
						<name>Why_Travis_Kelce_Jokes_Taylor_Swift_Is_Going_to_KILL_Him.mp4</name>
						<enabled>TRUE</enabled>
						<duration>150</duration>
						<rate>
							<timebase>25</timebase>
							<ntsc>FALSE</ntsc>
						</rate>
						<start>5250</start>
						<end>5400</end>
						<in>600</in>
						<out>750</out>
						<pproTicksIn>0</pproTicksIn>
						<pproTicksOut>25249190400000</pproTicksOut>
						<alphatype>none</alphatype>
						<pixelaspectratio>square</pixelaspectratio>
						<anamorphic>FALSE</anamorphic>
						<file id="file-36">
							<name>Why_Travis_Kelce_Jokes_Taylor_Swift_Is_Going_to_KILL_Him.mp4</name>
							<pathurl>file://localhost/Users/themalikano/Documents/VideoAutomation/premiere_videos/Why_Travis_Kelce_Jokes_Taylor_Swift_Is_Going_to_KILL_Him.mp4</pathurl>
							<rate>
								<timebase>30</timebase>
								<ntsc>TRUE</ntsc>
							</rate>
							<duration>2980</duration>
							<timecode>
								<rate>
									<timebase>30</timebase>
									<ntsc>TRUE</ntsc>
								</rate>
								<string>00:00:00:00</string>
								<frame>0</frame>
								<displayformat>NDF</displayformat>
							</timecode>
							<media>
								<video>
									<samplecharacteristics>
										<rate>
											<timebase>30</timebase>
											<ntsc>TRUE</ntsc>
										</rate>
										<width>1920</width>
										<height>1080</height>
										<anamorphic>FALSE</anamorphic>
										<pixelaspectratio>square</pixelaspectratio>
										<fielddominance>none</fielddominance>
									</samplecharacteristics>
								</video>
								<audio>
									<samplecharacteristics>
										<depth>16</depth>
										<samplerate>44100</samplerate>
									</samplecharacteristics>
									<channelcount>2</channelcount>
								</audio>
							</media>
						</file>
						<link>
							<linkclipref>clipitem-92</linkclipref>
							<mediatype>video</mediatype>
							<trackindex>1</trackindex>
							<clipindex>8</clipindex>
						</link>
						<link>
							<linkclipref>clipitem-100</linkclipref>
							<mediatype>audio</mediatype>
							<trackindex>1</trackindex>
							<clipindex>8</clipindex>
							<groupindex>1</groupindex>
						</link>
						<link>
							<linkclipref>clipitem-108</linkclipref>
							<mediatype>audio</mediatype>
							<trackindex>2</trackindex>
							<clipindex>8</clipindex>
							<groupindex>1</groupindex>
						</link>
						<logginginfo>
							<description />
							<scene />
							<shottake />
							<lognote />
							<good />
							<originalvideofilename />
							<originalaudiofilename />
						</logginginfo>
						<colorinfo>
							<lut />
							<lut1 />
							<asc_sop />
							<asc_sat />
							<lut2 />
						</colorinfo>
					<labels><label2>Mango</label2></labels></clipitem>
					<clipitem id="clipitem-91">
						<masterclipid>clipitem-7-12</masterclipid>
						<name>What_Caused_Taylor_Swift-Blake_Lively_Rift_The_View.mp4</name>
						<enabled>TRUE</enabled>
						<duration>150</duration>
						<rate>
							<timebase>25</timebase>
							<ntsc>FALSE</ntsc>
						</rate>
						<start>5400</start>
						<end>5550</end>
						<in>1650</in>
						<out>1800</out>
						<pproTicksIn>0</pproTicksIn>
						<pproTicksOut>45733040640000</pproTicksOut>
						<alphatype>none</alphatype>
						<pixelaspectratio>square</pixelaspectratio>
						<anamorphic>FALSE</anamorphic>
						<file id="file-35">
							<name>What_Caused_Taylor_Swift-Blake_Lively_Rift_The_View.mp4</name>
							<pathurl>file://localhost/Users/themalikano/Documents/VideoAutomation/premiere_videos/What_Caused_Taylor_Swift-Blake_Lively_Rift_The_View.mp4</pathurl>
							<rate>
								<timebase>30</timebase>
								<ntsc>TRUE</ntsc>
							</rate>
							<duration>5397</duration>
							<timecode>
								<rate>
									<timebase>30</timebase>
									<ntsc>TRUE</ntsc>
								</rate>
								<string>00:00:00:00</string>
								<frame>0</frame>
								<displayformat>NDF</displayformat>
							</timecode>
							<media>
								<video>
									<samplecharacteristics>
										<rate>
											<timebase>30</timebase>
											<ntsc>TRUE</ntsc>
										</rate>
										<width>1280</width>
										<height>720</height>
										<anamorphic>FALSE</anamorphic>
										<pixelaspectratio>square</pixelaspectratio>
										<fielddominance>none</fielddominance>
									</samplecharacteristics>
								</video>
								<audio>
									<samplecharacteristics>
										<depth>16</depth>
										<samplerate>44100</samplerate>
									</samplecharacteristics>
									<channelcount>2</channelcount>
								</audio>
							</media>
						</file>
						<filter>
							<effect>
								<name>Basic Motion</name>
								<effectid>basic</effectid>
								<effectcategory>motion</effectcategory>
								<effecttype>motion</effecttype>
								<mediatype>video</mediatype>
								<pproBypass>false</pproBypass>
								<parameter authoringApp="PremierePro">
									<parameterid>scale</parameterid>
									<name>Scale</name>
									<valuemin>0</valuemin>
									<valuemax>1000</valuemax>
									<value>150</value>
								</parameter>
								<parameter authoringApp="PremierePro">
									<parameterid>rotation</parameterid>
									<name>Rotation</name>
									<valuemin>-8640</valuemin>
									<valuemax>8640</valuemax>
									<value>0</value>
								</parameter>
								<parameter authoringApp="PremierePro">
									<parameterid>center</parameterid>
									<name>Center</name>
									<value>
										<horiz>0</horiz>
										<vert>0</vert>
									</value>
								</parameter>
								<parameter authoringApp="PremierePro">
									<parameterid>centerOffset</parameterid>
									<name>Anchor Point</name>
									<value>
										<horiz>0</horiz>
										<vert>0</vert>
									</value>
								</parameter>
								<parameter authoringApp="PremierePro">
									<parameterid>antiflicker</parameterid>
									<name>Anti-flicker Filter</name>
									<valuemin>0.0</valuemin>
									<valuemax>1.0</valuemax>
									<value>0</value>
								</parameter>
							</effect>
						</filter>
						<link>
							<linkclipref>clipitem-91</linkclipref>
							<mediatype>video</mediatype>
							<trackindex>1</trackindex>
							<clipindex>7</clipindex>
						</link>
						<link>
							<linkclipref>clipitem-99</linkclipref>
							<mediatype>audio</mediatype>
							<trackindex>1</trackindex>
							<clipindex>7</clipindex>
							<groupindex>1</groupindex>
						</link>
						<link>
							<linkclipref>clipitem-107</linkclipref>
							<mediatype>audio</mediatype>
							<trackindex>2</trackindex>
							<clipindex>7</clipindex>
							<groupindex>1</groupindex>
						</link>
						<logginginfo>
							<description />
							<scene />
							<shottake />
							<lognote />
							<good />
							<originalvideofilename />
							<originalaudiofilename />
						</logginginfo>
						<colorinfo>
							<lut />
							<lut1 />
							<asc_sop />
							<asc_sat />
							<lut2 />
						</colorinfo>
					<labels><label2>Rose</label2></labels></clipitem>
					<clipitem id="clipitem-85">
						<masterclipid>clipitem-1-12</masterclipid>
						<name>Taylor_Swift_Reveals_What_Fiance_Travis_Kelce_Said_Before_Proposal_E_News.mp4</name>
						<enabled>TRUE</enabled>
						<duration>150</duration>
						<rate>
							<timebase>25</timebase>
							<ntsc>FALSE</ntsc>
						</rate>
						<start>5550</start>
						<end>5700</end>
						<in>1650</in>
						<out>1800</out>
						<pproTicksIn>0</pproTicksIn>
						<pproTicksOut>36039790080000</pproTicksOut>
						<alphatype>none</alphatype>
						<pixelaspectratio>square</pixelaspectratio>
						<anamorphic>FALSE</anamorphic>
						<file id="file-29">
							<name>Taylor_Swift_Reveals_What_Fiance_Travis_Kelce_Said_Before_Proposal_E_News.mp4</name>
							<pathurl>file://localhost/Users/themalikano/Documents/VideoAutomation/premiere_videos/Taylor_Swift_Reveals_What_Fiance_Travis_Kelce_Said_Before_Proposal_E_News.mp4</pathurl>
							<rate>
								<timebase>29</timebase>
								<ntsc>FALSE</ntsc>
							</rate>
							<duration>4115</duration>
							<timecode>
								<rate>
									<timebase>29</timebase>
									<ntsc>FALSE</ntsc>
								</rate>
								<string>00:00:00:00</string>
								<frame>0</frame>
								<displayformat>NDF</displayformat>
							</timecode>
							<media>
								<video>
									<samplecharacteristics>
										<rate>
											<timebase>29</timebase>
											<ntsc>FALSE</ntsc>
										</rate>
										<width>1920</width>
										<height>1080</height>
										<anamorphic>FALSE</anamorphic>
										<pixelaspectratio>square</pixelaspectratio>
										<fielddominance>none</fielddominance>
									</samplecharacteristics>
								</video>
								<audio>
									<samplecharacteristics>
										<depth>16</depth>
										<samplerate>44100</samplerate>
									</samplecharacteristics>
									<channelcount>2</channelcount>
								</audio>
							</media>
						</file>
						<link>
							<linkclipref>clipitem-85</linkclipref>
							<mediatype>video</mediatype>
							<trackindex>1</trackindex>
							<clipindex>1</clipindex>
						</link>
						<link>
							<linkclipref>clipitem-93</linkclipref>
							<mediatype>audio</mediatype>
							<trackindex>1</trackindex>
							<clipindex>1</clipindex>
							<groupindex>1</groupindex>
						</link>
						<link>
							<linkclipref>clipitem-101</linkclipref>
							<mediatype>audio</mediatype>
							<trackindex>2</trackindex>
							<clipindex>1</clipindex>
							<groupindex>1</groupindex>
						</link>
						<logginginfo>
							<description />
							<scene />
							<shottake />
							<lognote />
							<good />
							<originalvideofilename />
							<originalaudiofilename />
						</logginginfo>
						<colorinfo>
							<lut />
							<lut1 />
							<asc_sop />
							<asc_sat />
							<lut2 />
						</colorinfo>
					<labels><label2>Violet</label2></labels></clipitem>
					<clipitem id="clipitem-91">
						<masterclipid>clipitem-7-21</masterclipid>
						<name>What_Caused_Taylor_Swift-Blake_Lively_Rift_The_View.mp4</name>
						<enabled>TRUE</enabled>
						<duration>150</duration>
						<rate>
							<timebase>25</timebase>
							<ntsc>FALSE</ntsc>
						</rate>
						<start>5700</start>
						<end>5850</end>
						<in>3000</in>
						<out>3150</out>
						<pproTicksIn>0</pproTicksIn>
						<pproTicksOut>45733040640000</pproTicksOut>
						<alphatype>none</alphatype>
						<pixelaspectratio>square</pixelaspectratio>
						<anamorphic>FALSE</anamorphic>
						<file id="file-35">
							<name>What_Caused_Taylor_Swift-Blake_Lively_Rift_The_View.mp4</name>
							<pathurl>file://localhost/Users/themalikano/Documents/VideoAutomation/premiere_videos/What_Caused_Taylor_Swift-Blake_Lively_Rift_The_View.mp4</pathurl>
							<rate>
								<timebase>30</timebase>
								<ntsc>TRUE</ntsc>
							</rate>
							<duration>5397</duration>
							<timecode>
								<rate>
									<timebase>30</timebase>
									<ntsc>TRUE</ntsc>
								</rate>
								<string>00:00:00:00</string>
								<frame>0</frame>
								<displayformat>NDF</displayformat>
							</timecode>
							<media>
								<video>
									<samplecharacteristics>
										<rate>
											<timebase>30</timebase>
											<ntsc>TRUE</ntsc>
										</rate>
										<width>1280</width>
										<height>720</height>
										<anamorphic>FALSE</anamorphic>
										<pixelaspectratio>square</pixelaspectratio>
										<fielddominance>none</fielddominance>
									</samplecharacteristics>
								</video>
								<audio>
									<samplecharacteristics>
										<depth>16</depth>
										<samplerate>44100</samplerate>
									</samplecharacteristics>
									<channelcount>2</channelcount>
								</audio>
							</media>
						</file>
						<filter>
							<effect>
								<name>Basic Motion</name>
								<effectid>basic</effectid>
								<effectcategory>motion</effectcategory>
								<effecttype>motion</effecttype>
								<mediatype>video</mediatype>
								<pproBypass>false</pproBypass>
								<parameter authoringApp="PremierePro">
									<parameterid>scale</parameterid>
									<name>Scale</name>
									<valuemin>0</valuemin>
									<valuemax>1000</valuemax>
									<value>150</value>
								</parameter>
								<parameter authoringApp="PremierePro">
									<parameterid>rotation</parameterid>
									<name>Rotation</name>
									<valuemin>-8640</valuemin>
									<valuemax>8640</valuemax>
									<value>0</value>
								</parameter>
								<parameter authoringApp="PremierePro">
									<parameterid>center</parameterid>
									<name>Center</name>
									<value>
										<horiz>0</horiz>
										<vert>0</vert>
									</value>
								</parameter>
								<parameter authoringApp="PremierePro">
									<parameterid>centerOffset</parameterid>
									<name>Anchor Point</name>
									<value>
										<horiz>0</horiz>
										<vert>0</vert>
									</value>
								</parameter>
								<parameter authoringApp="PremierePro">
									<parameterid>antiflicker</parameterid>
									<name>Anti-flicker Filter</name>
									<valuemin>0.0</valuemin>
									<valuemax>1.0</valuemax>
									<value>0</value>
								</parameter>
							</effect>
						</filter>
						<link>
							<linkclipref>clipitem-91</linkclipref>
							<mediatype>video</mediatype>
							<trackindex>1</trackindex>
							<clipindex>7</clipindex>
						</link>
						<link>
							<linkclipref>clipitem-99</linkclipref>
							<mediatype>audio</mediatype>
							<trackindex>1</trackindex>
							<clipindex>7</clipindex>
							<groupindex>1</groupindex>
						</link>
						<link>
							<linkclipref>clipitem-107</linkclipref>
							<mediatype>audio</mediatype>
							<trackindex>2</trackindex>
							<clipindex>7</clipindex>
							<groupindex>1</groupindex>
						</link>
						<logginginfo>
							<description />
							<scene />
							<shottake />
							<lognote />
							<good />
							<originalvideofilename />
							<originalaudiofilename />
						</logginginfo>
						<colorinfo>
							<lut />
							<lut1 />
							<asc_sop />
							<asc_sat />
							<lut2 />
						</colorinfo>
					<labels><label2>Rose</label2></labels></clipitem>
					<clipitem id="clipitem-87">
						<masterclipid>clipitem-3-312</masterclipid>
						<name>Taylor_Swift_Travis_Kelce_-_The_New_Power_Couple.mp4</name>
						<enabled>TRUE</enabled>
						<duration>150</duration>
						<rate>
							<timebase>25</timebase>
							<ntsc>FALSE</ntsc>
						</rate>
						<start>5850</start>
						<end>6000</end>
						<in>46650</in>
						<out>46800</out>
						<pproTicksIn>0</pproTicksIn>
						<pproTicksOut>875013995520000</pproTicksOut>
						<alphatype>none</alphatype>
						<pixelaspectratio>square</pixelaspectratio>
						<anamorphic>FALSE</anamorphic>
						<file id="file-31">
							<name>Taylor_Swift_Travis_Kelce_-_The_New_Power_Couple.mp4</name>
							<pathurl>file://localhost/Users/themalikano/Documents/VideoAutomation/premiere_videos/Taylor_Swift_Travis_Kelce_-_The_New_Power_Couple.mp4</pathurl>
							<rate>
								<timebase>25</timebase>
								<ntsc>FALSE</ntsc>
							</rate>
							<duration>86118</duration>
							<timecode>
								<rate>
									<timebase>25</timebase>
									<ntsc>FALSE</ntsc>
								</rate>
								<string>00:00:00:00</string>
								<frame>0</frame>
								<displayformat>NDF</displayformat>
							</timecode>
							<media>
								<video>
									<samplecharacteristics>
										<rate>
											<timebase>25</timebase>
											<ntsc>FALSE</ntsc>
										</rate>
										<width>1920</width>
										<height>1080</height>
										<anamorphic>FALSE</anamorphic>
										<pixelaspectratio>square</pixelaspectratio>
										<fielddominance>none</fielddominance>
									</samplecharacteristics>
								</video>
								<audio>
									<samplecharacteristics>
										<depth>16</depth>
										<samplerate>44100</samplerate>
									</samplecharacteristics>
									<channelcount>2</channelcount>
								</audio>
							</media>
						</file>
						<link>
							<linkclipref>clipitem-87</linkclipref>
							<mediatype>video</mediatype>
							<trackindex>1</trackindex>
							<clipindex>3</clipindex>
						</link>
						<link>
							<linkclipref>clipitem-95</linkclipref>
							<mediatype>audio</mediatype>
							<trackindex>1</trackindex>
							<clipindex>3</clipindex>
							<groupindex>1</groupindex>
						</link>
						<link>
							<linkclipref>clipitem-103</linkclipref>
							<mediatype>audio</mediatype>
							<trackindex>2</trackindex>
							<clipindex>3</clipindex>
							<groupindex>1</groupindex>
						</link>
						<logginginfo>
							<description />
							<scene />
							<shottake />
							<lognote />
							<good />
							<originalvideofilename />
							<originalaudiofilename />
						</logginginfo>
						<colorinfo>
							<lut />
							<lut1 />
							<asc_sop />
							<asc_sat />
							<lut2 />
						</colorinfo>
					<labels><label2>Caribbean</label2></labels></clipitem>
					<clipitem id="clipitem-92">
						<masterclipid>clipitem-8-6</masterclipid>
						<name>Why_Travis_Kelce_Jokes_Taylor_Swift_Is_Going_to_KILL_Him.mp4</name>
						<enabled>TRUE</enabled>
						<duration>150</duration>
						<rate>
							<timebase>25</timebase>
							<ntsc>FALSE</ntsc>
						</rate>
						<start>6000</start>
						<end>6150</end>
						<in>750</in>
						<out>900</out>
						<pproTicksIn>0</pproTicksIn>
						<pproTicksOut>25249190400000</pproTicksOut>
						<alphatype>none</alphatype>
						<pixelaspectratio>square</pixelaspectratio>
						<anamorphic>FALSE</anamorphic>
						<file id="file-36">
							<name>Why_Travis_Kelce_Jokes_Taylor_Swift_Is_Going_to_KILL_Him.mp4</name>
							<pathurl>file://localhost/Users/themalikano/Documents/VideoAutomation/premiere_videos/Why_Travis_Kelce_Jokes_Taylor_Swift_Is_Going_to_KILL_Him.mp4</pathurl>
							<rate>
								<timebase>30</timebase>
								<ntsc>TRUE</ntsc>
							</rate>
							<duration>2980</duration>
							<timecode>
								<rate>
									<timebase>30</timebase>
									<ntsc>TRUE</ntsc>
								</rate>
								<string>00:00:00:00</string>
								<frame>0</frame>
								<displayformat>NDF</displayformat>
							</timecode>
							<media>
								<video>
									<samplecharacteristics>
										<rate>
											<timebase>30</timebase>
											<ntsc>TRUE</ntsc>
										</rate>
										<width>1920</width>
										<height>1080</height>
										<anamorphic>FALSE</anamorphic>
										<pixelaspectratio>square</pixelaspectratio>
										<fielddominance>none</fielddominance>
									</samplecharacteristics>
								</video>
								<audio>
									<samplecharacteristics>
										<depth>16</depth>
										<samplerate>44100</samplerate>
									</samplecharacteristics>
									<channelcount>2</channelcount>
								</audio>
							</media>
						</file>
						<link>
							<linkclipref>clipitem-92</linkclipref>
							<mediatype>video</mediatype>
							<trackindex>1</trackindex>
							<clipindex>8</clipindex>
						</link>
						<link>
							<linkclipref>clipitem-100</linkclipref>
							<mediatype>audio</mediatype>
							<trackindex>1</trackindex>
							<clipindex>8</clipindex>
							<groupindex>1</groupindex>
						</link>
						<link>
							<linkclipref>clipitem-108</linkclipref>
							<mediatype>audio</mediatype>
							<trackindex>2</trackindex>
							<clipindex>8</clipindex>
							<groupindex>1</groupindex>
						</link>
						<logginginfo>
							<description />
							<scene />
							<shottake />
							<lognote />
							<good />
							<originalvideofilename />
							<originalaudiofilename />
						</logginginfo>
						<colorinfo>
							<lut />
							<lut1 />
							<asc_sop />
							<asc_sat />
							<lut2 />
						</colorinfo>
					<labels><label2>Mango</label2></labels></clipitem>
					<clipitem id="clipitem-88">
						<masterclipid>clipitem-4-32</masterclipid>
						<name>Travis_Kelce_ANNOUNCE_WEDDING_DATE_with_Taylor_Swift_Why_He_was_Delaying_all_Along.mp4</name>
						<enabled>TRUE</enabled>
						<duration>150</duration>
						<rate>
							<timebase>25</timebase>
							<ntsc>FALSE</ntsc>
						</rate>
						<start>6150</start>
						<end>6300</end>
						<in>4650</in>
						<out>4800</out>
						<pproTicksIn>0</pproTicksIn>
						<pproTicksOut>419410897920000</pproTicksOut>
						<alphatype>none</alphatype>
						<pixelaspectratio>square</pixelaspectratio>
						<anamorphic>FALSE</anamorphic>
						<file id="file-32">
							<name>Travis_Kelce_ANNOUNCE_WEDDING_DATE_with_Taylor_Swift_Why_He_was_Delaying_all_Along.mp4</name>
							<pathurl>file://localhost/Users/themalikano/Documents/VideoAutomation/premiere_videos/Travis_Kelce_ANNOUNCE_WEDDING_DATE_with_Taylor_Swift_Why_He_was_Delaying_all_Along.mp4</pathurl>
							<rate>
								<timebase>24</timebase>
								<ntsc>FALSE</ntsc>
							</rate>
							<duration>39627</duration>
							<timecode>
								<rate>
									<timebase>24</timebase>
									<ntsc>FALSE</ntsc>
								</rate>
								<string>00:00:00:00</string>
								<frame>0</frame>
								<displayformat>NDF</displayformat>
							</timecode>
							<media>
								<video>
									<samplecharacteristics>
										<rate>
											<timebase>24</timebase>
											<ntsc>FALSE</ntsc>
										</rate>
										<width>852</width>
										<height>480</height>
										<anamorphic>FALSE</anamorphic>
										<pixelaspectratio>square</pixelaspectratio>
										<fielddominance>none</fielddominance>
									</samplecharacteristics>
								</video>
								<audio>
									<samplecharacteristics>
										<depth>16</depth>
										<samplerate>44100</samplerate>
									</samplecharacteristics>
									<channelcount>2</channelcount>
								</audio>
							</media>
						</file>
						<filter>
							<effect>
								<name>Basic Motion</name>
								<effectid>basic</effectid>
								<effectcategory>motion</effectcategory>
								<effecttype>motion</effecttype>
								<mediatype>video</mediatype>
								<pproBypass>false</pproBypass>
								<parameter authoringApp="PremierePro">
									<parameterid>scale</parameterid>
									<name>Scale</name>
									<valuemin>0</valuemin>
									<valuemax>1000</valuemax>
									<value>225</value>
								</parameter>
								<parameter authoringApp="PremierePro">
									<parameterid>rotation</parameterid>
									<name>Rotation</name>
									<valuemin>-8640</valuemin>
									<valuemax>8640</valuemax>
									<value>0</value>
								</parameter>
								<parameter authoringApp="PremierePro">
									<parameterid>center</parameterid>
									<name>Center</name>
									<value>
										<horiz>0</horiz>
										<vert>0</vert>
									</value>
								</parameter>
								<parameter authoringApp="PremierePro">
									<parameterid>centerOffset</parameterid>
									<name>Anchor Point</name>
									<value>
										<horiz>0</horiz>
										<vert>0</vert>
									</value>
								</parameter>
								<parameter authoringApp="PremierePro">
									<parameterid>antiflicker</parameterid>
									<name>Anti-flicker Filter</name>
									<valuemin>0.0</valuemin>
									<valuemax>1.0</valuemax>
									<value>0</value>
								</parameter>
							</effect>
						</filter>
						<link>
							<linkclipref>clipitem-88</linkclipref>
							<mediatype>video</mediatype>
							<trackindex>1</trackindex>
							<clipindex>4</clipindex>
						</link>
						<link>
							<linkclipref>clipitem-96</linkclipref>
							<mediatype>audio</mediatype>
							<trackindex>1</trackindex>
							<clipindex>4</clipindex>
							<groupindex>1</groupindex>
						</link>
						<link>
							<linkclipref>clipitem-104</linkclipref>
							<mediatype>audio</mediatype>
							<trackindex>2</trackindex>
							<clipindex>4</clipindex>
							<groupindex>1</groupindex>
						</link>
						<logginginfo>
							<description />
							<scene />
							<shottake />
							<lognote />
							<good />
							<originalvideofilename />
							<originalaudiofilename />
						</logginginfo>
						<colorinfo>
							<lut />
							<lut1 />
							<asc_sop />
							<asc_sat />
							<lut2 />
						</colorinfo>
					<labels><label2>Lavender</label2></labels></clipitem>
					<clipitem id="clipitem-87">
						<masterclipid>clipitem-3-552</masterclipid>
						<name>Taylor_Swift_Travis_Kelce_-_The_New_Power_Couple.mp4</name>
						<enabled>TRUE</enabled>
						<duration>150</duration>
						<rate>
							<timebase>25</timebase>
							<ntsc>FALSE</ntsc>
						</rate>
						<start>6300</start>
						<end>6450</end>
						<in>82650</in>
						<out>82800</out>
						<pproTicksIn>0</pproTicksIn>
						<pproTicksOut>875013995520000</pproTicksOut>
						<alphatype>none</alphatype>
						<pixelaspectratio>square</pixelaspectratio>
						<anamorphic>FALSE</anamorphic>
						<file id="file-31">
							<name>Taylor_Swift_Travis_Kelce_-_The_New_Power_Couple.mp4</name>
							<pathurl>file://localhost/Users/themalikano/Documents/VideoAutomation/premiere_videos/Taylor_Swift_Travis_Kelce_-_The_New_Power_Couple.mp4</pathurl>
							<rate>
								<timebase>25</timebase>
								<ntsc>FALSE</ntsc>
							</rate>
							<duration>86118</duration>
							<timecode>
								<rate>
									<timebase>25</timebase>
									<ntsc>FALSE</ntsc>
								</rate>
								<string>00:00:00:00</string>
								<frame>0</frame>
								<displayformat>NDF</displayformat>
							</timecode>
							<media>
								<video>
									<samplecharacteristics>
										<rate>
											<timebase>25</timebase>
											<ntsc>FALSE</ntsc>
										</rate>
										<width>1920</width>
										<height>1080</height>
										<anamorphic>FALSE</anamorphic>
										<pixelaspectratio>square</pixelaspectratio>
										<fielddominance>none</fielddominance>
									</samplecharacteristics>
								</video>
								<audio>
									<samplecharacteristics>
										<depth>16</depth>
										<samplerate>44100</samplerate>
									</samplecharacteristics>
									<channelcount>2</channelcount>
								</audio>
							</media>
						</file>
						<link>
							<linkclipref>clipitem-87</linkclipref>
							<mediatype>video</mediatype>
							<trackindex>1</trackindex>
							<clipindex>3</clipindex>
						</link>
						<link>
							<linkclipref>clipitem-95</linkclipref>
							<mediatype>audio</mediatype>
							<trackindex>1</trackindex>
							<clipindex>3</clipindex>
							<groupindex>1</groupindex>
						</link>
						<link>
							<linkclipref>clipitem-103</linkclipref>
							<mediatype>audio</mediatype>
							<trackindex>2</trackindex>
							<clipindex>3</clipindex>
							<groupindex>1</groupindex>
						</link>
						<logginginfo>
							<description />
							<scene />
							<shottake />
							<lognote />
							<good />
							<originalvideofilename />
							<originalaudiofilename />
						</logginginfo>
						<colorinfo>
							<lut />
							<lut1 />
							<asc_sop />
							<asc_sat />
							<lut2 />
						</colorinfo>
					<labels><label2>Caribbean</label2></labels></clipitem>
					<clipitem id="clipitem-86">
						<masterclipid>clipitem-2-81</masterclipid>
						<name>Taylor_Swift_Shares_The_Story_Of_Calling_Travis_Kelce_For_The_First_Time.mp4</name>
						<enabled>TRUE</enabled>
						<duration>150</duration>
						<rate>
							<timebase>25</timebase>
							<ntsc>FALSE</ntsc>
						</rate>
						<start>6450</start>
						<end>6600</end>
						<in>12000</in>
						<out>12150</out>
						<pproTicksIn>0</pproTicksIn>
						<pproTicksOut>236438092800000</pproTicksOut>
						<alphatype>none</alphatype>
						<pixelaspectratio>square</pixelaspectratio>
						<anamorphic>FALSE</anamorphic>
						<file id="file-30">
							<name>Taylor_Swift_Shares_The_Story_Of_Calling_Travis_Kelce_For_The_First_Time.mp4</name>
							<pathurl>file://localhost/Users/themalikano/Documents/VideoAutomation/premiere_videos/Taylor_Swift_Shares_The_Story_Of_Calling_Travis_Kelce_For_The_First_Time.mp4</pathurl>
							<rate>
								<timebase>30</timebase>
								<ntsc>TRUE</ntsc>
							</rate>
							<duration>27897</duration>
							<timecode>
								<rate>
									<timebase>30</timebase>
									<ntsc>TRUE</ntsc>
								</rate>
								<string>00:00:00:00</string>
								<frame>0</frame>
								<displayformat>NDF</displayformat>
							</timecode>
							<media>
								<video>
									<samplecharacteristics>
										<rate>
											<timebase>30</timebase>
											<ntsc>TRUE</ntsc>
										</rate>
										<width>1920</width>
										<height>1080</height>
										<anamorphic>FALSE</anamorphic>
										<pixelaspectratio>square</pixelaspectratio>
										<fielddominance>none</fielddominance>
									</samplecharacteristics>
								</video>
								<audio>
									<samplecharacteristics>
										<depth>16</depth>
										<samplerate>44100</samplerate>
									</samplecharacteristics>
									<channelcount>2</channelcount>
								</audio>
							</media>
						</file>
						<link>
							<linkclipref>clipitem-86</linkclipref>
							<mediatype>video</mediatype>
							<trackindex>1</trackindex>
							<clipindex>2</clipindex>
						</link>
						<link>
							<linkclipref>clipitem-94</linkclipref>
							<mediatype>audio</mediatype>
							<trackindex>1</trackindex>
							<clipindex>2</clipindex>
							<groupindex>1</groupindex>
						</link>
						<link>
							<linkclipref>clipitem-102</linkclipref>
							<mediatype>audio</mediatype>
							<trackindex>2</trackindex>
							<clipindex>2</clipindex>
							<groupindex>1</groupindex>
						</link>
						<logginginfo>
							<description />
							<scene />
							<shottake />
							<lognote />
							<good />
							<originalvideofilename />
							<originalaudiofilename />
						</logginginfo>
						<colorinfo>
							<lut />
							<lut1 />
							<asc_sop />
							<asc_sat />
							<lut2 />
						</colorinfo>
					<labels><label2>Iris</label2></labels></clipitem>
					<clipitem id="clipitem-90">
						<masterclipid>clipitem-6-85</masterclipid>
						<name>Travis_Kelce_talks_about_postponing_his_wedding_to_Fiance_Taylor_Swift_on_the_New_Heights_Podcast.mp4</name>
						<enabled>TRUE</enabled>
						<duration>150</duration>
						<rate>
							<timebase>25</timebase>
							<ntsc>FALSE</ntsc>
						</rate>
						<start>6600</start>
						<end>6750</end>
						<in>12600</in>
						<out>12750</out>
						<pproTicksIn>0</pproTicksIn>
						<pproTicksOut>149391889920000</pproTicksOut>
						<alphatype>none</alphatype>
						<pixelaspectratio>square</pixelaspectratio>
						<anamorphic>FALSE</anamorphic>
						<file id="file-34">
							<name>Travis_Kelce_talks_about_postponing_his_wedding_to_Fiance_Taylor_Swift_on_the_New_Heights_Podcast.mp4</name>
							<pathurl>file://localhost/Users/themalikano/Documents/VideoAutomation/premiere_videos/Travis_Kelce_talks_about_postponing_his_wedding_to_Fiance_Taylor_Swift_on_the_New_Heights_Podcast.mp4</pathurl>
							<rate>
								<timebase>30</timebase>
								<ntsc>FALSE</ntsc>
							</rate>
							<duration>17644</duration>
							<timecode>
								<rate>
									<timebase>30</timebase>
									<ntsc>FALSE</ntsc>
								</rate>
								<string>00:00:00:00</string>
								<frame>0</frame>
								<displayformat>NDF</displayformat>
							</timecode>
							<media>
								<video>
									<samplecharacteristics>
										<rate>
											<timebase>30</timebase>
											<ntsc>FALSE</ntsc>
										</rate>
										<width>1920</width>
										<height>1080</height>
										<anamorphic>FALSE</anamorphic>
										<pixelaspectratio>square</pixelaspectratio>
										<fielddominance>none</fielddominance>
									</samplecharacteristics>
								</video>
								<audio>
									<samplecharacteristics>
										<depth>16</depth>
										<samplerate>44100</samplerate>
									</samplecharacteristics>
									<channelcount>2</channelcount>
								</audio>
							</media>
						</file>
						<link>
							<linkclipref>clipitem-90</linkclipref>
							<mediatype>video</mediatype>
							<trackindex>1</trackindex>
							<clipindex>6</clipindex>
						</link>
						<link>
							<linkclipref>clipitem-98</linkclipref>
							<mediatype>audio</mediatype>
							<trackindex>1</trackindex>
							<clipindex>6</clipindex>
							<groupindex>1</groupindex>
						</link>
						<link>
							<linkclipref>clipitem-106</linkclipref>
							<mediatype>audio</mediatype>
							<trackindex>2</trackindex>
							<clipindex>6</clipindex>
							<groupindex>1</groupindex>
						</link>
						<logginginfo>
							<description />
							<scene />
							<shottake />
							<lognote />
							<good />
							<originalvideofilename />
							<originalaudiofilename />
						</logginginfo>
						<colorinfo>
							<lut />
							<lut1 />
							<asc_sop />
							<asc_sat />
							<lut2 />
						</colorinfo>
					<labels><label2>Forest</label2></labels></clipitem>
					<clipitem id="clipitem-87">
						<masterclipid>clipitem-3-184</masterclipid>
						<name>Taylor_Swift_Travis_Kelce_-_The_New_Power_Couple.mp4</name>
						<enabled>TRUE</enabled>
						<duration>150</duration>
						<rate>
							<timebase>25</timebase>
							<ntsc>FALSE</ntsc>
						</rate>
						<start>6750</start>
						<end>6900</end>
						<in>27450</in>
						<out>27600</out>
						<pproTicksIn>0</pproTicksIn>
						<pproTicksOut>875013995520000</pproTicksOut>
						<alphatype>none</alphatype>
						<pixelaspectratio>square</pixelaspectratio>
						<anamorphic>FALSE</anamorphic>
						<file id="file-31">
							<name>Taylor_Swift_Travis_Kelce_-_The_New_Power_Couple.mp4</name>
							<pathurl>file://localhost/Users/themalikano/Documents/VideoAutomation/premiere_videos/Taylor_Swift_Travis_Kelce_-_The_New_Power_Couple.mp4</pathurl>
							<rate>
								<timebase>25</timebase>
								<ntsc>FALSE</ntsc>
							</rate>
							<duration>86118</duration>
							<timecode>
								<rate>
									<timebase>25</timebase>
									<ntsc>FALSE</ntsc>
								</rate>
								<string>00:00:00:00</string>
								<frame>0</frame>
								<displayformat>NDF</displayformat>
							</timecode>
							<media>
								<video>
									<samplecharacteristics>
										<rate>
											<timebase>25</timebase>
											<ntsc>FALSE</ntsc>
										</rate>
										<width>1920</width>
										<height>1080</height>
										<anamorphic>FALSE</anamorphic>
										<pixelaspectratio>square</pixelaspectratio>
										<fielddominance>none</fielddominance>
									</samplecharacteristics>
								</video>
								<audio>
									<samplecharacteristics>
										<depth>16</depth>
										<samplerate>44100</samplerate>
									</samplecharacteristics>
									<channelcount>2</channelcount>
								</audio>
							</media>
						</file>
						<link>
							<linkclipref>clipitem-87</linkclipref>
							<mediatype>video</mediatype>
							<trackindex>1</trackindex>
							<clipindex>3</clipindex>
						</link>
						<link>
							<linkclipref>clipitem-95</linkclipref>
							<mediatype>audio</mediatype>
							<trackindex>1</trackindex>
							<clipindex>3</clipindex>
							<groupindex>1</groupindex>
						</link>
						<link>
							<linkclipref>clipitem-103</linkclipref>
							<mediatype>audio</mediatype>
							<trackindex>2</trackindex>
							<clipindex>3</clipindex>
							<groupindex>1</groupindex>
						</link>
						<logginginfo>
							<description />
							<scene />
							<shottake />
							<lognote />
							<good />
							<originalvideofilename />
							<originalaudiofilename />
						</logginginfo>
						<colorinfo>
							<lut />
							<lut1 />
							<asc_sop />
							<asc_sat />
							<lut2 />
						</colorinfo>
					<labels><label2>Caribbean</label2></labels></clipitem>
					<clipitem id="clipitem-86">
						<masterclipid>clipitem-2-32</masterclipid>
						<name>Taylor_Swift_Shares_The_Story_Of_Calling_Travis_Kelce_For_The_First_Time.mp4</name>
						<enabled>TRUE</enabled>
						<duration>150</duration>
						<rate>
							<timebase>25</timebase>
							<ntsc>FALSE</ntsc>
						</rate>
						<start>6900</start>
						<end>7050</end>
						<in>4650</in>
						<out>4800</out>
						<pproTicksIn>0</pproTicksIn>
						<pproTicksOut>236438092800000</pproTicksOut>
						<alphatype>none</alphatype>
						<pixelaspectratio>square</pixelaspectratio>
						<anamorphic>FALSE</anamorphic>
						<file id="file-30">
							<name>Taylor_Swift_Shares_The_Story_Of_Calling_Travis_Kelce_For_The_First_Time.mp4</name>
							<pathurl>file://localhost/Users/themalikano/Documents/VideoAutomation/premiere_videos/Taylor_Swift_Shares_The_Story_Of_Calling_Travis_Kelce_For_The_First_Time.mp4</pathurl>
							<rate>
								<timebase>30</timebase>
								<ntsc>TRUE</ntsc>
							</rate>
							<duration>27897</duration>
							<timecode>
								<rate>
									<timebase>30</timebase>
									<ntsc>TRUE</ntsc>
								</rate>
								<string>00:00:00:00</string>
								<frame>0</frame>
								<displayformat>NDF</displayformat>
							</timecode>
							<media>
								<video>
									<samplecharacteristics>
										<rate>
											<timebase>30</timebase>
											<ntsc>TRUE</ntsc>
										</rate>
										<width>1920</width>
										<height>1080</height>
										<anamorphic>FALSE</anamorphic>
										<pixelaspectratio>square</pixelaspectratio>
										<fielddominance>none</fielddominance>
									</samplecharacteristics>
								</video>
								<audio>
									<samplecharacteristics>
										<depth>16</depth>
										<samplerate>44100</samplerate>
									</samplecharacteristics>
									<channelcount>2</channelcount>
								</audio>
							</media>
						</file>
						<link>
							<linkclipref>clipitem-86</linkclipref>
							<mediatype>video</mediatype>
							<trackindex>1</trackindex>
							<clipindex>2</clipindex>
						</link>
						<link>
							<linkclipref>clipitem-94</linkclipref>
							<mediatype>audio</mediatype>
							<trackindex>1</trackindex>
							<clipindex>2</clipindex>
							<groupindex>1</groupindex>
						</link>
						<link>
							<linkclipref>clipitem-102</linkclipref>
							<mediatype>audio</mediatype>
							<trackindex>2</trackindex>
							<clipindex>2</clipindex>
							<groupindex>1</groupindex>
						</link>
						<logginginfo>
							<description />
							<scene />
							<shottake />
							<lognote />
							<good />
							<originalvideofilename />
							<originalaudiofilename />
						</logginginfo>
						<colorinfo>
							<lut />
							<lut1 />
							<asc_sop />
							<asc_sat />
							<lut2 />
						</colorinfo>
					<labels><label2>Iris</label2></labels></clipitem>
					<clipitem id="clipitem-91">
						<masterclipid>clipitem-7-26</masterclipid>
						<name>What_Caused_Taylor_Swift-Blake_Lively_Rift_The_View.mp4</name>
						<enabled>TRUE</enabled>
						<duration>150</duration>
						<rate>
							<timebase>25</timebase>
							<ntsc>FALSE</ntsc>
						</rate>
						<start>7050</start>
						<end>7200</end>
						<in>3750</in>
						<out>3900</out>
						<pproTicksIn>0</pproTicksIn>
						<pproTicksOut>45733040640000</pproTicksOut>
						<alphatype>none</alphatype>
						<pixelaspectratio>square</pixelaspectratio>
						<anamorphic>FALSE</anamorphic>
						<file id="file-35">
							<name>What_Caused_Taylor_Swift-Blake_Lively_Rift_The_View.mp4</name>
							<pathurl>file://localhost/Users/themalikano/Documents/VideoAutomation/premiere_videos/What_Caused_Taylor_Swift-Blake_Lively_Rift_The_View.mp4</pathurl>
							<rate>
								<timebase>30</timebase>
								<ntsc>TRUE</ntsc>
							</rate>
							<duration>5397</duration>
							<timecode>
								<rate>
									<timebase>30</timebase>
									<ntsc>TRUE</ntsc>
								</rate>
								<string>00:00:00:00</string>
								<frame>0</frame>
								<displayformat>NDF</displayformat>
							</timecode>
							<media>
								<video>
									<samplecharacteristics>
										<rate>
											<timebase>30</timebase>
											<ntsc>TRUE</ntsc>
										</rate>
										<width>1280</width>
										<height>720</height>
										<anamorphic>FALSE</anamorphic>
										<pixelaspectratio>square</pixelaspectratio>
										<fielddominance>none</fielddominance>
									</samplecharacteristics>
								</video>
								<audio>
									<samplecharacteristics>
										<depth>16</depth>
										<samplerate>44100</samplerate>
									</samplecharacteristics>
									<channelcount>2</channelcount>
								</audio>
							</media>
						</file>
						<filter>
							<effect>
								<name>Basic Motion</name>
								<effectid>basic</effectid>
								<effectcategory>motion</effectcategory>
								<effecttype>motion</effecttype>
								<mediatype>video</mediatype>
								<pproBypass>false</pproBypass>
								<parameter authoringApp="PremierePro">
									<parameterid>scale</parameterid>
									<name>Scale</name>
									<valuemin>0</valuemin>
									<valuemax>1000</valuemax>
									<value>150</value>
								</parameter>
								<parameter authoringApp="PremierePro">
									<parameterid>rotation</parameterid>
									<name>Rotation</name>
									<valuemin>-8640</valuemin>
									<valuemax>8640</valuemax>
									<value>0</value>
								</parameter>
								<parameter authoringApp="PremierePro">
									<parameterid>center</parameterid>
									<name>Center</name>
									<value>
										<horiz>0</horiz>
										<vert>0</vert>
									</value>
								</parameter>
								<parameter authoringApp="PremierePro">
									<parameterid>centerOffset</parameterid>
									<name>Anchor Point</name>
									<value>
										<horiz>0</horiz>
										<vert>0</vert>
									</value>
								</parameter>
								<parameter authoringApp="PremierePro">
									<parameterid>antiflicker</parameterid>
									<name>Anti-flicker Filter</name>
									<valuemin>0.0</valuemin>
									<valuemax>1.0</valuemax>
									<value>0</value>
								</parameter>
							</effect>
						</filter>
						<link>
							<linkclipref>clipitem-91</linkclipref>
							<mediatype>video</mediatype>
							<trackindex>1</trackindex>
							<clipindex>7</clipindex>
						</link>
						<link>
							<linkclipref>clipitem-99</linkclipref>
							<mediatype>audio</mediatype>
							<trackindex>1</trackindex>
							<clipindex>7</clipindex>
							<groupindex>1</groupindex>
						</link>
						<link>
							<linkclipref>clipitem-107</linkclipref>
							<mediatype>audio</mediatype>
							<trackindex>2</trackindex>
							<clipindex>7</clipindex>
							<groupindex>1</groupindex>
						</link>
						<logginginfo>
							<description />
							<scene />
							<shottake />
							<lognote />
							<good />
							<originalvideofilename />
							<originalaudiofilename />
						</logginginfo>
						<colorinfo>
							<lut />
							<lut1 />
							<asc_sop />
							<asc_sat />
							<lut2 />
						</colorinfo>
					<labels><label2>Rose</label2></labels></clipitem>
					<clipitem id="clipitem-89">
						<masterclipid>clipitem-5-13</masterclipid>
						<name>Travis_Kelce_s_appearance_on_The_Eras_Tour_during_I_Can_Do_It_With_A_Broken_Heart_in_London.mp4</name>
						<enabled>TRUE</enabled>
						<duration>150</duration>
						<rate>
							<timebase>25</timebase>
							<ntsc>FALSE</ntsc>
						</rate>
						<start>7200</start>
						<end>7350</end>
						<in>1800</in>
						<out>1950</out>
						<pproTicksIn>0</pproTicksIn>
						<pproTicksOut>27525173760000</pproTicksOut>
						<alphatype>none</alphatype>
						<pixelaspectratio>square</pixelaspectratio>
						<anamorphic>FALSE</anamorphic>
						<file id="file-33">
							<name>Travis_Kelce_s_appearance_on_The_Eras_Tour_during_I_Can_Do_It_With_A_Broken_Heart_in_London.mp4</name>
							<pathurl>file://localhost/Users/themalikano/Documents/VideoAutomation/premiere_videos/Travis_Kelce_s_appearance_on_The_Eras_Tour_during_I_Can_Do_It_With_A_Broken_Heart_in_London.mp4</pathurl>
							<rate>
								<timebase>24</timebase>
								<ntsc>TRUE</ntsc>
							</rate>
							<duration>2599</duration>
							<timecode>
								<rate>
									<timebase>24</timebase>
									<ntsc>TRUE</ntsc>
								</rate>
								<string>00:00:00:00</string>
								<frame>0</frame>
								<displayformat>NDF</displayformat>
							</timecode>
							<media>
								<video>
									<samplecharacteristics>
										<rate>
											<timebase>24</timebase>
											<ntsc>TRUE</ntsc>
										</rate>
										<width>1920</width>
										<height>1080</height>
										<anamorphic>FALSE</anamorphic>
										<pixelaspectratio>square</pixelaspectratio>
										<fielddominance>none</fielddominance>
									</samplecharacteristics>
								</video>
								<audio>
									<samplecharacteristics>
										<depth>16</depth>
										<samplerate>44100</samplerate>
									</samplecharacteristics>
									<channelcount>2</channelcount>
								</audio>
							</media>
						</file>
						<link>
							<linkclipref>clipitem-89</linkclipref>
							<mediatype>video</mediatype>
							<trackindex>1</trackindex>
							<clipindex>5</clipindex>
						</link>
						<link>
							<linkclipref>clipitem-97</linkclipref>
							<mediatype>audio</mediatype>
							<trackindex>1</trackindex>
							<clipindex>5</clipindex>
							<groupindex>1</groupindex>
						</link>
						<link>
							<linkclipref>clipitem-105</linkclipref>
							<mediatype>audio</mediatype>
							<trackindex>2</trackindex>
							<clipindex>5</clipindex>
							<groupindex>1</groupindex>
						</link>
						<logginginfo>
							<description />
							<scene />
							<shottake />
							<lognote />
							<good />
							<originalvideofilename />
							<originalaudiofilename />
						</logginginfo>
						<colorinfo>
							<lut />
							<lut1 />
							<asc_sop />
							<asc_sat />
							<lut2 />
						</colorinfo>
					<labels><label2>Cerulean</label2></labels></clipitem>
					<clipitem id="clipitem-85">
						<masterclipid>clipitem-1-11</masterclipid>
						<name>Taylor_Swift_Reveals_What_Fiance_Travis_Kelce_Said_Before_Proposal_E_News.mp4</name>
						<enabled>TRUE</enabled>
						<duration>150</duration>
						<rate>
							<timebase>25</timebase>
							<ntsc>FALSE</ntsc>
						</rate>
						<start>7350</start>
						<end>7500</end>
						<in>1500</in>
						<out>1650</out>
						<pproTicksIn>0</pproTicksIn>
						<pproTicksOut>36039790080000</pproTicksOut>
						<alphatype>none</alphatype>
						<pixelaspectratio>square</pixelaspectratio>
						<anamorphic>FALSE</anamorphic>
						<file id="file-29">
							<name>Taylor_Swift_Reveals_What_Fiance_Travis_Kelce_Said_Before_Proposal_E_News.mp4</name>
							<pathurl>file://localhost/Users/themalikano/Documents/VideoAutomation/premiere_videos/Taylor_Swift_Reveals_What_Fiance_Travis_Kelce_Said_Before_Proposal_E_News.mp4</pathurl>
							<rate>
								<timebase>29</timebase>
								<ntsc>FALSE</ntsc>
							</rate>
							<duration>4115</duration>
							<timecode>
								<rate>
									<timebase>29</timebase>
									<ntsc>FALSE</ntsc>
								</rate>
								<string>00:00:00:00</string>
								<frame>0</frame>
								<displayformat>NDF</displayformat>
							</timecode>
							<media>
								<video>
									<samplecharacteristics>
										<rate>
											<timebase>29</timebase>
											<ntsc>FALSE</ntsc>
										</rate>
										<width>1920</width>
										<height>1080</height>
										<anamorphic>FALSE</anamorphic>
										<pixelaspectratio>square</pixelaspectratio>
										<fielddominance>none</fielddominance>
									</samplecharacteristics>
								</video>
								<audio>
									<samplecharacteristics>
										<depth>16</depth>
										<samplerate>44100</samplerate>
									</samplecharacteristics>
									<channelcount>2</channelcount>
								</audio>
							</media>
						</file>
						<link>
							<linkclipref>clipitem-85</linkclipref>
							<mediatype>video</mediatype>
							<trackindex>1</trackindex>
							<clipindex>1</clipindex>
						</link>
						<link>
							<linkclipref>clipitem-93</linkclipref>
							<mediatype>audio</mediatype>
							<trackindex>1</trackindex>
							<clipindex>1</clipindex>
							<groupindex>1</groupindex>
						</link>
						<link>
							<linkclipref>clipitem-101</linkclipref>
							<mediatype>audio</mediatype>
							<trackindex>2</trackindex>
							<clipindex>1</clipindex>
							<groupindex>1</groupindex>
						</link>
						<logginginfo>
							<description />
							<scene />
							<shottake />
							<lognote />
							<good />
							<originalvideofilename />
							<originalaudiofilename />
						</logginginfo>
						<colorinfo>
							<lut />
							<lut1 />
							<asc_sop />
							<asc_sat />
							<lut2 />
						</colorinfo>
					<labels><label2>Violet</label2></labels></clipitem>
					<clipitem id="clipitem-88">
						<masterclipid>clipitem-4-156</masterclipid>
						<name>Travis_Kelce_ANNOUNCE_WEDDING_DATE_with_Taylor_Swift_Why_He_was_Delaying_all_Along.mp4</name>
						<enabled>TRUE</enabled>
						<duration>150</duration>
						<rate>
							<timebase>25</timebase>
							<ntsc>FALSE</ntsc>
						</rate>
						<start>7500</start>
						<end>7650</end>
						<in>23250</in>
						<out>23400</out>
						<pproTicksIn>0</pproTicksIn>
						<pproTicksOut>419410897920000</pproTicksOut>
						<alphatype>none</alphatype>
						<pixelaspectratio>square</pixelaspectratio>
						<anamorphic>FALSE</anamorphic>
						<file id="file-32">
							<name>Travis_Kelce_ANNOUNCE_WEDDING_DATE_with_Taylor_Swift_Why_He_was_Delaying_all_Along.mp4</name>
							<pathurl>file://localhost/Users/themalikano/Documents/VideoAutomation/premiere_videos/Travis_Kelce_ANNOUNCE_WEDDING_DATE_with_Taylor_Swift_Why_He_was_Delaying_all_Along.mp4</pathurl>
							<rate>
								<timebase>24</timebase>
								<ntsc>FALSE</ntsc>
							</rate>
							<duration>39627</duration>
							<timecode>
								<rate>
									<timebase>24</timebase>
									<ntsc>FALSE</ntsc>
								</rate>
								<string>00:00:00:00</string>
								<frame>0</frame>
								<displayformat>NDF</displayformat>
							</timecode>
							<media>
								<video>
									<samplecharacteristics>
										<rate>
											<timebase>24</timebase>
											<ntsc>FALSE</ntsc>
										</rate>
										<width>852</width>
										<height>480</height>
										<anamorphic>FALSE</anamorphic>
										<pixelaspectratio>square</pixelaspectratio>
										<fielddominance>none</fielddominance>
									</samplecharacteristics>
								</video>
								<audio>
									<samplecharacteristics>
										<depth>16</depth>
										<samplerate>44100</samplerate>
									</samplecharacteristics>
									<channelcount>2</channelcount>
								</audio>
							</media>
						</file>
						<filter>
							<effect>
								<name>Basic Motion</name>
								<effectid>basic</effectid>
								<effectcategory>motion</effectcategory>
								<effecttype>motion</effecttype>
								<mediatype>video</mediatype>
								<pproBypass>false</pproBypass>
								<parameter authoringApp="PremierePro">
									<parameterid>scale</parameterid>
									<name>Scale</name>
									<valuemin>0</valuemin>
									<valuemax>1000</valuemax>
									<value>225</value>
								</parameter>
								<parameter authoringApp="PremierePro">
									<parameterid>rotation</parameterid>
									<name>Rotation</name>
									<valuemin>-8640</valuemin>
									<valuemax>8640</valuemax>
									<value>0</value>
								</parameter>
								<parameter authoringApp="PremierePro">
									<parameterid>center</parameterid>
									<name>Center</name>
									<value>
										<horiz>0</horiz>
										<vert>0</vert>
									</value>
								</parameter>
								<parameter authoringApp="PremierePro">
									<parameterid>centerOffset</parameterid>
									<name>Anchor Point</name>
									<value>
										<horiz>0</horiz>
										<vert>0</vert>
									</value>
								</parameter>
								<parameter authoringApp="PremierePro">
									<parameterid>antiflicker</parameterid>
									<name>Anti-flicker Filter</name>
									<valuemin>0.0</valuemin>
									<valuemax>1.0</valuemax>
									<value>0</value>
								</parameter>
							</effect>
						</filter>
						<link>
							<linkclipref>clipitem-88</linkclipref>
							<mediatype>video</mediatype>
							<trackindex>1</trackindex>
							<clipindex>4</clipindex>
						</link>
						<link>
							<linkclipref>clipitem-96</linkclipref>
							<mediatype>audio</mediatype>
							<trackindex>1</trackindex>
							<clipindex>4</clipindex>
							<groupindex>1</groupindex>
						</link>
						<link>
							<linkclipref>clipitem-104</linkclipref>
							<mediatype>audio</mediatype>
							<trackindex>2</trackindex>
							<clipindex>4</clipindex>
							<groupindex>1</groupindex>
						</link>
						<logginginfo>
							<description />
							<scene />
							<shottake />
							<lognote />
							<good />
							<originalvideofilename />
							<originalaudiofilename />
						</logginginfo>
						<colorinfo>
							<lut />
							<lut1 />
							<asc_sop />
							<asc_sat />
							<lut2 />
						</colorinfo>
					<labels><label2>Lavender</label2></labels></clipitem>
					<clipitem id="clipitem-89">
						<masterclipid>clipitem-5-6</masterclipid>
						<name>Travis_Kelce_s_appearance_on_The_Eras_Tour_during_I_Can_Do_It_With_A_Broken_Heart_in_London.mp4</name>
						<enabled>TRUE</enabled>
						<duration>150</duration>
						<rate>
							<timebase>25</timebase>
							<ntsc>FALSE</ntsc>
						</rate>
						<start>7650</start>
						<end>7800</end>
						<in>750</in>
						<out>900</out>
						<pproTicksIn>0</pproTicksIn>
						<pproTicksOut>27525173760000</pproTicksOut>
						<alphatype>none</alphatype>
						<pixelaspectratio>square</pixelaspectratio>
						<anamorphic>FALSE</anamorphic>
						<file id="file-33">
							<name>Travis_Kelce_s_appearance_on_The_Eras_Tour_during_I_Can_Do_It_With_A_Broken_Heart_in_London.mp4</name>
							<pathurl>file://localhost/Users/themalikano/Documents/VideoAutomation/premiere_videos/Travis_Kelce_s_appearance_on_The_Eras_Tour_during_I_Can_Do_It_With_A_Broken_Heart_in_London.mp4</pathurl>
							<rate>
								<timebase>24</timebase>
								<ntsc>TRUE</ntsc>
							</rate>
							<duration>2599</duration>
							<timecode>
								<rate>
									<timebase>24</timebase>
									<ntsc>TRUE</ntsc>
								</rate>
								<string>00:00:00:00</string>
								<frame>0</frame>
								<displayformat>NDF</displayformat>
							</timecode>
							<media>
								<video>
									<samplecharacteristics>
										<rate>
											<timebase>24</timebase>
											<ntsc>TRUE</ntsc>
										</rate>
										<width>1920</width>
										<height>1080</height>
										<anamorphic>FALSE</anamorphic>
										<pixelaspectratio>square</pixelaspectratio>
										<fielddominance>none</fielddominance>
									</samplecharacteristics>
								</video>
								<audio>
									<samplecharacteristics>
										<depth>16</depth>
										<samplerate>44100</samplerate>
									</samplecharacteristics>
									<channelcount>2</channelcount>
								</audio>
							</media>
						</file>
						<link>
							<linkclipref>clipitem-89</linkclipref>
							<mediatype>video</mediatype>
							<trackindex>1</trackindex>
							<clipindex>5</clipindex>
						</link>
						<link>
							<linkclipref>clipitem-97</linkclipref>
							<mediatype>audio</mediatype>
							<trackindex>1</trackindex>
							<clipindex>5</clipindex>
							<groupindex>1</groupindex>
						</link>
						<link>
							<linkclipref>clipitem-105</linkclipref>
							<mediatype>audio</mediatype>
							<trackindex>2</trackindex>
							<clipindex>5</clipindex>
							<groupindex>1</groupindex>
						</link>
						<logginginfo>
							<description />
							<scene />
							<shottake />
							<lognote />
							<good />
							<originalvideofilename />
							<originalaudiofilename />
						</logginginfo>
						<colorinfo>
							<lut />
							<lut1 />
							<asc_sop />
							<asc_sat />
							<lut2 />
						</colorinfo>
					<labels><label2>Cerulean</label2></labels></clipitem>
					<clipitem id="clipitem-88">
						<masterclipid>clipitem-4-244</masterclipid>
						<name>Travis_Kelce_ANNOUNCE_WEDDING_DATE_with_Taylor_Swift_Why_He_was_Delaying_all_Along.mp4</name>
						<enabled>TRUE</enabled>
						<duration>150</duration>
						<rate>
							<timebase>25</timebase>
							<ntsc>FALSE</ntsc>
						</rate>
						<start>7800</start>
						<end>7950</end>
						<in>36450</in>
						<out>36600</out>
						<pproTicksIn>0</pproTicksIn>
						<pproTicksOut>419410897920000</pproTicksOut>
						<alphatype>none</alphatype>
						<pixelaspectratio>square</pixelaspectratio>
						<anamorphic>FALSE</anamorphic>
						<file id="file-32">
							<name>Travis_Kelce_ANNOUNCE_WEDDING_DATE_with_Taylor_Swift_Why_He_was_Delaying_all_Along.mp4</name>
							<pathurl>file://localhost/Users/themalikano/Documents/VideoAutomation/premiere_videos/Travis_Kelce_ANNOUNCE_WEDDING_DATE_with_Taylor_Swift_Why_He_was_Delaying_all_Along.mp4</pathurl>
							<rate>
								<timebase>24</timebase>
								<ntsc>FALSE</ntsc>
							</rate>
							<duration>39627</duration>
							<timecode>
								<rate>
									<timebase>24</timebase>
									<ntsc>FALSE</ntsc>
								</rate>
								<string>00:00:00:00</string>
								<frame>0</frame>
								<displayformat>NDF</displayformat>
							</timecode>
							<media>
								<video>
									<samplecharacteristics>
										<rate>
											<timebase>24</timebase>
											<ntsc>FALSE</ntsc>
										</rate>
										<width>852</width>
										<height>480</height>
										<anamorphic>FALSE</anamorphic>
										<pixelaspectratio>square</pixelaspectratio>
										<fielddominance>none</fielddominance>
									</samplecharacteristics>
								</video>
								<audio>
									<samplecharacteristics>
										<depth>16</depth>
										<samplerate>44100</samplerate>
									</samplecharacteristics>
									<channelcount>2</channelcount>
								</audio>
							</media>
						</file>
						<filter>
							<effect>
								<name>Basic Motion</name>
								<effectid>basic</effectid>
								<effectcategory>motion</effectcategory>
								<effecttype>motion</effecttype>
								<mediatype>video</mediatype>
								<pproBypass>false</pproBypass>
								<parameter authoringApp="PremierePro">
									<parameterid>scale</parameterid>
									<name>Scale</name>
									<valuemin>0</valuemin>
									<valuemax>1000</valuemax>
									<value>225</value>
								</parameter>
								<parameter authoringApp="PremierePro">
									<parameterid>rotation</parameterid>
									<name>Rotation</name>
									<valuemin>-8640</valuemin>
									<valuemax>8640</valuemax>
									<value>0</value>
								</parameter>
								<parameter authoringApp="PremierePro">
									<parameterid>center</parameterid>
									<name>Center</name>
									<value>
										<horiz>0</horiz>
										<vert>0</vert>
									</value>
								</parameter>
								<parameter authoringApp="PremierePro">
									<parameterid>centerOffset</parameterid>
									<name>Anchor Point</name>
									<value>
										<horiz>0</horiz>
										<vert>0</vert>
									</value>
								</parameter>
								<parameter authoringApp="PremierePro">
									<parameterid>antiflicker</parameterid>
									<name>Anti-flicker Filter</name>
									<valuemin>0.0</valuemin>
									<valuemax>1.0</valuemax>
									<value>0</value>
								</parameter>
							</effect>
						</filter>
						<link>
							<linkclipref>clipitem-88</linkclipref>
							<mediatype>video</mediatype>
							<trackindex>1</trackindex>
							<clipindex>4</clipindex>
						</link>
						<link>
							<linkclipref>clipitem-96</linkclipref>
							<mediatype>audio</mediatype>
							<trackindex>1</trackindex>
							<clipindex>4</clipindex>
							<groupindex>1</groupindex>
						</link>
						<link>
							<linkclipref>clipitem-104</linkclipref>
							<mediatype>audio</mediatype>
							<trackindex>2</trackindex>
							<clipindex>4</clipindex>
							<groupindex>1</groupindex>
						</link>
						<logginginfo>
							<description />
							<scene />
							<shottake />
							<lognote />
							<good />
							<originalvideofilename />
							<originalaudiofilename />
						</logginginfo>
						<colorinfo>
							<lut />
							<lut1 />
							<asc_sop />
							<asc_sat />
							<lut2 />
						</colorinfo>
					<labels><label2>Lavender</label2></labels></clipitem>
					<clipitem id="clipitem-90">
						<masterclipid>clipitem-6-50</masterclipid>
						<name>Travis_Kelce_talks_about_postponing_his_wedding_to_Fiance_Taylor_Swift_on_the_New_Heights_Podcast.mp4</name>
						<enabled>TRUE</enabled>
						<duration>150</duration>
						<rate>
							<timebase>25</timebase>
							<ntsc>FALSE</ntsc>
						</rate>
						<start>7950</start>
						<end>8100</end>
						<in>7350</in>
						<out>7500</out>
						<pproTicksIn>0</pproTicksIn>
						<pproTicksOut>149391889920000</pproTicksOut>
						<alphatype>none</alphatype>
						<pixelaspectratio>square</pixelaspectratio>
						<anamorphic>FALSE</anamorphic>
						<file id="file-34">
							<name>Travis_Kelce_talks_about_postponing_his_wedding_to_Fiance_Taylor_Swift_on_the_New_Heights_Podcast.mp4</name>
							<pathurl>file://localhost/Users/themalikano/Documents/VideoAutomation/premiere_videos/Travis_Kelce_talks_about_postponing_his_wedding_to_Fiance_Taylor_Swift_on_the_New_Heights_Podcast.mp4</pathurl>
							<rate>
								<timebase>30</timebase>
								<ntsc>FALSE</ntsc>
							</rate>
							<duration>17644</duration>
							<timecode>
								<rate>
									<timebase>30</timebase>
									<ntsc>FALSE</ntsc>
								</rate>
								<string>00:00:00:00</string>
								<frame>0</frame>
								<displayformat>NDF</displayformat>
							</timecode>
							<media>
								<video>
									<samplecharacteristics>
										<rate>
											<timebase>30</timebase>
											<ntsc>FALSE</ntsc>
										</rate>
										<width>1920</width>
										<height>1080</height>
										<anamorphic>FALSE</anamorphic>
										<pixelaspectratio>square</pixelaspectratio>
										<fielddominance>none</fielddominance>
									</samplecharacteristics>
								</video>
								<audio>
									<samplecharacteristics>
										<depth>16</depth>
										<samplerate>44100</samplerate>
									</samplecharacteristics>
									<channelcount>2</channelcount>
								</audio>
							</media>
						</file>
						<link>
							<linkclipref>clipitem-90</linkclipref>
							<mediatype>video</mediatype>
							<trackindex>1</trackindex>
							<clipindex>6</clipindex>
						</link>
						<link>
							<linkclipref>clipitem-98</linkclipref>
							<mediatype>audio</mediatype>
							<trackindex>1</trackindex>
							<clipindex>6</clipindex>
							<groupindex>1</groupindex>
						</link>
						<link>
							<linkclipref>clipitem-106</linkclipref>
							<mediatype>audio</mediatype>
							<trackindex>2</trackindex>
							<clipindex>6</clipindex>
							<groupindex>1</groupindex>
						</link>
						<logginginfo>
							<description />
							<scene />
							<shottake />
							<lognote />
							<good />
							<originalvideofilename />
							<originalaudiofilename />
						</logginginfo>
						<colorinfo>
							<lut />
							<lut1 />
							<asc_sop />
							<asc_sat />
							<lut2 />
						</colorinfo>
					<labels><label2>Forest</label2></labels></clipitem>
					<clipitem id="clipitem-85">
						<masterclipid>clipitem-1-19</masterclipid>
						<name>Taylor_Swift_Reveals_What_Fiance_Travis_Kelce_Said_Before_Proposal_E_News.mp4</name>
						<enabled>TRUE</enabled>
						<duration>150</duration>
						<rate>
							<timebase>25</timebase>
							<ntsc>FALSE</ntsc>
						</rate>
						<start>8100</start>
						<end>8250</end>
						<in>2700</in>
						<out>2850</out>
						<pproTicksIn>0</pproTicksIn>
						<pproTicksOut>36039790080000</pproTicksOut>
						<alphatype>none</alphatype>
						<pixelaspectratio>square</pixelaspectratio>
						<anamorphic>FALSE</anamorphic>
						<file id="file-29">
							<name>Taylor_Swift_Reveals_What_Fiance_Travis_Kelce_Said_Before_Proposal_E_News.mp4</name>
							<pathurl>file://localhost/Users/themalikano/Documents/VideoAutomation/premiere_videos/Taylor_Swift_Reveals_What_Fiance_Travis_Kelce_Said_Before_Proposal_E_News.mp4</pathurl>
							<rate>
								<timebase>29</timebase>
								<ntsc>FALSE</ntsc>
							</rate>
							<duration>4115</duration>
							<timecode>
								<rate>
									<timebase>29</timebase>
									<ntsc>FALSE</ntsc>
								</rate>
								<string>00:00:00:00</string>
								<frame>0</frame>
								<displayformat>NDF</displayformat>
							</timecode>
							<media>
								<video>
									<samplecharacteristics>
										<rate>
											<timebase>29</timebase>
											<ntsc>FALSE</ntsc>
										</rate>
										<width>1920</width>
										<height>1080</height>
										<anamorphic>FALSE</anamorphic>
										<pixelaspectratio>square</pixelaspectratio>
										<fielddominance>none</fielddominance>
									</samplecharacteristics>
								</video>
								<audio>
									<samplecharacteristics>
										<depth>16</depth>
										<samplerate>44100</samplerate>
									</samplecharacteristics>
									<channelcount>2</channelcount>
								</audio>
							</media>
						</file>
						<link>
							<linkclipref>clipitem-85</linkclipref>
							<mediatype>video</mediatype>
							<trackindex>1</trackindex>
							<clipindex>1</clipindex>
						</link>
						<link>
							<linkclipref>clipitem-93</linkclipref>
							<mediatype>audio</mediatype>
							<trackindex>1</trackindex>
							<clipindex>1</clipindex>
							<groupindex>1</groupindex>
						</link>
						<link>
							<linkclipref>clipitem-101</linkclipref>
							<mediatype>audio</mediatype>
							<trackindex>2</trackindex>
							<clipindex>1</clipindex>
							<groupindex>1</groupindex>
						</link>
						<logginginfo>
							<description />
							<scene />
							<shottake />
							<lognote />
							<good />
							<originalvideofilename />
							<originalaudiofilename />
						</logginginfo>
						<colorinfo>
							<lut />
							<lut1 />
							<asc_sop />
							<asc_sat />
							<lut2 />
						</colorinfo>
					<labels><label2>Violet</label2></labels></clipitem>
					<clipitem id="clipitem-89">
						<masterclipid>clipitem-5-3</masterclipid>
						<name>Travis_Kelce_s_appearance_on_The_Eras_Tour_during_I_Can_Do_It_With_A_Broken_Heart_in_London.mp4</name>
						<enabled>TRUE</enabled>
						<duration>150</duration>
						<rate>
							<timebase>25</timebase>
							<ntsc>FALSE</ntsc>
						</rate>
						<start>8250</start>
						<end>8400</end>
						<in>300</in>
						<out>450</out>
						<pproTicksIn>0</pproTicksIn>
						<pproTicksOut>27525173760000</pproTicksOut>
						<alphatype>none</alphatype>
						<pixelaspectratio>square</pixelaspectratio>
						<anamorphic>FALSE</anamorphic>
						<file id="file-33">
							<name>Travis_Kelce_s_appearance_on_The_Eras_Tour_during_I_Can_Do_It_With_A_Broken_Heart_in_London.mp4</name>
							<pathurl>file://localhost/Users/themalikano/Documents/VideoAutomation/premiere_videos/Travis_Kelce_s_appearance_on_The_Eras_Tour_during_I_Can_Do_It_With_A_Broken_Heart_in_London.mp4</pathurl>
							<rate>
								<timebase>24</timebase>
								<ntsc>TRUE</ntsc>
							</rate>
							<duration>2599</duration>
							<timecode>
								<rate>
									<timebase>24</timebase>
									<ntsc>TRUE</ntsc>
								</rate>
								<string>00:00:00:00</string>
								<frame>0</frame>
								<displayformat>NDF</displayformat>
							</timecode>
							<media>
								<video>
									<samplecharacteristics>
										<rate>
											<timebase>24</timebase>
											<ntsc>TRUE</ntsc>
										</rate>
										<width>1920</width>
										<height>1080</height>
										<anamorphic>FALSE</anamorphic>
										<pixelaspectratio>square</pixelaspectratio>
										<fielddominance>none</fielddominance>
									</samplecharacteristics>
								</video>
								<audio>
									<samplecharacteristics>
										<depth>16</depth>
										<samplerate>44100</samplerate>
									</samplecharacteristics>
									<channelcount>2</channelcount>
								</audio>
							</media>
						</file>
						<link>
							<linkclipref>clipitem-89</linkclipref>
							<mediatype>video</mediatype>
							<trackindex>1</trackindex>
							<clipindex>5</clipindex>
						</link>
						<link>
							<linkclipref>clipitem-97</linkclipref>
							<mediatype>audio</mediatype>
							<trackindex>1</trackindex>
							<clipindex>5</clipindex>
							<groupindex>1</groupindex>
						</link>
						<link>
							<linkclipref>clipitem-105</linkclipref>
							<mediatype>audio</mediatype>
							<trackindex>2</trackindex>
							<clipindex>5</clipindex>
							<groupindex>1</groupindex>
						</link>
						<logginginfo>
							<description />
							<scene />
							<shottake />
							<lognote />
							<good />
							<originalvideofilename />
							<originalaudiofilename />
						</logginginfo>
						<colorinfo>
							<lut />
							<lut1 />
							<asc_sop />
							<asc_sat />
							<lut2 />
						</colorinfo>
					<labels><label2>Cerulean</label2></labels></clipitem>
					<clipitem id="clipitem-85">
						<masterclipid>clipitem-1-3</masterclipid>
						<name>Taylor_Swift_Reveals_What_Fiance_Travis_Kelce_Said_Before_Proposal_E_News.mp4</name>
						<enabled>TRUE</enabled>
						<duration>150</duration>
						<rate>
							<timebase>25</timebase>
							<ntsc>FALSE</ntsc>
						</rate>
						<start>8400</start>
						<end>8550</end>
						<in>300</in>
						<out>450</out>
						<pproTicksIn>0</pproTicksIn>
						<pproTicksOut>36039790080000</pproTicksOut>
						<alphatype>none</alphatype>
						<pixelaspectratio>square</pixelaspectratio>
						<anamorphic>FALSE</anamorphic>
						<file id="file-29">
							<name>Taylor_Swift_Reveals_What_Fiance_Travis_Kelce_Said_Before_Proposal_E_News.mp4</name>
							<pathurl>file://localhost/Users/themalikano/Documents/VideoAutomation/premiere_videos/Taylor_Swift_Reveals_What_Fiance_Travis_Kelce_Said_Before_Proposal_E_News.mp4</pathurl>
							<rate>
								<timebase>29</timebase>
								<ntsc>FALSE</ntsc>
							</rate>
							<duration>4115</duration>
							<timecode>
								<rate>
									<timebase>29</timebase>
									<ntsc>FALSE</ntsc>
								</rate>
								<string>00:00:00:00</string>
								<frame>0</frame>
								<displayformat>NDF</displayformat>
							</timecode>
							<media>
								<video>
									<samplecharacteristics>
										<rate>
											<timebase>29</timebase>
											<ntsc>FALSE</ntsc>
										</rate>
										<width>1920</width>
										<height>1080</height>
										<anamorphic>FALSE</anamorphic>
										<pixelaspectratio>square</pixelaspectratio>
										<fielddominance>none</fielddominance>
									</samplecharacteristics>
								</video>
								<audio>
									<samplecharacteristics>
										<depth>16</depth>
										<samplerate>44100</samplerate>
									</samplecharacteristics>
									<channelcount>2</channelcount>
								</audio>
							</media>
						</file>
						<link>
							<linkclipref>clipitem-85</linkclipref>
							<mediatype>video</mediatype>
							<trackindex>1</trackindex>
							<clipindex>1</clipindex>
						</link>
						<link>
							<linkclipref>clipitem-93</linkclipref>
							<mediatype>audio</mediatype>
							<trackindex>1</trackindex>
							<clipindex>1</clipindex>
							<groupindex>1</groupindex>
						</link>
						<link>
							<linkclipref>clipitem-101</linkclipref>
							<mediatype>audio</mediatype>
							<trackindex>2</trackindex>
							<clipindex>1</clipindex>
							<groupindex>1</groupindex>
						</link>
						<logginginfo>
							<description />
							<scene />
							<shottake />
							<lognote />
							<good />
							<originalvideofilename />
							<originalaudiofilename />
						</logginginfo>
						<colorinfo>
							<lut />
							<lut1 />
							<asc_sop />
							<asc_sat />
							<lut2 />
						</colorinfo>
					<labels><label2>Violet</label2></labels></clipitem>
					<clipitem id="clipitem-92">
						<masterclipid>clipitem-8-1</masterclipid>
						<name>Why_Travis_Kelce_Jokes_Taylor_Swift_Is_Going_to_KILL_Him.mp4</name>
						<enabled>TRUE</enabled>
						<duration>150</duration>
						<rate>
							<timebase>25</timebase>
							<ntsc>FALSE</ntsc>
						</rate>
						<start>8550</start>
						<end>8700</end>
						<in>0</in>
						<out>150</out>
						<pproTicksIn>0</pproTicksIn>
						<pproTicksOut>25249190400000</pproTicksOut>
						<alphatype>none</alphatype>
						<pixelaspectratio>square</pixelaspectratio>
						<anamorphic>FALSE</anamorphic>
						<file id="file-36">
							<name>Why_Travis_Kelce_Jokes_Taylor_Swift_Is_Going_to_KILL_Him.mp4</name>
							<pathurl>file://localhost/Users/themalikano/Documents/VideoAutomation/premiere_videos/Why_Travis_Kelce_Jokes_Taylor_Swift_Is_Going_to_KILL_Him.mp4</pathurl>
							<rate>
								<timebase>30</timebase>
								<ntsc>TRUE</ntsc>
							</rate>
							<duration>2980</duration>
							<timecode>
								<rate>
									<timebase>30</timebase>
									<ntsc>TRUE</ntsc>
								</rate>
								<string>00:00:00:00</string>
								<frame>0</frame>
								<displayformat>NDF</displayformat>
							</timecode>
							<media>
								<video>
									<samplecharacteristics>
										<rate>
											<timebase>30</timebase>
											<ntsc>TRUE</ntsc>
										</rate>
										<width>1920</width>
										<height>1080</height>
										<anamorphic>FALSE</anamorphic>
										<pixelaspectratio>square</pixelaspectratio>
										<fielddominance>none</fielddominance>
									</samplecharacteristics>
								</video>
								<audio>
									<samplecharacteristics>
										<depth>16</depth>
										<samplerate>44100</samplerate>
									</samplecharacteristics>
									<channelcount>2</channelcount>
								</audio>
							</media>
						</file>
						<link>
							<linkclipref>clipitem-92</linkclipref>
							<mediatype>video</mediatype>
							<trackindex>1</trackindex>
							<clipindex>8</clipindex>
						</link>
						<link>
							<linkclipref>clipitem-100</linkclipref>
							<mediatype>audio</mediatype>
							<trackindex>1</trackindex>
							<clipindex>8</clipindex>
							<groupindex>1</groupindex>
						</link>
						<link>
							<linkclipref>clipitem-108</linkclipref>
							<mediatype>audio</mediatype>
							<trackindex>2</trackindex>
							<clipindex>8</clipindex>
							<groupindex>1</groupindex>
						</link>
						<logginginfo>
							<description />
							<scene />
							<shottake />
							<lognote />
							<good />
							<originalvideofilename />
							<originalaudiofilename />
						</logginginfo>
						<colorinfo>
							<lut />
							<lut1 />
							<asc_sop />
							<asc_sat />
							<lut2 />
						</colorinfo>
					<labels><label2>Mango</label2></labels></clipitem>
					<clipitem id="clipitem-88">
						<masterclipid>clipitem-4-15</masterclipid>
						<name>Travis_Kelce_ANNOUNCE_WEDDING_DATE_with_Taylor_Swift_Why_He_was_Delaying_all_Along.mp4</name>
						<enabled>TRUE</enabled>
						<duration>150</duration>
						<rate>
							<timebase>25</timebase>
							<ntsc>FALSE</ntsc>
						</rate>
						<start>8700</start>
						<end>8850</end>
						<in>2100</in>
						<out>2250</out>
						<pproTicksIn>0</pproTicksIn>
						<pproTicksOut>419410897920000</pproTicksOut>
						<alphatype>none</alphatype>
						<pixelaspectratio>square</pixelaspectratio>
						<anamorphic>FALSE</anamorphic>
						<file id="file-32">
							<name>Travis_Kelce_ANNOUNCE_WEDDING_DATE_with_Taylor_Swift_Why_He_was_Delaying_all_Along.mp4</name>
							<pathurl>file://localhost/Users/themalikano/Documents/VideoAutomation/premiere_videos/Travis_Kelce_ANNOUNCE_WEDDING_DATE_with_Taylor_Swift_Why_He_was_Delaying_all_Along.mp4</pathurl>
							<rate>
								<timebase>24</timebase>
								<ntsc>FALSE</ntsc>
							</rate>
							<duration>39627</duration>
							<timecode>
								<rate>
									<timebase>24</timebase>
									<ntsc>FALSE</ntsc>
								</rate>
								<string>00:00:00:00</string>
								<frame>0</frame>
								<displayformat>NDF</displayformat>
							</timecode>
							<media>
								<video>
									<samplecharacteristics>
										<rate>
											<timebase>24</timebase>
											<ntsc>FALSE</ntsc>
										</rate>
										<width>852</width>
										<height>480</height>
										<anamorphic>FALSE</anamorphic>
										<pixelaspectratio>square</pixelaspectratio>
										<fielddominance>none</fielddominance>
									</samplecharacteristics>
								</video>
								<audio>
									<samplecharacteristics>
										<depth>16</depth>
										<samplerate>44100</samplerate>
									</samplecharacteristics>
									<channelcount>2</channelcount>
								</audio>
							</media>
						</file>
						<filter>
							<effect>
								<name>Basic Motion</name>
								<effectid>basic</effectid>
								<effectcategory>motion</effectcategory>
								<effecttype>motion</effecttype>
								<mediatype>video</mediatype>
								<pproBypass>false</pproBypass>
								<parameter authoringApp="PremierePro">
									<parameterid>scale</parameterid>
									<name>Scale</name>
									<valuemin>0</valuemin>
									<valuemax>1000</valuemax>
									<value>225</value>
								</parameter>
								<parameter authoringApp="PremierePro">
									<parameterid>rotation</parameterid>
									<name>Rotation</name>
									<valuemin>-8640</valuemin>
									<valuemax>8640</valuemax>
									<value>0</value>
								</parameter>
								<parameter authoringApp="PremierePro">
									<parameterid>center</parameterid>
									<name>Center</name>
									<value>
										<horiz>0</horiz>
										<vert>0</vert>
									</value>
								</parameter>
								<parameter authoringApp="PremierePro">
									<parameterid>centerOffset</parameterid>
									<name>Anchor Point</name>
									<value>
										<horiz>0</horiz>
										<vert>0</vert>
									</value>
								</parameter>
								<parameter authoringApp="PremierePro">
									<parameterid>antiflicker</parameterid>
									<name>Anti-flicker Filter</name>
									<valuemin>0.0</valuemin>
									<valuemax>1.0</valuemax>
									<value>0</value>
								</parameter>
							</effect>
						</filter>
						<link>
							<linkclipref>clipitem-88</linkclipref>
							<mediatype>video</mediatype>
							<trackindex>1</trackindex>
							<clipindex>4</clipindex>
						</link>
						<link>
							<linkclipref>clipitem-96</linkclipref>
							<mediatype>audio</mediatype>
							<trackindex>1</trackindex>
							<clipindex>4</clipindex>
							<groupindex>1</groupindex>
						</link>
						<link>
							<linkclipref>clipitem-104</linkclipref>
							<mediatype>audio</mediatype>
							<trackindex>2</trackindex>
							<clipindex>4</clipindex>
							<groupindex>1</groupindex>
						</link>
						<logginginfo>
							<description />
							<scene />
							<shottake />
							<lognote />
							<good />
							<originalvideofilename />
							<originalaudiofilename />
						</logginginfo>
						<colorinfo>
							<lut />
							<lut1 />
							<asc_sop />
							<asc_sat />
							<lut2 />
						</colorinfo>
					<labels><label2>Lavender</label2></labels></clipitem>
					<clipitem id="clipitem-90">
						<masterclipid>clipitem-6-77</masterclipid>
						<name>Travis_Kelce_talks_about_postponing_his_wedding_to_Fiance_Taylor_Swift_on_the_New_Heights_Podcast.mp4</name>
						<enabled>TRUE</enabled>
						<duration>150</duration>
						<rate>
							<timebase>25</timebase>
							<ntsc>FALSE</ntsc>
						</rate>
						<start>8850</start>
						<end>9000</end>
						<in>11400</in>
						<out>11550</out>
						<pproTicksIn>0</pproTicksIn>
						<pproTicksOut>149391889920000</pproTicksOut>
						<alphatype>none</alphatype>
						<pixelaspectratio>square</pixelaspectratio>
						<anamorphic>FALSE</anamorphic>
						<file id="file-34">
							<name>Travis_Kelce_talks_about_postponing_his_wedding_to_Fiance_Taylor_Swift_on_the_New_Heights_Podcast.mp4</name>
							<pathurl>file://localhost/Users/themalikano/Documents/VideoAutomation/premiere_videos/Travis_Kelce_talks_about_postponing_his_wedding_to_Fiance_Taylor_Swift_on_the_New_Heights_Podcast.mp4</pathurl>
							<rate>
								<timebase>30</timebase>
								<ntsc>FALSE</ntsc>
							</rate>
							<duration>17644</duration>
							<timecode>
								<rate>
									<timebase>30</timebase>
									<ntsc>FALSE</ntsc>
								</rate>
								<string>00:00:00:00</string>
								<frame>0</frame>
								<displayformat>NDF</displayformat>
							</timecode>
							<media>
								<video>
									<samplecharacteristics>
										<rate>
											<timebase>30</timebase>
											<ntsc>FALSE</ntsc>
										</rate>
										<width>1920</width>
										<height>1080</height>
										<anamorphic>FALSE</anamorphic>
										<pixelaspectratio>square</pixelaspectratio>
										<fielddominance>none</fielddominance>
									</samplecharacteristics>
								</video>
								<audio>
									<samplecharacteristics>
										<depth>16</depth>
										<samplerate>44100</samplerate>
									</samplecharacteristics>
									<channelcount>2</channelcount>
								</audio>
							</media>
						</file>
						<link>
							<linkclipref>clipitem-90</linkclipref>
							<mediatype>video</mediatype>
							<trackindex>1</trackindex>
							<clipindex>6</clipindex>
						</link>
						<link>
							<linkclipref>clipitem-98</linkclipref>
							<mediatype>audio</mediatype>
							<trackindex>1</trackindex>
							<clipindex>6</clipindex>
							<groupindex>1</groupindex>
						</link>
						<link>
							<linkclipref>clipitem-106</linkclipref>
							<mediatype>audio</mediatype>
							<trackindex>2</trackindex>
							<clipindex>6</clipindex>
							<groupindex>1</groupindex>
						</link>
						<logginginfo>
							<description />
							<scene />
							<shottake />
							<lognote />
							<good />
							<originalvideofilename />
							<originalaudiofilename />
						</logginginfo>
						<colorinfo>
							<lut />
							<lut1 />
							<asc_sop />
							<asc_sat />
							<lut2 />
						</colorinfo>
					<labels><label2>Forest</label2></labels></clipitem>
					<clipitem id="clipitem-87">
						<masterclipid>clipitem-3-511</masterclipid>
						<name>Taylor_Swift_Travis_Kelce_-_The_New_Power_Couple.mp4</name>
						<enabled>TRUE</enabled>
						<duration>150</duration>
						<rate>
							<timebase>25</timebase>
							<ntsc>FALSE</ntsc>
						</rate>
						<start>9000</start>
						<end>9150</end>
						<in>76500</in>
						<out>76650</out>
						<pproTicksIn>0</pproTicksIn>
						<pproTicksOut>875013995520000</pproTicksOut>
						<alphatype>none</alphatype>
						<pixelaspectratio>square</pixelaspectratio>
						<anamorphic>FALSE</anamorphic>
						<file id="file-31">
							<name>Taylor_Swift_Travis_Kelce_-_The_New_Power_Couple.mp4</name>
							<pathurl>file://localhost/Users/themalikano/Documents/VideoAutomation/premiere_videos/Taylor_Swift_Travis_Kelce_-_The_New_Power_Couple.mp4</pathurl>
							<rate>
								<timebase>25</timebase>
								<ntsc>FALSE</ntsc>
							</rate>
							<duration>86118</duration>
							<timecode>
								<rate>
									<timebase>25</timebase>
									<ntsc>FALSE</ntsc>
								</rate>
								<string>00:00:00:00</string>
								<frame>0</frame>
								<displayformat>NDF</displayformat>
							</timecode>
							<media>
								<video>
									<samplecharacteristics>
										<rate>
											<timebase>25</timebase>
											<ntsc>FALSE</ntsc>
										</rate>
										<width>1920</width>
										<height>1080</height>
										<anamorphic>FALSE</anamorphic>
										<pixelaspectratio>square</pixelaspectratio>
										<fielddominance>none</fielddominance>
									</samplecharacteristics>
								</video>
								<audio>
									<samplecharacteristics>
										<depth>16</depth>
										<samplerate>44100</samplerate>
									</samplecharacteristics>
									<channelcount>2</channelcount>
								</audio>
							</media>
						</file>
						<link>
							<linkclipref>clipitem-87</linkclipref>
							<mediatype>video</mediatype>
							<trackindex>1</trackindex>
							<clipindex>3</clipindex>
						</link>
						<link>
							<linkclipref>clipitem-95</linkclipref>
							<mediatype>audio</mediatype>
							<trackindex>1</trackindex>
							<clipindex>3</clipindex>
							<groupindex>1</groupindex>
						</link>
						<link>
							<linkclipref>clipitem-103</linkclipref>
							<mediatype>audio</mediatype>
							<trackindex>2</trackindex>
							<clipindex>3</clipindex>
							<groupindex>1</groupindex>
						</link>
						<logginginfo>
							<description />
							<scene />
							<shottake />
							<lognote />
							<good />
							<originalvideofilename />
							<originalaudiofilename />
						</logginginfo>
						<colorinfo>
							<lut />
							<lut1 />
							<asc_sop />
							<asc_sat />
							<lut2 />
						</colorinfo>
					<labels><label2>Caribbean</label2></labels></clipitem>
					<clipitem id="clipitem-92">
						<masterclipid>clipitem-8-8</masterclipid>
						<name>Why_Travis_Kelce_Jokes_Taylor_Swift_Is_Going_to_KILL_Him.mp4</name>
						<enabled>TRUE</enabled>
						<duration>150</duration>
						<rate>
							<timebase>25</timebase>
							<ntsc>FALSE</ntsc>
						</rate>
						<start>9150</start>
						<end>9300</end>
						<in>1050</in>
						<out>1200</out>
						<pproTicksIn>0</pproTicksIn>
						<pproTicksOut>25249190400000</pproTicksOut>
						<alphatype>none</alphatype>
						<pixelaspectratio>square</pixelaspectratio>
						<anamorphic>FALSE</anamorphic>
						<file id="file-36">
							<name>Why_Travis_Kelce_Jokes_Taylor_Swift_Is_Going_to_KILL_Him.mp4</name>
							<pathurl>file://localhost/Users/themalikano/Documents/VideoAutomation/premiere_videos/Why_Travis_Kelce_Jokes_Taylor_Swift_Is_Going_to_KILL_Him.mp4</pathurl>
							<rate>
								<timebase>30</timebase>
								<ntsc>TRUE</ntsc>
							</rate>
							<duration>2980</duration>
							<timecode>
								<rate>
									<timebase>30</timebase>
									<ntsc>TRUE</ntsc>
								</rate>
								<string>00:00:00:00</string>
								<frame>0</frame>
								<displayformat>NDF</displayformat>
							</timecode>
							<media>
								<video>
									<samplecharacteristics>
										<rate>
											<timebase>30</timebase>
											<ntsc>TRUE</ntsc>
										</rate>
										<width>1920</width>
										<height>1080</height>
										<anamorphic>FALSE</anamorphic>
										<pixelaspectratio>square</pixelaspectratio>
										<fielddominance>none</fielddominance>
									</samplecharacteristics>
								</video>
								<audio>
									<samplecharacteristics>
										<depth>16</depth>
										<samplerate>44100</samplerate>
									</samplecharacteristics>
									<channelcount>2</channelcount>
								</audio>
							</media>
						</file>
						<link>
							<linkclipref>clipitem-92</linkclipref>
							<mediatype>video</mediatype>
							<trackindex>1</trackindex>
							<clipindex>8</clipindex>
						</link>
						<link>
							<linkclipref>clipitem-100</linkclipref>
							<mediatype>audio</mediatype>
							<trackindex>1</trackindex>
							<clipindex>8</clipindex>
							<groupindex>1</groupindex>
						</link>
						<link>
							<linkclipref>clipitem-108</linkclipref>
							<mediatype>audio</mediatype>
							<trackindex>2</trackindex>
							<clipindex>8</clipindex>
							<groupindex>1</groupindex>
						</link>
						<logginginfo>
							<description />
							<scene />
							<shottake />
							<lognote />
							<good />
							<originalvideofilename />
							<originalaudiofilename />
						</logginginfo>
						<colorinfo>
							<lut />
							<lut1 />
							<asc_sop />
							<asc_sat />
							<lut2 />
						</colorinfo>
					<labels><label2>Mango</label2></labels></clipitem>
					<clipitem id="clipitem-85">
						<masterclipid>clipitem-1-6</masterclipid>
						<name>Taylor_Swift_Reveals_What_Fiance_Travis_Kelce_Said_Before_Proposal_E_News.mp4</name>
						<enabled>TRUE</enabled>
						<duration>150</duration>
						<rate>
							<timebase>25</timebase>
							<ntsc>FALSE</ntsc>
						</rate>
						<start>9300</start>
						<end>9450</end>
						<in>750</in>
						<out>900</out>
						<pproTicksIn>0</pproTicksIn>
						<pproTicksOut>36039790080000</pproTicksOut>
						<alphatype>none</alphatype>
						<pixelaspectratio>square</pixelaspectratio>
						<anamorphic>FALSE</anamorphic>
						<file id="file-29">
							<name>Taylor_Swift_Reveals_What_Fiance_Travis_Kelce_Said_Before_Proposal_E_News.mp4</name>
							<pathurl>file://localhost/Users/themalikano/Documents/VideoAutomation/premiere_videos/Taylor_Swift_Reveals_What_Fiance_Travis_Kelce_Said_Before_Proposal_E_News.mp4</pathurl>
							<rate>
								<timebase>29</timebase>
								<ntsc>FALSE</ntsc>
							</rate>
							<duration>4115</duration>
							<timecode>
								<rate>
									<timebase>29</timebase>
									<ntsc>FALSE</ntsc>
								</rate>
								<string>00:00:00:00</string>
								<frame>0</frame>
								<displayformat>NDF</displayformat>
							</timecode>
							<media>
								<video>
									<samplecharacteristics>
										<rate>
											<timebase>29</timebase>
											<ntsc>FALSE</ntsc>
										</rate>
										<width>1920</width>
										<height>1080</height>
										<anamorphic>FALSE</anamorphic>
										<pixelaspectratio>square</pixelaspectratio>
										<fielddominance>none</fielddominance>
									</samplecharacteristics>
								</video>
								<audio>
									<samplecharacteristics>
										<depth>16</depth>
										<samplerate>44100</samplerate>
									</samplecharacteristics>
									<channelcount>2</channelcount>
								</audio>
							</media>
						</file>
						<link>
							<linkclipref>clipitem-85</linkclipref>
							<mediatype>video</mediatype>
							<trackindex>1</trackindex>
							<clipindex>1</clipindex>
						</link>
						<link>
							<linkclipref>clipitem-93</linkclipref>
							<mediatype>audio</mediatype>
							<trackindex>1</trackindex>
							<clipindex>1</clipindex>
							<groupindex>1</groupindex>
						</link>
						<link>
							<linkclipref>clipitem-101</linkclipref>
							<mediatype>audio</mediatype>
							<trackindex>2</trackindex>
							<clipindex>1</clipindex>
							<groupindex>1</groupindex>
						</link>
						<logginginfo>
							<description />
							<scene />
							<shottake />
							<lognote />
							<good />
							<originalvideofilename />
							<originalaudiofilename />
						</logginginfo>
						<colorinfo>
							<lut />
							<lut1 />
							<asc_sop />
							<asc_sat />
							<lut2 />
						</colorinfo>
					<labels><label2>Violet</label2></labels></clipitem>
					<clipitem id="clipitem-88">
						<masterclipid>clipitem-4-105</masterclipid>
						<name>Travis_Kelce_ANNOUNCE_WEDDING_DATE_with_Taylor_Swift_Why_He_was_Delaying_all_Along.mp4</name>
						<enabled>TRUE</enabled>
						<duration>150</duration>
						<rate>
							<timebase>25</timebase>
							<ntsc>FALSE</ntsc>
						</rate>
						<start>9450</start>
						<end>9600</end>
						<in>15600</in>
						<out>15750</out>
						<pproTicksIn>0</pproTicksIn>
						<pproTicksOut>419410897920000</pproTicksOut>
						<alphatype>none</alphatype>
						<pixelaspectratio>square</pixelaspectratio>
						<anamorphic>FALSE</anamorphic>
						<file id="file-32">
							<name>Travis_Kelce_ANNOUNCE_WEDDING_DATE_with_Taylor_Swift_Why_He_was_Delaying_all_Along.mp4</name>
							<pathurl>file://localhost/Users/themalikano/Documents/VideoAutomation/premiere_videos/Travis_Kelce_ANNOUNCE_WEDDING_DATE_with_Taylor_Swift_Why_He_was_Delaying_all_Along.mp4</pathurl>
							<rate>
								<timebase>24</timebase>
								<ntsc>FALSE</ntsc>
							</rate>
							<duration>39627</duration>
							<timecode>
								<rate>
									<timebase>24</timebase>
									<ntsc>FALSE</ntsc>
								</rate>
								<string>00:00:00:00</string>
								<frame>0</frame>
								<displayformat>NDF</displayformat>
							</timecode>
							<media>
								<video>
									<samplecharacteristics>
										<rate>
											<timebase>24</timebase>
											<ntsc>FALSE</ntsc>
										</rate>
										<width>852</width>
										<height>480</height>
										<anamorphic>FALSE</anamorphic>
										<pixelaspectratio>square</pixelaspectratio>
										<fielddominance>none</fielddominance>
									</samplecharacteristics>
								</video>
								<audio>
									<samplecharacteristics>
										<depth>16</depth>
										<samplerate>44100</samplerate>
									</samplecharacteristics>
									<channelcount>2</channelcount>
								</audio>
							</media>
						</file>
						<filter>
							<effect>
								<name>Basic Motion</name>
								<effectid>basic</effectid>
								<effectcategory>motion</effectcategory>
								<effecttype>motion</effecttype>
								<mediatype>video</mediatype>
								<pproBypass>false</pproBypass>
								<parameter authoringApp="PremierePro">
									<parameterid>scale</parameterid>
									<name>Scale</name>
									<valuemin>0</valuemin>
									<valuemax>1000</valuemax>
									<value>225</value>
								</parameter>
								<parameter authoringApp="PremierePro">
									<parameterid>rotation</parameterid>
									<name>Rotation</name>
									<valuemin>-8640</valuemin>
									<valuemax>8640</valuemax>
									<value>0</value>
								</parameter>
								<parameter authoringApp="PremierePro">
									<parameterid>center</parameterid>
									<name>Center</name>
									<value>
										<horiz>0</horiz>
										<vert>0</vert>
									</value>
								</parameter>
								<parameter authoringApp="PremierePro">
									<parameterid>centerOffset</parameterid>
									<name>Anchor Point</name>
									<value>
										<horiz>0</horiz>
										<vert>0</vert>
									</value>
								</parameter>
								<parameter authoringApp="PremierePro">
									<parameterid>antiflicker</parameterid>
									<name>Anti-flicker Filter</name>
									<valuemin>0.0</valuemin>
									<valuemax>1.0</valuemax>
									<value>0</value>
								</parameter>
							</effect>
						</filter>
						<link>
							<linkclipref>clipitem-88</linkclipref>
							<mediatype>video</mediatype>
							<trackindex>1</trackindex>
							<clipindex>4</clipindex>
						</link>
						<link>
							<linkclipref>clipitem-96</linkclipref>
							<mediatype>audio</mediatype>
							<trackindex>1</trackindex>
							<clipindex>4</clipindex>
							<groupindex>1</groupindex>
						</link>
						<link>
							<linkclipref>clipitem-104</linkclipref>
							<mediatype>audio</mediatype>
							<trackindex>2</trackindex>
							<clipindex>4</clipindex>
							<groupindex>1</groupindex>
						</link>
						<logginginfo>
							<description />
							<scene />
							<shottake />
							<lognote />
							<good />
							<originalvideofilename />
							<originalaudiofilename />
						</logginginfo>
						<colorinfo>
							<lut />
							<lut1 />
							<asc_sop />
							<asc_sat />
							<lut2 />
						</colorinfo>
					<labels><label2>Lavender</label2></labels></clipitem>
					<clipitem id="clipitem-87">
						<masterclipid>clipitem-3-374</masterclipid>
						<name>Taylor_Swift_Travis_Kelce_-_The_New_Power_Couple.mp4</name>
						<enabled>TRUE</enabled>
						<duration>150</duration>
						<rate>
							<timebase>25</timebase>
							<ntsc>FALSE</ntsc>
						</rate>
						<start>9600</start>
						<end>9750</end>
						<in>55950</in>
						<out>56100</out>
						<pproTicksIn>0</pproTicksIn>
						<pproTicksOut>875013995520000</pproTicksOut>
						<alphatype>none</alphatype>
						<pixelaspectratio>square</pixelaspectratio>
						<anamorphic>FALSE</anamorphic>
						<file id="file-31">
							<name>Taylor_Swift_Travis_Kelce_-_The_New_Power_Couple.mp4</name>
							<pathurl>file://localhost/Users/themalikano/Documents/VideoAutomation/premiere_videos/Taylor_Swift_Travis_Kelce_-_The_New_Power_Couple.mp4</pathurl>
							<rate>
								<timebase>25</timebase>
								<ntsc>FALSE</ntsc>
							</rate>
							<duration>86118</duration>
							<timecode>
								<rate>
									<timebase>25</timebase>
									<ntsc>FALSE</ntsc>
								</rate>
								<string>00:00:00:00</string>
								<frame>0</frame>
								<displayformat>NDF</displayformat>
							</timecode>
							<media>
								<video>
									<samplecharacteristics>
										<rate>
											<timebase>25</timebase>
											<ntsc>FALSE</ntsc>
										</rate>
										<width>1920</width>
										<height>1080</height>
										<anamorphic>FALSE</anamorphic>
										<pixelaspectratio>square</pixelaspectratio>
										<fielddominance>none</fielddominance>
									</samplecharacteristics>
								</video>
								<audio>
									<samplecharacteristics>
										<depth>16</depth>
										<samplerate>44100</samplerate>
									</samplecharacteristics>
									<channelcount>2</channelcount>
								</audio>
							</media>
						</file>
						<link>
							<linkclipref>clipitem-87</linkclipref>
							<mediatype>video</mediatype>
							<trackindex>1</trackindex>
							<clipindex>3</clipindex>
						</link>
						<link>
							<linkclipref>clipitem-95</linkclipref>
							<mediatype>audio</mediatype>
							<trackindex>1</trackindex>
							<clipindex>3</clipindex>
							<groupindex>1</groupindex>
						</link>
						<link>
							<linkclipref>clipitem-103</linkclipref>
							<mediatype>audio</mediatype>
							<trackindex>2</trackindex>
							<clipindex>3</clipindex>
							<groupindex>1</groupindex>
						</link>
						<logginginfo>
							<description />
							<scene />
							<shottake />
							<lognote />
							<good />
							<originalvideofilename />
							<originalaudiofilename />
						</logginginfo>
						<colorinfo>
							<lut />
							<lut1 />
							<asc_sop />
							<asc_sat />
							<lut2 />
						</colorinfo>
					<labels><label2>Caribbean</label2></labels></clipitem>
					<clipitem id="clipitem-85">
						<masterclipid>clipitem-1-2</masterclipid>
						<name>Taylor_Swift_Reveals_What_Fiance_Travis_Kelce_Said_Before_Proposal_E_News.mp4</name>
						<enabled>TRUE</enabled>
						<duration>150</duration>
						<rate>
							<timebase>25</timebase>
							<ntsc>FALSE</ntsc>
						</rate>
						<start>9750</start>
						<end>9900</end>
						<in>150</in>
						<out>300</out>
						<pproTicksIn>0</pproTicksIn>
						<pproTicksOut>36039790080000</pproTicksOut>
						<alphatype>none</alphatype>
						<pixelaspectratio>square</pixelaspectratio>
						<anamorphic>FALSE</anamorphic>
						<file id="file-29">
							<name>Taylor_Swift_Reveals_What_Fiance_Travis_Kelce_Said_Before_Proposal_E_News.mp4</name>
							<pathurl>file://localhost/Users/themalikano/Documents/VideoAutomation/premiere_videos/Taylor_Swift_Reveals_What_Fiance_Travis_Kelce_Said_Before_Proposal_E_News.mp4</pathurl>
							<rate>
								<timebase>29</timebase>
								<ntsc>FALSE</ntsc>
							</rate>
							<duration>4115</duration>
							<timecode>
								<rate>
									<timebase>29</timebase>
									<ntsc>FALSE</ntsc>
								</rate>
								<string>00:00:00:00</string>
								<frame>0</frame>
								<displayformat>NDF</displayformat>
							</timecode>
							<media>
								<video>
									<samplecharacteristics>
										<rate>
											<timebase>29</timebase>
											<ntsc>FALSE</ntsc>
										</rate>
										<width>1920</width>
										<height>1080</height>
										<anamorphic>FALSE</anamorphic>
										<pixelaspectratio>square</pixelaspectratio>
										<fielddominance>none</fielddominance>
									</samplecharacteristics>
								</video>
								<audio>
									<samplecharacteristics>
										<depth>16</depth>
										<samplerate>44100</samplerate>
									</samplecharacteristics>
									<channelcount>2</channelcount>
								</audio>
							</media>
						</file>
						<link>
							<linkclipref>clipitem-85</linkclipref>
							<mediatype>video</mediatype>
							<trackindex>1</trackindex>
							<clipindex>1</clipindex>
						</link>
						<link>
							<linkclipref>clipitem-93</linkclipref>
							<mediatype>audio</mediatype>
							<trackindex>1</trackindex>
							<clipindex>1</clipindex>
							<groupindex>1</groupindex>
						</link>
						<link>
							<linkclipref>clipitem-101</linkclipref>
							<mediatype>audio</mediatype>
							<trackindex>2</trackindex>
							<clipindex>1</clipindex>
							<groupindex>1</groupindex>
						</link>
						<logginginfo>
							<description />
							<scene />
							<shottake />
							<lognote />
							<good />
							<originalvideofilename />
							<originalaudiofilename />
						</logginginfo>
						<colorinfo>
							<lut />
							<lut1 />
							<asc_sop />
							<asc_sat />
							<lut2 />
						</colorinfo>
					<labels><label2>Violet</label2></labels></clipitem>
					<clipitem id="clipitem-87">
						<masterclipid>clipitem-3-47</masterclipid>
						<name>Taylor_Swift_Travis_Kelce_-_The_New_Power_Couple.mp4</name>
						<enabled>TRUE</enabled>
						<duration>150</duration>
						<rate>
							<timebase>25</timebase>
							<ntsc>FALSE</ntsc>
						</rate>
						<start>9900</start>
						<end>10050</end>
						<in>6900</in>
						<out>7050</out>
						<pproTicksIn>0</pproTicksIn>
						<pproTicksOut>875013995520000</pproTicksOut>
						<alphatype>none</alphatype>
						<pixelaspectratio>square</pixelaspectratio>
						<anamorphic>FALSE</anamorphic>
						<file id="file-31">
							<name>Taylor_Swift_Travis_Kelce_-_The_New_Power_Couple.mp4</name>
							<pathurl>file://localhost/Users/themalikano/Documents/VideoAutomation/premiere_videos/Taylor_Swift_Travis_Kelce_-_The_New_Power_Couple.mp4</pathurl>
							<rate>
								<timebase>25</timebase>
								<ntsc>FALSE</ntsc>
							</rate>
							<duration>86118</duration>
							<timecode>
								<rate>
									<timebase>25</timebase>
									<ntsc>FALSE</ntsc>
								</rate>
								<string>00:00:00:00</string>
								<frame>0</frame>
								<displayformat>NDF</displayformat>
							</timecode>
							<media>
								<video>
									<samplecharacteristics>
										<rate>
											<timebase>25</timebase>
											<ntsc>FALSE</ntsc>
										</rate>
										<width>1920</width>
										<height>1080</height>
										<anamorphic>FALSE</anamorphic>
										<pixelaspectratio>square</pixelaspectratio>
										<fielddominance>none</fielddominance>
									</samplecharacteristics>
								</video>
								<audio>
									<samplecharacteristics>
										<depth>16</depth>
										<samplerate>44100</samplerate>
									</samplecharacteristics>
									<channelcount>2</channelcount>
								</audio>
							</media>
						</file>
						<link>
							<linkclipref>clipitem-87</linkclipref>
							<mediatype>video</mediatype>
							<trackindex>1</trackindex>
							<clipindex>3</clipindex>
						</link>
						<link>
							<linkclipref>clipitem-95</linkclipref>
							<mediatype>audio</mediatype>
							<trackindex>1</trackindex>
							<clipindex>3</clipindex>
							<groupindex>1</groupindex>
						</link>
						<link>
							<linkclipref>clipitem-103</linkclipref>
							<mediatype>audio</mediatype>
							<trackindex>2</trackindex>
							<clipindex>3</clipindex>
							<groupindex>1</groupindex>
						</link>
						<logginginfo>
							<description />
							<scene />
							<shottake />
							<lognote />
							<good />
							<originalvideofilename />
							<originalaudiofilename />
						</logginginfo>
						<colorinfo>
							<lut />
							<lut1 />
							<asc_sop />
							<asc_sat />
							<lut2 />
						</colorinfo>
					<labels><label2>Caribbean</label2></labels></clipitem>
					<clipitem id="clipitem-89">
						<masterclipid>clipitem-5-1</masterclipid>
						<name>Travis_Kelce_s_appearance_on_The_Eras_Tour_during_I_Can_Do_It_With_A_Broken_Heart_in_London.mp4</name>
						<enabled>TRUE</enabled>
						<duration>150</duration>
						<rate>
							<timebase>25</timebase>
							<ntsc>FALSE</ntsc>
						</rate>
						<start>10050</start>
						<end>10200</end>
						<in>0</in>
						<out>150</out>
						<pproTicksIn>0</pproTicksIn>
						<pproTicksOut>27525173760000</pproTicksOut>
						<alphatype>none</alphatype>
						<pixelaspectratio>square</pixelaspectratio>
						<anamorphic>FALSE</anamorphic>
						<file id="file-33">
							<name>Travis_Kelce_s_appearance_on_The_Eras_Tour_during_I_Can_Do_It_With_A_Broken_Heart_in_London.mp4</name>
							<pathurl>file://localhost/Users/themalikano/Documents/VideoAutomation/premiere_videos/Travis_Kelce_s_appearance_on_The_Eras_Tour_during_I_Can_Do_It_With_A_Broken_Heart_in_London.mp4</pathurl>
							<rate>
								<timebase>24</timebase>
								<ntsc>TRUE</ntsc>
							</rate>
							<duration>2599</duration>
							<timecode>
								<rate>
									<timebase>24</timebase>
									<ntsc>TRUE</ntsc>
								</rate>
								<string>00:00:00:00</string>
								<frame>0</frame>
								<displayformat>NDF</displayformat>
							</timecode>
							<media>
								<video>
									<samplecharacteristics>
										<rate>
											<timebase>24</timebase>
											<ntsc>TRUE</ntsc>
										</rate>
										<width>1920</width>
										<height>1080</height>
										<anamorphic>FALSE</anamorphic>
										<pixelaspectratio>square</pixelaspectratio>
										<fielddominance>none</fielddominance>
									</samplecharacteristics>
								</video>
								<audio>
									<samplecharacteristics>
										<depth>16</depth>
										<samplerate>44100</samplerate>
									</samplecharacteristics>
									<channelcount>2</channelcount>
								</audio>
							</media>
						</file>
						<link>
							<linkclipref>clipitem-89</linkclipref>
							<mediatype>video</mediatype>
							<trackindex>1</trackindex>
							<clipindex>5</clipindex>
						</link>
						<link>
							<linkclipref>clipitem-97</linkclipref>
							<mediatype>audio</mediatype>
							<trackindex>1</trackindex>
							<clipindex>5</clipindex>
							<groupindex>1</groupindex>
						</link>
						<link>
							<linkclipref>clipitem-105</linkclipref>
							<mediatype>audio</mediatype>
							<trackindex>2</trackindex>
							<clipindex>5</clipindex>
							<groupindex>1</groupindex>
						</link>
						<logginginfo>
							<description />
							<scene />
							<shottake />
							<lognote />
							<good />
							<originalvideofilename />
							<originalaudiofilename />
						</logginginfo>
						<colorinfo>
							<lut />
							<lut1 />
							<asc_sop />
							<asc_sat />
							<lut2 />
						</colorinfo>
					<labels><label2>Cerulean</label2></labels></clipitem>
					<clipitem id="clipitem-88">
						<masterclipid>clipitem-4-164</masterclipid>
						<name>Travis_Kelce_ANNOUNCE_WEDDING_DATE_with_Taylor_Swift_Why_He_was_Delaying_all_Along.mp4</name>
						<enabled>TRUE</enabled>
						<duration>150</duration>
						<rate>
							<timebase>25</timebase>
							<ntsc>FALSE</ntsc>
						</rate>
						<start>10200</start>
						<end>10350</end>
						<in>24450</in>
						<out>24600</out>
						<pproTicksIn>0</pproTicksIn>
						<pproTicksOut>419410897920000</pproTicksOut>
						<alphatype>none</alphatype>
						<pixelaspectratio>square</pixelaspectratio>
						<anamorphic>FALSE</anamorphic>
						<file id="file-32">
							<name>Travis_Kelce_ANNOUNCE_WEDDING_DATE_with_Taylor_Swift_Why_He_was_Delaying_all_Along.mp4</name>
							<pathurl>file://localhost/Users/themalikano/Documents/VideoAutomation/premiere_videos/Travis_Kelce_ANNOUNCE_WEDDING_DATE_with_Taylor_Swift_Why_He_was_Delaying_all_Along.mp4</pathurl>
							<rate>
								<timebase>24</timebase>
								<ntsc>FALSE</ntsc>
							</rate>
							<duration>39627</duration>
							<timecode>
								<rate>
									<timebase>24</timebase>
									<ntsc>FALSE</ntsc>
								</rate>
								<string>00:00:00:00</string>
								<frame>0</frame>
								<displayformat>NDF</displayformat>
							</timecode>
							<media>
								<video>
									<samplecharacteristics>
										<rate>
											<timebase>24</timebase>
											<ntsc>FALSE</ntsc>
										</rate>
										<width>852</width>
										<height>480</height>
										<anamorphic>FALSE</anamorphic>
										<pixelaspectratio>square</pixelaspectratio>
										<fielddominance>none</fielddominance>
									</samplecharacteristics>
								</video>
								<audio>
									<samplecharacteristics>
										<depth>16</depth>
										<samplerate>44100</samplerate>
									</samplecharacteristics>
									<channelcount>2</channelcount>
								</audio>
							</media>
						</file>
						<filter>
							<effect>
								<name>Basic Motion</name>
								<effectid>basic</effectid>
								<effectcategory>motion</effectcategory>
								<effecttype>motion</effecttype>
								<mediatype>video</mediatype>
								<pproBypass>false</pproBypass>
								<parameter authoringApp="PremierePro">
									<parameterid>scale</parameterid>
									<name>Scale</name>
									<valuemin>0</valuemin>
									<valuemax>1000</valuemax>
									<value>225</value>
								</parameter>
								<parameter authoringApp="PremierePro">
									<parameterid>rotation</parameterid>
									<name>Rotation</name>
									<valuemin>-8640</valuemin>
									<valuemax>8640</valuemax>
									<value>0</value>
								</parameter>
								<parameter authoringApp="PremierePro">
									<parameterid>center</parameterid>
									<name>Center</name>
									<value>
										<horiz>0</horiz>
										<vert>0</vert>
									</value>
								</parameter>
								<parameter authoringApp="PremierePro">
									<parameterid>centerOffset</parameterid>
									<name>Anchor Point</name>
									<value>
										<horiz>0</horiz>
										<vert>0</vert>
									</value>
								</parameter>
								<parameter authoringApp="PremierePro">
									<parameterid>antiflicker</parameterid>
									<name>Anti-flicker Filter</name>
									<valuemin>0.0</valuemin>
									<valuemax>1.0</valuemax>
									<value>0</value>
								</parameter>
							</effect>
						</filter>
						<link>
							<linkclipref>clipitem-88</linkclipref>
							<mediatype>video</mediatype>
							<trackindex>1</trackindex>
							<clipindex>4</clipindex>
						</link>
						<link>
							<linkclipref>clipitem-96</linkclipref>
							<mediatype>audio</mediatype>
							<trackindex>1</trackindex>
							<clipindex>4</clipindex>
							<groupindex>1</groupindex>
						</link>
						<link>
							<linkclipref>clipitem-104</linkclipref>
							<mediatype>audio</mediatype>
							<trackindex>2</trackindex>
							<clipindex>4</clipindex>
							<groupindex>1</groupindex>
						</link>
						<logginginfo>
							<description />
							<scene />
							<shottake />
							<lognote />
							<good />
							<originalvideofilename />
							<originalaudiofilename />
						</logginginfo>
						<colorinfo>
							<lut />
							<lut1 />
							<asc_sop />
							<asc_sat />
							<lut2 />
						</colorinfo>
					<labels><label2>Lavender</label2></labels></clipitem>
					<clipitem id="clipitem-87">
						<masterclipid>clipitem-3-500</masterclipid>
						<name>Taylor_Swift_Travis_Kelce_-_The_New_Power_Couple.mp4</name>
						<enabled>TRUE</enabled>
						<duration>150</duration>
						<rate>
							<timebase>25</timebase>
							<ntsc>FALSE</ntsc>
						</rate>
						<start>10350</start>
						<end>10500</end>
						<in>74850</in>
						<out>75000</out>
						<pproTicksIn>0</pproTicksIn>
						<pproTicksOut>875013995520000</pproTicksOut>
						<alphatype>none</alphatype>
						<pixelaspectratio>square</pixelaspectratio>
						<anamorphic>FALSE</anamorphic>
						<file id="file-31">
							<name>Taylor_Swift_Travis_Kelce_-_The_New_Power_Couple.mp4</name>
							<pathurl>file://localhost/Users/themalikano/Documents/VideoAutomation/premiere_videos/Taylor_Swift_Travis_Kelce_-_The_New_Power_Couple.mp4</pathurl>
							<rate>
								<timebase>25</timebase>
								<ntsc>FALSE</ntsc>
							</rate>
							<duration>86118</duration>
							<timecode>
								<rate>
									<timebase>25</timebase>
									<ntsc>FALSE</ntsc>
								</rate>
								<string>00:00:00:00</string>
								<frame>0</frame>
								<displayformat>NDF</displayformat>
							</timecode>
							<media>
								<video>
									<samplecharacteristics>
										<rate>
											<timebase>25</timebase>
											<ntsc>FALSE</ntsc>
										</rate>
										<width>1920</width>
										<height>1080</height>
										<anamorphic>FALSE</anamorphic>
										<pixelaspectratio>square</pixelaspectratio>
										<fielddominance>none</fielddominance>
									</samplecharacteristics>
								</video>
								<audio>
									<samplecharacteristics>
										<depth>16</depth>
										<samplerate>44100</samplerate>
									</samplecharacteristics>
									<channelcount>2</channelcount>
								</audio>
							</media>
						</file>
						<link>
							<linkclipref>clipitem-87</linkclipref>
							<mediatype>video</mediatype>
							<trackindex>1</trackindex>
							<clipindex>3</clipindex>
						</link>
						<link>
							<linkclipref>clipitem-95</linkclipref>
							<mediatype>audio</mediatype>
							<trackindex>1</trackindex>
							<clipindex>3</clipindex>
							<groupindex>1</groupindex>
						</link>
						<link>
							<linkclipref>clipitem-103</linkclipref>
							<mediatype>audio</mediatype>
							<trackindex>2</trackindex>
							<clipindex>3</clipindex>
							<groupindex>1</groupindex>
						</link>
						<logginginfo>
							<description />
							<scene />
							<shottake />
							<lognote />
							<good />
							<originalvideofilename />
							<originalaudiofilename />
						</logginginfo>
						<colorinfo>
							<lut />
							<lut1 />
							<asc_sop />
							<asc_sat />
							<lut2 />
						</colorinfo>
					<labels><label2>Caribbean</label2></labels></clipitem>
					<clipitem id="clipitem-91">
						<masterclipid>clipitem-7-25</masterclipid>
						<name>What_Caused_Taylor_Swift-Blake_Lively_Rift_The_View.mp4</name>
						<enabled>TRUE</enabled>
						<duration>150</duration>
						<rate>
							<timebase>25</timebase>
							<ntsc>FALSE</ntsc>
						</rate>
						<start>10500</start>
						<end>10650</end>
						<in>3600</in>
						<out>3750</out>
						<pproTicksIn>0</pproTicksIn>
						<pproTicksOut>45733040640000</pproTicksOut>
						<alphatype>none</alphatype>
						<pixelaspectratio>square</pixelaspectratio>
						<anamorphic>FALSE</anamorphic>
						<file id="file-35">
							<name>What_Caused_Taylor_Swift-Blake_Lively_Rift_The_View.mp4</name>
							<pathurl>file://localhost/Users/themalikano/Documents/VideoAutomation/premiere_videos/What_Caused_Taylor_Swift-Blake_Lively_Rift_The_View.mp4</pathurl>
							<rate>
								<timebase>30</timebase>
								<ntsc>TRUE</ntsc>
							</rate>
							<duration>5397</duration>
							<timecode>
								<rate>
									<timebase>30</timebase>
									<ntsc>TRUE</ntsc>
								</rate>
								<string>00:00:00:00</string>
								<frame>0</frame>
								<displayformat>NDF</displayformat>
							</timecode>
							<media>
								<video>
									<samplecharacteristics>
										<rate>
											<timebase>30</timebase>
											<ntsc>TRUE</ntsc>
										</rate>
										<width>1280</width>
										<height>720</height>
										<anamorphic>FALSE</anamorphic>
										<pixelaspectratio>square</pixelaspectratio>
										<fielddominance>none</fielddominance>
									</samplecharacteristics>
								</video>
								<audio>
									<samplecharacteristics>
										<depth>16</depth>
										<samplerate>44100</samplerate>
									</samplecharacteristics>
									<channelcount>2</channelcount>
								</audio>
							</media>
						</file>
						<filter>
							<effect>
								<name>Basic Motion</name>
								<effectid>basic</effectid>
								<effectcategory>motion</effectcategory>
								<effecttype>motion</effecttype>
								<mediatype>video</mediatype>
								<pproBypass>false</pproBypass>
								<parameter authoringApp="PremierePro">
									<parameterid>scale</parameterid>
									<name>Scale</name>
									<valuemin>0</valuemin>
									<valuemax>1000</valuemax>
									<value>150</value>
								</parameter>
								<parameter authoringApp="PremierePro">
									<parameterid>rotation</parameterid>
									<name>Rotation</name>
									<valuemin>-8640</valuemin>
									<valuemax>8640</valuemax>
									<value>0</value>
								</parameter>
								<parameter authoringApp="PremierePro">
									<parameterid>center</parameterid>
									<name>Center</name>
									<value>
										<horiz>0</horiz>
										<vert>0</vert>
									</value>
								</parameter>
								<parameter authoringApp="PremierePro">
									<parameterid>centerOffset</parameterid>
									<name>Anchor Point</name>
									<value>
										<horiz>0</horiz>
										<vert>0</vert>
									</value>
								</parameter>
								<parameter authoringApp="PremierePro">
									<parameterid>antiflicker</parameterid>
									<name>Anti-flicker Filter</name>
									<valuemin>0.0</valuemin>
									<valuemax>1.0</valuemax>
									<value>0</value>
								</parameter>
							</effect>
						</filter>
						<link>
							<linkclipref>clipitem-91</linkclipref>
							<mediatype>video</mediatype>
							<trackindex>1</trackindex>
							<clipindex>7</clipindex>
						</link>
						<link>
							<linkclipref>clipitem-99</linkclipref>
							<mediatype>audio</mediatype>
							<trackindex>1</trackindex>
							<clipindex>7</clipindex>
							<groupindex>1</groupindex>
						</link>
						<link>
							<linkclipref>clipitem-107</linkclipref>
							<mediatype>audio</mediatype>
							<trackindex>2</trackindex>
							<clipindex>7</clipindex>
							<groupindex>1</groupindex>
						</link>
						<logginginfo>
							<description />
							<scene />
							<shottake />
							<lognote />
							<good />
							<originalvideofilename />
							<originalaudiofilename />
						</logginginfo>
						<colorinfo>
							<lut />
							<lut1 />
							<asc_sop />
							<asc_sat />
							<lut2 />
						</colorinfo>
					<labels><label2>Rose</label2></labels></clipitem>
					<clipitem id="clipitem-90">
						<masterclipid>clipitem-6-82</masterclipid>
						<name>Travis_Kelce_talks_about_postponing_his_wedding_to_Fiance_Taylor_Swift_on_the_New_Heights_Podcast.mp4</name>
						<enabled>TRUE</enabled>
						<duration>150</duration>
						<rate>
							<timebase>25</timebase>
							<ntsc>FALSE</ntsc>
						</rate>
						<start>10650</start>
						<end>10800</end>
						<in>12150</in>
						<out>12300</out>
						<pproTicksIn>0</pproTicksIn>
						<pproTicksOut>149391889920000</pproTicksOut>
						<alphatype>none</alphatype>
						<pixelaspectratio>square</pixelaspectratio>
						<anamorphic>FALSE</anamorphic>
						<file id="file-34">
							<name>Travis_Kelce_talks_about_postponing_his_wedding_to_Fiance_Taylor_Swift_on_the_New_Heights_Podcast.mp4</name>
							<pathurl>file://localhost/Users/themalikano/Documents/VideoAutomation/premiere_videos/Travis_Kelce_talks_about_postponing_his_wedding_to_Fiance_Taylor_Swift_on_the_New_Heights_Podcast.mp4</pathurl>
							<rate>
								<timebase>30</timebase>
								<ntsc>FALSE</ntsc>
							</rate>
							<duration>17644</duration>
							<timecode>
								<rate>
									<timebase>30</timebase>
									<ntsc>FALSE</ntsc>
								</rate>
								<string>00:00:00:00</string>
								<frame>0</frame>
								<displayformat>NDF</displayformat>
							</timecode>
							<media>
								<video>
									<samplecharacteristics>
										<rate>
											<timebase>30</timebase>
											<ntsc>FALSE</ntsc>
										</rate>
										<width>1920</width>
										<height>1080</height>
										<anamorphic>FALSE</anamorphic>
										<pixelaspectratio>square</pixelaspectratio>
										<fielddominance>none</fielddominance>
									</samplecharacteristics>
								</video>
								<audio>
									<samplecharacteristics>
										<depth>16</depth>
										<samplerate>44100</samplerate>
									</samplecharacteristics>
									<channelcount>2</channelcount>
								</audio>
							</media>
						</file>
						<link>
							<linkclipref>clipitem-90</linkclipref>
							<mediatype>video</mediatype>
							<trackindex>1</trackindex>
							<clipindex>6</clipindex>
						</link>
						<link>
							<linkclipref>clipitem-98</linkclipref>
							<mediatype>audio</mediatype>
							<trackindex>1</trackindex>
							<clipindex>6</clipindex>
							<groupindex>1</groupindex>
						</link>
						<link>
							<linkclipref>clipitem-106</linkclipref>
							<mediatype>audio</mediatype>
							<trackindex>2</trackindex>
							<clipindex>6</clipindex>
							<groupindex>1</groupindex>
						</link>
						<logginginfo>
							<description />
							<scene />
							<shottake />
							<lognote />
							<good />
							<originalvideofilename />
							<originalaudiofilename />
						</logginginfo>
						<colorinfo>
							<lut />
							<lut1 />
							<asc_sop />
							<asc_sat />
							<lut2 />
						</colorinfo>
					<labels><label2>Forest</label2></labels></clipitem>
					<clipitem id="clipitem-87">
						<masterclipid>clipitem-3-405</masterclipid>
						<name>Taylor_Swift_Travis_Kelce_-_The_New_Power_Couple.mp4</name>
						<enabled>TRUE</enabled>
						<duration>150</duration>
						<rate>
							<timebase>25</timebase>
							<ntsc>FALSE</ntsc>
						</rate>
						<start>10800</start>
						<end>10950</end>
						<in>60600</in>
						<out>60750</out>
						<pproTicksIn>0</pproTicksIn>
						<pproTicksOut>875013995520000</pproTicksOut>
						<alphatype>none</alphatype>
						<pixelaspectratio>square</pixelaspectratio>
						<anamorphic>FALSE</anamorphic>
						<file id="file-31">
							<name>Taylor_Swift_Travis_Kelce_-_The_New_Power_Couple.mp4</name>
							<pathurl>file://localhost/Users/themalikano/Documents/VideoAutomation/premiere_videos/Taylor_Swift_Travis_Kelce_-_The_New_Power_Couple.mp4</pathurl>
							<rate>
								<timebase>25</timebase>
								<ntsc>FALSE</ntsc>
							</rate>
							<duration>86118</duration>
							<timecode>
								<rate>
									<timebase>25</timebase>
									<ntsc>FALSE</ntsc>
								</rate>
								<string>00:00:00:00</string>
								<frame>0</frame>
								<displayformat>NDF</displayformat>
							</timecode>
							<media>
								<video>
									<samplecharacteristics>
										<rate>
											<timebase>25</timebase>
											<ntsc>FALSE</ntsc>
										</rate>
										<width>1920</width>
										<height>1080</height>
										<anamorphic>FALSE</anamorphic>
										<pixelaspectratio>square</pixelaspectratio>
										<fielddominance>none</fielddominance>
									</samplecharacteristics>
								</video>
								<audio>
									<samplecharacteristics>
										<depth>16</depth>
										<samplerate>44100</samplerate>
									</samplecharacteristics>
									<channelcount>2</channelcount>
								</audio>
							</media>
						</file>
						<link>
							<linkclipref>clipitem-87</linkclipref>
							<mediatype>video</mediatype>
							<trackindex>1</trackindex>
							<clipindex>3</clipindex>
						</link>
						<link>
							<linkclipref>clipitem-95</linkclipref>
							<mediatype>audio</mediatype>
							<trackindex>1</trackindex>
							<clipindex>3</clipindex>
							<groupindex>1</groupindex>
						</link>
						<link>
							<linkclipref>clipitem-103</linkclipref>
							<mediatype>audio</mediatype>
							<trackindex>2</trackindex>
							<clipindex>3</clipindex>
							<groupindex>1</groupindex>
						</link>
						<logginginfo>
							<description />
							<scene />
							<shottake />
							<lognote />
							<good />
							<originalvideofilename />
							<originalaudiofilename />
						</logginginfo>
						<colorinfo>
							<lut />
							<lut1 />
							<asc_sop />
							<asc_sat />
							<lut2 />
						</colorinfo>
					<labels><label2>Caribbean</label2></labels></clipitem>
					<clipitem id="clipitem-85">
						<masterclipid>clipitem-1-5</masterclipid>
						<name>Taylor_Swift_Reveals_What_Fiance_Travis_Kelce_Said_Before_Proposal_E_News.mp4</name>
						<enabled>TRUE</enabled>
						<duration>150</duration>
						<rate>
							<timebase>25</timebase>
							<ntsc>FALSE</ntsc>
						</rate>
						<start>10950</start>
						<end>11100</end>
						<in>600</in>
						<out>750</out>
						<pproTicksIn>0</pproTicksIn>
						<pproTicksOut>36039790080000</pproTicksOut>
						<alphatype>none</alphatype>
						<pixelaspectratio>square</pixelaspectratio>
						<anamorphic>FALSE</anamorphic>
						<file id="file-29">
							<name>Taylor_Swift_Reveals_What_Fiance_Travis_Kelce_Said_Before_Proposal_E_News.mp4</name>
							<pathurl>file://localhost/Users/themalikano/Documents/VideoAutomation/premiere_videos/Taylor_Swift_Reveals_What_Fiance_Travis_Kelce_Said_Before_Proposal_E_News.mp4</pathurl>
							<rate>
								<timebase>29</timebase>
								<ntsc>FALSE</ntsc>
							</rate>
							<duration>4115</duration>
							<timecode>
								<rate>
									<timebase>29</timebase>
									<ntsc>FALSE</ntsc>
								</rate>
								<string>00:00:00:00</string>
								<frame>0</frame>
								<displayformat>NDF</displayformat>
							</timecode>
							<media>
								<video>
									<samplecharacteristics>
										<rate>
											<timebase>29</timebase>
											<ntsc>FALSE</ntsc>
										</rate>
										<width>1920</width>
										<height>1080</height>
										<anamorphic>FALSE</anamorphic>
										<pixelaspectratio>square</pixelaspectratio>
										<fielddominance>none</fielddominance>
									</samplecharacteristics>
								</video>
								<audio>
									<samplecharacteristics>
										<depth>16</depth>
										<samplerate>44100</samplerate>
									</samplecharacteristics>
									<channelcount>2</channelcount>
								</audio>
							</media>
						</file>
						<link>
							<linkclipref>clipitem-85</linkclipref>
							<mediatype>video</mediatype>
							<trackindex>1</trackindex>
							<clipindex>1</clipindex>
						</link>
						<link>
							<linkclipref>clipitem-93</linkclipref>
							<mediatype>audio</mediatype>
							<trackindex>1</trackindex>
							<clipindex>1</clipindex>
							<groupindex>1</groupindex>
						</link>
						<link>
							<linkclipref>clipitem-101</linkclipref>
							<mediatype>audio</mediatype>
							<trackindex>2</trackindex>
							<clipindex>1</clipindex>
							<groupindex>1</groupindex>
						</link>
						<logginginfo>
							<description />
							<scene />
							<shottake />
							<lognote />
							<good />
							<originalvideofilename />
							<originalaudiofilename />
						</logginginfo>
						<colorinfo>
							<lut />
							<lut1 />
							<asc_sop />
							<asc_sat />
							<lut2 />
						</colorinfo>
					<labels><label2>Violet</label2></labels></clipitem>
					<clipitem id="clipitem-92">
						<masterclipid>clipitem-8-13</masterclipid>
						<name>Why_Travis_Kelce_Jokes_Taylor_Swift_Is_Going_to_KILL_Him.mp4</name>
						<enabled>TRUE</enabled>
						<duration>150</duration>
						<rate>
							<timebase>25</timebase>
							<ntsc>FALSE</ntsc>
						</rate>
						<start>11100</start>
						<end>11250</end>
						<in>1800</in>
						<out>1950</out>
						<pproTicksIn>0</pproTicksIn>
						<pproTicksOut>25249190400000</pproTicksOut>
						<alphatype>none</alphatype>
						<pixelaspectratio>square</pixelaspectratio>
						<anamorphic>FALSE</anamorphic>
						<file id="file-36">
							<name>Why_Travis_Kelce_Jokes_Taylor_Swift_Is_Going_to_KILL_Him.mp4</name>
							<pathurl>file://localhost/Users/themalikano/Documents/VideoAutomation/premiere_videos/Why_Travis_Kelce_Jokes_Taylor_Swift_Is_Going_to_KILL_Him.mp4</pathurl>
							<rate>
								<timebase>30</timebase>
								<ntsc>TRUE</ntsc>
							</rate>
							<duration>2980</duration>
							<timecode>
								<rate>
									<timebase>30</timebase>
									<ntsc>TRUE</ntsc>
								</rate>
								<string>00:00:00:00</string>
								<frame>0</frame>
								<displayformat>NDF</displayformat>
							</timecode>
							<media>
								<video>
									<samplecharacteristics>
										<rate>
											<timebase>30</timebase>
											<ntsc>TRUE</ntsc>
										</rate>
										<width>1920</width>
										<height>1080</height>
										<anamorphic>FALSE</anamorphic>
										<pixelaspectratio>square</pixelaspectratio>
										<fielddominance>none</fielddominance>
									</samplecharacteristics>
								</video>
								<audio>
									<samplecharacteristics>
										<depth>16</depth>
										<samplerate>44100</samplerate>
									</samplecharacteristics>
									<channelcount>2</channelcount>
								</audio>
							</media>
						</file>
						<link>
							<linkclipref>clipitem-92</linkclipref>
							<mediatype>video</mediatype>
							<trackindex>1</trackindex>
							<clipindex>8</clipindex>
						</link>
						<link>
							<linkclipref>clipitem-100</linkclipref>
							<mediatype>audio</mediatype>
							<trackindex>1</trackindex>
							<clipindex>8</clipindex>
							<groupindex>1</groupindex>
						</link>
						<link>
							<linkclipref>clipitem-108</linkclipref>
							<mediatype>audio</mediatype>
							<trackindex>2</trackindex>
							<clipindex>8</clipindex>
							<groupindex>1</groupindex>
						</link>
						<logginginfo>
							<description />
							<scene />
							<shottake />
							<lognote />
							<good />
							<originalvideofilename />
							<originalaudiofilename />
						</logginginfo>
						<colorinfo>
							<lut />
							<lut1 />
							<asc_sop />
							<asc_sat />
							<lut2 />
						</colorinfo>
					<labels><label2>Mango</label2></labels></clipitem>
					<clipitem id="clipitem-90">
						<masterclipid>clipitem-6-42</masterclipid>
						<name>Travis_Kelce_talks_about_postponing_his_wedding_to_Fiance_Taylor_Swift_on_the_New_Heights_Podcast.mp4</name>
						<enabled>TRUE</enabled>
						<duration>150</duration>
						<rate>
							<timebase>25</timebase>
							<ntsc>FALSE</ntsc>
						</rate>
						<start>11250</start>
						<end>11400</end>
						<in>6150</in>
						<out>6300</out>
						<pproTicksIn>0</pproTicksIn>
						<pproTicksOut>149391889920000</pproTicksOut>
						<alphatype>none</alphatype>
						<pixelaspectratio>square</pixelaspectratio>
						<anamorphic>FALSE</anamorphic>
						<file id="file-34">
							<name>Travis_Kelce_talks_about_postponing_his_wedding_to_Fiance_Taylor_Swift_on_the_New_Heights_Podcast.mp4</name>
							<pathurl>file://localhost/Users/themalikano/Documents/VideoAutomation/premiere_videos/Travis_Kelce_talks_about_postponing_his_wedding_to_Fiance_Taylor_Swift_on_the_New_Heights_Podcast.mp4</pathurl>
							<rate>
								<timebase>30</timebase>
								<ntsc>FALSE</ntsc>
							</rate>
							<duration>17644</duration>
							<timecode>
								<rate>
									<timebase>30</timebase>
									<ntsc>FALSE</ntsc>
								</rate>
								<string>00:00:00:00</string>
								<frame>0</frame>
								<displayformat>NDF</displayformat>
							</timecode>
							<media>
								<video>
									<samplecharacteristics>
										<rate>
											<timebase>30</timebase>
											<ntsc>FALSE</ntsc>
										</rate>
										<width>1920</width>
										<height>1080</height>
										<anamorphic>FALSE</anamorphic>
										<pixelaspectratio>square</pixelaspectratio>
										<fielddominance>none</fielddominance>
									</samplecharacteristics>
								</video>
								<audio>
									<samplecharacteristics>
										<depth>16</depth>
										<samplerate>44100</samplerate>
									</samplecharacteristics>
									<channelcount>2</channelcount>
								</audio>
							</media>
						</file>
						<link>
							<linkclipref>clipitem-90</linkclipref>
							<mediatype>video</mediatype>
							<trackindex>1</trackindex>
							<clipindex>6</clipindex>
						</link>
						<link>
							<linkclipref>clipitem-98</linkclipref>
							<mediatype>audio</mediatype>
							<trackindex>1</trackindex>
							<clipindex>6</clipindex>
							<groupindex>1</groupindex>
						</link>
						<link>
							<linkclipref>clipitem-106</linkclipref>
							<mediatype>audio</mediatype>
							<trackindex>2</trackindex>
							<clipindex>6</clipindex>
							<groupindex>1</groupindex>
						</link>
						<logginginfo>
							<description />
							<scene />
							<shottake />
							<lognote />
							<good />
							<originalvideofilename />
							<originalaudiofilename />
						</logginginfo>
						<colorinfo>
							<lut />
							<lut1 />
							<asc_sop />
							<asc_sat />
							<lut2 />
						</colorinfo>
					<labels><label2>Forest</label2></labels></clipitem>
					<clipitem id="clipitem-85">
						<masterclipid>clipitem-1-16</masterclipid>
						<name>Taylor_Swift_Reveals_What_Fiance_Travis_Kelce_Said_Before_Proposal_E_News.mp4</name>
						<enabled>TRUE</enabled>
						<duration>150</duration>
						<rate>
							<timebase>25</timebase>
							<ntsc>FALSE</ntsc>
						</rate>
						<start>11400</start>
						<end>11550</end>
						<in>2250</in>
						<out>2400</out>
						<pproTicksIn>0</pproTicksIn>
						<pproTicksOut>36039790080000</pproTicksOut>
						<alphatype>none</alphatype>
						<pixelaspectratio>square</pixelaspectratio>
						<anamorphic>FALSE</anamorphic>
						<file id="file-29">
							<name>Taylor_Swift_Reveals_What_Fiance_Travis_Kelce_Said_Before_Proposal_E_News.mp4</name>
							<pathurl>file://localhost/Users/themalikano/Documents/VideoAutomation/premiere_videos/Taylor_Swift_Reveals_What_Fiance_Travis_Kelce_Said_Before_Proposal_E_News.mp4</pathurl>
							<rate>
								<timebase>29</timebase>
								<ntsc>FALSE</ntsc>
							</rate>
							<duration>4115</duration>
							<timecode>
								<rate>
									<timebase>29</timebase>
									<ntsc>FALSE</ntsc>
								</rate>
								<string>00:00:00:00</string>
								<frame>0</frame>
								<displayformat>NDF</displayformat>
							</timecode>
							<media>
								<video>
									<samplecharacteristics>
										<rate>
											<timebase>29</timebase>
											<ntsc>FALSE</ntsc>
										</rate>
										<width>1920</width>
										<height>1080</height>
										<anamorphic>FALSE</anamorphic>
										<pixelaspectratio>square</pixelaspectratio>
										<fielddominance>none</fielddominance>
									</samplecharacteristics>
								</video>
								<audio>
									<samplecharacteristics>
										<depth>16</depth>
										<samplerate>44100</samplerate>
									</samplecharacteristics>
									<channelcount>2</channelcount>
								</audio>
							</media>
						</file>
						<link>
							<linkclipref>clipitem-85</linkclipref>
							<mediatype>video</mediatype>
							<trackindex>1</trackindex>
							<clipindex>1</clipindex>
						</link>
						<link>
							<linkclipref>clipitem-93</linkclipref>
							<mediatype>audio</mediatype>
							<trackindex>1</trackindex>
							<clipindex>1</clipindex>
							<groupindex>1</groupindex>
						</link>
						<link>
							<linkclipref>clipitem-101</linkclipref>
							<mediatype>audio</mediatype>
							<trackindex>2</trackindex>
							<clipindex>1</clipindex>
							<groupindex>1</groupindex>
						</link>
						<logginginfo>
							<description />
							<scene />
							<shottake />
							<lognote />
							<good />
							<originalvideofilename />
							<originalaudiofilename />
						</logginginfo>
						<colorinfo>
							<lut />
							<lut1 />
							<asc_sop />
							<asc_sat />
							<lut2 />
						</colorinfo>
					<labels><label2>Violet</label2></labels></clipitem>
					<clipitem id="clipitem-91">
						<masterclipid>clipitem-7-10</masterclipid>
						<name>What_Caused_Taylor_Swift-Blake_Lively_Rift_The_View.mp4</name>
						<enabled>TRUE</enabled>
						<duration>150</duration>
						<rate>
							<timebase>25</timebase>
							<ntsc>FALSE</ntsc>
						</rate>
						<start>11550</start>
						<end>11700</end>
						<in>1350</in>
						<out>1500</out>
						<pproTicksIn>0</pproTicksIn>
						<pproTicksOut>45733040640000</pproTicksOut>
						<alphatype>none</alphatype>
						<pixelaspectratio>square</pixelaspectratio>
						<anamorphic>FALSE</anamorphic>
						<file id="file-35">
							<name>What_Caused_Taylor_Swift-Blake_Lively_Rift_The_View.mp4</name>
							<pathurl>file://localhost/Users/themalikano/Documents/VideoAutomation/premiere_videos/What_Caused_Taylor_Swift-Blake_Lively_Rift_The_View.mp4</pathurl>
							<rate>
								<timebase>30</timebase>
								<ntsc>TRUE</ntsc>
							</rate>
							<duration>5397</duration>
							<timecode>
								<rate>
									<timebase>30</timebase>
									<ntsc>TRUE</ntsc>
								</rate>
								<string>00:00:00:00</string>
								<frame>0</frame>
								<displayformat>NDF</displayformat>
							</timecode>
							<media>
								<video>
									<samplecharacteristics>
										<rate>
											<timebase>30</timebase>
											<ntsc>TRUE</ntsc>
										</rate>
										<width>1280</width>
										<height>720</height>
										<anamorphic>FALSE</anamorphic>
										<pixelaspectratio>square</pixelaspectratio>
										<fielddominance>none</fielddominance>
									</samplecharacteristics>
								</video>
								<audio>
									<samplecharacteristics>
										<depth>16</depth>
										<samplerate>44100</samplerate>
									</samplecharacteristics>
									<channelcount>2</channelcount>
								</audio>
							</media>
						</file>
						<filter>
							<effect>
								<name>Basic Motion</name>
								<effectid>basic</effectid>
								<effectcategory>motion</effectcategory>
								<effecttype>motion</effecttype>
								<mediatype>video</mediatype>
								<pproBypass>false</pproBypass>
								<parameter authoringApp="PremierePro">
									<parameterid>scale</parameterid>
									<name>Scale</name>
									<valuemin>0</valuemin>
									<valuemax>1000</valuemax>
									<value>150</value>
								</parameter>
								<parameter authoringApp="PremierePro">
									<parameterid>rotation</parameterid>
									<name>Rotation</name>
									<valuemin>-8640</valuemin>
									<valuemax>8640</valuemax>
									<value>0</value>
								</parameter>
								<parameter authoringApp="PremierePro">
									<parameterid>center</parameterid>
									<name>Center</name>
									<value>
										<horiz>0</horiz>
										<vert>0</vert>
									</value>
								</parameter>
								<parameter authoringApp="PremierePro">
									<parameterid>centerOffset</parameterid>
									<name>Anchor Point</name>
									<value>
										<horiz>0</horiz>
										<vert>0</vert>
									</value>
								</parameter>
								<parameter authoringApp="PremierePro">
									<parameterid>antiflicker</parameterid>
									<name>Anti-flicker Filter</name>
									<valuemin>0.0</valuemin>
									<valuemax>1.0</valuemax>
									<value>0</value>
								</parameter>
							</effect>
						</filter>
						<link>
							<linkclipref>clipitem-91</linkclipref>
							<mediatype>video</mediatype>
							<trackindex>1</trackindex>
							<clipindex>7</clipindex>
						</link>
						<link>
							<linkclipref>clipitem-99</linkclipref>
							<mediatype>audio</mediatype>
							<trackindex>1</trackindex>
							<clipindex>7</clipindex>
							<groupindex>1</groupindex>
						</link>
						<link>
							<linkclipref>clipitem-107</linkclipref>
							<mediatype>audio</mediatype>
							<trackindex>2</trackindex>
							<clipindex>7</clipindex>
							<groupindex>1</groupindex>
						</link>
						<logginginfo>
							<description />
							<scene />
							<shottake />
							<lognote />
							<good />
							<originalvideofilename />
							<originalaudiofilename />
						</logginginfo>
						<colorinfo>
							<lut />
							<lut1 />
							<asc_sop />
							<asc_sat />
							<lut2 />
						</colorinfo>
					<labels><label2>Rose</label2></labels></clipitem>
					<clipitem id="clipitem-88">
						<masterclipid>clipitem-4-16</masterclipid>
						<name>Travis_Kelce_ANNOUNCE_WEDDING_DATE_with_Taylor_Swift_Why_He_was_Delaying_all_Along.mp4</name>
						<enabled>TRUE</enabled>
						<duration>150</duration>
						<rate>
							<timebase>25</timebase>
							<ntsc>FALSE</ntsc>
						</rate>
						<start>11700</start>
						<end>11850</end>
						<in>2250</in>
						<out>2400</out>
						<pproTicksIn>0</pproTicksIn>
						<pproTicksOut>419410897920000</pproTicksOut>
						<alphatype>none</alphatype>
						<pixelaspectratio>square</pixelaspectratio>
						<anamorphic>FALSE</anamorphic>
						<file id="file-32">
							<name>Travis_Kelce_ANNOUNCE_WEDDING_DATE_with_Taylor_Swift_Why_He_was_Delaying_all_Along.mp4</name>
							<pathurl>file://localhost/Users/themalikano/Documents/VideoAutomation/premiere_videos/Travis_Kelce_ANNOUNCE_WEDDING_DATE_with_Taylor_Swift_Why_He_was_Delaying_all_Along.mp4</pathurl>
							<rate>
								<timebase>24</timebase>
								<ntsc>FALSE</ntsc>
							</rate>
							<duration>39627</duration>
							<timecode>
								<rate>
									<timebase>24</timebase>
									<ntsc>FALSE</ntsc>
								</rate>
								<string>00:00:00:00</string>
								<frame>0</frame>
								<displayformat>NDF</displayformat>
							</timecode>
							<media>
								<video>
									<samplecharacteristics>
										<rate>
											<timebase>24</timebase>
											<ntsc>FALSE</ntsc>
										</rate>
										<width>852</width>
										<height>480</height>
										<anamorphic>FALSE</anamorphic>
										<pixelaspectratio>square</pixelaspectratio>
										<fielddominance>none</fielddominance>
									</samplecharacteristics>
								</video>
								<audio>
									<samplecharacteristics>
										<depth>16</depth>
										<samplerate>44100</samplerate>
									</samplecharacteristics>
									<channelcount>2</channelcount>
								</audio>
							</media>
						</file>
						<filter>
							<effect>
								<name>Basic Motion</name>
								<effectid>basic</effectid>
								<effectcategory>motion</effectcategory>
								<effecttype>motion</effecttype>
								<mediatype>video</mediatype>
								<pproBypass>false</pproBypass>
								<parameter authoringApp="PremierePro">
									<parameterid>scale</parameterid>
									<name>Scale</name>
									<valuemin>0</valuemin>
									<valuemax>1000</valuemax>
									<value>225</value>
								</parameter>
								<parameter authoringApp="PremierePro">
									<parameterid>rotation</parameterid>
									<name>Rotation</name>
									<valuemin>-8640</valuemin>
									<valuemax>8640</valuemax>
									<value>0</value>
								</parameter>
								<parameter authoringApp="PremierePro">
									<parameterid>center</parameterid>
									<name>Center</name>
									<value>
										<horiz>0</horiz>
										<vert>0</vert>
									</value>
								</parameter>
								<parameter authoringApp="PremierePro">
									<parameterid>centerOffset</parameterid>
									<name>Anchor Point</name>
									<value>
										<horiz>0</horiz>
										<vert>0</vert>
									</value>
								</parameter>
								<parameter authoringApp="PremierePro">
									<parameterid>antiflicker</parameterid>
									<name>Anti-flicker Filter</name>
									<valuemin>0.0</valuemin>
									<valuemax>1.0</valuemax>
									<value>0</value>
								</parameter>
							</effect>
						</filter>
						<link>
							<linkclipref>clipitem-88</linkclipref>
							<mediatype>video</mediatype>
							<trackindex>1</trackindex>
							<clipindex>4</clipindex>
						</link>
						<link>
							<linkclipref>clipitem-96</linkclipref>
							<mediatype>audio</mediatype>
							<trackindex>1</trackindex>
							<clipindex>4</clipindex>
							<groupindex>1</groupindex>
						</link>
						<link>
							<linkclipref>clipitem-104</linkclipref>
							<mediatype>audio</mediatype>
							<trackindex>2</trackindex>
							<clipindex>4</clipindex>
							<groupindex>1</groupindex>
						</link>
						<logginginfo>
							<description />
							<scene />
							<shottake />
							<lognote />
							<good />
							<originalvideofilename />
							<originalaudiofilename />
						</logginginfo>
						<colorinfo>
							<lut />
							<lut1 />
							<asc_sop />
							<asc_sat />
							<lut2 />
						</colorinfo>
					<labels><label2>Lavender</label2></labels></clipitem>
					<clipitem id="clipitem-87">
						<masterclipid>clipitem-3-541</masterclipid>
						<name>Taylor_Swift_Travis_Kelce_-_The_New_Power_Couple.mp4</name>
						<enabled>TRUE</enabled>
						<duration>150</duration>
						<rate>
							<timebase>25</timebase>
							<ntsc>FALSE</ntsc>
						</rate>
						<start>11850</start>
						<end>12000</end>
						<in>81000</in>
						<out>81150</out>
						<pproTicksIn>0</pproTicksIn>
						<pproTicksOut>875013995520000</pproTicksOut>
						<alphatype>none</alphatype>
						<pixelaspectratio>square</pixelaspectratio>
						<anamorphic>FALSE</anamorphic>
						<file id="file-31">
							<name>Taylor_Swift_Travis_Kelce_-_The_New_Power_Couple.mp4</name>
							<pathurl>file://localhost/Users/themalikano/Documents/VideoAutomation/premiere_videos/Taylor_Swift_Travis_Kelce_-_The_New_Power_Couple.mp4</pathurl>
							<rate>
								<timebase>25</timebase>
								<ntsc>FALSE</ntsc>
							</rate>
							<duration>86118</duration>
							<timecode>
								<rate>
									<timebase>25</timebase>
									<ntsc>FALSE</ntsc>
								</rate>
								<string>00:00:00:00</string>
								<frame>0</frame>
								<displayformat>NDF</displayformat>
							</timecode>
							<media>
								<video>
									<samplecharacteristics>
										<rate>
											<timebase>25</timebase>
											<ntsc>FALSE</ntsc>
										</rate>
										<width>1920</width>
										<height>1080</height>
										<anamorphic>FALSE</anamorphic>
										<pixelaspectratio>square</pixelaspectratio>
										<fielddominance>none</fielddominance>
									</samplecharacteristics>
								</video>
								<audio>
									<samplecharacteristics>
										<depth>16</depth>
										<samplerate>44100</samplerate>
									</samplecharacteristics>
									<channelcount>2</channelcount>
								</audio>
							</media>
						</file>
						<link>
							<linkclipref>clipitem-87</linkclipref>
							<mediatype>video</mediatype>
							<trackindex>1</trackindex>
							<clipindex>3</clipindex>
						</link>
						<link>
							<linkclipref>clipitem-95</linkclipref>
							<mediatype>audio</mediatype>
							<trackindex>1</trackindex>
							<clipindex>3</clipindex>
							<groupindex>1</groupindex>
						</link>
						<link>
							<linkclipref>clipitem-103</linkclipref>
							<mediatype>audio</mediatype>
							<trackindex>2</trackindex>
							<clipindex>3</clipindex>
							<groupindex>1</groupindex>
						</link>
						<logginginfo>
							<description />
							<scene />
							<shottake />
							<lognote />
							<good />
							<originalvideofilename />
							<originalaudiofilename />
						</logginginfo>
						<colorinfo>
							<lut />
							<lut1 />
							<asc_sop />
							<asc_sat />
							<lut2 />
						</colorinfo>
					<labels><label2>Caribbean</label2></labels></clipitem>
					<clipitem id="clipitem-85">
						<masterclipid>clipitem-1-8</masterclipid>
						<name>Taylor_Swift_Reveals_What_Fiance_Travis_Kelce_Said_Before_Proposal_E_News.mp4</name>
						<enabled>TRUE</enabled>
						<duration>150</duration>
						<rate>
							<timebase>25</timebase>
							<ntsc>FALSE</ntsc>
						</rate>
						<start>12000</start>
						<end>12150</end>
						<in>1050</in>
						<out>1200</out>
						<pproTicksIn>0</pproTicksIn>
						<pproTicksOut>36039790080000</pproTicksOut>
						<alphatype>none</alphatype>
						<pixelaspectratio>square</pixelaspectratio>
						<anamorphic>FALSE</anamorphic>
						<file id="file-29">
							<name>Taylor_Swift_Reveals_What_Fiance_Travis_Kelce_Said_Before_Proposal_E_News.mp4</name>
							<pathurl>file://localhost/Users/themalikano/Documents/VideoAutomation/premiere_videos/Taylor_Swift_Reveals_What_Fiance_Travis_Kelce_Said_Before_Proposal_E_News.mp4</pathurl>
							<rate>
								<timebase>29</timebase>
								<ntsc>FALSE</ntsc>
							</rate>
							<duration>4115</duration>
							<timecode>
								<rate>
									<timebase>29</timebase>
									<ntsc>FALSE</ntsc>
								</rate>
								<string>00:00:00:00</string>
								<frame>0</frame>
								<displayformat>NDF</displayformat>
							</timecode>
							<media>
								<video>
									<samplecharacteristics>
										<rate>
											<timebase>29</timebase>
											<ntsc>FALSE</ntsc>
										</rate>
										<width>1920</width>
										<height>1080</height>
										<anamorphic>FALSE</anamorphic>
										<pixelaspectratio>square</pixelaspectratio>
										<fielddominance>none</fielddominance>
									</samplecharacteristics>
								</video>
								<audio>
									<samplecharacteristics>
										<depth>16</depth>
										<samplerate>44100</samplerate>
									</samplecharacteristics>
									<channelcount>2</channelcount>
								</audio>
							</media>
						</file>
						<link>
							<linkclipref>clipitem-85</linkclipref>
							<mediatype>video</mediatype>
							<trackindex>1</trackindex>
							<clipindex>1</clipindex>
						</link>
						<link>
							<linkclipref>clipitem-93</linkclipref>
							<mediatype>audio</mediatype>
							<trackindex>1</trackindex>
							<clipindex>1</clipindex>
							<groupindex>1</groupindex>
						</link>
						<link>
							<linkclipref>clipitem-101</linkclipref>
							<mediatype>audio</mediatype>
							<trackindex>2</trackindex>
							<clipindex>1</clipindex>
							<groupindex>1</groupindex>
						</link>
						<logginginfo>
							<description />
							<scene />
							<shottake />
							<lognote />
							<good />
							<originalvideofilename />
							<originalaudiofilename />
						</logginginfo>
						<colorinfo>
							<lut />
							<lut1 />
							<asc_sop />
							<asc_sat />
							<lut2 />
						</colorinfo>
					<labels><label2>Violet</label2></labels></clipitem>
					<clipitem id="clipitem-90">
						<masterclipid>clipitem-6-76</masterclipid>
						<name>Travis_Kelce_talks_about_postponing_his_wedding_to_Fiance_Taylor_Swift_on_the_New_Heights_Podcast.mp4</name>
						<enabled>TRUE</enabled>
						<duration>150</duration>
						<rate>
							<timebase>25</timebase>
							<ntsc>FALSE</ntsc>
						</rate>
						<start>12150</start>
						<end>12300</end>
						<in>11250</in>
						<out>11400</out>
						<pproTicksIn>0</pproTicksIn>
						<pproTicksOut>149391889920000</pproTicksOut>
						<alphatype>none</alphatype>
						<pixelaspectratio>square</pixelaspectratio>
						<anamorphic>FALSE</anamorphic>
						<file id="file-34">
							<name>Travis_Kelce_talks_about_postponing_his_wedding_to_Fiance_Taylor_Swift_on_the_New_Heights_Podcast.mp4</name>
							<pathurl>file://localhost/Users/themalikano/Documents/VideoAutomation/premiere_videos/Travis_Kelce_talks_about_postponing_his_wedding_to_Fiance_Taylor_Swift_on_the_New_Heights_Podcast.mp4</pathurl>
							<rate>
								<timebase>30</timebase>
								<ntsc>FALSE</ntsc>
							</rate>
							<duration>17644</duration>
							<timecode>
								<rate>
									<timebase>30</timebase>
									<ntsc>FALSE</ntsc>
								</rate>
								<string>00:00:00:00</string>
								<frame>0</frame>
								<displayformat>NDF</displayformat>
							</timecode>
							<media>
								<video>
									<samplecharacteristics>
										<rate>
											<timebase>30</timebase>
											<ntsc>FALSE</ntsc>
										</rate>
										<width>1920</width>
										<height>1080</height>
										<anamorphic>FALSE</anamorphic>
										<pixelaspectratio>square</pixelaspectratio>
										<fielddominance>none</fielddominance>
									</samplecharacteristics>
								</video>
								<audio>
									<samplecharacteristics>
										<depth>16</depth>
										<samplerate>44100</samplerate>
									</samplecharacteristics>
									<channelcount>2</channelcount>
								</audio>
							</media>
						</file>
						<link>
							<linkclipref>clipitem-90</linkclipref>
							<mediatype>video</mediatype>
							<trackindex>1</trackindex>
							<clipindex>6</clipindex>
						</link>
						<link>
							<linkclipref>clipitem-98</linkclipref>
							<mediatype>audio</mediatype>
							<trackindex>1</trackindex>
							<clipindex>6</clipindex>
							<groupindex>1</groupindex>
						</link>
						<link>
							<linkclipref>clipitem-106</linkclipref>
							<mediatype>audio</mediatype>
							<trackindex>2</trackindex>
							<clipindex>6</clipindex>
							<groupindex>1</groupindex>
						</link>
						<logginginfo>
							<description />
							<scene />
							<shottake />
							<lognote />
							<good />
							<originalvideofilename />
							<originalaudiofilename />
						</logginginfo>
						<colorinfo>
							<lut />
							<lut1 />
							<asc_sop />
							<asc_sat />
							<lut2 />
						</colorinfo>
					<labels><label2>Forest</label2></labels></clipitem>
					<clipitem id="clipitem-87">
						<masterclipid>clipitem-3-115</masterclipid>
						<name>Taylor_Swift_Travis_Kelce_-_The_New_Power_Couple.mp4</name>
						<enabled>TRUE</enabled>
						<duration>150</duration>
						<rate>
							<timebase>25</timebase>
							<ntsc>FALSE</ntsc>
						</rate>
						<start>12300</start>
						<end>12450</end>
						<in>17100</in>
						<out>17250</out>
						<pproTicksIn>0</pproTicksIn>
						<pproTicksOut>875013995520000</pproTicksOut>
						<alphatype>none</alphatype>
						<pixelaspectratio>square</pixelaspectratio>
						<anamorphic>FALSE</anamorphic>
						<file id="file-31">
							<name>Taylor_Swift_Travis_Kelce_-_The_New_Power_Couple.mp4</name>
							<pathurl>file://localhost/Users/themalikano/Documents/VideoAutomation/premiere_videos/Taylor_Swift_Travis_Kelce_-_The_New_Power_Couple.mp4</pathurl>
							<rate>
								<timebase>25</timebase>
								<ntsc>FALSE</ntsc>
							</rate>
							<duration>86118</duration>
							<timecode>
								<rate>
									<timebase>25</timebase>
									<ntsc>FALSE</ntsc>
								</rate>
								<string>00:00:00:00</string>
								<frame>0</frame>
								<displayformat>NDF</displayformat>
							</timecode>
							<media>
								<video>
									<samplecharacteristics>
										<rate>
											<timebase>25</timebase>
											<ntsc>FALSE</ntsc>
										</rate>
										<width>1920</width>
										<height>1080</height>
										<anamorphic>FALSE</anamorphic>
										<pixelaspectratio>square</pixelaspectratio>
										<fielddominance>none</fielddominance>
									</samplecharacteristics>
								</video>
								<audio>
									<samplecharacteristics>
										<depth>16</depth>
										<samplerate>44100</samplerate>
									</samplecharacteristics>
									<channelcount>2</channelcount>
								</audio>
							</media>
						</file>
						<link>
							<linkclipref>clipitem-87</linkclipref>
							<mediatype>video</mediatype>
							<trackindex>1</trackindex>
							<clipindex>3</clipindex>
						</link>
						<link>
							<linkclipref>clipitem-95</linkclipref>
							<mediatype>audio</mediatype>
							<trackindex>1</trackindex>
							<clipindex>3</clipindex>
							<groupindex>1</groupindex>
						</link>
						<link>
							<linkclipref>clipitem-103</linkclipref>
							<mediatype>audio</mediatype>
							<trackindex>2</trackindex>
							<clipindex>3</clipindex>
							<groupindex>1</groupindex>
						</link>
						<logginginfo>
							<description />
							<scene />
							<shottake />
							<lognote />
							<good />
							<originalvideofilename />
							<originalaudiofilename />
						</logginginfo>
						<colorinfo>
							<lut />
							<lut1 />
							<asc_sop />
							<asc_sat />
							<lut2 />
						</colorinfo>
					<labels><label2>Caribbean</label2></labels></clipitem>
					<clipitem id="clipitem-91">
						<masterclipid>clipitem-7-22</masterclipid>
						<name>What_Caused_Taylor_Swift-Blake_Lively_Rift_The_View.mp4</name>
						<enabled>TRUE</enabled>
						<duration>150</duration>
						<rate>
							<timebase>25</timebase>
							<ntsc>FALSE</ntsc>
						</rate>
						<start>12450</start>
						<end>12600</end>
						<in>3150</in>
						<out>3300</out>
						<pproTicksIn>0</pproTicksIn>
						<pproTicksOut>45733040640000</pproTicksOut>
						<alphatype>none</alphatype>
						<pixelaspectratio>square</pixelaspectratio>
						<anamorphic>FALSE</anamorphic>
						<file id="file-35">
							<name>What_Caused_Taylor_Swift-Blake_Lively_Rift_The_View.mp4</name>
							<pathurl>file://localhost/Users/themalikano/Documents/VideoAutomation/premiere_videos/What_Caused_Taylor_Swift-Blake_Lively_Rift_The_View.mp4</pathurl>
							<rate>
								<timebase>30</timebase>
								<ntsc>TRUE</ntsc>
							</rate>
							<duration>5397</duration>
							<timecode>
								<rate>
									<timebase>30</timebase>
									<ntsc>TRUE</ntsc>
								</rate>
								<string>00:00:00:00</string>
								<frame>0</frame>
								<displayformat>NDF</displayformat>
							</timecode>
							<media>
								<video>
									<samplecharacteristics>
										<rate>
											<timebase>30</timebase>
											<ntsc>TRUE</ntsc>
										</rate>
										<width>1280</width>
										<height>720</height>
										<anamorphic>FALSE</anamorphic>
										<pixelaspectratio>square</pixelaspectratio>
										<fielddominance>none</fielddominance>
									</samplecharacteristics>
								</video>
								<audio>
									<samplecharacteristics>
										<depth>16</depth>
										<samplerate>44100</samplerate>
									</samplecharacteristics>
									<channelcount>2</channelcount>
								</audio>
							</media>
						</file>
						<filter>
							<effect>
								<name>Basic Motion</name>
								<effectid>basic</effectid>
								<effectcategory>motion</effectcategory>
								<effecttype>motion</effecttype>
								<mediatype>video</mediatype>
								<pproBypass>false</pproBypass>
								<parameter authoringApp="PremierePro">
									<parameterid>scale</parameterid>
									<name>Scale</name>
									<valuemin>0</valuemin>
									<valuemax>1000</valuemax>
									<value>150</value>
								</parameter>
								<parameter authoringApp="PremierePro">
									<parameterid>rotation</parameterid>
									<name>Rotation</name>
									<valuemin>-8640</valuemin>
									<valuemax>8640</valuemax>
									<value>0</value>
								</parameter>
								<parameter authoringApp="PremierePro">
									<parameterid>center</parameterid>
									<name>Center</name>
									<value>
										<horiz>0</horiz>
										<vert>0</vert>
									</value>
								</parameter>
								<parameter authoringApp="PremierePro">
									<parameterid>centerOffset</parameterid>
									<name>Anchor Point</name>
									<value>
										<horiz>0</horiz>
										<vert>0</vert>
									</value>
								</parameter>
								<parameter authoringApp="PremierePro">
									<parameterid>antiflicker</parameterid>
									<name>Anti-flicker Filter</name>
									<valuemin>0.0</valuemin>
									<valuemax>1.0</valuemax>
									<value>0</value>
								</parameter>
							</effect>
						</filter>
						<link>
							<linkclipref>clipitem-91</linkclipref>
							<mediatype>video</mediatype>
							<trackindex>1</trackindex>
							<clipindex>7</clipindex>
						</link>
						<link>
							<linkclipref>clipitem-99</linkclipref>
							<mediatype>audio</mediatype>
							<trackindex>1</trackindex>
							<clipindex>7</clipindex>
							<groupindex>1</groupindex>
						</link>
						<link>
							<linkclipref>clipitem-107</linkclipref>
							<mediatype>audio</mediatype>
							<trackindex>2</trackindex>
							<clipindex>7</clipindex>
							<groupindex>1</groupindex>
						</link>
						<logginginfo>
							<description />
							<scene />
							<shottake />
							<lognote />
							<good />
							<originalvideofilename />
							<originalaudiofilename />
						</logginginfo>
						<colorinfo>
							<lut />
							<lut1 />
							<asc_sop />
							<asc_sat />
							<lut2 />
						</colorinfo>
					<labels><label2>Rose</label2></labels></clipitem>
					<clipitem id="clipitem-86">
						<masterclipid>clipitem-2-55</masterclipid>
						<name>Taylor_Swift_Shares_The_Story_Of_Calling_Travis_Kelce_For_The_First_Time.mp4</name>
						<enabled>TRUE</enabled>
						<duration>150</duration>
						<rate>
							<timebase>25</timebase>
							<ntsc>FALSE</ntsc>
						</rate>
						<start>12600</start>
						<end>12750</end>
						<in>8100</in>
						<out>8250</out>
						<pproTicksIn>0</pproTicksIn>
						<pproTicksOut>236438092800000</pproTicksOut>
						<alphatype>none</alphatype>
						<pixelaspectratio>square</pixelaspectratio>
						<anamorphic>FALSE</anamorphic>
						<file id="file-30">
							<name>Taylor_Swift_Shares_The_Story_Of_Calling_Travis_Kelce_For_The_First_Time.mp4</name>
							<pathurl>file://localhost/Users/themalikano/Documents/VideoAutomation/premiere_videos/Taylor_Swift_Shares_The_Story_Of_Calling_Travis_Kelce_For_The_First_Time.mp4</pathurl>
							<rate>
								<timebase>30</timebase>
								<ntsc>TRUE</ntsc>
							</rate>
							<duration>27897</duration>
							<timecode>
								<rate>
									<timebase>30</timebase>
									<ntsc>TRUE</ntsc>
								</rate>
								<string>00:00:00:00</string>
								<frame>0</frame>
								<displayformat>NDF</displayformat>
							</timecode>
							<media>
								<video>
									<samplecharacteristics>
										<rate>
											<timebase>30</timebase>
											<ntsc>TRUE</ntsc>
										</rate>
										<width>1920</width>
										<height>1080</height>
										<anamorphic>FALSE</anamorphic>
										<pixelaspectratio>square</pixelaspectratio>
										<fielddominance>none</fielddominance>
									</samplecharacteristics>
								</video>
								<audio>
									<samplecharacteristics>
										<depth>16</depth>
										<samplerate>44100</samplerate>
									</samplecharacteristics>
									<channelcount>2</channelcount>
								</audio>
							</media>
						</file>
						<link>
							<linkclipref>clipitem-86</linkclipref>
							<mediatype>video</mediatype>
							<trackindex>1</trackindex>
							<clipindex>2</clipindex>
						</link>
						<link>
							<linkclipref>clipitem-94</linkclipref>
							<mediatype>audio</mediatype>
							<trackindex>1</trackindex>
							<clipindex>2</clipindex>
							<groupindex>1</groupindex>
						</link>
						<link>
							<linkclipref>clipitem-102</linkclipref>
							<mediatype>audio</mediatype>
							<trackindex>2</trackindex>
							<clipindex>2</clipindex>
							<groupindex>1</groupindex>
						</link>
						<logginginfo>
							<description />
							<scene />
							<shottake />
							<lognote />
							<good />
							<originalvideofilename />
							<originalaudiofilename />
						</logginginfo>
						<colorinfo>
							<lut />
							<lut1 />
							<asc_sop />
							<asc_sat />
							<lut2 />
						</colorinfo>
					<labels><label2>Iris</label2></labels></clipitem>
					<clipitem id="clipitem-88">
						<masterclipid>clipitem-4-254</masterclipid>
						<name>Travis_Kelce_ANNOUNCE_WEDDING_DATE_with_Taylor_Swift_Why_He_was_Delaying_all_Along.mp4</name>
						<enabled>TRUE</enabled>
						<duration>150</duration>
						<rate>
							<timebase>25</timebase>
							<ntsc>FALSE</ntsc>
						</rate>
						<start>12750</start>
						<end>12900</end>
						<in>37950</in>
						<out>38100</out>
						<pproTicksIn>0</pproTicksIn>
						<pproTicksOut>419410897920000</pproTicksOut>
						<alphatype>none</alphatype>
						<pixelaspectratio>square</pixelaspectratio>
						<anamorphic>FALSE</anamorphic>
						<file id="file-32">
							<name>Travis_Kelce_ANNOUNCE_WEDDING_DATE_with_Taylor_Swift_Why_He_was_Delaying_all_Along.mp4</name>
							<pathurl>file://localhost/Users/themalikano/Documents/VideoAutomation/premiere_videos/Travis_Kelce_ANNOUNCE_WEDDING_DATE_with_Taylor_Swift_Why_He_was_Delaying_all_Along.mp4</pathurl>
							<rate>
								<timebase>24</timebase>
								<ntsc>FALSE</ntsc>
							</rate>
							<duration>39627</duration>
							<timecode>
								<rate>
									<timebase>24</timebase>
									<ntsc>FALSE</ntsc>
								</rate>
								<string>00:00:00:00</string>
								<frame>0</frame>
								<displayformat>NDF</displayformat>
							</timecode>
							<media>
								<video>
									<samplecharacteristics>
										<rate>
											<timebase>24</timebase>
											<ntsc>FALSE</ntsc>
										</rate>
										<width>852</width>
										<height>480</height>
										<anamorphic>FALSE</anamorphic>
										<pixelaspectratio>square</pixelaspectratio>
										<fielddominance>none</fielddominance>
									</samplecharacteristics>
								</video>
								<audio>
									<samplecharacteristics>
										<depth>16</depth>
										<samplerate>44100</samplerate>
									</samplecharacteristics>
									<channelcount>2</channelcount>
								</audio>
							</media>
						</file>
						<filter>
							<effect>
								<name>Basic Motion</name>
								<effectid>basic</effectid>
								<effectcategory>motion</effectcategory>
								<effecttype>motion</effecttype>
								<mediatype>video</mediatype>
								<pproBypass>false</pproBypass>
								<parameter authoringApp="PremierePro">
									<parameterid>scale</parameterid>
									<name>Scale</name>
									<valuemin>0</valuemin>
									<valuemax>1000</valuemax>
									<value>225</value>
								</parameter>
								<parameter authoringApp="PremierePro">
									<parameterid>rotation</parameterid>
									<name>Rotation</name>
									<valuemin>-8640</valuemin>
									<valuemax>8640</valuemax>
									<value>0</value>
								</parameter>
								<parameter authoringApp="PremierePro">
									<parameterid>center</parameterid>
									<name>Center</name>
									<value>
										<horiz>0</horiz>
										<vert>0</vert>
									</value>
								</parameter>
								<parameter authoringApp="PremierePro">
									<parameterid>centerOffset</parameterid>
									<name>Anchor Point</name>
									<value>
										<horiz>0</horiz>
										<vert>0</vert>
									</value>
								</parameter>
								<parameter authoringApp="PremierePro">
									<parameterid>antiflicker</parameterid>
									<name>Anti-flicker Filter</name>
									<valuemin>0.0</valuemin>
									<valuemax>1.0</valuemax>
									<value>0</value>
								</parameter>
							</effect>
						</filter>
						<link>
							<linkclipref>clipitem-88</linkclipref>
							<mediatype>video</mediatype>
							<trackindex>1</trackindex>
							<clipindex>4</clipindex>
						</link>
						<link>
							<linkclipref>clipitem-96</linkclipref>
							<mediatype>audio</mediatype>
							<trackindex>1</trackindex>
							<clipindex>4</clipindex>
							<groupindex>1</groupindex>
						</link>
						<link>
							<linkclipref>clipitem-104</linkclipref>
							<mediatype>audio</mediatype>
							<trackindex>2</trackindex>
							<clipindex>4</clipindex>
							<groupindex>1</groupindex>
						</link>
						<logginginfo>
							<description />
							<scene />
							<shottake />
							<lognote />
							<good />
							<originalvideofilename />
							<originalaudiofilename />
						</logginginfo>
						<colorinfo>
							<lut />
							<lut1 />
							<asc_sop />
							<asc_sat />
							<lut2 />
						</colorinfo>
					<labels><label2>Lavender</label2></labels></clipitem>
					<clipitem id="clipitem-90">
						<masterclipid>clipitem-6-47</masterclipid>
						<name>Travis_Kelce_talks_about_postponing_his_wedding_to_Fiance_Taylor_Swift_on_the_New_Heights_Podcast.mp4</name>
						<enabled>TRUE</enabled>
						<duration>150</duration>
						<rate>
							<timebase>25</timebase>
							<ntsc>FALSE</ntsc>
						</rate>
						<start>12900</start>
						<end>13050</end>
						<in>6900</in>
						<out>7050</out>
						<pproTicksIn>0</pproTicksIn>
						<pproTicksOut>149391889920000</pproTicksOut>
						<alphatype>none</alphatype>
						<pixelaspectratio>square</pixelaspectratio>
						<anamorphic>FALSE</anamorphic>
						<file id="file-34">
							<name>Travis_Kelce_talks_about_postponing_his_wedding_to_Fiance_Taylor_Swift_on_the_New_Heights_Podcast.mp4</name>
							<pathurl>file://localhost/Users/themalikano/Documents/VideoAutomation/premiere_videos/Travis_Kelce_talks_about_postponing_his_wedding_to_Fiance_Taylor_Swift_on_the_New_Heights_Podcast.mp4</pathurl>
							<rate>
								<timebase>30</timebase>
								<ntsc>FALSE</ntsc>
							</rate>
							<duration>17644</duration>
							<timecode>
								<rate>
									<timebase>30</timebase>
									<ntsc>FALSE</ntsc>
								</rate>
								<string>00:00:00:00</string>
								<frame>0</frame>
								<displayformat>NDF</displayformat>
							</timecode>
							<media>
								<video>
									<samplecharacteristics>
										<rate>
											<timebase>30</timebase>
											<ntsc>FALSE</ntsc>
										</rate>
										<width>1920</width>
										<height>1080</height>
										<anamorphic>FALSE</anamorphic>
										<pixelaspectratio>square</pixelaspectratio>
										<fielddominance>none</fielddominance>
									</samplecharacteristics>
								</video>
								<audio>
									<samplecharacteristics>
										<depth>16</depth>
										<samplerate>44100</samplerate>
									</samplecharacteristics>
									<channelcount>2</channelcount>
								</audio>
							</media>
						</file>
						<link>
							<linkclipref>clipitem-90</linkclipref>
							<mediatype>video</mediatype>
							<trackindex>1</trackindex>
							<clipindex>6</clipindex>
						</link>
						<link>
							<linkclipref>clipitem-98</linkclipref>
							<mediatype>audio</mediatype>
							<trackindex>1</trackindex>
							<clipindex>6</clipindex>
							<groupindex>1</groupindex>
						</link>
						<link>
							<linkclipref>clipitem-106</linkclipref>
							<mediatype>audio</mediatype>
							<trackindex>2</trackindex>
							<clipindex>6</clipindex>
							<groupindex>1</groupindex>
						</link>
						<logginginfo>
							<description />
							<scene />
							<shottake />
							<lognote />
							<good />
							<originalvideofilename />
							<originalaudiofilename />
						</logginginfo>
						<colorinfo>
							<lut />
							<lut1 />
							<asc_sop />
							<asc_sat />
							<lut2 />
						</colorinfo>
					<labels><label2>Forest</label2></labels></clipitem>
					<clipitem id="clipitem-89">
						<masterclipid>clipitem-5-7</masterclipid>
						<name>Travis_Kelce_s_appearance_on_The_Eras_Tour_during_I_Can_Do_It_With_A_Broken_Heart_in_London.mp4</name>
						<enabled>TRUE</enabled>
						<duration>150</duration>
						<rate>
							<timebase>25</timebase>
							<ntsc>FALSE</ntsc>
						</rate>
						<start>13050</start>
						<end>13200</end>
						<in>900</in>
						<out>1050</out>
						<pproTicksIn>0</pproTicksIn>
						<pproTicksOut>27525173760000</pproTicksOut>
						<alphatype>none</alphatype>
						<pixelaspectratio>square</pixelaspectratio>
						<anamorphic>FALSE</anamorphic>
						<file id="file-33">
							<name>Travis_Kelce_s_appearance_on_The_Eras_Tour_during_I_Can_Do_It_With_A_Broken_Heart_in_London.mp4</name>
							<pathurl>file://localhost/Users/themalikano/Documents/VideoAutomation/premiere_videos/Travis_Kelce_s_appearance_on_The_Eras_Tour_during_I_Can_Do_It_With_A_Broken_Heart_in_London.mp4</pathurl>
							<rate>
								<timebase>24</timebase>
								<ntsc>TRUE</ntsc>
							</rate>
							<duration>2599</duration>
							<timecode>
								<rate>
									<timebase>24</timebase>
									<ntsc>TRUE</ntsc>
								</rate>
								<string>00:00:00:00</string>
								<frame>0</frame>
								<displayformat>NDF</displayformat>
							</timecode>
							<media>
								<video>
									<samplecharacteristics>
										<rate>
											<timebase>24</timebase>
											<ntsc>TRUE</ntsc>
										</rate>
										<width>1920</width>
										<height>1080</height>
										<anamorphic>FALSE</anamorphic>
										<pixelaspectratio>square</pixelaspectratio>
										<fielddominance>none</fielddominance>
									</samplecharacteristics>
								</video>
								<audio>
									<samplecharacteristics>
										<depth>16</depth>
										<samplerate>44100</samplerate>
									</samplecharacteristics>
									<channelcount>2</channelcount>
								</audio>
							</media>
						</file>
						<link>
							<linkclipref>clipitem-89</linkclipref>
							<mediatype>video</mediatype>
							<trackindex>1</trackindex>
							<clipindex>5</clipindex>
						</link>
						<link>
							<linkclipref>clipitem-97</linkclipref>
							<mediatype>audio</mediatype>
							<trackindex>1</trackindex>
							<clipindex>5</clipindex>
							<groupindex>1</groupindex>
						</link>
						<link>
							<linkclipref>clipitem-105</linkclipref>
							<mediatype>audio</mediatype>
							<trackindex>2</trackindex>
							<clipindex>5</clipindex>
							<groupindex>1</groupindex>
						</link>
						<logginginfo>
							<description />
							<scene />
							<shottake />
							<lognote />
							<good />
							<originalvideofilename />
							<originalaudiofilename />
						</logginginfo>
						<colorinfo>
							<lut />
							<lut1 />
							<asc_sop />
							<asc_sat />
							<lut2 />
						</colorinfo>
					<labels><label2>Cerulean</label2></labels></clipitem>
					<clipitem id="clipitem-91">
						<masterclipid>clipitem-7-8</masterclipid>
						<name>What_Caused_Taylor_Swift-Blake_Lively_Rift_The_View.mp4</name>
						<enabled>TRUE</enabled>
						<duration>150</duration>
						<rate>
							<timebase>25</timebase>
							<ntsc>FALSE</ntsc>
						</rate>
						<start>13200</start>
						<end>13350</end>
						<in>1050</in>
						<out>1200</out>
						<pproTicksIn>0</pproTicksIn>
						<pproTicksOut>45733040640000</pproTicksOut>
						<alphatype>none</alphatype>
						<pixelaspectratio>square</pixelaspectratio>
						<anamorphic>FALSE</anamorphic>
						<file id="file-35">
							<name>What_Caused_Taylor_Swift-Blake_Lively_Rift_The_View.mp4</name>
							<pathurl>file://localhost/Users/themalikano/Documents/VideoAutomation/premiere_videos/What_Caused_Taylor_Swift-Blake_Lively_Rift_The_View.mp4</pathurl>
							<rate>
								<timebase>30</timebase>
								<ntsc>TRUE</ntsc>
							</rate>
							<duration>5397</duration>
							<timecode>
								<rate>
									<timebase>30</timebase>
									<ntsc>TRUE</ntsc>
								</rate>
								<string>00:00:00:00</string>
								<frame>0</frame>
								<displayformat>NDF</displayformat>
							</timecode>
							<media>
								<video>
									<samplecharacteristics>
										<rate>
											<timebase>30</timebase>
											<ntsc>TRUE</ntsc>
										</rate>
										<width>1280</width>
										<height>720</height>
										<anamorphic>FALSE</anamorphic>
										<pixelaspectratio>square</pixelaspectratio>
										<fielddominance>none</fielddominance>
									</samplecharacteristics>
								</video>
								<audio>
									<samplecharacteristics>
										<depth>16</depth>
										<samplerate>44100</samplerate>
									</samplecharacteristics>
									<channelcount>2</channelcount>
								</audio>
							</media>
						</file>
						<filter>
							<effect>
								<name>Basic Motion</name>
								<effectid>basic</effectid>
								<effectcategory>motion</effectcategory>
								<effecttype>motion</effecttype>
								<mediatype>video</mediatype>
								<pproBypass>false</pproBypass>
								<parameter authoringApp="PremierePro">
									<parameterid>scale</parameterid>
									<name>Scale</name>
									<valuemin>0</valuemin>
									<valuemax>1000</valuemax>
									<value>150</value>
								</parameter>
								<parameter authoringApp="PremierePro">
									<parameterid>rotation</parameterid>
									<name>Rotation</name>
									<valuemin>-8640</valuemin>
									<valuemax>8640</valuemax>
									<value>0</value>
								</parameter>
								<parameter authoringApp="PremierePro">
									<parameterid>center</parameterid>
									<name>Center</name>
									<value>
										<horiz>0</horiz>
										<vert>0</vert>
									</value>
								</parameter>
								<parameter authoringApp="PremierePro">
									<parameterid>centerOffset</parameterid>
									<name>Anchor Point</name>
									<value>
										<horiz>0</horiz>
										<vert>0</vert>
									</value>
								</parameter>
								<parameter authoringApp="PremierePro">
									<parameterid>antiflicker</parameterid>
									<name>Anti-flicker Filter</name>
									<valuemin>0.0</valuemin>
									<valuemax>1.0</valuemax>
									<value>0</value>
								</parameter>
							</effect>
						</filter>
						<link>
							<linkclipref>clipitem-91</linkclipref>
							<mediatype>video</mediatype>
							<trackindex>1</trackindex>
							<clipindex>7</clipindex>
						</link>
						<link>
							<linkclipref>clipitem-99</linkclipref>
							<mediatype>audio</mediatype>
							<trackindex>1</trackindex>
							<clipindex>7</clipindex>
							<groupindex>1</groupindex>
						</link>
						<link>
							<linkclipref>clipitem-107</linkclipref>
							<mediatype>audio</mediatype>
							<trackindex>2</trackindex>
							<clipindex>7</clipindex>
							<groupindex>1</groupindex>
						</link>
						<logginginfo>
							<description />
							<scene />
							<shottake />
							<lognote />
							<good />
							<originalvideofilename />
							<originalaudiofilename />
						</logginginfo>
						<colorinfo>
							<lut />
							<lut1 />
							<asc_sop />
							<asc_sat />
							<lut2 />
						</colorinfo>
					<labels><label2>Rose</label2></labels></clipitem>
					<clipitem id="clipitem-86">
						<masterclipid>clipitem-2-7</masterclipid>
						<name>Taylor_Swift_Shares_The_Story_Of_Calling_Travis_Kelce_For_The_First_Time.mp4</name>
						<enabled>TRUE</enabled>
						<duration>150</duration>
						<rate>
							<timebase>25</timebase>
							<ntsc>FALSE</ntsc>
						</rate>
						<start>13350</start>
						<end>13500</end>
						<in>900</in>
						<out>1050</out>
						<pproTicksIn>0</pproTicksIn>
						<pproTicksOut>236438092800000</pproTicksOut>
						<alphatype>none</alphatype>
						<pixelaspectratio>square</pixelaspectratio>
						<anamorphic>FALSE</anamorphic>
						<file id="file-30">
							<name>Taylor_Swift_Shares_The_Story_Of_Calling_Travis_Kelce_For_The_First_Time.mp4</name>
							<pathurl>file://localhost/Users/themalikano/Documents/VideoAutomation/premiere_videos/Taylor_Swift_Shares_The_Story_Of_Calling_Travis_Kelce_For_The_First_Time.mp4</pathurl>
							<rate>
								<timebase>30</timebase>
								<ntsc>TRUE</ntsc>
							</rate>
							<duration>27897</duration>
							<timecode>
								<rate>
									<timebase>30</timebase>
									<ntsc>TRUE</ntsc>
								</rate>
								<string>00:00:00:00</string>
								<frame>0</frame>
								<displayformat>NDF</displayformat>
							</timecode>
							<media>
								<video>
									<samplecharacteristics>
										<rate>
											<timebase>30</timebase>
											<ntsc>TRUE</ntsc>
										</rate>
										<width>1920</width>
										<height>1080</height>
										<anamorphic>FALSE</anamorphic>
										<pixelaspectratio>square</pixelaspectratio>
										<fielddominance>none</fielddominance>
									</samplecharacteristics>
								</video>
								<audio>
									<samplecharacteristics>
										<depth>16</depth>
										<samplerate>44100</samplerate>
									</samplecharacteristics>
									<channelcount>2</channelcount>
								</audio>
							</media>
						</file>
						<link>
							<linkclipref>clipitem-86</linkclipref>
							<mediatype>video</mediatype>
							<trackindex>1</trackindex>
							<clipindex>2</clipindex>
						</link>
						<link>
							<linkclipref>clipitem-94</linkclipref>
							<mediatype>audio</mediatype>
							<trackindex>1</trackindex>
							<clipindex>2</clipindex>
							<groupindex>1</groupindex>
						</link>
						<link>
							<linkclipref>clipitem-102</linkclipref>
							<mediatype>audio</mediatype>
							<trackindex>2</trackindex>
							<clipindex>2</clipindex>
							<groupindex>1</groupindex>
						</link>
						<logginginfo>
							<description />
							<scene />
							<shottake />
							<lognote />
							<good />
							<originalvideofilename />
							<originalaudiofilename />
						</logginginfo>
						<colorinfo>
							<lut />
							<lut1 />
							<asc_sop />
							<asc_sat />
							<lut2 />
						</colorinfo>
					<labels><label2>Iris</label2></labels></clipitem>
					<clipitem id="clipitem-89">
						<masterclipid>clipitem-5-2</masterclipid>
						<name>Travis_Kelce_s_appearance_on_The_Eras_Tour_during_I_Can_Do_It_With_A_Broken_Heart_in_London.mp4</name>
						<enabled>TRUE</enabled>
						<duration>150</duration>
						<rate>
							<timebase>25</timebase>
							<ntsc>FALSE</ntsc>
						</rate>
						<start>13500</start>
						<end>13650</end>
						<in>150</in>
						<out>300</out>
						<pproTicksIn>0</pproTicksIn>
						<pproTicksOut>27525173760000</pproTicksOut>
						<alphatype>none</alphatype>
						<pixelaspectratio>square</pixelaspectratio>
						<anamorphic>FALSE</anamorphic>
						<file id="file-33">
							<name>Travis_Kelce_s_appearance_on_The_Eras_Tour_during_I_Can_Do_It_With_A_Broken_Heart_in_London.mp4</name>
							<pathurl>file://localhost/Users/themalikano/Documents/VideoAutomation/premiere_videos/Travis_Kelce_s_appearance_on_The_Eras_Tour_during_I_Can_Do_It_With_A_Broken_Heart_in_London.mp4</pathurl>
							<rate>
								<timebase>24</timebase>
								<ntsc>TRUE</ntsc>
							</rate>
							<duration>2599</duration>
							<timecode>
								<rate>
									<timebase>24</timebase>
									<ntsc>TRUE</ntsc>
								</rate>
								<string>00:00:00:00</string>
								<frame>0</frame>
								<displayformat>NDF</displayformat>
							</timecode>
							<media>
								<video>
									<samplecharacteristics>
										<rate>
											<timebase>24</timebase>
											<ntsc>TRUE</ntsc>
										</rate>
										<width>1920</width>
										<height>1080</height>
										<anamorphic>FALSE</anamorphic>
										<pixelaspectratio>square</pixelaspectratio>
										<fielddominance>none</fielddominance>
									</samplecharacteristics>
								</video>
								<audio>
									<samplecharacteristics>
										<depth>16</depth>
										<samplerate>44100</samplerate>
									</samplecharacteristics>
									<channelcount>2</channelcount>
								</audio>
							</media>
						</file>
						<link>
							<linkclipref>clipitem-89</linkclipref>
							<mediatype>video</mediatype>
							<trackindex>1</trackindex>
							<clipindex>5</clipindex>
						</link>
						<link>
							<linkclipref>clipitem-97</linkclipref>
							<mediatype>audio</mediatype>
							<trackindex>1</trackindex>
							<clipindex>5</clipindex>
							<groupindex>1</groupindex>
						</link>
						<link>
							<linkclipref>clipitem-105</linkclipref>
							<mediatype>audio</mediatype>
							<trackindex>2</trackindex>
							<clipindex>5</clipindex>
							<groupindex>1</groupindex>
						</link>
						<logginginfo>
							<description />
							<scene />
							<shottake />
							<lognote />
							<good />
							<originalvideofilename />
							<originalaudiofilename />
						</logginginfo>
						<colorinfo>
							<lut />
							<lut1 />
							<asc_sop />
							<asc_sat />
							<lut2 />
						</colorinfo>
					<labels><label2>Cerulean</label2></labels></clipitem>
					<clipitem id="clipitem-92">
						<masterclipid>clipitem-8-15</masterclipid>
						<name>Why_Travis_Kelce_Jokes_Taylor_Swift_Is_Going_to_KILL_Him.mp4</name>
						<enabled>TRUE</enabled>
						<duration>150</duration>
						<rate>
							<timebase>25</timebase>
							<ntsc>FALSE</ntsc>
						</rate>
						<start>13650</start>
						<end>13800</end>
						<in>2100</in>
						<out>2250</out>
						<pproTicksIn>0</pproTicksIn>
						<pproTicksOut>25249190400000</pproTicksOut>
						<alphatype>none</alphatype>
						<pixelaspectratio>square</pixelaspectratio>
						<anamorphic>FALSE</anamorphic>
						<file id="file-36">
							<name>Why_Travis_Kelce_Jokes_Taylor_Swift_Is_Going_to_KILL_Him.mp4</name>
							<pathurl>file://localhost/Users/themalikano/Documents/VideoAutomation/premiere_videos/Why_Travis_Kelce_Jokes_Taylor_Swift_Is_Going_to_KILL_Him.mp4</pathurl>
							<rate>
								<timebase>30</timebase>
								<ntsc>TRUE</ntsc>
							</rate>
							<duration>2980</duration>
							<timecode>
								<rate>
									<timebase>30</timebase>
									<ntsc>TRUE</ntsc>
								</rate>
								<string>00:00:00:00</string>
								<frame>0</frame>
								<displayformat>NDF</displayformat>
							</timecode>
							<media>
								<video>
									<samplecharacteristics>
										<rate>
											<timebase>30</timebase>
											<ntsc>TRUE</ntsc>
										</rate>
										<width>1920</width>
										<height>1080</height>
										<anamorphic>FALSE</anamorphic>
										<pixelaspectratio>square</pixelaspectratio>
										<fielddominance>none</fielddominance>
									</samplecharacteristics>
								</video>
								<audio>
									<samplecharacteristics>
										<depth>16</depth>
										<samplerate>44100</samplerate>
									</samplecharacteristics>
									<channelcount>2</channelcount>
								</audio>
							</media>
						</file>
						<link>
							<linkclipref>clipitem-92</linkclipref>
							<mediatype>video</mediatype>
							<trackindex>1</trackindex>
							<clipindex>8</clipindex>
						</link>
						<link>
							<linkclipref>clipitem-100</linkclipref>
							<mediatype>audio</mediatype>
							<trackindex>1</trackindex>
							<clipindex>8</clipindex>
							<groupindex>1</groupindex>
						</link>
						<link>
							<linkclipref>clipitem-108</linkclipref>
							<mediatype>audio</mediatype>
							<trackindex>2</trackindex>
							<clipindex>8</clipindex>
							<groupindex>1</groupindex>
						</link>
						<logginginfo>
							<description />
							<scene />
							<shottake />
							<lognote />
							<good />
							<originalvideofilename />
							<originalaudiofilename />
						</logginginfo>
						<colorinfo>
							<lut />
							<lut1 />
							<asc_sop />
							<asc_sat />
							<lut2 />
						</colorinfo>
					<labels><label2>Mango</label2></labels></clipitem>
					<clipitem id="clipitem-89">
						<masterclipid>clipitem-5-4</masterclipid>
						<name>Travis_Kelce_s_appearance_on_The_Eras_Tour_during_I_Can_Do_It_With_A_Broken_Heart_in_London.mp4</name>
						<enabled>TRUE</enabled>
						<duration>150</duration>
						<rate>
							<timebase>25</timebase>
							<ntsc>FALSE</ntsc>
						</rate>
						<start>13800</start>
						<end>13950</end>
						<in>450</in>
						<out>600</out>
						<pproTicksIn>0</pproTicksIn>
						<pproTicksOut>27525173760000</pproTicksOut>
						<alphatype>none</alphatype>
						<pixelaspectratio>square</pixelaspectratio>
						<anamorphic>FALSE</anamorphic>
						<file id="file-33">
							<name>Travis_Kelce_s_appearance_on_The_Eras_Tour_during_I_Can_Do_It_With_A_Broken_Heart_in_London.mp4</name>
							<pathurl>file://localhost/Users/themalikano/Documents/VideoAutomation/premiere_videos/Travis_Kelce_s_appearance_on_The_Eras_Tour_during_I_Can_Do_It_With_A_Broken_Heart_in_London.mp4</pathurl>
							<rate>
								<timebase>24</timebase>
								<ntsc>TRUE</ntsc>
							</rate>
							<duration>2599</duration>
							<timecode>
								<rate>
									<timebase>24</timebase>
									<ntsc>TRUE</ntsc>
								</rate>
								<string>00:00:00:00</string>
								<frame>0</frame>
								<displayformat>NDF</displayformat>
							</timecode>
							<media>
								<video>
									<samplecharacteristics>
										<rate>
											<timebase>24</timebase>
											<ntsc>TRUE</ntsc>
										</rate>
										<width>1920</width>
										<height>1080</height>
										<anamorphic>FALSE</anamorphic>
										<pixelaspectratio>square</pixelaspectratio>
										<fielddominance>none</fielddominance>
									</samplecharacteristics>
								</video>
								<audio>
									<samplecharacteristics>
										<depth>16</depth>
										<samplerate>44100</samplerate>
									</samplecharacteristics>
									<channelcount>2</channelcount>
								</audio>
							</media>
						</file>
						<link>
							<linkclipref>clipitem-89</linkclipref>
							<mediatype>video</mediatype>
							<trackindex>1</trackindex>
							<clipindex>5</clipindex>
						</link>
						<link>
							<linkclipref>clipitem-97</linkclipref>
							<mediatype>audio</mediatype>
							<trackindex>1</trackindex>
							<clipindex>5</clipindex>
							<groupindex>1</groupindex>
						</link>
						<link>
							<linkclipref>clipitem-105</linkclipref>
							<mediatype>audio</mediatype>
							<trackindex>2</trackindex>
							<clipindex>5</clipindex>
							<groupindex>1</groupindex>
						</link>
						<logginginfo>
							<description />
							<scene />
							<shottake />
							<lognote />
							<good />
							<originalvideofilename />
							<originalaudiofilename />
						</logginginfo>
						<colorinfo>
							<lut />
							<lut1 />
							<asc_sop />
							<asc_sat />
							<lut2 />
						</colorinfo>
					<labels><label2>Cerulean</label2></labels></clipitem>
					<clipitem id="clipitem-90">
						<masterclipid>clipitem-6-56</masterclipid>
						<name>Travis_Kelce_talks_about_postponing_his_wedding_to_Fiance_Taylor_Swift_on_the_New_Heights_Podcast.mp4</name>
						<enabled>TRUE</enabled>
						<duration>150</duration>
						<rate>
							<timebase>25</timebase>
							<ntsc>FALSE</ntsc>
						</rate>
						<start>13950</start>
						<end>14100</end>
						<in>8250</in>
						<out>8400</out>
						<pproTicksIn>0</pproTicksIn>
						<pproTicksOut>149391889920000</pproTicksOut>
						<alphatype>none</alphatype>
						<pixelaspectratio>square</pixelaspectratio>
						<anamorphic>FALSE</anamorphic>
						<file id="file-34">
							<name>Travis_Kelce_talks_about_postponing_his_wedding_to_Fiance_Taylor_Swift_on_the_New_Heights_Podcast.mp4</name>
							<pathurl>file://localhost/Users/themalikano/Documents/VideoAutomation/premiere_videos/Travis_Kelce_talks_about_postponing_his_wedding_to_Fiance_Taylor_Swift_on_the_New_Heights_Podcast.mp4</pathurl>
							<rate>
								<timebase>30</timebase>
								<ntsc>FALSE</ntsc>
							</rate>
							<duration>17644</duration>
							<timecode>
								<rate>
									<timebase>30</timebase>
									<ntsc>FALSE</ntsc>
								</rate>
								<string>00:00:00:00</string>
								<frame>0</frame>
								<displayformat>NDF</displayformat>
							</timecode>
							<media>
								<video>
									<samplecharacteristics>
										<rate>
											<timebase>30</timebase>
											<ntsc>FALSE</ntsc>
										</rate>
										<width>1920</width>
										<height>1080</height>
										<anamorphic>FALSE</anamorphic>
										<pixelaspectratio>square</pixelaspectratio>
										<fielddominance>none</fielddominance>
									</samplecharacteristics>
								</video>
								<audio>
									<samplecharacteristics>
										<depth>16</depth>
										<samplerate>44100</samplerate>
									</samplecharacteristics>
									<channelcount>2</channelcount>
								</audio>
							</media>
						</file>
						<link>
							<linkclipref>clipitem-90</linkclipref>
							<mediatype>video</mediatype>
							<trackindex>1</trackindex>
							<clipindex>6</clipindex>
						</link>
						<link>
							<linkclipref>clipitem-98</linkclipref>
							<mediatype>audio</mediatype>
							<trackindex>1</trackindex>
							<clipindex>6</clipindex>
							<groupindex>1</groupindex>
						</link>
						<link>
							<linkclipref>clipitem-106</linkclipref>
							<mediatype>audio</mediatype>
							<trackindex>2</trackindex>
							<clipindex>6</clipindex>
							<groupindex>1</groupindex>
						</link>
						<logginginfo>
							<description />
							<scene />
							<shottake />
							<lognote />
							<good />
							<originalvideofilename />
							<originalaudiofilename />
						</logginginfo>
						<colorinfo>
							<lut />
							<lut1 />
							<asc_sop />
							<asc_sat />
							<lut2 />
						</colorinfo>
					<labels><label2>Forest</label2></labels></clipitem>
					<clipitem id="clipitem-88">
						<masterclipid>clipitem-4-115</masterclipid>
						<name>Travis_Kelce_ANNOUNCE_WEDDING_DATE_with_Taylor_Swift_Why_He_was_Delaying_all_Along.mp4</name>
						<enabled>TRUE</enabled>
						<duration>150</duration>
						<rate>
							<timebase>25</timebase>
							<ntsc>FALSE</ntsc>
						</rate>
						<start>14100</start>
						<end>14250</end>
						<in>17100</in>
						<out>17250</out>
						<pproTicksIn>0</pproTicksIn>
						<pproTicksOut>419410897920000</pproTicksOut>
						<alphatype>none</alphatype>
						<pixelaspectratio>square</pixelaspectratio>
						<anamorphic>FALSE</anamorphic>
						<file id="file-32">
							<name>Travis_Kelce_ANNOUNCE_WEDDING_DATE_with_Taylor_Swift_Why_He_was_Delaying_all_Along.mp4</name>
							<pathurl>file://localhost/Users/themalikano/Documents/VideoAutomation/premiere_videos/Travis_Kelce_ANNOUNCE_WEDDING_DATE_with_Taylor_Swift_Why_He_was_Delaying_all_Along.mp4</pathurl>
							<rate>
								<timebase>24</timebase>
								<ntsc>FALSE</ntsc>
							</rate>
							<duration>39627</duration>
							<timecode>
								<rate>
									<timebase>24</timebase>
									<ntsc>FALSE</ntsc>
								</rate>
								<string>00:00:00:00</string>
								<frame>0</frame>
								<displayformat>NDF</displayformat>
							</timecode>
							<media>
								<video>
									<samplecharacteristics>
										<rate>
											<timebase>24</timebase>
											<ntsc>FALSE</ntsc>
										</rate>
										<width>852</width>
										<height>480</height>
										<anamorphic>FALSE</anamorphic>
										<pixelaspectratio>square</pixelaspectratio>
										<fielddominance>none</fielddominance>
									</samplecharacteristics>
								</video>
								<audio>
									<samplecharacteristics>
										<depth>16</depth>
										<samplerate>44100</samplerate>
									</samplecharacteristics>
									<channelcount>2</channelcount>
								</audio>
							</media>
						</file>
						<filter>
							<effect>
								<name>Basic Motion</name>
								<effectid>basic</effectid>
								<effectcategory>motion</effectcategory>
								<effecttype>motion</effecttype>
								<mediatype>video</mediatype>
								<pproBypass>false</pproBypass>
								<parameter authoringApp="PremierePro">
									<parameterid>scale</parameterid>
									<name>Scale</name>
									<valuemin>0</valuemin>
									<valuemax>1000</valuemax>
									<value>225</value>
								</parameter>
								<parameter authoringApp="PremierePro">
									<parameterid>rotation</parameterid>
									<name>Rotation</name>
									<valuemin>-8640</valuemin>
									<valuemax>8640</valuemax>
									<value>0</value>
								</parameter>
								<parameter authoringApp="PremierePro">
									<parameterid>center</parameterid>
									<name>Center</name>
									<value>
										<horiz>0</horiz>
										<vert>0</vert>
									</value>
								</parameter>
								<parameter authoringApp="PremierePro">
									<parameterid>centerOffset</parameterid>
									<name>Anchor Point</name>
									<value>
										<horiz>0</horiz>
										<vert>0</vert>
									</value>
								</parameter>
								<parameter authoringApp="PremierePro">
									<parameterid>antiflicker</parameterid>
									<name>Anti-flicker Filter</name>
									<valuemin>0.0</valuemin>
									<valuemax>1.0</valuemax>
									<value>0</value>
								</parameter>
							</effect>
						</filter>
						<link>
							<linkclipref>clipitem-88</linkclipref>
							<mediatype>video</mediatype>
							<trackindex>1</trackindex>
							<clipindex>4</clipindex>
						</link>
						<link>
							<linkclipref>clipitem-96</linkclipref>
							<mediatype>audio</mediatype>
							<trackindex>1</trackindex>
							<clipindex>4</clipindex>
							<groupindex>1</groupindex>
						</link>
						<link>
							<linkclipref>clipitem-104</linkclipref>
							<mediatype>audio</mediatype>
							<trackindex>2</trackindex>
							<clipindex>4</clipindex>
							<groupindex>1</groupindex>
						</link>
						<logginginfo>
							<description />
							<scene />
							<shottake />
							<lognote />
							<good />
							<originalvideofilename />
							<originalaudiofilename />
						</logginginfo>
						<colorinfo>
							<lut />
							<lut1 />
							<asc_sop />
							<asc_sat />
							<lut2 />
						</colorinfo>
					<labels><label2>Lavender</label2></labels></clipitem>
					<clipitem id="clipitem-91">
						<masterclipid>clipitem-7-7</masterclipid>
						<name>What_Caused_Taylor_Swift-Blake_Lively_Rift_The_View.mp4</name>
						<enabled>TRUE</enabled>
						<duration>150</duration>
						<rate>
							<timebase>25</timebase>
							<ntsc>FALSE</ntsc>
						</rate>
						<start>14250</start>
						<end>14400</end>
						<in>900</in>
						<out>1050</out>
						<pproTicksIn>0</pproTicksIn>
						<pproTicksOut>45733040640000</pproTicksOut>
						<alphatype>none</alphatype>
						<pixelaspectratio>square</pixelaspectratio>
						<anamorphic>FALSE</anamorphic>
						<file id="file-35">
							<name>What_Caused_Taylor_Swift-Blake_Lively_Rift_The_View.mp4</name>
							<pathurl>file://localhost/Users/themalikano/Documents/VideoAutomation/premiere_videos/What_Caused_Taylor_Swift-Blake_Lively_Rift_The_View.mp4</pathurl>
							<rate>
								<timebase>30</timebase>
								<ntsc>TRUE</ntsc>
							</rate>
							<duration>5397</duration>
							<timecode>
								<rate>
									<timebase>30</timebase>
									<ntsc>TRUE</ntsc>
								</rate>
								<string>00:00:00:00</string>
								<frame>0</frame>
								<displayformat>NDF</displayformat>
							</timecode>
							<media>
								<video>
									<samplecharacteristics>
										<rate>
											<timebase>30</timebase>
											<ntsc>TRUE</ntsc>
										</rate>
										<width>1280</width>
										<height>720</height>
										<anamorphic>FALSE</anamorphic>
										<pixelaspectratio>square</pixelaspectratio>
										<fielddominance>none</fielddominance>
									</samplecharacteristics>
								</video>
								<audio>
									<samplecharacteristics>
										<depth>16</depth>
										<samplerate>44100</samplerate>
									</samplecharacteristics>
									<channelcount>2</channelcount>
								</audio>
							</media>
						</file>
						<filter>
							<effect>
								<name>Basic Motion</name>
								<effectid>basic</effectid>
								<effectcategory>motion</effectcategory>
								<effecttype>motion</effecttype>
								<mediatype>video</mediatype>
								<pproBypass>false</pproBypass>
								<parameter authoringApp="PremierePro">
									<parameterid>scale</parameterid>
									<name>Scale</name>
									<valuemin>0</valuemin>
									<valuemax>1000</valuemax>
									<value>150</value>
								</parameter>
								<parameter authoringApp="PremierePro">
									<parameterid>rotation</parameterid>
									<name>Rotation</name>
									<valuemin>-8640</valuemin>
									<valuemax>8640</valuemax>
									<value>0</value>
								</parameter>
								<parameter authoringApp="PremierePro">
									<parameterid>center</parameterid>
									<name>Center</name>
									<value>
										<horiz>0</horiz>
										<vert>0</vert>
									</value>
								</parameter>
								<parameter authoringApp="PremierePro">
									<parameterid>centerOffset</parameterid>
									<name>Anchor Point</name>
									<value>
										<horiz>0</horiz>
										<vert>0</vert>
									</value>
								</parameter>
								<parameter authoringApp="PremierePro">
									<parameterid>antiflicker</parameterid>
									<name>Anti-flicker Filter</name>
									<valuemin>0.0</valuemin>
									<valuemax>1.0</valuemax>
									<value>0</value>
								</parameter>
							</effect>
						</filter>
						<link>
							<linkclipref>clipitem-91</linkclipref>
							<mediatype>video</mediatype>
							<trackindex>1</trackindex>
							<clipindex>7</clipindex>
						</link>
						<link>
							<linkclipref>clipitem-99</linkclipref>
							<mediatype>audio</mediatype>
							<trackindex>1</trackindex>
							<clipindex>7</clipindex>
							<groupindex>1</groupindex>
						</link>
						<link>
							<linkclipref>clipitem-107</linkclipref>
							<mediatype>audio</mediatype>
							<trackindex>2</trackindex>
							<clipindex>7</clipindex>
							<groupindex>1</groupindex>
						</link>
						<logginginfo>
							<description />
							<scene />
							<shottake />
							<lognote />
							<good />
							<originalvideofilename />
							<originalaudiofilename />
						</logginginfo>
						<colorinfo>
							<lut />
							<lut1 />
							<asc_sop />
							<asc_sat />
							<lut2 />
						</colorinfo>
					<labels><label2>Rose</label2></labels></clipitem>
					<clipitem id="clipitem-85">
						<masterclipid>clipitem-1-23</masterclipid>
						<name>Taylor_Swift_Reveals_What_Fiance_Travis_Kelce_Said_Before_Proposal_E_News.mp4</name>
						<enabled>TRUE</enabled>
						<duration>150</duration>
						<rate>
							<timebase>25</timebase>
							<ntsc>FALSE</ntsc>
						</rate>
						<start>14400</start>
						<end>14550</end>
						<in>3300</in>
						<out>3450</out>
						<pproTicksIn>0</pproTicksIn>
						<pproTicksOut>36039790080000</pproTicksOut>
						<alphatype>none</alphatype>
						<pixelaspectratio>square</pixelaspectratio>
						<anamorphic>FALSE</anamorphic>
						<file id="file-29">
							<name>Taylor_Swift_Reveals_What_Fiance_Travis_Kelce_Said_Before_Proposal_E_News.mp4</name>
							<pathurl>file://localhost/Users/themalikano/Documents/VideoAutomation/premiere_videos/Taylor_Swift_Reveals_What_Fiance_Travis_Kelce_Said_Before_Proposal_E_News.mp4</pathurl>
							<rate>
								<timebase>29</timebase>
								<ntsc>FALSE</ntsc>
							</rate>
							<duration>4115</duration>
							<timecode>
								<rate>
									<timebase>29</timebase>
									<ntsc>FALSE</ntsc>
								</rate>
								<string>00:00:00:00</string>
								<frame>0</frame>
								<displayformat>NDF</displayformat>
							</timecode>
							<media>
								<video>
									<samplecharacteristics>
										<rate>
											<timebase>29</timebase>
											<ntsc>FALSE</ntsc>
										</rate>
										<width>1920</width>
										<height>1080</height>
										<anamorphic>FALSE</anamorphic>
										<pixelaspectratio>square</pixelaspectratio>
										<fielddominance>none</fielddominance>
									</samplecharacteristics>
								</video>
								<audio>
									<samplecharacteristics>
										<depth>16</depth>
										<samplerate>44100</samplerate>
									</samplecharacteristics>
									<channelcount>2</channelcount>
								</audio>
							</media>
						</file>
						<link>
							<linkclipref>clipitem-85</linkclipref>
							<mediatype>video</mediatype>
							<trackindex>1</trackindex>
							<clipindex>1</clipindex>
						</link>
						<link>
							<linkclipref>clipitem-93</linkclipref>
							<mediatype>audio</mediatype>
							<trackindex>1</trackindex>
							<clipindex>1</clipindex>
							<groupindex>1</groupindex>
						</link>
						<link>
							<linkclipref>clipitem-101</linkclipref>
							<mediatype>audio</mediatype>
							<trackindex>2</trackindex>
							<clipindex>1</clipindex>
							<groupindex>1</groupindex>
						</link>
						<logginginfo>
							<description />
							<scene />
							<shottake />
							<lognote />
							<good />
							<originalvideofilename />
							<originalaudiofilename />
						</logginginfo>
						<colorinfo>
							<lut />
							<lut1 />
							<asc_sop />
							<asc_sat />
							<lut2 />
						</colorinfo>
					<labels><label2>Violet</label2></labels></clipitem>
					<clipitem id="clipitem-90">
						<masterclipid>clipitem-6-5</masterclipid>
						<name>Travis_Kelce_talks_about_postponing_his_wedding_to_Fiance_Taylor_Swift_on_the_New_Heights_Podcast.mp4</name>
						<enabled>TRUE</enabled>
						<duration>150</duration>
						<rate>
							<timebase>25</timebase>
							<ntsc>FALSE</ntsc>
						</rate>
						<start>14550</start>
						<end>14700</end>
						<in>600</in>
						<out>750</out>
						<pproTicksIn>0</pproTicksIn>
						<pproTicksOut>149391889920000</pproTicksOut>
						<alphatype>none</alphatype>
						<pixelaspectratio>square</pixelaspectratio>
						<anamorphic>FALSE</anamorphic>
						<file id="file-34">
							<name>Travis_Kelce_talks_about_postponing_his_wedding_to_Fiance_Taylor_Swift_on_the_New_Heights_Podcast.mp4</name>
							<pathurl>file://localhost/Users/themalikano/Documents/VideoAutomation/premiere_videos/Travis_Kelce_talks_about_postponing_his_wedding_to_Fiance_Taylor_Swift_on_the_New_Heights_Podcast.mp4</pathurl>
							<rate>
								<timebase>30</timebase>
								<ntsc>FALSE</ntsc>
							</rate>
							<duration>17644</duration>
							<timecode>
								<rate>
									<timebase>30</timebase>
									<ntsc>FALSE</ntsc>
								</rate>
								<string>00:00:00:00</string>
								<frame>0</frame>
								<displayformat>NDF</displayformat>
							</timecode>
							<media>
								<video>
									<samplecharacteristics>
										<rate>
											<timebase>30</timebase>
											<ntsc>FALSE</ntsc>
										</rate>
										<width>1920</width>
										<height>1080</height>
										<anamorphic>FALSE</anamorphic>
										<pixelaspectratio>square</pixelaspectratio>
										<fielddominance>none</fielddominance>
									</samplecharacteristics>
								</video>
								<audio>
									<samplecharacteristics>
										<depth>16</depth>
										<samplerate>44100</samplerate>
									</samplecharacteristics>
									<channelcount>2</channelcount>
								</audio>
							</media>
						</file>
						<link>
							<linkclipref>clipitem-90</linkclipref>
							<mediatype>video</mediatype>
							<trackindex>1</trackindex>
							<clipindex>6</clipindex>
						</link>
						<link>
							<linkclipref>clipitem-98</linkclipref>
							<mediatype>audio</mediatype>
							<trackindex>1</trackindex>
							<clipindex>6</clipindex>
							<groupindex>1</groupindex>
						</link>
						<link>
							<linkclipref>clipitem-106</linkclipref>
							<mediatype>audio</mediatype>
							<trackindex>2</trackindex>
							<clipindex>6</clipindex>
							<groupindex>1</groupindex>
						</link>
						<logginginfo>
							<description />
							<scene />
							<shottake />
							<lognote />
							<good />
							<originalvideofilename />
							<originalaudiofilename />
						</logginginfo>
						<colorinfo>
							<lut />
							<lut1 />
							<asc_sop />
							<asc_sat />
							<lut2 />
						</colorinfo>
					<labels><label2>Forest</label2></labels></clipitem>
					<clipitem id="clipitem-85">
						<masterclipid>clipitem-1-10</masterclipid>
						<name>Taylor_Swift_Reveals_What_Fiance_Travis_Kelce_Said_Before_Proposal_E_News.mp4</name>
						<enabled>TRUE</enabled>
						<duration>150</duration>
						<rate>
							<timebase>25</timebase>
							<ntsc>FALSE</ntsc>
						</rate>
						<start>14700</start>
						<end>14850</end>
						<in>1350</in>
						<out>1500</out>
						<pproTicksIn>0</pproTicksIn>
						<pproTicksOut>36039790080000</pproTicksOut>
						<alphatype>none</alphatype>
						<pixelaspectratio>square</pixelaspectratio>
						<anamorphic>FALSE</anamorphic>
						<file id="file-29">
							<name>Taylor_Swift_Reveals_What_Fiance_Travis_Kelce_Said_Before_Proposal_E_News.mp4</name>
							<pathurl>file://localhost/Users/themalikano/Documents/VideoAutomation/premiere_videos/Taylor_Swift_Reveals_What_Fiance_Travis_Kelce_Said_Before_Proposal_E_News.mp4</pathurl>
							<rate>
								<timebase>29</timebase>
								<ntsc>FALSE</ntsc>
							</rate>
							<duration>4115</duration>
							<timecode>
								<rate>
									<timebase>29</timebase>
									<ntsc>FALSE</ntsc>
								</rate>
								<string>00:00:00:00</string>
								<frame>0</frame>
								<displayformat>NDF</displayformat>
							</timecode>
							<media>
								<video>
									<samplecharacteristics>
										<rate>
											<timebase>29</timebase>
											<ntsc>FALSE</ntsc>
										</rate>
										<width>1920</width>
										<height>1080</height>
										<anamorphic>FALSE</anamorphic>
										<pixelaspectratio>square</pixelaspectratio>
										<fielddominance>none</fielddominance>
									</samplecharacteristics>
								</video>
								<audio>
									<samplecharacteristics>
										<depth>16</depth>
										<samplerate>44100</samplerate>
									</samplecharacteristics>
									<channelcount>2</channelcount>
								</audio>
							</media>
						</file>
						<link>
							<linkclipref>clipitem-85</linkclipref>
							<mediatype>video</mediatype>
							<trackindex>1</trackindex>
							<clipindex>1</clipindex>
						</link>
						<link>
							<linkclipref>clipitem-93</linkclipref>
							<mediatype>audio</mediatype>
							<trackindex>1</trackindex>
							<clipindex>1</clipindex>
							<groupindex>1</groupindex>
						</link>
						<link>
							<linkclipref>clipitem-101</linkclipref>
							<mediatype>audio</mediatype>
							<trackindex>2</trackindex>
							<clipindex>1</clipindex>
							<groupindex>1</groupindex>
						</link>
						<logginginfo>
							<description />
							<scene />
							<shottake />
							<lognote />
							<good />
							<originalvideofilename />
							<originalaudiofilename />
						</logginginfo>
						<colorinfo>
							<lut />
							<lut1 />
							<asc_sop />
							<asc_sat />
							<lut2 />
						</colorinfo>
					<labels><label2>Violet</label2></labels></clipitem>
					<clipitem id="clipitem-91">
						<masterclipid>clipitem-7-27</masterclipid>
						<name>What_Caused_Taylor_Swift-Blake_Lively_Rift_The_View.mp4</name>
						<enabled>TRUE</enabled>
						<duration>150</duration>
						<rate>
							<timebase>25</timebase>
							<ntsc>FALSE</ntsc>
						</rate>
						<start>14850</start>
						<end>15000</end>
						<in>3900</in>
						<out>4050</out>
						<pproTicksIn>0</pproTicksIn>
						<pproTicksOut>45733040640000</pproTicksOut>
						<alphatype>none</alphatype>
						<pixelaspectratio>square</pixelaspectratio>
						<anamorphic>FALSE</anamorphic>
						<file id="file-35">
							<name>What_Caused_Taylor_Swift-Blake_Lively_Rift_The_View.mp4</name>
							<pathurl>file://localhost/Users/themalikano/Documents/VideoAutomation/premiere_videos/What_Caused_Taylor_Swift-Blake_Lively_Rift_The_View.mp4</pathurl>
							<rate>
								<timebase>30</timebase>
								<ntsc>TRUE</ntsc>
							</rate>
							<duration>5397</duration>
							<timecode>
								<rate>
									<timebase>30</timebase>
									<ntsc>TRUE</ntsc>
								</rate>
								<string>00:00:00:00</string>
								<frame>0</frame>
								<displayformat>NDF</displayformat>
							</timecode>
							<media>
								<video>
									<samplecharacteristics>
										<rate>
											<timebase>30</timebase>
											<ntsc>TRUE</ntsc>
										</rate>
										<width>1280</width>
										<height>720</height>
										<anamorphic>FALSE</anamorphic>
										<pixelaspectratio>square</pixelaspectratio>
										<fielddominance>none</fielddominance>
									</samplecharacteristics>
								</video>
								<audio>
									<samplecharacteristics>
										<depth>16</depth>
										<samplerate>44100</samplerate>
									</samplecharacteristics>
									<channelcount>2</channelcount>
								</audio>
							</media>
						</file>
						<filter>
							<effect>
								<name>Basic Motion</name>
								<effectid>basic</effectid>
								<effectcategory>motion</effectcategory>
								<effecttype>motion</effecttype>
								<mediatype>video</mediatype>
								<pproBypass>false</pproBypass>
								<parameter authoringApp="PremierePro">
									<parameterid>scale</parameterid>
									<name>Scale</name>
									<valuemin>0</valuemin>
									<valuemax>1000</valuemax>
									<value>150</value>
								</parameter>
								<parameter authoringApp="PremierePro">
									<parameterid>rotation</parameterid>
									<name>Rotation</name>
									<valuemin>-8640</valuemin>
									<valuemax>8640</valuemax>
									<value>0</value>
								</parameter>
								<parameter authoringApp="PremierePro">
									<parameterid>center</parameterid>
									<name>Center</name>
									<value>
										<horiz>0</horiz>
										<vert>0</vert>
									</value>
								</parameter>
								<parameter authoringApp="PremierePro">
									<parameterid>centerOffset</parameterid>
									<name>Anchor Point</name>
									<value>
										<horiz>0</horiz>
										<vert>0</vert>
									</value>
								</parameter>
								<parameter authoringApp="PremierePro">
									<parameterid>antiflicker</parameterid>
									<name>Anti-flicker Filter</name>
									<valuemin>0.0</valuemin>
									<valuemax>1.0</valuemax>
									<value>0</value>
								</parameter>
							</effect>
						</filter>
						<link>
							<linkclipref>clipitem-91</linkclipref>
							<mediatype>video</mediatype>
							<trackindex>1</trackindex>
							<clipindex>7</clipindex>
						</link>
						<link>
							<linkclipref>clipitem-99</linkclipref>
							<mediatype>audio</mediatype>
							<trackindex>1</trackindex>
							<clipindex>7</clipindex>
							<groupindex>1</groupindex>
						</link>
						<link>
							<linkclipref>clipitem-107</linkclipref>
							<mediatype>audio</mediatype>
							<trackindex>2</trackindex>
							<clipindex>7</clipindex>
							<groupindex>1</groupindex>
						</link>
						<logginginfo>
							<description />
							<scene />
							<shottake />
							<lognote />
							<good />
							<originalvideofilename />
							<originalaudiofilename />
						</logginginfo>
						<colorinfo>
							<lut />
							<lut1 />
							<asc_sop />
							<asc_sat />
							<lut2 />
						</colorinfo>
					<labels><label2>Rose</label2></labels></clipitem>
					<clipitem id="clipitem-87">
						<masterclipid>clipitem-3-243</masterclipid>
						<name>Taylor_Swift_Travis_Kelce_-_The_New_Power_Couple.mp4</name>
						<enabled>TRUE</enabled>
						<duration>150</duration>
						<rate>
							<timebase>25</timebase>
							<ntsc>FALSE</ntsc>
						</rate>
						<start>15000</start>
						<end>15150</end>
						<in>36300</in>
						<out>36450</out>
						<pproTicksIn>0</pproTicksIn>
						<pproTicksOut>875013995520000</pproTicksOut>
						<alphatype>none</alphatype>
						<pixelaspectratio>square</pixelaspectratio>
						<anamorphic>FALSE</anamorphic>
						<file id="file-31">
							<name>Taylor_Swift_Travis_Kelce_-_The_New_Power_Couple.mp4</name>
							<pathurl>file://localhost/Users/themalikano/Documents/VideoAutomation/premiere_videos/Taylor_Swift_Travis_Kelce_-_The_New_Power_Couple.mp4</pathurl>
							<rate>
								<timebase>25</timebase>
								<ntsc>FALSE</ntsc>
							</rate>
							<duration>86118</duration>
							<timecode>
								<rate>
									<timebase>25</timebase>
									<ntsc>FALSE</ntsc>
								</rate>
								<string>00:00:00:00</string>
								<frame>0</frame>
								<displayformat>NDF</displayformat>
							</timecode>
							<media>
								<video>
									<samplecharacteristics>
										<rate>
											<timebase>25</timebase>
											<ntsc>FALSE</ntsc>
										</rate>
										<width>1920</width>
										<height>1080</height>
										<anamorphic>FALSE</anamorphic>
										<pixelaspectratio>square</pixelaspectratio>
										<fielddominance>none</fielddominance>
									</samplecharacteristics>
								</video>
								<audio>
									<samplecharacteristics>
										<depth>16</depth>
										<samplerate>44100</samplerate>
									</samplecharacteristics>
									<channelcount>2</channelcount>
								</audio>
							</media>
						</file>
						<link>
							<linkclipref>clipitem-87</linkclipref>
							<mediatype>video</mediatype>
							<trackindex>1</trackindex>
							<clipindex>3</clipindex>
						</link>
						<link>
							<linkclipref>clipitem-95</linkclipref>
							<mediatype>audio</mediatype>
							<trackindex>1</trackindex>
							<clipindex>3</clipindex>
							<groupindex>1</groupindex>
						</link>
						<link>
							<linkclipref>clipitem-103</linkclipref>
							<mediatype>audio</mediatype>
							<trackindex>2</trackindex>
							<clipindex>3</clipindex>
							<groupindex>1</groupindex>
						</link>
						<logginginfo>
							<description />
							<scene />
							<shottake />
							<lognote />
							<good />
							<originalvideofilename />
							<originalaudiofilename />
						</logginginfo>
						<colorinfo>
							<lut />
							<lut1 />
							<asc_sop />
							<asc_sat />
							<lut2 />
						</colorinfo>
					<labels><label2>Caribbean</label2></labels></clipitem>
					<clipitem id="clipitem-86">
						<masterclipid>clipitem-2-24</masterclipid>
						<name>Taylor_Swift_Shares_The_Story_Of_Calling_Travis_Kelce_For_The_First_Time.mp4</name>
						<enabled>TRUE</enabled>
						<duration>150</duration>
						<rate>
							<timebase>25</timebase>
							<ntsc>FALSE</ntsc>
						</rate>
						<start>15150</start>
						<end>15300</end>
						<in>3450</in>
						<out>3600</out>
						<pproTicksIn>0</pproTicksIn>
						<pproTicksOut>236438092800000</pproTicksOut>
						<alphatype>none</alphatype>
						<pixelaspectratio>square</pixelaspectratio>
						<anamorphic>FALSE</anamorphic>
						<file id="file-30">
							<name>Taylor_Swift_Shares_The_Story_Of_Calling_Travis_Kelce_For_The_First_Time.mp4</name>
							<pathurl>file://localhost/Users/themalikano/Documents/VideoAutomation/premiere_videos/Taylor_Swift_Shares_The_Story_Of_Calling_Travis_Kelce_For_The_First_Time.mp4</pathurl>
							<rate>
								<timebase>30</timebase>
								<ntsc>TRUE</ntsc>
							</rate>
							<duration>27897</duration>
							<timecode>
								<rate>
									<timebase>30</timebase>
									<ntsc>TRUE</ntsc>
								</rate>
								<string>00:00:00:00</string>
								<frame>0</frame>
								<displayformat>NDF</displayformat>
							</timecode>
							<media>
								<video>
									<samplecharacteristics>
										<rate>
											<timebase>30</timebase>
											<ntsc>TRUE</ntsc>
										</rate>
										<width>1920</width>
										<height>1080</height>
										<anamorphic>FALSE</anamorphic>
										<pixelaspectratio>square</pixelaspectratio>
										<fielddominance>none</fielddominance>
									</samplecharacteristics>
								</video>
								<audio>
									<samplecharacteristics>
										<depth>16</depth>
										<samplerate>44100</samplerate>
									</samplecharacteristics>
									<channelcount>2</channelcount>
								</audio>
							</media>
						</file>
						<link>
							<linkclipref>clipitem-86</linkclipref>
							<mediatype>video</mediatype>
							<trackindex>1</trackindex>
							<clipindex>2</clipindex>
						</link>
						<link>
							<linkclipref>clipitem-94</linkclipref>
							<mediatype>audio</mediatype>
							<trackindex>1</trackindex>
							<clipindex>2</clipindex>
							<groupindex>1</groupindex>
						</link>
						<link>
							<linkclipref>clipitem-102</linkclipref>
							<mediatype>audio</mediatype>
							<trackindex>2</trackindex>
							<clipindex>2</clipindex>
							<groupindex>1</groupindex>
						</link>
						<logginginfo>
							<description />
							<scene />
							<shottake />
							<lognote />
							<good />
							<originalvideofilename />
							<originalaudiofilename />
						</logginginfo>
						<colorinfo>
							<lut />
							<lut1 />
							<asc_sop />
							<asc_sat />
							<lut2 />
						</colorinfo>
					<labels><label2>Iris</label2></labels></clipitem>
					<clipitem id="clipitem-90">
						<masterclipid>clipitem-6-9</masterclipid>
						<name>Travis_Kelce_talks_about_postponing_his_wedding_to_Fiance_Taylor_Swift_on_the_New_Heights_Podcast.mp4</name>
						<enabled>TRUE</enabled>
						<duration>150</duration>
						<rate>
							<timebase>25</timebase>
							<ntsc>FALSE</ntsc>
						</rate>
						<start>15300</start>
						<end>15450</end>
						<in>1200</in>
						<out>1350</out>
						<pproTicksIn>0</pproTicksIn>
						<pproTicksOut>149391889920000</pproTicksOut>
						<alphatype>none</alphatype>
						<pixelaspectratio>square</pixelaspectratio>
						<anamorphic>FALSE</anamorphic>
						<file id="file-34">
							<name>Travis_Kelce_talks_about_postponing_his_wedding_to_Fiance_Taylor_Swift_on_the_New_Heights_Podcast.mp4</name>
							<pathurl>file://localhost/Users/themalikano/Documents/VideoAutomation/premiere_videos/Travis_Kelce_talks_about_postponing_his_wedding_to_Fiance_Taylor_Swift_on_the_New_Heights_Podcast.mp4</pathurl>
							<rate>
								<timebase>30</timebase>
								<ntsc>FALSE</ntsc>
							</rate>
							<duration>17644</duration>
							<timecode>
								<rate>
									<timebase>30</timebase>
									<ntsc>FALSE</ntsc>
								</rate>
								<string>00:00:00:00</string>
								<frame>0</frame>
								<displayformat>NDF</displayformat>
							</timecode>
							<media>
								<video>
									<samplecharacteristics>
										<rate>
											<timebase>30</timebase>
											<ntsc>FALSE</ntsc>
										</rate>
										<width>1920</width>
										<height>1080</height>
										<anamorphic>FALSE</anamorphic>
										<pixelaspectratio>square</pixelaspectratio>
										<fielddominance>none</fielddominance>
									</samplecharacteristics>
								</video>
								<audio>
									<samplecharacteristics>
										<depth>16</depth>
										<samplerate>44100</samplerate>
									</samplecharacteristics>
									<channelcount>2</channelcount>
								</audio>
							</media>
						</file>
						<link>
							<linkclipref>clipitem-90</linkclipref>
							<mediatype>video</mediatype>
							<trackindex>1</trackindex>
							<clipindex>6</clipindex>
						</link>
						<link>
							<linkclipref>clipitem-98</linkclipref>
							<mediatype>audio</mediatype>
							<trackindex>1</trackindex>
							<clipindex>6</clipindex>
							<groupindex>1</groupindex>
						</link>
						<link>
							<linkclipref>clipitem-106</linkclipref>
							<mediatype>audio</mediatype>
							<trackindex>2</trackindex>
							<clipindex>6</clipindex>
							<groupindex>1</groupindex>
						</link>
						<logginginfo>
							<description />
							<scene />
							<shottake />
							<lognote />
							<good />
							<originalvideofilename />
							<originalaudiofilename />
						</logginginfo>
						<colorinfo>
							<lut />
							<lut1 />
							<asc_sop />
							<asc_sat />
							<lut2 />
						</colorinfo>
					<labels><label2>Forest</label2></labels></clipitem>
					<clipitem id="clipitem-85">
						<masterclipid>clipitem-1-13</masterclipid>
						<name>Taylor_Swift_Reveals_What_Fiance_Travis_Kelce_Said_Before_Proposal_E_News.mp4</name>
						<enabled>TRUE</enabled>
						<duration>150</duration>
						<rate>
							<timebase>25</timebase>
							<ntsc>FALSE</ntsc>
						</rate>
						<start>15450</start>
						<end>15600</end>
						<in>1800</in>
						<out>1950</out>
						<pproTicksIn>0</pproTicksIn>
						<pproTicksOut>36039790080000</pproTicksOut>
						<alphatype>none</alphatype>
						<pixelaspectratio>square</pixelaspectratio>
						<anamorphic>FALSE</anamorphic>
						<file id="file-29">
							<name>Taylor_Swift_Reveals_What_Fiance_Travis_Kelce_Said_Before_Proposal_E_News.mp4</name>
							<pathurl>file://localhost/Users/themalikano/Documents/VideoAutomation/premiere_videos/Taylor_Swift_Reveals_What_Fiance_Travis_Kelce_Said_Before_Proposal_E_News.mp4</pathurl>
							<rate>
								<timebase>29</timebase>
								<ntsc>FALSE</ntsc>
							</rate>
							<duration>4115</duration>
							<timecode>
								<rate>
									<timebase>29</timebase>
									<ntsc>FALSE</ntsc>
								</rate>
								<string>00:00:00:00</string>
								<frame>0</frame>
								<displayformat>NDF</displayformat>
							</timecode>
							<media>
								<video>
									<samplecharacteristics>
										<rate>
											<timebase>29</timebase>
											<ntsc>FALSE</ntsc>
										</rate>
										<width>1920</width>
										<height>1080</height>
										<anamorphic>FALSE</anamorphic>
										<pixelaspectratio>square</pixelaspectratio>
										<fielddominance>none</fielddominance>
									</samplecharacteristics>
								</video>
								<audio>
									<samplecharacteristics>
										<depth>16</depth>
										<samplerate>44100</samplerate>
									</samplecharacteristics>
									<channelcount>2</channelcount>
								</audio>
							</media>
						</file>
						<link>
							<linkclipref>clipitem-85</linkclipref>
							<mediatype>video</mediatype>
							<trackindex>1</trackindex>
							<clipindex>1</clipindex>
						</link>
						<link>
							<linkclipref>clipitem-93</linkclipref>
							<mediatype>audio</mediatype>
							<trackindex>1</trackindex>
							<clipindex>1</clipindex>
							<groupindex>1</groupindex>
						</link>
						<link>
							<linkclipref>clipitem-101</linkclipref>
							<mediatype>audio</mediatype>
							<trackindex>2</trackindex>
							<clipindex>1</clipindex>
							<groupindex>1</groupindex>
						</link>
						<logginginfo>
							<description />
							<scene />
							<shottake />
							<lognote />
							<good />
							<originalvideofilename />
							<originalaudiofilename />
						</logginginfo>
						<colorinfo>
							<lut />
							<lut1 />
							<asc_sop />
							<asc_sat />
							<lut2 />
						</colorinfo>
					<labels><label2>Violet</label2></labels></clipitem>
					<clipitem id="clipitem-92">
						<masterclipid>clipitem-8-16</masterclipid>
						<name>Why_Travis_Kelce_Jokes_Taylor_Swift_Is_Going_to_KILL_Him.mp4</name>
						<enabled>TRUE</enabled>
						<duration>150</duration>
						<rate>
							<timebase>25</timebase>
							<ntsc>FALSE</ntsc>
						</rate>
						<start>15600</start>
						<end>15750</end>
						<in>2250</in>
						<out>2400</out>
						<pproTicksIn>0</pproTicksIn>
						<pproTicksOut>25249190400000</pproTicksOut>
						<alphatype>none</alphatype>
						<pixelaspectratio>square</pixelaspectratio>
						<anamorphic>FALSE</anamorphic>
						<file id="file-36">
							<name>Why_Travis_Kelce_Jokes_Taylor_Swift_Is_Going_to_KILL_Him.mp4</name>
							<pathurl>file://localhost/Users/themalikano/Documents/VideoAutomation/premiere_videos/Why_Travis_Kelce_Jokes_Taylor_Swift_Is_Going_to_KILL_Him.mp4</pathurl>
							<rate>
								<timebase>30</timebase>
								<ntsc>TRUE</ntsc>
							</rate>
							<duration>2980</duration>
							<timecode>
								<rate>
									<timebase>30</timebase>
									<ntsc>TRUE</ntsc>
								</rate>
								<string>00:00:00:00</string>
								<frame>0</frame>
								<displayformat>NDF</displayformat>
							</timecode>
							<media>
								<video>
									<samplecharacteristics>
										<rate>
											<timebase>30</timebase>
											<ntsc>TRUE</ntsc>
										</rate>
										<width>1920</width>
										<height>1080</height>
										<anamorphic>FALSE</anamorphic>
										<pixelaspectratio>square</pixelaspectratio>
										<fielddominance>none</fielddominance>
									</samplecharacteristics>
								</video>
								<audio>
									<samplecharacteristics>
										<depth>16</depth>
										<samplerate>44100</samplerate>
									</samplecharacteristics>
									<channelcount>2</channelcount>
								</audio>
							</media>
						</file>
						<link>
							<linkclipref>clipitem-92</linkclipref>
							<mediatype>video</mediatype>
							<trackindex>1</trackindex>
							<clipindex>8</clipindex>
						</link>
						<link>
							<linkclipref>clipitem-100</linkclipref>
							<mediatype>audio</mediatype>
							<trackindex>1</trackindex>
							<clipindex>8</clipindex>
							<groupindex>1</groupindex>
						</link>
						<link>
							<linkclipref>clipitem-108</linkclipref>
							<mediatype>audio</mediatype>
							<trackindex>2</trackindex>
							<clipindex>8</clipindex>
							<groupindex>1</groupindex>
						</link>
						<logginginfo>
							<description />
							<scene />
							<shottake />
							<lognote />
							<good />
							<originalvideofilename />
							<originalaudiofilename />
						</logginginfo>
						<colorinfo>
							<lut />
							<lut1 />
							<asc_sop />
							<asc_sat />
							<lut2 />
						</colorinfo>
					<labels><label2>Mango</label2></labels></clipitem>
					<clipitem id="clipitem-90">
						<masterclipid>clipitem-6-33</masterclipid>
						<name>Travis_Kelce_talks_about_postponing_his_wedding_to_Fiance_Taylor_Swift_on_the_New_Heights_Podcast.mp4</name>
						<enabled>TRUE</enabled>
						<duration>150</duration>
						<rate>
							<timebase>25</timebase>
							<ntsc>FALSE</ntsc>
						</rate>
						<start>15750</start>
						<end>15900</end>
						<in>4800</in>
						<out>4950</out>
						<pproTicksIn>0</pproTicksIn>
						<pproTicksOut>149391889920000</pproTicksOut>
						<alphatype>none</alphatype>
						<pixelaspectratio>square</pixelaspectratio>
						<anamorphic>FALSE</anamorphic>
						<file id="file-34">
							<name>Travis_Kelce_talks_about_postponing_his_wedding_to_Fiance_Taylor_Swift_on_the_New_Heights_Podcast.mp4</name>
							<pathurl>file://localhost/Users/themalikano/Documents/VideoAutomation/premiere_videos/Travis_Kelce_talks_about_postponing_his_wedding_to_Fiance_Taylor_Swift_on_the_New_Heights_Podcast.mp4</pathurl>
							<rate>
								<timebase>30</timebase>
								<ntsc>FALSE</ntsc>
							</rate>
							<duration>17644</duration>
							<timecode>
								<rate>
									<timebase>30</timebase>
									<ntsc>FALSE</ntsc>
								</rate>
								<string>00:00:00:00</string>
								<frame>0</frame>
								<displayformat>NDF</displayformat>
							</timecode>
							<media>
								<video>
									<samplecharacteristics>
										<rate>
											<timebase>30</timebase>
											<ntsc>FALSE</ntsc>
										</rate>
										<width>1920</width>
										<height>1080</height>
										<anamorphic>FALSE</anamorphic>
										<pixelaspectratio>square</pixelaspectratio>
										<fielddominance>none</fielddominance>
									</samplecharacteristics>
								</video>
								<audio>
									<samplecharacteristics>
										<depth>16</depth>
										<samplerate>44100</samplerate>
									</samplecharacteristics>
									<channelcount>2</channelcount>
								</audio>
							</media>
						</file>
						<link>
							<linkclipref>clipitem-90</linkclipref>
							<mediatype>video</mediatype>
							<trackindex>1</trackindex>
							<clipindex>6</clipindex>
						</link>
						<link>
							<linkclipref>clipitem-98</linkclipref>
							<mediatype>audio</mediatype>
							<trackindex>1</trackindex>
							<clipindex>6</clipindex>
							<groupindex>1</groupindex>
						</link>
						<link>
							<linkclipref>clipitem-106</linkclipref>
							<mediatype>audio</mediatype>
							<trackindex>2</trackindex>
							<clipindex>6</clipindex>
							<groupindex>1</groupindex>
						</link>
						<logginginfo>
							<description />
							<scene />
							<shottake />
							<lognote />
							<good />
							<originalvideofilename />
							<originalaudiofilename />
						</logginginfo>
						<colorinfo>
							<lut />
							<lut1 />
							<asc_sop />
							<asc_sat />
							<lut2 />
						</colorinfo>
					<labels><label2>Forest</label2></labels></clipitem>
					<clipitem id="clipitem-89">
						<masterclipid>clipitem-5-17</masterclipid>
						<name>Travis_Kelce_s_appearance_on_The_Eras_Tour_during_I_Can_Do_It_With_A_Broken_Heart_in_London.mp4</name>
						<enabled>TRUE</enabled>
						<duration>150</duration>
						<rate>
							<timebase>25</timebase>
							<ntsc>FALSE</ntsc>
						</rate>
						<start>15900</start>
						<end>16050</end>
						<in>2400</in>
						<out>2550</out>
						<pproTicksIn>0</pproTicksIn>
						<pproTicksOut>27525173760000</pproTicksOut>
						<alphatype>none</alphatype>
						<pixelaspectratio>square</pixelaspectratio>
						<anamorphic>FALSE</anamorphic>
						<file id="file-33">
							<name>Travis_Kelce_s_appearance_on_The_Eras_Tour_during_I_Can_Do_It_With_A_Broken_Heart_in_London.mp4</name>
							<pathurl>file://localhost/Users/themalikano/Documents/VideoAutomation/premiere_videos/Travis_Kelce_s_appearance_on_The_Eras_Tour_during_I_Can_Do_It_With_A_Broken_Heart_in_London.mp4</pathurl>
							<rate>
								<timebase>24</timebase>
								<ntsc>TRUE</ntsc>
							</rate>
							<duration>2599</duration>
							<timecode>
								<rate>
									<timebase>24</timebase>
									<ntsc>TRUE</ntsc>
								</rate>
								<string>00:00:00:00</string>
								<frame>0</frame>
								<displayformat>NDF</displayformat>
							</timecode>
							<media>
								<video>
									<samplecharacteristics>
										<rate>
											<timebase>24</timebase>
											<ntsc>TRUE</ntsc>
										</rate>
										<width>1920</width>
										<height>1080</height>
										<anamorphic>FALSE</anamorphic>
										<pixelaspectratio>square</pixelaspectratio>
										<fielddominance>none</fielddominance>
									</samplecharacteristics>
								</video>
								<audio>
									<samplecharacteristics>
										<depth>16</depth>
										<samplerate>44100</samplerate>
									</samplecharacteristics>
									<channelcount>2</channelcount>
								</audio>
							</media>
						</file>
						<link>
							<linkclipref>clipitem-89</linkclipref>
							<mediatype>video</mediatype>
							<trackindex>1</trackindex>
							<clipindex>5</clipindex>
						</link>
						<link>
							<linkclipref>clipitem-97</linkclipref>
							<mediatype>audio</mediatype>
							<trackindex>1</trackindex>
							<clipindex>5</clipindex>
							<groupindex>1</groupindex>
						</link>
						<link>
							<linkclipref>clipitem-105</linkclipref>
							<mediatype>audio</mediatype>
							<trackindex>2</trackindex>
							<clipindex>5</clipindex>
							<groupindex>1</groupindex>
						</link>
						<logginginfo>
							<description />
							<scene />
							<shottake />
							<lognote />
							<good />
							<originalvideofilename />
							<originalaudiofilename />
						</logginginfo>
						<colorinfo>
							<lut />
							<lut1 />
							<asc_sop />
							<asc_sat />
							<lut2 />
						</colorinfo>
					<labels><label2>Cerulean</label2></labels></clipitem>
					<clipitem id="clipitem-88">
						<masterclipid>clipitem-4-191</masterclipid>
						<name>Travis_Kelce_ANNOUNCE_WEDDING_DATE_with_Taylor_Swift_Why_He_was_Delaying_all_Along.mp4</name>
						<enabled>TRUE</enabled>
						<duration>150</duration>
						<rate>
							<timebase>25</timebase>
							<ntsc>FALSE</ntsc>
						</rate>
						<start>16050</start>
						<end>16200</end>
						<in>28500</in>
						<out>28650</out>
						<pproTicksIn>0</pproTicksIn>
						<pproTicksOut>419410897920000</pproTicksOut>
						<alphatype>none</alphatype>
						<pixelaspectratio>square</pixelaspectratio>
						<anamorphic>FALSE</anamorphic>
						<file id="file-32">
							<name>Travis_Kelce_ANNOUNCE_WEDDING_DATE_with_Taylor_Swift_Why_He_was_Delaying_all_Along.mp4</name>
							<pathurl>file://localhost/Users/themalikano/Documents/VideoAutomation/premiere_videos/Travis_Kelce_ANNOUNCE_WEDDING_DATE_with_Taylor_Swift_Why_He_was_Delaying_all_Along.mp4</pathurl>
							<rate>
								<timebase>24</timebase>
								<ntsc>FALSE</ntsc>
							</rate>
							<duration>39627</duration>
							<timecode>
								<rate>
									<timebase>24</timebase>
									<ntsc>FALSE</ntsc>
								</rate>
								<string>00:00:00:00</string>
								<frame>0</frame>
								<displayformat>NDF</displayformat>
							</timecode>
							<media>
								<video>
									<samplecharacteristics>
										<rate>
											<timebase>24</timebase>
											<ntsc>FALSE</ntsc>
										</rate>
										<width>852</width>
										<height>480</height>
										<anamorphic>FALSE</anamorphic>
										<pixelaspectratio>square</pixelaspectratio>
										<fielddominance>none</fielddominance>
									</samplecharacteristics>
								</video>
								<audio>
									<samplecharacteristics>
										<depth>16</depth>
										<samplerate>44100</samplerate>
									</samplecharacteristics>
									<channelcount>2</channelcount>
								</audio>
							</media>
						</file>
						<filter>
							<effect>
								<name>Basic Motion</name>
								<effectid>basic</effectid>
								<effectcategory>motion</effectcategory>
								<effecttype>motion</effecttype>
								<mediatype>video</mediatype>
								<pproBypass>false</pproBypass>
								<parameter authoringApp="PremierePro">
									<parameterid>scale</parameterid>
									<name>Scale</name>
									<valuemin>0</valuemin>
									<valuemax>1000</valuemax>
									<value>225</value>
								</parameter>
								<parameter authoringApp="PremierePro">
									<parameterid>rotation</parameterid>
									<name>Rotation</name>
									<valuemin>-8640</valuemin>
									<valuemax>8640</valuemax>
									<value>0</value>
								</parameter>
								<parameter authoringApp="PremierePro">
									<parameterid>center</parameterid>
									<name>Center</name>
									<value>
										<horiz>0</horiz>
										<vert>0</vert>
									</value>
								</parameter>
								<parameter authoringApp="PremierePro">
									<parameterid>centerOffset</parameterid>
									<name>Anchor Point</name>
									<value>
										<horiz>0</horiz>
										<vert>0</vert>
									</value>
								</parameter>
								<parameter authoringApp="PremierePro">
									<parameterid>antiflicker</parameterid>
									<name>Anti-flicker Filter</name>
									<valuemin>0.0</valuemin>
									<valuemax>1.0</valuemax>
									<value>0</value>
								</parameter>
							</effect>
						</filter>
						<link>
							<linkclipref>clipitem-88</linkclipref>
							<mediatype>video</mediatype>
							<trackindex>1</trackindex>
							<clipindex>4</clipindex>
						</link>
						<link>
							<linkclipref>clipitem-96</linkclipref>
							<mediatype>audio</mediatype>
							<trackindex>1</trackindex>
							<clipindex>4</clipindex>
							<groupindex>1</groupindex>
						</link>
						<link>
							<linkclipref>clipitem-104</linkclipref>
							<mediatype>audio</mediatype>
							<trackindex>2</trackindex>
							<clipindex>4</clipindex>
							<groupindex>1</groupindex>
						</link>
						<logginginfo>
							<description />
							<scene />
							<shottake />
							<lognote />
							<good />
							<originalvideofilename />
							<originalaudiofilename />
						</logginginfo>
						<colorinfo>
							<lut />
							<lut1 />
							<asc_sop />
							<asc_sat />
							<lut2 />
						</colorinfo>
					<labels><label2>Lavender</label2></labels></clipitem>
					<clipitem id="clipitem-87">
						<masterclipid>clipitem-3-397</masterclipid>
						<name>Taylor_Swift_Travis_Kelce_-_The_New_Power_Couple.mp4</name>
						<enabled>TRUE</enabled>
						<duration>150</duration>
						<rate>
							<timebase>25</timebase>
							<ntsc>FALSE</ntsc>
						</rate>
						<start>16200</start>
						<end>16350</end>
						<in>59400</in>
						<out>59550</out>
						<pproTicksIn>0</pproTicksIn>
						<pproTicksOut>875013995520000</pproTicksOut>
						<alphatype>none</alphatype>
						<pixelaspectratio>square</pixelaspectratio>
						<anamorphic>FALSE</anamorphic>
						<file id="file-31">
							<name>Taylor_Swift_Travis_Kelce_-_The_New_Power_Couple.mp4</name>
							<pathurl>file://localhost/Users/themalikano/Documents/VideoAutomation/premiere_videos/Taylor_Swift_Travis_Kelce_-_The_New_Power_Couple.mp4</pathurl>
							<rate>
								<timebase>25</timebase>
								<ntsc>FALSE</ntsc>
							</rate>
							<duration>86118</duration>
							<timecode>
								<rate>
									<timebase>25</timebase>
									<ntsc>FALSE</ntsc>
								</rate>
								<string>00:00:00:00</string>
								<frame>0</frame>
								<displayformat>NDF</displayformat>
							</timecode>
							<media>
								<video>
									<samplecharacteristics>
										<rate>
											<timebase>25</timebase>
											<ntsc>FALSE</ntsc>
										</rate>
										<width>1920</width>
										<height>1080</height>
										<anamorphic>FALSE</anamorphic>
										<pixelaspectratio>square</pixelaspectratio>
										<fielddominance>none</fielddominance>
									</samplecharacteristics>
								</video>
								<audio>
									<samplecharacteristics>
										<depth>16</depth>
										<samplerate>44100</samplerate>
									</samplecharacteristics>
									<channelcount>2</channelcount>
								</audio>
							</media>
						</file>
						<link>
							<linkclipref>clipitem-87</linkclipref>
							<mediatype>video</mediatype>
							<trackindex>1</trackindex>
							<clipindex>3</clipindex>
						</link>
						<link>
							<linkclipref>clipitem-95</linkclipref>
							<mediatype>audio</mediatype>
							<trackindex>1</trackindex>
							<clipindex>3</clipindex>
							<groupindex>1</groupindex>
						</link>
						<link>
							<linkclipref>clipitem-103</linkclipref>
							<mediatype>audio</mediatype>
							<trackindex>2</trackindex>
							<clipindex>3</clipindex>
							<groupindex>1</groupindex>
						</link>
						<logginginfo>
							<description />
							<scene />
							<shottake />
							<lognote />
							<good />
							<originalvideofilename />
							<originalaudiofilename />
						</logginginfo>
						<colorinfo>
							<lut />
							<lut1 />
							<asc_sop />
							<asc_sat />
							<lut2 />
						</colorinfo>
					<labels><label2>Caribbean</label2></labels></clipitem>
					<clipitem id="clipitem-86">
						<masterclipid>clipitem-2-137</masterclipid>
						<name>Taylor_Swift_Shares_The_Story_Of_Calling_Travis_Kelce_For_The_First_Time.mp4</name>
						<enabled>TRUE</enabled>
						<duration>150</duration>
						<rate>
							<timebase>25</timebase>
							<ntsc>FALSE</ntsc>
						</rate>
						<start>16350</start>
						<end>16500</end>
						<in>20400</in>
						<out>20550</out>
						<pproTicksIn>0</pproTicksIn>
						<pproTicksOut>236438092800000</pproTicksOut>
						<alphatype>none</alphatype>
						<pixelaspectratio>square</pixelaspectratio>
						<anamorphic>FALSE</anamorphic>
						<file id="file-30">
							<name>Taylor_Swift_Shares_The_Story_Of_Calling_Travis_Kelce_For_The_First_Time.mp4</name>
							<pathurl>file://localhost/Users/themalikano/Documents/VideoAutomation/premiere_videos/Taylor_Swift_Shares_The_Story_Of_Calling_Travis_Kelce_For_The_First_Time.mp4</pathurl>
							<rate>
								<timebase>30</timebase>
								<ntsc>TRUE</ntsc>
							</rate>
							<duration>27897</duration>
							<timecode>
								<rate>
									<timebase>30</timebase>
									<ntsc>TRUE</ntsc>
								</rate>
								<string>00:00:00:00</string>
								<frame>0</frame>
								<displayformat>NDF</displayformat>
							</timecode>
							<media>
								<video>
									<samplecharacteristics>
										<rate>
											<timebase>30</timebase>
											<ntsc>TRUE</ntsc>
										</rate>
										<width>1920</width>
										<height>1080</height>
										<anamorphic>FALSE</anamorphic>
										<pixelaspectratio>square</pixelaspectratio>
										<fielddominance>none</fielddominance>
									</samplecharacteristics>
								</video>
								<audio>
									<samplecharacteristics>
										<depth>16</depth>
										<samplerate>44100</samplerate>
									</samplecharacteristics>
									<channelcount>2</channelcount>
								</audio>
							</media>
						</file>
						<link>
							<linkclipref>clipitem-86</linkclipref>
							<mediatype>video</mediatype>
							<trackindex>1</trackindex>
							<clipindex>2</clipindex>
						</link>
						<link>
							<linkclipref>clipitem-94</linkclipref>
							<mediatype>audio</mediatype>
							<trackindex>1</trackindex>
							<clipindex>2</clipindex>
							<groupindex>1</groupindex>
						</link>
						<link>
							<linkclipref>clipitem-102</linkclipref>
							<mediatype>audio</mediatype>
							<trackindex>2</trackindex>
							<clipindex>2</clipindex>
							<groupindex>1</groupindex>
						</link>
						<logginginfo>
							<description />
							<scene />
							<shottake />
							<lognote />
							<good />
							<originalvideofilename />
							<originalaudiofilename />
						</logginginfo>
						<colorinfo>
							<lut />
							<lut1 />
							<asc_sop />
							<asc_sat />
							<lut2 />
						</colorinfo>
					<labels><label2>Iris</label2></labels></clipitem>
					<clipitem id="clipitem-87">
						<masterclipid>clipitem-3-279</masterclipid>
						<name>Taylor_Swift_Travis_Kelce_-_The_New_Power_Couple.mp4</name>
						<enabled>TRUE</enabled>
						<duration>150</duration>
						<rate>
							<timebase>25</timebase>
							<ntsc>FALSE</ntsc>
						</rate>
						<start>16500</start>
						<end>16650</end>
						<in>41700</in>
						<out>41850</out>
						<pproTicksIn>0</pproTicksIn>
						<pproTicksOut>875013995520000</pproTicksOut>
						<alphatype>none</alphatype>
						<pixelaspectratio>square</pixelaspectratio>
						<anamorphic>FALSE</anamorphic>
						<file id="file-31">
							<name>Taylor_Swift_Travis_Kelce_-_The_New_Power_Couple.mp4</name>
							<pathurl>file://localhost/Users/themalikano/Documents/VideoAutomation/premiere_videos/Taylor_Swift_Travis_Kelce_-_The_New_Power_Couple.mp4</pathurl>
							<rate>
								<timebase>25</timebase>
								<ntsc>FALSE</ntsc>
							</rate>
							<duration>86118</duration>
							<timecode>
								<rate>
									<timebase>25</timebase>
									<ntsc>FALSE</ntsc>
								</rate>
								<string>00:00:00:00</string>
								<frame>0</frame>
								<displayformat>NDF</displayformat>
							</timecode>
							<media>
								<video>
									<samplecharacteristics>
										<rate>
											<timebase>25</timebase>
											<ntsc>FALSE</ntsc>
										</rate>
										<width>1920</width>
										<height>1080</height>
										<anamorphic>FALSE</anamorphic>
										<pixelaspectratio>square</pixelaspectratio>
										<fielddominance>none</fielddominance>
									</samplecharacteristics>
								</video>
								<audio>
									<samplecharacteristics>
										<depth>16</depth>
										<samplerate>44100</samplerate>
									</samplecharacteristics>
									<channelcount>2</channelcount>
								</audio>
							</media>
						</file>
						<link>
							<linkclipref>clipitem-87</linkclipref>
							<mediatype>video</mediatype>
							<trackindex>1</trackindex>
							<clipindex>3</clipindex>
						</link>
						<link>
							<linkclipref>clipitem-95</linkclipref>
							<mediatype>audio</mediatype>
							<trackindex>1</trackindex>
							<clipindex>3</clipindex>
							<groupindex>1</groupindex>
						</link>
						<link>
							<linkclipref>clipitem-103</linkclipref>
							<mediatype>audio</mediatype>
							<trackindex>2</trackindex>
							<clipindex>3</clipindex>
							<groupindex>1</groupindex>
						</link>
						<logginginfo>
							<description />
							<scene />
							<shottake />
							<lognote />
							<good />
							<originalvideofilename />
							<originalaudiofilename />
						</logginginfo>
						<colorinfo>
							<lut />
							<lut1 />
							<asc_sop />
							<asc_sat />
							<lut2 />
						</colorinfo>
					<labels><label2>Caribbean</label2></labels></clipitem>
					<clipitem id="clipitem-91">
						<masterclipid>clipitem-7-14</masterclipid>
						<name>What_Caused_Taylor_Swift-Blake_Lively_Rift_The_View.mp4</name>
						<enabled>TRUE</enabled>
						<duration>150</duration>
						<rate>
							<timebase>25</timebase>
							<ntsc>FALSE</ntsc>
						</rate>
						<start>16650</start>
						<end>16800</end>
						<in>1950</in>
						<out>2100</out>
						<pproTicksIn>0</pproTicksIn>
						<pproTicksOut>45733040640000</pproTicksOut>
						<alphatype>none</alphatype>
						<pixelaspectratio>square</pixelaspectratio>
						<anamorphic>FALSE</anamorphic>
						<file id="file-35">
							<name>What_Caused_Taylor_Swift-Blake_Lively_Rift_The_View.mp4</name>
							<pathurl>file://localhost/Users/themalikano/Documents/VideoAutomation/premiere_videos/What_Caused_Taylor_Swift-Blake_Lively_Rift_The_View.mp4</pathurl>
							<rate>
								<timebase>30</timebase>
								<ntsc>TRUE</ntsc>
							</rate>
							<duration>5397</duration>
							<timecode>
								<rate>
									<timebase>30</timebase>
									<ntsc>TRUE</ntsc>
								</rate>
								<string>00:00:00:00</string>
								<frame>0</frame>
								<displayformat>NDF</displayformat>
							</timecode>
							<media>
								<video>
									<samplecharacteristics>
										<rate>
											<timebase>30</timebase>
											<ntsc>TRUE</ntsc>
										</rate>
										<width>1280</width>
										<height>720</height>
										<anamorphic>FALSE</anamorphic>
										<pixelaspectratio>square</pixelaspectratio>
										<fielddominance>none</fielddominance>
									</samplecharacteristics>
								</video>
								<audio>
									<samplecharacteristics>
										<depth>16</depth>
										<samplerate>44100</samplerate>
									</samplecharacteristics>
									<channelcount>2</channelcount>
								</audio>
							</media>
						</file>
						<filter>
							<effect>
								<name>Basic Motion</name>
								<effectid>basic</effectid>
								<effectcategory>motion</effectcategory>
								<effecttype>motion</effecttype>
								<mediatype>video</mediatype>
								<pproBypass>false</pproBypass>
								<parameter authoringApp="PremierePro">
									<parameterid>scale</parameterid>
									<name>Scale</name>
									<valuemin>0</valuemin>
									<valuemax>1000</valuemax>
									<value>150</value>
								</parameter>
								<parameter authoringApp="PremierePro">
									<parameterid>rotation</parameterid>
									<name>Rotation</name>
									<valuemin>-8640</valuemin>
									<valuemax>8640</valuemax>
									<value>0</value>
								</parameter>
								<parameter authoringApp="PremierePro">
									<parameterid>center</parameterid>
									<name>Center</name>
									<value>
										<horiz>0</horiz>
										<vert>0</vert>
									</value>
								</parameter>
								<parameter authoringApp="PremierePro">
									<parameterid>centerOffset</parameterid>
									<name>Anchor Point</name>
									<value>
										<horiz>0</horiz>
										<vert>0</vert>
									</value>
								</parameter>
								<parameter authoringApp="PremierePro">
									<parameterid>antiflicker</parameterid>
									<name>Anti-flicker Filter</name>
									<valuemin>0.0</valuemin>
									<valuemax>1.0</valuemax>
									<value>0</value>
								</parameter>
							</effect>
						</filter>
						<link>
							<linkclipref>clipitem-91</linkclipref>
							<mediatype>video</mediatype>
							<trackindex>1</trackindex>
							<clipindex>7</clipindex>
						</link>
						<link>
							<linkclipref>clipitem-99</linkclipref>
							<mediatype>audio</mediatype>
							<trackindex>1</trackindex>
							<clipindex>7</clipindex>
							<groupindex>1</groupindex>
						</link>
						<link>
							<linkclipref>clipitem-107</linkclipref>
							<mediatype>audio</mediatype>
							<trackindex>2</trackindex>
							<clipindex>7</clipindex>
							<groupindex>1</groupindex>
						</link>
						<logginginfo>
							<description />
							<scene />
							<shottake />
							<lognote />
							<good />
							<originalvideofilename />
							<originalaudiofilename />
						</logginginfo>
						<colorinfo>
							<lut />
							<lut1 />
							<asc_sop />
							<asc_sat />
							<lut2 />
						</colorinfo>
					<labels><label2>Rose</label2></labels></clipitem>
					<clipitem id="clipitem-89">
						<masterclipid>clipitem-5-8</masterclipid>
						<name>Travis_Kelce_s_appearance_on_The_Eras_Tour_during_I_Can_Do_It_With_A_Broken_Heart_in_London.mp4</name>
						<enabled>TRUE</enabled>
						<duration>150</duration>
						<rate>
							<timebase>25</timebase>
							<ntsc>FALSE</ntsc>
						</rate>
						<start>16800</start>
						<end>16950</end>
						<in>1050</in>
						<out>1200</out>
						<pproTicksIn>0</pproTicksIn>
						<pproTicksOut>27525173760000</pproTicksOut>
						<alphatype>none</alphatype>
						<pixelaspectratio>square</pixelaspectratio>
						<anamorphic>FALSE</anamorphic>
						<file id="file-33">
							<name>Travis_Kelce_s_appearance_on_The_Eras_Tour_during_I_Can_Do_It_With_A_Broken_Heart_in_London.mp4</name>
							<pathurl>file://localhost/Users/themalikano/Documents/VideoAutomation/premiere_videos/Travis_Kelce_s_appearance_on_The_Eras_Tour_during_I_Can_Do_It_With_A_Broken_Heart_in_London.mp4</pathurl>
							<rate>
								<timebase>24</timebase>
								<ntsc>TRUE</ntsc>
							</rate>
							<duration>2599</duration>
							<timecode>
								<rate>
									<timebase>24</timebase>
									<ntsc>TRUE</ntsc>
								</rate>
								<string>00:00:00:00</string>
								<frame>0</frame>
								<displayformat>NDF</displayformat>
							</timecode>
							<media>
								<video>
									<samplecharacteristics>
										<rate>
											<timebase>24</timebase>
											<ntsc>TRUE</ntsc>
										</rate>
										<width>1920</width>
										<height>1080</height>
										<anamorphic>FALSE</anamorphic>
										<pixelaspectratio>square</pixelaspectratio>
										<fielddominance>none</fielddominance>
									</samplecharacteristics>
								</video>
								<audio>
									<samplecharacteristics>
										<depth>16</depth>
										<samplerate>44100</samplerate>
									</samplecharacteristics>
									<channelcount>2</channelcount>
								</audio>
							</media>
						</file>
						<link>
							<linkclipref>clipitem-89</linkclipref>
							<mediatype>video</mediatype>
							<trackindex>1</trackindex>
							<clipindex>5</clipindex>
						</link>
						<link>
							<linkclipref>clipitem-97</linkclipref>
							<mediatype>audio</mediatype>
							<trackindex>1</trackindex>
							<clipindex>5</clipindex>
							<groupindex>1</groupindex>
						</link>
						<link>
							<linkclipref>clipitem-105</linkclipref>
							<mediatype>audio</mediatype>
							<trackindex>2</trackindex>
							<clipindex>5</clipindex>
							<groupindex>1</groupindex>
						</link>
						<logginginfo>
							<description />
							<scene />
							<shottake />
							<lognote />
							<good />
							<originalvideofilename />
							<originalaudiofilename />
						</logginginfo>
						<colorinfo>
							<lut />
							<lut1 />
							<asc_sop />
							<asc_sat />
							<lut2 />
						</colorinfo>
					<labels><label2>Cerulean</label2></labels></clipitem>
					<clipitem id="clipitem-90">
						<masterclipid>clipitem-6-34</masterclipid>
						<name>Travis_Kelce_talks_about_postponing_his_wedding_to_Fiance_Taylor_Swift_on_the_New_Heights_Podcast.mp4</name>
						<enabled>TRUE</enabled>
						<duration>150</duration>
						<rate>
							<timebase>25</timebase>
							<ntsc>FALSE</ntsc>
						</rate>
						<start>16950</start>
						<end>17100</end>
						<in>4950</in>
						<out>5100</out>
						<pproTicksIn>0</pproTicksIn>
						<pproTicksOut>149391889920000</pproTicksOut>
						<alphatype>none</alphatype>
						<pixelaspectratio>square</pixelaspectratio>
						<anamorphic>FALSE</anamorphic>
						<file id="file-34">
							<name>Travis_Kelce_talks_about_postponing_his_wedding_to_Fiance_Taylor_Swift_on_the_New_Heights_Podcast.mp4</name>
							<pathurl>file://localhost/Users/themalikano/Documents/VideoAutomation/premiere_videos/Travis_Kelce_talks_about_postponing_his_wedding_to_Fiance_Taylor_Swift_on_the_New_Heights_Podcast.mp4</pathurl>
							<rate>
								<timebase>30</timebase>
								<ntsc>FALSE</ntsc>
							</rate>
							<duration>17644</duration>
							<timecode>
								<rate>
									<timebase>30</timebase>
									<ntsc>FALSE</ntsc>
								</rate>
								<string>00:00:00:00</string>
								<frame>0</frame>
								<displayformat>NDF</displayformat>
							</timecode>
							<media>
								<video>
									<samplecharacteristics>
										<rate>
											<timebase>30</timebase>
											<ntsc>FALSE</ntsc>
										</rate>
										<width>1920</width>
										<height>1080</height>
										<anamorphic>FALSE</anamorphic>
										<pixelaspectratio>square</pixelaspectratio>
										<fielddominance>none</fielddominance>
									</samplecharacteristics>
								</video>
								<audio>
									<samplecharacteristics>
										<depth>16</depth>
										<samplerate>44100</samplerate>
									</samplecharacteristics>
									<channelcount>2</channelcount>
								</audio>
							</media>
						</file>
						<link>
							<linkclipref>clipitem-90</linkclipref>
							<mediatype>video</mediatype>
							<trackindex>1</trackindex>
							<clipindex>6</clipindex>
						</link>
						<link>
							<linkclipref>clipitem-98</linkclipref>
							<mediatype>audio</mediatype>
							<trackindex>1</trackindex>
							<clipindex>6</clipindex>
							<groupindex>1</groupindex>
						</link>
						<link>
							<linkclipref>clipitem-106</linkclipref>
							<mediatype>audio</mediatype>
							<trackindex>2</trackindex>
							<clipindex>6</clipindex>
							<groupindex>1</groupindex>
						</link>
						<logginginfo>
							<description />
							<scene />
							<shottake />
							<lognote />
							<good />
							<originalvideofilename />
							<originalaudiofilename />
						</logginginfo>
						<colorinfo>
							<lut />
							<lut1 />
							<asc_sop />
							<asc_sat />
							<lut2 />
						</colorinfo>
					<labels><label2>Forest</label2></labels></clipitem>
					<clipitem id="clipitem-87">
						<masterclipid>clipitem-3-290</masterclipid>
						<name>Taylor_Swift_Travis_Kelce_-_The_New_Power_Couple.mp4</name>
						<enabled>TRUE</enabled>
						<duration>150</duration>
						<rate>
							<timebase>25</timebase>
							<ntsc>FALSE</ntsc>
						</rate>
						<start>17100</start>
						<end>17250</end>
						<in>43350</in>
						<out>43500</out>
						<pproTicksIn>0</pproTicksIn>
						<pproTicksOut>875013995520000</pproTicksOut>
						<alphatype>none</alphatype>
						<pixelaspectratio>square</pixelaspectratio>
						<anamorphic>FALSE</anamorphic>
						<file id="file-31">
							<name>Taylor_Swift_Travis_Kelce_-_The_New_Power_Couple.mp4</name>
							<pathurl>file://localhost/Users/themalikano/Documents/VideoAutomation/premiere_videos/Taylor_Swift_Travis_Kelce_-_The_New_Power_Couple.mp4</pathurl>
							<rate>
								<timebase>25</timebase>
								<ntsc>FALSE</ntsc>
							</rate>
							<duration>86118</duration>
							<timecode>
								<rate>
									<timebase>25</timebase>
									<ntsc>FALSE</ntsc>
								</rate>
								<string>00:00:00:00</string>
								<frame>0</frame>
								<displayformat>NDF</displayformat>
							</timecode>
							<media>
								<video>
									<samplecharacteristics>
										<rate>
											<timebase>25</timebase>
											<ntsc>FALSE</ntsc>
										</rate>
										<width>1920</width>
										<height>1080</height>
										<anamorphic>FALSE</anamorphic>
										<pixelaspectratio>square</pixelaspectratio>
										<fielddominance>none</fielddominance>
									</samplecharacteristics>
								</video>
								<audio>
									<samplecharacteristics>
										<depth>16</depth>
										<samplerate>44100</samplerate>
									</samplecharacteristics>
									<channelcount>2</channelcount>
								</audio>
							</media>
						</file>
						<link>
							<linkclipref>clipitem-87</linkclipref>
							<mediatype>video</mediatype>
							<trackindex>1</trackindex>
							<clipindex>3</clipindex>
						</link>
						<link>
							<linkclipref>clipitem-95</linkclipref>
							<mediatype>audio</mediatype>
							<trackindex>1</trackindex>
							<clipindex>3</clipindex>
							<groupindex>1</groupindex>
						</link>
						<link>
							<linkclipref>clipitem-103</linkclipref>
							<mediatype>audio</mediatype>
							<trackindex>2</trackindex>
							<clipindex>3</clipindex>
							<groupindex>1</groupindex>
						</link>
						<logginginfo>
							<description />
							<scene />
							<shottake />
							<lognote />
							<good />
							<originalvideofilename />
							<originalaudiofilename />
						</logginginfo>
						<colorinfo>
							<lut />
							<lut1 />
							<asc_sop />
							<asc_sat />
							<lut2 />
						</colorinfo>
					<labels><label2>Caribbean</label2></labels></clipitem>
					<clipitem id="clipitem-92">
						<masterclipid>clipitem-8-14</masterclipid>
						<name>Why_Travis_Kelce_Jokes_Taylor_Swift_Is_Going_to_KILL_Him.mp4</name>
						<enabled>TRUE</enabled>
						<duration>150</duration>
						<rate>
							<timebase>25</timebase>
							<ntsc>FALSE</ntsc>
						</rate>
						<start>17250</start>
						<end>17400</end>
						<in>1950</in>
						<out>2100</out>
						<pproTicksIn>0</pproTicksIn>
						<pproTicksOut>25249190400000</pproTicksOut>
						<alphatype>none</alphatype>
						<pixelaspectratio>square</pixelaspectratio>
						<anamorphic>FALSE</anamorphic>
						<file id="file-36">
							<name>Why_Travis_Kelce_Jokes_Taylor_Swift_Is_Going_to_KILL_Him.mp4</name>
							<pathurl>file://localhost/Users/themalikano/Documents/VideoAutomation/premiere_videos/Why_Travis_Kelce_Jokes_Taylor_Swift_Is_Going_to_KILL_Him.mp4</pathurl>
							<rate>
								<timebase>30</timebase>
								<ntsc>TRUE</ntsc>
							</rate>
							<duration>2980</duration>
							<timecode>
								<rate>
									<timebase>30</timebase>
									<ntsc>TRUE</ntsc>
								</rate>
								<string>00:00:00:00</string>
								<frame>0</frame>
								<displayformat>NDF</displayformat>
							</timecode>
							<media>
								<video>
									<samplecharacteristics>
										<rate>
											<timebase>30</timebase>
											<ntsc>TRUE</ntsc>
										</rate>
										<width>1920</width>
										<height>1080</height>
										<anamorphic>FALSE</anamorphic>
										<pixelaspectratio>square</pixelaspectratio>
										<fielddominance>none</fielddominance>
									</samplecharacteristics>
								</video>
								<audio>
									<samplecharacteristics>
										<depth>16</depth>
										<samplerate>44100</samplerate>
									</samplecharacteristics>
									<channelcount>2</channelcount>
								</audio>
							</media>
						</file>
						<link>
							<linkclipref>clipitem-92</linkclipref>
							<mediatype>video</mediatype>
							<trackindex>1</trackindex>
							<clipindex>8</clipindex>
						</link>
						<link>
							<linkclipref>clipitem-100</linkclipref>
							<mediatype>audio</mediatype>
							<trackindex>1</trackindex>
							<clipindex>8</clipindex>
							<groupindex>1</groupindex>
						</link>
						<link>
							<linkclipref>clipitem-108</linkclipref>
							<mediatype>audio</mediatype>
							<trackindex>2</trackindex>
							<clipindex>8</clipindex>
							<groupindex>1</groupindex>
						</link>
						<logginginfo>
							<description />
							<scene />
							<shottake />
							<lognote />
							<good />
							<originalvideofilename />
							<originalaudiofilename />
						</logginginfo>
						<colorinfo>
							<lut />
							<lut1 />
							<asc_sop />
							<asc_sat />
							<lut2 />
						</colorinfo>
					<labels><label2>Mango</label2></labels></clipitem>
					<clipitem id="clipitem-88">
						<masterclipid>clipitem-4-217</masterclipid>
						<name>Travis_Kelce_ANNOUNCE_WEDDING_DATE_with_Taylor_Swift_Why_He_was_Delaying_all_Along.mp4</name>
						<enabled>TRUE</enabled>
						<duration>150</duration>
						<rate>
							<timebase>25</timebase>
							<ntsc>FALSE</ntsc>
						</rate>
						<start>17400</start>
						<end>17550</end>
						<in>32400</in>
						<out>32550</out>
						<pproTicksIn>0</pproTicksIn>
						<pproTicksOut>419410897920000</pproTicksOut>
						<alphatype>none</alphatype>
						<pixelaspectratio>square</pixelaspectratio>
						<anamorphic>FALSE</anamorphic>
						<file id="file-32">
							<name>Travis_Kelce_ANNOUNCE_WEDDING_DATE_with_Taylor_Swift_Why_He_was_Delaying_all_Along.mp4</name>
							<pathurl>file://localhost/Users/themalikano/Documents/VideoAutomation/premiere_videos/Travis_Kelce_ANNOUNCE_WEDDING_DATE_with_Taylor_Swift_Why_He_was_Delaying_all_Along.mp4</pathurl>
							<rate>
								<timebase>24</timebase>
								<ntsc>FALSE</ntsc>
							</rate>
							<duration>39627</duration>
							<timecode>
								<rate>
									<timebase>24</timebase>
									<ntsc>FALSE</ntsc>
								</rate>
								<string>00:00:00:00</string>
								<frame>0</frame>
								<displayformat>NDF</displayformat>
							</timecode>
							<media>
								<video>
									<samplecharacteristics>
										<rate>
											<timebase>24</timebase>
											<ntsc>FALSE</ntsc>
										</rate>
										<width>852</width>
										<height>480</height>
										<anamorphic>FALSE</anamorphic>
										<pixelaspectratio>square</pixelaspectratio>
										<fielddominance>none</fielddominance>
									</samplecharacteristics>
								</video>
								<audio>
									<samplecharacteristics>
										<depth>16</depth>
										<samplerate>44100</samplerate>
									</samplecharacteristics>
									<channelcount>2</channelcount>
								</audio>
							</media>
						</file>
						<filter>
							<effect>
								<name>Basic Motion</name>
								<effectid>basic</effectid>
								<effectcategory>motion</effectcategory>
								<effecttype>motion</effecttype>
								<mediatype>video</mediatype>
								<pproBypass>false</pproBypass>
								<parameter authoringApp="PremierePro">
									<parameterid>scale</parameterid>
									<name>Scale</name>
									<valuemin>0</valuemin>
									<valuemax>1000</valuemax>
									<value>225</value>
								</parameter>
								<parameter authoringApp="PremierePro">
									<parameterid>rotation</parameterid>
									<name>Rotation</name>
									<valuemin>-8640</valuemin>
									<valuemax>8640</valuemax>
									<value>0</value>
								</parameter>
								<parameter authoringApp="PremierePro">
									<parameterid>center</parameterid>
									<name>Center</name>
									<value>
										<horiz>0</horiz>
										<vert>0</vert>
									</value>
								</parameter>
								<parameter authoringApp="PremierePro">
									<parameterid>centerOffset</parameterid>
									<name>Anchor Point</name>
									<value>
										<horiz>0</horiz>
										<vert>0</vert>
									</value>
								</parameter>
								<parameter authoringApp="PremierePro">
									<parameterid>antiflicker</parameterid>
									<name>Anti-flicker Filter</name>
									<valuemin>0.0</valuemin>
									<valuemax>1.0</valuemax>
									<value>0</value>
								</parameter>
							</effect>
						</filter>
						<link>
							<linkclipref>clipitem-88</linkclipref>
							<mediatype>video</mediatype>
							<trackindex>1</trackindex>
							<clipindex>4</clipindex>
						</link>
						<link>
							<linkclipref>clipitem-96</linkclipref>
							<mediatype>audio</mediatype>
							<trackindex>1</trackindex>
							<clipindex>4</clipindex>
							<groupindex>1</groupindex>
						</link>
						<link>
							<linkclipref>clipitem-104</linkclipref>
							<mediatype>audio</mediatype>
							<trackindex>2</trackindex>
							<clipindex>4</clipindex>
							<groupindex>1</groupindex>
						</link>
						<logginginfo>
							<description />
							<scene />
							<shottake />
							<lognote />
							<good />
							<originalvideofilename />
							<originalaudiofilename />
						</logginginfo>
						<colorinfo>
							<lut />
							<lut1 />
							<asc_sop />
							<asc_sat />
							<lut2 />
						</colorinfo>
					<labels><label2>Lavender</label2></labels></clipitem>
					<clipitem id="clipitem-87">
						<masterclipid>clipitem-3-116</masterclipid>
						<name>Taylor_Swift_Travis_Kelce_-_The_New_Power_Couple.mp4</name>
						<enabled>TRUE</enabled>
						<duration>150</duration>
						<rate>
							<timebase>25</timebase>
							<ntsc>FALSE</ntsc>
						</rate>
						<start>17550</start>
						<end>17700</end>
						<in>17250</in>
						<out>17400</out>
						<pproTicksIn>0</pproTicksIn>
						<pproTicksOut>875013995520000</pproTicksOut>
						<alphatype>none</alphatype>
						<pixelaspectratio>square</pixelaspectratio>
						<anamorphic>FALSE</anamorphic>
						<file id="file-31">
							<name>Taylor_Swift_Travis_Kelce_-_The_New_Power_Couple.mp4</name>
							<pathurl>file://localhost/Users/themalikano/Documents/VideoAutomation/premiere_videos/Taylor_Swift_Travis_Kelce_-_The_New_Power_Couple.mp4</pathurl>
							<rate>
								<timebase>25</timebase>
								<ntsc>FALSE</ntsc>
							</rate>
							<duration>86118</duration>
							<timecode>
								<rate>
									<timebase>25</timebase>
									<ntsc>FALSE</ntsc>
								</rate>
								<string>00:00:00:00</string>
								<frame>0</frame>
								<displayformat>NDF</displayformat>
							</timecode>
							<media>
								<video>
									<samplecharacteristics>
										<rate>
											<timebase>25</timebase>
											<ntsc>FALSE</ntsc>
										</rate>
										<width>1920</width>
										<height>1080</height>
										<anamorphic>FALSE</anamorphic>
										<pixelaspectratio>square</pixelaspectratio>
										<fielddominance>none</fielddominance>
									</samplecharacteristics>
								</video>
								<audio>
									<samplecharacteristics>
										<depth>16</depth>
										<samplerate>44100</samplerate>
									</samplecharacteristics>
									<channelcount>2</channelcount>
								</audio>
							</media>
						</file>
						<link>
							<linkclipref>clipitem-87</linkclipref>
							<mediatype>video</mediatype>
							<trackindex>1</trackindex>
							<clipindex>3</clipindex>
						</link>
						<link>
							<linkclipref>clipitem-95</linkclipref>
							<mediatype>audio</mediatype>
							<trackindex>1</trackindex>
							<clipindex>3</clipindex>
							<groupindex>1</groupindex>
						</link>
						<link>
							<linkclipref>clipitem-103</linkclipref>
							<mediatype>audio</mediatype>
							<trackindex>2</trackindex>
							<clipindex>3</clipindex>
							<groupindex>1</groupindex>
						</link>
						<logginginfo>
							<description />
							<scene />
							<shottake />
							<lognote />
							<good />
							<originalvideofilename />
							<originalaudiofilename />
						</logginginfo>
						<colorinfo>
							<lut />
							<lut1 />
							<asc_sop />
							<asc_sat />
							<lut2 />
						</colorinfo>
					<labels><label2>Caribbean</label2></labels></clipitem>
					<clipitem id="clipitem-91">
						<masterclipid>clipitem-7-3</masterclipid>
						<name>What_Caused_Taylor_Swift-Blake_Lively_Rift_The_View.mp4</name>
						<enabled>TRUE</enabled>
						<duration>150</duration>
						<rate>
							<timebase>25</timebase>
							<ntsc>FALSE</ntsc>
						</rate>
						<start>17700</start>
						<end>17850</end>
						<in>300</in>
						<out>450</out>
						<pproTicksIn>0</pproTicksIn>
						<pproTicksOut>45733040640000</pproTicksOut>
						<alphatype>none</alphatype>
						<pixelaspectratio>square</pixelaspectratio>
						<anamorphic>FALSE</anamorphic>
						<file id="file-35">
							<name>What_Caused_Taylor_Swift-Blake_Lively_Rift_The_View.mp4</name>
							<pathurl>file://localhost/Users/themalikano/Documents/VideoAutomation/premiere_videos/What_Caused_Taylor_Swift-Blake_Lively_Rift_The_View.mp4</pathurl>
							<rate>
								<timebase>30</timebase>
								<ntsc>TRUE</ntsc>
							</rate>
							<duration>5397</duration>
							<timecode>
								<rate>
									<timebase>30</timebase>
									<ntsc>TRUE</ntsc>
								</rate>
								<string>00:00:00:00</string>
								<frame>0</frame>
								<displayformat>NDF</displayformat>
							</timecode>
							<media>
								<video>
									<samplecharacteristics>
										<rate>
											<timebase>30</timebase>
											<ntsc>TRUE</ntsc>
										</rate>
										<width>1280</width>
										<height>720</height>
										<anamorphic>FALSE</anamorphic>
										<pixelaspectratio>square</pixelaspectratio>
										<fielddominance>none</fielddominance>
									</samplecharacteristics>
								</video>
								<audio>
									<samplecharacteristics>
										<depth>16</depth>
										<samplerate>44100</samplerate>
									</samplecharacteristics>
									<channelcount>2</channelcount>
								</audio>
							</media>
						</file>
						<filter>
							<effect>
								<name>Basic Motion</name>
								<effectid>basic</effectid>
								<effectcategory>motion</effectcategory>
								<effecttype>motion</effecttype>
								<mediatype>video</mediatype>
								<pproBypass>false</pproBypass>
								<parameter authoringApp="PremierePro">
									<parameterid>scale</parameterid>
									<name>Scale</name>
									<valuemin>0</valuemin>
									<valuemax>1000</valuemax>
									<value>150</value>
								</parameter>
								<parameter authoringApp="PremierePro">
									<parameterid>rotation</parameterid>
									<name>Rotation</name>
									<valuemin>-8640</valuemin>
									<valuemax>8640</valuemax>
									<value>0</value>
								</parameter>
								<parameter authoringApp="PremierePro">
									<parameterid>center</parameterid>
									<name>Center</name>
									<value>
										<horiz>0</horiz>
										<vert>0</vert>
									</value>
								</parameter>
								<parameter authoringApp="PremierePro">
									<parameterid>centerOffset</parameterid>
									<name>Anchor Point</name>
									<value>
										<horiz>0</horiz>
										<vert>0</vert>
									</value>
								</parameter>
								<parameter authoringApp="PremierePro">
									<parameterid>antiflicker</parameterid>
									<name>Anti-flicker Filter</name>
									<valuemin>0.0</valuemin>
									<valuemax>1.0</valuemax>
									<value>0</value>
								</parameter>
							</effect>
						</filter>
						<link>
							<linkclipref>clipitem-91</linkclipref>
							<mediatype>video</mediatype>
							<trackindex>1</trackindex>
							<clipindex>7</clipindex>
						</link>
						<link>
							<linkclipref>clipitem-99</linkclipref>
							<mediatype>audio</mediatype>
							<trackindex>1</trackindex>
							<clipindex>7</clipindex>
							<groupindex>1</groupindex>
						</link>
						<link>
							<linkclipref>clipitem-107</linkclipref>
							<mediatype>audio</mediatype>
							<trackindex>2</trackindex>
							<clipindex>7</clipindex>
							<groupindex>1</groupindex>
						</link>
						<logginginfo>
							<description />
							<scene />
							<shottake />
							<lognote />
							<good />
							<originalvideofilename />
							<originalaudiofilename />
						</logginginfo>
						<colorinfo>
							<lut />
							<lut1 />
							<asc_sop />
							<asc_sat />
							<lut2 />
						</colorinfo>
					<labels><label2>Rose</label2></labels></clipitem>
					<clipitem id="clipitem-86">
						<masterclipid>clipitem-2-68</masterclipid>
						<name>Taylor_Swift_Shares_The_Story_Of_Calling_Travis_Kelce_For_The_First_Time.mp4</name>
						<enabled>TRUE</enabled>
						<duration>150</duration>
						<rate>
							<timebase>25</timebase>
							<ntsc>FALSE</ntsc>
						</rate>
						<start>17850</start>
						<end>18000</end>
						<in>10050</in>
						<out>10200</out>
						<pproTicksIn>0</pproTicksIn>
						<pproTicksOut>236438092800000</pproTicksOut>
						<alphatype>none</alphatype>
						<pixelaspectratio>square</pixelaspectratio>
						<anamorphic>FALSE</anamorphic>
						<file id="file-30">
							<name>Taylor_Swift_Shares_The_Story_Of_Calling_Travis_Kelce_For_The_First_Time.mp4</name>
							<pathurl>file://localhost/Users/themalikano/Documents/VideoAutomation/premiere_videos/Taylor_Swift_Shares_The_Story_Of_Calling_Travis_Kelce_For_The_First_Time.mp4</pathurl>
							<rate>
								<timebase>30</timebase>
								<ntsc>TRUE</ntsc>
							</rate>
							<duration>27897</duration>
							<timecode>
								<rate>
									<timebase>30</timebase>
									<ntsc>TRUE</ntsc>
								</rate>
								<string>00:00:00:00</string>
								<frame>0</frame>
								<displayformat>NDF</displayformat>
							</timecode>
							<media>
								<video>
									<samplecharacteristics>
										<rate>
											<timebase>30</timebase>
											<ntsc>TRUE</ntsc>
										</rate>
										<width>1920</width>
										<height>1080</height>
										<anamorphic>FALSE</anamorphic>
										<pixelaspectratio>square</pixelaspectratio>
										<fielddominance>none</fielddominance>
									</samplecharacteristics>
								</video>
								<audio>
									<samplecharacteristics>
										<depth>16</depth>
										<samplerate>44100</samplerate>
									</samplecharacteristics>
									<channelcount>2</channelcount>
								</audio>
							</media>
						</file>
						<link>
							<linkclipref>clipitem-86</linkclipref>
							<mediatype>video</mediatype>
							<trackindex>1</trackindex>
							<clipindex>2</clipindex>
						</link>
						<link>
							<linkclipref>clipitem-94</linkclipref>
							<mediatype>audio</mediatype>
							<trackindex>1</trackindex>
							<clipindex>2</clipindex>
							<groupindex>1</groupindex>
						</link>
						<link>
							<linkclipref>clipitem-102</linkclipref>
							<mediatype>audio</mediatype>
							<trackindex>2</trackindex>
							<clipindex>2</clipindex>
							<groupindex>1</groupindex>
						</link>
						<logginginfo>
							<description />
							<scene />
							<shottake />
							<lognote />
							<good />
							<originalvideofilename />
							<originalaudiofilename />
						</logginginfo>
						<colorinfo>
							<lut />
							<lut1 />
							<asc_sop />
							<asc_sat />
							<lut2 />
						</colorinfo>
					<labels><label2>Iris</label2></labels></clipitem>
					<clipitem id="clipitem-89">
						<masterclipid>clipitem-5-10</masterclipid>
						<name>Travis_Kelce_s_appearance_on_The_Eras_Tour_during_I_Can_Do_It_With_A_Broken_Heart_in_London.mp4</name>
						<enabled>TRUE</enabled>
						<duration>150</duration>
						<rate>
							<timebase>25</timebase>
							<ntsc>FALSE</ntsc>
						</rate>
						<start>18000</start>
						<end>18150</end>
						<in>1350</in>
						<out>1500</out>
						<pproTicksIn>0</pproTicksIn>
						<pproTicksOut>27525173760000</pproTicksOut>
						<alphatype>none</alphatype>
						<pixelaspectratio>square</pixelaspectratio>
						<anamorphic>FALSE</anamorphic>
						<file id="file-33">
							<name>Travis_Kelce_s_appearance_on_The_Eras_Tour_during_I_Can_Do_It_With_A_Broken_Heart_in_London.mp4</name>
							<pathurl>file://localhost/Users/themalikano/Documents/VideoAutomation/premiere_videos/Travis_Kelce_s_appearance_on_The_Eras_Tour_during_I_Can_Do_It_With_A_Broken_Heart_in_London.mp4</pathurl>
							<rate>
								<timebase>24</timebase>
								<ntsc>TRUE</ntsc>
							</rate>
							<duration>2599</duration>
							<timecode>
								<rate>
									<timebase>24</timebase>
									<ntsc>TRUE</ntsc>
								</rate>
								<string>00:00:00:00</string>
								<frame>0</frame>
								<displayformat>NDF</displayformat>
							</timecode>
							<media>
								<video>
									<samplecharacteristics>
										<rate>
											<timebase>24</timebase>
											<ntsc>TRUE</ntsc>
										</rate>
										<width>1920</width>
										<height>1080</height>
										<anamorphic>FALSE</anamorphic>
										<pixelaspectratio>square</pixelaspectratio>
										<fielddominance>none</fielddominance>
									</samplecharacteristics>
								</video>
								<audio>
									<samplecharacteristics>
										<depth>16</depth>
										<samplerate>44100</samplerate>
									</samplecharacteristics>
									<channelcount>2</channelcount>
								</audio>
							</media>
						</file>
						<link>
							<linkclipref>clipitem-89</linkclipref>
							<mediatype>video</mediatype>
							<trackindex>1</trackindex>
							<clipindex>5</clipindex>
						</link>
						<link>
							<linkclipref>clipitem-97</linkclipref>
							<mediatype>audio</mediatype>
							<trackindex>1</trackindex>
							<clipindex>5</clipindex>
							<groupindex>1</groupindex>
						</link>
						<link>
							<linkclipref>clipitem-105</linkclipref>
							<mediatype>audio</mediatype>
							<trackindex>2</trackindex>
							<clipindex>5</clipindex>
							<groupindex>1</groupindex>
						</link>
						<logginginfo>
							<description />
							<scene />
							<shottake />
							<lognote />
							<good />
							<originalvideofilename />
							<originalaudiofilename />
						</logginginfo>
						<colorinfo>
							<lut />
							<lut1 />
							<asc_sop />
							<asc_sat />
							<lut2 />
						</colorinfo>
					<labels><label2>Cerulean</label2></labels></clipitem>
					<clipitem id="clipitem-88">
						<masterclipid>clipitem-4-230</masterclipid>
						<name>Travis_Kelce_ANNOUNCE_WEDDING_DATE_with_Taylor_Swift_Why_He_was_Delaying_all_Along.mp4</name>
						<enabled>TRUE</enabled>
						<duration>150</duration>
						<rate>
							<timebase>25</timebase>
							<ntsc>FALSE</ntsc>
						</rate>
						<start>18150</start>
						<end>18300</end>
						<in>34350</in>
						<out>34500</out>
						<pproTicksIn>0</pproTicksIn>
						<pproTicksOut>419410897920000</pproTicksOut>
						<alphatype>none</alphatype>
						<pixelaspectratio>square</pixelaspectratio>
						<anamorphic>FALSE</anamorphic>
						<file id="file-32">
							<name>Travis_Kelce_ANNOUNCE_WEDDING_DATE_with_Taylor_Swift_Why_He_was_Delaying_all_Along.mp4</name>
							<pathurl>file://localhost/Users/themalikano/Documents/VideoAutomation/premiere_videos/Travis_Kelce_ANNOUNCE_WEDDING_DATE_with_Taylor_Swift_Why_He_was_Delaying_all_Along.mp4</pathurl>
							<rate>
								<timebase>24</timebase>
								<ntsc>FALSE</ntsc>
							</rate>
							<duration>39627</duration>
							<timecode>
								<rate>
									<timebase>24</timebase>
									<ntsc>FALSE</ntsc>
								</rate>
								<string>00:00:00:00</string>
								<frame>0</frame>
								<displayformat>NDF</displayformat>
							</timecode>
							<media>
								<video>
									<samplecharacteristics>
										<rate>
											<timebase>24</timebase>
											<ntsc>FALSE</ntsc>
										</rate>
										<width>852</width>
										<height>480</height>
										<anamorphic>FALSE</anamorphic>
										<pixelaspectratio>square</pixelaspectratio>
										<fielddominance>none</fielddominance>
									</samplecharacteristics>
								</video>
								<audio>
									<samplecharacteristics>
										<depth>16</depth>
										<samplerate>44100</samplerate>
									</samplecharacteristics>
									<channelcount>2</channelcount>
								</audio>
							</media>
						</file>
						<filter>
							<effect>
								<name>Basic Motion</name>
								<effectid>basic</effectid>
								<effectcategory>motion</effectcategory>
								<effecttype>motion</effecttype>
								<mediatype>video</mediatype>
								<pproBypass>false</pproBypass>
								<parameter authoringApp="PremierePro">
									<parameterid>scale</parameterid>
									<name>Scale</name>
									<valuemin>0</valuemin>
									<valuemax>1000</valuemax>
									<value>225</value>
								</parameter>
								<parameter authoringApp="PremierePro">
									<parameterid>rotation</parameterid>
									<name>Rotation</name>
									<valuemin>-8640</valuemin>
									<valuemax>8640</valuemax>
									<value>0</value>
								</parameter>
								<parameter authoringApp="PremierePro">
									<parameterid>center</parameterid>
									<name>Center</name>
									<value>
										<horiz>0</horiz>
										<vert>0</vert>
									</value>
								</parameter>
								<parameter authoringApp="PremierePro">
									<parameterid>centerOffset</parameterid>
									<name>Anchor Point</name>
									<value>
										<horiz>0</horiz>
										<vert>0</vert>
									</value>
								</parameter>
								<parameter authoringApp="PremierePro">
									<parameterid>antiflicker</parameterid>
									<name>Anti-flicker Filter</name>
									<valuemin>0.0</valuemin>
									<valuemax>1.0</valuemax>
									<value>0</value>
								</parameter>
							</effect>
						</filter>
						<link>
							<linkclipref>clipitem-88</linkclipref>
							<mediatype>video</mediatype>
							<trackindex>1</trackindex>
							<clipindex>4</clipindex>
						</link>
						<link>
							<linkclipref>clipitem-96</linkclipref>
							<mediatype>audio</mediatype>
							<trackindex>1</trackindex>
							<clipindex>4</clipindex>
							<groupindex>1</groupindex>
						</link>
						<link>
							<linkclipref>clipitem-104</linkclipref>
							<mediatype>audio</mediatype>
							<trackindex>2</trackindex>
							<clipindex>4</clipindex>
							<groupindex>1</groupindex>
						</link>
						<logginginfo>
							<description />
							<scene />
							<shottake />
							<lognote />
							<good />
							<originalvideofilename />
							<originalaudiofilename />
						</logginginfo>
						<colorinfo>
							<lut />
							<lut1 />
							<asc_sop />
							<asc_sat />
							<lut2 />
						</colorinfo>
					<labels><label2>Lavender</label2></labels></clipitem>
					<clipitem id="clipitem-92">
						<masterclipid>clipitem-8-4</masterclipid>
						<name>Why_Travis_Kelce_Jokes_Taylor_Swift_Is_Going_to_KILL_Him.mp4</name>
						<enabled>TRUE</enabled>
						<duration>150</duration>
						<rate>
							<timebase>25</timebase>
							<ntsc>FALSE</ntsc>
						</rate>
						<start>18300</start>
						<end>18450</end>
						<in>450</in>
						<out>600</out>
						<pproTicksIn>0</pproTicksIn>
						<pproTicksOut>25249190400000</pproTicksOut>
						<alphatype>none</alphatype>
						<pixelaspectratio>square</pixelaspectratio>
						<anamorphic>FALSE</anamorphic>
						<file id="file-36">
							<name>Why_Travis_Kelce_Jokes_Taylor_Swift_Is_Going_to_KILL_Him.mp4</name>
							<pathurl>file://localhost/Users/themalikano/Documents/VideoAutomation/premiere_videos/Why_Travis_Kelce_Jokes_Taylor_Swift_Is_Going_to_KILL_Him.mp4</pathurl>
							<rate>
								<timebase>30</timebase>
								<ntsc>TRUE</ntsc>
							</rate>
							<duration>2980</duration>
							<timecode>
								<rate>
									<timebase>30</timebase>
									<ntsc>TRUE</ntsc>
								</rate>
								<string>00:00:00:00</string>
								<frame>0</frame>
								<displayformat>NDF</displayformat>
							</timecode>
							<media>
								<video>
									<samplecharacteristics>
										<rate>
											<timebase>30</timebase>
											<ntsc>TRUE</ntsc>
										</rate>
										<width>1920</width>
										<height>1080</height>
										<anamorphic>FALSE</anamorphic>
										<pixelaspectratio>square</pixelaspectratio>
										<fielddominance>none</fielddominance>
									</samplecharacteristics>
								</video>
								<audio>
									<samplecharacteristics>
										<depth>16</depth>
										<samplerate>44100</samplerate>
									</samplecharacteristics>
									<channelcount>2</channelcount>
								</audio>
							</media>
						</file>
						<link>
							<linkclipref>clipitem-92</linkclipref>
							<mediatype>video</mediatype>
							<trackindex>1</trackindex>
							<clipindex>8</clipindex>
						</link>
						<link>
							<linkclipref>clipitem-100</linkclipref>
							<mediatype>audio</mediatype>
							<trackindex>1</trackindex>
							<clipindex>8</clipindex>
							<groupindex>1</groupindex>
						</link>
						<link>
							<linkclipref>clipitem-108</linkclipref>
							<mediatype>audio</mediatype>
							<trackindex>2</trackindex>
							<clipindex>8</clipindex>
							<groupindex>1</groupindex>
						</link>
						<logginginfo>
							<description />
							<scene />
							<shottake />
							<lognote />
							<good />
							<originalvideofilename />
							<originalaudiofilename />
						</logginginfo>
						<colorinfo>
							<lut />
							<lut1 />
							<asc_sop />
							<asc_sat />
							<lut2 />
						</colorinfo>
					<labels><label2>Mango</label2></labels></clipitem>
					<clipitem id="clipitem-87">
						<masterclipid>clipitem-3-210</masterclipid>
						<name>Taylor_Swift_Travis_Kelce_-_The_New_Power_Couple.mp4</name>
						<enabled>TRUE</enabled>
						<duration>150</duration>
						<rate>
							<timebase>25</timebase>
							<ntsc>FALSE</ntsc>
						</rate>
						<start>18450</start>
						<end>18600</end>
						<in>31350</in>
						<out>31500</out>
						<pproTicksIn>0</pproTicksIn>
						<pproTicksOut>875013995520000</pproTicksOut>
						<alphatype>none</alphatype>
						<pixelaspectratio>square</pixelaspectratio>
						<anamorphic>FALSE</anamorphic>
						<file id="file-31">
							<name>Taylor_Swift_Travis_Kelce_-_The_New_Power_Couple.mp4</name>
							<pathurl>file://localhost/Users/themalikano/Documents/VideoAutomation/premiere_videos/Taylor_Swift_Travis_Kelce_-_The_New_Power_Couple.mp4</pathurl>
							<rate>
								<timebase>25</timebase>
								<ntsc>FALSE</ntsc>
							</rate>
							<duration>86118</duration>
							<timecode>
								<rate>
									<timebase>25</timebase>
									<ntsc>FALSE</ntsc>
								</rate>
								<string>00:00:00:00</string>
								<frame>0</frame>
								<displayformat>NDF</displayformat>
							</timecode>
							<media>
								<video>
									<samplecharacteristics>
										<rate>
											<timebase>25</timebase>
											<ntsc>FALSE</ntsc>
										</rate>
										<width>1920</width>
										<height>1080</height>
										<anamorphic>FALSE</anamorphic>
										<pixelaspectratio>square</pixelaspectratio>
										<fielddominance>none</fielddominance>
									</samplecharacteristics>
								</video>
								<audio>
									<samplecharacteristics>
										<depth>16</depth>
										<samplerate>44100</samplerate>
									</samplecharacteristics>
									<channelcount>2</channelcount>
								</audio>
							</media>
						</file>
						<link>
							<linkclipref>clipitem-87</linkclipref>
							<mediatype>video</mediatype>
							<trackindex>1</trackindex>
							<clipindex>3</clipindex>
						</link>
						<link>
							<linkclipref>clipitem-95</linkclipref>
							<mediatype>audio</mediatype>
							<trackindex>1</trackindex>
							<clipindex>3</clipindex>
							<groupindex>1</groupindex>
						</link>
						<link>
							<linkclipref>clipitem-103</linkclipref>
							<mediatype>audio</mediatype>
							<trackindex>2</trackindex>
							<clipindex>3</clipindex>
							<groupindex>1</groupindex>
						</link>
						<logginginfo>
							<description />
							<scene />
							<shottake />
							<lognote />
							<good />
							<originalvideofilename />
							<originalaudiofilename />
						</logginginfo>
						<colorinfo>
							<lut />
							<lut1 />
							<asc_sop />
							<asc_sat />
							<lut2 />
						</colorinfo>
					<labels><label2>Caribbean</label2></labels></clipitem>
					<clipitem id="clipitem-92">
						<masterclipid>clipitem-8-2</masterclipid>
						<name>Why_Travis_Kelce_Jokes_Taylor_Swift_Is_Going_to_KILL_Him.mp4</name>
						<enabled>TRUE</enabled>
						<duration>150</duration>
						<rate>
							<timebase>25</timebase>
							<ntsc>FALSE</ntsc>
						</rate>
						<start>18600</start>
						<end>18750</end>
						<in>150</in>
						<out>300</out>
						<pproTicksIn>0</pproTicksIn>
						<pproTicksOut>25249190400000</pproTicksOut>
						<alphatype>none</alphatype>
						<pixelaspectratio>square</pixelaspectratio>
						<anamorphic>FALSE</anamorphic>
						<file id="file-36">
							<name>Why_Travis_Kelce_Jokes_Taylor_Swift_Is_Going_to_KILL_Him.mp4</name>
							<pathurl>file://localhost/Users/themalikano/Documents/VideoAutomation/premiere_videos/Why_Travis_Kelce_Jokes_Taylor_Swift_Is_Going_to_KILL_Him.mp4</pathurl>
							<rate>
								<timebase>30</timebase>
								<ntsc>TRUE</ntsc>
							</rate>
							<duration>2980</duration>
							<timecode>
								<rate>
									<timebase>30</timebase>
									<ntsc>TRUE</ntsc>
								</rate>
								<string>00:00:00:00</string>
								<frame>0</frame>
								<displayformat>NDF</displayformat>
							</timecode>
							<media>
								<video>
									<samplecharacteristics>
										<rate>
											<timebase>30</timebase>
											<ntsc>TRUE</ntsc>
										</rate>
										<width>1920</width>
										<height>1080</height>
										<anamorphic>FALSE</anamorphic>
										<pixelaspectratio>square</pixelaspectratio>
										<fielddominance>none</fielddominance>
									</samplecharacteristics>
								</video>
								<audio>
									<samplecharacteristics>
										<depth>16</depth>
										<samplerate>44100</samplerate>
									</samplecharacteristics>
									<channelcount>2</channelcount>
								</audio>
							</media>
						</file>
						<link>
							<linkclipref>clipitem-92</linkclipref>
							<mediatype>video</mediatype>
							<trackindex>1</trackindex>
							<clipindex>8</clipindex>
						</link>
						<link>
							<linkclipref>clipitem-100</linkclipref>
							<mediatype>audio</mediatype>
							<trackindex>1</trackindex>
							<clipindex>8</clipindex>
							<groupindex>1</groupindex>
						</link>
						<link>
							<linkclipref>clipitem-108</linkclipref>
							<mediatype>audio</mediatype>
							<trackindex>2</trackindex>
							<clipindex>8</clipindex>
							<groupindex>1</groupindex>
						</link>
						<logginginfo>
							<description />
							<scene />
							<shottake />
							<lognote />
							<good />
							<originalvideofilename />
							<originalaudiofilename />
						</logginginfo>
						<colorinfo>
							<lut />
							<lut1 />
							<asc_sop />
							<asc_sat />
							<lut2 />
						</colorinfo>
					<labels><label2>Mango</label2></labels></clipitem>
					<clipitem id="clipitem-90">
						<masterclipid>clipitem-6-4</masterclipid>
						<name>Travis_Kelce_talks_about_postponing_his_wedding_to_Fiance_Taylor_Swift_on_the_New_Heights_Podcast.mp4</name>
						<enabled>TRUE</enabled>
						<duration>150</duration>
						<rate>
							<timebase>25</timebase>
							<ntsc>FALSE</ntsc>
						</rate>
						<start>18750</start>
						<end>18900</end>
						<in>450</in>
						<out>600</out>
						<pproTicksIn>0</pproTicksIn>
						<pproTicksOut>149391889920000</pproTicksOut>
						<alphatype>none</alphatype>
						<pixelaspectratio>square</pixelaspectratio>
						<anamorphic>FALSE</anamorphic>
						<file id="file-34">
							<name>Travis_Kelce_talks_about_postponing_his_wedding_to_Fiance_Taylor_Swift_on_the_New_Heights_Podcast.mp4</name>
							<pathurl>file://localhost/Users/themalikano/Documents/VideoAutomation/premiere_videos/Travis_Kelce_talks_about_postponing_his_wedding_to_Fiance_Taylor_Swift_on_the_New_Heights_Podcast.mp4</pathurl>
							<rate>
								<timebase>30</timebase>
								<ntsc>FALSE</ntsc>
							</rate>
							<duration>17644</duration>
							<timecode>
								<rate>
									<timebase>30</timebase>
									<ntsc>FALSE</ntsc>
								</rate>
								<string>00:00:00:00</string>
								<frame>0</frame>
								<displayformat>NDF</displayformat>
							</timecode>
							<media>
								<video>
									<samplecharacteristics>
										<rate>
											<timebase>30</timebase>
											<ntsc>FALSE</ntsc>
										</rate>
										<width>1920</width>
										<height>1080</height>
										<anamorphic>FALSE</anamorphic>
										<pixelaspectratio>square</pixelaspectratio>
										<fielddominance>none</fielddominance>
									</samplecharacteristics>
								</video>
								<audio>
									<samplecharacteristics>
										<depth>16</depth>
										<samplerate>44100</samplerate>
									</samplecharacteristics>
									<channelcount>2</channelcount>
								</audio>
							</media>
						</file>
						<link>
							<linkclipref>clipitem-90</linkclipref>
							<mediatype>video</mediatype>
							<trackindex>1</trackindex>
							<clipindex>6</clipindex>
						</link>
						<link>
							<linkclipref>clipitem-98</linkclipref>
							<mediatype>audio</mediatype>
							<trackindex>1</trackindex>
							<clipindex>6</clipindex>
							<groupindex>1</groupindex>
						</link>
						<link>
							<linkclipref>clipitem-106</linkclipref>
							<mediatype>audio</mediatype>
							<trackindex>2</trackindex>
							<clipindex>6</clipindex>
							<groupindex>1</groupindex>
						</link>
						<logginginfo>
							<description />
							<scene />
							<shottake />
							<lognote />
							<good />
							<originalvideofilename />
							<originalaudiofilename />
						</logginginfo>
						<colorinfo>
							<lut />
							<lut1 />
							<asc_sop />
							<asc_sat />
							<lut2 />
						</colorinfo>
					<labels><label2>Forest</label2></labels></clipitem>
					<clipitem id="clipitem-87">
						<masterclipid>clipitem-3-471</masterclipid>
						<name>Taylor_Swift_Travis_Kelce_-_The_New_Power_Couple.mp4</name>
						<enabled>TRUE</enabled>
						<duration>150</duration>
						<rate>
							<timebase>25</timebase>
							<ntsc>FALSE</ntsc>
						</rate>
						<start>18900</start>
						<end>19050</end>
						<in>70500</in>
						<out>70650</out>
						<pproTicksIn>0</pproTicksIn>
						<pproTicksOut>875013995520000</pproTicksOut>
						<alphatype>none</alphatype>
						<pixelaspectratio>square</pixelaspectratio>
						<anamorphic>FALSE</anamorphic>
						<file id="file-31">
							<name>Taylor_Swift_Travis_Kelce_-_The_New_Power_Couple.mp4</name>
							<pathurl>file://localhost/Users/themalikano/Documents/VideoAutomation/premiere_videos/Taylor_Swift_Travis_Kelce_-_The_New_Power_Couple.mp4</pathurl>
							<rate>
								<timebase>25</timebase>
								<ntsc>FALSE</ntsc>
							</rate>
							<duration>86118</duration>
							<timecode>
								<rate>
									<timebase>25</timebase>
									<ntsc>FALSE</ntsc>
								</rate>
								<string>00:00:00:00</string>
								<frame>0</frame>
								<displayformat>NDF</displayformat>
							</timecode>
							<media>
								<video>
									<samplecharacteristics>
										<rate>
											<timebase>25</timebase>
											<ntsc>FALSE</ntsc>
										</rate>
										<width>1920</width>
										<height>1080</height>
										<anamorphic>FALSE</anamorphic>
										<pixelaspectratio>square</pixelaspectratio>
										<fielddominance>none</fielddominance>
									</samplecharacteristics>
								</video>
								<audio>
									<samplecharacteristics>
										<depth>16</depth>
										<samplerate>44100</samplerate>
									</samplecharacteristics>
									<channelcount>2</channelcount>
								</audio>
							</media>
						</file>
						<link>
							<linkclipref>clipitem-87</linkclipref>
							<mediatype>video</mediatype>
							<trackindex>1</trackindex>
							<clipindex>3</clipindex>
						</link>
						<link>
							<linkclipref>clipitem-95</linkclipref>
							<mediatype>audio</mediatype>
							<trackindex>1</trackindex>
							<clipindex>3</clipindex>
							<groupindex>1</groupindex>
						</link>
						<link>
							<linkclipref>clipitem-103</linkclipref>
							<mediatype>audio</mediatype>
							<trackindex>2</trackindex>
							<clipindex>3</clipindex>
							<groupindex>1</groupindex>
						</link>
						<logginginfo>
							<description />
							<scene />
							<shottake />
							<lognote />
							<good />
							<originalvideofilename />
							<originalaudiofilename />
						</logginginfo>
						<colorinfo>
							<lut />
							<lut1 />
							<asc_sop />
							<asc_sat />
							<lut2 />
						</colorinfo>
					<labels><label2>Caribbean</label2></labels></clipitem>
					<clipitem id="clipitem-89">
						<masterclipid>clipitem-5-5</masterclipid>
						<name>Travis_Kelce_s_appearance_on_The_Eras_Tour_during_I_Can_Do_It_With_A_Broken_Heart_in_London.mp4</name>
						<enabled>TRUE</enabled>
						<duration>150</duration>
						<rate>
							<timebase>25</timebase>
							<ntsc>FALSE</ntsc>
						</rate>
						<start>19050</start>
						<end>19200</end>
						<in>600</in>
						<out>750</out>
						<pproTicksIn>0</pproTicksIn>
						<pproTicksOut>27525173760000</pproTicksOut>
						<alphatype>none</alphatype>
						<pixelaspectratio>square</pixelaspectratio>
						<anamorphic>FALSE</anamorphic>
						<file id="file-33">
							<name>Travis_Kelce_s_appearance_on_The_Eras_Tour_during_I_Can_Do_It_With_A_Broken_Heart_in_London.mp4</name>
							<pathurl>file://localhost/Users/themalikano/Documents/VideoAutomation/premiere_videos/Travis_Kelce_s_appearance_on_The_Eras_Tour_during_I_Can_Do_It_With_A_Broken_Heart_in_London.mp4</pathurl>
							<rate>
								<timebase>24</timebase>
								<ntsc>TRUE</ntsc>
							</rate>
							<duration>2599</duration>
							<timecode>
								<rate>
									<timebase>24</timebase>
									<ntsc>TRUE</ntsc>
								</rate>
								<string>00:00:00:00</string>
								<frame>0</frame>
								<displayformat>NDF</displayformat>
							</timecode>
							<media>
								<video>
									<samplecharacteristics>
										<rate>
											<timebase>24</timebase>
											<ntsc>TRUE</ntsc>
										</rate>
										<width>1920</width>
										<height>1080</height>
										<anamorphic>FALSE</anamorphic>
										<pixelaspectratio>square</pixelaspectratio>
										<fielddominance>none</fielddominance>
									</samplecharacteristics>
								</video>
								<audio>
									<samplecharacteristics>
										<depth>16</depth>
										<samplerate>44100</samplerate>
									</samplecharacteristics>
									<channelcount>2</channelcount>
								</audio>
							</media>
						</file>
						<link>
							<linkclipref>clipitem-89</linkclipref>
							<mediatype>video</mediatype>
							<trackindex>1</trackindex>
							<clipindex>5</clipindex>
						</link>
						<link>
							<linkclipref>clipitem-97</linkclipref>
							<mediatype>audio</mediatype>
							<trackindex>1</trackindex>
							<clipindex>5</clipindex>
							<groupindex>1</groupindex>
						</link>
						<link>
							<linkclipref>clipitem-105</linkclipref>
							<mediatype>audio</mediatype>
							<trackindex>2</trackindex>
							<clipindex>5</clipindex>
							<groupindex>1</groupindex>
						</link>
						<logginginfo>
							<description />
							<scene />
							<shottake />
							<lognote />
							<good />
							<originalvideofilename />
							<originalaudiofilename />
						</logginginfo>
						<colorinfo>
							<lut />
							<lut1 />
							<asc_sop />
							<asc_sat />
							<lut2 />
						</colorinfo>
					<labels><label2>Cerulean</label2></labels></clipitem>
					<clipitem id="clipitem-90">
						<masterclipid>clipitem-6-24</masterclipid>
						<name>Travis_Kelce_talks_about_postponing_his_wedding_to_Fiance_Taylor_Swift_on_the_New_Heights_Podcast.mp4</name>
						<enabled>TRUE</enabled>
						<duration>150</duration>
						<rate>
							<timebase>25</timebase>
							<ntsc>FALSE</ntsc>
						</rate>
						<start>19200</start>
						<end>19350</end>
						<in>3450</in>
						<out>3600</out>
						<pproTicksIn>0</pproTicksIn>
						<pproTicksOut>149391889920000</pproTicksOut>
						<alphatype>none</alphatype>
						<pixelaspectratio>square</pixelaspectratio>
						<anamorphic>FALSE</anamorphic>
						<file id="file-34">
							<name>Travis_Kelce_talks_about_postponing_his_wedding_to_Fiance_Taylor_Swift_on_the_New_Heights_Podcast.mp4</name>
							<pathurl>file://localhost/Users/themalikano/Documents/VideoAutomation/premiere_videos/Travis_Kelce_talks_about_postponing_his_wedding_to_Fiance_Taylor_Swift_on_the_New_Heights_Podcast.mp4</pathurl>
							<rate>
								<timebase>30</timebase>
								<ntsc>FALSE</ntsc>
							</rate>
							<duration>17644</duration>
							<timecode>
								<rate>
									<timebase>30</timebase>
									<ntsc>FALSE</ntsc>
								</rate>
								<string>00:00:00:00</string>
								<frame>0</frame>
								<displayformat>NDF</displayformat>
							</timecode>
							<media>
								<video>
									<samplecharacteristics>
										<rate>
											<timebase>30</timebase>
											<ntsc>FALSE</ntsc>
										</rate>
										<width>1920</width>
										<height>1080</height>
										<anamorphic>FALSE</anamorphic>
										<pixelaspectratio>square</pixelaspectratio>
										<fielddominance>none</fielddominance>
									</samplecharacteristics>
								</video>
								<audio>
									<samplecharacteristics>
										<depth>16</depth>
										<samplerate>44100</samplerate>
									</samplecharacteristics>
									<channelcount>2</channelcount>
								</audio>
							</media>
						</file>
						<link>
							<linkclipref>clipitem-90</linkclipref>
							<mediatype>video</mediatype>
							<trackindex>1</trackindex>
							<clipindex>6</clipindex>
						</link>
						<link>
							<linkclipref>clipitem-98</linkclipref>
							<mediatype>audio</mediatype>
							<trackindex>1</trackindex>
							<clipindex>6</clipindex>
							<groupindex>1</groupindex>
						</link>
						<link>
							<linkclipref>clipitem-106</linkclipref>
							<mediatype>audio</mediatype>
							<trackindex>2</trackindex>
							<clipindex>6</clipindex>
							<groupindex>1</groupindex>
						</link>
						<logginginfo>
							<description />
							<scene />
							<shottake />
							<lognote />
							<good />
							<originalvideofilename />
							<originalaudiofilename />
						</logginginfo>
						<colorinfo>
							<lut />
							<lut1 />
							<asc_sop />
							<asc_sat />
							<lut2 />
						</colorinfo>
					<labels><label2>Forest</label2></labels></clipitem>
					<clipitem id="clipitem-87">
						<masterclipid>clipitem-3-223</masterclipid>
						<name>Taylor_Swift_Travis_Kelce_-_The_New_Power_Couple.mp4</name>
						<enabled>TRUE</enabled>
						<duration>150</duration>
						<rate>
							<timebase>25</timebase>
							<ntsc>FALSE</ntsc>
						</rate>
						<start>19350</start>
						<end>19500</end>
						<in>33300</in>
						<out>33450</out>
						<pproTicksIn>0</pproTicksIn>
						<pproTicksOut>875013995520000</pproTicksOut>
						<alphatype>none</alphatype>
						<pixelaspectratio>square</pixelaspectratio>
						<anamorphic>FALSE</anamorphic>
						<file id="file-31">
							<name>Taylor_Swift_Travis_Kelce_-_The_New_Power_Couple.mp4</name>
							<pathurl>file://localhost/Users/themalikano/Documents/VideoAutomation/premiere_videos/Taylor_Swift_Travis_Kelce_-_The_New_Power_Couple.mp4</pathurl>
							<rate>
								<timebase>25</timebase>
								<ntsc>FALSE</ntsc>
							</rate>
							<duration>86118</duration>
							<timecode>
								<rate>
									<timebase>25</timebase>
									<ntsc>FALSE</ntsc>
								</rate>
								<string>00:00:00:00</string>
								<frame>0</frame>
								<displayformat>NDF</displayformat>
							</timecode>
							<media>
								<video>
									<samplecharacteristics>
										<rate>
											<timebase>25</timebase>
											<ntsc>FALSE</ntsc>
										</rate>
										<width>1920</width>
										<height>1080</height>
										<anamorphic>FALSE</anamorphic>
										<pixelaspectratio>square</pixelaspectratio>
										<fielddominance>none</fielddominance>
									</samplecharacteristics>
								</video>
								<audio>
									<samplecharacteristics>
										<depth>16</depth>
										<samplerate>44100</samplerate>
									</samplecharacteristics>
									<channelcount>2</channelcount>
								</audio>
							</media>
						</file>
						<link>
							<linkclipref>clipitem-87</linkclipref>
							<mediatype>video</mediatype>
							<trackindex>1</trackindex>
							<clipindex>3</clipindex>
						</link>
						<link>
							<linkclipref>clipitem-95</linkclipref>
							<mediatype>audio</mediatype>
							<trackindex>1</trackindex>
							<clipindex>3</clipindex>
							<groupindex>1</groupindex>
						</link>
						<link>
							<linkclipref>clipitem-103</linkclipref>
							<mediatype>audio</mediatype>
							<trackindex>2</trackindex>
							<clipindex>3</clipindex>
							<groupindex>1</groupindex>
						</link>
						<logginginfo>
							<description />
							<scene />
							<shottake />
							<lognote />
							<good />
							<originalvideofilename />
							<originalaudiofilename />
						</logginginfo>
						<colorinfo>
							<lut />
							<lut1 />
							<asc_sop />
							<asc_sat />
							<lut2 />
						</colorinfo>
					<labels><label2>Caribbean</label2></labels></clipitem>
					<clipitem id="clipitem-85">
						<masterclipid>clipitem-1-1</masterclipid>
						<name>Taylor_Swift_Reveals_What_Fiance_Travis_Kelce_Said_Before_Proposal_E_News.mp4</name>
						<enabled>TRUE</enabled>
						<duration>150</duration>
						<rate>
							<timebase>25</timebase>
							<ntsc>FALSE</ntsc>
						</rate>
						<start>19500</start>
						<end>19650</end>
						<in>0</in>
						<out>150</out>
						<pproTicksIn>0</pproTicksIn>
						<pproTicksOut>36039790080000</pproTicksOut>
						<alphatype>none</alphatype>
						<pixelaspectratio>square</pixelaspectratio>
						<anamorphic>FALSE</anamorphic>
						<file id="file-29">
							<name>Taylor_Swift_Reveals_What_Fiance_Travis_Kelce_Said_Before_Proposal_E_News.mp4</name>
							<pathurl>file://localhost/Users/themalikano/Documents/VideoAutomation/premiere_videos/Taylor_Swift_Reveals_What_Fiance_Travis_Kelce_Said_Before_Proposal_E_News.mp4</pathurl>
							<rate>
								<timebase>29</timebase>
								<ntsc>FALSE</ntsc>
							</rate>
							<duration>4115</duration>
							<timecode>
								<rate>
									<timebase>29</timebase>
									<ntsc>FALSE</ntsc>
								</rate>
								<string>00:00:00:00</string>
								<frame>0</frame>
								<displayformat>NDF</displayformat>
							</timecode>
							<media>
								<video>
									<samplecharacteristics>
										<rate>
											<timebase>29</timebase>
											<ntsc>FALSE</ntsc>
										</rate>
										<width>1920</width>
										<height>1080</height>
										<anamorphic>FALSE</anamorphic>
										<pixelaspectratio>square</pixelaspectratio>
										<fielddominance>none</fielddominance>
									</samplecharacteristics>
								</video>
								<audio>
									<samplecharacteristics>
										<depth>16</depth>
										<samplerate>44100</samplerate>
									</samplecharacteristics>
									<channelcount>2</channelcount>
								</audio>
							</media>
						</file>
						<link>
							<linkclipref>clipitem-85</linkclipref>
							<mediatype>video</mediatype>
							<trackindex>1</trackindex>
							<clipindex>1</clipindex>
						</link>
						<link>
							<linkclipref>clipitem-93</linkclipref>
							<mediatype>audio</mediatype>
							<trackindex>1</trackindex>
							<clipindex>1</clipindex>
							<groupindex>1</groupindex>
						</link>
						<link>
							<linkclipref>clipitem-101</linkclipref>
							<mediatype>audio</mediatype>
							<trackindex>2</trackindex>
							<clipindex>1</clipindex>
							<groupindex>1</groupindex>
						</link>
						<logginginfo>
							<description />
							<scene />
							<shottake />
							<lognote />
							<good />
							<originalvideofilename />
							<originalaudiofilename />
						</logginginfo>
						<colorinfo>
							<lut />
							<lut1 />
							<asc_sop />
							<asc_sat />
							<lut2 />
						</colorinfo>
					<labels><label2>Violet</label2></labels></clipitem>
					<clipitem id="clipitem-91">
						<masterclipid>clipitem-7-4</masterclipid>
						<name>What_Caused_Taylor_Swift-Blake_Lively_Rift_The_View.mp4</name>
						<enabled>TRUE</enabled>
						<duration>150</duration>
						<rate>
							<timebase>25</timebase>
							<ntsc>FALSE</ntsc>
						</rate>
						<start>19650</start>
						<end>19800</end>
						<in>450</in>
						<out>600</out>
						<pproTicksIn>0</pproTicksIn>
						<pproTicksOut>45733040640000</pproTicksOut>
						<alphatype>none</alphatype>
						<pixelaspectratio>square</pixelaspectratio>
						<anamorphic>FALSE</anamorphic>
						<file id="file-35">
							<name>What_Caused_Taylor_Swift-Blake_Lively_Rift_The_View.mp4</name>
							<pathurl>file://localhost/Users/themalikano/Documents/VideoAutomation/premiere_videos/What_Caused_Taylor_Swift-Blake_Lively_Rift_The_View.mp4</pathurl>
							<rate>
								<timebase>30</timebase>
								<ntsc>TRUE</ntsc>
							</rate>
							<duration>5397</duration>
							<timecode>
								<rate>
									<timebase>30</timebase>
									<ntsc>TRUE</ntsc>
								</rate>
								<string>00:00:00:00</string>
								<frame>0</frame>
								<displayformat>NDF</displayformat>
							</timecode>
							<media>
								<video>
									<samplecharacteristics>
										<rate>
											<timebase>30</timebase>
											<ntsc>TRUE</ntsc>
										</rate>
										<width>1280</width>
										<height>720</height>
										<anamorphic>FALSE</anamorphic>
										<pixelaspectratio>square</pixelaspectratio>
										<fielddominance>none</fielddominance>
									</samplecharacteristics>
								</video>
								<audio>
									<samplecharacteristics>
										<depth>16</depth>
										<samplerate>44100</samplerate>
									</samplecharacteristics>
									<channelcount>2</channelcount>
								</audio>
							</media>
						</file>
						<filter>
							<effect>
								<name>Basic Motion</name>
								<effectid>basic</effectid>
								<effectcategory>motion</effectcategory>
								<effecttype>motion</effecttype>
								<mediatype>video</mediatype>
								<pproBypass>false</pproBypass>
								<parameter authoringApp="PremierePro">
									<parameterid>scale</parameterid>
									<name>Scale</name>
									<valuemin>0</valuemin>
									<valuemax>1000</valuemax>
									<value>150</value>
								</parameter>
								<parameter authoringApp="PremierePro">
									<parameterid>rotation</parameterid>
									<name>Rotation</name>
									<valuemin>-8640</valuemin>
									<valuemax>8640</valuemax>
									<value>0</value>
								</parameter>
								<parameter authoringApp="PremierePro">
									<parameterid>center</parameterid>
									<name>Center</name>
									<value>
										<horiz>0</horiz>
										<vert>0</vert>
									</value>
								</parameter>
								<parameter authoringApp="PremierePro">
									<parameterid>centerOffset</parameterid>
									<name>Anchor Point</name>
									<value>
										<horiz>0</horiz>
										<vert>0</vert>
									</value>
								</parameter>
								<parameter authoringApp="PremierePro">
									<parameterid>antiflicker</parameterid>
									<name>Anti-flicker Filter</name>
									<valuemin>0.0</valuemin>
									<valuemax>1.0</valuemax>
									<value>0</value>
								</parameter>
							</effect>
						</filter>
						<link>
							<linkclipref>clipitem-91</linkclipref>
							<mediatype>video</mediatype>
							<trackindex>1</trackindex>
							<clipindex>7</clipindex>
						</link>
						<link>
							<linkclipref>clipitem-99</linkclipref>
							<mediatype>audio</mediatype>
							<trackindex>1</trackindex>
							<clipindex>7</clipindex>
							<groupindex>1</groupindex>
						</link>
						<link>
							<linkclipref>clipitem-107</linkclipref>
							<mediatype>audio</mediatype>
							<trackindex>2</trackindex>
							<clipindex>7</clipindex>
							<groupindex>1</groupindex>
						</link>
						<logginginfo>
							<description />
							<scene />
							<shottake />
							<lognote />
							<good />
							<originalvideofilename />
							<originalaudiofilename />
						</logginginfo>
						<colorinfo>
							<lut />
							<lut1 />
							<asc_sop />
							<asc_sat />
							<lut2 />
						</colorinfo>
					<labels><label2>Rose</label2></labels></clipitem>
					<clipitem id="clipitem-85">
						<masterclipid>clipitem-1-15</masterclipid>
						<name>Taylor_Swift_Reveals_What_Fiance_Travis_Kelce_Said_Before_Proposal_E_News.mp4</name>
						<enabled>TRUE</enabled>
						<duration>150</duration>
						<rate>
							<timebase>25</timebase>
							<ntsc>FALSE</ntsc>
						</rate>
						<start>19800</start>
						<end>19950</end>
						<in>2100</in>
						<out>2250</out>
						<pproTicksIn>0</pproTicksIn>
						<pproTicksOut>36039790080000</pproTicksOut>
						<alphatype>none</alphatype>
						<pixelaspectratio>square</pixelaspectratio>
						<anamorphic>FALSE</anamorphic>
						<file id="file-29">
							<name>Taylor_Swift_Reveals_What_Fiance_Travis_Kelce_Said_Before_Proposal_E_News.mp4</name>
							<pathurl>file://localhost/Users/themalikano/Documents/VideoAutomation/premiere_videos/Taylor_Swift_Reveals_What_Fiance_Travis_Kelce_Said_Before_Proposal_E_News.mp4</pathurl>
							<rate>
								<timebase>29</timebase>
								<ntsc>FALSE</ntsc>
							</rate>
							<duration>4115</duration>
							<timecode>
								<rate>
									<timebase>29</timebase>
									<ntsc>FALSE</ntsc>
								</rate>
								<string>00:00:00:00</string>
								<frame>0</frame>
								<displayformat>NDF</displayformat>
							</timecode>
							<media>
								<video>
									<samplecharacteristics>
										<rate>
											<timebase>29</timebase>
											<ntsc>FALSE</ntsc>
										</rate>
										<width>1920</width>
										<height>1080</height>
										<anamorphic>FALSE</anamorphic>
										<pixelaspectratio>square</pixelaspectratio>
										<fielddominance>none</fielddominance>
									</samplecharacteristics>
								</video>
								<audio>
									<samplecharacteristics>
										<depth>16</depth>
										<samplerate>44100</samplerate>
									</samplecharacteristics>
									<channelcount>2</channelcount>
								</audio>
							</media>
						</file>
						<link>
							<linkclipref>clipitem-85</linkclipref>
							<mediatype>video</mediatype>
							<trackindex>1</trackindex>
							<clipindex>1</clipindex>
						</link>
						<link>
							<linkclipref>clipitem-93</linkclipref>
							<mediatype>audio</mediatype>
							<trackindex>1</trackindex>
							<clipindex>1</clipindex>
							<groupindex>1</groupindex>
						</link>
						<link>
							<linkclipref>clipitem-101</linkclipref>
							<mediatype>audio</mediatype>
							<trackindex>2</trackindex>
							<clipindex>1</clipindex>
							<groupindex>1</groupindex>
						</link>
						<logginginfo>
							<description />
							<scene />
							<shottake />
							<lognote />
							<good />
							<originalvideofilename />
							<originalaudiofilename />
						</logginginfo>
						<colorinfo>
							<lut />
							<lut1 />
							<asc_sop />
							<asc_sat />
							<lut2 />
						</colorinfo>
					<labels><label2>Violet</label2></labels></clipitem>
					<clipitem id="clipitem-88">
						<masterclipid>clipitem-4-222</masterclipid>
						<name>Travis_Kelce_ANNOUNCE_WEDDING_DATE_with_Taylor_Swift_Why_He_was_Delaying_all_Along.mp4</name>
						<enabled>TRUE</enabled>
						<duration>150</duration>
						<rate>
							<timebase>25</timebase>
							<ntsc>FALSE</ntsc>
						</rate>
						<start>19950</start>
						<end>20100</end>
						<in>33150</in>
						<out>33300</out>
						<pproTicksIn>0</pproTicksIn>
						<pproTicksOut>419410897920000</pproTicksOut>
						<alphatype>none</alphatype>
						<pixelaspectratio>square</pixelaspectratio>
						<anamorphic>FALSE</anamorphic>
						<file id="file-32">
							<name>Travis_Kelce_ANNOUNCE_WEDDING_DATE_with_Taylor_Swift_Why_He_was_Delaying_all_Along.mp4</name>
							<pathurl>file://localhost/Users/themalikano/Documents/VideoAutomation/premiere_videos/Travis_Kelce_ANNOUNCE_WEDDING_DATE_with_Taylor_Swift_Why_He_was_Delaying_all_Along.mp4</pathurl>
							<rate>
								<timebase>24</timebase>
								<ntsc>FALSE</ntsc>
							</rate>
							<duration>39627</duration>
							<timecode>
								<rate>
									<timebase>24</timebase>
									<ntsc>FALSE</ntsc>
								</rate>
								<string>00:00:00:00</string>
								<frame>0</frame>
								<displayformat>NDF</displayformat>
							</timecode>
							<media>
								<video>
									<samplecharacteristics>
										<rate>
											<timebase>24</timebase>
											<ntsc>FALSE</ntsc>
										</rate>
										<width>852</width>
										<height>480</height>
										<anamorphic>FALSE</anamorphic>
										<pixelaspectratio>square</pixelaspectratio>
										<fielddominance>none</fielddominance>
									</samplecharacteristics>
								</video>
								<audio>
									<samplecharacteristics>
										<depth>16</depth>
										<samplerate>44100</samplerate>
									</samplecharacteristics>
									<channelcount>2</channelcount>
								</audio>
							</media>
						</file>
						<filter>
							<effect>
								<name>Basic Motion</name>
								<effectid>basic</effectid>
								<effectcategory>motion</effectcategory>
								<effecttype>motion</effecttype>
								<mediatype>video</mediatype>
								<pproBypass>false</pproBypass>
								<parameter authoringApp="PremierePro">
									<parameterid>scale</parameterid>
									<name>Scale</name>
									<valuemin>0</valuemin>
									<valuemax>1000</valuemax>
									<value>225</value>
								</parameter>
								<parameter authoringApp="PremierePro">
									<parameterid>rotation</parameterid>
									<name>Rotation</name>
									<valuemin>-8640</valuemin>
									<valuemax>8640</valuemax>
									<value>0</value>
								</parameter>
								<parameter authoringApp="PremierePro">
									<parameterid>center</parameterid>
									<name>Center</name>
									<value>
										<horiz>0</horiz>
										<vert>0</vert>
									</value>
								</parameter>
								<parameter authoringApp="PremierePro">
									<parameterid>centerOffset</parameterid>
									<name>Anchor Point</name>
									<value>
										<horiz>0</horiz>
										<vert>0</vert>
									</value>
								</parameter>
								<parameter authoringApp="PremierePro">
									<parameterid>antiflicker</parameterid>
									<name>Anti-flicker Filter</name>
									<valuemin>0.0</valuemin>
									<valuemax>1.0</valuemax>
									<value>0</value>
								</parameter>
							</effect>
						</filter>
						<link>
							<linkclipref>clipitem-88</linkclipref>
							<mediatype>video</mediatype>
							<trackindex>1</trackindex>
							<clipindex>4</clipindex>
						</link>
						<link>
							<linkclipref>clipitem-96</linkclipref>
							<mediatype>audio</mediatype>
							<trackindex>1</trackindex>
							<clipindex>4</clipindex>
							<groupindex>1</groupindex>
						</link>
						<link>
							<linkclipref>clipitem-104</linkclipref>
							<mediatype>audio</mediatype>
							<trackindex>2</trackindex>
							<clipindex>4</clipindex>
							<groupindex>1</groupindex>
						</link>
						<logginginfo>
							<description />
							<scene />
							<shottake />
							<lognote />
							<good />
							<originalvideofilename />
							<originalaudiofilename />
						</logginginfo>
						<colorinfo>
							<lut />
							<lut1 />
							<asc_sop />
							<asc_sat />
							<lut2 />
						</colorinfo>
					<labels><label2>Lavender</label2></labels></clipitem>
					<clipitem id="clipitem-89">
						<masterclipid>clipitem-5-11</masterclipid>
						<name>Travis_Kelce_s_appearance_on_The_Eras_Tour_during_I_Can_Do_It_With_A_Broken_Heart_in_London.mp4</name>
						<enabled>TRUE</enabled>
						<duration>150</duration>
						<rate>
							<timebase>25</timebase>
							<ntsc>FALSE</ntsc>
						</rate>
						<start>20100</start>
						<end>20250</end>
						<in>1500</in>
						<out>1650</out>
						<pproTicksIn>0</pproTicksIn>
						<pproTicksOut>27525173760000</pproTicksOut>
						<alphatype>none</alphatype>
						<pixelaspectratio>square</pixelaspectratio>
						<anamorphic>FALSE</anamorphic>
						<file id="file-33">
							<name>Travis_Kelce_s_appearance_on_The_Eras_Tour_during_I_Can_Do_It_With_A_Broken_Heart_in_London.mp4</name>
							<pathurl>file://localhost/Users/themalikano/Documents/VideoAutomation/premiere_videos/Travis_Kelce_s_appearance_on_The_Eras_Tour_during_I_Can_Do_It_With_A_Broken_Heart_in_London.mp4</pathurl>
							<rate>
								<timebase>24</timebase>
								<ntsc>TRUE</ntsc>
							</rate>
							<duration>2599</duration>
							<timecode>
								<rate>
									<timebase>24</timebase>
									<ntsc>TRUE</ntsc>
								</rate>
								<string>00:00:00:00</string>
								<frame>0</frame>
								<displayformat>NDF</displayformat>
							</timecode>
							<media>
								<video>
									<samplecharacteristics>
										<rate>
											<timebase>24</timebase>
											<ntsc>TRUE</ntsc>
										</rate>
										<width>1920</width>
										<height>1080</height>
										<anamorphic>FALSE</anamorphic>
										<pixelaspectratio>square</pixelaspectratio>
										<fielddominance>none</fielddominance>
									</samplecharacteristics>
								</video>
								<audio>
									<samplecharacteristics>
										<depth>16</depth>
										<samplerate>44100</samplerate>
									</samplecharacteristics>
									<channelcount>2</channelcount>
								</audio>
							</media>
						</file>
						<link>
							<linkclipref>clipitem-89</linkclipref>
							<mediatype>video</mediatype>
							<trackindex>1</trackindex>
							<clipindex>5</clipindex>
						</link>
						<link>
							<linkclipref>clipitem-97</linkclipref>
							<mediatype>audio</mediatype>
							<trackindex>1</trackindex>
							<clipindex>5</clipindex>
							<groupindex>1</groupindex>
						</link>
						<link>
							<linkclipref>clipitem-105</linkclipref>
							<mediatype>audio</mediatype>
							<trackindex>2</trackindex>
							<clipindex>5</clipindex>
							<groupindex>1</groupindex>
						</link>
						<logginginfo>
							<description />
							<scene />
							<shottake />
							<lognote />
							<good />
							<originalvideofilename />
							<originalaudiofilename />
						</logginginfo>
						<colorinfo>
							<lut />
							<lut1 />
							<asc_sop />
							<asc_sat />
							<lut2 />
						</colorinfo>
					<labels><label2>Cerulean</label2></labels></clipitem>
					<clipitem id="clipitem-86">
						<masterclipid>clipitem-2-23</masterclipid>
						<name>Taylor_Swift_Shares_The_Story_Of_Calling_Travis_Kelce_For_The_First_Time.mp4</name>
						<enabled>TRUE</enabled>
						<duration>150</duration>
						<rate>
							<timebase>25</timebase>
							<ntsc>FALSE</ntsc>
						</rate>
						<start>20250</start>
						<end>20400</end>
						<in>3300</in>
						<out>3450</out>
						<pproTicksIn>0</pproTicksIn>
						<pproTicksOut>236438092800000</pproTicksOut>
						<alphatype>none</alphatype>
						<pixelaspectratio>square</pixelaspectratio>
						<anamorphic>FALSE</anamorphic>
						<file id="file-30">
							<name>Taylor_Swift_Shares_The_Story_Of_Calling_Travis_Kelce_For_The_First_Time.mp4</name>
							<pathurl>file://localhost/Users/themalikano/Documents/VideoAutomation/premiere_videos/Taylor_Swift_Shares_The_Story_Of_Calling_Travis_Kelce_For_The_First_Time.mp4</pathurl>
							<rate>
								<timebase>30</timebase>
								<ntsc>TRUE</ntsc>
							</rate>
							<duration>27897</duration>
							<timecode>
								<rate>
									<timebase>30</timebase>
									<ntsc>TRUE</ntsc>
								</rate>
								<string>00:00:00:00</string>
								<frame>0</frame>
								<displayformat>NDF</displayformat>
							</timecode>
							<media>
								<video>
									<samplecharacteristics>
										<rate>
											<timebase>30</timebase>
											<ntsc>TRUE</ntsc>
										</rate>
										<width>1920</width>
										<height>1080</height>
										<anamorphic>FALSE</anamorphic>
										<pixelaspectratio>square</pixelaspectratio>
										<fielddominance>none</fielddominance>
									</samplecharacteristics>
								</video>
								<audio>
									<samplecharacteristics>
										<depth>16</depth>
										<samplerate>44100</samplerate>
									</samplecharacteristics>
									<channelcount>2</channelcount>
								</audio>
							</media>
						</file>
						<link>
							<linkclipref>clipitem-86</linkclipref>
							<mediatype>video</mediatype>
							<trackindex>1</trackindex>
							<clipindex>2</clipindex>
						</link>
						<link>
							<linkclipref>clipitem-94</linkclipref>
							<mediatype>audio</mediatype>
							<trackindex>1</trackindex>
							<clipindex>2</clipindex>
							<groupindex>1</groupindex>
						</link>
						<link>
							<linkclipref>clipitem-102</linkclipref>
							<mediatype>audio</mediatype>
							<trackindex>2</trackindex>
							<clipindex>2</clipindex>
							<groupindex>1</groupindex>
						</link>
						<logginginfo>
							<description />
							<scene />
							<shottake />
							<lognote />
							<good />
							<originalvideofilename />
							<originalaudiofilename />
						</logginginfo>
						<colorinfo>
							<lut />
							<lut1 />
							<asc_sop />
							<asc_sat />
							<lut2 />
						</colorinfo>
					<labels><label2>Iris</label2></labels></clipitem>
					<clipitem id="clipitem-87">
						<masterclipid>clipitem-3-1</masterclipid>
						<name>Taylor_Swift_Travis_Kelce_-_The_New_Power_Couple.mp4</name>
						<enabled>TRUE</enabled>
						<duration>150</duration>
						<rate>
							<timebase>25</timebase>
							<ntsc>FALSE</ntsc>
						</rate>
						<start>20400</start>
						<end>20550</end>
						<in>0</in>
						<out>150</out>
						<pproTicksIn>0</pproTicksIn>
						<pproTicksOut>875013995520000</pproTicksOut>
						<alphatype>none</alphatype>
						<pixelaspectratio>square</pixelaspectratio>
						<anamorphic>FALSE</anamorphic>
						<file id="file-31">
							<name>Taylor_Swift_Travis_Kelce_-_The_New_Power_Couple.mp4</name>
							<pathurl>file://localhost/Users/themalikano/Documents/VideoAutomation/premiere_videos/Taylor_Swift_Travis_Kelce_-_The_New_Power_Couple.mp4</pathurl>
							<rate>
								<timebase>25</timebase>
								<ntsc>FALSE</ntsc>
							</rate>
							<duration>86118</duration>
							<timecode>
								<rate>
									<timebase>25</timebase>
									<ntsc>FALSE</ntsc>
								</rate>
								<string>00:00:00:00</string>
								<frame>0</frame>
								<displayformat>NDF</displayformat>
							</timecode>
							<media>
								<video>
									<samplecharacteristics>
										<rate>
											<timebase>25</timebase>
											<ntsc>FALSE</ntsc>
										</rate>
										<width>1920</width>
										<height>1080</height>
										<anamorphic>FALSE</anamorphic>
										<pixelaspectratio>square</pixelaspectratio>
										<fielddominance>none</fielddominance>
									</samplecharacteristics>
								</video>
								<audio>
									<samplecharacteristics>
										<depth>16</depth>
										<samplerate>44100</samplerate>
									</samplecharacteristics>
									<channelcount>2</channelcount>
								</audio>
							</media>
						</file>
						<link>
							<linkclipref>clipitem-87</linkclipref>
							<mediatype>video</mediatype>
							<trackindex>1</trackindex>
							<clipindex>3</clipindex>
						</link>
						<link>
							<linkclipref>clipitem-95</linkclipref>
							<mediatype>audio</mediatype>
							<trackindex>1</trackindex>
							<clipindex>3</clipindex>
							<groupindex>1</groupindex>
						</link>
						<link>
							<linkclipref>clipitem-103</linkclipref>
							<mediatype>audio</mediatype>
							<trackindex>2</trackindex>
							<clipindex>3</clipindex>
							<groupindex>1</groupindex>
						</link>
						<logginginfo>
							<description />
							<scene />
							<shottake />
							<lognote />
							<good />
							<originalvideofilename />
							<originalaudiofilename />
						</logginginfo>
						<colorinfo>
							<lut />
							<lut1 />
							<asc_sop />
							<asc_sat />
							<lut2 />
						</colorinfo>
					<labels><label2>Caribbean</label2></labels></clipitem>
					<clipitem id="clipitem-85">
						<masterclipid>clipitem-1-17</masterclipid>
						<name>Taylor_Swift_Reveals_What_Fiance_Travis_Kelce_Said_Before_Proposal_E_News.mp4</name>
						<enabled>TRUE</enabled>
						<duration>150</duration>
						<rate>
							<timebase>25</timebase>
							<ntsc>FALSE</ntsc>
						</rate>
						<start>20550</start>
						<end>20700</end>
						<in>2400</in>
						<out>2550</out>
						<pproTicksIn>0</pproTicksIn>
						<pproTicksOut>36039790080000</pproTicksOut>
						<alphatype>none</alphatype>
						<pixelaspectratio>square</pixelaspectratio>
						<anamorphic>FALSE</anamorphic>
						<file id="file-29">
							<name>Taylor_Swift_Reveals_What_Fiance_Travis_Kelce_Said_Before_Proposal_E_News.mp4</name>
							<pathurl>file://localhost/Users/themalikano/Documents/VideoAutomation/premiere_videos/Taylor_Swift_Reveals_What_Fiance_Travis_Kelce_Said_Before_Proposal_E_News.mp4</pathurl>
							<rate>
								<timebase>29</timebase>
								<ntsc>FALSE</ntsc>
							</rate>
							<duration>4115</duration>
							<timecode>
								<rate>
									<timebase>29</timebase>
									<ntsc>FALSE</ntsc>
								</rate>
								<string>00:00:00:00</string>
								<frame>0</frame>
								<displayformat>NDF</displayformat>
							</timecode>
							<media>
								<video>
									<samplecharacteristics>
										<rate>
											<timebase>29</timebase>
											<ntsc>FALSE</ntsc>
										</rate>
										<width>1920</width>
										<height>1080</height>
										<anamorphic>FALSE</anamorphic>
										<pixelaspectratio>square</pixelaspectratio>
										<fielddominance>none</fielddominance>
									</samplecharacteristics>
								</video>
								<audio>
									<samplecharacteristics>
										<depth>16</depth>
										<samplerate>44100</samplerate>
									</samplecharacteristics>
									<channelcount>2</channelcount>
								</audio>
							</media>
						</file>
						<link>
							<linkclipref>clipitem-85</linkclipref>
							<mediatype>video</mediatype>
							<trackindex>1</trackindex>
							<clipindex>1</clipindex>
						</link>
						<link>
							<linkclipref>clipitem-93</linkclipref>
							<mediatype>audio</mediatype>
							<trackindex>1</trackindex>
							<clipindex>1</clipindex>
							<groupindex>1</groupindex>
						</link>
						<link>
							<linkclipref>clipitem-101</linkclipref>
							<mediatype>audio</mediatype>
							<trackindex>2</trackindex>
							<clipindex>1</clipindex>
							<groupindex>1</groupindex>
						</link>
						<logginginfo>
							<description />
							<scene />
							<shottake />
							<lognote />
							<good />
							<originalvideofilename />
							<originalaudiofilename />
						</logginginfo>
						<colorinfo>
							<lut />
							<lut1 />
							<asc_sop />
							<asc_sat />
							<lut2 />
						</colorinfo>
					<labels><label2>Violet</label2></labels></clipitem>
					<clipitem id="clipitem-87">
						<masterclipid>clipitem-3-573</masterclipid>
						<name>Taylor_Swift_Travis_Kelce_-_The_New_Power_Couple.mp4</name>
						<enabled>TRUE</enabled>
						<duration>150</duration>
						<rate>
							<timebase>25</timebase>
							<ntsc>FALSE</ntsc>
						</rate>
						<start>20700</start>
						<end>20850</end>
						<in>85800</in>
						<out>85950</out>
						<pproTicksIn>0</pproTicksIn>
						<pproTicksOut>875013995520000</pproTicksOut>
						<alphatype>none</alphatype>
						<pixelaspectratio>square</pixelaspectratio>
						<anamorphic>FALSE</anamorphic>
						<file id="file-31">
							<name>Taylor_Swift_Travis_Kelce_-_The_New_Power_Couple.mp4</name>
							<pathurl>file://localhost/Users/themalikano/Documents/VideoAutomation/premiere_videos/Taylor_Swift_Travis_Kelce_-_The_New_Power_Couple.mp4</pathurl>
							<rate>
								<timebase>25</timebase>
								<ntsc>FALSE</ntsc>
							</rate>
							<duration>86118</duration>
							<timecode>
								<rate>
									<timebase>25</timebase>
									<ntsc>FALSE</ntsc>
								</rate>
								<string>00:00:00:00</string>
								<frame>0</frame>
								<displayformat>NDF</displayformat>
							</timecode>
							<media>
								<video>
									<samplecharacteristics>
										<rate>
											<timebase>25</timebase>
											<ntsc>FALSE</ntsc>
										</rate>
										<width>1920</width>
										<height>1080</height>
										<anamorphic>FALSE</anamorphic>
										<pixelaspectratio>square</pixelaspectratio>
										<fielddominance>none</fielddominance>
									</samplecharacteristics>
								</video>
								<audio>
									<samplecharacteristics>
										<depth>16</depth>
										<samplerate>44100</samplerate>
									</samplecharacteristics>
									<channelcount>2</channelcount>
								</audio>
							</media>
						</file>
						<link>
							<linkclipref>clipitem-87</linkclipref>
							<mediatype>video</mediatype>
							<trackindex>1</trackindex>
							<clipindex>3</clipindex>
						</link>
						<link>
							<linkclipref>clipitem-95</linkclipref>
							<mediatype>audio</mediatype>
							<trackindex>1</trackindex>
							<clipindex>3</clipindex>
							<groupindex>1</groupindex>
						</link>
						<link>
							<linkclipref>clipitem-103</linkclipref>
							<mediatype>audio</mediatype>
							<trackindex>2</trackindex>
							<clipindex>3</clipindex>
							<groupindex>1</groupindex>
						</link>
						<logginginfo>
							<description />
							<scene />
							<shottake />
							<lognote />
							<good />
							<originalvideofilename />
							<originalaudiofilename />
						</logginginfo>
						<colorinfo>
							<lut />
							<lut1 />
							<asc_sop />
							<asc_sat />
							<lut2 />
						</colorinfo>
					<labels><label2>Caribbean</label2></labels></clipitem>
					<clipitem id="clipitem-85">
						<masterclipid>clipitem-1-4</masterclipid>
						<name>Taylor_Swift_Reveals_What_Fiance_Travis_Kelce_Said_Before_Proposal_E_News.mp4</name>
						<enabled>TRUE</enabled>
						<duration>150</duration>
						<rate>
							<timebase>25</timebase>
							<ntsc>FALSE</ntsc>
						</rate>
						<start>20850</start>
						<end>21000</end>
						<in>450</in>
						<out>600</out>
						<pproTicksIn>0</pproTicksIn>
						<pproTicksOut>36039790080000</pproTicksOut>
						<alphatype>none</alphatype>
						<pixelaspectratio>square</pixelaspectratio>
						<anamorphic>FALSE</anamorphic>
						<file id="file-29">
							<name>Taylor_Swift_Reveals_What_Fiance_Travis_Kelce_Said_Before_Proposal_E_News.mp4</name>
							<pathurl>file://localhost/Users/themalikano/Documents/VideoAutomation/premiere_videos/Taylor_Swift_Reveals_What_Fiance_Travis_Kelce_Said_Before_Proposal_E_News.mp4</pathurl>
							<rate>
								<timebase>29</timebase>
								<ntsc>FALSE</ntsc>
							</rate>
							<duration>4115</duration>
							<timecode>
								<rate>
									<timebase>29</timebase>
									<ntsc>FALSE</ntsc>
								</rate>
								<string>00:00:00:00</string>
								<frame>0</frame>
								<displayformat>NDF</displayformat>
							</timecode>
							<media>
								<video>
									<samplecharacteristics>
										<rate>
											<timebase>29</timebase>
											<ntsc>FALSE</ntsc>
										</rate>
										<width>1920</width>
										<height>1080</height>
										<anamorphic>FALSE</anamorphic>
										<pixelaspectratio>square</pixelaspectratio>
										<fielddominance>none</fielddominance>
									</samplecharacteristics>
								</video>
								<audio>
									<samplecharacteristics>
										<depth>16</depth>
										<samplerate>44100</samplerate>
									</samplecharacteristics>
									<channelcount>2</channelcount>
								</audio>
							</media>
						</file>
						<link>
							<linkclipref>clipitem-85</linkclipref>
							<mediatype>video</mediatype>
							<trackindex>1</trackindex>
							<clipindex>1</clipindex>
						</link>
						<link>
							<linkclipref>clipitem-93</linkclipref>
							<mediatype>audio</mediatype>
							<trackindex>1</trackindex>
							<clipindex>1</clipindex>
							<groupindex>1</groupindex>
						</link>
						<link>
							<linkclipref>clipitem-101</linkclipref>
							<mediatype>audio</mediatype>
							<trackindex>2</trackindex>
							<clipindex>1</clipindex>
							<groupindex>1</groupindex>
						</link>
						<logginginfo>
							<description />
							<scene />
							<shottake />
							<lognote />
							<good />
							<originalvideofilename />
							<originalaudiofilename />
						</logginginfo>
						<colorinfo>
							<lut />
							<lut1 />
							<asc_sop />
							<asc_sat />
							<lut2 />
						</colorinfo>
					<labels><label2>Violet</label2></labels></clipitem>
					<clipitem id="clipitem-88">
						<masterclipid>clipitem-4-128</masterclipid>
						<name>Travis_Kelce_ANNOUNCE_WEDDING_DATE_with_Taylor_Swift_Why_He_was_Delaying_all_Along.mp4</name>
						<enabled>TRUE</enabled>
						<duration>150</duration>
						<rate>
							<timebase>25</timebase>
							<ntsc>FALSE</ntsc>
						</rate>
						<start>21000</start>
						<end>21150</end>
						<in>19050</in>
						<out>19200</out>
						<pproTicksIn>0</pproTicksIn>
						<pproTicksOut>419410897920000</pproTicksOut>
						<alphatype>none</alphatype>
						<pixelaspectratio>square</pixelaspectratio>
						<anamorphic>FALSE</anamorphic>
						<file id="file-32">
							<name>Travis_Kelce_ANNOUNCE_WEDDING_DATE_with_Taylor_Swift_Why_He_was_Delaying_all_Along.mp4</name>
							<pathurl>file://localhost/Users/themalikano/Documents/VideoAutomation/premiere_videos/Travis_Kelce_ANNOUNCE_WEDDING_DATE_with_Taylor_Swift_Why_He_was_Delaying_all_Along.mp4</pathurl>
							<rate>
								<timebase>24</timebase>
								<ntsc>FALSE</ntsc>
							</rate>
							<duration>39627</duration>
							<timecode>
								<rate>
									<timebase>24</timebase>
									<ntsc>FALSE</ntsc>
								</rate>
								<string>00:00:00:00</string>
								<frame>0</frame>
								<displayformat>NDF</displayformat>
							</timecode>
							<media>
								<video>
									<samplecharacteristics>
										<rate>
											<timebase>24</timebase>
											<ntsc>FALSE</ntsc>
										</rate>
										<width>852</width>
										<height>480</height>
										<anamorphic>FALSE</anamorphic>
										<pixelaspectratio>square</pixelaspectratio>
										<fielddominance>none</fielddominance>
									</samplecharacteristics>
								</video>
								<audio>
									<samplecharacteristics>
										<depth>16</depth>
										<samplerate>44100</samplerate>
									</samplecharacteristics>
									<channelcount>2</channelcount>
								</audio>
							</media>
						</file>
						<filter>
							<effect>
								<name>Basic Motion</name>
								<effectid>basic</effectid>
								<effectcategory>motion</effectcategory>
								<effecttype>motion</effecttype>
								<mediatype>video</mediatype>
								<pproBypass>false</pproBypass>
								<parameter authoringApp="PremierePro">
									<parameterid>scale</parameterid>
									<name>Scale</name>
									<valuemin>0</valuemin>
									<valuemax>1000</valuemax>
									<value>225</value>
								</parameter>
								<parameter authoringApp="PremierePro">
									<parameterid>rotation</parameterid>
									<name>Rotation</name>
									<valuemin>-8640</valuemin>
									<valuemax>8640</valuemax>
									<value>0</value>
								</parameter>
								<parameter authoringApp="PremierePro">
									<parameterid>center</parameterid>
									<name>Center</name>
									<value>
										<horiz>0</horiz>
										<vert>0</vert>
									</value>
								</parameter>
								<parameter authoringApp="PremierePro">
									<parameterid>centerOffset</parameterid>
									<name>Anchor Point</name>
									<value>
										<horiz>0</horiz>
										<vert>0</vert>
									</value>
								</parameter>
								<parameter authoringApp="PremierePro">
									<parameterid>antiflicker</parameterid>
									<name>Anti-flicker Filter</name>
									<valuemin>0.0</valuemin>
									<valuemax>1.0</valuemax>
									<value>0</value>
								</parameter>
							</effect>
						</filter>
						<link>
							<linkclipref>clipitem-88</linkclipref>
							<mediatype>video</mediatype>
							<trackindex>1</trackindex>
							<clipindex>4</clipindex>
						</link>
						<link>
							<linkclipref>clipitem-96</linkclipref>
							<mediatype>audio</mediatype>
							<trackindex>1</trackindex>
							<clipindex>4</clipindex>
							<groupindex>1</groupindex>
						</link>
						<link>
							<linkclipref>clipitem-104</linkclipref>
							<mediatype>audio</mediatype>
							<trackindex>2</trackindex>
							<clipindex>4</clipindex>
							<groupindex>1</groupindex>
						</link>
						<logginginfo>
							<description />
							<scene />
							<shottake />
							<lognote />
							<good />
							<originalvideofilename />
							<originalaudiofilename />
						</logginginfo>
						<colorinfo>
							<lut />
							<lut1 />
							<asc_sop />
							<asc_sat />
							<lut2 />
						</colorinfo>
					<labels><label2>Lavender</label2></labels></clipitem>
					<clipitem id="clipitem-86">
						<masterclipid>clipitem-2-44</masterclipid>
						<name>Taylor_Swift_Shares_The_Story_Of_Calling_Travis_Kelce_For_The_First_Time.mp4</name>
						<enabled>TRUE</enabled>
						<duration>150</duration>
						<rate>
							<timebase>25</timebase>
							<ntsc>FALSE</ntsc>
						</rate>
						<start>21150</start>
						<end>21300</end>
						<in>6450</in>
						<out>6600</out>
						<pproTicksIn>0</pproTicksIn>
						<pproTicksOut>236438092800000</pproTicksOut>
						<alphatype>none</alphatype>
						<pixelaspectratio>square</pixelaspectratio>
						<anamorphic>FALSE</anamorphic>
						<file id="file-30">
							<name>Taylor_Swift_Shares_The_Story_Of_Calling_Travis_Kelce_For_The_First_Time.mp4</name>
							<pathurl>file://localhost/Users/themalikano/Documents/VideoAutomation/premiere_videos/Taylor_Swift_Shares_The_Story_Of_Calling_Travis_Kelce_For_The_First_Time.mp4</pathurl>
							<rate>
								<timebase>30</timebase>
								<ntsc>TRUE</ntsc>
							</rate>
							<duration>27897</duration>
							<timecode>
								<rate>
									<timebase>30</timebase>
									<ntsc>TRUE</ntsc>
								</rate>
								<string>00:00:00:00</string>
								<frame>0</frame>
								<displayformat>NDF</displayformat>
							</timecode>
							<media>
								<video>
									<samplecharacteristics>
										<rate>
											<timebase>30</timebase>
											<ntsc>TRUE</ntsc>
										</rate>
										<width>1920</width>
										<height>1080</height>
										<anamorphic>FALSE</anamorphic>
										<pixelaspectratio>square</pixelaspectratio>
										<fielddominance>none</fielddominance>
									</samplecharacteristics>
								</video>
								<audio>
									<samplecharacteristics>
										<depth>16</depth>
										<samplerate>44100</samplerate>
									</samplecharacteristics>
									<channelcount>2</channelcount>
								</audio>
							</media>
						</file>
						<link>
							<linkclipref>clipitem-86</linkclipref>
							<mediatype>video</mediatype>
							<trackindex>1</trackindex>
							<clipindex>2</clipindex>
						</link>
						<link>
							<linkclipref>clipitem-94</linkclipref>
							<mediatype>audio</mediatype>
							<trackindex>1</trackindex>
							<clipindex>2</clipindex>
							<groupindex>1</groupindex>
						</link>
						<link>
							<linkclipref>clipitem-102</linkclipref>
							<mediatype>audio</mediatype>
							<trackindex>2</trackindex>
							<clipindex>2</clipindex>
							<groupindex>1</groupindex>
						</link>
						<logginginfo>
							<description />
							<scene />
							<shottake />
							<lognote />
							<good />
							<originalvideofilename />
							<originalaudiofilename />
						</logginginfo>
						<colorinfo>
							<lut />
							<lut1 />
							<asc_sop />
							<asc_sat />
							<lut2 />
						</colorinfo>
					<labels><label2>Iris</label2></labels></clipitem>
					<clipitem id="clipitem-91">
						<masterclipid>clipitem-7-28</masterclipid>
						<name>What_Caused_Taylor_Swift-Blake_Lively_Rift_The_View.mp4</name>
						<enabled>TRUE</enabled>
						<duration>150</duration>
						<rate>
							<timebase>25</timebase>
							<ntsc>FALSE</ntsc>
						</rate>
						<start>21300</start>
						<end>21450</end>
						<in>4050</in>
						<out>4200</out>
						<pproTicksIn>0</pproTicksIn>
						<pproTicksOut>45733040640000</pproTicksOut>
						<alphatype>none</alphatype>
						<pixelaspectratio>square</pixelaspectratio>
						<anamorphic>FALSE</anamorphic>
						<file id="file-35">
							<name>What_Caused_Taylor_Swift-Blake_Lively_Rift_The_View.mp4</name>
							<pathurl>file://localhost/Users/themalikano/Documents/VideoAutomation/premiere_videos/What_Caused_Taylor_Swift-Blake_Lively_Rift_The_View.mp4</pathurl>
							<rate>
								<timebase>30</timebase>
								<ntsc>TRUE</ntsc>
							</rate>
							<duration>5397</duration>
							<timecode>
								<rate>
									<timebase>30</timebase>
									<ntsc>TRUE</ntsc>
								</rate>
								<string>00:00:00:00</string>
								<frame>0</frame>
								<displayformat>NDF</displayformat>
							</timecode>
							<media>
								<video>
									<samplecharacteristics>
										<rate>
											<timebase>30</timebase>
											<ntsc>TRUE</ntsc>
										</rate>
										<width>1280</width>
										<height>720</height>
										<anamorphic>FALSE</anamorphic>
										<pixelaspectratio>square</pixelaspectratio>
										<fielddominance>none</fielddominance>
									</samplecharacteristics>
								</video>
								<audio>
									<samplecharacteristics>
										<depth>16</depth>
										<samplerate>44100</samplerate>
									</samplecharacteristics>
									<channelcount>2</channelcount>
								</audio>
							</media>
						</file>
						<filter>
							<effect>
								<name>Basic Motion</name>
								<effectid>basic</effectid>
								<effectcategory>motion</effectcategory>
								<effecttype>motion</effecttype>
								<mediatype>video</mediatype>
								<pproBypass>false</pproBypass>
								<parameter authoringApp="PremierePro">
									<parameterid>scale</parameterid>
									<name>Scale</name>
									<valuemin>0</valuemin>
									<valuemax>1000</valuemax>
									<value>150</value>
								</parameter>
								<parameter authoringApp="PremierePro">
									<parameterid>rotation</parameterid>
									<name>Rotation</name>
									<valuemin>-8640</valuemin>
									<valuemax>8640</valuemax>
									<value>0</value>
								</parameter>
								<parameter authoringApp="PremierePro">
									<parameterid>center</parameterid>
									<name>Center</name>
									<value>
										<horiz>0</horiz>
										<vert>0</vert>
									</value>
								</parameter>
								<parameter authoringApp="PremierePro">
									<parameterid>centerOffset</parameterid>
									<name>Anchor Point</name>
									<value>
										<horiz>0</horiz>
										<vert>0</vert>
									</value>
								</parameter>
								<parameter authoringApp="PremierePro">
									<parameterid>antiflicker</parameterid>
									<name>Anti-flicker Filter</name>
									<valuemin>0.0</valuemin>
									<valuemax>1.0</valuemax>
									<value>0</value>
								</parameter>
							</effect>
						</filter>
						<link>
							<linkclipref>clipitem-91</linkclipref>
							<mediatype>video</mediatype>
							<trackindex>1</trackindex>
							<clipindex>7</clipindex>
						</link>
						<link>
							<linkclipref>clipitem-99</linkclipref>
							<mediatype>audio</mediatype>
							<trackindex>1</trackindex>
							<clipindex>7</clipindex>
							<groupindex>1</groupindex>
						</link>
						<link>
							<linkclipref>clipitem-107</linkclipref>
							<mediatype>audio</mediatype>
							<trackindex>2</trackindex>
							<clipindex>7</clipindex>
							<groupindex>1</groupindex>
						</link>
						<logginginfo>
							<description />
							<scene />
							<shottake />
							<lognote />
							<good />
							<originalvideofilename />
							<originalaudiofilename />
						</logginginfo>
						<colorinfo>
							<lut />
							<lut1 />
							<asc_sop />
							<asc_sat />
							<lut2 />
						</colorinfo>
					<labels><label2>Rose</label2></labels></clipitem>
					<clipitem id="clipitem-87">
						<masterclipid>clipitem-3-181</masterclipid>
						<name>Taylor_Swift_Travis_Kelce_-_The_New_Power_Couple.mp4</name>
						<enabled>TRUE</enabled>
						<duration>150</duration>
						<rate>
							<timebase>25</timebase>
							<ntsc>FALSE</ntsc>
						</rate>
						<start>21450</start>
						<end>21600</end>
						<in>27000</in>
						<out>27150</out>
						<pproTicksIn>0</pproTicksIn>
						<pproTicksOut>875013995520000</pproTicksOut>
						<alphatype>none</alphatype>
						<pixelaspectratio>square</pixelaspectratio>
						<anamorphic>FALSE</anamorphic>
						<file id="file-31">
							<name>Taylor_Swift_Travis_Kelce_-_The_New_Power_Couple.mp4</name>
							<pathurl>file://localhost/Users/themalikano/Documents/VideoAutomation/premiere_videos/Taylor_Swift_Travis_Kelce_-_The_New_Power_Couple.mp4</pathurl>
							<rate>
								<timebase>25</timebase>
								<ntsc>FALSE</ntsc>
							</rate>
							<duration>86118</duration>
							<timecode>
								<rate>
									<timebase>25</timebase>
									<ntsc>FALSE</ntsc>
								</rate>
								<string>00:00:00:00</string>
								<frame>0</frame>
								<displayformat>NDF</displayformat>
							</timecode>
							<media>
								<video>
									<samplecharacteristics>
										<rate>
											<timebase>25</timebase>
											<ntsc>FALSE</ntsc>
										</rate>
										<width>1920</width>
										<height>1080</height>
										<anamorphic>FALSE</anamorphic>
										<pixelaspectratio>square</pixelaspectratio>
										<fielddominance>none</fielddominance>
									</samplecharacteristics>
								</video>
								<audio>
									<samplecharacteristics>
										<depth>16</depth>
										<samplerate>44100</samplerate>
									</samplecharacteristics>
									<channelcount>2</channelcount>
								</audio>
							</media>
						</file>
						<link>
							<linkclipref>clipitem-87</linkclipref>
							<mediatype>video</mediatype>
							<trackindex>1</trackindex>
							<clipindex>3</clipindex>
						</link>
						<link>
							<linkclipref>clipitem-95</linkclipref>
							<mediatype>audio</mediatype>
							<trackindex>1</trackindex>
							<clipindex>3</clipindex>
							<groupindex>1</groupindex>
						</link>
						<link>
							<linkclipref>clipitem-103</linkclipref>
							<mediatype>audio</mediatype>
							<trackindex>2</trackindex>
							<clipindex>3</clipindex>
							<groupindex>1</groupindex>
						</link>
						<logginginfo>
							<description />
							<scene />
							<shottake />
							<lognote />
							<good />
							<originalvideofilename />
							<originalaudiofilename />
						</logginginfo>
						<colorinfo>
							<lut />
							<lut1 />
							<asc_sop />
							<asc_sat />
							<lut2 />
						</colorinfo>
					<labels><label2>Caribbean</label2></labels></clipitem>
					<clipitem id="clipitem-85">
						<masterclipid>clipitem-1-20</masterclipid>
						<name>Taylor_Swift_Reveals_What_Fiance_Travis_Kelce_Said_Before_Proposal_E_News.mp4</name>
						<enabled>TRUE</enabled>
						<duration>150</duration>
						<rate>
							<timebase>25</timebase>
							<ntsc>FALSE</ntsc>
						</rate>
						<start>21600</start>
						<end>21750</end>
						<in>2850</in>
						<out>3000</out>
						<pproTicksIn>0</pproTicksIn>
						<pproTicksOut>36039790080000</pproTicksOut>
						<alphatype>none</alphatype>
						<pixelaspectratio>square</pixelaspectratio>
						<anamorphic>FALSE</anamorphic>
						<file id="file-29">
							<name>Taylor_Swift_Reveals_What_Fiance_Travis_Kelce_Said_Before_Proposal_E_News.mp4</name>
							<pathurl>file://localhost/Users/themalikano/Documents/VideoAutomation/premiere_videos/Taylor_Swift_Reveals_What_Fiance_Travis_Kelce_Said_Before_Proposal_E_News.mp4</pathurl>
							<rate>
								<timebase>29</timebase>
								<ntsc>FALSE</ntsc>
							</rate>
							<duration>4115</duration>
							<timecode>
								<rate>
									<timebase>29</timebase>
									<ntsc>FALSE</ntsc>
								</rate>
								<string>00:00:00:00</string>
								<frame>0</frame>
								<displayformat>NDF</displayformat>
							</timecode>
							<media>
								<video>
									<samplecharacteristics>
										<rate>
											<timebase>29</timebase>
											<ntsc>FALSE</ntsc>
										</rate>
										<width>1920</width>
										<height>1080</height>
										<anamorphic>FALSE</anamorphic>
										<pixelaspectratio>square</pixelaspectratio>
										<fielddominance>none</fielddominance>
									</samplecharacteristics>
								</video>
								<audio>
									<samplecharacteristics>
										<depth>16</depth>
										<samplerate>44100</samplerate>
									</samplecharacteristics>
									<channelcount>2</channelcount>
								</audio>
							</media>
						</file>
						<link>
							<linkclipref>clipitem-85</linkclipref>
							<mediatype>video</mediatype>
							<trackindex>1</trackindex>
							<clipindex>1</clipindex>
						</link>
						<link>
							<linkclipref>clipitem-93</linkclipref>
							<mediatype>audio</mediatype>
							<trackindex>1</trackindex>
							<clipindex>1</clipindex>
							<groupindex>1</groupindex>
						</link>
						<link>
							<linkclipref>clipitem-101</linkclipref>
							<mediatype>audio</mediatype>
							<trackindex>2</trackindex>
							<clipindex>1</clipindex>
							<groupindex>1</groupindex>
						</link>
						<logginginfo>
							<description />
							<scene />
							<shottake />
							<lognote />
							<good />
							<originalvideofilename />
							<originalaudiofilename />
						</logginginfo>
						<colorinfo>
							<lut />
							<lut1 />
							<asc_sop />
							<asc_sat />
							<lut2 />
						</colorinfo>
					<labels><label2>Violet</label2></labels></clipitem>
					<clipitem id="clipitem-91">
						<masterclipid>clipitem-7-13</masterclipid>
						<name>What_Caused_Taylor_Swift-Blake_Lively_Rift_The_View.mp4</name>
						<enabled>TRUE</enabled>
						<duration>150</duration>
						<rate>
							<timebase>25</timebase>
							<ntsc>FALSE</ntsc>
						</rate>
						<start>21750</start>
						<end>21900</end>
						<in>1800</in>
						<out>1950</out>
						<pproTicksIn>0</pproTicksIn>
						<pproTicksOut>45733040640000</pproTicksOut>
						<alphatype>none</alphatype>
						<pixelaspectratio>square</pixelaspectratio>
						<anamorphic>FALSE</anamorphic>
						<file id="file-35">
							<name>What_Caused_Taylor_Swift-Blake_Lively_Rift_The_View.mp4</name>
							<pathurl>file://localhost/Users/themalikano/Documents/VideoAutomation/premiere_videos/What_Caused_Taylor_Swift-Blake_Lively_Rift_The_View.mp4</pathurl>
							<rate>
								<timebase>30</timebase>
								<ntsc>TRUE</ntsc>
							</rate>
							<duration>5397</duration>
							<timecode>
								<rate>
									<timebase>30</timebase>
									<ntsc>TRUE</ntsc>
								</rate>
								<string>00:00:00:00</string>
								<frame>0</frame>
								<displayformat>NDF</displayformat>
							</timecode>
							<media>
								<video>
									<samplecharacteristics>
										<rate>
											<timebase>30</timebase>
											<ntsc>TRUE</ntsc>
										</rate>
										<width>1280</width>
										<height>720</height>
										<anamorphic>FALSE</anamorphic>
										<pixelaspectratio>square</pixelaspectratio>
										<fielddominance>none</fielddominance>
									</samplecharacteristics>
								</video>
								<audio>
									<samplecharacteristics>
										<depth>16</depth>
										<samplerate>44100</samplerate>
									</samplecharacteristics>
									<channelcount>2</channelcount>
								</audio>
							</media>
						</file>
						<filter>
							<effect>
								<name>Basic Motion</name>
								<effectid>basic</effectid>
								<effectcategory>motion</effectcategory>
								<effecttype>motion</effecttype>
								<mediatype>video</mediatype>
								<pproBypass>false</pproBypass>
								<parameter authoringApp="PremierePro">
									<parameterid>scale</parameterid>
									<name>Scale</name>
									<valuemin>0</valuemin>
									<valuemax>1000</valuemax>
									<value>150</value>
								</parameter>
								<parameter authoringApp="PremierePro">
									<parameterid>rotation</parameterid>
									<name>Rotation</name>
									<valuemin>-8640</valuemin>
									<valuemax>8640</valuemax>
									<value>0</value>
								</parameter>
								<parameter authoringApp="PremierePro">
									<parameterid>center</parameterid>
									<name>Center</name>
									<value>
										<horiz>0</horiz>
										<vert>0</vert>
									</value>
								</parameter>
								<parameter authoringApp="PremierePro">
									<parameterid>centerOffset</parameterid>
									<name>Anchor Point</name>
									<value>
										<horiz>0</horiz>
										<vert>0</vert>
									</value>
								</parameter>
								<parameter authoringApp="PremierePro">
									<parameterid>antiflicker</parameterid>
									<name>Anti-flicker Filter</name>
									<valuemin>0.0</valuemin>
									<valuemax>1.0</valuemax>
									<value>0</value>
								</parameter>
							</effect>
						</filter>
						<link>
							<linkclipref>clipitem-91</linkclipref>
							<mediatype>video</mediatype>
							<trackindex>1</trackindex>
							<clipindex>7</clipindex>
						</link>
						<link>
							<linkclipref>clipitem-99</linkclipref>
							<mediatype>audio</mediatype>
							<trackindex>1</trackindex>
							<clipindex>7</clipindex>
							<groupindex>1</groupindex>
						</link>
						<link>
							<linkclipref>clipitem-107</linkclipref>
							<mediatype>audio</mediatype>
							<trackindex>2</trackindex>
							<clipindex>7</clipindex>
							<groupindex>1</groupindex>
						</link>
						<logginginfo>
							<description />
							<scene />
							<shottake />
							<lognote />
							<good />
							<originalvideofilename />
							<originalaudiofilename />
						</logginginfo>
						<colorinfo>
							<lut />
							<lut1 />
							<asc_sop />
							<asc_sat />
							<lut2 />
						</colorinfo>
					<labels><label2>Rose</label2></labels></clipitem>
					<clipitem id="clipitem-88">
						<masterclipid>clipitem-4-40</masterclipid>
						<name>Travis_Kelce_ANNOUNCE_WEDDING_DATE_with_Taylor_Swift_Why_He_was_Delaying_all_Along.mp4</name>
						<enabled>TRUE</enabled>
						<duration>150</duration>
						<rate>
							<timebase>25</timebase>
							<ntsc>FALSE</ntsc>
						</rate>
						<start>21900</start>
						<end>22050</end>
						<in>5850</in>
						<out>6000</out>
						<pproTicksIn>0</pproTicksIn>
						<pproTicksOut>419410897920000</pproTicksOut>
						<alphatype>none</alphatype>
						<pixelaspectratio>square</pixelaspectratio>
						<anamorphic>FALSE</anamorphic>
						<file id="file-32">
							<name>Travis_Kelce_ANNOUNCE_WEDDING_DATE_with_Taylor_Swift_Why_He_was_Delaying_all_Along.mp4</name>
							<pathurl>file://localhost/Users/themalikano/Documents/VideoAutomation/premiere_videos/Travis_Kelce_ANNOUNCE_WEDDING_DATE_with_Taylor_Swift_Why_He_was_Delaying_all_Along.mp4</pathurl>
							<rate>
								<timebase>24</timebase>
								<ntsc>FALSE</ntsc>
							</rate>
							<duration>39627</duration>
							<timecode>
								<rate>
									<timebase>24</timebase>
									<ntsc>FALSE</ntsc>
								</rate>
								<string>00:00:00:00</string>
								<frame>0</frame>
								<displayformat>NDF</displayformat>
							</timecode>
							<media>
								<video>
									<samplecharacteristics>
										<rate>
											<timebase>24</timebase>
											<ntsc>FALSE</ntsc>
										</rate>
										<width>852</width>
										<height>480</height>
										<anamorphic>FALSE</anamorphic>
										<pixelaspectratio>square</pixelaspectratio>
										<fielddominance>none</fielddominance>
									</samplecharacteristics>
								</video>
								<audio>
									<samplecharacteristics>
										<depth>16</depth>
										<samplerate>44100</samplerate>
									</samplecharacteristics>
									<channelcount>2</channelcount>
								</audio>
							</media>
						</file>
						<filter>
							<effect>
								<name>Basic Motion</name>
								<effectid>basic</effectid>
								<effectcategory>motion</effectcategory>
								<effecttype>motion</effecttype>
								<mediatype>video</mediatype>
								<pproBypass>false</pproBypass>
								<parameter authoringApp="PremierePro">
									<parameterid>scale</parameterid>
									<name>Scale</name>
									<valuemin>0</valuemin>
									<valuemax>1000</valuemax>
									<value>225</value>
								</parameter>
								<parameter authoringApp="PremierePro">
									<parameterid>rotation</parameterid>
									<name>Rotation</name>
									<valuemin>-8640</valuemin>
									<valuemax>8640</valuemax>
									<value>0</value>
								</parameter>
								<parameter authoringApp="PremierePro">
									<parameterid>center</parameterid>
									<name>Center</name>
									<value>
										<horiz>0</horiz>
										<vert>0</vert>
									</value>
								</parameter>
								<parameter authoringApp="PremierePro">
									<parameterid>centerOffset</parameterid>
									<name>Anchor Point</name>
									<value>
										<horiz>0</horiz>
										<vert>0</vert>
									</value>
								</parameter>
								<parameter authoringApp="PremierePro">
									<parameterid>antiflicker</parameterid>
									<name>Anti-flicker Filter</name>
									<valuemin>0.0</valuemin>
									<valuemax>1.0</valuemax>
									<value>0</value>
								</parameter>
							</effect>
						</filter>
						<link>
							<linkclipref>clipitem-88</linkclipref>
							<mediatype>video</mediatype>
							<trackindex>1</trackindex>
							<clipindex>4</clipindex>
						</link>
						<link>
							<linkclipref>clipitem-96</linkclipref>
							<mediatype>audio</mediatype>
							<trackindex>1</trackindex>
							<clipindex>4</clipindex>
							<groupindex>1</groupindex>
						</link>
						<link>
							<linkclipref>clipitem-104</linkclipref>
							<mediatype>audio</mediatype>
							<trackindex>2</trackindex>
							<clipindex>4</clipindex>
							<groupindex>1</groupindex>
						</link>
						<logginginfo>
							<description />
							<scene />
							<shottake />
							<lognote />
							<good />
							<originalvideofilename />
							<originalaudiofilename />
						</logginginfo>
						<colorinfo>
							<lut />
							<lut1 />
							<asc_sop />
							<asc_sat />
							<lut2 />
						</colorinfo>
					<labels><label2>Lavender</label2></labels></clipitem>
					<clipitem id="clipitem-86">
						<masterclipid>clipitem-2-35</masterclipid>
						<name>Taylor_Swift_Shares_The_Story_Of_Calling_Travis_Kelce_For_The_First_Time.mp4</name>
						<enabled>TRUE</enabled>
						<duration>150</duration>
						<rate>
							<timebase>25</timebase>
							<ntsc>FALSE</ntsc>
						</rate>
						<start>22050</start>
						<end>22200</end>
						<in>5100</in>
						<out>5250</out>
						<pproTicksIn>0</pproTicksIn>
						<pproTicksOut>236438092800000</pproTicksOut>
						<alphatype>none</alphatype>
						<pixelaspectratio>square</pixelaspectratio>
						<anamorphic>FALSE</anamorphic>
						<file id="file-30">
							<name>Taylor_Swift_Shares_The_Story_Of_Calling_Travis_Kelce_For_The_First_Time.mp4</name>
							<pathurl>file://localhost/Users/themalikano/Documents/VideoAutomation/premiere_videos/Taylor_Swift_Shares_The_Story_Of_Calling_Travis_Kelce_For_The_First_Time.mp4</pathurl>
							<rate>
								<timebase>30</timebase>
								<ntsc>TRUE</ntsc>
							</rate>
							<duration>27897</duration>
							<timecode>
								<rate>
									<timebase>30</timebase>
									<ntsc>TRUE</ntsc>
								</rate>
								<string>00:00:00:00</string>
								<frame>0</frame>
								<displayformat>NDF</displayformat>
							</timecode>
							<media>
								<video>
									<samplecharacteristics>
										<rate>
											<timebase>30</timebase>
											<ntsc>TRUE</ntsc>
										</rate>
										<width>1920</width>
										<height>1080</height>
										<anamorphic>FALSE</anamorphic>
										<pixelaspectratio>square</pixelaspectratio>
										<fielddominance>none</fielddominance>
									</samplecharacteristics>
								</video>
								<audio>
									<samplecharacteristics>
										<depth>16</depth>
										<samplerate>44100</samplerate>
									</samplecharacteristics>
									<channelcount>2</channelcount>
								</audio>
							</media>
						</file>
						<link>
							<linkclipref>clipitem-86</linkclipref>
							<mediatype>video</mediatype>
							<trackindex>1</trackindex>
							<clipindex>2</clipindex>
						</link>
						<link>
							<linkclipref>clipitem-94</linkclipref>
							<mediatype>audio</mediatype>
							<trackindex>1</trackindex>
							<clipindex>2</clipindex>
							<groupindex>1</groupindex>
						</link>
						<link>
							<linkclipref>clipitem-102</linkclipref>
							<mediatype>audio</mediatype>
							<trackindex>2</trackindex>
							<clipindex>2</clipindex>
							<groupindex>1</groupindex>
						</link>
						<logginginfo>
							<description />
							<scene />
							<shottake />
							<lognote />
							<good />
							<originalvideofilename />
							<originalaudiofilename />
						</logginginfo>
						<colorinfo>
							<lut />
							<lut1 />
							<asc_sop />
							<asc_sat />
							<lut2 />
						</colorinfo>
					<labels><label2>Iris</label2></labels></clipitem>
					<clipitem id="clipitem-88">
						<masterclipid>clipitem-4-68</masterclipid>
						<name>Travis_Kelce_ANNOUNCE_WEDDING_DATE_with_Taylor_Swift_Why_He_was_Delaying_all_Along.mp4</name>
						<enabled>TRUE</enabled>
						<duration>150</duration>
						<rate>
							<timebase>25</timebase>
							<ntsc>FALSE</ntsc>
						</rate>
						<start>22200</start>
						<end>22350</end>
						<in>10050</in>
						<out>10200</out>
						<pproTicksIn>0</pproTicksIn>
						<pproTicksOut>419410897920000</pproTicksOut>
						<alphatype>none</alphatype>
						<pixelaspectratio>square</pixelaspectratio>
						<anamorphic>FALSE</anamorphic>
						<file id="file-32">
							<name>Travis_Kelce_ANNOUNCE_WEDDING_DATE_with_Taylor_Swift_Why_He_was_Delaying_all_Along.mp4</name>
							<pathurl>file://localhost/Users/themalikano/Documents/VideoAutomation/premiere_videos/Travis_Kelce_ANNOUNCE_WEDDING_DATE_with_Taylor_Swift_Why_He_was_Delaying_all_Along.mp4</pathurl>
							<rate>
								<timebase>24</timebase>
								<ntsc>FALSE</ntsc>
							</rate>
							<duration>39627</duration>
							<timecode>
								<rate>
									<timebase>24</timebase>
									<ntsc>FALSE</ntsc>
								</rate>
								<string>00:00:00:00</string>
								<frame>0</frame>
								<displayformat>NDF</displayformat>
							</timecode>
							<media>
								<video>
									<samplecharacteristics>
										<rate>
											<timebase>24</timebase>
											<ntsc>FALSE</ntsc>
										</rate>
										<width>852</width>
										<height>480</height>
										<anamorphic>FALSE</anamorphic>
										<pixelaspectratio>square</pixelaspectratio>
										<fielddominance>none</fielddominance>
									</samplecharacteristics>
								</video>
								<audio>
									<samplecharacteristics>
										<depth>16</depth>
										<samplerate>44100</samplerate>
									</samplecharacteristics>
									<channelcount>2</channelcount>
								</audio>
							</media>
						</file>
						<filter>
							<effect>
								<name>Basic Motion</name>
								<effectid>basic</effectid>
								<effectcategory>motion</effectcategory>
								<effecttype>motion</effecttype>
								<mediatype>video</mediatype>
								<pproBypass>false</pproBypass>
								<parameter authoringApp="PremierePro">
									<parameterid>scale</parameterid>
									<name>Scale</name>
									<valuemin>0</valuemin>
									<valuemax>1000</valuemax>
									<value>225</value>
								</parameter>
								<parameter authoringApp="PremierePro">
									<parameterid>rotation</parameterid>
									<name>Rotation</name>
									<valuemin>-8640</valuemin>
									<valuemax>8640</valuemax>
									<value>0</value>
								</parameter>
								<parameter authoringApp="PremierePro">
									<parameterid>center</parameterid>
									<name>Center</name>
									<value>
										<horiz>0</horiz>
										<vert>0</vert>
									</value>
								</parameter>
								<parameter authoringApp="PremierePro">
									<parameterid>centerOffset</parameterid>
									<name>Anchor Point</name>
									<value>
										<horiz>0</horiz>
										<vert>0</vert>
									</value>
								</parameter>
								<parameter authoringApp="PremierePro">
									<parameterid>antiflicker</parameterid>
									<name>Anti-flicker Filter</name>
									<valuemin>0.0</valuemin>
									<valuemax>1.0</valuemax>
									<value>0</value>
								</parameter>
							</effect>
						</filter>
						<link>
							<linkclipref>clipitem-88</linkclipref>
							<mediatype>video</mediatype>
							<trackindex>1</trackindex>
							<clipindex>4</clipindex>
						</link>
						<link>
							<linkclipref>clipitem-96</linkclipref>
							<mediatype>audio</mediatype>
							<trackindex>1</trackindex>
							<clipindex>4</clipindex>
							<groupindex>1</groupindex>
						</link>
						<link>
							<linkclipref>clipitem-104</linkclipref>
							<mediatype>audio</mediatype>
							<trackindex>2</trackindex>
							<clipindex>4</clipindex>
							<groupindex>1</groupindex>
						</link>
						<logginginfo>
							<description />
							<scene />
							<shottake />
							<lognote />
							<good />
							<originalvideofilename />
							<originalaudiofilename />
						</logginginfo>
						<colorinfo>
							<lut />
							<lut1 />
							<asc_sop />
							<asc_sat />
							<lut2 />
						</colorinfo>
					<labels><label2>Lavender</label2></labels></clipitem>
					<clipitem id="clipitem-89">
						<masterclipid>clipitem-5-18</masterclipid>
						<name>Travis_Kelce_s_appearance_on_The_Eras_Tour_during_I_Can_Do_It_With_A_Broken_Heart_in_London.mp4</name>
						<enabled>TRUE</enabled>
						<duration>150</duration>
						<rate>
							<timebase>25</timebase>
							<ntsc>FALSE</ntsc>
						</rate>
						<start>22350</start>
						<end>22500</end>
						<in>2550</in>
						<out>2700</out>
						<pproTicksIn>0</pproTicksIn>
						<pproTicksOut>27525173760000</pproTicksOut>
						<alphatype>none</alphatype>
						<pixelaspectratio>square</pixelaspectratio>
						<anamorphic>FALSE</anamorphic>
						<file id="file-33">
							<name>Travis_Kelce_s_appearance_on_The_Eras_Tour_during_I_Can_Do_It_With_A_Broken_Heart_in_London.mp4</name>
							<pathurl>file://localhost/Users/themalikano/Documents/VideoAutomation/premiere_videos/Travis_Kelce_s_appearance_on_The_Eras_Tour_during_I_Can_Do_It_With_A_Broken_Heart_in_London.mp4</pathurl>
							<rate>
								<timebase>24</timebase>
								<ntsc>TRUE</ntsc>
							</rate>
							<duration>2599</duration>
							<timecode>
								<rate>
									<timebase>24</timebase>
									<ntsc>TRUE</ntsc>
								</rate>
								<string>00:00:00:00</string>
								<frame>0</frame>
								<displayformat>NDF</displayformat>
							</timecode>
							<media>
								<video>
									<samplecharacteristics>
										<rate>
											<timebase>24</timebase>
											<ntsc>TRUE</ntsc>
										</rate>
										<width>1920</width>
										<height>1080</height>
										<anamorphic>FALSE</anamorphic>
										<pixelaspectratio>square</pixelaspectratio>
										<fielddominance>none</fielddominance>
									</samplecharacteristics>
								</video>
								<audio>
									<samplecharacteristics>
										<depth>16</depth>
										<samplerate>44100</samplerate>
									</samplecharacteristics>
									<channelcount>2</channelcount>
								</audio>
							</media>
						</file>
						<link>
							<linkclipref>clipitem-89</linkclipref>
							<mediatype>video</mediatype>
							<trackindex>1</trackindex>
							<clipindex>5</clipindex>
						</link>
						<link>
							<linkclipref>clipitem-97</linkclipref>
							<mediatype>audio</mediatype>
							<trackindex>1</trackindex>
							<clipindex>5</clipindex>
							<groupindex>1</groupindex>
						</link>
						<link>
							<linkclipref>clipitem-105</linkclipref>
							<mediatype>audio</mediatype>
							<trackindex>2</trackindex>
							<clipindex>5</clipindex>
							<groupindex>1</groupindex>
						</link>
						<logginginfo>
							<description />
							<scene />
							<shottake />
							<lognote />
							<good />
							<originalvideofilename />
							<originalaudiofilename />
						</logginginfo>
						<colorinfo>
							<lut />
							<lut1 />
							<asc_sop />
							<asc_sat />
							<lut2 />
						</colorinfo>
					<labels><label2>Cerulean</label2></labels></clipitem>
					<clipitem id="clipitem-88">
						<masterclipid>clipitem-4-94</masterclipid>
						<name>Travis_Kelce_ANNOUNCE_WEDDING_DATE_with_Taylor_Swift_Why_He_was_Delaying_all_Along.mp4</name>
						<enabled>TRUE</enabled>
						<duration>150</duration>
						<rate>
							<timebase>25</timebase>
							<ntsc>FALSE</ntsc>
						</rate>
						<start>22500</start>
						<end>22650</end>
						<in>13950</in>
						<out>14100</out>
						<pproTicksIn>0</pproTicksIn>
						<pproTicksOut>419410897920000</pproTicksOut>
						<alphatype>none</alphatype>
						<pixelaspectratio>square</pixelaspectratio>
						<anamorphic>FALSE</anamorphic>
						<file id="file-32">
							<name>Travis_Kelce_ANNOUNCE_WEDDING_DATE_with_Taylor_Swift_Why_He_was_Delaying_all_Along.mp4</name>
							<pathurl>file://localhost/Users/themalikano/Documents/VideoAutomation/premiere_videos/Travis_Kelce_ANNOUNCE_WEDDING_DATE_with_Taylor_Swift_Why_He_was_Delaying_all_Along.mp4</pathurl>
							<rate>
								<timebase>24</timebase>
								<ntsc>FALSE</ntsc>
							</rate>
							<duration>39627</duration>
							<timecode>
								<rate>
									<timebase>24</timebase>
									<ntsc>FALSE</ntsc>
								</rate>
								<string>00:00:00:00</string>
								<frame>0</frame>
								<displayformat>NDF</displayformat>
							</timecode>
							<media>
								<video>
									<samplecharacteristics>
										<rate>
											<timebase>24</timebase>
											<ntsc>FALSE</ntsc>
										</rate>
										<width>852</width>
										<height>480</height>
										<anamorphic>FALSE</anamorphic>
										<pixelaspectratio>square</pixelaspectratio>
										<fielddominance>none</fielddominance>
									</samplecharacteristics>
								</video>
								<audio>
									<samplecharacteristics>
										<depth>16</depth>
										<samplerate>44100</samplerate>
									</samplecharacteristics>
									<channelcount>2</channelcount>
								</audio>
							</media>
						</file>
						<filter>
							<effect>
								<name>Basic Motion</name>
								<effectid>basic</effectid>
								<effectcategory>motion</effectcategory>
								<effecttype>motion</effecttype>
								<mediatype>video</mediatype>
								<pproBypass>false</pproBypass>
								<parameter authoringApp="PremierePro">
									<parameterid>scale</parameterid>
									<name>Scale</name>
									<valuemin>0</valuemin>
									<valuemax>1000</valuemax>
									<value>225</value>
								</parameter>
								<parameter authoringApp="PremierePro">
									<parameterid>rotation</parameterid>
									<name>Rotation</name>
									<valuemin>-8640</valuemin>
									<valuemax>8640</valuemax>
									<value>0</value>
								</parameter>
								<parameter authoringApp="PremierePro">
									<parameterid>center</parameterid>
									<name>Center</name>
									<value>
										<horiz>0</horiz>
										<vert>0</vert>
									</value>
								</parameter>
								<parameter authoringApp="PremierePro">
									<parameterid>centerOffset</parameterid>
									<name>Anchor Point</name>
									<value>
										<horiz>0</horiz>
										<vert>0</vert>
									</value>
								</parameter>
								<parameter authoringApp="PremierePro">
									<parameterid>antiflicker</parameterid>
									<name>Anti-flicker Filter</name>
									<valuemin>0.0</valuemin>
									<valuemax>1.0</valuemax>
									<value>0</value>
								</parameter>
							</effect>
						</filter>
						<link>
							<linkclipref>clipitem-88</linkclipref>
							<mediatype>video</mediatype>
							<trackindex>1</trackindex>
							<clipindex>4</clipindex>
						</link>
						<link>
							<linkclipref>clipitem-96</linkclipref>
							<mediatype>audio</mediatype>
							<trackindex>1</trackindex>
							<clipindex>4</clipindex>
							<groupindex>1</groupindex>
						</link>
						<link>
							<linkclipref>clipitem-104</linkclipref>
							<mediatype>audio</mediatype>
							<trackindex>2</trackindex>
							<clipindex>4</clipindex>
							<groupindex>1</groupindex>
						</link>
						<logginginfo>
							<description />
							<scene />
							<shottake />
							<lognote />
							<good />
							<originalvideofilename />
							<originalaudiofilename />
						</logginginfo>
						<colorinfo>
							<lut />
							<lut1 />
							<asc_sop />
							<asc_sat />
							<lut2 />
						</colorinfo>
					<labels><label2>Lavender</label2></labels></clipitem>
					<clipitem id="clipitem-86">
						<masterclipid>clipitem-2-120</masterclipid>
						<name>Taylor_Swift_Shares_The_Story_Of_Calling_Travis_Kelce_For_The_First_Time.mp4</name>
						<enabled>TRUE</enabled>
						<duration>150</duration>
						<rate>
							<timebase>25</timebase>
							<ntsc>FALSE</ntsc>
						</rate>
						<start>22650</start>
						<end>22800</end>
						<in>17850</in>
						<out>18000</out>
						<pproTicksIn>0</pproTicksIn>
						<pproTicksOut>236438092800000</pproTicksOut>
						<alphatype>none</alphatype>
						<pixelaspectratio>square</pixelaspectratio>
						<anamorphic>FALSE</anamorphic>
						<file id="file-30">
							<name>Taylor_Swift_Shares_The_Story_Of_Calling_Travis_Kelce_For_The_First_Time.mp4</name>
							<pathurl>file://localhost/Users/themalikano/Documents/VideoAutomation/premiere_videos/Taylor_Swift_Shares_The_Story_Of_Calling_Travis_Kelce_For_The_First_Time.mp4</pathurl>
							<rate>
								<timebase>30</timebase>
								<ntsc>TRUE</ntsc>
							</rate>
							<duration>27897</duration>
							<timecode>
								<rate>
									<timebase>30</timebase>
									<ntsc>TRUE</ntsc>
								</rate>
								<string>00:00:00:00</string>
								<frame>0</frame>
								<displayformat>NDF</displayformat>
							</timecode>
							<media>
								<video>
									<samplecharacteristics>
										<rate>
											<timebase>30</timebase>
											<ntsc>TRUE</ntsc>
										</rate>
										<width>1920</width>
										<height>1080</height>
										<anamorphic>FALSE</anamorphic>
										<pixelaspectratio>square</pixelaspectratio>
										<fielddominance>none</fielddominance>
									</samplecharacteristics>
								</video>
								<audio>
									<samplecharacteristics>
										<depth>16</depth>
										<samplerate>44100</samplerate>
									</samplecharacteristics>
									<channelcount>2</channelcount>
								</audio>
							</media>
						</file>
						<link>
							<linkclipref>clipitem-86</linkclipref>
							<mediatype>video</mediatype>
							<trackindex>1</trackindex>
							<clipindex>2</clipindex>
						</link>
						<link>
							<linkclipref>clipitem-94</linkclipref>
							<mediatype>audio</mediatype>
							<trackindex>1</trackindex>
							<clipindex>2</clipindex>
							<groupindex>1</groupindex>
						</link>
						<link>
							<linkclipref>clipitem-102</linkclipref>
							<mediatype>audio</mediatype>
							<trackindex>2</trackindex>
							<clipindex>2</clipindex>
							<groupindex>1</groupindex>
						</link>
						<logginginfo>
							<description />
							<scene />
							<shottake />
							<lognote />
							<good />
							<originalvideofilename />
							<originalaudiofilename />
						</logginginfo>
						<colorinfo>
							<lut />
							<lut1 />
							<asc_sop />
							<asc_sat />
							<lut2 />
						</colorinfo>
					<labels><label2>Iris</label2></labels></clipitem>
					<clipitem id="clipitem-89">
						<masterclipid>clipitem-5-16</masterclipid>
						<name>Travis_Kelce_s_appearance_on_The_Eras_Tour_during_I_Can_Do_It_With_A_Broken_Heart_in_London.mp4</name>
						<enabled>TRUE</enabled>
						<duration>150</duration>
						<rate>
							<timebase>25</timebase>
							<ntsc>FALSE</ntsc>
						</rate>
						<start>22800</start>
						<end>22950</end>
						<in>2250</in>
						<out>2400</out>
						<pproTicksIn>0</pproTicksIn>
						<pproTicksOut>27525173760000</pproTicksOut>
						<alphatype>none</alphatype>
						<pixelaspectratio>square</pixelaspectratio>
						<anamorphic>FALSE</anamorphic>
						<file id="file-33">
							<name>Travis_Kelce_s_appearance_on_The_Eras_Tour_during_I_Can_Do_It_With_A_Broken_Heart_in_London.mp4</name>
							<pathurl>file://localhost/Users/themalikano/Documents/VideoAutomation/premiere_videos/Travis_Kelce_s_appearance_on_The_Eras_Tour_during_I_Can_Do_It_With_A_Broken_Heart_in_London.mp4</pathurl>
							<rate>
								<timebase>24</timebase>
								<ntsc>TRUE</ntsc>
							</rate>
							<duration>2599</duration>
							<timecode>
								<rate>
									<timebase>24</timebase>
									<ntsc>TRUE</ntsc>
								</rate>
								<string>00:00:00:00</string>
								<frame>0</frame>
								<displayformat>NDF</displayformat>
							</timecode>
							<media>
								<video>
									<samplecharacteristics>
										<rate>
											<timebase>24</timebase>
											<ntsc>TRUE</ntsc>
										</rate>
										<width>1920</width>
										<height>1080</height>
										<anamorphic>FALSE</anamorphic>
										<pixelaspectratio>square</pixelaspectratio>
										<fielddominance>none</fielddominance>
									</samplecharacteristics>
								</video>
								<audio>
									<samplecharacteristics>
										<depth>16</depth>
										<samplerate>44100</samplerate>
									</samplecharacteristics>
									<channelcount>2</channelcount>
								</audio>
							</media>
						</file>
						<link>
							<linkclipref>clipitem-89</linkclipref>
							<mediatype>video</mediatype>
							<trackindex>1</trackindex>
							<clipindex>5</clipindex>
						</link>
						<link>
							<linkclipref>clipitem-97</linkclipref>
							<mediatype>audio</mediatype>
							<trackindex>1</trackindex>
							<clipindex>5</clipindex>
							<groupindex>1</groupindex>
						</link>
						<link>
							<linkclipref>clipitem-105</linkclipref>
							<mediatype>audio</mediatype>
							<trackindex>2</trackindex>
							<clipindex>5</clipindex>
							<groupindex>1</groupindex>
						</link>
						<logginginfo>
							<description />
							<scene />
							<shottake />
							<lognote />
							<good />
							<originalvideofilename />
							<originalaudiofilename />
						</logginginfo>
						<colorinfo>
							<lut />
							<lut1 />
							<asc_sop />
							<asc_sat />
							<lut2 />
						</colorinfo>
					<labels><label2>Cerulean</label2></labels></clipitem>
					<clipitem id="clipitem-91">
						<masterclipid>clipitem-7-19</masterclipid>
						<name>What_Caused_Taylor_Swift-Blake_Lively_Rift_The_View.mp4</name>
						<enabled>TRUE</enabled>
						<duration>150</duration>
						<rate>
							<timebase>25</timebase>
							<ntsc>FALSE</ntsc>
						</rate>
						<start>22950</start>
						<end>23100</end>
						<in>2700</in>
						<out>2850</out>
						<pproTicksIn>0</pproTicksIn>
						<pproTicksOut>45733040640000</pproTicksOut>
						<alphatype>none</alphatype>
						<pixelaspectratio>square</pixelaspectratio>
						<anamorphic>FALSE</anamorphic>
						<file id="file-35">
							<name>What_Caused_Taylor_Swift-Blake_Lively_Rift_The_View.mp4</name>
							<pathurl>file://localhost/Users/themalikano/Documents/VideoAutomation/premiere_videos/What_Caused_Taylor_Swift-Blake_Lively_Rift_The_View.mp4</pathurl>
							<rate>
								<timebase>30</timebase>
								<ntsc>TRUE</ntsc>
							</rate>
							<duration>5397</duration>
							<timecode>
								<rate>
									<timebase>30</timebase>
									<ntsc>TRUE</ntsc>
								</rate>
								<string>00:00:00:00</string>
								<frame>0</frame>
								<displayformat>NDF</displayformat>
							</timecode>
							<media>
								<video>
									<samplecharacteristics>
										<rate>
											<timebase>30</timebase>
											<ntsc>TRUE</ntsc>
										</rate>
										<width>1280</width>
										<height>720</height>
										<anamorphic>FALSE</anamorphic>
										<pixelaspectratio>square</pixelaspectratio>
										<fielddominance>none</fielddominance>
									</samplecharacteristics>
								</video>
								<audio>
									<samplecharacteristics>
										<depth>16</depth>
										<samplerate>44100</samplerate>
									</samplecharacteristics>
									<channelcount>2</channelcount>
								</audio>
							</media>
						</file>
						<filter>
							<effect>
								<name>Basic Motion</name>
								<effectid>basic</effectid>
								<effectcategory>motion</effectcategory>
								<effecttype>motion</effecttype>
								<mediatype>video</mediatype>
								<pproBypass>false</pproBypass>
								<parameter authoringApp="PremierePro">
									<parameterid>scale</parameterid>
									<name>Scale</name>
									<valuemin>0</valuemin>
									<valuemax>1000</valuemax>
									<value>150</value>
								</parameter>
								<parameter authoringApp="PremierePro">
									<parameterid>rotation</parameterid>
									<name>Rotation</name>
									<valuemin>-8640</valuemin>
									<valuemax>8640</valuemax>
									<value>0</value>
								</parameter>
								<parameter authoringApp="PremierePro">
									<parameterid>center</parameterid>
									<name>Center</name>
									<value>
										<horiz>0</horiz>
										<vert>0</vert>
									</value>
								</parameter>
								<parameter authoringApp="PremierePro">
									<parameterid>centerOffset</parameterid>
									<name>Anchor Point</name>
									<value>
										<horiz>0</horiz>
										<vert>0</vert>
									</value>
								</parameter>
								<parameter authoringApp="PremierePro">
									<parameterid>antiflicker</parameterid>
									<name>Anti-flicker Filter</name>
									<valuemin>0.0</valuemin>
									<valuemax>1.0</valuemax>
									<value>0</value>
								</parameter>
							</effect>
						</filter>
						<link>
							<linkclipref>clipitem-91</linkclipref>
							<mediatype>video</mediatype>
							<trackindex>1</trackindex>
							<clipindex>7</clipindex>
						</link>
						<link>
							<linkclipref>clipitem-99</linkclipref>
							<mediatype>audio</mediatype>
							<trackindex>1</trackindex>
							<clipindex>7</clipindex>
							<groupindex>1</groupindex>
						</link>
						<link>
							<linkclipref>clipitem-107</linkclipref>
							<mediatype>audio</mediatype>
							<trackindex>2</trackindex>
							<clipindex>7</clipindex>
							<groupindex>1</groupindex>
						</link>
						<logginginfo>
							<description />
							<scene />
							<shottake />
							<lognote />
							<good />
							<originalvideofilename />
							<originalaudiofilename />
						</logginginfo>
						<colorinfo>
							<lut />
							<lut1 />
							<asc_sop />
							<asc_sat />
							<lut2 />
						</colorinfo>
					<labels><label2>Rose</label2></labels></clipitem>
					<clipitem id="clipitem-86">
						<masterclipid>clipitem-2-138</masterclipid>
						<name>Taylor_Swift_Shares_The_Story_Of_Calling_Travis_Kelce_For_The_First_Time.mp4</name>
						<enabled>TRUE</enabled>
						<duration>150</duration>
						<rate>
							<timebase>25</timebase>
							<ntsc>FALSE</ntsc>
						</rate>
						<start>23100</start>
						<end>23250</end>
						<in>20550</in>
						<out>20700</out>
						<pproTicksIn>0</pproTicksIn>
						<pproTicksOut>236438092800000</pproTicksOut>
						<alphatype>none</alphatype>
						<pixelaspectratio>square</pixelaspectratio>
						<anamorphic>FALSE</anamorphic>
						<file id="file-30">
							<name>Taylor_Swift_Shares_The_Story_Of_Calling_Travis_Kelce_For_The_First_Time.mp4</name>
							<pathurl>file://localhost/Users/themalikano/Documents/VideoAutomation/premiere_videos/Taylor_Swift_Shares_The_Story_Of_Calling_Travis_Kelce_For_The_First_Time.mp4</pathurl>
							<rate>
								<timebase>30</timebase>
								<ntsc>TRUE</ntsc>
							</rate>
							<duration>27897</duration>
							<timecode>
								<rate>
									<timebase>30</timebase>
									<ntsc>TRUE</ntsc>
								</rate>
								<string>00:00:00:00</string>
								<frame>0</frame>
								<displayformat>NDF</displayformat>
							</timecode>
							<media>
								<video>
									<samplecharacteristics>
										<rate>
											<timebase>30</timebase>
											<ntsc>TRUE</ntsc>
										</rate>
										<width>1920</width>
										<height>1080</height>
										<anamorphic>FALSE</anamorphic>
										<pixelaspectratio>square</pixelaspectratio>
										<fielddominance>none</fielddominance>
									</samplecharacteristics>
								</video>
								<audio>
									<samplecharacteristics>
										<depth>16</depth>
										<samplerate>44100</samplerate>
									</samplecharacteristics>
									<channelcount>2</channelcount>
								</audio>
							</media>
						</file>
						<link>
							<linkclipref>clipitem-86</linkclipref>
							<mediatype>video</mediatype>
							<trackindex>1</trackindex>
							<clipindex>2</clipindex>
						</link>
						<link>
							<linkclipref>clipitem-94</linkclipref>
							<mediatype>audio</mediatype>
							<trackindex>1</trackindex>
							<clipindex>2</clipindex>
							<groupindex>1</groupindex>
						</link>
						<link>
							<linkclipref>clipitem-102</linkclipref>
							<mediatype>audio</mediatype>
							<trackindex>2</trackindex>
							<clipindex>2</clipindex>
							<groupindex>1</groupindex>
						</link>
						<logginginfo>
							<description />
							<scene />
							<shottake />
							<lognote />
							<good />
							<originalvideofilename />
							<originalaudiofilename />
						</logginginfo>
						<colorinfo>
							<lut />
							<lut1 />
							<asc_sop />
							<asc_sat />
							<lut2 />
						</colorinfo>
					<labels><label2>Iris</label2></labels></clipitem>
					<clipitem id="clipitem-90">
						<masterclipid>clipitem-6-63</masterclipid>
						<name>Travis_Kelce_talks_about_postponing_his_wedding_to_Fiance_Taylor_Swift_on_the_New_Heights_Podcast.mp4</name>
						<enabled>TRUE</enabled>
						<duration>150</duration>
						<rate>
							<timebase>25</timebase>
							<ntsc>FALSE</ntsc>
						</rate>
						<start>23250</start>
						<end>23400</end>
						<in>9300</in>
						<out>9450</out>
						<pproTicksIn>0</pproTicksIn>
						<pproTicksOut>149391889920000</pproTicksOut>
						<alphatype>none</alphatype>
						<pixelaspectratio>square</pixelaspectratio>
						<anamorphic>FALSE</anamorphic>
						<file id="file-34">
							<name>Travis_Kelce_talks_about_postponing_his_wedding_to_Fiance_Taylor_Swift_on_the_New_Heights_Podcast.mp4</name>
							<pathurl>file://localhost/Users/themalikano/Documents/VideoAutomation/premiere_videos/Travis_Kelce_talks_about_postponing_his_wedding_to_Fiance_Taylor_Swift_on_the_New_Heights_Podcast.mp4</pathurl>
							<rate>
								<timebase>30</timebase>
								<ntsc>FALSE</ntsc>
							</rate>
							<duration>17644</duration>
							<timecode>
								<rate>
									<timebase>30</timebase>
									<ntsc>FALSE</ntsc>
								</rate>
								<string>00:00:00:00</string>
								<frame>0</frame>
								<displayformat>NDF</displayformat>
							</timecode>
							<media>
								<video>
									<samplecharacteristics>
										<rate>
											<timebase>30</timebase>
											<ntsc>FALSE</ntsc>
										</rate>
										<width>1920</width>
										<height>1080</height>
										<anamorphic>FALSE</anamorphic>
										<pixelaspectratio>square</pixelaspectratio>
										<fielddominance>none</fielddominance>
									</samplecharacteristics>
								</video>
								<audio>
									<samplecharacteristics>
										<depth>16</depth>
										<samplerate>44100</samplerate>
									</samplecharacteristics>
									<channelcount>2</channelcount>
								</audio>
							</media>
						</file>
						<link>
							<linkclipref>clipitem-90</linkclipref>
							<mediatype>video</mediatype>
							<trackindex>1</trackindex>
							<clipindex>6</clipindex>
						</link>
						<link>
							<linkclipref>clipitem-98</linkclipref>
							<mediatype>audio</mediatype>
							<trackindex>1</trackindex>
							<clipindex>6</clipindex>
							<groupindex>1</groupindex>
						</link>
						<link>
							<linkclipref>clipitem-106</linkclipref>
							<mediatype>audio</mediatype>
							<trackindex>2</trackindex>
							<clipindex>6</clipindex>
							<groupindex>1</groupindex>
						</link>
						<logginginfo>
							<description />
							<scene />
							<shottake />
							<lognote />
							<good />
							<originalvideofilename />
							<originalaudiofilename />
						</logginginfo>
						<colorinfo>
							<lut />
							<lut1 />
							<asc_sop />
							<asc_sat />
							<lut2 />
						</colorinfo>
					<labels><label2>Forest</label2></labels></clipitem>
					<clipitem id="clipitem-86">
						<masterclipid>clipitem-2-73</masterclipid>
						<name>Taylor_Swift_Shares_The_Story_Of_Calling_Travis_Kelce_For_The_First_Time.mp4</name>
						<enabled>TRUE</enabled>
						<duration>150</duration>
						<rate>
							<timebase>25</timebase>
							<ntsc>FALSE</ntsc>
						</rate>
						<start>23400</start>
						<end>23550</end>
						<in>10800</in>
						<out>10950</out>
						<pproTicksIn>0</pproTicksIn>
						<pproTicksOut>236438092800000</pproTicksOut>
						<alphatype>none</alphatype>
						<pixelaspectratio>square</pixelaspectratio>
						<anamorphic>FALSE</anamorphic>
						<file id="file-30">
							<name>Taylor_Swift_Shares_The_Story_Of_Calling_Travis_Kelce_For_The_First_Time.mp4</name>
							<pathurl>file://localhost/Users/themalikano/Documents/VideoAutomation/premiere_videos/Taylor_Swift_Shares_The_Story_Of_Calling_Travis_Kelce_For_The_First_Time.mp4</pathurl>
							<rate>
								<timebase>30</timebase>
								<ntsc>TRUE</ntsc>
							</rate>
							<duration>27897</duration>
							<timecode>
								<rate>
									<timebase>30</timebase>
									<ntsc>TRUE</ntsc>
								</rate>
								<string>00:00:00:00</string>
								<frame>0</frame>
								<displayformat>NDF</displayformat>
							</timecode>
							<media>
								<video>
									<samplecharacteristics>
										<rate>
											<timebase>30</timebase>
											<ntsc>TRUE</ntsc>
										</rate>
										<width>1920</width>
										<height>1080</height>
										<anamorphic>FALSE</anamorphic>
										<pixelaspectratio>square</pixelaspectratio>
										<fielddominance>none</fielddominance>
									</samplecharacteristics>
								</video>
								<audio>
									<samplecharacteristics>
										<depth>16</depth>
										<samplerate>44100</samplerate>
									</samplecharacteristics>
									<channelcount>2</channelcount>
								</audio>
							</media>
						</file>
						<link>
							<linkclipref>clipitem-86</linkclipref>
							<mediatype>video</mediatype>
							<trackindex>1</trackindex>
							<clipindex>2</clipindex>
						</link>
						<link>
							<linkclipref>clipitem-94</linkclipref>
							<mediatype>audio</mediatype>
							<trackindex>1</trackindex>
							<clipindex>2</clipindex>
							<groupindex>1</groupindex>
						</link>
						<link>
							<linkclipref>clipitem-102</linkclipref>
							<mediatype>audio</mediatype>
							<trackindex>2</trackindex>
							<clipindex>2</clipindex>
							<groupindex>1</groupindex>
						</link>
						<logginginfo>
							<description />
							<scene />
							<shottake />
							<lognote />
							<good />
							<originalvideofilename />
							<originalaudiofilename />
						</logginginfo>
						<colorinfo>
							<lut />
							<lut1 />
							<asc_sop />
							<asc_sat />
							<lut2 />
						</colorinfo>
					<labels><label2>Iris</label2></labels></clipitem>
					<clipitem id="clipitem-85">
						<masterclipid>clipitem-1-9</masterclipid>
						<name>Taylor_Swift_Reveals_What_Fiance_Travis_Kelce_Said_Before_Proposal_E_News.mp4</name>
						<enabled>TRUE</enabled>
						<duration>150</duration>
						<rate>
							<timebase>25</timebase>
							<ntsc>FALSE</ntsc>
						</rate>
						<start>23550</start>
						<end>23700</end>
						<in>1200</in>
						<out>1350</out>
						<pproTicksIn>0</pproTicksIn>
						<pproTicksOut>36039790080000</pproTicksOut>
						<alphatype>none</alphatype>
						<pixelaspectratio>square</pixelaspectratio>
						<anamorphic>FALSE</anamorphic>
						<file id="file-29">
							<name>Taylor_Swift_Reveals_What_Fiance_Travis_Kelce_Said_Before_Proposal_E_News.mp4</name>
							<pathurl>file://localhost/Users/themalikano/Documents/VideoAutomation/premiere_videos/Taylor_Swift_Reveals_What_Fiance_Travis_Kelce_Said_Before_Proposal_E_News.mp4</pathurl>
							<rate>
								<timebase>29</timebase>
								<ntsc>FALSE</ntsc>
							</rate>
							<duration>4115</duration>
							<timecode>
								<rate>
									<timebase>29</timebase>
									<ntsc>FALSE</ntsc>
								</rate>
								<string>00:00:00:00</string>
								<frame>0</frame>
								<displayformat>NDF</displayformat>
							</timecode>
							<media>
								<video>
									<samplecharacteristics>
										<rate>
											<timebase>29</timebase>
											<ntsc>FALSE</ntsc>
										</rate>
										<width>1920</width>
										<height>1080</height>
										<anamorphic>FALSE</anamorphic>
										<pixelaspectratio>square</pixelaspectratio>
										<fielddominance>none</fielddominance>
									</samplecharacteristics>
								</video>
								<audio>
									<samplecharacteristics>
										<depth>16</depth>
										<samplerate>44100</samplerate>
									</samplecharacteristics>
									<channelcount>2</channelcount>
								</audio>
							</media>
						</file>
						<link>
							<linkclipref>clipitem-85</linkclipref>
							<mediatype>video</mediatype>
							<trackindex>1</trackindex>
							<clipindex>1</clipindex>
						</link>
						<link>
							<linkclipref>clipitem-93</linkclipref>
							<mediatype>audio</mediatype>
							<trackindex>1</trackindex>
							<clipindex>1</clipindex>
							<groupindex>1</groupindex>
						</link>
						<link>
							<linkclipref>clipitem-101</linkclipref>
							<mediatype>audio</mediatype>
							<trackindex>2</trackindex>
							<clipindex>1</clipindex>
							<groupindex>1</groupindex>
						</link>
						<logginginfo>
							<description />
							<scene />
							<shottake />
							<lognote />
							<good />
							<originalvideofilename />
							<originalaudiofilename />
						</logginginfo>
						<colorinfo>
							<lut />
							<lut1 />
							<asc_sop />
							<asc_sat />
							<lut2 />
						</colorinfo>
					<labels><label2>Violet</label2></labels></clipitem>
					<clipitem id="clipitem-90">
						<masterclipid>clipitem-6-52</masterclipid>
						<name>Travis_Kelce_talks_about_postponing_his_wedding_to_Fiance_Taylor_Swift_on_the_New_Heights_Podcast.mp4</name>
						<enabled>TRUE</enabled>
						<duration>150</duration>
						<rate>
							<timebase>25</timebase>
							<ntsc>FALSE</ntsc>
						</rate>
						<start>23700</start>
						<end>23850</end>
						<in>7650</in>
						<out>7800</out>
						<pproTicksIn>0</pproTicksIn>
						<pproTicksOut>149391889920000</pproTicksOut>
						<alphatype>none</alphatype>
						<pixelaspectratio>square</pixelaspectratio>
						<anamorphic>FALSE</anamorphic>
						<file id="file-34">
							<name>Travis_Kelce_talks_about_postponing_his_wedding_to_Fiance_Taylor_Swift_on_the_New_Heights_Podcast.mp4</name>
							<pathurl>file://localhost/Users/themalikano/Documents/VideoAutomation/premiere_videos/Travis_Kelce_talks_about_postponing_his_wedding_to_Fiance_Taylor_Swift_on_the_New_Heights_Podcast.mp4</pathurl>
							<rate>
								<timebase>30</timebase>
								<ntsc>FALSE</ntsc>
							</rate>
							<duration>17644</duration>
							<timecode>
								<rate>
									<timebase>30</timebase>
									<ntsc>FALSE</ntsc>
								</rate>
								<string>00:00:00:00</string>
								<frame>0</frame>
								<displayformat>NDF</displayformat>
							</timecode>
							<media>
								<video>
									<samplecharacteristics>
										<rate>
											<timebase>30</timebase>
											<ntsc>FALSE</ntsc>
										</rate>
										<width>1920</width>
										<height>1080</height>
										<anamorphic>FALSE</anamorphic>
										<pixelaspectratio>square</pixelaspectratio>
										<fielddominance>none</fielddominance>
									</samplecharacteristics>
								</video>
								<audio>
									<samplecharacteristics>
										<depth>16</depth>
										<samplerate>44100</samplerate>
									</samplecharacteristics>
									<channelcount>2</channelcount>
								</audio>
							</media>
						</file>
						<link>
							<linkclipref>clipitem-90</linkclipref>
							<mediatype>video</mediatype>
							<trackindex>1</trackindex>
							<clipindex>6</clipindex>
						</link>
						<link>
							<linkclipref>clipitem-98</linkclipref>
							<mediatype>audio</mediatype>
							<trackindex>1</trackindex>
							<clipindex>6</clipindex>
							<groupindex>1</groupindex>
						</link>
						<link>
							<linkclipref>clipitem-106</linkclipref>
							<mediatype>audio</mediatype>
							<trackindex>2</trackindex>
							<clipindex>6</clipindex>
							<groupindex>1</groupindex>
						</link>
						<logginginfo>
							<description />
							<scene />
							<shottake />
							<lognote />
							<good />
							<originalvideofilename />
							<originalaudiofilename />
						</logginginfo>
						<colorinfo>
							<lut />
							<lut1 />
							<asc_sop />
							<asc_sat />
							<lut2 />
						</colorinfo>
					<labels><label2>Forest</label2></labels></clipitem>
					<clipitem id="clipitem-91">
						<masterclipid>clipitem-7-9</masterclipid>
						<name>What_Caused_Taylor_Swift-Blake_Lively_Rift_The_View.mp4</name>
						<enabled>TRUE</enabled>
						<duration>150</duration>
						<rate>
							<timebase>25</timebase>
							<ntsc>FALSE</ntsc>
						</rate>
						<start>23850</start>
						<end>24000</end>
						<in>1200</in>
						<out>1350</out>
						<pproTicksIn>0</pproTicksIn>
						<pproTicksOut>45733040640000</pproTicksOut>
						<alphatype>none</alphatype>
						<pixelaspectratio>square</pixelaspectratio>
						<anamorphic>FALSE</anamorphic>
						<file id="file-35">
							<name>What_Caused_Taylor_Swift-Blake_Lively_Rift_The_View.mp4</name>
							<pathurl>file://localhost/Users/themalikano/Documents/VideoAutomation/premiere_videos/What_Caused_Taylor_Swift-Blake_Lively_Rift_The_View.mp4</pathurl>
							<rate>
								<timebase>30</timebase>
								<ntsc>TRUE</ntsc>
							</rate>
							<duration>5397</duration>
							<timecode>
								<rate>
									<timebase>30</timebase>
									<ntsc>TRUE</ntsc>
								</rate>
								<string>00:00:00:00</string>
								<frame>0</frame>
								<displayformat>NDF</displayformat>
							</timecode>
							<media>
								<video>
									<samplecharacteristics>
										<rate>
											<timebase>30</timebase>
											<ntsc>TRUE</ntsc>
										</rate>
										<width>1280</width>
										<height>720</height>
										<anamorphic>FALSE</anamorphic>
										<pixelaspectratio>square</pixelaspectratio>
										<fielddominance>none</fielddominance>
									</samplecharacteristics>
								</video>
								<audio>
									<samplecharacteristics>
										<depth>16</depth>
										<samplerate>44100</samplerate>
									</samplecharacteristics>
									<channelcount>2</channelcount>
								</audio>
							</media>
						</file>
						<filter>
							<effect>
								<name>Basic Motion</name>
								<effectid>basic</effectid>
								<effectcategory>motion</effectcategory>
								<effecttype>motion</effecttype>
								<mediatype>video</mediatype>
								<pproBypass>false</pproBypass>
								<parameter authoringApp="PremierePro">
									<parameterid>scale</parameterid>
									<name>Scale</name>
									<valuemin>0</valuemin>
									<valuemax>1000</valuemax>
									<value>150</value>
								</parameter>
								<parameter authoringApp="PremierePro">
									<parameterid>rotation</parameterid>
									<name>Rotation</name>
									<valuemin>-8640</valuemin>
									<valuemax>8640</valuemax>
									<value>0</value>
								</parameter>
								<parameter authoringApp="PremierePro">
									<parameterid>center</parameterid>
									<name>Center</name>
									<value>
										<horiz>0</horiz>
										<vert>0</vert>
									</value>
								</parameter>
								<parameter authoringApp="PremierePro">
									<parameterid>centerOffset</parameterid>
									<name>Anchor Point</name>
									<value>
										<horiz>0</horiz>
										<vert>0</vert>
									</value>
								</parameter>
								<parameter authoringApp="PremierePro">
									<parameterid>antiflicker</parameterid>
									<name>Anti-flicker Filter</name>
									<valuemin>0.0</valuemin>
									<valuemax>1.0</valuemax>
									<value>0</value>
								</parameter>
							</effect>
						</filter>
						<link>
							<linkclipref>clipitem-91</linkclipref>
							<mediatype>video</mediatype>
							<trackindex>1</trackindex>
							<clipindex>7</clipindex>
						</link>
						<link>
							<linkclipref>clipitem-99</linkclipref>
							<mediatype>audio</mediatype>
							<trackindex>1</trackindex>
							<clipindex>7</clipindex>
							<groupindex>1</groupindex>
						</link>
						<link>
							<linkclipref>clipitem-107</linkclipref>
							<mediatype>audio</mediatype>
							<trackindex>2</trackindex>
							<clipindex>7</clipindex>
							<groupindex>1</groupindex>
						</link>
						<logginginfo>
							<description />
							<scene />
							<shottake />
							<lognote />
							<good />
							<originalvideofilename />
							<originalaudiofilename />
						</logginginfo>
						<colorinfo>
							<lut />
							<lut1 />
							<asc_sop />
							<asc_sat />
							<lut2 />
						</colorinfo>
					<labels><label2>Rose</label2></labels></clipitem>
					<clipitem id="clipitem-87">
						<masterclipid>clipitem-3-149</masterclipid>
						<name>Taylor_Swift_Travis_Kelce_-_The_New_Power_Couple.mp4</name>
						<enabled>TRUE</enabled>
						<duration>150</duration>
						<rate>
							<timebase>25</timebase>
							<ntsc>FALSE</ntsc>
						</rate>
						<start>24000</start>
						<end>24150</end>
						<in>22200</in>
						<out>22350</out>
						<pproTicksIn>0</pproTicksIn>
						<pproTicksOut>875013995520000</pproTicksOut>
						<alphatype>none</alphatype>
						<pixelaspectratio>square</pixelaspectratio>
						<anamorphic>FALSE</anamorphic>
						<file id="file-31">
							<name>Taylor_Swift_Travis_Kelce_-_The_New_Power_Couple.mp4</name>
							<pathurl>file://localhost/Users/themalikano/Documents/VideoAutomation/premiere_videos/Taylor_Swift_Travis_Kelce_-_The_New_Power_Couple.mp4</pathurl>
							<rate>
								<timebase>25</timebase>
								<ntsc>FALSE</ntsc>
							</rate>
							<duration>86118</duration>
							<timecode>
								<rate>
									<timebase>25</timebase>
									<ntsc>FALSE</ntsc>
								</rate>
								<string>00:00:00:00</string>
								<frame>0</frame>
								<displayformat>NDF</displayformat>
							</timecode>
							<media>
								<video>
									<samplecharacteristics>
										<rate>
											<timebase>25</timebase>
											<ntsc>FALSE</ntsc>
										</rate>
										<width>1920</width>
										<height>1080</height>
										<anamorphic>FALSE</anamorphic>
										<pixelaspectratio>square</pixelaspectratio>
										<fielddominance>none</fielddominance>
									</samplecharacteristics>
								</video>
								<audio>
									<samplecharacteristics>
										<depth>16</depth>
										<samplerate>44100</samplerate>
									</samplecharacteristics>
									<channelcount>2</channelcount>
								</audio>
							</media>
						</file>
						<link>
							<linkclipref>clipitem-87</linkclipref>
							<mediatype>video</mediatype>
							<trackindex>1</trackindex>
							<clipindex>3</clipindex>
						</link>
						<link>
							<linkclipref>clipitem-95</linkclipref>
							<mediatype>audio</mediatype>
							<trackindex>1</trackindex>
							<clipindex>3</clipindex>
							<groupindex>1</groupindex>
						</link>
						<link>
							<linkclipref>clipitem-103</linkclipref>
							<mediatype>audio</mediatype>
							<trackindex>2</trackindex>
							<clipindex>3</clipindex>
							<groupindex>1</groupindex>
						</link>
						<logginginfo>
							<description />
							<scene />
							<shottake />
							<lognote />
							<good />
							<originalvideofilename />
							<originalaudiofilename />
						</logginginfo>
						<colorinfo>
							<lut />
							<lut1 />
							<asc_sop />
							<asc_sat />
							<lut2 />
						</colorinfo>
					<labels><label2>Caribbean</label2></labels></clipitem>
					<clipitem id="clipitem-90">
						<masterclipid>clipitem-6-88</masterclipid>
						<name>Travis_Kelce_talks_about_postponing_his_wedding_to_Fiance_Taylor_Swift_on_the_New_Heights_Podcast.mp4</name>
						<enabled>TRUE</enabled>
						<duration>150</duration>
						<rate>
							<timebase>25</timebase>
							<ntsc>FALSE</ntsc>
						</rate>
						<start>24150</start>
						<end>24300</end>
						<in>13050</in>
						<out>13200</out>
						<pproTicksIn>0</pproTicksIn>
						<pproTicksOut>149391889920000</pproTicksOut>
						<alphatype>none</alphatype>
						<pixelaspectratio>square</pixelaspectratio>
						<anamorphic>FALSE</anamorphic>
						<file id="file-34">
							<name>Travis_Kelce_talks_about_postponing_his_wedding_to_Fiance_Taylor_Swift_on_the_New_Heights_Podcast.mp4</name>
							<pathurl>file://localhost/Users/themalikano/Documents/VideoAutomation/premiere_videos/Travis_Kelce_talks_about_postponing_his_wedding_to_Fiance_Taylor_Swift_on_the_New_Heights_Podcast.mp4</pathurl>
							<rate>
								<timebase>30</timebase>
								<ntsc>FALSE</ntsc>
							</rate>
							<duration>17644</duration>
							<timecode>
								<rate>
									<timebase>30</timebase>
									<ntsc>FALSE</ntsc>
								</rate>
								<string>00:00:00:00</string>
								<frame>0</frame>
								<displayformat>NDF</displayformat>
							</timecode>
							<media>
								<video>
									<samplecharacteristics>
										<rate>
											<timebase>30</timebase>
											<ntsc>FALSE</ntsc>
										</rate>
										<width>1920</width>
										<height>1080</height>
										<anamorphic>FALSE</anamorphic>
										<pixelaspectratio>square</pixelaspectratio>
										<fielddominance>none</fielddominance>
									</samplecharacteristics>
								</video>
								<audio>
									<samplecharacteristics>
										<depth>16</depth>
										<samplerate>44100</samplerate>
									</samplecharacteristics>
									<channelcount>2</channelcount>
								</audio>
							</media>
						</file>
						<link>
							<linkclipref>clipitem-90</linkclipref>
							<mediatype>video</mediatype>
							<trackindex>1</trackindex>
							<clipindex>6</clipindex>
						</link>
						<link>
							<linkclipref>clipitem-98</linkclipref>
							<mediatype>audio</mediatype>
							<trackindex>1</trackindex>
							<clipindex>6</clipindex>
							<groupindex>1</groupindex>
						</link>
						<link>
							<linkclipref>clipitem-106</linkclipref>
							<mediatype>audio</mediatype>
							<trackindex>2</trackindex>
							<clipindex>6</clipindex>
							<groupindex>1</groupindex>
						</link>
						<logginginfo>
							<description />
							<scene />
							<shottake />
							<lognote />
							<good />
							<originalvideofilename />
							<originalaudiofilename />
						</logginginfo>
						<colorinfo>
							<lut />
							<lut1 />
							<asc_sop />
							<asc_sat />
							<lut2 />
						</colorinfo>
					<labels><label2>Forest</label2></labels></clipitem>
					<clipitem id="clipitem-87">
						<masterclipid>clipitem-3-401</masterclipid>
						<name>Taylor_Swift_Travis_Kelce_-_The_New_Power_Couple.mp4</name>
						<enabled>TRUE</enabled>
						<duration>150</duration>
						<rate>
							<timebase>25</timebase>
							<ntsc>FALSE</ntsc>
						</rate>
						<start>24300</start>
						<end>24450</end>
						<in>60000</in>
						<out>60150</out>
						<pproTicksIn>0</pproTicksIn>
						<pproTicksOut>875013995520000</pproTicksOut>
						<alphatype>none</alphatype>
						<pixelaspectratio>square</pixelaspectratio>
						<anamorphic>FALSE</anamorphic>
						<file id="file-31">
							<name>Taylor_Swift_Travis_Kelce_-_The_New_Power_Couple.mp4</name>
							<pathurl>file://localhost/Users/themalikano/Documents/VideoAutomation/premiere_videos/Taylor_Swift_Travis_Kelce_-_The_New_Power_Couple.mp4</pathurl>
							<rate>
								<timebase>25</timebase>
								<ntsc>FALSE</ntsc>
							</rate>
							<duration>86118</duration>
							<timecode>
								<rate>
									<timebase>25</timebase>
									<ntsc>FALSE</ntsc>
								</rate>
								<string>00:00:00:00</string>
								<frame>0</frame>
								<displayformat>NDF</displayformat>
							</timecode>
							<media>
								<video>
									<samplecharacteristics>
										<rate>
											<timebase>25</timebase>
											<ntsc>FALSE</ntsc>
										</rate>
										<width>1920</width>
										<height>1080</height>
										<anamorphic>FALSE</anamorphic>
										<pixelaspectratio>square</pixelaspectratio>
										<fielddominance>none</fielddominance>
									</samplecharacteristics>
								</video>
								<audio>
									<samplecharacteristics>
										<depth>16</depth>
										<samplerate>44100</samplerate>
									</samplecharacteristics>
									<channelcount>2</channelcount>
								</audio>
							</media>
						</file>
						<link>
							<linkclipref>clipitem-87</linkclipref>
							<mediatype>video</mediatype>
							<trackindex>1</trackindex>
							<clipindex>3</clipindex>
						</link>
						<link>
							<linkclipref>clipitem-95</linkclipref>
							<mediatype>audio</mediatype>
							<trackindex>1</trackindex>
							<clipindex>3</clipindex>
							<groupindex>1</groupindex>
						</link>
						<link>
							<linkclipref>clipitem-103</linkclipref>
							<mediatype>audio</mediatype>
							<trackindex>2</trackindex>
							<clipindex>3</clipindex>
							<groupindex>1</groupindex>
						</link>
						<logginginfo>
							<description />
							<scene />
							<shottake />
							<lognote />
							<good />
							<originalvideofilename />
							<originalaudiofilename />
						</logginginfo>
						<colorinfo>
							<lut />
							<lut1 />
							<asc_sop />
							<asc_sat />
							<lut2 />
						</colorinfo>
					<labels><label2>Caribbean</label2></labels></clipitem>
					<clipitem id="clipitem-86">
						<masterclipid>clipitem-2-28</masterclipid>
						<name>Taylor_Swift_Shares_The_Story_Of_Calling_Travis_Kelce_For_The_First_Time.mp4</name>
						<enabled>TRUE</enabled>
						<duration>150</duration>
						<rate>
							<timebase>25</timebase>
							<ntsc>FALSE</ntsc>
						</rate>
						<start>24450</start>
						<end>24600</end>
						<in>4050</in>
						<out>4200</out>
						<pproTicksIn>0</pproTicksIn>
						<pproTicksOut>236438092800000</pproTicksOut>
						<alphatype>none</alphatype>
						<pixelaspectratio>square</pixelaspectratio>
						<anamorphic>FALSE</anamorphic>
						<file id="file-30">
							<name>Taylor_Swift_Shares_The_Story_Of_Calling_Travis_Kelce_For_The_First_Time.mp4</name>
							<pathurl>file://localhost/Users/themalikano/Documents/VideoAutomation/premiere_videos/Taylor_Swift_Shares_The_Story_Of_Calling_Travis_Kelce_For_The_First_Time.mp4</pathurl>
							<rate>
								<timebase>30</timebase>
								<ntsc>TRUE</ntsc>
							</rate>
							<duration>27897</duration>
							<timecode>
								<rate>
									<timebase>30</timebase>
									<ntsc>TRUE</ntsc>
								</rate>
								<string>00:00:00:00</string>
								<frame>0</frame>
								<displayformat>NDF</displayformat>
							</timecode>
							<media>
								<video>
									<samplecharacteristics>
										<rate>
											<timebase>30</timebase>
											<ntsc>TRUE</ntsc>
										</rate>
										<width>1920</width>
										<height>1080</height>
										<anamorphic>FALSE</anamorphic>
										<pixelaspectratio>square</pixelaspectratio>
										<fielddominance>none</fielddominance>
									</samplecharacteristics>
								</video>
								<audio>
									<samplecharacteristics>
										<depth>16</depth>
										<samplerate>44100</samplerate>
									</samplecharacteristics>
									<channelcount>2</channelcount>
								</audio>
							</media>
						</file>
						<link>
							<linkclipref>clipitem-86</linkclipref>
							<mediatype>video</mediatype>
							<trackindex>1</trackindex>
							<clipindex>2</clipindex>
						</link>
						<link>
							<linkclipref>clipitem-94</linkclipref>
							<mediatype>audio</mediatype>
							<trackindex>1</trackindex>
							<clipindex>2</clipindex>
							<groupindex>1</groupindex>
						</link>
						<link>
							<linkclipref>clipitem-102</linkclipref>
							<mediatype>audio</mediatype>
							<trackindex>2</trackindex>
							<clipindex>2</clipindex>
							<groupindex>1</groupindex>
						</link>
						<logginginfo>
							<description />
							<scene />
							<shottake />
							<lognote />
							<good />
							<originalvideofilename />
							<originalaudiofilename />
						</logginginfo>
						<colorinfo>
							<lut />
							<lut1 />
							<asc_sop />
							<asc_sat />
							<lut2 />
						</colorinfo>
					<labels><label2>Iris</label2></labels></clipitem>
					<clipitem id="clipitem-87">
						<masterclipid>clipitem-3-11</masterclipid>
						<name>Taylor_Swift_Travis_Kelce_-_The_New_Power_Couple.mp4</name>
						<enabled>TRUE</enabled>
						<duration>150</duration>
						<rate>
							<timebase>25</timebase>
							<ntsc>FALSE</ntsc>
						</rate>
						<start>24600</start>
						<end>24750</end>
						<in>1500</in>
						<out>1650</out>
						<pproTicksIn>0</pproTicksIn>
						<pproTicksOut>875013995520000</pproTicksOut>
						<alphatype>none</alphatype>
						<pixelaspectratio>square</pixelaspectratio>
						<anamorphic>FALSE</anamorphic>
						<file id="file-31">
							<name>Taylor_Swift_Travis_Kelce_-_The_New_Power_Couple.mp4</name>
							<pathurl>file://localhost/Users/themalikano/Documents/VideoAutomation/premiere_videos/Taylor_Swift_Travis_Kelce_-_The_New_Power_Couple.mp4</pathurl>
							<rate>
								<timebase>25</timebase>
								<ntsc>FALSE</ntsc>
							</rate>
							<duration>86118</duration>
							<timecode>
								<rate>
									<timebase>25</timebase>
									<ntsc>FALSE</ntsc>
								</rate>
								<string>00:00:00:00</string>
								<frame>0</frame>
								<displayformat>NDF</displayformat>
							</timecode>
							<media>
								<video>
									<samplecharacteristics>
										<rate>
											<timebase>25</timebase>
											<ntsc>FALSE</ntsc>
										</rate>
										<width>1920</width>
										<height>1080</height>
										<anamorphic>FALSE</anamorphic>
										<pixelaspectratio>square</pixelaspectratio>
										<fielddominance>none</fielddominance>
									</samplecharacteristics>
								</video>
								<audio>
									<samplecharacteristics>
										<depth>16</depth>
										<samplerate>44100</samplerate>
									</samplecharacteristics>
									<channelcount>2</channelcount>
								</audio>
							</media>
						</file>
						<link>
							<linkclipref>clipitem-87</linkclipref>
							<mediatype>video</mediatype>
							<trackindex>1</trackindex>
							<clipindex>3</clipindex>
						</link>
						<link>
							<linkclipref>clipitem-95</linkclipref>
							<mediatype>audio</mediatype>
							<trackindex>1</trackindex>
							<clipindex>3</clipindex>
							<groupindex>1</groupindex>
						</link>
						<link>
							<linkclipref>clipitem-103</linkclipref>
							<mediatype>audio</mediatype>
							<trackindex>2</trackindex>
							<clipindex>3</clipindex>
							<groupindex>1</groupindex>
						</link>
						<logginginfo>
							<description />
							<scene />
							<shottake />
							<lognote />
							<good />
							<originalvideofilename />
							<originalaudiofilename />
						</logginginfo>
						<colorinfo>
							<lut />
							<lut1 />
							<asc_sop />
							<asc_sat />
							<lut2 />
						</colorinfo>
					<labels><label2>Caribbean</label2></labels></clipitem>
					<clipitem id="clipitem-85">
						<masterclipid>clipitem-1-18</masterclipid>
						<name>Taylor_Swift_Reveals_What_Fiance_Travis_Kelce_Said_Before_Proposal_E_News.mp4</name>
						<enabled>TRUE</enabled>
						<duration>150</duration>
						<rate>
							<timebase>25</timebase>
							<ntsc>FALSE</ntsc>
						</rate>
						<start>24750</start>
						<end>24900</end>
						<in>2550</in>
						<out>2700</out>
						<pproTicksIn>0</pproTicksIn>
						<pproTicksOut>36039790080000</pproTicksOut>
						<alphatype>none</alphatype>
						<pixelaspectratio>square</pixelaspectratio>
						<anamorphic>FALSE</anamorphic>
						<file id="file-29">
							<name>Taylor_Swift_Reveals_What_Fiance_Travis_Kelce_Said_Before_Proposal_E_News.mp4</name>
							<pathurl>file://localhost/Users/themalikano/Documents/VideoAutomation/premiere_videos/Taylor_Swift_Reveals_What_Fiance_Travis_Kelce_Said_Before_Proposal_E_News.mp4</pathurl>
							<rate>
								<timebase>29</timebase>
								<ntsc>FALSE</ntsc>
							</rate>
							<duration>4115</duration>
							<timecode>
								<rate>
									<timebase>29</timebase>
									<ntsc>FALSE</ntsc>
								</rate>
								<string>00:00:00:00</string>
								<frame>0</frame>
								<displayformat>NDF</displayformat>
							</timecode>
							<media>
								<video>
									<samplecharacteristics>
										<rate>
											<timebase>29</timebase>
											<ntsc>FALSE</ntsc>
										</rate>
										<width>1920</width>
										<height>1080</height>
										<anamorphic>FALSE</anamorphic>
										<pixelaspectratio>square</pixelaspectratio>
										<fielddominance>none</fielddominance>
									</samplecharacteristics>
								</video>
								<audio>
									<samplecharacteristics>
										<depth>16</depth>
										<samplerate>44100</samplerate>
									</samplecharacteristics>
									<channelcount>2</channelcount>
								</audio>
							</media>
						</file>
						<link>
							<linkclipref>clipitem-85</linkclipref>
							<mediatype>video</mediatype>
							<trackindex>1</trackindex>
							<clipindex>1</clipindex>
						</link>
						<link>
							<linkclipref>clipitem-93</linkclipref>
							<mediatype>audio</mediatype>
							<trackindex>1</trackindex>
							<clipindex>1</clipindex>
							<groupindex>1</groupindex>
						</link>
						<link>
							<linkclipref>clipitem-101</linkclipref>
							<mediatype>audio</mediatype>
							<trackindex>2</trackindex>
							<clipindex>1</clipindex>
							<groupindex>1</groupindex>
						</link>
						<logginginfo>
							<description />
							<scene />
							<shottake />
							<lognote />
							<good />
							<originalvideofilename />
							<originalaudiofilename />
						</logginginfo>
						<colorinfo>
							<lut />
							<lut1 />
							<asc_sop />
							<asc_sat />
							<lut2 />
						</colorinfo>
					<labels><label2>Violet</label2></labels></clipitem>
					<clipitem id="clipitem-91">
						<masterclipid>clipitem-7-6</masterclipid>
						<name>What_Caused_Taylor_Swift-Blake_Lively_Rift_The_View.mp4</name>
						<enabled>TRUE</enabled>
						<duration>150</duration>
						<rate>
							<timebase>25</timebase>
							<ntsc>FALSE</ntsc>
						</rate>
						<start>24900</start>
						<end>25050</end>
						<in>750</in>
						<out>900</out>
						<pproTicksIn>0</pproTicksIn>
						<pproTicksOut>45733040640000</pproTicksOut>
						<alphatype>none</alphatype>
						<pixelaspectratio>square</pixelaspectratio>
						<anamorphic>FALSE</anamorphic>
						<file id="file-35">
							<name>What_Caused_Taylor_Swift-Blake_Lively_Rift_The_View.mp4</name>
							<pathurl>file://localhost/Users/themalikano/Documents/VideoAutomation/premiere_videos/What_Caused_Taylor_Swift-Blake_Lively_Rift_The_View.mp4</pathurl>
							<rate>
								<timebase>30</timebase>
								<ntsc>TRUE</ntsc>
							</rate>
							<duration>5397</duration>
							<timecode>
								<rate>
									<timebase>30</timebase>
									<ntsc>TRUE</ntsc>
								</rate>
								<string>00:00:00:00</string>
								<frame>0</frame>
								<displayformat>NDF</displayformat>
							</timecode>
							<media>
								<video>
									<samplecharacteristics>
										<rate>
											<timebase>30</timebase>
											<ntsc>TRUE</ntsc>
										</rate>
										<width>1280</width>
										<height>720</height>
										<anamorphic>FALSE</anamorphic>
										<pixelaspectratio>square</pixelaspectratio>
										<fielddominance>none</fielddominance>
									</samplecharacteristics>
								</video>
								<audio>
									<samplecharacteristics>
										<depth>16</depth>
										<samplerate>44100</samplerate>
									</samplecharacteristics>
									<channelcount>2</channelcount>
								</audio>
							</media>
						</file>
						<filter>
							<effect>
								<name>Basic Motion</name>
								<effectid>basic</effectid>
								<effectcategory>motion</effectcategory>
								<effecttype>motion</effecttype>
								<mediatype>video</mediatype>
								<pproBypass>false</pproBypass>
								<parameter authoringApp="PremierePro">
									<parameterid>scale</parameterid>
									<name>Scale</name>
									<valuemin>0</valuemin>
									<valuemax>1000</valuemax>
									<value>150</value>
								</parameter>
								<parameter authoringApp="PremierePro">
									<parameterid>rotation</parameterid>
									<name>Rotation</name>
									<valuemin>-8640</valuemin>
									<valuemax>8640</valuemax>
									<value>0</value>
								</parameter>
								<parameter authoringApp="PremierePro">
									<parameterid>center</parameterid>
									<name>Center</name>
									<value>
										<horiz>0</horiz>
										<vert>0</vert>
									</value>
								</parameter>
								<parameter authoringApp="PremierePro">
									<parameterid>centerOffset</parameterid>
									<name>Anchor Point</name>
									<value>
										<horiz>0</horiz>
										<vert>0</vert>
									</value>
								</parameter>
								<parameter authoringApp="PremierePro">
									<parameterid>antiflicker</parameterid>
									<name>Anti-flicker Filter</name>
									<valuemin>0.0</valuemin>
									<valuemax>1.0</valuemax>
									<value>0</value>
								</parameter>
							</effect>
						</filter>
						<link>
							<linkclipref>clipitem-91</linkclipref>
							<mediatype>video</mediatype>
							<trackindex>1</trackindex>
							<clipindex>7</clipindex>
						</link>
						<link>
							<linkclipref>clipitem-99</linkclipref>
							<mediatype>audio</mediatype>
							<trackindex>1</trackindex>
							<clipindex>7</clipindex>
							<groupindex>1</groupindex>
						</link>
						<link>
							<linkclipref>clipitem-107</linkclipref>
							<mediatype>audio</mediatype>
							<trackindex>2</trackindex>
							<clipindex>7</clipindex>
							<groupindex>1</groupindex>
						</link>
						<logginginfo>
							<description />
							<scene />
							<shottake />
							<lognote />
							<good />
							<originalvideofilename />
							<originalaudiofilename />
						</logginginfo>
						<colorinfo>
							<lut />
							<lut1 />
							<asc_sop />
							<asc_sat />
							<lut2 />
						</colorinfo>
					<labels><label2>Rose</label2></labels></clipitem>
					<clipitem id="clipitem-90">
						<masterclipid>clipitem-6-26</masterclipid>
						<name>Travis_Kelce_talks_about_postponing_his_wedding_to_Fiance_Taylor_Swift_on_the_New_Heights_Podcast.mp4</name>
						<enabled>TRUE</enabled>
						<duration>150</duration>
						<rate>
							<timebase>25</timebase>
							<ntsc>FALSE</ntsc>
						</rate>
						<start>25050</start>
						<end>25200</end>
						<in>3750</in>
						<out>3900</out>
						<pproTicksIn>0</pproTicksIn>
						<pproTicksOut>149391889920000</pproTicksOut>
						<alphatype>none</alphatype>
						<pixelaspectratio>square</pixelaspectratio>
						<anamorphic>FALSE</anamorphic>
						<file id="file-34">
							<name>Travis_Kelce_talks_about_postponing_his_wedding_to_Fiance_Taylor_Swift_on_the_New_Heights_Podcast.mp4</name>
							<pathurl>file://localhost/Users/themalikano/Documents/VideoAutomation/premiere_videos/Travis_Kelce_talks_about_postponing_his_wedding_to_Fiance_Taylor_Swift_on_the_New_Heights_Podcast.mp4</pathurl>
							<rate>
								<timebase>30</timebase>
								<ntsc>FALSE</ntsc>
							</rate>
							<duration>17644</duration>
							<timecode>
								<rate>
									<timebase>30</timebase>
									<ntsc>FALSE</ntsc>
								</rate>
								<string>00:00:00:00</string>
								<frame>0</frame>
								<displayformat>NDF</displayformat>
							</timecode>
							<media>
								<video>
									<samplecharacteristics>
										<rate>
											<timebase>30</timebase>
											<ntsc>FALSE</ntsc>
										</rate>
										<width>1920</width>
										<height>1080</height>
										<anamorphic>FALSE</anamorphic>
										<pixelaspectratio>square</pixelaspectratio>
										<fielddominance>none</fielddominance>
									</samplecharacteristics>
								</video>
								<audio>
									<samplecharacteristics>
										<depth>16</depth>
										<samplerate>44100</samplerate>
									</samplecharacteristics>
									<channelcount>2</channelcount>
								</audio>
							</media>
						</file>
						<link>
							<linkclipref>clipitem-90</linkclipref>
							<mediatype>video</mediatype>
							<trackindex>1</trackindex>
							<clipindex>6</clipindex>
						</link>
						<link>
							<linkclipref>clipitem-98</linkclipref>
							<mediatype>audio</mediatype>
							<trackindex>1</trackindex>
							<clipindex>6</clipindex>
							<groupindex>1</groupindex>
						</link>
						<link>
							<linkclipref>clipitem-106</linkclipref>
							<mediatype>audio</mediatype>
							<trackindex>2</trackindex>
							<clipindex>6</clipindex>
							<groupindex>1</groupindex>
						</link>
						<logginginfo>
							<description />
							<scene />
							<shottake />
							<lognote />
							<good />
							<originalvideofilename />
							<originalaudiofilename />
						</logginginfo>
						<colorinfo>
							<lut />
							<lut1 />
							<asc_sop />
							<asc_sat />
							<lut2 />
						</colorinfo>
					<labels><label2>Forest</label2></labels></clipitem>
					<clipitem id="clipitem-89">
						<masterclipid>clipitem-5-14</masterclipid>
						<name>Travis_Kelce_s_appearance_on_The_Eras_Tour_during_I_Can_Do_It_With_A_Broken_Heart_in_London.mp4</name>
						<enabled>TRUE</enabled>
						<duration>150</duration>
						<rate>
							<timebase>25</timebase>
							<ntsc>FALSE</ntsc>
						</rate>
						<start>25200</start>
						<end>25350</end>
						<in>1950</in>
						<out>2100</out>
						<pproTicksIn>0</pproTicksIn>
						<pproTicksOut>27525173760000</pproTicksOut>
						<alphatype>none</alphatype>
						<pixelaspectratio>square</pixelaspectratio>
						<anamorphic>FALSE</anamorphic>
						<file id="file-33">
							<name>Travis_Kelce_s_appearance_on_The_Eras_Tour_during_I_Can_Do_It_With_A_Broken_Heart_in_London.mp4</name>
							<pathurl>file://localhost/Users/themalikano/Documents/VideoAutomation/premiere_videos/Travis_Kelce_s_appearance_on_The_Eras_Tour_during_I_Can_Do_It_With_A_Broken_Heart_in_London.mp4</pathurl>
							<rate>
								<timebase>24</timebase>
								<ntsc>TRUE</ntsc>
							</rate>
							<duration>2599</duration>
							<timecode>
								<rate>
									<timebase>24</timebase>
									<ntsc>TRUE</ntsc>
								</rate>
								<string>00:00:00:00</string>
								<frame>0</frame>
								<displayformat>NDF</displayformat>
							</timecode>
							<media>
								<video>
									<samplecharacteristics>
										<rate>
											<timebase>24</timebase>
											<ntsc>TRUE</ntsc>
										</rate>
										<width>1920</width>
										<height>1080</height>
										<anamorphic>FALSE</anamorphic>
										<pixelaspectratio>square</pixelaspectratio>
										<fielddominance>none</fielddominance>
									</samplecharacteristics>
								</video>
								<audio>
									<samplecharacteristics>
										<depth>16</depth>
										<samplerate>44100</samplerate>
									</samplecharacteristics>
									<channelcount>2</channelcount>
								</audio>
							</media>
						</file>
						<link>
							<linkclipref>clipitem-89</linkclipref>
							<mediatype>video</mediatype>
							<trackindex>1</trackindex>
							<clipindex>5</clipindex>
						</link>
						<link>
							<linkclipref>clipitem-97</linkclipref>
							<mediatype>audio</mediatype>
							<trackindex>1</trackindex>
							<clipindex>5</clipindex>
							<groupindex>1</groupindex>
						</link>
						<link>
							<linkclipref>clipitem-105</linkclipref>
							<mediatype>audio</mediatype>
							<trackindex>2</trackindex>
							<clipindex>5</clipindex>
							<groupindex>1</groupindex>
						</link>
						<logginginfo>
							<description />
							<scene />
							<shottake />
							<lognote />
							<good />
							<originalvideofilename />
							<originalaudiofilename />
						</logginginfo>
						<colorinfo>
							<lut />
							<lut1 />
							<asc_sop />
							<asc_sat />
							<lut2 />
						</colorinfo>
					<labels><label2>Cerulean</label2></labels></clipitem>
					<clipitem id="clipitem-90">
						<masterclipid>clipitem-6-7</masterclipid>
						<name>Travis_Kelce_talks_about_postponing_his_wedding_to_Fiance_Taylor_Swift_on_the_New_Heights_Podcast.mp4</name>
						<enabled>TRUE</enabled>
						<duration>150</duration>
						<rate>
							<timebase>25</timebase>
							<ntsc>FALSE</ntsc>
						</rate>
						<start>25350</start>
						<end>25500</end>
						<in>900</in>
						<out>1050</out>
						<pproTicksIn>0</pproTicksIn>
						<pproTicksOut>149391889920000</pproTicksOut>
						<alphatype>none</alphatype>
						<pixelaspectratio>square</pixelaspectratio>
						<anamorphic>FALSE</anamorphic>
						<file id="file-34">
							<name>Travis_Kelce_talks_about_postponing_his_wedding_to_Fiance_Taylor_Swift_on_the_New_Heights_Podcast.mp4</name>
							<pathurl>file://localhost/Users/themalikano/Documents/VideoAutomation/premiere_videos/Travis_Kelce_talks_about_postponing_his_wedding_to_Fiance_Taylor_Swift_on_the_New_Heights_Podcast.mp4</pathurl>
							<rate>
								<timebase>30</timebase>
								<ntsc>FALSE</ntsc>
							</rate>
							<duration>17644</duration>
							<timecode>
								<rate>
									<timebase>30</timebase>
									<ntsc>FALSE</ntsc>
								</rate>
								<string>00:00:00:00</string>
								<frame>0</frame>
								<displayformat>NDF</displayformat>
							</timecode>
							<media>
								<video>
									<samplecharacteristics>
										<rate>
											<timebase>30</timebase>
											<ntsc>FALSE</ntsc>
										</rate>
										<width>1920</width>
										<height>1080</height>
										<anamorphic>FALSE</anamorphic>
										<pixelaspectratio>square</pixelaspectratio>
										<fielddominance>none</fielddominance>
									</samplecharacteristics>
								</video>
								<audio>
									<samplecharacteristics>
										<depth>16</depth>
										<samplerate>44100</samplerate>
									</samplecharacteristics>
									<channelcount>2</channelcount>
								</audio>
							</media>
						</file>
						<link>
							<linkclipref>clipitem-90</linkclipref>
							<mediatype>video</mediatype>
							<trackindex>1</trackindex>
							<clipindex>6</clipindex>
						</link>
						<link>
							<linkclipref>clipitem-98</linkclipref>
							<mediatype>audio</mediatype>
							<trackindex>1</trackindex>
							<clipindex>6</clipindex>
							<groupindex>1</groupindex>
						</link>
						<link>
							<linkclipref>clipitem-106</linkclipref>
							<mediatype>audio</mediatype>
							<trackindex>2</trackindex>
							<clipindex>6</clipindex>
							<groupindex>1</groupindex>
						</link>
						<logginginfo>
							<description />
							<scene />
							<shottake />
							<lognote />
							<good />
							<originalvideofilename />
							<originalaudiofilename />
						</logginginfo>
						<colorinfo>
							<lut />
							<lut1 />
							<asc_sop />
							<asc_sat />
							<lut2 />
						</colorinfo>
					<labels><label2>Forest</label2></labels></clipitem>
					<clipitem id="clipitem-88">
						<masterclipid>clipitem-4-42</masterclipid>
						<name>Travis_Kelce_ANNOUNCE_WEDDING_DATE_with_Taylor_Swift_Why_He_was_Delaying_all_Along.mp4</name>
						<enabled>TRUE</enabled>
						<duration>150</duration>
						<rate>
							<timebase>25</timebase>
							<ntsc>FALSE</ntsc>
						</rate>
						<start>25500</start>
						<end>25650</end>
						<in>6150</in>
						<out>6300</out>
						<pproTicksIn>0</pproTicksIn>
						<pproTicksOut>419410897920000</pproTicksOut>
						<alphatype>none</alphatype>
						<pixelaspectratio>square</pixelaspectratio>
						<anamorphic>FALSE</anamorphic>
						<file id="file-32">
							<name>Travis_Kelce_ANNOUNCE_WEDDING_DATE_with_Taylor_Swift_Why_He_was_Delaying_all_Along.mp4</name>
							<pathurl>file://localhost/Users/themalikano/Documents/VideoAutomation/premiere_videos/Travis_Kelce_ANNOUNCE_WEDDING_DATE_with_Taylor_Swift_Why_He_was_Delaying_all_Along.mp4</pathurl>
							<rate>
								<timebase>24</timebase>
								<ntsc>FALSE</ntsc>
							</rate>
							<duration>39627</duration>
							<timecode>
								<rate>
									<timebase>24</timebase>
									<ntsc>FALSE</ntsc>
								</rate>
								<string>00:00:00:00</string>
								<frame>0</frame>
								<displayformat>NDF</displayformat>
							</timecode>
							<media>
								<video>
									<samplecharacteristics>
										<rate>
											<timebase>24</timebase>
											<ntsc>FALSE</ntsc>
										</rate>
										<width>852</width>
										<height>480</height>
										<anamorphic>FALSE</anamorphic>
										<pixelaspectratio>square</pixelaspectratio>
										<fielddominance>none</fielddominance>
									</samplecharacteristics>
								</video>
								<audio>
									<samplecharacteristics>
										<depth>16</depth>
										<samplerate>44100</samplerate>
									</samplecharacteristics>
									<channelcount>2</channelcount>
								</audio>
							</media>
						</file>
						<filter>
							<effect>
								<name>Basic Motion</name>
								<effectid>basic</effectid>
								<effectcategory>motion</effectcategory>
								<effecttype>motion</effecttype>
								<mediatype>video</mediatype>
								<pproBypass>false</pproBypass>
								<parameter authoringApp="PremierePro">
									<parameterid>scale</parameterid>
									<name>Scale</name>
									<valuemin>0</valuemin>
									<valuemax>1000</valuemax>
									<value>225</value>
								</parameter>
								<parameter authoringApp="PremierePro">
									<parameterid>rotation</parameterid>
									<name>Rotation</name>
									<valuemin>-8640</valuemin>
									<valuemax>8640</valuemax>
									<value>0</value>
								</parameter>
								<parameter authoringApp="PremierePro">
									<parameterid>center</parameterid>
									<name>Center</name>
									<value>
										<horiz>0</horiz>
										<vert>0</vert>
									</value>
								</parameter>
								<parameter authoringApp="PremierePro">
									<parameterid>centerOffset</parameterid>
									<name>Anchor Point</name>
									<value>
										<horiz>0</horiz>
										<vert>0</vert>
									</value>
								</parameter>
								<parameter authoringApp="PremierePro">
									<parameterid>antiflicker</parameterid>
									<name>Anti-flicker Filter</name>
									<valuemin>0.0</valuemin>
									<valuemax>1.0</valuemax>
									<value>0</value>
								</parameter>
							</effect>
						</filter>
						<link>
							<linkclipref>clipitem-88</linkclipref>
							<mediatype>video</mediatype>
							<trackindex>1</trackindex>
							<clipindex>4</clipindex>
						</link>
						<link>
							<linkclipref>clipitem-96</linkclipref>
							<mediatype>audio</mediatype>
							<trackindex>1</trackindex>
							<clipindex>4</clipindex>
							<groupindex>1</groupindex>
						</link>
						<link>
							<linkclipref>clipitem-104</linkclipref>
							<mediatype>audio</mediatype>
							<trackindex>2</trackindex>
							<clipindex>4</clipindex>
							<groupindex>1</groupindex>
						</link>
						<logginginfo>
							<description />
							<scene />
							<shottake />
							<lognote />
							<good />
							<originalvideofilename />
							<originalaudiofilename />
						</logginginfo>
						<colorinfo>
							<lut />
							<lut1 />
							<asc_sop />
							<asc_sat />
							<lut2 />
						</colorinfo>
					<labels><label2>Lavender</label2></labels></clipitem>
					<clipitem id="clipitem-90">
						<masterclipid>clipitem-6-98</masterclipid>
						<name>Travis_Kelce_talks_about_postponing_his_wedding_to_Fiance_Taylor_Swift_on_the_New_Heights_Podcast.mp4</name>
						<enabled>TRUE</enabled>
						<duration>150</duration>
						<rate>
							<timebase>25</timebase>
							<ntsc>FALSE</ntsc>
						</rate>
						<start>25650</start>
						<end>25800</end>
						<in>14550</in>
						<out>14700</out>
						<pproTicksIn>0</pproTicksIn>
						<pproTicksOut>149391889920000</pproTicksOut>
						<alphatype>none</alphatype>
						<pixelaspectratio>square</pixelaspectratio>
						<anamorphic>FALSE</anamorphic>
						<file id="file-34">
							<name>Travis_Kelce_talks_about_postponing_his_wedding_to_Fiance_Taylor_Swift_on_the_New_Heights_Podcast.mp4</name>
							<pathurl>file://localhost/Users/themalikano/Documents/VideoAutomation/premiere_videos/Travis_Kelce_talks_about_postponing_his_wedding_to_Fiance_Taylor_Swift_on_the_New_Heights_Podcast.mp4</pathurl>
							<rate>
								<timebase>30</timebase>
								<ntsc>FALSE</ntsc>
							</rate>
							<duration>17644</duration>
							<timecode>
								<rate>
									<timebase>30</timebase>
									<ntsc>FALSE</ntsc>
								</rate>
								<string>00:00:00:00</string>
								<frame>0</frame>
								<displayformat>NDF</displayformat>
							</timecode>
							<media>
								<video>
									<samplecharacteristics>
										<rate>
											<timebase>30</timebase>
											<ntsc>FALSE</ntsc>
										</rate>
										<width>1920</width>
										<height>1080</height>
										<anamorphic>FALSE</anamorphic>
										<pixelaspectratio>square</pixelaspectratio>
										<fielddominance>none</fielddominance>
									</samplecharacteristics>
								</video>
								<audio>
									<samplecharacteristics>
										<depth>16</depth>
										<samplerate>44100</samplerate>
									</samplecharacteristics>
									<channelcount>2</channelcount>
								</audio>
							</media>
						</file>
						<link>
							<linkclipref>clipitem-90</linkclipref>
							<mediatype>video</mediatype>
							<trackindex>1</trackindex>
							<clipindex>6</clipindex>
						</link>
						<link>
							<linkclipref>clipitem-98</linkclipref>
							<mediatype>audio</mediatype>
							<trackindex>1</trackindex>
							<clipindex>6</clipindex>
							<groupindex>1</groupindex>
						</link>
						<link>
							<linkclipref>clipitem-106</linkclipref>
							<mediatype>audio</mediatype>
							<trackindex>2</trackindex>
							<clipindex>6</clipindex>
							<groupindex>1</groupindex>
						</link>
						<logginginfo>
							<description />
							<scene />
							<shottake />
							<lognote />
							<good />
							<originalvideofilename />
							<originalaudiofilename />
						</logginginfo>
						<colorinfo>
							<lut />
							<lut1 />
							<asc_sop />
							<asc_sat />
							<lut2 />
						</colorinfo>
					<labels><label2>Forest</label2></labels></clipitem>
					<clipitem id="clipitem-87">
						<masterclipid>clipitem-3-73</masterclipid>
						<name>Taylor_Swift_Travis_Kelce_-_The_New_Power_Couple.mp4</name>
						<enabled>TRUE</enabled>
						<duration>150</duration>
						<rate>
							<timebase>25</timebase>
							<ntsc>FALSE</ntsc>
						</rate>
						<start>25800</start>
						<end>25950</end>
						<in>10800</in>
						<out>10950</out>
						<pproTicksIn>0</pproTicksIn>
						<pproTicksOut>875013995520000</pproTicksOut>
						<alphatype>none</alphatype>
						<pixelaspectratio>square</pixelaspectratio>
						<anamorphic>FALSE</anamorphic>
						<file id="file-31">
							<name>Taylor_Swift_Travis_Kelce_-_The_New_Power_Couple.mp4</name>
							<pathurl>file://localhost/Users/themalikano/Documents/VideoAutomation/premiere_videos/Taylor_Swift_Travis_Kelce_-_The_New_Power_Couple.mp4</pathurl>
							<rate>
								<timebase>25</timebase>
								<ntsc>FALSE</ntsc>
							</rate>
							<duration>86118</duration>
							<timecode>
								<rate>
									<timebase>25</timebase>
									<ntsc>FALSE</ntsc>
								</rate>
								<string>00:00:00:00</string>
								<frame>0</frame>
								<displayformat>NDF</displayformat>
							</timecode>
							<media>
								<video>
									<samplecharacteristics>
										<rate>
											<timebase>25</timebase>
											<ntsc>FALSE</ntsc>
										</rate>
										<width>1920</width>
										<height>1080</height>
										<anamorphic>FALSE</anamorphic>
										<pixelaspectratio>square</pixelaspectratio>
										<fielddominance>none</fielddominance>
									</samplecharacteristics>
								</video>
								<audio>
									<samplecharacteristics>
										<depth>16</depth>
										<samplerate>44100</samplerate>
									</samplecharacteristics>
									<channelcount>2</channelcount>
								</audio>
							</media>
						</file>
						<link>
							<linkclipref>clipitem-87</linkclipref>
							<mediatype>video</mediatype>
							<trackindex>1</trackindex>
							<clipindex>3</clipindex>
						</link>
						<link>
							<linkclipref>clipitem-95</linkclipref>
							<mediatype>audio</mediatype>
							<trackindex>1</trackindex>
							<clipindex>3</clipindex>
							<groupindex>1</groupindex>
						</link>
						<link>
							<linkclipref>clipitem-103</linkclipref>
							<mediatype>audio</mediatype>
							<trackindex>2</trackindex>
							<clipindex>3</clipindex>
							<groupindex>1</groupindex>
						</link>
						<logginginfo>
							<description />
							<scene />
							<shottake />
							<lognote />
							<good />
							<originalvideofilename />
							<originalaudiofilename />
						</logginginfo>
						<colorinfo>
							<lut />
							<lut1 />
							<asc_sop />
							<asc_sat />
							<lut2 />
						</colorinfo>
					<labels><label2>Caribbean</label2></labels></clipitem>
					<clipitem id="clipitem-86">
						<masterclipid>clipitem-2-150</masterclipid>
						<name>Taylor_Swift_Shares_The_Story_Of_Calling_Travis_Kelce_For_The_First_Time.mp4</name>
						<enabled>TRUE</enabled>
						<duration>150</duration>
						<rate>
							<timebase>25</timebase>
							<ntsc>FALSE</ntsc>
						</rate>
						<start>25950</start>
						<end>26100</end>
						<in>22350</in>
						<out>22500</out>
						<pproTicksIn>0</pproTicksIn>
						<pproTicksOut>236438092800000</pproTicksOut>
						<alphatype>none</alphatype>
						<pixelaspectratio>square</pixelaspectratio>
						<anamorphic>FALSE</anamorphic>
						<file id="file-30">
							<name>Taylor_Swift_Shares_The_Story_Of_Calling_Travis_Kelce_For_The_First_Time.mp4</name>
							<pathurl>file://localhost/Users/themalikano/Documents/VideoAutomation/premiere_videos/Taylor_Swift_Shares_The_Story_Of_Calling_Travis_Kelce_For_The_First_Time.mp4</pathurl>
							<rate>
								<timebase>30</timebase>
								<ntsc>TRUE</ntsc>
							</rate>
							<duration>27897</duration>
							<timecode>
								<rate>
									<timebase>30</timebase>
									<ntsc>TRUE</ntsc>
								</rate>
								<string>00:00:00:00</string>
								<frame>0</frame>
								<displayformat>NDF</displayformat>
							</timecode>
							<media>
								<video>
									<samplecharacteristics>
										<rate>
											<timebase>30</timebase>
											<ntsc>TRUE</ntsc>
										</rate>
										<width>1920</width>
										<height>1080</height>
										<anamorphic>FALSE</anamorphic>
										<pixelaspectratio>square</pixelaspectratio>
										<fielddominance>none</fielddominance>
									</samplecharacteristics>
								</video>
								<audio>
									<samplecharacteristics>
										<depth>16</depth>
										<samplerate>44100</samplerate>
									</samplecharacteristics>
									<channelcount>2</channelcount>
								</audio>
							</media>
						</file>
						<link>
							<linkclipref>clipitem-86</linkclipref>
							<mediatype>video</mediatype>
							<trackindex>1</trackindex>
							<clipindex>2</clipindex>
						</link>
						<link>
							<linkclipref>clipitem-94</linkclipref>
							<mediatype>audio</mediatype>
							<trackindex>1</trackindex>
							<clipindex>2</clipindex>
							<groupindex>1</groupindex>
						</link>
						<link>
							<linkclipref>clipitem-102</linkclipref>
							<mediatype>audio</mediatype>
							<trackindex>2</trackindex>
							<clipindex>2</clipindex>
							<groupindex>1</groupindex>
						</link>
						<logginginfo>
							<description />
							<scene />
							<shottake />
							<lognote />
							<good />
							<originalvideofilename />
							<originalaudiofilename />
						</logginginfo>
						<colorinfo>
							<lut />
							<lut1 />
							<asc_sop />
							<asc_sat />
							<lut2 />
						</colorinfo>
					<labels><label2>Iris</label2></labels></clipitem>
					<clipitem id="clipitem-87">
						<masterclipid>clipitem-3-26</masterclipid>
						<name>Taylor_Swift_Travis_Kelce_-_The_New_Power_Couple.mp4</name>
						<enabled>TRUE</enabled>
						<duration>150</duration>
						<rate>
							<timebase>25</timebase>
							<ntsc>FALSE</ntsc>
						</rate>
						<start>26100</start>
						<end>26250</end>
						<in>3750</in>
						<out>3900</out>
						<pproTicksIn>0</pproTicksIn>
						<pproTicksOut>875013995520000</pproTicksOut>
						<alphatype>none</alphatype>
						<pixelaspectratio>square</pixelaspectratio>
						<anamorphic>FALSE</anamorphic>
						<file id="file-31">
							<name>Taylor_Swift_Travis_Kelce_-_The_New_Power_Couple.mp4</name>
							<pathurl>file://localhost/Users/themalikano/Documents/VideoAutomation/premiere_videos/Taylor_Swift_Travis_Kelce_-_The_New_Power_Couple.mp4</pathurl>
							<rate>
								<timebase>25</timebase>
								<ntsc>FALSE</ntsc>
							</rate>
							<duration>86118</duration>
							<timecode>
								<rate>
									<timebase>25</timebase>
									<ntsc>FALSE</ntsc>
								</rate>
								<string>00:00:00:00</string>
								<frame>0</frame>
								<displayformat>NDF</displayformat>
							</timecode>
							<media>
								<video>
									<samplecharacteristics>
										<rate>
											<timebase>25</timebase>
											<ntsc>FALSE</ntsc>
										</rate>
										<width>1920</width>
										<height>1080</height>
										<anamorphic>FALSE</anamorphic>
										<pixelaspectratio>square</pixelaspectratio>
										<fielddominance>none</fielddominance>
									</samplecharacteristics>
								</video>
								<audio>
									<samplecharacteristics>
										<depth>16</depth>
										<samplerate>44100</samplerate>
									</samplecharacteristics>
									<channelcount>2</channelcount>
								</audio>
							</media>
						</file>
						<link>
							<linkclipref>clipitem-87</linkclipref>
							<mediatype>video</mediatype>
							<trackindex>1</trackindex>
							<clipindex>3</clipindex>
						</link>
						<link>
							<linkclipref>clipitem-95</linkclipref>
							<mediatype>audio</mediatype>
							<trackindex>1</trackindex>
							<clipindex>3</clipindex>
							<groupindex>1</groupindex>
						</link>
						<link>
							<linkclipref>clipitem-103</linkclipref>
							<mediatype>audio</mediatype>
							<trackindex>2</trackindex>
							<clipindex>3</clipindex>
							<groupindex>1</groupindex>
						</link>
						<logginginfo>
							<description />
							<scene />
							<shottake />
							<lognote />
							<good />
							<originalvideofilename />
							<originalaudiofilename />
						</logginginfo>
						<colorinfo>
							<lut />
							<lut1 />
							<asc_sop />
							<asc_sat />
							<lut2 />
						</colorinfo>
					<labels><label2>Caribbean</label2></labels></clipitem>
					<clipitem id="clipitem-88">
						<masterclipid>clipitem-4-77</masterclipid>
						<name>Travis_Kelce_ANNOUNCE_WEDDING_DATE_with_Taylor_Swift_Why_He_was_Delaying_all_Along.mp4</name>
						<enabled>TRUE</enabled>
						<duration>150</duration>
						<rate>
							<timebase>25</timebase>
							<ntsc>FALSE</ntsc>
						</rate>
						<start>26250</start>
						<end>26400</end>
						<in>11400</in>
						<out>11550</out>
						<pproTicksIn>0</pproTicksIn>
						<pproTicksOut>419410897920000</pproTicksOut>
						<alphatype>none</alphatype>
						<pixelaspectratio>square</pixelaspectratio>
						<anamorphic>FALSE</anamorphic>
						<file id="file-32">
							<name>Travis_Kelce_ANNOUNCE_WEDDING_DATE_with_Taylor_Swift_Why_He_was_Delaying_all_Along.mp4</name>
							<pathurl>file://localhost/Users/themalikano/Documents/VideoAutomation/premiere_videos/Travis_Kelce_ANNOUNCE_WEDDING_DATE_with_Taylor_Swift_Why_He_was_Delaying_all_Along.mp4</pathurl>
							<rate>
								<timebase>24</timebase>
								<ntsc>FALSE</ntsc>
							</rate>
							<duration>39627</duration>
							<timecode>
								<rate>
									<timebase>24</timebase>
									<ntsc>FALSE</ntsc>
								</rate>
								<string>00:00:00:00</string>
								<frame>0</frame>
								<displayformat>NDF</displayformat>
							</timecode>
							<media>
								<video>
									<samplecharacteristics>
										<rate>
											<timebase>24</timebase>
											<ntsc>FALSE</ntsc>
										</rate>
										<width>852</width>
										<height>480</height>
										<anamorphic>FALSE</anamorphic>
										<pixelaspectratio>square</pixelaspectratio>
										<fielddominance>none</fielddominance>
									</samplecharacteristics>
								</video>
								<audio>
									<samplecharacteristics>
										<depth>16</depth>
										<samplerate>44100</samplerate>
									</samplecharacteristics>
									<channelcount>2</channelcount>
								</audio>
							</media>
						</file>
						<filter>
							<effect>
								<name>Basic Motion</name>
								<effectid>basic</effectid>
								<effectcategory>motion</effectcategory>
								<effecttype>motion</effecttype>
								<mediatype>video</mediatype>
								<pproBypass>false</pproBypass>
								<parameter authoringApp="PremierePro">
									<parameterid>scale</parameterid>
									<name>Scale</name>
									<valuemin>0</valuemin>
									<valuemax>1000</valuemax>
									<value>225</value>
								</parameter>
								<parameter authoringApp="PremierePro">
									<parameterid>rotation</parameterid>
									<name>Rotation</name>
									<valuemin>-8640</valuemin>
									<valuemax>8640</valuemax>
									<value>0</value>
								</parameter>
								<parameter authoringApp="PremierePro">
									<parameterid>center</parameterid>
									<name>Center</name>
									<value>
										<horiz>0</horiz>
										<vert>0</vert>
									</value>
								</parameter>
								<parameter authoringApp="PremierePro">
									<parameterid>centerOffset</parameterid>
									<name>Anchor Point</name>
									<value>
										<horiz>0</horiz>
										<vert>0</vert>
									</value>
								</parameter>
								<parameter authoringApp="PremierePro">
									<parameterid>antiflicker</parameterid>
									<name>Anti-flicker Filter</name>
									<valuemin>0.0</valuemin>
									<valuemax>1.0</valuemax>
									<value>0</value>
								</parameter>
							</effect>
						</filter>
						<link>
							<linkclipref>clipitem-88</linkclipref>
							<mediatype>video</mediatype>
							<trackindex>1</trackindex>
							<clipindex>4</clipindex>
						</link>
						<link>
							<linkclipref>clipitem-96</linkclipref>
							<mediatype>audio</mediatype>
							<trackindex>1</trackindex>
							<clipindex>4</clipindex>
							<groupindex>1</groupindex>
						</link>
						<link>
							<linkclipref>clipitem-104</linkclipref>
							<mediatype>audio</mediatype>
							<trackindex>2</trackindex>
							<clipindex>4</clipindex>
							<groupindex>1</groupindex>
						</link>
						<logginginfo>
							<description />
							<scene />
							<shottake />
							<lognote />
							<good />
							<originalvideofilename />
							<originalaudiofilename />
						</logginginfo>
						<colorinfo>
							<lut />
							<lut1 />
							<asc_sop />
							<asc_sat />
							<lut2 />
						</colorinfo>
					<labels><label2>Lavender</label2></labels></clipitem>
					<clipitem id="clipitem-86">
						<masterclipid>clipitem-2-133</masterclipid>
						<name>Taylor_Swift_Shares_The_Story_Of_Calling_Travis_Kelce_For_The_First_Time.mp4</name>
						<enabled>TRUE</enabled>
						<duration>150</duration>
						<rate>
							<timebase>25</timebase>
							<ntsc>FALSE</ntsc>
						</rate>
						<start>26400</start>
						<end>26550</end>
						<in>19800</in>
						<out>19950</out>
						<pproTicksIn>0</pproTicksIn>
						<pproTicksOut>236438092800000</pproTicksOut>
						<alphatype>none</alphatype>
						<pixelaspectratio>square</pixelaspectratio>
						<anamorphic>FALSE</anamorphic>
						<file id="file-30">
							<name>Taylor_Swift_Shares_The_Story_Of_Calling_Travis_Kelce_For_The_First_Time.mp4</name>
							<pathurl>file://localhost/Users/themalikano/Documents/VideoAutomation/premiere_videos/Taylor_Swift_Shares_The_Story_Of_Calling_Travis_Kelce_For_The_First_Time.mp4</pathurl>
							<rate>
								<timebase>30</timebase>
								<ntsc>TRUE</ntsc>
							</rate>
							<duration>27897</duration>
							<timecode>
								<rate>
									<timebase>30</timebase>
									<ntsc>TRUE</ntsc>
								</rate>
								<string>00:00:00:00</string>
								<frame>0</frame>
								<displayformat>NDF</displayformat>
							</timecode>
							<media>
								<video>
									<samplecharacteristics>
										<rate>
											<timebase>30</timebase>
											<ntsc>TRUE</ntsc>
										</rate>
										<width>1920</width>
										<height>1080</height>
										<anamorphic>FALSE</anamorphic>
										<pixelaspectratio>square</pixelaspectratio>
										<fielddominance>none</fielddominance>
									</samplecharacteristics>
								</video>
								<audio>
									<samplecharacteristics>
										<depth>16</depth>
										<samplerate>44100</samplerate>
									</samplecharacteristics>
									<channelcount>2</channelcount>
								</audio>
							</media>
						</file>
						<link>
							<linkclipref>clipitem-86</linkclipref>
							<mediatype>video</mediatype>
							<trackindex>1</trackindex>
							<clipindex>2</clipindex>
						</link>
						<link>
							<linkclipref>clipitem-94</linkclipref>
							<mediatype>audio</mediatype>
							<trackindex>1</trackindex>
							<clipindex>2</clipindex>
							<groupindex>1</groupindex>
						</link>
						<link>
							<linkclipref>clipitem-102</linkclipref>
							<mediatype>audio</mediatype>
							<trackindex>2</trackindex>
							<clipindex>2</clipindex>
							<groupindex>1</groupindex>
						</link>
						<logginginfo>
							<description />
							<scene />
							<shottake />
							<lognote />
							<good />
							<originalvideofilename />
							<originalaudiofilename />
						</logginginfo>
						<colorinfo>
							<lut />
							<lut1 />
							<asc_sop />
							<asc_sat />
							<lut2 />
						</colorinfo>
					<labels><label2>Iris</label2></labels></clipitem>
					<clipitem id="clipitem-90">
						<masterclipid>clipitem-6-29</masterclipid>
						<name>Travis_Kelce_talks_about_postponing_his_wedding_to_Fiance_Taylor_Swift_on_the_New_Heights_Podcast.mp4</name>
						<enabled>TRUE</enabled>
						<duration>150</duration>
						<rate>
							<timebase>25</timebase>
							<ntsc>FALSE</ntsc>
						</rate>
						<start>26550</start>
						<end>26700</end>
						<in>4200</in>
						<out>4350</out>
						<pproTicksIn>0</pproTicksIn>
						<pproTicksOut>149391889920000</pproTicksOut>
						<alphatype>none</alphatype>
						<pixelaspectratio>square</pixelaspectratio>
						<anamorphic>FALSE</anamorphic>
						<file id="file-34">
							<name>Travis_Kelce_talks_about_postponing_his_wedding_to_Fiance_Taylor_Swift_on_the_New_Heights_Podcast.mp4</name>
							<pathurl>file://localhost/Users/themalikano/Documents/VideoAutomation/premiere_videos/Travis_Kelce_talks_about_postponing_his_wedding_to_Fiance_Taylor_Swift_on_the_New_Heights_Podcast.mp4</pathurl>
							<rate>
								<timebase>30</timebase>
								<ntsc>FALSE</ntsc>
							</rate>
							<duration>17644</duration>
							<timecode>
								<rate>
									<timebase>30</timebase>
									<ntsc>FALSE</ntsc>
								</rate>
								<string>00:00:00:00</string>
								<frame>0</frame>
								<displayformat>NDF</displayformat>
							</timecode>
							<media>
								<video>
									<samplecharacteristics>
										<rate>
											<timebase>30</timebase>
											<ntsc>FALSE</ntsc>
										</rate>
										<width>1920</width>
										<height>1080</height>
										<anamorphic>FALSE</anamorphic>
										<pixelaspectratio>square</pixelaspectratio>
										<fielddominance>none</fielddominance>
									</samplecharacteristics>
								</video>
								<audio>
									<samplecharacteristics>
										<depth>16</depth>
										<samplerate>44100</samplerate>
									</samplecharacteristics>
									<channelcount>2</channelcount>
								</audio>
							</media>
						</file>
						<link>
							<linkclipref>clipitem-90</linkclipref>
							<mediatype>video</mediatype>
							<trackindex>1</trackindex>
							<clipindex>6</clipindex>
						</link>
						<link>
							<linkclipref>clipitem-98</linkclipref>
							<mediatype>audio</mediatype>
							<trackindex>1</trackindex>
							<clipindex>6</clipindex>
							<groupindex>1</groupindex>
						</link>
						<link>
							<linkclipref>clipitem-106</linkclipref>
							<mediatype>audio</mediatype>
							<trackindex>2</trackindex>
							<clipindex>6</clipindex>
							<groupindex>1</groupindex>
						</link>
						<logginginfo>
							<description />
							<scene />
							<shottake />
							<lognote />
							<good />
							<originalvideofilename />
							<originalaudiofilename />
						</logginginfo>
						<colorinfo>
							<lut />
							<lut1 />
							<asc_sop />
							<asc_sat />
							<lut2 />
						</colorinfo>
					<labels><label2>Forest</label2></labels></clipitem>
					<clipitem id="clipitem-88">
						<masterclipid>clipitem-4-56</masterclipid>
						<name>Travis_Kelce_ANNOUNCE_WEDDING_DATE_with_Taylor_Swift_Why_He_was_Delaying_all_Along.mp4</name>
						<enabled>TRUE</enabled>
						<duration>150</duration>
						<rate>
							<timebase>25</timebase>
							<ntsc>FALSE</ntsc>
						</rate>
						<start>26700</start>
						<end>26850</end>
						<in>8250</in>
						<out>8400</out>
						<pproTicksIn>0</pproTicksIn>
						<pproTicksOut>419410897920000</pproTicksOut>
						<alphatype>none</alphatype>
						<pixelaspectratio>square</pixelaspectratio>
						<anamorphic>FALSE</anamorphic>
						<file id="file-32">
							<name>Travis_Kelce_ANNOUNCE_WEDDING_DATE_with_Taylor_Swift_Why_He_was_Delaying_all_Along.mp4</name>
							<pathurl>file://localhost/Users/themalikano/Documents/VideoAutomation/premiere_videos/Travis_Kelce_ANNOUNCE_WEDDING_DATE_with_Taylor_Swift_Why_He_was_Delaying_all_Along.mp4</pathurl>
							<rate>
								<timebase>24</timebase>
								<ntsc>FALSE</ntsc>
							</rate>
							<duration>39627</duration>
							<timecode>
								<rate>
									<timebase>24</timebase>
									<ntsc>FALSE</ntsc>
								</rate>
								<string>00:00:00:00</string>
								<frame>0</frame>
								<displayformat>NDF</displayformat>
							</timecode>
							<media>
								<video>
									<samplecharacteristics>
										<rate>
											<timebase>24</timebase>
											<ntsc>FALSE</ntsc>
										</rate>
										<width>852</width>
										<height>480</height>
										<anamorphic>FALSE</anamorphic>
										<pixelaspectratio>square</pixelaspectratio>
										<fielddominance>none</fielddominance>
									</samplecharacteristics>
								</video>
								<audio>
									<samplecharacteristics>
										<depth>16</depth>
										<samplerate>44100</samplerate>
									</samplecharacteristics>
									<channelcount>2</channelcount>
								</audio>
							</media>
						</file>
						<filter>
							<effect>
								<name>Basic Motion</name>
								<effectid>basic</effectid>
								<effectcategory>motion</effectcategory>
								<effecttype>motion</effecttype>
								<mediatype>video</mediatype>
								<pproBypass>false</pproBypass>
								<parameter authoringApp="PremierePro">
									<parameterid>scale</parameterid>
									<name>Scale</name>
									<valuemin>0</valuemin>
									<valuemax>1000</valuemax>
									<value>225</value>
								</parameter>
								<parameter authoringApp="PremierePro">
									<parameterid>rotation</parameterid>
									<name>Rotation</name>
									<valuemin>-8640</valuemin>
									<valuemax>8640</valuemax>
									<value>0</value>
								</parameter>
								<parameter authoringApp="PremierePro">
									<parameterid>center</parameterid>
									<name>Center</name>
									<value>
										<horiz>0</horiz>
										<vert>0</vert>
									</value>
								</parameter>
								<parameter authoringApp="PremierePro">
									<parameterid>centerOffset</parameterid>
									<name>Anchor Point</name>
									<value>
										<horiz>0</horiz>
										<vert>0</vert>
									</value>
								</parameter>
								<parameter authoringApp="PremierePro">
									<parameterid>antiflicker</parameterid>
									<name>Anti-flicker Filter</name>
									<valuemin>0.0</valuemin>
									<valuemax>1.0</valuemax>
									<value>0</value>
								</parameter>
							</effect>
						</filter>
						<link>
							<linkclipref>clipitem-88</linkclipref>
							<mediatype>video</mediatype>
							<trackindex>1</trackindex>
							<clipindex>4</clipindex>
						</link>
						<link>
							<linkclipref>clipitem-96</linkclipref>
							<mediatype>audio</mediatype>
							<trackindex>1</trackindex>
							<clipindex>4</clipindex>
							<groupindex>1</groupindex>
						</link>
						<link>
							<linkclipref>clipitem-104</linkclipref>
							<mediatype>audio</mediatype>
							<trackindex>2</trackindex>
							<clipindex>4</clipindex>
							<groupindex>1</groupindex>
						</link>
						<logginginfo>
							<description />
							<scene />
							<shottake />
							<lognote />
							<good />
							<originalvideofilename />
							<originalaudiofilename />
						</logginginfo>
						<colorinfo>
							<lut />
							<lut1 />
							<asc_sop />
							<asc_sat />
							<lut2 />
						</colorinfo>
					<labels><label2>Lavender</label2></labels></clipitem>
					<clipitem id="clipitem-86">
						<masterclipid>clipitem-2-1</masterclipid>
						<name>Taylor_Swift_Shares_The_Story_Of_Calling_Travis_Kelce_For_The_First_Time.mp4</name>
						<enabled>TRUE</enabled>
						<duration>150</duration>
						<rate>
							<timebase>25</timebase>
							<ntsc>FALSE</ntsc>
						</rate>
						<start>26850</start>
						<end>27000</end>
						<in>0</in>
						<out>150</out>
						<pproTicksIn>0</pproTicksIn>
						<pproTicksOut>236438092800000</pproTicksOut>
						<alphatype>none</alphatype>
						<pixelaspectratio>square</pixelaspectratio>
						<anamorphic>FALSE</anamorphic>
						<file id="file-30">
							<name>Taylor_Swift_Shares_The_Story_Of_Calling_Travis_Kelce_For_The_First_Time.mp4</name>
							<pathurl>file://localhost/Users/themalikano/Documents/VideoAutomation/premiere_videos/Taylor_Swift_Shares_The_Story_Of_Calling_Travis_Kelce_For_The_First_Time.mp4</pathurl>
							<rate>
								<timebase>30</timebase>
								<ntsc>TRUE</ntsc>
							</rate>
							<duration>27897</duration>
							<timecode>
								<rate>
									<timebase>30</timebase>
									<ntsc>TRUE</ntsc>
								</rate>
								<string>00:00:00:00</string>
								<frame>0</frame>
								<displayformat>NDF</displayformat>
							</timecode>
							<media>
								<video>
									<samplecharacteristics>
										<rate>
											<timebase>30</timebase>
											<ntsc>TRUE</ntsc>
										</rate>
										<width>1920</width>
										<height>1080</height>
										<anamorphic>FALSE</anamorphic>
										<pixelaspectratio>square</pixelaspectratio>
										<fielddominance>none</fielddominance>
									</samplecharacteristics>
								</video>
								<audio>
									<samplecharacteristics>
										<depth>16</depth>
										<samplerate>44100</samplerate>
									</samplecharacteristics>
									<channelcount>2</channelcount>
								</audio>
							</media>
						</file>
						<link>
							<linkclipref>clipitem-86</linkclipref>
							<mediatype>video</mediatype>
							<trackindex>1</trackindex>
							<clipindex>2</clipindex>
						</link>
						<link>
							<linkclipref>clipitem-94</linkclipref>
							<mediatype>audio</mediatype>
							<trackindex>1</trackindex>
							<clipindex>2</clipindex>
							<groupindex>1</groupindex>
						</link>
						<link>
							<linkclipref>clipitem-102</linkclipref>
							<mediatype>audio</mediatype>
							<trackindex>2</trackindex>
							<clipindex>2</clipindex>
							<groupindex>1</groupindex>
						</link>
						<logginginfo>
							<description />
							<scene />
							<shottake />
							<lognote />
							<good />
							<originalvideofilename />
							<originalaudiofilename />
						</logginginfo>
						<colorinfo>
							<lut />
							<lut1 />
							<asc_sop />
							<asc_sat />
							<lut2 />
						</colorinfo>
					<labels><label2>Iris</label2></labels></clipitem>
					<clipitem id="clipitem-88">
						<masterclipid>clipitem-4-263</masterclipid>
						<name>Travis_Kelce_ANNOUNCE_WEDDING_DATE_with_Taylor_Swift_Why_He_was_Delaying_all_Along.mp4</name>
						<enabled>TRUE</enabled>
						<duration>150</duration>
						<rate>
							<timebase>25</timebase>
							<ntsc>FALSE</ntsc>
						</rate>
						<start>27000</start>
						<end>27150</end>
						<in>39300</in>
						<out>39450</out>
						<pproTicksIn>0</pproTicksIn>
						<pproTicksOut>419410897920000</pproTicksOut>
						<alphatype>none</alphatype>
						<pixelaspectratio>square</pixelaspectratio>
						<anamorphic>FALSE</anamorphic>
						<file id="file-32">
							<name>Travis_Kelce_ANNOUNCE_WEDDING_DATE_with_Taylor_Swift_Why_He_was_Delaying_all_Along.mp4</name>
							<pathurl>file://localhost/Users/themalikano/Documents/VideoAutomation/premiere_videos/Travis_Kelce_ANNOUNCE_WEDDING_DATE_with_Taylor_Swift_Why_He_was_Delaying_all_Along.mp4</pathurl>
							<rate>
								<timebase>24</timebase>
								<ntsc>FALSE</ntsc>
							</rate>
							<duration>39627</duration>
							<timecode>
								<rate>
									<timebase>24</timebase>
									<ntsc>FALSE</ntsc>
								</rate>
								<string>00:00:00:00</string>
								<frame>0</frame>
								<displayformat>NDF</displayformat>
							</timecode>
							<media>
								<video>
									<samplecharacteristics>
										<rate>
											<timebase>24</timebase>
											<ntsc>FALSE</ntsc>
										</rate>
										<width>852</width>
										<height>480</height>
										<anamorphic>FALSE</anamorphic>
										<pixelaspectratio>square</pixelaspectratio>
										<fielddominance>none</fielddominance>
									</samplecharacteristics>
								</video>
								<audio>
									<samplecharacteristics>
										<depth>16</depth>
										<samplerate>44100</samplerate>
									</samplecharacteristics>
									<channelcount>2</channelcount>
								</audio>
							</media>
						</file>
						<filter>
							<effect>
								<name>Basic Motion</name>
								<effectid>basic</effectid>
								<effectcategory>motion</effectcategory>
								<effecttype>motion</effecttype>
								<mediatype>video</mediatype>
								<pproBypass>false</pproBypass>
								<parameter authoringApp="PremierePro">
									<parameterid>scale</parameterid>
									<name>Scale</name>
									<valuemin>0</valuemin>
									<valuemax>1000</valuemax>
									<value>225</value>
								</parameter>
								<parameter authoringApp="PremierePro">
									<parameterid>rotation</parameterid>
									<name>Rotation</name>
									<valuemin>-8640</valuemin>
									<valuemax>8640</valuemax>
									<value>0</value>
								</parameter>
								<parameter authoringApp="PremierePro">
									<parameterid>center</parameterid>
									<name>Center</name>
									<value>
										<horiz>0</horiz>
										<vert>0</vert>
									</value>
								</parameter>
								<parameter authoringApp="PremierePro">
									<parameterid>centerOffset</parameterid>
									<name>Anchor Point</name>
									<value>
										<horiz>0</horiz>
										<vert>0</vert>
									</value>
								</parameter>
								<parameter authoringApp="PremierePro">
									<parameterid>antiflicker</parameterid>
									<name>Anti-flicker Filter</name>
									<valuemin>0.0</valuemin>
									<valuemax>1.0</valuemax>
									<value>0</value>
								</parameter>
							</effect>
						</filter>
						<link>
							<linkclipref>clipitem-88</linkclipref>
							<mediatype>video</mediatype>
							<trackindex>1</trackindex>
							<clipindex>4</clipindex>
						</link>
						<link>
							<linkclipref>clipitem-96</linkclipref>
							<mediatype>audio</mediatype>
							<trackindex>1</trackindex>
							<clipindex>4</clipindex>
							<groupindex>1</groupindex>
						</link>
						<link>
							<linkclipref>clipitem-104</linkclipref>
							<mediatype>audio</mediatype>
							<trackindex>2</trackindex>
							<clipindex>4</clipindex>
							<groupindex>1</groupindex>
						</link>
						<logginginfo>
							<description />
							<scene />
							<shottake />
							<lognote />
							<good />
							<originalvideofilename />
							<originalaudiofilename />
						</logginginfo>
						<colorinfo>
							<lut />
							<lut1 />
							<asc_sop />
							<asc_sat />
							<lut2 />
						</colorinfo>
					<labels><label2>Lavender</label2></labels></clipitem>
					<clipitem id="clipitem-91">
						<masterclipid>clipitem-7-24</masterclipid>
						<name>What_Caused_Taylor_Swift-Blake_Lively_Rift_The_View.mp4</name>
						<enabled>TRUE</enabled>
						<duration>150</duration>
						<rate>
							<timebase>25</timebase>
							<ntsc>FALSE</ntsc>
						</rate>
						<start>27150</start>
						<end>27300</end>
						<in>3450</in>
						<out>3600</out>
						<pproTicksIn>0</pproTicksIn>
						<pproTicksOut>45733040640000</pproTicksOut>
						<alphatype>none</alphatype>
						<pixelaspectratio>square</pixelaspectratio>
						<anamorphic>FALSE</anamorphic>
						<file id="file-35">
							<name>What_Caused_Taylor_Swift-Blake_Lively_Rift_The_View.mp4</name>
							<pathurl>file://localhost/Users/themalikano/Documents/VideoAutomation/premiere_videos/What_Caused_Taylor_Swift-Blake_Lively_Rift_The_View.mp4</pathurl>
							<rate>
								<timebase>30</timebase>
								<ntsc>TRUE</ntsc>
							</rate>
							<duration>5397</duration>
							<timecode>
								<rate>
									<timebase>30</timebase>
									<ntsc>TRUE</ntsc>
								</rate>
								<string>00:00:00:00</string>
								<frame>0</frame>
								<displayformat>NDF</displayformat>
							</timecode>
							<media>
								<video>
									<samplecharacteristics>
										<rate>
											<timebase>30</timebase>
											<ntsc>TRUE</ntsc>
										</rate>
										<width>1280</width>
										<height>720</height>
										<anamorphic>FALSE</anamorphic>
										<pixelaspectratio>square</pixelaspectratio>
										<fielddominance>none</fielddominance>
									</samplecharacteristics>
								</video>
								<audio>
									<samplecharacteristics>
										<depth>16</depth>
										<samplerate>44100</samplerate>
									</samplecharacteristics>
									<channelcount>2</channelcount>
								</audio>
							</media>
						</file>
						<filter>
							<effect>
								<name>Basic Motion</name>
								<effectid>basic</effectid>
								<effectcategory>motion</effectcategory>
								<effecttype>motion</effecttype>
								<mediatype>video</mediatype>
								<pproBypass>false</pproBypass>
								<parameter authoringApp="PremierePro">
									<parameterid>scale</parameterid>
									<name>Scale</name>
									<valuemin>0</valuemin>
									<valuemax>1000</valuemax>
									<value>150</value>
								</parameter>
								<parameter authoringApp="PremierePro">
									<parameterid>rotation</parameterid>
									<name>Rotation</name>
									<valuemin>-8640</valuemin>
									<valuemax>8640</valuemax>
									<value>0</value>
								</parameter>
								<parameter authoringApp="PremierePro">
									<parameterid>center</parameterid>
									<name>Center</name>
									<value>
										<horiz>0</horiz>
										<vert>0</vert>
									</value>
								</parameter>
								<parameter authoringApp="PremierePro">
									<parameterid>centerOffset</parameterid>
									<name>Anchor Point</name>
									<value>
										<horiz>0</horiz>
										<vert>0</vert>
									</value>
								</parameter>
								<parameter authoringApp="PremierePro">
									<parameterid>antiflicker</parameterid>
									<name>Anti-flicker Filter</name>
									<valuemin>0.0</valuemin>
									<valuemax>1.0</valuemax>
									<value>0</value>
								</parameter>
							</effect>
						</filter>
						<link>
							<linkclipref>clipitem-91</linkclipref>
							<mediatype>video</mediatype>
							<trackindex>1</trackindex>
							<clipindex>7</clipindex>
						</link>
						<link>
							<linkclipref>clipitem-99</linkclipref>
							<mediatype>audio</mediatype>
							<trackindex>1</trackindex>
							<clipindex>7</clipindex>
							<groupindex>1</groupindex>
						</link>
						<link>
							<linkclipref>clipitem-107</linkclipref>
							<mediatype>audio</mediatype>
							<trackindex>2</trackindex>
							<clipindex>7</clipindex>
							<groupindex>1</groupindex>
						</link>
						<logginginfo>
							<description />
							<scene />
							<shottake />
							<lognote />
							<good />
							<originalvideofilename />
							<originalaudiofilename />
						</logginginfo>
						<colorinfo>
							<lut />
							<lut1 />
							<asc_sop />
							<asc_sat />
							<lut2 />
						</colorinfo>
					<labels><label2>Rose</label2></labels></clipitem>
					<clipitem id="clipitem-90">
						<masterclipid>clipitem-6-79</masterclipid>
						<name>Travis_Kelce_talks_about_postponing_his_wedding_to_Fiance_Taylor_Swift_on_the_New_Heights_Podcast.mp4</name>
						<enabled>TRUE</enabled>
						<duration>150</duration>
						<rate>
							<timebase>25</timebase>
							<ntsc>FALSE</ntsc>
						</rate>
						<start>27300</start>
						<end>27450</end>
						<in>11700</in>
						<out>11850</out>
						<pproTicksIn>0</pproTicksIn>
						<pproTicksOut>149391889920000</pproTicksOut>
						<alphatype>none</alphatype>
						<pixelaspectratio>square</pixelaspectratio>
						<anamorphic>FALSE</anamorphic>
						<file id="file-34">
							<name>Travis_Kelce_talks_about_postponing_his_wedding_to_Fiance_Taylor_Swift_on_the_New_Heights_Podcast.mp4</name>
							<pathurl>file://localhost/Users/themalikano/Documents/VideoAutomation/premiere_videos/Travis_Kelce_talks_about_postponing_his_wedding_to_Fiance_Taylor_Swift_on_the_New_Heights_Podcast.mp4</pathurl>
							<rate>
								<timebase>30</timebase>
								<ntsc>FALSE</ntsc>
							</rate>
							<duration>17644</duration>
							<timecode>
								<rate>
									<timebase>30</timebase>
									<ntsc>FALSE</ntsc>
								</rate>
								<string>00:00:00:00</string>
								<frame>0</frame>
								<displayformat>NDF</displayformat>
							</timecode>
							<media>
								<video>
									<samplecharacteristics>
										<rate>
											<timebase>30</timebase>
											<ntsc>FALSE</ntsc>
										</rate>
										<width>1920</width>
										<height>1080</height>
										<anamorphic>FALSE</anamorphic>
										<pixelaspectratio>square</pixelaspectratio>
										<fielddominance>none</fielddominance>
									</samplecharacteristics>
								</video>
								<audio>
									<samplecharacteristics>
										<depth>16</depth>
										<samplerate>44100</samplerate>
									</samplecharacteristics>
									<channelcount>2</channelcount>
								</audio>
							</media>
						</file>
						<link>
							<linkclipref>clipitem-90</linkclipref>
							<mediatype>video</mediatype>
							<trackindex>1</trackindex>
							<clipindex>6</clipindex>
						</link>
						<link>
							<linkclipref>clipitem-98</linkclipref>
							<mediatype>audio</mediatype>
							<trackindex>1</trackindex>
							<clipindex>6</clipindex>
							<groupindex>1</groupindex>
						</link>
						<link>
							<linkclipref>clipitem-106</linkclipref>
							<mediatype>audio</mediatype>
							<trackindex>2</trackindex>
							<clipindex>6</clipindex>
							<groupindex>1</groupindex>
						</link>
						<logginginfo>
							<description />
							<scene />
							<shottake />
							<lognote />
							<good />
							<originalvideofilename />
							<originalaudiofilename />
						</logginginfo>
						<colorinfo>
							<lut />
							<lut1 />
							<asc_sop />
							<asc_sat />
							<lut2 />
						</colorinfo>
					<labels><label2>Forest</label2></labels></clipitem>
					<clipitem id="clipitem-86">
						<masterclipid>clipitem-2-155</masterclipid>
						<name>Taylor_Swift_Shares_The_Story_Of_Calling_Travis_Kelce_For_The_First_Time.mp4</name>
						<enabled>TRUE</enabled>
						<duration>150</duration>
						<rate>
							<timebase>25</timebase>
							<ntsc>FALSE</ntsc>
						</rate>
						<start>27450</start>
						<end>27600</end>
						<in>23100</in>
						<out>23250</out>
						<pproTicksIn>0</pproTicksIn>
						<pproTicksOut>236438092800000</pproTicksOut>
						<alphatype>none</alphatype>
						<pixelaspectratio>square</pixelaspectratio>
						<anamorphic>FALSE</anamorphic>
						<file id="file-30">
							<name>Taylor_Swift_Shares_The_Story_Of_Calling_Travis_Kelce_For_The_First_Time.mp4</name>
							<pathurl>file://localhost/Users/themalikano/Documents/VideoAutomation/premiere_videos/Taylor_Swift_Shares_The_Story_Of_Calling_Travis_Kelce_For_The_First_Time.mp4</pathurl>
							<rate>
								<timebase>30</timebase>
								<ntsc>TRUE</ntsc>
							</rate>
							<duration>27897</duration>
							<timecode>
								<rate>
									<timebase>30</timebase>
									<ntsc>TRUE</ntsc>
								</rate>
								<string>00:00:00:00</string>
								<frame>0</frame>
								<displayformat>NDF</displayformat>
							</timecode>
							<media>
								<video>
									<samplecharacteristics>
										<rate>
											<timebase>30</timebase>
											<ntsc>TRUE</ntsc>
										</rate>
										<width>1920</width>
										<height>1080</height>
										<anamorphic>FALSE</anamorphic>
										<pixelaspectratio>square</pixelaspectratio>
										<fielddominance>none</fielddominance>
									</samplecharacteristics>
								</video>
								<audio>
									<samplecharacteristics>
										<depth>16</depth>
										<samplerate>44100</samplerate>
									</samplecharacteristics>
									<channelcount>2</channelcount>
								</audio>
							</media>
						</file>
						<link>
							<linkclipref>clipitem-86</linkclipref>
							<mediatype>video</mediatype>
							<trackindex>1</trackindex>
							<clipindex>2</clipindex>
						</link>
						<link>
							<linkclipref>clipitem-94</linkclipref>
							<mediatype>audio</mediatype>
							<trackindex>1</trackindex>
							<clipindex>2</clipindex>
							<groupindex>1</groupindex>
						</link>
						<link>
							<linkclipref>clipitem-102</linkclipref>
							<mediatype>audio</mediatype>
							<trackindex>2</trackindex>
							<clipindex>2</clipindex>
							<groupindex>1</groupindex>
						</link>
						<logginginfo>
							<description />
							<scene />
							<shottake />
							<lognote />
							<good />
							<originalvideofilename />
							<originalaudiofilename />
						</logginginfo>
						<colorinfo>
							<lut />
							<lut1 />
							<asc_sop />
							<asc_sat />
							<lut2 />
						</colorinfo>
					<labels><label2>Iris</label2></labels></clipitem>
					<clipitem id="clipitem-88">
						<masterclipid>clipitem-4-171</masterclipid>
						<name>Travis_Kelce_ANNOUNCE_WEDDING_DATE_with_Taylor_Swift_Why_He_was_Delaying_all_Along.mp4</name>
						<enabled>TRUE</enabled>
						<duration>150</duration>
						<rate>
							<timebase>25</timebase>
							<ntsc>FALSE</ntsc>
						</rate>
						<start>27600</start>
						<end>27750</end>
						<in>25500</in>
						<out>25650</out>
						<pproTicksIn>0</pproTicksIn>
						<pproTicksOut>419410897920000</pproTicksOut>
						<alphatype>none</alphatype>
						<pixelaspectratio>square</pixelaspectratio>
						<anamorphic>FALSE</anamorphic>
						<file id="file-32">
							<name>Travis_Kelce_ANNOUNCE_WEDDING_DATE_with_Taylor_Swift_Why_He_was_Delaying_all_Along.mp4</name>
							<pathurl>file://localhost/Users/themalikano/Documents/VideoAutomation/premiere_videos/Travis_Kelce_ANNOUNCE_WEDDING_DATE_with_Taylor_Swift_Why_He_was_Delaying_all_Along.mp4</pathurl>
							<rate>
								<timebase>24</timebase>
								<ntsc>FALSE</ntsc>
							</rate>
							<duration>39627</duration>
							<timecode>
								<rate>
									<timebase>24</timebase>
									<ntsc>FALSE</ntsc>
								</rate>
								<string>00:00:00:00</string>
								<frame>0</frame>
								<displayformat>NDF</displayformat>
							</timecode>
							<media>
								<video>
									<samplecharacteristics>
										<rate>
											<timebase>24</timebase>
											<ntsc>FALSE</ntsc>
										</rate>
										<width>852</width>
										<height>480</height>
										<anamorphic>FALSE</anamorphic>
										<pixelaspectratio>square</pixelaspectratio>
										<fielddominance>none</fielddominance>
									</samplecharacteristics>
								</video>
								<audio>
									<samplecharacteristics>
										<depth>16</depth>
										<samplerate>44100</samplerate>
									</samplecharacteristics>
									<channelcount>2</channelcount>
								</audio>
							</media>
						</file>
						<filter>
							<effect>
								<name>Basic Motion</name>
								<effectid>basic</effectid>
								<effectcategory>motion</effectcategory>
								<effecttype>motion</effecttype>
								<mediatype>video</mediatype>
								<pproBypass>false</pproBypass>
								<parameter authoringApp="PremierePro">
									<parameterid>scale</parameterid>
									<name>Scale</name>
									<valuemin>0</valuemin>
									<valuemax>1000</valuemax>
									<value>225</value>
								</parameter>
								<parameter authoringApp="PremierePro">
									<parameterid>rotation</parameterid>
									<name>Rotation</name>
									<valuemin>-8640</valuemin>
									<valuemax>8640</valuemax>
									<value>0</value>
								</parameter>
								<parameter authoringApp="PremierePro">
									<parameterid>center</parameterid>
									<name>Center</name>
									<value>
										<horiz>0</horiz>
										<vert>0</vert>
									</value>
								</parameter>
								<parameter authoringApp="PremierePro">
									<parameterid>centerOffset</parameterid>
									<name>Anchor Point</name>
									<value>
										<horiz>0</horiz>
										<vert>0</vert>
									</value>
								</parameter>
								<parameter authoringApp="PremierePro">
									<parameterid>antiflicker</parameterid>
									<name>Anti-flicker Filter</name>
									<valuemin>0.0</valuemin>
									<valuemax>1.0</valuemax>
									<value>0</value>
								</parameter>
							</effect>
						</filter>
						<link>
							<linkclipref>clipitem-88</linkclipref>
							<mediatype>video</mediatype>
							<trackindex>1</trackindex>
							<clipindex>4</clipindex>
						</link>
						<link>
							<linkclipref>clipitem-96</linkclipref>
							<mediatype>audio</mediatype>
							<trackindex>1</trackindex>
							<clipindex>4</clipindex>
							<groupindex>1</groupindex>
						</link>
						<link>
							<linkclipref>clipitem-104</linkclipref>
							<mediatype>audio</mediatype>
							<trackindex>2</trackindex>
							<clipindex>4</clipindex>
							<groupindex>1</groupindex>
						</link>
						<logginginfo>
							<description />
							<scene />
							<shottake />
							<lognote />
							<good />
							<originalvideofilename />
							<originalaudiofilename />
						</logginginfo>
						<colorinfo>
							<lut />
							<lut1 />
							<asc_sop />
							<asc_sat />
							<lut2 />
						</colorinfo>
					<labels><label2>Lavender</label2></labels></clipitem>
					<clipitem id="clipitem-91">
						<masterclipid>clipitem-7-23</masterclipid>
						<name>What_Caused_Taylor_Swift-Blake_Lively_Rift_The_View.mp4</name>
						<enabled>TRUE</enabled>
						<duration>150</duration>
						<rate>
							<timebase>25</timebase>
							<ntsc>FALSE</ntsc>
						</rate>
						<start>27750</start>
						<end>27900</end>
						<in>3300</in>
						<out>3450</out>
						<pproTicksIn>0</pproTicksIn>
						<pproTicksOut>45733040640000</pproTicksOut>
						<alphatype>none</alphatype>
						<pixelaspectratio>square</pixelaspectratio>
						<anamorphic>FALSE</anamorphic>
						<file id="file-35">
							<name>What_Caused_Taylor_Swift-Blake_Lively_Rift_The_View.mp4</name>
							<pathurl>file://localhost/Users/themalikano/Documents/VideoAutomation/premiere_videos/What_Caused_Taylor_Swift-Blake_Lively_Rift_The_View.mp4</pathurl>
							<rate>
								<timebase>30</timebase>
								<ntsc>TRUE</ntsc>
							</rate>
							<duration>5397</duration>
							<timecode>
								<rate>
									<timebase>30</timebase>
									<ntsc>TRUE</ntsc>
								</rate>
								<string>00:00:00:00</string>
								<frame>0</frame>
								<displayformat>NDF</displayformat>
							</timecode>
							<media>
								<video>
									<samplecharacteristics>
										<rate>
											<timebase>30</timebase>
											<ntsc>TRUE</ntsc>
										</rate>
										<width>1280</width>
										<height>720</height>
										<anamorphic>FALSE</anamorphic>
										<pixelaspectratio>square</pixelaspectratio>
										<fielddominance>none</fielddominance>
									</samplecharacteristics>
								</video>
								<audio>
									<samplecharacteristics>
										<depth>16</depth>
										<samplerate>44100</samplerate>
									</samplecharacteristics>
									<channelcount>2</channelcount>
								</audio>
							</media>
						</file>
						<filter>
							<effect>
								<name>Basic Motion</name>
								<effectid>basic</effectid>
								<effectcategory>motion</effectcategory>
								<effecttype>motion</effecttype>
								<mediatype>video</mediatype>
								<pproBypass>false</pproBypass>
								<parameter authoringApp="PremierePro">
									<parameterid>scale</parameterid>
									<name>Scale</name>
									<valuemin>0</valuemin>
									<valuemax>1000</valuemax>
									<value>150</value>
								</parameter>
								<parameter authoringApp="PremierePro">
									<parameterid>rotation</parameterid>
									<name>Rotation</name>
									<valuemin>-8640</valuemin>
									<valuemax>8640</valuemax>
									<value>0</value>
								</parameter>
								<parameter authoringApp="PremierePro">
									<parameterid>center</parameterid>
									<name>Center</name>
									<value>
										<horiz>0</horiz>
										<vert>0</vert>
									</value>
								</parameter>
								<parameter authoringApp="PremierePro">
									<parameterid>centerOffset</parameterid>
									<name>Anchor Point</name>
									<value>
										<horiz>0</horiz>
										<vert>0</vert>
									</value>
								</parameter>
								<parameter authoringApp="PremierePro">
									<parameterid>antiflicker</parameterid>
									<name>Anti-flicker Filter</name>
									<valuemin>0.0</valuemin>
									<valuemax>1.0</valuemax>
									<value>0</value>
								</parameter>
							</effect>
						</filter>
						<link>
							<linkclipref>clipitem-91</linkclipref>
							<mediatype>video</mediatype>
							<trackindex>1</trackindex>
							<clipindex>7</clipindex>
						</link>
						<link>
							<linkclipref>clipitem-99</linkclipref>
							<mediatype>audio</mediatype>
							<trackindex>1</trackindex>
							<clipindex>7</clipindex>
							<groupindex>1</groupindex>
						</link>
						<link>
							<linkclipref>clipitem-107</linkclipref>
							<mediatype>audio</mediatype>
							<trackindex>2</trackindex>
							<clipindex>7</clipindex>
							<groupindex>1</groupindex>
						</link>
						<logginginfo>
							<description />
							<scene />
							<shottake />
							<lognote />
							<good />
							<originalvideofilename />
							<originalaudiofilename />
						</logginginfo>
						<colorinfo>
							<lut />
							<lut1 />
							<asc_sop />
							<asc_sat />
							<lut2 />
						</colorinfo>
					<labels><label2>Rose</label2></labels></clipitem>
					<clipitem id="clipitem-90">
						<masterclipid>clipitem-6-51</masterclipid>
						<name>Travis_Kelce_talks_about_postponing_his_wedding_to_Fiance_Taylor_Swift_on_the_New_Heights_Podcast.mp4</name>
						<enabled>TRUE</enabled>
						<duration>150</duration>
						<rate>
							<timebase>25</timebase>
							<ntsc>FALSE</ntsc>
						</rate>
						<start>27900</start>
						<end>28050</end>
						<in>7500</in>
						<out>7650</out>
						<pproTicksIn>0</pproTicksIn>
						<pproTicksOut>149391889920000</pproTicksOut>
						<alphatype>none</alphatype>
						<pixelaspectratio>square</pixelaspectratio>
						<anamorphic>FALSE</anamorphic>
						<file id="file-34">
							<name>Travis_Kelce_talks_about_postponing_his_wedding_to_Fiance_Taylor_Swift_on_the_New_Heights_Podcast.mp4</name>
							<pathurl>file://localhost/Users/themalikano/Documents/VideoAutomation/premiere_videos/Travis_Kelce_talks_about_postponing_his_wedding_to_Fiance_Taylor_Swift_on_the_New_Heights_Podcast.mp4</pathurl>
							<rate>
								<timebase>30</timebase>
								<ntsc>FALSE</ntsc>
							</rate>
							<duration>17644</duration>
							<timecode>
								<rate>
									<timebase>30</timebase>
									<ntsc>FALSE</ntsc>
								</rate>
								<string>00:00:00:00</string>
								<frame>0</frame>
								<displayformat>NDF</displayformat>
							</timecode>
							<media>
								<video>
									<samplecharacteristics>
										<rate>
											<timebase>30</timebase>
											<ntsc>FALSE</ntsc>
										</rate>
										<width>1920</width>
										<height>1080</height>
										<anamorphic>FALSE</anamorphic>
										<pixelaspectratio>square</pixelaspectratio>
										<fielddominance>none</fielddominance>
									</samplecharacteristics>
								</video>
								<audio>
									<samplecharacteristics>
										<depth>16</depth>
										<samplerate>44100</samplerate>
									</samplecharacteristics>
									<channelcount>2</channelcount>
								</audio>
							</media>
						</file>
						<link>
							<linkclipref>clipitem-90</linkclipref>
							<mediatype>video</mediatype>
							<trackindex>1</trackindex>
							<clipindex>6</clipindex>
						</link>
						<link>
							<linkclipref>clipitem-98</linkclipref>
							<mediatype>audio</mediatype>
							<trackindex>1</trackindex>
							<clipindex>6</clipindex>
							<groupindex>1</groupindex>
						</link>
						<link>
							<linkclipref>clipitem-106</linkclipref>
							<mediatype>audio</mediatype>
							<trackindex>2</trackindex>
							<clipindex>6</clipindex>
							<groupindex>1</groupindex>
						</link>
						<logginginfo>
							<description />
							<scene />
							<shottake />
							<lognote />
							<good />
							<originalvideofilename />
							<originalaudiofilename />
						</logginginfo>
						<colorinfo>
							<lut />
							<lut1 />
							<asc_sop />
							<asc_sat />
							<lut2 />
						</colorinfo>
					<labels><label2>Forest</label2></labels></clipitem>
					<clipitem id="clipitem-86">
						<masterclipid>clipitem-2-37</masterclipid>
						<name>Taylor_Swift_Shares_The_Story_Of_Calling_Travis_Kelce_For_The_First_Time.mp4</name>
						<enabled>TRUE</enabled>
						<duration>150</duration>
						<rate>
							<timebase>25</timebase>
							<ntsc>FALSE</ntsc>
						</rate>
						<start>28050</start>
						<end>28200</end>
						<in>5400</in>
						<out>5550</out>
						<pproTicksIn>0</pproTicksIn>
						<pproTicksOut>236438092800000</pproTicksOut>
						<alphatype>none</alphatype>
						<pixelaspectratio>square</pixelaspectratio>
						<anamorphic>FALSE</anamorphic>
						<file id="file-30">
							<name>Taylor_Swift_Shares_The_Story_Of_Calling_Travis_Kelce_For_The_First_Time.mp4</name>
							<pathurl>file://localhost/Users/themalikano/Documents/VideoAutomation/premiere_videos/Taylor_Swift_Shares_The_Story_Of_Calling_Travis_Kelce_For_The_First_Time.mp4</pathurl>
							<rate>
								<timebase>30</timebase>
								<ntsc>TRUE</ntsc>
							</rate>
							<duration>27897</duration>
							<timecode>
								<rate>
									<timebase>30</timebase>
									<ntsc>TRUE</ntsc>
								</rate>
								<string>00:00:00:00</string>
								<frame>0</frame>
								<displayformat>NDF</displayformat>
							</timecode>
							<media>
								<video>
									<samplecharacteristics>
										<rate>
											<timebase>30</timebase>
											<ntsc>TRUE</ntsc>
										</rate>
										<width>1920</width>
										<height>1080</height>
										<anamorphic>FALSE</anamorphic>
										<pixelaspectratio>square</pixelaspectratio>
										<fielddominance>none</fielddominance>
									</samplecharacteristics>
								</video>
								<audio>
									<samplecharacteristics>
										<depth>16</depth>
										<samplerate>44100</samplerate>
									</samplecharacteristics>
									<channelcount>2</channelcount>
								</audio>
							</media>
						</file>
						<link>
							<linkclipref>clipitem-86</linkclipref>
							<mediatype>video</mediatype>
							<trackindex>1</trackindex>
							<clipindex>2</clipindex>
						</link>
						<link>
							<linkclipref>clipitem-94</linkclipref>
							<mediatype>audio</mediatype>
							<trackindex>1</trackindex>
							<clipindex>2</clipindex>
							<groupindex>1</groupindex>
						</link>
						<link>
							<linkclipref>clipitem-102</linkclipref>
							<mediatype>audio</mediatype>
							<trackindex>2</trackindex>
							<clipindex>2</clipindex>
							<groupindex>1</groupindex>
						</link>
						<logginginfo>
							<description />
							<scene />
							<shottake />
							<lognote />
							<good />
							<originalvideofilename />
							<originalaudiofilename />
						</logginginfo>
						<colorinfo>
							<lut />
							<lut1 />
							<asc_sop />
							<asc_sat />
							<lut2 />
						</colorinfo>
					<labels><label2>Iris</label2></labels></clipitem>
					<clipitem id="clipitem-87">
						<masterclipid>clipitem-3-130</masterclipid>
						<name>Taylor_Swift_Travis_Kelce_-_The_New_Power_Couple.mp4</name>
						<enabled>TRUE</enabled>
						<duration>150</duration>
						<rate>
							<timebase>25</timebase>
							<ntsc>FALSE</ntsc>
						</rate>
						<start>28200</start>
						<end>28350</end>
						<in>19350</in>
						<out>19500</out>
						<pproTicksIn>0</pproTicksIn>
						<pproTicksOut>875013995520000</pproTicksOut>
						<alphatype>none</alphatype>
						<pixelaspectratio>square</pixelaspectratio>
						<anamorphic>FALSE</anamorphic>
						<file id="file-31">
							<name>Taylor_Swift_Travis_Kelce_-_The_New_Power_Couple.mp4</name>
							<pathurl>file://localhost/Users/themalikano/Documents/VideoAutomation/premiere_videos/Taylor_Swift_Travis_Kelce_-_The_New_Power_Couple.mp4</pathurl>
							<rate>
								<timebase>25</timebase>
								<ntsc>FALSE</ntsc>
							</rate>
							<duration>86118</duration>
							<timecode>
								<rate>
									<timebase>25</timebase>
									<ntsc>FALSE</ntsc>
								</rate>
								<string>00:00:00:00</string>
								<frame>0</frame>
								<displayformat>NDF</displayformat>
							</timecode>
							<media>
								<video>
									<samplecharacteristics>
										<rate>
											<timebase>25</timebase>
											<ntsc>FALSE</ntsc>
										</rate>
										<width>1920</width>
										<height>1080</height>
										<anamorphic>FALSE</anamorphic>
										<pixelaspectratio>square</pixelaspectratio>
										<fielddominance>none</fielddominance>
									</samplecharacteristics>
								</video>
								<audio>
									<samplecharacteristics>
										<depth>16</depth>
										<samplerate>44100</samplerate>
									</samplecharacteristics>
									<channelcount>2</channelcount>
								</audio>
							</media>
						</file>
						<link>
							<linkclipref>clipitem-87</linkclipref>
							<mediatype>video</mediatype>
							<trackindex>1</trackindex>
							<clipindex>3</clipindex>
						</link>
						<link>
							<linkclipref>clipitem-95</linkclipref>
							<mediatype>audio</mediatype>
							<trackindex>1</trackindex>
							<clipindex>3</clipindex>
							<groupindex>1</groupindex>
						</link>
						<link>
							<linkclipref>clipitem-103</linkclipref>
							<mediatype>audio</mediatype>
							<trackindex>2</trackindex>
							<clipindex>3</clipindex>
							<groupindex>1</groupindex>
						</link>
						<logginginfo>
							<description />
							<scene />
							<shottake />
							<lognote />
							<good />
							<originalvideofilename />
							<originalaudiofilename />
						</logginginfo>
						<colorinfo>
							<lut />
							<lut1 />
							<asc_sop />
							<asc_sat />
							<lut2 />
						</colorinfo>
					<labels><label2>Caribbean</label2></labels></clipitem>
					<clipitem id="clipitem-86">
						<masterclipid>clipitem-2-115</masterclipid>
						<name>Taylor_Swift_Shares_The_Story_Of_Calling_Travis_Kelce_For_The_First_Time.mp4</name>
						<enabled>TRUE</enabled>
						<duration>150</duration>
						<rate>
							<timebase>25</timebase>
							<ntsc>FALSE</ntsc>
						</rate>
						<start>28350</start>
						<end>28500</end>
						<in>17100</in>
						<out>17250</out>
						<pproTicksIn>0</pproTicksIn>
						<pproTicksOut>236438092800000</pproTicksOut>
						<alphatype>none</alphatype>
						<pixelaspectratio>square</pixelaspectratio>
						<anamorphic>FALSE</anamorphic>
						<file id="file-30">
							<name>Taylor_Swift_Shares_The_Story_Of_Calling_Travis_Kelce_For_The_First_Time.mp4</name>
							<pathurl>file://localhost/Users/themalikano/Documents/VideoAutomation/premiere_videos/Taylor_Swift_Shares_The_Story_Of_Calling_Travis_Kelce_For_The_First_Time.mp4</pathurl>
							<rate>
								<timebase>30</timebase>
								<ntsc>TRUE</ntsc>
							</rate>
							<duration>27897</duration>
							<timecode>
								<rate>
									<timebase>30</timebase>
									<ntsc>TRUE</ntsc>
								</rate>
								<string>00:00:00:00</string>
								<frame>0</frame>
								<displayformat>NDF</displayformat>
							</timecode>
							<media>
								<video>
									<samplecharacteristics>
										<rate>
											<timebase>30</timebase>
											<ntsc>TRUE</ntsc>
										</rate>
										<width>1920</width>
										<height>1080</height>
										<anamorphic>FALSE</anamorphic>
										<pixelaspectratio>square</pixelaspectratio>
										<fielddominance>none</fielddominance>
									</samplecharacteristics>
								</video>
								<audio>
									<samplecharacteristics>
										<depth>16</depth>
										<samplerate>44100</samplerate>
									</samplecharacteristics>
									<channelcount>2</channelcount>
								</audio>
							</media>
						</file>
						<link>
							<linkclipref>clipitem-86</linkclipref>
							<mediatype>video</mediatype>
							<trackindex>1</trackindex>
							<clipindex>2</clipindex>
						</link>
						<link>
							<linkclipref>clipitem-94</linkclipref>
							<mediatype>audio</mediatype>
							<trackindex>1</trackindex>
							<clipindex>2</clipindex>
							<groupindex>1</groupindex>
						</link>
						<link>
							<linkclipref>clipitem-102</linkclipref>
							<mediatype>audio</mediatype>
							<trackindex>2</trackindex>
							<clipindex>2</clipindex>
							<groupindex>1</groupindex>
						</link>
						<logginginfo>
							<description />
							<scene />
							<shottake />
							<lognote />
							<good />
							<originalvideofilename />
							<originalaudiofilename />
						</logginginfo>
						<colorinfo>
							<lut />
							<lut1 />
							<asc_sop />
							<asc_sat />
							<lut2 />
						</colorinfo>
					<labels><label2>Iris</label2></labels></clipitem>
					<clipitem id="clipitem-87">
						<masterclipid>clipitem-3-403</masterclipid>
						<name>Taylor_Swift_Travis_Kelce_-_The_New_Power_Couple.mp4</name>
						<enabled>TRUE</enabled>
						<duration>150</duration>
						<rate>
							<timebase>25</timebase>
							<ntsc>FALSE</ntsc>
						</rate>
						<start>28500</start>
						<end>28650</end>
						<in>60300</in>
						<out>60450</out>
						<pproTicksIn>0</pproTicksIn>
						<pproTicksOut>875013995520000</pproTicksOut>
						<alphatype>none</alphatype>
						<pixelaspectratio>square</pixelaspectratio>
						<anamorphic>FALSE</anamorphic>
						<file id="file-31">
							<name>Taylor_Swift_Travis_Kelce_-_The_New_Power_Couple.mp4</name>
							<pathurl>file://localhost/Users/themalikano/Documents/VideoAutomation/premiere_videos/Taylor_Swift_Travis_Kelce_-_The_New_Power_Couple.mp4</pathurl>
							<rate>
								<timebase>25</timebase>
								<ntsc>FALSE</ntsc>
							</rate>
							<duration>86118</duration>
							<timecode>
								<rate>
									<timebase>25</timebase>
									<ntsc>FALSE</ntsc>
								</rate>
								<string>00:00:00:00</string>
								<frame>0</frame>
								<displayformat>NDF</displayformat>
							</timecode>
							<media>
								<video>
									<samplecharacteristics>
										<rate>
											<timebase>25</timebase>
											<ntsc>FALSE</ntsc>
										</rate>
										<width>1920</width>
										<height>1080</height>
										<anamorphic>FALSE</anamorphic>
										<pixelaspectratio>square</pixelaspectratio>
										<fielddominance>none</fielddominance>
									</samplecharacteristics>
								</video>
								<audio>
									<samplecharacteristics>
										<depth>16</depth>
										<samplerate>44100</samplerate>
									</samplecharacteristics>
									<channelcount>2</channelcount>
								</audio>
							</media>
						</file>
						<link>
							<linkclipref>clipitem-87</linkclipref>
							<mediatype>video</mediatype>
							<trackindex>1</trackindex>
							<clipindex>3</clipindex>
						</link>
						<link>
							<linkclipref>clipitem-95</linkclipref>
							<mediatype>audio</mediatype>
							<trackindex>1</trackindex>
							<clipindex>3</clipindex>
							<groupindex>1</groupindex>
						</link>
						<link>
							<linkclipref>clipitem-103</linkclipref>
							<mediatype>audio</mediatype>
							<trackindex>2</trackindex>
							<clipindex>3</clipindex>
							<groupindex>1</groupindex>
						</link>
						<logginginfo>
							<description />
							<scene />
							<shottake />
							<lognote />
							<good />
							<originalvideofilename />
							<originalaudiofilename />
						</logginginfo>
						<colorinfo>
							<lut />
							<lut1 />
							<asc_sop />
							<asc_sat />
							<lut2 />
						</colorinfo>
					<labels><label2>Caribbean</label2></labels></clipitem>
					<clipitem id="clipitem-88">
						<masterclipid>clipitem-4-261</masterclipid>
						<name>Travis_Kelce_ANNOUNCE_WEDDING_DATE_with_Taylor_Swift_Why_He_was_Delaying_all_Along.mp4</name>
						<enabled>TRUE</enabled>
						<duration>150</duration>
						<rate>
							<timebase>25</timebase>
							<ntsc>FALSE</ntsc>
						</rate>
						<start>28650</start>
						<end>28800</end>
						<in>39000</in>
						<out>39150</out>
						<pproTicksIn>0</pproTicksIn>
						<pproTicksOut>419410897920000</pproTicksOut>
						<alphatype>none</alphatype>
						<pixelaspectratio>square</pixelaspectratio>
						<anamorphic>FALSE</anamorphic>
						<file id="file-32">
							<name>Travis_Kelce_ANNOUNCE_WEDDING_DATE_with_Taylor_Swift_Why_He_was_Delaying_all_Along.mp4</name>
							<pathurl>file://localhost/Users/themalikano/Documents/VideoAutomation/premiere_videos/Travis_Kelce_ANNOUNCE_WEDDING_DATE_with_Taylor_Swift_Why_He_was_Delaying_all_Along.mp4</pathurl>
							<rate>
								<timebase>24</timebase>
								<ntsc>FALSE</ntsc>
							</rate>
							<duration>39627</duration>
							<timecode>
								<rate>
									<timebase>24</timebase>
									<ntsc>FALSE</ntsc>
								</rate>
								<string>00:00:00:00</string>
								<frame>0</frame>
								<displayformat>NDF</displayformat>
							</timecode>
							<media>
								<video>
									<samplecharacteristics>
										<rate>
											<timebase>24</timebase>
											<ntsc>FALSE</ntsc>
										</rate>
										<width>852</width>
										<height>480</height>
										<anamorphic>FALSE</anamorphic>
										<pixelaspectratio>square</pixelaspectratio>
										<fielddominance>none</fielddominance>
									</samplecharacteristics>
								</video>
								<audio>
									<samplecharacteristics>
										<depth>16</depth>
										<samplerate>44100</samplerate>
									</samplecharacteristics>
									<channelcount>2</channelcount>
								</audio>
							</media>
						</file>
						<filter>
							<effect>
								<name>Basic Motion</name>
								<effectid>basic</effectid>
								<effectcategory>motion</effectcategory>
								<effecttype>motion</effecttype>
								<mediatype>video</mediatype>
								<pproBypass>false</pproBypass>
								<parameter authoringApp="PremierePro">
									<parameterid>scale</parameterid>
									<name>Scale</name>
									<valuemin>0</valuemin>
									<valuemax>1000</valuemax>
									<value>225</value>
								</parameter>
								<parameter authoringApp="PremierePro">
									<parameterid>rotation</parameterid>
									<name>Rotation</name>
									<valuemin>-8640</valuemin>
									<valuemax>8640</valuemax>
									<value>0</value>
								</parameter>
								<parameter authoringApp="PremierePro">
									<parameterid>center</parameterid>
									<name>Center</name>
									<value>
										<horiz>0</horiz>
										<vert>0</vert>
									</value>
								</parameter>
								<parameter authoringApp="PremierePro">
									<parameterid>centerOffset</parameterid>
									<name>Anchor Point</name>
									<value>
										<horiz>0</horiz>
										<vert>0</vert>
									</value>
								</parameter>
								<parameter authoringApp="PremierePro">
									<parameterid>antiflicker</parameterid>
									<name>Anti-flicker Filter</name>
									<valuemin>0.0</valuemin>
									<valuemax>1.0</valuemax>
									<value>0</value>
								</parameter>
							</effect>
						</filter>
						<link>
							<linkclipref>clipitem-88</linkclipref>
							<mediatype>video</mediatype>
							<trackindex>1</trackindex>
							<clipindex>4</clipindex>
						</link>
						<link>
							<linkclipref>clipitem-96</linkclipref>
							<mediatype>audio</mediatype>
							<trackindex>1</trackindex>
							<clipindex>4</clipindex>
							<groupindex>1</groupindex>
						</link>
						<link>
							<linkclipref>clipitem-104</linkclipref>
							<mediatype>audio</mediatype>
							<trackindex>2</trackindex>
							<clipindex>4</clipindex>
							<groupindex>1</groupindex>
						</link>
						<logginginfo>
							<description />
							<scene />
							<shottake />
							<lognote />
							<good />
							<originalvideofilename />
							<originalaudiofilename />
						</logginginfo>
						<colorinfo>
							<lut />
							<lut1 />
							<asc_sop />
							<asc_sat />
							<lut2 />
						</colorinfo>
					<labels><label2>Lavender</label2></labels></clipitem>
					<clipitem id="clipitem-90">
						<masterclipid>clipitem-6-75</masterclipid>
						<name>Travis_Kelce_talks_about_postponing_his_wedding_to_Fiance_Taylor_Swift_on_the_New_Heights_Podcast.mp4</name>
						<enabled>TRUE</enabled>
						<duration>150</duration>
						<rate>
							<timebase>25</timebase>
							<ntsc>FALSE</ntsc>
						</rate>
						<start>28800</start>
						<end>28950</end>
						<in>11100</in>
						<out>11250</out>
						<pproTicksIn>0</pproTicksIn>
						<pproTicksOut>149391889920000</pproTicksOut>
						<alphatype>none</alphatype>
						<pixelaspectratio>square</pixelaspectratio>
						<anamorphic>FALSE</anamorphic>
						<file id="file-34">
							<name>Travis_Kelce_talks_about_postponing_his_wedding_to_Fiance_Taylor_Swift_on_the_New_Heights_Podcast.mp4</name>
							<pathurl>file://localhost/Users/themalikano/Documents/VideoAutomation/premiere_videos/Travis_Kelce_talks_about_postponing_his_wedding_to_Fiance_Taylor_Swift_on_the_New_Heights_Podcast.mp4</pathurl>
							<rate>
								<timebase>30</timebase>
								<ntsc>FALSE</ntsc>
							</rate>
							<duration>17644</duration>
							<timecode>
								<rate>
									<timebase>30</timebase>
									<ntsc>FALSE</ntsc>
								</rate>
								<string>00:00:00:00</string>
								<frame>0</frame>
								<displayformat>NDF</displayformat>
							</timecode>
							<media>
								<video>
									<samplecharacteristics>
										<rate>
											<timebase>30</timebase>
											<ntsc>FALSE</ntsc>
										</rate>
										<width>1920</width>
										<height>1080</height>
										<anamorphic>FALSE</anamorphic>
										<pixelaspectratio>square</pixelaspectratio>
										<fielddominance>none</fielddominance>
									</samplecharacteristics>
								</video>
								<audio>
									<samplecharacteristics>
										<depth>16</depth>
										<samplerate>44100</samplerate>
									</samplecharacteristics>
									<channelcount>2</channelcount>
								</audio>
							</media>
						</file>
						<link>
							<linkclipref>clipitem-90</linkclipref>
							<mediatype>video</mediatype>
							<trackindex>1</trackindex>
							<clipindex>6</clipindex>
						</link>
						<link>
							<linkclipref>clipitem-98</linkclipref>
							<mediatype>audio</mediatype>
							<trackindex>1</trackindex>
							<clipindex>6</clipindex>
							<groupindex>1</groupindex>
						</link>
						<link>
							<linkclipref>clipitem-106</linkclipref>
							<mediatype>audio</mediatype>
							<trackindex>2</trackindex>
							<clipindex>6</clipindex>
							<groupindex>1</groupindex>
						</link>
						<logginginfo>
							<description />
							<scene />
							<shottake />
							<lognote />
							<good />
							<originalvideofilename />
							<originalaudiofilename />
						</logginginfo>
						<colorinfo>
							<lut />
							<lut1 />
							<asc_sop />
							<asc_sat />
							<lut2 />
						</colorinfo>
					<labels><label2>Forest</label2></labels></clipitem>
					<clipitem id="clipitem-86">
						<masterclipid>clipitem-2-88</masterclipid>
						<name>Taylor_Swift_Shares_The_Story_Of_Calling_Travis_Kelce_For_The_First_Time.mp4</name>
						<enabled>TRUE</enabled>
						<duration>150</duration>
						<rate>
							<timebase>25</timebase>
							<ntsc>FALSE</ntsc>
						</rate>
						<start>28950</start>
						<end>29100</end>
						<in>13050</in>
						<out>13200</out>
						<pproTicksIn>0</pproTicksIn>
						<pproTicksOut>236438092800000</pproTicksOut>
						<alphatype>none</alphatype>
						<pixelaspectratio>square</pixelaspectratio>
						<anamorphic>FALSE</anamorphic>
						<file id="file-30">
							<name>Taylor_Swift_Shares_The_Story_Of_Calling_Travis_Kelce_For_The_First_Time.mp4</name>
							<pathurl>file://localhost/Users/themalikano/Documents/VideoAutomation/premiere_videos/Taylor_Swift_Shares_The_Story_Of_Calling_Travis_Kelce_For_The_First_Time.mp4</pathurl>
							<rate>
								<timebase>30</timebase>
								<ntsc>TRUE</ntsc>
							</rate>
							<duration>27897</duration>
							<timecode>
								<rate>
									<timebase>30</timebase>
									<ntsc>TRUE</ntsc>
								</rate>
								<string>00:00:00:00</string>
								<frame>0</frame>
								<displayformat>NDF</displayformat>
							</timecode>
							<media>
								<video>
									<samplecharacteristics>
										<rate>
											<timebase>30</timebase>
											<ntsc>TRUE</ntsc>
										</rate>
										<width>1920</width>
										<height>1080</height>
										<anamorphic>FALSE</anamorphic>
										<pixelaspectratio>square</pixelaspectratio>
										<fielddominance>none</fielddominance>
									</samplecharacteristics>
								</video>
								<audio>
									<samplecharacteristics>
										<depth>16</depth>
										<samplerate>44100</samplerate>
									</samplecharacteristics>
									<channelcount>2</channelcount>
								</audio>
							</media>
						</file>
						<link>
							<linkclipref>clipitem-86</linkclipref>
							<mediatype>video</mediatype>
							<trackindex>1</trackindex>
							<clipindex>2</clipindex>
						</link>
						<link>
							<linkclipref>clipitem-94</linkclipref>
							<mediatype>audio</mediatype>
							<trackindex>1</trackindex>
							<clipindex>2</clipindex>
							<groupindex>1</groupindex>
						</link>
						<link>
							<linkclipref>clipitem-102</linkclipref>
							<mediatype>audio</mediatype>
							<trackindex>2</trackindex>
							<clipindex>2</clipindex>
							<groupindex>1</groupindex>
						</link>
						<logginginfo>
							<description />
							<scene />
							<shottake />
							<lognote />
							<good />
							<originalvideofilename />
							<originalaudiofilename />
						</logginginfo>
						<colorinfo>
							<lut />
							<lut1 />
							<asc_sop />
							<asc_sat />
							<lut2 />
						</colorinfo>
					<labels><label2>Iris</label2></labels></clipitem>
					<clipitem id="clipitem-91">
						<masterclipid>clipitem-7-11</masterclipid>
						<name>What_Caused_Taylor_Swift-Blake_Lively_Rift_The_View.mp4</name>
						<enabled>TRUE</enabled>
						<duration>150</duration>
						<rate>
							<timebase>25</timebase>
							<ntsc>FALSE</ntsc>
						</rate>
						<start>29100</start>
						<end>29250</end>
						<in>1500</in>
						<out>1650</out>
						<pproTicksIn>0</pproTicksIn>
						<pproTicksOut>45733040640000</pproTicksOut>
						<alphatype>none</alphatype>
						<pixelaspectratio>square</pixelaspectratio>
						<anamorphic>FALSE</anamorphic>
						<file id="file-35">
							<name>What_Caused_Taylor_Swift-Blake_Lively_Rift_The_View.mp4</name>
							<pathurl>file://localhost/Users/themalikano/Documents/VideoAutomation/premiere_videos/What_Caused_Taylor_Swift-Blake_Lively_Rift_The_View.mp4</pathurl>
							<rate>
								<timebase>30</timebase>
								<ntsc>TRUE</ntsc>
							</rate>
							<duration>5397</duration>
							<timecode>
								<rate>
									<timebase>30</timebase>
									<ntsc>TRUE</ntsc>
								</rate>
								<string>00:00:00:00</string>
								<frame>0</frame>
								<displayformat>NDF</displayformat>
							</timecode>
							<media>
								<video>
									<samplecharacteristics>
										<rate>
											<timebase>30</timebase>
											<ntsc>TRUE</ntsc>
										</rate>
										<width>1280</width>
										<height>720</height>
										<anamorphic>FALSE</anamorphic>
										<pixelaspectratio>square</pixelaspectratio>
										<fielddominance>none</fielddominance>
									</samplecharacteristics>
								</video>
								<audio>
									<samplecharacteristics>
										<depth>16</depth>
										<samplerate>44100</samplerate>
									</samplecharacteristics>
									<channelcount>2</channelcount>
								</audio>
							</media>
						</file>
						<filter>
							<effect>
								<name>Basic Motion</name>
								<effectid>basic</effectid>
								<effectcategory>motion</effectcategory>
								<effecttype>motion</effecttype>
								<mediatype>video</mediatype>
								<pproBypass>false</pproBypass>
								<parameter authoringApp="PremierePro">
									<parameterid>scale</parameterid>
									<name>Scale</name>
									<valuemin>0</valuemin>
									<valuemax>1000</valuemax>
									<value>150</value>
								</parameter>
								<parameter authoringApp="PremierePro">
									<parameterid>rotation</parameterid>
									<name>Rotation</name>
									<valuemin>-8640</valuemin>
									<valuemax>8640</valuemax>
									<value>0</value>
								</parameter>
								<parameter authoringApp="PremierePro">
									<parameterid>center</parameterid>
									<name>Center</name>
									<value>
										<horiz>0</horiz>
										<vert>0</vert>
									</value>
								</parameter>
								<parameter authoringApp="PremierePro">
									<parameterid>centerOffset</parameterid>
									<name>Anchor Point</name>
									<value>
										<horiz>0</horiz>
										<vert>0</vert>
									</value>
								</parameter>
								<parameter authoringApp="PremierePro">
									<parameterid>antiflicker</parameterid>
									<name>Anti-flicker Filter</name>
									<valuemin>0.0</valuemin>
									<valuemax>1.0</valuemax>
									<value>0</value>
								</parameter>
							</effect>
						</filter>
						<link>
							<linkclipref>clipitem-91</linkclipref>
							<mediatype>video</mediatype>
							<trackindex>1</trackindex>
							<clipindex>7</clipindex>
						</link>
						<link>
							<linkclipref>clipitem-99</linkclipref>
							<mediatype>audio</mediatype>
							<trackindex>1</trackindex>
							<clipindex>7</clipindex>
							<groupindex>1</groupindex>
						</link>
						<link>
							<linkclipref>clipitem-107</linkclipref>
							<mediatype>audio</mediatype>
							<trackindex>2</trackindex>
							<clipindex>7</clipindex>
							<groupindex>1</groupindex>
						</link>
						<logginginfo>
							<description />
							<scene />
							<shottake />
							<lognote />
							<good />
							<originalvideofilename />
							<originalaudiofilename />
						</logginginfo>
						<colorinfo>
							<lut />
							<lut1 />
							<asc_sop />
							<asc_sat />
							<lut2 />
						</colorinfo>
					<labels><label2>Rose</label2></labels></clipitem>
					<clipitem id="clipitem-86">
						<masterclipid>clipitem-2-104</masterclipid>
						<name>Taylor_Swift_Shares_The_Story_Of_Calling_Travis_Kelce_For_The_First_Time.mp4</name>
						<enabled>TRUE</enabled>
						<duration>150</duration>
						<rate>
							<timebase>25</timebase>
							<ntsc>FALSE</ntsc>
						</rate>
						<start>29250</start>
						<end>29400</end>
						<in>15450</in>
						<out>15600</out>
						<pproTicksIn>0</pproTicksIn>
						<pproTicksOut>236438092800000</pproTicksOut>
						<alphatype>none</alphatype>
						<pixelaspectratio>square</pixelaspectratio>
						<anamorphic>FALSE</anamorphic>
						<file id="file-30">
							<name>Taylor_Swift_Shares_The_Story_Of_Calling_Travis_Kelce_For_The_First_Time.mp4</name>
							<pathurl>file://localhost/Users/themalikano/Documents/VideoAutomation/premiere_videos/Taylor_Swift_Shares_The_Story_Of_Calling_Travis_Kelce_For_The_First_Time.mp4</pathurl>
							<rate>
								<timebase>30</timebase>
								<ntsc>TRUE</ntsc>
							</rate>
							<duration>27897</duration>
							<timecode>
								<rate>
									<timebase>30</timebase>
									<ntsc>TRUE</ntsc>
								</rate>
								<string>00:00:00:00</string>
								<frame>0</frame>
								<displayformat>NDF</displayformat>
							</timecode>
							<media>
								<video>
									<samplecharacteristics>
										<rate>
											<timebase>30</timebase>
											<ntsc>TRUE</ntsc>
										</rate>
										<width>1920</width>
										<height>1080</height>
										<anamorphic>FALSE</anamorphic>
										<pixelaspectratio>square</pixelaspectratio>
										<fielddominance>none</fielddominance>
									</samplecharacteristics>
								</video>
								<audio>
									<samplecharacteristics>
										<depth>16</depth>
										<samplerate>44100</samplerate>
									</samplecharacteristics>
									<channelcount>2</channelcount>
								</audio>
							</media>
						</file>
						<link>
							<linkclipref>clipitem-86</linkclipref>
							<mediatype>video</mediatype>
							<trackindex>1</trackindex>
							<clipindex>2</clipindex>
						</link>
						<link>
							<linkclipref>clipitem-94</linkclipref>
							<mediatype>audio</mediatype>
							<trackindex>1</trackindex>
							<clipindex>2</clipindex>
							<groupindex>1</groupindex>
						</link>
						<link>
							<linkclipref>clipitem-102</linkclipref>
							<mediatype>audio</mediatype>
							<trackindex>2</trackindex>
							<clipindex>2</clipindex>
							<groupindex>1</groupindex>
						</link>
						<logginginfo>
							<description />
							<scene />
							<shottake />
							<lognote />
							<good />
							<originalvideofilename />
							<originalaudiofilename />
						</logginginfo>
						<colorinfo>
							<lut />
							<lut1 />
							<asc_sop />
							<asc_sat />
							<lut2 />
						</colorinfo>
					<labels><label2>Iris</label2></labels></clipitem>
					<clipitem id="clipitem-91">
						<masterclipid>clipitem-7-2</masterclipid>
						<name>What_Caused_Taylor_Swift-Blake_Lively_Rift_The_View.mp4</name>
						<enabled>TRUE</enabled>
						<duration>150</duration>
						<rate>
							<timebase>25</timebase>
							<ntsc>FALSE</ntsc>
						</rate>
						<start>29400</start>
						<end>29550</end>
						<in>150</in>
						<out>300</out>
						<pproTicksIn>0</pproTicksIn>
						<pproTicksOut>45733040640000</pproTicksOut>
						<alphatype>none</alphatype>
						<pixelaspectratio>square</pixelaspectratio>
						<anamorphic>FALSE</anamorphic>
						<file id="file-35">
							<name>What_Caused_Taylor_Swift-Blake_Lively_Rift_The_View.mp4</name>
							<pathurl>file://localhost/Users/themalikano/Documents/VideoAutomation/premiere_videos/What_Caused_Taylor_Swift-Blake_Lively_Rift_The_View.mp4</pathurl>
							<rate>
								<timebase>30</timebase>
								<ntsc>TRUE</ntsc>
							</rate>
							<duration>5397</duration>
							<timecode>
								<rate>
									<timebase>30</timebase>
									<ntsc>TRUE</ntsc>
								</rate>
								<string>00:00:00:00</string>
								<frame>0</frame>
								<displayformat>NDF</displayformat>
							</timecode>
							<media>
								<video>
									<samplecharacteristics>
										<rate>
											<timebase>30</timebase>
											<ntsc>TRUE</ntsc>
										</rate>
										<width>1280</width>
										<height>720</height>
										<anamorphic>FALSE</anamorphic>
										<pixelaspectratio>square</pixelaspectratio>
										<fielddominance>none</fielddominance>
									</samplecharacteristics>
								</video>
								<audio>
									<samplecharacteristics>
										<depth>16</depth>
										<samplerate>44100</samplerate>
									</samplecharacteristics>
									<channelcount>2</channelcount>
								</audio>
							</media>
						</file>
						<filter>
							<effect>
								<name>Basic Motion</name>
								<effectid>basic</effectid>
								<effectcategory>motion</effectcategory>
								<effecttype>motion</effecttype>
								<mediatype>video</mediatype>
								<pproBypass>false</pproBypass>
								<parameter authoringApp="PremierePro">
									<parameterid>scale</parameterid>
									<name>Scale</name>
									<valuemin>0</valuemin>
									<valuemax>1000</valuemax>
									<value>150</value>
								</parameter>
								<parameter authoringApp="PremierePro">
									<parameterid>rotation</parameterid>
									<name>Rotation</name>
									<valuemin>-8640</valuemin>
									<valuemax>8640</valuemax>
									<value>0</value>
								</parameter>
								<parameter authoringApp="PremierePro">
									<parameterid>center</parameterid>
									<name>Center</name>
									<value>
										<horiz>0</horiz>
										<vert>0</vert>
									</value>
								</parameter>
								<parameter authoringApp="PremierePro">
									<parameterid>centerOffset</parameterid>
									<name>Anchor Point</name>
									<value>
										<horiz>0</horiz>
										<vert>0</vert>
									</value>
								</parameter>
								<parameter authoringApp="PremierePro">
									<parameterid>antiflicker</parameterid>
									<name>Anti-flicker Filter</name>
									<valuemin>0.0</valuemin>
									<valuemax>1.0</valuemax>
									<value>0</value>
								</parameter>
							</effect>
						</filter>
						<link>
							<linkclipref>clipitem-91</linkclipref>
							<mediatype>video</mediatype>
							<trackindex>1</trackindex>
							<clipindex>7</clipindex>
						</link>
						<link>
							<linkclipref>clipitem-99</linkclipref>
							<mediatype>audio</mediatype>
							<trackindex>1</trackindex>
							<clipindex>7</clipindex>
							<groupindex>1</groupindex>
						</link>
						<link>
							<linkclipref>clipitem-107</linkclipref>
							<mediatype>audio</mediatype>
							<trackindex>2</trackindex>
							<clipindex>7</clipindex>
							<groupindex>1</groupindex>
						</link>
						<logginginfo>
							<description />
							<scene />
							<shottake />
							<lognote />
							<good />
							<originalvideofilename />
							<originalaudiofilename />
						</logginginfo>
						<colorinfo>
							<lut />
							<lut1 />
							<asc_sop />
							<asc_sat />
							<lut2 />
						</colorinfo>
					<labels><label2>Rose</label2></labels></clipitem>
					<clipitem id="clipitem-87">
						<masterclipid>clipitem-3-77</masterclipid>
						<name>Taylor_Swift_Travis_Kelce_-_The_New_Power_Couple.mp4</name>
						<enabled>TRUE</enabled>
						<duration>150</duration>
						<rate>
							<timebase>25</timebase>
							<ntsc>FALSE</ntsc>
						</rate>
						<start>29550</start>
						<end>29700</end>
						<in>11400</in>
						<out>11550</out>
						<pproTicksIn>0</pproTicksIn>
						<pproTicksOut>875013995520000</pproTicksOut>
						<alphatype>none</alphatype>
						<pixelaspectratio>square</pixelaspectratio>
						<anamorphic>FALSE</anamorphic>
						<file id="file-31">
							<name>Taylor_Swift_Travis_Kelce_-_The_New_Power_Couple.mp4</name>
							<pathurl>file://localhost/Users/themalikano/Documents/VideoAutomation/premiere_videos/Taylor_Swift_Travis_Kelce_-_The_New_Power_Couple.mp4</pathurl>
							<rate>
								<timebase>25</timebase>
								<ntsc>FALSE</ntsc>
							</rate>
							<duration>86118</duration>
							<timecode>
								<rate>
									<timebase>25</timebase>
									<ntsc>FALSE</ntsc>
								</rate>
								<string>00:00:00:00</string>
								<frame>0</frame>
								<displayformat>NDF</displayformat>
							</timecode>
							<media>
								<video>
									<samplecharacteristics>
										<rate>
											<timebase>25</timebase>
											<ntsc>FALSE</ntsc>
										</rate>
										<width>1920</width>
										<height>1080</height>
										<anamorphic>FALSE</anamorphic>
										<pixelaspectratio>square</pixelaspectratio>
										<fielddominance>none</fielddominance>
									</samplecharacteristics>
								</video>
								<audio>
									<samplecharacteristics>
										<depth>16</depth>
										<samplerate>44100</samplerate>
									</samplecharacteristics>
									<channelcount>2</channelcount>
								</audio>
							</media>
						</file>
						<link>
							<linkclipref>clipitem-87</linkclipref>
							<mediatype>video</mediatype>
							<trackindex>1</trackindex>
							<clipindex>3</clipindex>
						</link>
						<link>
							<linkclipref>clipitem-95</linkclipref>
							<mediatype>audio</mediatype>
							<trackindex>1</trackindex>
							<clipindex>3</clipindex>
							<groupindex>1</groupindex>
						</link>
						<link>
							<linkclipref>clipitem-103</linkclipref>
							<mediatype>audio</mediatype>
							<trackindex>2</trackindex>
							<clipindex>3</clipindex>
							<groupindex>1</groupindex>
						</link>
						<logginginfo>
							<description />
							<scene />
							<shottake />
							<lognote />
							<good />
							<originalvideofilename />
							<originalaudiofilename />
						</logginginfo>
						<colorinfo>
							<lut />
							<lut1 />
							<asc_sop />
							<asc_sat />
							<lut2 />
						</colorinfo>
					<labels><label2>Caribbean</label2></labels></clipitem>
					<clipitem id="clipitem-91">
						<masterclipid>clipitem-7-30</masterclipid>
						<name>What_Caused_Taylor_Swift-Blake_Lively_Rift_The_View.mp4</name>
						<enabled>TRUE</enabled>
						<duration>150</duration>
						<rate>
							<timebase>25</timebase>
							<ntsc>FALSE</ntsc>
						</rate>
						<start>29700</start>
						<end>29850</end>
						<in>4350</in>
						<out>4500</out>
						<pproTicksIn>0</pproTicksIn>
						<pproTicksOut>45733040640000</pproTicksOut>
						<alphatype>none</alphatype>
						<pixelaspectratio>square</pixelaspectratio>
						<anamorphic>FALSE</anamorphic>
						<file id="file-35">
							<name>What_Caused_Taylor_Swift-Blake_Lively_Rift_The_View.mp4</name>
							<pathurl>file://localhost/Users/themalikano/Documents/VideoAutomation/premiere_videos/What_Caused_Taylor_Swift-Blake_Lively_Rift_The_View.mp4</pathurl>
							<rate>
								<timebase>30</timebase>
								<ntsc>TRUE</ntsc>
							</rate>
							<duration>5397</duration>
							<timecode>
								<rate>
									<timebase>30</timebase>
									<ntsc>TRUE</ntsc>
								</rate>
								<string>00:00:00:00</string>
								<frame>0</frame>
								<displayformat>NDF</displayformat>
							</timecode>
							<media>
								<video>
									<samplecharacteristics>
										<rate>
											<timebase>30</timebase>
											<ntsc>TRUE</ntsc>
										</rate>
										<width>1280</width>
										<height>720</height>
										<anamorphic>FALSE</anamorphic>
										<pixelaspectratio>square</pixelaspectratio>
										<fielddominance>none</fielddominance>
									</samplecharacteristics>
								</video>
								<audio>
									<samplecharacteristics>
										<depth>16</depth>
										<samplerate>44100</samplerate>
									</samplecharacteristics>
									<channelcount>2</channelcount>
								</audio>
							</media>
						</file>
						<filter>
							<effect>
								<name>Basic Motion</name>
								<effectid>basic</effectid>
								<effectcategory>motion</effectcategory>
								<effecttype>motion</effecttype>
								<mediatype>video</mediatype>
								<pproBypass>false</pproBypass>
								<parameter authoringApp="PremierePro">
									<parameterid>scale</parameterid>
									<name>Scale</name>
									<valuemin>0</valuemin>
									<valuemax>1000</valuemax>
									<value>150</value>
								</parameter>
								<parameter authoringApp="PremierePro">
									<parameterid>rotation</parameterid>
									<name>Rotation</name>
									<valuemin>-8640</valuemin>
									<valuemax>8640</valuemax>
									<value>0</value>
								</parameter>
								<parameter authoringApp="PremierePro">
									<parameterid>center</parameterid>
									<name>Center</name>
									<value>
										<horiz>0</horiz>
										<vert>0</vert>
									</value>
								</parameter>
								<parameter authoringApp="PremierePro">
									<parameterid>centerOffset</parameterid>
									<name>Anchor Point</name>
									<value>
										<horiz>0</horiz>
										<vert>0</vert>
									</value>
								</parameter>
								<parameter authoringApp="PremierePro">
									<parameterid>antiflicker</parameterid>
									<name>Anti-flicker Filter</name>
									<valuemin>0.0</valuemin>
									<valuemax>1.0</valuemax>
									<value>0</value>
								</parameter>
							</effect>
						</filter>
						<link>
							<linkclipref>clipitem-91</linkclipref>
							<mediatype>video</mediatype>
							<trackindex>1</trackindex>
							<clipindex>7</clipindex>
						</link>
						<link>
							<linkclipref>clipitem-99</linkclipref>
							<mediatype>audio</mediatype>
							<trackindex>1</trackindex>
							<clipindex>7</clipindex>
							<groupindex>1</groupindex>
						</link>
						<link>
							<linkclipref>clipitem-107</linkclipref>
							<mediatype>audio</mediatype>
							<trackindex>2</trackindex>
							<clipindex>7</clipindex>
							<groupindex>1</groupindex>
						</link>
						<logginginfo>
							<description />
							<scene />
							<shottake />
							<lognote />
							<good />
							<originalvideofilename />
							<originalaudiofilename />
						</logginginfo>
						<colorinfo>
							<lut />
							<lut1 />
							<asc_sop />
							<asc_sat />
							<lut2 />
						</colorinfo>
					<labels><label2>Rose</label2></labels></clipitem>
					<clipitem id="clipitem-87">
						<masterclipid>clipitem-3-52</masterclipid>
						<name>Taylor_Swift_Travis_Kelce_-_The_New_Power_Couple.mp4</name>
						<enabled>TRUE</enabled>
						<duration>150</duration>
						<rate>
							<timebase>25</timebase>
							<ntsc>FALSE</ntsc>
						</rate>
						<start>29850</start>
						<end>30000</end>
						<in>7650</in>
						<out>7800</out>
						<pproTicksIn>0</pproTicksIn>
						<pproTicksOut>875013995520000</pproTicksOut>
						<alphatype>none</alphatype>
						<pixelaspectratio>square</pixelaspectratio>
						<anamorphic>FALSE</anamorphic>
						<file id="file-31">
							<name>Taylor_Swift_Travis_Kelce_-_The_New_Power_Couple.mp4</name>
							<pathurl>file://localhost/Users/themalikano/Documents/VideoAutomation/premiere_videos/Taylor_Swift_Travis_Kelce_-_The_New_Power_Couple.mp4</pathurl>
							<rate>
								<timebase>25</timebase>
								<ntsc>FALSE</ntsc>
							</rate>
							<duration>86118</duration>
							<timecode>
								<rate>
									<timebase>25</timebase>
									<ntsc>FALSE</ntsc>
								</rate>
								<string>00:00:00:00</string>
								<frame>0</frame>
								<displayformat>NDF</displayformat>
							</timecode>
							<media>
								<video>
									<samplecharacteristics>
										<rate>
											<timebase>25</timebase>
											<ntsc>FALSE</ntsc>
										</rate>
										<width>1920</width>
										<height>1080</height>
										<anamorphic>FALSE</anamorphic>
										<pixelaspectratio>square</pixelaspectratio>
										<fielddominance>none</fielddominance>
									</samplecharacteristics>
								</video>
								<audio>
									<samplecharacteristics>
										<depth>16</depth>
										<samplerate>44100</samplerate>
									</samplecharacteristics>
									<channelcount>2</channelcount>
								</audio>
							</media>
						</file>
						<link>
							<linkclipref>clipitem-87</linkclipref>
							<mediatype>video</mediatype>
							<trackindex>1</trackindex>
							<clipindex>3</clipindex>
						</link>
						<link>
							<linkclipref>clipitem-95</linkclipref>
							<mediatype>audio</mediatype>
							<trackindex>1</trackindex>
							<clipindex>3</clipindex>
							<groupindex>1</groupindex>
						</link>
						<link>
							<linkclipref>clipitem-103</linkclipref>
							<mediatype>audio</mediatype>
							<trackindex>2</trackindex>
							<clipindex>3</clipindex>
							<groupindex>1</groupindex>
						</link>
						<logginginfo>
							<description />
							<scene />
							<shottake />
							<lognote />
							<good />
							<originalvideofilename />
							<originalaudiofilename />
						</logginginfo>
						<colorinfo>
							<lut />
							<lut1 />
							<asc_sop />
							<asc_sat />
							<lut2 />
						</colorinfo>
					<labels><label2>Caribbean</label2></labels></clipitem>
					<clipitem id="clipitem-91">
						<masterclipid>clipitem-7-1</masterclipid>
						<name>What_Caused_Taylor_Swift-Blake_Lively_Rift_The_View.mp4</name>
						<enabled>TRUE</enabled>
						<duration>150</duration>
						<rate>
							<timebase>25</timebase>
							<ntsc>FALSE</ntsc>
						</rate>
						<start>30000</start>
						<end>30150</end>
						<in>0</in>
						<out>150</out>
						<pproTicksIn>0</pproTicksIn>
						<pproTicksOut>45733040640000</pproTicksOut>
						<alphatype>none</alphatype>
						<pixelaspectratio>square</pixelaspectratio>
						<anamorphic>FALSE</anamorphic>
						<file id="file-35">
							<name>What_Caused_Taylor_Swift-Blake_Lively_Rift_The_View.mp4</name>
							<pathurl>file://localhost/Users/themalikano/Documents/VideoAutomation/premiere_videos/What_Caused_Taylor_Swift-Blake_Lively_Rift_The_View.mp4</pathurl>
							<rate>
								<timebase>30</timebase>
								<ntsc>TRUE</ntsc>
							</rate>
							<duration>5397</duration>
							<timecode>
								<rate>
									<timebase>30</timebase>
									<ntsc>TRUE</ntsc>
								</rate>
								<string>00:00:00:00</string>
								<frame>0</frame>
								<displayformat>NDF</displayformat>
							</timecode>
							<media>
								<video>
									<samplecharacteristics>
										<rate>
											<timebase>30</timebase>
											<ntsc>TRUE</ntsc>
										</rate>
										<width>1280</width>
										<height>720</height>
										<anamorphic>FALSE</anamorphic>
										<pixelaspectratio>square</pixelaspectratio>
										<fielddominance>none</fielddominance>
									</samplecharacteristics>
								</video>
								<audio>
									<samplecharacteristics>
										<depth>16</depth>
										<samplerate>44100</samplerate>
									</samplecharacteristics>
									<channelcount>2</channelcount>
								</audio>
							</media>
						</file>
						<filter>
							<effect>
								<name>Basic Motion</name>
								<effectid>basic</effectid>
								<effectcategory>motion</effectcategory>
								<effecttype>motion</effecttype>
								<mediatype>video</mediatype>
								<pproBypass>false</pproBypass>
								<parameter authoringApp="PremierePro">
									<parameterid>scale</parameterid>
									<name>Scale</name>
									<valuemin>0</valuemin>
									<valuemax>1000</valuemax>
									<value>150</value>
								</parameter>
								<parameter authoringApp="PremierePro">
									<parameterid>rotation</parameterid>
									<name>Rotation</name>
									<valuemin>-8640</valuemin>
									<valuemax>8640</valuemax>
									<value>0</value>
								</parameter>
								<parameter authoringApp="PremierePro">
									<parameterid>center</parameterid>
									<name>Center</name>
									<value>
										<horiz>0</horiz>
										<vert>0</vert>
									</value>
								</parameter>
								<parameter authoringApp="PremierePro">
									<parameterid>centerOffset</parameterid>
									<name>Anchor Point</name>
									<value>
										<horiz>0</horiz>
										<vert>0</vert>
									</value>
								</parameter>
								<parameter authoringApp="PremierePro">
									<parameterid>antiflicker</parameterid>
									<name>Anti-flicker Filter</name>
									<valuemin>0.0</valuemin>
									<valuemax>1.0</valuemax>
									<value>0</value>
								</parameter>
							</effect>
						</filter>
						<link>
							<linkclipref>clipitem-91</linkclipref>
							<mediatype>video</mediatype>
							<trackindex>1</trackindex>
							<clipindex>7</clipindex>
						</link>
						<link>
							<linkclipref>clipitem-99</linkclipref>
							<mediatype>audio</mediatype>
							<trackindex>1</trackindex>
							<clipindex>7</clipindex>
							<groupindex>1</groupindex>
						</link>
						<link>
							<linkclipref>clipitem-107</linkclipref>
							<mediatype>audio</mediatype>
							<trackindex>2</trackindex>
							<clipindex>7</clipindex>
							<groupindex>1</groupindex>
						</link>
						<logginginfo>
							<description />
							<scene />
							<shottake />
							<lognote />
							<good />
							<originalvideofilename />
							<originalaudiofilename />
						</logginginfo>
						<colorinfo>
							<lut />
							<lut1 />
							<asc_sop />
							<asc_sat />
							<lut2 />
						</colorinfo>
					<labels><label2>Rose</label2></labels></clipitem>
					<clipitem id="clipitem-87">
						<masterclipid>clipitem-3-443</masterclipid>
						<name>Taylor_Swift_Travis_Kelce_-_The_New_Power_Couple.mp4</name>
						<enabled>TRUE</enabled>
						<duration>150</duration>
						<rate>
							<timebase>25</timebase>
							<ntsc>FALSE</ntsc>
						</rate>
						<start>30150</start>
						<end>30300</end>
						<in>66300</in>
						<out>66450</out>
						<pproTicksIn>0</pproTicksIn>
						<pproTicksOut>875013995520000</pproTicksOut>
						<alphatype>none</alphatype>
						<pixelaspectratio>square</pixelaspectratio>
						<anamorphic>FALSE</anamorphic>
						<file id="file-31">
							<name>Taylor_Swift_Travis_Kelce_-_The_New_Power_Couple.mp4</name>
							<pathurl>file://localhost/Users/themalikano/Documents/VideoAutomation/premiere_videos/Taylor_Swift_Travis_Kelce_-_The_New_Power_Couple.mp4</pathurl>
							<rate>
								<timebase>25</timebase>
								<ntsc>FALSE</ntsc>
							</rate>
							<duration>86118</duration>
							<timecode>
								<rate>
									<timebase>25</timebase>
									<ntsc>FALSE</ntsc>
								</rate>
								<string>00:00:00:00</string>
								<frame>0</frame>
								<displayformat>NDF</displayformat>
							</timecode>
							<media>
								<video>
									<samplecharacteristics>
										<rate>
											<timebase>25</timebase>
											<ntsc>FALSE</ntsc>
										</rate>
										<width>1920</width>
										<height>1080</height>
										<anamorphic>FALSE</anamorphic>
										<pixelaspectratio>square</pixelaspectratio>
										<fielddominance>none</fielddominance>
									</samplecharacteristics>
								</video>
								<audio>
									<samplecharacteristics>
										<depth>16</depth>
										<samplerate>44100</samplerate>
									</samplecharacteristics>
									<channelcount>2</channelcount>
								</audio>
							</media>
						</file>
						<link>
							<linkclipref>clipitem-87</linkclipref>
							<mediatype>video</mediatype>
							<trackindex>1</trackindex>
							<clipindex>3</clipindex>
						</link>
						<link>
							<linkclipref>clipitem-95</linkclipref>
							<mediatype>audio</mediatype>
							<trackindex>1</trackindex>
							<clipindex>3</clipindex>
							<groupindex>1</groupindex>
						</link>
						<link>
							<linkclipref>clipitem-103</linkclipref>
							<mediatype>audio</mediatype>
							<trackindex>2</trackindex>
							<clipindex>3</clipindex>
							<groupindex>1</groupindex>
						</link>
						<logginginfo>
							<description />
							<scene />
							<shottake />
							<lognote />
							<good />
							<originalvideofilename />
							<originalaudiofilename />
						</logginginfo>
						<colorinfo>
							<lut />
							<lut1 />
							<asc_sop />
							<asc_sat />
							<lut2 />
						</colorinfo>
					<labels><label2>Caribbean</label2></labels></clipitem>
					<clipitem id="clipitem-90">
						<masterclipid>clipitem-6-21</masterclipid>
						<name>Travis_Kelce_talks_about_postponing_his_wedding_to_Fiance_Taylor_Swift_on_the_New_Heights_Podcast.mp4</name>
						<enabled>TRUE</enabled>
						<duration>150</duration>
						<rate>
							<timebase>25</timebase>
							<ntsc>FALSE</ntsc>
						</rate>
						<start>30300</start>
						<end>30450</end>
						<in>3000</in>
						<out>3150</out>
						<pproTicksIn>0</pproTicksIn>
						<pproTicksOut>149391889920000</pproTicksOut>
						<alphatype>none</alphatype>
						<pixelaspectratio>square</pixelaspectratio>
						<anamorphic>FALSE</anamorphic>
						<file id="file-34">
							<name>Travis_Kelce_talks_about_postponing_his_wedding_to_Fiance_Taylor_Swift_on_the_New_Heights_Podcast.mp4</name>
							<pathurl>file://localhost/Users/themalikano/Documents/VideoAutomation/premiere_videos/Travis_Kelce_talks_about_postponing_his_wedding_to_Fiance_Taylor_Swift_on_the_New_Heights_Podcast.mp4</pathurl>
							<rate>
								<timebase>30</timebase>
								<ntsc>FALSE</ntsc>
							</rate>
							<duration>17644</duration>
							<timecode>
								<rate>
									<timebase>30</timebase>
									<ntsc>FALSE</ntsc>
								</rate>
								<string>00:00:00:00</string>
								<frame>0</frame>
								<displayformat>NDF</displayformat>
							</timecode>
							<media>
								<video>
									<samplecharacteristics>
										<rate>
											<timebase>30</timebase>
											<ntsc>FALSE</ntsc>
										</rate>
										<width>1920</width>
										<height>1080</height>
										<anamorphic>FALSE</anamorphic>
										<pixelaspectratio>square</pixelaspectratio>
										<fielddominance>none</fielddominance>
									</samplecharacteristics>
								</video>
								<audio>
									<samplecharacteristics>
										<depth>16</depth>
										<samplerate>44100</samplerate>
									</samplecharacteristics>
									<channelcount>2</channelcount>
								</audio>
							</media>
						</file>
						<link>
							<linkclipref>clipitem-90</linkclipref>
							<mediatype>video</mediatype>
							<trackindex>1</trackindex>
							<clipindex>6</clipindex>
						</link>
						<link>
							<linkclipref>clipitem-98</linkclipref>
							<mediatype>audio</mediatype>
							<trackindex>1</trackindex>
							<clipindex>6</clipindex>
							<groupindex>1</groupindex>
						</link>
						<link>
							<linkclipref>clipitem-106</linkclipref>
							<mediatype>audio</mediatype>
							<trackindex>2</trackindex>
							<clipindex>6</clipindex>
							<groupindex>1</groupindex>
						</link>
						<logginginfo>
							<description />
							<scene />
							<shottake />
							<lognote />
							<good />
							<originalvideofilename />
							<originalaudiofilename />
						</logginginfo>
						<colorinfo>
							<lut />
							<lut1 />
							<asc_sop />
							<asc_sat />
							<lut2 />
						</colorinfo>
					<labels><label2>Forest</label2></labels></clipitem>
					<clipitem id="clipitem-88">
						<masterclipid>clipitem-4-103</masterclipid>
						<name>Travis_Kelce_ANNOUNCE_WEDDING_DATE_with_Taylor_Swift_Why_He_was_Delaying_all_Along.mp4</name>
						<enabled>TRUE</enabled>
						<duration>150</duration>
						<rate>
							<timebase>25</timebase>
							<ntsc>FALSE</ntsc>
						</rate>
						<start>30450</start>
						<end>30600</end>
						<in>15300</in>
						<out>15450</out>
						<pproTicksIn>0</pproTicksIn>
						<pproTicksOut>419410897920000</pproTicksOut>
						<alphatype>none</alphatype>
						<pixelaspectratio>square</pixelaspectratio>
						<anamorphic>FALSE</anamorphic>
						<file id="file-32">
							<name>Travis_Kelce_ANNOUNCE_WEDDING_DATE_with_Taylor_Swift_Why_He_was_Delaying_all_Along.mp4</name>
							<pathurl>file://localhost/Users/themalikano/Documents/VideoAutomation/premiere_videos/Travis_Kelce_ANNOUNCE_WEDDING_DATE_with_Taylor_Swift_Why_He_was_Delaying_all_Along.mp4</pathurl>
							<rate>
								<timebase>24</timebase>
								<ntsc>FALSE</ntsc>
							</rate>
							<duration>39627</duration>
							<timecode>
								<rate>
									<timebase>24</timebase>
									<ntsc>FALSE</ntsc>
								</rate>
								<string>00:00:00:00</string>
								<frame>0</frame>
								<displayformat>NDF</displayformat>
							</timecode>
							<media>
								<video>
									<samplecharacteristics>
										<rate>
											<timebase>24</timebase>
											<ntsc>FALSE</ntsc>
										</rate>
										<width>852</width>
										<height>480</height>
										<anamorphic>FALSE</anamorphic>
										<pixelaspectratio>square</pixelaspectratio>
										<fielddominance>none</fielddominance>
									</samplecharacteristics>
								</video>
								<audio>
									<samplecharacteristics>
										<depth>16</depth>
										<samplerate>44100</samplerate>
									</samplecharacteristics>
									<channelcount>2</channelcount>
								</audio>
							</media>
						</file>
						<filter>
							<effect>
								<name>Basic Motion</name>
								<effectid>basic</effectid>
								<effectcategory>motion</effectcategory>
								<effecttype>motion</effecttype>
								<mediatype>video</mediatype>
								<pproBypass>false</pproBypass>
								<parameter authoringApp="PremierePro">
									<parameterid>scale</parameterid>
									<name>Scale</name>
									<valuemin>0</valuemin>
									<valuemax>1000</valuemax>
									<value>225</value>
								</parameter>
								<parameter authoringApp="PremierePro">
									<parameterid>rotation</parameterid>
									<name>Rotation</name>
									<valuemin>-8640</valuemin>
									<valuemax>8640</valuemax>
									<value>0</value>
								</parameter>
								<parameter authoringApp="PremierePro">
									<parameterid>center</parameterid>
									<name>Center</name>
									<value>
										<horiz>0</horiz>
										<vert>0</vert>
									</value>
								</parameter>
								<parameter authoringApp="PremierePro">
									<parameterid>centerOffset</parameterid>
									<name>Anchor Point</name>
									<value>
										<horiz>0</horiz>
										<vert>0</vert>
									</value>
								</parameter>
								<parameter authoringApp="PremierePro">
									<parameterid>antiflicker</parameterid>
									<name>Anti-flicker Filter</name>
									<valuemin>0.0</valuemin>
									<valuemax>1.0</valuemax>
									<value>0</value>
								</parameter>
							</effect>
						</filter>
						<link>
							<linkclipref>clipitem-88</linkclipref>
							<mediatype>video</mediatype>
							<trackindex>1</trackindex>
							<clipindex>4</clipindex>
						</link>
						<link>
							<linkclipref>clipitem-96</linkclipref>
							<mediatype>audio</mediatype>
							<trackindex>1</trackindex>
							<clipindex>4</clipindex>
							<groupindex>1</groupindex>
						</link>
						<link>
							<linkclipref>clipitem-104</linkclipref>
							<mediatype>audio</mediatype>
							<trackindex>2</trackindex>
							<clipindex>4</clipindex>
							<groupindex>1</groupindex>
						</link>
						<logginginfo>
							<description />
							<scene />
							<shottake />
							<lognote />
							<good />
							<originalvideofilename />
							<originalaudiofilename />
						</logginginfo>
						<colorinfo>
							<lut />
							<lut1 />
							<asc_sop />
							<asc_sat />
							<lut2 />
						</colorinfo>
					<labels><label2>Lavender</label2></labels></clipitem>
					<clipitem id="clipitem-87">
						<masterclipid>clipitem-3-35</masterclipid>
						<name>Taylor_Swift_Travis_Kelce_-_The_New_Power_Couple.mp4</name>
						<enabled>TRUE</enabled>
						<duration>150</duration>
						<rate>
							<timebase>25</timebase>
							<ntsc>FALSE</ntsc>
						</rate>
						<start>30600</start>
						<end>30750</end>
						<in>5100</in>
						<out>5250</out>
						<pproTicksIn>0</pproTicksIn>
						<pproTicksOut>875013995520000</pproTicksOut>
						<alphatype>none</alphatype>
						<pixelaspectratio>square</pixelaspectratio>
						<anamorphic>FALSE</anamorphic>
						<file id="file-31">
							<name>Taylor_Swift_Travis_Kelce_-_The_New_Power_Couple.mp4</name>
							<pathurl>file://localhost/Users/themalikano/Documents/VideoAutomation/premiere_videos/Taylor_Swift_Travis_Kelce_-_The_New_Power_Couple.mp4</pathurl>
							<rate>
								<timebase>25</timebase>
								<ntsc>FALSE</ntsc>
							</rate>
							<duration>86118</duration>
							<timecode>
								<rate>
									<timebase>25</timebase>
									<ntsc>FALSE</ntsc>
								</rate>
								<string>00:00:00:00</string>
								<frame>0</frame>
								<displayformat>NDF</displayformat>
							</timecode>
							<media>
								<video>
									<samplecharacteristics>
										<rate>
											<timebase>25</timebase>
											<ntsc>FALSE</ntsc>
										</rate>
										<width>1920</width>
										<height>1080</height>
										<anamorphic>FALSE</anamorphic>
										<pixelaspectratio>square</pixelaspectratio>
										<fielddominance>none</fielddominance>
									</samplecharacteristics>
								</video>
								<audio>
									<samplecharacteristics>
										<depth>16</depth>
										<samplerate>44100</samplerate>
									</samplecharacteristics>
									<channelcount>2</channelcount>
								</audio>
							</media>
						</file>
						<link>
							<linkclipref>clipitem-87</linkclipref>
							<mediatype>video</mediatype>
							<trackindex>1</trackindex>
							<clipindex>3</clipindex>
						</link>
						<link>
							<linkclipref>clipitem-95</linkclipref>
							<mediatype>audio</mediatype>
							<trackindex>1</trackindex>
							<clipindex>3</clipindex>
							<groupindex>1</groupindex>
						</link>
						<link>
							<linkclipref>clipitem-103</linkclipref>
							<mediatype>audio</mediatype>
							<trackindex>2</trackindex>
							<clipindex>3</clipindex>
							<groupindex>1</groupindex>
						</link>
						<logginginfo>
							<description />
							<scene />
							<shottake />
							<lognote />
							<good />
							<originalvideofilename />
							<originalaudiofilename />
						</logginginfo>
						<colorinfo>
							<lut />
							<lut1 />
							<asc_sop />
							<asc_sat />
							<lut2 />
						</colorinfo>
					<labels><label2>Caribbean</label2></labels></clipitem>
					<clipitem id="clipitem-91">
						<masterclipid>clipitem-7-20</masterclipid>
						<name>What_Caused_Taylor_Swift-Blake_Lively_Rift_The_View.mp4</name>
						<enabled>TRUE</enabled>
						<duration>150</duration>
						<rate>
							<timebase>25</timebase>
							<ntsc>FALSE</ntsc>
						</rate>
						<start>30750</start>
						<end>30900</end>
						<in>2850</in>
						<out>3000</out>
						<pproTicksIn>0</pproTicksIn>
						<pproTicksOut>45733040640000</pproTicksOut>
						<alphatype>none</alphatype>
						<pixelaspectratio>square</pixelaspectratio>
						<anamorphic>FALSE</anamorphic>
						<file id="file-35">
							<name>What_Caused_Taylor_Swift-Blake_Lively_Rift_The_View.mp4</name>
							<pathurl>file://localhost/Users/themalikano/Documents/VideoAutomation/premiere_videos/What_Caused_Taylor_Swift-Blake_Lively_Rift_The_View.mp4</pathurl>
							<rate>
								<timebase>30</timebase>
								<ntsc>TRUE</ntsc>
							</rate>
							<duration>5397</duration>
							<timecode>
								<rate>
									<timebase>30</timebase>
									<ntsc>TRUE</ntsc>
								</rate>
								<string>00:00:00:00</string>
								<frame>0</frame>
								<displayformat>NDF</displayformat>
							</timecode>
							<media>
								<video>
									<samplecharacteristics>
										<rate>
											<timebase>30</timebase>
											<ntsc>TRUE</ntsc>
										</rate>
										<width>1280</width>
										<height>720</height>
										<anamorphic>FALSE</anamorphic>
										<pixelaspectratio>square</pixelaspectratio>
										<fielddominance>none</fielddominance>
									</samplecharacteristics>
								</video>
								<audio>
									<samplecharacteristics>
										<depth>16</depth>
										<samplerate>44100</samplerate>
									</samplecharacteristics>
									<channelcount>2</channelcount>
								</audio>
							</media>
						</file>
						<filter>
							<effect>
								<name>Basic Motion</name>
								<effectid>basic</effectid>
								<effectcategory>motion</effectcategory>
								<effecttype>motion</effecttype>
								<mediatype>video</mediatype>
								<pproBypass>false</pproBypass>
								<parameter authoringApp="PremierePro">
									<parameterid>scale</parameterid>
									<name>Scale</name>
									<valuemin>0</valuemin>
									<valuemax>1000</valuemax>
									<value>150</value>
								</parameter>
								<parameter authoringApp="PremierePro">
									<parameterid>rotation</parameterid>
									<name>Rotation</name>
									<valuemin>-8640</valuemin>
									<valuemax>8640</valuemax>
									<value>0</value>
								</parameter>
								<parameter authoringApp="PremierePro">
									<parameterid>center</parameterid>
									<name>Center</name>
									<value>
										<horiz>0</horiz>
										<vert>0</vert>
									</value>
								</parameter>
								<parameter authoringApp="PremierePro">
									<parameterid>centerOffset</parameterid>
									<name>Anchor Point</name>
									<value>
										<horiz>0</horiz>
										<vert>0</vert>
									</value>
								</parameter>
								<parameter authoringApp="PremierePro">
									<parameterid>antiflicker</parameterid>
									<name>Anti-flicker Filter</name>
									<valuemin>0.0</valuemin>
									<valuemax>1.0</valuemax>
									<value>0</value>
								</parameter>
							</effect>
						</filter>
						<link>
							<linkclipref>clipitem-91</linkclipref>
							<mediatype>video</mediatype>
							<trackindex>1</trackindex>
							<clipindex>7</clipindex>
						</link>
						<link>
							<linkclipref>clipitem-99</linkclipref>
							<mediatype>audio</mediatype>
							<trackindex>1</trackindex>
							<clipindex>7</clipindex>
							<groupindex>1</groupindex>
						</link>
						<link>
							<linkclipref>clipitem-107</linkclipref>
							<mediatype>audio</mediatype>
							<trackindex>2</trackindex>
							<clipindex>7</clipindex>
							<groupindex>1</groupindex>
						</link>
						<logginginfo>
							<description />
							<scene />
							<shottake />
							<lognote />
							<good />
							<originalvideofilename />
							<originalaudiofilename />
						</logginginfo>
						<colorinfo>
							<lut />
							<lut1 />
							<asc_sop />
							<asc_sat />
							<lut2 />
						</colorinfo>
					<labels><label2>Rose</label2></labels></clipitem>
					<clipitem id="clipitem-86">
						<masterclipid>clipitem-2-18</masterclipid>
						<name>Taylor_Swift_Shares_The_Story_Of_Calling_Travis_Kelce_For_The_First_Time.mp4</name>
						<enabled>TRUE</enabled>
						<duration>150</duration>
						<rate>
							<timebase>25</timebase>
							<ntsc>FALSE</ntsc>
						</rate>
						<start>30900</start>
						<end>31050</end>
						<in>2550</in>
						<out>2700</out>
						<pproTicksIn>0</pproTicksIn>
						<pproTicksOut>236438092800000</pproTicksOut>
						<alphatype>none</alphatype>
						<pixelaspectratio>square</pixelaspectratio>
						<anamorphic>FALSE</anamorphic>
						<file id="file-30">
							<name>Taylor_Swift_Shares_The_Story_Of_Calling_Travis_Kelce_For_The_First_Time.mp4</name>
							<pathurl>file://localhost/Users/themalikano/Documents/VideoAutomation/premiere_videos/Taylor_Swift_Shares_The_Story_Of_Calling_Travis_Kelce_For_The_First_Time.mp4</pathurl>
							<rate>
								<timebase>30</timebase>
								<ntsc>TRUE</ntsc>
							</rate>
							<duration>27897</duration>
							<timecode>
								<rate>
									<timebase>30</timebase>
									<ntsc>TRUE</ntsc>
								</rate>
								<string>00:00:00:00</string>
								<frame>0</frame>
								<displayformat>NDF</displayformat>
							</timecode>
							<media>
								<video>
									<samplecharacteristics>
										<rate>
											<timebase>30</timebase>
											<ntsc>TRUE</ntsc>
										</rate>
										<width>1920</width>
										<height>1080</height>
										<anamorphic>FALSE</anamorphic>
										<pixelaspectratio>square</pixelaspectratio>
										<fielddominance>none</fielddominance>
									</samplecharacteristics>
								</video>
								<audio>
									<samplecharacteristics>
										<depth>16</depth>
										<samplerate>44100</samplerate>
									</samplecharacteristics>
									<channelcount>2</channelcount>
								</audio>
							</media>
						</file>
						<link>
							<linkclipref>clipitem-86</linkclipref>
							<mediatype>video</mediatype>
							<trackindex>1</trackindex>
							<clipindex>2</clipindex>
						</link>
						<link>
							<linkclipref>clipitem-94</linkclipref>
							<mediatype>audio</mediatype>
							<trackindex>1</trackindex>
							<clipindex>2</clipindex>
							<groupindex>1</groupindex>
						</link>
						<link>
							<linkclipref>clipitem-102</linkclipref>
							<mediatype>audio</mediatype>
							<trackindex>2</trackindex>
							<clipindex>2</clipindex>
							<groupindex>1</groupindex>
						</link>
						<logginginfo>
							<description />
							<scene />
							<shottake />
							<lognote />
							<good />
							<originalvideofilename />
							<originalaudiofilename />
						</logginginfo>
						<colorinfo>
							<lut />
							<lut1 />
							<asc_sop />
							<asc_sat />
							<lut2 />
						</colorinfo>
					<labels><label2>Iris</label2></labels></clipitem>
					<clipitem id="clipitem-88">
						<masterclipid>clipitem-4-145</masterclipid>
						<name>Travis_Kelce_ANNOUNCE_WEDDING_DATE_with_Taylor_Swift_Why_He_was_Delaying_all_Along.mp4</name>
						<enabled>TRUE</enabled>
						<duration>150</duration>
						<rate>
							<timebase>25</timebase>
							<ntsc>FALSE</ntsc>
						</rate>
						<start>31050</start>
						<end>31200</end>
						<in>21600</in>
						<out>21750</out>
						<pproTicksIn>0</pproTicksIn>
						<pproTicksOut>419410897920000</pproTicksOut>
						<alphatype>none</alphatype>
						<pixelaspectratio>square</pixelaspectratio>
						<anamorphic>FALSE</anamorphic>
						<file id="file-32">
							<name>Travis_Kelce_ANNOUNCE_WEDDING_DATE_with_Taylor_Swift_Why_He_was_Delaying_all_Along.mp4</name>
							<pathurl>file://localhost/Users/themalikano/Documents/VideoAutomation/premiere_videos/Travis_Kelce_ANNOUNCE_WEDDING_DATE_with_Taylor_Swift_Why_He_was_Delaying_all_Along.mp4</pathurl>
							<rate>
								<timebase>24</timebase>
								<ntsc>FALSE</ntsc>
							</rate>
							<duration>39627</duration>
							<timecode>
								<rate>
									<timebase>24</timebase>
									<ntsc>FALSE</ntsc>
								</rate>
								<string>00:00:00:00</string>
								<frame>0</frame>
								<displayformat>NDF</displayformat>
							</timecode>
							<media>
								<video>
									<samplecharacteristics>
										<rate>
											<timebase>24</timebase>
											<ntsc>FALSE</ntsc>
										</rate>
										<width>852</width>
										<height>480</height>
										<anamorphic>FALSE</anamorphic>
										<pixelaspectratio>square</pixelaspectratio>
										<fielddominance>none</fielddominance>
									</samplecharacteristics>
								</video>
								<audio>
									<samplecharacteristics>
										<depth>16</depth>
										<samplerate>44100</samplerate>
									</samplecharacteristics>
									<channelcount>2</channelcount>
								</audio>
							</media>
						</file>
						<filter>
							<effect>
								<name>Basic Motion</name>
								<effectid>basic</effectid>
								<effectcategory>motion</effectcategory>
								<effecttype>motion</effecttype>
								<mediatype>video</mediatype>
								<pproBypass>false</pproBypass>
								<parameter authoringApp="PremierePro">
									<parameterid>scale</parameterid>
									<name>Scale</name>
									<valuemin>0</valuemin>
									<valuemax>1000</valuemax>
									<value>225</value>
								</parameter>
								<parameter authoringApp="PremierePro">
									<parameterid>rotation</parameterid>
									<name>Rotation</name>
									<valuemin>-8640</valuemin>
									<valuemax>8640</valuemax>
									<value>0</value>
								</parameter>
								<parameter authoringApp="PremierePro">
									<parameterid>center</parameterid>
									<name>Center</name>
									<value>
										<horiz>0</horiz>
										<vert>0</vert>
									</value>
								</parameter>
								<parameter authoringApp="PremierePro">
									<parameterid>centerOffset</parameterid>
									<name>Anchor Point</name>
									<value>
										<horiz>0</horiz>
										<vert>0</vert>
									</value>
								</parameter>
								<parameter authoringApp="PremierePro">
									<parameterid>antiflicker</parameterid>
									<name>Anti-flicker Filter</name>
									<valuemin>0.0</valuemin>
									<valuemax>1.0</valuemax>
									<value>0</value>
								</parameter>
							</effect>
						</filter>
						<link>
							<linkclipref>clipitem-88</linkclipref>
							<mediatype>video</mediatype>
							<trackindex>1</trackindex>
							<clipindex>4</clipindex>
						</link>
						<link>
							<linkclipref>clipitem-96</linkclipref>
							<mediatype>audio</mediatype>
							<trackindex>1</trackindex>
							<clipindex>4</clipindex>
							<groupindex>1</groupindex>
						</link>
						<link>
							<linkclipref>clipitem-104</linkclipref>
							<mediatype>audio</mediatype>
							<trackindex>2</trackindex>
							<clipindex>4</clipindex>
							<groupindex>1</groupindex>
						</link>
						<logginginfo>
							<description />
							<scene />
							<shottake />
							<lognote />
							<good />
							<originalvideofilename />
							<originalaudiofilename />
						</logginginfo>
						<colorinfo>
							<lut />
							<lut1 />
							<asc_sop />
							<asc_sat />
							<lut2 />
						</colorinfo>
					<labels><label2>Lavender</label2></labels></clipitem>
					<clipitem id="clipitem-86">
						<masterclipid>clipitem-2-99</masterclipid>
						<name>Taylor_Swift_Shares_The_Story_Of_Calling_Travis_Kelce_For_The_First_Time.mp4</name>
						<enabled>TRUE</enabled>
						<duration>150</duration>
						<rate>
							<timebase>25</timebase>
							<ntsc>FALSE</ntsc>
						</rate>
						<start>31200</start>
						<end>31350</end>
						<in>14700</in>
						<out>14850</out>
						<pproTicksIn>0</pproTicksIn>
						<pproTicksOut>236438092800000</pproTicksOut>
						<alphatype>none</alphatype>
						<pixelaspectratio>square</pixelaspectratio>
						<anamorphic>FALSE</anamorphic>
						<file id="file-30">
							<name>Taylor_Swift_Shares_The_Story_Of_Calling_Travis_Kelce_For_The_First_Time.mp4</name>
							<pathurl>file://localhost/Users/themalikano/Documents/VideoAutomation/premiere_videos/Taylor_Swift_Shares_The_Story_Of_Calling_Travis_Kelce_For_The_First_Time.mp4</pathurl>
							<rate>
								<timebase>30</timebase>
								<ntsc>TRUE</ntsc>
							</rate>
							<duration>27897</duration>
							<timecode>
								<rate>
									<timebase>30</timebase>
									<ntsc>TRUE</ntsc>
								</rate>
								<string>00:00:00:00</string>
								<frame>0</frame>
								<displayformat>NDF</displayformat>
							</timecode>
							<media>
								<video>
									<samplecharacteristics>
										<rate>
											<timebase>30</timebase>
											<ntsc>TRUE</ntsc>
										</rate>
										<width>1920</width>
										<height>1080</height>
										<anamorphic>FALSE</anamorphic>
										<pixelaspectratio>square</pixelaspectratio>
										<fielddominance>none</fielddominance>
									</samplecharacteristics>
								</video>
								<audio>
									<samplecharacteristics>
										<depth>16</depth>
										<samplerate>44100</samplerate>
									</samplecharacteristics>
									<channelcount>2</channelcount>
								</audio>
							</media>
						</file>
						<link>
							<linkclipref>clipitem-86</linkclipref>
							<mediatype>video</mediatype>
							<trackindex>1</trackindex>
							<clipindex>2</clipindex>
						</link>
						<link>
							<linkclipref>clipitem-94</linkclipref>
							<mediatype>audio</mediatype>
							<trackindex>1</trackindex>
							<clipindex>2</clipindex>
							<groupindex>1</groupindex>
						</link>
						<link>
							<linkclipref>clipitem-102</linkclipref>
							<mediatype>audio</mediatype>
							<trackindex>2</trackindex>
							<clipindex>2</clipindex>
							<groupindex>1</groupindex>
						</link>
						<logginginfo>
							<description />
							<scene />
							<shottake />
							<lognote />
							<good />
							<originalvideofilename />
							<originalaudiofilename />
						</logginginfo>
						<colorinfo>
							<lut />
							<lut1 />
							<asc_sop />
							<asc_sat />
							<lut2 />
						</colorinfo>
					<labels><label2>Iris</label2></labels></clipitem>
					<clipitem id="clipitem-88">
						<masterclipid>clipitem-4-180</masterclipid>
						<name>Travis_Kelce_ANNOUNCE_WEDDING_DATE_with_Taylor_Swift_Why_He_was_Delaying_all_Along.mp4</name>
						<enabled>TRUE</enabled>
						<duration>150</duration>
						<rate>
							<timebase>25</timebase>
							<ntsc>FALSE</ntsc>
						</rate>
						<start>31350</start>
						<end>31500</end>
						<in>26850</in>
						<out>27000</out>
						<pproTicksIn>0</pproTicksIn>
						<pproTicksOut>419410897920000</pproTicksOut>
						<alphatype>none</alphatype>
						<pixelaspectratio>square</pixelaspectratio>
						<anamorphic>FALSE</anamorphic>
						<file id="file-32">
							<name>Travis_Kelce_ANNOUNCE_WEDDING_DATE_with_Taylor_Swift_Why_He_was_Delaying_all_Along.mp4</name>
							<pathurl>file://localhost/Users/themalikano/Documents/VideoAutomation/premiere_videos/Travis_Kelce_ANNOUNCE_WEDDING_DATE_with_Taylor_Swift_Why_He_was_Delaying_all_Along.mp4</pathurl>
							<rate>
								<timebase>24</timebase>
								<ntsc>FALSE</ntsc>
							</rate>
							<duration>39627</duration>
							<timecode>
								<rate>
									<timebase>24</timebase>
									<ntsc>FALSE</ntsc>
								</rate>
								<string>00:00:00:00</string>
								<frame>0</frame>
								<displayformat>NDF</displayformat>
							</timecode>
							<media>
								<video>
									<samplecharacteristics>
										<rate>
											<timebase>24</timebase>
											<ntsc>FALSE</ntsc>
										</rate>
										<width>852</width>
										<height>480</height>
										<anamorphic>FALSE</anamorphic>
										<pixelaspectratio>square</pixelaspectratio>
										<fielddominance>none</fielddominance>
									</samplecharacteristics>
								</video>
								<audio>
									<samplecharacteristics>
										<depth>16</depth>
										<samplerate>44100</samplerate>
									</samplecharacteristics>
									<channelcount>2</channelcount>
								</audio>
							</media>
						</file>
						<filter>
							<effect>
								<name>Basic Motion</name>
								<effectid>basic</effectid>
								<effectcategory>motion</effectcategory>
								<effecttype>motion</effecttype>
								<mediatype>video</mediatype>
								<pproBypass>false</pproBypass>
								<parameter authoringApp="PremierePro">
									<parameterid>scale</parameterid>
									<name>Scale</name>
									<valuemin>0</valuemin>
									<valuemax>1000</valuemax>
									<value>225</value>
								</parameter>
								<parameter authoringApp="PremierePro">
									<parameterid>rotation</parameterid>
									<name>Rotation</name>
									<valuemin>-8640</valuemin>
									<valuemax>8640</valuemax>
									<value>0</value>
								</parameter>
								<parameter authoringApp="PremierePro">
									<parameterid>center</parameterid>
									<name>Center</name>
									<value>
										<horiz>0</horiz>
										<vert>0</vert>
									</value>
								</parameter>
								<parameter authoringApp="PremierePro">
									<parameterid>centerOffset</parameterid>
									<name>Anchor Point</name>
									<value>
										<horiz>0</horiz>
										<vert>0</vert>
									</value>
								</parameter>
								<parameter authoringApp="PremierePro">
									<parameterid>antiflicker</parameterid>
									<name>Anti-flicker Filter</name>
									<valuemin>0.0</valuemin>
									<valuemax>1.0</valuemax>
									<value>0</value>
								</parameter>
							</effect>
						</filter>
						<link>
							<linkclipref>clipitem-88</linkclipref>
							<mediatype>video</mediatype>
							<trackindex>1</trackindex>
							<clipindex>4</clipindex>
						</link>
						<link>
							<linkclipref>clipitem-96</linkclipref>
							<mediatype>audio</mediatype>
							<trackindex>1</trackindex>
							<clipindex>4</clipindex>
							<groupindex>1</groupindex>
						</link>
						<link>
							<linkclipref>clipitem-104</linkclipref>
							<mediatype>audio</mediatype>
							<trackindex>2</trackindex>
							<clipindex>4</clipindex>
							<groupindex>1</groupindex>
						</link>
						<logginginfo>
							<description />
							<scene />
							<shottake />
							<lognote />
							<good />
							<originalvideofilename />
							<originalaudiofilename />
						</logginginfo>
						<colorinfo>
							<lut />
							<lut1 />
							<asc_sop />
							<asc_sat />
							<lut2 />
						</colorinfo>
					<labels><label2>Lavender</label2></labels></clipitem>
					<clipitem id="clipitem-87">
						<masterclipid>clipitem-3-410</masterclipid>
						<name>Taylor_Swift_Travis_Kelce_-_The_New_Power_Couple.mp4</name>
						<enabled>TRUE</enabled>
						<duration>150</duration>
						<rate>
							<timebase>25</timebase>
							<ntsc>FALSE</ntsc>
						</rate>
						<start>31500</start>
						<end>31650</end>
						<in>61350</in>
						<out>61500</out>
						<pproTicksIn>0</pproTicksIn>
						<pproTicksOut>875013995520000</pproTicksOut>
						<alphatype>none</alphatype>
						<pixelaspectratio>square</pixelaspectratio>
						<anamorphic>FALSE</anamorphic>
						<file id="file-31">
							<name>Taylor_Swift_Travis_Kelce_-_The_New_Power_Couple.mp4</name>
							<pathurl>file://localhost/Users/themalikano/Documents/VideoAutomation/premiere_videos/Taylor_Swift_Travis_Kelce_-_The_New_Power_Couple.mp4</pathurl>
							<rate>
								<timebase>25</timebase>
								<ntsc>FALSE</ntsc>
							</rate>
							<duration>86118</duration>
							<timecode>
								<rate>
									<timebase>25</timebase>
									<ntsc>FALSE</ntsc>
								</rate>
								<string>00:00:00:00</string>
								<frame>0</frame>
								<displayformat>NDF</displayformat>
							</timecode>
							<media>
								<video>
									<samplecharacteristics>
										<rate>
											<timebase>25</timebase>
											<ntsc>FALSE</ntsc>
										</rate>
										<width>1920</width>
										<height>1080</height>
										<anamorphic>FALSE</anamorphic>
										<pixelaspectratio>square</pixelaspectratio>
										<fielddominance>none</fielddominance>
									</samplecharacteristics>
								</video>
								<audio>
									<samplecharacteristics>
										<depth>16</depth>
										<samplerate>44100</samplerate>
									</samplecharacteristics>
									<channelcount>2</channelcount>
								</audio>
							</media>
						</file>
						<link>
							<linkclipref>clipitem-87</linkclipref>
							<mediatype>video</mediatype>
							<trackindex>1</trackindex>
							<clipindex>3</clipindex>
						</link>
						<link>
							<linkclipref>clipitem-95</linkclipref>
							<mediatype>audio</mediatype>
							<trackindex>1</trackindex>
							<clipindex>3</clipindex>
							<groupindex>1</groupindex>
						</link>
						<link>
							<linkclipref>clipitem-103</linkclipref>
							<mediatype>audio</mediatype>
							<trackindex>2</trackindex>
							<clipindex>3</clipindex>
							<groupindex>1</groupindex>
						</link>
						<logginginfo>
							<description />
							<scene />
							<shottake />
							<lognote />
							<good />
							<originalvideofilename />
							<originalaudiofilename />
						</logginginfo>
						<colorinfo>
							<lut />
							<lut1 />
							<asc_sop />
							<asc_sat />
							<lut2 />
						</colorinfo>
					<labels><label2>Caribbean</label2></labels></clipitem>
					<clipitem id="clipitem-88">
						<masterclipid>clipitem-4-266</masterclipid>
						<name>Travis_Kelce_ANNOUNCE_WEDDING_DATE_with_Taylor_Swift_Why_He_was_Delaying_all_Along.mp4</name>
						<enabled>TRUE</enabled>
						<duration>150</duration>
						<rate>
							<timebase>25</timebase>
							<ntsc>FALSE</ntsc>
						</rate>
						<start>31650</start>
						<end>31800</end>
						<in>39750</in>
						<out>39900</out>
						<pproTicksIn>0</pproTicksIn>
						<pproTicksOut>419410897920000</pproTicksOut>
						<alphatype>none</alphatype>
						<pixelaspectratio>square</pixelaspectratio>
						<anamorphic>FALSE</anamorphic>
						<file id="file-32">
							<name>Travis_Kelce_ANNOUNCE_WEDDING_DATE_with_Taylor_Swift_Why_He_was_Delaying_all_Along.mp4</name>
							<pathurl>file://localhost/Users/themalikano/Documents/VideoAutomation/premiere_videos/Travis_Kelce_ANNOUNCE_WEDDING_DATE_with_Taylor_Swift_Why_He_was_Delaying_all_Along.mp4</pathurl>
							<rate>
								<timebase>24</timebase>
								<ntsc>FALSE</ntsc>
							</rate>
							<duration>39627</duration>
							<timecode>
								<rate>
									<timebase>24</timebase>
									<ntsc>FALSE</ntsc>
								</rate>
								<string>00:00:00:00</string>
								<frame>0</frame>
								<displayformat>NDF</displayformat>
							</timecode>
							<media>
								<video>
									<samplecharacteristics>
										<rate>
											<timebase>24</timebase>
											<ntsc>FALSE</ntsc>
										</rate>
										<width>852</width>
										<height>480</height>
										<anamorphic>FALSE</anamorphic>
										<pixelaspectratio>square</pixelaspectratio>
										<fielddominance>none</fielddominance>
									</samplecharacteristics>
								</video>
								<audio>
									<samplecharacteristics>
										<depth>16</depth>
										<samplerate>44100</samplerate>
									</samplecharacteristics>
									<channelcount>2</channelcount>
								</audio>
							</media>
						</file>
						<filter>
							<effect>
								<name>Basic Motion</name>
								<effectid>basic</effectid>
								<effectcategory>motion</effectcategory>
								<effecttype>motion</effecttype>
								<mediatype>video</mediatype>
								<pproBypass>false</pproBypass>
								<parameter authoringApp="PremierePro">
									<parameterid>scale</parameterid>
									<name>Scale</name>
									<valuemin>0</valuemin>
									<valuemax>1000</valuemax>
									<value>225</value>
								</parameter>
								<parameter authoringApp="PremierePro">
									<parameterid>rotation</parameterid>
									<name>Rotation</name>
									<valuemin>-8640</valuemin>
									<valuemax>8640</valuemax>
									<value>0</value>
								</parameter>
								<parameter authoringApp="PremierePro">
									<parameterid>center</parameterid>
									<name>Center</name>
									<value>
										<horiz>0</horiz>
										<vert>0</vert>
									</value>
								</parameter>
								<parameter authoringApp="PremierePro">
									<parameterid>centerOffset</parameterid>
									<name>Anchor Point</name>
									<value>
										<horiz>0</horiz>
										<vert>0</vert>
									</value>
								</parameter>
								<parameter authoringApp="PremierePro">
									<parameterid>antiflicker</parameterid>
									<name>Anti-flicker Filter</name>
									<valuemin>0.0</valuemin>
									<valuemax>1.0</valuemax>
									<value>0</value>
								</parameter>
							</effect>
						</filter>
						<link>
							<linkclipref>clipitem-88</linkclipref>
							<mediatype>video</mediatype>
							<trackindex>1</trackindex>
							<clipindex>4</clipindex>
						</link>
						<link>
							<linkclipref>clipitem-96</linkclipref>
							<mediatype>audio</mediatype>
							<trackindex>1</trackindex>
							<clipindex>4</clipindex>
							<groupindex>1</groupindex>
						</link>
						<link>
							<linkclipref>clipitem-104</linkclipref>
							<mediatype>audio</mediatype>
							<trackindex>2</trackindex>
							<clipindex>4</clipindex>
							<groupindex>1</groupindex>
						</link>
						<logginginfo>
							<description />
							<scene />
							<shottake />
							<lognote />
							<good />
							<originalvideofilename />
							<originalaudiofilename />
						</logginginfo>
						<colorinfo>
							<lut />
							<lut1 />
							<asc_sop />
							<asc_sat />
							<lut2 />
						</colorinfo>
					<labels><label2>Lavender</label2></labels></clipitem>
					<clipitem id="clipitem-87">
						<masterclipid>clipitem-3-346</masterclipid>
						<name>Taylor_Swift_Travis_Kelce_-_The_New_Power_Couple.mp4</name>
						<enabled>TRUE</enabled>
						<duration>150</duration>
						<rate>
							<timebase>25</timebase>
							<ntsc>FALSE</ntsc>
						</rate>
						<start>31800</start>
						<end>31950</end>
						<in>51750</in>
						<out>51900</out>
						<pproTicksIn>0</pproTicksIn>
						<pproTicksOut>875013995520000</pproTicksOut>
						<alphatype>none</alphatype>
						<pixelaspectratio>square</pixelaspectratio>
						<anamorphic>FALSE</anamorphic>
						<file id="file-31">
							<name>Taylor_Swift_Travis_Kelce_-_The_New_Power_Couple.mp4</name>
							<pathurl>file://localhost/Users/themalikano/Documents/VideoAutomation/premiere_videos/Taylor_Swift_Travis_Kelce_-_The_New_Power_Couple.mp4</pathurl>
							<rate>
								<timebase>25</timebase>
								<ntsc>FALSE</ntsc>
							</rate>
							<duration>86118</duration>
							<timecode>
								<rate>
									<timebase>25</timebase>
									<ntsc>FALSE</ntsc>
								</rate>
								<string>00:00:00:00</string>
								<frame>0</frame>
								<displayformat>NDF</displayformat>
							</timecode>
							<media>
								<video>
									<samplecharacteristics>
										<rate>
											<timebase>25</timebase>
											<ntsc>FALSE</ntsc>
										</rate>
										<width>1920</width>
										<height>1080</height>
										<anamorphic>FALSE</anamorphic>
										<pixelaspectratio>square</pixelaspectratio>
										<fielddominance>none</fielddominance>
									</samplecharacteristics>
								</video>
								<audio>
									<samplecharacteristics>
										<depth>16</depth>
										<samplerate>44100</samplerate>
									</samplecharacteristics>
									<channelcount>2</channelcount>
								</audio>
							</media>
						</file>
						<link>
							<linkclipref>clipitem-87</linkclipref>
							<mediatype>video</mediatype>
							<trackindex>1</trackindex>
							<clipindex>3</clipindex>
						</link>
						<link>
							<linkclipref>clipitem-95</linkclipref>
							<mediatype>audio</mediatype>
							<trackindex>1</trackindex>
							<clipindex>3</clipindex>
							<groupindex>1</groupindex>
						</link>
						<link>
							<linkclipref>clipitem-103</linkclipref>
							<mediatype>audio</mediatype>
							<trackindex>2</trackindex>
							<clipindex>3</clipindex>
							<groupindex>1</groupindex>
						</link>
						<logginginfo>
							<description />
							<scene />
							<shottake />
							<lognote />
							<good />
							<originalvideofilename />
							<originalaudiofilename />
						</logginginfo>
						<colorinfo>
							<lut />
							<lut1 />
							<asc_sop />
							<asc_sat />
							<lut2 />
						</colorinfo>
					<labels><label2>Caribbean</label2></labels></clipitem>
					<clipitem id="clipitem-90">
						<masterclipid>clipitem-6-62</masterclipid>
						<name>Travis_Kelce_talks_about_postponing_his_wedding_to_Fiance_Taylor_Swift_on_the_New_Heights_Podcast.mp4</name>
						<enabled>TRUE</enabled>
						<duration>150</duration>
						<rate>
							<timebase>25</timebase>
							<ntsc>FALSE</ntsc>
						</rate>
						<start>31950</start>
						<end>32100</end>
						<in>9150</in>
						<out>9300</out>
						<pproTicksIn>0</pproTicksIn>
						<pproTicksOut>149391889920000</pproTicksOut>
						<alphatype>none</alphatype>
						<pixelaspectratio>square</pixelaspectratio>
						<anamorphic>FALSE</anamorphic>
						<file id="file-34">
							<name>Travis_Kelce_talks_about_postponing_his_wedding_to_Fiance_Taylor_Swift_on_the_New_Heights_Podcast.mp4</name>
							<pathurl>file://localhost/Users/themalikano/Documents/VideoAutomation/premiere_videos/Travis_Kelce_talks_about_postponing_his_wedding_to_Fiance_Taylor_Swift_on_the_New_Heights_Podcast.mp4</pathurl>
							<rate>
								<timebase>30</timebase>
								<ntsc>FALSE</ntsc>
							</rate>
							<duration>17644</duration>
							<timecode>
								<rate>
									<timebase>30</timebase>
									<ntsc>FALSE</ntsc>
								</rate>
								<string>00:00:00:00</string>
								<frame>0</frame>
								<displayformat>NDF</displayformat>
							</timecode>
							<media>
								<video>
									<samplecharacteristics>
										<rate>
											<timebase>30</timebase>
											<ntsc>FALSE</ntsc>
										</rate>
										<width>1920</width>
										<height>1080</height>
										<anamorphic>FALSE</anamorphic>
										<pixelaspectratio>square</pixelaspectratio>
										<fielddominance>none</fielddominance>
									</samplecharacteristics>
								</video>
								<audio>
									<samplecharacteristics>
										<depth>16</depth>
										<samplerate>44100</samplerate>
									</samplecharacteristics>
									<channelcount>2</channelcount>
								</audio>
							</media>
						</file>
						<link>
							<linkclipref>clipitem-90</linkclipref>
							<mediatype>video</mediatype>
							<trackindex>1</trackindex>
							<clipindex>6</clipindex>
						</link>
						<link>
							<linkclipref>clipitem-98</linkclipref>
							<mediatype>audio</mediatype>
							<trackindex>1</trackindex>
							<clipindex>6</clipindex>
							<groupindex>1</groupindex>
						</link>
						<link>
							<linkclipref>clipitem-106</linkclipref>
							<mediatype>audio</mediatype>
							<trackindex>2</trackindex>
							<clipindex>6</clipindex>
							<groupindex>1</groupindex>
						</link>
						<logginginfo>
							<description />
							<scene />
							<shottake />
							<lognote />
							<good />
							<originalvideofilename />
							<originalaudiofilename />
						</logginginfo>
						<colorinfo>
							<lut />
							<lut1 />
							<asc_sop />
							<asc_sat />
							<lut2 />
						</colorinfo>
					<labels><label2>Forest</label2></labels></clipitem>
					<clipitem id="clipitem-86">
						<masterclipid>clipitem-2-2</masterclipid>
						<name>Taylor_Swift_Shares_The_Story_Of_Calling_Travis_Kelce_For_The_First_Time.mp4</name>
						<enabled>TRUE</enabled>
						<duration>150</duration>
						<rate>
							<timebase>25</timebase>
							<ntsc>FALSE</ntsc>
						</rate>
						<start>32100</start>
						<end>32250</end>
						<in>150</in>
						<out>300</out>
						<pproTicksIn>0</pproTicksIn>
						<pproTicksOut>236438092800000</pproTicksOut>
						<alphatype>none</alphatype>
						<pixelaspectratio>square</pixelaspectratio>
						<anamorphic>FALSE</anamorphic>
						<file id="file-30">
							<name>Taylor_Swift_Shares_The_Story_Of_Calling_Travis_Kelce_For_The_First_Time.mp4</name>
							<pathurl>file://localhost/Users/themalikano/Documents/VideoAutomation/premiere_videos/Taylor_Swift_Shares_The_Story_Of_Calling_Travis_Kelce_For_The_First_Time.mp4</pathurl>
							<rate>
								<timebase>30</timebase>
								<ntsc>TRUE</ntsc>
							</rate>
							<duration>27897</duration>
							<timecode>
								<rate>
									<timebase>30</timebase>
									<ntsc>TRUE</ntsc>
								</rate>
								<string>00:00:00:00</string>
								<frame>0</frame>
								<displayformat>NDF</displayformat>
							</timecode>
							<media>
								<video>
									<samplecharacteristics>
										<rate>
											<timebase>30</timebase>
											<ntsc>TRUE</ntsc>
										</rate>
										<width>1920</width>
										<height>1080</height>
										<anamorphic>FALSE</anamorphic>
										<pixelaspectratio>square</pixelaspectratio>
										<fielddominance>none</fielddominance>
									</samplecharacteristics>
								</video>
								<audio>
									<samplecharacteristics>
										<depth>16</depth>
										<samplerate>44100</samplerate>
									</samplecharacteristics>
									<channelcount>2</channelcount>
								</audio>
							</media>
						</file>
						<link>
							<linkclipref>clipitem-86</linkclipref>
							<mediatype>video</mediatype>
							<trackindex>1</trackindex>
							<clipindex>2</clipindex>
						</link>
						<link>
							<linkclipref>clipitem-94</linkclipref>
							<mediatype>audio</mediatype>
							<trackindex>1</trackindex>
							<clipindex>2</clipindex>
							<groupindex>1</groupindex>
						</link>
						<link>
							<linkclipref>clipitem-102</linkclipref>
							<mediatype>audio</mediatype>
							<trackindex>2</trackindex>
							<clipindex>2</clipindex>
							<groupindex>1</groupindex>
						</link>
						<logginginfo>
							<description />
							<scene />
							<shottake />
							<lognote />
							<good />
							<originalvideofilename />
							<originalaudiofilename />
						</logginginfo>
						<colorinfo>
							<lut />
							<lut1 />
							<asc_sop />
							<asc_sat />
							<lut2 />
						</colorinfo>
					<labels><label2>Iris</label2></labels></clipitem>
					<clipitem id="clipitem-88">
						<masterclipid>clipitem-4-219</masterclipid>
						<name>Travis_Kelce_ANNOUNCE_WEDDING_DATE_with_Taylor_Swift_Why_He_was_Delaying_all_Along.mp4</name>
						<enabled>TRUE</enabled>
						<duration>150</duration>
						<rate>
							<timebase>25</timebase>
							<ntsc>FALSE</ntsc>
						</rate>
						<start>32250</start>
						<end>32400</end>
						<in>32700</in>
						<out>32850</out>
						<pproTicksIn>0</pproTicksIn>
						<pproTicksOut>419410897920000</pproTicksOut>
						<alphatype>none</alphatype>
						<pixelaspectratio>square</pixelaspectratio>
						<anamorphic>FALSE</anamorphic>
						<file id="file-32">
							<name>Travis_Kelce_ANNOUNCE_WEDDING_DATE_with_Taylor_Swift_Why_He_was_Delaying_all_Along.mp4</name>
							<pathurl>file://localhost/Users/themalikano/Documents/VideoAutomation/premiere_videos/Travis_Kelce_ANNOUNCE_WEDDING_DATE_with_Taylor_Swift_Why_He_was_Delaying_all_Along.mp4</pathurl>
							<rate>
								<timebase>24</timebase>
								<ntsc>FALSE</ntsc>
							</rate>
							<duration>39627</duration>
							<timecode>
								<rate>
									<timebase>24</timebase>
									<ntsc>FALSE</ntsc>
								</rate>
								<string>00:00:00:00</string>
								<frame>0</frame>
								<displayformat>NDF</displayformat>
							</timecode>
							<media>
								<video>
									<samplecharacteristics>
										<rate>
											<timebase>24</timebase>
											<ntsc>FALSE</ntsc>
										</rate>
										<width>852</width>
										<height>480</height>
										<anamorphic>FALSE</anamorphic>
										<pixelaspectratio>square</pixelaspectratio>
										<fielddominance>none</fielddominance>
									</samplecharacteristics>
								</video>
								<audio>
									<samplecharacteristics>
										<depth>16</depth>
										<samplerate>44100</samplerate>
									</samplecharacteristics>
									<channelcount>2</channelcount>
								</audio>
							</media>
						</file>
						<filter>
							<effect>
								<name>Basic Motion</name>
								<effectid>basic</effectid>
								<effectcategory>motion</effectcategory>
								<effecttype>motion</effecttype>
								<mediatype>video</mediatype>
								<pproBypass>false</pproBypass>
								<parameter authoringApp="PremierePro">
									<parameterid>scale</parameterid>
									<name>Scale</name>
									<valuemin>0</valuemin>
									<valuemax>1000</valuemax>
									<value>225</value>
								</parameter>
								<parameter authoringApp="PremierePro">
									<parameterid>rotation</parameterid>
									<name>Rotation</name>
									<valuemin>-8640</valuemin>
									<valuemax>8640</valuemax>
									<value>0</value>
								</parameter>
								<parameter authoringApp="PremierePro">
									<parameterid>center</parameterid>
									<name>Center</name>
									<value>
										<horiz>0</horiz>
										<vert>0</vert>
									</value>
								</parameter>
								<parameter authoringApp="PremierePro">
									<parameterid>centerOffset</parameterid>
									<name>Anchor Point</name>
									<value>
										<horiz>0</horiz>
										<vert>0</vert>
									</value>
								</parameter>
								<parameter authoringApp="PremierePro">
									<parameterid>antiflicker</parameterid>
									<name>Anti-flicker Filter</name>
									<valuemin>0.0</valuemin>
									<valuemax>1.0</valuemax>
									<value>0</value>
								</parameter>
							</effect>
						</filter>
						<link>
							<linkclipref>clipitem-88</linkclipref>
							<mediatype>video</mediatype>
							<trackindex>1</trackindex>
							<clipindex>4</clipindex>
						</link>
						<link>
							<linkclipref>clipitem-96</linkclipref>
							<mediatype>audio</mediatype>
							<trackindex>1</trackindex>
							<clipindex>4</clipindex>
							<groupindex>1</groupindex>
						</link>
						<link>
							<linkclipref>clipitem-104</linkclipref>
							<mediatype>audio</mediatype>
							<trackindex>2</trackindex>
							<clipindex>4</clipindex>
							<groupindex>1</groupindex>
						</link>
						<logginginfo>
							<description />
							<scene />
							<shottake />
							<lognote />
							<good />
							<originalvideofilename />
							<originalaudiofilename />
						</logginginfo>
						<colorinfo>
							<lut />
							<lut1 />
							<asc_sop />
							<asc_sat />
							<lut2 />
						</colorinfo>
					<labels><label2>Lavender</label2></labels></clipitem>
					<clipitem id="clipitem-86">
						<masterclipid>clipitem-2-98</masterclipid>
						<name>Taylor_Swift_Shares_The_Story_Of_Calling_Travis_Kelce_For_The_First_Time.mp4</name>
						<enabled>TRUE</enabled>
						<duration>150</duration>
						<rate>
							<timebase>25</timebase>
							<ntsc>FALSE</ntsc>
						</rate>
						<start>32400</start>
						<end>32550</end>
						<in>14550</in>
						<out>14700</out>
						<pproTicksIn>0</pproTicksIn>
						<pproTicksOut>236438092800000</pproTicksOut>
						<alphatype>none</alphatype>
						<pixelaspectratio>square</pixelaspectratio>
						<anamorphic>FALSE</anamorphic>
						<file id="file-30">
							<name>Taylor_Swift_Shares_The_Story_Of_Calling_Travis_Kelce_For_The_First_Time.mp4</name>
							<pathurl>file://localhost/Users/themalikano/Documents/VideoAutomation/premiere_videos/Taylor_Swift_Shares_The_Story_Of_Calling_Travis_Kelce_For_The_First_Time.mp4</pathurl>
							<rate>
								<timebase>30</timebase>
								<ntsc>TRUE</ntsc>
							</rate>
							<duration>27897</duration>
							<timecode>
								<rate>
									<timebase>30</timebase>
									<ntsc>TRUE</ntsc>
								</rate>
								<string>00:00:00:00</string>
								<frame>0</frame>
								<displayformat>NDF</displayformat>
							</timecode>
							<media>
								<video>
									<samplecharacteristics>
										<rate>
											<timebase>30</timebase>
											<ntsc>TRUE</ntsc>
										</rate>
										<width>1920</width>
										<height>1080</height>
										<anamorphic>FALSE</anamorphic>
										<pixelaspectratio>square</pixelaspectratio>
										<fielddominance>none</fielddominance>
									</samplecharacteristics>
								</video>
								<audio>
									<samplecharacteristics>
										<depth>16</depth>
										<samplerate>44100</samplerate>
									</samplecharacteristics>
									<channelcount>2</channelcount>
								</audio>
							</media>
						</file>
						<link>
							<linkclipref>clipitem-86</linkclipref>
							<mediatype>video</mediatype>
							<trackindex>1</trackindex>
							<clipindex>2</clipindex>
						</link>
						<link>
							<linkclipref>clipitem-94</linkclipref>
							<mediatype>audio</mediatype>
							<trackindex>1</trackindex>
							<clipindex>2</clipindex>
							<groupindex>1</groupindex>
						</link>
						<link>
							<linkclipref>clipitem-102</linkclipref>
							<mediatype>audio</mediatype>
							<trackindex>2</trackindex>
							<clipindex>2</clipindex>
							<groupindex>1</groupindex>
						</link>
						<logginginfo>
							<description />
							<scene />
							<shottake />
							<lognote />
							<good />
							<originalvideofilename />
							<originalaudiofilename />
						</logginginfo>
						<colorinfo>
							<lut />
							<lut1 />
							<asc_sop />
							<asc_sat />
							<lut2 />
						</colorinfo>
					<labels><label2>Iris</label2></labels></clipitem>
					<clipitem id="clipitem-88">
						<masterclipid>clipitem-4-43</masterclipid>
						<name>Travis_Kelce_ANNOUNCE_WEDDING_DATE_with_Taylor_Swift_Why_He_was_Delaying_all_Along.mp4</name>
						<enabled>TRUE</enabled>
						<duration>150</duration>
						<rate>
							<timebase>25</timebase>
							<ntsc>FALSE</ntsc>
						</rate>
						<start>32550</start>
						<end>32700</end>
						<in>6300</in>
						<out>6450</out>
						<pproTicksIn>0</pproTicksIn>
						<pproTicksOut>419410897920000</pproTicksOut>
						<alphatype>none</alphatype>
						<pixelaspectratio>square</pixelaspectratio>
						<anamorphic>FALSE</anamorphic>
						<file id="file-32">
							<name>Travis_Kelce_ANNOUNCE_WEDDING_DATE_with_Taylor_Swift_Why_He_was_Delaying_all_Along.mp4</name>
							<pathurl>file://localhost/Users/themalikano/Documents/VideoAutomation/premiere_videos/Travis_Kelce_ANNOUNCE_WEDDING_DATE_with_Taylor_Swift_Why_He_was_Delaying_all_Along.mp4</pathurl>
							<rate>
								<timebase>24</timebase>
								<ntsc>FALSE</ntsc>
							</rate>
							<duration>39627</duration>
							<timecode>
								<rate>
									<timebase>24</timebase>
									<ntsc>FALSE</ntsc>
								</rate>
								<string>00:00:00:00</string>
								<frame>0</frame>
								<displayformat>NDF</displayformat>
							</timecode>
							<media>
								<video>
									<samplecharacteristics>
										<rate>
											<timebase>24</timebase>
											<ntsc>FALSE</ntsc>
										</rate>
										<width>852</width>
										<height>480</height>
										<anamorphic>FALSE</anamorphic>
										<pixelaspectratio>square</pixelaspectratio>
										<fielddominance>none</fielddominance>
									</samplecharacteristics>
								</video>
								<audio>
									<samplecharacteristics>
										<depth>16</depth>
										<samplerate>44100</samplerate>
									</samplecharacteristics>
									<channelcount>2</channelcount>
								</audio>
							</media>
						</file>
						<filter>
							<effect>
								<name>Basic Motion</name>
								<effectid>basic</effectid>
								<effectcategory>motion</effectcategory>
								<effecttype>motion</effecttype>
								<mediatype>video</mediatype>
								<pproBypass>false</pproBypass>
								<parameter authoringApp="PremierePro">
									<parameterid>scale</parameterid>
									<name>Scale</name>
									<valuemin>0</valuemin>
									<valuemax>1000</valuemax>
									<value>225</value>
								</parameter>
								<parameter authoringApp="PremierePro">
									<parameterid>rotation</parameterid>
									<name>Rotation</name>
									<valuemin>-8640</valuemin>
									<valuemax>8640</valuemax>
									<value>0</value>
								</parameter>
								<parameter authoringApp="PremierePro">
									<parameterid>center</parameterid>
									<name>Center</name>
									<value>
										<horiz>0</horiz>
										<vert>0</vert>
									</value>
								</parameter>
								<parameter authoringApp="PremierePro">
									<parameterid>centerOffset</parameterid>
									<name>Anchor Point</name>
									<value>
										<horiz>0</horiz>
										<vert>0</vert>
									</value>
								</parameter>
								<parameter authoringApp="PremierePro">
									<parameterid>antiflicker</parameterid>
									<name>Anti-flicker Filter</name>
									<valuemin>0.0</valuemin>
									<valuemax>1.0</valuemax>
									<value>0</value>
								</parameter>
							</effect>
						</filter>
						<link>
							<linkclipref>clipitem-88</linkclipref>
							<mediatype>video</mediatype>
							<trackindex>1</trackindex>
							<clipindex>4</clipindex>
						</link>
						<link>
							<linkclipref>clipitem-96</linkclipref>
							<mediatype>audio</mediatype>
							<trackindex>1</trackindex>
							<clipindex>4</clipindex>
							<groupindex>1</groupindex>
						</link>
						<link>
							<linkclipref>clipitem-104</linkclipref>
							<mediatype>audio</mediatype>
							<trackindex>2</trackindex>
							<clipindex>4</clipindex>
							<groupindex>1</groupindex>
						</link>
						<logginginfo>
							<description />
							<scene />
							<shottake />
							<lognote />
							<good />
							<originalvideofilename />
							<originalaudiofilename />
						</logginginfo>
						<colorinfo>
							<lut />
							<lut1 />
							<asc_sop />
							<asc_sat />
							<lut2 />
						</colorinfo>
					<labels><label2>Lavender</label2></labels></clipitem>
					<clipitem id="clipitem-90">
						<masterclipid>clipitem-6-36</masterclipid>
						<name>Travis_Kelce_talks_about_postponing_his_wedding_to_Fiance_Taylor_Swift_on_the_New_Heights_Podcast.mp4</name>
						<enabled>TRUE</enabled>
						<duration>150</duration>
						<rate>
							<timebase>25</timebase>
							<ntsc>FALSE</ntsc>
						</rate>
						<start>32700</start>
						<end>32850</end>
						<in>5250</in>
						<out>5400</out>
						<pproTicksIn>0</pproTicksIn>
						<pproTicksOut>149391889920000</pproTicksOut>
						<alphatype>none</alphatype>
						<pixelaspectratio>square</pixelaspectratio>
						<anamorphic>FALSE</anamorphic>
						<file id="file-34">
							<name>Travis_Kelce_talks_about_postponing_his_wedding_to_Fiance_Taylor_Swift_on_the_New_Heights_Podcast.mp4</name>
							<pathurl>file://localhost/Users/themalikano/Documents/VideoAutomation/premiere_videos/Travis_Kelce_talks_about_postponing_his_wedding_to_Fiance_Taylor_Swift_on_the_New_Heights_Podcast.mp4</pathurl>
							<rate>
								<timebase>30</timebase>
								<ntsc>FALSE</ntsc>
							</rate>
							<duration>17644</duration>
							<timecode>
								<rate>
									<timebase>30</timebase>
									<ntsc>FALSE</ntsc>
								</rate>
								<string>00:00:00:00</string>
								<frame>0</frame>
								<displayformat>NDF</displayformat>
							</timecode>
							<media>
								<video>
									<samplecharacteristics>
										<rate>
											<timebase>30</timebase>
											<ntsc>FALSE</ntsc>
										</rate>
										<width>1920</width>
										<height>1080</height>
										<anamorphic>FALSE</anamorphic>
										<pixelaspectratio>square</pixelaspectratio>
										<fielddominance>none</fielddominance>
									</samplecharacteristics>
								</video>
								<audio>
									<samplecharacteristics>
										<depth>16</depth>
										<samplerate>44100</samplerate>
									</samplecharacteristics>
									<channelcount>2</channelcount>
								</audio>
							</media>
						</file>
						<link>
							<linkclipref>clipitem-90</linkclipref>
							<mediatype>video</mediatype>
							<trackindex>1</trackindex>
							<clipindex>6</clipindex>
						</link>
						<link>
							<linkclipref>clipitem-98</linkclipref>
							<mediatype>audio</mediatype>
							<trackindex>1</trackindex>
							<clipindex>6</clipindex>
							<groupindex>1</groupindex>
						</link>
						<link>
							<linkclipref>clipitem-106</linkclipref>
							<mediatype>audio</mediatype>
							<trackindex>2</trackindex>
							<clipindex>6</clipindex>
							<groupindex>1</groupindex>
						</link>
						<logginginfo>
							<description />
							<scene />
							<shottake />
							<lognote />
							<good />
							<originalvideofilename />
							<originalaudiofilename />
						</logginginfo>
						<colorinfo>
							<lut />
							<lut1 />
							<asc_sop />
							<asc_sat />
							<lut2 />
						</colorinfo>
					<labels><label2>Forest</label2></labels></clipitem>
					<clipitem id="clipitem-88">
						<masterclipid>clipitem-4-99</masterclipid>
						<name>Travis_Kelce_ANNOUNCE_WEDDING_DATE_with_Taylor_Swift_Why_He_was_Delaying_all_Along.mp4</name>
						<enabled>TRUE</enabled>
						<duration>150</duration>
						<rate>
							<timebase>25</timebase>
							<ntsc>FALSE</ntsc>
						</rate>
						<start>32850</start>
						<end>33000</end>
						<in>14700</in>
						<out>14850</out>
						<pproTicksIn>0</pproTicksIn>
						<pproTicksOut>419410897920000</pproTicksOut>
						<alphatype>none</alphatype>
						<pixelaspectratio>square</pixelaspectratio>
						<anamorphic>FALSE</anamorphic>
						<file id="file-32">
							<name>Travis_Kelce_ANNOUNCE_WEDDING_DATE_with_Taylor_Swift_Why_He_was_Delaying_all_Along.mp4</name>
							<pathurl>file://localhost/Users/themalikano/Documents/VideoAutomation/premiere_videos/Travis_Kelce_ANNOUNCE_WEDDING_DATE_with_Taylor_Swift_Why_He_was_Delaying_all_Along.mp4</pathurl>
							<rate>
								<timebase>24</timebase>
								<ntsc>FALSE</ntsc>
							</rate>
							<duration>39627</duration>
							<timecode>
								<rate>
									<timebase>24</timebase>
									<ntsc>FALSE</ntsc>
								</rate>
								<string>00:00:00:00</string>
								<frame>0</frame>
								<displayformat>NDF</displayformat>
							</timecode>
							<media>
								<video>
									<samplecharacteristics>
										<rate>
											<timebase>24</timebase>
											<ntsc>FALSE</ntsc>
										</rate>
										<width>852</width>
										<height>480</height>
										<anamorphic>FALSE</anamorphic>
										<pixelaspectratio>square</pixelaspectratio>
										<fielddominance>none</fielddominance>
									</samplecharacteristics>
								</video>
								<audio>
									<samplecharacteristics>
										<depth>16</depth>
										<samplerate>44100</samplerate>
									</samplecharacteristics>
									<channelcount>2</channelcount>
								</audio>
							</media>
						</file>
						<filter>
							<effect>
								<name>Basic Motion</name>
								<effectid>basic</effectid>
								<effectcategory>motion</effectcategory>
								<effecttype>motion</effecttype>
								<mediatype>video</mediatype>
								<pproBypass>false</pproBypass>
								<parameter authoringApp="PremierePro">
									<parameterid>scale</parameterid>
									<name>Scale</name>
									<valuemin>0</valuemin>
									<valuemax>1000</valuemax>
									<value>225</value>
								</parameter>
								<parameter authoringApp="PremierePro">
									<parameterid>rotation</parameterid>
									<name>Rotation</name>
									<valuemin>-8640</valuemin>
									<valuemax>8640</valuemax>
									<value>0</value>
								</parameter>
								<parameter authoringApp="PremierePro">
									<parameterid>center</parameterid>
									<name>Center</name>
									<value>
										<horiz>0</horiz>
										<vert>0</vert>
									</value>
								</parameter>
								<parameter authoringApp="PremierePro">
									<parameterid>centerOffset</parameterid>
									<name>Anchor Point</name>
									<value>
										<horiz>0</horiz>
										<vert>0</vert>
									</value>
								</parameter>
								<parameter authoringApp="PremierePro">
									<parameterid>antiflicker</parameterid>
									<name>Anti-flicker Filter</name>
									<valuemin>0.0</valuemin>
									<valuemax>1.0</valuemax>
									<value>0</value>
								</parameter>
							</effect>
						</filter>
						<link>
							<linkclipref>clipitem-88</linkclipref>
							<mediatype>video</mediatype>
							<trackindex>1</trackindex>
							<clipindex>4</clipindex>
						</link>
						<link>
							<linkclipref>clipitem-96</linkclipref>
							<mediatype>audio</mediatype>
							<trackindex>1</trackindex>
							<clipindex>4</clipindex>
							<groupindex>1</groupindex>
						</link>
						<link>
							<linkclipref>clipitem-104</linkclipref>
							<mediatype>audio</mediatype>
							<trackindex>2</trackindex>
							<clipindex>4</clipindex>
							<groupindex>1</groupindex>
						</link>
						<logginginfo>
							<description />
							<scene />
							<shottake />
							<lognote />
							<good />
							<originalvideofilename />
							<originalaudiofilename />
						</logginginfo>
						<colorinfo>
							<lut />
							<lut1 />
							<asc_sop />
							<asc_sat />
							<lut2 />
						</colorinfo>
					<labels><label2>Lavender</label2></labels></clipitem>
					<clipitem id="clipitem-86">
						<masterclipid>clipitem-2-135</masterclipid>
						<name>Taylor_Swift_Shares_The_Story_Of_Calling_Travis_Kelce_For_The_First_Time.mp4</name>
						<enabled>TRUE</enabled>
						<duration>150</duration>
						<rate>
							<timebase>25</timebase>
							<ntsc>FALSE</ntsc>
						</rate>
						<start>33000</start>
						<end>33150</end>
						<in>20100</in>
						<out>20250</out>
						<pproTicksIn>0</pproTicksIn>
						<pproTicksOut>236438092800000</pproTicksOut>
						<alphatype>none</alphatype>
						<pixelaspectratio>square</pixelaspectratio>
						<anamorphic>FALSE</anamorphic>
						<file id="file-30">
							<name>Taylor_Swift_Shares_The_Story_Of_Calling_Travis_Kelce_For_The_First_Time.mp4</name>
							<pathurl>file://localhost/Users/themalikano/Documents/VideoAutomation/premiere_videos/Taylor_Swift_Shares_The_Story_Of_Calling_Travis_Kelce_For_The_First_Time.mp4</pathurl>
							<rate>
								<timebase>30</timebase>
								<ntsc>TRUE</ntsc>
							</rate>
							<duration>27897</duration>
							<timecode>
								<rate>
									<timebase>30</timebase>
									<ntsc>TRUE</ntsc>
								</rate>
								<string>00:00:00:00</string>
								<frame>0</frame>
								<displayformat>NDF</displayformat>
							</timecode>
							<media>
								<video>
									<samplecharacteristics>
										<rate>
											<timebase>30</timebase>
											<ntsc>TRUE</ntsc>
										</rate>
										<width>1920</width>
										<height>1080</height>
										<anamorphic>FALSE</anamorphic>
										<pixelaspectratio>square</pixelaspectratio>
										<fielddominance>none</fielddominance>
									</samplecharacteristics>
								</video>
								<audio>
									<samplecharacteristics>
										<depth>16</depth>
										<samplerate>44100</samplerate>
									</samplecharacteristics>
									<channelcount>2</channelcount>
								</audio>
							</media>
						</file>
						<link>
							<linkclipref>clipitem-86</linkclipref>
							<mediatype>video</mediatype>
							<trackindex>1</trackindex>
							<clipindex>2</clipindex>
						</link>
						<link>
							<linkclipref>clipitem-94</linkclipref>
							<mediatype>audio</mediatype>
							<trackindex>1</trackindex>
							<clipindex>2</clipindex>
							<groupindex>1</groupindex>
						</link>
						<link>
							<linkclipref>clipitem-102</linkclipref>
							<mediatype>audio</mediatype>
							<trackindex>2</trackindex>
							<clipindex>2</clipindex>
							<groupindex>1</groupindex>
						</link>
						<logginginfo>
							<description />
							<scene />
							<shottake />
							<lognote />
							<good />
							<originalvideofilename />
							<originalaudiofilename />
						</logginginfo>
						<colorinfo>
							<lut />
							<lut1 />
							<asc_sop />
							<asc_sat />
							<lut2 />
						</colorinfo>
					<labels><label2>Iris</label2></labels></clipitem>
					<clipitem id="clipitem-90">
						<masterclipid>clipitem-6-91</masterclipid>
						<name>Travis_Kelce_talks_about_postponing_his_wedding_to_Fiance_Taylor_Swift_on_the_New_Heights_Podcast.mp4</name>
						<enabled>TRUE</enabled>
						<duration>150</duration>
						<rate>
							<timebase>25</timebase>
							<ntsc>FALSE</ntsc>
						</rate>
						<start>33150</start>
						<end>33300</end>
						<in>13500</in>
						<out>13650</out>
						<pproTicksIn>0</pproTicksIn>
						<pproTicksOut>149391889920000</pproTicksOut>
						<alphatype>none</alphatype>
						<pixelaspectratio>square</pixelaspectratio>
						<anamorphic>FALSE</anamorphic>
						<file id="file-34">
							<name>Travis_Kelce_talks_about_postponing_his_wedding_to_Fiance_Taylor_Swift_on_the_New_Heights_Podcast.mp4</name>
							<pathurl>file://localhost/Users/themalikano/Documents/VideoAutomation/premiere_videos/Travis_Kelce_talks_about_postponing_his_wedding_to_Fiance_Taylor_Swift_on_the_New_Heights_Podcast.mp4</pathurl>
							<rate>
								<timebase>30</timebase>
								<ntsc>FALSE</ntsc>
							</rate>
							<duration>17644</duration>
							<timecode>
								<rate>
									<timebase>30</timebase>
									<ntsc>FALSE</ntsc>
								</rate>
								<string>00:00:00:00</string>
								<frame>0</frame>
								<displayformat>NDF</displayformat>
							</timecode>
							<media>
								<video>
									<samplecharacteristics>
										<rate>
											<timebase>30</timebase>
											<ntsc>FALSE</ntsc>
										</rate>
										<width>1920</width>
										<height>1080</height>
										<anamorphic>FALSE</anamorphic>
										<pixelaspectratio>square</pixelaspectratio>
										<fielddominance>none</fielddominance>
									</samplecharacteristics>
								</video>
								<audio>
									<samplecharacteristics>
										<depth>16</depth>
										<samplerate>44100</samplerate>
									</samplecharacteristics>
									<channelcount>2</channelcount>
								</audio>
							</media>
						</file>
						<link>
							<linkclipref>clipitem-90</linkclipref>
							<mediatype>video</mediatype>
							<trackindex>1</trackindex>
							<clipindex>6</clipindex>
						</link>
						<link>
							<linkclipref>clipitem-98</linkclipref>
							<mediatype>audio</mediatype>
							<trackindex>1</trackindex>
							<clipindex>6</clipindex>
							<groupindex>1</groupindex>
						</link>
						<link>
							<linkclipref>clipitem-106</linkclipref>
							<mediatype>audio</mediatype>
							<trackindex>2</trackindex>
							<clipindex>6</clipindex>
							<groupindex>1</groupindex>
						</link>
						<logginginfo>
							<description />
							<scene />
							<shottake />
							<lognote />
							<good />
							<originalvideofilename />
							<originalaudiofilename />
						</logginginfo>
						<colorinfo>
							<lut />
							<lut1 />
							<asc_sop />
							<asc_sat />
							<lut2 />
						</colorinfo>
					<labels><label2>Forest</label2></labels></clipitem>
					<clipitem id="clipitem-88">
						<masterclipid>clipitem-4-101</masterclipid>
						<name>Travis_Kelce_ANNOUNCE_WEDDING_DATE_with_Taylor_Swift_Why_He_was_Delaying_all_Along.mp4</name>
						<enabled>TRUE</enabled>
						<duration>150</duration>
						<rate>
							<timebase>25</timebase>
							<ntsc>FALSE</ntsc>
						</rate>
						<start>33300</start>
						<end>33450</end>
						<in>15000</in>
						<out>15150</out>
						<pproTicksIn>0</pproTicksIn>
						<pproTicksOut>419410897920000</pproTicksOut>
						<alphatype>none</alphatype>
						<pixelaspectratio>square</pixelaspectratio>
						<anamorphic>FALSE</anamorphic>
						<file id="file-32">
							<name>Travis_Kelce_ANNOUNCE_WEDDING_DATE_with_Taylor_Swift_Why_He_was_Delaying_all_Along.mp4</name>
							<pathurl>file://localhost/Users/themalikano/Documents/VideoAutomation/premiere_videos/Travis_Kelce_ANNOUNCE_WEDDING_DATE_with_Taylor_Swift_Why_He_was_Delaying_all_Along.mp4</pathurl>
							<rate>
								<timebase>24</timebase>
								<ntsc>FALSE</ntsc>
							</rate>
							<duration>39627</duration>
							<timecode>
								<rate>
									<timebase>24</timebase>
									<ntsc>FALSE</ntsc>
								</rate>
								<string>00:00:00:00</string>
								<frame>0</frame>
								<displayformat>NDF</displayformat>
							</timecode>
							<media>
								<video>
									<samplecharacteristics>
										<rate>
											<timebase>24</timebase>
											<ntsc>FALSE</ntsc>
										</rate>
										<width>852</width>
										<height>480</height>
										<anamorphic>FALSE</anamorphic>
										<pixelaspectratio>square</pixelaspectratio>
										<fielddominance>none</fielddominance>
									</samplecharacteristics>
								</video>
								<audio>
									<samplecharacteristics>
										<depth>16</depth>
										<samplerate>44100</samplerate>
									</samplecharacteristics>
									<channelcount>2</channelcount>
								</audio>
							</media>
						</file>
						<filter>
							<effect>
								<name>Basic Motion</name>
								<effectid>basic</effectid>
								<effectcategory>motion</effectcategory>
								<effecttype>motion</effecttype>
								<mediatype>video</mediatype>
								<pproBypass>false</pproBypass>
								<parameter authoringApp="PremierePro">
									<parameterid>scale</parameterid>
									<name>Scale</name>
									<valuemin>0</valuemin>
									<valuemax>1000</valuemax>
									<value>225</value>
								</parameter>
								<parameter authoringApp="PremierePro">
									<parameterid>rotation</parameterid>
									<name>Rotation</name>
									<valuemin>-8640</valuemin>
									<valuemax>8640</valuemax>
									<value>0</value>
								</parameter>
								<parameter authoringApp="PremierePro">
									<parameterid>center</parameterid>
									<name>Center</name>
									<value>
										<horiz>0</horiz>
										<vert>0</vert>
									</value>
								</parameter>
								<parameter authoringApp="PremierePro">
									<parameterid>centerOffset</parameterid>
									<name>Anchor Point</name>
									<value>
										<horiz>0</horiz>
										<vert>0</vert>
									</value>
								</parameter>
								<parameter authoringApp="PremierePro">
									<parameterid>antiflicker</parameterid>
									<name>Anti-flicker Filter</name>
									<valuemin>0.0</valuemin>
									<valuemax>1.0</valuemax>
									<value>0</value>
								</parameter>
							</effect>
						</filter>
						<link>
							<linkclipref>clipitem-88</linkclipref>
							<mediatype>video</mediatype>
							<trackindex>1</trackindex>
							<clipindex>4</clipindex>
						</link>
						<link>
							<linkclipref>clipitem-96</linkclipref>
							<mediatype>audio</mediatype>
							<trackindex>1</trackindex>
							<clipindex>4</clipindex>
							<groupindex>1</groupindex>
						</link>
						<link>
							<linkclipref>clipitem-104</linkclipref>
							<mediatype>audio</mediatype>
							<trackindex>2</trackindex>
							<clipindex>4</clipindex>
							<groupindex>1</groupindex>
						</link>
						<logginginfo>
							<description />
							<scene />
							<shottake />
							<lognote />
							<good />
							<originalvideofilename />
							<originalaudiofilename />
						</logginginfo>
						<colorinfo>
							<lut />
							<lut1 />
							<asc_sop />
							<asc_sat />
							<lut2 />
						</colorinfo>
					<labels><label2>Lavender</label2></labels></clipitem>
					<clipitem id="clipitem-87">
						<masterclipid>clipitem-3-362</masterclipid>
						<name>Taylor_Swift_Travis_Kelce_-_The_New_Power_Couple.mp4</name>
						<enabled>TRUE</enabled>
						<duration>150</duration>
						<rate>
							<timebase>25</timebase>
							<ntsc>FALSE</ntsc>
						</rate>
						<start>33450</start>
						<end>33600</end>
						<in>54150</in>
						<out>54300</out>
						<pproTicksIn>0</pproTicksIn>
						<pproTicksOut>875013995520000</pproTicksOut>
						<alphatype>none</alphatype>
						<pixelaspectratio>square</pixelaspectratio>
						<anamorphic>FALSE</anamorphic>
						<file id="file-31">
							<name>Taylor_Swift_Travis_Kelce_-_The_New_Power_Couple.mp4</name>
							<pathurl>file://localhost/Users/themalikano/Documents/VideoAutomation/premiere_videos/Taylor_Swift_Travis_Kelce_-_The_New_Power_Couple.mp4</pathurl>
							<rate>
								<timebase>25</timebase>
								<ntsc>FALSE</ntsc>
							</rate>
							<duration>86118</duration>
							<timecode>
								<rate>
									<timebase>25</timebase>
									<ntsc>FALSE</ntsc>
								</rate>
								<string>00:00:00:00</string>
								<frame>0</frame>
								<displayformat>NDF</displayformat>
							</timecode>
							<media>
								<video>
									<samplecharacteristics>
										<rate>
											<timebase>25</timebase>
											<ntsc>FALSE</ntsc>
										</rate>
										<width>1920</width>
										<height>1080</height>
										<anamorphic>FALSE</anamorphic>
										<pixelaspectratio>square</pixelaspectratio>
										<fielddominance>none</fielddominance>
									</samplecharacteristics>
								</video>
								<audio>
									<samplecharacteristics>
										<depth>16</depth>
										<samplerate>44100</samplerate>
									</samplecharacteristics>
									<channelcount>2</channelcount>
								</audio>
							</media>
						</file>
						<link>
							<linkclipref>clipitem-87</linkclipref>
							<mediatype>video</mediatype>
							<trackindex>1</trackindex>
							<clipindex>3</clipindex>
						</link>
						<link>
							<linkclipref>clipitem-95</linkclipref>
							<mediatype>audio</mediatype>
							<trackindex>1</trackindex>
							<clipindex>3</clipindex>
							<groupindex>1</groupindex>
						</link>
						<link>
							<linkclipref>clipitem-103</linkclipref>
							<mediatype>audio</mediatype>
							<trackindex>2</trackindex>
							<clipindex>3</clipindex>
							<groupindex>1</groupindex>
						</link>
						<logginginfo>
							<description />
							<scene />
							<shottake />
							<lognote />
							<good />
							<originalvideofilename />
							<originalaudiofilename />
						</logginginfo>
						<colorinfo>
							<lut />
							<lut1 />
							<asc_sop />
							<asc_sat />
							<lut2 />
						</colorinfo>
					<labels><label2>Caribbean</label2></labels></clipitem>
					<clipitem id="clipitem-88">
						<masterclipid>clipitem-4-252</masterclipid>
						<name>Travis_Kelce_ANNOUNCE_WEDDING_DATE_with_Taylor_Swift_Why_He_was_Delaying_all_Along.mp4</name>
						<enabled>TRUE</enabled>
						<duration>150</duration>
						<rate>
							<timebase>25</timebase>
							<ntsc>FALSE</ntsc>
						</rate>
						<start>33600</start>
						<end>33750</end>
						<in>37650</in>
						<out>37800</out>
						<pproTicksIn>0</pproTicksIn>
						<pproTicksOut>419410897920000</pproTicksOut>
						<alphatype>none</alphatype>
						<pixelaspectratio>square</pixelaspectratio>
						<anamorphic>FALSE</anamorphic>
						<file id="file-32">
							<name>Travis_Kelce_ANNOUNCE_WEDDING_DATE_with_Taylor_Swift_Why_He_was_Delaying_all_Along.mp4</name>
							<pathurl>file://localhost/Users/themalikano/Documents/VideoAutomation/premiere_videos/Travis_Kelce_ANNOUNCE_WEDDING_DATE_with_Taylor_Swift_Why_He_was_Delaying_all_Along.mp4</pathurl>
							<rate>
								<timebase>24</timebase>
								<ntsc>FALSE</ntsc>
							</rate>
							<duration>39627</duration>
							<timecode>
								<rate>
									<timebase>24</timebase>
									<ntsc>FALSE</ntsc>
								</rate>
								<string>00:00:00:00</string>
								<frame>0</frame>
								<displayformat>NDF</displayformat>
							</timecode>
							<media>
								<video>
									<samplecharacteristics>
										<rate>
											<timebase>24</timebase>
											<ntsc>FALSE</ntsc>
										</rate>
										<width>852</width>
										<height>480</height>
										<anamorphic>FALSE</anamorphic>
										<pixelaspectratio>square</pixelaspectratio>
										<fielddominance>none</fielddominance>
									</samplecharacteristics>
								</video>
								<audio>
									<samplecharacteristics>
										<depth>16</depth>
										<samplerate>44100</samplerate>
									</samplecharacteristics>
									<channelcount>2</channelcount>
								</audio>
							</media>
						</file>
						<filter>
							<effect>
								<name>Basic Motion</name>
								<effectid>basic</effectid>
								<effectcategory>motion</effectcategory>
								<effecttype>motion</effecttype>
								<mediatype>video</mediatype>
								<pproBypass>false</pproBypass>
								<parameter authoringApp="PremierePro">
									<parameterid>scale</parameterid>
									<name>Scale</name>
									<valuemin>0</valuemin>
									<valuemax>1000</valuemax>
									<value>225</value>
								</parameter>
								<parameter authoringApp="PremierePro">
									<parameterid>rotation</parameterid>
									<name>Rotation</name>
									<valuemin>-8640</valuemin>
									<valuemax>8640</valuemax>
									<value>0</value>
								</parameter>
								<parameter authoringApp="PremierePro">
									<parameterid>center</parameterid>
									<name>Center</name>
									<value>
										<horiz>0</horiz>
										<vert>0</vert>
									</value>
								</parameter>
								<parameter authoringApp="PremierePro">
									<parameterid>centerOffset</parameterid>
									<name>Anchor Point</name>
									<value>
										<horiz>0</horiz>
										<vert>0</vert>
									</value>
								</parameter>
								<parameter authoringApp="PremierePro">
									<parameterid>antiflicker</parameterid>
									<name>Anti-flicker Filter</name>
									<valuemin>0.0</valuemin>
									<valuemax>1.0</valuemax>
									<value>0</value>
								</parameter>
							</effect>
						</filter>
						<link>
							<linkclipref>clipitem-88</linkclipref>
							<mediatype>video</mediatype>
							<trackindex>1</trackindex>
							<clipindex>4</clipindex>
						</link>
						<link>
							<linkclipref>clipitem-96</linkclipref>
							<mediatype>audio</mediatype>
							<trackindex>1</trackindex>
							<clipindex>4</clipindex>
							<groupindex>1</groupindex>
						</link>
						<link>
							<linkclipref>clipitem-104</linkclipref>
							<mediatype>audio</mediatype>
							<trackindex>2</trackindex>
							<clipindex>4</clipindex>
							<groupindex>1</groupindex>
						</link>
						<logginginfo>
							<description />
							<scene />
							<shottake />
							<lognote />
							<good />
							<originalvideofilename />
							<originalaudiofilename />
						</logginginfo>
						<colorinfo>
							<lut />
							<lut1 />
							<asc_sop />
							<asc_sat />
							<lut2 />
						</colorinfo>
					<labels><label2>Lavender</label2></labels></clipitem>
					<clipitem id="clipitem-87">
						<masterclipid>clipitem-3-300</masterclipid>
						<name>Taylor_Swift_Travis_Kelce_-_The_New_Power_Couple.mp4</name>
						<enabled>TRUE</enabled>
						<duration>150</duration>
						<rate>
							<timebase>25</timebase>
							<ntsc>FALSE</ntsc>
						</rate>
						<start>33750</start>
						<end>33900</end>
						<in>44850</in>
						<out>45000</out>
						<pproTicksIn>0</pproTicksIn>
						<pproTicksOut>875013995520000</pproTicksOut>
						<alphatype>none</alphatype>
						<pixelaspectratio>square</pixelaspectratio>
						<anamorphic>FALSE</anamorphic>
						<file id="file-31">
							<name>Taylor_Swift_Travis_Kelce_-_The_New_Power_Couple.mp4</name>
							<pathurl>file://localhost/Users/themalikano/Documents/VideoAutomation/premiere_videos/Taylor_Swift_Travis_Kelce_-_The_New_Power_Couple.mp4</pathurl>
							<rate>
								<timebase>25</timebase>
								<ntsc>FALSE</ntsc>
							</rate>
							<duration>86118</duration>
							<timecode>
								<rate>
									<timebase>25</timebase>
									<ntsc>FALSE</ntsc>
								</rate>
								<string>00:00:00:00</string>
								<frame>0</frame>
								<displayformat>NDF</displayformat>
							</timecode>
							<media>
								<video>
									<samplecharacteristics>
										<rate>
											<timebase>25</timebase>
											<ntsc>FALSE</ntsc>
										</rate>
										<width>1920</width>
										<height>1080</height>
										<anamorphic>FALSE</anamorphic>
										<pixelaspectratio>square</pixelaspectratio>
										<fielddominance>none</fielddominance>
									</samplecharacteristics>
								</video>
								<audio>
									<samplecharacteristics>
										<depth>16</depth>
										<samplerate>44100</samplerate>
									</samplecharacteristics>
									<channelcount>2</channelcount>
								</audio>
							</media>
						</file>
						<link>
							<linkclipref>clipitem-87</linkclipref>
							<mediatype>video</mediatype>
							<trackindex>1</trackindex>
							<clipindex>3</clipindex>
						</link>
						<link>
							<linkclipref>clipitem-95</linkclipref>
							<mediatype>audio</mediatype>
							<trackindex>1</trackindex>
							<clipindex>3</clipindex>
							<groupindex>1</groupindex>
						</link>
						<link>
							<linkclipref>clipitem-103</linkclipref>
							<mediatype>audio</mediatype>
							<trackindex>2</trackindex>
							<clipindex>3</clipindex>
							<groupindex>1</groupindex>
						</link>
						<logginginfo>
							<description />
							<scene />
							<shottake />
							<lognote />
							<good />
							<originalvideofilename />
							<originalaudiofilename />
						</logginginfo>
						<colorinfo>
							<lut />
							<lut1 />
							<asc_sop />
							<asc_sat />
							<lut2 />
						</colorinfo>
					<labels><label2>Caribbean</label2></labels></clipitem>
					<clipitem id="clipitem-90">
						<masterclipid>clipitem-6-92</masterclipid>
						<name>Travis_Kelce_talks_about_postponing_his_wedding_to_Fiance_Taylor_Swift_on_the_New_Heights_Podcast.mp4</name>
						<enabled>TRUE</enabled>
						<duration>150</duration>
						<rate>
							<timebase>25</timebase>
							<ntsc>FALSE</ntsc>
						</rate>
						<start>33900</start>
						<end>34050</end>
						<in>13650</in>
						<out>13800</out>
						<pproTicksIn>0</pproTicksIn>
						<pproTicksOut>149391889920000</pproTicksOut>
						<alphatype>none</alphatype>
						<pixelaspectratio>square</pixelaspectratio>
						<anamorphic>FALSE</anamorphic>
						<file id="file-34">
							<name>Travis_Kelce_talks_about_postponing_his_wedding_to_Fiance_Taylor_Swift_on_the_New_Heights_Podcast.mp4</name>
							<pathurl>file://localhost/Users/themalikano/Documents/VideoAutomation/premiere_videos/Travis_Kelce_talks_about_postponing_his_wedding_to_Fiance_Taylor_Swift_on_the_New_Heights_Podcast.mp4</pathurl>
							<rate>
								<timebase>30</timebase>
								<ntsc>FALSE</ntsc>
							</rate>
							<duration>17644</duration>
							<timecode>
								<rate>
									<timebase>30</timebase>
									<ntsc>FALSE</ntsc>
								</rate>
								<string>00:00:00:00</string>
								<frame>0</frame>
								<displayformat>NDF</displayformat>
							</timecode>
							<media>
								<video>
									<samplecharacteristics>
										<rate>
											<timebase>30</timebase>
											<ntsc>FALSE</ntsc>
										</rate>
										<width>1920</width>
										<height>1080</height>
										<anamorphic>FALSE</anamorphic>
										<pixelaspectratio>square</pixelaspectratio>
										<fielddominance>none</fielddominance>
									</samplecharacteristics>
								</video>
								<audio>
									<samplecharacteristics>
										<depth>16</depth>
										<samplerate>44100</samplerate>
									</samplecharacteristics>
									<channelcount>2</channelcount>
								</audio>
							</media>
						</file>
						<link>
							<linkclipref>clipitem-90</linkclipref>
							<mediatype>video</mediatype>
							<trackindex>1</trackindex>
							<clipindex>6</clipindex>
						</link>
						<link>
							<linkclipref>clipitem-98</linkclipref>
							<mediatype>audio</mediatype>
							<trackindex>1</trackindex>
							<clipindex>6</clipindex>
							<groupindex>1</groupindex>
						</link>
						<link>
							<linkclipref>clipitem-106</linkclipref>
							<mediatype>audio</mediatype>
							<trackindex>2</trackindex>
							<clipindex>6</clipindex>
							<groupindex>1</groupindex>
						</link>
						<logginginfo>
							<description />
							<scene />
							<shottake />
							<lognote />
							<good />
							<originalvideofilename />
							<originalaudiofilename />
						</logginginfo>
						<colorinfo>
							<lut />
							<lut1 />
							<asc_sop />
							<asc_sat />
							<lut2 />
						</colorinfo>
					<labels><label2>Forest</label2></labels></clipitem>
					<clipitem id="clipitem-88">
						<masterclipid>clipitem-4-141</masterclipid>
						<name>Travis_Kelce_ANNOUNCE_WEDDING_DATE_with_Taylor_Swift_Why_He_was_Delaying_all_Along.mp4</name>
						<enabled>TRUE</enabled>
						<duration>150</duration>
						<rate>
							<timebase>25</timebase>
							<ntsc>FALSE</ntsc>
						</rate>
						<start>34050</start>
						<end>34200</end>
						<in>21000</in>
						<out>21150</out>
						<pproTicksIn>0</pproTicksIn>
						<pproTicksOut>419410897920000</pproTicksOut>
						<alphatype>none</alphatype>
						<pixelaspectratio>square</pixelaspectratio>
						<anamorphic>FALSE</anamorphic>
						<file id="file-32">
							<name>Travis_Kelce_ANNOUNCE_WEDDING_DATE_with_Taylor_Swift_Why_He_was_Delaying_all_Along.mp4</name>
							<pathurl>file://localhost/Users/themalikano/Documents/VideoAutomation/premiere_videos/Travis_Kelce_ANNOUNCE_WEDDING_DATE_with_Taylor_Swift_Why_He_was_Delaying_all_Along.mp4</pathurl>
							<rate>
								<timebase>24</timebase>
								<ntsc>FALSE</ntsc>
							</rate>
							<duration>39627</duration>
							<timecode>
								<rate>
									<timebase>24</timebase>
									<ntsc>FALSE</ntsc>
								</rate>
								<string>00:00:00:00</string>
								<frame>0</frame>
								<displayformat>NDF</displayformat>
							</timecode>
							<media>
								<video>
									<samplecharacteristics>
										<rate>
											<timebase>24</timebase>
											<ntsc>FALSE</ntsc>
										</rate>
										<width>852</width>
										<height>480</height>
										<anamorphic>FALSE</anamorphic>
										<pixelaspectratio>square</pixelaspectratio>
										<fielddominance>none</fielddominance>
									</samplecharacteristics>
								</video>
								<audio>
									<samplecharacteristics>
										<depth>16</depth>
										<samplerate>44100</samplerate>
									</samplecharacteristics>
									<channelcount>2</channelcount>
								</audio>
							</media>
						</file>
						<filter>
							<effect>
								<name>Basic Motion</name>
								<effectid>basic</effectid>
								<effectcategory>motion</effectcategory>
								<effecttype>motion</effecttype>
								<mediatype>video</mediatype>
								<pproBypass>false</pproBypass>
								<parameter authoringApp="PremierePro">
									<parameterid>scale</parameterid>
									<name>Scale</name>
									<valuemin>0</valuemin>
									<valuemax>1000</valuemax>
									<value>225</value>
								</parameter>
								<parameter authoringApp="PremierePro">
									<parameterid>rotation</parameterid>
									<name>Rotation</name>
									<valuemin>-8640</valuemin>
									<valuemax>8640</valuemax>
									<value>0</value>
								</parameter>
								<parameter authoringApp="PremierePro">
									<parameterid>center</parameterid>
									<name>Center</name>
									<value>
										<horiz>0</horiz>
										<vert>0</vert>
									</value>
								</parameter>
								<parameter authoringApp="PremierePro">
									<parameterid>centerOffset</parameterid>
									<name>Anchor Point</name>
									<value>
										<horiz>0</horiz>
										<vert>0</vert>
									</value>
								</parameter>
								<parameter authoringApp="PremierePro">
									<parameterid>antiflicker</parameterid>
									<name>Anti-flicker Filter</name>
									<valuemin>0.0</valuemin>
									<valuemax>1.0</valuemax>
									<value>0</value>
								</parameter>
							</effect>
						</filter>
						<link>
							<linkclipref>clipitem-88</linkclipref>
							<mediatype>video</mediatype>
							<trackindex>1</trackindex>
							<clipindex>4</clipindex>
						</link>
						<link>
							<linkclipref>clipitem-96</linkclipref>
							<mediatype>audio</mediatype>
							<trackindex>1</trackindex>
							<clipindex>4</clipindex>
							<groupindex>1</groupindex>
						</link>
						<link>
							<linkclipref>clipitem-104</linkclipref>
							<mediatype>audio</mediatype>
							<trackindex>2</trackindex>
							<clipindex>4</clipindex>
							<groupindex>1</groupindex>
						</link>
						<logginginfo>
							<description />
							<scene />
							<shottake />
							<lognote />
							<good />
							<originalvideofilename />
							<originalaudiofilename />
						</logginginfo>
						<colorinfo>
							<lut />
							<lut1 />
							<asc_sop />
							<asc_sat />
							<lut2 />
						</colorinfo>
					<labels><label2>Lavender</label2></labels></clipitem>
					<clipitem id="clipitem-87">
						<masterclipid>clipitem-3-391</masterclipid>
						<name>Taylor_Swift_Travis_Kelce_-_The_New_Power_Couple.mp4</name>
						<enabled>TRUE</enabled>
						<duration>150</duration>
						<rate>
							<timebase>25</timebase>
							<ntsc>FALSE</ntsc>
						</rate>
						<start>34200</start>
						<end>34350</end>
						<in>58500</in>
						<out>58650</out>
						<pproTicksIn>0</pproTicksIn>
						<pproTicksOut>875013995520000</pproTicksOut>
						<alphatype>none</alphatype>
						<pixelaspectratio>square</pixelaspectratio>
						<anamorphic>FALSE</anamorphic>
						<file id="file-31">
							<name>Taylor_Swift_Travis_Kelce_-_The_New_Power_Couple.mp4</name>
							<pathurl>file://localhost/Users/themalikano/Documents/VideoAutomation/premiere_videos/Taylor_Swift_Travis_Kelce_-_The_New_Power_Couple.mp4</pathurl>
							<rate>
								<timebase>25</timebase>
								<ntsc>FALSE</ntsc>
							</rate>
							<duration>86118</duration>
							<timecode>
								<rate>
									<timebase>25</timebase>
									<ntsc>FALSE</ntsc>
								</rate>
								<string>00:00:00:00</string>
								<frame>0</frame>
								<displayformat>NDF</displayformat>
							</timecode>
							<media>
								<video>
									<samplecharacteristics>
										<rate>
											<timebase>25</timebase>
											<ntsc>FALSE</ntsc>
										</rate>
										<width>1920</width>
										<height>1080</height>
										<anamorphic>FALSE</anamorphic>
										<pixelaspectratio>square</pixelaspectratio>
										<fielddominance>none</fielddominance>
									</samplecharacteristics>
								</video>
								<audio>
									<samplecharacteristics>
										<depth>16</depth>
										<samplerate>44100</samplerate>
									</samplecharacteristics>
									<channelcount>2</channelcount>
								</audio>
							</media>
						</file>
						<link>
							<linkclipref>clipitem-87</linkclipref>
							<mediatype>video</mediatype>
							<trackindex>1</trackindex>
							<clipindex>3</clipindex>
						</link>
						<link>
							<linkclipref>clipitem-95</linkclipref>
							<mediatype>audio</mediatype>
							<trackindex>1</trackindex>
							<clipindex>3</clipindex>
							<groupindex>1</groupindex>
						</link>
						<link>
							<linkclipref>clipitem-103</linkclipref>
							<mediatype>audio</mediatype>
							<trackindex>2</trackindex>
							<clipindex>3</clipindex>
							<groupindex>1</groupindex>
						</link>
						<logginginfo>
							<description />
							<scene />
							<shottake />
							<lognote />
							<good />
							<originalvideofilename />
							<originalaudiofilename />
						</logginginfo>
						<colorinfo>
							<lut />
							<lut1 />
							<asc_sop />
							<asc_sat />
							<lut2 />
						</colorinfo>
					<labels><label2>Caribbean</label2></labels></clipitem>
					<clipitem id="clipitem-88">
						<masterclipid>clipitem-4-272</masterclipid>
						<name>Travis_Kelce_ANNOUNCE_WEDDING_DATE_with_Taylor_Swift_Why_He_was_Delaying_all_Along.mp4</name>
						<enabled>TRUE</enabled>
						<duration>150</duration>
						<rate>
							<timebase>25</timebase>
							<ntsc>FALSE</ntsc>
						</rate>
						<start>34350</start>
						<end>34500</end>
						<in>40650</in>
						<out>40800</out>
						<pproTicksIn>0</pproTicksIn>
						<pproTicksOut>419410897920000</pproTicksOut>
						<alphatype>none</alphatype>
						<pixelaspectratio>square</pixelaspectratio>
						<anamorphic>FALSE</anamorphic>
						<file id="file-32">
							<name>Travis_Kelce_ANNOUNCE_WEDDING_DATE_with_Taylor_Swift_Why_He_was_Delaying_all_Along.mp4</name>
							<pathurl>file://localhost/Users/themalikano/Documents/VideoAutomation/premiere_videos/Travis_Kelce_ANNOUNCE_WEDDING_DATE_with_Taylor_Swift_Why_He_was_Delaying_all_Along.mp4</pathurl>
							<rate>
								<timebase>24</timebase>
								<ntsc>FALSE</ntsc>
							</rate>
							<duration>39627</duration>
							<timecode>
								<rate>
									<timebase>24</timebase>
									<ntsc>FALSE</ntsc>
								</rate>
								<string>00:00:00:00</string>
								<frame>0</frame>
								<displayformat>NDF</displayformat>
							</timecode>
							<media>
								<video>
									<samplecharacteristics>
										<rate>
											<timebase>24</timebase>
											<ntsc>FALSE</ntsc>
										</rate>
										<width>852</width>
										<height>480</height>
										<anamorphic>FALSE</anamorphic>
										<pixelaspectratio>square</pixelaspectratio>
										<fielddominance>none</fielddominance>
									</samplecharacteristics>
								</video>
								<audio>
									<samplecharacteristics>
										<depth>16</depth>
										<samplerate>44100</samplerate>
									</samplecharacteristics>
									<channelcount>2</channelcount>
								</audio>
							</media>
						</file>
						<filter>
							<effect>
								<name>Basic Motion</name>
								<effectid>basic</effectid>
								<effectcategory>motion</effectcategory>
								<effecttype>motion</effecttype>
								<mediatype>video</mediatype>
								<pproBypass>false</pproBypass>
								<parameter authoringApp="PremierePro">
									<parameterid>scale</parameterid>
									<name>Scale</name>
									<valuemin>0</valuemin>
									<valuemax>1000</valuemax>
									<value>225</value>
								</parameter>
								<parameter authoringApp="PremierePro">
									<parameterid>rotation</parameterid>
									<name>Rotation</name>
									<valuemin>-8640</valuemin>
									<valuemax>8640</valuemax>
									<value>0</value>
								</parameter>
								<parameter authoringApp="PremierePro">
									<parameterid>center</parameterid>
									<name>Center</name>
									<value>
										<horiz>0</horiz>
										<vert>0</vert>
									</value>
								</parameter>
								<parameter authoringApp="PremierePro">
									<parameterid>centerOffset</parameterid>
									<name>Anchor Point</name>
									<value>
										<horiz>0</horiz>
										<vert>0</vert>
									</value>
								</parameter>
								<parameter authoringApp="PremierePro">
									<parameterid>antiflicker</parameterid>
									<name>Anti-flicker Filter</name>
									<valuemin>0.0</valuemin>
									<valuemax>1.0</valuemax>
									<value>0</value>
								</parameter>
							</effect>
						</filter>
						<link>
							<linkclipref>clipitem-88</linkclipref>
							<mediatype>video</mediatype>
							<trackindex>1</trackindex>
							<clipindex>4</clipindex>
						</link>
						<link>
							<linkclipref>clipitem-96</linkclipref>
							<mediatype>audio</mediatype>
							<trackindex>1</trackindex>
							<clipindex>4</clipindex>
							<groupindex>1</groupindex>
						</link>
						<link>
							<linkclipref>clipitem-104</linkclipref>
							<mediatype>audio</mediatype>
							<trackindex>2</trackindex>
							<clipindex>4</clipindex>
							<groupindex>1</groupindex>
						</link>
						<logginginfo>
							<description />
							<scene />
							<shottake />
							<lognote />
							<good />
							<originalvideofilename />
							<originalaudiofilename />
						</logginginfo>
						<colorinfo>
							<lut />
							<lut1 />
							<asc_sop />
							<asc_sat />
							<lut2 />
						</colorinfo>
					<labels><label2>Lavender</label2></labels></clipitem>
					<clipitem id="clipitem-86">
						<masterclipid>clipitem-2-3</masterclipid>
						<name>Taylor_Swift_Shares_The_Story_Of_Calling_Travis_Kelce_For_The_First_Time.mp4</name>
						<enabled>TRUE</enabled>
						<duration>150</duration>
						<rate>
							<timebase>25</timebase>
							<ntsc>FALSE</ntsc>
						</rate>
						<start>34500</start>
						<end>34650</end>
						<in>300</in>
						<out>450</out>
						<pproTicksIn>0</pproTicksIn>
						<pproTicksOut>236438092800000</pproTicksOut>
						<alphatype>none</alphatype>
						<pixelaspectratio>square</pixelaspectratio>
						<anamorphic>FALSE</anamorphic>
						<file id="file-30">
							<name>Taylor_Swift_Shares_The_Story_Of_Calling_Travis_Kelce_For_The_First_Time.mp4</name>
							<pathurl>file://localhost/Users/themalikano/Documents/VideoAutomation/premiere_videos/Taylor_Swift_Shares_The_Story_Of_Calling_Travis_Kelce_For_The_First_Time.mp4</pathurl>
							<rate>
								<timebase>30</timebase>
								<ntsc>TRUE</ntsc>
							</rate>
							<duration>27897</duration>
							<timecode>
								<rate>
									<timebase>30</timebase>
									<ntsc>TRUE</ntsc>
								</rate>
								<string>00:00:00:00</string>
								<frame>0</frame>
								<displayformat>NDF</displayformat>
							</timecode>
							<media>
								<video>
									<samplecharacteristics>
										<rate>
											<timebase>30</timebase>
											<ntsc>TRUE</ntsc>
										</rate>
										<width>1920</width>
										<height>1080</height>
										<anamorphic>FALSE</anamorphic>
										<pixelaspectratio>square</pixelaspectratio>
										<fielddominance>none</fielddominance>
									</samplecharacteristics>
								</video>
								<audio>
									<samplecharacteristics>
										<depth>16</depth>
										<samplerate>44100</samplerate>
									</samplecharacteristics>
									<channelcount>2</channelcount>
								</audio>
							</media>
						</file>
						<link>
							<linkclipref>clipitem-86</linkclipref>
							<mediatype>video</mediatype>
							<trackindex>1</trackindex>
							<clipindex>2</clipindex>
						</link>
						<link>
							<linkclipref>clipitem-94</linkclipref>
							<mediatype>audio</mediatype>
							<trackindex>1</trackindex>
							<clipindex>2</clipindex>
							<groupindex>1</groupindex>
						</link>
						<link>
							<linkclipref>clipitem-102</linkclipref>
							<mediatype>audio</mediatype>
							<trackindex>2</trackindex>
							<clipindex>2</clipindex>
							<groupindex>1</groupindex>
						</link>
						<logginginfo>
							<description />
							<scene />
							<shottake />
							<lognote />
							<good />
							<originalvideofilename />
							<originalaudiofilename />
						</logginginfo>
						<colorinfo>
							<lut />
							<lut1 />
							<asc_sop />
							<asc_sat />
							<lut2 />
						</colorinfo>
					<labels><label2>Iris</label2></labels></clipitem>
					<clipitem id="clipitem-90">
						<masterclipid>clipitem-6-18</masterclipid>
						<name>Travis_Kelce_talks_about_postponing_his_wedding_to_Fiance_Taylor_Swift_on_the_New_Heights_Podcast.mp4</name>
						<enabled>TRUE</enabled>
						<duration>150</duration>
						<rate>
							<timebase>25</timebase>
							<ntsc>FALSE</ntsc>
						</rate>
						<start>34650</start>
						<end>34800</end>
						<in>2550</in>
						<out>2700</out>
						<pproTicksIn>0</pproTicksIn>
						<pproTicksOut>149391889920000</pproTicksOut>
						<alphatype>none</alphatype>
						<pixelaspectratio>square</pixelaspectratio>
						<anamorphic>FALSE</anamorphic>
						<file id="file-34">
							<name>Travis_Kelce_talks_about_postponing_his_wedding_to_Fiance_Taylor_Swift_on_the_New_Heights_Podcast.mp4</name>
							<pathurl>file://localhost/Users/themalikano/Documents/VideoAutomation/premiere_videos/Travis_Kelce_talks_about_postponing_his_wedding_to_Fiance_Taylor_Swift_on_the_New_Heights_Podcast.mp4</pathurl>
							<rate>
								<timebase>30</timebase>
								<ntsc>FALSE</ntsc>
							</rate>
							<duration>17644</duration>
							<timecode>
								<rate>
									<timebase>30</timebase>
									<ntsc>FALSE</ntsc>
								</rate>
								<string>00:00:00:00</string>
								<frame>0</frame>
								<displayformat>NDF</displayformat>
							</timecode>
							<media>
								<video>
									<samplecharacteristics>
										<rate>
											<timebase>30</timebase>
											<ntsc>FALSE</ntsc>
										</rate>
										<width>1920</width>
										<height>1080</height>
										<anamorphic>FALSE</anamorphic>
										<pixelaspectratio>square</pixelaspectratio>
										<fielddominance>none</fielddominance>
									</samplecharacteristics>
								</video>
								<audio>
									<samplecharacteristics>
										<depth>16</depth>
										<samplerate>44100</samplerate>
									</samplecharacteristics>
									<channelcount>2</channelcount>
								</audio>
							</media>
						</file>
						<link>
							<linkclipref>clipitem-90</linkclipref>
							<mediatype>video</mediatype>
							<trackindex>1</trackindex>
							<clipindex>6</clipindex>
						</link>
						<link>
							<linkclipref>clipitem-98</linkclipref>
							<mediatype>audio</mediatype>
							<trackindex>1</trackindex>
							<clipindex>6</clipindex>
							<groupindex>1</groupindex>
						</link>
						<link>
							<linkclipref>clipitem-106</linkclipref>
							<mediatype>audio</mediatype>
							<trackindex>2</trackindex>
							<clipindex>6</clipindex>
							<groupindex>1</groupindex>
						</link>
						<logginginfo>
							<description />
							<scene />
							<shottake />
							<lognote />
							<good />
							<originalvideofilename />
							<originalaudiofilename />
						</logginginfo>
						<colorinfo>
							<lut />
							<lut1 />
							<asc_sop />
							<asc_sat />
							<lut2 />
						</colorinfo>
					<labels><label2>Forest</label2></labels></clipitem>
					<clipitem id="clipitem-87">
						<masterclipid>clipitem-3-241</masterclipid>
						<name>Taylor_Swift_Travis_Kelce_-_The_New_Power_Couple.mp4</name>
						<enabled>TRUE</enabled>
						<duration>150</duration>
						<rate>
							<timebase>25</timebase>
							<ntsc>FALSE</ntsc>
						</rate>
						<start>34800</start>
						<end>34950</end>
						<in>36000</in>
						<out>36150</out>
						<pproTicksIn>0</pproTicksIn>
						<pproTicksOut>875013995520000</pproTicksOut>
						<alphatype>none</alphatype>
						<pixelaspectratio>square</pixelaspectratio>
						<anamorphic>FALSE</anamorphic>
						<file id="file-31">
							<name>Taylor_Swift_Travis_Kelce_-_The_New_Power_Couple.mp4</name>
							<pathurl>file://localhost/Users/themalikano/Documents/VideoAutomation/premiere_videos/Taylor_Swift_Travis_Kelce_-_The_New_Power_Couple.mp4</pathurl>
							<rate>
								<timebase>25</timebase>
								<ntsc>FALSE</ntsc>
							</rate>
							<duration>86118</duration>
							<timecode>
								<rate>
									<timebase>25</timebase>
									<ntsc>FALSE</ntsc>
								</rate>
								<string>00:00:00:00</string>
								<frame>0</frame>
								<displayformat>NDF</displayformat>
							</timecode>
							<media>
								<video>
									<samplecharacteristics>
										<rate>
											<timebase>25</timebase>
											<ntsc>FALSE</ntsc>
										</rate>
										<width>1920</width>
										<height>1080</height>
										<anamorphic>FALSE</anamorphic>
										<pixelaspectratio>square</pixelaspectratio>
										<fielddominance>none</fielddominance>
									</samplecharacteristics>
								</video>
								<audio>
									<samplecharacteristics>
										<depth>16</depth>
										<samplerate>44100</samplerate>
									</samplecharacteristics>
									<channelcount>2</channelcount>
								</audio>
							</media>
						</file>
						<link>
							<linkclipref>clipitem-87</linkclipref>
							<mediatype>video</mediatype>
							<trackindex>1</trackindex>
							<clipindex>3</clipindex>
						</link>
						<link>
							<linkclipref>clipitem-95</linkclipref>
							<mediatype>audio</mediatype>
							<trackindex>1</trackindex>
							<clipindex>3</clipindex>
							<groupindex>1</groupindex>
						</link>
						<link>
							<linkclipref>clipitem-103</linkclipref>
							<mediatype>audio</mediatype>
							<trackindex>2</trackindex>
							<clipindex>3</clipindex>
							<groupindex>1</groupindex>
						</link>
						<logginginfo>
							<description />
							<scene />
							<shottake />
							<lognote />
							<good />
							<originalvideofilename />
							<originalaudiofilename />
						</logginginfo>
						<colorinfo>
							<lut />
							<lut1 />
							<asc_sop />
							<asc_sat />
							<lut2 />
						</colorinfo>
					<labels><label2>Caribbean</label2></labels></clipitem>
					<clipitem id="clipitem-86">
						<masterclipid>clipitem-2-4</masterclipid>
						<name>Taylor_Swift_Shares_The_Story_Of_Calling_Travis_Kelce_For_The_First_Time.mp4</name>
						<enabled>TRUE</enabled>
						<duration>150</duration>
						<rate>
							<timebase>25</timebase>
							<ntsc>FALSE</ntsc>
						</rate>
						<start>34950</start>
						<end>35100</end>
						<in>450</in>
						<out>600</out>
						<pproTicksIn>0</pproTicksIn>
						<pproTicksOut>236438092800000</pproTicksOut>
						<alphatype>none</alphatype>
						<pixelaspectratio>square</pixelaspectratio>
						<anamorphic>FALSE</anamorphic>
						<file id="file-30">
							<name>Taylor_Swift_Shares_The_Story_Of_Calling_Travis_Kelce_For_The_First_Time.mp4</name>
							<pathurl>file://localhost/Users/themalikano/Documents/VideoAutomation/premiere_videos/Taylor_Swift_Shares_The_Story_Of_Calling_Travis_Kelce_For_The_First_Time.mp4</pathurl>
							<rate>
								<timebase>30</timebase>
								<ntsc>TRUE</ntsc>
							</rate>
							<duration>27897</duration>
							<timecode>
								<rate>
									<timebase>30</timebase>
									<ntsc>TRUE</ntsc>
								</rate>
								<string>00:00:00:00</string>
								<frame>0</frame>
								<displayformat>NDF</displayformat>
							</timecode>
							<media>
								<video>
									<samplecharacteristics>
										<rate>
											<timebase>30</timebase>
											<ntsc>TRUE</ntsc>
										</rate>
										<width>1920</width>
										<height>1080</height>
										<anamorphic>FALSE</anamorphic>
										<pixelaspectratio>square</pixelaspectratio>
										<fielddominance>none</fielddominance>
									</samplecharacteristics>
								</video>
								<audio>
									<samplecharacteristics>
										<depth>16</depth>
										<samplerate>44100</samplerate>
									</samplecharacteristics>
									<channelcount>2</channelcount>
								</audio>
							</media>
						</file>
						<link>
							<linkclipref>clipitem-86</linkclipref>
							<mediatype>video</mediatype>
							<trackindex>1</trackindex>
							<clipindex>2</clipindex>
						</link>
						<link>
							<linkclipref>clipitem-94</linkclipref>
							<mediatype>audio</mediatype>
							<trackindex>1</trackindex>
							<clipindex>2</clipindex>
							<groupindex>1</groupindex>
						</link>
						<link>
							<linkclipref>clipitem-102</linkclipref>
							<mediatype>audio</mediatype>
							<trackindex>2</trackindex>
							<clipindex>2</clipindex>
							<groupindex>1</groupindex>
						</link>
						<logginginfo>
							<description />
							<scene />
							<shottake />
							<lognote />
							<good />
							<originalvideofilename />
							<originalaudiofilename />
						</logginginfo>
						<colorinfo>
							<lut />
							<lut1 />
							<asc_sop />
							<asc_sat />
							<lut2 />
						</colorinfo>
					<labels><label2>Iris</label2></labels></clipitem>
					<clipitem id="clipitem-87">
						<masterclipid>clipitem-3-245</masterclipid>
						<name>Taylor_Swift_Travis_Kelce_-_The_New_Power_Couple.mp4</name>
						<enabled>TRUE</enabled>
						<duration>150</duration>
						<rate>
							<timebase>25</timebase>
							<ntsc>FALSE</ntsc>
						</rate>
						<start>35100</start>
						<end>35250</end>
						<in>36600</in>
						<out>36750</out>
						<pproTicksIn>0</pproTicksIn>
						<pproTicksOut>875013995520000</pproTicksOut>
						<alphatype>none</alphatype>
						<pixelaspectratio>square</pixelaspectratio>
						<anamorphic>FALSE</anamorphic>
						<file id="file-31">
							<name>Taylor_Swift_Travis_Kelce_-_The_New_Power_Couple.mp4</name>
							<pathurl>file://localhost/Users/themalikano/Documents/VideoAutomation/premiere_videos/Taylor_Swift_Travis_Kelce_-_The_New_Power_Couple.mp4</pathurl>
							<rate>
								<timebase>25</timebase>
								<ntsc>FALSE</ntsc>
							</rate>
							<duration>86118</duration>
							<timecode>
								<rate>
									<timebase>25</timebase>
									<ntsc>FALSE</ntsc>
								</rate>
								<string>00:00:00:00</string>
								<frame>0</frame>
								<displayformat>NDF</displayformat>
							</timecode>
							<media>
								<video>
									<samplecharacteristics>
										<rate>
											<timebase>25</timebase>
											<ntsc>FALSE</ntsc>
										</rate>
										<width>1920</width>
										<height>1080</height>
										<anamorphic>FALSE</anamorphic>
										<pixelaspectratio>square</pixelaspectratio>
										<fielddominance>none</fielddominance>
									</samplecharacteristics>
								</video>
								<audio>
									<samplecharacteristics>
										<depth>16</depth>
										<samplerate>44100</samplerate>
									</samplecharacteristics>
									<channelcount>2</channelcount>
								</audio>
							</media>
						</file>
						<link>
							<linkclipref>clipitem-87</linkclipref>
							<mediatype>video</mediatype>
							<trackindex>1</trackindex>
							<clipindex>3</clipindex>
						</link>
						<link>
							<linkclipref>clipitem-95</linkclipref>
							<mediatype>audio</mediatype>
							<trackindex>1</trackindex>
							<clipindex>3</clipindex>
							<groupindex>1</groupindex>
						</link>
						<link>
							<linkclipref>clipitem-103</linkclipref>
							<mediatype>audio</mediatype>
							<trackindex>2</trackindex>
							<clipindex>3</clipindex>
							<groupindex>1</groupindex>
						</link>
						<logginginfo>
							<description />
							<scene />
							<shottake />
							<lognote />
							<good />
							<originalvideofilename />
							<originalaudiofilename />
						</logginginfo>
						<colorinfo>
							<lut />
							<lut1 />
							<asc_sop />
							<asc_sat />
							<lut2 />
						</colorinfo>
					<labels><label2>Caribbean</label2></labels></clipitem>
					<clipitem id="clipitem-88">
						<masterclipid>clipitem-4-151</masterclipid>
						<name>Travis_Kelce_ANNOUNCE_WEDDING_DATE_with_Taylor_Swift_Why_He_was_Delaying_all_Along.mp4</name>
						<enabled>TRUE</enabled>
						<duration>150</duration>
						<rate>
							<timebase>25</timebase>
							<ntsc>FALSE</ntsc>
						</rate>
						<start>35250</start>
						<end>35400</end>
						<in>22500</in>
						<out>22650</out>
						<pproTicksIn>0</pproTicksIn>
						<pproTicksOut>419410897920000</pproTicksOut>
						<alphatype>none</alphatype>
						<pixelaspectratio>square</pixelaspectratio>
						<anamorphic>FALSE</anamorphic>
						<file id="file-32">
							<name>Travis_Kelce_ANNOUNCE_WEDDING_DATE_with_Taylor_Swift_Why_He_was_Delaying_all_Along.mp4</name>
							<pathurl>file://localhost/Users/themalikano/Documents/VideoAutomation/premiere_videos/Travis_Kelce_ANNOUNCE_WEDDING_DATE_with_Taylor_Swift_Why_He_was_Delaying_all_Along.mp4</pathurl>
							<rate>
								<timebase>24</timebase>
								<ntsc>FALSE</ntsc>
							</rate>
							<duration>39627</duration>
							<timecode>
								<rate>
									<timebase>24</timebase>
									<ntsc>FALSE</ntsc>
								</rate>
								<string>00:00:00:00</string>
								<frame>0</frame>
								<displayformat>NDF</displayformat>
							</timecode>
							<media>
								<video>
									<samplecharacteristics>
										<rate>
											<timebase>24</timebase>
											<ntsc>FALSE</ntsc>
										</rate>
										<width>852</width>
										<height>480</height>
										<anamorphic>FALSE</anamorphic>
										<pixelaspectratio>square</pixelaspectratio>
										<fielddominance>none</fielddominance>
									</samplecharacteristics>
								</video>
								<audio>
									<samplecharacteristics>
										<depth>16</depth>
										<samplerate>44100</samplerate>
									</samplecharacteristics>
									<channelcount>2</channelcount>
								</audio>
							</media>
						</file>
						<filter>
							<effect>
								<name>Basic Motion</name>
								<effectid>basic</effectid>
								<effectcategory>motion</effectcategory>
								<effecttype>motion</effecttype>
								<mediatype>video</mediatype>
								<pproBypass>false</pproBypass>
								<parameter authoringApp="PremierePro">
									<parameterid>scale</parameterid>
									<name>Scale</name>
									<valuemin>0</valuemin>
									<valuemax>1000</valuemax>
									<value>225</value>
								</parameter>
								<parameter authoringApp="PremierePro">
									<parameterid>rotation</parameterid>
									<name>Rotation</name>
									<valuemin>-8640</valuemin>
									<valuemax>8640</valuemax>
									<value>0</value>
								</parameter>
								<parameter authoringApp="PremierePro">
									<parameterid>center</parameterid>
									<name>Center</name>
									<value>
										<horiz>0</horiz>
										<vert>0</vert>
									</value>
								</parameter>
								<parameter authoringApp="PremierePro">
									<parameterid>centerOffset</parameterid>
									<name>Anchor Point</name>
									<value>
										<horiz>0</horiz>
										<vert>0</vert>
									</value>
								</parameter>
								<parameter authoringApp="PremierePro">
									<parameterid>antiflicker</parameterid>
									<name>Anti-flicker Filter</name>
									<valuemin>0.0</valuemin>
									<valuemax>1.0</valuemax>
									<value>0</value>
								</parameter>
							</effect>
						</filter>
						<link>
							<linkclipref>clipitem-88</linkclipref>
							<mediatype>video</mediatype>
							<trackindex>1</trackindex>
							<clipindex>4</clipindex>
						</link>
						<link>
							<linkclipref>clipitem-96</linkclipref>
							<mediatype>audio</mediatype>
							<trackindex>1</trackindex>
							<clipindex>4</clipindex>
							<groupindex>1</groupindex>
						</link>
						<link>
							<linkclipref>clipitem-104</linkclipref>
							<mediatype>audio</mediatype>
							<trackindex>2</trackindex>
							<clipindex>4</clipindex>
							<groupindex>1</groupindex>
						</link>
						<logginginfo>
							<description />
							<scene />
							<shottake />
							<lognote />
							<good />
							<originalvideofilename />
							<originalaudiofilename />
						</logginginfo>
						<colorinfo>
							<lut />
							<lut1 />
							<asc_sop />
							<asc_sat />
							<lut2 />
						</colorinfo>
					<labels><label2>Lavender</label2></labels></clipitem>
					<clipitem id="clipitem-90">
						<masterclipid>clipitem-6-74</masterclipid>
						<name>Travis_Kelce_talks_about_postponing_his_wedding_to_Fiance_Taylor_Swift_on_the_New_Heights_Podcast.mp4</name>
						<enabled>TRUE</enabled>
						<duration>150</duration>
						<rate>
							<timebase>25</timebase>
							<ntsc>FALSE</ntsc>
						</rate>
						<start>35400</start>
						<end>35550</end>
						<in>10950</in>
						<out>11100</out>
						<pproTicksIn>0</pproTicksIn>
						<pproTicksOut>149391889920000</pproTicksOut>
						<alphatype>none</alphatype>
						<pixelaspectratio>square</pixelaspectratio>
						<anamorphic>FALSE</anamorphic>
						<file id="file-34">
							<name>Travis_Kelce_talks_about_postponing_his_wedding_to_Fiance_Taylor_Swift_on_the_New_Heights_Podcast.mp4</name>
							<pathurl>file://localhost/Users/themalikano/Documents/VideoAutomation/premiere_videos/Travis_Kelce_talks_about_postponing_his_wedding_to_Fiance_Taylor_Swift_on_the_New_Heights_Podcast.mp4</pathurl>
							<rate>
								<timebase>30</timebase>
								<ntsc>FALSE</ntsc>
							</rate>
							<duration>17644</duration>
							<timecode>
								<rate>
									<timebase>30</timebase>
									<ntsc>FALSE</ntsc>
								</rate>
								<string>00:00:00:00</string>
								<frame>0</frame>
								<displayformat>NDF</displayformat>
							</timecode>
							<media>
								<video>
									<samplecharacteristics>
										<rate>
											<timebase>30</timebase>
											<ntsc>FALSE</ntsc>
										</rate>
										<width>1920</width>
										<height>1080</height>
										<anamorphic>FALSE</anamorphic>
										<pixelaspectratio>square</pixelaspectratio>
										<fielddominance>none</fielddominance>
									</samplecharacteristics>
								</video>
								<audio>
									<samplecharacteristics>
										<depth>16</depth>
										<samplerate>44100</samplerate>
									</samplecharacteristics>
									<channelcount>2</channelcount>
								</audio>
							</media>
						</file>
						<link>
							<linkclipref>clipitem-90</linkclipref>
							<mediatype>video</mediatype>
							<trackindex>1</trackindex>
							<clipindex>6</clipindex>
						</link>
						<link>
							<linkclipref>clipitem-98</linkclipref>
							<mediatype>audio</mediatype>
							<trackindex>1</trackindex>
							<clipindex>6</clipindex>
							<groupindex>1</groupindex>
						</link>
						<link>
							<linkclipref>clipitem-106</linkclipref>
							<mediatype>audio</mediatype>
							<trackindex>2</trackindex>
							<clipindex>6</clipindex>
							<groupindex>1</groupindex>
						</link>
						<logginginfo>
							<description />
							<scene />
							<shottake />
							<lognote />
							<good />
							<originalvideofilename />
							<originalaudiofilename />
						</logginginfo>
						<colorinfo>
							<lut />
							<lut1 />
							<asc_sop />
							<asc_sat />
							<lut2 />
						</colorinfo>
					<labels><label2>Forest</label2></labels></clipitem>
					<clipitem id="clipitem-87">
						<masterclipid>clipitem-3-160</masterclipid>
						<name>Taylor_Swift_Travis_Kelce_-_The_New_Power_Couple.mp4</name>
						<enabled>TRUE</enabled>
						<duration>150</duration>
						<rate>
							<timebase>25</timebase>
							<ntsc>FALSE</ntsc>
						</rate>
						<start>35550</start>
						<end>35700</end>
						<in>23850</in>
						<out>24000</out>
						<pproTicksIn>0</pproTicksIn>
						<pproTicksOut>875013995520000</pproTicksOut>
						<alphatype>none</alphatype>
						<pixelaspectratio>square</pixelaspectratio>
						<anamorphic>FALSE</anamorphic>
						<file id="file-31">
							<name>Taylor_Swift_Travis_Kelce_-_The_New_Power_Couple.mp4</name>
							<pathurl>file://localhost/Users/themalikano/Documents/VideoAutomation/premiere_videos/Taylor_Swift_Travis_Kelce_-_The_New_Power_Couple.mp4</pathurl>
							<rate>
								<timebase>25</timebase>
								<ntsc>FALSE</ntsc>
							</rate>
							<duration>86118</duration>
							<timecode>
								<rate>
									<timebase>25</timebase>
									<ntsc>FALSE</ntsc>
								</rate>
								<string>00:00:00:00</string>
								<frame>0</frame>
								<displayformat>NDF</displayformat>
							</timecode>
							<media>
								<video>
									<samplecharacteristics>
										<rate>
											<timebase>25</timebase>
											<ntsc>FALSE</ntsc>
										</rate>
										<width>1920</width>
										<height>1080</height>
										<anamorphic>FALSE</anamorphic>
										<pixelaspectratio>square</pixelaspectratio>
										<fielddominance>none</fielddominance>
									</samplecharacteristics>
								</video>
								<audio>
									<samplecharacteristics>
										<depth>16</depth>
										<samplerate>44100</samplerate>
									</samplecharacteristics>
									<channelcount>2</channelcount>
								</audio>
							</media>
						</file>
						<link>
							<linkclipref>clipitem-87</linkclipref>
							<mediatype>video</mediatype>
							<trackindex>1</trackindex>
							<clipindex>3</clipindex>
						</link>
						<link>
							<linkclipref>clipitem-95</linkclipref>
							<mediatype>audio</mediatype>
							<trackindex>1</trackindex>
							<clipindex>3</clipindex>
							<groupindex>1</groupindex>
						</link>
						<link>
							<linkclipref>clipitem-103</linkclipref>
							<mediatype>audio</mediatype>
							<trackindex>2</trackindex>
							<clipindex>3</clipindex>
							<groupindex>1</groupindex>
						</link>
						<logginginfo>
							<description />
							<scene />
							<shottake />
							<lognote />
							<good />
							<originalvideofilename />
							<originalaudiofilename />
						</logginginfo>
						<colorinfo>
							<lut />
							<lut1 />
							<asc_sop />
							<asc_sat />
							<lut2 />
						</colorinfo>
					<labels><label2>Caribbean</label2></labels></clipitem>
					<clipitem id="clipitem-86">
						<masterclipid>clipitem-2-118</masterclipid>
						<name>Taylor_Swift_Shares_The_Story_Of_Calling_Travis_Kelce_For_The_First_Time.mp4</name>
						<enabled>TRUE</enabled>
						<duration>150</duration>
						<rate>
							<timebase>25</timebase>
							<ntsc>FALSE</ntsc>
						</rate>
						<start>35700</start>
						<end>35850</end>
						<in>17550</in>
						<out>17700</out>
						<pproTicksIn>0</pproTicksIn>
						<pproTicksOut>236438092800000</pproTicksOut>
						<alphatype>none</alphatype>
						<pixelaspectratio>square</pixelaspectratio>
						<anamorphic>FALSE</anamorphic>
						<file id="file-30">
							<name>Taylor_Swift_Shares_The_Story_Of_Calling_Travis_Kelce_For_The_First_Time.mp4</name>
							<pathurl>file://localhost/Users/themalikano/Documents/VideoAutomation/premiere_videos/Taylor_Swift_Shares_The_Story_Of_Calling_Travis_Kelce_For_The_First_Time.mp4</pathurl>
							<rate>
								<timebase>30</timebase>
								<ntsc>TRUE</ntsc>
							</rate>
							<duration>27897</duration>
							<timecode>
								<rate>
									<timebase>30</timebase>
									<ntsc>TRUE</ntsc>
								</rate>
								<string>00:00:00:00</string>
								<frame>0</frame>
								<displayformat>NDF</displayformat>
							</timecode>
							<media>
								<video>
									<samplecharacteristics>
										<rate>
											<timebase>30</timebase>
											<ntsc>TRUE</ntsc>
										</rate>
										<width>1920</width>
										<height>1080</height>
										<anamorphic>FALSE</anamorphic>
										<pixelaspectratio>square</pixelaspectratio>
										<fielddominance>none</fielddominance>
									</samplecharacteristics>
								</video>
								<audio>
									<samplecharacteristics>
										<depth>16</depth>
										<samplerate>44100</samplerate>
									</samplecharacteristics>
									<channelcount>2</channelcount>
								</audio>
							</media>
						</file>
						<link>
							<linkclipref>clipitem-86</linkclipref>
							<mediatype>video</mediatype>
							<trackindex>1</trackindex>
							<clipindex>2</clipindex>
						</link>
						<link>
							<linkclipref>clipitem-94</linkclipref>
							<mediatype>audio</mediatype>
							<trackindex>1</trackindex>
							<clipindex>2</clipindex>
							<groupindex>1</groupindex>
						</link>
						<link>
							<linkclipref>clipitem-102</linkclipref>
							<mediatype>audio</mediatype>
							<trackindex>2</trackindex>
							<clipindex>2</clipindex>
							<groupindex>1</groupindex>
						</link>
						<logginginfo>
							<description />
							<scene />
							<shottake />
							<lognote />
							<good />
							<originalvideofilename />
							<originalaudiofilename />
						</logginginfo>
						<colorinfo>
							<lut />
							<lut1 />
							<asc_sop />
							<asc_sat />
							<lut2 />
						</colorinfo>
					<labels><label2>Iris</label2></labels></clipitem>
					<clipitem id="clipitem-87">
						<masterclipid>clipitem-3-459</masterclipid>
						<name>Taylor_Swift_Travis_Kelce_-_The_New_Power_Couple.mp4</name>
						<enabled>TRUE</enabled>
						<duration>150</duration>
						<rate>
							<timebase>25</timebase>
							<ntsc>FALSE</ntsc>
						</rate>
						<start>35850</start>
						<end>36000</end>
						<in>68700</in>
						<out>68850</out>
						<pproTicksIn>0</pproTicksIn>
						<pproTicksOut>875013995520000</pproTicksOut>
						<alphatype>none</alphatype>
						<pixelaspectratio>square</pixelaspectratio>
						<anamorphic>FALSE</anamorphic>
						<file id="file-31">
							<name>Taylor_Swift_Travis_Kelce_-_The_New_Power_Couple.mp4</name>
							<pathurl>file://localhost/Users/themalikano/Documents/VideoAutomation/premiere_videos/Taylor_Swift_Travis_Kelce_-_The_New_Power_Couple.mp4</pathurl>
							<rate>
								<timebase>25</timebase>
								<ntsc>FALSE</ntsc>
							</rate>
							<duration>86118</duration>
							<timecode>
								<rate>
									<timebase>25</timebase>
									<ntsc>FALSE</ntsc>
								</rate>
								<string>00:00:00:00</string>
								<frame>0</frame>
								<displayformat>NDF</displayformat>
							</timecode>
							<media>
								<video>
									<samplecharacteristics>
										<rate>
											<timebase>25</timebase>
											<ntsc>FALSE</ntsc>
										</rate>
										<width>1920</width>
										<height>1080</height>
										<anamorphic>FALSE</anamorphic>
										<pixelaspectratio>square</pixelaspectratio>
										<fielddominance>none</fielddominance>
									</samplecharacteristics>
								</video>
								<audio>
									<samplecharacteristics>
										<depth>16</depth>
										<samplerate>44100</samplerate>
									</samplecharacteristics>
									<channelcount>2</channelcount>
								</audio>
							</media>
						</file>
						<link>
							<linkclipref>clipitem-87</linkclipref>
							<mediatype>video</mediatype>
							<trackindex>1</trackindex>
							<clipindex>3</clipindex>
						</link>
						<link>
							<linkclipref>clipitem-95</linkclipref>
							<mediatype>audio</mediatype>
							<trackindex>1</trackindex>
							<clipindex>3</clipindex>
							<groupindex>1</groupindex>
						</link>
						<link>
							<linkclipref>clipitem-103</linkclipref>
							<mediatype>audio</mediatype>
							<trackindex>2</trackindex>
							<clipindex>3</clipindex>
							<groupindex>1</groupindex>
						</link>
						<logginginfo>
							<description />
							<scene />
							<shottake />
							<lognote />
							<good />
							<originalvideofilename />
							<originalaudiofilename />
						</logginginfo>
						<colorinfo>
							<lut />
							<lut1 />
							<asc_sop />
							<asc_sat />
							<lut2 />
						</colorinfo>
					<labels><label2>Caribbean</label2></labels></clipitem>
					<clipitem id="clipitem-86">
						<masterclipid>clipitem-2-94</masterclipid>
						<name>Taylor_Swift_Shares_The_Story_Of_Calling_Travis_Kelce_For_The_First_Time.mp4</name>
						<enabled>TRUE</enabled>
						<duration>150</duration>
						<rate>
							<timebase>25</timebase>
							<ntsc>FALSE</ntsc>
						</rate>
						<start>36000</start>
						<end>36150</end>
						<in>13950</in>
						<out>14100</out>
						<pproTicksIn>0</pproTicksIn>
						<pproTicksOut>236438092800000</pproTicksOut>
						<alphatype>none</alphatype>
						<pixelaspectratio>square</pixelaspectratio>
						<anamorphic>FALSE</anamorphic>
						<file id="file-30">
							<name>Taylor_Swift_Shares_The_Story_Of_Calling_Travis_Kelce_For_The_First_Time.mp4</name>
							<pathurl>file://localhost/Users/themalikano/Documents/VideoAutomation/premiere_videos/Taylor_Swift_Shares_The_Story_Of_Calling_Travis_Kelce_For_The_First_Time.mp4</pathurl>
							<rate>
								<timebase>30</timebase>
								<ntsc>TRUE</ntsc>
							</rate>
							<duration>27897</duration>
							<timecode>
								<rate>
									<timebase>30</timebase>
									<ntsc>TRUE</ntsc>
								</rate>
								<string>00:00:00:00</string>
								<frame>0</frame>
								<displayformat>NDF</displayformat>
							</timecode>
							<media>
								<video>
									<samplecharacteristics>
										<rate>
											<timebase>30</timebase>
											<ntsc>TRUE</ntsc>
										</rate>
										<width>1920</width>
										<height>1080</height>
										<anamorphic>FALSE</anamorphic>
										<pixelaspectratio>square</pixelaspectratio>
										<fielddominance>none</fielddominance>
									</samplecharacteristics>
								</video>
								<audio>
									<samplecharacteristics>
										<depth>16</depth>
										<samplerate>44100</samplerate>
									</samplecharacteristics>
									<channelcount>2</channelcount>
								</audio>
							</media>
						</file>
						<link>
							<linkclipref>clipitem-86</linkclipref>
							<mediatype>video</mediatype>
							<trackindex>1</trackindex>
							<clipindex>2</clipindex>
						</link>
						<link>
							<linkclipref>clipitem-94</linkclipref>
							<mediatype>audio</mediatype>
							<trackindex>1</trackindex>
							<clipindex>2</clipindex>
							<groupindex>1</groupindex>
						</link>
						<link>
							<linkclipref>clipitem-102</linkclipref>
							<mediatype>audio</mediatype>
							<trackindex>2</trackindex>
							<clipindex>2</clipindex>
							<groupindex>1</groupindex>
						</link>
						<logginginfo>
							<description />
							<scene />
							<shottake />
							<lognote />
							<good />
							<originalvideofilename />
							<originalaudiofilename />
						</logginginfo>
						<colorinfo>
							<lut />
							<lut1 />
							<asc_sop />
							<asc_sat />
							<lut2 />
						</colorinfo>
					<labels><label2>Iris</label2></labels></clipitem>
					<clipitem id="clipitem-87">
						<masterclipid>clipitem-3-329</masterclipid>
						<name>Taylor_Swift_Travis_Kelce_-_The_New_Power_Couple.mp4</name>
						<enabled>TRUE</enabled>
						<duration>150</duration>
						<rate>
							<timebase>25</timebase>
							<ntsc>FALSE</ntsc>
						</rate>
						<start>36150</start>
						<end>36300</end>
						<in>49200</in>
						<out>49350</out>
						<pproTicksIn>0</pproTicksIn>
						<pproTicksOut>875013995520000</pproTicksOut>
						<alphatype>none</alphatype>
						<pixelaspectratio>square</pixelaspectratio>
						<anamorphic>FALSE</anamorphic>
						<file id="file-31">
							<name>Taylor_Swift_Travis_Kelce_-_The_New_Power_Couple.mp4</name>
							<pathurl>file://localhost/Users/themalikano/Documents/VideoAutomation/premiere_videos/Taylor_Swift_Travis_Kelce_-_The_New_Power_Couple.mp4</pathurl>
							<rate>
								<timebase>25</timebase>
								<ntsc>FALSE</ntsc>
							</rate>
							<duration>86118</duration>
							<timecode>
								<rate>
									<timebase>25</timebase>
									<ntsc>FALSE</ntsc>
								</rate>
								<string>00:00:00:00</string>
								<frame>0</frame>
								<displayformat>NDF</displayformat>
							</timecode>
							<media>
								<video>
									<samplecharacteristics>
										<rate>
											<timebase>25</timebase>
											<ntsc>FALSE</ntsc>
										</rate>
										<width>1920</width>
										<height>1080</height>
										<anamorphic>FALSE</anamorphic>
										<pixelaspectratio>square</pixelaspectratio>
										<fielddominance>none</fielddominance>
									</samplecharacteristics>
								</video>
								<audio>
									<samplecharacteristics>
										<depth>16</depth>
										<samplerate>44100</samplerate>
									</samplecharacteristics>
									<channelcount>2</channelcount>
								</audio>
							</media>
						</file>
						<link>
							<linkclipref>clipitem-87</linkclipref>
							<mediatype>video</mediatype>
							<trackindex>1</trackindex>
							<clipindex>3</clipindex>
						</link>
						<link>
							<linkclipref>clipitem-95</linkclipref>
							<mediatype>audio</mediatype>
							<trackindex>1</trackindex>
							<clipindex>3</clipindex>
							<groupindex>1</groupindex>
						</link>
						<link>
							<linkclipref>clipitem-103</linkclipref>
							<mediatype>audio</mediatype>
							<trackindex>2</trackindex>
							<clipindex>3</clipindex>
							<groupindex>1</groupindex>
						</link>
						<logginginfo>
							<description />
							<scene />
							<shottake />
							<lognote />
							<good />
							<originalvideofilename />
							<originalaudiofilename />
						</logginginfo>
						<colorinfo>
							<lut />
							<lut1 />
							<asc_sop />
							<asc_sat />
							<lut2 />
						</colorinfo>
					<labels><label2>Caribbean</label2></labels></clipitem>
					<clipitem id="clipitem-90">
						<masterclipid>clipitem-6-68</masterclipid>
						<name>Travis_Kelce_talks_about_postponing_his_wedding_to_Fiance_Taylor_Swift_on_the_New_Heights_Podcast.mp4</name>
						<enabled>TRUE</enabled>
						<duration>150</duration>
						<rate>
							<timebase>25</timebase>
							<ntsc>FALSE</ntsc>
						</rate>
						<start>36300</start>
						<end>36450</end>
						<in>10050</in>
						<out>10200</out>
						<pproTicksIn>0</pproTicksIn>
						<pproTicksOut>149391889920000</pproTicksOut>
						<alphatype>none</alphatype>
						<pixelaspectratio>square</pixelaspectratio>
						<anamorphic>FALSE</anamorphic>
						<file id="file-34">
							<name>Travis_Kelce_talks_about_postponing_his_wedding_to_Fiance_Taylor_Swift_on_the_New_Heights_Podcast.mp4</name>
							<pathurl>file://localhost/Users/themalikano/Documents/VideoAutomation/premiere_videos/Travis_Kelce_talks_about_postponing_his_wedding_to_Fiance_Taylor_Swift_on_the_New_Heights_Podcast.mp4</pathurl>
							<rate>
								<timebase>30</timebase>
								<ntsc>FALSE</ntsc>
							</rate>
							<duration>17644</duration>
							<timecode>
								<rate>
									<timebase>30</timebase>
									<ntsc>FALSE</ntsc>
								</rate>
								<string>00:00:00:00</string>
								<frame>0</frame>
								<displayformat>NDF</displayformat>
							</timecode>
							<media>
								<video>
									<samplecharacteristics>
										<rate>
											<timebase>30</timebase>
											<ntsc>FALSE</ntsc>
										</rate>
										<width>1920</width>
										<height>1080</height>
										<anamorphic>FALSE</anamorphic>
										<pixelaspectratio>square</pixelaspectratio>
										<fielddominance>none</fielddominance>
									</samplecharacteristics>
								</video>
								<audio>
									<samplecharacteristics>
										<depth>16</depth>
										<samplerate>44100</samplerate>
									</samplecharacteristics>
									<channelcount>2</channelcount>
								</audio>
							</media>
						</file>
						<link>
							<linkclipref>clipitem-90</linkclipref>
							<mediatype>video</mediatype>
							<trackindex>1</trackindex>
							<clipindex>6</clipindex>
						</link>
						<link>
							<linkclipref>clipitem-98</linkclipref>
							<mediatype>audio</mediatype>
							<trackindex>1</trackindex>
							<clipindex>6</clipindex>
							<groupindex>1</groupindex>
						</link>
						<link>
							<linkclipref>clipitem-106</linkclipref>
							<mediatype>audio</mediatype>
							<trackindex>2</trackindex>
							<clipindex>6</clipindex>
							<groupindex>1</groupindex>
						</link>
						<logginginfo>
							<description />
							<scene />
							<shottake />
							<lognote />
							<good />
							<originalvideofilename />
							<originalaudiofilename />
						</logginginfo>
						<colorinfo>
							<lut />
							<lut1 />
							<asc_sop />
							<asc_sat />
							<lut2 />
						</colorinfo>
					<labels><label2>Forest</label2></labels></clipitem>
					<clipitem id="clipitem-87">
						<masterclipid>clipitem-3-206</masterclipid>
						<name>Taylor_Swift_Travis_Kelce_-_The_New_Power_Couple.mp4</name>
						<enabled>TRUE</enabled>
						<duration>150</duration>
						<rate>
							<timebase>25</timebase>
							<ntsc>FALSE</ntsc>
						</rate>
						<start>36450</start>
						<end>36600</end>
						<in>30750</in>
						<out>30900</out>
						<pproTicksIn>0</pproTicksIn>
						<pproTicksOut>875013995520000</pproTicksOut>
						<alphatype>none</alphatype>
						<pixelaspectratio>square</pixelaspectratio>
						<anamorphic>FALSE</anamorphic>
						<file id="file-31">
							<name>Taylor_Swift_Travis_Kelce_-_The_New_Power_Couple.mp4</name>
							<pathurl>file://localhost/Users/themalikano/Documents/VideoAutomation/premiere_videos/Taylor_Swift_Travis_Kelce_-_The_New_Power_Couple.mp4</pathurl>
							<rate>
								<timebase>25</timebase>
								<ntsc>FALSE</ntsc>
							</rate>
							<duration>86118</duration>
							<timecode>
								<rate>
									<timebase>25</timebase>
									<ntsc>FALSE</ntsc>
								</rate>
								<string>00:00:00:00</string>
								<frame>0</frame>
								<displayformat>NDF</displayformat>
							</timecode>
							<media>
								<video>
									<samplecharacteristics>
										<rate>
											<timebase>25</timebase>
											<ntsc>FALSE</ntsc>
										</rate>
										<width>1920</width>
										<height>1080</height>
										<anamorphic>FALSE</anamorphic>
										<pixelaspectratio>square</pixelaspectratio>
										<fielddominance>none</fielddominance>
									</samplecharacteristics>
								</video>
								<audio>
									<samplecharacteristics>
										<depth>16</depth>
										<samplerate>44100</samplerate>
									</samplecharacteristics>
									<channelcount>2</channelcount>
								</audio>
							</media>
						</file>
						<link>
							<linkclipref>clipitem-87</linkclipref>
							<mediatype>video</mediatype>
							<trackindex>1</trackindex>
							<clipindex>3</clipindex>
						</link>
						<link>
							<linkclipref>clipitem-95</linkclipref>
							<mediatype>audio</mediatype>
							<trackindex>1</trackindex>
							<clipindex>3</clipindex>
							<groupindex>1</groupindex>
						</link>
						<link>
							<linkclipref>clipitem-103</linkclipref>
							<mediatype>audio</mediatype>
							<trackindex>2</trackindex>
							<clipindex>3</clipindex>
							<groupindex>1</groupindex>
						</link>
						<logginginfo>
							<description />
							<scene />
							<shottake />
							<lognote />
							<good />
							<originalvideofilename />
							<originalaudiofilename />
						</logginginfo>
						<colorinfo>
							<lut />
							<lut1 />
							<asc_sop />
							<asc_sat />
							<lut2 />
						</colorinfo>
					<labels><label2>Caribbean</label2></labels></clipitem>
					<clipitem id="clipitem-86">
						<masterclipid>clipitem-2-62</masterclipid>
						<name>Taylor_Swift_Shares_The_Story_Of_Calling_Travis_Kelce_For_The_First_Time.mp4</name>
						<enabled>TRUE</enabled>
						<duration>150</duration>
						<rate>
							<timebase>25</timebase>
							<ntsc>FALSE</ntsc>
						</rate>
						<start>36600</start>
						<end>36750</end>
						<in>9150</in>
						<out>9300</out>
						<pproTicksIn>0</pproTicksIn>
						<pproTicksOut>236438092800000</pproTicksOut>
						<alphatype>none</alphatype>
						<pixelaspectratio>square</pixelaspectratio>
						<anamorphic>FALSE</anamorphic>
						<file id="file-30">
							<name>Taylor_Swift_Shares_The_Story_Of_Calling_Travis_Kelce_For_The_First_Time.mp4</name>
							<pathurl>file://localhost/Users/themalikano/Documents/VideoAutomation/premiere_videos/Taylor_Swift_Shares_The_Story_Of_Calling_Travis_Kelce_For_The_First_Time.mp4</pathurl>
							<rate>
								<timebase>30</timebase>
								<ntsc>TRUE</ntsc>
							</rate>
							<duration>27897</duration>
							<timecode>
								<rate>
									<timebase>30</timebase>
									<ntsc>TRUE</ntsc>
								</rate>
								<string>00:00:00:00</string>
								<frame>0</frame>
								<displayformat>NDF</displayformat>
							</timecode>
							<media>
								<video>
									<samplecharacteristics>
										<rate>
											<timebase>30</timebase>
											<ntsc>TRUE</ntsc>
										</rate>
										<width>1920</width>
										<height>1080</height>
										<anamorphic>FALSE</anamorphic>
										<pixelaspectratio>square</pixelaspectratio>
										<fielddominance>none</fielddominance>
									</samplecharacteristics>
								</video>
								<audio>
									<samplecharacteristics>
										<depth>16</depth>
										<samplerate>44100</samplerate>
									</samplecharacteristics>
									<channelcount>2</channelcount>
								</audio>
							</media>
						</file>
						<link>
							<linkclipref>clipitem-86</linkclipref>
							<mediatype>video</mediatype>
							<trackindex>1</trackindex>
							<clipindex>2</clipindex>
						</link>
						<link>
							<linkclipref>clipitem-94</linkclipref>
							<mediatype>audio</mediatype>
							<trackindex>1</trackindex>
							<clipindex>2</clipindex>
							<groupindex>1</groupindex>
						</link>
						<link>
							<linkclipref>clipitem-102</linkclipref>
							<mediatype>audio</mediatype>
							<trackindex>2</trackindex>
							<clipindex>2</clipindex>
							<groupindex>1</groupindex>
						</link>
						<logginginfo>
							<description />
							<scene />
							<shottake />
							<lognote />
							<good />
							<originalvideofilename />
							<originalaudiofilename />
						</logginginfo>
						<colorinfo>
							<lut />
							<lut1 />
							<asc_sop />
							<asc_sat />
							<lut2 />
						</colorinfo>
					<labels><label2>Iris</label2></labels></clipitem>
					<clipitem id="clipitem-87">
						<masterclipid>clipitem-3-13</masterclipid>
						<name>Taylor_Swift_Travis_Kelce_-_The_New_Power_Couple.mp4</name>
						<enabled>TRUE</enabled>
						<duration>150</duration>
						<rate>
							<timebase>25</timebase>
							<ntsc>FALSE</ntsc>
						</rate>
						<start>36750</start>
						<end>36900</end>
						<in>1800</in>
						<out>1950</out>
						<pproTicksIn>0</pproTicksIn>
						<pproTicksOut>875013995520000</pproTicksOut>
						<alphatype>none</alphatype>
						<pixelaspectratio>square</pixelaspectratio>
						<anamorphic>FALSE</anamorphic>
						<file id="file-31">
							<name>Taylor_Swift_Travis_Kelce_-_The_New_Power_Couple.mp4</name>
							<pathurl>file://localhost/Users/themalikano/Documents/VideoAutomation/premiere_videos/Taylor_Swift_Travis_Kelce_-_The_New_Power_Couple.mp4</pathurl>
							<rate>
								<timebase>25</timebase>
								<ntsc>FALSE</ntsc>
							</rate>
							<duration>86118</duration>
							<timecode>
								<rate>
									<timebase>25</timebase>
									<ntsc>FALSE</ntsc>
								</rate>
								<string>00:00:00:00</string>
								<frame>0</frame>
								<displayformat>NDF</displayformat>
							</timecode>
							<media>
								<video>
									<samplecharacteristics>
										<rate>
											<timebase>25</timebase>
											<ntsc>FALSE</ntsc>
										</rate>
										<width>1920</width>
										<height>1080</height>
										<anamorphic>FALSE</anamorphic>
										<pixelaspectratio>square</pixelaspectratio>
										<fielddominance>none</fielddominance>
									</samplecharacteristics>
								</video>
								<audio>
									<samplecharacteristics>
										<depth>16</depth>
										<samplerate>44100</samplerate>
									</samplecharacteristics>
									<channelcount>2</channelcount>
								</audio>
							</media>
						</file>
						<link>
							<linkclipref>clipitem-87</linkclipref>
							<mediatype>video</mediatype>
							<trackindex>1</trackindex>
							<clipindex>3</clipindex>
						</link>
						<link>
							<linkclipref>clipitem-95</linkclipref>
							<mediatype>audio</mediatype>
							<trackindex>1</trackindex>
							<clipindex>3</clipindex>
							<groupindex>1</groupindex>
						</link>
						<link>
							<linkclipref>clipitem-103</linkclipref>
							<mediatype>audio</mediatype>
							<trackindex>2</trackindex>
							<clipindex>3</clipindex>
							<groupindex>1</groupindex>
						</link>
						<logginginfo>
							<description />
							<scene />
							<shottake />
							<lognote />
							<good />
							<originalvideofilename />
							<originalaudiofilename />
						</logginginfo>
						<colorinfo>
							<lut />
							<lut1 />
							<asc_sop />
							<asc_sat />
							<lut2 />
						</colorinfo>
					<labels><label2>Caribbean</label2></labels></clipitem>
					<clipitem id="clipitem-88">
						<masterclipid>clipitem-4-118</masterclipid>
						<name>Travis_Kelce_ANNOUNCE_WEDDING_DATE_with_Taylor_Swift_Why_He_was_Delaying_all_Along.mp4</name>
						<enabled>TRUE</enabled>
						<duration>150</duration>
						<rate>
							<timebase>25</timebase>
							<ntsc>FALSE</ntsc>
						</rate>
						<start>36900</start>
						<end>37050</end>
						<in>17550</in>
						<out>17700</out>
						<pproTicksIn>0</pproTicksIn>
						<pproTicksOut>419410897920000</pproTicksOut>
						<alphatype>none</alphatype>
						<pixelaspectratio>square</pixelaspectratio>
						<anamorphic>FALSE</anamorphic>
						<file id="file-32">
							<name>Travis_Kelce_ANNOUNCE_WEDDING_DATE_with_Taylor_Swift_Why_He_was_Delaying_all_Along.mp4</name>
							<pathurl>file://localhost/Users/themalikano/Documents/VideoAutomation/premiere_videos/Travis_Kelce_ANNOUNCE_WEDDING_DATE_with_Taylor_Swift_Why_He_was_Delaying_all_Along.mp4</pathurl>
							<rate>
								<timebase>24</timebase>
								<ntsc>FALSE</ntsc>
							</rate>
							<duration>39627</duration>
							<timecode>
								<rate>
									<timebase>24</timebase>
									<ntsc>FALSE</ntsc>
								</rate>
								<string>00:00:00:00</string>
								<frame>0</frame>
								<displayformat>NDF</displayformat>
							</timecode>
							<media>
								<video>
									<samplecharacteristics>
										<rate>
											<timebase>24</timebase>
											<ntsc>FALSE</ntsc>
										</rate>
										<width>852</width>
										<height>480</height>
										<anamorphic>FALSE</anamorphic>
										<pixelaspectratio>square</pixelaspectratio>
										<fielddominance>none</fielddominance>
									</samplecharacteristics>
								</video>
								<audio>
									<samplecharacteristics>
										<depth>16</depth>
										<samplerate>44100</samplerate>
									</samplecharacteristics>
									<channelcount>2</channelcount>
								</audio>
							</media>
						</file>
						<filter>
							<effect>
								<name>Basic Motion</name>
								<effectid>basic</effectid>
								<effectcategory>motion</effectcategory>
								<effecttype>motion</effecttype>
								<mediatype>video</mediatype>
								<pproBypass>false</pproBypass>
								<parameter authoringApp="PremierePro">
									<parameterid>scale</parameterid>
									<name>Scale</name>
									<valuemin>0</valuemin>
									<valuemax>1000</valuemax>
									<value>225</value>
								</parameter>
								<parameter authoringApp="PremierePro">
									<parameterid>rotation</parameterid>
									<name>Rotation</name>
									<valuemin>-8640</valuemin>
									<valuemax>8640</valuemax>
									<value>0</value>
								</parameter>
								<parameter authoringApp="PremierePro">
									<parameterid>center</parameterid>
									<name>Center</name>
									<value>
										<horiz>0</horiz>
										<vert>0</vert>
									</value>
								</parameter>
								<parameter authoringApp="PremierePro">
									<parameterid>centerOffset</parameterid>
									<name>Anchor Point</name>
									<value>
										<horiz>0</horiz>
										<vert>0</vert>
									</value>
								</parameter>
								<parameter authoringApp="PremierePro">
									<parameterid>antiflicker</parameterid>
									<name>Anti-flicker Filter</name>
									<valuemin>0.0</valuemin>
									<valuemax>1.0</valuemax>
									<value>0</value>
								</parameter>
							</effect>
						</filter>
						<link>
							<linkclipref>clipitem-88</linkclipref>
							<mediatype>video</mediatype>
							<trackindex>1</trackindex>
							<clipindex>4</clipindex>
						</link>
						<link>
							<linkclipref>clipitem-96</linkclipref>
							<mediatype>audio</mediatype>
							<trackindex>1</trackindex>
							<clipindex>4</clipindex>
							<groupindex>1</groupindex>
						</link>
						<link>
							<linkclipref>clipitem-104</linkclipref>
							<mediatype>audio</mediatype>
							<trackindex>2</trackindex>
							<clipindex>4</clipindex>
							<groupindex>1</groupindex>
						</link>
						<logginginfo>
							<description />
							<scene />
							<shottake />
							<lognote />
							<good />
							<originalvideofilename />
							<originalaudiofilename />
						</logginginfo>
						<colorinfo>
							<lut />
							<lut1 />
							<asc_sop />
							<asc_sat />
							<lut2 />
						</colorinfo>
					<labels><label2>Lavender</label2></labels></clipitem>
					<clipitem id="clipitem-87">
						<masterclipid>clipitem-3-235</masterclipid>
						<name>Taylor_Swift_Travis_Kelce_-_The_New_Power_Couple.mp4</name>
						<enabled>TRUE</enabled>
						<duration>150</duration>
						<rate>
							<timebase>25</timebase>
							<ntsc>FALSE</ntsc>
						</rate>
						<start>37050</start>
						<end>37200</end>
						<in>35100</in>
						<out>35250</out>
						<pproTicksIn>0</pproTicksIn>
						<pproTicksOut>875013995520000</pproTicksOut>
						<alphatype>none</alphatype>
						<pixelaspectratio>square</pixelaspectratio>
						<anamorphic>FALSE</anamorphic>
						<file id="file-31">
							<name>Taylor_Swift_Travis_Kelce_-_The_New_Power_Couple.mp4</name>
							<pathurl>file://localhost/Users/themalikano/Documents/VideoAutomation/premiere_videos/Taylor_Swift_Travis_Kelce_-_The_New_Power_Couple.mp4</pathurl>
							<rate>
								<timebase>25</timebase>
								<ntsc>FALSE</ntsc>
							</rate>
							<duration>86118</duration>
							<timecode>
								<rate>
									<timebase>25</timebase>
									<ntsc>FALSE</ntsc>
								</rate>
								<string>00:00:00:00</string>
								<frame>0</frame>
								<displayformat>NDF</displayformat>
							</timecode>
							<media>
								<video>
									<samplecharacteristics>
										<rate>
											<timebase>25</timebase>
											<ntsc>FALSE</ntsc>
										</rate>
										<width>1920</width>
										<height>1080</height>
										<anamorphic>FALSE</anamorphic>
										<pixelaspectratio>square</pixelaspectratio>
										<fielddominance>none</fielddominance>
									</samplecharacteristics>
								</video>
								<audio>
									<samplecharacteristics>
										<depth>16</depth>
										<samplerate>44100</samplerate>
									</samplecharacteristics>
									<channelcount>2</channelcount>
								</audio>
							</media>
						</file>
						<link>
							<linkclipref>clipitem-87</linkclipref>
							<mediatype>video</mediatype>
							<trackindex>1</trackindex>
							<clipindex>3</clipindex>
						</link>
						<link>
							<linkclipref>clipitem-95</linkclipref>
							<mediatype>audio</mediatype>
							<trackindex>1</trackindex>
							<clipindex>3</clipindex>
							<groupindex>1</groupindex>
						</link>
						<link>
							<linkclipref>clipitem-103</linkclipref>
							<mediatype>audio</mediatype>
							<trackindex>2</trackindex>
							<clipindex>3</clipindex>
							<groupindex>1</groupindex>
						</link>
						<logginginfo>
							<description />
							<scene />
							<shottake />
							<lognote />
							<good />
							<originalvideofilename />
							<originalaudiofilename />
						</logginginfo>
						<colorinfo>
							<lut />
							<lut1 />
							<asc_sop />
							<asc_sat />
							<lut2 />
						</colorinfo>
					<labels><label2>Caribbean</label2></labels></clipitem>
					<clipitem id="clipitem-86">
						<masterclipid>clipitem-2-85</masterclipid>
						<name>Taylor_Swift_Shares_The_Story_Of_Calling_Travis_Kelce_For_The_First_Time.mp4</name>
						<enabled>TRUE</enabled>
						<duration>150</duration>
						<rate>
							<timebase>25</timebase>
							<ntsc>FALSE</ntsc>
						</rate>
						<start>37200</start>
						<end>37350</end>
						<in>12600</in>
						<out>12750</out>
						<pproTicksIn>0</pproTicksIn>
						<pproTicksOut>236438092800000</pproTicksOut>
						<alphatype>none</alphatype>
						<pixelaspectratio>square</pixelaspectratio>
						<anamorphic>FALSE</anamorphic>
						<file id="file-30">
							<name>Taylor_Swift_Shares_The_Story_Of_Calling_Travis_Kelce_For_The_First_Time.mp4</name>
							<pathurl>file://localhost/Users/themalikano/Documents/VideoAutomation/premiere_videos/Taylor_Swift_Shares_The_Story_Of_Calling_Travis_Kelce_For_The_First_Time.mp4</pathurl>
							<rate>
								<timebase>30</timebase>
								<ntsc>TRUE</ntsc>
							</rate>
							<duration>27897</duration>
							<timecode>
								<rate>
									<timebase>30</timebase>
									<ntsc>TRUE</ntsc>
								</rate>
								<string>00:00:00:00</string>
								<frame>0</frame>
								<displayformat>NDF</displayformat>
							</timecode>
							<media>
								<video>
									<samplecharacteristics>
										<rate>
											<timebase>30</timebase>
											<ntsc>TRUE</ntsc>
										</rate>
										<width>1920</width>
										<height>1080</height>
										<anamorphic>FALSE</anamorphic>
										<pixelaspectratio>square</pixelaspectratio>
										<fielddominance>none</fielddominance>
									</samplecharacteristics>
								</video>
								<audio>
									<samplecharacteristics>
										<depth>16</depth>
										<samplerate>44100</samplerate>
									</samplecharacteristics>
									<channelcount>2</channelcount>
								</audio>
							</media>
						</file>
						<link>
							<linkclipref>clipitem-86</linkclipref>
							<mediatype>video</mediatype>
							<trackindex>1</trackindex>
							<clipindex>2</clipindex>
						</link>
						<link>
							<linkclipref>clipitem-94</linkclipref>
							<mediatype>audio</mediatype>
							<trackindex>1</trackindex>
							<clipindex>2</clipindex>
							<groupindex>1</groupindex>
						</link>
						<link>
							<linkclipref>clipitem-102</linkclipref>
							<mediatype>audio</mediatype>
							<trackindex>2</trackindex>
							<clipindex>2</clipindex>
							<groupindex>1</groupindex>
						</link>
						<logginginfo>
							<description />
							<scene />
							<shottake />
							<lognote />
							<good />
							<originalvideofilename />
							<originalaudiofilename />
						</logginginfo>
						<colorinfo>
							<lut />
							<lut1 />
							<asc_sop />
							<asc_sat />
							<lut2 />
						</colorinfo>
					<labels><label2>Iris</label2></labels></clipitem>
					<clipitem id="clipitem-87">
						<masterclipid>clipitem-3-498</masterclipid>
						<name>Taylor_Swift_Travis_Kelce_-_The_New_Power_Couple.mp4</name>
						<enabled>TRUE</enabled>
						<duration>150</duration>
						<rate>
							<timebase>25</timebase>
							<ntsc>FALSE</ntsc>
						</rate>
						<start>37350</start>
						<end>37500</end>
						<in>74550</in>
						<out>74700</out>
						<pproTicksIn>0</pproTicksIn>
						<pproTicksOut>875013995520000</pproTicksOut>
						<alphatype>none</alphatype>
						<pixelaspectratio>square</pixelaspectratio>
						<anamorphic>FALSE</anamorphic>
						<file id="file-31">
							<name>Taylor_Swift_Travis_Kelce_-_The_New_Power_Couple.mp4</name>
							<pathurl>file://localhost/Users/themalikano/Documents/VideoAutomation/premiere_videos/Taylor_Swift_Travis_Kelce_-_The_New_Power_Couple.mp4</pathurl>
							<rate>
								<timebase>25</timebase>
								<ntsc>FALSE</ntsc>
							</rate>
							<duration>86118</duration>
							<timecode>
								<rate>
									<timebase>25</timebase>
									<ntsc>FALSE</ntsc>
								</rate>
								<string>00:00:00:00</string>
								<frame>0</frame>
								<displayformat>NDF</displayformat>
							</timecode>
							<media>
								<video>
									<samplecharacteristics>
										<rate>
											<timebase>25</timebase>
											<ntsc>FALSE</ntsc>
										</rate>
										<width>1920</width>
										<height>1080</height>
										<anamorphic>FALSE</anamorphic>
										<pixelaspectratio>square</pixelaspectratio>
										<fielddominance>none</fielddominance>
									</samplecharacteristics>
								</video>
								<audio>
									<samplecharacteristics>
										<depth>16</depth>
										<samplerate>44100</samplerate>
									</samplecharacteristics>
									<channelcount>2</channelcount>
								</audio>
							</media>
						</file>
						<link>
							<linkclipref>clipitem-87</linkclipref>
							<mediatype>video</mediatype>
							<trackindex>1</trackindex>
							<clipindex>3</clipindex>
						</link>
						<link>
							<linkclipref>clipitem-95</linkclipref>
							<mediatype>audio</mediatype>
							<trackindex>1</trackindex>
							<clipindex>3</clipindex>
							<groupindex>1</groupindex>
						</link>
						<link>
							<linkclipref>clipitem-103</linkclipref>
							<mediatype>audio</mediatype>
							<trackindex>2</trackindex>
							<clipindex>3</clipindex>
							<groupindex>1</groupindex>
						</link>
						<logginginfo>
							<description />
							<scene />
							<shottake />
							<lognote />
							<good />
							<originalvideofilename />
							<originalaudiofilename />
						</logginginfo>
						<colorinfo>
							<lut />
							<lut1 />
							<asc_sop />
							<asc_sat />
							<lut2 />
						</colorinfo>
					<labels><label2>Caribbean</label2></labels></clipitem>
					<clipitem id="clipitem-86">
						<masterclipid>clipitem-2-74</masterclipid>
						<name>Taylor_Swift_Shares_The_Story_Of_Calling_Travis_Kelce_For_The_First_Time.mp4</name>
						<enabled>TRUE</enabled>
						<duration>150</duration>
						<rate>
							<timebase>25</timebase>
							<ntsc>FALSE</ntsc>
						</rate>
						<start>37500</start>
						<end>37650</end>
						<in>10950</in>
						<out>11100</out>
						<pproTicksIn>0</pproTicksIn>
						<pproTicksOut>236438092800000</pproTicksOut>
						<alphatype>none</alphatype>
						<pixelaspectratio>square</pixelaspectratio>
						<anamorphic>FALSE</anamorphic>
						<file id="file-30">
							<name>Taylor_Swift_Shares_The_Story_Of_Calling_Travis_Kelce_For_The_First_Time.mp4</name>
							<pathurl>file://localhost/Users/themalikano/Documents/VideoAutomation/premiere_videos/Taylor_Swift_Shares_The_Story_Of_Calling_Travis_Kelce_For_The_First_Time.mp4</pathurl>
							<rate>
								<timebase>30</timebase>
								<ntsc>TRUE</ntsc>
							</rate>
							<duration>27897</duration>
							<timecode>
								<rate>
									<timebase>30</timebase>
									<ntsc>TRUE</ntsc>
								</rate>
								<string>00:00:00:00</string>
								<frame>0</frame>
								<displayformat>NDF</displayformat>
							</timecode>
							<media>
								<video>
									<samplecharacteristics>
										<rate>
											<timebase>30</timebase>
											<ntsc>TRUE</ntsc>
										</rate>
										<width>1920</width>
										<height>1080</height>
										<anamorphic>FALSE</anamorphic>
										<pixelaspectratio>square</pixelaspectratio>
										<fielddominance>none</fielddominance>
									</samplecharacteristics>
								</video>
								<audio>
									<samplecharacteristics>
										<depth>16</depth>
										<samplerate>44100</samplerate>
									</samplecharacteristics>
									<channelcount>2</channelcount>
								</audio>
							</media>
						</file>
						<link>
							<linkclipref>clipitem-86</linkclipref>
							<mediatype>video</mediatype>
							<trackindex>1</trackindex>
							<clipindex>2</clipindex>
						</link>
						<link>
							<linkclipref>clipitem-94</linkclipref>
							<mediatype>audio</mediatype>
							<trackindex>1</trackindex>
							<clipindex>2</clipindex>
							<groupindex>1</groupindex>
						</link>
						<link>
							<linkclipref>clipitem-102</linkclipref>
							<mediatype>audio</mediatype>
							<trackindex>2</trackindex>
							<clipindex>2</clipindex>
							<groupindex>1</groupindex>
						</link>
						<logginginfo>
							<description />
							<scene />
							<shottake />
							<lognote />
							<good />
							<originalvideofilename />
							<originalaudiofilename />
						</logginginfo>
						<colorinfo>
							<lut />
							<lut1 />
							<asc_sop />
							<asc_sat />
							<lut2 />
						</colorinfo>
					<labels><label2>Iris</label2></labels></clipitem>
					<clipitem id="clipitem-90">
						<masterclipid>clipitem-6-49</masterclipid>
						<name>Travis_Kelce_talks_about_postponing_his_wedding_to_Fiance_Taylor_Swift_on_the_New_Heights_Podcast.mp4</name>
						<enabled>TRUE</enabled>
						<duration>150</duration>
						<rate>
							<timebase>25</timebase>
							<ntsc>FALSE</ntsc>
						</rate>
						<start>37650</start>
						<end>37800</end>
						<in>7200</in>
						<out>7350</out>
						<pproTicksIn>0</pproTicksIn>
						<pproTicksOut>149391889920000</pproTicksOut>
						<alphatype>none</alphatype>
						<pixelaspectratio>square</pixelaspectratio>
						<anamorphic>FALSE</anamorphic>
						<file id="file-34">
							<name>Travis_Kelce_talks_about_postponing_his_wedding_to_Fiance_Taylor_Swift_on_the_New_Heights_Podcast.mp4</name>
							<pathurl>file://localhost/Users/themalikano/Documents/VideoAutomation/premiere_videos/Travis_Kelce_talks_about_postponing_his_wedding_to_Fiance_Taylor_Swift_on_the_New_Heights_Podcast.mp4</pathurl>
							<rate>
								<timebase>30</timebase>
								<ntsc>FALSE</ntsc>
							</rate>
							<duration>17644</duration>
							<timecode>
								<rate>
									<timebase>30</timebase>
									<ntsc>FALSE</ntsc>
								</rate>
								<string>00:00:00:00</string>
								<frame>0</frame>
								<displayformat>NDF</displayformat>
							</timecode>
							<media>
								<video>
									<samplecharacteristics>
										<rate>
											<timebase>30</timebase>
											<ntsc>FALSE</ntsc>
										</rate>
										<width>1920</width>
										<height>1080</height>
										<anamorphic>FALSE</anamorphic>
										<pixelaspectratio>square</pixelaspectratio>
										<fielddominance>none</fielddominance>
									</samplecharacteristics>
								</video>
								<audio>
									<samplecharacteristics>
										<depth>16</depth>
										<samplerate>44100</samplerate>
									</samplecharacteristics>
									<channelcount>2</channelcount>
								</audio>
							</media>
						</file>
						<link>
							<linkclipref>clipitem-90</linkclipref>
							<mediatype>video</mediatype>
							<trackindex>1</trackindex>
							<clipindex>6</clipindex>
						</link>
						<link>
							<linkclipref>clipitem-98</linkclipref>
							<mediatype>audio</mediatype>
							<trackindex>1</trackindex>
							<clipindex>6</clipindex>
							<groupindex>1</groupindex>
						</link>
						<link>
							<linkclipref>clipitem-106</linkclipref>
							<mediatype>audio</mediatype>
							<trackindex>2</trackindex>
							<clipindex>6</clipindex>
							<groupindex>1</groupindex>
						</link>
						<logginginfo>
							<description />
							<scene />
							<shottake />
							<lognote />
							<good />
							<originalvideofilename />
							<originalaudiofilename />
						</logginginfo>
						<colorinfo>
							<lut />
							<lut1 />
							<asc_sop />
							<asc_sat />
							<lut2 />
						</colorinfo>
					<labels><label2>Forest</label2></labels></clipitem>
					<clipitem id="clipitem-88">
						<masterclipid>clipitem-4-110</masterclipid>
						<name>Travis_Kelce_ANNOUNCE_WEDDING_DATE_with_Taylor_Swift_Why_He_was_Delaying_all_Along.mp4</name>
						<enabled>TRUE</enabled>
						<duration>150</duration>
						<rate>
							<timebase>25</timebase>
							<ntsc>FALSE</ntsc>
						</rate>
						<start>37800</start>
						<end>37950</end>
						<in>16350</in>
						<out>16500</out>
						<pproTicksIn>0</pproTicksIn>
						<pproTicksOut>419410897920000</pproTicksOut>
						<alphatype>none</alphatype>
						<pixelaspectratio>square</pixelaspectratio>
						<anamorphic>FALSE</anamorphic>
						<file id="file-32">
							<name>Travis_Kelce_ANNOUNCE_WEDDING_DATE_with_Taylor_Swift_Why_He_was_Delaying_all_Along.mp4</name>
							<pathurl>file://localhost/Users/themalikano/Documents/VideoAutomation/premiere_videos/Travis_Kelce_ANNOUNCE_WEDDING_DATE_with_Taylor_Swift_Why_He_was_Delaying_all_Along.mp4</pathurl>
							<rate>
								<timebase>24</timebase>
								<ntsc>FALSE</ntsc>
							</rate>
							<duration>39627</duration>
							<timecode>
								<rate>
									<timebase>24</timebase>
									<ntsc>FALSE</ntsc>
								</rate>
								<string>00:00:00:00</string>
								<frame>0</frame>
								<displayformat>NDF</displayformat>
							</timecode>
							<media>
								<video>
									<samplecharacteristics>
										<rate>
											<timebase>24</timebase>
											<ntsc>FALSE</ntsc>
										</rate>
										<width>852</width>
										<height>480</height>
										<anamorphic>FALSE</anamorphic>
										<pixelaspectratio>square</pixelaspectratio>
										<fielddominance>none</fielddominance>
									</samplecharacteristics>
								</video>
								<audio>
									<samplecharacteristics>
										<depth>16</depth>
										<samplerate>44100</samplerate>
									</samplecharacteristics>
									<channelcount>2</channelcount>
								</audio>
							</media>
						</file>
						<filter>
							<effect>
								<name>Basic Motion</name>
								<effectid>basic</effectid>
								<effectcategory>motion</effectcategory>
								<effecttype>motion</effecttype>
								<mediatype>video</mediatype>
								<pproBypass>false</pproBypass>
								<parameter authoringApp="PremierePro">
									<parameterid>scale</parameterid>
									<name>Scale</name>
									<valuemin>0</valuemin>
									<valuemax>1000</valuemax>
									<value>225</value>
								</parameter>
								<parameter authoringApp="PremierePro">
									<parameterid>rotation</parameterid>
									<name>Rotation</name>
									<valuemin>-8640</valuemin>
									<valuemax>8640</valuemax>
									<value>0</value>
								</parameter>
								<parameter authoringApp="PremierePro">
									<parameterid>center</parameterid>
									<name>Center</name>
									<value>
										<horiz>0</horiz>
										<vert>0</vert>
									</value>
								</parameter>
								<parameter authoringApp="PremierePro">
									<parameterid>centerOffset</parameterid>
									<name>Anchor Point</name>
									<value>
										<horiz>0</horiz>
										<vert>0</vert>
									</value>
								</parameter>
								<parameter authoringApp="PremierePro">
									<parameterid>antiflicker</parameterid>
									<name>Anti-flicker Filter</name>
									<valuemin>0.0</valuemin>
									<valuemax>1.0</valuemax>
									<value>0</value>
								</parameter>
							</effect>
						</filter>
						<link>
							<linkclipref>clipitem-88</linkclipref>
							<mediatype>video</mediatype>
							<trackindex>1</trackindex>
							<clipindex>4</clipindex>
						</link>
						<link>
							<linkclipref>clipitem-96</linkclipref>
							<mediatype>audio</mediatype>
							<trackindex>1</trackindex>
							<clipindex>4</clipindex>
							<groupindex>1</groupindex>
						</link>
						<link>
							<linkclipref>clipitem-104</linkclipref>
							<mediatype>audio</mediatype>
							<trackindex>2</trackindex>
							<clipindex>4</clipindex>
							<groupindex>1</groupindex>
						</link>
						<logginginfo>
							<description />
							<scene />
							<shottake />
							<lognote />
							<good />
							<originalvideofilename />
							<originalaudiofilename />
						</logginginfo>
						<colorinfo>
							<lut />
							<lut1 />
							<asc_sop />
							<asc_sat />
							<lut2 />
						</colorinfo>
					<labels><label2>Lavender</label2></labels></clipitem>
					<clipitem id="clipitem-86">
						<masterclipid>clipitem-2-65</masterclipid>
						<name>Taylor_Swift_Shares_The_Story_Of_Calling_Travis_Kelce_For_The_First_Time.mp4</name>
						<enabled>TRUE</enabled>
						<duration>150</duration>
						<rate>
							<timebase>25</timebase>
							<ntsc>FALSE</ntsc>
						</rate>
						<start>37950</start>
						<end>38100</end>
						<in>9600</in>
						<out>9750</out>
						<pproTicksIn>0</pproTicksIn>
						<pproTicksOut>236438092800000</pproTicksOut>
						<alphatype>none</alphatype>
						<pixelaspectratio>square</pixelaspectratio>
						<anamorphic>FALSE</anamorphic>
						<file id="file-30">
							<name>Taylor_Swift_Shares_The_Story_Of_Calling_Travis_Kelce_For_The_First_Time.mp4</name>
							<pathurl>file://localhost/Users/themalikano/Documents/VideoAutomation/premiere_videos/Taylor_Swift_Shares_The_Story_Of_Calling_Travis_Kelce_For_The_First_Time.mp4</pathurl>
							<rate>
								<timebase>30</timebase>
								<ntsc>TRUE</ntsc>
							</rate>
							<duration>27897</duration>
							<timecode>
								<rate>
									<timebase>30</timebase>
									<ntsc>TRUE</ntsc>
								</rate>
								<string>00:00:00:00</string>
								<frame>0</frame>
								<displayformat>NDF</displayformat>
							</timecode>
							<media>
								<video>
									<samplecharacteristics>
										<rate>
											<timebase>30</timebase>
											<ntsc>TRUE</ntsc>
										</rate>
										<width>1920</width>
										<height>1080</height>
										<anamorphic>FALSE</anamorphic>
										<pixelaspectratio>square</pixelaspectratio>
										<fielddominance>none</fielddominance>
									</samplecharacteristics>
								</video>
								<audio>
									<samplecharacteristics>
										<depth>16</depth>
										<samplerate>44100</samplerate>
									</samplecharacteristics>
									<channelcount>2</channelcount>
								</audio>
							</media>
						</file>
						<link>
							<linkclipref>clipitem-86</linkclipref>
							<mediatype>video</mediatype>
							<trackindex>1</trackindex>
							<clipindex>2</clipindex>
						</link>
						<link>
							<linkclipref>clipitem-94</linkclipref>
							<mediatype>audio</mediatype>
							<trackindex>1</trackindex>
							<clipindex>2</clipindex>
							<groupindex>1</groupindex>
						</link>
						<link>
							<linkclipref>clipitem-102</linkclipref>
							<mediatype>audio</mediatype>
							<trackindex>2</trackindex>
							<clipindex>2</clipindex>
							<groupindex>1</groupindex>
						</link>
						<logginginfo>
							<description />
							<scene />
							<shottake />
							<lognote />
							<good />
							<originalvideofilename />
							<originalaudiofilename />
						</logginginfo>
						<colorinfo>
							<lut />
							<lut1 />
							<asc_sop />
							<asc_sat />
							<lut2 />
						</colorinfo>
					<labels><label2>Iris</label2></labels></clipitem>
					<clipitem id="clipitem-90">
						<masterclipid>clipitem-6-2</masterclipid>
						<name>Travis_Kelce_talks_about_postponing_his_wedding_to_Fiance_Taylor_Swift_on_the_New_Heights_Podcast.mp4</name>
						<enabled>TRUE</enabled>
						<duration>150</duration>
						<rate>
							<timebase>25</timebase>
							<ntsc>FALSE</ntsc>
						</rate>
						<start>38100</start>
						<end>38250</end>
						<in>150</in>
						<out>300</out>
						<pproTicksIn>0</pproTicksIn>
						<pproTicksOut>149391889920000</pproTicksOut>
						<alphatype>none</alphatype>
						<pixelaspectratio>square</pixelaspectratio>
						<anamorphic>FALSE</anamorphic>
						<file id="file-34">
							<name>Travis_Kelce_talks_about_postponing_his_wedding_to_Fiance_Taylor_Swift_on_the_New_Heights_Podcast.mp4</name>
							<pathurl>file://localhost/Users/themalikano/Documents/VideoAutomation/premiere_videos/Travis_Kelce_talks_about_postponing_his_wedding_to_Fiance_Taylor_Swift_on_the_New_Heights_Podcast.mp4</pathurl>
							<rate>
								<timebase>30</timebase>
								<ntsc>FALSE</ntsc>
							</rate>
							<duration>17644</duration>
							<timecode>
								<rate>
									<timebase>30</timebase>
									<ntsc>FALSE</ntsc>
								</rate>
								<string>00:00:00:00</string>
								<frame>0</frame>
								<displayformat>NDF</displayformat>
							</timecode>
							<media>
								<video>
									<samplecharacteristics>
										<rate>
											<timebase>30</timebase>
											<ntsc>FALSE</ntsc>
										</rate>
										<width>1920</width>
										<height>1080</height>
										<anamorphic>FALSE</anamorphic>
										<pixelaspectratio>square</pixelaspectratio>
										<fielddominance>none</fielddominance>
									</samplecharacteristics>
								</video>
								<audio>
									<samplecharacteristics>
										<depth>16</depth>
										<samplerate>44100</samplerate>
									</samplecharacteristics>
									<channelcount>2</channelcount>
								</audio>
							</media>
						</file>
						<link>
							<linkclipref>clipitem-90</linkclipref>
							<mediatype>video</mediatype>
							<trackindex>1</trackindex>
							<clipindex>6</clipindex>
						</link>
						<link>
							<linkclipref>clipitem-98</linkclipref>
							<mediatype>audio</mediatype>
							<trackindex>1</trackindex>
							<clipindex>6</clipindex>
							<groupindex>1</groupindex>
						</link>
						<link>
							<linkclipref>clipitem-106</linkclipref>
							<mediatype>audio</mediatype>
							<trackindex>2</trackindex>
							<clipindex>6</clipindex>
							<groupindex>1</groupindex>
						</link>
						<logginginfo>
							<description />
							<scene />
							<shottake />
							<lognote />
							<good />
							<originalvideofilename />
							<originalaudiofilename />
						</logginginfo>
						<colorinfo>
							<lut />
							<lut1 />
							<asc_sop />
							<asc_sat />
							<lut2 />
						</colorinfo>
					<labels><label2>Forest</label2></labels></clipitem>
					<clipitem id="clipitem-86">
						<masterclipid>clipitem-2-21</masterclipid>
						<name>Taylor_Swift_Shares_The_Story_Of_Calling_Travis_Kelce_For_The_First_Time.mp4</name>
						<enabled>TRUE</enabled>
						<duration>150</duration>
						<rate>
							<timebase>25</timebase>
							<ntsc>FALSE</ntsc>
						</rate>
						<start>38250</start>
						<end>38400</end>
						<in>3000</in>
						<out>3150</out>
						<pproTicksIn>0</pproTicksIn>
						<pproTicksOut>236438092800000</pproTicksOut>
						<alphatype>none</alphatype>
						<pixelaspectratio>square</pixelaspectratio>
						<anamorphic>FALSE</anamorphic>
						<file id="file-30">
							<name>Taylor_Swift_Shares_The_Story_Of_Calling_Travis_Kelce_For_The_First_Time.mp4</name>
							<pathurl>file://localhost/Users/themalikano/Documents/VideoAutomation/premiere_videos/Taylor_Swift_Shares_The_Story_Of_Calling_Travis_Kelce_For_The_First_Time.mp4</pathurl>
							<rate>
								<timebase>30</timebase>
								<ntsc>TRUE</ntsc>
							</rate>
							<duration>27897</duration>
							<timecode>
								<rate>
									<timebase>30</timebase>
									<ntsc>TRUE</ntsc>
								</rate>
								<string>00:00:00:00</string>
								<frame>0</frame>
								<displayformat>NDF</displayformat>
							</timecode>
							<media>
								<video>
									<samplecharacteristics>
										<rate>
											<timebase>30</timebase>
											<ntsc>TRUE</ntsc>
										</rate>
										<width>1920</width>
										<height>1080</height>
										<anamorphic>FALSE</anamorphic>
										<pixelaspectratio>square</pixelaspectratio>
										<fielddominance>none</fielddominance>
									</samplecharacteristics>
								</video>
								<audio>
									<samplecharacteristics>
										<depth>16</depth>
										<samplerate>44100</samplerate>
									</samplecharacteristics>
									<channelcount>2</channelcount>
								</audio>
							</media>
						</file>
						<link>
							<linkclipref>clipitem-86</linkclipref>
							<mediatype>video</mediatype>
							<trackindex>1</trackindex>
							<clipindex>2</clipindex>
						</link>
						<link>
							<linkclipref>clipitem-94</linkclipref>
							<mediatype>audio</mediatype>
							<trackindex>1</trackindex>
							<clipindex>2</clipindex>
							<groupindex>1</groupindex>
						</link>
						<link>
							<linkclipref>clipitem-102</linkclipref>
							<mediatype>audio</mediatype>
							<trackindex>2</trackindex>
							<clipindex>2</clipindex>
							<groupindex>1</groupindex>
						</link>
						<logginginfo>
							<description />
							<scene />
							<shottake />
							<lognote />
							<good />
							<originalvideofilename />
							<originalaudiofilename />
						</logginginfo>
						<colorinfo>
							<lut />
							<lut1 />
							<asc_sop />
							<asc_sat />
							<lut2 />
						</colorinfo>
					<labels><label2>Iris</label2></labels></clipitem>
					<clipitem id="clipitem-90">
						<masterclipid>clipitem-6-48</masterclipid>
						<name>Travis_Kelce_talks_about_postponing_his_wedding_to_Fiance_Taylor_Swift_on_the_New_Heights_Podcast.mp4</name>
						<enabled>TRUE</enabled>
						<duration>150</duration>
						<rate>
							<timebase>25</timebase>
							<ntsc>FALSE</ntsc>
						</rate>
						<start>38400</start>
						<end>38550</end>
						<in>7050</in>
						<out>7200</out>
						<pproTicksIn>0</pproTicksIn>
						<pproTicksOut>149391889920000</pproTicksOut>
						<alphatype>none</alphatype>
						<pixelaspectratio>square</pixelaspectratio>
						<anamorphic>FALSE</anamorphic>
						<file id="file-34">
							<name>Travis_Kelce_talks_about_postponing_his_wedding_to_Fiance_Taylor_Swift_on_the_New_Heights_Podcast.mp4</name>
							<pathurl>file://localhost/Users/themalikano/Documents/VideoAutomation/premiere_videos/Travis_Kelce_talks_about_postponing_his_wedding_to_Fiance_Taylor_Swift_on_the_New_Heights_Podcast.mp4</pathurl>
							<rate>
								<timebase>30</timebase>
								<ntsc>FALSE</ntsc>
							</rate>
							<duration>17644</duration>
							<timecode>
								<rate>
									<timebase>30</timebase>
									<ntsc>FALSE</ntsc>
								</rate>
								<string>00:00:00:00</string>
								<frame>0</frame>
								<displayformat>NDF</displayformat>
							</timecode>
							<media>
								<video>
									<samplecharacteristics>
										<rate>
											<timebase>30</timebase>
											<ntsc>FALSE</ntsc>
										</rate>
										<width>1920</width>
										<height>1080</height>
										<anamorphic>FALSE</anamorphic>
										<pixelaspectratio>square</pixelaspectratio>
										<fielddominance>none</fielddominance>
									</samplecharacteristics>
								</video>
								<audio>
									<samplecharacteristics>
										<depth>16</depth>
										<samplerate>44100</samplerate>
									</samplecharacteristics>
									<channelcount>2</channelcount>
								</audio>
							</media>
						</file>
						<link>
							<linkclipref>clipitem-90</linkclipref>
							<mediatype>video</mediatype>
							<trackindex>1</trackindex>
							<clipindex>6</clipindex>
						</link>
						<link>
							<linkclipref>clipitem-98</linkclipref>
							<mediatype>audio</mediatype>
							<trackindex>1</trackindex>
							<clipindex>6</clipindex>
							<groupindex>1</groupindex>
						</link>
						<link>
							<linkclipref>clipitem-106</linkclipref>
							<mediatype>audio</mediatype>
							<trackindex>2</trackindex>
							<clipindex>6</clipindex>
							<groupindex>1</groupindex>
						</link>
						<logginginfo>
							<description />
							<scene />
							<shottake />
							<lognote />
							<good />
							<originalvideofilename />
							<originalaudiofilename />
						</logginginfo>
						<colorinfo>
							<lut />
							<lut1 />
							<asc_sop />
							<asc_sat />
							<lut2 />
						</colorinfo>
					<labels><label2>Forest</label2></labels></clipitem>
					<clipitem id="clipitem-87">
						<masterclipid>clipitem-3-164</masterclipid>
						<name>Taylor_Swift_Travis_Kelce_-_The_New_Power_Couple.mp4</name>
						<enabled>TRUE</enabled>
						<duration>150</duration>
						<rate>
							<timebase>25</timebase>
							<ntsc>FALSE</ntsc>
						</rate>
						<start>38550</start>
						<end>38700</end>
						<in>24450</in>
						<out>24600</out>
						<pproTicksIn>0</pproTicksIn>
						<pproTicksOut>875013995520000</pproTicksOut>
						<alphatype>none</alphatype>
						<pixelaspectratio>square</pixelaspectratio>
						<anamorphic>FALSE</anamorphic>
						<file id="file-31">
							<name>Taylor_Swift_Travis_Kelce_-_The_New_Power_Couple.mp4</name>
							<pathurl>file://localhost/Users/themalikano/Documents/VideoAutomation/premiere_videos/Taylor_Swift_Travis_Kelce_-_The_New_Power_Couple.mp4</pathurl>
							<rate>
								<timebase>25</timebase>
								<ntsc>FALSE</ntsc>
							</rate>
							<duration>86118</duration>
							<timecode>
								<rate>
									<timebase>25</timebase>
									<ntsc>FALSE</ntsc>
								</rate>
								<string>00:00:00:00</string>
								<frame>0</frame>
								<displayformat>NDF</displayformat>
							</timecode>
							<media>
								<video>
									<samplecharacteristics>
										<rate>
											<timebase>25</timebase>
											<ntsc>FALSE</ntsc>
										</rate>
										<width>1920</width>
										<height>1080</height>
										<anamorphic>FALSE</anamorphic>
										<pixelaspectratio>square</pixelaspectratio>
										<fielddominance>none</fielddominance>
									</samplecharacteristics>
								</video>
								<audio>
									<samplecharacteristics>
										<depth>16</depth>
										<samplerate>44100</samplerate>
									</samplecharacteristics>
									<channelcount>2</channelcount>
								</audio>
							</media>
						</file>
						<link>
							<linkclipref>clipitem-87</linkclipref>
							<mediatype>video</mediatype>
							<trackindex>1</trackindex>
							<clipindex>3</clipindex>
						</link>
						<link>
							<linkclipref>clipitem-95</linkclipref>
							<mediatype>audio</mediatype>
							<trackindex>1</trackindex>
							<clipindex>3</clipindex>
							<groupindex>1</groupindex>
						</link>
						<link>
							<linkclipref>clipitem-103</linkclipref>
							<mediatype>audio</mediatype>
							<trackindex>2</trackindex>
							<clipindex>3</clipindex>
							<groupindex>1</groupindex>
						</link>
						<logginginfo>
							<description />
							<scene />
							<shottake />
							<lognote />
							<good />
							<originalvideofilename />
							<originalaudiofilename />
						</logginginfo>
						<colorinfo>
							<lut />
							<lut1 />
							<asc_sop />
							<asc_sat />
							<lut2 />
						</colorinfo>
					<labels><label2>Caribbean</label2></labels></clipitem>
					<clipitem id="clipitem-88">
						<masterclipid>clipitem-4-122</masterclipid>
						<name>Travis_Kelce_ANNOUNCE_WEDDING_DATE_with_Taylor_Swift_Why_He_was_Delaying_all_Along.mp4</name>
						<enabled>TRUE</enabled>
						<duration>150</duration>
						<rate>
							<timebase>25</timebase>
							<ntsc>FALSE</ntsc>
						</rate>
						<start>38700</start>
						<end>38850</end>
						<in>18150</in>
						<out>18300</out>
						<pproTicksIn>0</pproTicksIn>
						<pproTicksOut>419410897920000</pproTicksOut>
						<alphatype>none</alphatype>
						<pixelaspectratio>square</pixelaspectratio>
						<anamorphic>FALSE</anamorphic>
						<file id="file-32">
							<name>Travis_Kelce_ANNOUNCE_WEDDING_DATE_with_Taylor_Swift_Why_He_was_Delaying_all_Along.mp4</name>
							<pathurl>file://localhost/Users/themalikano/Documents/VideoAutomation/premiere_videos/Travis_Kelce_ANNOUNCE_WEDDING_DATE_with_Taylor_Swift_Why_He_was_Delaying_all_Along.mp4</pathurl>
							<rate>
								<timebase>24</timebase>
								<ntsc>FALSE</ntsc>
							</rate>
							<duration>39627</duration>
							<timecode>
								<rate>
									<timebase>24</timebase>
									<ntsc>FALSE</ntsc>
								</rate>
								<string>00:00:00:00</string>
								<frame>0</frame>
								<displayformat>NDF</displayformat>
							</timecode>
							<media>
								<video>
									<samplecharacteristics>
										<rate>
											<timebase>24</timebase>
											<ntsc>FALSE</ntsc>
										</rate>
										<width>852</width>
										<height>480</height>
										<anamorphic>FALSE</anamorphic>
										<pixelaspectratio>square</pixelaspectratio>
										<fielddominance>none</fielddominance>
									</samplecharacteristics>
								</video>
								<audio>
									<samplecharacteristics>
										<depth>16</depth>
										<samplerate>44100</samplerate>
									</samplecharacteristics>
									<channelcount>2</channelcount>
								</audio>
							</media>
						</file>
						<filter>
							<effect>
								<name>Basic Motion</name>
								<effectid>basic</effectid>
								<effectcategory>motion</effectcategory>
								<effecttype>motion</effecttype>
								<mediatype>video</mediatype>
								<pproBypass>false</pproBypass>
								<parameter authoringApp="PremierePro">
									<parameterid>scale</parameterid>
									<name>Scale</name>
									<valuemin>0</valuemin>
									<valuemax>1000</valuemax>
									<value>225</value>
								</parameter>
								<parameter authoringApp="PremierePro">
									<parameterid>rotation</parameterid>
									<name>Rotation</name>
									<valuemin>-8640</valuemin>
									<valuemax>8640</valuemax>
									<value>0</value>
								</parameter>
								<parameter authoringApp="PremierePro">
									<parameterid>center</parameterid>
									<name>Center</name>
									<value>
										<horiz>0</horiz>
										<vert>0</vert>
									</value>
								</parameter>
								<parameter authoringApp="PremierePro">
									<parameterid>centerOffset</parameterid>
									<name>Anchor Point</name>
									<value>
										<horiz>0</horiz>
										<vert>0</vert>
									</value>
								</parameter>
								<parameter authoringApp="PremierePro">
									<parameterid>antiflicker</parameterid>
									<name>Anti-flicker Filter</name>
									<valuemin>0.0</valuemin>
									<valuemax>1.0</valuemax>
									<value>0</value>
								</parameter>
							</effect>
						</filter>
						<link>
							<linkclipref>clipitem-88</linkclipref>
							<mediatype>video</mediatype>
							<trackindex>1</trackindex>
							<clipindex>4</clipindex>
						</link>
						<link>
							<linkclipref>clipitem-96</linkclipref>
							<mediatype>audio</mediatype>
							<trackindex>1</trackindex>
							<clipindex>4</clipindex>
							<groupindex>1</groupindex>
						</link>
						<link>
							<linkclipref>clipitem-104</linkclipref>
							<mediatype>audio</mediatype>
							<trackindex>2</trackindex>
							<clipindex>4</clipindex>
							<groupindex>1</groupindex>
						</link>
						<logginginfo>
							<description />
							<scene />
							<shottake />
							<lognote />
							<good />
							<originalvideofilename />
							<originalaudiofilename />
						</logginginfo>
						<colorinfo>
							<lut />
							<lut1 />
							<asc_sop />
							<asc_sat />
							<lut2 />
						</colorinfo>
					<labels><label2>Lavender</label2></labels></clipitem>
					<clipitem id="clipitem-86">
						<masterclipid>clipitem-2-142</masterclipid>
						<name>Taylor_Swift_Shares_The_Story_Of_Calling_Travis_Kelce_For_The_First_Time.mp4</name>
						<enabled>TRUE</enabled>
						<duration>150</duration>
						<rate>
							<timebase>25</timebase>
							<ntsc>FALSE</ntsc>
						</rate>
						<start>38850</start>
						<end>39000</end>
						<in>21150</in>
						<out>21300</out>
						<pproTicksIn>0</pproTicksIn>
						<pproTicksOut>236438092800000</pproTicksOut>
						<alphatype>none</alphatype>
						<pixelaspectratio>square</pixelaspectratio>
						<anamorphic>FALSE</anamorphic>
						<file id="file-30">
							<name>Taylor_Swift_Shares_The_Story_Of_Calling_Travis_Kelce_For_The_First_Time.mp4</name>
							<pathurl>file://localhost/Users/themalikano/Documents/VideoAutomation/premiere_videos/Taylor_Swift_Shares_The_Story_Of_Calling_Travis_Kelce_For_The_First_Time.mp4</pathurl>
							<rate>
								<timebase>30</timebase>
								<ntsc>TRUE</ntsc>
							</rate>
							<duration>27897</duration>
							<timecode>
								<rate>
									<timebase>30</timebase>
									<ntsc>TRUE</ntsc>
								</rate>
								<string>00:00:00:00</string>
								<frame>0</frame>
								<displayformat>NDF</displayformat>
							</timecode>
							<media>
								<video>
									<samplecharacteristics>
										<rate>
											<timebase>30</timebase>
											<ntsc>TRUE</ntsc>
										</rate>
										<width>1920</width>
										<height>1080</height>
										<anamorphic>FALSE</anamorphic>
										<pixelaspectratio>square</pixelaspectratio>
										<fielddominance>none</fielddominance>
									</samplecharacteristics>
								</video>
								<audio>
									<samplecharacteristics>
										<depth>16</depth>
										<samplerate>44100</samplerate>
									</samplecharacteristics>
									<channelcount>2</channelcount>
								</audio>
							</media>
						</file>
						<link>
							<linkclipref>clipitem-86</linkclipref>
							<mediatype>video</mediatype>
							<trackindex>1</trackindex>
							<clipindex>2</clipindex>
						</link>
						<link>
							<linkclipref>clipitem-94</linkclipref>
							<mediatype>audio</mediatype>
							<trackindex>1</trackindex>
							<clipindex>2</clipindex>
							<groupindex>1</groupindex>
						</link>
						<link>
							<linkclipref>clipitem-102</linkclipref>
							<mediatype>audio</mediatype>
							<trackindex>2</trackindex>
							<clipindex>2</clipindex>
							<groupindex>1</groupindex>
						</link>
						<logginginfo>
							<description />
							<scene />
							<shottake />
							<lognote />
							<good />
							<originalvideofilename />
							<originalaudiofilename />
						</logginginfo>
						<colorinfo>
							<lut />
							<lut1 />
							<asc_sop />
							<asc_sat />
							<lut2 />
						</colorinfo>
					<labels><label2>Iris</label2></labels></clipitem>
					<clipitem id="clipitem-87">
						<masterclipid>clipitem-3-536</masterclipid>
						<name>Taylor_Swift_Travis_Kelce_-_The_New_Power_Couple.mp4</name>
						<enabled>TRUE</enabled>
						<duration>150</duration>
						<rate>
							<timebase>25</timebase>
							<ntsc>FALSE</ntsc>
						</rate>
						<start>39000</start>
						<end>39150</end>
						<in>80250</in>
						<out>80400</out>
						<pproTicksIn>0</pproTicksIn>
						<pproTicksOut>875013995520000</pproTicksOut>
						<alphatype>none</alphatype>
						<pixelaspectratio>square</pixelaspectratio>
						<anamorphic>FALSE</anamorphic>
						<file id="file-31">
							<name>Taylor_Swift_Travis_Kelce_-_The_New_Power_Couple.mp4</name>
							<pathurl>file://localhost/Users/themalikano/Documents/VideoAutomation/premiere_videos/Taylor_Swift_Travis_Kelce_-_The_New_Power_Couple.mp4</pathurl>
							<rate>
								<timebase>25</timebase>
								<ntsc>FALSE</ntsc>
							</rate>
							<duration>86118</duration>
							<timecode>
								<rate>
									<timebase>25</timebase>
									<ntsc>FALSE</ntsc>
								</rate>
								<string>00:00:00:00</string>
								<frame>0</frame>
								<displayformat>NDF</displayformat>
							</timecode>
							<media>
								<video>
									<samplecharacteristics>
										<rate>
											<timebase>25</timebase>
											<ntsc>FALSE</ntsc>
										</rate>
										<width>1920</width>
										<height>1080</height>
										<anamorphic>FALSE</anamorphic>
										<pixelaspectratio>square</pixelaspectratio>
										<fielddominance>none</fielddominance>
									</samplecharacteristics>
								</video>
								<audio>
									<samplecharacteristics>
										<depth>16</depth>
										<samplerate>44100</samplerate>
									</samplecharacteristics>
									<channelcount>2</channelcount>
								</audio>
							</media>
						</file>
						<link>
							<linkclipref>clipitem-87</linkclipref>
							<mediatype>video</mediatype>
							<trackindex>1</trackindex>
							<clipindex>3</clipindex>
						</link>
						<link>
							<linkclipref>clipitem-95</linkclipref>
							<mediatype>audio</mediatype>
							<trackindex>1</trackindex>
							<clipindex>3</clipindex>
							<groupindex>1</groupindex>
						</link>
						<link>
							<linkclipref>clipitem-103</linkclipref>
							<mediatype>audio</mediatype>
							<trackindex>2</trackindex>
							<clipindex>3</clipindex>
							<groupindex>1</groupindex>
						</link>
						<logginginfo>
							<description />
							<scene />
							<shottake />
							<lognote />
							<good />
							<originalvideofilename />
							<originalaudiofilename />
						</logginginfo>
						<colorinfo>
							<lut />
							<lut1 />
							<asc_sop />
							<asc_sat />
							<lut2 />
						</colorinfo>
					<labels><label2>Caribbean</label2></labels></clipitem>
					<clipitem id="clipitem-88">
						<masterclipid>clipitem-4-125</masterclipid>
						<name>Travis_Kelce_ANNOUNCE_WEDDING_DATE_with_Taylor_Swift_Why_He_was_Delaying_all_Along.mp4</name>
						<enabled>TRUE</enabled>
						<duration>150</duration>
						<rate>
							<timebase>25</timebase>
							<ntsc>FALSE</ntsc>
						</rate>
						<start>39150</start>
						<end>39300</end>
						<in>18600</in>
						<out>18750</out>
						<pproTicksIn>0</pproTicksIn>
						<pproTicksOut>419410897920000</pproTicksOut>
						<alphatype>none</alphatype>
						<pixelaspectratio>square</pixelaspectratio>
						<anamorphic>FALSE</anamorphic>
						<file id="file-32">
							<name>Travis_Kelce_ANNOUNCE_WEDDING_DATE_with_Taylor_Swift_Why_He_was_Delaying_all_Along.mp4</name>
							<pathurl>file://localhost/Users/themalikano/Documents/VideoAutomation/premiere_videos/Travis_Kelce_ANNOUNCE_WEDDING_DATE_with_Taylor_Swift_Why_He_was_Delaying_all_Along.mp4</pathurl>
							<rate>
								<timebase>24</timebase>
								<ntsc>FALSE</ntsc>
							</rate>
							<duration>39627</duration>
							<timecode>
								<rate>
									<timebase>24</timebase>
									<ntsc>FALSE</ntsc>
								</rate>
								<string>00:00:00:00</string>
								<frame>0</frame>
								<displayformat>NDF</displayformat>
							</timecode>
							<media>
								<video>
									<samplecharacteristics>
										<rate>
											<timebase>24</timebase>
											<ntsc>FALSE</ntsc>
										</rate>
										<width>852</width>
										<height>480</height>
										<anamorphic>FALSE</anamorphic>
										<pixelaspectratio>square</pixelaspectratio>
										<fielddominance>none</fielddominance>
									</samplecharacteristics>
								</video>
								<audio>
									<samplecharacteristics>
										<depth>16</depth>
										<samplerate>44100</samplerate>
									</samplecharacteristics>
									<channelcount>2</channelcount>
								</audio>
							</media>
						</file>
						<filter>
							<effect>
								<name>Basic Motion</name>
								<effectid>basic</effectid>
								<effectcategory>motion</effectcategory>
								<effecttype>motion</effecttype>
								<mediatype>video</mediatype>
								<pproBypass>false</pproBypass>
								<parameter authoringApp="PremierePro">
									<parameterid>scale</parameterid>
									<name>Scale</name>
									<valuemin>0</valuemin>
									<valuemax>1000</valuemax>
									<value>225</value>
								</parameter>
								<parameter authoringApp="PremierePro">
									<parameterid>rotation</parameterid>
									<name>Rotation</name>
									<valuemin>-8640</valuemin>
									<valuemax>8640</valuemax>
									<value>0</value>
								</parameter>
								<parameter authoringApp="PremierePro">
									<parameterid>center</parameterid>
									<name>Center</name>
									<value>
										<horiz>0</horiz>
										<vert>0</vert>
									</value>
								</parameter>
								<parameter authoringApp="PremierePro">
									<parameterid>centerOffset</parameterid>
									<name>Anchor Point</name>
									<value>
										<horiz>0</horiz>
										<vert>0</vert>
									</value>
								</parameter>
								<parameter authoringApp="PremierePro">
									<parameterid>antiflicker</parameterid>
									<name>Anti-flicker Filter</name>
									<valuemin>0.0</valuemin>
									<valuemax>1.0</valuemax>
									<value>0</value>
								</parameter>
							</effect>
						</filter>
						<link>
							<linkclipref>clipitem-88</linkclipref>
							<mediatype>video</mediatype>
							<trackindex>1</trackindex>
							<clipindex>4</clipindex>
						</link>
						<link>
							<linkclipref>clipitem-96</linkclipref>
							<mediatype>audio</mediatype>
							<trackindex>1</trackindex>
							<clipindex>4</clipindex>
							<groupindex>1</groupindex>
						</link>
						<link>
							<linkclipref>clipitem-104</linkclipref>
							<mediatype>audio</mediatype>
							<trackindex>2</trackindex>
							<clipindex>4</clipindex>
							<groupindex>1</groupindex>
						</link>
						<logginginfo>
							<description />
							<scene />
							<shottake />
							<lognote />
							<good />
							<originalvideofilename />
							<originalaudiofilename />
						</logginginfo>
						<colorinfo>
							<lut />
							<lut1 />
							<asc_sop />
							<asc_sat />
							<lut2 />
						</colorinfo>
					<labels><label2>Lavender</label2></labels></clipitem>
					<clipitem id="clipitem-86">
						<masterclipid>clipitem-2-79</masterclipid>
						<name>Taylor_Swift_Shares_The_Story_Of_Calling_Travis_Kelce_For_The_First_Time.mp4</name>
						<enabled>TRUE</enabled>
						<duration>150</duration>
						<rate>
							<timebase>25</timebase>
							<ntsc>FALSE</ntsc>
						</rate>
						<start>39300</start>
						<end>39450</end>
						<in>11700</in>
						<out>11850</out>
						<pproTicksIn>0</pproTicksIn>
						<pproTicksOut>236438092800000</pproTicksOut>
						<alphatype>none</alphatype>
						<pixelaspectratio>square</pixelaspectratio>
						<anamorphic>FALSE</anamorphic>
						<file id="file-30">
							<name>Taylor_Swift_Shares_The_Story_Of_Calling_Travis_Kelce_For_The_First_Time.mp4</name>
							<pathurl>file://localhost/Users/themalikano/Documents/VideoAutomation/premiere_videos/Taylor_Swift_Shares_The_Story_Of_Calling_Travis_Kelce_For_The_First_Time.mp4</pathurl>
							<rate>
								<timebase>30</timebase>
								<ntsc>TRUE</ntsc>
							</rate>
							<duration>27897</duration>
							<timecode>
								<rate>
									<timebase>30</timebase>
									<ntsc>TRUE</ntsc>
								</rate>
								<string>00:00:00:00</string>
								<frame>0</frame>
								<displayformat>NDF</displayformat>
							</timecode>
							<media>
								<video>
									<samplecharacteristics>
										<rate>
											<timebase>30</timebase>
											<ntsc>TRUE</ntsc>
										</rate>
										<width>1920</width>
										<height>1080</height>
										<anamorphic>FALSE</anamorphic>
										<pixelaspectratio>square</pixelaspectratio>
										<fielddominance>none</fielddominance>
									</samplecharacteristics>
								</video>
								<audio>
									<samplecharacteristics>
										<depth>16</depth>
										<samplerate>44100</samplerate>
									</samplecharacteristics>
									<channelcount>2</channelcount>
								</audio>
							</media>
						</file>
						<link>
							<linkclipref>clipitem-86</linkclipref>
							<mediatype>video</mediatype>
							<trackindex>1</trackindex>
							<clipindex>2</clipindex>
						</link>
						<link>
							<linkclipref>clipitem-94</linkclipref>
							<mediatype>audio</mediatype>
							<trackindex>1</trackindex>
							<clipindex>2</clipindex>
							<groupindex>1</groupindex>
						</link>
						<link>
							<linkclipref>clipitem-102</linkclipref>
							<mediatype>audio</mediatype>
							<trackindex>2</trackindex>
							<clipindex>2</clipindex>
							<groupindex>1</groupindex>
						</link>
						<logginginfo>
							<description />
							<scene />
							<shottake />
							<lognote />
							<good />
							<originalvideofilename />
							<originalaudiofilename />
						</logginginfo>
						<colorinfo>
							<lut />
							<lut1 />
							<asc_sop />
							<asc_sat />
							<lut2 />
						</colorinfo>
					<labels><label2>Iris</label2></labels></clipitem>
					<clipitem id="clipitem-90">
						<masterclipid>clipitem-6-46</masterclipid>
						<name>Travis_Kelce_talks_about_postponing_his_wedding_to_Fiance_Taylor_Swift_on_the_New_Heights_Podcast.mp4</name>
						<enabled>TRUE</enabled>
						<duration>150</duration>
						<rate>
							<timebase>25</timebase>
							<ntsc>FALSE</ntsc>
						</rate>
						<start>39450</start>
						<end>39600</end>
						<in>6750</in>
						<out>6900</out>
						<pproTicksIn>0</pproTicksIn>
						<pproTicksOut>149391889920000</pproTicksOut>
						<alphatype>none</alphatype>
						<pixelaspectratio>square</pixelaspectratio>
						<anamorphic>FALSE</anamorphic>
						<file id="file-34">
							<name>Travis_Kelce_talks_about_postponing_his_wedding_to_Fiance_Taylor_Swift_on_the_New_Heights_Podcast.mp4</name>
							<pathurl>file://localhost/Users/themalikano/Documents/VideoAutomation/premiere_videos/Travis_Kelce_talks_about_postponing_his_wedding_to_Fiance_Taylor_Swift_on_the_New_Heights_Podcast.mp4</pathurl>
							<rate>
								<timebase>30</timebase>
								<ntsc>FALSE</ntsc>
							</rate>
							<duration>17644</duration>
							<timecode>
								<rate>
									<timebase>30</timebase>
									<ntsc>FALSE</ntsc>
								</rate>
								<string>00:00:00:00</string>
								<frame>0</frame>
								<displayformat>NDF</displayformat>
							</timecode>
							<media>
								<video>
									<samplecharacteristics>
										<rate>
											<timebase>30</timebase>
											<ntsc>FALSE</ntsc>
										</rate>
										<width>1920</width>
										<height>1080</height>
										<anamorphic>FALSE</anamorphic>
										<pixelaspectratio>square</pixelaspectratio>
										<fielddominance>none</fielddominance>
									</samplecharacteristics>
								</video>
								<audio>
									<samplecharacteristics>
										<depth>16</depth>
										<samplerate>44100</samplerate>
									</samplecharacteristics>
									<channelcount>2</channelcount>
								</audio>
							</media>
						</file>
						<link>
							<linkclipref>clipitem-90</linkclipref>
							<mediatype>video</mediatype>
							<trackindex>1</trackindex>
							<clipindex>6</clipindex>
						</link>
						<link>
							<linkclipref>clipitem-98</linkclipref>
							<mediatype>audio</mediatype>
							<trackindex>1</trackindex>
							<clipindex>6</clipindex>
							<groupindex>1</groupindex>
						</link>
						<link>
							<linkclipref>clipitem-106</linkclipref>
							<mediatype>audio</mediatype>
							<trackindex>2</trackindex>
							<clipindex>6</clipindex>
							<groupindex>1</groupindex>
						</link>
						<logginginfo>
							<description />
							<scene />
							<shottake />
							<lognote />
							<good />
							<originalvideofilename />
							<originalaudiofilename />
						</logginginfo>
						<colorinfo>
							<lut />
							<lut1 />
							<asc_sop />
							<asc_sat />
							<lut2 />
						</colorinfo>
					<labels><label2>Forest</label2></labels></clipitem>
					<clipitem id="clipitem-86">
						<masterclipid>clipitem-2-53</masterclipid>
						<name>Taylor_Swift_Shares_The_Story_Of_Calling_Travis_Kelce_For_The_First_Time.mp4</name>
						<enabled>TRUE</enabled>
						<duration>150</duration>
						<rate>
							<timebase>25</timebase>
							<ntsc>FALSE</ntsc>
						</rate>
						<start>39600</start>
						<end>39750</end>
						<in>7800</in>
						<out>7950</out>
						<pproTicksIn>0</pproTicksIn>
						<pproTicksOut>236438092800000</pproTicksOut>
						<alphatype>none</alphatype>
						<pixelaspectratio>square</pixelaspectratio>
						<anamorphic>FALSE</anamorphic>
						<file id="file-30">
							<name>Taylor_Swift_Shares_The_Story_Of_Calling_Travis_Kelce_For_The_First_Time.mp4</name>
							<pathurl>file://localhost/Users/themalikano/Documents/VideoAutomation/premiere_videos/Taylor_Swift_Shares_The_Story_Of_Calling_Travis_Kelce_For_The_First_Time.mp4</pathurl>
							<rate>
								<timebase>30</timebase>
								<ntsc>TRUE</ntsc>
							</rate>
							<duration>27897</duration>
							<timecode>
								<rate>
									<timebase>30</timebase>
									<ntsc>TRUE</ntsc>
								</rate>
								<string>00:00:00:00</string>
								<frame>0</frame>
								<displayformat>NDF</displayformat>
							</timecode>
							<media>
								<video>
									<samplecharacteristics>
										<rate>
											<timebase>30</timebase>
											<ntsc>TRUE</ntsc>
										</rate>
										<width>1920</width>
										<height>1080</height>
										<anamorphic>FALSE</anamorphic>
										<pixelaspectratio>square</pixelaspectratio>
										<fielddominance>none</fielddominance>
									</samplecharacteristics>
								</video>
								<audio>
									<samplecharacteristics>
										<depth>16</depth>
										<samplerate>44100</samplerate>
									</samplecharacteristics>
									<channelcount>2</channelcount>
								</audio>
							</media>
						</file>
						<link>
							<linkclipref>clipitem-86</linkclipref>
							<mediatype>video</mediatype>
							<trackindex>1</trackindex>
							<clipindex>2</clipindex>
						</link>
						<link>
							<linkclipref>clipitem-94</linkclipref>
							<mediatype>audio</mediatype>
							<trackindex>1</trackindex>
							<clipindex>2</clipindex>
							<groupindex>1</groupindex>
						</link>
						<link>
							<linkclipref>clipitem-102</linkclipref>
							<mediatype>audio</mediatype>
							<trackindex>2</trackindex>
							<clipindex>2</clipindex>
							<groupindex>1</groupindex>
						</link>
						<logginginfo>
							<description />
							<scene />
							<shottake />
							<lognote />
							<good />
							<originalvideofilename />
							<originalaudiofilename />
						</logginginfo>
						<colorinfo>
							<lut />
							<lut1 />
							<asc_sop />
							<asc_sat />
							<lut2 />
						</colorinfo>
					<labels><label2>Iris</label2></labels></clipitem>
					<clipitem id="clipitem-87">
						<masterclipid>clipitem-3-302</masterclipid>
						<name>Taylor_Swift_Travis_Kelce_-_The_New_Power_Couple.mp4</name>
						<enabled>TRUE</enabled>
						<duration>150</duration>
						<rate>
							<timebase>25</timebase>
							<ntsc>FALSE</ntsc>
						</rate>
						<start>39750</start>
						<end>39900</end>
						<in>45150</in>
						<out>45300</out>
						<pproTicksIn>0</pproTicksIn>
						<pproTicksOut>875013995520000</pproTicksOut>
						<alphatype>none</alphatype>
						<pixelaspectratio>square</pixelaspectratio>
						<anamorphic>FALSE</anamorphic>
						<file id="file-31">
							<name>Taylor_Swift_Travis_Kelce_-_The_New_Power_Couple.mp4</name>
							<pathurl>file://localhost/Users/themalikano/Documents/VideoAutomation/premiere_videos/Taylor_Swift_Travis_Kelce_-_The_New_Power_Couple.mp4</pathurl>
							<rate>
								<timebase>25</timebase>
								<ntsc>FALSE</ntsc>
							</rate>
							<duration>86118</duration>
							<timecode>
								<rate>
									<timebase>25</timebase>
									<ntsc>FALSE</ntsc>
								</rate>
								<string>00:00:00:00</string>
								<frame>0</frame>
								<displayformat>NDF</displayformat>
							</timecode>
							<media>
								<video>
									<samplecharacteristics>
										<rate>
											<timebase>25</timebase>
											<ntsc>FALSE</ntsc>
										</rate>
										<width>1920</width>
										<height>1080</height>
										<anamorphic>FALSE</anamorphic>
										<pixelaspectratio>square</pixelaspectratio>
										<fielddominance>none</fielddominance>
									</samplecharacteristics>
								</video>
								<audio>
									<samplecharacteristics>
										<depth>16</depth>
										<samplerate>44100</samplerate>
									</samplecharacteristics>
									<channelcount>2</channelcount>
								</audio>
							</media>
						</file>
						<link>
							<linkclipref>clipitem-87</linkclipref>
							<mediatype>video</mediatype>
							<trackindex>1</trackindex>
							<clipindex>3</clipindex>
						</link>
						<link>
							<linkclipref>clipitem-95</linkclipref>
							<mediatype>audio</mediatype>
							<trackindex>1</trackindex>
							<clipindex>3</clipindex>
							<groupindex>1</groupindex>
						</link>
						<link>
							<linkclipref>clipitem-103</linkclipref>
							<mediatype>audio</mediatype>
							<trackindex>2</trackindex>
							<clipindex>3</clipindex>
							<groupindex>1</groupindex>
						</link>
						<logginginfo>
							<description />
							<scene />
							<shottake />
							<lognote />
							<good />
							<originalvideofilename />
							<originalaudiofilename />
						</logginginfo>
						<colorinfo>
							<lut />
							<lut1 />
							<asc_sop />
							<asc_sat />
							<lut2 />
						</colorinfo>
					<labels><label2>Caribbean</label2></labels></clipitem>
					<clipitem id="clipitem-86">
						<masterclipid>clipitem-2-5</masterclipid>
						<name>Taylor_Swift_Shares_The_Story_Of_Calling_Travis_Kelce_For_The_First_Time.mp4</name>
						<enabled>TRUE</enabled>
						<duration>150</duration>
						<rate>
							<timebase>25</timebase>
							<ntsc>FALSE</ntsc>
						</rate>
						<start>39900</start>
						<end>40050</end>
						<in>600</in>
						<out>750</out>
						<pproTicksIn>0</pproTicksIn>
						<pproTicksOut>236438092800000</pproTicksOut>
						<alphatype>none</alphatype>
						<pixelaspectratio>square</pixelaspectratio>
						<anamorphic>FALSE</anamorphic>
						<file id="file-30">
							<name>Taylor_Swift_Shares_The_Story_Of_Calling_Travis_Kelce_For_The_First_Time.mp4</name>
							<pathurl>file://localhost/Users/themalikano/Documents/VideoAutomation/premiere_videos/Taylor_Swift_Shares_The_Story_Of_Calling_Travis_Kelce_For_The_First_Time.mp4</pathurl>
							<rate>
								<timebase>30</timebase>
								<ntsc>TRUE</ntsc>
							</rate>
							<duration>27897</duration>
							<timecode>
								<rate>
									<timebase>30</timebase>
									<ntsc>TRUE</ntsc>
								</rate>
								<string>00:00:00:00</string>
								<frame>0</frame>
								<displayformat>NDF</displayformat>
							</timecode>
							<media>
								<video>
									<samplecharacteristics>
										<rate>
											<timebase>30</timebase>
											<ntsc>TRUE</ntsc>
										</rate>
										<width>1920</width>
										<height>1080</height>
										<anamorphic>FALSE</anamorphic>
										<pixelaspectratio>square</pixelaspectratio>
										<fielddominance>none</fielddominance>
									</samplecharacteristics>
								</video>
								<audio>
									<samplecharacteristics>
										<depth>16</depth>
										<samplerate>44100</samplerate>
									</samplecharacteristics>
									<channelcount>2</channelcount>
								</audio>
							</media>
						</file>
						<link>
							<linkclipref>clipitem-86</linkclipref>
							<mediatype>video</mediatype>
							<trackindex>1</trackindex>
							<clipindex>2</clipindex>
						</link>
						<link>
							<linkclipref>clipitem-94</linkclipref>
							<mediatype>audio</mediatype>
							<trackindex>1</trackindex>
							<clipindex>2</clipindex>
							<groupindex>1</groupindex>
						</link>
						<link>
							<linkclipref>clipitem-102</linkclipref>
							<mediatype>audio</mediatype>
							<trackindex>2</trackindex>
							<clipindex>2</clipindex>
							<groupindex>1</groupindex>
						</link>
						<logginginfo>
							<description />
							<scene />
							<shottake />
							<lognote />
							<good />
							<originalvideofilename />
							<originalaudiofilename />
						</logginginfo>
						<colorinfo>
							<lut />
							<lut1 />
							<asc_sop />
							<asc_sat />
							<lut2 />
						</colorinfo>
					<labels><label2>Iris</label2></labels></clipitem>
					<clipitem id="clipitem-87">
						<masterclipid>clipitem-3-8</masterclipid>
						<name>Taylor_Swift_Travis_Kelce_-_The_New_Power_Couple.mp4</name>
						<enabled>TRUE</enabled>
						<duration>150</duration>
						<rate>
							<timebase>25</timebase>
							<ntsc>FALSE</ntsc>
						</rate>
						<start>40050</start>
						<end>40200</end>
						<in>1050</in>
						<out>1200</out>
						<pproTicksIn>0</pproTicksIn>
						<pproTicksOut>875013995520000</pproTicksOut>
						<alphatype>none</alphatype>
						<pixelaspectratio>square</pixelaspectratio>
						<anamorphic>FALSE</anamorphic>
						<file id="file-31">
							<name>Taylor_Swift_Travis_Kelce_-_The_New_Power_Couple.mp4</name>
							<pathurl>file://localhost/Users/themalikano/Documents/VideoAutomation/premiere_videos/Taylor_Swift_Travis_Kelce_-_The_New_Power_Couple.mp4</pathurl>
							<rate>
								<timebase>25</timebase>
								<ntsc>FALSE</ntsc>
							</rate>
							<duration>86118</duration>
							<timecode>
								<rate>
									<timebase>25</timebase>
									<ntsc>FALSE</ntsc>
								</rate>
								<string>00:00:00:00</string>
								<frame>0</frame>
								<displayformat>NDF</displayformat>
							</timecode>
							<media>
								<video>
									<samplecharacteristics>
										<rate>
											<timebase>25</timebase>
											<ntsc>FALSE</ntsc>
										</rate>
										<width>1920</width>
										<height>1080</height>
										<anamorphic>FALSE</anamorphic>
										<pixelaspectratio>square</pixelaspectratio>
										<fielddominance>none</fielddominance>
									</samplecharacteristics>
								</video>
								<audio>
									<samplecharacteristics>
										<depth>16</depth>
										<samplerate>44100</samplerate>
									</samplecharacteristics>
									<channelcount>2</channelcount>
								</audio>
							</media>
						</file>
						<link>
							<linkclipref>clipitem-87</linkclipref>
							<mediatype>video</mediatype>
							<trackindex>1</trackindex>
							<clipindex>3</clipindex>
						</link>
						<link>
							<linkclipref>clipitem-95</linkclipref>
							<mediatype>audio</mediatype>
							<trackindex>1</trackindex>
							<clipindex>3</clipindex>
							<groupindex>1</groupindex>
						</link>
						<link>
							<linkclipref>clipitem-103</linkclipref>
							<mediatype>audio</mediatype>
							<trackindex>2</trackindex>
							<clipindex>3</clipindex>
							<groupindex>1</groupindex>
						</link>
						<logginginfo>
							<description />
							<scene />
							<shottake />
							<lognote />
							<good />
							<originalvideofilename />
							<originalaudiofilename />
						</logginginfo>
						<colorinfo>
							<lut />
							<lut1 />
							<asc_sop />
							<asc_sat />
							<lut2 />
						</colorinfo>
					<labels><label2>Caribbean</label2></labels></clipitem>
					<clipitem id="clipitem-90">
						<masterclipid>clipitem-6-71</masterclipid>
						<name>Travis_Kelce_talks_about_postponing_his_wedding_to_Fiance_Taylor_Swift_on_the_New_Heights_Podcast.mp4</name>
						<enabled>TRUE</enabled>
						<duration>150</duration>
						<rate>
							<timebase>25</timebase>
							<ntsc>FALSE</ntsc>
						</rate>
						<start>40200</start>
						<end>40350</end>
						<in>10500</in>
						<out>10650</out>
						<pproTicksIn>0</pproTicksIn>
						<pproTicksOut>149391889920000</pproTicksOut>
						<alphatype>none</alphatype>
						<pixelaspectratio>square</pixelaspectratio>
						<anamorphic>FALSE</anamorphic>
						<file id="file-34">
							<name>Travis_Kelce_talks_about_postponing_his_wedding_to_Fiance_Taylor_Swift_on_the_New_Heights_Podcast.mp4</name>
							<pathurl>file://localhost/Users/themalikano/Documents/VideoAutomation/premiere_videos/Travis_Kelce_talks_about_postponing_his_wedding_to_Fiance_Taylor_Swift_on_the_New_Heights_Podcast.mp4</pathurl>
							<rate>
								<timebase>30</timebase>
								<ntsc>FALSE</ntsc>
							</rate>
							<duration>17644</duration>
							<timecode>
								<rate>
									<timebase>30</timebase>
									<ntsc>FALSE</ntsc>
								</rate>
								<string>00:00:00:00</string>
								<frame>0</frame>
								<displayformat>NDF</displayformat>
							</timecode>
							<media>
								<video>
									<samplecharacteristics>
										<rate>
											<timebase>30</timebase>
											<ntsc>FALSE</ntsc>
										</rate>
										<width>1920</width>
										<height>1080</height>
										<anamorphic>FALSE</anamorphic>
										<pixelaspectratio>square</pixelaspectratio>
										<fielddominance>none</fielddominance>
									</samplecharacteristics>
								</video>
								<audio>
									<samplecharacteristics>
										<depth>16</depth>
										<samplerate>44100</samplerate>
									</samplecharacteristics>
									<channelcount>2</channelcount>
								</audio>
							</media>
						</file>
						<link>
							<linkclipref>clipitem-90</linkclipref>
							<mediatype>video</mediatype>
							<trackindex>1</trackindex>
							<clipindex>6</clipindex>
						</link>
						<link>
							<linkclipref>clipitem-98</linkclipref>
							<mediatype>audio</mediatype>
							<trackindex>1</trackindex>
							<clipindex>6</clipindex>
							<groupindex>1</groupindex>
						</link>
						<link>
							<linkclipref>clipitem-106</linkclipref>
							<mediatype>audio</mediatype>
							<trackindex>2</trackindex>
							<clipindex>6</clipindex>
							<groupindex>1</groupindex>
						</link>
						<logginginfo>
							<description />
							<scene />
							<shottake />
							<lognote />
							<good />
							<originalvideofilename />
							<originalaudiofilename />
						</logginginfo>
						<colorinfo>
							<lut />
							<lut1 />
							<asc_sop />
							<asc_sat />
							<lut2 />
						</colorinfo>
					<labels><label2>Forest</label2></labels></clipitem>
					<clipitem id="clipitem-87">
						<masterclipid>clipitem-3-292</masterclipid>
						<name>Taylor_Swift_Travis_Kelce_-_The_New_Power_Couple.mp4</name>
						<enabled>TRUE</enabled>
						<duration>150</duration>
						<rate>
							<timebase>25</timebase>
							<ntsc>FALSE</ntsc>
						</rate>
						<start>40350</start>
						<end>40500</end>
						<in>43650</in>
						<out>43800</out>
						<pproTicksIn>0</pproTicksIn>
						<pproTicksOut>875013995520000</pproTicksOut>
						<alphatype>none</alphatype>
						<pixelaspectratio>square</pixelaspectratio>
						<anamorphic>FALSE</anamorphic>
						<file id="file-31">
							<name>Taylor_Swift_Travis_Kelce_-_The_New_Power_Couple.mp4</name>
							<pathurl>file://localhost/Users/themalikano/Documents/VideoAutomation/premiere_videos/Taylor_Swift_Travis_Kelce_-_The_New_Power_Couple.mp4</pathurl>
							<rate>
								<timebase>25</timebase>
								<ntsc>FALSE</ntsc>
							</rate>
							<duration>86118</duration>
							<timecode>
								<rate>
									<timebase>25</timebase>
									<ntsc>FALSE</ntsc>
								</rate>
								<string>00:00:00:00</string>
								<frame>0</frame>
								<displayformat>NDF</displayformat>
							</timecode>
							<media>
								<video>
									<samplecharacteristics>
										<rate>
											<timebase>25</timebase>
											<ntsc>FALSE</ntsc>
										</rate>
										<width>1920</width>
										<height>1080</height>
										<anamorphic>FALSE</anamorphic>
										<pixelaspectratio>square</pixelaspectratio>
										<fielddominance>none</fielddominance>
									</samplecharacteristics>
								</video>
								<audio>
									<samplecharacteristics>
										<depth>16</depth>
										<samplerate>44100</samplerate>
									</samplecharacteristics>
									<channelcount>2</channelcount>
								</audio>
							</media>
						</file>
						<link>
							<linkclipref>clipitem-87</linkclipref>
							<mediatype>video</mediatype>
							<trackindex>1</trackindex>
							<clipindex>3</clipindex>
						</link>
						<link>
							<linkclipref>clipitem-95</linkclipref>
							<mediatype>audio</mediatype>
							<trackindex>1</trackindex>
							<clipindex>3</clipindex>
							<groupindex>1</groupindex>
						</link>
						<link>
							<linkclipref>clipitem-103</linkclipref>
							<mediatype>audio</mediatype>
							<trackindex>2</trackindex>
							<clipindex>3</clipindex>
							<groupindex>1</groupindex>
						</link>
						<logginginfo>
							<description />
							<scene />
							<shottake />
							<lognote />
							<good />
							<originalvideofilename />
							<originalaudiofilename />
						</logginginfo>
						<colorinfo>
							<lut />
							<lut1 />
							<asc_sop />
							<asc_sat />
							<lut2 />
						</colorinfo>
					<labels><label2>Caribbean</label2></labels></clipitem>
					<clipitem id="clipitem-88">
						<masterclipid>clipitem-4-185</masterclipid>
						<name>Travis_Kelce_ANNOUNCE_WEDDING_DATE_with_Taylor_Swift_Why_He_was_Delaying_all_Along.mp4</name>
						<enabled>TRUE</enabled>
						<duration>150</duration>
						<rate>
							<timebase>25</timebase>
							<ntsc>FALSE</ntsc>
						</rate>
						<start>40500</start>
						<end>40650</end>
						<in>27600</in>
						<out>27750</out>
						<pproTicksIn>0</pproTicksIn>
						<pproTicksOut>419410897920000</pproTicksOut>
						<alphatype>none</alphatype>
						<pixelaspectratio>square</pixelaspectratio>
						<anamorphic>FALSE</anamorphic>
						<file id="file-32">
							<name>Travis_Kelce_ANNOUNCE_WEDDING_DATE_with_Taylor_Swift_Why_He_was_Delaying_all_Along.mp4</name>
							<pathurl>file://localhost/Users/themalikano/Documents/VideoAutomation/premiere_videos/Travis_Kelce_ANNOUNCE_WEDDING_DATE_with_Taylor_Swift_Why_He_was_Delaying_all_Along.mp4</pathurl>
							<rate>
								<timebase>24</timebase>
								<ntsc>FALSE</ntsc>
							</rate>
							<duration>39627</duration>
							<timecode>
								<rate>
									<timebase>24</timebase>
									<ntsc>FALSE</ntsc>
								</rate>
								<string>00:00:00:00</string>
								<frame>0</frame>
								<displayformat>NDF</displayformat>
							</timecode>
							<media>
								<video>
									<samplecharacteristics>
										<rate>
											<timebase>24</timebase>
											<ntsc>FALSE</ntsc>
										</rate>
										<width>852</width>
										<height>480</height>
										<anamorphic>FALSE</anamorphic>
										<pixelaspectratio>square</pixelaspectratio>
										<fielddominance>none</fielddominance>
									</samplecharacteristics>
								</video>
								<audio>
									<samplecharacteristics>
										<depth>16</depth>
										<samplerate>44100</samplerate>
									</samplecharacteristics>
									<channelcount>2</channelcount>
								</audio>
							</media>
						</file>
						<filter>
							<effect>
								<name>Basic Motion</name>
								<effectid>basic</effectid>
								<effectcategory>motion</effectcategory>
								<effecttype>motion</effecttype>
								<mediatype>video</mediatype>
								<pproBypass>false</pproBypass>
								<parameter authoringApp="PremierePro">
									<parameterid>scale</parameterid>
									<name>Scale</name>
									<valuemin>0</valuemin>
									<valuemax>1000</valuemax>
									<value>225</value>
								</parameter>
								<parameter authoringApp="PremierePro">
									<parameterid>rotation</parameterid>
									<name>Rotation</name>
									<valuemin>-8640</valuemin>
									<valuemax>8640</valuemax>
									<value>0</value>
								</parameter>
								<parameter authoringApp="PremierePro">
									<parameterid>center</parameterid>
									<name>Center</name>
									<value>
										<horiz>0</horiz>
										<vert>0</vert>
									</value>
								</parameter>
								<parameter authoringApp="PremierePro">
									<parameterid>centerOffset</parameterid>
									<name>Anchor Point</name>
									<value>
										<horiz>0</horiz>
										<vert>0</vert>
									</value>
								</parameter>
								<parameter authoringApp="PremierePro">
									<parameterid>antiflicker</parameterid>
									<name>Anti-flicker Filter</name>
									<valuemin>0.0</valuemin>
									<valuemax>1.0</valuemax>
									<value>0</value>
								</parameter>
							</effect>
						</filter>
						<link>
							<linkclipref>clipitem-88</linkclipref>
							<mediatype>video</mediatype>
							<trackindex>1</trackindex>
							<clipindex>4</clipindex>
						</link>
						<link>
							<linkclipref>clipitem-96</linkclipref>
							<mediatype>audio</mediatype>
							<trackindex>1</trackindex>
							<clipindex>4</clipindex>
							<groupindex>1</groupindex>
						</link>
						<link>
							<linkclipref>clipitem-104</linkclipref>
							<mediatype>audio</mediatype>
							<trackindex>2</trackindex>
							<clipindex>4</clipindex>
							<groupindex>1</groupindex>
						</link>
						<logginginfo>
							<description />
							<scene />
							<shottake />
							<lognote />
							<good />
							<originalvideofilename />
							<originalaudiofilename />
						</logginginfo>
						<colorinfo>
							<lut />
							<lut1 />
							<asc_sop />
							<asc_sat />
							<lut2 />
						</colorinfo>
					<labels><label2>Lavender</label2></labels></clipitem>
					<clipitem id="clipitem-87">
						<masterclipid>clipitem-3-462</masterclipid>
						<name>Taylor_Swift_Travis_Kelce_-_The_New_Power_Couple.mp4</name>
						<enabled>TRUE</enabled>
						<duration>150</duration>
						<rate>
							<timebase>25</timebase>
							<ntsc>FALSE</ntsc>
						</rate>
						<start>40650</start>
						<end>40800</end>
						<in>69150</in>
						<out>69300</out>
						<pproTicksIn>0</pproTicksIn>
						<pproTicksOut>875013995520000</pproTicksOut>
						<alphatype>none</alphatype>
						<pixelaspectratio>square</pixelaspectratio>
						<anamorphic>FALSE</anamorphic>
						<file id="file-31">
							<name>Taylor_Swift_Travis_Kelce_-_The_New_Power_Couple.mp4</name>
							<pathurl>file://localhost/Users/themalikano/Documents/VideoAutomation/premiere_videos/Taylor_Swift_Travis_Kelce_-_The_New_Power_Couple.mp4</pathurl>
							<rate>
								<timebase>25</timebase>
								<ntsc>FALSE</ntsc>
							</rate>
							<duration>86118</duration>
							<timecode>
								<rate>
									<timebase>25</timebase>
									<ntsc>FALSE</ntsc>
								</rate>
								<string>00:00:00:00</string>
								<frame>0</frame>
								<displayformat>NDF</displayformat>
							</timecode>
							<media>
								<video>
									<samplecharacteristics>
										<rate>
											<timebase>25</timebase>
											<ntsc>FALSE</ntsc>
										</rate>
										<width>1920</width>
										<height>1080</height>
										<anamorphic>FALSE</anamorphic>
										<pixelaspectratio>square</pixelaspectratio>
										<fielddominance>none</fielddominance>
									</samplecharacteristics>
								</video>
								<audio>
									<samplecharacteristics>
										<depth>16</depth>
										<samplerate>44100</samplerate>
									</samplecharacteristics>
									<channelcount>2</channelcount>
								</audio>
							</media>
						</file>
						<link>
							<linkclipref>clipitem-87</linkclipref>
							<mediatype>video</mediatype>
							<trackindex>1</trackindex>
							<clipindex>3</clipindex>
						</link>
						<link>
							<linkclipref>clipitem-95</linkclipref>
							<mediatype>audio</mediatype>
							<trackindex>1</trackindex>
							<clipindex>3</clipindex>
							<groupindex>1</groupindex>
						</link>
						<link>
							<linkclipref>clipitem-103</linkclipref>
							<mediatype>audio</mediatype>
							<trackindex>2</trackindex>
							<clipindex>3</clipindex>
							<groupindex>1</groupindex>
						</link>
						<logginginfo>
							<description />
							<scene />
							<shottake />
							<lognote />
							<good />
							<originalvideofilename />
							<originalaudiofilename />
						</logginginfo>
						<colorinfo>
							<lut />
							<lut1 />
							<asc_sop />
							<asc_sat />
							<lut2 />
						</colorinfo>
					<labels><label2>Caribbean</label2></labels></clipitem>
					<clipitem id="clipitem-90">
						<masterclipid>clipitem-6-15</masterclipid>
						<name>Travis_Kelce_talks_about_postponing_his_wedding_to_Fiance_Taylor_Swift_on_the_New_Heights_Podcast.mp4</name>
						<enabled>TRUE</enabled>
						<duration>150</duration>
						<rate>
							<timebase>25</timebase>
							<ntsc>FALSE</ntsc>
						</rate>
						<start>40800</start>
						<end>40950</end>
						<in>2100</in>
						<out>2250</out>
						<pproTicksIn>0</pproTicksIn>
						<pproTicksOut>149391889920000</pproTicksOut>
						<alphatype>none</alphatype>
						<pixelaspectratio>square</pixelaspectratio>
						<anamorphic>FALSE</anamorphic>
						<file id="file-34">
							<name>Travis_Kelce_talks_about_postponing_his_wedding_to_Fiance_Taylor_Swift_on_the_New_Heights_Podcast.mp4</name>
							<pathurl>file://localhost/Users/themalikano/Documents/VideoAutomation/premiere_videos/Travis_Kelce_talks_about_postponing_his_wedding_to_Fiance_Taylor_Swift_on_the_New_Heights_Podcast.mp4</pathurl>
							<rate>
								<timebase>30</timebase>
								<ntsc>FALSE</ntsc>
							</rate>
							<duration>17644</duration>
							<timecode>
								<rate>
									<timebase>30</timebase>
									<ntsc>FALSE</ntsc>
								</rate>
								<string>00:00:00:00</string>
								<frame>0</frame>
								<displayformat>NDF</displayformat>
							</timecode>
							<media>
								<video>
									<samplecharacteristics>
										<rate>
											<timebase>30</timebase>
											<ntsc>FALSE</ntsc>
										</rate>
										<width>1920</width>
										<height>1080</height>
										<anamorphic>FALSE</anamorphic>
										<pixelaspectratio>square</pixelaspectratio>
										<fielddominance>none</fielddominance>
									</samplecharacteristics>
								</video>
								<audio>
									<samplecharacteristics>
										<depth>16</depth>
										<samplerate>44100</samplerate>
									</samplecharacteristics>
									<channelcount>2</channelcount>
								</audio>
							</media>
						</file>
						<link>
							<linkclipref>clipitem-90</linkclipref>
							<mediatype>video</mediatype>
							<trackindex>1</trackindex>
							<clipindex>6</clipindex>
						</link>
						<link>
							<linkclipref>clipitem-98</linkclipref>
							<mediatype>audio</mediatype>
							<trackindex>1</trackindex>
							<clipindex>6</clipindex>
							<groupindex>1</groupindex>
						</link>
						<link>
							<linkclipref>clipitem-106</linkclipref>
							<mediatype>audio</mediatype>
							<trackindex>2</trackindex>
							<clipindex>6</clipindex>
							<groupindex>1</groupindex>
						</link>
						<logginginfo>
							<description />
							<scene />
							<shottake />
							<lognote />
							<good />
							<originalvideofilename />
							<originalaudiofilename />
						</logginginfo>
						<colorinfo>
							<lut />
							<lut1 />
							<asc_sop />
							<asc_sat />
							<lut2 />
						</colorinfo>
					<labels><label2>Forest</label2></labels></clipitem>
					<clipitem id="clipitem-87">
						<masterclipid>clipitem-3-361</masterclipid>
						<name>Taylor_Swift_Travis_Kelce_-_The_New_Power_Couple.mp4</name>
						<enabled>TRUE</enabled>
						<duration>150</duration>
						<rate>
							<timebase>25</timebase>
							<ntsc>FALSE</ntsc>
						</rate>
						<start>40950</start>
						<end>41100</end>
						<in>54000</in>
						<out>54150</out>
						<pproTicksIn>0</pproTicksIn>
						<pproTicksOut>875013995520000</pproTicksOut>
						<alphatype>none</alphatype>
						<pixelaspectratio>square</pixelaspectratio>
						<anamorphic>FALSE</anamorphic>
						<file id="file-31">
							<name>Taylor_Swift_Travis_Kelce_-_The_New_Power_Couple.mp4</name>
							<pathurl>file://localhost/Users/themalikano/Documents/VideoAutomation/premiere_videos/Taylor_Swift_Travis_Kelce_-_The_New_Power_Couple.mp4</pathurl>
							<rate>
								<timebase>25</timebase>
								<ntsc>FALSE</ntsc>
							</rate>
							<duration>86118</duration>
							<timecode>
								<rate>
									<timebase>25</timebase>
									<ntsc>FALSE</ntsc>
								</rate>
								<string>00:00:00:00</string>
								<frame>0</frame>
								<displayformat>NDF</displayformat>
							</timecode>
							<media>
								<video>
									<samplecharacteristics>
										<rate>
											<timebase>25</timebase>
											<ntsc>FALSE</ntsc>
										</rate>
										<width>1920</width>
										<height>1080</height>
										<anamorphic>FALSE</anamorphic>
										<pixelaspectratio>square</pixelaspectratio>
										<fielddominance>none</fielddominance>
									</samplecharacteristics>
								</video>
								<audio>
									<samplecharacteristics>
										<depth>16</depth>
										<samplerate>44100</samplerate>
									</samplecharacteristics>
									<channelcount>2</channelcount>
								</audio>
							</media>
						</file>
						<link>
							<linkclipref>clipitem-87</linkclipref>
							<mediatype>video</mediatype>
							<trackindex>1</trackindex>
							<clipindex>3</clipindex>
						</link>
						<link>
							<linkclipref>clipitem-95</linkclipref>
							<mediatype>audio</mediatype>
							<trackindex>1</trackindex>
							<clipindex>3</clipindex>
							<groupindex>1</groupindex>
						</link>
						<link>
							<linkclipref>clipitem-103</linkclipref>
							<mediatype>audio</mediatype>
							<trackindex>2</trackindex>
							<clipindex>3</clipindex>
							<groupindex>1</groupindex>
						</link>
						<logginginfo>
							<description />
							<scene />
							<shottake />
							<lognote />
							<good />
							<originalvideofilename />
							<originalaudiofilename />
						</logginginfo>
						<colorinfo>
							<lut />
							<lut1 />
							<asc_sop />
							<asc_sat />
							<lut2 />
						</colorinfo>
					<labels><label2>Caribbean</label2></labels></clipitem>
					<clipitem id="clipitem-86">
						<masterclipid>clipitem-2-45</masterclipid>
						<name>Taylor_Swift_Shares_The_Story_Of_Calling_Travis_Kelce_For_The_First_Time.mp4</name>
						<enabled>TRUE</enabled>
						<duration>150</duration>
						<rate>
							<timebase>25</timebase>
							<ntsc>FALSE</ntsc>
						</rate>
						<start>41100</start>
						<end>41250</end>
						<in>6600</in>
						<out>6750</out>
						<pproTicksIn>0</pproTicksIn>
						<pproTicksOut>236438092800000</pproTicksOut>
						<alphatype>none</alphatype>
						<pixelaspectratio>square</pixelaspectratio>
						<anamorphic>FALSE</anamorphic>
						<file id="file-30">
							<name>Taylor_Swift_Shares_The_Story_Of_Calling_Travis_Kelce_For_The_First_Time.mp4</name>
							<pathurl>file://localhost/Users/themalikano/Documents/VideoAutomation/premiere_videos/Taylor_Swift_Shares_The_Story_Of_Calling_Travis_Kelce_For_The_First_Time.mp4</pathurl>
							<rate>
								<timebase>30</timebase>
								<ntsc>TRUE</ntsc>
							</rate>
							<duration>27897</duration>
							<timecode>
								<rate>
									<timebase>30</timebase>
									<ntsc>TRUE</ntsc>
								</rate>
								<string>00:00:00:00</string>
								<frame>0</frame>
								<displayformat>NDF</displayformat>
							</timecode>
							<media>
								<video>
									<samplecharacteristics>
										<rate>
											<timebase>30</timebase>
											<ntsc>TRUE</ntsc>
										</rate>
										<width>1920</width>
										<height>1080</height>
										<anamorphic>FALSE</anamorphic>
										<pixelaspectratio>square</pixelaspectratio>
										<fielddominance>none</fielddominance>
									</samplecharacteristics>
								</video>
								<audio>
									<samplecharacteristics>
										<depth>16</depth>
										<samplerate>44100</samplerate>
									</samplecharacteristics>
									<channelcount>2</channelcount>
								</audio>
							</media>
						</file>
						<link>
							<linkclipref>clipitem-86</linkclipref>
							<mediatype>video</mediatype>
							<trackindex>1</trackindex>
							<clipindex>2</clipindex>
						</link>
						<link>
							<linkclipref>clipitem-94</linkclipref>
							<mediatype>audio</mediatype>
							<trackindex>1</trackindex>
							<clipindex>2</clipindex>
							<groupindex>1</groupindex>
						</link>
						<link>
							<linkclipref>clipitem-102</linkclipref>
							<mediatype>audio</mediatype>
							<trackindex>2</trackindex>
							<clipindex>2</clipindex>
							<groupindex>1</groupindex>
						</link>
						<logginginfo>
							<description />
							<scene />
							<shottake />
							<lognote />
							<good />
							<originalvideofilename />
							<originalaudiofilename />
						</logginginfo>
						<colorinfo>
							<lut />
							<lut1 />
							<asc_sop />
							<asc_sat />
							<lut2 />
						</colorinfo>
					<labels><label2>Iris</label2></labels></clipitem>
					<clipitem id="clipitem-90">
						<masterclipid>clipitem-6-96</masterclipid>
						<name>Travis_Kelce_talks_about_postponing_his_wedding_to_Fiance_Taylor_Swift_on_the_New_Heights_Podcast.mp4</name>
						<enabled>TRUE</enabled>
						<duration>150</duration>
						<rate>
							<timebase>25</timebase>
							<ntsc>FALSE</ntsc>
						</rate>
						<start>41250</start>
						<end>41400</end>
						<in>14250</in>
						<out>14400</out>
						<pproTicksIn>0</pproTicksIn>
						<pproTicksOut>149391889920000</pproTicksOut>
						<alphatype>none</alphatype>
						<pixelaspectratio>square</pixelaspectratio>
						<anamorphic>FALSE</anamorphic>
						<file id="file-34">
							<name>Travis_Kelce_talks_about_postponing_his_wedding_to_Fiance_Taylor_Swift_on_the_New_Heights_Podcast.mp4</name>
							<pathurl>file://localhost/Users/themalikano/Documents/VideoAutomation/premiere_videos/Travis_Kelce_talks_about_postponing_his_wedding_to_Fiance_Taylor_Swift_on_the_New_Heights_Podcast.mp4</pathurl>
							<rate>
								<timebase>30</timebase>
								<ntsc>FALSE</ntsc>
							</rate>
							<duration>17644</duration>
							<timecode>
								<rate>
									<timebase>30</timebase>
									<ntsc>FALSE</ntsc>
								</rate>
								<string>00:00:00:00</string>
								<frame>0</frame>
								<displayformat>NDF</displayformat>
							</timecode>
							<media>
								<video>
									<samplecharacteristics>
										<rate>
											<timebase>30</timebase>
											<ntsc>FALSE</ntsc>
										</rate>
										<width>1920</width>
										<height>1080</height>
										<anamorphic>FALSE</anamorphic>
										<pixelaspectratio>square</pixelaspectratio>
										<fielddominance>none</fielddominance>
									</samplecharacteristics>
								</video>
								<audio>
									<samplecharacteristics>
										<depth>16</depth>
										<samplerate>44100</samplerate>
									</samplecharacteristics>
									<channelcount>2</channelcount>
								</audio>
							</media>
						</file>
						<link>
							<linkclipref>clipitem-90</linkclipref>
							<mediatype>video</mediatype>
							<trackindex>1</trackindex>
							<clipindex>6</clipindex>
						</link>
						<link>
							<linkclipref>clipitem-98</linkclipref>
							<mediatype>audio</mediatype>
							<trackindex>1</trackindex>
							<clipindex>6</clipindex>
							<groupindex>1</groupindex>
						</link>
						<link>
							<linkclipref>clipitem-106</linkclipref>
							<mediatype>audio</mediatype>
							<trackindex>2</trackindex>
							<clipindex>6</clipindex>
							<groupindex>1</groupindex>
						</link>
						<logginginfo>
							<description />
							<scene />
							<shottake />
							<lognote />
							<good />
							<originalvideofilename />
							<originalaudiofilename />
						</logginginfo>
						<colorinfo>
							<lut />
							<lut1 />
							<asc_sop />
							<asc_sat />
							<lut2 />
						</colorinfo>
					<labels><label2>Forest</label2></labels></clipitem>
					<clipitem id="clipitem-86">
						<masterclipid>clipitem-2-130</masterclipid>
						<name>Taylor_Swift_Shares_The_Story_Of_Calling_Travis_Kelce_For_The_First_Time.mp4</name>
						<enabled>TRUE</enabled>
						<duration>150</duration>
						<rate>
							<timebase>25</timebase>
							<ntsc>FALSE</ntsc>
						</rate>
						<start>41400</start>
						<end>41550</end>
						<in>19350</in>
						<out>19500</out>
						<pproTicksIn>0</pproTicksIn>
						<pproTicksOut>236438092800000</pproTicksOut>
						<alphatype>none</alphatype>
						<pixelaspectratio>square</pixelaspectratio>
						<anamorphic>FALSE</anamorphic>
						<file id="file-30">
							<name>Taylor_Swift_Shares_The_Story_Of_Calling_Travis_Kelce_For_The_First_Time.mp4</name>
							<pathurl>file://localhost/Users/themalikano/Documents/VideoAutomation/premiere_videos/Taylor_Swift_Shares_The_Story_Of_Calling_Travis_Kelce_For_The_First_Time.mp4</pathurl>
							<rate>
								<timebase>30</timebase>
								<ntsc>TRUE</ntsc>
							</rate>
							<duration>27897</duration>
							<timecode>
								<rate>
									<timebase>30</timebase>
									<ntsc>TRUE</ntsc>
								</rate>
								<string>00:00:00:00</string>
								<frame>0</frame>
								<displayformat>NDF</displayformat>
							</timecode>
							<media>
								<video>
									<samplecharacteristics>
										<rate>
											<timebase>30</timebase>
											<ntsc>TRUE</ntsc>
										</rate>
										<width>1920</width>
										<height>1080</height>
										<anamorphic>FALSE</anamorphic>
										<pixelaspectratio>square</pixelaspectratio>
										<fielddominance>none</fielddominance>
									</samplecharacteristics>
								</video>
								<audio>
									<samplecharacteristics>
										<depth>16</depth>
										<samplerate>44100</samplerate>
									</samplecharacteristics>
									<channelcount>2</channelcount>
								</audio>
							</media>
						</file>
						<link>
							<linkclipref>clipitem-86</linkclipref>
							<mediatype>video</mediatype>
							<trackindex>1</trackindex>
							<clipindex>2</clipindex>
						</link>
						<link>
							<linkclipref>clipitem-94</linkclipref>
							<mediatype>audio</mediatype>
							<trackindex>1</trackindex>
							<clipindex>2</clipindex>
							<groupindex>1</groupindex>
						</link>
						<link>
							<linkclipref>clipitem-102</linkclipref>
							<mediatype>audio</mediatype>
							<trackindex>2</trackindex>
							<clipindex>2</clipindex>
							<groupindex>1</groupindex>
						</link>
						<logginginfo>
							<description />
							<scene />
							<shottake />
							<lognote />
							<good />
							<originalvideofilename />
							<originalaudiofilename />
						</logginginfo>
						<colorinfo>
							<lut />
							<lut1 />
							<asc_sop />
							<asc_sat />
							<lut2 />
						</colorinfo>
					<labels><label2>Iris</label2></labels></clipitem>
					<clipitem id="clipitem-88">
						<masterclipid>clipitem-4-90</masterclipid>
						<name>Travis_Kelce_ANNOUNCE_WEDDING_DATE_with_Taylor_Swift_Why_He_was_Delaying_all_Along.mp4</name>
						<enabled>TRUE</enabled>
						<duration>150</duration>
						<rate>
							<timebase>25</timebase>
							<ntsc>FALSE</ntsc>
						</rate>
						<start>41550</start>
						<end>41700</end>
						<in>13350</in>
						<out>13500</out>
						<pproTicksIn>0</pproTicksIn>
						<pproTicksOut>419410897920000</pproTicksOut>
						<alphatype>none</alphatype>
						<pixelaspectratio>square</pixelaspectratio>
						<anamorphic>FALSE</anamorphic>
						<file id="file-32">
							<name>Travis_Kelce_ANNOUNCE_WEDDING_DATE_with_Taylor_Swift_Why_He_was_Delaying_all_Along.mp4</name>
							<pathurl>file://localhost/Users/themalikano/Documents/VideoAutomation/premiere_videos/Travis_Kelce_ANNOUNCE_WEDDING_DATE_with_Taylor_Swift_Why_He_was_Delaying_all_Along.mp4</pathurl>
							<rate>
								<timebase>24</timebase>
								<ntsc>FALSE</ntsc>
							</rate>
							<duration>39627</duration>
							<timecode>
								<rate>
									<timebase>24</timebase>
									<ntsc>FALSE</ntsc>
								</rate>
								<string>00:00:00:00</string>
								<frame>0</frame>
								<displayformat>NDF</displayformat>
							</timecode>
							<media>
								<video>
									<samplecharacteristics>
										<rate>
											<timebase>24</timebase>
											<ntsc>FALSE</ntsc>
										</rate>
										<width>852</width>
										<height>480</height>
										<anamorphic>FALSE</anamorphic>
										<pixelaspectratio>square</pixelaspectratio>
										<fielddominance>none</fielddominance>
									</samplecharacteristics>
								</video>
								<audio>
									<samplecharacteristics>
										<depth>16</depth>
										<samplerate>44100</samplerate>
									</samplecharacteristics>
									<channelcount>2</channelcount>
								</audio>
							</media>
						</file>
						<filter>
							<effect>
								<name>Basic Motion</name>
								<effectid>basic</effectid>
								<effectcategory>motion</effectcategory>
								<effecttype>motion</effecttype>
								<mediatype>video</mediatype>
								<pproBypass>false</pproBypass>
								<parameter authoringApp="PremierePro">
									<parameterid>scale</parameterid>
									<name>Scale</name>
									<valuemin>0</valuemin>
									<valuemax>1000</valuemax>
									<value>225</value>
								</parameter>
								<parameter authoringApp="PremierePro">
									<parameterid>rotation</parameterid>
									<name>Rotation</name>
									<valuemin>-8640</valuemin>
									<valuemax>8640</valuemax>
									<value>0</value>
								</parameter>
								<parameter authoringApp="PremierePro">
									<parameterid>center</parameterid>
									<name>Center</name>
									<value>
										<horiz>0</horiz>
										<vert>0</vert>
									</value>
								</parameter>
								<parameter authoringApp="PremierePro">
									<parameterid>centerOffset</parameterid>
									<name>Anchor Point</name>
									<value>
										<horiz>0</horiz>
										<vert>0</vert>
									</value>
								</parameter>
								<parameter authoringApp="PremierePro">
									<parameterid>antiflicker</parameterid>
									<name>Anti-flicker Filter</name>
									<valuemin>0.0</valuemin>
									<valuemax>1.0</valuemax>
									<value>0</value>
								</parameter>
							</effect>
						</filter>
						<link>
							<linkclipref>clipitem-88</linkclipref>
							<mediatype>video</mediatype>
							<trackindex>1</trackindex>
							<clipindex>4</clipindex>
						</link>
						<link>
							<linkclipref>clipitem-96</linkclipref>
							<mediatype>audio</mediatype>
							<trackindex>1</trackindex>
							<clipindex>4</clipindex>
							<groupindex>1</groupindex>
						</link>
						<link>
							<linkclipref>clipitem-104</linkclipref>
							<mediatype>audio</mediatype>
							<trackindex>2</trackindex>
							<clipindex>4</clipindex>
							<groupindex>1</groupindex>
						</link>
						<logginginfo>
							<description />
							<scene />
							<shottake />
							<lognote />
							<good />
							<originalvideofilename />
							<originalaudiofilename />
						</logginginfo>
						<colorinfo>
							<lut />
							<lut1 />
							<asc_sop />
							<asc_sat />
							<lut2 />
						</colorinfo>
					<labels><label2>Lavender</label2></labels></clipitem>
					<clipitem id="clipitem-86">
						<masterclipid>clipitem-2-101</masterclipid>
						<name>Taylor_Swift_Shares_The_Story_Of_Calling_Travis_Kelce_For_The_First_Time.mp4</name>
						<enabled>TRUE</enabled>
						<duration>150</duration>
						<rate>
							<timebase>25</timebase>
							<ntsc>FALSE</ntsc>
						</rate>
						<start>41700</start>
						<end>41850</end>
						<in>15000</in>
						<out>15150</out>
						<pproTicksIn>0</pproTicksIn>
						<pproTicksOut>236438092800000</pproTicksOut>
						<alphatype>none</alphatype>
						<pixelaspectratio>square</pixelaspectratio>
						<anamorphic>FALSE</anamorphic>
						<file id="file-30">
							<name>Taylor_Swift_Shares_The_Story_Of_Calling_Travis_Kelce_For_The_First_Time.mp4</name>
							<pathurl>file://localhost/Users/themalikano/Documents/VideoAutomation/premiere_videos/Taylor_Swift_Shares_The_Story_Of_Calling_Travis_Kelce_For_The_First_Time.mp4</pathurl>
							<rate>
								<timebase>30</timebase>
								<ntsc>TRUE</ntsc>
							</rate>
							<duration>27897</duration>
							<timecode>
								<rate>
									<timebase>30</timebase>
									<ntsc>TRUE</ntsc>
								</rate>
								<string>00:00:00:00</string>
								<frame>0</frame>
								<displayformat>NDF</displayformat>
							</timecode>
							<media>
								<video>
									<samplecharacteristics>
										<rate>
											<timebase>30</timebase>
											<ntsc>TRUE</ntsc>
										</rate>
										<width>1920</width>
										<height>1080</height>
										<anamorphic>FALSE</anamorphic>
										<pixelaspectratio>square</pixelaspectratio>
										<fielddominance>none</fielddominance>
									</samplecharacteristics>
								</video>
								<audio>
									<samplecharacteristics>
										<depth>16</depth>
										<samplerate>44100</samplerate>
									</samplecharacteristics>
									<channelcount>2</channelcount>
								</audio>
							</media>
						</file>
						<link>
							<linkclipref>clipitem-86</linkclipref>
							<mediatype>video</mediatype>
							<trackindex>1</trackindex>
							<clipindex>2</clipindex>
						</link>
						<link>
							<linkclipref>clipitem-94</linkclipref>
							<mediatype>audio</mediatype>
							<trackindex>1</trackindex>
							<clipindex>2</clipindex>
							<groupindex>1</groupindex>
						</link>
						<link>
							<linkclipref>clipitem-102</linkclipref>
							<mediatype>audio</mediatype>
							<trackindex>2</trackindex>
							<clipindex>2</clipindex>
							<groupindex>1</groupindex>
						</link>
						<logginginfo>
							<description />
							<scene />
							<shottake />
							<lognote />
							<good />
							<originalvideofilename />
							<originalaudiofilename />
						</logginginfo>
						<colorinfo>
							<lut />
							<lut1 />
							<asc_sop />
							<asc_sat />
							<lut2 />
						</colorinfo>
					<labels><label2>Iris</label2></labels></clipitem>
					<clipitem id="clipitem-90">
						<masterclipid>clipitem-6-64</masterclipid>
						<name>Travis_Kelce_talks_about_postponing_his_wedding_to_Fiance_Taylor_Swift_on_the_New_Heights_Podcast.mp4</name>
						<enabled>TRUE</enabled>
						<duration>150</duration>
						<rate>
							<timebase>25</timebase>
							<ntsc>FALSE</ntsc>
						</rate>
						<start>41850</start>
						<end>42000</end>
						<in>9450</in>
						<out>9600</out>
						<pproTicksIn>0</pproTicksIn>
						<pproTicksOut>149391889920000</pproTicksOut>
						<alphatype>none</alphatype>
						<pixelaspectratio>square</pixelaspectratio>
						<anamorphic>FALSE</anamorphic>
						<file id="file-34">
							<name>Travis_Kelce_talks_about_postponing_his_wedding_to_Fiance_Taylor_Swift_on_the_New_Heights_Podcast.mp4</name>
							<pathurl>file://localhost/Users/themalikano/Documents/VideoAutomation/premiere_videos/Travis_Kelce_talks_about_postponing_his_wedding_to_Fiance_Taylor_Swift_on_the_New_Heights_Podcast.mp4</pathurl>
							<rate>
								<timebase>30</timebase>
								<ntsc>FALSE</ntsc>
							</rate>
							<duration>17644</duration>
							<timecode>
								<rate>
									<timebase>30</timebase>
									<ntsc>FALSE</ntsc>
								</rate>
								<string>00:00:00:00</string>
								<frame>0</frame>
								<displayformat>NDF</displayformat>
							</timecode>
							<media>
								<video>
									<samplecharacteristics>
										<rate>
											<timebase>30</timebase>
											<ntsc>FALSE</ntsc>
										</rate>
										<width>1920</width>
										<height>1080</height>
										<anamorphic>FALSE</anamorphic>
										<pixelaspectratio>square</pixelaspectratio>
										<fielddominance>none</fielddominance>
									</samplecharacteristics>
								</video>
								<audio>
									<samplecharacteristics>
										<depth>16</depth>
										<samplerate>44100</samplerate>
									</samplecharacteristics>
									<channelcount>2</channelcount>
								</audio>
							</media>
						</file>
						<link>
							<linkclipref>clipitem-90</linkclipref>
							<mediatype>video</mediatype>
							<trackindex>1</trackindex>
							<clipindex>6</clipindex>
						</link>
						<link>
							<linkclipref>clipitem-98</linkclipref>
							<mediatype>audio</mediatype>
							<trackindex>1</trackindex>
							<clipindex>6</clipindex>
							<groupindex>1</groupindex>
						</link>
						<link>
							<linkclipref>clipitem-106</linkclipref>
							<mediatype>audio</mediatype>
							<trackindex>2</trackindex>
							<clipindex>6</clipindex>
							<groupindex>1</groupindex>
						</link>
						<logginginfo>
							<description />
							<scene />
							<shottake />
							<lognote />
							<good />
							<originalvideofilename />
							<originalaudiofilename />
						</logginginfo>
						<colorinfo>
							<lut />
							<lut1 />
							<asc_sop />
							<asc_sat />
							<lut2 />
						</colorinfo>
					<labels><label2>Forest</label2></labels></clipitem>
					<clipitem id="clipitem-88">
						<masterclipid>clipitem-4-245</masterclipid>
						<name>Travis_Kelce_ANNOUNCE_WEDDING_DATE_with_Taylor_Swift_Why_He_was_Delaying_all_Along.mp4</name>
						<enabled>TRUE</enabled>
						<duration>150</duration>
						<rate>
							<timebase>25</timebase>
							<ntsc>FALSE</ntsc>
						</rate>
						<start>42000</start>
						<end>42150</end>
						<in>36600</in>
						<out>36750</out>
						<pproTicksIn>0</pproTicksIn>
						<pproTicksOut>419410897920000</pproTicksOut>
						<alphatype>none</alphatype>
						<pixelaspectratio>square</pixelaspectratio>
						<anamorphic>FALSE</anamorphic>
						<file id="file-32">
							<name>Travis_Kelce_ANNOUNCE_WEDDING_DATE_with_Taylor_Swift_Why_He_was_Delaying_all_Along.mp4</name>
							<pathurl>file://localhost/Users/themalikano/Documents/VideoAutomation/premiere_videos/Travis_Kelce_ANNOUNCE_WEDDING_DATE_with_Taylor_Swift_Why_He_was_Delaying_all_Along.mp4</pathurl>
							<rate>
								<timebase>24</timebase>
								<ntsc>FALSE</ntsc>
							</rate>
							<duration>39627</duration>
							<timecode>
								<rate>
									<timebase>24</timebase>
									<ntsc>FALSE</ntsc>
								</rate>
								<string>00:00:00:00</string>
								<frame>0</frame>
								<displayformat>NDF</displayformat>
							</timecode>
							<media>
								<video>
									<samplecharacteristics>
										<rate>
											<timebase>24</timebase>
											<ntsc>FALSE</ntsc>
										</rate>
										<width>852</width>
										<height>480</height>
										<anamorphic>FALSE</anamorphic>
										<pixelaspectratio>square</pixelaspectratio>
										<fielddominance>none</fielddominance>
									</samplecharacteristics>
								</video>
								<audio>
									<samplecharacteristics>
										<depth>16</depth>
										<samplerate>44100</samplerate>
									</samplecharacteristics>
									<channelcount>2</channelcount>
								</audio>
							</media>
						</file>
						<filter>
							<effect>
								<name>Basic Motion</name>
								<effectid>basic</effectid>
								<effectcategory>motion</effectcategory>
								<effecttype>motion</effecttype>
								<mediatype>video</mediatype>
								<pproBypass>false</pproBypass>
								<parameter authoringApp="PremierePro">
									<parameterid>scale</parameterid>
									<name>Scale</name>
									<valuemin>0</valuemin>
									<valuemax>1000</valuemax>
									<value>225</value>
								</parameter>
								<parameter authoringApp="PremierePro">
									<parameterid>rotation</parameterid>
									<name>Rotation</name>
									<valuemin>-8640</valuemin>
									<valuemax>8640</valuemax>
									<value>0</value>
								</parameter>
								<parameter authoringApp="PremierePro">
									<parameterid>center</parameterid>
									<name>Center</name>
									<value>
										<horiz>0</horiz>
										<vert>0</vert>
									</value>
								</parameter>
								<parameter authoringApp="PremierePro">
									<parameterid>centerOffset</parameterid>
									<name>Anchor Point</name>
									<value>
										<horiz>0</horiz>
										<vert>0</vert>
									</value>
								</parameter>
								<parameter authoringApp="PremierePro">
									<parameterid>antiflicker</parameterid>
									<name>Anti-flicker Filter</name>
									<valuemin>0.0</valuemin>
									<valuemax>1.0</valuemax>
									<value>0</value>
								</parameter>
							</effect>
						</filter>
						<link>
							<linkclipref>clipitem-88</linkclipref>
							<mediatype>video</mediatype>
							<trackindex>1</trackindex>
							<clipindex>4</clipindex>
						</link>
						<link>
							<linkclipref>clipitem-96</linkclipref>
							<mediatype>audio</mediatype>
							<trackindex>1</trackindex>
							<clipindex>4</clipindex>
							<groupindex>1</groupindex>
						</link>
						<link>
							<linkclipref>clipitem-104</linkclipref>
							<mediatype>audio</mediatype>
							<trackindex>2</trackindex>
							<clipindex>4</clipindex>
							<groupindex>1</groupindex>
						</link>
						<logginginfo>
							<description />
							<scene />
							<shottake />
							<lognote />
							<good />
							<originalvideofilename />
							<originalaudiofilename />
						</logginginfo>
						<colorinfo>
							<lut />
							<lut1 />
							<asc_sop />
							<asc_sat />
							<lut2 />
						</colorinfo>
					<labels><label2>Lavender</label2></labels></clipitem>
					<clipitem id="clipitem-90">
						<masterclipid>clipitem-6-90</masterclipid>
						<name>Travis_Kelce_talks_about_postponing_his_wedding_to_Fiance_Taylor_Swift_on_the_New_Heights_Podcast.mp4</name>
						<enabled>TRUE</enabled>
						<duration>150</duration>
						<rate>
							<timebase>25</timebase>
							<ntsc>FALSE</ntsc>
						</rate>
						<start>42150</start>
						<end>42300</end>
						<in>13350</in>
						<out>13500</out>
						<pproTicksIn>0</pproTicksIn>
						<pproTicksOut>149391889920000</pproTicksOut>
						<alphatype>none</alphatype>
						<pixelaspectratio>square</pixelaspectratio>
						<anamorphic>FALSE</anamorphic>
						<file id="file-34">
							<name>Travis_Kelce_talks_about_postponing_his_wedding_to_Fiance_Taylor_Swift_on_the_New_Heights_Podcast.mp4</name>
							<pathurl>file://localhost/Users/themalikano/Documents/VideoAutomation/premiere_videos/Travis_Kelce_talks_about_postponing_his_wedding_to_Fiance_Taylor_Swift_on_the_New_Heights_Podcast.mp4</pathurl>
							<rate>
								<timebase>30</timebase>
								<ntsc>FALSE</ntsc>
							</rate>
							<duration>17644</duration>
							<timecode>
								<rate>
									<timebase>30</timebase>
									<ntsc>FALSE</ntsc>
								</rate>
								<string>00:00:00:00</string>
								<frame>0</frame>
								<displayformat>NDF</displayformat>
							</timecode>
							<media>
								<video>
									<samplecharacteristics>
										<rate>
											<timebase>30</timebase>
											<ntsc>FALSE</ntsc>
										</rate>
										<width>1920</width>
										<height>1080</height>
										<anamorphic>FALSE</anamorphic>
										<pixelaspectratio>square</pixelaspectratio>
										<fielddominance>none</fielddominance>
									</samplecharacteristics>
								</video>
								<audio>
									<samplecharacteristics>
										<depth>16</depth>
										<samplerate>44100</samplerate>
									</samplecharacteristics>
									<channelcount>2</channelcount>
								</audio>
							</media>
						</file>
						<link>
							<linkclipref>clipitem-90</linkclipref>
							<mediatype>video</mediatype>
							<trackindex>1</trackindex>
							<clipindex>6</clipindex>
						</link>
						<link>
							<linkclipref>clipitem-98</linkclipref>
							<mediatype>audio</mediatype>
							<trackindex>1</trackindex>
							<clipindex>6</clipindex>
							<groupindex>1</groupindex>
						</link>
						<link>
							<linkclipref>clipitem-106</linkclipref>
							<mediatype>audio</mediatype>
							<trackindex>2</trackindex>
							<clipindex>6</clipindex>
							<groupindex>1</groupindex>
						</link>
						<logginginfo>
							<description />
							<scene />
							<shottake />
							<lognote />
							<good />
							<originalvideofilename />
							<originalaudiofilename />
						</logginginfo>
						<colorinfo>
							<lut />
							<lut1 />
							<asc_sop />
							<asc_sat />
							<lut2 />
						</colorinfo>
					<labels><label2>Forest</label2></labels></clipitem>
					<clipitem id="clipitem-87">
						<masterclipid>clipitem-3-367</masterclipid>
						<name>Taylor_Swift_Travis_Kelce_-_The_New_Power_Couple.mp4</name>
						<enabled>TRUE</enabled>
						<duration>150</duration>
						<rate>
							<timebase>25</timebase>
							<ntsc>FALSE</ntsc>
						</rate>
						<start>42300</start>
						<end>42450</end>
						<in>54900</in>
						<out>55050</out>
						<pproTicksIn>0</pproTicksIn>
						<pproTicksOut>875013995520000</pproTicksOut>
						<alphatype>none</alphatype>
						<pixelaspectratio>square</pixelaspectratio>
						<anamorphic>FALSE</anamorphic>
						<file id="file-31">
							<name>Taylor_Swift_Travis_Kelce_-_The_New_Power_Couple.mp4</name>
							<pathurl>file://localhost/Users/themalikano/Documents/VideoAutomation/premiere_videos/Taylor_Swift_Travis_Kelce_-_The_New_Power_Couple.mp4</pathurl>
							<rate>
								<timebase>25</timebase>
								<ntsc>FALSE</ntsc>
							</rate>
							<duration>86118</duration>
							<timecode>
								<rate>
									<timebase>25</timebase>
									<ntsc>FALSE</ntsc>
								</rate>
								<string>00:00:00:00</string>
								<frame>0</frame>
								<displayformat>NDF</displayformat>
							</timecode>
							<media>
								<video>
									<samplecharacteristics>
										<rate>
											<timebase>25</timebase>
											<ntsc>FALSE</ntsc>
										</rate>
										<width>1920</width>
										<height>1080</height>
										<anamorphic>FALSE</anamorphic>
										<pixelaspectratio>square</pixelaspectratio>
										<fielddominance>none</fielddominance>
									</samplecharacteristics>
								</video>
								<audio>
									<samplecharacteristics>
										<depth>16</depth>
										<samplerate>44100</samplerate>
									</samplecharacteristics>
									<channelcount>2</channelcount>
								</audio>
							</media>
						</file>
						<link>
							<linkclipref>clipitem-87</linkclipref>
							<mediatype>video</mediatype>
							<trackindex>1</trackindex>
							<clipindex>3</clipindex>
						</link>
						<link>
							<linkclipref>clipitem-95</linkclipref>
							<mediatype>audio</mediatype>
							<trackindex>1</trackindex>
							<clipindex>3</clipindex>
							<groupindex>1</groupindex>
						</link>
						<link>
							<linkclipref>clipitem-103</linkclipref>
							<mediatype>audio</mediatype>
							<trackindex>2</trackindex>
							<clipindex>3</clipindex>
							<groupindex>1</groupindex>
						</link>
						<logginginfo>
							<description />
							<scene />
							<shottake />
							<lognote />
							<good />
							<originalvideofilename />
							<originalaudiofilename />
						</logginginfo>
						<colorinfo>
							<lut />
							<lut1 />
							<asc_sop />
							<asc_sat />
							<lut2 />
						</colorinfo>
					<labels><label2>Caribbean</label2></labels></clipitem>
					<clipitem id="clipitem-86">
						<masterclipid>clipitem-2-148</masterclipid>
						<name>Taylor_Swift_Shares_The_Story_Of_Calling_Travis_Kelce_For_The_First_Time.mp4</name>
						<enabled>TRUE</enabled>
						<duration>150</duration>
						<rate>
							<timebase>25</timebase>
							<ntsc>FALSE</ntsc>
						</rate>
						<start>42450</start>
						<end>42600</end>
						<in>22050</in>
						<out>22200</out>
						<pproTicksIn>0</pproTicksIn>
						<pproTicksOut>236438092800000</pproTicksOut>
						<alphatype>none</alphatype>
						<pixelaspectratio>square</pixelaspectratio>
						<anamorphic>FALSE</anamorphic>
						<file id="file-30">
							<name>Taylor_Swift_Shares_The_Story_Of_Calling_Travis_Kelce_For_The_First_Time.mp4</name>
							<pathurl>file://localhost/Users/themalikano/Documents/VideoAutomation/premiere_videos/Taylor_Swift_Shares_The_Story_Of_Calling_Travis_Kelce_For_The_First_Time.mp4</pathurl>
							<rate>
								<timebase>30</timebase>
								<ntsc>TRUE</ntsc>
							</rate>
							<duration>27897</duration>
							<timecode>
								<rate>
									<timebase>30</timebase>
									<ntsc>TRUE</ntsc>
								</rate>
								<string>00:00:00:00</string>
								<frame>0</frame>
								<displayformat>NDF</displayformat>
							</timecode>
							<media>
								<video>
									<samplecharacteristics>
										<rate>
											<timebase>30</timebase>
											<ntsc>TRUE</ntsc>
										</rate>
										<width>1920</width>
										<height>1080</height>
										<anamorphic>FALSE</anamorphic>
										<pixelaspectratio>square</pixelaspectratio>
										<fielddominance>none</fielddominance>
									</samplecharacteristics>
								</video>
								<audio>
									<samplecharacteristics>
										<depth>16</depth>
										<samplerate>44100</samplerate>
									</samplecharacteristics>
									<channelcount>2</channelcount>
								</audio>
							</media>
						</file>
						<link>
							<linkclipref>clipitem-86</linkclipref>
							<mediatype>video</mediatype>
							<trackindex>1</trackindex>
							<clipindex>2</clipindex>
						</link>
						<link>
							<linkclipref>clipitem-94</linkclipref>
							<mediatype>audio</mediatype>
							<trackindex>1</trackindex>
							<clipindex>2</clipindex>
							<groupindex>1</groupindex>
						</link>
						<link>
							<linkclipref>clipitem-102</linkclipref>
							<mediatype>audio</mediatype>
							<trackindex>2</trackindex>
							<clipindex>2</clipindex>
							<groupindex>1</groupindex>
						</link>
						<logginginfo>
							<description />
							<scene />
							<shottake />
							<lognote />
							<good />
							<originalvideofilename />
							<originalaudiofilename />
						</logginginfo>
						<colorinfo>
							<lut />
							<lut1 />
							<asc_sop />
							<asc_sat />
							<lut2 />
						</colorinfo>
					<labels><label2>Iris</label2></labels></clipitem>
					<clipitem id="clipitem-87">
						<masterclipid>clipitem-3-523</masterclipid>
						<name>Taylor_Swift_Travis_Kelce_-_The_New_Power_Couple.mp4</name>
						<enabled>TRUE</enabled>
						<duration>150</duration>
						<rate>
							<timebase>25</timebase>
							<ntsc>FALSE</ntsc>
						</rate>
						<start>42600</start>
						<end>42750</end>
						<in>78300</in>
						<out>78450</out>
						<pproTicksIn>0</pproTicksIn>
						<pproTicksOut>875013995520000</pproTicksOut>
						<alphatype>none</alphatype>
						<pixelaspectratio>square</pixelaspectratio>
						<anamorphic>FALSE</anamorphic>
						<file id="file-31">
							<name>Taylor_Swift_Travis_Kelce_-_The_New_Power_Couple.mp4</name>
							<pathurl>file://localhost/Users/themalikano/Documents/VideoAutomation/premiere_videos/Taylor_Swift_Travis_Kelce_-_The_New_Power_Couple.mp4</pathurl>
							<rate>
								<timebase>25</timebase>
								<ntsc>FALSE</ntsc>
							</rate>
							<duration>86118</duration>
							<timecode>
								<rate>
									<timebase>25</timebase>
									<ntsc>FALSE</ntsc>
								</rate>
								<string>00:00:00:00</string>
								<frame>0</frame>
								<displayformat>NDF</displayformat>
							</timecode>
							<media>
								<video>
									<samplecharacteristics>
										<rate>
											<timebase>25</timebase>
											<ntsc>FALSE</ntsc>
										</rate>
										<width>1920</width>
										<height>1080</height>
										<anamorphic>FALSE</anamorphic>
										<pixelaspectratio>square</pixelaspectratio>
										<fielddominance>none</fielddominance>
									</samplecharacteristics>
								</video>
								<audio>
									<samplecharacteristics>
										<depth>16</depth>
										<samplerate>44100</samplerate>
									</samplecharacteristics>
									<channelcount>2</channelcount>
								</audio>
							</media>
						</file>
						<link>
							<linkclipref>clipitem-87</linkclipref>
							<mediatype>video</mediatype>
							<trackindex>1</trackindex>
							<clipindex>3</clipindex>
						</link>
						<link>
							<linkclipref>clipitem-95</linkclipref>
							<mediatype>audio</mediatype>
							<trackindex>1</trackindex>
							<clipindex>3</clipindex>
							<groupindex>1</groupindex>
						</link>
						<link>
							<linkclipref>clipitem-103</linkclipref>
							<mediatype>audio</mediatype>
							<trackindex>2</trackindex>
							<clipindex>3</clipindex>
							<groupindex>1</groupindex>
						</link>
						<logginginfo>
							<description />
							<scene />
							<shottake />
							<lognote />
							<good />
							<originalvideofilename />
							<originalaudiofilename />
						</logginginfo>
						<colorinfo>
							<lut />
							<lut1 />
							<asc_sop />
							<asc_sat />
							<lut2 />
						</colorinfo>
					<labels><label2>Caribbean</label2></labels></clipitem>
					<clipitem id="clipitem-90">
						<masterclipid>clipitem-6-86</masterclipid>
						<name>Travis_Kelce_talks_about_postponing_his_wedding_to_Fiance_Taylor_Swift_on_the_New_Heights_Podcast.mp4</name>
						<enabled>TRUE</enabled>
						<duration>150</duration>
						<rate>
							<timebase>25</timebase>
							<ntsc>FALSE</ntsc>
						</rate>
						<start>42750</start>
						<end>42900</end>
						<in>12750</in>
						<out>12900</out>
						<pproTicksIn>0</pproTicksIn>
						<pproTicksOut>149391889920000</pproTicksOut>
						<alphatype>none</alphatype>
						<pixelaspectratio>square</pixelaspectratio>
						<anamorphic>FALSE</anamorphic>
						<file id="file-34">
							<name>Travis_Kelce_talks_about_postponing_his_wedding_to_Fiance_Taylor_Swift_on_the_New_Heights_Podcast.mp4</name>
							<pathurl>file://localhost/Users/themalikano/Documents/VideoAutomation/premiere_videos/Travis_Kelce_talks_about_postponing_his_wedding_to_Fiance_Taylor_Swift_on_the_New_Heights_Podcast.mp4</pathurl>
							<rate>
								<timebase>30</timebase>
								<ntsc>FALSE</ntsc>
							</rate>
							<duration>17644</duration>
							<timecode>
								<rate>
									<timebase>30</timebase>
									<ntsc>FALSE</ntsc>
								</rate>
								<string>00:00:00:00</string>
								<frame>0</frame>
								<displayformat>NDF</displayformat>
							</timecode>
							<media>
								<video>
									<samplecharacteristics>
										<rate>
											<timebase>30</timebase>
											<ntsc>FALSE</ntsc>
										</rate>
										<width>1920</width>
										<height>1080</height>
										<anamorphic>FALSE</anamorphic>
										<pixelaspectratio>square</pixelaspectratio>
										<fielddominance>none</fielddominance>
									</samplecharacteristics>
								</video>
								<audio>
									<samplecharacteristics>
										<depth>16</depth>
										<samplerate>44100</samplerate>
									</samplecharacteristics>
									<channelcount>2</channelcount>
								</audio>
							</media>
						</file>
						<link>
							<linkclipref>clipitem-90</linkclipref>
							<mediatype>video</mediatype>
							<trackindex>1</trackindex>
							<clipindex>6</clipindex>
						</link>
						<link>
							<linkclipref>clipitem-98</linkclipref>
							<mediatype>audio</mediatype>
							<trackindex>1</trackindex>
							<clipindex>6</clipindex>
							<groupindex>1</groupindex>
						</link>
						<link>
							<linkclipref>clipitem-106</linkclipref>
							<mediatype>audio</mediatype>
							<trackindex>2</trackindex>
							<clipindex>6</clipindex>
							<groupindex>1</groupindex>
						</link>
						<logginginfo>
							<description />
							<scene />
							<shottake />
							<lognote />
							<good />
							<originalvideofilename />
							<originalaudiofilename />
						</logginginfo>
						<colorinfo>
							<lut />
							<lut1 />
							<asc_sop />
							<asc_sat />
							<lut2 />
						</colorinfo>
					<labels><label2>Forest</label2></labels></clipitem>
					<clipitem id="clipitem-88">
						<masterclipid>clipitem-4-19</masterclipid>
						<name>Travis_Kelce_ANNOUNCE_WEDDING_DATE_with_Taylor_Swift_Why_He_was_Delaying_all_Along.mp4</name>
						<enabled>TRUE</enabled>
						<duration>150</duration>
						<rate>
							<timebase>25</timebase>
							<ntsc>FALSE</ntsc>
						</rate>
						<start>42900</start>
						<end>43050</end>
						<in>2700</in>
						<out>2850</out>
						<pproTicksIn>0</pproTicksIn>
						<pproTicksOut>419410897920000</pproTicksOut>
						<alphatype>none</alphatype>
						<pixelaspectratio>square</pixelaspectratio>
						<anamorphic>FALSE</anamorphic>
						<file id="file-32">
							<name>Travis_Kelce_ANNOUNCE_WEDDING_DATE_with_Taylor_Swift_Why_He_was_Delaying_all_Along.mp4</name>
							<pathurl>file://localhost/Users/themalikano/Documents/VideoAutomation/premiere_videos/Travis_Kelce_ANNOUNCE_WEDDING_DATE_with_Taylor_Swift_Why_He_was_Delaying_all_Along.mp4</pathurl>
							<rate>
								<timebase>24</timebase>
								<ntsc>FALSE</ntsc>
							</rate>
							<duration>39627</duration>
							<timecode>
								<rate>
									<timebase>24</timebase>
									<ntsc>FALSE</ntsc>
								</rate>
								<string>00:00:00:00</string>
								<frame>0</frame>
								<displayformat>NDF</displayformat>
							</timecode>
							<media>
								<video>
									<samplecharacteristics>
										<rate>
											<timebase>24</timebase>
											<ntsc>FALSE</ntsc>
										</rate>
										<width>852</width>
										<height>480</height>
										<anamorphic>FALSE</anamorphic>
										<pixelaspectratio>square</pixelaspectratio>
										<fielddominance>none</fielddominance>
									</samplecharacteristics>
								</video>
								<audio>
									<samplecharacteristics>
										<depth>16</depth>
										<samplerate>44100</samplerate>
									</samplecharacteristics>
									<channelcount>2</channelcount>
								</audio>
							</media>
						</file>
						<filter>
							<effect>
								<name>Basic Motion</name>
								<effectid>basic</effectid>
								<effectcategory>motion</effectcategory>
								<effecttype>motion</effecttype>
								<mediatype>video</mediatype>
								<pproBypass>false</pproBypass>
								<parameter authoringApp="PremierePro">
									<parameterid>scale</parameterid>
									<name>Scale</name>
									<valuemin>0</valuemin>
									<valuemax>1000</valuemax>
									<value>225</value>
								</parameter>
								<parameter authoringApp="PremierePro">
									<parameterid>rotation</parameterid>
									<name>Rotation</name>
									<valuemin>-8640</valuemin>
									<valuemax>8640</valuemax>
									<value>0</value>
								</parameter>
								<parameter authoringApp="PremierePro">
									<parameterid>center</parameterid>
									<name>Center</name>
									<value>
										<horiz>0</horiz>
										<vert>0</vert>
									</value>
								</parameter>
								<parameter authoringApp="PremierePro">
									<parameterid>centerOffset</parameterid>
									<name>Anchor Point</name>
									<value>
										<horiz>0</horiz>
										<vert>0</vert>
									</value>
								</parameter>
								<parameter authoringApp="PremierePro">
									<parameterid>antiflicker</parameterid>
									<name>Anti-flicker Filter</name>
									<valuemin>0.0</valuemin>
									<valuemax>1.0</valuemax>
									<value>0</value>
								</parameter>
							</effect>
						</filter>
						<link>
							<linkclipref>clipitem-88</linkclipref>
							<mediatype>video</mediatype>
							<trackindex>1</trackindex>
							<clipindex>4</clipindex>
						</link>
						<link>
							<linkclipref>clipitem-96</linkclipref>
							<mediatype>audio</mediatype>
							<trackindex>1</trackindex>
							<clipindex>4</clipindex>
							<groupindex>1</groupindex>
						</link>
						<link>
							<linkclipref>clipitem-104</linkclipref>
							<mediatype>audio</mediatype>
							<trackindex>2</trackindex>
							<clipindex>4</clipindex>
							<groupindex>1</groupindex>
						</link>
						<logginginfo>
							<description />
							<scene />
							<shottake />
							<lognote />
							<good />
							<originalvideofilename />
							<originalaudiofilename />
						</logginginfo>
						<colorinfo>
							<lut />
							<lut1 />
							<asc_sop />
							<asc_sat />
							<lut2 />
						</colorinfo>
					<labels><label2>Lavender</label2></labels></clipitem>
					<clipitem id="clipitem-86">
						<masterclipid>clipitem-2-152</masterclipid>
						<name>Taylor_Swift_Shares_The_Story_Of_Calling_Travis_Kelce_For_The_First_Time.mp4</name>
						<enabled>TRUE</enabled>
						<duration>150</duration>
						<rate>
							<timebase>25</timebase>
							<ntsc>FALSE</ntsc>
						</rate>
						<start>43050</start>
						<end>43200</end>
						<in>22650</in>
						<out>22800</out>
						<pproTicksIn>0</pproTicksIn>
						<pproTicksOut>236438092800000</pproTicksOut>
						<alphatype>none</alphatype>
						<pixelaspectratio>square</pixelaspectratio>
						<anamorphic>FALSE</anamorphic>
						<file id="file-30">
							<name>Taylor_Swift_Shares_The_Story_Of_Calling_Travis_Kelce_For_The_First_Time.mp4</name>
							<pathurl>file://localhost/Users/themalikano/Documents/VideoAutomation/premiere_videos/Taylor_Swift_Shares_The_Story_Of_Calling_Travis_Kelce_For_The_First_Time.mp4</pathurl>
							<rate>
								<timebase>30</timebase>
								<ntsc>TRUE</ntsc>
							</rate>
							<duration>27897</duration>
							<timecode>
								<rate>
									<timebase>30</timebase>
									<ntsc>TRUE</ntsc>
								</rate>
								<string>00:00:00:00</string>
								<frame>0</frame>
								<displayformat>NDF</displayformat>
							</timecode>
							<media>
								<video>
									<samplecharacteristics>
										<rate>
											<timebase>30</timebase>
											<ntsc>TRUE</ntsc>
										</rate>
										<width>1920</width>
										<height>1080</height>
										<anamorphic>FALSE</anamorphic>
										<pixelaspectratio>square</pixelaspectratio>
										<fielddominance>none</fielddominance>
									</samplecharacteristics>
								</video>
								<audio>
									<samplecharacteristics>
										<depth>16</depth>
										<samplerate>44100</samplerate>
									</samplecharacteristics>
									<channelcount>2</channelcount>
								</audio>
							</media>
						</file>
						<link>
							<linkclipref>clipitem-86</linkclipref>
							<mediatype>video</mediatype>
							<trackindex>1</trackindex>
							<clipindex>2</clipindex>
						</link>
						<link>
							<linkclipref>clipitem-94</linkclipref>
							<mediatype>audio</mediatype>
							<trackindex>1</trackindex>
							<clipindex>2</clipindex>
							<groupindex>1</groupindex>
						</link>
						<link>
							<linkclipref>clipitem-102</linkclipref>
							<mediatype>audio</mediatype>
							<trackindex>2</trackindex>
							<clipindex>2</clipindex>
							<groupindex>1</groupindex>
						</link>
						<logginginfo>
							<description />
							<scene />
							<shottake />
							<lognote />
							<good />
							<originalvideofilename />
							<originalaudiofilename />
						</logginginfo>
						<colorinfo>
							<lut />
							<lut1 />
							<asc_sop />
							<asc_sat />
							<lut2 />
						</colorinfo>
					<labels><label2>Iris</label2></labels></clipitem>
					<clipitem id="clipitem-90">
						<masterclipid>clipitem-6-67</masterclipid>
						<name>Travis_Kelce_talks_about_postponing_his_wedding_to_Fiance_Taylor_Swift_on_the_New_Heights_Podcast.mp4</name>
						<enabled>TRUE</enabled>
						<duration>150</duration>
						<rate>
							<timebase>25</timebase>
							<ntsc>FALSE</ntsc>
						</rate>
						<start>43200</start>
						<end>43350</end>
						<in>9900</in>
						<out>10050</out>
						<pproTicksIn>0</pproTicksIn>
						<pproTicksOut>149391889920000</pproTicksOut>
						<alphatype>none</alphatype>
						<pixelaspectratio>square</pixelaspectratio>
						<anamorphic>FALSE</anamorphic>
						<file id="file-34">
							<name>Travis_Kelce_talks_about_postponing_his_wedding_to_Fiance_Taylor_Swift_on_the_New_Heights_Podcast.mp4</name>
							<pathurl>file://localhost/Users/themalikano/Documents/VideoAutomation/premiere_videos/Travis_Kelce_talks_about_postponing_his_wedding_to_Fiance_Taylor_Swift_on_the_New_Heights_Podcast.mp4</pathurl>
							<rate>
								<timebase>30</timebase>
								<ntsc>FALSE</ntsc>
							</rate>
							<duration>17644</duration>
							<timecode>
								<rate>
									<timebase>30</timebase>
									<ntsc>FALSE</ntsc>
								</rate>
								<string>00:00:00:00</string>
								<frame>0</frame>
								<displayformat>NDF</displayformat>
							</timecode>
							<media>
								<video>
									<samplecharacteristics>
										<rate>
											<timebase>30</timebase>
											<ntsc>FALSE</ntsc>
										</rate>
										<width>1920</width>
										<height>1080</height>
										<anamorphic>FALSE</anamorphic>
										<pixelaspectratio>square</pixelaspectratio>
										<fielddominance>none</fielddominance>
									</samplecharacteristics>
								</video>
								<audio>
									<samplecharacteristics>
										<depth>16</depth>
										<samplerate>44100</samplerate>
									</samplecharacteristics>
									<channelcount>2</channelcount>
								</audio>
							</media>
						</file>
						<link>
							<linkclipref>clipitem-90</linkclipref>
							<mediatype>video</mediatype>
							<trackindex>1</trackindex>
							<clipindex>6</clipindex>
						</link>
						<link>
							<linkclipref>clipitem-98</linkclipref>
							<mediatype>audio</mediatype>
							<trackindex>1</trackindex>
							<clipindex>6</clipindex>
							<groupindex>1</groupindex>
						</link>
						<link>
							<linkclipref>clipitem-106</linkclipref>
							<mediatype>audio</mediatype>
							<trackindex>2</trackindex>
							<clipindex>6</clipindex>
							<groupindex>1</groupindex>
						</link>
						<logginginfo>
							<description />
							<scene />
							<shottake />
							<lognote />
							<good />
							<originalvideofilename />
							<originalaudiofilename />
						</logginginfo>
						<colorinfo>
							<lut />
							<lut1 />
							<asc_sop />
							<asc_sat />
							<lut2 />
						</colorinfo>
					<labels><label2>Forest</label2></labels></clipitem>
					<clipitem id="clipitem-88">
						<masterclipid>clipitem-4-23</masterclipid>
						<name>Travis_Kelce_ANNOUNCE_WEDDING_DATE_with_Taylor_Swift_Why_He_was_Delaying_all_Along.mp4</name>
						<enabled>TRUE</enabled>
						<duration>150</duration>
						<rate>
							<timebase>25</timebase>
							<ntsc>FALSE</ntsc>
						</rate>
						<start>43350</start>
						<end>43500</end>
						<in>3300</in>
						<out>3450</out>
						<pproTicksIn>0</pproTicksIn>
						<pproTicksOut>419410897920000</pproTicksOut>
						<alphatype>none</alphatype>
						<pixelaspectratio>square</pixelaspectratio>
						<anamorphic>FALSE</anamorphic>
						<file id="file-32">
							<name>Travis_Kelce_ANNOUNCE_WEDDING_DATE_with_Taylor_Swift_Why_He_was_Delaying_all_Along.mp4</name>
							<pathurl>file://localhost/Users/themalikano/Documents/VideoAutomation/premiere_videos/Travis_Kelce_ANNOUNCE_WEDDING_DATE_with_Taylor_Swift_Why_He_was_Delaying_all_Along.mp4</pathurl>
							<rate>
								<timebase>24</timebase>
								<ntsc>FALSE</ntsc>
							</rate>
							<duration>39627</duration>
							<timecode>
								<rate>
									<timebase>24</timebase>
									<ntsc>FALSE</ntsc>
								</rate>
								<string>00:00:00:00</string>
								<frame>0</frame>
								<displayformat>NDF</displayformat>
							</timecode>
							<media>
								<video>
									<samplecharacteristics>
										<rate>
											<timebase>24</timebase>
											<ntsc>FALSE</ntsc>
										</rate>
										<width>852</width>
										<height>480</height>
										<anamorphic>FALSE</anamorphic>
										<pixelaspectratio>square</pixelaspectratio>
										<fielddominance>none</fielddominance>
									</samplecharacteristics>
								</video>
								<audio>
									<samplecharacteristics>
										<depth>16</depth>
										<samplerate>44100</samplerate>
									</samplecharacteristics>
									<channelcount>2</channelcount>
								</audio>
							</media>
						</file>
						<filter>
							<effect>
								<name>Basic Motion</name>
								<effectid>basic</effectid>
								<effectcategory>motion</effectcategory>
								<effecttype>motion</effecttype>
								<mediatype>video</mediatype>
								<pproBypass>false</pproBypass>
								<parameter authoringApp="PremierePro">
									<parameterid>scale</parameterid>
									<name>Scale</name>
									<valuemin>0</valuemin>
									<valuemax>1000</valuemax>
									<value>225</value>
								</parameter>
								<parameter authoringApp="PremierePro">
									<parameterid>rotation</parameterid>
									<name>Rotation</name>
									<valuemin>-8640</valuemin>
									<valuemax>8640</valuemax>
									<value>0</value>
								</parameter>
								<parameter authoringApp="PremierePro">
									<parameterid>center</parameterid>
									<name>Center</name>
									<value>
										<horiz>0</horiz>
										<vert>0</vert>
									</value>
								</parameter>
								<parameter authoringApp="PremierePro">
									<parameterid>centerOffset</parameterid>
									<name>Anchor Point</name>
									<value>
										<horiz>0</horiz>
										<vert>0</vert>
									</value>
								</parameter>
								<parameter authoringApp="PremierePro">
									<parameterid>antiflicker</parameterid>
									<name>Anti-flicker Filter</name>
									<valuemin>0.0</valuemin>
									<valuemax>1.0</valuemax>
									<value>0</value>
								</parameter>
							</effect>
						</filter>
						<link>
							<linkclipref>clipitem-88</linkclipref>
							<mediatype>video</mediatype>
							<trackindex>1</trackindex>
							<clipindex>4</clipindex>
						</link>
						<link>
							<linkclipref>clipitem-96</linkclipref>
							<mediatype>audio</mediatype>
							<trackindex>1</trackindex>
							<clipindex>4</clipindex>
							<groupindex>1</groupindex>
						</link>
						<link>
							<linkclipref>clipitem-104</linkclipref>
							<mediatype>audio</mediatype>
							<trackindex>2</trackindex>
							<clipindex>4</clipindex>
							<groupindex>1</groupindex>
						</link>
						<logginginfo>
							<description />
							<scene />
							<shottake />
							<lognote />
							<good />
							<originalvideofilename />
							<originalaudiofilename />
						</logginginfo>
						<colorinfo>
							<lut />
							<lut1 />
							<asc_sop />
							<asc_sat />
							<lut2 />
						</colorinfo>
					<labels><label2>Lavender</label2></labels></clipitem>
					<clipitem id="clipitem-90">
						<masterclipid>clipitem-6-72</masterclipid>
						<name>Travis_Kelce_talks_about_postponing_his_wedding_to_Fiance_Taylor_Swift_on_the_New_Heights_Podcast.mp4</name>
						<enabled>TRUE</enabled>
						<duration>150</duration>
						<rate>
							<timebase>25</timebase>
							<ntsc>FALSE</ntsc>
						</rate>
						<start>43500</start>
						<end>43650</end>
						<in>10650</in>
						<out>10800</out>
						<pproTicksIn>0</pproTicksIn>
						<pproTicksOut>149391889920000</pproTicksOut>
						<alphatype>none</alphatype>
						<pixelaspectratio>square</pixelaspectratio>
						<anamorphic>FALSE</anamorphic>
						<file id="file-34">
							<name>Travis_Kelce_talks_about_postponing_his_wedding_to_Fiance_Taylor_Swift_on_the_New_Heights_Podcast.mp4</name>
							<pathurl>file://localhost/Users/themalikano/Documents/VideoAutomation/premiere_videos/Travis_Kelce_talks_about_postponing_his_wedding_to_Fiance_Taylor_Swift_on_the_New_Heights_Podcast.mp4</pathurl>
							<rate>
								<timebase>30</timebase>
								<ntsc>FALSE</ntsc>
							</rate>
							<duration>17644</duration>
							<timecode>
								<rate>
									<timebase>30</timebase>
									<ntsc>FALSE</ntsc>
								</rate>
								<string>00:00:00:00</string>
								<frame>0</frame>
								<displayformat>NDF</displayformat>
							</timecode>
							<media>
								<video>
									<samplecharacteristics>
										<rate>
											<timebase>30</timebase>
											<ntsc>FALSE</ntsc>
										</rate>
										<width>1920</width>
										<height>1080</height>
										<anamorphic>FALSE</anamorphic>
										<pixelaspectratio>square</pixelaspectratio>
										<fielddominance>none</fielddominance>
									</samplecharacteristics>
								</video>
								<audio>
									<samplecharacteristics>
										<depth>16</depth>
										<samplerate>44100</samplerate>
									</samplecharacteristics>
									<channelcount>2</channelcount>
								</audio>
							</media>
						</file>
						<link>
							<linkclipref>clipitem-90</linkclipref>
							<mediatype>video</mediatype>
							<trackindex>1</trackindex>
							<clipindex>6</clipindex>
						</link>
						<link>
							<linkclipref>clipitem-98</linkclipref>
							<mediatype>audio</mediatype>
							<trackindex>1</trackindex>
							<clipindex>6</clipindex>
							<groupindex>1</groupindex>
						</link>
						<link>
							<linkclipref>clipitem-106</linkclipref>
							<mediatype>audio</mediatype>
							<trackindex>2</trackindex>
							<clipindex>6</clipindex>
							<groupindex>1</groupindex>
						</link>
						<logginginfo>
							<description />
							<scene />
							<shottake />
							<lognote />
							<good />
							<originalvideofilename />
							<originalaudiofilename />
						</logginginfo>
						<colorinfo>
							<lut />
							<lut1 />
							<asc_sop />
							<asc_sat />
							<lut2 />
						</colorinfo>
					<labels><label2>Forest</label2></labels></clipitem>
					<clipitem id="clipitem-87">
						<masterclipid>clipitem-3-208</masterclipid>
						<name>Taylor_Swift_Travis_Kelce_-_The_New_Power_Couple.mp4</name>
						<enabled>TRUE</enabled>
						<duration>150</duration>
						<rate>
							<timebase>25</timebase>
							<ntsc>FALSE</ntsc>
						</rate>
						<start>43650</start>
						<end>43800</end>
						<in>31050</in>
						<out>31200</out>
						<pproTicksIn>0</pproTicksIn>
						<pproTicksOut>875013995520000</pproTicksOut>
						<alphatype>none</alphatype>
						<pixelaspectratio>square</pixelaspectratio>
						<anamorphic>FALSE</anamorphic>
						<file id="file-31">
							<name>Taylor_Swift_Travis_Kelce_-_The_New_Power_Couple.mp4</name>
							<pathurl>file://localhost/Users/themalikano/Documents/VideoAutomation/premiere_videos/Taylor_Swift_Travis_Kelce_-_The_New_Power_Couple.mp4</pathurl>
							<rate>
								<timebase>25</timebase>
								<ntsc>FALSE</ntsc>
							</rate>
							<duration>86118</duration>
							<timecode>
								<rate>
									<timebase>25</timebase>
									<ntsc>FALSE</ntsc>
								</rate>
								<string>00:00:00:00</string>
								<frame>0</frame>
								<displayformat>NDF</displayformat>
							</timecode>
							<media>
								<video>
									<samplecharacteristics>
										<rate>
											<timebase>25</timebase>
											<ntsc>FALSE</ntsc>
										</rate>
										<width>1920</width>
										<height>1080</height>
										<anamorphic>FALSE</anamorphic>
										<pixelaspectratio>square</pixelaspectratio>
										<fielddominance>none</fielddominance>
									</samplecharacteristics>
								</video>
								<audio>
									<samplecharacteristics>
										<depth>16</depth>
										<samplerate>44100</samplerate>
									</samplecharacteristics>
									<channelcount>2</channelcount>
								</audio>
							</media>
						</file>
						<link>
							<linkclipref>clipitem-87</linkclipref>
							<mediatype>video</mediatype>
							<trackindex>1</trackindex>
							<clipindex>3</clipindex>
						</link>
						<link>
							<linkclipref>clipitem-95</linkclipref>
							<mediatype>audio</mediatype>
							<trackindex>1</trackindex>
							<clipindex>3</clipindex>
							<groupindex>1</groupindex>
						</link>
						<link>
							<linkclipref>clipitem-103</linkclipref>
							<mediatype>audio</mediatype>
							<trackindex>2</trackindex>
							<clipindex>3</clipindex>
							<groupindex>1</groupindex>
						</link>
						<logginginfo>
							<description />
							<scene />
							<shottake />
							<lognote />
							<good />
							<originalvideofilename />
							<originalaudiofilename />
						</logginginfo>
						<colorinfo>
							<lut />
							<lut1 />
							<asc_sop />
							<asc_sat />
							<lut2 />
						</colorinfo>
					<labels><label2>Caribbean</label2></labels></clipitem>
					<clipitem id="clipitem-90">
						<masterclipid>clipitem-6-60</masterclipid>
						<name>Travis_Kelce_talks_about_postponing_his_wedding_to_Fiance_Taylor_Swift_on_the_New_Heights_Podcast.mp4</name>
						<enabled>TRUE</enabled>
						<duration>150</duration>
						<rate>
							<timebase>25</timebase>
							<ntsc>FALSE</ntsc>
						</rate>
						<start>43800</start>
						<end>43950</end>
						<in>8850</in>
						<out>9000</out>
						<pproTicksIn>0</pproTicksIn>
						<pproTicksOut>149391889920000</pproTicksOut>
						<alphatype>none</alphatype>
						<pixelaspectratio>square</pixelaspectratio>
						<anamorphic>FALSE</anamorphic>
						<file id="file-34">
							<name>Travis_Kelce_talks_about_postponing_his_wedding_to_Fiance_Taylor_Swift_on_the_New_Heights_Podcast.mp4</name>
							<pathurl>file://localhost/Users/themalikano/Documents/VideoAutomation/premiere_videos/Travis_Kelce_talks_about_postponing_his_wedding_to_Fiance_Taylor_Swift_on_the_New_Heights_Podcast.mp4</pathurl>
							<rate>
								<timebase>30</timebase>
								<ntsc>FALSE</ntsc>
							</rate>
							<duration>17644</duration>
							<timecode>
								<rate>
									<timebase>30</timebase>
									<ntsc>FALSE</ntsc>
								</rate>
								<string>00:00:00:00</string>
								<frame>0</frame>
								<displayformat>NDF</displayformat>
							</timecode>
							<media>
								<video>
									<samplecharacteristics>
										<rate>
											<timebase>30</timebase>
											<ntsc>FALSE</ntsc>
										</rate>
										<width>1920</width>
										<height>1080</height>
										<anamorphic>FALSE</anamorphic>
										<pixelaspectratio>square</pixelaspectratio>
										<fielddominance>none</fielddominance>
									</samplecharacteristics>
								</video>
								<audio>
									<samplecharacteristics>
										<depth>16</depth>
										<samplerate>44100</samplerate>
									</samplecharacteristics>
									<channelcount>2</channelcount>
								</audio>
							</media>
						</file>
						<link>
							<linkclipref>clipitem-90</linkclipref>
							<mediatype>video</mediatype>
							<trackindex>1</trackindex>
							<clipindex>6</clipindex>
						</link>
						<link>
							<linkclipref>clipitem-98</linkclipref>
							<mediatype>audio</mediatype>
							<trackindex>1</trackindex>
							<clipindex>6</clipindex>
							<groupindex>1</groupindex>
						</link>
						<link>
							<linkclipref>clipitem-106</linkclipref>
							<mediatype>audio</mediatype>
							<trackindex>2</trackindex>
							<clipindex>6</clipindex>
							<groupindex>1</groupindex>
						</link>
						<logginginfo>
							<description />
							<scene />
							<shottake />
							<lognote />
							<good />
							<originalvideofilename />
							<originalaudiofilename />
						</logginginfo>
						<colorinfo>
							<lut />
							<lut1 />
							<asc_sop />
							<asc_sat />
							<lut2 />
						</colorinfo>
					<labels><label2>Forest</label2></labels></clipitem>
					<clipitem id="clipitem-88">
						<masterclipid>clipitem-4-154</masterclipid>
						<name>Travis_Kelce_ANNOUNCE_WEDDING_DATE_with_Taylor_Swift_Why_He_was_Delaying_all_Along.mp4</name>
						<enabled>TRUE</enabled>
						<duration>150</duration>
						<rate>
							<timebase>25</timebase>
							<ntsc>FALSE</ntsc>
						</rate>
						<start>43950</start>
						<end>44100</end>
						<in>22950</in>
						<out>23100</out>
						<pproTicksIn>0</pproTicksIn>
						<pproTicksOut>419410897920000</pproTicksOut>
						<alphatype>none</alphatype>
						<pixelaspectratio>square</pixelaspectratio>
						<anamorphic>FALSE</anamorphic>
						<file id="file-32">
							<name>Travis_Kelce_ANNOUNCE_WEDDING_DATE_with_Taylor_Swift_Why_He_was_Delaying_all_Along.mp4</name>
							<pathurl>file://localhost/Users/themalikano/Documents/VideoAutomation/premiere_videos/Travis_Kelce_ANNOUNCE_WEDDING_DATE_with_Taylor_Swift_Why_He_was_Delaying_all_Along.mp4</pathurl>
							<rate>
								<timebase>24</timebase>
								<ntsc>FALSE</ntsc>
							</rate>
							<duration>39627</duration>
							<timecode>
								<rate>
									<timebase>24</timebase>
									<ntsc>FALSE</ntsc>
								</rate>
								<string>00:00:00:00</string>
								<frame>0</frame>
								<displayformat>NDF</displayformat>
							</timecode>
							<media>
								<video>
									<samplecharacteristics>
										<rate>
											<timebase>24</timebase>
											<ntsc>FALSE</ntsc>
										</rate>
										<width>852</width>
										<height>480</height>
										<anamorphic>FALSE</anamorphic>
										<pixelaspectratio>square</pixelaspectratio>
										<fielddominance>none</fielddominance>
									</samplecharacteristics>
								</video>
								<audio>
									<samplecharacteristics>
										<depth>16</depth>
										<samplerate>44100</samplerate>
									</samplecharacteristics>
									<channelcount>2</channelcount>
								</audio>
							</media>
						</file>
						<filter>
							<effect>
								<name>Basic Motion</name>
								<effectid>basic</effectid>
								<effectcategory>motion</effectcategory>
								<effecttype>motion</effecttype>
								<mediatype>video</mediatype>
								<pproBypass>false</pproBypass>
								<parameter authoringApp="PremierePro">
									<parameterid>scale</parameterid>
									<name>Scale</name>
									<valuemin>0</valuemin>
									<valuemax>1000</valuemax>
									<value>225</value>
								</parameter>
								<parameter authoringApp="PremierePro">
									<parameterid>rotation</parameterid>
									<name>Rotation</name>
									<valuemin>-8640</valuemin>
									<valuemax>8640</valuemax>
									<value>0</value>
								</parameter>
								<parameter authoringApp="PremierePro">
									<parameterid>center</parameterid>
									<name>Center</name>
									<value>
										<horiz>0</horiz>
										<vert>0</vert>
									</value>
								</parameter>
								<parameter authoringApp="PremierePro">
									<parameterid>centerOffset</parameterid>
									<name>Anchor Point</name>
									<value>
										<horiz>0</horiz>
										<vert>0</vert>
									</value>
								</parameter>
								<parameter authoringApp="PremierePro">
									<parameterid>antiflicker</parameterid>
									<name>Anti-flicker Filter</name>
									<valuemin>0.0</valuemin>
									<valuemax>1.0</valuemax>
									<value>0</value>
								</parameter>
							</effect>
						</filter>
						<link>
							<linkclipref>clipitem-88</linkclipref>
							<mediatype>video</mediatype>
							<trackindex>1</trackindex>
							<clipindex>4</clipindex>
						</link>
						<link>
							<linkclipref>clipitem-96</linkclipref>
							<mediatype>audio</mediatype>
							<trackindex>1</trackindex>
							<clipindex>4</clipindex>
							<groupindex>1</groupindex>
						</link>
						<link>
							<linkclipref>clipitem-104</linkclipref>
							<mediatype>audio</mediatype>
							<trackindex>2</trackindex>
							<clipindex>4</clipindex>
							<groupindex>1</groupindex>
						</link>
						<logginginfo>
							<description />
							<scene />
							<shottake />
							<lognote />
							<good />
							<originalvideofilename />
							<originalaudiofilename />
						</logginginfo>
						<colorinfo>
							<lut />
							<lut1 />
							<asc_sop />
							<asc_sat />
							<lut2 />
						</colorinfo>
					<labels><label2>Lavender</label2></labels></clipitem>
					<clipitem id="clipitem-90">
						<masterclipid>clipitem-6-44</masterclipid>
						<name>Travis_Kelce_talks_about_postponing_his_wedding_to_Fiance_Taylor_Swift_on_the_New_Heights_Podcast.mp4</name>
						<enabled>TRUE</enabled>
						<duration>150</duration>
						<rate>
							<timebase>25</timebase>
							<ntsc>FALSE</ntsc>
						</rate>
						<start>44100</start>
						<end>44250</end>
						<in>6450</in>
						<out>6600</out>
						<pproTicksIn>0</pproTicksIn>
						<pproTicksOut>149391889920000</pproTicksOut>
						<alphatype>none</alphatype>
						<pixelaspectratio>square</pixelaspectratio>
						<anamorphic>FALSE</anamorphic>
						<file id="file-34">
							<name>Travis_Kelce_talks_about_postponing_his_wedding_to_Fiance_Taylor_Swift_on_the_New_Heights_Podcast.mp4</name>
							<pathurl>file://localhost/Users/themalikano/Documents/VideoAutomation/premiere_videos/Travis_Kelce_talks_about_postponing_his_wedding_to_Fiance_Taylor_Swift_on_the_New_Heights_Podcast.mp4</pathurl>
							<rate>
								<timebase>30</timebase>
								<ntsc>FALSE</ntsc>
							</rate>
							<duration>17644</duration>
							<timecode>
								<rate>
									<timebase>30</timebase>
									<ntsc>FALSE</ntsc>
								</rate>
								<string>00:00:00:00</string>
								<frame>0</frame>
								<displayformat>NDF</displayformat>
							</timecode>
							<media>
								<video>
									<samplecharacteristics>
										<rate>
											<timebase>30</timebase>
											<ntsc>FALSE</ntsc>
										</rate>
										<width>1920</width>
										<height>1080</height>
										<anamorphic>FALSE</anamorphic>
										<pixelaspectratio>square</pixelaspectratio>
										<fielddominance>none</fielddominance>
									</samplecharacteristics>
								</video>
								<audio>
									<samplecharacteristics>
										<depth>16</depth>
										<samplerate>44100</samplerate>
									</samplecharacteristics>
									<channelcount>2</channelcount>
								</audio>
							</media>
						</file>
						<link>
							<linkclipref>clipitem-90</linkclipref>
							<mediatype>video</mediatype>
							<trackindex>1</trackindex>
							<clipindex>6</clipindex>
						</link>
						<link>
							<linkclipref>clipitem-98</linkclipref>
							<mediatype>audio</mediatype>
							<trackindex>1</trackindex>
							<clipindex>6</clipindex>
							<groupindex>1</groupindex>
						</link>
						<link>
							<linkclipref>clipitem-106</linkclipref>
							<mediatype>audio</mediatype>
							<trackindex>2</trackindex>
							<clipindex>6</clipindex>
							<groupindex>1</groupindex>
						</link>
						<logginginfo>
							<description />
							<scene />
							<shottake />
							<lognote />
							<good />
							<originalvideofilename />
							<originalaudiofilename />
						</logginginfo>
						<colorinfo>
							<lut />
							<lut1 />
							<asc_sop />
							<asc_sat />
							<lut2 />
						</colorinfo>
					<labels><label2>Forest</label2></labels></clipitem>
					<clipitem id="clipitem-86">
						<masterclipid>clipitem-2-121</masterclipid>
						<name>Taylor_Swift_Shares_The_Story_Of_Calling_Travis_Kelce_For_The_First_Time.mp4</name>
						<enabled>TRUE</enabled>
						<duration>150</duration>
						<rate>
							<timebase>25</timebase>
							<ntsc>FALSE</ntsc>
						</rate>
						<start>44250</start>
						<end>44400</end>
						<in>18000</in>
						<out>18150</out>
						<pproTicksIn>0</pproTicksIn>
						<pproTicksOut>236438092800000</pproTicksOut>
						<alphatype>none</alphatype>
						<pixelaspectratio>square</pixelaspectratio>
						<anamorphic>FALSE</anamorphic>
						<file id="file-30">
							<name>Taylor_Swift_Shares_The_Story_Of_Calling_Travis_Kelce_For_The_First_Time.mp4</name>
							<pathurl>file://localhost/Users/themalikano/Documents/VideoAutomation/premiere_videos/Taylor_Swift_Shares_The_Story_Of_Calling_Travis_Kelce_For_The_First_Time.mp4</pathurl>
							<rate>
								<timebase>30</timebase>
								<ntsc>TRUE</ntsc>
							</rate>
							<duration>27897</duration>
							<timecode>
								<rate>
									<timebase>30</timebase>
									<ntsc>TRUE</ntsc>
								</rate>
								<string>00:00:00:00</string>
								<frame>0</frame>
								<displayformat>NDF</displayformat>
							</timecode>
							<media>
								<video>
									<samplecharacteristics>
										<rate>
											<timebase>30</timebase>
											<ntsc>TRUE</ntsc>
										</rate>
										<width>1920</width>
										<height>1080</height>
										<anamorphic>FALSE</anamorphic>
										<pixelaspectratio>square</pixelaspectratio>
										<fielddominance>none</fielddominance>
									</samplecharacteristics>
								</video>
								<audio>
									<samplecharacteristics>
										<depth>16</depth>
										<samplerate>44100</samplerate>
									</samplecharacteristics>
									<channelcount>2</channelcount>
								</audio>
							</media>
						</file>
						<link>
							<linkclipref>clipitem-86</linkclipref>
							<mediatype>video</mediatype>
							<trackindex>1</trackindex>
							<clipindex>2</clipindex>
						</link>
						<link>
							<linkclipref>clipitem-94</linkclipref>
							<mediatype>audio</mediatype>
							<trackindex>1</trackindex>
							<clipindex>2</clipindex>
							<groupindex>1</groupindex>
						</link>
						<link>
							<linkclipref>clipitem-102</linkclipref>
							<mediatype>audio</mediatype>
							<trackindex>2</trackindex>
							<clipindex>2</clipindex>
							<groupindex>1</groupindex>
						</link>
						<logginginfo>
							<description />
							<scene />
							<shottake />
							<lognote />
							<good />
							<originalvideofilename />
							<originalaudiofilename />
						</logginginfo>
						<colorinfo>
							<lut />
							<lut1 />
							<asc_sop />
							<asc_sat />
							<lut2 />
						</colorinfo>
					<labels><label2>Iris</label2></labels></clipitem>
					<clipitem id="clipitem-88">
						<masterclipid>clipitem-4-240</masterclipid>
						<name>Travis_Kelce_ANNOUNCE_WEDDING_DATE_with_Taylor_Swift_Why_He_was_Delaying_all_Along.mp4</name>
						<enabled>TRUE</enabled>
						<duration>150</duration>
						<rate>
							<timebase>25</timebase>
							<ntsc>FALSE</ntsc>
						</rate>
						<start>44400</start>
						<end>44550</end>
						<in>35850</in>
						<out>36000</out>
						<pproTicksIn>0</pproTicksIn>
						<pproTicksOut>419410897920000</pproTicksOut>
						<alphatype>none</alphatype>
						<pixelaspectratio>square</pixelaspectratio>
						<anamorphic>FALSE</anamorphic>
						<file id="file-32">
							<name>Travis_Kelce_ANNOUNCE_WEDDING_DATE_with_Taylor_Swift_Why_He_was_Delaying_all_Along.mp4</name>
							<pathurl>file://localhost/Users/themalikano/Documents/VideoAutomation/premiere_videos/Travis_Kelce_ANNOUNCE_WEDDING_DATE_with_Taylor_Swift_Why_He_was_Delaying_all_Along.mp4</pathurl>
							<rate>
								<timebase>24</timebase>
								<ntsc>FALSE</ntsc>
							</rate>
							<duration>39627</duration>
							<timecode>
								<rate>
									<timebase>24</timebase>
									<ntsc>FALSE</ntsc>
								</rate>
								<string>00:00:00:00</string>
								<frame>0</frame>
								<displayformat>NDF</displayformat>
							</timecode>
							<media>
								<video>
									<samplecharacteristics>
										<rate>
											<timebase>24</timebase>
											<ntsc>FALSE</ntsc>
										</rate>
										<width>852</width>
										<height>480</height>
										<anamorphic>FALSE</anamorphic>
										<pixelaspectratio>square</pixelaspectratio>
										<fielddominance>none</fielddominance>
									</samplecharacteristics>
								</video>
								<audio>
									<samplecharacteristics>
										<depth>16</depth>
										<samplerate>44100</samplerate>
									</samplecharacteristics>
									<channelcount>2</channelcount>
								</audio>
							</media>
						</file>
						<filter>
							<effect>
								<name>Basic Motion</name>
								<effectid>basic</effectid>
								<effectcategory>motion</effectcategory>
								<effecttype>motion</effecttype>
								<mediatype>video</mediatype>
								<pproBypass>false</pproBypass>
								<parameter authoringApp="PremierePro">
									<parameterid>scale</parameterid>
									<name>Scale</name>
									<valuemin>0</valuemin>
									<valuemax>1000</valuemax>
									<value>225</value>
								</parameter>
								<parameter authoringApp="PremierePro">
									<parameterid>rotation</parameterid>
									<name>Rotation</name>
									<valuemin>-8640</valuemin>
									<valuemax>8640</valuemax>
									<value>0</value>
								</parameter>
								<parameter authoringApp="PremierePro">
									<parameterid>center</parameterid>
									<name>Center</name>
									<value>
										<horiz>0</horiz>
										<vert>0</vert>
									</value>
								</parameter>
								<parameter authoringApp="PremierePro">
									<parameterid>centerOffset</parameterid>
									<name>Anchor Point</name>
									<value>
										<horiz>0</horiz>
										<vert>0</vert>
									</value>
								</parameter>
								<parameter authoringApp="PremierePro">
									<parameterid>antiflicker</parameterid>
									<name>Anti-flicker Filter</name>
									<valuemin>0.0</valuemin>
									<valuemax>1.0</valuemax>
									<value>0</value>
								</parameter>
							</effect>
						</filter>
						<link>
							<linkclipref>clipitem-88</linkclipref>
							<mediatype>video</mediatype>
							<trackindex>1</trackindex>
							<clipindex>4</clipindex>
						</link>
						<link>
							<linkclipref>clipitem-96</linkclipref>
							<mediatype>audio</mediatype>
							<trackindex>1</trackindex>
							<clipindex>4</clipindex>
							<groupindex>1</groupindex>
						</link>
						<link>
							<linkclipref>clipitem-104</linkclipref>
							<mediatype>audio</mediatype>
							<trackindex>2</trackindex>
							<clipindex>4</clipindex>
							<groupindex>1</groupindex>
						</link>
						<logginginfo>
							<description />
							<scene />
							<shottake />
							<lognote />
							<good />
							<originalvideofilename />
							<originalaudiofilename />
						</logginginfo>
						<colorinfo>
							<lut />
							<lut1 />
							<asc_sop />
							<asc_sat />
							<lut2 />
						</colorinfo>
					<labels><label2>Lavender</label2></labels></clipitem>
					<clipitem id="clipitem-87">
						<masterclipid>clipitem-3-274</masterclipid>
						<name>Taylor_Swift_Travis_Kelce_-_The_New_Power_Couple.mp4</name>
						<enabled>TRUE</enabled>
						<duration>150</duration>
						<rate>
							<timebase>25</timebase>
							<ntsc>FALSE</ntsc>
						</rate>
						<start>44550</start>
						<end>44700</end>
						<in>40950</in>
						<out>41100</out>
						<pproTicksIn>0</pproTicksIn>
						<pproTicksOut>875013995520000</pproTicksOut>
						<alphatype>none</alphatype>
						<pixelaspectratio>square</pixelaspectratio>
						<anamorphic>FALSE</anamorphic>
						<file id="file-31">
							<name>Taylor_Swift_Travis_Kelce_-_The_New_Power_Couple.mp4</name>
							<pathurl>file://localhost/Users/themalikano/Documents/VideoAutomation/premiere_videos/Taylor_Swift_Travis_Kelce_-_The_New_Power_Couple.mp4</pathurl>
							<rate>
								<timebase>25</timebase>
								<ntsc>FALSE</ntsc>
							</rate>
							<duration>86118</duration>
							<timecode>
								<rate>
									<timebase>25</timebase>
									<ntsc>FALSE</ntsc>
								</rate>
								<string>00:00:00:00</string>
								<frame>0</frame>
								<displayformat>NDF</displayformat>
							</timecode>
							<media>
								<video>
									<samplecharacteristics>
										<rate>
											<timebase>25</timebase>
											<ntsc>FALSE</ntsc>
										</rate>
										<width>1920</width>
										<height>1080</height>
										<anamorphic>FALSE</anamorphic>
										<pixelaspectratio>square</pixelaspectratio>
										<fielddominance>none</fielddominance>
									</samplecharacteristics>
								</video>
								<audio>
									<samplecharacteristics>
										<depth>16</depth>
										<samplerate>44100</samplerate>
									</samplecharacteristics>
									<channelcount>2</channelcount>
								</audio>
							</media>
						</file>
						<link>
							<linkclipref>clipitem-87</linkclipref>
							<mediatype>video</mediatype>
							<trackindex>1</trackindex>
							<clipindex>3</clipindex>
						</link>
						<link>
							<linkclipref>clipitem-95</linkclipref>
							<mediatype>audio</mediatype>
							<trackindex>1</trackindex>
							<clipindex>3</clipindex>
							<groupindex>1</groupindex>
						</link>
						<link>
							<linkclipref>clipitem-103</linkclipref>
							<mediatype>audio</mediatype>
							<trackindex>2</trackindex>
							<clipindex>3</clipindex>
							<groupindex>1</groupindex>
						</link>
						<logginginfo>
							<description />
							<scene />
							<shottake />
							<lognote />
							<good />
							<originalvideofilename />
							<originalaudiofilename />
						</logginginfo>
						<colorinfo>
							<lut />
							<lut1 />
							<asc_sop />
							<asc_sat />
							<lut2 />
						</colorinfo>
					<labels><label2>Caribbean</label2></labels></clipitem>
					<clipitem id="clipitem-90">
						<masterclipid>clipitem-6-59</masterclipid>
						<name>Travis_Kelce_talks_about_postponing_his_wedding_to_Fiance_Taylor_Swift_on_the_New_Heights_Podcast.mp4</name>
						<enabled>TRUE</enabled>
						<duration>150</duration>
						<rate>
							<timebase>25</timebase>
							<ntsc>FALSE</ntsc>
						</rate>
						<start>44700</start>
						<end>44850</end>
						<in>8700</in>
						<out>8850</out>
						<pproTicksIn>0</pproTicksIn>
						<pproTicksOut>149391889920000</pproTicksOut>
						<alphatype>none</alphatype>
						<pixelaspectratio>square</pixelaspectratio>
						<anamorphic>FALSE</anamorphic>
						<file id="file-34">
							<name>Travis_Kelce_talks_about_postponing_his_wedding_to_Fiance_Taylor_Swift_on_the_New_Heights_Podcast.mp4</name>
							<pathurl>file://localhost/Users/themalikano/Documents/VideoAutomation/premiere_videos/Travis_Kelce_talks_about_postponing_his_wedding_to_Fiance_Taylor_Swift_on_the_New_Heights_Podcast.mp4</pathurl>
							<rate>
								<timebase>30</timebase>
								<ntsc>FALSE</ntsc>
							</rate>
							<duration>17644</duration>
							<timecode>
								<rate>
									<timebase>30</timebase>
									<ntsc>FALSE</ntsc>
								</rate>
								<string>00:00:00:00</string>
								<frame>0</frame>
								<displayformat>NDF</displayformat>
							</timecode>
							<media>
								<video>
									<samplecharacteristics>
										<rate>
											<timebase>30</timebase>
											<ntsc>FALSE</ntsc>
										</rate>
										<width>1920</width>
										<height>1080</height>
										<anamorphic>FALSE</anamorphic>
										<pixelaspectratio>square</pixelaspectratio>
										<fielddominance>none</fielddominance>
									</samplecharacteristics>
								</video>
								<audio>
									<samplecharacteristics>
										<depth>16</depth>
										<samplerate>44100</samplerate>
									</samplecharacteristics>
									<channelcount>2</channelcount>
								</audio>
							</media>
						</file>
						<link>
							<linkclipref>clipitem-90</linkclipref>
							<mediatype>video</mediatype>
							<trackindex>1</trackindex>
							<clipindex>6</clipindex>
						</link>
						<link>
							<linkclipref>clipitem-98</linkclipref>
							<mediatype>audio</mediatype>
							<trackindex>1</trackindex>
							<clipindex>6</clipindex>
							<groupindex>1</groupindex>
						</link>
						<link>
							<linkclipref>clipitem-106</linkclipref>
							<mediatype>audio</mediatype>
							<trackindex>2</trackindex>
							<clipindex>6</clipindex>
							<groupindex>1</groupindex>
						</link>
						<logginginfo>
							<description />
							<scene />
							<shottake />
							<lognote />
							<good />
							<originalvideofilename />
							<originalaudiofilename />
						</logginginfo>
						<colorinfo>
							<lut />
							<lut1 />
							<asc_sop />
							<asc_sat />
							<lut2 />
						</colorinfo>
					<labels><label2>Forest</label2></labels></clipitem>
					<clipitem id="clipitem-88">
						<masterclipid>clipitem-4-218</masterclipid>
						<name>Travis_Kelce_ANNOUNCE_WEDDING_DATE_with_Taylor_Swift_Why_He_was_Delaying_all_Along.mp4</name>
						<enabled>TRUE</enabled>
						<duration>150</duration>
						<rate>
							<timebase>25</timebase>
							<ntsc>FALSE</ntsc>
						</rate>
						<start>44850</start>
						<end>45000</end>
						<in>32550</in>
						<out>32700</out>
						<pproTicksIn>0</pproTicksIn>
						<pproTicksOut>419410897920000</pproTicksOut>
						<alphatype>none</alphatype>
						<pixelaspectratio>square</pixelaspectratio>
						<anamorphic>FALSE</anamorphic>
						<file id="file-32">
							<name>Travis_Kelce_ANNOUNCE_WEDDING_DATE_with_Taylor_Swift_Why_He_was_Delaying_all_Along.mp4</name>
							<pathurl>file://localhost/Users/themalikano/Documents/VideoAutomation/premiere_videos/Travis_Kelce_ANNOUNCE_WEDDING_DATE_with_Taylor_Swift_Why_He_was_Delaying_all_Along.mp4</pathurl>
							<rate>
								<timebase>24</timebase>
								<ntsc>FALSE</ntsc>
							</rate>
							<duration>39627</duration>
							<timecode>
								<rate>
									<timebase>24</timebase>
									<ntsc>FALSE</ntsc>
								</rate>
								<string>00:00:00:00</string>
								<frame>0</frame>
								<displayformat>NDF</displayformat>
							</timecode>
							<media>
								<video>
									<samplecharacteristics>
										<rate>
											<timebase>24</timebase>
											<ntsc>FALSE</ntsc>
										</rate>
										<width>852</width>
										<height>480</height>
										<anamorphic>FALSE</anamorphic>
										<pixelaspectratio>square</pixelaspectratio>
										<fielddominance>none</fielddominance>
									</samplecharacteristics>
								</video>
								<audio>
									<samplecharacteristics>
										<depth>16</depth>
										<samplerate>44100</samplerate>
									</samplecharacteristics>
									<channelcount>2</channelcount>
								</audio>
							</media>
						</file>
						<filter>
							<effect>
								<name>Basic Motion</name>
								<effectid>basic</effectid>
								<effectcategory>motion</effectcategory>
								<effecttype>motion</effecttype>
								<mediatype>video</mediatype>
								<pproBypass>false</pproBypass>
								<parameter authoringApp="PremierePro">
									<parameterid>scale</parameterid>
									<name>Scale</name>
									<valuemin>0</valuemin>
									<valuemax>1000</valuemax>
									<value>225</value>
								</parameter>
								<parameter authoringApp="PremierePro">
									<parameterid>rotation</parameterid>
									<name>Rotation</name>
									<valuemin>-8640</valuemin>
									<valuemax>8640</valuemax>
									<value>0</value>
								</parameter>
								<parameter authoringApp="PremierePro">
									<parameterid>center</parameterid>
									<name>Center</name>
									<value>
										<horiz>0</horiz>
										<vert>0</vert>
									</value>
								</parameter>
								<parameter authoringApp="PremierePro">
									<parameterid>centerOffset</parameterid>
									<name>Anchor Point</name>
									<value>
										<horiz>0</horiz>
										<vert>0</vert>
									</value>
								</parameter>
								<parameter authoringApp="PremierePro">
									<parameterid>antiflicker</parameterid>
									<name>Anti-flicker Filter</name>
									<valuemin>0.0</valuemin>
									<valuemax>1.0</valuemax>
									<value>0</value>
								</parameter>
							</effect>
						</filter>
						<link>
							<linkclipref>clipitem-88</linkclipref>
							<mediatype>video</mediatype>
							<trackindex>1</trackindex>
							<clipindex>4</clipindex>
						</link>
						<link>
							<linkclipref>clipitem-96</linkclipref>
							<mediatype>audio</mediatype>
							<trackindex>1</trackindex>
							<clipindex>4</clipindex>
							<groupindex>1</groupindex>
						</link>
						<link>
							<linkclipref>clipitem-104</linkclipref>
							<mediatype>audio</mediatype>
							<trackindex>2</trackindex>
							<clipindex>4</clipindex>
							<groupindex>1</groupindex>
						</link>
						<logginginfo>
							<description />
							<scene />
							<shottake />
							<lognote />
							<good />
							<originalvideofilename />
							<originalaudiofilename />
						</logginginfo>
						<colorinfo>
							<lut />
							<lut1 />
							<asc_sop />
							<asc_sat />
							<lut2 />
						</colorinfo>
					<labels><label2>Lavender</label2></labels></clipitem>
					<clipitem id="clipitem-90">
						<masterclipid>clipitem-6-39</masterclipid>
						<name>Travis_Kelce_talks_about_postponing_his_wedding_to_Fiance_Taylor_Swift_on_the_New_Heights_Podcast.mp4</name>
						<enabled>TRUE</enabled>
						<duration>150</duration>
						<rate>
							<timebase>25</timebase>
							<ntsc>FALSE</ntsc>
						</rate>
						<start>45000</start>
						<end>45150</end>
						<in>5700</in>
						<out>5850</out>
						<pproTicksIn>0</pproTicksIn>
						<pproTicksOut>149391889920000</pproTicksOut>
						<alphatype>none</alphatype>
						<pixelaspectratio>square</pixelaspectratio>
						<anamorphic>FALSE</anamorphic>
						<file id="file-34">
							<name>Travis_Kelce_talks_about_postponing_his_wedding_to_Fiance_Taylor_Swift_on_the_New_Heights_Podcast.mp4</name>
							<pathurl>file://localhost/Users/themalikano/Documents/VideoAutomation/premiere_videos/Travis_Kelce_talks_about_postponing_his_wedding_to_Fiance_Taylor_Swift_on_the_New_Heights_Podcast.mp4</pathurl>
							<rate>
								<timebase>30</timebase>
								<ntsc>FALSE</ntsc>
							</rate>
							<duration>17644</duration>
							<timecode>
								<rate>
									<timebase>30</timebase>
									<ntsc>FALSE</ntsc>
								</rate>
								<string>00:00:00:00</string>
								<frame>0</frame>
								<displayformat>NDF</displayformat>
							</timecode>
							<media>
								<video>
									<samplecharacteristics>
										<rate>
											<timebase>30</timebase>
											<ntsc>FALSE</ntsc>
										</rate>
										<width>1920</width>
										<height>1080</height>
										<anamorphic>FALSE</anamorphic>
										<pixelaspectratio>square</pixelaspectratio>
										<fielddominance>none</fielddominance>
									</samplecharacteristics>
								</video>
								<audio>
									<samplecharacteristics>
										<depth>16</depth>
										<samplerate>44100</samplerate>
									</samplecharacteristics>
									<channelcount>2</channelcount>
								</audio>
							</media>
						</file>
						<link>
							<linkclipref>clipitem-90</linkclipref>
							<mediatype>video</mediatype>
							<trackindex>1</trackindex>
							<clipindex>6</clipindex>
						</link>
						<link>
							<linkclipref>clipitem-98</linkclipref>
							<mediatype>audio</mediatype>
							<trackindex>1</trackindex>
							<clipindex>6</clipindex>
							<groupindex>1</groupindex>
						</link>
						<link>
							<linkclipref>clipitem-106</linkclipref>
							<mediatype>audio</mediatype>
							<trackindex>2</trackindex>
							<clipindex>6</clipindex>
							<groupindex>1</groupindex>
						</link>
						<logginginfo>
							<description />
							<scene />
							<shottake />
							<lognote />
							<good />
							<originalvideofilename />
							<originalaudiofilename />
						</logginginfo>
						<colorinfo>
							<lut />
							<lut1 />
							<asc_sop />
							<asc_sat />
							<lut2 />
						</colorinfo>
					<labels><label2>Forest</label2></labels></clipitem>
					<clipitem id="clipitem-86">
						<masterclipid>clipitem-2-119</masterclipid>
						<name>Taylor_Swift_Shares_The_Story_Of_Calling_Travis_Kelce_For_The_First_Time.mp4</name>
						<enabled>TRUE</enabled>
						<duration>150</duration>
						<rate>
							<timebase>25</timebase>
							<ntsc>FALSE</ntsc>
						</rate>
						<start>45150</start>
						<end>45300</end>
						<in>17700</in>
						<out>17850</out>
						<pproTicksIn>0</pproTicksIn>
						<pproTicksOut>236438092800000</pproTicksOut>
						<alphatype>none</alphatype>
						<pixelaspectratio>square</pixelaspectratio>
						<anamorphic>FALSE</anamorphic>
						<file id="file-30">
							<name>Taylor_Swift_Shares_The_Story_Of_Calling_Travis_Kelce_For_The_First_Time.mp4</name>
							<pathurl>file://localhost/Users/themalikano/Documents/VideoAutomation/premiere_videos/Taylor_Swift_Shares_The_Story_Of_Calling_Travis_Kelce_For_The_First_Time.mp4</pathurl>
							<rate>
								<timebase>30</timebase>
								<ntsc>TRUE</ntsc>
							</rate>
							<duration>27897</duration>
							<timecode>
								<rate>
									<timebase>30</timebase>
									<ntsc>TRUE</ntsc>
								</rate>
								<string>00:00:00:00</string>
								<frame>0</frame>
								<displayformat>NDF</displayformat>
							</timecode>
							<media>
								<video>
									<samplecharacteristics>
										<rate>
											<timebase>30</timebase>
											<ntsc>TRUE</ntsc>
										</rate>
										<width>1920</width>
										<height>1080</height>
										<anamorphic>FALSE</anamorphic>
										<pixelaspectratio>square</pixelaspectratio>
										<fielddominance>none</fielddominance>
									</samplecharacteristics>
								</video>
								<audio>
									<samplecharacteristics>
										<depth>16</depth>
										<samplerate>44100</samplerate>
									</samplecharacteristics>
									<channelcount>2</channelcount>
								</audio>
							</media>
						</file>
						<link>
							<linkclipref>clipitem-86</linkclipref>
							<mediatype>video</mediatype>
							<trackindex>1</trackindex>
							<clipindex>2</clipindex>
						</link>
						<link>
							<linkclipref>clipitem-94</linkclipref>
							<mediatype>audio</mediatype>
							<trackindex>1</trackindex>
							<clipindex>2</clipindex>
							<groupindex>1</groupindex>
						</link>
						<link>
							<linkclipref>clipitem-102</linkclipref>
							<mediatype>audio</mediatype>
							<trackindex>2</trackindex>
							<clipindex>2</clipindex>
							<groupindex>1</groupindex>
						</link>
						<logginginfo>
							<description />
							<scene />
							<shottake />
							<lognote />
							<good />
							<originalvideofilename />
							<originalaudiofilename />
						</logginginfo>
						<colorinfo>
							<lut />
							<lut1 />
							<asc_sop />
							<asc_sat />
							<lut2 />
						</colorinfo>
					<labels><label2>Iris</label2></labels></clipitem>
					<clipitem id="clipitem-88">
						<masterclipid>clipitem-4-256</masterclipid>
						<name>Travis_Kelce_ANNOUNCE_WEDDING_DATE_with_Taylor_Swift_Why_He_was_Delaying_all_Along.mp4</name>
						<enabled>TRUE</enabled>
						<duration>150</duration>
						<rate>
							<timebase>25</timebase>
							<ntsc>FALSE</ntsc>
						</rate>
						<start>45300</start>
						<end>45450</end>
						<in>38250</in>
						<out>38400</out>
						<pproTicksIn>0</pproTicksIn>
						<pproTicksOut>419410897920000</pproTicksOut>
						<alphatype>none</alphatype>
						<pixelaspectratio>square</pixelaspectratio>
						<anamorphic>FALSE</anamorphic>
						<file id="file-32">
							<name>Travis_Kelce_ANNOUNCE_WEDDING_DATE_with_Taylor_Swift_Why_He_was_Delaying_all_Along.mp4</name>
							<pathurl>file://localhost/Users/themalikano/Documents/VideoAutomation/premiere_videos/Travis_Kelce_ANNOUNCE_WEDDING_DATE_with_Taylor_Swift_Why_He_was_Delaying_all_Along.mp4</pathurl>
							<rate>
								<timebase>24</timebase>
								<ntsc>FALSE</ntsc>
							</rate>
							<duration>39627</duration>
							<timecode>
								<rate>
									<timebase>24</timebase>
									<ntsc>FALSE</ntsc>
								</rate>
								<string>00:00:00:00</string>
								<frame>0</frame>
								<displayformat>NDF</displayformat>
							</timecode>
							<media>
								<video>
									<samplecharacteristics>
										<rate>
											<timebase>24</timebase>
											<ntsc>FALSE</ntsc>
										</rate>
										<width>852</width>
										<height>480</height>
										<anamorphic>FALSE</anamorphic>
										<pixelaspectratio>square</pixelaspectratio>
										<fielddominance>none</fielddominance>
									</samplecharacteristics>
								</video>
								<audio>
									<samplecharacteristics>
										<depth>16</depth>
										<samplerate>44100</samplerate>
									</samplecharacteristics>
									<channelcount>2</channelcount>
								</audio>
							</media>
						</file>
						<filter>
							<effect>
								<name>Basic Motion</name>
								<effectid>basic</effectid>
								<effectcategory>motion</effectcategory>
								<effecttype>motion</effecttype>
								<mediatype>video</mediatype>
								<pproBypass>false</pproBypass>
								<parameter authoringApp="PremierePro">
									<parameterid>scale</parameterid>
									<name>Scale</name>
									<valuemin>0</valuemin>
									<valuemax>1000</valuemax>
									<value>225</value>
								</parameter>
								<parameter authoringApp="PremierePro">
									<parameterid>rotation</parameterid>
									<name>Rotation</name>
									<valuemin>-8640</valuemin>
									<valuemax>8640</valuemax>
									<value>0</value>
								</parameter>
								<parameter authoringApp="PremierePro">
									<parameterid>center</parameterid>
									<name>Center</name>
									<value>
										<horiz>0</horiz>
										<vert>0</vert>
									</value>
								</parameter>
								<parameter authoringApp="PremierePro">
									<parameterid>centerOffset</parameterid>
									<name>Anchor Point</name>
									<value>
										<horiz>0</horiz>
										<vert>0</vert>
									</value>
								</parameter>
								<parameter authoringApp="PremierePro">
									<parameterid>antiflicker</parameterid>
									<name>Anti-flicker Filter</name>
									<valuemin>0.0</valuemin>
									<valuemax>1.0</valuemax>
									<value>0</value>
								</parameter>
							</effect>
						</filter>
						<link>
							<linkclipref>clipitem-88</linkclipref>
							<mediatype>video</mediatype>
							<trackindex>1</trackindex>
							<clipindex>4</clipindex>
						</link>
						<link>
							<linkclipref>clipitem-96</linkclipref>
							<mediatype>audio</mediatype>
							<trackindex>1</trackindex>
							<clipindex>4</clipindex>
							<groupindex>1</groupindex>
						</link>
						<link>
							<linkclipref>clipitem-104</linkclipref>
							<mediatype>audio</mediatype>
							<trackindex>2</trackindex>
							<clipindex>4</clipindex>
							<groupindex>1</groupindex>
						</link>
						<logginginfo>
							<description />
							<scene />
							<shottake />
							<lognote />
							<good />
							<originalvideofilename />
							<originalaudiofilename />
						</logginginfo>
						<colorinfo>
							<lut />
							<lut1 />
							<asc_sop />
							<asc_sat />
							<lut2 />
						</colorinfo>
					<labels><label2>Lavender</label2></labels></clipitem>
					<clipitem id="clipitem-90">
						<masterclipid>clipitem-6-12</masterclipid>
						<name>Travis_Kelce_talks_about_postponing_his_wedding_to_Fiance_Taylor_Swift_on_the_New_Heights_Podcast.mp4</name>
						<enabled>TRUE</enabled>
						<duration>150</duration>
						<rate>
							<timebase>25</timebase>
							<ntsc>FALSE</ntsc>
						</rate>
						<start>45450</start>
						<end>45600</end>
						<in>1650</in>
						<out>1800</out>
						<pproTicksIn>0</pproTicksIn>
						<pproTicksOut>149391889920000</pproTicksOut>
						<alphatype>none</alphatype>
						<pixelaspectratio>square</pixelaspectratio>
						<anamorphic>FALSE</anamorphic>
						<file id="file-34">
							<name>Travis_Kelce_talks_about_postponing_his_wedding_to_Fiance_Taylor_Swift_on_the_New_Heights_Podcast.mp4</name>
							<pathurl>file://localhost/Users/themalikano/Documents/VideoAutomation/premiere_videos/Travis_Kelce_talks_about_postponing_his_wedding_to_Fiance_Taylor_Swift_on_the_New_Heights_Podcast.mp4</pathurl>
							<rate>
								<timebase>30</timebase>
								<ntsc>FALSE</ntsc>
							</rate>
							<duration>17644</duration>
							<timecode>
								<rate>
									<timebase>30</timebase>
									<ntsc>FALSE</ntsc>
								</rate>
								<string>00:00:00:00</string>
								<frame>0</frame>
								<displayformat>NDF</displayformat>
							</timecode>
							<media>
								<video>
									<samplecharacteristics>
										<rate>
											<timebase>30</timebase>
											<ntsc>FALSE</ntsc>
										</rate>
										<width>1920</width>
										<height>1080</height>
										<anamorphic>FALSE</anamorphic>
										<pixelaspectratio>square</pixelaspectratio>
										<fielddominance>none</fielddominance>
									</samplecharacteristics>
								</video>
								<audio>
									<samplecharacteristics>
										<depth>16</depth>
										<samplerate>44100</samplerate>
									</samplecharacteristics>
									<channelcount>2</channelcount>
								</audio>
							</media>
						</file>
						<link>
							<linkclipref>clipitem-90</linkclipref>
							<mediatype>video</mediatype>
							<trackindex>1</trackindex>
							<clipindex>6</clipindex>
						</link>
						<link>
							<linkclipref>clipitem-98</linkclipref>
							<mediatype>audio</mediatype>
							<trackindex>1</trackindex>
							<clipindex>6</clipindex>
							<groupindex>1</groupindex>
						</link>
						<link>
							<linkclipref>clipitem-106</linkclipref>
							<mediatype>audio</mediatype>
							<trackindex>2</trackindex>
							<clipindex>6</clipindex>
							<groupindex>1</groupindex>
						</link>
						<logginginfo>
							<description />
							<scene />
							<shottake />
							<lognote />
							<good />
							<originalvideofilename />
							<originalaudiofilename />
						</logginginfo>
						<colorinfo>
							<lut />
							<lut1 />
							<asc_sop />
							<asc_sat />
							<lut2 />
						</colorinfo>
					<labels><label2>Forest</label2></labels></clipitem>
					<clipitem id="clipitem-88">
						<masterclipid>clipitem-4-225</masterclipid>
						<name>Travis_Kelce_ANNOUNCE_WEDDING_DATE_with_Taylor_Swift_Why_He_was_Delaying_all_Along.mp4</name>
						<enabled>TRUE</enabled>
						<duration>150</duration>
						<rate>
							<timebase>25</timebase>
							<ntsc>FALSE</ntsc>
						</rate>
						<start>45600</start>
						<end>45750</end>
						<in>33600</in>
						<out>33750</out>
						<pproTicksIn>0</pproTicksIn>
						<pproTicksOut>419410897920000</pproTicksOut>
						<alphatype>none</alphatype>
						<pixelaspectratio>square</pixelaspectratio>
						<anamorphic>FALSE</anamorphic>
						<file id="file-32">
							<name>Travis_Kelce_ANNOUNCE_WEDDING_DATE_with_Taylor_Swift_Why_He_was_Delaying_all_Along.mp4</name>
							<pathurl>file://localhost/Users/themalikano/Documents/VideoAutomation/premiere_videos/Travis_Kelce_ANNOUNCE_WEDDING_DATE_with_Taylor_Swift_Why_He_was_Delaying_all_Along.mp4</pathurl>
							<rate>
								<timebase>24</timebase>
								<ntsc>FALSE</ntsc>
							</rate>
							<duration>39627</duration>
							<timecode>
								<rate>
									<timebase>24</timebase>
									<ntsc>FALSE</ntsc>
								</rate>
								<string>00:00:00:00</string>
								<frame>0</frame>
								<displayformat>NDF</displayformat>
							</timecode>
							<media>
								<video>
									<samplecharacteristics>
										<rate>
											<timebase>24</timebase>
											<ntsc>FALSE</ntsc>
										</rate>
										<width>852</width>
										<height>480</height>
										<anamorphic>FALSE</anamorphic>
										<pixelaspectratio>square</pixelaspectratio>
										<fielddominance>none</fielddominance>
									</samplecharacteristics>
								</video>
								<audio>
									<samplecharacteristics>
										<depth>16</depth>
										<samplerate>44100</samplerate>
									</samplecharacteristics>
									<channelcount>2</channelcount>
								</audio>
							</media>
						</file>
						<filter>
							<effect>
								<name>Basic Motion</name>
								<effectid>basic</effectid>
								<effectcategory>motion</effectcategory>
								<effecttype>motion</effecttype>
								<mediatype>video</mediatype>
								<pproBypass>false</pproBypass>
								<parameter authoringApp="PremierePro">
									<parameterid>scale</parameterid>
									<name>Scale</name>
									<valuemin>0</valuemin>
									<valuemax>1000</valuemax>
									<value>225</value>
								</parameter>
								<parameter authoringApp="PremierePro">
									<parameterid>rotation</parameterid>
									<name>Rotation</name>
									<valuemin>-8640</valuemin>
									<valuemax>8640</valuemax>
									<value>0</value>
								</parameter>
								<parameter authoringApp="PremierePro">
									<parameterid>center</parameterid>
									<name>Center</name>
									<value>
										<horiz>0</horiz>
										<vert>0</vert>
									</value>
								</parameter>
								<parameter authoringApp="PremierePro">
									<parameterid>centerOffset</parameterid>
									<name>Anchor Point</name>
									<value>
										<horiz>0</horiz>
										<vert>0</vert>
									</value>
								</parameter>
								<parameter authoringApp="PremierePro">
									<parameterid>antiflicker</parameterid>
									<name>Anti-flicker Filter</name>
									<valuemin>0.0</valuemin>
									<valuemax>1.0</valuemax>
									<value>0</value>
								</parameter>
							</effect>
						</filter>
						<link>
							<linkclipref>clipitem-88</linkclipref>
							<mediatype>video</mediatype>
							<trackindex>1</trackindex>
							<clipindex>4</clipindex>
						</link>
						<link>
							<linkclipref>clipitem-96</linkclipref>
							<mediatype>audio</mediatype>
							<trackindex>1</trackindex>
							<clipindex>4</clipindex>
							<groupindex>1</groupindex>
						</link>
						<link>
							<linkclipref>clipitem-104</linkclipref>
							<mediatype>audio</mediatype>
							<trackindex>2</trackindex>
							<clipindex>4</clipindex>
							<groupindex>1</groupindex>
						</link>
						<logginginfo>
							<description />
							<scene />
							<shottake />
							<lognote />
							<good />
							<originalvideofilename />
							<originalaudiofilename />
						</logginginfo>
						<colorinfo>
							<lut />
							<lut1 />
							<asc_sop />
							<asc_sat />
							<lut2 />
						</colorinfo>
					<labels><label2>Lavender</label2></labels></clipitem>
					<clipitem id="clipitem-87">
						<masterclipid>clipitem-3-88</masterclipid>
						<name>Taylor_Swift_Travis_Kelce_-_The_New_Power_Couple.mp4</name>
						<enabled>TRUE</enabled>
						<duration>150</duration>
						<rate>
							<timebase>25</timebase>
							<ntsc>FALSE</ntsc>
						</rate>
						<start>45750</start>
						<end>45900</end>
						<in>13050</in>
						<out>13200</out>
						<pproTicksIn>0</pproTicksIn>
						<pproTicksOut>875013995520000</pproTicksOut>
						<alphatype>none</alphatype>
						<pixelaspectratio>square</pixelaspectratio>
						<anamorphic>FALSE</anamorphic>
						<file id="file-31">
							<name>Taylor_Swift_Travis_Kelce_-_The_New_Power_Couple.mp4</name>
							<pathurl>file://localhost/Users/themalikano/Documents/VideoAutomation/premiere_videos/Taylor_Swift_Travis_Kelce_-_The_New_Power_Couple.mp4</pathurl>
							<rate>
								<timebase>25</timebase>
								<ntsc>FALSE</ntsc>
							</rate>
							<duration>86118</duration>
							<timecode>
								<rate>
									<timebase>25</timebase>
									<ntsc>FALSE</ntsc>
								</rate>
								<string>00:00:00:00</string>
								<frame>0</frame>
								<displayformat>NDF</displayformat>
							</timecode>
							<media>
								<video>
									<samplecharacteristics>
										<rate>
											<timebase>25</timebase>
											<ntsc>FALSE</ntsc>
										</rate>
										<width>1920</width>
										<height>1080</height>
										<anamorphic>FALSE</anamorphic>
										<pixelaspectratio>square</pixelaspectratio>
										<fielddominance>none</fielddominance>
									</samplecharacteristics>
								</video>
								<audio>
									<samplecharacteristics>
										<depth>16</depth>
										<samplerate>44100</samplerate>
									</samplecharacteristics>
									<channelcount>2</channelcount>
								</audio>
							</media>
						</file>
						<link>
							<linkclipref>clipitem-87</linkclipref>
							<mediatype>video</mediatype>
							<trackindex>1</trackindex>
							<clipindex>3</clipindex>
						</link>
						<link>
							<linkclipref>clipitem-95</linkclipref>
							<mediatype>audio</mediatype>
							<trackindex>1</trackindex>
							<clipindex>3</clipindex>
							<groupindex>1</groupindex>
						</link>
						<link>
							<linkclipref>clipitem-103</linkclipref>
							<mediatype>audio</mediatype>
							<trackindex>2</trackindex>
							<clipindex>3</clipindex>
							<groupindex>1</groupindex>
						</link>
						<logginginfo>
							<description />
							<scene />
							<shottake />
							<lognote />
							<good />
							<originalvideofilename />
							<originalaudiofilename />
						</logginginfo>
						<colorinfo>
							<lut />
							<lut1 />
							<asc_sop />
							<asc_sat />
							<lut2 />
						</colorinfo>
					<labels><label2>Caribbean</label2></labels></clipitem>
					<clipitem id="clipitem-88">
						<masterclipid>clipitem-4-176</masterclipid>
						<name>Travis_Kelce_ANNOUNCE_WEDDING_DATE_with_Taylor_Swift_Why_He_was_Delaying_all_Along.mp4</name>
						<enabled>TRUE</enabled>
						<duration>150</duration>
						<rate>
							<timebase>25</timebase>
							<ntsc>FALSE</ntsc>
						</rate>
						<start>45900</start>
						<end>46050</end>
						<in>26250</in>
						<out>26400</out>
						<pproTicksIn>0</pproTicksIn>
						<pproTicksOut>419410897920000</pproTicksOut>
						<alphatype>none</alphatype>
						<pixelaspectratio>square</pixelaspectratio>
						<anamorphic>FALSE</anamorphic>
						<file id="file-32">
							<name>Travis_Kelce_ANNOUNCE_WEDDING_DATE_with_Taylor_Swift_Why_He_was_Delaying_all_Along.mp4</name>
							<pathurl>file://localhost/Users/themalikano/Documents/VideoAutomation/premiere_videos/Travis_Kelce_ANNOUNCE_WEDDING_DATE_with_Taylor_Swift_Why_He_was_Delaying_all_Along.mp4</pathurl>
							<rate>
								<timebase>24</timebase>
								<ntsc>FALSE</ntsc>
							</rate>
							<duration>39627</duration>
							<timecode>
								<rate>
									<timebase>24</timebase>
									<ntsc>FALSE</ntsc>
								</rate>
								<string>00:00:00:00</string>
								<frame>0</frame>
								<displayformat>NDF</displayformat>
							</timecode>
							<media>
								<video>
									<samplecharacteristics>
										<rate>
											<timebase>24</timebase>
											<ntsc>FALSE</ntsc>
										</rate>
										<width>852</width>
										<height>480</height>
										<anamorphic>FALSE</anamorphic>
										<pixelaspectratio>square</pixelaspectratio>
										<fielddominance>none</fielddominance>
									</samplecharacteristics>
								</video>
								<audio>
									<samplecharacteristics>
										<depth>16</depth>
										<samplerate>44100</samplerate>
									</samplecharacteristics>
									<channelcount>2</channelcount>
								</audio>
							</media>
						</file>
						<filter>
							<effect>
								<name>Basic Motion</name>
								<effectid>basic</effectid>
								<effectcategory>motion</effectcategory>
								<effecttype>motion</effecttype>
								<mediatype>video</mediatype>
								<pproBypass>false</pproBypass>
								<parameter authoringApp="PremierePro">
									<parameterid>scale</parameterid>
									<name>Scale</name>
									<valuemin>0</valuemin>
									<valuemax>1000</valuemax>
									<value>225</value>
								</parameter>
								<parameter authoringApp="PremierePro">
									<parameterid>rotation</parameterid>
									<name>Rotation</name>
									<valuemin>-8640</valuemin>
									<valuemax>8640</valuemax>
									<value>0</value>
								</parameter>
								<parameter authoringApp="PremierePro">
									<parameterid>center</parameterid>
									<name>Center</name>
									<value>
										<horiz>0</horiz>
										<vert>0</vert>
									</value>
								</parameter>
								<parameter authoringApp="PremierePro">
									<parameterid>centerOffset</parameterid>
									<name>Anchor Point</name>
									<value>
										<horiz>0</horiz>
										<vert>0</vert>
									</value>
								</parameter>
								<parameter authoringApp="PremierePro">
									<parameterid>antiflicker</parameterid>
									<name>Anti-flicker Filter</name>
									<valuemin>0.0</valuemin>
									<valuemax>1.0</valuemax>
									<value>0</value>
								</parameter>
							</effect>
						</filter>
						<link>
							<linkclipref>clipitem-88</linkclipref>
							<mediatype>video</mediatype>
							<trackindex>1</trackindex>
							<clipindex>4</clipindex>
						</link>
						<link>
							<linkclipref>clipitem-96</linkclipref>
							<mediatype>audio</mediatype>
							<trackindex>1</trackindex>
							<clipindex>4</clipindex>
							<groupindex>1</groupindex>
						</link>
						<link>
							<linkclipref>clipitem-104</linkclipref>
							<mediatype>audio</mediatype>
							<trackindex>2</trackindex>
							<clipindex>4</clipindex>
							<groupindex>1</groupindex>
						</link>
						<logginginfo>
							<description />
							<scene />
							<shottake />
							<lognote />
							<good />
							<originalvideofilename />
							<originalaudiofilename />
						</logginginfo>
						<colorinfo>
							<lut />
							<lut1 />
							<asc_sop />
							<asc_sat />
							<lut2 />
						</colorinfo>
					<labels><label2>Lavender</label2></labels></clipitem>
					<clipitem id="clipitem-86">
						<masterclipid>clipitem-2-25</masterclipid>
						<name>Taylor_Swift_Shares_The_Story_Of_Calling_Travis_Kelce_For_The_First_Time.mp4</name>
						<enabled>TRUE</enabled>
						<duration>150</duration>
						<rate>
							<timebase>25</timebase>
							<ntsc>FALSE</ntsc>
						</rate>
						<start>46050</start>
						<end>46200</end>
						<in>3600</in>
						<out>3750</out>
						<pproTicksIn>0</pproTicksIn>
						<pproTicksOut>236438092800000</pproTicksOut>
						<alphatype>none</alphatype>
						<pixelaspectratio>square</pixelaspectratio>
						<anamorphic>FALSE</anamorphic>
						<file id="file-30">
							<name>Taylor_Swift_Shares_The_Story_Of_Calling_Travis_Kelce_For_The_First_Time.mp4</name>
							<pathurl>file://localhost/Users/themalikano/Documents/VideoAutomation/premiere_videos/Taylor_Swift_Shares_The_Story_Of_Calling_Travis_Kelce_For_The_First_Time.mp4</pathurl>
							<rate>
								<timebase>30</timebase>
								<ntsc>TRUE</ntsc>
							</rate>
							<duration>27897</duration>
							<timecode>
								<rate>
									<timebase>30</timebase>
									<ntsc>TRUE</ntsc>
								</rate>
								<string>00:00:00:00</string>
								<frame>0</frame>
								<displayformat>NDF</displayformat>
							</timecode>
							<media>
								<video>
									<samplecharacteristics>
										<rate>
											<timebase>30</timebase>
											<ntsc>TRUE</ntsc>
										</rate>
										<width>1920</width>
										<height>1080</height>
										<anamorphic>FALSE</anamorphic>
										<pixelaspectratio>square</pixelaspectratio>
										<fielddominance>none</fielddominance>
									</samplecharacteristics>
								</video>
								<audio>
									<samplecharacteristics>
										<depth>16</depth>
										<samplerate>44100</samplerate>
									</samplecharacteristics>
									<channelcount>2</channelcount>
								</audio>
							</media>
						</file>
						<link>
							<linkclipref>clipitem-86</linkclipref>
							<mediatype>video</mediatype>
							<trackindex>1</trackindex>
							<clipindex>2</clipindex>
						</link>
						<link>
							<linkclipref>clipitem-94</linkclipref>
							<mediatype>audio</mediatype>
							<trackindex>1</trackindex>
							<clipindex>2</clipindex>
							<groupindex>1</groupindex>
						</link>
						<link>
							<linkclipref>clipitem-102</linkclipref>
							<mediatype>audio</mediatype>
							<trackindex>2</trackindex>
							<clipindex>2</clipindex>
							<groupindex>1</groupindex>
						</link>
						<logginginfo>
							<description />
							<scene />
							<shottake />
							<lognote />
							<good />
							<originalvideofilename />
							<originalaudiofilename />
						</logginginfo>
						<colorinfo>
							<lut />
							<lut1 />
							<asc_sop />
							<asc_sat />
							<lut2 />
						</colorinfo>
					<labels><label2>Iris</label2></labels></clipitem>
					<clipitem id="clipitem-87">
						<masterclipid>clipitem-3-442</masterclipid>
						<name>Taylor_Swift_Travis_Kelce_-_The_New_Power_Couple.mp4</name>
						<enabled>TRUE</enabled>
						<duration>150</duration>
						<rate>
							<timebase>25</timebase>
							<ntsc>FALSE</ntsc>
						</rate>
						<start>46200</start>
						<end>46350</end>
						<in>66150</in>
						<out>66300</out>
						<pproTicksIn>0</pproTicksIn>
						<pproTicksOut>875013995520000</pproTicksOut>
						<alphatype>none</alphatype>
						<pixelaspectratio>square</pixelaspectratio>
						<anamorphic>FALSE</anamorphic>
						<file id="file-31">
							<name>Taylor_Swift_Travis_Kelce_-_The_New_Power_Couple.mp4</name>
							<pathurl>file://localhost/Users/themalikano/Documents/VideoAutomation/premiere_videos/Taylor_Swift_Travis_Kelce_-_The_New_Power_Couple.mp4</pathurl>
							<rate>
								<timebase>25</timebase>
								<ntsc>FALSE</ntsc>
							</rate>
							<duration>86118</duration>
							<timecode>
								<rate>
									<timebase>25</timebase>
									<ntsc>FALSE</ntsc>
								</rate>
								<string>00:00:00:00</string>
								<frame>0</frame>
								<displayformat>NDF</displayformat>
							</timecode>
							<media>
								<video>
									<samplecharacteristics>
										<rate>
											<timebase>25</timebase>
											<ntsc>FALSE</ntsc>
										</rate>
										<width>1920</width>
										<height>1080</height>
										<anamorphic>FALSE</anamorphic>
										<pixelaspectratio>square</pixelaspectratio>
										<fielddominance>none</fielddominance>
									</samplecharacteristics>
								</video>
								<audio>
									<samplecharacteristics>
										<depth>16</depth>
										<samplerate>44100</samplerate>
									</samplecharacteristics>
									<channelcount>2</channelcount>
								</audio>
							</media>
						</file>
						<link>
							<linkclipref>clipitem-87</linkclipref>
							<mediatype>video</mediatype>
							<trackindex>1</trackindex>
							<clipindex>3</clipindex>
						</link>
						<link>
							<linkclipref>clipitem-95</linkclipref>
							<mediatype>audio</mediatype>
							<trackindex>1</trackindex>
							<clipindex>3</clipindex>
							<groupindex>1</groupindex>
						</link>
						<link>
							<linkclipref>clipitem-103</linkclipref>
							<mediatype>audio</mediatype>
							<trackindex>2</trackindex>
							<clipindex>3</clipindex>
							<groupindex>1</groupindex>
						</link>
						<logginginfo>
							<description />
							<scene />
							<shottake />
							<lognote />
							<good />
							<originalvideofilename />
							<originalaudiofilename />
						</logginginfo>
						<colorinfo>
							<lut />
							<lut1 />
							<asc_sop />
							<asc_sat />
							<lut2 />
						</colorinfo>
					<labels><label2>Caribbean</label2></labels></clipitem>
					<clipitem id="clipitem-90">
						<masterclipid>clipitem-6-31</masterclipid>
						<name>Travis_Kelce_talks_about_postponing_his_wedding_to_Fiance_Taylor_Swift_on_the_New_Heights_Podcast.mp4</name>
						<enabled>TRUE</enabled>
						<duration>150</duration>
						<rate>
							<timebase>25</timebase>
							<ntsc>FALSE</ntsc>
						</rate>
						<start>46350</start>
						<end>46500</end>
						<in>4500</in>
						<out>4650</out>
						<pproTicksIn>0</pproTicksIn>
						<pproTicksOut>149391889920000</pproTicksOut>
						<alphatype>none</alphatype>
						<pixelaspectratio>square</pixelaspectratio>
						<anamorphic>FALSE</anamorphic>
						<file id="file-34">
							<name>Travis_Kelce_talks_about_postponing_his_wedding_to_Fiance_Taylor_Swift_on_the_New_Heights_Podcast.mp4</name>
							<pathurl>file://localhost/Users/themalikano/Documents/VideoAutomation/premiere_videos/Travis_Kelce_talks_about_postponing_his_wedding_to_Fiance_Taylor_Swift_on_the_New_Heights_Podcast.mp4</pathurl>
							<rate>
								<timebase>30</timebase>
								<ntsc>FALSE</ntsc>
							</rate>
							<duration>17644</duration>
							<timecode>
								<rate>
									<timebase>30</timebase>
									<ntsc>FALSE</ntsc>
								</rate>
								<string>00:00:00:00</string>
								<frame>0</frame>
								<displayformat>NDF</displayformat>
							</timecode>
							<media>
								<video>
									<samplecharacteristics>
										<rate>
											<timebase>30</timebase>
											<ntsc>FALSE</ntsc>
										</rate>
										<width>1920</width>
										<height>1080</height>
										<anamorphic>FALSE</anamorphic>
										<pixelaspectratio>square</pixelaspectratio>
										<fielddominance>none</fielddominance>
									</samplecharacteristics>
								</video>
								<audio>
									<samplecharacteristics>
										<depth>16</depth>
										<samplerate>44100</samplerate>
									</samplecharacteristics>
									<channelcount>2</channelcount>
								</audio>
							</media>
						</file>
						<link>
							<linkclipref>clipitem-90</linkclipref>
							<mediatype>video</mediatype>
							<trackindex>1</trackindex>
							<clipindex>6</clipindex>
						</link>
						<link>
							<linkclipref>clipitem-98</linkclipref>
							<mediatype>audio</mediatype>
							<trackindex>1</trackindex>
							<clipindex>6</clipindex>
							<groupindex>1</groupindex>
						</link>
						<link>
							<linkclipref>clipitem-106</linkclipref>
							<mediatype>audio</mediatype>
							<trackindex>2</trackindex>
							<clipindex>6</clipindex>
							<groupindex>1</groupindex>
						</link>
						<logginginfo>
							<description />
							<scene />
							<shottake />
							<lognote />
							<good />
							<originalvideofilename />
							<originalaudiofilename />
						</logginginfo>
						<colorinfo>
							<lut />
							<lut1 />
							<asc_sop />
							<asc_sat />
							<lut2 />
						</colorinfo>
					<labels><label2>Forest</label2></labels></clipitem>
					<clipitem id="clipitem-87">
						<masterclipid>clipitem-3-423</masterclipid>
						<name>Taylor_Swift_Travis_Kelce_-_The_New_Power_Couple.mp4</name>
						<enabled>TRUE</enabled>
						<duration>150</duration>
						<rate>
							<timebase>25</timebase>
							<ntsc>FALSE</ntsc>
						</rate>
						<start>46500</start>
						<end>46650</end>
						<in>63300</in>
						<out>63450</out>
						<pproTicksIn>0</pproTicksIn>
						<pproTicksOut>875013995520000</pproTicksOut>
						<alphatype>none</alphatype>
						<pixelaspectratio>square</pixelaspectratio>
						<anamorphic>FALSE</anamorphic>
						<file id="file-31">
							<name>Taylor_Swift_Travis_Kelce_-_The_New_Power_Couple.mp4</name>
							<pathurl>file://localhost/Users/themalikano/Documents/VideoAutomation/premiere_videos/Taylor_Swift_Travis_Kelce_-_The_New_Power_Couple.mp4</pathurl>
							<rate>
								<timebase>25</timebase>
								<ntsc>FALSE</ntsc>
							</rate>
							<duration>86118</duration>
							<timecode>
								<rate>
									<timebase>25</timebase>
									<ntsc>FALSE</ntsc>
								</rate>
								<string>00:00:00:00</string>
								<frame>0</frame>
								<displayformat>NDF</displayformat>
							</timecode>
							<media>
								<video>
									<samplecharacteristics>
										<rate>
											<timebase>25</timebase>
											<ntsc>FALSE</ntsc>
										</rate>
										<width>1920</width>
										<height>1080</height>
										<anamorphic>FALSE</anamorphic>
										<pixelaspectratio>square</pixelaspectratio>
										<fielddominance>none</fielddominance>
									</samplecharacteristics>
								</video>
								<audio>
									<samplecharacteristics>
										<depth>16</depth>
										<samplerate>44100</samplerate>
									</samplecharacteristics>
									<channelcount>2</channelcount>
								</audio>
							</media>
						</file>
						<link>
							<linkclipref>clipitem-87</linkclipref>
							<mediatype>video</mediatype>
							<trackindex>1</trackindex>
							<clipindex>3</clipindex>
						</link>
						<link>
							<linkclipref>clipitem-95</linkclipref>
							<mediatype>audio</mediatype>
							<trackindex>1</trackindex>
							<clipindex>3</clipindex>
							<groupindex>1</groupindex>
						</link>
						<link>
							<linkclipref>clipitem-103</linkclipref>
							<mediatype>audio</mediatype>
							<trackindex>2</trackindex>
							<clipindex>3</clipindex>
							<groupindex>1</groupindex>
						</link>
						<logginginfo>
							<description />
							<scene />
							<shottake />
							<lognote />
							<good />
							<originalvideofilename />
							<originalaudiofilename />
						</logginginfo>
						<colorinfo>
							<lut />
							<lut1 />
							<asc_sop />
							<asc_sat />
							<lut2 />
						</colorinfo>
					<labels><label2>Caribbean</label2></labels></clipitem>
					<clipitem id="clipitem-88">
						<masterclipid>clipitem-4-8</masterclipid>
						<name>Travis_Kelce_ANNOUNCE_WEDDING_DATE_with_Taylor_Swift_Why_He_was_Delaying_all_Along.mp4</name>
						<enabled>TRUE</enabled>
						<duration>150</duration>
						<rate>
							<timebase>25</timebase>
							<ntsc>FALSE</ntsc>
						</rate>
						<start>46650</start>
						<end>46800</end>
						<in>1050</in>
						<out>1200</out>
						<pproTicksIn>0</pproTicksIn>
						<pproTicksOut>419410897920000</pproTicksOut>
						<alphatype>none</alphatype>
						<pixelaspectratio>square</pixelaspectratio>
						<anamorphic>FALSE</anamorphic>
						<file id="file-32">
							<name>Travis_Kelce_ANNOUNCE_WEDDING_DATE_with_Taylor_Swift_Why_He_was_Delaying_all_Along.mp4</name>
							<pathurl>file://localhost/Users/themalikano/Documents/VideoAutomation/premiere_videos/Travis_Kelce_ANNOUNCE_WEDDING_DATE_with_Taylor_Swift_Why_He_was_Delaying_all_Along.mp4</pathurl>
							<rate>
								<timebase>24</timebase>
								<ntsc>FALSE</ntsc>
							</rate>
							<duration>39627</duration>
							<timecode>
								<rate>
									<timebase>24</timebase>
									<ntsc>FALSE</ntsc>
								</rate>
								<string>00:00:00:00</string>
								<frame>0</frame>
								<displayformat>NDF</displayformat>
							</timecode>
							<media>
								<video>
									<samplecharacteristics>
										<rate>
											<timebase>24</timebase>
											<ntsc>FALSE</ntsc>
										</rate>
										<width>852</width>
										<height>480</height>
										<anamorphic>FALSE</anamorphic>
										<pixelaspectratio>square</pixelaspectratio>
										<fielddominance>none</fielddominance>
									</samplecharacteristics>
								</video>
								<audio>
									<samplecharacteristics>
										<depth>16</depth>
										<samplerate>44100</samplerate>
									</samplecharacteristics>
									<channelcount>2</channelcount>
								</audio>
							</media>
						</file>
						<filter>
							<effect>
								<name>Basic Motion</name>
								<effectid>basic</effectid>
								<effectcategory>motion</effectcategory>
								<effecttype>motion</effecttype>
								<mediatype>video</mediatype>
								<pproBypass>false</pproBypass>
								<parameter authoringApp="PremierePro">
									<parameterid>scale</parameterid>
									<name>Scale</name>
									<valuemin>0</valuemin>
									<valuemax>1000</valuemax>
									<value>225</value>
								</parameter>
								<parameter authoringApp="PremierePro">
									<parameterid>rotation</parameterid>
									<name>Rotation</name>
									<valuemin>-8640</valuemin>
									<valuemax>8640</valuemax>
									<value>0</value>
								</parameter>
								<parameter authoringApp="PremierePro">
									<parameterid>center</parameterid>
									<name>Center</name>
									<value>
										<horiz>0</horiz>
										<vert>0</vert>
									</value>
								</parameter>
								<parameter authoringApp="PremierePro">
									<parameterid>centerOffset</parameterid>
									<name>Anchor Point</name>
									<value>
										<horiz>0</horiz>
										<vert>0</vert>
									</value>
								</parameter>
								<parameter authoringApp="PremierePro">
									<parameterid>antiflicker</parameterid>
									<name>Anti-flicker Filter</name>
									<valuemin>0.0</valuemin>
									<valuemax>1.0</valuemax>
									<value>0</value>
								</parameter>
							</effect>
						</filter>
						<link>
							<linkclipref>clipitem-88</linkclipref>
							<mediatype>video</mediatype>
							<trackindex>1</trackindex>
							<clipindex>4</clipindex>
						</link>
						<link>
							<linkclipref>clipitem-96</linkclipref>
							<mediatype>audio</mediatype>
							<trackindex>1</trackindex>
							<clipindex>4</clipindex>
							<groupindex>1</groupindex>
						</link>
						<link>
							<linkclipref>clipitem-104</linkclipref>
							<mediatype>audio</mediatype>
							<trackindex>2</trackindex>
							<clipindex>4</clipindex>
							<groupindex>1</groupindex>
						</link>
						<logginginfo>
							<description />
							<scene />
							<shottake />
							<lognote />
							<good />
							<originalvideofilename />
							<originalaudiofilename />
						</logginginfo>
						<colorinfo>
							<lut />
							<lut1 />
							<asc_sop />
							<asc_sat />
							<lut2 />
						</colorinfo>
					<labels><label2>Lavender</label2></labels></clipitem>
					<clipitem id="clipitem-86">
						<masterclipid>clipitem-2-107</masterclipid>
						<name>Taylor_Swift_Shares_The_Story_Of_Calling_Travis_Kelce_For_The_First_Time.mp4</name>
						<enabled>TRUE</enabled>
						<duration>150</duration>
						<rate>
							<timebase>25</timebase>
							<ntsc>FALSE</ntsc>
						</rate>
						<start>46800</start>
						<end>46950</end>
						<in>15900</in>
						<out>16050</out>
						<pproTicksIn>0</pproTicksIn>
						<pproTicksOut>236438092800000</pproTicksOut>
						<alphatype>none</alphatype>
						<pixelaspectratio>square</pixelaspectratio>
						<anamorphic>FALSE</anamorphic>
						<file id="file-30">
							<name>Taylor_Swift_Shares_The_Story_Of_Calling_Travis_Kelce_For_The_First_Time.mp4</name>
							<pathurl>file://localhost/Users/themalikano/Documents/VideoAutomation/premiere_videos/Taylor_Swift_Shares_The_Story_Of_Calling_Travis_Kelce_For_The_First_Time.mp4</pathurl>
							<rate>
								<timebase>30</timebase>
								<ntsc>TRUE</ntsc>
							</rate>
							<duration>27897</duration>
							<timecode>
								<rate>
									<timebase>30</timebase>
									<ntsc>TRUE</ntsc>
								</rate>
								<string>00:00:00:00</string>
								<frame>0</frame>
								<displayformat>NDF</displayformat>
							</timecode>
							<media>
								<video>
									<samplecharacteristics>
										<rate>
											<timebase>30</timebase>
											<ntsc>TRUE</ntsc>
										</rate>
										<width>1920</width>
										<height>1080</height>
										<anamorphic>FALSE</anamorphic>
										<pixelaspectratio>square</pixelaspectratio>
										<fielddominance>none</fielddominance>
									</samplecharacteristics>
								</video>
								<audio>
									<samplecharacteristics>
										<depth>16</depth>
										<samplerate>44100</samplerate>
									</samplecharacteristics>
									<channelcount>2</channelcount>
								</audio>
							</media>
						</file>
						<link>
							<linkclipref>clipitem-86</linkclipref>
							<mediatype>video</mediatype>
							<trackindex>1</trackindex>
							<clipindex>2</clipindex>
						</link>
						<link>
							<linkclipref>clipitem-94</linkclipref>
							<mediatype>audio</mediatype>
							<trackindex>1</trackindex>
							<clipindex>2</clipindex>
							<groupindex>1</groupindex>
						</link>
						<link>
							<linkclipref>clipitem-102</linkclipref>
							<mediatype>audio</mediatype>
							<trackindex>2</trackindex>
							<clipindex>2</clipindex>
							<groupindex>1</groupindex>
						</link>
						<logginginfo>
							<description />
							<scene />
							<shottake />
							<lognote />
							<good />
							<originalvideofilename />
							<originalaudiofilename />
						</logginginfo>
						<colorinfo>
							<lut />
							<lut1 />
							<asc_sop />
							<asc_sat />
							<lut2 />
						</colorinfo>
					<labels><label2>Iris</label2></labels></clipitem>
					<clipitem id="clipitem-87">
						<masterclipid>clipitem-3-286</masterclipid>
						<name>Taylor_Swift_Travis_Kelce_-_The_New_Power_Couple.mp4</name>
						<enabled>TRUE</enabled>
						<duration>150</duration>
						<rate>
							<timebase>25</timebase>
							<ntsc>FALSE</ntsc>
						</rate>
						<start>46950</start>
						<end>47100</end>
						<in>42750</in>
						<out>42900</out>
						<pproTicksIn>0</pproTicksIn>
						<pproTicksOut>875013995520000</pproTicksOut>
						<alphatype>none</alphatype>
						<pixelaspectratio>square</pixelaspectratio>
						<anamorphic>FALSE</anamorphic>
						<file id="file-31">
							<name>Taylor_Swift_Travis_Kelce_-_The_New_Power_Couple.mp4</name>
							<pathurl>file://localhost/Users/themalikano/Documents/VideoAutomation/premiere_videos/Taylor_Swift_Travis_Kelce_-_The_New_Power_Couple.mp4</pathurl>
							<rate>
								<timebase>25</timebase>
								<ntsc>FALSE</ntsc>
							</rate>
							<duration>86118</duration>
							<timecode>
								<rate>
									<timebase>25</timebase>
									<ntsc>FALSE</ntsc>
								</rate>
								<string>00:00:00:00</string>
								<frame>0</frame>
								<displayformat>NDF</displayformat>
							</timecode>
							<media>
								<video>
									<samplecharacteristics>
										<rate>
											<timebase>25</timebase>
											<ntsc>FALSE</ntsc>
										</rate>
										<width>1920</width>
										<height>1080</height>
										<anamorphic>FALSE</anamorphic>
										<pixelaspectratio>square</pixelaspectratio>
										<fielddominance>none</fielddominance>
									</samplecharacteristics>
								</video>
								<audio>
									<samplecharacteristics>
										<depth>16</depth>
										<samplerate>44100</samplerate>
									</samplecharacteristics>
									<channelcount>2</channelcount>
								</audio>
							</media>
						</file>
						<link>
							<linkclipref>clipitem-87</linkclipref>
							<mediatype>video</mediatype>
							<trackindex>1</trackindex>
							<clipindex>3</clipindex>
						</link>
						<link>
							<linkclipref>clipitem-95</linkclipref>
							<mediatype>audio</mediatype>
							<trackindex>1</trackindex>
							<clipindex>3</clipindex>
							<groupindex>1</groupindex>
						</link>
						<link>
							<linkclipref>clipitem-103</linkclipref>
							<mediatype>audio</mediatype>
							<trackindex>2</trackindex>
							<clipindex>3</clipindex>
							<groupindex>1</groupindex>
						</link>
						<logginginfo>
							<description />
							<scene />
							<shottake />
							<lognote />
							<good />
							<originalvideofilename />
							<originalaudiofilename />
						</logginginfo>
						<colorinfo>
							<lut />
							<lut1 />
							<asc_sop />
							<asc_sat />
							<lut2 />
						</colorinfo>
					<labels><label2>Caribbean</label2></labels></clipitem>
					<clipitem id="clipitem-90">
						<masterclipid>clipitem-6-11</masterclipid>
						<name>Travis_Kelce_talks_about_postponing_his_wedding_to_Fiance_Taylor_Swift_on_the_New_Heights_Podcast.mp4</name>
						<enabled>TRUE</enabled>
						<duration>150</duration>
						<rate>
							<timebase>25</timebase>
							<ntsc>FALSE</ntsc>
						</rate>
						<start>47100</start>
						<end>47250</end>
						<in>1500</in>
						<out>1650</out>
						<pproTicksIn>0</pproTicksIn>
						<pproTicksOut>149391889920000</pproTicksOut>
						<alphatype>none</alphatype>
						<pixelaspectratio>square</pixelaspectratio>
						<anamorphic>FALSE</anamorphic>
						<file id="file-34">
							<name>Travis_Kelce_talks_about_postponing_his_wedding_to_Fiance_Taylor_Swift_on_the_New_Heights_Podcast.mp4</name>
							<pathurl>file://localhost/Users/themalikano/Documents/VideoAutomation/premiere_videos/Travis_Kelce_talks_about_postponing_his_wedding_to_Fiance_Taylor_Swift_on_the_New_Heights_Podcast.mp4</pathurl>
							<rate>
								<timebase>30</timebase>
								<ntsc>FALSE</ntsc>
							</rate>
							<duration>17644</duration>
							<timecode>
								<rate>
									<timebase>30</timebase>
									<ntsc>FALSE</ntsc>
								</rate>
								<string>00:00:00:00</string>
								<frame>0</frame>
								<displayformat>NDF</displayformat>
							</timecode>
							<media>
								<video>
									<samplecharacteristics>
										<rate>
											<timebase>30</timebase>
											<ntsc>FALSE</ntsc>
										</rate>
										<width>1920</width>
										<height>1080</height>
										<anamorphic>FALSE</anamorphic>
										<pixelaspectratio>square</pixelaspectratio>
										<fielddominance>none</fielddominance>
									</samplecharacteristics>
								</video>
								<audio>
									<samplecharacteristics>
										<depth>16</depth>
										<samplerate>44100</samplerate>
									</samplecharacteristics>
									<channelcount>2</channelcount>
								</audio>
							</media>
						</file>
						<link>
							<linkclipref>clipitem-90</linkclipref>
							<mediatype>video</mediatype>
							<trackindex>1</trackindex>
							<clipindex>6</clipindex>
						</link>
						<link>
							<linkclipref>clipitem-98</linkclipref>
							<mediatype>audio</mediatype>
							<trackindex>1</trackindex>
							<clipindex>6</clipindex>
							<groupindex>1</groupindex>
						</link>
						<link>
							<linkclipref>clipitem-106</linkclipref>
							<mediatype>audio</mediatype>
							<trackindex>2</trackindex>
							<clipindex>6</clipindex>
							<groupindex>1</groupindex>
						</link>
						<logginginfo>
							<description />
							<scene />
							<shottake />
							<lognote />
							<good />
							<originalvideofilename />
							<originalaudiofilename />
						</logginginfo>
						<colorinfo>
							<lut />
							<lut1 />
							<asc_sop />
							<asc_sat />
							<lut2 />
						</colorinfo>
					<labels><label2>Forest</label2></labels></clipitem>
					<clipitem id="clipitem-87">
						<masterclipid>clipitem-3-518</masterclipid>
						<name>Taylor_Swift_Travis_Kelce_-_The_New_Power_Couple.mp4</name>
						<enabled>TRUE</enabled>
						<duration>150</duration>
						<rate>
							<timebase>25</timebase>
							<ntsc>FALSE</ntsc>
						</rate>
						<start>47250</start>
						<end>47400</end>
						<in>77550</in>
						<out>77700</out>
						<pproTicksIn>0</pproTicksIn>
						<pproTicksOut>875013995520000</pproTicksOut>
						<alphatype>none</alphatype>
						<pixelaspectratio>square</pixelaspectratio>
						<anamorphic>FALSE</anamorphic>
						<file id="file-31">
							<name>Taylor_Swift_Travis_Kelce_-_The_New_Power_Couple.mp4</name>
							<pathurl>file://localhost/Users/themalikano/Documents/VideoAutomation/premiere_videos/Taylor_Swift_Travis_Kelce_-_The_New_Power_Couple.mp4</pathurl>
							<rate>
								<timebase>25</timebase>
								<ntsc>FALSE</ntsc>
							</rate>
							<duration>86118</duration>
							<timecode>
								<rate>
									<timebase>25</timebase>
									<ntsc>FALSE</ntsc>
								</rate>
								<string>00:00:00:00</string>
								<frame>0</frame>
								<displayformat>NDF</displayformat>
							</timecode>
							<media>
								<video>
									<samplecharacteristics>
										<rate>
											<timebase>25</timebase>
											<ntsc>FALSE</ntsc>
										</rate>
										<width>1920</width>
										<height>1080</height>
										<anamorphic>FALSE</anamorphic>
										<pixelaspectratio>square</pixelaspectratio>
										<fielddominance>none</fielddominance>
									</samplecharacteristics>
								</video>
								<audio>
									<samplecharacteristics>
										<depth>16</depth>
										<samplerate>44100</samplerate>
									</samplecharacteristics>
									<channelcount>2</channelcount>
								</audio>
							</media>
						</file>
						<link>
							<linkclipref>clipitem-87</linkclipref>
							<mediatype>video</mediatype>
							<trackindex>1</trackindex>
							<clipindex>3</clipindex>
						</link>
						<link>
							<linkclipref>clipitem-95</linkclipref>
							<mediatype>audio</mediatype>
							<trackindex>1</trackindex>
							<clipindex>3</clipindex>
							<groupindex>1</groupindex>
						</link>
						<link>
							<linkclipref>clipitem-103</linkclipref>
							<mediatype>audio</mediatype>
							<trackindex>2</trackindex>
							<clipindex>3</clipindex>
							<groupindex>1</groupindex>
						</link>
						<logginginfo>
							<description />
							<scene />
							<shottake />
							<lognote />
							<good />
							<originalvideofilename />
							<originalaudiofilename />
						</logginginfo>
						<colorinfo>
							<lut />
							<lut1 />
							<asc_sop />
							<asc_sat />
							<lut2 />
						</colorinfo>
					<labels><label2>Caribbean</label2></labels></clipitem>
					<clipitem id="clipitem-86">
						<masterclipid>clipitem-2-42</masterclipid>
						<name>Taylor_Swift_Shares_The_Story_Of_Calling_Travis_Kelce_For_The_First_Time.mp4</name>
						<enabled>TRUE</enabled>
						<duration>150</duration>
						<rate>
							<timebase>25</timebase>
							<ntsc>FALSE</ntsc>
						</rate>
						<start>47400</start>
						<end>47550</end>
						<in>6150</in>
						<out>6300</out>
						<pproTicksIn>0</pproTicksIn>
						<pproTicksOut>236438092800000</pproTicksOut>
						<alphatype>none</alphatype>
						<pixelaspectratio>square</pixelaspectratio>
						<anamorphic>FALSE</anamorphic>
						<file id="file-30">
							<name>Taylor_Swift_Shares_The_Story_Of_Calling_Travis_Kelce_For_The_First_Time.mp4</name>
							<pathurl>file://localhost/Users/themalikano/Documents/VideoAutomation/premiere_videos/Taylor_Swift_Shares_The_Story_Of_Calling_Travis_Kelce_For_The_First_Time.mp4</pathurl>
							<rate>
								<timebase>30</timebase>
								<ntsc>TRUE</ntsc>
							</rate>
							<duration>27897</duration>
							<timecode>
								<rate>
									<timebase>30</timebase>
									<ntsc>TRUE</ntsc>
								</rate>
								<string>00:00:00:00</string>
								<frame>0</frame>
								<displayformat>NDF</displayformat>
							</timecode>
							<media>
								<video>
									<samplecharacteristics>
										<rate>
											<timebase>30</timebase>
											<ntsc>TRUE</ntsc>
										</rate>
										<width>1920</width>
										<height>1080</height>
										<anamorphic>FALSE</anamorphic>
										<pixelaspectratio>square</pixelaspectratio>
										<fielddominance>none</fielddominance>
									</samplecharacteristics>
								</video>
								<audio>
									<samplecharacteristics>
										<depth>16</depth>
										<samplerate>44100</samplerate>
									</samplecharacteristics>
									<channelcount>2</channelcount>
								</audio>
							</media>
						</file>
						<link>
							<linkclipref>clipitem-86</linkclipref>
							<mediatype>video</mediatype>
							<trackindex>1</trackindex>
							<clipindex>2</clipindex>
						</link>
						<link>
							<linkclipref>clipitem-94</linkclipref>
							<mediatype>audio</mediatype>
							<trackindex>1</trackindex>
							<clipindex>2</clipindex>
							<groupindex>1</groupindex>
						</link>
						<link>
							<linkclipref>clipitem-102</linkclipref>
							<mediatype>audio</mediatype>
							<trackindex>2</trackindex>
							<clipindex>2</clipindex>
							<groupindex>1</groupindex>
						</link>
						<logginginfo>
							<description />
							<scene />
							<shottake />
							<lognote />
							<good />
							<originalvideofilename />
							<originalaudiofilename />
						</logginginfo>
						<colorinfo>
							<lut />
							<lut1 />
							<asc_sop />
							<asc_sat />
							<lut2 />
						</colorinfo>
					<labels><label2>Iris</label2></labels></clipitem>
					<clipitem id="clipitem-88">
						<masterclipid>clipitem-4-139</masterclipid>
						<name>Travis_Kelce_ANNOUNCE_WEDDING_DATE_with_Taylor_Swift_Why_He_was_Delaying_all_Along.mp4</name>
						<enabled>TRUE</enabled>
						<duration>150</duration>
						<rate>
							<timebase>25</timebase>
							<ntsc>FALSE</ntsc>
						</rate>
						<start>47550</start>
						<end>47700</end>
						<in>20700</in>
						<out>20850</out>
						<pproTicksIn>0</pproTicksIn>
						<pproTicksOut>419410897920000</pproTicksOut>
						<alphatype>none</alphatype>
						<pixelaspectratio>square</pixelaspectratio>
						<anamorphic>FALSE</anamorphic>
						<file id="file-32">
							<name>Travis_Kelce_ANNOUNCE_WEDDING_DATE_with_Taylor_Swift_Why_He_was_Delaying_all_Along.mp4</name>
							<pathurl>file://localhost/Users/themalikano/Documents/VideoAutomation/premiere_videos/Travis_Kelce_ANNOUNCE_WEDDING_DATE_with_Taylor_Swift_Why_He_was_Delaying_all_Along.mp4</pathurl>
							<rate>
								<timebase>24</timebase>
								<ntsc>FALSE</ntsc>
							</rate>
							<duration>39627</duration>
							<timecode>
								<rate>
									<timebase>24</timebase>
									<ntsc>FALSE</ntsc>
								</rate>
								<string>00:00:00:00</string>
								<frame>0</frame>
								<displayformat>NDF</displayformat>
							</timecode>
							<media>
								<video>
									<samplecharacteristics>
										<rate>
											<timebase>24</timebase>
											<ntsc>FALSE</ntsc>
										</rate>
										<width>852</width>
										<height>480</height>
										<anamorphic>FALSE</anamorphic>
										<pixelaspectratio>square</pixelaspectratio>
										<fielddominance>none</fielddominance>
									</samplecharacteristics>
								</video>
								<audio>
									<samplecharacteristics>
										<depth>16</depth>
										<samplerate>44100</samplerate>
									</samplecharacteristics>
									<channelcount>2</channelcount>
								</audio>
							</media>
						</file>
						<filter>
							<effect>
								<name>Basic Motion</name>
								<effectid>basic</effectid>
								<effectcategory>motion</effectcategory>
								<effecttype>motion</effecttype>
								<mediatype>video</mediatype>
								<pproBypass>false</pproBypass>
								<parameter authoringApp="PremierePro">
									<parameterid>scale</parameterid>
									<name>Scale</name>
									<valuemin>0</valuemin>
									<valuemax>1000</valuemax>
									<value>225</value>
								</parameter>
								<parameter authoringApp="PremierePro">
									<parameterid>rotation</parameterid>
									<name>Rotation</name>
									<valuemin>-8640</valuemin>
									<valuemax>8640</valuemax>
									<value>0</value>
								</parameter>
								<parameter authoringApp="PremierePro">
									<parameterid>center</parameterid>
									<name>Center</name>
									<value>
										<horiz>0</horiz>
										<vert>0</vert>
									</value>
								</parameter>
								<parameter authoringApp="PremierePro">
									<parameterid>centerOffset</parameterid>
									<name>Anchor Point</name>
									<value>
										<horiz>0</horiz>
										<vert>0</vert>
									</value>
								</parameter>
								<parameter authoringApp="PremierePro">
									<parameterid>antiflicker</parameterid>
									<name>Anti-flicker Filter</name>
									<valuemin>0.0</valuemin>
									<valuemax>1.0</valuemax>
									<value>0</value>
								</parameter>
							</effect>
						</filter>
						<link>
							<linkclipref>clipitem-88</linkclipref>
							<mediatype>video</mediatype>
							<trackindex>1</trackindex>
							<clipindex>4</clipindex>
						</link>
						<link>
							<linkclipref>clipitem-96</linkclipref>
							<mediatype>audio</mediatype>
							<trackindex>1</trackindex>
							<clipindex>4</clipindex>
							<groupindex>1</groupindex>
						</link>
						<link>
							<linkclipref>clipitem-104</linkclipref>
							<mediatype>audio</mediatype>
							<trackindex>2</trackindex>
							<clipindex>4</clipindex>
							<groupindex>1</groupindex>
						</link>
						<logginginfo>
							<description />
							<scene />
							<shottake />
							<lognote />
							<good />
							<originalvideofilename />
							<originalaudiofilename />
						</logginginfo>
						<colorinfo>
							<lut />
							<lut1 />
							<asc_sop />
							<asc_sat />
							<lut2 />
						</colorinfo>
					<labels><label2>Lavender</label2></labels></clipitem>
					<clipitem id="clipitem-87">
						<masterclipid>clipitem-3-531</masterclipid>
						<name>Taylor_Swift_Travis_Kelce_-_The_New_Power_Couple.mp4</name>
						<enabled>TRUE</enabled>
						<duration>150</duration>
						<rate>
							<timebase>25</timebase>
							<ntsc>FALSE</ntsc>
						</rate>
						<start>47700</start>
						<end>47850</end>
						<in>79500</in>
						<out>79650</out>
						<pproTicksIn>0</pproTicksIn>
						<pproTicksOut>875013995520000</pproTicksOut>
						<alphatype>none</alphatype>
						<pixelaspectratio>square</pixelaspectratio>
						<anamorphic>FALSE</anamorphic>
						<file id="file-31">
							<name>Taylor_Swift_Travis_Kelce_-_The_New_Power_Couple.mp4</name>
							<pathurl>file://localhost/Users/themalikano/Documents/VideoAutomation/premiere_videos/Taylor_Swift_Travis_Kelce_-_The_New_Power_Couple.mp4</pathurl>
							<rate>
								<timebase>25</timebase>
								<ntsc>FALSE</ntsc>
							</rate>
							<duration>86118</duration>
							<timecode>
								<rate>
									<timebase>25</timebase>
									<ntsc>FALSE</ntsc>
								</rate>
								<string>00:00:00:00</string>
								<frame>0</frame>
								<displayformat>NDF</displayformat>
							</timecode>
							<media>
								<video>
									<samplecharacteristics>
										<rate>
											<timebase>25</timebase>
											<ntsc>FALSE</ntsc>
										</rate>
										<width>1920</width>
										<height>1080</height>
										<anamorphic>FALSE</anamorphic>
										<pixelaspectratio>square</pixelaspectratio>
										<fielddominance>none</fielddominance>
									</samplecharacteristics>
								</video>
								<audio>
									<samplecharacteristics>
										<depth>16</depth>
										<samplerate>44100</samplerate>
									</samplecharacteristics>
									<channelcount>2</channelcount>
								</audio>
							</media>
						</file>
						<link>
							<linkclipref>clipitem-87</linkclipref>
							<mediatype>video</mediatype>
							<trackindex>1</trackindex>
							<clipindex>3</clipindex>
						</link>
						<link>
							<linkclipref>clipitem-95</linkclipref>
							<mediatype>audio</mediatype>
							<trackindex>1</trackindex>
							<clipindex>3</clipindex>
							<groupindex>1</groupindex>
						</link>
						<link>
							<linkclipref>clipitem-103</linkclipref>
							<mediatype>audio</mediatype>
							<trackindex>2</trackindex>
							<clipindex>3</clipindex>
							<groupindex>1</groupindex>
						</link>
						<logginginfo>
							<description />
							<scene />
							<shottake />
							<lognote />
							<good />
							<originalvideofilename />
							<originalaudiofilename />
						</logginginfo>
						<colorinfo>
							<lut />
							<lut1 />
							<asc_sop />
							<asc_sat />
							<lut2 />
						</colorinfo>
					<labels><label2>Caribbean</label2></labels></clipitem>
					<clipitem id="clipitem-88">
						<masterclipid>clipitem-4-210</masterclipid>
						<name>Travis_Kelce_ANNOUNCE_WEDDING_DATE_with_Taylor_Swift_Why_He_was_Delaying_all_Along.mp4</name>
						<enabled>TRUE</enabled>
						<duration>150</duration>
						<rate>
							<timebase>25</timebase>
							<ntsc>FALSE</ntsc>
						</rate>
						<start>47850</start>
						<end>48000</end>
						<in>31350</in>
						<out>31500</out>
						<pproTicksIn>0</pproTicksIn>
						<pproTicksOut>419410897920000</pproTicksOut>
						<alphatype>none</alphatype>
						<pixelaspectratio>square</pixelaspectratio>
						<anamorphic>FALSE</anamorphic>
						<file id="file-32">
							<name>Travis_Kelce_ANNOUNCE_WEDDING_DATE_with_Taylor_Swift_Why_He_was_Delaying_all_Along.mp4</name>
							<pathurl>file://localhost/Users/themalikano/Documents/VideoAutomation/premiere_videos/Travis_Kelce_ANNOUNCE_WEDDING_DATE_with_Taylor_Swift_Why_He_was_Delaying_all_Along.mp4</pathurl>
							<rate>
								<timebase>24</timebase>
								<ntsc>FALSE</ntsc>
							</rate>
							<duration>39627</duration>
							<timecode>
								<rate>
									<timebase>24</timebase>
									<ntsc>FALSE</ntsc>
								</rate>
								<string>00:00:00:00</string>
								<frame>0</frame>
								<displayformat>NDF</displayformat>
							</timecode>
							<media>
								<video>
									<samplecharacteristics>
										<rate>
											<timebase>24</timebase>
											<ntsc>FALSE</ntsc>
										</rate>
										<width>852</width>
										<height>480</height>
										<anamorphic>FALSE</anamorphic>
										<pixelaspectratio>square</pixelaspectratio>
										<fielddominance>none</fielddominance>
									</samplecharacteristics>
								</video>
								<audio>
									<samplecharacteristics>
										<depth>16</depth>
										<samplerate>44100</samplerate>
									</samplecharacteristics>
									<channelcount>2</channelcount>
								</audio>
							</media>
						</file>
						<filter>
							<effect>
								<name>Basic Motion</name>
								<effectid>basic</effectid>
								<effectcategory>motion</effectcategory>
								<effecttype>motion</effecttype>
								<mediatype>video</mediatype>
								<pproBypass>false</pproBypass>
								<parameter authoringApp="PremierePro">
									<parameterid>scale</parameterid>
									<name>Scale</name>
									<valuemin>0</valuemin>
									<valuemax>1000</valuemax>
									<value>225</value>
								</parameter>
								<parameter authoringApp="PremierePro">
									<parameterid>rotation</parameterid>
									<name>Rotation</name>
									<valuemin>-8640</valuemin>
									<valuemax>8640</valuemax>
									<value>0</value>
								</parameter>
								<parameter authoringApp="PremierePro">
									<parameterid>center</parameterid>
									<name>Center</name>
									<value>
										<horiz>0</horiz>
										<vert>0</vert>
									</value>
								</parameter>
								<parameter authoringApp="PremierePro">
									<parameterid>centerOffset</parameterid>
									<name>Anchor Point</name>
									<value>
										<horiz>0</horiz>
										<vert>0</vert>
									</value>
								</parameter>
								<parameter authoringApp="PremierePro">
									<parameterid>antiflicker</parameterid>
									<name>Anti-flicker Filter</name>
									<valuemin>0.0</valuemin>
									<valuemax>1.0</valuemax>
									<value>0</value>
								</parameter>
							</effect>
						</filter>
						<link>
							<linkclipref>clipitem-88</linkclipref>
							<mediatype>video</mediatype>
							<trackindex>1</trackindex>
							<clipindex>4</clipindex>
						</link>
						<link>
							<linkclipref>clipitem-96</linkclipref>
							<mediatype>audio</mediatype>
							<trackindex>1</trackindex>
							<clipindex>4</clipindex>
							<groupindex>1</groupindex>
						</link>
						<link>
							<linkclipref>clipitem-104</linkclipref>
							<mediatype>audio</mediatype>
							<trackindex>2</trackindex>
							<clipindex>4</clipindex>
							<groupindex>1</groupindex>
						</link>
						<logginginfo>
							<description />
							<scene />
							<shottake />
							<lognote />
							<good />
							<originalvideofilename />
							<originalaudiofilename />
						</logginginfo>
						<colorinfo>
							<lut />
							<lut1 />
							<asc_sop />
							<asc_sat />
							<lut2 />
						</colorinfo>
					<labels><label2>Lavender</label2></labels></clipitem>
					<clipitem id="clipitem-90">
						<masterclipid>clipitem-6-10</masterclipid>
						<name>Travis_Kelce_talks_about_postponing_his_wedding_to_Fiance_Taylor_Swift_on_the_New_Heights_Podcast.mp4</name>
						<enabled>TRUE</enabled>
						<duration>150</duration>
						<rate>
							<timebase>25</timebase>
							<ntsc>FALSE</ntsc>
						</rate>
						<start>48000</start>
						<end>48150</end>
						<in>1350</in>
						<out>1500</out>
						<pproTicksIn>0</pproTicksIn>
						<pproTicksOut>149391889920000</pproTicksOut>
						<alphatype>none</alphatype>
						<pixelaspectratio>square</pixelaspectratio>
						<anamorphic>FALSE</anamorphic>
						<file id="file-34">
							<name>Travis_Kelce_talks_about_postponing_his_wedding_to_Fiance_Taylor_Swift_on_the_New_Heights_Podcast.mp4</name>
							<pathurl>file://localhost/Users/themalikano/Documents/VideoAutomation/premiere_videos/Travis_Kelce_talks_about_postponing_his_wedding_to_Fiance_Taylor_Swift_on_the_New_Heights_Podcast.mp4</pathurl>
							<rate>
								<timebase>30</timebase>
								<ntsc>FALSE</ntsc>
							</rate>
							<duration>17644</duration>
							<timecode>
								<rate>
									<timebase>30</timebase>
									<ntsc>FALSE</ntsc>
								</rate>
								<string>00:00:00:00</string>
								<frame>0</frame>
								<displayformat>NDF</displayformat>
							</timecode>
							<media>
								<video>
									<samplecharacteristics>
										<rate>
											<timebase>30</timebase>
											<ntsc>FALSE</ntsc>
										</rate>
										<width>1920</width>
										<height>1080</height>
										<anamorphic>FALSE</anamorphic>
										<pixelaspectratio>square</pixelaspectratio>
										<fielddominance>none</fielddominance>
									</samplecharacteristics>
								</video>
								<audio>
									<samplecharacteristics>
										<depth>16</depth>
										<samplerate>44100</samplerate>
									</samplecharacteristics>
									<channelcount>2</channelcount>
								</audio>
							</media>
						</file>
						<link>
							<linkclipref>clipitem-90</linkclipref>
							<mediatype>video</mediatype>
							<trackindex>1</trackindex>
							<clipindex>6</clipindex>
						</link>
						<link>
							<linkclipref>clipitem-98</linkclipref>
							<mediatype>audio</mediatype>
							<trackindex>1</trackindex>
							<clipindex>6</clipindex>
							<groupindex>1</groupindex>
						</link>
						<link>
							<linkclipref>clipitem-106</linkclipref>
							<mediatype>audio</mediatype>
							<trackindex>2</trackindex>
							<clipindex>6</clipindex>
							<groupindex>1</groupindex>
						</link>
						<logginginfo>
							<description />
							<scene />
							<shottake />
							<lognote />
							<good />
							<originalvideofilename />
							<originalaudiofilename />
						</logginginfo>
						<colorinfo>
							<lut />
							<lut1 />
							<asc_sop />
							<asc_sat />
							<lut2 />
						</colorinfo>
					<labels><label2>Forest</label2></labels></clipitem>
					<clipitem id="clipitem-87">
						<masterclipid>clipitem-3-418</masterclipid>
						<name>Taylor_Swift_Travis_Kelce_-_The_New_Power_Couple.mp4</name>
						<enabled>TRUE</enabled>
						<duration>150</duration>
						<rate>
							<timebase>25</timebase>
							<ntsc>FALSE</ntsc>
						</rate>
						<start>48150</start>
						<end>48300</end>
						<in>62550</in>
						<out>62700</out>
						<pproTicksIn>0</pproTicksIn>
						<pproTicksOut>875013995520000</pproTicksOut>
						<alphatype>none</alphatype>
						<pixelaspectratio>square</pixelaspectratio>
						<anamorphic>FALSE</anamorphic>
						<file id="file-31">
							<name>Taylor_Swift_Travis_Kelce_-_The_New_Power_Couple.mp4</name>
							<pathurl>file://localhost/Users/themalikano/Documents/VideoAutomation/premiere_videos/Taylor_Swift_Travis_Kelce_-_The_New_Power_Couple.mp4</pathurl>
							<rate>
								<timebase>25</timebase>
								<ntsc>FALSE</ntsc>
							</rate>
							<duration>86118</duration>
							<timecode>
								<rate>
									<timebase>25</timebase>
									<ntsc>FALSE</ntsc>
								</rate>
								<string>00:00:00:00</string>
								<frame>0</frame>
								<displayformat>NDF</displayformat>
							</timecode>
							<media>
								<video>
									<samplecharacteristics>
										<rate>
											<timebase>25</timebase>
											<ntsc>FALSE</ntsc>
										</rate>
										<width>1920</width>
										<height>1080</height>
										<anamorphic>FALSE</anamorphic>
										<pixelaspectratio>square</pixelaspectratio>
										<fielddominance>none</fielddominance>
									</samplecharacteristics>
								</video>
								<audio>
									<samplecharacteristics>
										<depth>16</depth>
										<samplerate>44100</samplerate>
									</samplecharacteristics>
									<channelcount>2</channelcount>
								</audio>
							</media>
						</file>
						<link>
							<linkclipref>clipitem-87</linkclipref>
							<mediatype>video</mediatype>
							<trackindex>1</trackindex>
							<clipindex>3</clipindex>
						</link>
						<link>
							<linkclipref>clipitem-95</linkclipref>
							<mediatype>audio</mediatype>
							<trackindex>1</trackindex>
							<clipindex>3</clipindex>
							<groupindex>1</groupindex>
						</link>
						<link>
							<linkclipref>clipitem-103</linkclipref>
							<mediatype>audio</mediatype>
							<trackindex>2</trackindex>
							<clipindex>3</clipindex>
							<groupindex>1</groupindex>
						</link>
						<logginginfo>
							<description />
							<scene />
							<shottake />
							<lognote />
							<good />
							<originalvideofilename />
							<originalaudiofilename />
						</logginginfo>
						<colorinfo>
							<lut />
							<lut1 />
							<asc_sop />
							<asc_sat />
							<lut2 />
						</colorinfo>
					<labels><label2>Caribbean</label2></labels></clipitem>
					<clipitem id="clipitem-86">
						<masterclipid>clipitem-2-76</masterclipid>
						<name>Taylor_Swift_Shares_The_Story_Of_Calling_Travis_Kelce_For_The_First_Time.mp4</name>
						<enabled>TRUE</enabled>
						<duration>150</duration>
						<rate>
							<timebase>25</timebase>
							<ntsc>FALSE</ntsc>
						</rate>
						<start>48300</start>
						<end>48450</end>
						<in>11250</in>
						<out>11400</out>
						<pproTicksIn>0</pproTicksIn>
						<pproTicksOut>236438092800000</pproTicksOut>
						<alphatype>none</alphatype>
						<pixelaspectratio>square</pixelaspectratio>
						<anamorphic>FALSE</anamorphic>
						<file id="file-30">
							<name>Taylor_Swift_Shares_The_Story_Of_Calling_Travis_Kelce_For_The_First_Time.mp4</name>
							<pathurl>file://localhost/Users/themalikano/Documents/VideoAutomation/premiere_videos/Taylor_Swift_Shares_The_Story_Of_Calling_Travis_Kelce_For_The_First_Time.mp4</pathurl>
							<rate>
								<timebase>30</timebase>
								<ntsc>TRUE</ntsc>
							</rate>
							<duration>27897</duration>
							<timecode>
								<rate>
									<timebase>30</timebase>
									<ntsc>TRUE</ntsc>
								</rate>
								<string>00:00:00:00</string>
								<frame>0</frame>
								<displayformat>NDF</displayformat>
							</timecode>
							<media>
								<video>
									<samplecharacteristics>
										<rate>
											<timebase>30</timebase>
											<ntsc>TRUE</ntsc>
										</rate>
										<width>1920</width>
										<height>1080</height>
										<anamorphic>FALSE</anamorphic>
										<pixelaspectratio>square</pixelaspectratio>
										<fielddominance>none</fielddominance>
									</samplecharacteristics>
								</video>
								<audio>
									<samplecharacteristics>
										<depth>16</depth>
										<samplerate>44100</samplerate>
									</samplecharacteristics>
									<channelcount>2</channelcount>
								</audio>
							</media>
						</file>
						<link>
							<linkclipref>clipitem-86</linkclipref>
							<mediatype>video</mediatype>
							<trackindex>1</trackindex>
							<clipindex>2</clipindex>
						</link>
						<link>
							<linkclipref>clipitem-94</linkclipref>
							<mediatype>audio</mediatype>
							<trackindex>1</trackindex>
							<clipindex>2</clipindex>
							<groupindex>1</groupindex>
						</link>
						<link>
							<linkclipref>clipitem-102</linkclipref>
							<mediatype>audio</mediatype>
							<trackindex>2</trackindex>
							<clipindex>2</clipindex>
							<groupindex>1</groupindex>
						</link>
						<logginginfo>
							<description />
							<scene />
							<shottake />
							<lognote />
							<good />
							<originalvideofilename />
							<originalaudiofilename />
						</logginginfo>
						<colorinfo>
							<lut />
							<lut1 />
							<asc_sop />
							<asc_sat />
							<lut2 />
						</colorinfo>
					<labels><label2>Iris</label2></labels></clipitem>
					<clipitem id="clipitem-90">
						<masterclipid>clipitem-6-14</masterclipid>
						<name>Travis_Kelce_talks_about_postponing_his_wedding_to_Fiance_Taylor_Swift_on_the_New_Heights_Podcast.mp4</name>
						<enabled>TRUE</enabled>
						<duration>150</duration>
						<rate>
							<timebase>25</timebase>
							<ntsc>FALSE</ntsc>
						</rate>
						<start>48450</start>
						<end>48600</end>
						<in>1950</in>
						<out>2100</out>
						<pproTicksIn>0</pproTicksIn>
						<pproTicksOut>149391889920000</pproTicksOut>
						<alphatype>none</alphatype>
						<pixelaspectratio>square</pixelaspectratio>
						<anamorphic>FALSE</anamorphic>
						<file id="file-34">
							<name>Travis_Kelce_talks_about_postponing_his_wedding_to_Fiance_Taylor_Swift_on_the_New_Heights_Podcast.mp4</name>
							<pathurl>file://localhost/Users/themalikano/Documents/VideoAutomation/premiere_videos/Travis_Kelce_talks_about_postponing_his_wedding_to_Fiance_Taylor_Swift_on_the_New_Heights_Podcast.mp4</pathurl>
							<rate>
								<timebase>30</timebase>
								<ntsc>FALSE</ntsc>
							</rate>
							<duration>17644</duration>
							<timecode>
								<rate>
									<timebase>30</timebase>
									<ntsc>FALSE</ntsc>
								</rate>
								<string>00:00:00:00</string>
								<frame>0</frame>
								<displayformat>NDF</displayformat>
							</timecode>
							<media>
								<video>
									<samplecharacteristics>
										<rate>
											<timebase>30</timebase>
											<ntsc>FALSE</ntsc>
										</rate>
										<width>1920</width>
										<height>1080</height>
										<anamorphic>FALSE</anamorphic>
										<pixelaspectratio>square</pixelaspectratio>
										<fielddominance>none</fielddominance>
									</samplecharacteristics>
								</video>
								<audio>
									<samplecharacteristics>
										<depth>16</depth>
										<samplerate>44100</samplerate>
									</samplecharacteristics>
									<channelcount>2</channelcount>
								</audio>
							</media>
						</file>
						<link>
							<linkclipref>clipitem-90</linkclipref>
							<mediatype>video</mediatype>
							<trackindex>1</trackindex>
							<clipindex>6</clipindex>
						</link>
						<link>
							<linkclipref>clipitem-98</linkclipref>
							<mediatype>audio</mediatype>
							<trackindex>1</trackindex>
							<clipindex>6</clipindex>
							<groupindex>1</groupindex>
						</link>
						<link>
							<linkclipref>clipitem-106</linkclipref>
							<mediatype>audio</mediatype>
							<trackindex>2</trackindex>
							<clipindex>6</clipindex>
							<groupindex>1</groupindex>
						</link>
						<logginginfo>
							<description />
							<scene />
							<shottake />
							<lognote />
							<good />
							<originalvideofilename />
							<originalaudiofilename />
						</logginginfo>
						<colorinfo>
							<lut />
							<lut1 />
							<asc_sop />
							<asc_sat />
							<lut2 />
						</colorinfo>
					<labels><label2>Forest</label2></labels></clipitem>
					<clipitem id="clipitem-86">
						<masterclipid>clipitem-2-14</masterclipid>
						<name>Taylor_Swift_Shares_The_Story_Of_Calling_Travis_Kelce_For_The_First_Time.mp4</name>
						<enabled>TRUE</enabled>
						<duration>150</duration>
						<rate>
							<timebase>25</timebase>
							<ntsc>FALSE</ntsc>
						</rate>
						<start>48600</start>
						<end>48750</end>
						<in>1950</in>
						<out>2100</out>
						<pproTicksIn>0</pproTicksIn>
						<pproTicksOut>236438092800000</pproTicksOut>
						<alphatype>none</alphatype>
						<pixelaspectratio>square</pixelaspectratio>
						<anamorphic>FALSE</anamorphic>
						<file id="file-30">
							<name>Taylor_Swift_Shares_The_Story_Of_Calling_Travis_Kelce_For_The_First_Time.mp4</name>
							<pathurl>file://localhost/Users/themalikano/Documents/VideoAutomation/premiere_videos/Taylor_Swift_Shares_The_Story_Of_Calling_Travis_Kelce_For_The_First_Time.mp4</pathurl>
							<rate>
								<timebase>30</timebase>
								<ntsc>TRUE</ntsc>
							</rate>
							<duration>27897</duration>
							<timecode>
								<rate>
									<timebase>30</timebase>
									<ntsc>TRUE</ntsc>
								</rate>
								<string>00:00:00:00</string>
								<frame>0</frame>
								<displayformat>NDF</displayformat>
							</timecode>
							<media>
								<video>
									<samplecharacteristics>
										<rate>
											<timebase>30</timebase>
											<ntsc>TRUE</ntsc>
										</rate>
										<width>1920</width>
										<height>1080</height>
										<anamorphic>FALSE</anamorphic>
										<pixelaspectratio>square</pixelaspectratio>
										<fielddominance>none</fielddominance>
									</samplecharacteristics>
								</video>
								<audio>
									<samplecharacteristics>
										<depth>16</depth>
										<samplerate>44100</samplerate>
									</samplecharacteristics>
									<channelcount>2</channelcount>
								</audio>
							</media>
						</file>
						<link>
							<linkclipref>clipitem-86</linkclipref>
							<mediatype>video</mediatype>
							<trackindex>1</trackindex>
							<clipindex>2</clipindex>
						</link>
						<link>
							<linkclipref>clipitem-94</linkclipref>
							<mediatype>audio</mediatype>
							<trackindex>1</trackindex>
							<clipindex>2</clipindex>
							<groupindex>1</groupindex>
						</link>
						<link>
							<linkclipref>clipitem-102</linkclipref>
							<mediatype>audio</mediatype>
							<trackindex>2</trackindex>
							<clipindex>2</clipindex>
							<groupindex>1</groupindex>
						</link>
						<logginginfo>
							<description />
							<scene />
							<shottake />
							<lognote />
							<good />
							<originalvideofilename />
							<originalaudiofilename />
						</logginginfo>
						<colorinfo>
							<lut />
							<lut1 />
							<asc_sop />
							<asc_sat />
							<lut2 />
						</colorinfo>
					<labels><label2>Iris</label2></labels></clipitem>
					<clipitem id="clipitem-87">
						<masterclipid>clipitem-3-481</masterclipid>
						<name>Taylor_Swift_Travis_Kelce_-_The_New_Power_Couple.mp4</name>
						<enabled>TRUE</enabled>
						<duration>150</duration>
						<rate>
							<timebase>25</timebase>
							<ntsc>FALSE</ntsc>
						</rate>
						<start>48750</start>
						<end>48900</end>
						<in>72000</in>
						<out>72150</out>
						<pproTicksIn>0</pproTicksIn>
						<pproTicksOut>875013995520000</pproTicksOut>
						<alphatype>none</alphatype>
						<pixelaspectratio>square</pixelaspectratio>
						<anamorphic>FALSE</anamorphic>
						<file id="file-31">
							<name>Taylor_Swift_Travis_Kelce_-_The_New_Power_Couple.mp4</name>
							<pathurl>file://localhost/Users/themalikano/Documents/VideoAutomation/premiere_videos/Taylor_Swift_Travis_Kelce_-_The_New_Power_Couple.mp4</pathurl>
							<rate>
								<timebase>25</timebase>
								<ntsc>FALSE</ntsc>
							</rate>
							<duration>86118</duration>
							<timecode>
								<rate>
									<timebase>25</timebase>
									<ntsc>FALSE</ntsc>
								</rate>
								<string>00:00:00:00</string>
								<frame>0</frame>
								<displayformat>NDF</displayformat>
							</timecode>
							<media>
								<video>
									<samplecharacteristics>
										<rate>
											<timebase>25</timebase>
											<ntsc>FALSE</ntsc>
										</rate>
										<width>1920</width>
										<height>1080</height>
										<anamorphic>FALSE</anamorphic>
										<pixelaspectratio>square</pixelaspectratio>
										<fielddominance>none</fielddominance>
									</samplecharacteristics>
								</video>
								<audio>
									<samplecharacteristics>
										<depth>16</depth>
										<samplerate>44100</samplerate>
									</samplecharacteristics>
									<channelcount>2</channelcount>
								</audio>
							</media>
						</file>
						<link>
							<linkclipref>clipitem-87</linkclipref>
							<mediatype>video</mediatype>
							<trackindex>1</trackindex>
							<clipindex>3</clipindex>
						</link>
						<link>
							<linkclipref>clipitem-95</linkclipref>
							<mediatype>audio</mediatype>
							<trackindex>1</trackindex>
							<clipindex>3</clipindex>
							<groupindex>1</groupindex>
						</link>
						<link>
							<linkclipref>clipitem-103</linkclipref>
							<mediatype>audio</mediatype>
							<trackindex>2</trackindex>
							<clipindex>3</clipindex>
							<groupindex>1</groupindex>
						</link>
						<logginginfo>
							<description />
							<scene />
							<shottake />
							<lognote />
							<good />
							<originalvideofilename />
							<originalaudiofilename />
						</logginginfo>
						<colorinfo>
							<lut />
							<lut1 />
							<asc_sop />
							<asc_sat />
							<lut2 />
						</colorinfo>
					<labels><label2>Caribbean</label2></labels></clipitem>
					<clipitem id="clipitem-88">
						<masterclipid>clipitem-4-9</masterclipid>
						<name>Travis_Kelce_ANNOUNCE_WEDDING_DATE_with_Taylor_Swift_Why_He_was_Delaying_all_Along.mp4</name>
						<enabled>TRUE</enabled>
						<duration>150</duration>
						<rate>
							<timebase>25</timebase>
							<ntsc>FALSE</ntsc>
						</rate>
						<start>48900</start>
						<end>49050</end>
						<in>1200</in>
						<out>1350</out>
						<pproTicksIn>0</pproTicksIn>
						<pproTicksOut>419410897920000</pproTicksOut>
						<alphatype>none</alphatype>
						<pixelaspectratio>square</pixelaspectratio>
						<anamorphic>FALSE</anamorphic>
						<file id="file-32">
							<name>Travis_Kelce_ANNOUNCE_WEDDING_DATE_with_Taylor_Swift_Why_He_was_Delaying_all_Along.mp4</name>
							<pathurl>file://localhost/Users/themalikano/Documents/VideoAutomation/premiere_videos/Travis_Kelce_ANNOUNCE_WEDDING_DATE_with_Taylor_Swift_Why_He_was_Delaying_all_Along.mp4</pathurl>
							<rate>
								<timebase>24</timebase>
								<ntsc>FALSE</ntsc>
							</rate>
							<duration>39627</duration>
							<timecode>
								<rate>
									<timebase>24</timebase>
									<ntsc>FALSE</ntsc>
								</rate>
								<string>00:00:00:00</string>
								<frame>0</frame>
								<displayformat>NDF</displayformat>
							</timecode>
							<media>
								<video>
									<samplecharacteristics>
										<rate>
											<timebase>24</timebase>
											<ntsc>FALSE</ntsc>
										</rate>
										<width>852</width>
										<height>480</height>
										<anamorphic>FALSE</anamorphic>
										<pixelaspectratio>square</pixelaspectratio>
										<fielddominance>none</fielddominance>
									</samplecharacteristics>
								</video>
								<audio>
									<samplecharacteristics>
										<depth>16</depth>
										<samplerate>44100</samplerate>
									</samplecharacteristics>
									<channelcount>2</channelcount>
								</audio>
							</media>
						</file>
						<filter>
							<effect>
								<name>Basic Motion</name>
								<effectid>basic</effectid>
								<effectcategory>motion</effectcategory>
								<effecttype>motion</effecttype>
								<mediatype>video</mediatype>
								<pproBypass>false</pproBypass>
								<parameter authoringApp="PremierePro">
									<parameterid>scale</parameterid>
									<name>Scale</name>
									<valuemin>0</valuemin>
									<valuemax>1000</valuemax>
									<value>225</value>
								</parameter>
								<parameter authoringApp="PremierePro">
									<parameterid>rotation</parameterid>
									<name>Rotation</name>
									<valuemin>-8640</valuemin>
									<valuemax>8640</valuemax>
									<value>0</value>
								</parameter>
								<parameter authoringApp="PremierePro">
									<parameterid>center</parameterid>
									<name>Center</name>
									<value>
										<horiz>0</horiz>
										<vert>0</vert>
									</value>
								</parameter>
								<parameter authoringApp="PremierePro">
									<parameterid>centerOffset</parameterid>
									<name>Anchor Point</name>
									<value>
										<horiz>0</horiz>
										<vert>0</vert>
									</value>
								</parameter>
								<parameter authoringApp="PremierePro">
									<parameterid>antiflicker</parameterid>
									<name>Anti-flicker Filter</name>
									<valuemin>0.0</valuemin>
									<valuemax>1.0</valuemax>
									<value>0</value>
								</parameter>
							</effect>
						</filter>
						<link>
							<linkclipref>clipitem-88</linkclipref>
							<mediatype>video</mediatype>
							<trackindex>1</trackindex>
							<clipindex>4</clipindex>
						</link>
						<link>
							<linkclipref>clipitem-96</linkclipref>
							<mediatype>audio</mediatype>
							<trackindex>1</trackindex>
							<clipindex>4</clipindex>
							<groupindex>1</groupindex>
						</link>
						<link>
							<linkclipref>clipitem-104</linkclipref>
							<mediatype>audio</mediatype>
							<trackindex>2</trackindex>
							<clipindex>4</clipindex>
							<groupindex>1</groupindex>
						</link>
						<logginginfo>
							<description />
							<scene />
							<shottake />
							<lognote />
							<good />
							<originalvideofilename />
							<originalaudiofilename />
						</logginginfo>
						<colorinfo>
							<lut />
							<lut1 />
							<asc_sop />
							<asc_sat />
							<lut2 />
						</colorinfo>
					<labels><label2>Lavender</label2></labels></clipitem>
					<clipitem id="clipitem-90">
						<masterclipid>clipitem-6-40</masterclipid>
						<name>Travis_Kelce_talks_about_postponing_his_wedding_to_Fiance_Taylor_Swift_on_the_New_Heights_Podcast.mp4</name>
						<enabled>TRUE</enabled>
						<duration>150</duration>
						<rate>
							<timebase>25</timebase>
							<ntsc>FALSE</ntsc>
						</rate>
						<start>49050</start>
						<end>49200</end>
						<in>5850</in>
						<out>6000</out>
						<pproTicksIn>0</pproTicksIn>
						<pproTicksOut>149391889920000</pproTicksOut>
						<alphatype>none</alphatype>
						<pixelaspectratio>square</pixelaspectratio>
						<anamorphic>FALSE</anamorphic>
						<file id="file-34">
							<name>Travis_Kelce_talks_about_postponing_his_wedding_to_Fiance_Taylor_Swift_on_the_New_Heights_Podcast.mp4</name>
							<pathurl>file://localhost/Users/themalikano/Documents/VideoAutomation/premiere_videos/Travis_Kelce_talks_about_postponing_his_wedding_to_Fiance_Taylor_Swift_on_the_New_Heights_Podcast.mp4</pathurl>
							<rate>
								<timebase>30</timebase>
								<ntsc>FALSE</ntsc>
							</rate>
							<duration>17644</duration>
							<timecode>
								<rate>
									<timebase>30</timebase>
									<ntsc>FALSE</ntsc>
								</rate>
								<string>00:00:00:00</string>
								<frame>0</frame>
								<displayformat>NDF</displayformat>
							</timecode>
							<media>
								<video>
									<samplecharacteristics>
										<rate>
											<timebase>30</timebase>
											<ntsc>FALSE</ntsc>
										</rate>
										<width>1920</width>
										<height>1080</height>
										<anamorphic>FALSE</anamorphic>
										<pixelaspectratio>square</pixelaspectratio>
										<fielddominance>none</fielddominance>
									</samplecharacteristics>
								</video>
								<audio>
									<samplecharacteristics>
										<depth>16</depth>
										<samplerate>44100</samplerate>
									</samplecharacteristics>
									<channelcount>2</channelcount>
								</audio>
							</media>
						</file>
						<link>
							<linkclipref>clipitem-90</linkclipref>
							<mediatype>video</mediatype>
							<trackindex>1</trackindex>
							<clipindex>6</clipindex>
						</link>
						<link>
							<linkclipref>clipitem-98</linkclipref>
							<mediatype>audio</mediatype>
							<trackindex>1</trackindex>
							<clipindex>6</clipindex>
							<groupindex>1</groupindex>
						</link>
						<link>
							<linkclipref>clipitem-106</linkclipref>
							<mediatype>audio</mediatype>
							<trackindex>2</trackindex>
							<clipindex>6</clipindex>
							<groupindex>1</groupindex>
						</link>
						<logginginfo>
							<description />
							<scene />
							<shottake />
							<lognote />
							<good />
							<originalvideofilename />
							<originalaudiofilename />
						</logginginfo>
						<colorinfo>
							<lut />
							<lut1 />
							<asc_sop />
							<asc_sat />
							<lut2 />
						</colorinfo>
					<labels><label2>Forest</label2></labels></clipitem>
					<clipitem id="clipitem-87">
						<masterclipid>clipitem-3-322</masterclipid>
						<name>Taylor_Swift_Travis_Kelce_-_The_New_Power_Couple.mp4</name>
						<enabled>TRUE</enabled>
						<duration>150</duration>
						<rate>
							<timebase>25</timebase>
							<ntsc>FALSE</ntsc>
						</rate>
						<start>49200</start>
						<end>49350</end>
						<in>48150</in>
						<out>48300</out>
						<pproTicksIn>0</pproTicksIn>
						<pproTicksOut>875013995520000</pproTicksOut>
						<alphatype>none</alphatype>
						<pixelaspectratio>square</pixelaspectratio>
						<anamorphic>FALSE</anamorphic>
						<file id="file-31">
							<name>Taylor_Swift_Travis_Kelce_-_The_New_Power_Couple.mp4</name>
							<pathurl>file://localhost/Users/themalikano/Documents/VideoAutomation/premiere_videos/Taylor_Swift_Travis_Kelce_-_The_New_Power_Couple.mp4</pathurl>
							<rate>
								<timebase>25</timebase>
								<ntsc>FALSE</ntsc>
							</rate>
							<duration>86118</duration>
							<timecode>
								<rate>
									<timebase>25</timebase>
									<ntsc>FALSE</ntsc>
								</rate>
								<string>00:00:00:00</string>
								<frame>0</frame>
								<displayformat>NDF</displayformat>
							</timecode>
							<media>
								<video>
									<samplecharacteristics>
										<rate>
											<timebase>25</timebase>
											<ntsc>FALSE</ntsc>
										</rate>
										<width>1920</width>
										<height>1080</height>
										<anamorphic>FALSE</anamorphic>
										<pixelaspectratio>square</pixelaspectratio>
										<fielddominance>none</fielddominance>
									</samplecharacteristics>
								</video>
								<audio>
									<samplecharacteristics>
										<depth>16</depth>
										<samplerate>44100</samplerate>
									</samplecharacteristics>
									<channelcount>2</channelcount>
								</audio>
							</media>
						</file>
						<link>
							<linkclipref>clipitem-87</linkclipref>
							<mediatype>video</mediatype>
							<trackindex>1</trackindex>
							<clipindex>3</clipindex>
						</link>
						<link>
							<linkclipref>clipitem-95</linkclipref>
							<mediatype>audio</mediatype>
							<trackindex>1</trackindex>
							<clipindex>3</clipindex>
							<groupindex>1</groupindex>
						</link>
						<link>
							<linkclipref>clipitem-103</linkclipref>
							<mediatype>audio</mediatype>
							<trackindex>2</trackindex>
							<clipindex>3</clipindex>
							<groupindex>1</groupindex>
						</link>
						<logginginfo>
							<description />
							<scene />
							<shottake />
							<lognote />
							<good />
							<originalvideofilename />
							<originalaudiofilename />
						</logginginfo>
						<colorinfo>
							<lut />
							<lut1 />
							<asc_sop />
							<asc_sat />
							<lut2 />
						</colorinfo>
					<labels><label2>Caribbean</label2></labels></clipitem>
					<clipitem id="clipitem-88">
						<masterclipid>clipitem-4-93</masterclipid>
						<name>Travis_Kelce_ANNOUNCE_WEDDING_DATE_with_Taylor_Swift_Why_He_was_Delaying_all_Along.mp4</name>
						<enabled>TRUE</enabled>
						<duration>150</duration>
						<rate>
							<timebase>25</timebase>
							<ntsc>FALSE</ntsc>
						</rate>
						<start>49350</start>
						<end>49500</end>
						<in>13800</in>
						<out>13950</out>
						<pproTicksIn>0</pproTicksIn>
						<pproTicksOut>419410897920000</pproTicksOut>
						<alphatype>none</alphatype>
						<pixelaspectratio>square</pixelaspectratio>
						<anamorphic>FALSE</anamorphic>
						<file id="file-32">
							<name>Travis_Kelce_ANNOUNCE_WEDDING_DATE_with_Taylor_Swift_Why_He_was_Delaying_all_Along.mp4</name>
							<pathurl>file://localhost/Users/themalikano/Documents/VideoAutomation/premiere_videos/Travis_Kelce_ANNOUNCE_WEDDING_DATE_with_Taylor_Swift_Why_He_was_Delaying_all_Along.mp4</pathurl>
							<rate>
								<timebase>24</timebase>
								<ntsc>FALSE</ntsc>
							</rate>
							<duration>39627</duration>
							<timecode>
								<rate>
									<timebase>24</timebase>
									<ntsc>FALSE</ntsc>
								</rate>
								<string>00:00:00:00</string>
								<frame>0</frame>
								<displayformat>NDF</displayformat>
							</timecode>
							<media>
								<video>
									<samplecharacteristics>
										<rate>
											<timebase>24</timebase>
											<ntsc>FALSE</ntsc>
										</rate>
										<width>852</width>
										<height>480</height>
										<anamorphic>FALSE</anamorphic>
										<pixelaspectratio>square</pixelaspectratio>
										<fielddominance>none</fielddominance>
									</samplecharacteristics>
								</video>
								<audio>
									<samplecharacteristics>
										<depth>16</depth>
										<samplerate>44100</samplerate>
									</samplecharacteristics>
									<channelcount>2</channelcount>
								</audio>
							</media>
						</file>
						<filter>
							<effect>
								<name>Basic Motion</name>
								<effectid>basic</effectid>
								<effectcategory>motion</effectcategory>
								<effecttype>motion</effecttype>
								<mediatype>video</mediatype>
								<pproBypass>false</pproBypass>
								<parameter authoringApp="PremierePro">
									<parameterid>scale</parameterid>
									<name>Scale</name>
									<valuemin>0</valuemin>
									<valuemax>1000</valuemax>
									<value>225</value>
								</parameter>
								<parameter authoringApp="PremierePro">
									<parameterid>rotation</parameterid>
									<name>Rotation</name>
									<valuemin>-8640</valuemin>
									<valuemax>8640</valuemax>
									<value>0</value>
								</parameter>
								<parameter authoringApp="PremierePro">
									<parameterid>center</parameterid>
									<name>Center</name>
									<value>
										<horiz>0</horiz>
										<vert>0</vert>
									</value>
								</parameter>
								<parameter authoringApp="PremierePro">
									<parameterid>centerOffset</parameterid>
									<name>Anchor Point</name>
									<value>
										<horiz>0</horiz>
										<vert>0</vert>
									</value>
								</parameter>
								<parameter authoringApp="PremierePro">
									<parameterid>antiflicker</parameterid>
									<name>Anti-flicker Filter</name>
									<valuemin>0.0</valuemin>
									<valuemax>1.0</valuemax>
									<value>0</value>
								</parameter>
							</effect>
						</filter>
						<link>
							<linkclipref>clipitem-88</linkclipref>
							<mediatype>video</mediatype>
							<trackindex>1</trackindex>
							<clipindex>4</clipindex>
						</link>
						<link>
							<linkclipref>clipitem-96</linkclipref>
							<mediatype>audio</mediatype>
							<trackindex>1</trackindex>
							<clipindex>4</clipindex>
							<groupindex>1</groupindex>
						</link>
						<link>
							<linkclipref>clipitem-104</linkclipref>
							<mediatype>audio</mediatype>
							<trackindex>2</trackindex>
							<clipindex>4</clipindex>
							<groupindex>1</groupindex>
						</link>
						<logginginfo>
							<description />
							<scene />
							<shottake />
							<lognote />
							<good />
							<originalvideofilename />
							<originalaudiofilename />
						</logginginfo>
						<colorinfo>
							<lut />
							<lut1 />
							<asc_sop />
							<asc_sat />
							<lut2 />
						</colorinfo>
					<labels><label2>Lavender</label2></labels></clipitem>
					<clipitem id="clipitem-90">
						<masterclipid>clipitem-6-89</masterclipid>
						<name>Travis_Kelce_talks_about_postponing_his_wedding_to_Fiance_Taylor_Swift_on_the_New_Heights_Podcast.mp4</name>
						<enabled>TRUE</enabled>
						<duration>150</duration>
						<rate>
							<timebase>25</timebase>
							<ntsc>FALSE</ntsc>
						</rate>
						<start>49500</start>
						<end>49650</end>
						<in>13200</in>
						<out>13350</out>
						<pproTicksIn>0</pproTicksIn>
						<pproTicksOut>149391889920000</pproTicksOut>
						<alphatype>none</alphatype>
						<pixelaspectratio>square</pixelaspectratio>
						<anamorphic>FALSE</anamorphic>
						<file id="file-34">
							<name>Travis_Kelce_talks_about_postponing_his_wedding_to_Fiance_Taylor_Swift_on_the_New_Heights_Podcast.mp4</name>
							<pathurl>file://localhost/Users/themalikano/Documents/VideoAutomation/premiere_videos/Travis_Kelce_talks_about_postponing_his_wedding_to_Fiance_Taylor_Swift_on_the_New_Heights_Podcast.mp4</pathurl>
							<rate>
								<timebase>30</timebase>
								<ntsc>FALSE</ntsc>
							</rate>
							<duration>17644</duration>
							<timecode>
								<rate>
									<timebase>30</timebase>
									<ntsc>FALSE</ntsc>
								</rate>
								<string>00:00:00:00</string>
								<frame>0</frame>
								<displayformat>NDF</displayformat>
							</timecode>
							<media>
								<video>
									<samplecharacteristics>
										<rate>
											<timebase>30</timebase>
											<ntsc>FALSE</ntsc>
										</rate>
										<width>1920</width>
										<height>1080</height>
										<anamorphic>FALSE</anamorphic>
										<pixelaspectratio>square</pixelaspectratio>
										<fielddominance>none</fielddominance>
									</samplecharacteristics>
								</video>
								<audio>
									<samplecharacteristics>
										<depth>16</depth>
										<samplerate>44100</samplerate>
									</samplecharacteristics>
									<channelcount>2</channelcount>
								</audio>
							</media>
						</file>
						<link>
							<linkclipref>clipitem-90</linkclipref>
							<mediatype>video</mediatype>
							<trackindex>1</trackindex>
							<clipindex>6</clipindex>
						</link>
						<link>
							<linkclipref>clipitem-98</linkclipref>
							<mediatype>audio</mediatype>
							<trackindex>1</trackindex>
							<clipindex>6</clipindex>
							<groupindex>1</groupindex>
						</link>
						<link>
							<linkclipref>clipitem-106</linkclipref>
							<mediatype>audio</mediatype>
							<trackindex>2</trackindex>
							<clipindex>6</clipindex>
							<groupindex>1</groupindex>
						</link>
						<logginginfo>
							<description />
							<scene />
							<shottake />
							<lognote />
							<good />
							<originalvideofilename />
							<originalaudiofilename />
						</logginginfo>
						<colorinfo>
							<lut />
							<lut1 />
							<asc_sop />
							<asc_sat />
							<lut2 />
						</colorinfo>
					<labels><label2>Forest</label2></labels></clipitem>
					<clipitem id="clipitem-88">
						<masterclipid>clipitem-4-29</masterclipid>
						<name>Travis_Kelce_ANNOUNCE_WEDDING_DATE_with_Taylor_Swift_Why_He_was_Delaying_all_Along.mp4</name>
						<enabled>TRUE</enabled>
						<duration>150</duration>
						<rate>
							<timebase>25</timebase>
							<ntsc>FALSE</ntsc>
						</rate>
						<start>49650</start>
						<end>49800</end>
						<in>4200</in>
						<out>4350</out>
						<pproTicksIn>0</pproTicksIn>
						<pproTicksOut>419410897920000</pproTicksOut>
						<alphatype>none</alphatype>
						<pixelaspectratio>square</pixelaspectratio>
						<anamorphic>FALSE</anamorphic>
						<file id="file-32">
							<name>Travis_Kelce_ANNOUNCE_WEDDING_DATE_with_Taylor_Swift_Why_He_was_Delaying_all_Along.mp4</name>
							<pathurl>file://localhost/Users/themalikano/Documents/VideoAutomation/premiere_videos/Travis_Kelce_ANNOUNCE_WEDDING_DATE_with_Taylor_Swift_Why_He_was_Delaying_all_Along.mp4</pathurl>
							<rate>
								<timebase>24</timebase>
								<ntsc>FALSE</ntsc>
							</rate>
							<duration>39627</duration>
							<timecode>
								<rate>
									<timebase>24</timebase>
									<ntsc>FALSE</ntsc>
								</rate>
								<string>00:00:00:00</string>
								<frame>0</frame>
								<displayformat>NDF</displayformat>
							</timecode>
							<media>
								<video>
									<samplecharacteristics>
										<rate>
											<timebase>24</timebase>
											<ntsc>FALSE</ntsc>
										</rate>
										<width>852</width>
										<height>480</height>
										<anamorphic>FALSE</anamorphic>
										<pixelaspectratio>square</pixelaspectratio>
										<fielddominance>none</fielddominance>
									</samplecharacteristics>
								</video>
								<audio>
									<samplecharacteristics>
										<depth>16</depth>
										<samplerate>44100</samplerate>
									</samplecharacteristics>
									<channelcount>2</channelcount>
								</audio>
							</media>
						</file>
						<filter>
							<effect>
								<name>Basic Motion</name>
								<effectid>basic</effectid>
								<effectcategory>motion</effectcategory>
								<effecttype>motion</effecttype>
								<mediatype>video</mediatype>
								<pproBypass>false</pproBypass>
								<parameter authoringApp="PremierePro">
									<parameterid>scale</parameterid>
									<name>Scale</name>
									<valuemin>0</valuemin>
									<valuemax>1000</valuemax>
									<value>225</value>
								</parameter>
								<parameter authoringApp="PremierePro">
									<parameterid>rotation</parameterid>
									<name>Rotation</name>
									<valuemin>-8640</valuemin>
									<valuemax>8640</valuemax>
									<value>0</value>
								</parameter>
								<parameter authoringApp="PremierePro">
									<parameterid>center</parameterid>
									<name>Center</name>
									<value>
										<horiz>0</horiz>
										<vert>0</vert>
									</value>
								</parameter>
								<parameter authoringApp="PremierePro">
									<parameterid>centerOffset</parameterid>
									<name>Anchor Point</name>
									<value>
										<horiz>0</horiz>
										<vert>0</vert>
									</value>
								</parameter>
								<parameter authoringApp="PremierePro">
									<parameterid>antiflicker</parameterid>
									<name>Anti-flicker Filter</name>
									<valuemin>0.0</valuemin>
									<valuemax>1.0</valuemax>
									<value>0</value>
								</parameter>
							</effect>
						</filter>
						<link>
							<linkclipref>clipitem-88</linkclipref>
							<mediatype>video</mediatype>
							<trackindex>1</trackindex>
							<clipindex>4</clipindex>
						</link>
						<link>
							<linkclipref>clipitem-96</linkclipref>
							<mediatype>audio</mediatype>
							<trackindex>1</trackindex>
							<clipindex>4</clipindex>
							<groupindex>1</groupindex>
						</link>
						<link>
							<linkclipref>clipitem-104</linkclipref>
							<mediatype>audio</mediatype>
							<trackindex>2</trackindex>
							<clipindex>4</clipindex>
							<groupindex>1</groupindex>
						</link>
						<logginginfo>
							<description />
							<scene />
							<shottake />
							<lognote />
							<good />
							<originalvideofilename />
							<originalaudiofilename />
						</logginginfo>
						<colorinfo>
							<lut />
							<lut1 />
							<asc_sop />
							<asc_sat />
							<lut2 />
						</colorinfo>
					<labels><label2>Lavender</label2></labels></clipitem>
					<clipitem id="clipitem-86">
						<masterclipid>clipitem-2-126</masterclipid>
						<name>Taylor_Swift_Shares_The_Story_Of_Calling_Travis_Kelce_For_The_First_Time.mp4</name>
						<enabled>TRUE</enabled>
						<duration>150</duration>
						<rate>
							<timebase>25</timebase>
							<ntsc>FALSE</ntsc>
						</rate>
						<start>49800</start>
						<end>49950</end>
						<in>18750</in>
						<out>18900</out>
						<pproTicksIn>0</pproTicksIn>
						<pproTicksOut>236438092800000</pproTicksOut>
						<alphatype>none</alphatype>
						<pixelaspectratio>square</pixelaspectratio>
						<anamorphic>FALSE</anamorphic>
						<file id="file-30">
							<name>Taylor_Swift_Shares_The_Story_Of_Calling_Travis_Kelce_For_The_First_Time.mp4</name>
							<pathurl>file://localhost/Users/themalikano/Documents/VideoAutomation/premiere_videos/Taylor_Swift_Shares_The_Story_Of_Calling_Travis_Kelce_For_The_First_Time.mp4</pathurl>
							<rate>
								<timebase>30</timebase>
								<ntsc>TRUE</ntsc>
							</rate>
							<duration>27897</duration>
							<timecode>
								<rate>
									<timebase>30</timebase>
									<ntsc>TRUE</ntsc>
								</rate>
								<string>00:00:00:00</string>
								<frame>0</frame>
								<displayformat>NDF</displayformat>
							</timecode>
							<media>
								<video>
									<samplecharacteristics>
										<rate>
											<timebase>30</timebase>
											<ntsc>TRUE</ntsc>
										</rate>
										<width>1920</width>
										<height>1080</height>
										<anamorphic>FALSE</anamorphic>
										<pixelaspectratio>square</pixelaspectratio>
										<fielddominance>none</fielddominance>
									</samplecharacteristics>
								</video>
								<audio>
									<samplecharacteristics>
										<depth>16</depth>
										<samplerate>44100</samplerate>
									</samplecharacteristics>
									<channelcount>2</channelcount>
								</audio>
							</media>
						</file>
						<link>
							<linkclipref>clipitem-86</linkclipref>
							<mediatype>video</mediatype>
							<trackindex>1</trackindex>
							<clipindex>2</clipindex>
						</link>
						<link>
							<linkclipref>clipitem-94</linkclipref>
							<mediatype>audio</mediatype>
							<trackindex>1</trackindex>
							<clipindex>2</clipindex>
							<groupindex>1</groupindex>
						</link>
						<link>
							<linkclipref>clipitem-102</linkclipref>
							<mediatype>audio</mediatype>
							<trackindex>2</trackindex>
							<clipindex>2</clipindex>
							<groupindex>1</groupindex>
						</link>
						<logginginfo>
							<description />
							<scene />
							<shottake />
							<lognote />
							<good />
							<originalvideofilename />
							<originalaudiofilename />
						</logginginfo>
						<colorinfo>
							<lut />
							<lut1 />
							<asc_sop />
							<asc_sat />
							<lut2 />
						</colorinfo>
					<labels><label2>Iris</label2></labels></clipitem>
					<clipitem id="clipitem-88">
						<masterclipid>clipitem-4-132</masterclipid>
						<name>Travis_Kelce_ANNOUNCE_WEDDING_DATE_with_Taylor_Swift_Why_He_was_Delaying_all_Along.mp4</name>
						<enabled>TRUE</enabled>
						<duration>150</duration>
						<rate>
							<timebase>25</timebase>
							<ntsc>FALSE</ntsc>
						</rate>
						<start>49950</start>
						<end>50100</end>
						<in>19650</in>
						<out>19800</out>
						<pproTicksIn>0</pproTicksIn>
						<pproTicksOut>419410897920000</pproTicksOut>
						<alphatype>none</alphatype>
						<pixelaspectratio>square</pixelaspectratio>
						<anamorphic>FALSE</anamorphic>
						<file id="file-32">
							<name>Travis_Kelce_ANNOUNCE_WEDDING_DATE_with_Taylor_Swift_Why_He_was_Delaying_all_Along.mp4</name>
							<pathurl>file://localhost/Users/themalikano/Documents/VideoAutomation/premiere_videos/Travis_Kelce_ANNOUNCE_WEDDING_DATE_with_Taylor_Swift_Why_He_was_Delaying_all_Along.mp4</pathurl>
							<rate>
								<timebase>24</timebase>
								<ntsc>FALSE</ntsc>
							</rate>
							<duration>39627</duration>
							<timecode>
								<rate>
									<timebase>24</timebase>
									<ntsc>FALSE</ntsc>
								</rate>
								<string>00:00:00:00</string>
								<frame>0</frame>
								<displayformat>NDF</displayformat>
							</timecode>
							<media>
								<video>
									<samplecharacteristics>
										<rate>
											<timebase>24</timebase>
											<ntsc>FALSE</ntsc>
										</rate>
										<width>852</width>
										<height>480</height>
										<anamorphic>FALSE</anamorphic>
										<pixelaspectratio>square</pixelaspectratio>
										<fielddominance>none</fielddominance>
									</samplecharacteristics>
								</video>
								<audio>
									<samplecharacteristics>
										<depth>16</depth>
										<samplerate>44100</samplerate>
									</samplecharacteristics>
									<channelcount>2</channelcount>
								</audio>
							</media>
						</file>
						<filter>
							<effect>
								<name>Basic Motion</name>
								<effectid>basic</effectid>
								<effectcategory>motion</effectcategory>
								<effecttype>motion</effecttype>
								<mediatype>video</mediatype>
								<pproBypass>false</pproBypass>
								<parameter authoringApp="PremierePro">
									<parameterid>scale</parameterid>
									<name>Scale</name>
									<valuemin>0</valuemin>
									<valuemax>1000</valuemax>
									<value>225</value>
								</parameter>
								<parameter authoringApp="PremierePro">
									<parameterid>rotation</parameterid>
									<name>Rotation</name>
									<valuemin>-8640</valuemin>
									<valuemax>8640</valuemax>
									<value>0</value>
								</parameter>
								<parameter authoringApp="PremierePro">
									<parameterid>center</parameterid>
									<name>Center</name>
									<value>
										<horiz>0</horiz>
										<vert>0</vert>
									</value>
								</parameter>
								<parameter authoringApp="PremierePro">
									<parameterid>centerOffset</parameterid>
									<name>Anchor Point</name>
									<value>
										<horiz>0</horiz>
										<vert>0</vert>
									</value>
								</parameter>
								<parameter authoringApp="PremierePro">
									<parameterid>antiflicker</parameterid>
									<name>Anti-flicker Filter</name>
									<valuemin>0.0</valuemin>
									<valuemax>1.0</valuemax>
									<value>0</value>
								</parameter>
							</effect>
						</filter>
						<link>
							<linkclipref>clipitem-88</linkclipref>
							<mediatype>video</mediatype>
							<trackindex>1</trackindex>
							<clipindex>4</clipindex>
						</link>
						<link>
							<linkclipref>clipitem-96</linkclipref>
							<mediatype>audio</mediatype>
							<trackindex>1</trackindex>
							<clipindex>4</clipindex>
							<groupindex>1</groupindex>
						</link>
						<link>
							<linkclipref>clipitem-104</linkclipref>
							<mediatype>audio</mediatype>
							<trackindex>2</trackindex>
							<clipindex>4</clipindex>
							<groupindex>1</groupindex>
						</link>
						<logginginfo>
							<description />
							<scene />
							<shottake />
							<lognote />
							<good />
							<originalvideofilename />
							<originalaudiofilename />
						</logginginfo>
						<colorinfo>
							<lut />
							<lut1 />
							<asc_sop />
							<asc_sat />
							<lut2 />
						</colorinfo>
					<labels><label2>Lavender</label2></labels></clipitem>
					<clipitem id="clipitem-90">
						<masterclipid>clipitem-6-27</masterclipid>
						<name>Travis_Kelce_talks_about_postponing_his_wedding_to_Fiance_Taylor_Swift_on_the_New_Heights_Podcast.mp4</name>
						<enabled>TRUE</enabled>
						<duration>150</duration>
						<rate>
							<timebase>25</timebase>
							<ntsc>FALSE</ntsc>
						</rate>
						<start>50100</start>
						<end>50250</end>
						<in>3900</in>
						<out>4050</out>
						<pproTicksIn>0</pproTicksIn>
						<pproTicksOut>149391889920000</pproTicksOut>
						<alphatype>none</alphatype>
						<pixelaspectratio>square</pixelaspectratio>
						<anamorphic>FALSE</anamorphic>
						<file id="file-34">
							<name>Travis_Kelce_talks_about_postponing_his_wedding_to_Fiance_Taylor_Swift_on_the_New_Heights_Podcast.mp4</name>
							<pathurl>file://localhost/Users/themalikano/Documents/VideoAutomation/premiere_videos/Travis_Kelce_talks_about_postponing_his_wedding_to_Fiance_Taylor_Swift_on_the_New_Heights_Podcast.mp4</pathurl>
							<rate>
								<timebase>30</timebase>
								<ntsc>FALSE</ntsc>
							</rate>
							<duration>17644</duration>
							<timecode>
								<rate>
									<timebase>30</timebase>
									<ntsc>FALSE</ntsc>
								</rate>
								<string>00:00:00:00</string>
								<frame>0</frame>
								<displayformat>NDF</displayformat>
							</timecode>
							<media>
								<video>
									<samplecharacteristics>
										<rate>
											<timebase>30</timebase>
											<ntsc>FALSE</ntsc>
										</rate>
										<width>1920</width>
										<height>1080</height>
										<anamorphic>FALSE</anamorphic>
										<pixelaspectratio>square</pixelaspectratio>
										<fielddominance>none</fielddominance>
									</samplecharacteristics>
								</video>
								<audio>
									<samplecharacteristics>
										<depth>16</depth>
										<samplerate>44100</samplerate>
									</samplecharacteristics>
									<channelcount>2</channelcount>
								</audio>
							</media>
						</file>
						<link>
							<linkclipref>clipitem-90</linkclipref>
							<mediatype>video</mediatype>
							<trackindex>1</trackindex>
							<clipindex>6</clipindex>
						</link>
						<link>
							<linkclipref>clipitem-98</linkclipref>
							<mediatype>audio</mediatype>
							<trackindex>1</trackindex>
							<clipindex>6</clipindex>
							<groupindex>1</groupindex>
						</link>
						<link>
							<linkclipref>clipitem-106</linkclipref>
							<mediatype>audio</mediatype>
							<trackindex>2</trackindex>
							<clipindex>6</clipindex>
							<groupindex>1</groupindex>
						</link>
						<logginginfo>
							<description />
							<scene />
							<shottake />
							<lognote />
							<good />
							<originalvideofilename />
							<originalaudiofilename />
						</logginginfo>
						<colorinfo>
							<lut />
							<lut1 />
							<asc_sop />
							<asc_sat />
							<lut2 />
						</colorinfo>
					<labels><label2>Forest</label2></labels></clipitem>
					<clipitem id="clipitem-88">
						<masterclipid>clipitem-4-98</masterclipid>
						<name>Travis_Kelce_ANNOUNCE_WEDDING_DATE_with_Taylor_Swift_Why_He_was_Delaying_all_Along.mp4</name>
						<enabled>TRUE</enabled>
						<duration>150</duration>
						<rate>
							<timebase>25</timebase>
							<ntsc>FALSE</ntsc>
						</rate>
						<start>50250</start>
						<end>50400</end>
						<in>14550</in>
						<out>14700</out>
						<pproTicksIn>0</pproTicksIn>
						<pproTicksOut>419410897920000</pproTicksOut>
						<alphatype>none</alphatype>
						<pixelaspectratio>square</pixelaspectratio>
						<anamorphic>FALSE</anamorphic>
						<file id="file-32">
							<name>Travis_Kelce_ANNOUNCE_WEDDING_DATE_with_Taylor_Swift_Why_He_was_Delaying_all_Along.mp4</name>
							<pathurl>file://localhost/Users/themalikano/Documents/VideoAutomation/premiere_videos/Travis_Kelce_ANNOUNCE_WEDDING_DATE_with_Taylor_Swift_Why_He_was_Delaying_all_Along.mp4</pathurl>
							<rate>
								<timebase>24</timebase>
								<ntsc>FALSE</ntsc>
							</rate>
							<duration>39627</duration>
							<timecode>
								<rate>
									<timebase>24</timebase>
									<ntsc>FALSE</ntsc>
								</rate>
								<string>00:00:00:00</string>
								<frame>0</frame>
								<displayformat>NDF</displayformat>
							</timecode>
							<media>
								<video>
									<samplecharacteristics>
										<rate>
											<timebase>24</timebase>
											<ntsc>FALSE</ntsc>
										</rate>
										<width>852</width>
										<height>480</height>
										<anamorphic>FALSE</anamorphic>
										<pixelaspectratio>square</pixelaspectratio>
										<fielddominance>none</fielddominance>
									</samplecharacteristics>
								</video>
								<audio>
									<samplecharacteristics>
										<depth>16</depth>
										<samplerate>44100</samplerate>
									</samplecharacteristics>
									<channelcount>2</channelcount>
								</audio>
							</media>
						</file>
						<filter>
							<effect>
								<name>Basic Motion</name>
								<effectid>basic</effectid>
								<effectcategory>motion</effectcategory>
								<effecttype>motion</effecttype>
								<mediatype>video</mediatype>
								<pproBypass>false</pproBypass>
								<parameter authoringApp="PremierePro">
									<parameterid>scale</parameterid>
									<name>Scale</name>
									<valuemin>0</valuemin>
									<valuemax>1000</valuemax>
									<value>225</value>
								</parameter>
								<parameter authoringApp="PremierePro">
									<parameterid>rotation</parameterid>
									<name>Rotation</name>
									<valuemin>-8640</valuemin>
									<valuemax>8640</valuemax>
									<value>0</value>
								</parameter>
								<parameter authoringApp="PremierePro">
									<parameterid>center</parameterid>
									<name>Center</name>
									<value>
										<horiz>0</horiz>
										<vert>0</vert>
									</value>
								</parameter>
								<parameter authoringApp="PremierePro">
									<parameterid>centerOffset</parameterid>
									<name>Anchor Point</name>
									<value>
										<horiz>0</horiz>
										<vert>0</vert>
									</value>
								</parameter>
								<parameter authoringApp="PremierePro">
									<parameterid>antiflicker</parameterid>
									<name>Anti-flicker Filter</name>
									<valuemin>0.0</valuemin>
									<valuemax>1.0</valuemax>
									<value>0</value>
								</parameter>
							</effect>
						</filter>
						<link>
							<linkclipref>clipitem-88</linkclipref>
							<mediatype>video</mediatype>
							<trackindex>1</trackindex>
							<clipindex>4</clipindex>
						</link>
						<link>
							<linkclipref>clipitem-96</linkclipref>
							<mediatype>audio</mediatype>
							<trackindex>1</trackindex>
							<clipindex>4</clipindex>
							<groupindex>1</groupindex>
						</link>
						<link>
							<linkclipref>clipitem-104</linkclipref>
							<mediatype>audio</mediatype>
							<trackindex>2</trackindex>
							<clipindex>4</clipindex>
							<groupindex>1</groupindex>
						</link>
						<logginginfo>
							<description />
							<scene />
							<shottake />
							<lognote />
							<good />
							<originalvideofilename />
							<originalaudiofilename />
						</logginginfo>
						<colorinfo>
							<lut />
							<lut1 />
							<asc_sop />
							<asc_sat />
							<lut2 />
						</colorinfo>
					<labels><label2>Lavender</label2></labels></clipitem>
					<clipitem id="clipitem-90">
						<masterclipid>clipitem-6-53</masterclipid>
						<name>Travis_Kelce_talks_about_postponing_his_wedding_to_Fiance_Taylor_Swift_on_the_New_Heights_Podcast.mp4</name>
						<enabled>TRUE</enabled>
						<duration>150</duration>
						<rate>
							<timebase>25</timebase>
							<ntsc>FALSE</ntsc>
						</rate>
						<start>50400</start>
						<end>50550</end>
						<in>7800</in>
						<out>7950</out>
						<pproTicksIn>0</pproTicksIn>
						<pproTicksOut>149391889920000</pproTicksOut>
						<alphatype>none</alphatype>
						<pixelaspectratio>square</pixelaspectratio>
						<anamorphic>FALSE</anamorphic>
						<file id="file-34">
							<name>Travis_Kelce_talks_about_postponing_his_wedding_to_Fiance_Taylor_Swift_on_the_New_Heights_Podcast.mp4</name>
							<pathurl>file://localhost/Users/themalikano/Documents/VideoAutomation/premiere_videos/Travis_Kelce_talks_about_postponing_his_wedding_to_Fiance_Taylor_Swift_on_the_New_Heights_Podcast.mp4</pathurl>
							<rate>
								<timebase>30</timebase>
								<ntsc>FALSE</ntsc>
							</rate>
							<duration>17644</duration>
							<timecode>
								<rate>
									<timebase>30</timebase>
									<ntsc>FALSE</ntsc>
								</rate>
								<string>00:00:00:00</string>
								<frame>0</frame>
								<displayformat>NDF</displayformat>
							</timecode>
							<media>
								<video>
									<samplecharacteristics>
										<rate>
											<timebase>30</timebase>
											<ntsc>FALSE</ntsc>
										</rate>
										<width>1920</width>
										<height>1080</height>
										<anamorphic>FALSE</anamorphic>
										<pixelaspectratio>square</pixelaspectratio>
										<fielddominance>none</fielddominance>
									</samplecharacteristics>
								</video>
								<audio>
									<samplecharacteristics>
										<depth>16</depth>
										<samplerate>44100</samplerate>
									</samplecharacteristics>
									<channelcount>2</channelcount>
								</audio>
							</media>
						</file>
						<link>
							<linkclipref>clipitem-90</linkclipref>
							<mediatype>video</mediatype>
							<trackindex>1</trackindex>
							<clipindex>6</clipindex>
						</link>
						<link>
							<linkclipref>clipitem-98</linkclipref>
							<mediatype>audio</mediatype>
							<trackindex>1</trackindex>
							<clipindex>6</clipindex>
							<groupindex>1</groupindex>
						</link>
						<link>
							<linkclipref>clipitem-106</linkclipref>
							<mediatype>audio</mediatype>
							<trackindex>2</trackindex>
							<clipindex>6</clipindex>
							<groupindex>1</groupindex>
						</link>
						<logginginfo>
							<description />
							<scene />
							<shottake />
							<lognote />
							<good />
							<originalvideofilename />
							<originalaudiofilename />
						</logginginfo>
						<colorinfo>
							<lut />
							<lut1 />
							<asc_sop />
							<asc_sat />
							<lut2 />
						</colorinfo>
					<labels><label2>Forest</label2></labels></clipitem>
					<clipitem id="clipitem-86">
						<masterclipid>clipitem-2-100</masterclipid>
						<name>Taylor_Swift_Shares_The_Story_Of_Calling_Travis_Kelce_For_The_First_Time.mp4</name>
						<enabled>TRUE</enabled>
						<duration>150</duration>
						<rate>
							<timebase>25</timebase>
							<ntsc>FALSE</ntsc>
						</rate>
						<start>50550</start>
						<end>50700</end>
						<in>14850</in>
						<out>15000</out>
						<pproTicksIn>0</pproTicksIn>
						<pproTicksOut>236438092800000</pproTicksOut>
						<alphatype>none</alphatype>
						<pixelaspectratio>square</pixelaspectratio>
						<anamorphic>FALSE</anamorphic>
						<file id="file-30">
							<name>Taylor_Swift_Shares_The_Story_Of_Calling_Travis_Kelce_For_The_First_Time.mp4</name>
							<pathurl>file://localhost/Users/themalikano/Documents/VideoAutomation/premiere_videos/Taylor_Swift_Shares_The_Story_Of_Calling_Travis_Kelce_For_The_First_Time.mp4</pathurl>
							<rate>
								<timebase>30</timebase>
								<ntsc>TRUE</ntsc>
							</rate>
							<duration>27897</duration>
							<timecode>
								<rate>
									<timebase>30</timebase>
									<ntsc>TRUE</ntsc>
								</rate>
								<string>00:00:00:00</string>
								<frame>0</frame>
								<displayformat>NDF</displayformat>
							</timecode>
							<media>
								<video>
									<samplecharacteristics>
										<rate>
											<timebase>30</timebase>
											<ntsc>TRUE</ntsc>
										</rate>
										<width>1920</width>
										<height>1080</height>
										<anamorphic>FALSE</anamorphic>
										<pixelaspectratio>square</pixelaspectratio>
										<fielddominance>none</fielddominance>
									</samplecharacteristics>
								</video>
								<audio>
									<samplecharacteristics>
										<depth>16</depth>
										<samplerate>44100</samplerate>
									</samplecharacteristics>
									<channelcount>2</channelcount>
								</audio>
							</media>
						</file>
						<link>
							<linkclipref>clipitem-86</linkclipref>
							<mediatype>video</mediatype>
							<trackindex>1</trackindex>
							<clipindex>2</clipindex>
						</link>
						<link>
							<linkclipref>clipitem-94</linkclipref>
							<mediatype>audio</mediatype>
							<trackindex>1</trackindex>
							<clipindex>2</clipindex>
							<groupindex>1</groupindex>
						</link>
						<link>
							<linkclipref>clipitem-102</linkclipref>
							<mediatype>audio</mediatype>
							<trackindex>2</trackindex>
							<clipindex>2</clipindex>
							<groupindex>1</groupindex>
						</link>
						<logginginfo>
							<description />
							<scene />
							<shottake />
							<lognote />
							<good />
							<originalvideofilename />
							<originalaudiofilename />
						</logginginfo>
						<colorinfo>
							<lut />
							<lut1 />
							<asc_sop />
							<asc_sat />
							<lut2 />
						</colorinfo>
					<labels><label2>Iris</label2></labels></clipitem>
					<clipitem id="clipitem-87">
						<masterclipid>clipitem-3-48</masterclipid>
						<name>Taylor_Swift_Travis_Kelce_-_The_New_Power_Couple.mp4</name>
						<enabled>TRUE</enabled>
						<duration>150</duration>
						<rate>
							<timebase>25</timebase>
							<ntsc>FALSE</ntsc>
						</rate>
						<start>50700</start>
						<end>50850</end>
						<in>7050</in>
						<out>7200</out>
						<pproTicksIn>0</pproTicksIn>
						<pproTicksOut>875013995520000</pproTicksOut>
						<alphatype>none</alphatype>
						<pixelaspectratio>square</pixelaspectratio>
						<anamorphic>FALSE</anamorphic>
						<file id="file-31">
							<name>Taylor_Swift_Travis_Kelce_-_The_New_Power_Couple.mp4</name>
							<pathurl>file://localhost/Users/themalikano/Documents/VideoAutomation/premiere_videos/Taylor_Swift_Travis_Kelce_-_The_New_Power_Couple.mp4</pathurl>
							<rate>
								<timebase>25</timebase>
								<ntsc>FALSE</ntsc>
							</rate>
							<duration>86118</duration>
							<timecode>
								<rate>
									<timebase>25</timebase>
									<ntsc>FALSE</ntsc>
								</rate>
								<string>00:00:00:00</string>
								<frame>0</frame>
								<displayformat>NDF</displayformat>
							</timecode>
							<media>
								<video>
									<samplecharacteristics>
										<rate>
											<timebase>25</timebase>
											<ntsc>FALSE</ntsc>
										</rate>
										<width>1920</width>
										<height>1080</height>
										<anamorphic>FALSE</anamorphic>
										<pixelaspectratio>square</pixelaspectratio>
										<fielddominance>none</fielddominance>
									</samplecharacteristics>
								</video>
								<audio>
									<samplecharacteristics>
										<depth>16</depth>
										<samplerate>44100</samplerate>
									</samplecharacteristics>
									<channelcount>2</channelcount>
								</audio>
							</media>
						</file>
						<link>
							<linkclipref>clipitem-87</linkclipref>
							<mediatype>video</mediatype>
							<trackindex>1</trackindex>
							<clipindex>3</clipindex>
						</link>
						<link>
							<linkclipref>clipitem-95</linkclipref>
							<mediatype>audio</mediatype>
							<trackindex>1</trackindex>
							<clipindex>3</clipindex>
							<groupindex>1</groupindex>
						</link>
						<link>
							<linkclipref>clipitem-103</linkclipref>
							<mediatype>audio</mediatype>
							<trackindex>2</trackindex>
							<clipindex>3</clipindex>
							<groupindex>1</groupindex>
						</link>
						<logginginfo>
							<description />
							<scene />
							<shottake />
							<lognote />
							<good />
							<originalvideofilename />
							<originalaudiofilename />
						</logginginfo>
						<colorinfo>
							<lut />
							<lut1 />
							<asc_sop />
							<asc_sat />
							<lut2 />
						</colorinfo>
					<labels><label2>Caribbean</label2></labels></clipitem>
					<clipitem id="clipitem-86">
						<masterclipid>clipitem-2-17</masterclipid>
						<name>Taylor_Swift_Shares_The_Story_Of_Calling_Travis_Kelce_For_The_First_Time.mp4</name>
						<enabled>TRUE</enabled>
						<duration>150</duration>
						<rate>
							<timebase>25</timebase>
							<ntsc>FALSE</ntsc>
						</rate>
						<start>50850</start>
						<end>51000</end>
						<in>2400</in>
						<out>2550</out>
						<pproTicksIn>0</pproTicksIn>
						<pproTicksOut>236438092800000</pproTicksOut>
						<alphatype>none</alphatype>
						<pixelaspectratio>square</pixelaspectratio>
						<anamorphic>FALSE</anamorphic>
						<file id="file-30">
							<name>Taylor_Swift_Shares_The_Story_Of_Calling_Travis_Kelce_For_The_First_Time.mp4</name>
							<pathurl>file://localhost/Users/themalikano/Documents/VideoAutomation/premiere_videos/Taylor_Swift_Shares_The_Story_Of_Calling_Travis_Kelce_For_The_First_Time.mp4</pathurl>
							<rate>
								<timebase>30</timebase>
								<ntsc>TRUE</ntsc>
							</rate>
							<duration>27897</duration>
							<timecode>
								<rate>
									<timebase>30</timebase>
									<ntsc>TRUE</ntsc>
								</rate>
								<string>00:00:00:00</string>
								<frame>0</frame>
								<displayformat>NDF</displayformat>
							</timecode>
							<media>
								<video>
									<samplecharacteristics>
										<rate>
											<timebase>30</timebase>
											<ntsc>TRUE</ntsc>
										</rate>
										<width>1920</width>
										<height>1080</height>
										<anamorphic>FALSE</anamorphic>
										<pixelaspectratio>square</pixelaspectratio>
										<fielddominance>none</fielddominance>
									</samplecharacteristics>
								</video>
								<audio>
									<samplecharacteristics>
										<depth>16</depth>
										<samplerate>44100</samplerate>
									</samplecharacteristics>
									<channelcount>2</channelcount>
								</audio>
							</media>
						</file>
						<link>
							<linkclipref>clipitem-86</linkclipref>
							<mediatype>video</mediatype>
							<trackindex>1</trackindex>
							<clipindex>2</clipindex>
						</link>
						<link>
							<linkclipref>clipitem-94</linkclipref>
							<mediatype>audio</mediatype>
							<trackindex>1</trackindex>
							<clipindex>2</clipindex>
							<groupindex>1</groupindex>
						</link>
						<link>
							<linkclipref>clipitem-102</linkclipref>
							<mediatype>audio</mediatype>
							<trackindex>2</trackindex>
							<clipindex>2</clipindex>
							<groupindex>1</groupindex>
						</link>
						<logginginfo>
							<description />
							<scene />
							<shottake />
							<lognote />
							<good />
							<originalvideofilename />
							<originalaudiofilename />
						</logginginfo>
						<colorinfo>
							<lut />
							<lut1 />
							<asc_sop />
							<asc_sat />
							<lut2 />
						</colorinfo>
					<labels><label2>Iris</label2></labels></clipitem>
					<clipitem id="clipitem-87">
						<masterclipid>clipitem-3-151</masterclipid>
						<name>Taylor_Swift_Travis_Kelce_-_The_New_Power_Couple.mp4</name>
						<enabled>TRUE</enabled>
						<duration>150</duration>
						<rate>
							<timebase>25</timebase>
							<ntsc>FALSE</ntsc>
						</rate>
						<start>51000</start>
						<end>51150</end>
						<in>22500</in>
						<out>22650</out>
						<pproTicksIn>0</pproTicksIn>
						<pproTicksOut>875013995520000</pproTicksOut>
						<alphatype>none</alphatype>
						<pixelaspectratio>square</pixelaspectratio>
						<anamorphic>FALSE</anamorphic>
						<file id="file-31">
							<name>Taylor_Swift_Travis_Kelce_-_The_New_Power_Couple.mp4</name>
							<pathurl>file://localhost/Users/themalikano/Documents/VideoAutomation/premiere_videos/Taylor_Swift_Travis_Kelce_-_The_New_Power_Couple.mp4</pathurl>
							<rate>
								<timebase>25</timebase>
								<ntsc>FALSE</ntsc>
							</rate>
							<duration>86118</duration>
							<timecode>
								<rate>
									<timebase>25</timebase>
									<ntsc>FALSE</ntsc>
								</rate>
								<string>00:00:00:00</string>
								<frame>0</frame>
								<displayformat>NDF</displayformat>
							</timecode>
							<media>
								<video>
									<samplecharacteristics>
										<rate>
											<timebase>25</timebase>
											<ntsc>FALSE</ntsc>
										</rate>
										<width>1920</width>
										<height>1080</height>
										<anamorphic>FALSE</anamorphic>
										<pixelaspectratio>square</pixelaspectratio>
										<fielddominance>none</fielddominance>
									</samplecharacteristics>
								</video>
								<audio>
									<samplecharacteristics>
										<depth>16</depth>
										<samplerate>44100</samplerate>
									</samplecharacteristics>
									<channelcount>2</channelcount>
								</audio>
							</media>
						</file>
						<link>
							<linkclipref>clipitem-87</linkclipref>
							<mediatype>video</mediatype>
							<trackindex>1</trackindex>
							<clipindex>3</clipindex>
						</link>
						<link>
							<linkclipref>clipitem-95</linkclipref>
							<mediatype>audio</mediatype>
							<trackindex>1</trackindex>
							<clipindex>3</clipindex>
							<groupindex>1</groupindex>
						</link>
						<link>
							<linkclipref>clipitem-103</linkclipref>
							<mediatype>audio</mediatype>
							<trackindex>2</trackindex>
							<clipindex>3</clipindex>
							<groupindex>1</groupindex>
						</link>
						<logginginfo>
							<description />
							<scene />
							<shottake />
							<lognote />
							<good />
							<originalvideofilename />
							<originalaudiofilename />
						</logginginfo>
						<colorinfo>
							<lut />
							<lut1 />
							<asc_sop />
							<asc_sat />
							<lut2 />
						</colorinfo>
					<labels><label2>Caribbean</label2></labels></clipitem>
					<clipitem id="clipitem-86">
						<masterclipid>clipitem-2-77</masterclipid>
						<name>Taylor_Swift_Shares_The_Story_Of_Calling_Travis_Kelce_For_The_First_Time.mp4</name>
						<enabled>TRUE</enabled>
						<duration>150</duration>
						<rate>
							<timebase>25</timebase>
							<ntsc>FALSE</ntsc>
						</rate>
						<start>51150</start>
						<end>51300</end>
						<in>11400</in>
						<out>11550</out>
						<pproTicksIn>0</pproTicksIn>
						<pproTicksOut>236438092800000</pproTicksOut>
						<alphatype>none</alphatype>
						<pixelaspectratio>square</pixelaspectratio>
						<anamorphic>FALSE</anamorphic>
						<file id="file-30">
							<name>Taylor_Swift_Shares_The_Story_Of_Calling_Travis_Kelce_For_The_First_Time.mp4</name>
							<pathurl>file://localhost/Users/themalikano/Documents/VideoAutomation/premiere_videos/Taylor_Swift_Shares_The_Story_Of_Calling_Travis_Kelce_For_The_First_Time.mp4</pathurl>
							<rate>
								<timebase>30</timebase>
								<ntsc>TRUE</ntsc>
							</rate>
							<duration>27897</duration>
							<timecode>
								<rate>
									<timebase>30</timebase>
									<ntsc>TRUE</ntsc>
								</rate>
								<string>00:00:00:00</string>
								<frame>0</frame>
								<displayformat>NDF</displayformat>
							</timecode>
							<media>
								<video>
									<samplecharacteristics>
										<rate>
											<timebase>30</timebase>
											<ntsc>TRUE</ntsc>
										</rate>
										<width>1920</width>
										<height>1080</height>
										<anamorphic>FALSE</anamorphic>
										<pixelaspectratio>square</pixelaspectratio>
										<fielddominance>none</fielddominance>
									</samplecharacteristics>
								</video>
								<audio>
									<samplecharacteristics>
										<depth>16</depth>
										<samplerate>44100</samplerate>
									</samplecharacteristics>
									<channelcount>2</channelcount>
								</audio>
							</media>
						</file>
						<link>
							<linkclipref>clipitem-86</linkclipref>
							<mediatype>video</mediatype>
							<trackindex>1</trackindex>
							<clipindex>2</clipindex>
						</link>
						<link>
							<linkclipref>clipitem-94</linkclipref>
							<mediatype>audio</mediatype>
							<trackindex>1</trackindex>
							<clipindex>2</clipindex>
							<groupindex>1</groupindex>
						</link>
						<link>
							<linkclipref>clipitem-102</linkclipref>
							<mediatype>audio</mediatype>
							<trackindex>2</trackindex>
							<clipindex>2</clipindex>
							<groupindex>1</groupindex>
						</link>
						<logginginfo>
							<description />
							<scene />
							<shottake />
							<lognote />
							<good />
							<originalvideofilename />
							<originalaudiofilename />
						</logginginfo>
						<colorinfo>
							<lut />
							<lut1 />
							<asc_sop />
							<asc_sat />
							<lut2 />
						</colorinfo>
					<labels><label2>Iris</label2></labels></clipitem>
					<clipitem id="clipitem-87">
						<masterclipid>clipitem-3-517</masterclipid>
						<name>Taylor_Swift_Travis_Kelce_-_The_New_Power_Couple.mp4</name>
						<enabled>TRUE</enabled>
						<duration>150</duration>
						<rate>
							<timebase>25</timebase>
							<ntsc>FALSE</ntsc>
						</rate>
						<start>51300</start>
						<end>51450</end>
						<in>77400</in>
						<out>77550</out>
						<pproTicksIn>0</pproTicksIn>
						<pproTicksOut>875013995520000</pproTicksOut>
						<alphatype>none</alphatype>
						<pixelaspectratio>square</pixelaspectratio>
						<anamorphic>FALSE</anamorphic>
						<file id="file-31">
							<name>Taylor_Swift_Travis_Kelce_-_The_New_Power_Couple.mp4</name>
							<pathurl>file://localhost/Users/themalikano/Documents/VideoAutomation/premiere_videos/Taylor_Swift_Travis_Kelce_-_The_New_Power_Couple.mp4</pathurl>
							<rate>
								<timebase>25</timebase>
								<ntsc>FALSE</ntsc>
							</rate>
							<duration>86118</duration>
							<timecode>
								<rate>
									<timebase>25</timebase>
									<ntsc>FALSE</ntsc>
								</rate>
								<string>00:00:00:00</string>
								<frame>0</frame>
								<displayformat>NDF</displayformat>
							</timecode>
							<media>
								<video>
									<samplecharacteristics>
										<rate>
											<timebase>25</timebase>
											<ntsc>FALSE</ntsc>
										</rate>
										<width>1920</width>
										<height>1080</height>
										<anamorphic>FALSE</anamorphic>
										<pixelaspectratio>square</pixelaspectratio>
										<fielddominance>none</fielddominance>
									</samplecharacteristics>
								</video>
								<audio>
									<samplecharacteristics>
										<depth>16</depth>
										<samplerate>44100</samplerate>
									</samplecharacteristics>
									<channelcount>2</channelcount>
								</audio>
							</media>
						</file>
						<link>
							<linkclipref>clipitem-87</linkclipref>
							<mediatype>video</mediatype>
							<trackindex>1</trackindex>
							<clipindex>3</clipindex>
						</link>
						<link>
							<linkclipref>clipitem-95</linkclipref>
							<mediatype>audio</mediatype>
							<trackindex>1</trackindex>
							<clipindex>3</clipindex>
							<groupindex>1</groupindex>
						</link>
						<link>
							<linkclipref>clipitem-103</linkclipref>
							<mediatype>audio</mediatype>
							<trackindex>2</trackindex>
							<clipindex>3</clipindex>
							<groupindex>1</groupindex>
						</link>
						<logginginfo>
							<description />
							<scene />
							<shottake />
							<lognote />
							<good />
							<originalvideofilename />
							<originalaudiofilename />
						</logginginfo>
						<colorinfo>
							<lut />
							<lut1 />
							<asc_sop />
							<asc_sat />
							<lut2 />
						</colorinfo>
					<labels><label2>Caribbean</label2></labels></clipitem>
					<clipitem id="clipitem-88">
						<masterclipid>clipitem-4-172</masterclipid>
						<name>Travis_Kelce_ANNOUNCE_WEDDING_DATE_with_Taylor_Swift_Why_He_was_Delaying_all_Along.mp4</name>
						<enabled>TRUE</enabled>
						<duration>150</duration>
						<rate>
							<timebase>25</timebase>
							<ntsc>FALSE</ntsc>
						</rate>
						<start>51450</start>
						<end>51600</end>
						<in>25650</in>
						<out>25800</out>
						<pproTicksIn>0</pproTicksIn>
						<pproTicksOut>419410897920000</pproTicksOut>
						<alphatype>none</alphatype>
						<pixelaspectratio>square</pixelaspectratio>
						<anamorphic>FALSE</anamorphic>
						<file id="file-32">
							<name>Travis_Kelce_ANNOUNCE_WEDDING_DATE_with_Taylor_Swift_Why_He_was_Delaying_all_Along.mp4</name>
							<pathurl>file://localhost/Users/themalikano/Documents/VideoAutomation/premiere_videos/Travis_Kelce_ANNOUNCE_WEDDING_DATE_with_Taylor_Swift_Why_He_was_Delaying_all_Along.mp4</pathurl>
							<rate>
								<timebase>24</timebase>
								<ntsc>FALSE</ntsc>
							</rate>
							<duration>39627</duration>
							<timecode>
								<rate>
									<timebase>24</timebase>
									<ntsc>FALSE</ntsc>
								</rate>
								<string>00:00:00:00</string>
								<frame>0</frame>
								<displayformat>NDF</displayformat>
							</timecode>
							<media>
								<video>
									<samplecharacteristics>
										<rate>
											<timebase>24</timebase>
											<ntsc>FALSE</ntsc>
										</rate>
										<width>852</width>
										<height>480</height>
										<anamorphic>FALSE</anamorphic>
										<pixelaspectratio>square</pixelaspectratio>
										<fielddominance>none</fielddominance>
									</samplecharacteristics>
								</video>
								<audio>
									<samplecharacteristics>
										<depth>16</depth>
										<samplerate>44100</samplerate>
									</samplecharacteristics>
									<channelcount>2</channelcount>
								</audio>
							</media>
						</file>
						<filter>
							<effect>
								<name>Basic Motion</name>
								<effectid>basic</effectid>
								<effectcategory>motion</effectcategory>
								<effecttype>motion</effecttype>
								<mediatype>video</mediatype>
								<pproBypass>false</pproBypass>
								<parameter authoringApp="PremierePro">
									<parameterid>scale</parameterid>
									<name>Scale</name>
									<valuemin>0</valuemin>
									<valuemax>1000</valuemax>
									<value>225</value>
								</parameter>
								<parameter authoringApp="PremierePro">
									<parameterid>rotation</parameterid>
									<name>Rotation</name>
									<valuemin>-8640</valuemin>
									<valuemax>8640</valuemax>
									<value>0</value>
								</parameter>
								<parameter authoringApp="PremierePro">
									<parameterid>center</parameterid>
									<name>Center</name>
									<value>
										<horiz>0</horiz>
										<vert>0</vert>
									</value>
								</parameter>
								<parameter authoringApp="PremierePro">
									<parameterid>centerOffset</parameterid>
									<name>Anchor Point</name>
									<value>
										<horiz>0</horiz>
										<vert>0</vert>
									</value>
								</parameter>
								<parameter authoringApp="PremierePro">
									<parameterid>antiflicker</parameterid>
									<name>Anti-flicker Filter</name>
									<valuemin>0.0</valuemin>
									<valuemax>1.0</valuemax>
									<value>0</value>
								</parameter>
							</effect>
						</filter>
						<link>
							<linkclipref>clipitem-88</linkclipref>
							<mediatype>video</mediatype>
							<trackindex>1</trackindex>
							<clipindex>4</clipindex>
						</link>
						<link>
							<linkclipref>clipitem-96</linkclipref>
							<mediatype>audio</mediatype>
							<trackindex>1</trackindex>
							<clipindex>4</clipindex>
							<groupindex>1</groupindex>
						</link>
						<link>
							<linkclipref>clipitem-104</linkclipref>
							<mediatype>audio</mediatype>
							<trackindex>2</trackindex>
							<clipindex>4</clipindex>
							<groupindex>1</groupindex>
						</link>
						<logginginfo>
							<description />
							<scene />
							<shottake />
							<lognote />
							<good />
							<originalvideofilename />
							<originalaudiofilename />
						</logginginfo>
						<colorinfo>
							<lut />
							<lut1 />
							<asc_sop />
							<asc_sat />
							<lut2 />
						</colorinfo>
					<labels><label2>Lavender</label2></labels></clipitem>
					<clipitem id="clipitem-86">
						<masterclipid>clipitem-2-92</masterclipid>
						<name>Taylor_Swift_Shares_The_Story_Of_Calling_Travis_Kelce_For_The_First_Time.mp4</name>
						<enabled>TRUE</enabled>
						<duration>150</duration>
						<rate>
							<timebase>25</timebase>
							<ntsc>FALSE</ntsc>
						</rate>
						<start>51600</start>
						<end>51750</end>
						<in>13650</in>
						<out>13800</out>
						<pproTicksIn>0</pproTicksIn>
						<pproTicksOut>236438092800000</pproTicksOut>
						<alphatype>none</alphatype>
						<pixelaspectratio>square</pixelaspectratio>
						<anamorphic>FALSE</anamorphic>
						<file id="file-30">
							<name>Taylor_Swift_Shares_The_Story_Of_Calling_Travis_Kelce_For_The_First_Time.mp4</name>
							<pathurl>file://localhost/Users/themalikano/Documents/VideoAutomation/premiere_videos/Taylor_Swift_Shares_The_Story_Of_Calling_Travis_Kelce_For_The_First_Time.mp4</pathurl>
							<rate>
								<timebase>30</timebase>
								<ntsc>TRUE</ntsc>
							</rate>
							<duration>27897</duration>
							<timecode>
								<rate>
									<timebase>30</timebase>
									<ntsc>TRUE</ntsc>
								</rate>
								<string>00:00:00:00</string>
								<frame>0</frame>
								<displayformat>NDF</displayformat>
							</timecode>
							<media>
								<video>
									<samplecharacteristics>
										<rate>
											<timebase>30</timebase>
											<ntsc>TRUE</ntsc>
										</rate>
										<width>1920</width>
										<height>1080</height>
										<anamorphic>FALSE</anamorphic>
										<pixelaspectratio>square</pixelaspectratio>
										<fielddominance>none</fielddominance>
									</samplecharacteristics>
								</video>
								<audio>
									<samplecharacteristics>
										<depth>16</depth>
										<samplerate>44100</samplerate>
									</samplecharacteristics>
									<channelcount>2</channelcount>
								</audio>
							</media>
						</file>
						<link>
							<linkclipref>clipitem-86</linkclipref>
							<mediatype>video</mediatype>
							<trackindex>1</trackindex>
							<clipindex>2</clipindex>
						</link>
						<link>
							<linkclipref>clipitem-94</linkclipref>
							<mediatype>audio</mediatype>
							<trackindex>1</trackindex>
							<clipindex>2</clipindex>
							<groupindex>1</groupindex>
						</link>
						<link>
							<linkclipref>clipitem-102</linkclipref>
							<mediatype>audio</mediatype>
							<trackindex>2</trackindex>
							<clipindex>2</clipindex>
							<groupindex>1</groupindex>
						</link>
						<logginginfo>
							<description />
							<scene />
							<shottake />
							<lognote />
							<good />
							<originalvideofilename />
							<originalaudiofilename />
						</logginginfo>
						<colorinfo>
							<lut />
							<lut1 />
							<asc_sop />
							<asc_sat />
							<lut2 />
						</colorinfo>
					<labels><label2>Iris</label2></labels></clipitem>
					<clipitem id="clipitem-88">
						<masterclipid>clipitem-4-214</masterclipid>
						<name>Travis_Kelce_ANNOUNCE_WEDDING_DATE_with_Taylor_Swift_Why_He_was_Delaying_all_Along.mp4</name>
						<enabled>TRUE</enabled>
						<duration>150</duration>
						<rate>
							<timebase>25</timebase>
							<ntsc>FALSE</ntsc>
						</rate>
						<start>51750</start>
						<end>51900</end>
						<in>31950</in>
						<out>32100</out>
						<pproTicksIn>0</pproTicksIn>
						<pproTicksOut>419410897920000</pproTicksOut>
						<alphatype>none</alphatype>
						<pixelaspectratio>square</pixelaspectratio>
						<anamorphic>FALSE</anamorphic>
						<file id="file-32">
							<name>Travis_Kelce_ANNOUNCE_WEDDING_DATE_with_Taylor_Swift_Why_He_was_Delaying_all_Along.mp4</name>
							<pathurl>file://localhost/Users/themalikano/Documents/VideoAutomation/premiere_videos/Travis_Kelce_ANNOUNCE_WEDDING_DATE_with_Taylor_Swift_Why_He_was_Delaying_all_Along.mp4</pathurl>
							<rate>
								<timebase>24</timebase>
								<ntsc>FALSE</ntsc>
							</rate>
							<duration>39627</duration>
							<timecode>
								<rate>
									<timebase>24</timebase>
									<ntsc>FALSE</ntsc>
								</rate>
								<string>00:00:00:00</string>
								<frame>0</frame>
								<displayformat>NDF</displayformat>
							</timecode>
							<media>
								<video>
									<samplecharacteristics>
										<rate>
											<timebase>24</timebase>
											<ntsc>FALSE</ntsc>
										</rate>
										<width>852</width>
										<height>480</height>
										<anamorphic>FALSE</anamorphic>
										<pixelaspectratio>square</pixelaspectratio>
										<fielddominance>none</fielddominance>
									</samplecharacteristics>
								</video>
								<audio>
									<samplecharacteristics>
										<depth>16</depth>
										<samplerate>44100</samplerate>
									</samplecharacteristics>
									<channelcount>2</channelcount>
								</audio>
							</media>
						</file>
						<filter>
							<effect>
								<name>Basic Motion</name>
								<effectid>basic</effectid>
								<effectcategory>motion</effectcategory>
								<effecttype>motion</effecttype>
								<mediatype>video</mediatype>
								<pproBypass>false</pproBypass>
								<parameter authoringApp="PremierePro">
									<parameterid>scale</parameterid>
									<name>Scale</name>
									<valuemin>0</valuemin>
									<valuemax>1000</valuemax>
									<value>225</value>
								</parameter>
								<parameter authoringApp="PremierePro">
									<parameterid>rotation</parameterid>
									<name>Rotation</name>
									<valuemin>-8640</valuemin>
									<valuemax>8640</valuemax>
									<value>0</value>
								</parameter>
								<parameter authoringApp="PremierePro">
									<parameterid>center</parameterid>
									<name>Center</name>
									<value>
										<horiz>0</horiz>
										<vert>0</vert>
									</value>
								</parameter>
								<parameter authoringApp="PremierePro">
									<parameterid>centerOffset</parameterid>
									<name>Anchor Point</name>
									<value>
										<horiz>0</horiz>
										<vert>0</vert>
									</value>
								</parameter>
								<parameter authoringApp="PremierePro">
									<parameterid>antiflicker</parameterid>
									<name>Anti-flicker Filter</name>
									<valuemin>0.0</valuemin>
									<valuemax>1.0</valuemax>
									<value>0</value>
								</parameter>
							</effect>
						</filter>
						<link>
							<linkclipref>clipitem-88</linkclipref>
							<mediatype>video</mediatype>
							<trackindex>1</trackindex>
							<clipindex>4</clipindex>
						</link>
						<link>
							<linkclipref>clipitem-96</linkclipref>
							<mediatype>audio</mediatype>
							<trackindex>1</trackindex>
							<clipindex>4</clipindex>
							<groupindex>1</groupindex>
						</link>
						<link>
							<linkclipref>clipitem-104</linkclipref>
							<mediatype>audio</mediatype>
							<trackindex>2</trackindex>
							<clipindex>4</clipindex>
							<groupindex>1</groupindex>
						</link>
						<logginginfo>
							<description />
							<scene />
							<shottake />
							<lognote />
							<good />
							<originalvideofilename />
							<originalaudiofilename />
						</logginginfo>
						<colorinfo>
							<lut />
							<lut1 />
							<asc_sop />
							<asc_sat />
							<lut2 />
						</colorinfo>
					<labels><label2>Lavender</label2></labels></clipitem>
					<clipitem id="clipitem-87">
						<masterclipid>clipitem-3-524</masterclipid>
						<name>Taylor_Swift_Travis_Kelce_-_The_New_Power_Couple.mp4</name>
						<enabled>TRUE</enabled>
						<duration>150</duration>
						<rate>
							<timebase>25</timebase>
							<ntsc>FALSE</ntsc>
						</rate>
						<start>51900</start>
						<end>52050</end>
						<in>78450</in>
						<out>78600</out>
						<pproTicksIn>0</pproTicksIn>
						<pproTicksOut>875013995520000</pproTicksOut>
						<alphatype>none</alphatype>
						<pixelaspectratio>square</pixelaspectratio>
						<anamorphic>FALSE</anamorphic>
						<file id="file-31">
							<name>Taylor_Swift_Travis_Kelce_-_The_New_Power_Couple.mp4</name>
							<pathurl>file://localhost/Users/themalikano/Documents/VideoAutomation/premiere_videos/Taylor_Swift_Travis_Kelce_-_The_New_Power_Couple.mp4</pathurl>
							<rate>
								<timebase>25</timebase>
								<ntsc>FALSE</ntsc>
							</rate>
							<duration>86118</duration>
							<timecode>
								<rate>
									<timebase>25</timebase>
									<ntsc>FALSE</ntsc>
								</rate>
								<string>00:00:00:00</string>
								<frame>0</frame>
								<displayformat>NDF</displayformat>
							</timecode>
							<media>
								<video>
									<samplecharacteristics>
										<rate>
											<timebase>25</timebase>
											<ntsc>FALSE</ntsc>
										</rate>
										<width>1920</width>
										<height>1080</height>
										<anamorphic>FALSE</anamorphic>
										<pixelaspectratio>square</pixelaspectratio>
										<fielddominance>none</fielddominance>
									</samplecharacteristics>
								</video>
								<audio>
									<samplecharacteristics>
										<depth>16</depth>
										<samplerate>44100</samplerate>
									</samplecharacteristics>
									<channelcount>2</channelcount>
								</audio>
							</media>
						</file>
						<link>
							<linkclipref>clipitem-87</linkclipref>
							<mediatype>video</mediatype>
							<trackindex>1</trackindex>
							<clipindex>3</clipindex>
						</link>
						<link>
							<linkclipref>clipitem-95</linkclipref>
							<mediatype>audio</mediatype>
							<trackindex>1</trackindex>
							<clipindex>3</clipindex>
							<groupindex>1</groupindex>
						</link>
						<link>
							<linkclipref>clipitem-103</linkclipref>
							<mediatype>audio</mediatype>
							<trackindex>2</trackindex>
							<clipindex>3</clipindex>
							<groupindex>1</groupindex>
						</link>
						<logginginfo>
							<description />
							<scene />
							<shottake />
							<lognote />
							<good />
							<originalvideofilename />
							<originalaudiofilename />
						</logginginfo>
						<colorinfo>
							<lut />
							<lut1 />
							<asc_sop />
							<asc_sat />
							<lut2 />
						</colorinfo>
					<labels><label2>Caribbean</label2></labels></clipitem>
					<clipitem id="clipitem-88">
						<masterclipid>clipitem-4-26</masterclipid>
						<name>Travis_Kelce_ANNOUNCE_WEDDING_DATE_with_Taylor_Swift_Why_He_was_Delaying_all_Along.mp4</name>
						<enabled>TRUE</enabled>
						<duration>150</duration>
						<rate>
							<timebase>25</timebase>
							<ntsc>FALSE</ntsc>
						</rate>
						<start>52050</start>
						<end>52200</end>
						<in>3750</in>
						<out>3900</out>
						<pproTicksIn>0</pproTicksIn>
						<pproTicksOut>419410897920000</pproTicksOut>
						<alphatype>none</alphatype>
						<pixelaspectratio>square</pixelaspectratio>
						<anamorphic>FALSE</anamorphic>
						<file id="file-32">
							<name>Travis_Kelce_ANNOUNCE_WEDDING_DATE_with_Taylor_Swift_Why_He_was_Delaying_all_Along.mp4</name>
							<pathurl>file://localhost/Users/themalikano/Documents/VideoAutomation/premiere_videos/Travis_Kelce_ANNOUNCE_WEDDING_DATE_with_Taylor_Swift_Why_He_was_Delaying_all_Along.mp4</pathurl>
							<rate>
								<timebase>24</timebase>
								<ntsc>FALSE</ntsc>
							</rate>
							<duration>39627</duration>
							<timecode>
								<rate>
									<timebase>24</timebase>
									<ntsc>FALSE</ntsc>
								</rate>
								<string>00:00:00:00</string>
								<frame>0</frame>
								<displayformat>NDF</displayformat>
							</timecode>
							<media>
								<video>
									<samplecharacteristics>
										<rate>
											<timebase>24</timebase>
											<ntsc>FALSE</ntsc>
										</rate>
										<width>852</width>
										<height>480</height>
										<anamorphic>FALSE</anamorphic>
										<pixelaspectratio>square</pixelaspectratio>
										<fielddominance>none</fielddominance>
									</samplecharacteristics>
								</video>
								<audio>
									<samplecharacteristics>
										<depth>16</depth>
										<samplerate>44100</samplerate>
									</samplecharacteristics>
									<channelcount>2</channelcount>
								</audio>
							</media>
						</file>
						<filter>
							<effect>
								<name>Basic Motion</name>
								<effectid>basic</effectid>
								<effectcategory>motion</effectcategory>
								<effecttype>motion</effecttype>
								<mediatype>video</mediatype>
								<pproBypass>false</pproBypass>
								<parameter authoringApp="PremierePro">
									<parameterid>scale</parameterid>
									<name>Scale</name>
									<valuemin>0</valuemin>
									<valuemax>1000</valuemax>
									<value>225</value>
								</parameter>
								<parameter authoringApp="PremierePro">
									<parameterid>rotation</parameterid>
									<name>Rotation</name>
									<valuemin>-8640</valuemin>
									<valuemax>8640</valuemax>
									<value>0</value>
								</parameter>
								<parameter authoringApp="PremierePro">
									<parameterid>center</parameterid>
									<name>Center</name>
									<value>
										<horiz>0</horiz>
										<vert>0</vert>
									</value>
								</parameter>
								<parameter authoringApp="PremierePro">
									<parameterid>centerOffset</parameterid>
									<name>Anchor Point</name>
									<value>
										<horiz>0</horiz>
										<vert>0</vert>
									</value>
								</parameter>
								<parameter authoringApp="PremierePro">
									<parameterid>antiflicker</parameterid>
									<name>Anti-flicker Filter</name>
									<valuemin>0.0</valuemin>
									<valuemax>1.0</valuemax>
									<value>0</value>
								</parameter>
							</effect>
						</filter>
						<link>
							<linkclipref>clipitem-88</linkclipref>
							<mediatype>video</mediatype>
							<trackindex>1</trackindex>
							<clipindex>4</clipindex>
						</link>
						<link>
							<linkclipref>clipitem-96</linkclipref>
							<mediatype>audio</mediatype>
							<trackindex>1</trackindex>
							<clipindex>4</clipindex>
							<groupindex>1</groupindex>
						</link>
						<link>
							<linkclipref>clipitem-104</linkclipref>
							<mediatype>audio</mediatype>
							<trackindex>2</trackindex>
							<clipindex>4</clipindex>
							<groupindex>1</groupindex>
						</link>
						<logginginfo>
							<description />
							<scene />
							<shottake />
							<lognote />
							<good />
							<originalvideofilename />
							<originalaudiofilename />
						</logginginfo>
						<colorinfo>
							<lut />
							<lut1 />
							<asc_sop />
							<asc_sat />
							<lut2 />
						</colorinfo>
					<labels><label2>Lavender</label2></labels></clipitem>
					<clipitem id="clipitem-90">
						<masterclipid>clipitem-6-43</masterclipid>
						<name>Travis_Kelce_talks_about_postponing_his_wedding_to_Fiance_Taylor_Swift_on_the_New_Heights_Podcast.mp4</name>
						<enabled>TRUE</enabled>
						<duration>150</duration>
						<rate>
							<timebase>25</timebase>
							<ntsc>FALSE</ntsc>
						</rate>
						<start>52200</start>
						<end>52350</end>
						<in>6300</in>
						<out>6450</out>
						<pproTicksIn>0</pproTicksIn>
						<pproTicksOut>149391889920000</pproTicksOut>
						<alphatype>none</alphatype>
						<pixelaspectratio>square</pixelaspectratio>
						<anamorphic>FALSE</anamorphic>
						<file id="file-34">
							<name>Travis_Kelce_talks_about_postponing_his_wedding_to_Fiance_Taylor_Swift_on_the_New_Heights_Podcast.mp4</name>
							<pathurl>file://localhost/Users/themalikano/Documents/VideoAutomation/premiere_videos/Travis_Kelce_talks_about_postponing_his_wedding_to_Fiance_Taylor_Swift_on_the_New_Heights_Podcast.mp4</pathurl>
							<rate>
								<timebase>30</timebase>
								<ntsc>FALSE</ntsc>
							</rate>
							<duration>17644</duration>
							<timecode>
								<rate>
									<timebase>30</timebase>
									<ntsc>FALSE</ntsc>
								</rate>
								<string>00:00:00:00</string>
								<frame>0</frame>
								<displayformat>NDF</displayformat>
							</timecode>
							<media>
								<video>
									<samplecharacteristics>
										<rate>
											<timebase>30</timebase>
											<ntsc>FALSE</ntsc>
										</rate>
										<width>1920</width>
										<height>1080</height>
										<anamorphic>FALSE</anamorphic>
										<pixelaspectratio>square</pixelaspectratio>
										<fielddominance>none</fielddominance>
									</samplecharacteristics>
								</video>
								<audio>
									<samplecharacteristics>
										<depth>16</depth>
										<samplerate>44100</samplerate>
									</samplecharacteristics>
									<channelcount>2</channelcount>
								</audio>
							</media>
						</file>
						<link>
							<linkclipref>clipitem-90</linkclipref>
							<mediatype>video</mediatype>
							<trackindex>1</trackindex>
							<clipindex>6</clipindex>
						</link>
						<link>
							<linkclipref>clipitem-98</linkclipref>
							<mediatype>audio</mediatype>
							<trackindex>1</trackindex>
							<clipindex>6</clipindex>
							<groupindex>1</groupindex>
						</link>
						<link>
							<linkclipref>clipitem-106</linkclipref>
							<mediatype>audio</mediatype>
							<trackindex>2</trackindex>
							<clipindex>6</clipindex>
							<groupindex>1</groupindex>
						</link>
						<logginginfo>
							<description />
							<scene />
							<shottake />
							<lognote />
							<good />
							<originalvideofilename />
							<originalaudiofilename />
						</logginginfo>
						<colorinfo>
							<lut />
							<lut1 />
							<asc_sop />
							<asc_sat />
							<lut2 />
						</colorinfo>
					<labels><label2>Forest</label2></labels></clipitem>
					<clipitem id="clipitem-87">
						<masterclipid>clipitem-3-150</masterclipid>
						<name>Taylor_Swift_Travis_Kelce_-_The_New_Power_Couple.mp4</name>
						<enabled>TRUE</enabled>
						<duration>150</duration>
						<rate>
							<timebase>25</timebase>
							<ntsc>FALSE</ntsc>
						</rate>
						<start>52350</start>
						<end>52500</end>
						<in>22350</in>
						<out>22500</out>
						<pproTicksIn>0</pproTicksIn>
						<pproTicksOut>875013995520000</pproTicksOut>
						<alphatype>none</alphatype>
						<pixelaspectratio>square</pixelaspectratio>
						<anamorphic>FALSE</anamorphic>
						<file id="file-31">
							<name>Taylor_Swift_Travis_Kelce_-_The_New_Power_Couple.mp4</name>
							<pathurl>file://localhost/Users/themalikano/Documents/VideoAutomation/premiere_videos/Taylor_Swift_Travis_Kelce_-_The_New_Power_Couple.mp4</pathurl>
							<rate>
								<timebase>25</timebase>
								<ntsc>FALSE</ntsc>
							</rate>
							<duration>86118</duration>
							<timecode>
								<rate>
									<timebase>25</timebase>
									<ntsc>FALSE</ntsc>
								</rate>
								<string>00:00:00:00</string>
								<frame>0</frame>
								<displayformat>NDF</displayformat>
							</timecode>
							<media>
								<video>
									<samplecharacteristics>
										<rate>
											<timebase>25</timebase>
											<ntsc>FALSE</ntsc>
										</rate>
										<width>1920</width>
										<height>1080</height>
										<anamorphic>FALSE</anamorphic>
										<pixelaspectratio>square</pixelaspectratio>
										<fielddominance>none</fielddominance>
									</samplecharacteristics>
								</video>
								<audio>
									<samplecharacteristics>
										<depth>16</depth>
										<samplerate>44100</samplerate>
									</samplecharacteristics>
									<channelcount>2</channelcount>
								</audio>
							</media>
						</file>
						<link>
							<linkclipref>clipitem-87</linkclipref>
							<mediatype>video</mediatype>
							<trackindex>1</trackindex>
							<clipindex>3</clipindex>
						</link>
						<link>
							<linkclipref>clipitem-95</linkclipref>
							<mediatype>audio</mediatype>
							<trackindex>1</trackindex>
							<clipindex>3</clipindex>
							<groupindex>1</groupindex>
						</link>
						<link>
							<linkclipref>clipitem-103</linkclipref>
							<mediatype>audio</mediatype>
							<trackindex>2</trackindex>
							<clipindex>3</clipindex>
							<groupindex>1</groupindex>
						</link>
						<logginginfo>
							<description />
							<scene />
							<shottake />
							<lognote />
							<good />
							<originalvideofilename />
							<originalaudiofilename />
						</logginginfo>
						<colorinfo>
							<lut />
							<lut1 />
							<asc_sop />
							<asc_sat />
							<lut2 />
						</colorinfo>
					<labels><label2>Caribbean</label2></labels></clipitem>
					<clipitem id="clipitem-90">
						<masterclipid>clipitem-6-78</masterclipid>
						<name>Travis_Kelce_talks_about_postponing_his_wedding_to_Fiance_Taylor_Swift_on_the_New_Heights_Podcast.mp4</name>
						<enabled>TRUE</enabled>
						<duration>150</duration>
						<rate>
							<timebase>25</timebase>
							<ntsc>FALSE</ntsc>
						</rate>
						<start>52500</start>
						<end>52650</end>
						<in>11550</in>
						<out>11700</out>
						<pproTicksIn>0</pproTicksIn>
						<pproTicksOut>149391889920000</pproTicksOut>
						<alphatype>none</alphatype>
						<pixelaspectratio>square</pixelaspectratio>
						<anamorphic>FALSE</anamorphic>
						<file id="file-34">
							<name>Travis_Kelce_talks_about_postponing_his_wedding_to_Fiance_Taylor_Swift_on_the_New_Heights_Podcast.mp4</name>
							<pathurl>file://localhost/Users/themalikano/Documents/VideoAutomation/premiere_videos/Travis_Kelce_talks_about_postponing_his_wedding_to_Fiance_Taylor_Swift_on_the_New_Heights_Podcast.mp4</pathurl>
							<rate>
								<timebase>30</timebase>
								<ntsc>FALSE</ntsc>
							</rate>
							<duration>17644</duration>
							<timecode>
								<rate>
									<timebase>30</timebase>
									<ntsc>FALSE</ntsc>
								</rate>
								<string>00:00:00:00</string>
								<frame>0</frame>
								<displayformat>NDF</displayformat>
							</timecode>
							<media>
								<video>
									<samplecharacteristics>
										<rate>
											<timebase>30</timebase>
											<ntsc>FALSE</ntsc>
										</rate>
										<width>1920</width>
										<height>1080</height>
										<anamorphic>FALSE</anamorphic>
										<pixelaspectratio>square</pixelaspectratio>
										<fielddominance>none</fielddominance>
									</samplecharacteristics>
								</video>
								<audio>
									<samplecharacteristics>
										<depth>16</depth>
										<samplerate>44100</samplerate>
									</samplecharacteristics>
									<channelcount>2</channelcount>
								</audio>
							</media>
						</file>
						<link>
							<linkclipref>clipitem-90</linkclipref>
							<mediatype>video</mediatype>
							<trackindex>1</trackindex>
							<clipindex>6</clipindex>
						</link>
						<link>
							<linkclipref>clipitem-98</linkclipref>
							<mediatype>audio</mediatype>
							<trackindex>1</trackindex>
							<clipindex>6</clipindex>
							<groupindex>1</groupindex>
						</link>
						<link>
							<linkclipref>clipitem-106</linkclipref>
							<mediatype>audio</mediatype>
							<trackindex>2</trackindex>
							<clipindex>6</clipindex>
							<groupindex>1</groupindex>
						</link>
						<logginginfo>
							<description />
							<scene />
							<shottake />
							<lognote />
							<good />
							<originalvideofilename />
							<originalaudiofilename />
						</logginginfo>
						<colorinfo>
							<lut />
							<lut1 />
							<asc_sop />
							<asc_sat />
							<lut2 />
						</colorinfo>
					<labels><label2>Forest</label2></labels></clipitem>
					<clipitem id="clipitem-88">
						<masterclipid>clipitem-4-3</masterclipid>
						<name>Travis_Kelce_ANNOUNCE_WEDDING_DATE_with_Taylor_Swift_Why_He_was_Delaying_all_Along.mp4</name>
						<enabled>TRUE</enabled>
						<duration>150</duration>
						<rate>
							<timebase>25</timebase>
							<ntsc>FALSE</ntsc>
						</rate>
						<start>52650</start>
						<end>52800</end>
						<in>300</in>
						<out>450</out>
						<pproTicksIn>0</pproTicksIn>
						<pproTicksOut>419410897920000</pproTicksOut>
						<alphatype>none</alphatype>
						<pixelaspectratio>square</pixelaspectratio>
						<anamorphic>FALSE</anamorphic>
						<file id="file-32">
							<name>Travis_Kelce_ANNOUNCE_WEDDING_DATE_with_Taylor_Swift_Why_He_was_Delaying_all_Along.mp4</name>
							<pathurl>file://localhost/Users/themalikano/Documents/VideoAutomation/premiere_videos/Travis_Kelce_ANNOUNCE_WEDDING_DATE_with_Taylor_Swift_Why_He_was_Delaying_all_Along.mp4</pathurl>
							<rate>
								<timebase>24</timebase>
								<ntsc>FALSE</ntsc>
							</rate>
							<duration>39627</duration>
							<timecode>
								<rate>
									<timebase>24</timebase>
									<ntsc>FALSE</ntsc>
								</rate>
								<string>00:00:00:00</string>
								<frame>0</frame>
								<displayformat>NDF</displayformat>
							</timecode>
							<media>
								<video>
									<samplecharacteristics>
										<rate>
											<timebase>24</timebase>
											<ntsc>FALSE</ntsc>
										</rate>
										<width>852</width>
										<height>480</height>
										<anamorphic>FALSE</anamorphic>
										<pixelaspectratio>square</pixelaspectratio>
										<fielddominance>none</fielddominance>
									</samplecharacteristics>
								</video>
								<audio>
									<samplecharacteristics>
										<depth>16</depth>
										<samplerate>44100</samplerate>
									</samplecharacteristics>
									<channelcount>2</channelcount>
								</audio>
							</media>
						</file>
						<filter>
							<effect>
								<name>Basic Motion</name>
								<effectid>basic</effectid>
								<effectcategory>motion</effectcategory>
								<effecttype>motion</effecttype>
								<mediatype>video</mediatype>
								<pproBypass>false</pproBypass>
								<parameter authoringApp="PremierePro">
									<parameterid>scale</parameterid>
									<name>Scale</name>
									<valuemin>0</valuemin>
									<valuemax>1000</valuemax>
									<value>225</value>
								</parameter>
								<parameter authoringApp="PremierePro">
									<parameterid>rotation</parameterid>
									<name>Rotation</name>
									<valuemin>-8640</valuemin>
									<valuemax>8640</valuemax>
									<value>0</value>
								</parameter>
								<parameter authoringApp="PremierePro">
									<parameterid>center</parameterid>
									<name>Center</name>
									<value>
										<horiz>0</horiz>
										<vert>0</vert>
									</value>
								</parameter>
								<parameter authoringApp="PremierePro">
									<parameterid>centerOffset</parameterid>
									<name>Anchor Point</name>
									<value>
										<horiz>0</horiz>
										<vert>0</vert>
									</value>
								</parameter>
								<parameter authoringApp="PremierePro">
									<parameterid>antiflicker</parameterid>
									<name>Anti-flicker Filter</name>
									<valuemin>0.0</valuemin>
									<valuemax>1.0</valuemax>
									<value>0</value>
								</parameter>
							</effect>
						</filter>
						<link>
							<linkclipref>clipitem-88</linkclipref>
							<mediatype>video</mediatype>
							<trackindex>1</trackindex>
							<clipindex>4</clipindex>
						</link>
						<link>
							<linkclipref>clipitem-96</linkclipref>
							<mediatype>audio</mediatype>
							<trackindex>1</trackindex>
							<clipindex>4</clipindex>
							<groupindex>1</groupindex>
						</link>
						<link>
							<linkclipref>clipitem-104</linkclipref>
							<mediatype>audio</mediatype>
							<trackindex>2</trackindex>
							<clipindex>4</clipindex>
							<groupindex>1</groupindex>
						</link>
						<logginginfo>
							<description />
							<scene />
							<shottake />
							<lognote />
							<good />
							<originalvideofilename />
							<originalaudiofilename />
						</logginginfo>
						<colorinfo>
							<lut />
							<lut1 />
							<asc_sop />
							<asc_sat />
							<lut2 />
						</colorinfo>
					<labels><label2>Lavender</label2></labels></clipitem>
					<clipitem id="clipitem-86">
						<masterclipid>clipitem-2-63</masterclipid>
						<name>Taylor_Swift_Shares_The_Story_Of_Calling_Travis_Kelce_For_The_First_Time.mp4</name>
						<enabled>TRUE</enabled>
						<duration>150</duration>
						<rate>
							<timebase>25</timebase>
							<ntsc>FALSE</ntsc>
						</rate>
						<start>52800</start>
						<end>52950</end>
						<in>9300</in>
						<out>9450</out>
						<pproTicksIn>0</pproTicksIn>
						<pproTicksOut>236438092800000</pproTicksOut>
						<alphatype>none</alphatype>
						<pixelaspectratio>square</pixelaspectratio>
						<anamorphic>FALSE</anamorphic>
						<file id="file-30">
							<name>Taylor_Swift_Shares_The_Story_Of_Calling_Travis_Kelce_For_The_First_Time.mp4</name>
							<pathurl>file://localhost/Users/themalikano/Documents/VideoAutomation/premiere_videos/Taylor_Swift_Shares_The_Story_Of_Calling_Travis_Kelce_For_The_First_Time.mp4</pathurl>
							<rate>
								<timebase>30</timebase>
								<ntsc>TRUE</ntsc>
							</rate>
							<duration>27897</duration>
							<timecode>
								<rate>
									<timebase>30</timebase>
									<ntsc>TRUE</ntsc>
								</rate>
								<string>00:00:00:00</string>
								<frame>0</frame>
								<displayformat>NDF</displayformat>
							</timecode>
							<media>
								<video>
									<samplecharacteristics>
										<rate>
											<timebase>30</timebase>
											<ntsc>TRUE</ntsc>
										</rate>
										<width>1920</width>
										<height>1080</height>
										<anamorphic>FALSE</anamorphic>
										<pixelaspectratio>square</pixelaspectratio>
										<fielddominance>none</fielddominance>
									</samplecharacteristics>
								</video>
								<audio>
									<samplecharacteristics>
										<depth>16</depth>
										<samplerate>44100</samplerate>
									</samplecharacteristics>
									<channelcount>2</channelcount>
								</audio>
							</media>
						</file>
						<link>
							<linkclipref>clipitem-86</linkclipref>
							<mediatype>video</mediatype>
							<trackindex>1</trackindex>
							<clipindex>2</clipindex>
						</link>
						<link>
							<linkclipref>clipitem-94</linkclipref>
							<mediatype>audio</mediatype>
							<trackindex>1</trackindex>
							<clipindex>2</clipindex>
							<groupindex>1</groupindex>
						</link>
						<link>
							<linkclipref>clipitem-102</linkclipref>
							<mediatype>audio</mediatype>
							<trackindex>2</trackindex>
							<clipindex>2</clipindex>
							<groupindex>1</groupindex>
						</link>
						<logginginfo>
							<description />
							<scene />
							<shottake />
							<lognote />
							<good />
							<originalvideofilename />
							<originalaudiofilename />
						</logginginfo>
						<colorinfo>
							<lut />
							<lut1 />
							<asc_sop />
							<asc_sat />
							<lut2 />
						</colorinfo>
					<labels><label2>Iris</label2></labels></clipitem>
					<clipitem id="clipitem-87">
						<masterclipid>clipitem-3-24</masterclipid>
						<name>Taylor_Swift_Travis_Kelce_-_The_New_Power_Couple.mp4</name>
						<enabled>TRUE</enabled>
						<duration>150</duration>
						<rate>
							<timebase>25</timebase>
							<ntsc>FALSE</ntsc>
						</rate>
						<start>52950</start>
						<end>53100</end>
						<in>3450</in>
						<out>3600</out>
						<pproTicksIn>0</pproTicksIn>
						<pproTicksOut>875013995520000</pproTicksOut>
						<alphatype>none</alphatype>
						<pixelaspectratio>square</pixelaspectratio>
						<anamorphic>FALSE</anamorphic>
						<file id="file-31">
							<name>Taylor_Swift_Travis_Kelce_-_The_New_Power_Couple.mp4</name>
							<pathurl>file://localhost/Users/themalikano/Documents/VideoAutomation/premiere_videos/Taylor_Swift_Travis_Kelce_-_The_New_Power_Couple.mp4</pathurl>
							<rate>
								<timebase>25</timebase>
								<ntsc>FALSE</ntsc>
							</rate>
							<duration>86118</duration>
							<timecode>
								<rate>
									<timebase>25</timebase>
									<ntsc>FALSE</ntsc>
								</rate>
								<string>00:00:00:00</string>
								<frame>0</frame>
								<displayformat>NDF</displayformat>
							</timecode>
							<media>
								<video>
									<samplecharacteristics>
										<rate>
											<timebase>25</timebase>
											<ntsc>FALSE</ntsc>
										</rate>
										<width>1920</width>
										<height>1080</height>
										<anamorphic>FALSE</anamorphic>
										<pixelaspectratio>square</pixelaspectratio>
										<fielddominance>none</fielddominance>
									</samplecharacteristics>
								</video>
								<audio>
									<samplecharacteristics>
										<depth>16</depth>
										<samplerate>44100</samplerate>
									</samplecharacteristics>
									<channelcount>2</channelcount>
								</audio>
							</media>
						</file>
						<link>
							<linkclipref>clipitem-87</linkclipref>
							<mediatype>video</mediatype>
							<trackindex>1</trackindex>
							<clipindex>3</clipindex>
						</link>
						<link>
							<linkclipref>clipitem-95</linkclipref>
							<mediatype>audio</mediatype>
							<trackindex>1</trackindex>
							<clipindex>3</clipindex>
							<groupindex>1</groupindex>
						</link>
						<link>
							<linkclipref>clipitem-103</linkclipref>
							<mediatype>audio</mediatype>
							<trackindex>2</trackindex>
							<clipindex>3</clipindex>
							<groupindex>1</groupindex>
						</link>
						<logginginfo>
							<description />
							<scene />
							<shottake />
							<lognote />
							<good />
							<originalvideofilename />
							<originalaudiofilename />
						</logginginfo>
						<colorinfo>
							<lut />
							<lut1 />
							<asc_sop />
							<asc_sat />
							<lut2 />
						</colorinfo>
					<labels><label2>Caribbean</label2></labels></clipitem>
					<clipitem id="clipitem-86">
						<masterclipid>clipitem-2-75</masterclipid>
						<name>Taylor_Swift_Shares_The_Story_Of_Calling_Travis_Kelce_For_The_First_Time.mp4</name>
						<enabled>TRUE</enabled>
						<duration>150</duration>
						<rate>
							<timebase>25</timebase>
							<ntsc>FALSE</ntsc>
						</rate>
						<start>53100</start>
						<end>53250</end>
						<in>11100</in>
						<out>11250</out>
						<pproTicksIn>0</pproTicksIn>
						<pproTicksOut>236438092800000</pproTicksOut>
						<alphatype>none</alphatype>
						<pixelaspectratio>square</pixelaspectratio>
						<anamorphic>FALSE</anamorphic>
						<file id="file-30">
							<name>Taylor_Swift_Shares_The_Story_Of_Calling_Travis_Kelce_For_The_First_Time.mp4</name>
							<pathurl>file://localhost/Users/themalikano/Documents/VideoAutomation/premiere_videos/Taylor_Swift_Shares_The_Story_Of_Calling_Travis_Kelce_For_The_First_Time.mp4</pathurl>
							<rate>
								<timebase>30</timebase>
								<ntsc>TRUE</ntsc>
							</rate>
							<duration>27897</duration>
							<timecode>
								<rate>
									<timebase>30</timebase>
									<ntsc>TRUE</ntsc>
								</rate>
								<string>00:00:00:00</string>
								<frame>0</frame>
								<displayformat>NDF</displayformat>
							</timecode>
							<media>
								<video>
									<samplecharacteristics>
										<rate>
											<timebase>30</timebase>
											<ntsc>TRUE</ntsc>
										</rate>
										<width>1920</width>
										<height>1080</height>
										<anamorphic>FALSE</anamorphic>
										<pixelaspectratio>square</pixelaspectratio>
										<fielddominance>none</fielddominance>
									</samplecharacteristics>
								</video>
								<audio>
									<samplecharacteristics>
										<depth>16</depth>
										<samplerate>44100</samplerate>
									</samplecharacteristics>
									<channelcount>2</channelcount>
								</audio>
							</media>
						</file>
						<link>
							<linkclipref>clipitem-86</linkclipref>
							<mediatype>video</mediatype>
							<trackindex>1</trackindex>
							<clipindex>2</clipindex>
						</link>
						<link>
							<linkclipref>clipitem-94</linkclipref>
							<mediatype>audio</mediatype>
							<trackindex>1</trackindex>
							<clipindex>2</clipindex>
							<groupindex>1</groupindex>
						</link>
						<link>
							<linkclipref>clipitem-102</linkclipref>
							<mediatype>audio</mediatype>
							<trackindex>2</trackindex>
							<clipindex>2</clipindex>
							<groupindex>1</groupindex>
						</link>
						<logginginfo>
							<description />
							<scene />
							<shottake />
							<lognote />
							<good />
							<originalvideofilename />
							<originalaudiofilename />
						</logginginfo>
						<colorinfo>
							<lut />
							<lut1 />
							<asc_sop />
							<asc_sat />
							<lut2 />
						</colorinfo>
					<labels><label2>Iris</label2></labels></clipitem>
					<clipitem id="clipitem-88">
						<masterclipid>clipitem-4-88</masterclipid>
						<name>Travis_Kelce_ANNOUNCE_WEDDING_DATE_with_Taylor_Swift_Why_He_was_Delaying_all_Along.mp4</name>
						<enabled>TRUE</enabled>
						<duration>150</duration>
						<rate>
							<timebase>25</timebase>
							<ntsc>FALSE</ntsc>
						</rate>
						<start>53250</start>
						<end>53400</end>
						<in>13050</in>
						<out>13200</out>
						<pproTicksIn>0</pproTicksIn>
						<pproTicksOut>419410897920000</pproTicksOut>
						<alphatype>none</alphatype>
						<pixelaspectratio>square</pixelaspectratio>
						<anamorphic>FALSE</anamorphic>
						<file id="file-32">
							<name>Travis_Kelce_ANNOUNCE_WEDDING_DATE_with_Taylor_Swift_Why_He_was_Delaying_all_Along.mp4</name>
							<pathurl>file://localhost/Users/themalikano/Documents/VideoAutomation/premiere_videos/Travis_Kelce_ANNOUNCE_WEDDING_DATE_with_Taylor_Swift_Why_He_was_Delaying_all_Along.mp4</pathurl>
							<rate>
								<timebase>24</timebase>
								<ntsc>FALSE</ntsc>
							</rate>
							<duration>39627</duration>
							<timecode>
								<rate>
									<timebase>24</timebase>
									<ntsc>FALSE</ntsc>
								</rate>
								<string>00:00:00:00</string>
								<frame>0</frame>
								<displayformat>NDF</displayformat>
							</timecode>
							<media>
								<video>
									<samplecharacteristics>
										<rate>
											<timebase>24</timebase>
											<ntsc>FALSE</ntsc>
										</rate>
										<width>852</width>
										<height>480</height>
										<anamorphic>FALSE</anamorphic>
										<pixelaspectratio>square</pixelaspectratio>
										<fielddominance>none</fielddominance>
									</samplecharacteristics>
								</video>
								<audio>
									<samplecharacteristics>
										<depth>16</depth>
										<samplerate>44100</samplerate>
									</samplecharacteristics>
									<channelcount>2</channelcount>
								</audio>
							</media>
						</file>
						<filter>
							<effect>
								<name>Basic Motion</name>
								<effectid>basic</effectid>
								<effectcategory>motion</effectcategory>
								<effecttype>motion</effecttype>
								<mediatype>video</mediatype>
								<pproBypass>false</pproBypass>
								<parameter authoringApp="PremierePro">
									<parameterid>scale</parameterid>
									<name>Scale</name>
									<valuemin>0</valuemin>
									<valuemax>1000</valuemax>
									<value>225</value>
								</parameter>
								<parameter authoringApp="PremierePro">
									<parameterid>rotation</parameterid>
									<name>Rotation</name>
									<valuemin>-8640</valuemin>
									<valuemax>8640</valuemax>
									<value>0</value>
								</parameter>
								<parameter authoringApp="PremierePro">
									<parameterid>center</parameterid>
									<name>Center</name>
									<value>
										<horiz>0</horiz>
										<vert>0</vert>
									</value>
								</parameter>
								<parameter authoringApp="PremierePro">
									<parameterid>centerOffset</parameterid>
									<name>Anchor Point</name>
									<value>
										<horiz>0</horiz>
										<vert>0</vert>
									</value>
								</parameter>
								<parameter authoringApp="PremierePro">
									<parameterid>antiflicker</parameterid>
									<name>Anti-flicker Filter</name>
									<valuemin>0.0</valuemin>
									<valuemax>1.0</valuemax>
									<value>0</value>
								</parameter>
							</effect>
						</filter>
						<link>
							<linkclipref>clipitem-88</linkclipref>
							<mediatype>video</mediatype>
							<trackindex>1</trackindex>
							<clipindex>4</clipindex>
						</link>
						<link>
							<linkclipref>clipitem-96</linkclipref>
							<mediatype>audio</mediatype>
							<trackindex>1</trackindex>
							<clipindex>4</clipindex>
							<groupindex>1</groupindex>
						</link>
						<link>
							<linkclipref>clipitem-104</linkclipref>
							<mediatype>audio</mediatype>
							<trackindex>2</trackindex>
							<clipindex>4</clipindex>
							<groupindex>1</groupindex>
						</link>
						<logginginfo>
							<description />
							<scene />
							<shottake />
							<lognote />
							<good />
							<originalvideofilename />
							<originalaudiofilename />
						</logginginfo>
						<colorinfo>
							<lut />
							<lut1 />
							<asc_sop />
							<asc_sat />
							<lut2 />
						</colorinfo>
					<labels><label2>Lavender</label2></labels></clipitem>
					<clipitem id="clipitem-86">
						<masterclipid>clipitem-2-9</masterclipid>
						<name>Taylor_Swift_Shares_The_Story_Of_Calling_Travis_Kelce_For_The_First_Time.mp4</name>
						<enabled>TRUE</enabled>
						<duration>150</duration>
						<rate>
							<timebase>25</timebase>
							<ntsc>FALSE</ntsc>
						</rate>
						<start>53400</start>
						<end>53550</end>
						<in>1200</in>
						<out>1350</out>
						<pproTicksIn>0</pproTicksIn>
						<pproTicksOut>236438092800000</pproTicksOut>
						<alphatype>none</alphatype>
						<pixelaspectratio>square</pixelaspectratio>
						<anamorphic>FALSE</anamorphic>
						<file id="file-30">
							<name>Taylor_Swift_Shares_The_Story_Of_Calling_Travis_Kelce_For_The_First_Time.mp4</name>
							<pathurl>file://localhost/Users/themalikano/Documents/VideoAutomation/premiere_videos/Taylor_Swift_Shares_The_Story_Of_Calling_Travis_Kelce_For_The_First_Time.mp4</pathurl>
							<rate>
								<timebase>30</timebase>
								<ntsc>TRUE</ntsc>
							</rate>
							<duration>27897</duration>
							<timecode>
								<rate>
									<timebase>30</timebase>
									<ntsc>TRUE</ntsc>
								</rate>
								<string>00:00:00:00</string>
								<frame>0</frame>
								<displayformat>NDF</displayformat>
							</timecode>
							<media>
								<video>
									<samplecharacteristics>
										<rate>
											<timebase>30</timebase>
											<ntsc>TRUE</ntsc>
										</rate>
										<width>1920</width>
										<height>1080</height>
										<anamorphic>FALSE</anamorphic>
										<pixelaspectratio>square</pixelaspectratio>
										<fielddominance>none</fielddominance>
									</samplecharacteristics>
								</video>
								<audio>
									<samplecharacteristics>
										<depth>16</depth>
										<samplerate>44100</samplerate>
									</samplecharacteristics>
									<channelcount>2</channelcount>
								</audio>
							</media>
						</file>
						<link>
							<linkclipref>clipitem-86</linkclipref>
							<mediatype>video</mediatype>
							<trackindex>1</trackindex>
							<clipindex>2</clipindex>
						</link>
						<link>
							<linkclipref>clipitem-94</linkclipref>
							<mediatype>audio</mediatype>
							<trackindex>1</trackindex>
							<clipindex>2</clipindex>
							<groupindex>1</groupindex>
						</link>
						<link>
							<linkclipref>clipitem-102</linkclipref>
							<mediatype>audio</mediatype>
							<trackindex>2</trackindex>
							<clipindex>2</clipindex>
							<groupindex>1</groupindex>
						</link>
						<logginginfo>
							<description />
							<scene />
							<shottake />
							<lognote />
							<good />
							<originalvideofilename />
							<originalaudiofilename />
						</logginginfo>
						<colorinfo>
							<lut />
							<lut1 />
							<asc_sop />
							<asc_sat />
							<lut2 />
						</colorinfo>
					<labels><label2>Iris</label2></labels></clipitem>
					<clipitem id="clipitem-87">
						<masterclipid>clipitem-3-530</masterclipid>
						<name>Taylor_Swift_Travis_Kelce_-_The_New_Power_Couple.mp4</name>
						<enabled>TRUE</enabled>
						<duration>150</duration>
						<rate>
							<timebase>25</timebase>
							<ntsc>FALSE</ntsc>
						</rate>
						<start>53550</start>
						<end>53700</end>
						<in>79350</in>
						<out>79500</out>
						<pproTicksIn>0</pproTicksIn>
						<pproTicksOut>875013995520000</pproTicksOut>
						<alphatype>none</alphatype>
						<pixelaspectratio>square</pixelaspectratio>
						<anamorphic>FALSE</anamorphic>
						<file id="file-31">
							<name>Taylor_Swift_Travis_Kelce_-_The_New_Power_Couple.mp4</name>
							<pathurl>file://localhost/Users/themalikano/Documents/VideoAutomation/premiere_videos/Taylor_Swift_Travis_Kelce_-_The_New_Power_Couple.mp4</pathurl>
							<rate>
								<timebase>25</timebase>
								<ntsc>FALSE</ntsc>
							</rate>
							<duration>86118</duration>
							<timecode>
								<rate>
									<timebase>25</timebase>
									<ntsc>FALSE</ntsc>
								</rate>
								<string>00:00:00:00</string>
								<frame>0</frame>
								<displayformat>NDF</displayformat>
							</timecode>
							<media>
								<video>
									<samplecharacteristics>
										<rate>
											<timebase>25</timebase>
											<ntsc>FALSE</ntsc>
										</rate>
										<width>1920</width>
										<height>1080</height>
										<anamorphic>FALSE</anamorphic>
										<pixelaspectratio>square</pixelaspectratio>
										<fielddominance>none</fielddominance>
									</samplecharacteristics>
								</video>
								<audio>
									<samplecharacteristics>
										<depth>16</depth>
										<samplerate>44100</samplerate>
									</samplecharacteristics>
									<channelcount>2</channelcount>
								</audio>
							</media>
						</file>
						<link>
							<linkclipref>clipitem-87</linkclipref>
							<mediatype>video</mediatype>
							<trackindex>1</trackindex>
							<clipindex>3</clipindex>
						</link>
						<link>
							<linkclipref>clipitem-95</linkclipref>
							<mediatype>audio</mediatype>
							<trackindex>1</trackindex>
							<clipindex>3</clipindex>
							<groupindex>1</groupindex>
						</link>
						<link>
							<linkclipref>clipitem-103</linkclipref>
							<mediatype>audio</mediatype>
							<trackindex>2</trackindex>
							<clipindex>3</clipindex>
							<groupindex>1</groupindex>
						</link>
						<logginginfo>
							<description />
							<scene />
							<shottake />
							<lognote />
							<good />
							<originalvideofilename />
							<originalaudiofilename />
						</logginginfo>
						<colorinfo>
							<lut />
							<lut1 />
							<asc_sop />
							<asc_sat />
							<lut2 />
						</colorinfo>
					<labels><label2>Caribbean</label2></labels></clipitem>
					<clipitem id="clipitem-90">
						<masterclipid>clipitem-6-94</masterclipid>
						<name>Travis_Kelce_talks_about_postponing_his_wedding_to_Fiance_Taylor_Swift_on_the_New_Heights_Podcast.mp4</name>
						<enabled>TRUE</enabled>
						<duration>150</duration>
						<rate>
							<timebase>25</timebase>
							<ntsc>FALSE</ntsc>
						</rate>
						<start>53700</start>
						<end>53850</end>
						<in>13950</in>
						<out>14100</out>
						<pproTicksIn>0</pproTicksIn>
						<pproTicksOut>149391889920000</pproTicksOut>
						<alphatype>none</alphatype>
						<pixelaspectratio>square</pixelaspectratio>
						<anamorphic>FALSE</anamorphic>
						<file id="file-34">
							<name>Travis_Kelce_talks_about_postponing_his_wedding_to_Fiance_Taylor_Swift_on_the_New_Heights_Podcast.mp4</name>
							<pathurl>file://localhost/Users/themalikano/Documents/VideoAutomation/premiere_videos/Travis_Kelce_talks_about_postponing_his_wedding_to_Fiance_Taylor_Swift_on_the_New_Heights_Podcast.mp4</pathurl>
							<rate>
								<timebase>30</timebase>
								<ntsc>FALSE</ntsc>
							</rate>
							<duration>17644</duration>
							<timecode>
								<rate>
									<timebase>30</timebase>
									<ntsc>FALSE</ntsc>
								</rate>
								<string>00:00:00:00</string>
								<frame>0</frame>
								<displayformat>NDF</displayformat>
							</timecode>
							<media>
								<video>
									<samplecharacteristics>
										<rate>
											<timebase>30</timebase>
											<ntsc>FALSE</ntsc>
										</rate>
										<width>1920</width>
										<height>1080</height>
										<anamorphic>FALSE</anamorphic>
										<pixelaspectratio>square</pixelaspectratio>
										<fielddominance>none</fielddominance>
									</samplecharacteristics>
								</video>
								<audio>
									<samplecharacteristics>
										<depth>16</depth>
										<samplerate>44100</samplerate>
									</samplecharacteristics>
									<channelcount>2</channelcount>
								</audio>
							</media>
						</file>
						<link>
							<linkclipref>clipitem-90</linkclipref>
							<mediatype>video</mediatype>
							<trackindex>1</trackindex>
							<clipindex>6</clipindex>
						</link>
						<link>
							<linkclipref>clipitem-98</linkclipref>
							<mediatype>audio</mediatype>
							<trackindex>1</trackindex>
							<clipindex>6</clipindex>
							<groupindex>1</groupindex>
						</link>
						<link>
							<linkclipref>clipitem-106</linkclipref>
							<mediatype>audio</mediatype>
							<trackindex>2</trackindex>
							<clipindex>6</clipindex>
							<groupindex>1</groupindex>
						</link>
						<logginginfo>
							<description />
							<scene />
							<shottake />
							<lognote />
							<good />
							<originalvideofilename />
							<originalaudiofilename />
						</logginginfo>
						<colorinfo>
							<lut />
							<lut1 />
							<asc_sop />
							<asc_sat />
							<lut2 />
						</colorinfo>
					<labels><label2>Forest</label2></labels></clipitem>
					<clipitem id="clipitem-86">
						<masterclipid>clipitem-2-96</masterclipid>
						<name>Taylor_Swift_Shares_The_Story_Of_Calling_Travis_Kelce_For_The_First_Time.mp4</name>
						<enabled>TRUE</enabled>
						<duration>150</duration>
						<rate>
							<timebase>25</timebase>
							<ntsc>FALSE</ntsc>
						</rate>
						<start>53850</start>
						<end>54000</end>
						<in>14250</in>
						<out>14400</out>
						<pproTicksIn>0</pproTicksIn>
						<pproTicksOut>236438092800000</pproTicksOut>
						<alphatype>none</alphatype>
						<pixelaspectratio>square</pixelaspectratio>
						<anamorphic>FALSE</anamorphic>
						<file id="file-30">
							<name>Taylor_Swift_Shares_The_Story_Of_Calling_Travis_Kelce_For_The_First_Time.mp4</name>
							<pathurl>file://localhost/Users/themalikano/Documents/VideoAutomation/premiere_videos/Taylor_Swift_Shares_The_Story_Of_Calling_Travis_Kelce_For_The_First_Time.mp4</pathurl>
							<rate>
								<timebase>30</timebase>
								<ntsc>TRUE</ntsc>
							</rate>
							<duration>27897</duration>
							<timecode>
								<rate>
									<timebase>30</timebase>
									<ntsc>TRUE</ntsc>
								</rate>
								<string>00:00:00:00</string>
								<frame>0</frame>
								<displayformat>NDF</displayformat>
							</timecode>
							<media>
								<video>
									<samplecharacteristics>
										<rate>
											<timebase>30</timebase>
											<ntsc>TRUE</ntsc>
										</rate>
										<width>1920</width>
										<height>1080</height>
										<anamorphic>FALSE</anamorphic>
										<pixelaspectratio>square</pixelaspectratio>
										<fielddominance>none</fielddominance>
									</samplecharacteristics>
								</video>
								<audio>
									<samplecharacteristics>
										<depth>16</depth>
										<samplerate>44100</samplerate>
									</samplecharacteristics>
									<channelcount>2</channelcount>
								</audio>
							</media>
						</file>
						<link>
							<linkclipref>clipitem-86</linkclipref>
							<mediatype>video</mediatype>
							<trackindex>1</trackindex>
							<clipindex>2</clipindex>
						</link>
						<link>
							<linkclipref>clipitem-94</linkclipref>
							<mediatype>audio</mediatype>
							<trackindex>1</trackindex>
							<clipindex>2</clipindex>
							<groupindex>1</groupindex>
						</link>
						<link>
							<linkclipref>clipitem-102</linkclipref>
							<mediatype>audio</mediatype>
							<trackindex>2</trackindex>
							<clipindex>2</clipindex>
							<groupindex>1</groupindex>
						</link>
						<logginginfo>
							<description />
							<scene />
							<shottake />
							<lognote />
							<good />
							<originalvideofilename />
							<originalaudiofilename />
						</logginginfo>
						<colorinfo>
							<lut />
							<lut1 />
							<asc_sop />
							<asc_sat />
							<lut2 />
						</colorinfo>
					<labels><label2>Iris</label2></labels></clipitem>
					<clipitem id="clipitem-87">
						<masterclipid>clipitem-3-58</masterclipid>
						<name>Taylor_Swift_Travis_Kelce_-_The_New_Power_Couple.mp4</name>
						<enabled>TRUE</enabled>
						<duration>150</duration>
						<rate>
							<timebase>25</timebase>
							<ntsc>FALSE</ntsc>
						</rate>
						<start>54000</start>
						<end>54150</end>
						<in>8550</in>
						<out>8700</out>
						<pproTicksIn>0</pproTicksIn>
						<pproTicksOut>875013995520000</pproTicksOut>
						<alphatype>none</alphatype>
						<pixelaspectratio>square</pixelaspectratio>
						<anamorphic>FALSE</anamorphic>
						<file id="file-31">
							<name>Taylor_Swift_Travis_Kelce_-_The_New_Power_Couple.mp4</name>
							<pathurl>file://localhost/Users/themalikano/Documents/VideoAutomation/premiere_videos/Taylor_Swift_Travis_Kelce_-_The_New_Power_Couple.mp4</pathurl>
							<rate>
								<timebase>25</timebase>
								<ntsc>FALSE</ntsc>
							</rate>
							<duration>86118</duration>
							<timecode>
								<rate>
									<timebase>25</timebase>
									<ntsc>FALSE</ntsc>
								</rate>
								<string>00:00:00:00</string>
								<frame>0</frame>
								<displayformat>NDF</displayformat>
							</timecode>
							<media>
								<video>
									<samplecharacteristics>
										<rate>
											<timebase>25</timebase>
											<ntsc>FALSE</ntsc>
										</rate>
										<width>1920</width>
										<height>1080</height>
										<anamorphic>FALSE</anamorphic>
										<pixelaspectratio>square</pixelaspectratio>
										<fielddominance>none</fielddominance>
									</samplecharacteristics>
								</video>
								<audio>
									<samplecharacteristics>
										<depth>16</depth>
										<samplerate>44100</samplerate>
									</samplecharacteristics>
									<channelcount>2</channelcount>
								</audio>
							</media>
						</file>
						<link>
							<linkclipref>clipitem-87</linkclipref>
							<mediatype>video</mediatype>
							<trackindex>1</trackindex>
							<clipindex>3</clipindex>
						</link>
						<link>
							<linkclipref>clipitem-95</linkclipref>
							<mediatype>audio</mediatype>
							<trackindex>1</trackindex>
							<clipindex>3</clipindex>
							<groupindex>1</groupindex>
						</link>
						<link>
							<linkclipref>clipitem-103</linkclipref>
							<mediatype>audio</mediatype>
							<trackindex>2</trackindex>
							<clipindex>3</clipindex>
							<groupindex>1</groupindex>
						</link>
						<logginginfo>
							<description />
							<scene />
							<shottake />
							<lognote />
							<good />
							<originalvideofilename />
							<originalaudiofilename />
						</logginginfo>
						<colorinfo>
							<lut />
							<lut1 />
							<asc_sop />
							<asc_sat />
							<lut2 />
						</colorinfo>
					<labels><label2>Caribbean</label2></labels></clipitem>
					<clipitem id="clipitem-88">
						<masterclipid>clipitem-4-83</masterclipid>
						<name>Travis_Kelce_ANNOUNCE_WEDDING_DATE_with_Taylor_Swift_Why_He_was_Delaying_all_Along.mp4</name>
						<enabled>TRUE</enabled>
						<duration>150</duration>
						<rate>
							<timebase>25</timebase>
							<ntsc>FALSE</ntsc>
						</rate>
						<start>54150</start>
						<end>54300</end>
						<in>12300</in>
						<out>12450</out>
						<pproTicksIn>0</pproTicksIn>
						<pproTicksOut>419410897920000</pproTicksOut>
						<alphatype>none</alphatype>
						<pixelaspectratio>square</pixelaspectratio>
						<anamorphic>FALSE</anamorphic>
						<file id="file-32">
							<name>Travis_Kelce_ANNOUNCE_WEDDING_DATE_with_Taylor_Swift_Why_He_was_Delaying_all_Along.mp4</name>
							<pathurl>file://localhost/Users/themalikano/Documents/VideoAutomation/premiere_videos/Travis_Kelce_ANNOUNCE_WEDDING_DATE_with_Taylor_Swift_Why_He_was_Delaying_all_Along.mp4</pathurl>
							<rate>
								<timebase>24</timebase>
								<ntsc>FALSE</ntsc>
							</rate>
							<duration>39627</duration>
							<timecode>
								<rate>
									<timebase>24</timebase>
									<ntsc>FALSE</ntsc>
								</rate>
								<string>00:00:00:00</string>
								<frame>0</frame>
								<displayformat>NDF</displayformat>
							</timecode>
							<media>
								<video>
									<samplecharacteristics>
										<rate>
											<timebase>24</timebase>
											<ntsc>FALSE</ntsc>
										</rate>
										<width>852</width>
										<height>480</height>
										<anamorphic>FALSE</anamorphic>
										<pixelaspectratio>square</pixelaspectratio>
										<fielddominance>none</fielddominance>
									</samplecharacteristics>
								</video>
								<audio>
									<samplecharacteristics>
										<depth>16</depth>
										<samplerate>44100</samplerate>
									</samplecharacteristics>
									<channelcount>2</channelcount>
								</audio>
							</media>
						</file>
						<filter>
							<effect>
								<name>Basic Motion</name>
								<effectid>basic</effectid>
								<effectcategory>motion</effectcategory>
								<effecttype>motion</effecttype>
								<mediatype>video</mediatype>
								<pproBypass>false</pproBypass>
								<parameter authoringApp="PremierePro">
									<parameterid>scale</parameterid>
									<name>Scale</name>
									<valuemin>0</valuemin>
									<valuemax>1000</valuemax>
									<value>225</value>
								</parameter>
								<parameter authoringApp="PremierePro">
									<parameterid>rotation</parameterid>
									<name>Rotation</name>
									<valuemin>-8640</valuemin>
									<valuemax>8640</valuemax>
									<value>0</value>
								</parameter>
								<parameter authoringApp="PremierePro">
									<parameterid>center</parameterid>
									<name>Center</name>
									<value>
										<horiz>0</horiz>
										<vert>0</vert>
									</value>
								</parameter>
								<parameter authoringApp="PremierePro">
									<parameterid>centerOffset</parameterid>
									<name>Anchor Point</name>
									<value>
										<horiz>0</horiz>
										<vert>0</vert>
									</value>
								</parameter>
								<parameter authoringApp="PremierePro">
									<parameterid>antiflicker</parameterid>
									<name>Anti-flicker Filter</name>
									<valuemin>0.0</valuemin>
									<valuemax>1.0</valuemax>
									<value>0</value>
								</parameter>
							</effect>
						</filter>
						<link>
							<linkclipref>clipitem-88</linkclipref>
							<mediatype>video</mediatype>
							<trackindex>1</trackindex>
							<clipindex>4</clipindex>
						</link>
						<link>
							<linkclipref>clipitem-96</linkclipref>
							<mediatype>audio</mediatype>
							<trackindex>1</trackindex>
							<clipindex>4</clipindex>
							<groupindex>1</groupindex>
						</link>
						<link>
							<linkclipref>clipitem-104</linkclipref>
							<mediatype>audio</mediatype>
							<trackindex>2</trackindex>
							<clipindex>4</clipindex>
							<groupindex>1</groupindex>
						</link>
						<logginginfo>
							<description />
							<scene />
							<shottake />
							<lognote />
							<good />
							<originalvideofilename />
							<originalaudiofilename />
						</logginginfo>
						<colorinfo>
							<lut />
							<lut1 />
							<asc_sop />
							<asc_sat />
							<lut2 />
						</colorinfo>
					<labels><label2>Lavender</label2></labels></clipitem>
					<clipitem id="clipitem-86">
						<masterclipid>clipitem-2-129</masterclipid>
						<name>Taylor_Swift_Shares_The_Story_Of_Calling_Travis_Kelce_For_The_First_Time.mp4</name>
						<enabled>TRUE</enabled>
						<duration>150</duration>
						<rate>
							<timebase>25</timebase>
							<ntsc>FALSE</ntsc>
						</rate>
						<start>54300</start>
						<end>54450</end>
						<in>19200</in>
						<out>19350</out>
						<pproTicksIn>0</pproTicksIn>
						<pproTicksOut>236438092800000</pproTicksOut>
						<alphatype>none</alphatype>
						<pixelaspectratio>square</pixelaspectratio>
						<anamorphic>FALSE</anamorphic>
						<file id="file-30">
							<name>Taylor_Swift_Shares_The_Story_Of_Calling_Travis_Kelce_For_The_First_Time.mp4</name>
							<pathurl>file://localhost/Users/themalikano/Documents/VideoAutomation/premiere_videos/Taylor_Swift_Shares_The_Story_Of_Calling_Travis_Kelce_For_The_First_Time.mp4</pathurl>
							<rate>
								<timebase>30</timebase>
								<ntsc>TRUE</ntsc>
							</rate>
							<duration>27897</duration>
							<timecode>
								<rate>
									<timebase>30</timebase>
									<ntsc>TRUE</ntsc>
								</rate>
								<string>00:00:00:00</string>
								<frame>0</frame>
								<displayformat>NDF</displayformat>
							</timecode>
							<media>
								<video>
									<samplecharacteristics>
										<rate>
											<timebase>30</timebase>
											<ntsc>TRUE</ntsc>
										</rate>
										<width>1920</width>
										<height>1080</height>
										<anamorphic>FALSE</anamorphic>
										<pixelaspectratio>square</pixelaspectratio>
										<fielddominance>none</fielddominance>
									</samplecharacteristics>
								</video>
								<audio>
									<samplecharacteristics>
										<depth>16</depth>
										<samplerate>44100</samplerate>
									</samplecharacteristics>
									<channelcount>2</channelcount>
								</audio>
							</media>
						</file>
						<link>
							<linkclipref>clipitem-86</linkclipref>
							<mediatype>video</mediatype>
							<trackindex>1</trackindex>
							<clipindex>2</clipindex>
						</link>
						<link>
							<linkclipref>clipitem-94</linkclipref>
							<mediatype>audio</mediatype>
							<trackindex>1</trackindex>
							<clipindex>2</clipindex>
							<groupindex>1</groupindex>
						</link>
						<link>
							<linkclipref>clipitem-102</linkclipref>
							<mediatype>audio</mediatype>
							<trackindex>2</trackindex>
							<clipindex>2</clipindex>
							<groupindex>1</groupindex>
						</link>
						<logginginfo>
							<description />
							<scene />
							<shottake />
							<lognote />
							<good />
							<originalvideofilename />
							<originalaudiofilename />
						</logginginfo>
						<colorinfo>
							<lut />
							<lut1 />
							<asc_sop />
							<asc_sat />
							<lut2 />
						</colorinfo>
					<labels><label2>Iris</label2></labels></clipitem>
					<clipitem id="clipitem-90">
						<masterclipid>clipitem-6-93</masterclipid>
						<name>Travis_Kelce_talks_about_postponing_his_wedding_to_Fiance_Taylor_Swift_on_the_New_Heights_Podcast.mp4</name>
						<enabled>TRUE</enabled>
						<duration>150</duration>
						<rate>
							<timebase>25</timebase>
							<ntsc>FALSE</ntsc>
						</rate>
						<start>54450</start>
						<end>54600</end>
						<in>13800</in>
						<out>13950</out>
						<pproTicksIn>0</pproTicksIn>
						<pproTicksOut>149391889920000</pproTicksOut>
						<alphatype>none</alphatype>
						<pixelaspectratio>square</pixelaspectratio>
						<anamorphic>FALSE</anamorphic>
						<file id="file-34">
							<name>Travis_Kelce_talks_about_postponing_his_wedding_to_Fiance_Taylor_Swift_on_the_New_Heights_Podcast.mp4</name>
							<pathurl>file://localhost/Users/themalikano/Documents/VideoAutomation/premiere_videos/Travis_Kelce_talks_about_postponing_his_wedding_to_Fiance_Taylor_Swift_on_the_New_Heights_Podcast.mp4</pathurl>
							<rate>
								<timebase>30</timebase>
								<ntsc>FALSE</ntsc>
							</rate>
							<duration>17644</duration>
							<timecode>
								<rate>
									<timebase>30</timebase>
									<ntsc>FALSE</ntsc>
								</rate>
								<string>00:00:00:00</string>
								<frame>0</frame>
								<displayformat>NDF</displayformat>
							</timecode>
							<media>
								<video>
									<samplecharacteristics>
										<rate>
											<timebase>30</timebase>
											<ntsc>FALSE</ntsc>
										</rate>
										<width>1920</width>
										<height>1080</height>
										<anamorphic>FALSE</anamorphic>
										<pixelaspectratio>square</pixelaspectratio>
										<fielddominance>none</fielddominance>
									</samplecharacteristics>
								</video>
								<audio>
									<samplecharacteristics>
										<depth>16</depth>
										<samplerate>44100</samplerate>
									</samplecharacteristics>
									<channelcount>2</channelcount>
								</audio>
							</media>
						</file>
						<link>
							<linkclipref>clipitem-90</linkclipref>
							<mediatype>video</mediatype>
							<trackindex>1</trackindex>
							<clipindex>6</clipindex>
						</link>
						<link>
							<linkclipref>clipitem-98</linkclipref>
							<mediatype>audio</mediatype>
							<trackindex>1</trackindex>
							<clipindex>6</clipindex>
							<groupindex>1</groupindex>
						</link>
						<link>
							<linkclipref>clipitem-106</linkclipref>
							<mediatype>audio</mediatype>
							<trackindex>2</trackindex>
							<clipindex>6</clipindex>
							<groupindex>1</groupindex>
						</link>
						<logginginfo>
							<description />
							<scene />
							<shottake />
							<lognote />
							<good />
							<originalvideofilename />
							<originalaudiofilename />
						</logginginfo>
						<colorinfo>
							<lut />
							<lut1 />
							<asc_sop />
							<asc_sat />
							<lut2 />
						</colorinfo>
					<labels><label2>Forest</label2></labels></clipitem>
					<clipitem id="clipitem-87">
						<masterclipid>clipitem-3-522</masterclipid>
						<name>Taylor_Swift_Travis_Kelce_-_The_New_Power_Couple.mp4</name>
						<enabled>TRUE</enabled>
						<duration>150</duration>
						<rate>
							<timebase>25</timebase>
							<ntsc>FALSE</ntsc>
						</rate>
						<start>54600</start>
						<end>54750</end>
						<in>78150</in>
						<out>78300</out>
						<pproTicksIn>0</pproTicksIn>
						<pproTicksOut>875013995520000</pproTicksOut>
						<alphatype>none</alphatype>
						<pixelaspectratio>square</pixelaspectratio>
						<anamorphic>FALSE</anamorphic>
						<file id="file-31">
							<name>Taylor_Swift_Travis_Kelce_-_The_New_Power_Couple.mp4</name>
							<pathurl>file://localhost/Users/themalikano/Documents/VideoAutomation/premiere_videos/Taylor_Swift_Travis_Kelce_-_The_New_Power_Couple.mp4</pathurl>
							<rate>
								<timebase>25</timebase>
								<ntsc>FALSE</ntsc>
							</rate>
							<duration>86118</duration>
							<timecode>
								<rate>
									<timebase>25</timebase>
									<ntsc>FALSE</ntsc>
								</rate>
								<string>00:00:00:00</string>
								<frame>0</frame>
								<displayformat>NDF</displayformat>
							</timecode>
							<media>
								<video>
									<samplecharacteristics>
										<rate>
											<timebase>25</timebase>
											<ntsc>FALSE</ntsc>
										</rate>
										<width>1920</width>
										<height>1080</height>
										<anamorphic>FALSE</anamorphic>
										<pixelaspectratio>square</pixelaspectratio>
										<fielddominance>none</fielddominance>
									</samplecharacteristics>
								</video>
								<audio>
									<samplecharacteristics>
										<depth>16</depth>
										<samplerate>44100</samplerate>
									</samplecharacteristics>
									<channelcount>2</channelcount>
								</audio>
							</media>
						</file>
						<link>
							<linkclipref>clipitem-87</linkclipref>
							<mediatype>video</mediatype>
							<trackindex>1</trackindex>
							<clipindex>3</clipindex>
						</link>
						<link>
							<linkclipref>clipitem-95</linkclipref>
							<mediatype>audio</mediatype>
							<trackindex>1</trackindex>
							<clipindex>3</clipindex>
							<groupindex>1</groupindex>
						</link>
						<link>
							<linkclipref>clipitem-103</linkclipref>
							<mediatype>audio</mediatype>
							<trackindex>2</trackindex>
							<clipindex>3</clipindex>
							<groupindex>1</groupindex>
						</link>
						<logginginfo>
							<description />
							<scene />
							<shottake />
							<lognote />
							<good />
							<originalvideofilename />
							<originalaudiofilename />
						</logginginfo>
						<colorinfo>
							<lut />
							<lut1 />
							<asc_sop />
							<asc_sat />
							<lut2 />
						</colorinfo>
					<labels><label2>Caribbean</label2></labels></clipitem>
					<clipitem id="clipitem-88">
						<masterclipid>clipitem-4-212</masterclipid>
						<name>Travis_Kelce_ANNOUNCE_WEDDING_DATE_with_Taylor_Swift_Why_He_was_Delaying_all_Along.mp4</name>
						<enabled>TRUE</enabled>
						<duration>150</duration>
						<rate>
							<timebase>25</timebase>
							<ntsc>FALSE</ntsc>
						</rate>
						<start>54750</start>
						<end>54900</end>
						<in>31650</in>
						<out>31800</out>
						<pproTicksIn>0</pproTicksIn>
						<pproTicksOut>419410897920000</pproTicksOut>
						<alphatype>none</alphatype>
						<pixelaspectratio>square</pixelaspectratio>
						<anamorphic>FALSE</anamorphic>
						<file id="file-32">
							<name>Travis_Kelce_ANNOUNCE_WEDDING_DATE_with_Taylor_Swift_Why_He_was_Delaying_all_Along.mp4</name>
							<pathurl>file://localhost/Users/themalikano/Documents/VideoAutomation/premiere_videos/Travis_Kelce_ANNOUNCE_WEDDING_DATE_with_Taylor_Swift_Why_He_was_Delaying_all_Along.mp4</pathurl>
							<rate>
								<timebase>24</timebase>
								<ntsc>FALSE</ntsc>
							</rate>
							<duration>39627</duration>
							<timecode>
								<rate>
									<timebase>24</timebase>
									<ntsc>FALSE</ntsc>
								</rate>
								<string>00:00:00:00</string>
								<frame>0</frame>
								<displayformat>NDF</displayformat>
							</timecode>
							<media>
								<video>
									<samplecharacteristics>
										<rate>
											<timebase>24</timebase>
											<ntsc>FALSE</ntsc>
										</rate>
										<width>852</width>
										<height>480</height>
										<anamorphic>FALSE</anamorphic>
										<pixelaspectratio>square</pixelaspectratio>
										<fielddominance>none</fielddominance>
									</samplecharacteristics>
								</video>
								<audio>
									<samplecharacteristics>
										<depth>16</depth>
										<samplerate>44100</samplerate>
									</samplecharacteristics>
									<channelcount>2</channelcount>
								</audio>
							</media>
						</file>
						<filter>
							<effect>
								<name>Basic Motion</name>
								<effectid>basic</effectid>
								<effectcategory>motion</effectcategory>
								<effecttype>motion</effecttype>
								<mediatype>video</mediatype>
								<pproBypass>false</pproBypass>
								<parameter authoringApp="PremierePro">
									<parameterid>scale</parameterid>
									<name>Scale</name>
									<valuemin>0</valuemin>
									<valuemax>1000</valuemax>
									<value>225</value>
								</parameter>
								<parameter authoringApp="PremierePro">
									<parameterid>rotation</parameterid>
									<name>Rotation</name>
									<valuemin>-8640</valuemin>
									<valuemax>8640</valuemax>
									<value>0</value>
								</parameter>
								<parameter authoringApp="PremierePro">
									<parameterid>center</parameterid>
									<name>Center</name>
									<value>
										<horiz>0</horiz>
										<vert>0</vert>
									</value>
								</parameter>
								<parameter authoringApp="PremierePro">
									<parameterid>centerOffset</parameterid>
									<name>Anchor Point</name>
									<value>
										<horiz>0</horiz>
										<vert>0</vert>
									</value>
								</parameter>
								<parameter authoringApp="PremierePro">
									<parameterid>antiflicker</parameterid>
									<name>Anti-flicker Filter</name>
									<valuemin>0.0</valuemin>
									<valuemax>1.0</valuemax>
									<value>0</value>
								</parameter>
							</effect>
						</filter>
						<link>
							<linkclipref>clipitem-88</linkclipref>
							<mediatype>video</mediatype>
							<trackindex>1</trackindex>
							<clipindex>4</clipindex>
						</link>
						<link>
							<linkclipref>clipitem-96</linkclipref>
							<mediatype>audio</mediatype>
							<trackindex>1</trackindex>
							<clipindex>4</clipindex>
							<groupindex>1</groupindex>
						</link>
						<link>
							<linkclipref>clipitem-104</linkclipref>
							<mediatype>audio</mediatype>
							<trackindex>2</trackindex>
							<clipindex>4</clipindex>
							<groupindex>1</groupindex>
						</link>
						<logginginfo>
							<description />
							<scene />
							<shottake />
							<lognote />
							<good />
							<originalvideofilename />
							<originalaudiofilename />
						</logginginfo>
						<colorinfo>
							<lut />
							<lut1 />
							<asc_sop />
							<asc_sat />
							<lut2 />
						</colorinfo>
					<labels><label2>Lavender</label2></labels></clipitem>
					<clipitem id="clipitem-86">
						<masterclipid>clipitem-2-89</masterclipid>
						<name>Taylor_Swift_Shares_The_Story_Of_Calling_Travis_Kelce_For_The_First_Time.mp4</name>
						<enabled>TRUE</enabled>
						<duration>150</duration>
						<rate>
							<timebase>25</timebase>
							<ntsc>FALSE</ntsc>
						</rate>
						<start>54900</start>
						<end>55050</end>
						<in>13200</in>
						<out>13350</out>
						<pproTicksIn>0</pproTicksIn>
						<pproTicksOut>236438092800000</pproTicksOut>
						<alphatype>none</alphatype>
						<pixelaspectratio>square</pixelaspectratio>
						<anamorphic>FALSE</anamorphic>
						<file id="file-30">
							<name>Taylor_Swift_Shares_The_Story_Of_Calling_Travis_Kelce_For_The_First_Time.mp4</name>
							<pathurl>file://localhost/Users/themalikano/Documents/VideoAutomation/premiere_videos/Taylor_Swift_Shares_The_Story_Of_Calling_Travis_Kelce_For_The_First_Time.mp4</pathurl>
							<rate>
								<timebase>30</timebase>
								<ntsc>TRUE</ntsc>
							</rate>
							<duration>27897</duration>
							<timecode>
								<rate>
									<timebase>30</timebase>
									<ntsc>TRUE</ntsc>
								</rate>
								<string>00:00:00:00</string>
								<frame>0</frame>
								<displayformat>NDF</displayformat>
							</timecode>
							<media>
								<video>
									<samplecharacteristics>
										<rate>
											<timebase>30</timebase>
											<ntsc>TRUE</ntsc>
										</rate>
										<width>1920</width>
										<height>1080</height>
										<anamorphic>FALSE</anamorphic>
										<pixelaspectratio>square</pixelaspectratio>
										<fielddominance>none</fielddominance>
									</samplecharacteristics>
								</video>
								<audio>
									<samplecharacteristics>
										<depth>16</depth>
										<samplerate>44100</samplerate>
									</samplecharacteristics>
									<channelcount>2</channelcount>
								</audio>
							</media>
						</file>
						<link>
							<linkclipref>clipitem-86</linkclipref>
							<mediatype>video</mediatype>
							<trackindex>1</trackindex>
							<clipindex>2</clipindex>
						</link>
						<link>
							<linkclipref>clipitem-94</linkclipref>
							<mediatype>audio</mediatype>
							<trackindex>1</trackindex>
							<clipindex>2</clipindex>
							<groupindex>1</groupindex>
						</link>
						<link>
							<linkclipref>clipitem-102</linkclipref>
							<mediatype>audio</mediatype>
							<trackindex>2</trackindex>
							<clipindex>2</clipindex>
							<groupindex>1</groupindex>
						</link>
						<logginginfo>
							<description />
							<scene />
							<shottake />
							<lognote />
							<good />
							<originalvideofilename />
							<originalaudiofilename />
						</logginginfo>
						<colorinfo>
							<lut />
							<lut1 />
							<asc_sop />
							<asc_sat />
							<lut2 />
						</colorinfo>
					<labels><label2>Iris</label2></labels></clipitem>
					<clipitem id="clipitem-90">
						<masterclipid>clipitem-6-37</masterclipid>
						<name>Travis_Kelce_talks_about_postponing_his_wedding_to_Fiance_Taylor_Swift_on_the_New_Heights_Podcast.mp4</name>
						<enabled>TRUE</enabled>
						<duration>150</duration>
						<rate>
							<timebase>25</timebase>
							<ntsc>FALSE</ntsc>
						</rate>
						<start>55050</start>
						<end>55200</end>
						<in>5400</in>
						<out>5550</out>
						<pproTicksIn>0</pproTicksIn>
						<pproTicksOut>149391889920000</pproTicksOut>
						<alphatype>none</alphatype>
						<pixelaspectratio>square</pixelaspectratio>
						<anamorphic>FALSE</anamorphic>
						<file id="file-34">
							<name>Travis_Kelce_talks_about_postponing_his_wedding_to_Fiance_Taylor_Swift_on_the_New_Heights_Podcast.mp4</name>
							<pathurl>file://localhost/Users/themalikano/Documents/VideoAutomation/premiere_videos/Travis_Kelce_talks_about_postponing_his_wedding_to_Fiance_Taylor_Swift_on_the_New_Heights_Podcast.mp4</pathurl>
							<rate>
								<timebase>30</timebase>
								<ntsc>FALSE</ntsc>
							</rate>
							<duration>17644</duration>
							<timecode>
								<rate>
									<timebase>30</timebase>
									<ntsc>FALSE</ntsc>
								</rate>
								<string>00:00:00:00</string>
								<frame>0</frame>
								<displayformat>NDF</displayformat>
							</timecode>
							<media>
								<video>
									<samplecharacteristics>
										<rate>
											<timebase>30</timebase>
											<ntsc>FALSE</ntsc>
										</rate>
										<width>1920</width>
										<height>1080</height>
										<anamorphic>FALSE</anamorphic>
										<pixelaspectratio>square</pixelaspectratio>
										<fielddominance>none</fielddominance>
									</samplecharacteristics>
								</video>
								<audio>
									<samplecharacteristics>
										<depth>16</depth>
										<samplerate>44100</samplerate>
									</samplecharacteristics>
									<channelcount>2</channelcount>
								</audio>
							</media>
						</file>
						<link>
							<linkclipref>clipitem-90</linkclipref>
							<mediatype>video</mediatype>
							<trackindex>1</trackindex>
							<clipindex>6</clipindex>
						</link>
						<link>
							<linkclipref>clipitem-98</linkclipref>
							<mediatype>audio</mediatype>
							<trackindex>1</trackindex>
							<clipindex>6</clipindex>
							<groupindex>1</groupindex>
						</link>
						<link>
							<linkclipref>clipitem-106</linkclipref>
							<mediatype>audio</mediatype>
							<trackindex>2</trackindex>
							<clipindex>6</clipindex>
							<groupindex>1</groupindex>
						</link>
						<logginginfo>
							<description />
							<scene />
							<shottake />
							<lognote />
							<good />
							<originalvideofilename />
							<originalaudiofilename />
						</logginginfo>
						<colorinfo>
							<lut />
							<lut1 />
							<asc_sop />
							<asc_sat />
							<lut2 />
						</colorinfo>
					<labels><label2>Forest</label2></labels></clipitem>
					<clipitem id="clipitem-86">
						<masterclipid>clipitem-2-60</masterclipid>
						<name>Taylor_Swift_Shares_The_Story_Of_Calling_Travis_Kelce_For_The_First_Time.mp4</name>
						<enabled>TRUE</enabled>
						<duration>150</duration>
						<rate>
							<timebase>25</timebase>
							<ntsc>FALSE</ntsc>
						</rate>
						<start>55200</start>
						<end>55350</end>
						<in>8850</in>
						<out>9000</out>
						<pproTicksIn>0</pproTicksIn>
						<pproTicksOut>236438092800000</pproTicksOut>
						<alphatype>none</alphatype>
						<pixelaspectratio>square</pixelaspectratio>
						<anamorphic>FALSE</anamorphic>
						<file id="file-30">
							<name>Taylor_Swift_Shares_The_Story_Of_Calling_Travis_Kelce_For_The_First_Time.mp4</name>
							<pathurl>file://localhost/Users/themalikano/Documents/VideoAutomation/premiere_videos/Taylor_Swift_Shares_The_Story_Of_Calling_Travis_Kelce_For_The_First_Time.mp4</pathurl>
							<rate>
								<timebase>30</timebase>
								<ntsc>TRUE</ntsc>
							</rate>
							<duration>27897</duration>
							<timecode>
								<rate>
									<timebase>30</timebase>
									<ntsc>TRUE</ntsc>
								</rate>
								<string>00:00:00:00</string>
								<frame>0</frame>
								<displayformat>NDF</displayformat>
							</timecode>
							<media>
								<video>
									<samplecharacteristics>
										<rate>
											<timebase>30</timebase>
											<ntsc>TRUE</ntsc>
										</rate>
										<width>1920</width>
										<height>1080</height>
										<anamorphic>FALSE</anamorphic>
										<pixelaspectratio>square</pixelaspectratio>
										<fielddominance>none</fielddominance>
									</samplecharacteristics>
								</video>
								<audio>
									<samplecharacteristics>
										<depth>16</depth>
										<samplerate>44100</samplerate>
									</samplecharacteristics>
									<channelcount>2</channelcount>
								</audio>
							</media>
						</file>
						<link>
							<linkclipref>clipitem-86</linkclipref>
							<mediatype>video</mediatype>
							<trackindex>1</trackindex>
							<clipindex>2</clipindex>
						</link>
						<link>
							<linkclipref>clipitem-94</linkclipref>
							<mediatype>audio</mediatype>
							<trackindex>1</trackindex>
							<clipindex>2</clipindex>
							<groupindex>1</groupindex>
						</link>
						<link>
							<linkclipref>clipitem-102</linkclipref>
							<mediatype>audio</mediatype>
							<trackindex>2</trackindex>
							<clipindex>2</clipindex>
							<groupindex>1</groupindex>
						</link>
						<logginginfo>
							<description />
							<scene />
							<shottake />
							<lognote />
							<good />
							<originalvideofilename />
							<originalaudiofilename />
						</logginginfo>
						<colorinfo>
							<lut />
							<lut1 />
							<asc_sop />
							<asc_sat />
							<lut2 />
						</colorinfo>
					<labels><label2>Iris</label2></labels></clipitem>
					<clipitem id="clipitem-88">
						<masterclipid>clipitem-4-21</masterclipid>
						<name>Travis_Kelce_ANNOUNCE_WEDDING_DATE_with_Taylor_Swift_Why_He_was_Delaying_all_Along.mp4</name>
						<enabled>TRUE</enabled>
						<duration>150</duration>
						<rate>
							<timebase>25</timebase>
							<ntsc>FALSE</ntsc>
						</rate>
						<start>55350</start>
						<end>55500</end>
						<in>3000</in>
						<out>3150</out>
						<pproTicksIn>0</pproTicksIn>
						<pproTicksOut>419410897920000</pproTicksOut>
						<alphatype>none</alphatype>
						<pixelaspectratio>square</pixelaspectratio>
						<anamorphic>FALSE</anamorphic>
						<file id="file-32">
							<name>Travis_Kelce_ANNOUNCE_WEDDING_DATE_with_Taylor_Swift_Why_He_was_Delaying_all_Along.mp4</name>
							<pathurl>file://localhost/Users/themalikano/Documents/VideoAutomation/premiere_videos/Travis_Kelce_ANNOUNCE_WEDDING_DATE_with_Taylor_Swift_Why_He_was_Delaying_all_Along.mp4</pathurl>
							<rate>
								<timebase>24</timebase>
								<ntsc>FALSE</ntsc>
							</rate>
							<duration>39627</duration>
							<timecode>
								<rate>
									<timebase>24</timebase>
									<ntsc>FALSE</ntsc>
								</rate>
								<string>00:00:00:00</string>
								<frame>0</frame>
								<displayformat>NDF</displayformat>
							</timecode>
							<media>
								<video>
									<samplecharacteristics>
										<rate>
											<timebase>24</timebase>
											<ntsc>FALSE</ntsc>
										</rate>
										<width>852</width>
										<height>480</height>
										<anamorphic>FALSE</anamorphic>
										<pixelaspectratio>square</pixelaspectratio>
										<fielddominance>none</fielddominance>
									</samplecharacteristics>
								</video>
								<audio>
									<samplecharacteristics>
										<depth>16</depth>
										<samplerate>44100</samplerate>
									</samplecharacteristics>
									<channelcount>2</channelcount>
								</audio>
							</media>
						</file>
						<filter>
							<effect>
								<name>Basic Motion</name>
								<effectid>basic</effectid>
								<effectcategory>motion</effectcategory>
								<effecttype>motion</effecttype>
								<mediatype>video</mediatype>
								<pproBypass>false</pproBypass>
								<parameter authoringApp="PremierePro">
									<parameterid>scale</parameterid>
									<name>Scale</name>
									<valuemin>0</valuemin>
									<valuemax>1000</valuemax>
									<value>225</value>
								</parameter>
								<parameter authoringApp="PremierePro">
									<parameterid>rotation</parameterid>
									<name>Rotation</name>
									<valuemin>-8640</valuemin>
									<valuemax>8640</valuemax>
									<value>0</value>
								</parameter>
								<parameter authoringApp="PremierePro">
									<parameterid>center</parameterid>
									<name>Center</name>
									<value>
										<horiz>0</horiz>
										<vert>0</vert>
									</value>
								</parameter>
								<parameter authoringApp="PremierePro">
									<parameterid>centerOffset</parameterid>
									<name>Anchor Point</name>
									<value>
										<horiz>0</horiz>
										<vert>0</vert>
									</value>
								</parameter>
								<parameter authoringApp="PremierePro">
									<parameterid>antiflicker</parameterid>
									<name>Anti-flicker Filter</name>
									<valuemin>0.0</valuemin>
									<valuemax>1.0</valuemax>
									<value>0</value>
								</parameter>
							</effect>
						</filter>
						<link>
							<linkclipref>clipitem-88</linkclipref>
							<mediatype>video</mediatype>
							<trackindex>1</trackindex>
							<clipindex>4</clipindex>
						</link>
						<link>
							<linkclipref>clipitem-96</linkclipref>
							<mediatype>audio</mediatype>
							<trackindex>1</trackindex>
							<clipindex>4</clipindex>
							<groupindex>1</groupindex>
						</link>
						<link>
							<linkclipref>clipitem-104</linkclipref>
							<mediatype>audio</mediatype>
							<trackindex>2</trackindex>
							<clipindex>4</clipindex>
							<groupindex>1</groupindex>
						</link>
						<logginginfo>
							<description />
							<scene />
							<shottake />
							<lognote />
							<good />
							<originalvideofilename />
							<originalaudiofilename />
						</logginginfo>
						<colorinfo>
							<lut />
							<lut1 />
							<asc_sop />
							<asc_sat />
							<lut2 />
						</colorinfo>
					<labels><label2>Lavender</label2></labels></clipitem>
					<clipitem id="clipitem-90">
						<masterclipid>clipitem-6-16</masterclipid>
						<name>Travis_Kelce_talks_about_postponing_his_wedding_to_Fiance_Taylor_Swift_on_the_New_Heights_Podcast.mp4</name>
						<enabled>TRUE</enabled>
						<duration>150</duration>
						<rate>
							<timebase>25</timebase>
							<ntsc>FALSE</ntsc>
						</rate>
						<start>55500</start>
						<end>55650</end>
						<in>2250</in>
						<out>2400</out>
						<pproTicksIn>0</pproTicksIn>
						<pproTicksOut>149391889920000</pproTicksOut>
						<alphatype>none</alphatype>
						<pixelaspectratio>square</pixelaspectratio>
						<anamorphic>FALSE</anamorphic>
						<file id="file-34">
							<name>Travis_Kelce_talks_about_postponing_his_wedding_to_Fiance_Taylor_Swift_on_the_New_Heights_Podcast.mp4</name>
							<pathurl>file://localhost/Users/themalikano/Documents/VideoAutomation/premiere_videos/Travis_Kelce_talks_about_postponing_his_wedding_to_Fiance_Taylor_Swift_on_the_New_Heights_Podcast.mp4</pathurl>
							<rate>
								<timebase>30</timebase>
								<ntsc>FALSE</ntsc>
							</rate>
							<duration>17644</duration>
							<timecode>
								<rate>
									<timebase>30</timebase>
									<ntsc>FALSE</ntsc>
								</rate>
								<string>00:00:00:00</string>
								<frame>0</frame>
								<displayformat>NDF</displayformat>
							</timecode>
							<media>
								<video>
									<samplecharacteristics>
										<rate>
											<timebase>30</timebase>
											<ntsc>FALSE</ntsc>
										</rate>
										<width>1920</width>
										<height>1080</height>
										<anamorphic>FALSE</anamorphic>
										<pixelaspectratio>square</pixelaspectratio>
										<fielddominance>none</fielddominance>
									</samplecharacteristics>
								</video>
								<audio>
									<samplecharacteristics>
										<depth>16</depth>
										<samplerate>44100</samplerate>
									</samplecharacteristics>
									<channelcount>2</channelcount>
								</audio>
							</media>
						</file>
						<link>
							<linkclipref>clipitem-90</linkclipref>
							<mediatype>video</mediatype>
							<trackindex>1</trackindex>
							<clipindex>6</clipindex>
						</link>
						<link>
							<linkclipref>clipitem-98</linkclipref>
							<mediatype>audio</mediatype>
							<trackindex>1</trackindex>
							<clipindex>6</clipindex>
							<groupindex>1</groupindex>
						</link>
						<link>
							<linkclipref>clipitem-106</linkclipref>
							<mediatype>audio</mediatype>
							<trackindex>2</trackindex>
							<clipindex>6</clipindex>
							<groupindex>1</groupindex>
						</link>
						<logginginfo>
							<description />
							<scene />
							<shottake />
							<lognote />
							<good />
							<originalvideofilename />
							<originalaudiofilename />
						</logginginfo>
						<colorinfo>
							<lut />
							<lut1 />
							<asc_sop />
							<asc_sat />
							<lut2 />
						</colorinfo>
					<labels><label2>Forest</label2></labels></clipitem>
					<clipitem id="clipitem-86">
						<masterclipid>clipitem-2-113</masterclipid>
						<name>Taylor_Swift_Shares_The_Story_Of_Calling_Travis_Kelce_For_The_First_Time.mp4</name>
						<enabled>TRUE</enabled>
						<duration>150</duration>
						<rate>
							<timebase>25</timebase>
							<ntsc>FALSE</ntsc>
						</rate>
						<start>55650</start>
						<end>55800</end>
						<in>16800</in>
						<out>16950</out>
						<pproTicksIn>0</pproTicksIn>
						<pproTicksOut>236438092800000</pproTicksOut>
						<alphatype>none</alphatype>
						<pixelaspectratio>square</pixelaspectratio>
						<anamorphic>FALSE</anamorphic>
						<file id="file-30">
							<name>Taylor_Swift_Shares_The_Story_Of_Calling_Travis_Kelce_For_The_First_Time.mp4</name>
							<pathurl>file://localhost/Users/themalikano/Documents/VideoAutomation/premiere_videos/Taylor_Swift_Shares_The_Story_Of_Calling_Travis_Kelce_For_The_First_Time.mp4</pathurl>
							<rate>
								<timebase>30</timebase>
								<ntsc>TRUE</ntsc>
							</rate>
							<duration>27897</duration>
							<timecode>
								<rate>
									<timebase>30</timebase>
									<ntsc>TRUE</ntsc>
								</rate>
								<string>00:00:00:00</string>
								<frame>0</frame>
								<displayformat>NDF</displayformat>
							</timecode>
							<media>
								<video>
									<samplecharacteristics>
										<rate>
											<timebase>30</timebase>
											<ntsc>TRUE</ntsc>
										</rate>
										<width>1920</width>
										<height>1080</height>
										<anamorphic>FALSE</anamorphic>
										<pixelaspectratio>square</pixelaspectratio>
										<fielddominance>none</fielddominance>
									</samplecharacteristics>
								</video>
								<audio>
									<samplecharacteristics>
										<depth>16</depth>
										<samplerate>44100</samplerate>
									</samplecharacteristics>
									<channelcount>2</channelcount>
								</audio>
							</media>
						</file>
						<link>
							<linkclipref>clipitem-86</linkclipref>
							<mediatype>video</mediatype>
							<trackindex>1</trackindex>
							<clipindex>2</clipindex>
						</link>
						<link>
							<linkclipref>clipitem-94</linkclipref>
							<mediatype>audio</mediatype>
							<trackindex>1</trackindex>
							<clipindex>2</clipindex>
							<groupindex>1</groupindex>
						</link>
						<link>
							<linkclipref>clipitem-102</linkclipref>
							<mediatype>audio</mediatype>
							<trackindex>2</trackindex>
							<clipindex>2</clipindex>
							<groupindex>1</groupindex>
						</link>
						<logginginfo>
							<description />
							<scene />
							<shottake />
							<lognote />
							<good />
							<originalvideofilename />
							<originalaudiofilename />
						</logginginfo>
						<colorinfo>
							<lut />
							<lut1 />
							<asc_sop />
							<asc_sat />
							<lut2 />
						</colorinfo>
					<labels><label2>Iris</label2></labels></clipitem>
					<clipitem id="clipitem-90">
						<masterclipid>clipitem-6-30</masterclipid>
						<name>Travis_Kelce_talks_about_postponing_his_wedding_to_Fiance_Taylor_Swift_on_the_New_Heights_Podcast.mp4</name>
						<enabled>TRUE</enabled>
						<duration>150</duration>
						<rate>
							<timebase>25</timebase>
							<ntsc>FALSE</ntsc>
						</rate>
						<start>55800</start>
						<end>55950</end>
						<in>4350</in>
						<out>4500</out>
						<pproTicksIn>0</pproTicksIn>
						<pproTicksOut>149391889920000</pproTicksOut>
						<alphatype>none</alphatype>
						<pixelaspectratio>square</pixelaspectratio>
						<anamorphic>FALSE</anamorphic>
						<file id="file-34">
							<name>Travis_Kelce_talks_about_postponing_his_wedding_to_Fiance_Taylor_Swift_on_the_New_Heights_Podcast.mp4</name>
							<pathurl>file://localhost/Users/themalikano/Documents/VideoAutomation/premiere_videos/Travis_Kelce_talks_about_postponing_his_wedding_to_Fiance_Taylor_Swift_on_the_New_Heights_Podcast.mp4</pathurl>
							<rate>
								<timebase>30</timebase>
								<ntsc>FALSE</ntsc>
							</rate>
							<duration>17644</duration>
							<timecode>
								<rate>
									<timebase>30</timebase>
									<ntsc>FALSE</ntsc>
								</rate>
								<string>00:00:00:00</string>
								<frame>0</frame>
								<displayformat>NDF</displayformat>
							</timecode>
							<media>
								<video>
									<samplecharacteristics>
										<rate>
											<timebase>30</timebase>
											<ntsc>FALSE</ntsc>
										</rate>
										<width>1920</width>
										<height>1080</height>
										<anamorphic>FALSE</anamorphic>
										<pixelaspectratio>square</pixelaspectratio>
										<fielddominance>none</fielddominance>
									</samplecharacteristics>
								</video>
								<audio>
									<samplecharacteristics>
										<depth>16</depth>
										<samplerate>44100</samplerate>
									</samplecharacteristics>
									<channelcount>2</channelcount>
								</audio>
							</media>
						</file>
						<link>
							<linkclipref>clipitem-90</linkclipref>
							<mediatype>video</mediatype>
							<trackindex>1</trackindex>
							<clipindex>6</clipindex>
						</link>
						<link>
							<linkclipref>clipitem-98</linkclipref>
							<mediatype>audio</mediatype>
							<trackindex>1</trackindex>
							<clipindex>6</clipindex>
							<groupindex>1</groupindex>
						</link>
						<link>
							<linkclipref>clipitem-106</linkclipref>
							<mediatype>audio</mediatype>
							<trackindex>2</trackindex>
							<clipindex>6</clipindex>
							<groupindex>1</groupindex>
						</link>
						<logginginfo>
							<description />
							<scene />
							<shottake />
							<lognote />
							<good />
							<originalvideofilename />
							<originalaudiofilename />
						</logginginfo>
						<colorinfo>
							<lut />
							<lut1 />
							<asc_sop />
							<asc_sat />
							<lut2 />
						</colorinfo>
					<labels><label2>Forest</label2></labels></clipitem>
					<clipitem id="clipitem-86">
						<masterclipid>clipitem-2-147</masterclipid>
						<name>Taylor_Swift_Shares_The_Story_Of_Calling_Travis_Kelce_For_The_First_Time.mp4</name>
						<enabled>TRUE</enabled>
						<duration>150</duration>
						<rate>
							<timebase>25</timebase>
							<ntsc>FALSE</ntsc>
						</rate>
						<start>55950</start>
						<end>56100</end>
						<in>21900</in>
						<out>22050</out>
						<pproTicksIn>0</pproTicksIn>
						<pproTicksOut>236438092800000</pproTicksOut>
						<alphatype>none</alphatype>
						<pixelaspectratio>square</pixelaspectratio>
						<anamorphic>FALSE</anamorphic>
						<file id="file-30">
							<name>Taylor_Swift_Shares_The_Story_Of_Calling_Travis_Kelce_For_The_First_Time.mp4</name>
							<pathurl>file://localhost/Users/themalikano/Documents/VideoAutomation/premiere_videos/Taylor_Swift_Shares_The_Story_Of_Calling_Travis_Kelce_For_The_First_Time.mp4</pathurl>
							<rate>
								<timebase>30</timebase>
								<ntsc>TRUE</ntsc>
							</rate>
							<duration>27897</duration>
							<timecode>
								<rate>
									<timebase>30</timebase>
									<ntsc>TRUE</ntsc>
								</rate>
								<string>00:00:00:00</string>
								<frame>0</frame>
								<displayformat>NDF</displayformat>
							</timecode>
							<media>
								<video>
									<samplecharacteristics>
										<rate>
											<timebase>30</timebase>
											<ntsc>TRUE</ntsc>
										</rate>
										<width>1920</width>
										<height>1080</height>
										<anamorphic>FALSE</anamorphic>
										<pixelaspectratio>square</pixelaspectratio>
										<fielddominance>none</fielddominance>
									</samplecharacteristics>
								</video>
								<audio>
									<samplecharacteristics>
										<depth>16</depth>
										<samplerate>44100</samplerate>
									</samplecharacteristics>
									<channelcount>2</channelcount>
								</audio>
							</media>
						</file>
						<link>
							<linkclipref>clipitem-86</linkclipref>
							<mediatype>video</mediatype>
							<trackindex>1</trackindex>
							<clipindex>2</clipindex>
						</link>
						<link>
							<linkclipref>clipitem-94</linkclipref>
							<mediatype>audio</mediatype>
							<trackindex>1</trackindex>
							<clipindex>2</clipindex>
							<groupindex>1</groupindex>
						</link>
						<link>
							<linkclipref>clipitem-102</linkclipref>
							<mediatype>audio</mediatype>
							<trackindex>2</trackindex>
							<clipindex>2</clipindex>
							<groupindex>1</groupindex>
						</link>
						<logginginfo>
							<description />
							<scene />
							<shottake />
							<lognote />
							<good />
							<originalvideofilename />
							<originalaudiofilename />
						</logginginfo>
						<colorinfo>
							<lut />
							<lut1 />
							<asc_sop />
							<asc_sat />
							<lut2 />
						</colorinfo>
					<labels><label2>Iris</label2></labels></clipitem>
					<clipitem id="clipitem-87">
						<masterclipid>clipitem-3-331</masterclipid>
						<name>Taylor_Swift_Travis_Kelce_-_The_New_Power_Couple.mp4</name>
						<enabled>TRUE</enabled>
						<duration>150</duration>
						<rate>
							<timebase>25</timebase>
							<ntsc>FALSE</ntsc>
						</rate>
						<start>56100</start>
						<end>56250</end>
						<in>49500</in>
						<out>49650</out>
						<pproTicksIn>0</pproTicksIn>
						<pproTicksOut>875013995520000</pproTicksOut>
						<alphatype>none</alphatype>
						<pixelaspectratio>square</pixelaspectratio>
						<anamorphic>FALSE</anamorphic>
						<file id="file-31">
							<name>Taylor_Swift_Travis_Kelce_-_The_New_Power_Couple.mp4</name>
							<pathurl>file://localhost/Users/themalikano/Documents/VideoAutomation/premiere_videos/Taylor_Swift_Travis_Kelce_-_The_New_Power_Couple.mp4</pathurl>
							<rate>
								<timebase>25</timebase>
								<ntsc>FALSE</ntsc>
							</rate>
							<duration>86118</duration>
							<timecode>
								<rate>
									<timebase>25</timebase>
									<ntsc>FALSE</ntsc>
								</rate>
								<string>00:00:00:00</string>
								<frame>0</frame>
								<displayformat>NDF</displayformat>
							</timecode>
							<media>
								<video>
									<samplecharacteristics>
										<rate>
											<timebase>25</timebase>
											<ntsc>FALSE</ntsc>
										</rate>
										<width>1920</width>
										<height>1080</height>
										<anamorphic>FALSE</anamorphic>
										<pixelaspectratio>square</pixelaspectratio>
										<fielddominance>none</fielddominance>
									</samplecharacteristics>
								</video>
								<audio>
									<samplecharacteristics>
										<depth>16</depth>
										<samplerate>44100</samplerate>
									</samplecharacteristics>
									<channelcount>2</channelcount>
								</audio>
							</media>
						</file>
						<link>
							<linkclipref>clipitem-87</linkclipref>
							<mediatype>video</mediatype>
							<trackindex>1</trackindex>
							<clipindex>3</clipindex>
						</link>
						<link>
							<linkclipref>clipitem-95</linkclipref>
							<mediatype>audio</mediatype>
							<trackindex>1</trackindex>
							<clipindex>3</clipindex>
							<groupindex>1</groupindex>
						</link>
						<link>
							<linkclipref>clipitem-103</linkclipref>
							<mediatype>audio</mediatype>
							<trackindex>2</trackindex>
							<clipindex>3</clipindex>
							<groupindex>1</groupindex>
						</link>
						<logginginfo>
							<description />
							<scene />
							<shottake />
							<lognote />
							<good />
							<originalvideofilename />
							<originalaudiofilename />
						</logginginfo>
						<colorinfo>
							<lut />
							<lut1 />
							<asc_sop />
							<asc_sat />
							<lut2 />
						</colorinfo>
					<labels><label2>Caribbean</label2></labels></clipitem>
					<clipitem id="clipitem-88">
						<masterclipid>clipitem-4-207</masterclipid>
						<name>Travis_Kelce_ANNOUNCE_WEDDING_DATE_with_Taylor_Swift_Why_He_was_Delaying_all_Along.mp4</name>
						<enabled>TRUE</enabled>
						<duration>150</duration>
						<rate>
							<timebase>25</timebase>
							<ntsc>FALSE</ntsc>
						</rate>
						<start>56250</start>
						<end>56400</end>
						<in>30900</in>
						<out>31050</out>
						<pproTicksIn>0</pproTicksIn>
						<pproTicksOut>419410897920000</pproTicksOut>
						<alphatype>none</alphatype>
						<pixelaspectratio>square</pixelaspectratio>
						<anamorphic>FALSE</anamorphic>
						<file id="file-32">
							<name>Travis_Kelce_ANNOUNCE_WEDDING_DATE_with_Taylor_Swift_Why_He_was_Delaying_all_Along.mp4</name>
							<pathurl>file://localhost/Users/themalikano/Documents/VideoAutomation/premiere_videos/Travis_Kelce_ANNOUNCE_WEDDING_DATE_with_Taylor_Swift_Why_He_was_Delaying_all_Along.mp4</pathurl>
							<rate>
								<timebase>24</timebase>
								<ntsc>FALSE</ntsc>
							</rate>
							<duration>39627</duration>
							<timecode>
								<rate>
									<timebase>24</timebase>
									<ntsc>FALSE</ntsc>
								</rate>
								<string>00:00:00:00</string>
								<frame>0</frame>
								<displayformat>NDF</displayformat>
							</timecode>
							<media>
								<video>
									<samplecharacteristics>
										<rate>
											<timebase>24</timebase>
											<ntsc>FALSE</ntsc>
										</rate>
										<width>852</width>
										<height>480</height>
										<anamorphic>FALSE</anamorphic>
										<pixelaspectratio>square</pixelaspectratio>
										<fielddominance>none</fielddominance>
									</samplecharacteristics>
								</video>
								<audio>
									<samplecharacteristics>
										<depth>16</depth>
										<samplerate>44100</samplerate>
									</samplecharacteristics>
									<channelcount>2</channelcount>
								</audio>
							</media>
						</file>
						<filter>
							<effect>
								<name>Basic Motion</name>
								<effectid>basic</effectid>
								<effectcategory>motion</effectcategory>
								<effecttype>motion</effecttype>
								<mediatype>video</mediatype>
								<pproBypass>false</pproBypass>
								<parameter authoringApp="PremierePro">
									<parameterid>scale</parameterid>
									<name>Scale</name>
									<valuemin>0</valuemin>
									<valuemax>1000</valuemax>
									<value>225</value>
								</parameter>
								<parameter authoringApp="PremierePro">
									<parameterid>rotation</parameterid>
									<name>Rotation</name>
									<valuemin>-8640</valuemin>
									<valuemax>8640</valuemax>
									<value>0</value>
								</parameter>
								<parameter authoringApp="PremierePro">
									<parameterid>center</parameterid>
									<name>Center</name>
									<value>
										<horiz>0</horiz>
										<vert>0</vert>
									</value>
								</parameter>
								<parameter authoringApp="PremierePro">
									<parameterid>centerOffset</parameterid>
									<name>Anchor Point</name>
									<value>
										<horiz>0</horiz>
										<vert>0</vert>
									</value>
								</parameter>
								<parameter authoringApp="PremierePro">
									<parameterid>antiflicker</parameterid>
									<name>Anti-flicker Filter</name>
									<valuemin>0.0</valuemin>
									<valuemax>1.0</valuemax>
									<value>0</value>
								</parameter>
							</effect>
						</filter>
						<link>
							<linkclipref>clipitem-88</linkclipref>
							<mediatype>video</mediatype>
							<trackindex>1</trackindex>
							<clipindex>4</clipindex>
						</link>
						<link>
							<linkclipref>clipitem-96</linkclipref>
							<mediatype>audio</mediatype>
							<trackindex>1</trackindex>
							<clipindex>4</clipindex>
							<groupindex>1</groupindex>
						</link>
						<link>
							<linkclipref>clipitem-104</linkclipref>
							<mediatype>audio</mediatype>
							<trackindex>2</trackindex>
							<clipindex>4</clipindex>
							<groupindex>1</groupindex>
						</link>
						<logginginfo>
							<description />
							<scene />
							<shottake />
							<lognote />
							<good />
							<originalvideofilename />
							<originalaudiofilename />
						</logginginfo>
						<colorinfo>
							<lut />
							<lut1 />
							<asc_sop />
							<asc_sat />
							<lut2 />
						</colorinfo>
					<labels><label2>Lavender</label2></labels></clipitem>
					<clipitem id="clipitem-87">
						<masterclipid>clipitem-3-174</masterclipid>
						<name>Taylor_Swift_Travis_Kelce_-_The_New_Power_Couple.mp4</name>
						<enabled>TRUE</enabled>
						<duration>150</duration>
						<rate>
							<timebase>25</timebase>
							<ntsc>FALSE</ntsc>
						</rate>
						<start>56400</start>
						<end>56550</end>
						<in>25950</in>
						<out>26100</out>
						<pproTicksIn>0</pproTicksIn>
						<pproTicksOut>875013995520000</pproTicksOut>
						<alphatype>none</alphatype>
						<pixelaspectratio>square</pixelaspectratio>
						<anamorphic>FALSE</anamorphic>
						<file id="file-31">
							<name>Taylor_Swift_Travis_Kelce_-_The_New_Power_Couple.mp4</name>
							<pathurl>file://localhost/Users/themalikano/Documents/VideoAutomation/premiere_videos/Taylor_Swift_Travis_Kelce_-_The_New_Power_Couple.mp4</pathurl>
							<rate>
								<timebase>25</timebase>
								<ntsc>FALSE</ntsc>
							</rate>
							<duration>86118</duration>
							<timecode>
								<rate>
									<timebase>25</timebase>
									<ntsc>FALSE</ntsc>
								</rate>
								<string>00:00:00:00</string>
								<frame>0</frame>
								<displayformat>NDF</displayformat>
							</timecode>
							<media>
								<video>
									<samplecharacteristics>
										<rate>
											<timebase>25</timebase>
											<ntsc>FALSE</ntsc>
										</rate>
										<width>1920</width>
										<height>1080</height>
										<anamorphic>FALSE</anamorphic>
										<pixelaspectratio>square</pixelaspectratio>
										<fielddominance>none</fielddominance>
									</samplecharacteristics>
								</video>
								<audio>
									<samplecharacteristics>
										<depth>16</depth>
										<samplerate>44100</samplerate>
									</samplecharacteristics>
									<channelcount>2</channelcount>
								</audio>
							</media>
						</file>
						<link>
							<linkclipref>clipitem-87</linkclipref>
							<mediatype>video</mediatype>
							<trackindex>1</trackindex>
							<clipindex>3</clipindex>
						</link>
						<link>
							<linkclipref>clipitem-95</linkclipref>
							<mediatype>audio</mediatype>
							<trackindex>1</trackindex>
							<clipindex>3</clipindex>
							<groupindex>1</groupindex>
						</link>
						<link>
							<linkclipref>clipitem-103</linkclipref>
							<mediatype>audio</mediatype>
							<trackindex>2</trackindex>
							<clipindex>3</clipindex>
							<groupindex>1</groupindex>
						</link>
						<logginginfo>
							<description />
							<scene />
							<shottake />
							<lognote />
							<good />
							<originalvideofilename />
							<originalaudiofilename />
						</logginginfo>
						<colorinfo>
							<lut />
							<lut1 />
							<asc_sop />
							<asc_sat />
							<lut2 />
						</colorinfo>
					<labels><label2>Caribbean</label2></labels></clipitem>
					<clipitem id="clipitem-90">
						<masterclipid>clipitem-6-38</masterclipid>
						<name>Travis_Kelce_talks_about_postponing_his_wedding_to_Fiance_Taylor_Swift_on_the_New_Heights_Podcast.mp4</name>
						<enabled>TRUE</enabled>
						<duration>150</duration>
						<rate>
							<timebase>25</timebase>
							<ntsc>FALSE</ntsc>
						</rate>
						<start>56550</start>
						<end>56700</end>
						<in>5550</in>
						<out>5700</out>
						<pproTicksIn>0</pproTicksIn>
						<pproTicksOut>149391889920000</pproTicksOut>
						<alphatype>none</alphatype>
						<pixelaspectratio>square</pixelaspectratio>
						<anamorphic>FALSE</anamorphic>
						<file id="file-34">
							<name>Travis_Kelce_talks_about_postponing_his_wedding_to_Fiance_Taylor_Swift_on_the_New_Heights_Podcast.mp4</name>
							<pathurl>file://localhost/Users/themalikano/Documents/VideoAutomation/premiere_videos/Travis_Kelce_talks_about_postponing_his_wedding_to_Fiance_Taylor_Swift_on_the_New_Heights_Podcast.mp4</pathurl>
							<rate>
								<timebase>30</timebase>
								<ntsc>FALSE</ntsc>
							</rate>
							<duration>17644</duration>
							<timecode>
								<rate>
									<timebase>30</timebase>
									<ntsc>FALSE</ntsc>
								</rate>
								<string>00:00:00:00</string>
								<frame>0</frame>
								<displayformat>NDF</displayformat>
							</timecode>
							<media>
								<video>
									<samplecharacteristics>
										<rate>
											<timebase>30</timebase>
											<ntsc>FALSE</ntsc>
										</rate>
										<width>1920</width>
										<height>1080</height>
										<anamorphic>FALSE</anamorphic>
										<pixelaspectratio>square</pixelaspectratio>
										<fielddominance>none</fielddominance>
									</samplecharacteristics>
								</video>
								<audio>
									<samplecharacteristics>
										<depth>16</depth>
										<samplerate>44100</samplerate>
									</samplecharacteristics>
									<channelcount>2</channelcount>
								</audio>
							</media>
						</file>
						<link>
							<linkclipref>clipitem-90</linkclipref>
							<mediatype>video</mediatype>
							<trackindex>1</trackindex>
							<clipindex>6</clipindex>
						</link>
						<link>
							<linkclipref>clipitem-98</linkclipref>
							<mediatype>audio</mediatype>
							<trackindex>1</trackindex>
							<clipindex>6</clipindex>
							<groupindex>1</groupindex>
						</link>
						<link>
							<linkclipref>clipitem-106</linkclipref>
							<mediatype>audio</mediatype>
							<trackindex>2</trackindex>
							<clipindex>6</clipindex>
							<groupindex>1</groupindex>
						</link>
						<logginginfo>
							<description />
							<scene />
							<shottake />
							<lognote />
							<good />
							<originalvideofilename />
							<originalaudiofilename />
						</logginginfo>
						<colorinfo>
							<lut />
							<lut1 />
							<asc_sop />
							<asc_sat />
							<lut2 />
						</colorinfo>
					<labels><label2>Forest</label2></labels></clipitem>
					<clipitem id="clipitem-87">
						<masterclipid>clipitem-3-519</masterclipid>
						<name>Taylor_Swift_Travis_Kelce_-_The_New_Power_Couple.mp4</name>
						<enabled>TRUE</enabled>
						<duration>150</duration>
						<rate>
							<timebase>25</timebase>
							<ntsc>FALSE</ntsc>
						</rate>
						<start>56700</start>
						<end>56850</end>
						<in>77700</in>
						<out>77850</out>
						<pproTicksIn>0</pproTicksIn>
						<pproTicksOut>875013995520000</pproTicksOut>
						<alphatype>none</alphatype>
						<pixelaspectratio>square</pixelaspectratio>
						<anamorphic>FALSE</anamorphic>
						<file id="file-31">
							<name>Taylor_Swift_Travis_Kelce_-_The_New_Power_Couple.mp4</name>
							<pathurl>file://localhost/Users/themalikano/Documents/VideoAutomation/premiere_videos/Taylor_Swift_Travis_Kelce_-_The_New_Power_Couple.mp4</pathurl>
							<rate>
								<timebase>25</timebase>
								<ntsc>FALSE</ntsc>
							</rate>
							<duration>86118</duration>
							<timecode>
								<rate>
									<timebase>25</timebase>
									<ntsc>FALSE</ntsc>
								</rate>
								<string>00:00:00:00</string>
								<frame>0</frame>
								<displayformat>NDF</displayformat>
							</timecode>
							<media>
								<video>
									<samplecharacteristics>
										<rate>
											<timebase>25</timebase>
											<ntsc>FALSE</ntsc>
										</rate>
										<width>1920</width>
										<height>1080</height>
										<anamorphic>FALSE</anamorphic>
										<pixelaspectratio>square</pixelaspectratio>
										<fielddominance>none</fielddominance>
									</samplecharacteristics>
								</video>
								<audio>
									<samplecharacteristics>
										<depth>16</depth>
										<samplerate>44100</samplerate>
									</samplecharacteristics>
									<channelcount>2</channelcount>
								</audio>
							</media>
						</file>
						<link>
							<linkclipref>clipitem-87</linkclipref>
							<mediatype>video</mediatype>
							<trackindex>1</trackindex>
							<clipindex>3</clipindex>
						</link>
						<link>
							<linkclipref>clipitem-95</linkclipref>
							<mediatype>audio</mediatype>
							<trackindex>1</trackindex>
							<clipindex>3</clipindex>
							<groupindex>1</groupindex>
						</link>
						<link>
							<linkclipref>clipitem-103</linkclipref>
							<mediatype>audio</mediatype>
							<trackindex>2</trackindex>
							<clipindex>3</clipindex>
							<groupindex>1</groupindex>
						</link>
						<logginginfo>
							<description />
							<scene />
							<shottake />
							<lognote />
							<good />
							<originalvideofilename />
							<originalaudiofilename />
						</logginginfo>
						<colorinfo>
							<lut />
							<lut1 />
							<asc_sop />
							<asc_sat />
							<lut2 />
						</colorinfo>
					<labels><label2>Caribbean</label2></labels></clipitem>
					<clipitem id="clipitem-90">
						<masterclipid>clipitem-6-61</masterclipid>
						<name>Travis_Kelce_talks_about_postponing_his_wedding_to_Fiance_Taylor_Swift_on_the_New_Heights_Podcast.mp4</name>
						<enabled>TRUE</enabled>
						<duration>150</duration>
						<rate>
							<timebase>25</timebase>
							<ntsc>FALSE</ntsc>
						</rate>
						<start>56850</start>
						<end>57000</end>
						<in>9000</in>
						<out>9150</out>
						<pproTicksIn>0</pproTicksIn>
						<pproTicksOut>149391889920000</pproTicksOut>
						<alphatype>none</alphatype>
						<pixelaspectratio>square</pixelaspectratio>
						<anamorphic>FALSE</anamorphic>
						<file id="file-34">
							<name>Travis_Kelce_talks_about_postponing_his_wedding_to_Fiance_Taylor_Swift_on_the_New_Heights_Podcast.mp4</name>
							<pathurl>file://localhost/Users/themalikano/Documents/VideoAutomation/premiere_videos/Travis_Kelce_talks_about_postponing_his_wedding_to_Fiance_Taylor_Swift_on_the_New_Heights_Podcast.mp4</pathurl>
							<rate>
								<timebase>30</timebase>
								<ntsc>FALSE</ntsc>
							</rate>
							<duration>17644</duration>
							<timecode>
								<rate>
									<timebase>30</timebase>
									<ntsc>FALSE</ntsc>
								</rate>
								<string>00:00:00:00</string>
								<frame>0</frame>
								<displayformat>NDF</displayformat>
							</timecode>
							<media>
								<video>
									<samplecharacteristics>
										<rate>
											<timebase>30</timebase>
											<ntsc>FALSE</ntsc>
										</rate>
										<width>1920</width>
										<height>1080</height>
										<anamorphic>FALSE</anamorphic>
										<pixelaspectratio>square</pixelaspectratio>
										<fielddominance>none</fielddominance>
									</samplecharacteristics>
								</video>
								<audio>
									<samplecharacteristics>
										<depth>16</depth>
										<samplerate>44100</samplerate>
									</samplecharacteristics>
									<channelcount>2</channelcount>
								</audio>
							</media>
						</file>
						<link>
							<linkclipref>clipitem-90</linkclipref>
							<mediatype>video</mediatype>
							<trackindex>1</trackindex>
							<clipindex>6</clipindex>
						</link>
						<link>
							<linkclipref>clipitem-98</linkclipref>
							<mediatype>audio</mediatype>
							<trackindex>1</trackindex>
							<clipindex>6</clipindex>
							<groupindex>1</groupindex>
						</link>
						<link>
							<linkclipref>clipitem-106</linkclipref>
							<mediatype>audio</mediatype>
							<trackindex>2</trackindex>
							<clipindex>6</clipindex>
							<groupindex>1</groupindex>
						</link>
						<logginginfo>
							<description />
							<scene />
							<shottake />
							<lognote />
							<good />
							<originalvideofilename />
							<originalaudiofilename />
						</logginginfo>
						<colorinfo>
							<lut />
							<lut1 />
							<asc_sop />
							<asc_sat />
							<lut2 />
						</colorinfo>
					<labels><label2>Forest</label2></labels></clipitem>
					<clipitem id="clipitem-88">
						<masterclipid>clipitem-4-209</masterclipid>
						<name>Travis_Kelce_ANNOUNCE_WEDDING_DATE_with_Taylor_Swift_Why_He_was_Delaying_all_Along.mp4</name>
						<enabled>TRUE</enabled>
						<duration>150</duration>
						<rate>
							<timebase>25</timebase>
							<ntsc>FALSE</ntsc>
						</rate>
						<start>57000</start>
						<end>57150</end>
						<in>31200</in>
						<out>31350</out>
						<pproTicksIn>0</pproTicksIn>
						<pproTicksOut>419410897920000</pproTicksOut>
						<alphatype>none</alphatype>
						<pixelaspectratio>square</pixelaspectratio>
						<anamorphic>FALSE</anamorphic>
						<file id="file-32">
							<name>Travis_Kelce_ANNOUNCE_WEDDING_DATE_with_Taylor_Swift_Why_He_was_Delaying_all_Along.mp4</name>
							<pathurl>file://localhost/Users/themalikano/Documents/VideoAutomation/premiere_videos/Travis_Kelce_ANNOUNCE_WEDDING_DATE_with_Taylor_Swift_Why_He_was_Delaying_all_Along.mp4</pathurl>
							<rate>
								<timebase>24</timebase>
								<ntsc>FALSE</ntsc>
							</rate>
							<duration>39627</duration>
							<timecode>
								<rate>
									<timebase>24</timebase>
									<ntsc>FALSE</ntsc>
								</rate>
								<string>00:00:00:00</string>
								<frame>0</frame>
								<displayformat>NDF</displayformat>
							</timecode>
							<media>
								<video>
									<samplecharacteristics>
										<rate>
											<timebase>24</timebase>
											<ntsc>FALSE</ntsc>
										</rate>
										<width>852</width>
										<height>480</height>
										<anamorphic>FALSE</anamorphic>
										<pixelaspectratio>square</pixelaspectratio>
										<fielddominance>none</fielddominance>
									</samplecharacteristics>
								</video>
								<audio>
									<samplecharacteristics>
										<depth>16</depth>
										<samplerate>44100</samplerate>
									</samplecharacteristics>
									<channelcount>2</channelcount>
								</audio>
							</media>
						</file>
						<filter>
							<effect>
								<name>Basic Motion</name>
								<effectid>basic</effectid>
								<effectcategory>motion</effectcategory>
								<effecttype>motion</effecttype>
								<mediatype>video</mediatype>
								<pproBypass>false</pproBypass>
								<parameter authoringApp="PremierePro">
									<parameterid>scale</parameterid>
									<name>Scale</name>
									<valuemin>0</valuemin>
									<valuemax>1000</valuemax>
									<value>225</value>
								</parameter>
								<parameter authoringApp="PremierePro">
									<parameterid>rotation</parameterid>
									<name>Rotation</name>
									<valuemin>-8640</valuemin>
									<valuemax>8640</valuemax>
									<value>0</value>
								</parameter>
								<parameter authoringApp="PremierePro">
									<parameterid>center</parameterid>
									<name>Center</name>
									<value>
										<horiz>0</horiz>
										<vert>0</vert>
									</value>
								</parameter>
								<parameter authoringApp="PremierePro">
									<parameterid>centerOffset</parameterid>
									<name>Anchor Point</name>
									<value>
										<horiz>0</horiz>
										<vert>0</vert>
									</value>
								</parameter>
								<parameter authoringApp="PremierePro">
									<parameterid>antiflicker</parameterid>
									<name>Anti-flicker Filter</name>
									<valuemin>0.0</valuemin>
									<valuemax>1.0</valuemax>
									<value>0</value>
								</parameter>
							</effect>
						</filter>
						<link>
							<linkclipref>clipitem-88</linkclipref>
							<mediatype>video</mediatype>
							<trackindex>1</trackindex>
							<clipindex>4</clipindex>
						</link>
						<link>
							<linkclipref>clipitem-96</linkclipref>
							<mediatype>audio</mediatype>
							<trackindex>1</trackindex>
							<clipindex>4</clipindex>
							<groupindex>1</groupindex>
						</link>
						<link>
							<linkclipref>clipitem-104</linkclipref>
							<mediatype>audio</mediatype>
							<trackindex>2</trackindex>
							<clipindex>4</clipindex>
							<groupindex>1</groupindex>
						</link>
						<logginginfo>
							<description />
							<scene />
							<shottake />
							<lognote />
							<good />
							<originalvideofilename />
							<originalaudiofilename />
						</logginginfo>
						<colorinfo>
							<lut />
							<lut1 />
							<asc_sop />
							<asc_sat />
							<lut2 />
						</colorinfo>
					<labels><label2>Lavender</label2></labels></clipitem>
					<clipitem id="clipitem-87">
						<masterclipid>clipitem-3-156</masterclipid>
						<name>Taylor_Swift_Travis_Kelce_-_The_New_Power_Couple.mp4</name>
						<enabled>TRUE</enabled>
						<duration>150</duration>
						<rate>
							<timebase>25</timebase>
							<ntsc>FALSE</ntsc>
						</rate>
						<start>57150</start>
						<end>57300</end>
						<in>23250</in>
						<out>23400</out>
						<pproTicksIn>0</pproTicksIn>
						<pproTicksOut>875013995520000</pproTicksOut>
						<alphatype>none</alphatype>
						<pixelaspectratio>square</pixelaspectratio>
						<anamorphic>FALSE</anamorphic>
						<file id="file-31">
							<name>Taylor_Swift_Travis_Kelce_-_The_New_Power_Couple.mp4</name>
							<pathurl>file://localhost/Users/themalikano/Documents/VideoAutomation/premiere_videos/Taylor_Swift_Travis_Kelce_-_The_New_Power_Couple.mp4</pathurl>
							<rate>
								<timebase>25</timebase>
								<ntsc>FALSE</ntsc>
							</rate>
							<duration>86118</duration>
							<timecode>
								<rate>
									<timebase>25</timebase>
									<ntsc>FALSE</ntsc>
								</rate>
								<string>00:00:00:00</string>
								<frame>0</frame>
								<displayformat>NDF</displayformat>
							</timecode>
							<media>
								<video>
									<samplecharacteristics>
										<rate>
											<timebase>25</timebase>
											<ntsc>FALSE</ntsc>
										</rate>
										<width>1920</width>
										<height>1080</height>
										<anamorphic>FALSE</anamorphic>
										<pixelaspectratio>square</pixelaspectratio>
										<fielddominance>none</fielddominance>
									</samplecharacteristics>
								</video>
								<audio>
									<samplecharacteristics>
										<depth>16</depth>
										<samplerate>44100</samplerate>
									</samplecharacteristics>
									<channelcount>2</channelcount>
								</audio>
							</media>
						</file>
						<link>
							<linkclipref>clipitem-87</linkclipref>
							<mediatype>video</mediatype>
							<trackindex>1</trackindex>
							<clipindex>3</clipindex>
						</link>
						<link>
							<linkclipref>clipitem-95</linkclipref>
							<mediatype>audio</mediatype>
							<trackindex>1</trackindex>
							<clipindex>3</clipindex>
							<groupindex>1</groupindex>
						</link>
						<link>
							<linkclipref>clipitem-103</linkclipref>
							<mediatype>audio</mediatype>
							<trackindex>2</trackindex>
							<clipindex>3</clipindex>
							<groupindex>1</groupindex>
						</link>
						<logginginfo>
							<description />
							<scene />
							<shottake />
							<lognote />
							<good />
							<originalvideofilename />
							<originalaudiofilename />
						</logginginfo>
						<colorinfo>
							<lut />
							<lut1 />
							<asc_sop />
							<asc_sat />
							<lut2 />
						</colorinfo>
					<labels><label2>Caribbean</label2></labels></clipitem>
					<clipitem id="clipitem-88">
						<masterclipid>clipitem-4-135</masterclipid>
						<name>Travis_Kelce_ANNOUNCE_WEDDING_DATE_with_Taylor_Swift_Why_He_was_Delaying_all_Along.mp4</name>
						<enabled>TRUE</enabled>
						<duration>150</duration>
						<rate>
							<timebase>25</timebase>
							<ntsc>FALSE</ntsc>
						</rate>
						<start>57300</start>
						<end>57450</end>
						<in>20100</in>
						<out>20250</out>
						<pproTicksIn>0</pproTicksIn>
						<pproTicksOut>419410897920000</pproTicksOut>
						<alphatype>none</alphatype>
						<pixelaspectratio>square</pixelaspectratio>
						<anamorphic>FALSE</anamorphic>
						<file id="file-32">
							<name>Travis_Kelce_ANNOUNCE_WEDDING_DATE_with_Taylor_Swift_Why_He_was_Delaying_all_Along.mp4</name>
							<pathurl>file://localhost/Users/themalikano/Documents/VideoAutomation/premiere_videos/Travis_Kelce_ANNOUNCE_WEDDING_DATE_with_Taylor_Swift_Why_He_was_Delaying_all_Along.mp4</pathurl>
							<rate>
								<timebase>24</timebase>
								<ntsc>FALSE</ntsc>
							</rate>
							<duration>39627</duration>
							<timecode>
								<rate>
									<timebase>24</timebase>
									<ntsc>FALSE</ntsc>
								</rate>
								<string>00:00:00:00</string>
								<frame>0</frame>
								<displayformat>NDF</displayformat>
							</timecode>
							<media>
								<video>
									<samplecharacteristics>
										<rate>
											<timebase>24</timebase>
											<ntsc>FALSE</ntsc>
										</rate>
										<width>852</width>
										<height>480</height>
										<anamorphic>FALSE</anamorphic>
										<pixelaspectratio>square</pixelaspectratio>
										<fielddominance>none</fielddominance>
									</samplecharacteristics>
								</video>
								<audio>
									<samplecharacteristics>
										<depth>16</depth>
										<samplerate>44100</samplerate>
									</samplecharacteristics>
									<channelcount>2</channelcount>
								</audio>
							</media>
						</file>
						<filter>
							<effect>
								<name>Basic Motion</name>
								<effectid>basic</effectid>
								<effectcategory>motion</effectcategory>
								<effecttype>motion</effecttype>
								<mediatype>video</mediatype>
								<pproBypass>false</pproBypass>
								<parameter authoringApp="PremierePro">
									<parameterid>scale</parameterid>
									<name>Scale</name>
									<valuemin>0</valuemin>
									<valuemax>1000</valuemax>
									<value>225</value>
								</parameter>
								<parameter authoringApp="PremierePro">
									<parameterid>rotation</parameterid>
									<name>Rotation</name>
									<valuemin>-8640</valuemin>
									<valuemax>8640</valuemax>
									<value>0</value>
								</parameter>
								<parameter authoringApp="PremierePro">
									<parameterid>center</parameterid>
									<name>Center</name>
									<value>
										<horiz>0</horiz>
										<vert>0</vert>
									</value>
								</parameter>
								<parameter authoringApp="PremierePro">
									<parameterid>centerOffset</parameterid>
									<name>Anchor Point</name>
									<value>
										<horiz>0</horiz>
										<vert>0</vert>
									</value>
								</parameter>
								<parameter authoringApp="PremierePro">
									<parameterid>antiflicker</parameterid>
									<name>Anti-flicker Filter</name>
									<valuemin>0.0</valuemin>
									<valuemax>1.0</valuemax>
									<value>0</value>
								</parameter>
							</effect>
						</filter>
						<link>
							<linkclipref>clipitem-88</linkclipref>
							<mediatype>video</mediatype>
							<trackindex>1</trackindex>
							<clipindex>4</clipindex>
						</link>
						<link>
							<linkclipref>clipitem-96</linkclipref>
							<mediatype>audio</mediatype>
							<trackindex>1</trackindex>
							<clipindex>4</clipindex>
							<groupindex>1</groupindex>
						</link>
						<link>
							<linkclipref>clipitem-104</linkclipref>
							<mediatype>audio</mediatype>
							<trackindex>2</trackindex>
							<clipindex>4</clipindex>
							<groupindex>1</groupindex>
						</link>
						<logginginfo>
							<description />
							<scene />
							<shottake />
							<lognote />
							<good />
							<originalvideofilename />
							<originalaudiofilename />
						</logginginfo>
						<colorinfo>
							<lut />
							<lut1 />
							<asc_sop />
							<asc_sat />
							<lut2 />
						</colorinfo>
					<labels><label2>Lavender</label2></labels></clipitem>
					<clipitem id="clipitem-87">
						<masterclipid>clipitem-3-497</masterclipid>
						<name>Taylor_Swift_Travis_Kelce_-_The_New_Power_Couple.mp4</name>
						<enabled>TRUE</enabled>
						<duration>150</duration>
						<rate>
							<timebase>25</timebase>
							<ntsc>FALSE</ntsc>
						</rate>
						<start>57450</start>
						<end>57600</end>
						<in>74400</in>
						<out>74550</out>
						<pproTicksIn>0</pproTicksIn>
						<pproTicksOut>875013995520000</pproTicksOut>
						<alphatype>none</alphatype>
						<pixelaspectratio>square</pixelaspectratio>
						<anamorphic>FALSE</anamorphic>
						<file id="file-31">
							<name>Taylor_Swift_Travis_Kelce_-_The_New_Power_Couple.mp4</name>
							<pathurl>file://localhost/Users/themalikano/Documents/VideoAutomation/premiere_videos/Taylor_Swift_Travis_Kelce_-_The_New_Power_Couple.mp4</pathurl>
							<rate>
								<timebase>25</timebase>
								<ntsc>FALSE</ntsc>
							</rate>
							<duration>86118</duration>
							<timecode>
								<rate>
									<timebase>25</timebase>
									<ntsc>FALSE</ntsc>
								</rate>
								<string>00:00:00:00</string>
								<frame>0</frame>
								<displayformat>NDF</displayformat>
							</timecode>
							<media>
								<video>
									<samplecharacteristics>
										<rate>
											<timebase>25</timebase>
											<ntsc>FALSE</ntsc>
										</rate>
										<width>1920</width>
										<height>1080</height>
										<anamorphic>FALSE</anamorphic>
										<pixelaspectratio>square</pixelaspectratio>
										<fielddominance>none</fielddominance>
									</samplecharacteristics>
								</video>
								<audio>
									<samplecharacteristics>
										<depth>16</depth>
										<samplerate>44100</samplerate>
									</samplecharacteristics>
									<channelcount>2</channelcount>
								</audio>
							</media>
						</file>
						<link>
							<linkclipref>clipitem-87</linkclipref>
							<mediatype>video</mediatype>
							<trackindex>1</trackindex>
							<clipindex>3</clipindex>
						</link>
						<link>
							<linkclipref>clipitem-95</linkclipref>
							<mediatype>audio</mediatype>
							<trackindex>1</trackindex>
							<clipindex>3</clipindex>
							<groupindex>1</groupindex>
						</link>
						<link>
							<linkclipref>clipitem-103</linkclipref>
							<mediatype>audio</mediatype>
							<trackindex>2</trackindex>
							<clipindex>3</clipindex>
							<groupindex>1</groupindex>
						</link>
						<logginginfo>
							<description />
							<scene />
							<shottake />
							<lognote />
							<good />
							<originalvideofilename />
							<originalaudiofilename />
						</logginginfo>
						<colorinfo>
							<lut />
							<lut1 />
							<asc_sop />
							<asc_sat />
							<lut2 />
						</colorinfo>
					<labels><label2>Caribbean</label2></labels></clipitem>
					<clipitem id="clipitem-90">
						<masterclipid>clipitem-6-22</masterclipid>
						<name>Travis_Kelce_talks_about_postponing_his_wedding_to_Fiance_Taylor_Swift_on_the_New_Heights_Podcast.mp4</name>
						<enabled>TRUE</enabled>
						<duration>150</duration>
						<rate>
							<timebase>25</timebase>
							<ntsc>FALSE</ntsc>
						</rate>
						<start>57600</start>
						<end>57750</end>
						<in>3150</in>
						<out>3300</out>
						<pproTicksIn>0</pproTicksIn>
						<pproTicksOut>149391889920000</pproTicksOut>
						<alphatype>none</alphatype>
						<pixelaspectratio>square</pixelaspectratio>
						<anamorphic>FALSE</anamorphic>
						<file id="file-34">
							<name>Travis_Kelce_talks_about_postponing_his_wedding_to_Fiance_Taylor_Swift_on_the_New_Heights_Podcast.mp4</name>
							<pathurl>file://localhost/Users/themalikano/Documents/VideoAutomation/premiere_videos/Travis_Kelce_talks_about_postponing_his_wedding_to_Fiance_Taylor_Swift_on_the_New_Heights_Podcast.mp4</pathurl>
							<rate>
								<timebase>30</timebase>
								<ntsc>FALSE</ntsc>
							</rate>
							<duration>17644</duration>
							<timecode>
								<rate>
									<timebase>30</timebase>
									<ntsc>FALSE</ntsc>
								</rate>
								<string>00:00:00:00</string>
								<frame>0</frame>
								<displayformat>NDF</displayformat>
							</timecode>
							<media>
								<video>
									<samplecharacteristics>
										<rate>
											<timebase>30</timebase>
											<ntsc>FALSE</ntsc>
										</rate>
										<width>1920</width>
										<height>1080</height>
										<anamorphic>FALSE</anamorphic>
										<pixelaspectratio>square</pixelaspectratio>
										<fielddominance>none</fielddominance>
									</samplecharacteristics>
								</video>
								<audio>
									<samplecharacteristics>
										<depth>16</depth>
										<samplerate>44100</samplerate>
									</samplecharacteristics>
									<channelcount>2</channelcount>
								</audio>
							</media>
						</file>
						<link>
							<linkclipref>clipitem-90</linkclipref>
							<mediatype>video</mediatype>
							<trackindex>1</trackindex>
							<clipindex>6</clipindex>
						</link>
						<link>
							<linkclipref>clipitem-98</linkclipref>
							<mediatype>audio</mediatype>
							<trackindex>1</trackindex>
							<clipindex>6</clipindex>
							<groupindex>1</groupindex>
						</link>
						<link>
							<linkclipref>clipitem-106</linkclipref>
							<mediatype>audio</mediatype>
							<trackindex>2</trackindex>
							<clipindex>6</clipindex>
							<groupindex>1</groupindex>
						</link>
						<logginginfo>
							<description />
							<scene />
							<shottake />
							<lognote />
							<good />
							<originalvideofilename />
							<originalaudiofilename />
						</logginginfo>
						<colorinfo>
							<lut />
							<lut1 />
							<asc_sop />
							<asc_sat />
							<lut2 />
						</colorinfo>
					<labels><label2>Forest</label2></labels></clipitem>
					<clipitem id="clipitem-88">
						<masterclipid>clipitem-4-183</masterclipid>
						<name>Travis_Kelce_ANNOUNCE_WEDDING_DATE_with_Taylor_Swift_Why_He_was_Delaying_all_Along.mp4</name>
						<enabled>TRUE</enabled>
						<duration>150</duration>
						<rate>
							<timebase>25</timebase>
							<ntsc>FALSE</ntsc>
						</rate>
						<start>57750</start>
						<end>57900</end>
						<in>27300</in>
						<out>27450</out>
						<pproTicksIn>0</pproTicksIn>
						<pproTicksOut>419410897920000</pproTicksOut>
						<alphatype>none</alphatype>
						<pixelaspectratio>square</pixelaspectratio>
						<anamorphic>FALSE</anamorphic>
						<file id="file-32">
							<name>Travis_Kelce_ANNOUNCE_WEDDING_DATE_with_Taylor_Swift_Why_He_was_Delaying_all_Along.mp4</name>
							<pathurl>file://localhost/Users/themalikano/Documents/VideoAutomation/premiere_videos/Travis_Kelce_ANNOUNCE_WEDDING_DATE_with_Taylor_Swift_Why_He_was_Delaying_all_Along.mp4</pathurl>
							<rate>
								<timebase>24</timebase>
								<ntsc>FALSE</ntsc>
							</rate>
							<duration>39627</duration>
							<timecode>
								<rate>
									<timebase>24</timebase>
									<ntsc>FALSE</ntsc>
								</rate>
								<string>00:00:00:00</string>
								<frame>0</frame>
								<displayformat>NDF</displayformat>
							</timecode>
							<media>
								<video>
									<samplecharacteristics>
										<rate>
											<timebase>24</timebase>
											<ntsc>FALSE</ntsc>
										</rate>
										<width>852</width>
										<height>480</height>
										<anamorphic>FALSE</anamorphic>
										<pixelaspectratio>square</pixelaspectratio>
										<fielddominance>none</fielddominance>
									</samplecharacteristics>
								</video>
								<audio>
									<samplecharacteristics>
										<depth>16</depth>
										<samplerate>44100</samplerate>
									</samplecharacteristics>
									<channelcount>2</channelcount>
								</audio>
							</media>
						</file>
						<filter>
							<effect>
								<name>Basic Motion</name>
								<effectid>basic</effectid>
								<effectcategory>motion</effectcategory>
								<effecttype>motion</effecttype>
								<mediatype>video</mediatype>
								<pproBypass>false</pproBypass>
								<parameter authoringApp="PremierePro">
									<parameterid>scale</parameterid>
									<name>Scale</name>
									<valuemin>0</valuemin>
									<valuemax>1000</valuemax>
									<value>225</value>
								</parameter>
								<parameter authoringApp="PremierePro">
									<parameterid>rotation</parameterid>
									<name>Rotation</name>
									<valuemin>-8640</valuemin>
									<valuemax>8640</valuemax>
									<value>0</value>
								</parameter>
								<parameter authoringApp="PremierePro">
									<parameterid>center</parameterid>
									<name>Center</name>
									<value>
										<horiz>0</horiz>
										<vert>0</vert>
									</value>
								</parameter>
								<parameter authoringApp="PremierePro">
									<parameterid>centerOffset</parameterid>
									<name>Anchor Point</name>
									<value>
										<horiz>0</horiz>
										<vert>0</vert>
									</value>
								</parameter>
								<parameter authoringApp="PremierePro">
									<parameterid>antiflicker</parameterid>
									<name>Anti-flicker Filter</name>
									<valuemin>0.0</valuemin>
									<valuemax>1.0</valuemax>
									<value>0</value>
								</parameter>
							</effect>
						</filter>
						<link>
							<linkclipref>clipitem-88</linkclipref>
							<mediatype>video</mediatype>
							<trackindex>1</trackindex>
							<clipindex>4</clipindex>
						</link>
						<link>
							<linkclipref>clipitem-96</linkclipref>
							<mediatype>audio</mediatype>
							<trackindex>1</trackindex>
							<clipindex>4</clipindex>
							<groupindex>1</groupindex>
						</link>
						<link>
							<linkclipref>clipitem-104</linkclipref>
							<mediatype>audio</mediatype>
							<trackindex>2</trackindex>
							<clipindex>4</clipindex>
							<groupindex>1</groupindex>
						</link>
						<logginginfo>
							<description />
							<scene />
							<shottake />
							<lognote />
							<good />
							<originalvideofilename />
							<originalaudiofilename />
						</logginginfo>
						<colorinfo>
							<lut />
							<lut1 />
							<asc_sop />
							<asc_sat />
							<lut2 />
						</colorinfo>
					<labels><label2>Lavender</label2></labels></clipitem>
					<clipitem id="clipitem-87">
						<masterclipid>clipitem-3-452</masterclipid>
						<name>Taylor_Swift_Travis_Kelce_-_The_New_Power_Couple.mp4</name>
						<enabled>TRUE</enabled>
						<duration>150</duration>
						<rate>
							<timebase>25</timebase>
							<ntsc>FALSE</ntsc>
						</rate>
						<start>57900</start>
						<end>58050</end>
						<in>67650</in>
						<out>67800</out>
						<pproTicksIn>0</pproTicksIn>
						<pproTicksOut>875013995520000</pproTicksOut>
						<alphatype>none</alphatype>
						<pixelaspectratio>square</pixelaspectratio>
						<anamorphic>FALSE</anamorphic>
						<file id="file-31">
							<name>Taylor_Swift_Travis_Kelce_-_The_New_Power_Couple.mp4</name>
							<pathurl>file://localhost/Users/themalikano/Documents/VideoAutomation/premiere_videos/Taylor_Swift_Travis_Kelce_-_The_New_Power_Couple.mp4</pathurl>
							<rate>
								<timebase>25</timebase>
								<ntsc>FALSE</ntsc>
							</rate>
							<duration>86118</duration>
							<timecode>
								<rate>
									<timebase>25</timebase>
									<ntsc>FALSE</ntsc>
								</rate>
								<string>00:00:00:00</string>
								<frame>0</frame>
								<displayformat>NDF</displayformat>
							</timecode>
							<media>
								<video>
									<samplecharacteristics>
										<rate>
											<timebase>25</timebase>
											<ntsc>FALSE</ntsc>
										</rate>
										<width>1920</width>
										<height>1080</height>
										<anamorphic>FALSE</anamorphic>
										<pixelaspectratio>square</pixelaspectratio>
										<fielddominance>none</fielddominance>
									</samplecharacteristics>
								</video>
								<audio>
									<samplecharacteristics>
										<depth>16</depth>
										<samplerate>44100</samplerate>
									</samplecharacteristics>
									<channelcount>2</channelcount>
								</audio>
							</media>
						</file>
						<link>
							<linkclipref>clipitem-87</linkclipref>
							<mediatype>video</mediatype>
							<trackindex>1</trackindex>
							<clipindex>3</clipindex>
						</link>
						<link>
							<linkclipref>clipitem-95</linkclipref>
							<mediatype>audio</mediatype>
							<trackindex>1</trackindex>
							<clipindex>3</clipindex>
							<groupindex>1</groupindex>
						</link>
						<link>
							<linkclipref>clipitem-103</linkclipref>
							<mediatype>audio</mediatype>
							<trackindex>2</trackindex>
							<clipindex>3</clipindex>
							<groupindex>1</groupindex>
						</link>
						<logginginfo>
							<description />
							<scene />
							<shottake />
							<lognote />
							<good />
							<originalvideofilename />
							<originalaudiofilename />
						</logginginfo>
						<colorinfo>
							<lut />
							<lut1 />
							<asc_sop />
							<asc_sat />
							<lut2 />
						</colorinfo>
					<labels><label2>Caribbean</label2></labels></clipitem>
					<clipitem id="clipitem-86">
						<masterclipid>clipitem-2-105</masterclipid>
						<name>Taylor_Swift_Shares_The_Story_Of_Calling_Travis_Kelce_For_The_First_Time.mp4</name>
						<enabled>TRUE</enabled>
						<duration>150</duration>
						<rate>
							<timebase>25</timebase>
							<ntsc>FALSE</ntsc>
						</rate>
						<start>58050</start>
						<end>58200</end>
						<in>15600</in>
						<out>15750</out>
						<pproTicksIn>0</pproTicksIn>
						<pproTicksOut>236438092800000</pproTicksOut>
						<alphatype>none</alphatype>
						<pixelaspectratio>square</pixelaspectratio>
						<anamorphic>FALSE</anamorphic>
						<file id="file-30">
							<name>Taylor_Swift_Shares_The_Story_Of_Calling_Travis_Kelce_For_The_First_Time.mp4</name>
							<pathurl>file://localhost/Users/themalikano/Documents/VideoAutomation/premiere_videos/Taylor_Swift_Shares_The_Story_Of_Calling_Travis_Kelce_For_The_First_Time.mp4</pathurl>
							<rate>
								<timebase>30</timebase>
								<ntsc>TRUE</ntsc>
							</rate>
							<duration>27897</duration>
							<timecode>
								<rate>
									<timebase>30</timebase>
									<ntsc>TRUE</ntsc>
								</rate>
								<string>00:00:00:00</string>
								<frame>0</frame>
								<displayformat>NDF</displayformat>
							</timecode>
							<media>
								<video>
									<samplecharacteristics>
										<rate>
											<timebase>30</timebase>
											<ntsc>TRUE</ntsc>
										</rate>
										<width>1920</width>
										<height>1080</height>
										<anamorphic>FALSE</anamorphic>
										<pixelaspectratio>square</pixelaspectratio>
										<fielddominance>none</fielddominance>
									</samplecharacteristics>
								</video>
								<audio>
									<samplecharacteristics>
										<depth>16</depth>
										<samplerate>44100</samplerate>
									</samplecharacteristics>
									<channelcount>2</channelcount>
								</audio>
							</media>
						</file>
						<link>
							<linkclipref>clipitem-86</linkclipref>
							<mediatype>video</mediatype>
							<trackindex>1</trackindex>
							<clipindex>2</clipindex>
						</link>
						<link>
							<linkclipref>clipitem-94</linkclipref>
							<mediatype>audio</mediatype>
							<trackindex>1</trackindex>
							<clipindex>2</clipindex>
							<groupindex>1</groupindex>
						</link>
						<link>
							<linkclipref>clipitem-102</linkclipref>
							<mediatype>audio</mediatype>
							<trackindex>2</trackindex>
							<clipindex>2</clipindex>
							<groupindex>1</groupindex>
						</link>
						<logginginfo>
							<description />
							<scene />
							<shottake />
							<lognote />
							<good />
							<originalvideofilename />
							<originalaudiofilename />
						</logginginfo>
						<colorinfo>
							<lut />
							<lut1 />
							<asc_sop />
							<asc_sat />
							<lut2 />
						</colorinfo>
					<labels><label2>Iris</label2></labels></clipitem>
					<clipitem id="clipitem-90">
						<masterclipid>clipitem-6-66</masterclipid>
						<name>Travis_Kelce_talks_about_postponing_his_wedding_to_Fiance_Taylor_Swift_on_the_New_Heights_Podcast.mp4</name>
						<enabled>TRUE</enabled>
						<duration>150</duration>
						<rate>
							<timebase>25</timebase>
							<ntsc>FALSE</ntsc>
						</rate>
						<start>58200</start>
						<end>58350</end>
						<in>9750</in>
						<out>9900</out>
						<pproTicksIn>0</pproTicksIn>
						<pproTicksOut>149391889920000</pproTicksOut>
						<alphatype>none</alphatype>
						<pixelaspectratio>square</pixelaspectratio>
						<anamorphic>FALSE</anamorphic>
						<file id="file-34">
							<name>Travis_Kelce_talks_about_postponing_his_wedding_to_Fiance_Taylor_Swift_on_the_New_Heights_Podcast.mp4</name>
							<pathurl>file://localhost/Users/themalikano/Documents/VideoAutomation/premiere_videos/Travis_Kelce_talks_about_postponing_his_wedding_to_Fiance_Taylor_Swift_on_the_New_Heights_Podcast.mp4</pathurl>
							<rate>
								<timebase>30</timebase>
								<ntsc>FALSE</ntsc>
							</rate>
							<duration>17644</duration>
							<timecode>
								<rate>
									<timebase>30</timebase>
									<ntsc>FALSE</ntsc>
								</rate>
								<string>00:00:00:00</string>
								<frame>0</frame>
								<displayformat>NDF</displayformat>
							</timecode>
							<media>
								<video>
									<samplecharacteristics>
										<rate>
											<timebase>30</timebase>
											<ntsc>FALSE</ntsc>
										</rate>
										<width>1920</width>
										<height>1080</height>
										<anamorphic>FALSE</anamorphic>
										<pixelaspectratio>square</pixelaspectratio>
										<fielddominance>none</fielddominance>
									</samplecharacteristics>
								</video>
								<audio>
									<samplecharacteristics>
										<depth>16</depth>
										<samplerate>44100</samplerate>
									</samplecharacteristics>
									<channelcount>2</channelcount>
								</audio>
							</media>
						</file>
						<link>
							<linkclipref>clipitem-90</linkclipref>
							<mediatype>video</mediatype>
							<trackindex>1</trackindex>
							<clipindex>6</clipindex>
						</link>
						<link>
							<linkclipref>clipitem-98</linkclipref>
							<mediatype>audio</mediatype>
							<trackindex>1</trackindex>
							<clipindex>6</clipindex>
							<groupindex>1</groupindex>
						</link>
						<link>
							<linkclipref>clipitem-106</linkclipref>
							<mediatype>audio</mediatype>
							<trackindex>2</trackindex>
							<clipindex>6</clipindex>
							<groupindex>1</groupindex>
						</link>
						<logginginfo>
							<description />
							<scene />
							<shottake />
							<lognote />
							<good />
							<originalvideofilename />
							<originalaudiofilename />
						</logginginfo>
						<colorinfo>
							<lut />
							<lut1 />
							<asc_sop />
							<asc_sat />
							<lut2 />
						</colorinfo>
					<labels><label2>Forest</label2></labels></clipitem>
					<clipitem id="clipitem-87">
						<masterclipid>clipitem-3-138</masterclipid>
						<name>Taylor_Swift_Travis_Kelce_-_The_New_Power_Couple.mp4</name>
						<enabled>TRUE</enabled>
						<duration>150</duration>
						<rate>
							<timebase>25</timebase>
							<ntsc>FALSE</ntsc>
						</rate>
						<start>58350</start>
						<end>58500</end>
						<in>20550</in>
						<out>20700</out>
						<pproTicksIn>0</pproTicksIn>
						<pproTicksOut>875013995520000</pproTicksOut>
						<alphatype>none</alphatype>
						<pixelaspectratio>square</pixelaspectratio>
						<anamorphic>FALSE</anamorphic>
						<file id="file-31">
							<name>Taylor_Swift_Travis_Kelce_-_The_New_Power_Couple.mp4</name>
							<pathurl>file://localhost/Users/themalikano/Documents/VideoAutomation/premiere_videos/Taylor_Swift_Travis_Kelce_-_The_New_Power_Couple.mp4</pathurl>
							<rate>
								<timebase>25</timebase>
								<ntsc>FALSE</ntsc>
							</rate>
							<duration>86118</duration>
							<timecode>
								<rate>
									<timebase>25</timebase>
									<ntsc>FALSE</ntsc>
								</rate>
								<string>00:00:00:00</string>
								<frame>0</frame>
								<displayformat>NDF</displayformat>
							</timecode>
							<media>
								<video>
									<samplecharacteristics>
										<rate>
											<timebase>25</timebase>
											<ntsc>FALSE</ntsc>
										</rate>
										<width>1920</width>
										<height>1080</height>
										<anamorphic>FALSE</anamorphic>
										<pixelaspectratio>square</pixelaspectratio>
										<fielddominance>none</fielddominance>
									</samplecharacteristics>
								</video>
								<audio>
									<samplecharacteristics>
										<depth>16</depth>
										<samplerate>44100</samplerate>
									</samplecharacteristics>
									<channelcount>2</channelcount>
								</audio>
							</media>
						</file>
						<link>
							<linkclipref>clipitem-87</linkclipref>
							<mediatype>video</mediatype>
							<trackindex>1</trackindex>
							<clipindex>3</clipindex>
						</link>
						<link>
							<linkclipref>clipitem-95</linkclipref>
							<mediatype>audio</mediatype>
							<trackindex>1</trackindex>
							<clipindex>3</clipindex>
							<groupindex>1</groupindex>
						</link>
						<link>
							<linkclipref>clipitem-103</linkclipref>
							<mediatype>audio</mediatype>
							<trackindex>2</trackindex>
							<clipindex>3</clipindex>
							<groupindex>1</groupindex>
						</link>
						<logginginfo>
							<description />
							<scene />
							<shottake />
							<lognote />
							<good />
							<originalvideofilename />
							<originalaudiofilename />
						</logginginfo>
						<colorinfo>
							<lut />
							<lut1 />
							<asc_sop />
							<asc_sat />
							<lut2 />
						</colorinfo>
					<labels><label2>Caribbean</label2></labels></clipitem>
					<clipitem id="clipitem-86">
						<masterclipid>clipitem-2-15</masterclipid>
						<name>Taylor_Swift_Shares_The_Story_Of_Calling_Travis_Kelce_For_The_First_Time.mp4</name>
						<enabled>TRUE</enabled>
						<duration>150</duration>
						<rate>
							<timebase>25</timebase>
							<ntsc>FALSE</ntsc>
						</rate>
						<start>58500</start>
						<end>58650</end>
						<in>2100</in>
						<out>2250</out>
						<pproTicksIn>0</pproTicksIn>
						<pproTicksOut>236438092800000</pproTicksOut>
						<alphatype>none</alphatype>
						<pixelaspectratio>square</pixelaspectratio>
						<anamorphic>FALSE</anamorphic>
						<file id="file-30">
							<name>Taylor_Swift_Shares_The_Story_Of_Calling_Travis_Kelce_For_The_First_Time.mp4</name>
							<pathurl>file://localhost/Users/themalikano/Documents/VideoAutomation/premiere_videos/Taylor_Swift_Shares_The_Story_Of_Calling_Travis_Kelce_For_The_First_Time.mp4</pathurl>
							<rate>
								<timebase>30</timebase>
								<ntsc>TRUE</ntsc>
							</rate>
							<duration>27897</duration>
							<timecode>
								<rate>
									<timebase>30</timebase>
									<ntsc>TRUE</ntsc>
								</rate>
								<string>00:00:00:00</string>
								<frame>0</frame>
								<displayformat>NDF</displayformat>
							</timecode>
							<media>
								<video>
									<samplecharacteristics>
										<rate>
											<timebase>30</timebase>
											<ntsc>TRUE</ntsc>
										</rate>
										<width>1920</width>
										<height>1080</height>
										<anamorphic>FALSE</anamorphic>
										<pixelaspectratio>square</pixelaspectratio>
										<fielddominance>none</fielddominance>
									</samplecharacteristics>
								</video>
								<audio>
									<samplecharacteristics>
										<depth>16</depth>
										<samplerate>44100</samplerate>
									</samplecharacteristics>
									<channelcount>2</channelcount>
								</audio>
							</media>
						</file>
						<link>
							<linkclipref>clipitem-86</linkclipref>
							<mediatype>video</mediatype>
							<trackindex>1</trackindex>
							<clipindex>2</clipindex>
						</link>
						<link>
							<linkclipref>clipitem-94</linkclipref>
							<mediatype>audio</mediatype>
							<trackindex>1</trackindex>
							<clipindex>2</clipindex>
							<groupindex>1</groupindex>
						</link>
						<link>
							<linkclipref>clipitem-102</linkclipref>
							<mediatype>audio</mediatype>
							<trackindex>2</trackindex>
							<clipindex>2</clipindex>
							<groupindex>1</groupindex>
						</link>
						<logginginfo>
							<description />
							<scene />
							<shottake />
							<lognote />
							<good />
							<originalvideofilename />
							<originalaudiofilename />
						</logginginfo>
						<colorinfo>
							<lut />
							<lut1 />
							<asc_sop />
							<asc_sat />
							<lut2 />
						</colorinfo>
					<labels><label2>Iris</label2></labels></clipitem>
					<clipitem id="clipitem-88">
						<masterclipid>clipitem-4-121</masterclipid>
						<name>Travis_Kelce_ANNOUNCE_WEDDING_DATE_with_Taylor_Swift_Why_He_was_Delaying_all_Along.mp4</name>
						<enabled>TRUE</enabled>
						<duration>150</duration>
						<rate>
							<timebase>25</timebase>
							<ntsc>FALSE</ntsc>
						</rate>
						<start>58650</start>
						<end>58800</end>
						<in>18000</in>
						<out>18150</out>
						<pproTicksIn>0</pproTicksIn>
						<pproTicksOut>419410897920000</pproTicksOut>
						<alphatype>none</alphatype>
						<pixelaspectratio>square</pixelaspectratio>
						<anamorphic>FALSE</anamorphic>
						<file id="file-32">
							<name>Travis_Kelce_ANNOUNCE_WEDDING_DATE_with_Taylor_Swift_Why_He_was_Delaying_all_Along.mp4</name>
							<pathurl>file://localhost/Users/themalikano/Documents/VideoAutomation/premiere_videos/Travis_Kelce_ANNOUNCE_WEDDING_DATE_with_Taylor_Swift_Why_He_was_Delaying_all_Along.mp4</pathurl>
							<rate>
								<timebase>24</timebase>
								<ntsc>FALSE</ntsc>
							</rate>
							<duration>39627</duration>
							<timecode>
								<rate>
									<timebase>24</timebase>
									<ntsc>FALSE</ntsc>
								</rate>
								<string>00:00:00:00</string>
								<frame>0</frame>
								<displayformat>NDF</displayformat>
							</timecode>
							<media>
								<video>
									<samplecharacteristics>
										<rate>
											<timebase>24</timebase>
											<ntsc>FALSE</ntsc>
										</rate>
										<width>852</width>
										<height>480</height>
										<anamorphic>FALSE</anamorphic>
										<pixelaspectratio>square</pixelaspectratio>
										<fielddominance>none</fielddominance>
									</samplecharacteristics>
								</video>
								<audio>
									<samplecharacteristics>
										<depth>16</depth>
										<samplerate>44100</samplerate>
									</samplecharacteristics>
									<channelcount>2</channelcount>
								</audio>
							</media>
						</file>
						<filter>
							<effect>
								<name>Basic Motion</name>
								<effectid>basic</effectid>
								<effectcategory>motion</effectcategory>
								<effecttype>motion</effecttype>
								<mediatype>video</mediatype>
								<pproBypass>false</pproBypass>
								<parameter authoringApp="PremierePro">
									<parameterid>scale</parameterid>
									<name>Scale</name>
									<valuemin>0</valuemin>
									<valuemax>1000</valuemax>
									<value>225</value>
								</parameter>
								<parameter authoringApp="PremierePro">
									<parameterid>rotation</parameterid>
									<name>Rotation</name>
									<valuemin>-8640</valuemin>
									<valuemax>8640</valuemax>
									<value>0</value>
								</parameter>
								<parameter authoringApp="PremierePro">
									<parameterid>center</parameterid>
									<name>Center</name>
									<value>
										<horiz>0</horiz>
										<vert>0</vert>
									</value>
								</parameter>
								<parameter authoringApp="PremierePro">
									<parameterid>centerOffset</parameterid>
									<name>Anchor Point</name>
									<value>
										<horiz>0</horiz>
										<vert>0</vert>
									</value>
								</parameter>
								<parameter authoringApp="PremierePro">
									<parameterid>antiflicker</parameterid>
									<name>Anti-flicker Filter</name>
									<valuemin>0.0</valuemin>
									<valuemax>1.0</valuemax>
									<value>0</value>
								</parameter>
							</effect>
						</filter>
						<link>
							<linkclipref>clipitem-88</linkclipref>
							<mediatype>video</mediatype>
							<trackindex>1</trackindex>
							<clipindex>4</clipindex>
						</link>
						<link>
							<linkclipref>clipitem-96</linkclipref>
							<mediatype>audio</mediatype>
							<trackindex>1</trackindex>
							<clipindex>4</clipindex>
							<groupindex>1</groupindex>
						</link>
						<link>
							<linkclipref>clipitem-104</linkclipref>
							<mediatype>audio</mediatype>
							<trackindex>2</trackindex>
							<clipindex>4</clipindex>
							<groupindex>1</groupindex>
						</link>
						<logginginfo>
							<description />
							<scene />
							<shottake />
							<lognote />
							<good />
							<originalvideofilename />
							<originalaudiofilename />
						</logginginfo>
						<colorinfo>
							<lut />
							<lut1 />
							<asc_sop />
							<asc_sat />
							<lut2 />
						</colorinfo>
					<labels><label2>Lavender</label2></labels></clipitem>
					<clipitem id="clipitem-86">
						<masterclipid>clipitem-2-61</masterclipid>
						<name>Taylor_Swift_Shares_The_Story_Of_Calling_Travis_Kelce_For_The_First_Time.mp4</name>
						<enabled>TRUE</enabled>
						<duration>150</duration>
						<rate>
							<timebase>25</timebase>
							<ntsc>FALSE</ntsc>
						</rate>
						<start>58800</start>
						<end>58950</end>
						<in>9000</in>
						<out>9150</out>
						<pproTicksIn>0</pproTicksIn>
						<pproTicksOut>236438092800000</pproTicksOut>
						<alphatype>none</alphatype>
						<pixelaspectratio>square</pixelaspectratio>
						<anamorphic>FALSE</anamorphic>
						<file id="file-30">
							<name>Taylor_Swift_Shares_The_Story_Of_Calling_Travis_Kelce_For_The_First_Time.mp4</name>
							<pathurl>file://localhost/Users/themalikano/Documents/VideoAutomation/premiere_videos/Taylor_Swift_Shares_The_Story_Of_Calling_Travis_Kelce_For_The_First_Time.mp4</pathurl>
							<rate>
								<timebase>30</timebase>
								<ntsc>TRUE</ntsc>
							</rate>
							<duration>27897</duration>
							<timecode>
								<rate>
									<timebase>30</timebase>
									<ntsc>TRUE</ntsc>
								</rate>
								<string>00:00:00:00</string>
								<frame>0</frame>
								<displayformat>NDF</displayformat>
							</timecode>
							<media>
								<video>
									<samplecharacteristics>
										<rate>
											<timebase>30</timebase>
											<ntsc>TRUE</ntsc>
										</rate>
										<width>1920</width>
										<height>1080</height>
										<anamorphic>FALSE</anamorphic>
										<pixelaspectratio>square</pixelaspectratio>
										<fielddominance>none</fielddominance>
									</samplecharacteristics>
								</video>
								<audio>
									<samplecharacteristics>
										<depth>16</depth>
										<samplerate>44100</samplerate>
									</samplecharacteristics>
									<channelcount>2</channelcount>
								</audio>
							</media>
						</file>
						<link>
							<linkclipref>clipitem-86</linkclipref>
							<mediatype>video</mediatype>
							<trackindex>1</trackindex>
							<clipindex>2</clipindex>
						</link>
						<link>
							<linkclipref>clipitem-94</linkclipref>
							<mediatype>audio</mediatype>
							<trackindex>1</trackindex>
							<clipindex>2</clipindex>
							<groupindex>1</groupindex>
						</link>
						<link>
							<linkclipref>clipitem-102</linkclipref>
							<mediatype>audio</mediatype>
							<trackindex>2</trackindex>
							<clipindex>2</clipindex>
							<groupindex>1</groupindex>
						</link>
						<logginginfo>
							<description />
							<scene />
							<shottake />
							<lognote />
							<good />
							<originalvideofilename />
							<originalaudiofilename />
						</logginginfo>
						<colorinfo>
							<lut />
							<lut1 />
							<asc_sop />
							<asc_sat />
							<lut2 />
						</colorinfo>
					<labels><label2>Iris</label2></labels></clipitem>
					<clipitem id="clipitem-90">
						<masterclipid>clipitem-6-70</masterclipid>
						<name>Travis_Kelce_talks_about_postponing_his_wedding_to_Fiance_Taylor_Swift_on_the_New_Heights_Podcast.mp4</name>
						<enabled>TRUE</enabled>
						<duration>150</duration>
						<rate>
							<timebase>25</timebase>
							<ntsc>FALSE</ntsc>
						</rate>
						<start>58950</start>
						<end>59100</end>
						<in>10350</in>
						<out>10500</out>
						<pproTicksIn>0</pproTicksIn>
						<pproTicksOut>149391889920000</pproTicksOut>
						<alphatype>none</alphatype>
						<pixelaspectratio>square</pixelaspectratio>
						<anamorphic>FALSE</anamorphic>
						<file id="file-34">
							<name>Travis_Kelce_talks_about_postponing_his_wedding_to_Fiance_Taylor_Swift_on_the_New_Heights_Podcast.mp4</name>
							<pathurl>file://localhost/Users/themalikano/Documents/VideoAutomation/premiere_videos/Travis_Kelce_talks_about_postponing_his_wedding_to_Fiance_Taylor_Swift_on_the_New_Heights_Podcast.mp4</pathurl>
							<rate>
								<timebase>30</timebase>
								<ntsc>FALSE</ntsc>
							</rate>
							<duration>17644</duration>
							<timecode>
								<rate>
									<timebase>30</timebase>
									<ntsc>FALSE</ntsc>
								</rate>
								<string>00:00:00:00</string>
								<frame>0</frame>
								<displayformat>NDF</displayformat>
							</timecode>
							<media>
								<video>
									<samplecharacteristics>
										<rate>
											<timebase>30</timebase>
											<ntsc>FALSE</ntsc>
										</rate>
										<width>1920</width>
										<height>1080</height>
										<anamorphic>FALSE</anamorphic>
										<pixelaspectratio>square</pixelaspectratio>
										<fielddominance>none</fielddominance>
									</samplecharacteristics>
								</video>
								<audio>
									<samplecharacteristics>
										<depth>16</depth>
										<samplerate>44100</samplerate>
									</samplecharacteristics>
									<channelcount>2</channelcount>
								</audio>
							</media>
						</file>
						<link>
							<linkclipref>clipitem-90</linkclipref>
							<mediatype>video</mediatype>
							<trackindex>1</trackindex>
							<clipindex>6</clipindex>
						</link>
						<link>
							<linkclipref>clipitem-98</linkclipref>
							<mediatype>audio</mediatype>
							<trackindex>1</trackindex>
							<clipindex>6</clipindex>
							<groupindex>1</groupindex>
						</link>
						<link>
							<linkclipref>clipitem-106</linkclipref>
							<mediatype>audio</mediatype>
							<trackindex>2</trackindex>
							<clipindex>6</clipindex>
							<groupindex>1</groupindex>
						</link>
						<logginginfo>
							<description />
							<scene />
							<shottake />
							<lognote />
							<good />
							<originalvideofilename />
							<originalaudiofilename />
						</logginginfo>
						<colorinfo>
							<lut />
							<lut1 />
							<asc_sop />
							<asc_sat />
							<lut2 />
						</colorinfo>
					<labels><label2>Forest</label2></labels></clipitem>
					<clipitem id="clipitem-86">
						<masterclipid>clipitem-2-80</masterclipid>
						<name>Taylor_Swift_Shares_The_Story_Of_Calling_Travis_Kelce_For_The_First_Time.mp4</name>
						<enabled>TRUE</enabled>
						<duration>150</duration>
						<rate>
							<timebase>25</timebase>
							<ntsc>FALSE</ntsc>
						</rate>
						<start>59100</start>
						<end>59250</end>
						<in>11850</in>
						<out>12000</out>
						<pproTicksIn>0</pproTicksIn>
						<pproTicksOut>236438092800000</pproTicksOut>
						<alphatype>none</alphatype>
						<pixelaspectratio>square</pixelaspectratio>
						<anamorphic>FALSE</anamorphic>
						<file id="file-30">
							<name>Taylor_Swift_Shares_The_Story_Of_Calling_Travis_Kelce_For_The_First_Time.mp4</name>
							<pathurl>file://localhost/Users/themalikano/Documents/VideoAutomation/premiere_videos/Taylor_Swift_Shares_The_Story_Of_Calling_Travis_Kelce_For_The_First_Time.mp4</pathurl>
							<rate>
								<timebase>30</timebase>
								<ntsc>TRUE</ntsc>
							</rate>
							<duration>27897</duration>
							<timecode>
								<rate>
									<timebase>30</timebase>
									<ntsc>TRUE</ntsc>
								</rate>
								<string>00:00:00:00</string>
								<frame>0</frame>
								<displayformat>NDF</displayformat>
							</timecode>
							<media>
								<video>
									<samplecharacteristics>
										<rate>
											<timebase>30</timebase>
											<ntsc>TRUE</ntsc>
										</rate>
										<width>1920</width>
										<height>1080</height>
										<anamorphic>FALSE</anamorphic>
										<pixelaspectratio>square</pixelaspectratio>
										<fielddominance>none</fielddominance>
									</samplecharacteristics>
								</video>
								<audio>
									<samplecharacteristics>
										<depth>16</depth>
										<samplerate>44100</samplerate>
									</samplecharacteristics>
									<channelcount>2</channelcount>
								</audio>
							</media>
						</file>
						<link>
							<linkclipref>clipitem-86</linkclipref>
							<mediatype>video</mediatype>
							<trackindex>1</trackindex>
							<clipindex>2</clipindex>
						</link>
						<link>
							<linkclipref>clipitem-94</linkclipref>
							<mediatype>audio</mediatype>
							<trackindex>1</trackindex>
							<clipindex>2</clipindex>
							<groupindex>1</groupindex>
						</link>
						<link>
							<linkclipref>clipitem-102</linkclipref>
							<mediatype>audio</mediatype>
							<trackindex>2</trackindex>
							<clipindex>2</clipindex>
							<groupindex>1</groupindex>
						</link>
						<logginginfo>
							<description />
							<scene />
							<shottake />
							<lognote />
							<good />
							<originalvideofilename />
							<originalaudiofilename />
						</logginginfo>
						<colorinfo>
							<lut />
							<lut1 />
							<asc_sop />
							<asc_sat />
							<lut2 />
						</colorinfo>
					<labels><label2>Iris</label2></labels></clipitem>
					<clipitem id="clipitem-87">
						<masterclipid>clipitem-3-479</masterclipid>
						<name>Taylor_Swift_Travis_Kelce_-_The_New_Power_Couple.mp4</name>
						<enabled>TRUE</enabled>
						<duration>150</duration>
						<rate>
							<timebase>25</timebase>
							<ntsc>FALSE</ntsc>
						</rate>
						<start>59250</start>
						<end>59400</end>
						<in>71700</in>
						<out>71850</out>
						<pproTicksIn>0</pproTicksIn>
						<pproTicksOut>875013995520000</pproTicksOut>
						<alphatype>none</alphatype>
						<pixelaspectratio>square</pixelaspectratio>
						<anamorphic>FALSE</anamorphic>
						<file id="file-31">
							<name>Taylor_Swift_Travis_Kelce_-_The_New_Power_Couple.mp4</name>
							<pathurl>file://localhost/Users/themalikano/Documents/VideoAutomation/premiere_videos/Taylor_Swift_Travis_Kelce_-_The_New_Power_Couple.mp4</pathurl>
							<rate>
								<timebase>25</timebase>
								<ntsc>FALSE</ntsc>
							</rate>
							<duration>86118</duration>
							<timecode>
								<rate>
									<timebase>25</timebase>
									<ntsc>FALSE</ntsc>
								</rate>
								<string>00:00:00:00</string>
								<frame>0</frame>
								<displayformat>NDF</displayformat>
							</timecode>
							<media>
								<video>
									<samplecharacteristics>
										<rate>
											<timebase>25</timebase>
											<ntsc>FALSE</ntsc>
										</rate>
										<width>1920</width>
										<height>1080</height>
										<anamorphic>FALSE</anamorphic>
										<pixelaspectratio>square</pixelaspectratio>
										<fielddominance>none</fielddominance>
									</samplecharacteristics>
								</video>
								<audio>
									<samplecharacteristics>
										<depth>16</depth>
										<samplerate>44100</samplerate>
									</samplecharacteristics>
									<channelcount>2</channelcount>
								</audio>
							</media>
						</file>
						<link>
							<linkclipref>clipitem-87</linkclipref>
							<mediatype>video</mediatype>
							<trackindex>1</trackindex>
							<clipindex>3</clipindex>
						</link>
						<link>
							<linkclipref>clipitem-95</linkclipref>
							<mediatype>audio</mediatype>
							<trackindex>1</trackindex>
							<clipindex>3</clipindex>
							<groupindex>1</groupindex>
						</link>
						<link>
							<linkclipref>clipitem-103</linkclipref>
							<mediatype>audio</mediatype>
							<trackindex>2</trackindex>
							<clipindex>3</clipindex>
							<groupindex>1</groupindex>
						</link>
						<logginginfo>
							<description />
							<scene />
							<shottake />
							<lognote />
							<good />
							<originalvideofilename />
							<originalaudiofilename />
						</logginginfo>
						<colorinfo>
							<lut />
							<lut1 />
							<asc_sop />
							<asc_sat />
							<lut2 />
						</colorinfo>
					<labels><label2>Caribbean</label2></labels></clipitem>
					<clipitem id="clipitem-86">
						<masterclipid>clipitem-2-139</masterclipid>
						<name>Taylor_Swift_Shares_The_Story_Of_Calling_Travis_Kelce_For_The_First_Time.mp4</name>
						<enabled>TRUE</enabled>
						<duration>150</duration>
						<rate>
							<timebase>25</timebase>
							<ntsc>FALSE</ntsc>
						</rate>
						<start>59400</start>
						<end>59550</end>
						<in>20700</in>
						<out>20850</out>
						<pproTicksIn>0</pproTicksIn>
						<pproTicksOut>236438092800000</pproTicksOut>
						<alphatype>none</alphatype>
						<pixelaspectratio>square</pixelaspectratio>
						<anamorphic>FALSE</anamorphic>
						<file id="file-30">
							<name>Taylor_Swift_Shares_The_Story_Of_Calling_Travis_Kelce_For_The_First_Time.mp4</name>
							<pathurl>file://localhost/Users/themalikano/Documents/VideoAutomation/premiere_videos/Taylor_Swift_Shares_The_Story_Of_Calling_Travis_Kelce_For_The_First_Time.mp4</pathurl>
							<rate>
								<timebase>30</timebase>
								<ntsc>TRUE</ntsc>
							</rate>
							<duration>27897</duration>
							<timecode>
								<rate>
									<timebase>30</timebase>
									<ntsc>TRUE</ntsc>
								</rate>
								<string>00:00:00:00</string>
								<frame>0</frame>
								<displayformat>NDF</displayformat>
							</timecode>
							<media>
								<video>
									<samplecharacteristics>
										<rate>
											<timebase>30</timebase>
											<ntsc>TRUE</ntsc>
										</rate>
										<width>1920</width>
										<height>1080</height>
										<anamorphic>FALSE</anamorphic>
										<pixelaspectratio>square</pixelaspectratio>
										<fielddominance>none</fielddominance>
									</samplecharacteristics>
								</video>
								<audio>
									<samplecharacteristics>
										<depth>16</depth>
										<samplerate>44100</samplerate>
									</samplecharacteristics>
									<channelcount>2</channelcount>
								</audio>
							</media>
						</file>
						<link>
							<linkclipref>clipitem-86</linkclipref>
							<mediatype>video</mediatype>
							<trackindex>1</trackindex>
							<clipindex>2</clipindex>
						</link>
						<link>
							<linkclipref>clipitem-94</linkclipref>
							<mediatype>audio</mediatype>
							<trackindex>1</trackindex>
							<clipindex>2</clipindex>
							<groupindex>1</groupindex>
						</link>
						<link>
							<linkclipref>clipitem-102</linkclipref>
							<mediatype>audio</mediatype>
							<trackindex>2</trackindex>
							<clipindex>2</clipindex>
							<groupindex>1</groupindex>
						</link>
						<logginginfo>
							<description />
							<scene />
							<shottake />
							<lognote />
							<good />
							<originalvideofilename />
							<originalaudiofilename />
						</logginginfo>
						<colorinfo>
							<lut />
							<lut1 />
							<asc_sop />
							<asc_sat />
							<lut2 />
						</colorinfo>
					<labels><label2>Iris</label2></labels></clipitem>
					<clipitem id="clipitem-88">
						<masterclipid>clipitem-4-249</masterclipid>
						<name>Travis_Kelce_ANNOUNCE_WEDDING_DATE_with_Taylor_Swift_Why_He_was_Delaying_all_Along.mp4</name>
						<enabled>TRUE</enabled>
						<duration>150</duration>
						<rate>
							<timebase>25</timebase>
							<ntsc>FALSE</ntsc>
						</rate>
						<start>59550</start>
						<end>59700</end>
						<in>37200</in>
						<out>37350</out>
						<pproTicksIn>0</pproTicksIn>
						<pproTicksOut>419410897920000</pproTicksOut>
						<alphatype>none</alphatype>
						<pixelaspectratio>square</pixelaspectratio>
						<anamorphic>FALSE</anamorphic>
						<file id="file-32">
							<name>Travis_Kelce_ANNOUNCE_WEDDING_DATE_with_Taylor_Swift_Why_He_was_Delaying_all_Along.mp4</name>
							<pathurl>file://localhost/Users/themalikano/Documents/VideoAutomation/premiere_videos/Travis_Kelce_ANNOUNCE_WEDDING_DATE_with_Taylor_Swift_Why_He_was_Delaying_all_Along.mp4</pathurl>
							<rate>
								<timebase>24</timebase>
								<ntsc>FALSE</ntsc>
							</rate>
							<duration>39627</duration>
							<timecode>
								<rate>
									<timebase>24</timebase>
									<ntsc>FALSE</ntsc>
								</rate>
								<string>00:00:00:00</string>
								<frame>0</frame>
								<displayformat>NDF</displayformat>
							</timecode>
							<media>
								<video>
									<samplecharacteristics>
										<rate>
											<timebase>24</timebase>
											<ntsc>FALSE</ntsc>
										</rate>
										<width>852</width>
										<height>480</height>
										<anamorphic>FALSE</anamorphic>
										<pixelaspectratio>square</pixelaspectratio>
										<fielddominance>none</fielddominance>
									</samplecharacteristics>
								</video>
								<audio>
									<samplecharacteristics>
										<depth>16</depth>
										<samplerate>44100</samplerate>
									</samplecharacteristics>
									<channelcount>2</channelcount>
								</audio>
							</media>
						</file>
						<filter>
							<effect>
								<name>Basic Motion</name>
								<effectid>basic</effectid>
								<effectcategory>motion</effectcategory>
								<effecttype>motion</effecttype>
								<mediatype>video</mediatype>
								<pproBypass>false</pproBypass>
								<parameter authoringApp="PremierePro">
									<parameterid>scale</parameterid>
									<name>Scale</name>
									<valuemin>0</valuemin>
									<valuemax>1000</valuemax>
									<value>225</value>
								</parameter>
								<parameter authoringApp="PremierePro">
									<parameterid>rotation</parameterid>
									<name>Rotation</name>
									<valuemin>-8640</valuemin>
									<valuemax>8640</valuemax>
									<value>0</value>
								</parameter>
								<parameter authoringApp="PremierePro">
									<parameterid>center</parameterid>
									<name>Center</name>
									<value>
										<horiz>0</horiz>
										<vert>0</vert>
									</value>
								</parameter>
								<parameter authoringApp="PremierePro">
									<parameterid>centerOffset</parameterid>
									<name>Anchor Point</name>
									<value>
										<horiz>0</horiz>
										<vert>0</vert>
									</value>
								</parameter>
								<parameter authoringApp="PremierePro">
									<parameterid>antiflicker</parameterid>
									<name>Anti-flicker Filter</name>
									<valuemin>0.0</valuemin>
									<valuemax>1.0</valuemax>
									<value>0</value>
								</parameter>
							</effect>
						</filter>
						<link>
							<linkclipref>clipitem-88</linkclipref>
							<mediatype>video</mediatype>
							<trackindex>1</trackindex>
							<clipindex>4</clipindex>
						</link>
						<link>
							<linkclipref>clipitem-96</linkclipref>
							<mediatype>audio</mediatype>
							<trackindex>1</trackindex>
							<clipindex>4</clipindex>
							<groupindex>1</groupindex>
						</link>
						<link>
							<linkclipref>clipitem-104</linkclipref>
							<mediatype>audio</mediatype>
							<trackindex>2</trackindex>
							<clipindex>4</clipindex>
							<groupindex>1</groupindex>
						</link>
						<logginginfo>
							<description />
							<scene />
							<shottake />
							<lognote />
							<good />
							<originalvideofilename />
							<originalaudiofilename />
						</logginginfo>
						<colorinfo>
							<lut />
							<lut1 />
							<asc_sop />
							<asc_sat />
							<lut2 />
						</colorinfo>
					<labels><label2>Lavender</label2></labels></clipitem>
					<clipitem id="clipitem-87">
						<masterclipid>clipitem-3-250</masterclipid>
						<name>Taylor_Swift_Travis_Kelce_-_The_New_Power_Couple.mp4</name>
						<enabled>TRUE</enabled>
						<duration>150</duration>
						<rate>
							<timebase>25</timebase>
							<ntsc>FALSE</ntsc>
						</rate>
						<start>59700</start>
						<end>59850</end>
						<in>37350</in>
						<out>37500</out>
						<pproTicksIn>0</pproTicksIn>
						<pproTicksOut>875013995520000</pproTicksOut>
						<alphatype>none</alphatype>
						<pixelaspectratio>square</pixelaspectratio>
						<anamorphic>FALSE</anamorphic>
						<file id="file-31">
							<name>Taylor_Swift_Travis_Kelce_-_The_New_Power_Couple.mp4</name>
							<pathurl>file://localhost/Users/themalikano/Documents/VideoAutomation/premiere_videos/Taylor_Swift_Travis_Kelce_-_The_New_Power_Couple.mp4</pathurl>
							<rate>
								<timebase>25</timebase>
								<ntsc>FALSE</ntsc>
							</rate>
							<duration>86118</duration>
							<timecode>
								<rate>
									<timebase>25</timebase>
									<ntsc>FALSE</ntsc>
								</rate>
								<string>00:00:00:00</string>
								<frame>0</frame>
								<displayformat>NDF</displayformat>
							</timecode>
							<media>
								<video>
									<samplecharacteristics>
										<rate>
											<timebase>25</timebase>
											<ntsc>FALSE</ntsc>
										</rate>
										<width>1920</width>
										<height>1080</height>
										<anamorphic>FALSE</anamorphic>
										<pixelaspectratio>square</pixelaspectratio>
										<fielddominance>none</fielddominance>
									</samplecharacteristics>
								</video>
								<audio>
									<samplecharacteristics>
										<depth>16</depth>
										<samplerate>44100</samplerate>
									</samplecharacteristics>
									<channelcount>2</channelcount>
								</audio>
							</media>
						</file>
						<link>
							<linkclipref>clipitem-87</linkclipref>
							<mediatype>video</mediatype>
							<trackindex>1</trackindex>
							<clipindex>3</clipindex>
						</link>
						<link>
							<linkclipref>clipitem-95</linkclipref>
							<mediatype>audio</mediatype>
							<trackindex>1</trackindex>
							<clipindex>3</clipindex>
							<groupindex>1</groupindex>
						</link>
						<link>
							<linkclipref>clipitem-103</linkclipref>
							<mediatype>audio</mediatype>
							<trackindex>2</trackindex>
							<clipindex>3</clipindex>
							<groupindex>1</groupindex>
						</link>
						<logginginfo>
							<description />
							<scene />
							<shottake />
							<lognote />
							<good />
							<originalvideofilename />
							<originalaudiofilename />
						</logginginfo>
						<colorinfo>
							<lut />
							<lut1 />
							<asc_sop />
							<asc_sat />
							<lut2 />
						</colorinfo>
					<labels><label2>Caribbean</label2></labels></clipitem>
					<clipitem id="clipitem-90">
						<masterclipid>clipitem-6-32</masterclipid>
						<name>Travis_Kelce_talks_about_postponing_his_wedding_to_Fiance_Taylor_Swift_on_the_New_Heights_Podcast.mp4</name>
						<enabled>TRUE</enabled>
						<duration>150</duration>
						<rate>
							<timebase>25</timebase>
							<ntsc>FALSE</ntsc>
						</rate>
						<start>59850</start>
						<end>60000</end>
						<in>4650</in>
						<out>4800</out>
						<pproTicksIn>0</pproTicksIn>
						<pproTicksOut>149391889920000</pproTicksOut>
						<alphatype>none</alphatype>
						<pixelaspectratio>square</pixelaspectratio>
						<anamorphic>FALSE</anamorphic>
						<file id="file-34">
							<name>Travis_Kelce_talks_about_postponing_his_wedding_to_Fiance_Taylor_Swift_on_the_New_Heights_Podcast.mp4</name>
							<pathurl>file://localhost/Users/themalikano/Documents/VideoAutomation/premiere_videos/Travis_Kelce_talks_about_postponing_his_wedding_to_Fiance_Taylor_Swift_on_the_New_Heights_Podcast.mp4</pathurl>
							<rate>
								<timebase>30</timebase>
								<ntsc>FALSE</ntsc>
							</rate>
							<duration>17644</duration>
							<timecode>
								<rate>
									<timebase>30</timebase>
									<ntsc>FALSE</ntsc>
								</rate>
								<string>00:00:00:00</string>
								<frame>0</frame>
								<displayformat>NDF</displayformat>
							</timecode>
							<media>
								<video>
									<samplecharacteristics>
										<rate>
											<timebase>30</timebase>
											<ntsc>FALSE</ntsc>
										</rate>
										<width>1920</width>
										<height>1080</height>
										<anamorphic>FALSE</anamorphic>
										<pixelaspectratio>square</pixelaspectratio>
										<fielddominance>none</fielddominance>
									</samplecharacteristics>
								</video>
								<audio>
									<samplecharacteristics>
										<depth>16</depth>
										<samplerate>44100</samplerate>
									</samplecharacteristics>
									<channelcount>2</channelcount>
								</audio>
							</media>
						</file>
						<link>
							<linkclipref>clipitem-90</linkclipref>
							<mediatype>video</mediatype>
							<trackindex>1</trackindex>
							<clipindex>6</clipindex>
						</link>
						<link>
							<linkclipref>clipitem-98</linkclipref>
							<mediatype>audio</mediatype>
							<trackindex>1</trackindex>
							<clipindex>6</clipindex>
							<groupindex>1</groupindex>
						</link>
						<link>
							<linkclipref>clipitem-106</linkclipref>
							<mediatype>audio</mediatype>
							<trackindex>2</trackindex>
							<clipindex>6</clipindex>
							<groupindex>1</groupindex>
						</link>
						<logginginfo>
							<description />
							<scene />
							<shottake />
							<lognote />
							<good />
							<originalvideofilename />
							<originalaudiofilename />
						</logginginfo>
						<colorinfo>
							<lut />
							<lut1 />
							<asc_sop />
							<asc_sat />
							<lut2 />
						</colorinfo>
					<labels><label2>Forest</label2></labels></clipitem>
					<clipitem id="clipitem-88">
						<masterclipid>clipitem-4-259</masterclipid>
						<name>Travis_Kelce_ANNOUNCE_WEDDING_DATE_with_Taylor_Swift_Why_He_was_Delaying_all_Along.mp4</name>
						<enabled>TRUE</enabled>
						<duration>150</duration>
						<rate>
							<timebase>25</timebase>
							<ntsc>FALSE</ntsc>
						</rate>
						<start>60000</start>
						<end>60150</end>
						<in>38700</in>
						<out>38850</out>
						<pproTicksIn>0</pproTicksIn>
						<pproTicksOut>419410897920000</pproTicksOut>
						<alphatype>none</alphatype>
						<pixelaspectratio>square</pixelaspectratio>
						<anamorphic>FALSE</anamorphic>
						<file id="file-32">
							<name>Travis_Kelce_ANNOUNCE_WEDDING_DATE_with_Taylor_Swift_Why_He_was_Delaying_all_Along.mp4</name>
							<pathurl>file://localhost/Users/themalikano/Documents/VideoAutomation/premiere_videos/Travis_Kelce_ANNOUNCE_WEDDING_DATE_with_Taylor_Swift_Why_He_was_Delaying_all_Along.mp4</pathurl>
							<rate>
								<timebase>24</timebase>
								<ntsc>FALSE</ntsc>
							</rate>
							<duration>39627</duration>
							<timecode>
								<rate>
									<timebase>24</timebase>
									<ntsc>FALSE</ntsc>
								</rate>
								<string>00:00:00:00</string>
								<frame>0</frame>
								<displayformat>NDF</displayformat>
							</timecode>
							<media>
								<video>
									<samplecharacteristics>
										<rate>
											<timebase>24</timebase>
											<ntsc>FALSE</ntsc>
										</rate>
										<width>852</width>
										<height>480</height>
										<anamorphic>FALSE</anamorphic>
										<pixelaspectratio>square</pixelaspectratio>
										<fielddominance>none</fielddominance>
									</samplecharacteristics>
								</video>
								<audio>
									<samplecharacteristics>
										<depth>16</depth>
										<samplerate>44100</samplerate>
									</samplecharacteristics>
									<channelcount>2</channelcount>
								</audio>
							</media>
						</file>
						<filter>
							<effect>
								<name>Basic Motion</name>
								<effectid>basic</effectid>
								<effectcategory>motion</effectcategory>
								<effecttype>motion</effecttype>
								<mediatype>video</mediatype>
								<pproBypass>false</pproBypass>
								<parameter authoringApp="PremierePro">
									<parameterid>scale</parameterid>
									<name>Scale</name>
									<valuemin>0</valuemin>
									<valuemax>1000</valuemax>
									<value>225</value>
								</parameter>
								<parameter authoringApp="PremierePro">
									<parameterid>rotation</parameterid>
									<name>Rotation</name>
									<valuemin>-8640</valuemin>
									<valuemax>8640</valuemax>
									<value>0</value>
								</parameter>
								<parameter authoringApp="PremierePro">
									<parameterid>center</parameterid>
									<name>Center</name>
									<value>
										<horiz>0</horiz>
										<vert>0</vert>
									</value>
								</parameter>
								<parameter authoringApp="PremierePro">
									<parameterid>centerOffset</parameterid>
									<name>Anchor Point</name>
									<value>
										<horiz>0</horiz>
										<vert>0</vert>
									</value>
								</parameter>
								<parameter authoringApp="PremierePro">
									<parameterid>antiflicker</parameterid>
									<name>Anti-flicker Filter</name>
									<valuemin>0.0</valuemin>
									<valuemax>1.0</valuemax>
									<value>0</value>
								</parameter>
							</effect>
						</filter>
						<link>
							<linkclipref>clipitem-88</linkclipref>
							<mediatype>video</mediatype>
							<trackindex>1</trackindex>
							<clipindex>4</clipindex>
						</link>
						<link>
							<linkclipref>clipitem-96</linkclipref>
							<mediatype>audio</mediatype>
							<trackindex>1</trackindex>
							<clipindex>4</clipindex>
							<groupindex>1</groupindex>
						</link>
						<link>
							<linkclipref>clipitem-104</linkclipref>
							<mediatype>audio</mediatype>
							<trackindex>2</trackindex>
							<clipindex>4</clipindex>
							<groupindex>1</groupindex>
						</link>
						<logginginfo>
							<description />
							<scene />
							<shottake />
							<lognote />
							<good />
							<originalvideofilename />
							<originalaudiofilename />
						</logginginfo>
						<colorinfo>
							<lut />
							<lut1 />
							<asc_sop />
							<asc_sat />
							<lut2 />
						</colorinfo>
					<labels><label2>Lavender</label2></labels></clipitem>
					<clipitem id="clipitem-86">
						<masterclipid>clipitem-2-144</masterclipid>
						<name>Taylor_Swift_Shares_The_Story_Of_Calling_Travis_Kelce_For_The_First_Time.mp4</name>
						<enabled>TRUE</enabled>
						<duration>150</duration>
						<rate>
							<timebase>25</timebase>
							<ntsc>FALSE</ntsc>
						</rate>
						<start>60150</start>
						<end>60300</end>
						<in>21450</in>
						<out>21600</out>
						<pproTicksIn>0</pproTicksIn>
						<pproTicksOut>236438092800000</pproTicksOut>
						<alphatype>none</alphatype>
						<pixelaspectratio>square</pixelaspectratio>
						<anamorphic>FALSE</anamorphic>
						<file id="file-30">
							<name>Taylor_Swift_Shares_The_Story_Of_Calling_Travis_Kelce_For_The_First_Time.mp4</name>
							<pathurl>file://localhost/Users/themalikano/Documents/VideoAutomation/premiere_videos/Taylor_Swift_Shares_The_Story_Of_Calling_Travis_Kelce_For_The_First_Time.mp4</pathurl>
							<rate>
								<timebase>30</timebase>
								<ntsc>TRUE</ntsc>
							</rate>
							<duration>27897</duration>
							<timecode>
								<rate>
									<timebase>30</timebase>
									<ntsc>TRUE</ntsc>
								</rate>
								<string>00:00:00:00</string>
								<frame>0</frame>
								<displayformat>NDF</displayformat>
							</timecode>
							<media>
								<video>
									<samplecharacteristics>
										<rate>
											<timebase>30</timebase>
											<ntsc>TRUE</ntsc>
										</rate>
										<width>1920</width>
										<height>1080</height>
										<anamorphic>FALSE</anamorphic>
										<pixelaspectratio>square</pixelaspectratio>
										<fielddominance>none</fielddominance>
									</samplecharacteristics>
								</video>
								<audio>
									<samplecharacteristics>
										<depth>16</depth>
										<samplerate>44100</samplerate>
									</samplecharacteristics>
									<channelcount>2</channelcount>
								</audio>
							</media>
						</file>
						<link>
							<linkclipref>clipitem-86</linkclipref>
							<mediatype>video</mediatype>
							<trackindex>1</trackindex>
							<clipindex>2</clipindex>
						</link>
						<link>
							<linkclipref>clipitem-94</linkclipref>
							<mediatype>audio</mediatype>
							<trackindex>1</trackindex>
							<clipindex>2</clipindex>
							<groupindex>1</groupindex>
						</link>
						<link>
							<linkclipref>clipitem-102</linkclipref>
							<mediatype>audio</mediatype>
							<trackindex>2</trackindex>
							<clipindex>2</clipindex>
							<groupindex>1</groupindex>
						</link>
						<logginginfo>
							<description />
							<scene />
							<shottake />
							<lognote />
							<good />
							<originalvideofilename />
							<originalaudiofilename />
						</logginginfo>
						<colorinfo>
							<lut />
							<lut1 />
							<asc_sop />
							<asc_sat />
							<lut2 />
						</colorinfo>
					<labels><label2>Iris</label2></labels></clipitem>
					<clipitem id="clipitem-88">
						<masterclipid>clipitem-4-138</masterclipid>
						<name>Travis_Kelce_ANNOUNCE_WEDDING_DATE_with_Taylor_Swift_Why_He_was_Delaying_all_Along.mp4</name>
						<enabled>TRUE</enabled>
						<duration>150</duration>
						<rate>
							<timebase>25</timebase>
							<ntsc>FALSE</ntsc>
						</rate>
						<start>60300</start>
						<end>60450</end>
						<in>20550</in>
						<out>20700</out>
						<pproTicksIn>0</pproTicksIn>
						<pproTicksOut>419410897920000</pproTicksOut>
						<alphatype>none</alphatype>
						<pixelaspectratio>square</pixelaspectratio>
						<anamorphic>FALSE</anamorphic>
						<file id="file-32">
							<name>Travis_Kelce_ANNOUNCE_WEDDING_DATE_with_Taylor_Swift_Why_He_was_Delaying_all_Along.mp4</name>
							<pathurl>file://localhost/Users/themalikano/Documents/VideoAutomation/premiere_videos/Travis_Kelce_ANNOUNCE_WEDDING_DATE_with_Taylor_Swift_Why_He_was_Delaying_all_Along.mp4</pathurl>
							<rate>
								<timebase>24</timebase>
								<ntsc>FALSE</ntsc>
							</rate>
							<duration>39627</duration>
							<timecode>
								<rate>
									<timebase>24</timebase>
									<ntsc>FALSE</ntsc>
								</rate>
								<string>00:00:00:00</string>
								<frame>0</frame>
								<displayformat>NDF</displayformat>
							</timecode>
							<media>
								<video>
									<samplecharacteristics>
										<rate>
											<timebase>24</timebase>
											<ntsc>FALSE</ntsc>
										</rate>
										<width>852</width>
										<height>480</height>
										<anamorphic>FALSE</anamorphic>
										<pixelaspectratio>square</pixelaspectratio>
										<fielddominance>none</fielddominance>
									</samplecharacteristics>
								</video>
								<audio>
									<samplecharacteristics>
										<depth>16</depth>
										<samplerate>44100</samplerate>
									</samplecharacteristics>
									<channelcount>2</channelcount>
								</audio>
							</media>
						</file>
						<filter>
							<effect>
								<name>Basic Motion</name>
								<effectid>basic</effectid>
								<effectcategory>motion</effectcategory>
								<effecttype>motion</effecttype>
								<mediatype>video</mediatype>
								<pproBypass>false</pproBypass>
								<parameter authoringApp="PremierePro">
									<parameterid>scale</parameterid>
									<name>Scale</name>
									<valuemin>0</valuemin>
									<valuemax>1000</valuemax>
									<value>225</value>
								</parameter>
								<parameter authoringApp="PremierePro">
									<parameterid>rotation</parameterid>
									<name>Rotation</name>
									<valuemin>-8640</valuemin>
									<valuemax>8640</valuemax>
									<value>0</value>
								</parameter>
								<parameter authoringApp="PremierePro">
									<parameterid>center</parameterid>
									<name>Center</name>
									<value>
										<horiz>0</horiz>
										<vert>0</vert>
									</value>
								</parameter>
								<parameter authoringApp="PremierePro">
									<parameterid>centerOffset</parameterid>
									<name>Anchor Point</name>
									<value>
										<horiz>0</horiz>
										<vert>0</vert>
									</value>
								</parameter>
								<parameter authoringApp="PremierePro">
									<parameterid>antiflicker</parameterid>
									<name>Anti-flicker Filter</name>
									<valuemin>0.0</valuemin>
									<valuemax>1.0</valuemax>
									<value>0</value>
								</parameter>
							</effect>
						</filter>
						<link>
							<linkclipref>clipitem-88</linkclipref>
							<mediatype>video</mediatype>
							<trackindex>1</trackindex>
							<clipindex>4</clipindex>
						</link>
						<link>
							<linkclipref>clipitem-96</linkclipref>
							<mediatype>audio</mediatype>
							<trackindex>1</trackindex>
							<clipindex>4</clipindex>
							<groupindex>1</groupindex>
						</link>
						<link>
							<linkclipref>clipitem-104</linkclipref>
							<mediatype>audio</mediatype>
							<trackindex>2</trackindex>
							<clipindex>4</clipindex>
							<groupindex>1</groupindex>
						</link>
						<logginginfo>
							<description />
							<scene />
							<shottake />
							<lognote />
							<good />
							<originalvideofilename />
							<originalaudiofilename />
						</logginginfo>
						<colorinfo>
							<lut />
							<lut1 />
							<asc_sop />
							<asc_sat />
							<lut2 />
						</colorinfo>
					<labels><label2>Lavender</label2></labels></clipitem>
					<clipitem id="clipitem-87">
						<masterclipid>clipitem-3-93</masterclipid>
						<name>Taylor_Swift_Travis_Kelce_-_The_New_Power_Couple.mp4</name>
						<enabled>TRUE</enabled>
						<duration>150</duration>
						<rate>
							<timebase>25</timebase>
							<ntsc>FALSE</ntsc>
						</rate>
						<start>60450</start>
						<end>60600</end>
						<in>13800</in>
						<out>13950</out>
						<pproTicksIn>0</pproTicksIn>
						<pproTicksOut>875013995520000</pproTicksOut>
						<alphatype>none</alphatype>
						<pixelaspectratio>square</pixelaspectratio>
						<anamorphic>FALSE</anamorphic>
						<file id="file-31">
							<name>Taylor_Swift_Travis_Kelce_-_The_New_Power_Couple.mp4</name>
							<pathurl>file://localhost/Users/themalikano/Documents/VideoAutomation/premiere_videos/Taylor_Swift_Travis_Kelce_-_The_New_Power_Couple.mp4</pathurl>
							<rate>
								<timebase>25</timebase>
								<ntsc>FALSE</ntsc>
							</rate>
							<duration>86118</duration>
							<timecode>
								<rate>
									<timebase>25</timebase>
									<ntsc>FALSE</ntsc>
								</rate>
								<string>00:00:00:00</string>
								<frame>0</frame>
								<displayformat>NDF</displayformat>
							</timecode>
							<media>
								<video>
									<samplecharacteristics>
										<rate>
											<timebase>25</timebase>
											<ntsc>FALSE</ntsc>
										</rate>
										<width>1920</width>
										<height>1080</height>
										<anamorphic>FALSE</anamorphic>
										<pixelaspectratio>square</pixelaspectratio>
										<fielddominance>none</fielddominance>
									</samplecharacteristics>
								</video>
								<audio>
									<samplecharacteristics>
										<depth>16</depth>
										<samplerate>44100</samplerate>
									</samplecharacteristics>
									<channelcount>2</channelcount>
								</audio>
							</media>
						</file>
						<link>
							<linkclipref>clipitem-87</linkclipref>
							<mediatype>video</mediatype>
							<trackindex>1</trackindex>
							<clipindex>3</clipindex>
						</link>
						<link>
							<linkclipref>clipitem-95</linkclipref>
							<mediatype>audio</mediatype>
							<trackindex>1</trackindex>
							<clipindex>3</clipindex>
							<groupindex>1</groupindex>
						</link>
						<link>
							<linkclipref>clipitem-103</linkclipref>
							<mediatype>audio</mediatype>
							<trackindex>2</trackindex>
							<clipindex>3</clipindex>
							<groupindex>1</groupindex>
						</link>
						<logginginfo>
							<description />
							<scene />
							<shottake />
							<lognote />
							<good />
							<originalvideofilename />
							<originalaudiofilename />
						</logginginfo>
						<colorinfo>
							<lut />
							<lut1 />
							<asc_sop />
							<asc_sat />
							<lut2 />
						</colorinfo>
					<labels><label2>Caribbean</label2></labels></clipitem>
					<clipitem id="clipitem-90">
						<masterclipid>clipitem-6-58</masterclipid>
						<name>Travis_Kelce_talks_about_postponing_his_wedding_to_Fiance_Taylor_Swift_on_the_New_Heights_Podcast.mp4</name>
						<enabled>TRUE</enabled>
						<duration>150</duration>
						<rate>
							<timebase>25</timebase>
							<ntsc>FALSE</ntsc>
						</rate>
						<start>60600</start>
						<end>60750</end>
						<in>8550</in>
						<out>8700</out>
						<pproTicksIn>0</pproTicksIn>
						<pproTicksOut>149391889920000</pproTicksOut>
						<alphatype>none</alphatype>
						<pixelaspectratio>square</pixelaspectratio>
						<anamorphic>FALSE</anamorphic>
						<file id="file-34">
							<name>Travis_Kelce_talks_about_postponing_his_wedding_to_Fiance_Taylor_Swift_on_the_New_Heights_Podcast.mp4</name>
							<pathurl>file://localhost/Users/themalikano/Documents/VideoAutomation/premiere_videos/Travis_Kelce_talks_about_postponing_his_wedding_to_Fiance_Taylor_Swift_on_the_New_Heights_Podcast.mp4</pathurl>
							<rate>
								<timebase>30</timebase>
								<ntsc>FALSE</ntsc>
							</rate>
							<duration>17644</duration>
							<timecode>
								<rate>
									<timebase>30</timebase>
									<ntsc>FALSE</ntsc>
								</rate>
								<string>00:00:00:00</string>
								<frame>0</frame>
								<displayformat>NDF</displayformat>
							</timecode>
							<media>
								<video>
									<samplecharacteristics>
										<rate>
											<timebase>30</timebase>
											<ntsc>FALSE</ntsc>
										</rate>
										<width>1920</width>
										<height>1080</height>
										<anamorphic>FALSE</anamorphic>
										<pixelaspectratio>square</pixelaspectratio>
										<fielddominance>none</fielddominance>
									</samplecharacteristics>
								</video>
								<audio>
									<samplecharacteristics>
										<depth>16</depth>
										<samplerate>44100</samplerate>
									</samplecharacteristics>
									<channelcount>2</channelcount>
								</audio>
							</media>
						</file>
						<link>
							<linkclipref>clipitem-90</linkclipref>
							<mediatype>video</mediatype>
							<trackindex>1</trackindex>
							<clipindex>6</clipindex>
						</link>
						<link>
							<linkclipref>clipitem-98</linkclipref>
							<mediatype>audio</mediatype>
							<trackindex>1</trackindex>
							<clipindex>6</clipindex>
							<groupindex>1</groupindex>
						</link>
						<link>
							<linkclipref>clipitem-106</linkclipref>
							<mediatype>audio</mediatype>
							<trackindex>2</trackindex>
							<clipindex>6</clipindex>
							<groupindex>1</groupindex>
						</link>
						<logginginfo>
							<description />
							<scene />
							<shottake />
							<lognote />
							<good />
							<originalvideofilename />
							<originalaudiofilename />
						</logginginfo>
						<colorinfo>
							<lut />
							<lut1 />
							<asc_sop />
							<asc_sat />
							<lut2 />
						</colorinfo>
					<labels><label2>Forest</label2></labels></clipitem>
					<clipitem id="clipitem-86">
						<masterclipid>clipitem-2-116</masterclipid>
						<name>Taylor_Swift_Shares_The_Story_Of_Calling_Travis_Kelce_For_The_First_Time.mp4</name>
						<enabled>TRUE</enabled>
						<duration>150</duration>
						<rate>
							<timebase>25</timebase>
							<ntsc>FALSE</ntsc>
						</rate>
						<start>60750</start>
						<end>60900</end>
						<in>17250</in>
						<out>17400</out>
						<pproTicksIn>0</pproTicksIn>
						<pproTicksOut>236438092800000</pproTicksOut>
						<alphatype>none</alphatype>
						<pixelaspectratio>square</pixelaspectratio>
						<anamorphic>FALSE</anamorphic>
						<file id="file-30">
							<name>Taylor_Swift_Shares_The_Story_Of_Calling_Travis_Kelce_For_The_First_Time.mp4</name>
							<pathurl>file://localhost/Users/themalikano/Documents/VideoAutomation/premiere_videos/Taylor_Swift_Shares_The_Story_Of_Calling_Travis_Kelce_For_The_First_Time.mp4</pathurl>
							<rate>
								<timebase>30</timebase>
								<ntsc>TRUE</ntsc>
							</rate>
							<duration>27897</duration>
							<timecode>
								<rate>
									<timebase>30</timebase>
									<ntsc>TRUE</ntsc>
								</rate>
								<string>00:00:00:00</string>
								<frame>0</frame>
								<displayformat>NDF</displayformat>
							</timecode>
							<media>
								<video>
									<samplecharacteristics>
										<rate>
											<timebase>30</timebase>
											<ntsc>TRUE</ntsc>
										</rate>
										<width>1920</width>
										<height>1080</height>
										<anamorphic>FALSE</anamorphic>
										<pixelaspectratio>square</pixelaspectratio>
										<fielddominance>none</fielddominance>
									</samplecharacteristics>
								</video>
								<audio>
									<samplecharacteristics>
										<depth>16</depth>
										<samplerate>44100</samplerate>
									</samplecharacteristics>
									<channelcount>2</channelcount>
								</audio>
							</media>
						</file>
						<link>
							<linkclipref>clipitem-86</linkclipref>
							<mediatype>video</mediatype>
							<trackindex>1</trackindex>
							<clipindex>2</clipindex>
						</link>
						<link>
							<linkclipref>clipitem-94</linkclipref>
							<mediatype>audio</mediatype>
							<trackindex>1</trackindex>
							<clipindex>2</clipindex>
							<groupindex>1</groupindex>
						</link>
						<link>
							<linkclipref>clipitem-102</linkclipref>
							<mediatype>audio</mediatype>
							<trackindex>2</trackindex>
							<clipindex>2</clipindex>
							<groupindex>1</groupindex>
						</link>
						<logginginfo>
							<description />
							<scene />
							<shottake />
							<lognote />
							<good />
							<originalvideofilename />
							<originalaudiofilename />
						</logginginfo>
						<colorinfo>
							<lut />
							<lut1 />
							<asc_sop />
							<asc_sat />
							<lut2 />
						</colorinfo>
					<labels><label2>Iris</label2></labels></clipitem>
					<clipitem id="clipitem-90">
						<masterclipid>clipitem-6-28</masterclipid>
						<name>Travis_Kelce_talks_about_postponing_his_wedding_to_Fiance_Taylor_Swift_on_the_New_Heights_Podcast.mp4</name>
						<enabled>TRUE</enabled>
						<duration>150</duration>
						<rate>
							<timebase>25</timebase>
							<ntsc>FALSE</ntsc>
						</rate>
						<start>60900</start>
						<end>61050</end>
						<in>4050</in>
						<out>4200</out>
						<pproTicksIn>0</pproTicksIn>
						<pproTicksOut>149391889920000</pproTicksOut>
						<alphatype>none</alphatype>
						<pixelaspectratio>square</pixelaspectratio>
						<anamorphic>FALSE</anamorphic>
						<file id="file-34">
							<name>Travis_Kelce_talks_about_postponing_his_wedding_to_Fiance_Taylor_Swift_on_the_New_Heights_Podcast.mp4</name>
							<pathurl>file://localhost/Users/themalikano/Documents/VideoAutomation/premiere_videos/Travis_Kelce_talks_about_postponing_his_wedding_to_Fiance_Taylor_Swift_on_the_New_Heights_Podcast.mp4</pathurl>
							<rate>
								<timebase>30</timebase>
								<ntsc>FALSE</ntsc>
							</rate>
							<duration>17644</duration>
							<timecode>
								<rate>
									<timebase>30</timebase>
									<ntsc>FALSE</ntsc>
								</rate>
								<string>00:00:00:00</string>
								<frame>0</frame>
								<displayformat>NDF</displayformat>
							</timecode>
							<media>
								<video>
									<samplecharacteristics>
										<rate>
											<timebase>30</timebase>
											<ntsc>FALSE</ntsc>
										</rate>
										<width>1920</width>
										<height>1080</height>
										<anamorphic>FALSE</anamorphic>
										<pixelaspectratio>square</pixelaspectratio>
										<fielddominance>none</fielddominance>
									</samplecharacteristics>
								</video>
								<audio>
									<samplecharacteristics>
										<depth>16</depth>
										<samplerate>44100</samplerate>
									</samplecharacteristics>
									<channelcount>2</channelcount>
								</audio>
							</media>
						</file>
						<link>
							<linkclipref>clipitem-90</linkclipref>
							<mediatype>video</mediatype>
							<trackindex>1</trackindex>
							<clipindex>6</clipindex>
						</link>
						<link>
							<linkclipref>clipitem-98</linkclipref>
							<mediatype>audio</mediatype>
							<trackindex>1</trackindex>
							<clipindex>6</clipindex>
							<groupindex>1</groupindex>
						</link>
						<link>
							<linkclipref>clipitem-106</linkclipref>
							<mediatype>audio</mediatype>
							<trackindex>2</trackindex>
							<clipindex>6</clipindex>
							<groupindex>1</groupindex>
						</link>
						<logginginfo>
							<description />
							<scene />
							<shottake />
							<lognote />
							<good />
							<originalvideofilename />
							<originalaudiofilename />
						</logginginfo>
						<colorinfo>
							<lut />
							<lut1 />
							<asc_sop />
							<asc_sat />
							<lut2 />
						</colorinfo>
					<labels><label2>Forest</label2></labels></clipitem>
					<clipitem id="clipitem-88">
						<masterclipid>clipitem-4-51</masterclipid>
						<name>Travis_Kelce_ANNOUNCE_WEDDING_DATE_with_Taylor_Swift_Why_He_was_Delaying_all_Along.mp4</name>
						<enabled>TRUE</enabled>
						<duration>150</duration>
						<rate>
							<timebase>25</timebase>
							<ntsc>FALSE</ntsc>
						</rate>
						<start>61050</start>
						<end>61200</end>
						<in>7500</in>
						<out>7650</out>
						<pproTicksIn>0</pproTicksIn>
						<pproTicksOut>419410897920000</pproTicksOut>
						<alphatype>none</alphatype>
						<pixelaspectratio>square</pixelaspectratio>
						<anamorphic>FALSE</anamorphic>
						<file id="file-32">
							<name>Travis_Kelce_ANNOUNCE_WEDDING_DATE_with_Taylor_Swift_Why_He_was_Delaying_all_Along.mp4</name>
							<pathurl>file://localhost/Users/themalikano/Documents/VideoAutomation/premiere_videos/Travis_Kelce_ANNOUNCE_WEDDING_DATE_with_Taylor_Swift_Why_He_was_Delaying_all_Along.mp4</pathurl>
							<rate>
								<timebase>24</timebase>
								<ntsc>FALSE</ntsc>
							</rate>
							<duration>39627</duration>
							<timecode>
								<rate>
									<timebase>24</timebase>
									<ntsc>FALSE</ntsc>
								</rate>
								<string>00:00:00:00</string>
								<frame>0</frame>
								<displayformat>NDF</displayformat>
							</timecode>
							<media>
								<video>
									<samplecharacteristics>
										<rate>
											<timebase>24</timebase>
											<ntsc>FALSE</ntsc>
										</rate>
										<width>852</width>
										<height>480</height>
										<anamorphic>FALSE</anamorphic>
										<pixelaspectratio>square</pixelaspectratio>
										<fielddominance>none</fielddominance>
									</samplecharacteristics>
								</video>
								<audio>
									<samplecharacteristics>
										<depth>16</depth>
										<samplerate>44100</samplerate>
									</samplecharacteristics>
									<channelcount>2</channelcount>
								</audio>
							</media>
						</file>
						<filter>
							<effect>
								<name>Basic Motion</name>
								<effectid>basic</effectid>
								<effectcategory>motion</effectcategory>
								<effecttype>motion</effecttype>
								<mediatype>video</mediatype>
								<pproBypass>false</pproBypass>
								<parameter authoringApp="PremierePro">
									<parameterid>scale</parameterid>
									<name>Scale</name>
									<valuemin>0</valuemin>
									<valuemax>1000</valuemax>
									<value>225</value>
								</parameter>
								<parameter authoringApp="PremierePro">
									<parameterid>rotation</parameterid>
									<name>Rotation</name>
									<valuemin>-8640</valuemin>
									<valuemax>8640</valuemax>
									<value>0</value>
								</parameter>
								<parameter authoringApp="PremierePro">
									<parameterid>center</parameterid>
									<name>Center</name>
									<value>
										<horiz>0</horiz>
										<vert>0</vert>
									</value>
								</parameter>
								<parameter authoringApp="PremierePro">
									<parameterid>centerOffset</parameterid>
									<name>Anchor Point</name>
									<value>
										<horiz>0</horiz>
										<vert>0</vert>
									</value>
								</parameter>
								<parameter authoringApp="PremierePro">
									<parameterid>antiflicker</parameterid>
									<name>Anti-flicker Filter</name>
									<valuemin>0.0</valuemin>
									<valuemax>1.0</valuemax>
									<value>0</value>
								</parameter>
							</effect>
						</filter>
						<link>
							<linkclipref>clipitem-88</linkclipref>
							<mediatype>video</mediatype>
							<trackindex>1</trackindex>
							<clipindex>4</clipindex>
						</link>
						<link>
							<linkclipref>clipitem-96</linkclipref>
							<mediatype>audio</mediatype>
							<trackindex>1</trackindex>
							<clipindex>4</clipindex>
							<groupindex>1</groupindex>
						</link>
						<link>
							<linkclipref>clipitem-104</linkclipref>
							<mediatype>audio</mediatype>
							<trackindex>2</trackindex>
							<clipindex>4</clipindex>
							<groupindex>1</groupindex>
						</link>
						<logginginfo>
							<description />
							<scene />
							<shottake />
							<lognote />
							<good />
							<originalvideofilename />
							<originalaudiofilename />
						</logginginfo>
						<colorinfo>
							<lut />
							<lut1 />
							<asc_sop />
							<asc_sat />
							<lut2 />
						</colorinfo>
					<labels><label2>Lavender</label2></labels></clipitem>
					<clipitem id="clipitem-86">
						<masterclipid>clipitem-2-72</masterclipid>
						<name>Taylor_Swift_Shares_The_Story_Of_Calling_Travis_Kelce_For_The_First_Time.mp4</name>
						<enabled>TRUE</enabled>
						<duration>150</duration>
						<rate>
							<timebase>25</timebase>
							<ntsc>FALSE</ntsc>
						</rate>
						<start>61200</start>
						<end>61350</end>
						<in>10650</in>
						<out>10800</out>
						<pproTicksIn>0</pproTicksIn>
						<pproTicksOut>236438092800000</pproTicksOut>
						<alphatype>none</alphatype>
						<pixelaspectratio>square</pixelaspectratio>
						<anamorphic>FALSE</anamorphic>
						<file id="file-30">
							<name>Taylor_Swift_Shares_The_Story_Of_Calling_Travis_Kelce_For_The_First_Time.mp4</name>
							<pathurl>file://localhost/Users/themalikano/Documents/VideoAutomation/premiere_videos/Taylor_Swift_Shares_The_Story_Of_Calling_Travis_Kelce_For_The_First_Time.mp4</pathurl>
							<rate>
								<timebase>30</timebase>
								<ntsc>TRUE</ntsc>
							</rate>
							<duration>27897</duration>
							<timecode>
								<rate>
									<timebase>30</timebase>
									<ntsc>TRUE</ntsc>
								</rate>
								<string>00:00:00:00</string>
								<frame>0</frame>
								<displayformat>NDF</displayformat>
							</timecode>
							<media>
								<video>
									<samplecharacteristics>
										<rate>
											<timebase>30</timebase>
											<ntsc>TRUE</ntsc>
										</rate>
										<width>1920</width>
										<height>1080</height>
										<anamorphic>FALSE</anamorphic>
										<pixelaspectratio>square</pixelaspectratio>
										<fielddominance>none</fielddominance>
									</samplecharacteristics>
								</video>
								<audio>
									<samplecharacteristics>
										<depth>16</depth>
										<samplerate>44100</samplerate>
									</samplecharacteristics>
									<channelcount>2</channelcount>
								</audio>
							</media>
						</file>
						<link>
							<linkclipref>clipitem-86</linkclipref>
							<mediatype>video</mediatype>
							<trackindex>1</trackindex>
							<clipindex>2</clipindex>
						</link>
						<link>
							<linkclipref>clipitem-94</linkclipref>
							<mediatype>audio</mediatype>
							<trackindex>1</trackindex>
							<clipindex>2</clipindex>
							<groupindex>1</groupindex>
						</link>
						<link>
							<linkclipref>clipitem-102</linkclipref>
							<mediatype>audio</mediatype>
							<trackindex>2</trackindex>
							<clipindex>2</clipindex>
							<groupindex>1</groupindex>
						</link>
						<logginginfo>
							<description />
							<scene />
							<shottake />
							<lognote />
							<good />
							<originalvideofilename />
							<originalaudiofilename />
						</logginginfo>
						<colorinfo>
							<lut />
							<lut1 />
							<asc_sop />
							<asc_sat />
							<lut2 />
						</colorinfo>
					<labels><label2>Iris</label2></labels></clipitem>
					<clipitem id="clipitem-90">
						<masterclipid>clipitem-6-80</masterclipid>
						<name>Travis_Kelce_talks_about_postponing_his_wedding_to_Fiance_Taylor_Swift_on_the_New_Heights_Podcast.mp4</name>
						<enabled>TRUE</enabled>
						<duration>150</duration>
						<rate>
							<timebase>25</timebase>
							<ntsc>FALSE</ntsc>
						</rate>
						<start>61350</start>
						<end>61500</end>
						<in>11850</in>
						<out>12000</out>
						<pproTicksIn>0</pproTicksIn>
						<pproTicksOut>149391889920000</pproTicksOut>
						<alphatype>none</alphatype>
						<pixelaspectratio>square</pixelaspectratio>
						<anamorphic>FALSE</anamorphic>
						<file id="file-34">
							<name>Travis_Kelce_talks_about_postponing_his_wedding_to_Fiance_Taylor_Swift_on_the_New_Heights_Podcast.mp4</name>
							<pathurl>file://localhost/Users/themalikano/Documents/VideoAutomation/premiere_videos/Travis_Kelce_talks_about_postponing_his_wedding_to_Fiance_Taylor_Swift_on_the_New_Heights_Podcast.mp4</pathurl>
							<rate>
								<timebase>30</timebase>
								<ntsc>FALSE</ntsc>
							</rate>
							<duration>17644</duration>
							<timecode>
								<rate>
									<timebase>30</timebase>
									<ntsc>FALSE</ntsc>
								</rate>
								<string>00:00:00:00</string>
								<frame>0</frame>
								<displayformat>NDF</displayformat>
							</timecode>
							<media>
								<video>
									<samplecharacteristics>
										<rate>
											<timebase>30</timebase>
											<ntsc>FALSE</ntsc>
										</rate>
										<width>1920</width>
										<height>1080</height>
										<anamorphic>FALSE</anamorphic>
										<pixelaspectratio>square</pixelaspectratio>
										<fielddominance>none</fielddominance>
									</samplecharacteristics>
								</video>
								<audio>
									<samplecharacteristics>
										<depth>16</depth>
										<samplerate>44100</samplerate>
									</samplecharacteristics>
									<channelcount>2</channelcount>
								</audio>
							</media>
						</file>
						<link>
							<linkclipref>clipitem-90</linkclipref>
							<mediatype>video</mediatype>
							<trackindex>1</trackindex>
							<clipindex>6</clipindex>
						</link>
						<link>
							<linkclipref>clipitem-98</linkclipref>
							<mediatype>audio</mediatype>
							<trackindex>1</trackindex>
							<clipindex>6</clipindex>
							<groupindex>1</groupindex>
						</link>
						<link>
							<linkclipref>clipitem-106</linkclipref>
							<mediatype>audio</mediatype>
							<trackindex>2</trackindex>
							<clipindex>6</clipindex>
							<groupindex>1</groupindex>
						</link>
						<logginginfo>
							<description />
							<scene />
							<shottake />
							<lognote />
							<good />
							<originalvideofilename />
							<originalaudiofilename />
						</logginginfo>
						<colorinfo>
							<lut />
							<lut1 />
							<asc_sop />
							<asc_sat />
							<lut2 />
						</colorinfo>
					<labels><label2>Forest</label2></labels></clipitem>
					<clipitem id="clipitem-86">
						<masterclipid>clipitem-2-38</masterclipid>
						<name>Taylor_Swift_Shares_The_Story_Of_Calling_Travis_Kelce_For_The_First_Time.mp4</name>
						<enabled>TRUE</enabled>
						<duration>150</duration>
						<rate>
							<timebase>25</timebase>
							<ntsc>FALSE</ntsc>
						</rate>
						<start>61500</start>
						<end>61650</end>
						<in>5550</in>
						<out>5700</out>
						<pproTicksIn>0</pproTicksIn>
						<pproTicksOut>236438092800000</pproTicksOut>
						<alphatype>none</alphatype>
						<pixelaspectratio>square</pixelaspectratio>
						<anamorphic>FALSE</anamorphic>
						<file id="file-30">
							<name>Taylor_Swift_Shares_The_Story_Of_Calling_Travis_Kelce_For_The_First_Time.mp4</name>
							<pathurl>file://localhost/Users/themalikano/Documents/VideoAutomation/premiere_videos/Taylor_Swift_Shares_The_Story_Of_Calling_Travis_Kelce_For_The_First_Time.mp4</pathurl>
							<rate>
								<timebase>30</timebase>
								<ntsc>TRUE</ntsc>
							</rate>
							<duration>27897</duration>
							<timecode>
								<rate>
									<timebase>30</timebase>
									<ntsc>TRUE</ntsc>
								</rate>
								<string>00:00:00:00</string>
								<frame>0</frame>
								<displayformat>NDF</displayformat>
							</timecode>
							<media>
								<video>
									<samplecharacteristics>
										<rate>
											<timebase>30</timebase>
											<ntsc>TRUE</ntsc>
										</rate>
										<width>1920</width>
										<height>1080</height>
										<anamorphic>FALSE</anamorphic>
										<pixelaspectratio>square</pixelaspectratio>
										<fielddominance>none</fielddominance>
									</samplecharacteristics>
								</video>
								<audio>
									<samplecharacteristics>
										<depth>16</depth>
										<samplerate>44100</samplerate>
									</samplecharacteristics>
									<channelcount>2</channelcount>
								</audio>
							</media>
						</file>
						<link>
							<linkclipref>clipitem-86</linkclipref>
							<mediatype>video</mediatype>
							<trackindex>1</trackindex>
							<clipindex>2</clipindex>
						</link>
						<link>
							<linkclipref>clipitem-94</linkclipref>
							<mediatype>audio</mediatype>
							<trackindex>1</trackindex>
							<clipindex>2</clipindex>
							<groupindex>1</groupindex>
						</link>
						<link>
							<linkclipref>clipitem-102</linkclipref>
							<mediatype>audio</mediatype>
							<trackindex>2</trackindex>
							<clipindex>2</clipindex>
							<groupindex>1</groupindex>
						</link>
						<logginginfo>
							<description />
							<scene />
							<shottake />
							<lognote />
							<good />
							<originalvideofilename />
							<originalaudiofilename />
						</logginginfo>
						<colorinfo>
							<lut />
							<lut1 />
							<asc_sop />
							<asc_sat />
							<lut2 />
						</colorinfo>
					<labels><label2>Iris</label2></labels></clipitem>
					<clipitem id="clipitem-87">
						<masterclipid>clipitem-3-96</masterclipid>
						<name>Taylor_Swift_Travis_Kelce_-_The_New_Power_Couple.mp4</name>
						<enabled>TRUE</enabled>
						<duration>150</duration>
						<rate>
							<timebase>25</timebase>
							<ntsc>FALSE</ntsc>
						</rate>
						<start>61650</start>
						<end>61800</end>
						<in>14250</in>
						<out>14400</out>
						<pproTicksIn>0</pproTicksIn>
						<pproTicksOut>875013995520000</pproTicksOut>
						<alphatype>none</alphatype>
						<pixelaspectratio>square</pixelaspectratio>
						<anamorphic>FALSE</anamorphic>
						<file id="file-31">
							<name>Taylor_Swift_Travis_Kelce_-_The_New_Power_Couple.mp4</name>
							<pathurl>file://localhost/Users/themalikano/Documents/VideoAutomation/premiere_videos/Taylor_Swift_Travis_Kelce_-_The_New_Power_Couple.mp4</pathurl>
							<rate>
								<timebase>25</timebase>
								<ntsc>FALSE</ntsc>
							</rate>
							<duration>86118</duration>
							<timecode>
								<rate>
									<timebase>25</timebase>
									<ntsc>FALSE</ntsc>
								</rate>
								<string>00:00:00:00</string>
								<frame>0</frame>
								<displayformat>NDF</displayformat>
							</timecode>
							<media>
								<video>
									<samplecharacteristics>
										<rate>
											<timebase>25</timebase>
											<ntsc>FALSE</ntsc>
										</rate>
										<width>1920</width>
										<height>1080</height>
										<anamorphic>FALSE</anamorphic>
										<pixelaspectratio>square</pixelaspectratio>
										<fielddominance>none</fielddominance>
									</samplecharacteristics>
								</video>
								<audio>
									<samplecharacteristics>
										<depth>16</depth>
										<samplerate>44100</samplerate>
									</samplecharacteristics>
									<channelcount>2</channelcount>
								</audio>
							</media>
						</file>
						<link>
							<linkclipref>clipitem-87</linkclipref>
							<mediatype>video</mediatype>
							<trackindex>1</trackindex>
							<clipindex>3</clipindex>
						</link>
						<link>
							<linkclipref>clipitem-95</linkclipref>
							<mediatype>audio</mediatype>
							<trackindex>1</trackindex>
							<clipindex>3</clipindex>
							<groupindex>1</groupindex>
						</link>
						<link>
							<linkclipref>clipitem-103</linkclipref>
							<mediatype>audio</mediatype>
							<trackindex>2</trackindex>
							<clipindex>3</clipindex>
							<groupindex>1</groupindex>
						</link>
						<logginginfo>
							<description />
							<scene />
							<shottake />
							<lognote />
							<good />
							<originalvideofilename />
							<originalaudiofilename />
						</logginginfo>
						<colorinfo>
							<lut />
							<lut1 />
							<asc_sop />
							<asc_sat />
							<lut2 />
						</colorinfo>
					<labels><label2>Caribbean</label2></labels></clipitem>
					<clipitem id="clipitem-86">
						<masterclipid>clipitem-2-59</masterclipid>
						<name>Taylor_Swift_Shares_The_Story_Of_Calling_Travis_Kelce_For_The_First_Time.mp4</name>
						<enabled>TRUE</enabled>
						<duration>150</duration>
						<rate>
							<timebase>25</timebase>
							<ntsc>FALSE</ntsc>
						</rate>
						<start>61800</start>
						<end>61950</end>
						<in>8700</in>
						<out>8850</out>
						<pproTicksIn>0</pproTicksIn>
						<pproTicksOut>236438092800000</pproTicksOut>
						<alphatype>none</alphatype>
						<pixelaspectratio>square</pixelaspectratio>
						<anamorphic>FALSE</anamorphic>
						<file id="file-30">
							<name>Taylor_Swift_Shares_The_Story_Of_Calling_Travis_Kelce_For_The_First_Time.mp4</name>
							<pathurl>file://localhost/Users/themalikano/Documents/VideoAutomation/premiere_videos/Taylor_Swift_Shares_The_Story_Of_Calling_Travis_Kelce_For_The_First_Time.mp4</pathurl>
							<rate>
								<timebase>30</timebase>
								<ntsc>TRUE</ntsc>
							</rate>
							<duration>27897</duration>
							<timecode>
								<rate>
									<timebase>30</timebase>
									<ntsc>TRUE</ntsc>
								</rate>
								<string>00:00:00:00</string>
								<frame>0</frame>
								<displayformat>NDF</displayformat>
							</timecode>
							<media>
								<video>
									<samplecharacteristics>
										<rate>
											<timebase>30</timebase>
											<ntsc>TRUE</ntsc>
										</rate>
										<width>1920</width>
										<height>1080</height>
										<anamorphic>FALSE</anamorphic>
										<pixelaspectratio>square</pixelaspectratio>
										<fielddominance>none</fielddominance>
									</samplecharacteristics>
								</video>
								<audio>
									<samplecharacteristics>
										<depth>16</depth>
										<samplerate>44100</samplerate>
									</samplecharacteristics>
									<channelcount>2</channelcount>
								</audio>
							</media>
						</file>
						<link>
							<linkclipref>clipitem-86</linkclipref>
							<mediatype>video</mediatype>
							<trackindex>1</trackindex>
							<clipindex>2</clipindex>
						</link>
						<link>
							<linkclipref>clipitem-94</linkclipref>
							<mediatype>audio</mediatype>
							<trackindex>1</trackindex>
							<clipindex>2</clipindex>
							<groupindex>1</groupindex>
						</link>
						<link>
							<linkclipref>clipitem-102</linkclipref>
							<mediatype>audio</mediatype>
							<trackindex>2</trackindex>
							<clipindex>2</clipindex>
							<groupindex>1</groupindex>
						</link>
						<logginginfo>
							<description />
							<scene />
							<shottake />
							<lognote />
							<good />
							<originalvideofilename />
							<originalaudiofilename />
						</logginginfo>
						<colorinfo>
							<lut />
							<lut1 />
							<asc_sop />
							<asc_sat />
							<lut2 />
						</colorinfo>
					<labels><label2>Iris</label2></labels></clipitem>
					<clipitem id="clipitem-90">
						<masterclipid>clipitem-6-3</masterclipid>
						<name>Travis_Kelce_talks_about_postponing_his_wedding_to_Fiance_Taylor_Swift_on_the_New_Heights_Podcast.mp4</name>
						<enabled>TRUE</enabled>
						<duration>150</duration>
						<rate>
							<timebase>25</timebase>
							<ntsc>FALSE</ntsc>
						</rate>
						<start>61950</start>
						<end>62100</end>
						<in>300</in>
						<out>450</out>
						<pproTicksIn>0</pproTicksIn>
						<pproTicksOut>149391889920000</pproTicksOut>
						<alphatype>none</alphatype>
						<pixelaspectratio>square</pixelaspectratio>
						<anamorphic>FALSE</anamorphic>
						<file id="file-34">
							<name>Travis_Kelce_talks_about_postponing_his_wedding_to_Fiance_Taylor_Swift_on_the_New_Heights_Podcast.mp4</name>
							<pathurl>file://localhost/Users/themalikano/Documents/VideoAutomation/premiere_videos/Travis_Kelce_talks_about_postponing_his_wedding_to_Fiance_Taylor_Swift_on_the_New_Heights_Podcast.mp4</pathurl>
							<rate>
								<timebase>30</timebase>
								<ntsc>FALSE</ntsc>
							</rate>
							<duration>17644</duration>
							<timecode>
								<rate>
									<timebase>30</timebase>
									<ntsc>FALSE</ntsc>
								</rate>
								<string>00:00:00:00</string>
								<frame>0</frame>
								<displayformat>NDF</displayformat>
							</timecode>
							<media>
								<video>
									<samplecharacteristics>
										<rate>
											<timebase>30</timebase>
											<ntsc>FALSE</ntsc>
										</rate>
										<width>1920</width>
										<height>1080</height>
										<anamorphic>FALSE</anamorphic>
										<pixelaspectratio>square</pixelaspectratio>
										<fielddominance>none</fielddominance>
									</samplecharacteristics>
								</video>
								<audio>
									<samplecharacteristics>
										<depth>16</depth>
										<samplerate>44100</samplerate>
									</samplecharacteristics>
									<channelcount>2</channelcount>
								</audio>
							</media>
						</file>
						<link>
							<linkclipref>clipitem-90</linkclipref>
							<mediatype>video</mediatype>
							<trackindex>1</trackindex>
							<clipindex>6</clipindex>
						</link>
						<link>
							<linkclipref>clipitem-98</linkclipref>
							<mediatype>audio</mediatype>
							<trackindex>1</trackindex>
							<clipindex>6</clipindex>
							<groupindex>1</groupindex>
						</link>
						<link>
							<linkclipref>clipitem-106</linkclipref>
							<mediatype>audio</mediatype>
							<trackindex>2</trackindex>
							<clipindex>6</clipindex>
							<groupindex>1</groupindex>
						</link>
						<logginginfo>
							<description />
							<scene />
							<shottake />
							<lognote />
							<good />
							<originalvideofilename />
							<originalaudiofilename />
						</logginginfo>
						<colorinfo>
							<lut />
							<lut1 />
							<asc_sop />
							<asc_sat />
							<lut2 />
						</colorinfo>
					<labels><label2>Forest</label2></labels></clipitem>
					<clipitem id="clipitem-87">
						<masterclipid>clipitem-3-76</masterclipid>
						<name>Taylor_Swift_Travis_Kelce_-_The_New_Power_Couple.mp4</name>
						<enabled>TRUE</enabled>
						<duration>150</duration>
						<rate>
							<timebase>25</timebase>
							<ntsc>FALSE</ntsc>
						</rate>
						<start>62100</start>
						<end>62250</end>
						<in>11250</in>
						<out>11400</out>
						<pproTicksIn>0</pproTicksIn>
						<pproTicksOut>875013995520000</pproTicksOut>
						<alphatype>none</alphatype>
						<pixelaspectratio>square</pixelaspectratio>
						<anamorphic>FALSE</anamorphic>
						<file id="file-31">
							<name>Taylor_Swift_Travis_Kelce_-_The_New_Power_Couple.mp4</name>
							<pathurl>file://localhost/Users/themalikano/Documents/VideoAutomation/premiere_videos/Taylor_Swift_Travis_Kelce_-_The_New_Power_Couple.mp4</pathurl>
							<rate>
								<timebase>25</timebase>
								<ntsc>FALSE</ntsc>
							</rate>
							<duration>86118</duration>
							<timecode>
								<rate>
									<timebase>25</timebase>
									<ntsc>FALSE</ntsc>
								</rate>
								<string>00:00:00:00</string>
								<frame>0</frame>
								<displayformat>NDF</displayformat>
							</timecode>
							<media>
								<video>
									<samplecharacteristics>
										<rate>
											<timebase>25</timebase>
											<ntsc>FALSE</ntsc>
										</rate>
										<width>1920</width>
										<height>1080</height>
										<anamorphic>FALSE</anamorphic>
										<pixelaspectratio>square</pixelaspectratio>
										<fielddominance>none</fielddominance>
									</samplecharacteristics>
								</video>
								<audio>
									<samplecharacteristics>
										<depth>16</depth>
										<samplerate>44100</samplerate>
									</samplecharacteristics>
									<channelcount>2</channelcount>
								</audio>
							</media>
						</file>
						<link>
							<linkclipref>clipitem-87</linkclipref>
							<mediatype>video</mediatype>
							<trackindex>1</trackindex>
							<clipindex>3</clipindex>
						</link>
						<link>
							<linkclipref>clipitem-95</linkclipref>
							<mediatype>audio</mediatype>
							<trackindex>1</trackindex>
							<clipindex>3</clipindex>
							<groupindex>1</groupindex>
						</link>
						<link>
							<linkclipref>clipitem-103</linkclipref>
							<mediatype>audio</mediatype>
							<trackindex>2</trackindex>
							<clipindex>3</clipindex>
							<groupindex>1</groupindex>
						</link>
						<logginginfo>
							<description />
							<scene />
							<shottake />
							<lognote />
							<good />
							<originalvideofilename />
							<originalaudiofilename />
						</logginginfo>
						<colorinfo>
							<lut />
							<lut1 />
							<asc_sop />
							<asc_sat />
							<lut2 />
						</colorinfo>
					<labels><label2>Caribbean</label2></labels></clipitem>
					<clipitem id="clipitem-86">
						<masterclipid>clipitem-2-95</masterclipid>
						<name>Taylor_Swift_Shares_The_Story_Of_Calling_Travis_Kelce_For_The_First_Time.mp4</name>
						<enabled>TRUE</enabled>
						<duration>150</duration>
						<rate>
							<timebase>25</timebase>
							<ntsc>FALSE</ntsc>
						</rate>
						<start>62250</start>
						<end>62400</end>
						<in>14100</in>
						<out>14250</out>
						<pproTicksIn>0</pproTicksIn>
						<pproTicksOut>236438092800000</pproTicksOut>
						<alphatype>none</alphatype>
						<pixelaspectratio>square</pixelaspectratio>
						<anamorphic>FALSE</anamorphic>
						<file id="file-30">
							<name>Taylor_Swift_Shares_The_Story_Of_Calling_Travis_Kelce_For_The_First_Time.mp4</name>
							<pathurl>file://localhost/Users/themalikano/Documents/VideoAutomation/premiere_videos/Taylor_Swift_Shares_The_Story_Of_Calling_Travis_Kelce_For_The_First_Time.mp4</pathurl>
							<rate>
								<timebase>30</timebase>
								<ntsc>TRUE</ntsc>
							</rate>
							<duration>27897</duration>
							<timecode>
								<rate>
									<timebase>30</timebase>
									<ntsc>TRUE</ntsc>
								</rate>
								<string>00:00:00:00</string>
								<frame>0</frame>
								<displayformat>NDF</displayformat>
							</timecode>
							<media>
								<video>
									<samplecharacteristics>
										<rate>
											<timebase>30</timebase>
											<ntsc>TRUE</ntsc>
										</rate>
										<width>1920</width>
										<height>1080</height>
										<anamorphic>FALSE</anamorphic>
										<pixelaspectratio>square</pixelaspectratio>
										<fielddominance>none</fielddominance>
									</samplecharacteristics>
								</video>
								<audio>
									<samplecharacteristics>
										<depth>16</depth>
										<samplerate>44100</samplerate>
									</samplecharacteristics>
									<channelcount>2</channelcount>
								</audio>
							</media>
						</file>
						<link>
							<linkclipref>clipitem-86</linkclipref>
							<mediatype>video</mediatype>
							<trackindex>1</trackindex>
							<clipindex>2</clipindex>
						</link>
						<link>
							<linkclipref>clipitem-94</linkclipref>
							<mediatype>audio</mediatype>
							<trackindex>1</trackindex>
							<clipindex>2</clipindex>
							<groupindex>1</groupindex>
						</link>
						<link>
							<linkclipref>clipitem-102</linkclipref>
							<mediatype>audio</mediatype>
							<trackindex>2</trackindex>
							<clipindex>2</clipindex>
							<groupindex>1</groupindex>
						</link>
						<logginginfo>
							<description />
							<scene />
							<shottake />
							<lognote />
							<good />
							<originalvideofilename />
							<originalaudiofilename />
						</logginginfo>
						<colorinfo>
							<lut />
							<lut1 />
							<asc_sop />
							<asc_sat />
							<lut2 />
						</colorinfo>
					<labels><label2>Iris</label2></labels></clipitem>
					<clipitem id="clipitem-87">
						<masterclipid>clipitem-3-238</masterclipid>
						<name>Taylor_Swift_Travis_Kelce_-_The_New_Power_Couple.mp4</name>
						<enabled>TRUE</enabled>
						<duration>150</duration>
						<rate>
							<timebase>25</timebase>
							<ntsc>FALSE</ntsc>
						</rate>
						<start>62400</start>
						<end>62550</end>
						<in>35550</in>
						<out>35700</out>
						<pproTicksIn>0</pproTicksIn>
						<pproTicksOut>875013995520000</pproTicksOut>
						<alphatype>none</alphatype>
						<pixelaspectratio>square</pixelaspectratio>
						<anamorphic>FALSE</anamorphic>
						<file id="file-31">
							<name>Taylor_Swift_Travis_Kelce_-_The_New_Power_Couple.mp4</name>
							<pathurl>file://localhost/Users/themalikano/Documents/VideoAutomation/premiere_videos/Taylor_Swift_Travis_Kelce_-_The_New_Power_Couple.mp4</pathurl>
							<rate>
								<timebase>25</timebase>
								<ntsc>FALSE</ntsc>
							</rate>
							<duration>86118</duration>
							<timecode>
								<rate>
									<timebase>25</timebase>
									<ntsc>FALSE</ntsc>
								</rate>
								<string>00:00:00:00</string>
								<frame>0</frame>
								<displayformat>NDF</displayformat>
							</timecode>
							<media>
								<video>
									<samplecharacteristics>
										<rate>
											<timebase>25</timebase>
											<ntsc>FALSE</ntsc>
										</rate>
										<width>1920</width>
										<height>1080</height>
										<anamorphic>FALSE</anamorphic>
										<pixelaspectratio>square</pixelaspectratio>
										<fielddominance>none</fielddominance>
									</samplecharacteristics>
								</video>
								<audio>
									<samplecharacteristics>
										<depth>16</depth>
										<samplerate>44100</samplerate>
									</samplecharacteristics>
									<channelcount>2</channelcount>
								</audio>
							</media>
						</file>
						<link>
							<linkclipref>clipitem-87</linkclipref>
							<mediatype>video</mediatype>
							<trackindex>1</trackindex>
							<clipindex>3</clipindex>
						</link>
						<link>
							<linkclipref>clipitem-95</linkclipref>
							<mediatype>audio</mediatype>
							<trackindex>1</trackindex>
							<clipindex>3</clipindex>
							<groupindex>1</groupindex>
						</link>
						<link>
							<linkclipref>clipitem-103</linkclipref>
							<mediatype>audio</mediatype>
							<trackindex>2</trackindex>
							<clipindex>3</clipindex>
							<groupindex>1</groupindex>
						</link>
						<logginginfo>
							<description />
							<scene />
							<shottake />
							<lognote />
							<good />
							<originalvideofilename />
							<originalaudiofilename />
						</logginginfo>
						<colorinfo>
							<lut />
							<lut1 />
							<asc_sop />
							<asc_sat />
							<lut2 />
						</colorinfo>
					<labels><label2>Caribbean</label2></labels></clipitem>
					<clipitem id="clipitem-86">
						<masterclipid>clipitem-2-143</masterclipid>
						<name>Taylor_Swift_Shares_The_Story_Of_Calling_Travis_Kelce_For_The_First_Time.mp4</name>
						<enabled>TRUE</enabled>
						<duration>150</duration>
						<rate>
							<timebase>25</timebase>
							<ntsc>FALSE</ntsc>
						</rate>
						<start>62550</start>
						<end>62700</end>
						<in>21300</in>
						<out>21450</out>
						<pproTicksIn>0</pproTicksIn>
						<pproTicksOut>236438092800000</pproTicksOut>
						<alphatype>none</alphatype>
						<pixelaspectratio>square</pixelaspectratio>
						<anamorphic>FALSE</anamorphic>
						<file id="file-30">
							<name>Taylor_Swift_Shares_The_Story_Of_Calling_Travis_Kelce_For_The_First_Time.mp4</name>
							<pathurl>file://localhost/Users/themalikano/Documents/VideoAutomation/premiere_videos/Taylor_Swift_Shares_The_Story_Of_Calling_Travis_Kelce_For_The_First_Time.mp4</pathurl>
							<rate>
								<timebase>30</timebase>
								<ntsc>TRUE</ntsc>
							</rate>
							<duration>27897</duration>
							<timecode>
								<rate>
									<timebase>30</timebase>
									<ntsc>TRUE</ntsc>
								</rate>
								<string>00:00:00:00</string>
								<frame>0</frame>
								<displayformat>NDF</displayformat>
							</timecode>
							<media>
								<video>
									<samplecharacteristics>
										<rate>
											<timebase>30</timebase>
											<ntsc>TRUE</ntsc>
										</rate>
										<width>1920</width>
										<height>1080</height>
										<anamorphic>FALSE</anamorphic>
										<pixelaspectratio>square</pixelaspectratio>
										<fielddominance>none</fielddominance>
									</samplecharacteristics>
								</video>
								<audio>
									<samplecharacteristics>
										<depth>16</depth>
										<samplerate>44100</samplerate>
									</samplecharacteristics>
									<channelcount>2</channelcount>
								</audio>
							</media>
						</file>
						<link>
							<linkclipref>clipitem-86</linkclipref>
							<mediatype>video</mediatype>
							<trackindex>1</trackindex>
							<clipindex>2</clipindex>
						</link>
						<link>
							<linkclipref>clipitem-94</linkclipref>
							<mediatype>audio</mediatype>
							<trackindex>1</trackindex>
							<clipindex>2</clipindex>
							<groupindex>1</groupindex>
						</link>
						<link>
							<linkclipref>clipitem-102</linkclipref>
							<mediatype>audio</mediatype>
							<trackindex>2</trackindex>
							<clipindex>2</clipindex>
							<groupindex>1</groupindex>
						</link>
						<logginginfo>
							<description />
							<scene />
							<shottake />
							<lognote />
							<good />
							<originalvideofilename />
							<originalaudiofilename />
						</logginginfo>
						<colorinfo>
							<lut />
							<lut1 />
							<asc_sop />
							<asc_sat />
							<lut2 />
						</colorinfo>
					<labels><label2>Iris</label2></labels></clipitem>
					<clipitem id="clipitem-90">
						<masterclipid>clipitem-6-81</masterclipid>
						<name>Travis_Kelce_talks_about_postponing_his_wedding_to_Fiance_Taylor_Swift_on_the_New_Heights_Podcast.mp4</name>
						<enabled>TRUE</enabled>
						<duration>150</duration>
						<rate>
							<timebase>25</timebase>
							<ntsc>FALSE</ntsc>
						</rate>
						<start>62700</start>
						<end>62850</end>
						<in>12000</in>
						<out>12150</out>
						<pproTicksIn>0</pproTicksIn>
						<pproTicksOut>149391889920000</pproTicksOut>
						<alphatype>none</alphatype>
						<pixelaspectratio>square</pixelaspectratio>
						<anamorphic>FALSE</anamorphic>
						<file id="file-34">
							<name>Travis_Kelce_talks_about_postponing_his_wedding_to_Fiance_Taylor_Swift_on_the_New_Heights_Podcast.mp4</name>
							<pathurl>file://localhost/Users/themalikano/Documents/VideoAutomation/premiere_videos/Travis_Kelce_talks_about_postponing_his_wedding_to_Fiance_Taylor_Swift_on_the_New_Heights_Podcast.mp4</pathurl>
							<rate>
								<timebase>30</timebase>
								<ntsc>FALSE</ntsc>
							</rate>
							<duration>17644</duration>
							<timecode>
								<rate>
									<timebase>30</timebase>
									<ntsc>FALSE</ntsc>
								</rate>
								<string>00:00:00:00</string>
								<frame>0</frame>
								<displayformat>NDF</displayformat>
							</timecode>
							<media>
								<video>
									<samplecharacteristics>
										<rate>
											<timebase>30</timebase>
											<ntsc>FALSE</ntsc>
										</rate>
										<width>1920</width>
										<height>1080</height>
										<anamorphic>FALSE</anamorphic>
										<pixelaspectratio>square</pixelaspectratio>
										<fielddominance>none</fielddominance>
									</samplecharacteristics>
								</video>
								<audio>
									<samplecharacteristics>
										<depth>16</depth>
										<samplerate>44100</samplerate>
									</samplecharacteristics>
									<channelcount>2</channelcount>
								</audio>
							</media>
						</file>
						<link>
							<linkclipref>clipitem-90</linkclipref>
							<mediatype>video</mediatype>
							<trackindex>1</trackindex>
							<clipindex>6</clipindex>
						</link>
						<link>
							<linkclipref>clipitem-98</linkclipref>
							<mediatype>audio</mediatype>
							<trackindex>1</trackindex>
							<clipindex>6</clipindex>
							<groupindex>1</groupindex>
						</link>
						<link>
							<linkclipref>clipitem-106</linkclipref>
							<mediatype>audio</mediatype>
							<trackindex>2</trackindex>
							<clipindex>6</clipindex>
							<groupindex>1</groupindex>
						</link>
						<logginginfo>
							<description />
							<scene />
							<shottake />
							<lognote />
							<good />
							<originalvideofilename />
							<originalaudiofilename />
						</logginginfo>
						<colorinfo>
							<lut />
							<lut1 />
							<asc_sop />
							<asc_sat />
							<lut2 />
						</colorinfo>
					<labels><label2>Forest</label2></labels></clipitem>
					<clipitem id="clipitem-86">
						<masterclipid>clipitem-2-70</masterclipid>
						<name>Taylor_Swift_Shares_The_Story_Of_Calling_Travis_Kelce_For_The_First_Time.mp4</name>
						<enabled>TRUE</enabled>
						<duration>150</duration>
						<rate>
							<timebase>25</timebase>
							<ntsc>FALSE</ntsc>
						</rate>
						<start>62850</start>
						<end>63000</end>
						<in>10350</in>
						<out>10500</out>
						<pproTicksIn>0</pproTicksIn>
						<pproTicksOut>236438092800000</pproTicksOut>
						<alphatype>none</alphatype>
						<pixelaspectratio>square</pixelaspectratio>
						<anamorphic>FALSE</anamorphic>
						<file id="file-30">
							<name>Taylor_Swift_Shares_The_Story_Of_Calling_Travis_Kelce_For_The_First_Time.mp4</name>
							<pathurl>file://localhost/Users/themalikano/Documents/VideoAutomation/premiere_videos/Taylor_Swift_Shares_The_Story_Of_Calling_Travis_Kelce_For_The_First_Time.mp4</pathurl>
							<rate>
								<timebase>30</timebase>
								<ntsc>TRUE</ntsc>
							</rate>
							<duration>27897</duration>
							<timecode>
								<rate>
									<timebase>30</timebase>
									<ntsc>TRUE</ntsc>
								</rate>
								<string>00:00:00:00</string>
								<frame>0</frame>
								<displayformat>NDF</displayformat>
							</timecode>
							<media>
								<video>
									<samplecharacteristics>
										<rate>
											<timebase>30</timebase>
											<ntsc>TRUE</ntsc>
										</rate>
										<width>1920</width>
										<height>1080</height>
										<anamorphic>FALSE</anamorphic>
										<pixelaspectratio>square</pixelaspectratio>
										<fielddominance>none</fielddominance>
									</samplecharacteristics>
								</video>
								<audio>
									<samplecharacteristics>
										<depth>16</depth>
										<samplerate>44100</samplerate>
									</samplecharacteristics>
									<channelcount>2</channelcount>
								</audio>
							</media>
						</file>
						<link>
							<linkclipref>clipitem-86</linkclipref>
							<mediatype>video</mediatype>
							<trackindex>1</trackindex>
							<clipindex>2</clipindex>
						</link>
						<link>
							<linkclipref>clipitem-94</linkclipref>
							<mediatype>audio</mediatype>
							<trackindex>1</trackindex>
							<clipindex>2</clipindex>
							<groupindex>1</groupindex>
						</link>
						<link>
							<linkclipref>clipitem-102</linkclipref>
							<mediatype>audio</mediatype>
							<trackindex>2</trackindex>
							<clipindex>2</clipindex>
							<groupindex>1</groupindex>
						</link>
						<logginginfo>
							<description />
							<scene />
							<shottake />
							<lognote />
							<good />
							<originalvideofilename />
							<originalaudiofilename />
						</logginginfo>
						<colorinfo>
							<lut />
							<lut1 />
							<asc_sop />
							<asc_sat />
							<lut2 />
						</colorinfo>
					<labels><label2>Iris</label2></labels></clipitem>
					<clipitem id="clipitem-87">
						<masterclipid>clipitem-3-506</masterclipid>
						<name>Taylor_Swift_Travis_Kelce_-_The_New_Power_Couple.mp4</name>
						<enabled>TRUE</enabled>
						<duration>150</duration>
						<rate>
							<timebase>25</timebase>
							<ntsc>FALSE</ntsc>
						</rate>
						<start>63000</start>
						<end>63150</end>
						<in>75750</in>
						<out>75900</out>
						<pproTicksIn>0</pproTicksIn>
						<pproTicksOut>875013995520000</pproTicksOut>
						<alphatype>none</alphatype>
						<pixelaspectratio>square</pixelaspectratio>
						<anamorphic>FALSE</anamorphic>
						<file id="file-31">
							<name>Taylor_Swift_Travis_Kelce_-_The_New_Power_Couple.mp4</name>
							<pathurl>file://localhost/Users/themalikano/Documents/VideoAutomation/premiere_videos/Taylor_Swift_Travis_Kelce_-_The_New_Power_Couple.mp4</pathurl>
							<rate>
								<timebase>25</timebase>
								<ntsc>FALSE</ntsc>
							</rate>
							<duration>86118</duration>
							<timecode>
								<rate>
									<timebase>25</timebase>
									<ntsc>FALSE</ntsc>
								</rate>
								<string>00:00:00:00</string>
								<frame>0</frame>
								<displayformat>NDF</displayformat>
							</timecode>
							<media>
								<video>
									<samplecharacteristics>
										<rate>
											<timebase>25</timebase>
											<ntsc>FALSE</ntsc>
										</rate>
										<width>1920</width>
										<height>1080</height>
										<anamorphic>FALSE</anamorphic>
										<pixelaspectratio>square</pixelaspectratio>
										<fielddominance>none</fielddominance>
									</samplecharacteristics>
								</video>
								<audio>
									<samplecharacteristics>
										<depth>16</depth>
										<samplerate>44100</samplerate>
									</samplecharacteristics>
									<channelcount>2</channelcount>
								</audio>
							</media>
						</file>
						<link>
							<linkclipref>clipitem-87</linkclipref>
							<mediatype>video</mediatype>
							<trackindex>1</trackindex>
							<clipindex>3</clipindex>
						</link>
						<link>
							<linkclipref>clipitem-95</linkclipref>
							<mediatype>audio</mediatype>
							<trackindex>1</trackindex>
							<clipindex>3</clipindex>
							<groupindex>1</groupindex>
						</link>
						<link>
							<linkclipref>clipitem-103</linkclipref>
							<mediatype>audio</mediatype>
							<trackindex>2</trackindex>
							<clipindex>3</clipindex>
							<groupindex>1</groupindex>
						</link>
						<logginginfo>
							<description />
							<scene />
							<shottake />
							<lognote />
							<good />
							<originalvideofilename />
							<originalaudiofilename />
						</logginginfo>
						<colorinfo>
							<lut />
							<lut1 />
							<asc_sop />
							<asc_sat />
							<lut2 />
						</colorinfo>
					<labels><label2>Caribbean</label2></labels></clipitem>
					<clipitem id="clipitem-86">
						<masterclipid>clipitem-2-50</masterclipid>
						<name>Taylor_Swift_Shares_The_Story_Of_Calling_Travis_Kelce_For_The_First_Time.mp4</name>
						<enabled>TRUE</enabled>
						<duration>150</duration>
						<rate>
							<timebase>25</timebase>
							<ntsc>FALSE</ntsc>
						</rate>
						<start>63150</start>
						<end>63300</end>
						<in>7350</in>
						<out>7500</out>
						<pproTicksIn>0</pproTicksIn>
						<pproTicksOut>236438092800000</pproTicksOut>
						<alphatype>none</alphatype>
						<pixelaspectratio>square</pixelaspectratio>
						<anamorphic>FALSE</anamorphic>
						<file id="file-30">
							<name>Taylor_Swift_Shares_The_Story_Of_Calling_Travis_Kelce_For_The_First_Time.mp4</name>
							<pathurl>file://localhost/Users/themalikano/Documents/VideoAutomation/premiere_videos/Taylor_Swift_Shares_The_Story_Of_Calling_Travis_Kelce_For_The_First_Time.mp4</pathurl>
							<rate>
								<timebase>30</timebase>
								<ntsc>TRUE</ntsc>
							</rate>
							<duration>27897</duration>
							<timecode>
								<rate>
									<timebase>30</timebase>
									<ntsc>TRUE</ntsc>
								</rate>
								<string>00:00:00:00</string>
								<frame>0</frame>
								<displayformat>NDF</displayformat>
							</timecode>
							<media>
								<video>
									<samplecharacteristics>
										<rate>
											<timebase>30</timebase>
											<ntsc>TRUE</ntsc>
										</rate>
										<width>1920</width>
										<height>1080</height>
										<anamorphic>FALSE</anamorphic>
										<pixelaspectratio>square</pixelaspectratio>
										<fielddominance>none</fielddominance>
									</samplecharacteristics>
								</video>
								<audio>
									<samplecharacteristics>
										<depth>16</depth>
										<samplerate>44100</samplerate>
									</samplecharacteristics>
									<channelcount>2</channelcount>
								</audio>
							</media>
						</file>
						<link>
							<linkclipref>clipitem-86</linkclipref>
							<mediatype>video</mediatype>
							<trackindex>1</trackindex>
							<clipindex>2</clipindex>
						</link>
						<link>
							<linkclipref>clipitem-94</linkclipref>
							<mediatype>audio</mediatype>
							<trackindex>1</trackindex>
							<clipindex>2</clipindex>
							<groupindex>1</groupindex>
						</link>
						<link>
							<linkclipref>clipitem-102</linkclipref>
							<mediatype>audio</mediatype>
							<trackindex>2</trackindex>
							<clipindex>2</clipindex>
							<groupindex>1</groupindex>
						</link>
						<logginginfo>
							<description />
							<scene />
							<shottake />
							<lognote />
							<good />
							<originalvideofilename />
							<originalaudiofilename />
						</logginginfo>
						<colorinfo>
							<lut />
							<lut1 />
							<asc_sop />
							<asc_sat />
							<lut2 />
						</colorinfo>
					<labels><label2>Iris</label2></labels></clipitem>
					<clipitem id="clipitem-88">
						<masterclipid>clipitem-4-264</masterclipid>
						<name>Travis_Kelce_ANNOUNCE_WEDDING_DATE_with_Taylor_Swift_Why_He_was_Delaying_all_Along.mp4</name>
						<enabled>TRUE</enabled>
						<duration>150</duration>
						<rate>
							<timebase>25</timebase>
							<ntsc>FALSE</ntsc>
						</rate>
						<start>63300</start>
						<end>63450</end>
						<in>39450</in>
						<out>39600</out>
						<pproTicksIn>0</pproTicksIn>
						<pproTicksOut>419410897920000</pproTicksOut>
						<alphatype>none</alphatype>
						<pixelaspectratio>square</pixelaspectratio>
						<anamorphic>FALSE</anamorphic>
						<file id="file-32">
							<name>Travis_Kelce_ANNOUNCE_WEDDING_DATE_with_Taylor_Swift_Why_He_was_Delaying_all_Along.mp4</name>
							<pathurl>file://localhost/Users/themalikano/Documents/VideoAutomation/premiere_videos/Travis_Kelce_ANNOUNCE_WEDDING_DATE_with_Taylor_Swift_Why_He_was_Delaying_all_Along.mp4</pathurl>
							<rate>
								<timebase>24</timebase>
								<ntsc>FALSE</ntsc>
							</rate>
							<duration>39627</duration>
							<timecode>
								<rate>
									<timebase>24</timebase>
									<ntsc>FALSE</ntsc>
								</rate>
								<string>00:00:00:00</string>
								<frame>0</frame>
								<displayformat>NDF</displayformat>
							</timecode>
							<media>
								<video>
									<samplecharacteristics>
										<rate>
											<timebase>24</timebase>
											<ntsc>FALSE</ntsc>
										</rate>
										<width>852</width>
										<height>480</height>
										<anamorphic>FALSE</anamorphic>
										<pixelaspectratio>square</pixelaspectratio>
										<fielddominance>none</fielddominance>
									</samplecharacteristics>
								</video>
								<audio>
									<samplecharacteristics>
										<depth>16</depth>
										<samplerate>44100</samplerate>
									</samplecharacteristics>
									<channelcount>2</channelcount>
								</audio>
							</media>
						</file>
						<filter>
							<effect>
								<name>Basic Motion</name>
								<effectid>basic</effectid>
								<effectcategory>motion</effectcategory>
								<effecttype>motion</effecttype>
								<mediatype>video</mediatype>
								<pproBypass>false</pproBypass>
								<parameter authoringApp="PremierePro">
									<parameterid>scale</parameterid>
									<name>Scale</name>
									<valuemin>0</valuemin>
									<valuemax>1000</valuemax>
									<value>225</value>
								</parameter>
								<parameter authoringApp="PremierePro">
									<parameterid>rotation</parameterid>
									<name>Rotation</name>
									<valuemin>-8640</valuemin>
									<valuemax>8640</valuemax>
									<value>0</value>
								</parameter>
								<parameter authoringApp="PremierePro">
									<parameterid>center</parameterid>
									<name>Center</name>
									<value>
										<horiz>0</horiz>
										<vert>0</vert>
									</value>
								</parameter>
								<parameter authoringApp="PremierePro">
									<parameterid>centerOffset</parameterid>
									<name>Anchor Point</name>
									<value>
										<horiz>0</horiz>
										<vert>0</vert>
									</value>
								</parameter>
								<parameter authoringApp="PremierePro">
									<parameterid>antiflicker</parameterid>
									<name>Anti-flicker Filter</name>
									<valuemin>0.0</valuemin>
									<valuemax>1.0</valuemax>
									<value>0</value>
								</parameter>
							</effect>
						</filter>
						<link>
							<linkclipref>clipitem-88</linkclipref>
							<mediatype>video</mediatype>
							<trackindex>1</trackindex>
							<clipindex>4</clipindex>
						</link>
						<link>
							<linkclipref>clipitem-96</linkclipref>
							<mediatype>audio</mediatype>
							<trackindex>1</trackindex>
							<clipindex>4</clipindex>
							<groupindex>1</groupindex>
						</link>
						<link>
							<linkclipref>clipitem-104</linkclipref>
							<mediatype>audio</mediatype>
							<trackindex>2</trackindex>
							<clipindex>4</clipindex>
							<groupindex>1</groupindex>
						</link>
						<logginginfo>
							<description />
							<scene />
							<shottake />
							<lognote />
							<good />
							<originalvideofilename />
							<originalaudiofilename />
						</logginginfo>
						<colorinfo>
							<lut />
							<lut1 />
							<asc_sop />
							<asc_sat />
							<lut2 />
						</colorinfo>
					<labels><label2>Lavender</label2></labels></clipitem>
					<clipitem id="clipitem-90">
						<masterclipid>clipitem-6-1</masterclipid>
						<name>Travis_Kelce_talks_about_postponing_his_wedding_to_Fiance_Taylor_Swift_on_the_New_Heights_Podcast.mp4</name>
						<enabled>TRUE</enabled>
						<duration>150</duration>
						<rate>
							<timebase>25</timebase>
							<ntsc>FALSE</ntsc>
						</rate>
						<start>63450</start>
						<end>63600</end>
						<in>0</in>
						<out>150</out>
						<pproTicksIn>0</pproTicksIn>
						<pproTicksOut>149391889920000</pproTicksOut>
						<alphatype>none</alphatype>
						<pixelaspectratio>square</pixelaspectratio>
						<anamorphic>FALSE</anamorphic>
						<file id="file-34">
							<name>Travis_Kelce_talks_about_postponing_his_wedding_to_Fiance_Taylor_Swift_on_the_New_Heights_Podcast.mp4</name>
							<pathurl>file://localhost/Users/themalikano/Documents/VideoAutomation/premiere_videos/Travis_Kelce_talks_about_postponing_his_wedding_to_Fiance_Taylor_Swift_on_the_New_Heights_Podcast.mp4</pathurl>
							<rate>
								<timebase>30</timebase>
								<ntsc>FALSE</ntsc>
							</rate>
							<duration>17644</duration>
							<timecode>
								<rate>
									<timebase>30</timebase>
									<ntsc>FALSE</ntsc>
								</rate>
								<string>00:00:00:00</string>
								<frame>0</frame>
								<displayformat>NDF</displayformat>
							</timecode>
							<media>
								<video>
									<samplecharacteristics>
										<rate>
											<timebase>30</timebase>
											<ntsc>FALSE</ntsc>
										</rate>
										<width>1920</width>
										<height>1080</height>
										<anamorphic>FALSE</anamorphic>
										<pixelaspectratio>square</pixelaspectratio>
										<fielddominance>none</fielddominance>
									</samplecharacteristics>
								</video>
								<audio>
									<samplecharacteristics>
										<depth>16</depth>
										<samplerate>44100</samplerate>
									</samplecharacteristics>
									<channelcount>2</channelcount>
								</audio>
							</media>
						</file>
						<link>
							<linkclipref>clipitem-90</linkclipref>
							<mediatype>video</mediatype>
							<trackindex>1</trackindex>
							<clipindex>6</clipindex>
						</link>
						<link>
							<linkclipref>clipitem-98</linkclipref>
							<mediatype>audio</mediatype>
							<trackindex>1</trackindex>
							<clipindex>6</clipindex>
							<groupindex>1</groupindex>
						</link>
						<link>
							<linkclipref>clipitem-106</linkclipref>
							<mediatype>audio</mediatype>
							<trackindex>2</trackindex>
							<clipindex>6</clipindex>
							<groupindex>1</groupindex>
						</link>
						<logginginfo>
							<description />
							<scene />
							<shottake />
							<lognote />
							<good />
							<originalvideofilename />
							<originalaudiofilename />
						</logginginfo>
						<colorinfo>
							<lut />
							<lut1 />
							<asc_sop />
							<asc_sat />
							<lut2 />
						</colorinfo>
					<labels><label2>Forest</label2></labels></clipitem>
					<clipitem id="clipitem-87">
						<masterclipid>clipitem-3-92</masterclipid>
						<name>Taylor_Swift_Travis_Kelce_-_The_New_Power_Couple.mp4</name>
						<enabled>TRUE</enabled>
						<duration>150</duration>
						<rate>
							<timebase>25</timebase>
							<ntsc>FALSE</ntsc>
						</rate>
						<start>63600</start>
						<end>63750</end>
						<in>13650</in>
						<out>13800</out>
						<pproTicksIn>0</pproTicksIn>
						<pproTicksOut>875013995520000</pproTicksOut>
						<alphatype>none</alphatype>
						<pixelaspectratio>square</pixelaspectratio>
						<anamorphic>FALSE</anamorphic>
						<file id="file-31">
							<name>Taylor_Swift_Travis_Kelce_-_The_New_Power_Couple.mp4</name>
							<pathurl>file://localhost/Users/themalikano/Documents/VideoAutomation/premiere_videos/Taylor_Swift_Travis_Kelce_-_The_New_Power_Couple.mp4</pathurl>
							<rate>
								<timebase>25</timebase>
								<ntsc>FALSE</ntsc>
							</rate>
							<duration>86118</duration>
							<timecode>
								<rate>
									<timebase>25</timebase>
									<ntsc>FALSE</ntsc>
								</rate>
								<string>00:00:00:00</string>
								<frame>0</frame>
								<displayformat>NDF</displayformat>
							</timecode>
							<media>
								<video>
									<samplecharacteristics>
										<rate>
											<timebase>25</timebase>
											<ntsc>FALSE</ntsc>
										</rate>
										<width>1920</width>
										<height>1080</height>
										<anamorphic>FALSE</anamorphic>
										<pixelaspectratio>square</pixelaspectratio>
										<fielddominance>none</fielddominance>
									</samplecharacteristics>
								</video>
								<audio>
									<samplecharacteristics>
										<depth>16</depth>
										<samplerate>44100</samplerate>
									</samplecharacteristics>
									<channelcount>2</channelcount>
								</audio>
							</media>
						</file>
						<link>
							<linkclipref>clipitem-87</linkclipref>
							<mediatype>video</mediatype>
							<trackindex>1</trackindex>
							<clipindex>3</clipindex>
						</link>
						<link>
							<linkclipref>clipitem-95</linkclipref>
							<mediatype>audio</mediatype>
							<trackindex>1</trackindex>
							<clipindex>3</clipindex>
							<groupindex>1</groupindex>
						</link>
						<link>
							<linkclipref>clipitem-103</linkclipref>
							<mediatype>audio</mediatype>
							<trackindex>2</trackindex>
							<clipindex>3</clipindex>
							<groupindex>1</groupindex>
						</link>
						<logginginfo>
							<description />
							<scene />
							<shottake />
							<lognote />
							<good />
							<originalvideofilename />
							<originalaudiofilename />
						</logginginfo>
						<colorinfo>
							<lut />
							<lut1 />
							<asc_sop />
							<asc_sat />
							<lut2 />
						</colorinfo>
					<labels><label2>Caribbean</label2></labels></clipitem>
					<clipitem id="clipitem-86">
						<masterclipid>clipitem-2-127</masterclipid>
						<name>Taylor_Swift_Shares_The_Story_Of_Calling_Travis_Kelce_For_The_First_Time.mp4</name>
						<enabled>TRUE</enabled>
						<duration>150</duration>
						<rate>
							<timebase>25</timebase>
							<ntsc>FALSE</ntsc>
						</rate>
						<start>63750</start>
						<end>63900</end>
						<in>18900</in>
						<out>19050</out>
						<pproTicksIn>0</pproTicksIn>
						<pproTicksOut>236438092800000</pproTicksOut>
						<alphatype>none</alphatype>
						<pixelaspectratio>square</pixelaspectratio>
						<anamorphic>FALSE</anamorphic>
						<file id="file-30">
							<name>Taylor_Swift_Shares_The_Story_Of_Calling_Travis_Kelce_For_The_First_Time.mp4</name>
							<pathurl>file://localhost/Users/themalikano/Documents/VideoAutomation/premiere_videos/Taylor_Swift_Shares_The_Story_Of_Calling_Travis_Kelce_For_The_First_Time.mp4</pathurl>
							<rate>
								<timebase>30</timebase>
								<ntsc>TRUE</ntsc>
							</rate>
							<duration>27897</duration>
							<timecode>
								<rate>
									<timebase>30</timebase>
									<ntsc>TRUE</ntsc>
								</rate>
								<string>00:00:00:00</string>
								<frame>0</frame>
								<displayformat>NDF</displayformat>
							</timecode>
							<media>
								<video>
									<samplecharacteristics>
										<rate>
											<timebase>30</timebase>
											<ntsc>TRUE</ntsc>
										</rate>
										<width>1920</width>
										<height>1080</height>
										<anamorphic>FALSE</anamorphic>
										<pixelaspectratio>square</pixelaspectratio>
										<fielddominance>none</fielddominance>
									</samplecharacteristics>
								</video>
								<audio>
									<samplecharacteristics>
										<depth>16</depth>
										<samplerate>44100</samplerate>
									</samplecharacteristics>
									<channelcount>2</channelcount>
								</audio>
							</media>
						</file>
						<link>
							<linkclipref>clipitem-86</linkclipref>
							<mediatype>video</mediatype>
							<trackindex>1</trackindex>
							<clipindex>2</clipindex>
						</link>
						<link>
							<linkclipref>clipitem-94</linkclipref>
							<mediatype>audio</mediatype>
							<trackindex>1</trackindex>
							<clipindex>2</clipindex>
							<groupindex>1</groupindex>
						</link>
						<link>
							<linkclipref>clipitem-102</linkclipref>
							<mediatype>audio</mediatype>
							<trackindex>2</trackindex>
							<clipindex>2</clipindex>
							<groupindex>1</groupindex>
						</link>
						<logginginfo>
							<description />
							<scene />
							<shottake />
							<lognote />
							<good />
							<originalvideofilename />
							<originalaudiofilename />
						</logginginfo>
						<colorinfo>
							<lut />
							<lut1 />
							<asc_sop />
							<asc_sat />
							<lut2 />
						</colorinfo>
					<labels><label2>Iris</label2></labels></clipitem>
					<clipitem id="clipitem-90">
						<masterclipid>clipitem-6-84</masterclipid>
						<name>Travis_Kelce_talks_about_postponing_his_wedding_to_Fiance_Taylor_Swift_on_the_New_Heights_Podcast.mp4</name>
						<enabled>TRUE</enabled>
						<duration>150</duration>
						<rate>
							<timebase>25</timebase>
							<ntsc>FALSE</ntsc>
						</rate>
						<start>63900</start>
						<end>64050</end>
						<in>12450</in>
						<out>12600</out>
						<pproTicksIn>0</pproTicksIn>
						<pproTicksOut>149391889920000</pproTicksOut>
						<alphatype>none</alphatype>
						<pixelaspectratio>square</pixelaspectratio>
						<anamorphic>FALSE</anamorphic>
						<file id="file-34">
							<name>Travis_Kelce_talks_about_postponing_his_wedding_to_Fiance_Taylor_Swift_on_the_New_Heights_Podcast.mp4</name>
							<pathurl>file://localhost/Users/themalikano/Documents/VideoAutomation/premiere_videos/Travis_Kelce_talks_about_postponing_his_wedding_to_Fiance_Taylor_Swift_on_the_New_Heights_Podcast.mp4</pathurl>
							<rate>
								<timebase>30</timebase>
								<ntsc>FALSE</ntsc>
							</rate>
							<duration>17644</duration>
							<timecode>
								<rate>
									<timebase>30</timebase>
									<ntsc>FALSE</ntsc>
								</rate>
								<string>00:00:00:00</string>
								<frame>0</frame>
								<displayformat>NDF</displayformat>
							</timecode>
							<media>
								<video>
									<samplecharacteristics>
										<rate>
											<timebase>30</timebase>
											<ntsc>FALSE</ntsc>
										</rate>
										<width>1920</width>
										<height>1080</height>
										<anamorphic>FALSE</anamorphic>
										<pixelaspectratio>square</pixelaspectratio>
										<fielddominance>none</fielddominance>
									</samplecharacteristics>
								</video>
								<audio>
									<samplecharacteristics>
										<depth>16</depth>
										<samplerate>44100</samplerate>
									</samplecharacteristics>
									<channelcount>2</channelcount>
								</audio>
							</media>
						</file>
						<link>
							<linkclipref>clipitem-90</linkclipref>
							<mediatype>video</mediatype>
							<trackindex>1</trackindex>
							<clipindex>6</clipindex>
						</link>
						<link>
							<linkclipref>clipitem-98</linkclipref>
							<mediatype>audio</mediatype>
							<trackindex>1</trackindex>
							<clipindex>6</clipindex>
							<groupindex>1</groupindex>
						</link>
						<link>
							<linkclipref>clipitem-106</linkclipref>
							<mediatype>audio</mediatype>
							<trackindex>2</trackindex>
							<clipindex>6</clipindex>
							<groupindex>1</groupindex>
						</link>
						<logginginfo>
							<description />
							<scene />
							<shottake />
							<lognote />
							<good />
							<originalvideofilename />
							<originalaudiofilename />
						</logginginfo>
						<colorinfo>
							<lut />
							<lut1 />
							<asc_sop />
							<asc_sat />
							<lut2 />
						</colorinfo>
					<labels><label2>Forest</label2></labels></clipitem>
					<clipitem id="clipitem-86">
						<masterclipid>clipitem-2-153</masterclipid>
						<name>Taylor_Swift_Shares_The_Story_Of_Calling_Travis_Kelce_For_The_First_Time.mp4</name>
						<enabled>TRUE</enabled>
						<duration>150</duration>
						<rate>
							<timebase>25</timebase>
							<ntsc>FALSE</ntsc>
						</rate>
						<start>64050</start>
						<end>64200</end>
						<in>22800</in>
						<out>22950</out>
						<pproTicksIn>0</pproTicksIn>
						<pproTicksOut>236438092800000</pproTicksOut>
						<alphatype>none</alphatype>
						<pixelaspectratio>square</pixelaspectratio>
						<anamorphic>FALSE</anamorphic>
						<file id="file-30">
							<name>Taylor_Swift_Shares_The_Story_Of_Calling_Travis_Kelce_For_The_First_Time.mp4</name>
							<pathurl>file://localhost/Users/themalikano/Documents/VideoAutomation/premiere_videos/Taylor_Swift_Shares_The_Story_Of_Calling_Travis_Kelce_For_The_First_Time.mp4</pathurl>
							<rate>
								<timebase>30</timebase>
								<ntsc>TRUE</ntsc>
							</rate>
							<duration>27897</duration>
							<timecode>
								<rate>
									<timebase>30</timebase>
									<ntsc>TRUE</ntsc>
								</rate>
								<string>00:00:00:00</string>
								<frame>0</frame>
								<displayformat>NDF</displayformat>
							</timecode>
							<media>
								<video>
									<samplecharacteristics>
										<rate>
											<timebase>30</timebase>
											<ntsc>TRUE</ntsc>
										</rate>
										<width>1920</width>
										<height>1080</height>
										<anamorphic>FALSE</anamorphic>
										<pixelaspectratio>square</pixelaspectratio>
										<fielddominance>none</fielddominance>
									</samplecharacteristics>
								</video>
								<audio>
									<samplecharacteristics>
										<depth>16</depth>
										<samplerate>44100</samplerate>
									</samplecharacteristics>
									<channelcount>2</channelcount>
								</audio>
							</media>
						</file>
						<link>
							<linkclipref>clipitem-86</linkclipref>
							<mediatype>video</mediatype>
							<trackindex>1</trackindex>
							<clipindex>2</clipindex>
						</link>
						<link>
							<linkclipref>clipitem-94</linkclipref>
							<mediatype>audio</mediatype>
							<trackindex>1</trackindex>
							<clipindex>2</clipindex>
							<groupindex>1</groupindex>
						</link>
						<link>
							<linkclipref>clipitem-102</linkclipref>
							<mediatype>audio</mediatype>
							<trackindex>2</trackindex>
							<clipindex>2</clipindex>
							<groupindex>1</groupindex>
						</link>
						<logginginfo>
							<description />
							<scene />
							<shottake />
							<lognote />
							<good />
							<originalvideofilename />
							<originalaudiofilename />
						</logginginfo>
						<colorinfo>
							<lut />
							<lut1 />
							<asc_sop />
							<asc_sat />
							<lut2 />
						</colorinfo>
					<labels><label2>Iris</label2></labels></clipitem>
					<clipitem id="clipitem-87">
						<masterclipid>clipitem-3-10</masterclipid>
						<name>Taylor_Swift_Travis_Kelce_-_The_New_Power_Couple.mp4</name>
						<enabled>TRUE</enabled>
						<duration>150</duration>
						<rate>
							<timebase>25</timebase>
							<ntsc>FALSE</ntsc>
						</rate>
						<start>64200</start>
						<end>64350</end>
						<in>1350</in>
						<out>1500</out>
						<pproTicksIn>0</pproTicksIn>
						<pproTicksOut>875013995520000</pproTicksOut>
						<alphatype>none</alphatype>
						<pixelaspectratio>square</pixelaspectratio>
						<anamorphic>FALSE</anamorphic>
						<file id="file-31">
							<name>Taylor_Swift_Travis_Kelce_-_The_New_Power_Couple.mp4</name>
							<pathurl>file://localhost/Users/themalikano/Documents/VideoAutomation/premiere_videos/Taylor_Swift_Travis_Kelce_-_The_New_Power_Couple.mp4</pathurl>
							<rate>
								<timebase>25</timebase>
								<ntsc>FALSE</ntsc>
							</rate>
							<duration>86118</duration>
							<timecode>
								<rate>
									<timebase>25</timebase>
									<ntsc>FALSE</ntsc>
								</rate>
								<string>00:00:00:00</string>
								<frame>0</frame>
								<displayformat>NDF</displayformat>
							</timecode>
							<media>
								<video>
									<samplecharacteristics>
										<rate>
											<timebase>25</timebase>
											<ntsc>FALSE</ntsc>
										</rate>
										<width>1920</width>
										<height>1080</height>
										<anamorphic>FALSE</anamorphic>
										<pixelaspectratio>square</pixelaspectratio>
										<fielddominance>none</fielddominance>
									</samplecharacteristics>
								</video>
								<audio>
									<samplecharacteristics>
										<depth>16</depth>
										<samplerate>44100</samplerate>
									</samplecharacteristics>
									<channelcount>2</channelcount>
								</audio>
							</media>
						</file>
						<link>
							<linkclipref>clipitem-87</linkclipref>
							<mediatype>video</mediatype>
							<trackindex>1</trackindex>
							<clipindex>3</clipindex>
						</link>
						<link>
							<linkclipref>clipitem-95</linkclipref>
							<mediatype>audio</mediatype>
							<trackindex>1</trackindex>
							<clipindex>3</clipindex>
							<groupindex>1</groupindex>
						</link>
						<link>
							<linkclipref>clipitem-103</linkclipref>
							<mediatype>audio</mediatype>
							<trackindex>2</trackindex>
							<clipindex>3</clipindex>
							<groupindex>1</groupindex>
						</link>
						<logginginfo>
							<description />
							<scene />
							<shottake />
							<lognote />
							<good />
							<originalvideofilename />
							<originalaudiofilename />
						</logginginfo>
						<colorinfo>
							<lut />
							<lut1 />
							<asc_sop />
							<asc_sat />
							<lut2 />
						</colorinfo>
					<labels><label2>Caribbean</label2></labels></clipitem>
					<clipitem id="clipitem-90">
						<masterclipid>clipitem-6-6</masterclipid>
						<name>Travis_Kelce_talks_about_postponing_his_wedding_to_Fiance_Taylor_Swift_on_the_New_Heights_Podcast.mp4</name>
						<enabled>TRUE</enabled>
						<duration>150</duration>
						<rate>
							<timebase>25</timebase>
							<ntsc>FALSE</ntsc>
						</rate>
						<start>64350</start>
						<end>64500</end>
						<in>750</in>
						<out>900</out>
						<pproTicksIn>0</pproTicksIn>
						<pproTicksOut>149391889920000</pproTicksOut>
						<alphatype>none</alphatype>
						<pixelaspectratio>square</pixelaspectratio>
						<anamorphic>FALSE</anamorphic>
						<file id="file-34">
							<name>Travis_Kelce_talks_about_postponing_his_wedding_to_Fiance_Taylor_Swift_on_the_New_Heights_Podcast.mp4</name>
							<pathurl>file://localhost/Users/themalikano/Documents/VideoAutomation/premiere_videos/Travis_Kelce_talks_about_postponing_his_wedding_to_Fiance_Taylor_Swift_on_the_New_Heights_Podcast.mp4</pathurl>
							<rate>
								<timebase>30</timebase>
								<ntsc>FALSE</ntsc>
							</rate>
							<duration>17644</duration>
							<timecode>
								<rate>
									<timebase>30</timebase>
									<ntsc>FALSE</ntsc>
								</rate>
								<string>00:00:00:00</string>
								<frame>0</frame>
								<displayformat>NDF</displayformat>
							</timecode>
							<media>
								<video>
									<samplecharacteristics>
										<rate>
											<timebase>30</timebase>
											<ntsc>FALSE</ntsc>
										</rate>
										<width>1920</width>
										<height>1080</height>
										<anamorphic>FALSE</anamorphic>
										<pixelaspectratio>square</pixelaspectratio>
										<fielddominance>none</fielddominance>
									</samplecharacteristics>
								</video>
								<audio>
									<samplecharacteristics>
										<depth>16</depth>
										<samplerate>44100</samplerate>
									</samplecharacteristics>
									<channelcount>2</channelcount>
								</audio>
							</media>
						</file>
						<link>
							<linkclipref>clipitem-90</linkclipref>
							<mediatype>video</mediatype>
							<trackindex>1</trackindex>
							<clipindex>6</clipindex>
						</link>
						<link>
							<linkclipref>clipitem-98</linkclipref>
							<mediatype>audio</mediatype>
							<trackindex>1</trackindex>
							<clipindex>6</clipindex>
							<groupindex>1</groupindex>
						</link>
						<link>
							<linkclipref>clipitem-106</linkclipref>
							<mediatype>audio</mediatype>
							<trackindex>2</trackindex>
							<clipindex>6</clipindex>
							<groupindex>1</groupindex>
						</link>
						<logginginfo>
							<description />
							<scene />
							<shottake />
							<lognote />
							<good />
							<originalvideofilename />
							<originalaudiofilename />
						</logginginfo>
						<colorinfo>
							<lut />
							<lut1 />
							<asc_sop />
							<asc_sat />
							<lut2 />
						</colorinfo>
					<labels><label2>Forest</label2></labels></clipitem>
					<clipitem id="clipitem-88">
						<masterclipid>clipitem-4-186</masterclipid>
						<name>Travis_Kelce_ANNOUNCE_WEDDING_DATE_with_Taylor_Swift_Why_He_was_Delaying_all_Along.mp4</name>
						<enabled>TRUE</enabled>
						<duration>150</duration>
						<rate>
							<timebase>25</timebase>
							<ntsc>FALSE</ntsc>
						</rate>
						<start>64500</start>
						<end>64650</end>
						<in>27750</in>
						<out>27900</out>
						<pproTicksIn>0</pproTicksIn>
						<pproTicksOut>419410897920000</pproTicksOut>
						<alphatype>none</alphatype>
						<pixelaspectratio>square</pixelaspectratio>
						<anamorphic>FALSE</anamorphic>
						<file id="file-32">
							<name>Travis_Kelce_ANNOUNCE_WEDDING_DATE_with_Taylor_Swift_Why_He_was_Delaying_all_Along.mp4</name>
							<pathurl>file://localhost/Users/themalikano/Documents/VideoAutomation/premiere_videos/Travis_Kelce_ANNOUNCE_WEDDING_DATE_with_Taylor_Swift_Why_He_was_Delaying_all_Along.mp4</pathurl>
							<rate>
								<timebase>24</timebase>
								<ntsc>FALSE</ntsc>
							</rate>
							<duration>39627</duration>
							<timecode>
								<rate>
									<timebase>24</timebase>
									<ntsc>FALSE</ntsc>
								</rate>
								<string>00:00:00:00</string>
								<frame>0</frame>
								<displayformat>NDF</displayformat>
							</timecode>
							<media>
								<video>
									<samplecharacteristics>
										<rate>
											<timebase>24</timebase>
											<ntsc>FALSE</ntsc>
										</rate>
										<width>852</width>
										<height>480</height>
										<anamorphic>FALSE</anamorphic>
										<pixelaspectratio>square</pixelaspectratio>
										<fielddominance>none</fielddominance>
									</samplecharacteristics>
								</video>
								<audio>
									<samplecharacteristics>
										<depth>16</depth>
										<samplerate>44100</samplerate>
									</samplecharacteristics>
									<channelcount>2</channelcount>
								</audio>
							</media>
						</file>
						<filter>
							<effect>
								<name>Basic Motion</name>
								<effectid>basic</effectid>
								<effectcategory>motion</effectcategory>
								<effecttype>motion</effecttype>
								<mediatype>video</mediatype>
								<pproBypass>false</pproBypass>
								<parameter authoringApp="PremierePro">
									<parameterid>scale</parameterid>
									<name>Scale</name>
									<valuemin>0</valuemin>
									<valuemax>1000</valuemax>
									<value>225</value>
								</parameter>
								<parameter authoringApp="PremierePro">
									<parameterid>rotation</parameterid>
									<name>Rotation</name>
									<valuemin>-8640</valuemin>
									<valuemax>8640</valuemax>
									<value>0</value>
								</parameter>
								<parameter authoringApp="PremierePro">
									<parameterid>center</parameterid>
									<name>Center</name>
									<value>
										<horiz>0</horiz>
										<vert>0</vert>
									</value>
								</parameter>
								<parameter authoringApp="PremierePro">
									<parameterid>centerOffset</parameterid>
									<name>Anchor Point</name>
									<value>
										<horiz>0</horiz>
										<vert>0</vert>
									</value>
								</parameter>
								<parameter authoringApp="PremierePro">
									<parameterid>antiflicker</parameterid>
									<name>Anti-flicker Filter</name>
									<valuemin>0.0</valuemin>
									<valuemax>1.0</valuemax>
									<value>0</value>
								</parameter>
							</effect>
						</filter>
						<link>
							<linkclipref>clipitem-88</linkclipref>
							<mediatype>video</mediatype>
							<trackindex>1</trackindex>
							<clipindex>4</clipindex>
						</link>
						<link>
							<linkclipref>clipitem-96</linkclipref>
							<mediatype>audio</mediatype>
							<trackindex>1</trackindex>
							<clipindex>4</clipindex>
							<groupindex>1</groupindex>
						</link>
						<link>
							<linkclipref>clipitem-104</linkclipref>
							<mediatype>audio</mediatype>
							<trackindex>2</trackindex>
							<clipindex>4</clipindex>
							<groupindex>1</groupindex>
						</link>
						<logginginfo>
							<description />
							<scene />
							<shottake />
							<lognote />
							<good />
							<originalvideofilename />
							<originalaudiofilename />
						</logginginfo>
						<colorinfo>
							<lut />
							<lut1 />
							<asc_sop />
							<asc_sat />
							<lut2 />
						</colorinfo>
					<labels><label2>Lavender</label2></labels></clipitem>
					<clipitem id="clipitem-86">
						<masterclipid>clipitem-2-8</masterclipid>
						<name>Taylor_Swift_Shares_The_Story_Of_Calling_Travis_Kelce_For_The_First_Time.mp4</name>
						<enabled>TRUE</enabled>
						<duration>150</duration>
						<rate>
							<timebase>25</timebase>
							<ntsc>FALSE</ntsc>
						</rate>
						<start>64650</start>
						<end>64800</end>
						<in>1050</in>
						<out>1200</out>
						<pproTicksIn>0</pproTicksIn>
						<pproTicksOut>236438092800000</pproTicksOut>
						<alphatype>none</alphatype>
						<pixelaspectratio>square</pixelaspectratio>
						<anamorphic>FALSE</anamorphic>
						<file id="file-30">
							<name>Taylor_Swift_Shares_The_Story_Of_Calling_Travis_Kelce_For_The_First_Time.mp4</name>
							<pathurl>file://localhost/Users/themalikano/Documents/VideoAutomation/premiere_videos/Taylor_Swift_Shares_The_Story_Of_Calling_Travis_Kelce_For_The_First_Time.mp4</pathurl>
							<rate>
								<timebase>30</timebase>
								<ntsc>TRUE</ntsc>
							</rate>
							<duration>27897</duration>
							<timecode>
								<rate>
									<timebase>30</timebase>
									<ntsc>TRUE</ntsc>
								</rate>
								<string>00:00:00:00</string>
								<frame>0</frame>
								<displayformat>NDF</displayformat>
							</timecode>
							<media>
								<video>
									<samplecharacteristics>
										<rate>
											<timebase>30</timebase>
											<ntsc>TRUE</ntsc>
										</rate>
										<width>1920</width>
										<height>1080</height>
										<anamorphic>FALSE</anamorphic>
										<pixelaspectratio>square</pixelaspectratio>
										<fielddominance>none</fielddominance>
									</samplecharacteristics>
								</video>
								<audio>
									<samplecharacteristics>
										<depth>16</depth>
										<samplerate>44100</samplerate>
									</samplecharacteristics>
									<channelcount>2</channelcount>
								</audio>
							</media>
						</file>
						<link>
							<linkclipref>clipitem-86</linkclipref>
							<mediatype>video</mediatype>
							<trackindex>1</trackindex>
							<clipindex>2</clipindex>
						</link>
						<link>
							<linkclipref>clipitem-94</linkclipref>
							<mediatype>audio</mediatype>
							<trackindex>1</trackindex>
							<clipindex>2</clipindex>
							<groupindex>1</groupindex>
						</link>
						<link>
							<linkclipref>clipitem-102</linkclipref>
							<mediatype>audio</mediatype>
							<trackindex>2</trackindex>
							<clipindex>2</clipindex>
							<groupindex>1</groupindex>
						</link>
						<logginginfo>
							<description />
							<scene />
							<shottake />
							<lognote />
							<good />
							<originalvideofilename />
							<originalaudiofilename />
						</logginginfo>
						<colorinfo>
							<lut />
							<lut1 />
							<asc_sop />
							<asc_sat />
							<lut2 />
						</colorinfo>
					<labels><label2>Iris</label2></labels></clipitem>
					<clipitem id="clipitem-87">
						<masterclipid>clipitem-3-252</masterclipid>
						<name>Taylor_Swift_Travis_Kelce_-_The_New_Power_Couple.mp4</name>
						<enabled>TRUE</enabled>
						<duration>150</duration>
						<rate>
							<timebase>25</timebase>
							<ntsc>FALSE</ntsc>
						</rate>
						<start>64800</start>
						<end>64950</end>
						<in>37650</in>
						<out>37800</out>
						<pproTicksIn>0</pproTicksIn>
						<pproTicksOut>875013995520000</pproTicksOut>
						<alphatype>none</alphatype>
						<pixelaspectratio>square</pixelaspectratio>
						<anamorphic>FALSE</anamorphic>
						<file id="file-31">
							<name>Taylor_Swift_Travis_Kelce_-_The_New_Power_Couple.mp4</name>
							<pathurl>file://localhost/Users/themalikano/Documents/VideoAutomation/premiere_videos/Taylor_Swift_Travis_Kelce_-_The_New_Power_Couple.mp4</pathurl>
							<rate>
								<timebase>25</timebase>
								<ntsc>FALSE</ntsc>
							</rate>
							<duration>86118</duration>
							<timecode>
								<rate>
									<timebase>25</timebase>
									<ntsc>FALSE</ntsc>
								</rate>
								<string>00:00:00:00</string>
								<frame>0</frame>
								<displayformat>NDF</displayformat>
							</timecode>
							<media>
								<video>
									<samplecharacteristics>
										<rate>
											<timebase>25</timebase>
											<ntsc>FALSE</ntsc>
										</rate>
										<width>1920</width>
										<height>1080</height>
										<anamorphic>FALSE</anamorphic>
										<pixelaspectratio>square</pixelaspectratio>
										<fielddominance>none</fielddominance>
									</samplecharacteristics>
								</video>
								<audio>
									<samplecharacteristics>
										<depth>16</depth>
										<samplerate>44100</samplerate>
									</samplecharacteristics>
									<channelcount>2</channelcount>
								</audio>
							</media>
						</file>
						<link>
							<linkclipref>clipitem-87</linkclipref>
							<mediatype>video</mediatype>
							<trackindex>1</trackindex>
							<clipindex>3</clipindex>
						</link>
						<link>
							<linkclipref>clipitem-95</linkclipref>
							<mediatype>audio</mediatype>
							<trackindex>1</trackindex>
							<clipindex>3</clipindex>
							<groupindex>1</groupindex>
						</link>
						<link>
							<linkclipref>clipitem-103</linkclipref>
							<mediatype>audio</mediatype>
							<trackindex>2</trackindex>
							<clipindex>3</clipindex>
							<groupindex>1</groupindex>
						</link>
						<logginginfo>
							<description />
							<scene />
							<shottake />
							<lognote />
							<good />
							<originalvideofilename />
							<originalaudiofilename />
						</logginginfo>
						<colorinfo>
							<lut />
							<lut1 />
							<asc_sop />
							<asc_sat />
							<lut2 />
						</colorinfo>
					<labels><label2>Caribbean</label2></labels></clipitem>
					<clipitem id="clipitem-86">
						<masterclipid>clipitem-2-84</masterclipid>
						<name>Taylor_Swift_Shares_The_Story_Of_Calling_Travis_Kelce_For_The_First_Time.mp4</name>
						<enabled>TRUE</enabled>
						<duration>150</duration>
						<rate>
							<timebase>25</timebase>
							<ntsc>FALSE</ntsc>
						</rate>
						<start>64950</start>
						<end>65100</end>
						<in>12450</in>
						<out>12600</out>
						<pproTicksIn>0</pproTicksIn>
						<pproTicksOut>236438092800000</pproTicksOut>
						<alphatype>none</alphatype>
						<pixelaspectratio>square</pixelaspectratio>
						<anamorphic>FALSE</anamorphic>
						<file id="file-30">
							<name>Taylor_Swift_Shares_The_Story_Of_Calling_Travis_Kelce_For_The_First_Time.mp4</name>
							<pathurl>file://localhost/Users/themalikano/Documents/VideoAutomation/premiere_videos/Taylor_Swift_Shares_The_Story_Of_Calling_Travis_Kelce_For_The_First_Time.mp4</pathurl>
							<rate>
								<timebase>30</timebase>
								<ntsc>TRUE</ntsc>
							</rate>
							<duration>27897</duration>
							<timecode>
								<rate>
									<timebase>30</timebase>
									<ntsc>TRUE</ntsc>
								</rate>
								<string>00:00:00:00</string>
								<frame>0</frame>
								<displayformat>NDF</displayformat>
							</timecode>
							<media>
								<video>
									<samplecharacteristics>
										<rate>
											<timebase>30</timebase>
											<ntsc>TRUE</ntsc>
										</rate>
										<width>1920</width>
										<height>1080</height>
										<anamorphic>FALSE</anamorphic>
										<pixelaspectratio>square</pixelaspectratio>
										<fielddominance>none</fielddominance>
									</samplecharacteristics>
								</video>
								<audio>
									<samplecharacteristics>
										<depth>16</depth>
										<samplerate>44100</samplerate>
									</samplecharacteristics>
									<channelcount>2</channelcount>
								</audio>
							</media>
						</file>
						<link>
							<linkclipref>clipitem-86</linkclipref>
							<mediatype>video</mediatype>
							<trackindex>1</trackindex>
							<clipindex>2</clipindex>
						</link>
						<link>
							<linkclipref>clipitem-94</linkclipref>
							<mediatype>audio</mediatype>
							<trackindex>1</trackindex>
							<clipindex>2</clipindex>
							<groupindex>1</groupindex>
						</link>
						<link>
							<linkclipref>clipitem-102</linkclipref>
							<mediatype>audio</mediatype>
							<trackindex>2</trackindex>
							<clipindex>2</clipindex>
							<groupindex>1</groupindex>
						</link>
						<logginginfo>
							<description />
							<scene />
							<shottake />
							<lognote />
							<good />
							<originalvideofilename />
							<originalaudiofilename />
						</logginginfo>
						<colorinfo>
							<lut />
							<lut1 />
							<asc_sop />
							<asc_sat />
							<lut2 />
						</colorinfo>
					<labels><label2>Iris</label2></labels></clipitem>
					<clipitem id="clipitem-87">
						<masterclipid>clipitem-3-390</masterclipid>
						<name>Taylor_Swift_Travis_Kelce_-_The_New_Power_Couple.mp4</name>
						<enabled>TRUE</enabled>
						<duration>150</duration>
						<rate>
							<timebase>25</timebase>
							<ntsc>FALSE</ntsc>
						</rate>
						<start>65100</start>
						<end>65250</end>
						<in>58350</in>
						<out>58500</out>
						<pproTicksIn>0</pproTicksIn>
						<pproTicksOut>875013995520000</pproTicksOut>
						<alphatype>none</alphatype>
						<pixelaspectratio>square</pixelaspectratio>
						<anamorphic>FALSE</anamorphic>
						<file id="file-31">
							<name>Taylor_Swift_Travis_Kelce_-_The_New_Power_Couple.mp4</name>
							<pathurl>file://localhost/Users/themalikano/Documents/VideoAutomation/premiere_videos/Taylor_Swift_Travis_Kelce_-_The_New_Power_Couple.mp4</pathurl>
							<rate>
								<timebase>25</timebase>
								<ntsc>FALSE</ntsc>
							</rate>
							<duration>86118</duration>
							<timecode>
								<rate>
									<timebase>25</timebase>
									<ntsc>FALSE</ntsc>
								</rate>
								<string>00:00:00:00</string>
								<frame>0</frame>
								<displayformat>NDF</displayformat>
							</timecode>
							<media>
								<video>
									<samplecharacteristics>
										<rate>
											<timebase>25</timebase>
											<ntsc>FALSE</ntsc>
										</rate>
										<width>1920</width>
										<height>1080</height>
										<anamorphic>FALSE</anamorphic>
										<pixelaspectratio>square</pixelaspectratio>
										<fielddominance>none</fielddominance>
									</samplecharacteristics>
								</video>
								<audio>
									<samplecharacteristics>
										<depth>16</depth>
										<samplerate>44100</samplerate>
									</samplecharacteristics>
									<channelcount>2</channelcount>
								</audio>
							</media>
						</file>
						<link>
							<linkclipref>clipitem-87</linkclipref>
							<mediatype>video</mediatype>
							<trackindex>1</trackindex>
							<clipindex>3</clipindex>
						</link>
						<link>
							<linkclipref>clipitem-95</linkclipref>
							<mediatype>audio</mediatype>
							<trackindex>1</trackindex>
							<clipindex>3</clipindex>
							<groupindex>1</groupindex>
						</link>
						<link>
							<linkclipref>clipitem-103</linkclipref>
							<mediatype>audio</mediatype>
							<trackindex>2</trackindex>
							<clipindex>3</clipindex>
							<groupindex>1</groupindex>
						</link>
						<logginginfo>
							<description />
							<scene />
							<shottake />
							<lognote />
							<good />
							<originalvideofilename />
							<originalaudiofilename />
						</logginginfo>
						<colorinfo>
							<lut />
							<lut1 />
							<asc_sop />
							<asc_sat />
							<lut2 />
						</colorinfo>
					<labels><label2>Caribbean</label2></labels></clipitem>
					<clipitem id="clipitem-90">
						<masterclipid>clipitem-6-69</masterclipid>
						<name>Travis_Kelce_talks_about_postponing_his_wedding_to_Fiance_Taylor_Swift_on_the_New_Heights_Podcast.mp4</name>
						<enabled>TRUE</enabled>
						<duration>150</duration>
						<rate>
							<timebase>25</timebase>
							<ntsc>FALSE</ntsc>
						</rate>
						<start>65250</start>
						<end>65400</end>
						<in>10200</in>
						<out>10350</out>
						<pproTicksIn>0</pproTicksIn>
						<pproTicksOut>149391889920000</pproTicksOut>
						<alphatype>none</alphatype>
						<pixelaspectratio>square</pixelaspectratio>
						<anamorphic>FALSE</anamorphic>
						<file id="file-34">
							<name>Travis_Kelce_talks_about_postponing_his_wedding_to_Fiance_Taylor_Swift_on_the_New_Heights_Podcast.mp4</name>
							<pathurl>file://localhost/Users/themalikano/Documents/VideoAutomation/premiere_videos/Travis_Kelce_talks_about_postponing_his_wedding_to_Fiance_Taylor_Swift_on_the_New_Heights_Podcast.mp4</pathurl>
							<rate>
								<timebase>30</timebase>
								<ntsc>FALSE</ntsc>
							</rate>
							<duration>17644</duration>
							<timecode>
								<rate>
									<timebase>30</timebase>
									<ntsc>FALSE</ntsc>
								</rate>
								<string>00:00:00:00</string>
								<frame>0</frame>
								<displayformat>NDF</displayformat>
							</timecode>
							<media>
								<video>
									<samplecharacteristics>
										<rate>
											<timebase>30</timebase>
											<ntsc>FALSE</ntsc>
										</rate>
										<width>1920</width>
										<height>1080</height>
										<anamorphic>FALSE</anamorphic>
										<pixelaspectratio>square</pixelaspectratio>
										<fielddominance>none</fielddominance>
									</samplecharacteristics>
								</video>
								<audio>
									<samplecharacteristics>
										<depth>16</depth>
										<samplerate>44100</samplerate>
									</samplecharacteristics>
									<channelcount>2</channelcount>
								</audio>
							</media>
						</file>
						<link>
							<linkclipref>clipitem-90</linkclipref>
							<mediatype>video</mediatype>
							<trackindex>1</trackindex>
							<clipindex>6</clipindex>
						</link>
						<link>
							<linkclipref>clipitem-98</linkclipref>
							<mediatype>audio</mediatype>
							<trackindex>1</trackindex>
							<clipindex>6</clipindex>
							<groupindex>1</groupindex>
						</link>
						<link>
							<linkclipref>clipitem-106</linkclipref>
							<mediatype>audio</mediatype>
							<trackindex>2</trackindex>
							<clipindex>6</clipindex>
							<groupindex>1</groupindex>
						</link>
						<logginginfo>
							<description />
							<scene />
							<shottake />
							<lognote />
							<good />
							<originalvideofilename />
							<originalaudiofilename />
						</logginginfo>
						<colorinfo>
							<lut />
							<lut1 />
							<asc_sop />
							<asc_sat />
							<lut2 />
						</colorinfo>
					<labels><label2>Forest</label2></labels></clipitem>
					<clipitem id="clipitem-87">
						<masterclipid>clipitem-3-315</masterclipid>
						<name>Taylor_Swift_Travis_Kelce_-_The_New_Power_Couple.mp4</name>
						<enabled>TRUE</enabled>
						<duration>150</duration>
						<rate>
							<timebase>25</timebase>
							<ntsc>FALSE</ntsc>
						</rate>
						<start>65400</start>
						<end>65550</end>
						<in>47100</in>
						<out>47250</out>
						<pproTicksIn>0</pproTicksIn>
						<pproTicksOut>875013995520000</pproTicksOut>
						<alphatype>none</alphatype>
						<pixelaspectratio>square</pixelaspectratio>
						<anamorphic>FALSE</anamorphic>
						<file id="file-31">
							<name>Taylor_Swift_Travis_Kelce_-_The_New_Power_Couple.mp4</name>
							<pathurl>file://localhost/Users/themalikano/Documents/VideoAutomation/premiere_videos/Taylor_Swift_Travis_Kelce_-_The_New_Power_Couple.mp4</pathurl>
							<rate>
								<timebase>25</timebase>
								<ntsc>FALSE</ntsc>
							</rate>
							<duration>86118</duration>
							<timecode>
								<rate>
									<timebase>25</timebase>
									<ntsc>FALSE</ntsc>
								</rate>
								<string>00:00:00:00</string>
								<frame>0</frame>
								<displayformat>NDF</displayformat>
							</timecode>
							<media>
								<video>
									<samplecharacteristics>
										<rate>
											<timebase>25</timebase>
											<ntsc>FALSE</ntsc>
										</rate>
										<width>1920</width>
										<height>1080</height>
										<anamorphic>FALSE</anamorphic>
										<pixelaspectratio>square</pixelaspectratio>
										<fielddominance>none</fielddominance>
									</samplecharacteristics>
								</video>
								<audio>
									<samplecharacteristics>
										<depth>16</depth>
										<samplerate>44100</samplerate>
									</samplecharacteristics>
									<channelcount>2</channelcount>
								</audio>
							</media>
						</file>
						<link>
							<linkclipref>clipitem-87</linkclipref>
							<mediatype>video</mediatype>
							<trackindex>1</trackindex>
							<clipindex>3</clipindex>
						</link>
						<link>
							<linkclipref>clipitem-95</linkclipref>
							<mediatype>audio</mediatype>
							<trackindex>1</trackindex>
							<clipindex>3</clipindex>
							<groupindex>1</groupindex>
						</link>
						<link>
							<linkclipref>clipitem-103</linkclipref>
							<mediatype>audio</mediatype>
							<trackindex>2</trackindex>
							<clipindex>3</clipindex>
							<groupindex>1</groupindex>
						</link>
						<logginginfo>
							<description />
							<scene />
							<shottake />
							<lognote />
							<good />
							<originalvideofilename />
							<originalaudiofilename />
						</logginginfo>
						<colorinfo>
							<lut />
							<lut1 />
							<asc_sop />
							<asc_sat />
							<lut2 />
						</colorinfo>
					<labels><label2>Caribbean</label2></labels></clipitem>
					<clipitem id="clipitem-86">
						<masterclipid>clipitem-2-66</masterclipid>
						<name>Taylor_Swift_Shares_The_Story_Of_Calling_Travis_Kelce_For_The_First_Time.mp4</name>
						<enabled>TRUE</enabled>
						<duration>150</duration>
						<rate>
							<timebase>25</timebase>
							<ntsc>FALSE</ntsc>
						</rate>
						<start>65550</start>
						<end>65700</end>
						<in>9750</in>
						<out>9900</out>
						<pproTicksIn>0</pproTicksIn>
						<pproTicksOut>236438092800000</pproTicksOut>
						<alphatype>none</alphatype>
						<pixelaspectratio>square</pixelaspectratio>
						<anamorphic>FALSE</anamorphic>
						<file id="file-30">
							<name>Taylor_Swift_Shares_The_Story_Of_Calling_Travis_Kelce_For_The_First_Time.mp4</name>
							<pathurl>file://localhost/Users/themalikano/Documents/VideoAutomation/premiere_videos/Taylor_Swift_Shares_The_Story_Of_Calling_Travis_Kelce_For_The_First_Time.mp4</pathurl>
							<rate>
								<timebase>30</timebase>
								<ntsc>TRUE</ntsc>
							</rate>
							<duration>27897</duration>
							<timecode>
								<rate>
									<timebase>30</timebase>
									<ntsc>TRUE</ntsc>
								</rate>
								<string>00:00:00:00</string>
								<frame>0</frame>
								<displayformat>NDF</displayformat>
							</timecode>
							<media>
								<video>
									<samplecharacteristics>
										<rate>
											<timebase>30</timebase>
											<ntsc>TRUE</ntsc>
										</rate>
										<width>1920</width>
										<height>1080</height>
										<anamorphic>FALSE</anamorphic>
										<pixelaspectratio>square</pixelaspectratio>
										<fielddominance>none</fielddominance>
									</samplecharacteristics>
								</video>
								<audio>
									<samplecharacteristics>
										<depth>16</depth>
										<samplerate>44100</samplerate>
									</samplecharacteristics>
									<channelcount>2</channelcount>
								</audio>
							</media>
						</file>
						<link>
							<linkclipref>clipitem-86</linkclipref>
							<mediatype>video</mediatype>
							<trackindex>1</trackindex>
							<clipindex>2</clipindex>
						</link>
						<link>
							<linkclipref>clipitem-94</linkclipref>
							<mediatype>audio</mediatype>
							<trackindex>1</trackindex>
							<clipindex>2</clipindex>
							<groupindex>1</groupindex>
						</link>
						<link>
							<linkclipref>clipitem-102</linkclipref>
							<mediatype>audio</mediatype>
							<trackindex>2</trackindex>
							<clipindex>2</clipindex>
							<groupindex>1</groupindex>
						</link>
						<logginginfo>
							<description />
							<scene />
							<shottake />
							<lognote />
							<good />
							<originalvideofilename />
							<originalaudiofilename />
						</logginginfo>
						<colorinfo>
							<lut />
							<lut1 />
							<asc_sop />
							<asc_sat />
							<lut2 />
						</colorinfo>
					<labels><label2>Iris</label2></labels></clipitem>
					<clipitem id="clipitem-90">
						<masterclipid>clipitem-6-55</masterclipid>
						<name>Travis_Kelce_talks_about_postponing_his_wedding_to_Fiance_Taylor_Swift_on_the_New_Heights_Podcast.mp4</name>
						<enabled>TRUE</enabled>
						<duration>150</duration>
						<rate>
							<timebase>25</timebase>
							<ntsc>FALSE</ntsc>
						</rate>
						<start>65700</start>
						<end>65850</end>
						<in>8100</in>
						<out>8250</out>
						<pproTicksIn>0</pproTicksIn>
						<pproTicksOut>149391889920000</pproTicksOut>
						<alphatype>none</alphatype>
						<pixelaspectratio>square</pixelaspectratio>
						<anamorphic>FALSE</anamorphic>
						<file id="file-34">
							<name>Travis_Kelce_talks_about_postponing_his_wedding_to_Fiance_Taylor_Swift_on_the_New_Heights_Podcast.mp4</name>
							<pathurl>file://localhost/Users/themalikano/Documents/VideoAutomation/premiere_videos/Travis_Kelce_talks_about_postponing_his_wedding_to_Fiance_Taylor_Swift_on_the_New_Heights_Podcast.mp4</pathurl>
							<rate>
								<timebase>30</timebase>
								<ntsc>FALSE</ntsc>
							</rate>
							<duration>17644</duration>
							<timecode>
								<rate>
									<timebase>30</timebase>
									<ntsc>FALSE</ntsc>
								</rate>
								<string>00:00:00:00</string>
								<frame>0</frame>
								<displayformat>NDF</displayformat>
							</timecode>
							<media>
								<video>
									<samplecharacteristics>
										<rate>
											<timebase>30</timebase>
											<ntsc>FALSE</ntsc>
										</rate>
										<width>1920</width>
										<height>1080</height>
										<anamorphic>FALSE</anamorphic>
										<pixelaspectratio>square</pixelaspectratio>
										<fielddominance>none</fielddominance>
									</samplecharacteristics>
								</video>
								<audio>
									<samplecharacteristics>
										<depth>16</depth>
										<samplerate>44100</samplerate>
									</samplecharacteristics>
									<channelcount>2</channelcount>
								</audio>
							</media>
						</file>
						<link>
							<linkclipref>clipitem-90</linkclipref>
							<mediatype>video</mediatype>
							<trackindex>1</trackindex>
							<clipindex>6</clipindex>
						</link>
						<link>
							<linkclipref>clipitem-98</linkclipref>
							<mediatype>audio</mediatype>
							<trackindex>1</trackindex>
							<clipindex>6</clipindex>
							<groupindex>1</groupindex>
						</link>
						<link>
							<linkclipref>clipitem-106</linkclipref>
							<mediatype>audio</mediatype>
							<trackindex>2</trackindex>
							<clipindex>6</clipindex>
							<groupindex>1</groupindex>
						</link>
						<logginginfo>
							<description />
							<scene />
							<shottake />
							<lognote />
							<good />
							<originalvideofilename />
							<originalaudiofilename />
						</logginginfo>
						<colorinfo>
							<lut />
							<lut1 />
							<asc_sop />
							<asc_sat />
							<lut2 />
						</colorinfo>
					<labels><label2>Forest</label2></labels></clipitem>
					<clipitem id="clipitem-86">
						<masterclipid>clipitem-2-43</masterclipid>
						<name>Taylor_Swift_Shares_The_Story_Of_Calling_Travis_Kelce_For_The_First_Time.mp4</name>
						<enabled>TRUE</enabled>
						<duration>150</duration>
						<rate>
							<timebase>25</timebase>
							<ntsc>FALSE</ntsc>
						</rate>
						<start>65850</start>
						<end>66000</end>
						<in>6300</in>
						<out>6450</out>
						<pproTicksIn>0</pproTicksIn>
						<pproTicksOut>236438092800000</pproTicksOut>
						<alphatype>none</alphatype>
						<pixelaspectratio>square</pixelaspectratio>
						<anamorphic>FALSE</anamorphic>
						<file id="file-30">
							<name>Taylor_Swift_Shares_The_Story_Of_Calling_Travis_Kelce_For_The_First_Time.mp4</name>
							<pathurl>file://localhost/Users/themalikano/Documents/VideoAutomation/premiere_videos/Taylor_Swift_Shares_The_Story_Of_Calling_Travis_Kelce_For_The_First_Time.mp4</pathurl>
							<rate>
								<timebase>30</timebase>
								<ntsc>TRUE</ntsc>
							</rate>
							<duration>27897</duration>
							<timecode>
								<rate>
									<timebase>30</timebase>
									<ntsc>TRUE</ntsc>
								</rate>
								<string>00:00:00:00</string>
								<frame>0</frame>
								<displayformat>NDF</displayformat>
							</timecode>
							<media>
								<video>
									<samplecharacteristics>
										<rate>
											<timebase>30</timebase>
											<ntsc>TRUE</ntsc>
										</rate>
										<width>1920</width>
										<height>1080</height>
										<anamorphic>FALSE</anamorphic>
										<pixelaspectratio>square</pixelaspectratio>
										<fielddominance>none</fielddominance>
									</samplecharacteristics>
								</video>
								<audio>
									<samplecharacteristics>
										<depth>16</depth>
										<samplerate>44100</samplerate>
									</samplecharacteristics>
									<channelcount>2</channelcount>
								</audio>
							</media>
						</file>
						<link>
							<linkclipref>clipitem-86</linkclipref>
							<mediatype>video</mediatype>
							<trackindex>1</trackindex>
							<clipindex>2</clipindex>
						</link>
						<link>
							<linkclipref>clipitem-94</linkclipref>
							<mediatype>audio</mediatype>
							<trackindex>1</trackindex>
							<clipindex>2</clipindex>
							<groupindex>1</groupindex>
						</link>
						<link>
							<linkclipref>clipitem-102</linkclipref>
							<mediatype>audio</mediatype>
							<trackindex>2</trackindex>
							<clipindex>2</clipindex>
							<groupindex>1</groupindex>
						</link>
						<logginginfo>
							<description />
							<scene />
							<shottake />
							<lognote />
							<good />
							<originalvideofilename />
							<originalaudiofilename />
						</logginginfo>
						<colorinfo>
							<lut />
							<lut1 />
							<asc_sop />
							<asc_sat />
							<lut2 />
						</colorinfo>
					<labels><label2>Iris</label2></labels></clipitem>
					<clipitem id="clipitem-88">
						<masterclipid>clipitem-4-87</masterclipid>
						<name>Travis_Kelce_ANNOUNCE_WEDDING_DATE_with_Taylor_Swift_Why_He_was_Delaying_all_Along.mp4</name>
						<enabled>TRUE</enabled>
						<duration>150</duration>
						<rate>
							<timebase>25</timebase>
							<ntsc>FALSE</ntsc>
						</rate>
						<start>66000</start>
						<end>66150</end>
						<in>12900</in>
						<out>13050</out>
						<pproTicksIn>0</pproTicksIn>
						<pproTicksOut>419410897920000</pproTicksOut>
						<alphatype>none</alphatype>
						<pixelaspectratio>square</pixelaspectratio>
						<anamorphic>FALSE</anamorphic>
						<file id="file-32">
							<name>Travis_Kelce_ANNOUNCE_WEDDING_DATE_with_Taylor_Swift_Why_He_was_Delaying_all_Along.mp4</name>
							<pathurl>file://localhost/Users/themalikano/Documents/VideoAutomation/premiere_videos/Travis_Kelce_ANNOUNCE_WEDDING_DATE_with_Taylor_Swift_Why_He_was_Delaying_all_Along.mp4</pathurl>
							<rate>
								<timebase>24</timebase>
								<ntsc>FALSE</ntsc>
							</rate>
							<duration>39627</duration>
							<timecode>
								<rate>
									<timebase>24</timebase>
									<ntsc>FALSE</ntsc>
								</rate>
								<string>00:00:00:00</string>
								<frame>0</frame>
								<displayformat>NDF</displayformat>
							</timecode>
							<media>
								<video>
									<samplecharacteristics>
										<rate>
											<timebase>24</timebase>
											<ntsc>FALSE</ntsc>
										</rate>
										<width>852</width>
										<height>480</height>
										<anamorphic>FALSE</anamorphic>
										<pixelaspectratio>square</pixelaspectratio>
										<fielddominance>none</fielddominance>
									</samplecharacteristics>
								</video>
								<audio>
									<samplecharacteristics>
										<depth>16</depth>
										<samplerate>44100</samplerate>
									</samplecharacteristics>
									<channelcount>2</channelcount>
								</audio>
							</media>
						</file>
						<filter>
							<effect>
								<name>Basic Motion</name>
								<effectid>basic</effectid>
								<effectcategory>motion</effectcategory>
								<effecttype>motion</effecttype>
								<mediatype>video</mediatype>
								<pproBypass>false</pproBypass>
								<parameter authoringApp="PremierePro">
									<parameterid>scale</parameterid>
									<name>Scale</name>
									<valuemin>0</valuemin>
									<valuemax>1000</valuemax>
									<value>225</value>
								</parameter>
								<parameter authoringApp="PremierePro">
									<parameterid>rotation</parameterid>
									<name>Rotation</name>
									<valuemin>-8640</valuemin>
									<valuemax>8640</valuemax>
									<value>0</value>
								</parameter>
								<parameter authoringApp="PremierePro">
									<parameterid>center</parameterid>
									<name>Center</name>
									<value>
										<horiz>0</horiz>
										<vert>0</vert>
									</value>
								</parameter>
								<parameter authoringApp="PremierePro">
									<parameterid>centerOffset</parameterid>
									<name>Anchor Point</name>
									<value>
										<horiz>0</horiz>
										<vert>0</vert>
									</value>
								</parameter>
								<parameter authoringApp="PremierePro">
									<parameterid>antiflicker</parameterid>
									<name>Anti-flicker Filter</name>
									<valuemin>0.0</valuemin>
									<valuemax>1.0</valuemax>
									<value>0</value>
								</parameter>
							</effect>
						</filter>
						<link>
							<linkclipref>clipitem-88</linkclipref>
							<mediatype>video</mediatype>
							<trackindex>1</trackindex>
							<clipindex>4</clipindex>
						</link>
						<link>
							<linkclipref>clipitem-96</linkclipref>
							<mediatype>audio</mediatype>
							<trackindex>1</trackindex>
							<clipindex>4</clipindex>
							<groupindex>1</groupindex>
						</link>
						<link>
							<linkclipref>clipitem-104</linkclipref>
							<mediatype>audio</mediatype>
							<trackindex>2</trackindex>
							<clipindex>4</clipindex>
							<groupindex>1</groupindex>
						</link>
						<logginginfo>
							<description />
							<scene />
							<shottake />
							<lognote />
							<good />
							<originalvideofilename />
							<originalaudiofilename />
						</logginginfo>
						<colorinfo>
							<lut />
							<lut1 />
							<asc_sop />
							<asc_sat />
							<lut2 />
						</colorinfo>
					<labels><label2>Lavender</label2></labels></clipitem>
					<clipitem id="clipitem-86">
						<masterclipid>clipitem-2-108</masterclipid>
						<name>Taylor_Swift_Shares_The_Story_Of_Calling_Travis_Kelce_For_The_First_Time.mp4</name>
						<enabled>TRUE</enabled>
						<duration>150</duration>
						<rate>
							<timebase>25</timebase>
							<ntsc>FALSE</ntsc>
						</rate>
						<start>66150</start>
						<end>66300</end>
						<in>16050</in>
						<out>16200</out>
						<pproTicksIn>0</pproTicksIn>
						<pproTicksOut>236438092800000</pproTicksOut>
						<alphatype>none</alphatype>
						<pixelaspectratio>square</pixelaspectratio>
						<anamorphic>FALSE</anamorphic>
						<file id="file-30">
							<name>Taylor_Swift_Shares_The_Story_Of_Calling_Travis_Kelce_For_The_First_Time.mp4</name>
							<pathurl>file://localhost/Users/themalikano/Documents/VideoAutomation/premiere_videos/Taylor_Swift_Shares_The_Story_Of_Calling_Travis_Kelce_For_The_First_Time.mp4</pathurl>
							<rate>
								<timebase>30</timebase>
								<ntsc>TRUE</ntsc>
							</rate>
							<duration>27897</duration>
							<timecode>
								<rate>
									<timebase>30</timebase>
									<ntsc>TRUE</ntsc>
								</rate>
								<string>00:00:00:00</string>
								<frame>0</frame>
								<displayformat>NDF</displayformat>
							</timecode>
							<media>
								<video>
									<samplecharacteristics>
										<rate>
											<timebase>30</timebase>
											<ntsc>TRUE</ntsc>
										</rate>
										<width>1920</width>
										<height>1080</height>
										<anamorphic>FALSE</anamorphic>
										<pixelaspectratio>square</pixelaspectratio>
										<fielddominance>none</fielddominance>
									</samplecharacteristics>
								</video>
								<audio>
									<samplecharacteristics>
										<depth>16</depth>
										<samplerate>44100</samplerate>
									</samplecharacteristics>
									<channelcount>2</channelcount>
								</audio>
							</media>
						</file>
						<link>
							<linkclipref>clipitem-86</linkclipref>
							<mediatype>video</mediatype>
							<trackindex>1</trackindex>
							<clipindex>2</clipindex>
						</link>
						<link>
							<linkclipref>clipitem-94</linkclipref>
							<mediatype>audio</mediatype>
							<trackindex>1</trackindex>
							<clipindex>2</clipindex>
							<groupindex>1</groupindex>
						</link>
						<link>
							<linkclipref>clipitem-102</linkclipref>
							<mediatype>audio</mediatype>
							<trackindex>2</trackindex>
							<clipindex>2</clipindex>
							<groupindex>1</groupindex>
						</link>
						<logginginfo>
							<description />
							<scene />
							<shottake />
							<lognote />
							<good />
							<originalvideofilename />
							<originalaudiofilename />
						</logginginfo>
						<colorinfo>
							<lut />
							<lut1 />
							<asc_sop />
							<asc_sat />
							<lut2 />
						</colorinfo>
					<labels><label2>Iris</label2></labels></clipitem>
					<clipitem id="clipitem-88">
						<masterclipid>clipitem-4-59</masterclipid>
						<name>Travis_Kelce_ANNOUNCE_WEDDING_DATE_with_Taylor_Swift_Why_He_was_Delaying_all_Along.mp4</name>
						<enabled>TRUE</enabled>
						<duration>150</duration>
						<rate>
							<timebase>25</timebase>
							<ntsc>FALSE</ntsc>
						</rate>
						<start>66300</start>
						<end>66450</end>
						<in>8700</in>
						<out>8850</out>
						<pproTicksIn>0</pproTicksIn>
						<pproTicksOut>419410897920000</pproTicksOut>
						<alphatype>none</alphatype>
						<pixelaspectratio>square</pixelaspectratio>
						<anamorphic>FALSE</anamorphic>
						<file id="file-32">
							<name>Travis_Kelce_ANNOUNCE_WEDDING_DATE_with_Taylor_Swift_Why_He_was_Delaying_all_Along.mp4</name>
							<pathurl>file://localhost/Users/themalikano/Documents/VideoAutomation/premiere_videos/Travis_Kelce_ANNOUNCE_WEDDING_DATE_with_Taylor_Swift_Why_He_was_Delaying_all_Along.mp4</pathurl>
							<rate>
								<timebase>24</timebase>
								<ntsc>FALSE</ntsc>
							</rate>
							<duration>39627</duration>
							<timecode>
								<rate>
									<timebase>24</timebase>
									<ntsc>FALSE</ntsc>
								</rate>
								<string>00:00:00:00</string>
								<frame>0</frame>
								<displayformat>NDF</displayformat>
							</timecode>
							<media>
								<video>
									<samplecharacteristics>
										<rate>
											<timebase>24</timebase>
											<ntsc>FALSE</ntsc>
										</rate>
										<width>852</width>
										<height>480</height>
										<anamorphic>FALSE</anamorphic>
										<pixelaspectratio>square</pixelaspectratio>
										<fielddominance>none</fielddominance>
									</samplecharacteristics>
								</video>
								<audio>
									<samplecharacteristics>
										<depth>16</depth>
										<samplerate>44100</samplerate>
									</samplecharacteristics>
									<channelcount>2</channelcount>
								</audio>
							</media>
						</file>
						<filter>
							<effect>
								<name>Basic Motion</name>
								<effectid>basic</effectid>
								<effectcategory>motion</effectcategory>
								<effecttype>motion</effecttype>
								<mediatype>video</mediatype>
								<pproBypass>false</pproBypass>
								<parameter authoringApp="PremierePro">
									<parameterid>scale</parameterid>
									<name>Scale</name>
									<valuemin>0</valuemin>
									<valuemax>1000</valuemax>
									<value>225</value>
								</parameter>
								<parameter authoringApp="PremierePro">
									<parameterid>rotation</parameterid>
									<name>Rotation</name>
									<valuemin>-8640</valuemin>
									<valuemax>8640</valuemax>
									<value>0</value>
								</parameter>
								<parameter authoringApp="PremierePro">
									<parameterid>center</parameterid>
									<name>Center</name>
									<value>
										<horiz>0</horiz>
										<vert>0</vert>
									</value>
								</parameter>
								<parameter authoringApp="PremierePro">
									<parameterid>centerOffset</parameterid>
									<name>Anchor Point</name>
									<value>
										<horiz>0</horiz>
										<vert>0</vert>
									</value>
								</parameter>
								<parameter authoringApp="PremierePro">
									<parameterid>antiflicker</parameterid>
									<name>Anti-flicker Filter</name>
									<valuemin>0.0</valuemin>
									<valuemax>1.0</valuemax>
									<value>0</value>
								</parameter>
							</effect>
						</filter>
						<link>
							<linkclipref>clipitem-88</linkclipref>
							<mediatype>video</mediatype>
							<trackindex>1</trackindex>
							<clipindex>4</clipindex>
						</link>
						<link>
							<linkclipref>clipitem-96</linkclipref>
							<mediatype>audio</mediatype>
							<trackindex>1</trackindex>
							<clipindex>4</clipindex>
							<groupindex>1</groupindex>
						</link>
						<link>
							<linkclipref>clipitem-104</linkclipref>
							<mediatype>audio</mediatype>
							<trackindex>2</trackindex>
							<clipindex>4</clipindex>
							<groupindex>1</groupindex>
						</link>
						<logginginfo>
							<description />
							<scene />
							<shottake />
							<lognote />
							<good />
							<originalvideofilename />
							<originalaudiofilename />
						</logginginfo>
						<colorinfo>
							<lut />
							<lut1 />
							<asc_sop />
							<asc_sat />
							<lut2 />
						</colorinfo>
					<labels><label2>Lavender</label2></labels></clipitem>
					<clipitem id="clipitem-87">
						<masterclipid>clipitem-3-321</masterclipid>
						<name>Taylor_Swift_Travis_Kelce_-_The_New_Power_Couple.mp4</name>
						<enabled>TRUE</enabled>
						<duration>150</duration>
						<rate>
							<timebase>25</timebase>
							<ntsc>FALSE</ntsc>
						</rate>
						<start>66450</start>
						<end>66600</end>
						<in>48000</in>
						<out>48150</out>
						<pproTicksIn>0</pproTicksIn>
						<pproTicksOut>875013995520000</pproTicksOut>
						<alphatype>none</alphatype>
						<pixelaspectratio>square</pixelaspectratio>
						<anamorphic>FALSE</anamorphic>
						<file id="file-31">
							<name>Taylor_Swift_Travis_Kelce_-_The_New_Power_Couple.mp4</name>
							<pathurl>file://localhost/Users/themalikano/Documents/VideoAutomation/premiere_videos/Taylor_Swift_Travis_Kelce_-_The_New_Power_Couple.mp4</pathurl>
							<rate>
								<timebase>25</timebase>
								<ntsc>FALSE</ntsc>
							</rate>
							<duration>86118</duration>
							<timecode>
								<rate>
									<timebase>25</timebase>
									<ntsc>FALSE</ntsc>
								</rate>
								<string>00:00:00:00</string>
								<frame>0</frame>
								<displayformat>NDF</displayformat>
							</timecode>
							<media>
								<video>
									<samplecharacteristics>
										<rate>
											<timebase>25</timebase>
											<ntsc>FALSE</ntsc>
										</rate>
										<width>1920</width>
										<height>1080</height>
										<anamorphic>FALSE</anamorphic>
										<pixelaspectratio>square</pixelaspectratio>
										<fielddominance>none</fielddominance>
									</samplecharacteristics>
								</video>
								<audio>
									<samplecharacteristics>
										<depth>16</depth>
										<samplerate>44100</samplerate>
									</samplecharacteristics>
									<channelcount>2</channelcount>
								</audio>
							</media>
						</file>
						<link>
							<linkclipref>clipitem-87</linkclipref>
							<mediatype>video</mediatype>
							<trackindex>1</trackindex>
							<clipindex>3</clipindex>
						</link>
						<link>
							<linkclipref>clipitem-95</linkclipref>
							<mediatype>audio</mediatype>
							<trackindex>1</trackindex>
							<clipindex>3</clipindex>
							<groupindex>1</groupindex>
						</link>
						<link>
							<linkclipref>clipitem-103</linkclipref>
							<mediatype>audio</mediatype>
							<trackindex>2</trackindex>
							<clipindex>3</clipindex>
							<groupindex>1</groupindex>
						</link>
						<logginginfo>
							<description />
							<scene />
							<shottake />
							<lognote />
							<good />
							<originalvideofilename />
							<originalaudiofilename />
						</logginginfo>
						<colorinfo>
							<lut />
							<lut1 />
							<asc_sop />
							<asc_sat />
							<lut2 />
						</colorinfo>
					<labels><label2>Caribbean</label2></labels></clipitem>
					<clipitem id="clipitem-86">
						<masterclipid>clipitem-2-136</masterclipid>
						<name>Taylor_Swift_Shares_The_Story_Of_Calling_Travis_Kelce_For_The_First_Time.mp4</name>
						<enabled>TRUE</enabled>
						<duration>150</duration>
						<rate>
							<timebase>25</timebase>
							<ntsc>FALSE</ntsc>
						</rate>
						<start>66600</start>
						<end>66750</end>
						<in>20250</in>
						<out>20400</out>
						<pproTicksIn>0</pproTicksIn>
						<pproTicksOut>236438092800000</pproTicksOut>
						<alphatype>none</alphatype>
						<pixelaspectratio>square</pixelaspectratio>
						<anamorphic>FALSE</anamorphic>
						<file id="file-30">
							<name>Taylor_Swift_Shares_The_Story_Of_Calling_Travis_Kelce_For_The_First_Time.mp4</name>
							<pathurl>file://localhost/Users/themalikano/Documents/VideoAutomation/premiere_videos/Taylor_Swift_Shares_The_Story_Of_Calling_Travis_Kelce_For_The_First_Time.mp4</pathurl>
							<rate>
								<timebase>30</timebase>
								<ntsc>TRUE</ntsc>
							</rate>
							<duration>27897</duration>
							<timecode>
								<rate>
									<timebase>30</timebase>
									<ntsc>TRUE</ntsc>
								</rate>
								<string>00:00:00:00</string>
								<frame>0</frame>
								<displayformat>NDF</displayformat>
							</timecode>
							<media>
								<video>
									<samplecharacteristics>
										<rate>
											<timebase>30</timebase>
											<ntsc>TRUE</ntsc>
										</rate>
										<width>1920</width>
										<height>1080</height>
										<anamorphic>FALSE</anamorphic>
										<pixelaspectratio>square</pixelaspectratio>
										<fielddominance>none</fielddominance>
									</samplecharacteristics>
								</video>
								<audio>
									<samplecharacteristics>
										<depth>16</depth>
										<samplerate>44100</samplerate>
									</samplecharacteristics>
									<channelcount>2</channelcount>
								</audio>
							</media>
						</file>
						<link>
							<linkclipref>clipitem-86</linkclipref>
							<mediatype>video</mediatype>
							<trackindex>1</trackindex>
							<clipindex>2</clipindex>
						</link>
						<link>
							<linkclipref>clipitem-94</linkclipref>
							<mediatype>audio</mediatype>
							<trackindex>1</trackindex>
							<clipindex>2</clipindex>
							<groupindex>1</groupindex>
						</link>
						<link>
							<linkclipref>clipitem-102</linkclipref>
							<mediatype>audio</mediatype>
							<trackindex>2</trackindex>
							<clipindex>2</clipindex>
							<groupindex>1</groupindex>
						</link>
						<logginginfo>
							<description />
							<scene />
							<shottake />
							<lognote />
							<good />
							<originalvideofilename />
							<originalaudiofilename />
						</logginginfo>
						<colorinfo>
							<lut />
							<lut1 />
							<asc_sop />
							<asc_sat />
							<lut2 />
						</colorinfo>
					<labels><label2>Iris</label2></labels></clipitem>
					<clipitem id="clipitem-87">
						<masterclipid>clipitem-3-179</masterclipid>
						<name>Taylor_Swift_Travis_Kelce_-_The_New_Power_Couple.mp4</name>
						<enabled>TRUE</enabled>
						<duration>150</duration>
						<rate>
							<timebase>25</timebase>
							<ntsc>FALSE</ntsc>
						</rate>
						<start>66750</start>
						<end>66900</end>
						<in>26700</in>
						<out>26850</out>
						<pproTicksIn>0</pproTicksIn>
						<pproTicksOut>875013995520000</pproTicksOut>
						<alphatype>none</alphatype>
						<pixelaspectratio>square</pixelaspectratio>
						<anamorphic>FALSE</anamorphic>
						<file id="file-31">
							<name>Taylor_Swift_Travis_Kelce_-_The_New_Power_Couple.mp4</name>
							<pathurl>file://localhost/Users/themalikano/Documents/VideoAutomation/premiere_videos/Taylor_Swift_Travis_Kelce_-_The_New_Power_Couple.mp4</pathurl>
							<rate>
								<timebase>25</timebase>
								<ntsc>FALSE</ntsc>
							</rate>
							<duration>86118</duration>
							<timecode>
								<rate>
									<timebase>25</timebase>
									<ntsc>FALSE</ntsc>
								</rate>
								<string>00:00:00:00</string>
								<frame>0</frame>
								<displayformat>NDF</displayformat>
							</timecode>
							<media>
								<video>
									<samplecharacteristics>
										<rate>
											<timebase>25</timebase>
											<ntsc>FALSE</ntsc>
										</rate>
										<width>1920</width>
										<height>1080</height>
										<anamorphic>FALSE</anamorphic>
										<pixelaspectratio>square</pixelaspectratio>
										<fielddominance>none</fielddominance>
									</samplecharacteristics>
								</video>
								<audio>
									<samplecharacteristics>
										<depth>16</depth>
										<samplerate>44100</samplerate>
									</samplecharacteristics>
									<channelcount>2</channelcount>
								</audio>
							</media>
						</file>
						<link>
							<linkclipref>clipitem-87</linkclipref>
							<mediatype>video</mediatype>
							<trackindex>1</trackindex>
							<clipindex>3</clipindex>
						</link>
						<link>
							<linkclipref>clipitem-95</linkclipref>
							<mediatype>audio</mediatype>
							<trackindex>1</trackindex>
							<clipindex>3</clipindex>
							<groupindex>1</groupindex>
						</link>
						<link>
							<linkclipref>clipitem-103</linkclipref>
							<mediatype>audio</mediatype>
							<trackindex>2</trackindex>
							<clipindex>3</clipindex>
							<groupindex>1</groupindex>
						</link>
						<logginginfo>
							<description />
							<scene />
							<shottake />
							<lognote />
							<good />
							<originalvideofilename />
							<originalaudiofilename />
						</logginginfo>
						<colorinfo>
							<lut />
							<lut1 />
							<asc_sop />
							<asc_sat />
							<lut2 />
						</colorinfo>
					<labels><label2>Caribbean</label2></labels></clipitem>
					<clipitem id="clipitem-88">
						<masterclipid>clipitem-4-163</masterclipid>
						<name>Travis_Kelce_ANNOUNCE_WEDDING_DATE_with_Taylor_Swift_Why_He_was_Delaying_all_Along.mp4</name>
						<enabled>TRUE</enabled>
						<duration>150</duration>
						<rate>
							<timebase>25</timebase>
							<ntsc>FALSE</ntsc>
						</rate>
						<start>66900</start>
						<end>67050</end>
						<in>24300</in>
						<out>24450</out>
						<pproTicksIn>0</pproTicksIn>
						<pproTicksOut>419410897920000</pproTicksOut>
						<alphatype>none</alphatype>
						<pixelaspectratio>square</pixelaspectratio>
						<anamorphic>FALSE</anamorphic>
						<file id="file-32">
							<name>Travis_Kelce_ANNOUNCE_WEDDING_DATE_with_Taylor_Swift_Why_He_was_Delaying_all_Along.mp4</name>
							<pathurl>file://localhost/Users/themalikano/Documents/VideoAutomation/premiere_videos/Travis_Kelce_ANNOUNCE_WEDDING_DATE_with_Taylor_Swift_Why_He_was_Delaying_all_Along.mp4</pathurl>
							<rate>
								<timebase>24</timebase>
								<ntsc>FALSE</ntsc>
							</rate>
							<duration>39627</duration>
							<timecode>
								<rate>
									<timebase>24</timebase>
									<ntsc>FALSE</ntsc>
								</rate>
								<string>00:00:00:00</string>
								<frame>0</frame>
								<displayformat>NDF</displayformat>
							</timecode>
							<media>
								<video>
									<samplecharacteristics>
										<rate>
											<timebase>24</timebase>
											<ntsc>FALSE</ntsc>
										</rate>
										<width>852</width>
										<height>480</height>
										<anamorphic>FALSE</anamorphic>
										<pixelaspectratio>square</pixelaspectratio>
										<fielddominance>none</fielddominance>
									</samplecharacteristics>
								</video>
								<audio>
									<samplecharacteristics>
										<depth>16</depth>
										<samplerate>44100</samplerate>
									</samplecharacteristics>
									<channelcount>2</channelcount>
								</audio>
							</media>
						</file>
						<filter>
							<effect>
								<name>Basic Motion</name>
								<effectid>basic</effectid>
								<effectcategory>motion</effectcategory>
								<effecttype>motion</effecttype>
								<mediatype>video</mediatype>
								<pproBypass>false</pproBypass>
								<parameter authoringApp="PremierePro">
									<parameterid>scale</parameterid>
									<name>Scale</name>
									<valuemin>0</valuemin>
									<valuemax>1000</valuemax>
									<value>225</value>
								</parameter>
								<parameter authoringApp="PremierePro">
									<parameterid>rotation</parameterid>
									<name>Rotation</name>
									<valuemin>-8640</valuemin>
									<valuemax>8640</valuemax>
									<value>0</value>
								</parameter>
								<parameter authoringApp="PremierePro">
									<parameterid>center</parameterid>
									<name>Center</name>
									<value>
										<horiz>0</horiz>
										<vert>0</vert>
									</value>
								</parameter>
								<parameter authoringApp="PremierePro">
									<parameterid>centerOffset</parameterid>
									<name>Anchor Point</name>
									<value>
										<horiz>0</horiz>
										<vert>0</vert>
									</value>
								</parameter>
								<parameter authoringApp="PremierePro">
									<parameterid>antiflicker</parameterid>
									<name>Anti-flicker Filter</name>
									<valuemin>0.0</valuemin>
									<valuemax>1.0</valuemax>
									<value>0</value>
								</parameter>
							</effect>
						</filter>
						<link>
							<linkclipref>clipitem-88</linkclipref>
							<mediatype>video</mediatype>
							<trackindex>1</trackindex>
							<clipindex>4</clipindex>
						</link>
						<link>
							<linkclipref>clipitem-96</linkclipref>
							<mediatype>audio</mediatype>
							<trackindex>1</trackindex>
							<clipindex>4</clipindex>
							<groupindex>1</groupindex>
						</link>
						<link>
							<linkclipref>clipitem-104</linkclipref>
							<mediatype>audio</mediatype>
							<trackindex>2</trackindex>
							<clipindex>4</clipindex>
							<groupindex>1</groupindex>
						</link>
						<logginginfo>
							<description />
							<scene />
							<shottake />
							<lognote />
							<good />
							<originalvideofilename />
							<originalaudiofilename />
						</logginginfo>
						<colorinfo>
							<lut />
							<lut1 />
							<asc_sop />
							<asc_sat />
							<lut2 />
						</colorinfo>
					<labels><label2>Lavender</label2></labels></clipitem>
					<clipitem id="clipitem-87">
						<masterclipid>clipitem-3-324</masterclipid>
						<name>Taylor_Swift_Travis_Kelce_-_The_New_Power_Couple.mp4</name>
						<enabled>TRUE</enabled>
						<duration>150</duration>
						<rate>
							<timebase>25</timebase>
							<ntsc>FALSE</ntsc>
						</rate>
						<start>67050</start>
						<end>67200</end>
						<in>48450</in>
						<out>48600</out>
						<pproTicksIn>0</pproTicksIn>
						<pproTicksOut>875013995520000</pproTicksOut>
						<alphatype>none</alphatype>
						<pixelaspectratio>square</pixelaspectratio>
						<anamorphic>FALSE</anamorphic>
						<file id="file-31">
							<name>Taylor_Swift_Travis_Kelce_-_The_New_Power_Couple.mp4</name>
							<pathurl>file://localhost/Users/themalikano/Documents/VideoAutomation/premiere_videos/Taylor_Swift_Travis_Kelce_-_The_New_Power_Couple.mp4</pathurl>
							<rate>
								<timebase>25</timebase>
								<ntsc>FALSE</ntsc>
							</rate>
							<duration>86118</duration>
							<timecode>
								<rate>
									<timebase>25</timebase>
									<ntsc>FALSE</ntsc>
								</rate>
								<string>00:00:00:00</string>
								<frame>0</frame>
								<displayformat>NDF</displayformat>
							</timecode>
							<media>
								<video>
									<samplecharacteristics>
										<rate>
											<timebase>25</timebase>
											<ntsc>FALSE</ntsc>
										</rate>
										<width>1920</width>
										<height>1080</height>
										<anamorphic>FALSE</anamorphic>
										<pixelaspectratio>square</pixelaspectratio>
										<fielddominance>none</fielddominance>
									</samplecharacteristics>
								</video>
								<audio>
									<samplecharacteristics>
										<depth>16</depth>
										<samplerate>44100</samplerate>
									</samplecharacteristics>
									<channelcount>2</channelcount>
								</audio>
							</media>
						</file>
						<link>
							<linkclipref>clipitem-87</linkclipref>
							<mediatype>video</mediatype>
							<trackindex>1</trackindex>
							<clipindex>3</clipindex>
						</link>
						<link>
							<linkclipref>clipitem-95</linkclipref>
							<mediatype>audio</mediatype>
							<trackindex>1</trackindex>
							<clipindex>3</clipindex>
							<groupindex>1</groupindex>
						</link>
						<link>
							<linkclipref>clipitem-103</linkclipref>
							<mediatype>audio</mediatype>
							<trackindex>2</trackindex>
							<clipindex>3</clipindex>
							<groupindex>1</groupindex>
						</link>
						<logginginfo>
							<description />
							<scene />
							<shottake />
							<lognote />
							<good />
							<originalvideofilename />
							<originalaudiofilename />
						</logginginfo>
						<colorinfo>
							<lut />
							<lut1 />
							<asc_sop />
							<asc_sat />
							<lut2 />
						</colorinfo>
					<labels><label2>Caribbean</label2></labels></clipitem>
					<clipitem id="clipitem-90">
						<masterclipid>clipitem-6-95</masterclipid>
						<name>Travis_Kelce_talks_about_postponing_his_wedding_to_Fiance_Taylor_Swift_on_the_New_Heights_Podcast.mp4</name>
						<enabled>TRUE</enabled>
						<duration>150</duration>
						<rate>
							<timebase>25</timebase>
							<ntsc>FALSE</ntsc>
						</rate>
						<start>67200</start>
						<end>67350</end>
						<in>14100</in>
						<out>14250</out>
						<pproTicksIn>0</pproTicksIn>
						<pproTicksOut>149391889920000</pproTicksOut>
						<alphatype>none</alphatype>
						<pixelaspectratio>square</pixelaspectratio>
						<anamorphic>FALSE</anamorphic>
						<file id="file-34">
							<name>Travis_Kelce_talks_about_postponing_his_wedding_to_Fiance_Taylor_Swift_on_the_New_Heights_Podcast.mp4</name>
							<pathurl>file://localhost/Users/themalikano/Documents/VideoAutomation/premiere_videos/Travis_Kelce_talks_about_postponing_his_wedding_to_Fiance_Taylor_Swift_on_the_New_Heights_Podcast.mp4</pathurl>
							<rate>
								<timebase>30</timebase>
								<ntsc>FALSE</ntsc>
							</rate>
							<duration>17644</duration>
							<timecode>
								<rate>
									<timebase>30</timebase>
									<ntsc>FALSE</ntsc>
								</rate>
								<string>00:00:00:00</string>
								<frame>0</frame>
								<displayformat>NDF</displayformat>
							</timecode>
							<media>
								<video>
									<samplecharacteristics>
										<rate>
											<timebase>30</timebase>
											<ntsc>FALSE</ntsc>
										</rate>
										<width>1920</width>
										<height>1080</height>
										<anamorphic>FALSE</anamorphic>
										<pixelaspectratio>square</pixelaspectratio>
										<fielddominance>none</fielddominance>
									</samplecharacteristics>
								</video>
								<audio>
									<samplecharacteristics>
										<depth>16</depth>
										<samplerate>44100</samplerate>
									</samplecharacteristics>
									<channelcount>2</channelcount>
								</audio>
							</media>
						</file>
						<link>
							<linkclipref>clipitem-90</linkclipref>
							<mediatype>video</mediatype>
							<trackindex>1</trackindex>
							<clipindex>6</clipindex>
						</link>
						<link>
							<linkclipref>clipitem-98</linkclipref>
							<mediatype>audio</mediatype>
							<trackindex>1</trackindex>
							<clipindex>6</clipindex>
							<groupindex>1</groupindex>
						</link>
						<link>
							<linkclipref>clipitem-106</linkclipref>
							<mediatype>audio</mediatype>
							<trackindex>2</trackindex>
							<clipindex>6</clipindex>
							<groupindex>1</groupindex>
						</link>
						<logginginfo>
							<description />
							<scene />
							<shottake />
							<lognote />
							<good />
							<originalvideofilename />
							<originalaudiofilename />
						</logginginfo>
						<colorinfo>
							<lut />
							<lut1 />
							<asc_sop />
							<asc_sat />
							<lut2 />
						</colorinfo>
					<labels><label2>Forest</label2></labels></clipitem>
					<clipitem id="clipitem-88">
						<masterclipid>clipitem-4-25</masterclipid>
						<name>Travis_Kelce_ANNOUNCE_WEDDING_DATE_with_Taylor_Swift_Why_He_was_Delaying_all_Along.mp4</name>
						<enabled>TRUE</enabled>
						<duration>150</duration>
						<rate>
							<timebase>25</timebase>
							<ntsc>FALSE</ntsc>
						</rate>
						<start>67350</start>
						<end>67500</end>
						<in>3600</in>
						<out>3750</out>
						<pproTicksIn>0</pproTicksIn>
						<pproTicksOut>419410897920000</pproTicksOut>
						<alphatype>none</alphatype>
						<pixelaspectratio>square</pixelaspectratio>
						<anamorphic>FALSE</anamorphic>
						<file id="file-32">
							<name>Travis_Kelce_ANNOUNCE_WEDDING_DATE_with_Taylor_Swift_Why_He_was_Delaying_all_Along.mp4</name>
							<pathurl>file://localhost/Users/themalikano/Documents/VideoAutomation/premiere_videos/Travis_Kelce_ANNOUNCE_WEDDING_DATE_with_Taylor_Swift_Why_He_was_Delaying_all_Along.mp4</pathurl>
							<rate>
								<timebase>24</timebase>
								<ntsc>FALSE</ntsc>
							</rate>
							<duration>39627</duration>
							<timecode>
								<rate>
									<timebase>24</timebase>
									<ntsc>FALSE</ntsc>
								</rate>
								<string>00:00:00:00</string>
								<frame>0</frame>
								<displayformat>NDF</displayformat>
							</timecode>
							<media>
								<video>
									<samplecharacteristics>
										<rate>
											<timebase>24</timebase>
											<ntsc>FALSE</ntsc>
										</rate>
										<width>852</width>
										<height>480</height>
										<anamorphic>FALSE</anamorphic>
										<pixelaspectratio>square</pixelaspectratio>
										<fielddominance>none</fielddominance>
									</samplecharacteristics>
								</video>
								<audio>
									<samplecharacteristics>
										<depth>16</depth>
										<samplerate>44100</samplerate>
									</samplecharacteristics>
									<channelcount>2</channelcount>
								</audio>
							</media>
						</file>
						<filter>
							<effect>
								<name>Basic Motion</name>
								<effectid>basic</effectid>
								<effectcategory>motion</effectcategory>
								<effecttype>motion</effecttype>
								<mediatype>video</mediatype>
								<pproBypass>false</pproBypass>
								<parameter authoringApp="PremierePro">
									<parameterid>scale</parameterid>
									<name>Scale</name>
									<valuemin>0</valuemin>
									<valuemax>1000</valuemax>
									<value>225</value>
								</parameter>
								<parameter authoringApp="PremierePro">
									<parameterid>rotation</parameterid>
									<name>Rotation</name>
									<valuemin>-8640</valuemin>
									<valuemax>8640</valuemax>
									<value>0</value>
								</parameter>
								<parameter authoringApp="PremierePro">
									<parameterid>center</parameterid>
									<name>Center</name>
									<value>
										<horiz>0</horiz>
										<vert>0</vert>
									</value>
								</parameter>
								<parameter authoringApp="PremierePro">
									<parameterid>centerOffset</parameterid>
									<name>Anchor Point</name>
									<value>
										<horiz>0</horiz>
										<vert>0</vert>
									</value>
								</parameter>
								<parameter authoringApp="PremierePro">
									<parameterid>antiflicker</parameterid>
									<name>Anti-flicker Filter</name>
									<valuemin>0.0</valuemin>
									<valuemax>1.0</valuemax>
									<value>0</value>
								</parameter>
							</effect>
						</filter>
						<link>
							<linkclipref>clipitem-88</linkclipref>
							<mediatype>video</mediatype>
							<trackindex>1</trackindex>
							<clipindex>4</clipindex>
						</link>
						<link>
							<linkclipref>clipitem-96</linkclipref>
							<mediatype>audio</mediatype>
							<trackindex>1</trackindex>
							<clipindex>4</clipindex>
							<groupindex>1</groupindex>
						</link>
						<link>
							<linkclipref>clipitem-104</linkclipref>
							<mediatype>audio</mediatype>
							<trackindex>2</trackindex>
							<clipindex>4</clipindex>
							<groupindex>1</groupindex>
						</link>
						<logginginfo>
							<description />
							<scene />
							<shottake />
							<lognote />
							<good />
							<originalvideofilename />
							<originalaudiofilename />
						</logginginfo>
						<colorinfo>
							<lut />
							<lut1 />
							<asc_sop />
							<asc_sat />
							<lut2 />
						</colorinfo>
					<labels><label2>Lavender</label2></labels></clipitem>
					<clipitem id="clipitem-87">
						<masterclipid>clipitem-3-187</masterclipid>
						<name>Taylor_Swift_Travis_Kelce_-_The_New_Power_Couple.mp4</name>
						<enabled>TRUE</enabled>
						<duration>150</duration>
						<rate>
							<timebase>25</timebase>
							<ntsc>FALSE</ntsc>
						</rate>
						<start>67500</start>
						<end>67650</end>
						<in>27900</in>
						<out>28050</out>
						<pproTicksIn>0</pproTicksIn>
						<pproTicksOut>875013995520000</pproTicksOut>
						<alphatype>none</alphatype>
						<pixelaspectratio>square</pixelaspectratio>
						<anamorphic>FALSE</anamorphic>
						<file id="file-31">
							<name>Taylor_Swift_Travis_Kelce_-_The_New_Power_Couple.mp4</name>
							<pathurl>file://localhost/Users/themalikano/Documents/VideoAutomation/premiere_videos/Taylor_Swift_Travis_Kelce_-_The_New_Power_Couple.mp4</pathurl>
							<rate>
								<timebase>25</timebase>
								<ntsc>FALSE</ntsc>
							</rate>
							<duration>86118</duration>
							<timecode>
								<rate>
									<timebase>25</timebase>
									<ntsc>FALSE</ntsc>
								</rate>
								<string>00:00:00:00</string>
								<frame>0</frame>
								<displayformat>NDF</displayformat>
							</timecode>
							<media>
								<video>
									<samplecharacteristics>
										<rate>
											<timebase>25</timebase>
											<ntsc>FALSE</ntsc>
										</rate>
										<width>1920</width>
										<height>1080</height>
										<anamorphic>FALSE</anamorphic>
										<pixelaspectratio>square</pixelaspectratio>
										<fielddominance>none</fielddominance>
									</samplecharacteristics>
								</video>
								<audio>
									<samplecharacteristics>
										<depth>16</depth>
										<samplerate>44100</samplerate>
									</samplecharacteristics>
									<channelcount>2</channelcount>
								</audio>
							</media>
						</file>
						<link>
							<linkclipref>clipitem-87</linkclipref>
							<mediatype>video</mediatype>
							<trackindex>1</trackindex>
							<clipindex>3</clipindex>
						</link>
						<link>
							<linkclipref>clipitem-95</linkclipref>
							<mediatype>audio</mediatype>
							<trackindex>1</trackindex>
							<clipindex>3</clipindex>
							<groupindex>1</groupindex>
						</link>
						<link>
							<linkclipref>clipitem-103</linkclipref>
							<mediatype>audio</mediatype>
							<trackindex>2</trackindex>
							<clipindex>3</clipindex>
							<groupindex>1</groupindex>
						</link>
						<logginginfo>
							<description />
							<scene />
							<shottake />
							<lognote />
							<good />
							<originalvideofilename />
							<originalaudiofilename />
						</logginginfo>
						<colorinfo>
							<lut />
							<lut1 />
							<asc_sop />
							<asc_sat />
							<lut2 />
						</colorinfo>
					<labels><label2>Caribbean</label2></labels></clipitem>
					<clipitem id="clipitem-90">
						<masterclipid>clipitem-6-17</masterclipid>
						<name>Travis_Kelce_talks_about_postponing_his_wedding_to_Fiance_Taylor_Swift_on_the_New_Heights_Podcast.mp4</name>
						<enabled>TRUE</enabled>
						<duration>150</duration>
						<rate>
							<timebase>25</timebase>
							<ntsc>FALSE</ntsc>
						</rate>
						<start>67650</start>
						<end>67800</end>
						<in>2400</in>
						<out>2550</out>
						<pproTicksIn>0</pproTicksIn>
						<pproTicksOut>149391889920000</pproTicksOut>
						<alphatype>none</alphatype>
						<pixelaspectratio>square</pixelaspectratio>
						<anamorphic>FALSE</anamorphic>
						<file id="file-34">
							<name>Travis_Kelce_talks_about_postponing_his_wedding_to_Fiance_Taylor_Swift_on_the_New_Heights_Podcast.mp4</name>
							<pathurl>file://localhost/Users/themalikano/Documents/VideoAutomation/premiere_videos/Travis_Kelce_talks_about_postponing_his_wedding_to_Fiance_Taylor_Swift_on_the_New_Heights_Podcast.mp4</pathurl>
							<rate>
								<timebase>30</timebase>
								<ntsc>FALSE</ntsc>
							</rate>
							<duration>17644</duration>
							<timecode>
								<rate>
									<timebase>30</timebase>
									<ntsc>FALSE</ntsc>
								</rate>
								<string>00:00:00:00</string>
								<frame>0</frame>
								<displayformat>NDF</displayformat>
							</timecode>
							<media>
								<video>
									<samplecharacteristics>
										<rate>
											<timebase>30</timebase>
											<ntsc>FALSE</ntsc>
										</rate>
										<width>1920</width>
										<height>1080</height>
										<anamorphic>FALSE</anamorphic>
										<pixelaspectratio>square</pixelaspectratio>
										<fielddominance>none</fielddominance>
									</samplecharacteristics>
								</video>
								<audio>
									<samplecharacteristics>
										<depth>16</depth>
										<samplerate>44100</samplerate>
									</samplecharacteristics>
									<channelcount>2</channelcount>
								</audio>
							</media>
						</file>
						<link>
							<linkclipref>clipitem-90</linkclipref>
							<mediatype>video</mediatype>
							<trackindex>1</trackindex>
							<clipindex>6</clipindex>
						</link>
						<link>
							<linkclipref>clipitem-98</linkclipref>
							<mediatype>audio</mediatype>
							<trackindex>1</trackindex>
							<clipindex>6</clipindex>
							<groupindex>1</groupindex>
						</link>
						<link>
							<linkclipref>clipitem-106</linkclipref>
							<mediatype>audio</mediatype>
							<trackindex>2</trackindex>
							<clipindex>6</clipindex>
							<groupindex>1</groupindex>
						</link>
						<logginginfo>
							<description />
							<scene />
							<shottake />
							<lognote />
							<good />
							<originalvideofilename />
							<originalaudiofilename />
						</logginginfo>
						<colorinfo>
							<lut />
							<lut1 />
							<asc_sop />
							<asc_sat />
							<lut2 />
						</colorinfo>
					<labels><label2>Forest</label2></labels></clipitem>
					<clipitem id="clipitem-86">
						<masterclipid>clipitem-2-30</masterclipid>
						<name>Taylor_Swift_Shares_The_Story_Of_Calling_Travis_Kelce_For_The_First_Time.mp4</name>
						<enabled>TRUE</enabled>
						<duration>150</duration>
						<rate>
							<timebase>25</timebase>
							<ntsc>FALSE</ntsc>
						</rate>
						<start>67800</start>
						<end>67950</end>
						<in>4350</in>
						<out>4500</out>
						<pproTicksIn>0</pproTicksIn>
						<pproTicksOut>236438092800000</pproTicksOut>
						<alphatype>none</alphatype>
						<pixelaspectratio>square</pixelaspectratio>
						<anamorphic>FALSE</anamorphic>
						<file id="file-30">
							<name>Taylor_Swift_Shares_The_Story_Of_Calling_Travis_Kelce_For_The_First_Time.mp4</name>
							<pathurl>file://localhost/Users/themalikano/Documents/VideoAutomation/premiere_videos/Taylor_Swift_Shares_The_Story_Of_Calling_Travis_Kelce_For_The_First_Time.mp4</pathurl>
							<rate>
								<timebase>30</timebase>
								<ntsc>TRUE</ntsc>
							</rate>
							<duration>27897</duration>
							<timecode>
								<rate>
									<timebase>30</timebase>
									<ntsc>TRUE</ntsc>
								</rate>
								<string>00:00:00:00</string>
								<frame>0</frame>
								<displayformat>NDF</displayformat>
							</timecode>
							<media>
								<video>
									<samplecharacteristics>
										<rate>
											<timebase>30</timebase>
											<ntsc>TRUE</ntsc>
										</rate>
										<width>1920</width>
										<height>1080</height>
										<anamorphic>FALSE</anamorphic>
										<pixelaspectratio>square</pixelaspectratio>
										<fielddominance>none</fielddominance>
									</samplecharacteristics>
								</video>
								<audio>
									<samplecharacteristics>
										<depth>16</depth>
										<samplerate>44100</samplerate>
									</samplecharacteristics>
									<channelcount>2</channelcount>
								</audio>
							</media>
						</file>
						<link>
							<linkclipref>clipitem-86</linkclipref>
							<mediatype>video</mediatype>
							<trackindex>1</trackindex>
							<clipindex>2</clipindex>
						</link>
						<link>
							<linkclipref>clipitem-94</linkclipref>
							<mediatype>audio</mediatype>
							<trackindex>1</trackindex>
							<clipindex>2</clipindex>
							<groupindex>1</groupindex>
						</link>
						<link>
							<linkclipref>clipitem-102</linkclipref>
							<mediatype>audio</mediatype>
							<trackindex>2</trackindex>
							<clipindex>2</clipindex>
							<groupindex>1</groupindex>
						</link>
						<logginginfo>
							<description />
							<scene />
							<shottake />
							<lognote />
							<good />
							<originalvideofilename />
							<originalaudiofilename />
						</logginginfo>
						<colorinfo>
							<lut />
							<lut1 />
							<asc_sop />
							<asc_sat />
							<lut2 />
						</colorinfo>
					<labels><label2>Iris</label2></labels></clipitem>
					<clipitem id="clipitem-87">
						<masterclipid>clipitem-3-504</masterclipid>
						<name>Taylor_Swift_Travis_Kelce_-_The_New_Power_Couple.mp4</name>
						<enabled>TRUE</enabled>
						<duration>150</duration>
						<rate>
							<timebase>25</timebase>
							<ntsc>FALSE</ntsc>
						</rate>
						<start>67950</start>
						<end>68100</end>
						<in>75450</in>
						<out>75600</out>
						<pproTicksIn>0</pproTicksIn>
						<pproTicksOut>875013995520000</pproTicksOut>
						<alphatype>none</alphatype>
						<pixelaspectratio>square</pixelaspectratio>
						<anamorphic>FALSE</anamorphic>
						<file id="file-31">
							<name>Taylor_Swift_Travis_Kelce_-_The_New_Power_Couple.mp4</name>
							<pathurl>file://localhost/Users/themalikano/Documents/VideoAutomation/premiere_videos/Taylor_Swift_Travis_Kelce_-_The_New_Power_Couple.mp4</pathurl>
							<rate>
								<timebase>25</timebase>
								<ntsc>FALSE</ntsc>
							</rate>
							<duration>86118</duration>
							<timecode>
								<rate>
									<timebase>25</timebase>
									<ntsc>FALSE</ntsc>
								</rate>
								<string>00:00:00:00</string>
								<frame>0</frame>
								<displayformat>NDF</displayformat>
							</timecode>
							<media>
								<video>
									<samplecharacteristics>
										<rate>
											<timebase>25</timebase>
											<ntsc>FALSE</ntsc>
										</rate>
										<width>1920</width>
										<height>1080</height>
										<anamorphic>FALSE</anamorphic>
										<pixelaspectratio>square</pixelaspectratio>
										<fielddominance>none</fielddominance>
									</samplecharacteristics>
								</video>
								<audio>
									<samplecharacteristics>
										<depth>16</depth>
										<samplerate>44100</samplerate>
									</samplecharacteristics>
									<channelcount>2</channelcount>
								</audio>
							</media>
						</file>
						<link>
							<linkclipref>clipitem-87</linkclipref>
							<mediatype>video</mediatype>
							<trackindex>1</trackindex>
							<clipindex>3</clipindex>
						</link>
						<link>
							<linkclipref>clipitem-95</linkclipref>
							<mediatype>audio</mediatype>
							<trackindex>1</trackindex>
							<clipindex>3</clipindex>
							<groupindex>1</groupindex>
						</link>
						<link>
							<linkclipref>clipitem-103</linkclipref>
							<mediatype>audio</mediatype>
							<trackindex>2</trackindex>
							<clipindex>3</clipindex>
							<groupindex>1</groupindex>
						</link>
						<logginginfo>
							<description />
							<scene />
							<shottake />
							<lognote />
							<good />
							<originalvideofilename />
							<originalaudiofilename />
						</logginginfo>
						<colorinfo>
							<lut />
							<lut1 />
							<asc_sop />
							<asc_sat />
							<lut2 />
						</colorinfo>
					<labels><label2>Caribbean</label2></labels></clipitem>
					<clipitem id="clipitem-88">
						<masterclipid>clipitem-4-204</masterclipid>
						<name>Travis_Kelce_ANNOUNCE_WEDDING_DATE_with_Taylor_Swift_Why_He_was_Delaying_all_Along.mp4</name>
						<enabled>TRUE</enabled>
						<duration>150</duration>
						<rate>
							<timebase>25</timebase>
							<ntsc>FALSE</ntsc>
						</rate>
						<start>68100</start>
						<end>68250</end>
						<in>30450</in>
						<out>30600</out>
						<pproTicksIn>0</pproTicksIn>
						<pproTicksOut>419410897920000</pproTicksOut>
						<alphatype>none</alphatype>
						<pixelaspectratio>square</pixelaspectratio>
						<anamorphic>FALSE</anamorphic>
						<file id="file-32">
							<name>Travis_Kelce_ANNOUNCE_WEDDING_DATE_with_Taylor_Swift_Why_He_was_Delaying_all_Along.mp4</name>
							<pathurl>file://localhost/Users/themalikano/Documents/VideoAutomation/premiere_videos/Travis_Kelce_ANNOUNCE_WEDDING_DATE_with_Taylor_Swift_Why_He_was_Delaying_all_Along.mp4</pathurl>
							<rate>
								<timebase>24</timebase>
								<ntsc>FALSE</ntsc>
							</rate>
							<duration>39627</duration>
							<timecode>
								<rate>
									<timebase>24</timebase>
									<ntsc>FALSE</ntsc>
								</rate>
								<string>00:00:00:00</string>
								<frame>0</frame>
								<displayformat>NDF</displayformat>
							</timecode>
							<media>
								<video>
									<samplecharacteristics>
										<rate>
											<timebase>24</timebase>
											<ntsc>FALSE</ntsc>
										</rate>
										<width>852</width>
										<height>480</height>
										<anamorphic>FALSE</anamorphic>
										<pixelaspectratio>square</pixelaspectratio>
										<fielddominance>none</fielddominance>
									</samplecharacteristics>
								</video>
								<audio>
									<samplecharacteristics>
										<depth>16</depth>
										<samplerate>44100</samplerate>
									</samplecharacteristics>
									<channelcount>2</channelcount>
								</audio>
							</media>
						</file>
						<filter>
							<effect>
								<name>Basic Motion</name>
								<effectid>basic</effectid>
								<effectcategory>motion</effectcategory>
								<effecttype>motion</effecttype>
								<mediatype>video</mediatype>
								<pproBypass>false</pproBypass>
								<parameter authoringApp="PremierePro">
									<parameterid>scale</parameterid>
									<name>Scale</name>
									<valuemin>0</valuemin>
									<valuemax>1000</valuemax>
									<value>225</value>
								</parameter>
								<parameter authoringApp="PremierePro">
									<parameterid>rotation</parameterid>
									<name>Rotation</name>
									<valuemin>-8640</valuemin>
									<valuemax>8640</valuemax>
									<value>0</value>
								</parameter>
								<parameter authoringApp="PremierePro">
									<parameterid>center</parameterid>
									<name>Center</name>
									<value>
										<horiz>0</horiz>
										<vert>0</vert>
									</value>
								</parameter>
								<parameter authoringApp="PremierePro">
									<parameterid>centerOffset</parameterid>
									<name>Anchor Point</name>
									<value>
										<horiz>0</horiz>
										<vert>0</vert>
									</value>
								</parameter>
								<parameter authoringApp="PremierePro">
									<parameterid>antiflicker</parameterid>
									<name>Anti-flicker Filter</name>
									<valuemin>0.0</valuemin>
									<valuemax>1.0</valuemax>
									<value>0</value>
								</parameter>
							</effect>
						</filter>
						<link>
							<linkclipref>clipitem-88</linkclipref>
							<mediatype>video</mediatype>
							<trackindex>1</trackindex>
							<clipindex>4</clipindex>
						</link>
						<link>
							<linkclipref>clipitem-96</linkclipref>
							<mediatype>audio</mediatype>
							<trackindex>1</trackindex>
							<clipindex>4</clipindex>
							<groupindex>1</groupindex>
						</link>
						<link>
							<linkclipref>clipitem-104</linkclipref>
							<mediatype>audio</mediatype>
							<trackindex>2</trackindex>
							<clipindex>4</clipindex>
							<groupindex>1</groupindex>
						</link>
						<logginginfo>
							<description />
							<scene />
							<shottake />
							<lognote />
							<good />
							<originalvideofilename />
							<originalaudiofilename />
						</logginginfo>
						<colorinfo>
							<lut />
							<lut1 />
							<asc_sop />
							<asc_sat />
							<lut2 />
						</colorinfo>
					<labels><label2>Lavender</label2></labels></clipitem>
					<clipitem id="clipitem-90">
						<masterclipid>clipitem-6-87</masterclipid>
						<name>Travis_Kelce_talks_about_postponing_his_wedding_to_Fiance_Taylor_Swift_on_the_New_Heights_Podcast.mp4</name>
						<enabled>TRUE</enabled>
						<duration>150</duration>
						<rate>
							<timebase>25</timebase>
							<ntsc>FALSE</ntsc>
						</rate>
						<start>68250</start>
						<end>68400</end>
						<in>12900</in>
						<out>13050</out>
						<pproTicksIn>0</pproTicksIn>
						<pproTicksOut>149391889920000</pproTicksOut>
						<alphatype>none</alphatype>
						<pixelaspectratio>square</pixelaspectratio>
						<anamorphic>FALSE</anamorphic>
						<file id="file-34">
							<name>Travis_Kelce_talks_about_postponing_his_wedding_to_Fiance_Taylor_Swift_on_the_New_Heights_Podcast.mp4</name>
							<pathurl>file://localhost/Users/themalikano/Documents/VideoAutomation/premiere_videos/Travis_Kelce_talks_about_postponing_his_wedding_to_Fiance_Taylor_Swift_on_the_New_Heights_Podcast.mp4</pathurl>
							<rate>
								<timebase>30</timebase>
								<ntsc>FALSE</ntsc>
							</rate>
							<duration>17644</duration>
							<timecode>
								<rate>
									<timebase>30</timebase>
									<ntsc>FALSE</ntsc>
								</rate>
								<string>00:00:00:00</string>
								<frame>0</frame>
								<displayformat>NDF</displayformat>
							</timecode>
							<media>
								<video>
									<samplecharacteristics>
										<rate>
											<timebase>30</timebase>
											<ntsc>FALSE</ntsc>
										</rate>
										<width>1920</width>
										<height>1080</height>
										<anamorphic>FALSE</anamorphic>
										<pixelaspectratio>square</pixelaspectratio>
										<fielddominance>none</fielddominance>
									</samplecharacteristics>
								</video>
								<audio>
									<samplecharacteristics>
										<depth>16</depth>
										<samplerate>44100</samplerate>
									</samplecharacteristics>
									<channelcount>2</channelcount>
								</audio>
							</media>
						</file>
						<link>
							<linkclipref>clipitem-90</linkclipref>
							<mediatype>video</mediatype>
							<trackindex>1</trackindex>
							<clipindex>6</clipindex>
						</link>
						<link>
							<linkclipref>clipitem-98</linkclipref>
							<mediatype>audio</mediatype>
							<trackindex>1</trackindex>
							<clipindex>6</clipindex>
							<groupindex>1</groupindex>
						</link>
						<link>
							<linkclipref>clipitem-106</linkclipref>
							<mediatype>audio</mediatype>
							<trackindex>2</trackindex>
							<clipindex>6</clipindex>
							<groupindex>1</groupindex>
						</link>
						<logginginfo>
							<description />
							<scene />
							<shottake />
							<lognote />
							<good />
							<originalvideofilename />
							<originalaudiofilename />
						</logginginfo>
						<colorinfo>
							<lut />
							<lut1 />
							<asc_sop />
							<asc_sat />
							<lut2 />
						</colorinfo>
					<labels><label2>Forest</label2></labels></clipitem>
					<clipitem id="clipitem-87">
						<masterclipid>clipitem-3-192</masterclipid>
						<name>Taylor_Swift_Travis_Kelce_-_The_New_Power_Couple.mp4</name>
						<enabled>TRUE</enabled>
						<duration>150</duration>
						<rate>
							<timebase>25</timebase>
							<ntsc>FALSE</ntsc>
						</rate>
						<start>68400</start>
						<end>68550</end>
						<in>28650</in>
						<out>28800</out>
						<pproTicksIn>0</pproTicksIn>
						<pproTicksOut>875013995520000</pproTicksOut>
						<alphatype>none</alphatype>
						<pixelaspectratio>square</pixelaspectratio>
						<anamorphic>FALSE</anamorphic>
						<file id="file-31">
							<name>Taylor_Swift_Travis_Kelce_-_The_New_Power_Couple.mp4</name>
							<pathurl>file://localhost/Users/themalikano/Documents/VideoAutomation/premiere_videos/Taylor_Swift_Travis_Kelce_-_The_New_Power_Couple.mp4</pathurl>
							<rate>
								<timebase>25</timebase>
								<ntsc>FALSE</ntsc>
							</rate>
							<duration>86118</duration>
							<timecode>
								<rate>
									<timebase>25</timebase>
									<ntsc>FALSE</ntsc>
								</rate>
								<string>00:00:00:00</string>
								<frame>0</frame>
								<displayformat>NDF</displayformat>
							</timecode>
							<media>
								<video>
									<samplecharacteristics>
										<rate>
											<timebase>25</timebase>
											<ntsc>FALSE</ntsc>
										</rate>
										<width>1920</width>
										<height>1080</height>
										<anamorphic>FALSE</anamorphic>
										<pixelaspectratio>square</pixelaspectratio>
										<fielddominance>none</fielddominance>
									</samplecharacteristics>
								</video>
								<audio>
									<samplecharacteristics>
										<depth>16</depth>
										<samplerate>44100</samplerate>
									</samplecharacteristics>
									<channelcount>2</channelcount>
								</audio>
							</media>
						</file>
						<link>
							<linkclipref>clipitem-87</linkclipref>
							<mediatype>video</mediatype>
							<trackindex>1</trackindex>
							<clipindex>3</clipindex>
						</link>
						<link>
							<linkclipref>clipitem-95</linkclipref>
							<mediatype>audio</mediatype>
							<trackindex>1</trackindex>
							<clipindex>3</clipindex>
							<groupindex>1</groupindex>
						</link>
						<link>
							<linkclipref>clipitem-103</linkclipref>
							<mediatype>audio</mediatype>
							<trackindex>2</trackindex>
							<clipindex>3</clipindex>
							<groupindex>1</groupindex>
						</link>
						<logginginfo>
							<description />
							<scene />
							<shottake />
							<lognote />
							<good />
							<originalvideofilename />
							<originalaudiofilename />
						</logginginfo>
						<colorinfo>
							<lut />
							<lut1 />
							<asc_sop />
							<asc_sat />
							<lut2 />
						</colorinfo>
					<labels><label2>Caribbean</label2></labels></clipitem>
					<clipitem id="clipitem-88">
						<masterclipid>clipitem-4-28</masterclipid>
						<name>Travis_Kelce_ANNOUNCE_WEDDING_DATE_with_Taylor_Swift_Why_He_was_Delaying_all_Along.mp4</name>
						<enabled>TRUE</enabled>
						<duration>150</duration>
						<rate>
							<timebase>25</timebase>
							<ntsc>FALSE</ntsc>
						</rate>
						<start>68550</start>
						<end>68700</end>
						<in>4050</in>
						<out>4200</out>
						<pproTicksIn>0</pproTicksIn>
						<pproTicksOut>419410897920000</pproTicksOut>
						<alphatype>none</alphatype>
						<pixelaspectratio>square</pixelaspectratio>
						<anamorphic>FALSE</anamorphic>
						<file id="file-32">
							<name>Travis_Kelce_ANNOUNCE_WEDDING_DATE_with_Taylor_Swift_Why_He_was_Delaying_all_Along.mp4</name>
							<pathurl>file://localhost/Users/themalikano/Documents/VideoAutomation/premiere_videos/Travis_Kelce_ANNOUNCE_WEDDING_DATE_with_Taylor_Swift_Why_He_was_Delaying_all_Along.mp4</pathurl>
							<rate>
								<timebase>24</timebase>
								<ntsc>FALSE</ntsc>
							</rate>
							<duration>39627</duration>
							<timecode>
								<rate>
									<timebase>24</timebase>
									<ntsc>FALSE</ntsc>
								</rate>
								<string>00:00:00:00</string>
								<frame>0</frame>
								<displayformat>NDF</displayformat>
							</timecode>
							<media>
								<video>
									<samplecharacteristics>
										<rate>
											<timebase>24</timebase>
											<ntsc>FALSE</ntsc>
										</rate>
										<width>852</width>
										<height>480</height>
										<anamorphic>FALSE</anamorphic>
										<pixelaspectratio>square</pixelaspectratio>
										<fielddominance>none</fielddominance>
									</samplecharacteristics>
								</video>
								<audio>
									<samplecharacteristics>
										<depth>16</depth>
										<samplerate>44100</samplerate>
									</samplecharacteristics>
									<channelcount>2</channelcount>
								</audio>
							</media>
						</file>
						<filter>
							<effect>
								<name>Basic Motion</name>
								<effectid>basic</effectid>
								<effectcategory>motion</effectcategory>
								<effecttype>motion</effecttype>
								<mediatype>video</mediatype>
								<pproBypass>false</pproBypass>
								<parameter authoringApp="PremierePro">
									<parameterid>scale</parameterid>
									<name>Scale</name>
									<valuemin>0</valuemin>
									<valuemax>1000</valuemax>
									<value>225</value>
								</parameter>
								<parameter authoringApp="PremierePro">
									<parameterid>rotation</parameterid>
									<name>Rotation</name>
									<valuemin>-8640</valuemin>
									<valuemax>8640</valuemax>
									<value>0</value>
								</parameter>
								<parameter authoringApp="PremierePro">
									<parameterid>center</parameterid>
									<name>Center</name>
									<value>
										<horiz>0</horiz>
										<vert>0</vert>
									</value>
								</parameter>
								<parameter authoringApp="PremierePro">
									<parameterid>centerOffset</parameterid>
									<name>Anchor Point</name>
									<value>
										<horiz>0</horiz>
										<vert>0</vert>
									</value>
								</parameter>
								<parameter authoringApp="PremierePro">
									<parameterid>antiflicker</parameterid>
									<name>Anti-flicker Filter</name>
									<valuemin>0.0</valuemin>
									<valuemax>1.0</valuemax>
									<value>0</value>
								</parameter>
							</effect>
						</filter>
						<link>
							<linkclipref>clipitem-88</linkclipref>
							<mediatype>video</mediatype>
							<trackindex>1</trackindex>
							<clipindex>4</clipindex>
						</link>
						<link>
							<linkclipref>clipitem-96</linkclipref>
							<mediatype>audio</mediatype>
							<trackindex>1</trackindex>
							<clipindex>4</clipindex>
							<groupindex>1</groupindex>
						</link>
						<link>
							<linkclipref>clipitem-104</linkclipref>
							<mediatype>audio</mediatype>
							<trackindex>2</trackindex>
							<clipindex>4</clipindex>
							<groupindex>1</groupindex>
						</link>
						<logginginfo>
							<description />
							<scene />
							<shottake />
							<lognote />
							<good />
							<originalvideofilename />
							<originalaudiofilename />
						</logginginfo>
						<colorinfo>
							<lut />
							<lut1 />
							<asc_sop />
							<asc_sat />
							<lut2 />
						</colorinfo>
					<labels><label2>Lavender</label2></labels></clipitem>
					<clipitem id="clipitem-90">
						<masterclipid>clipitem-6-13</masterclipid>
						<name>Travis_Kelce_talks_about_postponing_his_wedding_to_Fiance_Taylor_Swift_on_the_New_Heights_Podcast.mp4</name>
						<enabled>TRUE</enabled>
						<duration>150</duration>
						<rate>
							<timebase>25</timebase>
							<ntsc>FALSE</ntsc>
						</rate>
						<start>68700</start>
						<end>68850</end>
						<in>1800</in>
						<out>1950</out>
						<pproTicksIn>0</pproTicksIn>
						<pproTicksOut>149391889920000</pproTicksOut>
						<alphatype>none</alphatype>
						<pixelaspectratio>square</pixelaspectratio>
						<anamorphic>FALSE</anamorphic>
						<file id="file-34">
							<name>Travis_Kelce_talks_about_postponing_his_wedding_to_Fiance_Taylor_Swift_on_the_New_Heights_Podcast.mp4</name>
							<pathurl>file://localhost/Users/themalikano/Documents/VideoAutomation/premiere_videos/Travis_Kelce_talks_about_postponing_his_wedding_to_Fiance_Taylor_Swift_on_the_New_Heights_Podcast.mp4</pathurl>
							<rate>
								<timebase>30</timebase>
								<ntsc>FALSE</ntsc>
							</rate>
							<duration>17644</duration>
							<timecode>
								<rate>
									<timebase>30</timebase>
									<ntsc>FALSE</ntsc>
								</rate>
								<string>00:00:00:00</string>
								<frame>0</frame>
								<displayformat>NDF</displayformat>
							</timecode>
							<media>
								<video>
									<samplecharacteristics>
										<rate>
											<timebase>30</timebase>
											<ntsc>FALSE</ntsc>
										</rate>
										<width>1920</width>
										<height>1080</height>
										<anamorphic>FALSE</anamorphic>
										<pixelaspectratio>square</pixelaspectratio>
										<fielddominance>none</fielddominance>
									</samplecharacteristics>
								</video>
								<audio>
									<samplecharacteristics>
										<depth>16</depth>
										<samplerate>44100</samplerate>
									</samplecharacteristics>
									<channelcount>2</channelcount>
								</audio>
							</media>
						</file>
						<link>
							<linkclipref>clipitem-90</linkclipref>
							<mediatype>video</mediatype>
							<trackindex>1</trackindex>
							<clipindex>6</clipindex>
						</link>
						<link>
							<linkclipref>clipitem-98</linkclipref>
							<mediatype>audio</mediatype>
							<trackindex>1</trackindex>
							<clipindex>6</clipindex>
							<groupindex>1</groupindex>
						</link>
						<link>
							<linkclipref>clipitem-106</linkclipref>
							<mediatype>audio</mediatype>
							<trackindex>2</trackindex>
							<clipindex>6</clipindex>
							<groupindex>1</groupindex>
						</link>
						<logginginfo>
							<description />
							<scene />
							<shottake />
							<lognote />
							<good />
							<originalvideofilename />
							<originalaudiofilename />
						</logginginfo>
						<colorinfo>
							<lut />
							<lut1 />
							<asc_sop />
							<asc_sat />
							<lut2 />
						</colorinfo>
					<labels><label2>Forest</label2></labels></clipitem>
					<clipitem id="clipitem-87">
						<masterclipid>clipitem-3-557</masterclipid>
						<name>Taylor_Swift_Travis_Kelce_-_The_New_Power_Couple.mp4</name>
						<enabled>TRUE</enabled>
						<duration>150</duration>
						<rate>
							<timebase>25</timebase>
							<ntsc>FALSE</ntsc>
						</rate>
						<start>68850</start>
						<end>69000</end>
						<in>83400</in>
						<out>83550</out>
						<pproTicksIn>0</pproTicksIn>
						<pproTicksOut>875013995520000</pproTicksOut>
						<alphatype>none</alphatype>
						<pixelaspectratio>square</pixelaspectratio>
						<anamorphic>FALSE</anamorphic>
						<file id="file-31">
							<name>Taylor_Swift_Travis_Kelce_-_The_New_Power_Couple.mp4</name>
							<pathurl>file://localhost/Users/themalikano/Documents/VideoAutomation/premiere_videos/Taylor_Swift_Travis_Kelce_-_The_New_Power_Couple.mp4</pathurl>
							<rate>
								<timebase>25</timebase>
								<ntsc>FALSE</ntsc>
							</rate>
							<duration>86118</duration>
							<timecode>
								<rate>
									<timebase>25</timebase>
									<ntsc>FALSE</ntsc>
								</rate>
								<string>00:00:00:00</string>
								<frame>0</frame>
								<displayformat>NDF</displayformat>
							</timecode>
							<media>
								<video>
									<samplecharacteristics>
										<rate>
											<timebase>25</timebase>
											<ntsc>FALSE</ntsc>
										</rate>
										<width>1920</width>
										<height>1080</height>
										<anamorphic>FALSE</anamorphic>
										<pixelaspectratio>square</pixelaspectratio>
										<fielddominance>none</fielddominance>
									</samplecharacteristics>
								</video>
								<audio>
									<samplecharacteristics>
										<depth>16</depth>
										<samplerate>44100</samplerate>
									</samplecharacteristics>
									<channelcount>2</channelcount>
								</audio>
							</media>
						</file>
						<link>
							<linkclipref>clipitem-87</linkclipref>
							<mediatype>video</mediatype>
							<trackindex>1</trackindex>
							<clipindex>3</clipindex>
						</link>
						<link>
							<linkclipref>clipitem-95</linkclipref>
							<mediatype>audio</mediatype>
							<trackindex>1</trackindex>
							<clipindex>3</clipindex>
							<groupindex>1</groupindex>
						</link>
						<link>
							<linkclipref>clipitem-103</linkclipref>
							<mediatype>audio</mediatype>
							<trackindex>2</trackindex>
							<clipindex>3</clipindex>
							<groupindex>1</groupindex>
						</link>
						<logginginfo>
							<description />
							<scene />
							<shottake />
							<lognote />
							<good />
							<originalvideofilename />
							<originalaudiofilename />
						</logginginfo>
						<colorinfo>
							<lut />
							<lut1 />
							<asc_sop />
							<asc_sat />
							<lut2 />
						</colorinfo>
					<labels><label2>Caribbean</label2></labels></clipitem>
					<clipitem id="clipitem-90">
						<masterclipid>clipitem-6-83</masterclipid>
						<name>Travis_Kelce_talks_about_postponing_his_wedding_to_Fiance_Taylor_Swift_on_the_New_Heights_Podcast.mp4</name>
						<enabled>TRUE</enabled>
						<duration>150</duration>
						<rate>
							<timebase>25</timebase>
							<ntsc>FALSE</ntsc>
						</rate>
						<start>69000</start>
						<end>69150</end>
						<in>12300</in>
						<out>12450</out>
						<pproTicksIn>0</pproTicksIn>
						<pproTicksOut>149391889920000</pproTicksOut>
						<alphatype>none</alphatype>
						<pixelaspectratio>square</pixelaspectratio>
						<anamorphic>FALSE</anamorphic>
						<file id="file-34">
							<name>Travis_Kelce_talks_about_postponing_his_wedding_to_Fiance_Taylor_Swift_on_the_New_Heights_Podcast.mp4</name>
							<pathurl>file://localhost/Users/themalikano/Documents/VideoAutomation/premiere_videos/Travis_Kelce_talks_about_postponing_his_wedding_to_Fiance_Taylor_Swift_on_the_New_Heights_Podcast.mp4</pathurl>
							<rate>
								<timebase>30</timebase>
								<ntsc>FALSE</ntsc>
							</rate>
							<duration>17644</duration>
							<timecode>
								<rate>
									<timebase>30</timebase>
									<ntsc>FALSE</ntsc>
								</rate>
								<string>00:00:00:00</string>
								<frame>0</frame>
								<displayformat>NDF</displayformat>
							</timecode>
							<media>
								<video>
									<samplecharacteristics>
										<rate>
											<timebase>30</timebase>
											<ntsc>FALSE</ntsc>
										</rate>
										<width>1920</width>
										<height>1080</height>
										<anamorphic>FALSE</anamorphic>
										<pixelaspectratio>square</pixelaspectratio>
										<fielddominance>none</fielddominance>
									</samplecharacteristics>
								</video>
								<audio>
									<samplecharacteristics>
										<depth>16</depth>
										<samplerate>44100</samplerate>
									</samplecharacteristics>
									<channelcount>2</channelcount>
								</audio>
							</media>
						</file>
						<link>
							<linkclipref>clipitem-90</linkclipref>
							<mediatype>video</mediatype>
							<trackindex>1</trackindex>
							<clipindex>6</clipindex>
						</link>
						<link>
							<linkclipref>clipitem-98</linkclipref>
							<mediatype>audio</mediatype>
							<trackindex>1</trackindex>
							<clipindex>6</clipindex>
							<groupindex>1</groupindex>
						</link>
						<link>
							<linkclipref>clipitem-106</linkclipref>
							<mediatype>audio</mediatype>
							<trackindex>2</trackindex>
							<clipindex>6</clipindex>
							<groupindex>1</groupindex>
						</link>
						<logginginfo>
							<description />
							<scene />
							<shottake />
							<lognote />
							<good />
							<originalvideofilename />
							<originalaudiofilename />
						</logginginfo>
						<colorinfo>
							<lut />
							<lut1 />
							<asc_sop />
							<asc_sat />
							<lut2 />
						</colorinfo>
					<labels><label2>Forest</label2></labels></clipitem>
					<clipitem id="clipitem-87">
						<masterclipid>clipitem-3-189</masterclipid>
						<name>Taylor_Swift_Travis_Kelce_-_The_New_Power_Couple.mp4</name>
						<enabled>TRUE</enabled>
						<duration>150</duration>
						<rate>
							<timebase>25</timebase>
							<ntsc>FALSE</ntsc>
						</rate>
						<start>69150</start>
						<end>69300</end>
						<in>28200</in>
						<out>28350</out>
						<pproTicksIn>0</pproTicksIn>
						<pproTicksOut>875013995520000</pproTicksOut>
						<alphatype>none</alphatype>
						<pixelaspectratio>square</pixelaspectratio>
						<anamorphic>FALSE</anamorphic>
						<file id="file-31">
							<name>Taylor_Swift_Travis_Kelce_-_The_New_Power_Couple.mp4</name>
							<pathurl>file://localhost/Users/themalikano/Documents/VideoAutomation/premiere_videos/Taylor_Swift_Travis_Kelce_-_The_New_Power_Couple.mp4</pathurl>
							<rate>
								<timebase>25</timebase>
								<ntsc>FALSE</ntsc>
							</rate>
							<duration>86118</duration>
							<timecode>
								<rate>
									<timebase>25</timebase>
									<ntsc>FALSE</ntsc>
								</rate>
								<string>00:00:00:00</string>
								<frame>0</frame>
								<displayformat>NDF</displayformat>
							</timecode>
							<media>
								<video>
									<samplecharacteristics>
										<rate>
											<timebase>25</timebase>
											<ntsc>FALSE</ntsc>
										</rate>
										<width>1920</width>
										<height>1080</height>
										<anamorphic>FALSE</anamorphic>
										<pixelaspectratio>square</pixelaspectratio>
										<fielddominance>none</fielddominance>
									</samplecharacteristics>
								</video>
								<audio>
									<samplecharacteristics>
										<depth>16</depth>
										<samplerate>44100</samplerate>
									</samplecharacteristics>
									<channelcount>2</channelcount>
								</audio>
							</media>
						</file>
						<link>
							<linkclipref>clipitem-87</linkclipref>
							<mediatype>video</mediatype>
							<trackindex>1</trackindex>
							<clipindex>3</clipindex>
						</link>
						<link>
							<linkclipref>clipitem-95</linkclipref>
							<mediatype>audio</mediatype>
							<trackindex>1</trackindex>
							<clipindex>3</clipindex>
							<groupindex>1</groupindex>
						</link>
						<link>
							<linkclipref>clipitem-103</linkclipref>
							<mediatype>audio</mediatype>
							<trackindex>2</trackindex>
							<clipindex>3</clipindex>
							<groupindex>1</groupindex>
						</link>
						<logginginfo>
							<description />
							<scene />
							<shottake />
							<lognote />
							<good />
							<originalvideofilename />
							<originalaudiofilename />
						</logginginfo>
						<colorinfo>
							<lut />
							<lut1 />
							<asc_sop />
							<asc_sat />
							<lut2 />
						</colorinfo>
					<labels><label2>Caribbean</label2></labels></clipitem>
					<clipitem id="clipitem-86">
						<masterclipid>clipitem-2-48</masterclipid>
						<name>Taylor_Swift_Shares_The_Story_Of_Calling_Travis_Kelce_For_The_First_Time.mp4</name>
						<enabled>TRUE</enabled>
						<duration>150</duration>
						<rate>
							<timebase>25</timebase>
							<ntsc>FALSE</ntsc>
						</rate>
						<start>69300</start>
						<end>69450</end>
						<in>7050</in>
						<out>7200</out>
						<pproTicksIn>0</pproTicksIn>
						<pproTicksOut>236438092800000</pproTicksOut>
						<alphatype>none</alphatype>
						<pixelaspectratio>square</pixelaspectratio>
						<anamorphic>FALSE</anamorphic>
						<file id="file-30">
							<name>Taylor_Swift_Shares_The_Story_Of_Calling_Travis_Kelce_For_The_First_Time.mp4</name>
							<pathurl>file://localhost/Users/themalikano/Documents/VideoAutomation/premiere_videos/Taylor_Swift_Shares_The_Story_Of_Calling_Travis_Kelce_For_The_First_Time.mp4</pathurl>
							<rate>
								<timebase>30</timebase>
								<ntsc>TRUE</ntsc>
							</rate>
							<duration>27897</duration>
							<timecode>
								<rate>
									<timebase>30</timebase>
									<ntsc>TRUE</ntsc>
								</rate>
								<string>00:00:00:00</string>
								<frame>0</frame>
								<displayformat>NDF</displayformat>
							</timecode>
							<media>
								<video>
									<samplecharacteristics>
										<rate>
											<timebase>30</timebase>
											<ntsc>TRUE</ntsc>
										</rate>
										<width>1920</width>
										<height>1080</height>
										<anamorphic>FALSE</anamorphic>
										<pixelaspectratio>square</pixelaspectratio>
										<fielddominance>none</fielddominance>
									</samplecharacteristics>
								</video>
								<audio>
									<samplecharacteristics>
										<depth>16</depth>
										<samplerate>44100</samplerate>
									</samplecharacteristics>
									<channelcount>2</channelcount>
								</audio>
							</media>
						</file>
						<link>
							<linkclipref>clipitem-86</linkclipref>
							<mediatype>video</mediatype>
							<trackindex>1</trackindex>
							<clipindex>2</clipindex>
						</link>
						<link>
							<linkclipref>clipitem-94</linkclipref>
							<mediatype>audio</mediatype>
							<trackindex>1</trackindex>
							<clipindex>2</clipindex>
							<groupindex>1</groupindex>
						</link>
						<link>
							<linkclipref>clipitem-102</linkclipref>
							<mediatype>audio</mediatype>
							<trackindex>2</trackindex>
							<clipindex>2</clipindex>
							<groupindex>1</groupindex>
						</link>
						<logginginfo>
							<description />
							<scene />
							<shottake />
							<lognote />
							<good />
							<originalvideofilename />
							<originalaudiofilename />
						</logginginfo>
						<colorinfo>
							<lut />
							<lut1 />
							<asc_sop />
							<asc_sat />
							<lut2 />
						</colorinfo>
					<labels><label2>Iris</label2></labels></clipitem>
					<clipitem id="clipitem-88">
						<masterclipid>clipitem-4-1</masterclipid>
						<name>Travis_Kelce_ANNOUNCE_WEDDING_DATE_with_Taylor_Swift_Why_He_was_Delaying_all_Along.mp4</name>
						<enabled>TRUE</enabled>
						<duration>150</duration>
						<rate>
							<timebase>25</timebase>
							<ntsc>FALSE</ntsc>
						</rate>
						<start>69450</start>
						<end>69600</end>
						<in>0</in>
						<out>150</out>
						<pproTicksIn>0</pproTicksIn>
						<pproTicksOut>419410897920000</pproTicksOut>
						<alphatype>none</alphatype>
						<pixelaspectratio>square</pixelaspectratio>
						<anamorphic>FALSE</anamorphic>
						<file id="file-32">
							<name>Travis_Kelce_ANNOUNCE_WEDDING_DATE_with_Taylor_Swift_Why_He_was_Delaying_all_Along.mp4</name>
							<pathurl>file://localhost/Users/themalikano/Documents/VideoAutomation/premiere_videos/Travis_Kelce_ANNOUNCE_WEDDING_DATE_with_Taylor_Swift_Why_He_was_Delaying_all_Along.mp4</pathurl>
							<rate>
								<timebase>24</timebase>
								<ntsc>FALSE</ntsc>
							</rate>
							<duration>39627</duration>
							<timecode>
								<rate>
									<timebase>24</timebase>
									<ntsc>FALSE</ntsc>
								</rate>
								<string>00:00:00:00</string>
								<frame>0</frame>
								<displayformat>NDF</displayformat>
							</timecode>
							<media>
								<video>
									<samplecharacteristics>
										<rate>
											<timebase>24</timebase>
											<ntsc>FALSE</ntsc>
										</rate>
										<width>852</width>
										<height>480</height>
										<anamorphic>FALSE</anamorphic>
										<pixelaspectratio>square</pixelaspectratio>
										<fielddominance>none</fielddominance>
									</samplecharacteristics>
								</video>
								<audio>
									<samplecharacteristics>
										<depth>16</depth>
										<samplerate>44100</samplerate>
									</samplecharacteristics>
									<channelcount>2</channelcount>
								</audio>
							</media>
						</file>
						<filter>
							<effect>
								<name>Basic Motion</name>
								<effectid>basic</effectid>
								<effectcategory>motion</effectcategory>
								<effecttype>motion</effecttype>
								<mediatype>video</mediatype>
								<pproBypass>false</pproBypass>
								<parameter authoringApp="PremierePro">
									<parameterid>scale</parameterid>
									<name>Scale</name>
									<valuemin>0</valuemin>
									<valuemax>1000</valuemax>
									<value>225</value>
								</parameter>
								<parameter authoringApp="PremierePro">
									<parameterid>rotation</parameterid>
									<name>Rotation</name>
									<valuemin>-8640</valuemin>
									<valuemax>8640</valuemax>
									<value>0</value>
								</parameter>
								<parameter authoringApp="PremierePro">
									<parameterid>center</parameterid>
									<name>Center</name>
									<value>
										<horiz>0</horiz>
										<vert>0</vert>
									</value>
								</parameter>
								<parameter authoringApp="PremierePro">
									<parameterid>centerOffset</parameterid>
									<name>Anchor Point</name>
									<value>
										<horiz>0</horiz>
										<vert>0</vert>
									</value>
								</parameter>
								<parameter authoringApp="PremierePro">
									<parameterid>antiflicker</parameterid>
									<name>Anti-flicker Filter</name>
									<valuemin>0.0</valuemin>
									<valuemax>1.0</valuemax>
									<value>0</value>
								</parameter>
							</effect>
						</filter>
						<link>
							<linkclipref>clipitem-88</linkclipref>
							<mediatype>video</mediatype>
							<trackindex>1</trackindex>
							<clipindex>4</clipindex>
						</link>
						<link>
							<linkclipref>clipitem-96</linkclipref>
							<mediatype>audio</mediatype>
							<trackindex>1</trackindex>
							<clipindex>4</clipindex>
							<groupindex>1</groupindex>
						</link>
						<link>
							<linkclipref>clipitem-104</linkclipref>
							<mediatype>audio</mediatype>
							<trackindex>2</trackindex>
							<clipindex>4</clipindex>
							<groupindex>1</groupindex>
						</link>
						<logginginfo>
							<description />
							<scene />
							<shottake />
							<lognote />
							<good />
							<originalvideofilename />
							<originalaudiofilename />
						</logginginfo>
						<colorinfo>
							<lut />
							<lut1 />
							<asc_sop />
							<asc_sat />
							<lut2 />
						</colorinfo>
					<labels><label2>Lavender</label2></labels></clipitem>
					<clipitem id="clipitem-86">
						<masterclipid>clipitem-2-149</masterclipid>
						<name>Taylor_Swift_Shares_The_Story_Of_Calling_Travis_Kelce_For_The_First_Time.mp4</name>
						<enabled>TRUE</enabled>
						<duration>150</duration>
						<rate>
							<timebase>25</timebase>
							<ntsc>FALSE</ntsc>
						</rate>
						<start>69600</start>
						<end>69750</end>
						<in>22200</in>
						<out>22350</out>
						<pproTicksIn>0</pproTicksIn>
						<pproTicksOut>236438092800000</pproTicksOut>
						<alphatype>none</alphatype>
						<pixelaspectratio>square</pixelaspectratio>
						<anamorphic>FALSE</anamorphic>
						<file id="file-30">
							<name>Taylor_Swift_Shares_The_Story_Of_Calling_Travis_Kelce_For_The_First_Time.mp4</name>
							<pathurl>file://localhost/Users/themalikano/Documents/VideoAutomation/premiere_videos/Taylor_Swift_Shares_The_Story_Of_Calling_Travis_Kelce_For_The_First_Time.mp4</pathurl>
							<rate>
								<timebase>30</timebase>
								<ntsc>TRUE</ntsc>
							</rate>
							<duration>27897</duration>
							<timecode>
								<rate>
									<timebase>30</timebase>
									<ntsc>TRUE</ntsc>
								</rate>
								<string>00:00:00:00</string>
								<frame>0</frame>
								<displayformat>NDF</displayformat>
							</timecode>
							<media>
								<video>
									<samplecharacteristics>
										<rate>
											<timebase>30</timebase>
											<ntsc>TRUE</ntsc>
										</rate>
										<width>1920</width>
										<height>1080</height>
										<anamorphic>FALSE</anamorphic>
										<pixelaspectratio>square</pixelaspectratio>
										<fielddominance>none</fielddominance>
									</samplecharacteristics>
								</video>
								<audio>
									<samplecharacteristics>
										<depth>16</depth>
										<samplerate>44100</samplerate>
									</samplecharacteristics>
									<channelcount>2</channelcount>
								</audio>
							</media>
						</file>
						<link>
							<linkclipref>clipitem-86</linkclipref>
							<mediatype>video</mediatype>
							<trackindex>1</trackindex>
							<clipindex>2</clipindex>
						</link>
						<link>
							<linkclipref>clipitem-94</linkclipref>
							<mediatype>audio</mediatype>
							<trackindex>1</trackindex>
							<clipindex>2</clipindex>
							<groupindex>1</groupindex>
						</link>
						<link>
							<linkclipref>clipitem-102</linkclipref>
							<mediatype>audio</mediatype>
							<trackindex>2</trackindex>
							<clipindex>2</clipindex>
							<groupindex>1</groupindex>
						</link>
						<logginginfo>
							<description />
							<scene />
							<shottake />
							<lognote />
							<good />
							<originalvideofilename />
							<originalaudiofilename />
						</logginginfo>
						<colorinfo>
							<lut />
							<lut1 />
							<asc_sop />
							<asc_sat />
							<lut2 />
						</colorinfo>
					<labels><label2>Iris</label2></labels></clipitem>
					<clipitem id="clipitem-87">
						<masterclipid>clipitem-3-456</masterclipid>
						<name>Taylor_Swift_Travis_Kelce_-_The_New_Power_Couple.mp4</name>
						<enabled>TRUE</enabled>
						<duration>150</duration>
						<rate>
							<timebase>25</timebase>
							<ntsc>FALSE</ntsc>
						</rate>
						<start>69750</start>
						<end>69900</end>
						<in>68250</in>
						<out>68400</out>
						<pproTicksIn>0</pproTicksIn>
						<pproTicksOut>875013995520000</pproTicksOut>
						<alphatype>none</alphatype>
						<pixelaspectratio>square</pixelaspectratio>
						<anamorphic>FALSE</anamorphic>
						<file id="file-31">
							<name>Taylor_Swift_Travis_Kelce_-_The_New_Power_Couple.mp4</name>
							<pathurl>file://localhost/Users/themalikano/Documents/VideoAutomation/premiere_videos/Taylor_Swift_Travis_Kelce_-_The_New_Power_Couple.mp4</pathurl>
							<rate>
								<timebase>25</timebase>
								<ntsc>FALSE</ntsc>
							</rate>
							<duration>86118</duration>
							<timecode>
								<rate>
									<timebase>25</timebase>
									<ntsc>FALSE</ntsc>
								</rate>
								<string>00:00:00:00</string>
								<frame>0</frame>
								<displayformat>NDF</displayformat>
							</timecode>
							<media>
								<video>
									<samplecharacteristics>
										<rate>
											<timebase>25</timebase>
											<ntsc>FALSE</ntsc>
										</rate>
										<width>1920</width>
										<height>1080</height>
										<anamorphic>FALSE</anamorphic>
										<pixelaspectratio>square</pixelaspectratio>
										<fielddominance>none</fielddominance>
									</samplecharacteristics>
								</video>
								<audio>
									<samplecharacteristics>
										<depth>16</depth>
										<samplerate>44100</samplerate>
									</samplecharacteristics>
									<channelcount>2</channelcount>
								</audio>
							</media>
						</file>
						<link>
							<linkclipref>clipitem-87</linkclipref>
							<mediatype>video</mediatype>
							<trackindex>1</trackindex>
							<clipindex>3</clipindex>
						</link>
						<link>
							<linkclipref>clipitem-95</linkclipref>
							<mediatype>audio</mediatype>
							<trackindex>1</trackindex>
							<clipindex>3</clipindex>
							<groupindex>1</groupindex>
						</link>
						<link>
							<linkclipref>clipitem-103</linkclipref>
							<mediatype>audio</mediatype>
							<trackindex>2</trackindex>
							<clipindex>3</clipindex>
							<groupindex>1</groupindex>
						</link>
						<logginginfo>
							<description />
							<scene />
							<shottake />
							<lognote />
							<good />
							<originalvideofilename />
							<originalaudiofilename />
						</logginginfo>
						<colorinfo>
							<lut />
							<lut1 />
							<asc_sop />
							<asc_sat />
							<lut2 />
						</colorinfo>
					<labels><label2>Caribbean</label2></labels></clipitem>
					<clipitem id="clipitem-88">
						<masterclipid>clipitem-4-85</masterclipid>
						<name>Travis_Kelce_ANNOUNCE_WEDDING_DATE_with_Taylor_Swift_Why_He_was_Delaying_all_Along.mp4</name>
						<enabled>TRUE</enabled>
						<duration>150</duration>
						<rate>
							<timebase>25</timebase>
							<ntsc>FALSE</ntsc>
						</rate>
						<start>69900</start>
						<end>70050</end>
						<in>12600</in>
						<out>12750</out>
						<pproTicksIn>0</pproTicksIn>
						<pproTicksOut>419410897920000</pproTicksOut>
						<alphatype>none</alphatype>
						<pixelaspectratio>square</pixelaspectratio>
						<anamorphic>FALSE</anamorphic>
						<file id="file-32">
							<name>Travis_Kelce_ANNOUNCE_WEDDING_DATE_with_Taylor_Swift_Why_He_was_Delaying_all_Along.mp4</name>
							<pathurl>file://localhost/Users/themalikano/Documents/VideoAutomation/premiere_videos/Travis_Kelce_ANNOUNCE_WEDDING_DATE_with_Taylor_Swift_Why_He_was_Delaying_all_Along.mp4</pathurl>
							<rate>
								<timebase>24</timebase>
								<ntsc>FALSE</ntsc>
							</rate>
							<duration>39627</duration>
							<timecode>
								<rate>
									<timebase>24</timebase>
									<ntsc>FALSE</ntsc>
								</rate>
								<string>00:00:00:00</string>
								<frame>0</frame>
								<displayformat>NDF</displayformat>
							</timecode>
							<media>
								<video>
									<samplecharacteristics>
										<rate>
											<timebase>24</timebase>
											<ntsc>FALSE</ntsc>
										</rate>
										<width>852</width>
										<height>480</height>
										<anamorphic>FALSE</anamorphic>
										<pixelaspectratio>square</pixelaspectratio>
										<fielddominance>none</fielddominance>
									</samplecharacteristics>
								</video>
								<audio>
									<samplecharacteristics>
										<depth>16</depth>
										<samplerate>44100</samplerate>
									</samplecharacteristics>
									<channelcount>2</channelcount>
								</audio>
							</media>
						</file>
						<filter>
							<effect>
								<name>Basic Motion</name>
								<effectid>basic</effectid>
								<effectcategory>motion</effectcategory>
								<effecttype>motion</effecttype>
								<mediatype>video</mediatype>
								<pproBypass>false</pproBypass>
								<parameter authoringApp="PremierePro">
									<parameterid>scale</parameterid>
									<name>Scale</name>
									<valuemin>0</valuemin>
									<valuemax>1000</valuemax>
									<value>225</value>
								</parameter>
								<parameter authoringApp="PremierePro">
									<parameterid>rotation</parameterid>
									<name>Rotation</name>
									<valuemin>-8640</valuemin>
									<valuemax>8640</valuemax>
									<value>0</value>
								</parameter>
								<parameter authoringApp="PremierePro">
									<parameterid>center</parameterid>
									<name>Center</name>
									<value>
										<horiz>0</horiz>
										<vert>0</vert>
									</value>
								</parameter>
								<parameter authoringApp="PremierePro">
									<parameterid>centerOffset</parameterid>
									<name>Anchor Point</name>
									<value>
										<horiz>0</horiz>
										<vert>0</vert>
									</value>
								</parameter>
								<parameter authoringApp="PremierePro">
									<parameterid>antiflicker</parameterid>
									<name>Anti-flicker Filter</name>
									<valuemin>0.0</valuemin>
									<valuemax>1.0</valuemax>
									<value>0</value>
								</parameter>
							</effect>
						</filter>
						<link>
							<linkclipref>clipitem-88</linkclipref>
							<mediatype>video</mediatype>
							<trackindex>1</trackindex>
							<clipindex>4</clipindex>
						</link>
						<link>
							<linkclipref>clipitem-96</linkclipref>
							<mediatype>audio</mediatype>
							<trackindex>1</trackindex>
							<clipindex>4</clipindex>
							<groupindex>1</groupindex>
						</link>
						<link>
							<linkclipref>clipitem-104</linkclipref>
							<mediatype>audio</mediatype>
							<trackindex>2</trackindex>
							<clipindex>4</clipindex>
							<groupindex>1</groupindex>
						</link>
						<logginginfo>
							<description />
							<scene />
							<shottake />
							<lognote />
							<good />
							<originalvideofilename />
							<originalaudiofilename />
						</logginginfo>
						<colorinfo>
							<lut />
							<lut1 />
							<asc_sop />
							<asc_sat />
							<lut2 />
						</colorinfo>
					<labels><label2>Lavender</label2></labels></clipitem>
					<clipitem id="clipitem-90">
						<masterclipid>clipitem-6-45</masterclipid>
						<name>Travis_Kelce_talks_about_postponing_his_wedding_to_Fiance_Taylor_Swift_on_the_New_Heights_Podcast.mp4</name>
						<enabled>TRUE</enabled>
						<duration>150</duration>
						<rate>
							<timebase>25</timebase>
							<ntsc>FALSE</ntsc>
						</rate>
						<start>70050</start>
						<end>70200</end>
						<in>6600</in>
						<out>6750</out>
						<pproTicksIn>0</pproTicksIn>
						<pproTicksOut>149391889920000</pproTicksOut>
						<alphatype>none</alphatype>
						<pixelaspectratio>square</pixelaspectratio>
						<anamorphic>FALSE</anamorphic>
						<file id="file-34">
							<name>Travis_Kelce_talks_about_postponing_his_wedding_to_Fiance_Taylor_Swift_on_the_New_Heights_Podcast.mp4</name>
							<pathurl>file://localhost/Users/themalikano/Documents/VideoAutomation/premiere_videos/Travis_Kelce_talks_about_postponing_his_wedding_to_Fiance_Taylor_Swift_on_the_New_Heights_Podcast.mp4</pathurl>
							<rate>
								<timebase>30</timebase>
								<ntsc>FALSE</ntsc>
							</rate>
							<duration>17644</duration>
							<timecode>
								<rate>
									<timebase>30</timebase>
									<ntsc>FALSE</ntsc>
								</rate>
								<string>00:00:00:00</string>
								<frame>0</frame>
								<displayformat>NDF</displayformat>
							</timecode>
							<media>
								<video>
									<samplecharacteristics>
										<rate>
											<timebase>30</timebase>
											<ntsc>FALSE</ntsc>
										</rate>
										<width>1920</width>
										<height>1080</height>
										<anamorphic>FALSE</anamorphic>
										<pixelaspectratio>square</pixelaspectratio>
										<fielddominance>none</fielddominance>
									</samplecharacteristics>
								</video>
								<audio>
									<samplecharacteristics>
										<depth>16</depth>
										<samplerate>44100</samplerate>
									</samplecharacteristics>
									<channelcount>2</channelcount>
								</audio>
							</media>
						</file>
						<link>
							<linkclipref>clipitem-90</linkclipref>
							<mediatype>video</mediatype>
							<trackindex>1</trackindex>
							<clipindex>6</clipindex>
						</link>
						<link>
							<linkclipref>clipitem-98</linkclipref>
							<mediatype>audio</mediatype>
							<trackindex>1</trackindex>
							<clipindex>6</clipindex>
							<groupindex>1</groupindex>
						</link>
						<link>
							<linkclipref>clipitem-106</linkclipref>
							<mediatype>audio</mediatype>
							<trackindex>2</trackindex>
							<clipindex>6</clipindex>
							<groupindex>1</groupindex>
						</link>
						<logginginfo>
							<description />
							<scene />
							<shottake />
							<lognote />
							<good />
							<originalvideofilename />
							<originalaudiofilename />
						</logginginfo>
						<colorinfo>
							<lut />
							<lut1 />
							<asc_sop />
							<asc_sat />
							<lut2 />
						</colorinfo>
					<labels><label2>Forest</label2></labels></clipitem>
					<clipitem id="clipitem-86">
						<masterclipid>clipitem-2-122</masterclipid>
						<name>Taylor_Swift_Shares_The_Story_Of_Calling_Travis_Kelce_For_The_First_Time.mp4</name>
						<enabled>TRUE</enabled>
						<duration>150</duration>
						<rate>
							<timebase>25</timebase>
							<ntsc>FALSE</ntsc>
						</rate>
						<start>70200</start>
						<end>70350</end>
						<in>18150</in>
						<out>18300</out>
						<pproTicksIn>0</pproTicksIn>
						<pproTicksOut>236438092800000</pproTicksOut>
						<alphatype>none</alphatype>
						<pixelaspectratio>square</pixelaspectratio>
						<anamorphic>FALSE</anamorphic>
						<file id="file-30">
							<name>Taylor_Swift_Shares_The_Story_Of_Calling_Travis_Kelce_For_The_First_Time.mp4</name>
							<pathurl>file://localhost/Users/themalikano/Documents/VideoAutomation/premiere_videos/Taylor_Swift_Shares_The_Story_Of_Calling_Travis_Kelce_For_The_First_Time.mp4</pathurl>
							<rate>
								<timebase>30</timebase>
								<ntsc>TRUE</ntsc>
							</rate>
							<duration>27897</duration>
							<timecode>
								<rate>
									<timebase>30</timebase>
									<ntsc>TRUE</ntsc>
								</rate>
								<string>00:00:00:00</string>
								<frame>0</frame>
								<displayformat>NDF</displayformat>
							</timecode>
							<media>
								<video>
									<samplecharacteristics>
										<rate>
											<timebase>30</timebase>
											<ntsc>TRUE</ntsc>
										</rate>
										<width>1920</width>
										<height>1080</height>
										<anamorphic>FALSE</anamorphic>
										<pixelaspectratio>square</pixelaspectratio>
										<fielddominance>none</fielddominance>
									</samplecharacteristics>
								</video>
								<audio>
									<samplecharacteristics>
										<depth>16</depth>
										<samplerate>44100</samplerate>
									</samplecharacteristics>
									<channelcount>2</channelcount>
								</audio>
							</media>
						</file>
						<link>
							<linkclipref>clipitem-86</linkclipref>
							<mediatype>video</mediatype>
							<trackindex>1</trackindex>
							<clipindex>2</clipindex>
						</link>
						<link>
							<linkclipref>clipitem-94</linkclipref>
							<mediatype>audio</mediatype>
							<trackindex>1</trackindex>
							<clipindex>2</clipindex>
							<groupindex>1</groupindex>
						</link>
						<link>
							<linkclipref>clipitem-102</linkclipref>
							<mediatype>audio</mediatype>
							<trackindex>2</trackindex>
							<clipindex>2</clipindex>
							<groupindex>1</groupindex>
						</link>
						<logginginfo>
							<description />
							<scene />
							<shottake />
							<lognote />
							<good />
							<originalvideofilename />
							<originalaudiofilename />
						</logginginfo>
						<colorinfo>
							<lut />
							<lut1 />
							<asc_sop />
							<asc_sat />
							<lut2 />
						</colorinfo>
					<labels><label2>Iris</label2></labels></clipitem>
					<clipitem id="clipitem-88">
						<masterclipid>clipitem-4-143</masterclipid>
						<name>Travis_Kelce_ANNOUNCE_WEDDING_DATE_with_Taylor_Swift_Why_He_was_Delaying_all_Along.mp4</name>
						<enabled>TRUE</enabled>
						<duration>150</duration>
						<rate>
							<timebase>25</timebase>
							<ntsc>FALSE</ntsc>
						</rate>
						<start>70350</start>
						<end>70500</end>
						<in>21300</in>
						<out>21450</out>
						<pproTicksIn>0</pproTicksIn>
						<pproTicksOut>419410897920000</pproTicksOut>
						<alphatype>none</alphatype>
						<pixelaspectratio>square</pixelaspectratio>
						<anamorphic>FALSE</anamorphic>
						<file id="file-32">
							<name>Travis_Kelce_ANNOUNCE_WEDDING_DATE_with_Taylor_Swift_Why_He_was_Delaying_all_Along.mp4</name>
							<pathurl>file://localhost/Users/themalikano/Documents/VideoAutomation/premiere_videos/Travis_Kelce_ANNOUNCE_WEDDING_DATE_with_Taylor_Swift_Why_He_was_Delaying_all_Along.mp4</pathurl>
							<rate>
								<timebase>24</timebase>
								<ntsc>FALSE</ntsc>
							</rate>
							<duration>39627</duration>
							<timecode>
								<rate>
									<timebase>24</timebase>
									<ntsc>FALSE</ntsc>
								</rate>
								<string>00:00:00:00</string>
								<frame>0</frame>
								<displayformat>NDF</displayformat>
							</timecode>
							<media>
								<video>
									<samplecharacteristics>
										<rate>
											<timebase>24</timebase>
											<ntsc>FALSE</ntsc>
										</rate>
										<width>852</width>
										<height>480</height>
										<anamorphic>FALSE</anamorphic>
										<pixelaspectratio>square</pixelaspectratio>
										<fielddominance>none</fielddominance>
									</samplecharacteristics>
								</video>
								<audio>
									<samplecharacteristics>
										<depth>16</depth>
										<samplerate>44100</samplerate>
									</samplecharacteristics>
									<channelcount>2</channelcount>
								</audio>
							</media>
						</file>
						<filter>
							<effect>
								<name>Basic Motion</name>
								<effectid>basic</effectid>
								<effectcategory>motion</effectcategory>
								<effecttype>motion</effecttype>
								<mediatype>video</mediatype>
								<pproBypass>false</pproBypass>
								<parameter authoringApp="PremierePro">
									<parameterid>scale</parameterid>
									<name>Scale</name>
									<valuemin>0</valuemin>
									<valuemax>1000</valuemax>
									<value>225</value>
								</parameter>
								<parameter authoringApp="PremierePro">
									<parameterid>rotation</parameterid>
									<name>Rotation</name>
									<valuemin>-8640</valuemin>
									<valuemax>8640</valuemax>
									<value>0</value>
								</parameter>
								<parameter authoringApp="PremierePro">
									<parameterid>center</parameterid>
									<name>Center</name>
									<value>
										<horiz>0</horiz>
										<vert>0</vert>
									</value>
								</parameter>
								<parameter authoringApp="PremierePro">
									<parameterid>centerOffset</parameterid>
									<name>Anchor Point</name>
									<value>
										<horiz>0</horiz>
										<vert>0</vert>
									</value>
								</parameter>
								<parameter authoringApp="PremierePro">
									<parameterid>antiflicker</parameterid>
									<name>Anti-flicker Filter</name>
									<valuemin>0.0</valuemin>
									<valuemax>1.0</valuemax>
									<value>0</value>
								</parameter>
							</effect>
						</filter>
						<link>
							<linkclipref>clipitem-88</linkclipref>
							<mediatype>video</mediatype>
							<trackindex>1</trackindex>
							<clipindex>4</clipindex>
						</link>
						<link>
							<linkclipref>clipitem-96</linkclipref>
							<mediatype>audio</mediatype>
							<trackindex>1</trackindex>
							<clipindex>4</clipindex>
							<groupindex>1</groupindex>
						</link>
						<link>
							<linkclipref>clipitem-104</linkclipref>
							<mediatype>audio</mediatype>
							<trackindex>2</trackindex>
							<clipindex>4</clipindex>
							<groupindex>1</groupindex>
						</link>
						<logginginfo>
							<description />
							<scene />
							<shottake />
							<lognote />
							<good />
							<originalvideofilename />
							<originalaudiofilename />
						</logginginfo>
						<colorinfo>
							<lut />
							<lut1 />
							<asc_sop />
							<asc_sat />
							<lut2 />
						</colorinfo>
					<labels><label2>Lavender</label2></labels></clipitem>
					<clipitem id="clipitem-90">
						<masterclipid>clipitem-6-65</masterclipid>
						<name>Travis_Kelce_talks_about_postponing_his_wedding_to_Fiance_Taylor_Swift_on_the_New_Heights_Podcast.mp4</name>
						<enabled>TRUE</enabled>
						<duration>150</duration>
						<rate>
							<timebase>25</timebase>
							<ntsc>FALSE</ntsc>
						</rate>
						<start>70500</start>
						<end>70650</end>
						<in>9600</in>
						<out>9750</out>
						<pproTicksIn>0</pproTicksIn>
						<pproTicksOut>149391889920000</pproTicksOut>
						<alphatype>none</alphatype>
						<pixelaspectratio>square</pixelaspectratio>
						<anamorphic>FALSE</anamorphic>
						<file id="file-34">
							<name>Travis_Kelce_talks_about_postponing_his_wedding_to_Fiance_Taylor_Swift_on_the_New_Heights_Podcast.mp4</name>
							<pathurl>file://localhost/Users/themalikano/Documents/VideoAutomation/premiere_videos/Travis_Kelce_talks_about_postponing_his_wedding_to_Fiance_Taylor_Swift_on_the_New_Heights_Podcast.mp4</pathurl>
							<rate>
								<timebase>30</timebase>
								<ntsc>FALSE</ntsc>
							</rate>
							<duration>17644</duration>
							<timecode>
								<rate>
									<timebase>30</timebase>
									<ntsc>FALSE</ntsc>
								</rate>
								<string>00:00:00:00</string>
								<frame>0</frame>
								<displayformat>NDF</displayformat>
							</timecode>
							<media>
								<video>
									<samplecharacteristics>
										<rate>
											<timebase>30</timebase>
											<ntsc>FALSE</ntsc>
										</rate>
										<width>1920</width>
										<height>1080</height>
										<anamorphic>FALSE</anamorphic>
										<pixelaspectratio>square</pixelaspectratio>
										<fielddominance>none</fielddominance>
									</samplecharacteristics>
								</video>
								<audio>
									<samplecharacteristics>
										<depth>16</depth>
										<samplerate>44100</samplerate>
									</samplecharacteristics>
									<channelcount>2</channelcount>
								</audio>
							</media>
						</file>
						<link>
							<linkclipref>clipitem-90</linkclipref>
							<mediatype>video</mediatype>
							<trackindex>1</trackindex>
							<clipindex>6</clipindex>
						</link>
						<link>
							<linkclipref>clipitem-98</linkclipref>
							<mediatype>audio</mediatype>
							<trackindex>1</trackindex>
							<clipindex>6</clipindex>
							<groupindex>1</groupindex>
						</link>
						<link>
							<linkclipref>clipitem-106</linkclipref>
							<mediatype>audio</mediatype>
							<trackindex>2</trackindex>
							<clipindex>6</clipindex>
							<groupindex>1</groupindex>
						</link>
						<logginginfo>
							<description />
							<scene />
							<shottake />
							<lognote />
							<good />
							<originalvideofilename />
							<originalaudiofilename />
						</logginginfo>
						<colorinfo>
							<lut />
							<lut1 />
							<asc_sop />
							<asc_sat />
							<lut2 />
						</colorinfo>
					<labels><label2>Forest</label2></labels></clipitem>
					<clipitem id="clipitem-88">
						<masterclipid>clipitem-4-177</masterclipid>
						<name>Travis_Kelce_ANNOUNCE_WEDDING_DATE_with_Taylor_Swift_Why_He_was_Delaying_all_Along.mp4</name>
						<enabled>TRUE</enabled>
						<duration>150</duration>
						<rate>
							<timebase>25</timebase>
							<ntsc>FALSE</ntsc>
						</rate>
						<start>70650</start>
						<end>70800</end>
						<in>26400</in>
						<out>26550</out>
						<pproTicksIn>0</pproTicksIn>
						<pproTicksOut>419410897920000</pproTicksOut>
						<alphatype>none</alphatype>
						<pixelaspectratio>square</pixelaspectratio>
						<anamorphic>FALSE</anamorphic>
						<file id="file-32">
							<name>Travis_Kelce_ANNOUNCE_WEDDING_DATE_with_Taylor_Swift_Why_He_was_Delaying_all_Along.mp4</name>
							<pathurl>file://localhost/Users/themalikano/Documents/VideoAutomation/premiere_videos/Travis_Kelce_ANNOUNCE_WEDDING_DATE_with_Taylor_Swift_Why_He_was_Delaying_all_Along.mp4</pathurl>
							<rate>
								<timebase>24</timebase>
								<ntsc>FALSE</ntsc>
							</rate>
							<duration>39627</duration>
							<timecode>
								<rate>
									<timebase>24</timebase>
									<ntsc>FALSE</ntsc>
								</rate>
								<string>00:00:00:00</string>
								<frame>0</frame>
								<displayformat>NDF</displayformat>
							</timecode>
							<media>
								<video>
									<samplecharacteristics>
										<rate>
											<timebase>24</timebase>
											<ntsc>FALSE</ntsc>
										</rate>
										<width>852</width>
										<height>480</height>
										<anamorphic>FALSE</anamorphic>
										<pixelaspectratio>square</pixelaspectratio>
										<fielddominance>none</fielddominance>
									</samplecharacteristics>
								</video>
								<audio>
									<samplecharacteristics>
										<depth>16</depth>
										<samplerate>44100</samplerate>
									</samplecharacteristics>
									<channelcount>2</channelcount>
								</audio>
							</media>
						</file>
						<filter>
							<effect>
								<name>Basic Motion</name>
								<effectid>basic</effectid>
								<effectcategory>motion</effectcategory>
								<effecttype>motion</effecttype>
								<mediatype>video</mediatype>
								<pproBypass>false</pproBypass>
								<parameter authoringApp="PremierePro">
									<parameterid>scale</parameterid>
									<name>Scale</name>
									<valuemin>0</valuemin>
									<valuemax>1000</valuemax>
									<value>225</value>
								</parameter>
								<parameter authoringApp="PremierePro">
									<parameterid>rotation</parameterid>
									<name>Rotation</name>
									<valuemin>-8640</valuemin>
									<valuemax>8640</valuemax>
									<value>0</value>
								</parameter>
								<parameter authoringApp="PremierePro">
									<parameterid>center</parameterid>
									<name>Center</name>
									<value>
										<horiz>0</horiz>
										<vert>0</vert>
									</value>
								</parameter>
								<parameter authoringApp="PremierePro">
									<parameterid>centerOffset</parameterid>
									<name>Anchor Point</name>
									<value>
										<horiz>0</horiz>
										<vert>0</vert>
									</value>
								</parameter>
								<parameter authoringApp="PremierePro">
									<parameterid>antiflicker</parameterid>
									<name>Anti-flicker Filter</name>
									<valuemin>0.0</valuemin>
									<valuemax>1.0</valuemax>
									<value>0</value>
								</parameter>
							</effect>
						</filter>
						<link>
							<linkclipref>clipitem-88</linkclipref>
							<mediatype>video</mediatype>
							<trackindex>1</trackindex>
							<clipindex>4</clipindex>
						</link>
						<link>
							<linkclipref>clipitem-96</linkclipref>
							<mediatype>audio</mediatype>
							<trackindex>1</trackindex>
							<clipindex>4</clipindex>
							<groupindex>1</groupindex>
						</link>
						<link>
							<linkclipref>clipitem-104</linkclipref>
							<mediatype>audio</mediatype>
							<trackindex>2</trackindex>
							<clipindex>4</clipindex>
							<groupindex>1</groupindex>
						</link>
						<logginginfo>
							<description />
							<scene />
							<shottake />
							<lognote />
							<good />
							<originalvideofilename />
							<originalaudiofilename />
						</logginginfo>
						<colorinfo>
							<lut />
							<lut1 />
							<asc_sop />
							<asc_sat />
							<lut2 />
						</colorinfo>
					<labels><label2>Lavender</label2></labels></clipitem>
					<clipitem id="clipitem-87">
						<masterclipid>clipitem-3-129</masterclipid>
						<name>Taylor_Swift_Travis_Kelce_-_The_New_Power_Couple.mp4</name>
						<enabled>TRUE</enabled>
						<duration>150</duration>
						<rate>
							<timebase>25</timebase>
							<ntsc>FALSE</ntsc>
						</rate>
						<start>70800</start>
						<end>70950</end>
						<in>19200</in>
						<out>19350</out>
						<pproTicksIn>0</pproTicksIn>
						<pproTicksOut>875013995520000</pproTicksOut>
						<alphatype>none</alphatype>
						<pixelaspectratio>square</pixelaspectratio>
						<anamorphic>FALSE</anamorphic>
						<file id="file-31">
							<name>Taylor_Swift_Travis_Kelce_-_The_New_Power_Couple.mp4</name>
							<pathurl>file://localhost/Users/themalikano/Documents/VideoAutomation/premiere_videos/Taylor_Swift_Travis_Kelce_-_The_New_Power_Couple.mp4</pathurl>
							<rate>
								<timebase>25</timebase>
								<ntsc>FALSE</ntsc>
							</rate>
							<duration>86118</duration>
							<timecode>
								<rate>
									<timebase>25</timebase>
									<ntsc>FALSE</ntsc>
								</rate>
								<string>00:00:00:00</string>
								<frame>0</frame>
								<displayformat>NDF</displayformat>
							</timecode>
							<media>
								<video>
									<samplecharacteristics>
										<rate>
											<timebase>25</timebase>
											<ntsc>FALSE</ntsc>
										</rate>
										<width>1920</width>
										<height>1080</height>
										<anamorphic>FALSE</anamorphic>
										<pixelaspectratio>square</pixelaspectratio>
										<fielddominance>none</fielddominance>
									</samplecharacteristics>
								</video>
								<audio>
									<samplecharacteristics>
										<depth>16</depth>
										<samplerate>44100</samplerate>
									</samplecharacteristics>
									<channelcount>2</channelcount>
								</audio>
							</media>
						</file>
						<link>
							<linkclipref>clipitem-87</linkclipref>
							<mediatype>video</mediatype>
							<trackindex>1</trackindex>
							<clipindex>3</clipindex>
						</link>
						<link>
							<linkclipref>clipitem-95</linkclipref>
							<mediatype>audio</mediatype>
							<trackindex>1</trackindex>
							<clipindex>3</clipindex>
							<groupindex>1</groupindex>
						</link>
						<link>
							<linkclipref>clipitem-103</linkclipref>
							<mediatype>audio</mediatype>
							<trackindex>2</trackindex>
							<clipindex>3</clipindex>
							<groupindex>1</groupindex>
						</link>
						<logginginfo>
							<description />
							<scene />
							<shottake />
							<lognote />
							<good />
							<originalvideofilename />
							<originalaudiofilename />
						</logginginfo>
						<colorinfo>
							<lut />
							<lut1 />
							<asc_sop />
							<asc_sat />
							<lut2 />
						</colorinfo>
					<labels><label2>Caribbean</label2></labels></clipitem>
					<clipitem id="clipitem-86">
						<masterclipid>clipitem-2-49</masterclipid>
						<name>Taylor_Swift_Shares_The_Story_Of_Calling_Travis_Kelce_For_The_First_Time.mp4</name>
						<enabled>TRUE</enabled>
						<duration>150</duration>
						<rate>
							<timebase>25</timebase>
							<ntsc>FALSE</ntsc>
						</rate>
						<start>70950</start>
						<end>71100</end>
						<in>7200</in>
						<out>7350</out>
						<pproTicksIn>0</pproTicksIn>
						<pproTicksOut>236438092800000</pproTicksOut>
						<alphatype>none</alphatype>
						<pixelaspectratio>square</pixelaspectratio>
						<anamorphic>FALSE</anamorphic>
						<file id="file-30">
							<name>Taylor_Swift_Shares_The_Story_Of_Calling_Travis_Kelce_For_The_First_Time.mp4</name>
							<pathurl>file://localhost/Users/themalikano/Documents/VideoAutomation/premiere_videos/Taylor_Swift_Shares_The_Story_Of_Calling_Travis_Kelce_For_The_First_Time.mp4</pathurl>
							<rate>
								<timebase>30</timebase>
								<ntsc>TRUE</ntsc>
							</rate>
							<duration>27897</duration>
							<timecode>
								<rate>
									<timebase>30</timebase>
									<ntsc>TRUE</ntsc>
								</rate>
								<string>00:00:00:00</string>
								<frame>0</frame>
								<displayformat>NDF</displayformat>
							</timecode>
							<media>
								<video>
									<samplecharacteristics>
										<rate>
											<timebase>30</timebase>
											<ntsc>TRUE</ntsc>
										</rate>
										<width>1920</width>
										<height>1080</height>
										<anamorphic>FALSE</anamorphic>
										<pixelaspectratio>square</pixelaspectratio>
										<fielddominance>none</fielddominance>
									</samplecharacteristics>
								</video>
								<audio>
									<samplecharacteristics>
										<depth>16</depth>
										<samplerate>44100</samplerate>
									</samplecharacteristics>
									<channelcount>2</channelcount>
								</audio>
							</media>
						</file>
						<link>
							<linkclipref>clipitem-86</linkclipref>
							<mediatype>video</mediatype>
							<trackindex>1</trackindex>
							<clipindex>2</clipindex>
						</link>
						<link>
							<linkclipref>clipitem-94</linkclipref>
							<mediatype>audio</mediatype>
							<trackindex>1</trackindex>
							<clipindex>2</clipindex>
							<groupindex>1</groupindex>
						</link>
						<link>
							<linkclipref>clipitem-102</linkclipref>
							<mediatype>audio</mediatype>
							<trackindex>2</trackindex>
							<clipindex>2</clipindex>
							<groupindex>1</groupindex>
						</link>
						<logginginfo>
							<description />
							<scene />
							<shottake />
							<lognote />
							<good />
							<originalvideofilename />
							<originalaudiofilename />
						</logginginfo>
						<colorinfo>
							<lut />
							<lut1 />
							<asc_sop />
							<asc_sat />
							<lut2 />
						</colorinfo>
					<labels><label2>Iris</label2></labels></clipitem>
					<clipitem id="clipitem-90">
						<masterclipid>clipitem-6-54</masterclipid>
						<name>Travis_Kelce_talks_about_postponing_his_wedding_to_Fiance_Taylor_Swift_on_the_New_Heights_Podcast.mp4</name>
						<enabled>TRUE</enabled>
						<duration>150</duration>
						<rate>
							<timebase>25</timebase>
							<ntsc>FALSE</ntsc>
						</rate>
						<start>71100</start>
						<end>71250</end>
						<in>7950</in>
						<out>8100</out>
						<pproTicksIn>0</pproTicksIn>
						<pproTicksOut>149391889920000</pproTicksOut>
						<alphatype>none</alphatype>
						<pixelaspectratio>square</pixelaspectratio>
						<anamorphic>FALSE</anamorphic>
						<file id="file-34">
							<name>Travis_Kelce_talks_about_postponing_his_wedding_to_Fiance_Taylor_Swift_on_the_New_Heights_Podcast.mp4</name>
							<pathurl>file://localhost/Users/themalikano/Documents/VideoAutomation/premiere_videos/Travis_Kelce_talks_about_postponing_his_wedding_to_Fiance_Taylor_Swift_on_the_New_Heights_Podcast.mp4</pathurl>
							<rate>
								<timebase>30</timebase>
								<ntsc>FALSE</ntsc>
							</rate>
							<duration>17644</duration>
							<timecode>
								<rate>
									<timebase>30</timebase>
									<ntsc>FALSE</ntsc>
								</rate>
								<string>00:00:00:00</string>
								<frame>0</frame>
								<displayformat>NDF</displayformat>
							</timecode>
							<media>
								<video>
									<samplecharacteristics>
										<rate>
											<timebase>30</timebase>
											<ntsc>FALSE</ntsc>
										</rate>
										<width>1920</width>
										<height>1080</height>
										<anamorphic>FALSE</anamorphic>
										<pixelaspectratio>square</pixelaspectratio>
										<fielddominance>none</fielddominance>
									</samplecharacteristics>
								</video>
								<audio>
									<samplecharacteristics>
										<depth>16</depth>
										<samplerate>44100</samplerate>
									</samplecharacteristics>
									<channelcount>2</channelcount>
								</audio>
							</media>
						</file>
						<link>
							<linkclipref>clipitem-90</linkclipref>
							<mediatype>video</mediatype>
							<trackindex>1</trackindex>
							<clipindex>6</clipindex>
						</link>
						<link>
							<linkclipref>clipitem-98</linkclipref>
							<mediatype>audio</mediatype>
							<trackindex>1</trackindex>
							<clipindex>6</clipindex>
							<groupindex>1</groupindex>
						</link>
						<link>
							<linkclipref>clipitem-106</linkclipref>
							<mediatype>audio</mediatype>
							<trackindex>2</trackindex>
							<clipindex>6</clipindex>
							<groupindex>1</groupindex>
						</link>
						<logginginfo>
							<description />
							<scene />
							<shottake />
							<lognote />
							<good />
							<originalvideofilename />
							<originalaudiofilename />
						</logginginfo>
						<colorinfo>
							<lut />
							<lut1 />
							<asc_sop />
							<asc_sat />
							<lut2 />
						</colorinfo>
					<labels><label2>Forest</label2></labels></clipitem>
					<clipitem id="clipitem-87">
						<masterclipid>clipitem-3-75</masterclipid>
						<name>Taylor_Swift_Travis_Kelce_-_The_New_Power_Couple.mp4</name>
						<enabled>TRUE</enabled>
						<duration>150</duration>
						<rate>
							<timebase>25</timebase>
							<ntsc>FALSE</ntsc>
						</rate>
						<start>71250</start>
						<end>71400</end>
						<in>11100</in>
						<out>11250</out>
						<pproTicksIn>0</pproTicksIn>
						<pproTicksOut>875013995520000</pproTicksOut>
						<alphatype>none</alphatype>
						<pixelaspectratio>square</pixelaspectratio>
						<anamorphic>FALSE</anamorphic>
						<file id="file-31">
							<name>Taylor_Swift_Travis_Kelce_-_The_New_Power_Couple.mp4</name>
							<pathurl>file://localhost/Users/themalikano/Documents/VideoAutomation/premiere_videos/Taylor_Swift_Travis_Kelce_-_The_New_Power_Couple.mp4</pathurl>
							<rate>
								<timebase>25</timebase>
								<ntsc>FALSE</ntsc>
							</rate>
							<duration>86118</duration>
							<timecode>
								<rate>
									<timebase>25</timebase>
									<ntsc>FALSE</ntsc>
								</rate>
								<string>00:00:00:00</string>
								<frame>0</frame>
								<displayformat>NDF</displayformat>
							</timecode>
							<media>
								<video>
									<samplecharacteristics>
										<rate>
											<timebase>25</timebase>
											<ntsc>FALSE</ntsc>
										</rate>
										<width>1920</width>
										<height>1080</height>
										<anamorphic>FALSE</anamorphic>
										<pixelaspectratio>square</pixelaspectratio>
										<fielddominance>none</fielddominance>
									</samplecharacteristics>
								</video>
								<audio>
									<samplecharacteristics>
										<depth>16</depth>
										<samplerate>44100</samplerate>
									</samplecharacteristics>
									<channelcount>2</channelcount>
								</audio>
							</media>
						</file>
						<link>
							<linkclipref>clipitem-87</linkclipref>
							<mediatype>video</mediatype>
							<trackindex>1</trackindex>
							<clipindex>3</clipindex>
						</link>
						<link>
							<linkclipref>clipitem-95</linkclipref>
							<mediatype>audio</mediatype>
							<trackindex>1</trackindex>
							<clipindex>3</clipindex>
							<groupindex>1</groupindex>
						</link>
						<link>
							<linkclipref>clipitem-103</linkclipref>
							<mediatype>audio</mediatype>
							<trackindex>2</trackindex>
							<clipindex>3</clipindex>
							<groupindex>1</groupindex>
						</link>
						<logginginfo>
							<description />
							<scene />
							<shottake />
							<lognote />
							<good />
							<originalvideofilename />
							<originalaudiofilename />
						</logginginfo>
						<colorinfo>
							<lut />
							<lut1 />
							<asc_sop />
							<asc_sat />
							<lut2 />
						</colorinfo>
					<labels><label2>Caribbean</label2></labels></clipitem>
					<clipitem id="clipitem-88">
						<masterclipid>clipitem-4-226</masterclipid>
						<name>Travis_Kelce_ANNOUNCE_WEDDING_DATE_with_Taylor_Swift_Why_He_was_Delaying_all_Along.mp4</name>
						<enabled>TRUE</enabled>
						<duration>150</duration>
						<rate>
							<timebase>25</timebase>
							<ntsc>FALSE</ntsc>
						</rate>
						<start>71400</start>
						<end>71550</end>
						<in>33750</in>
						<out>33900</out>
						<pproTicksIn>0</pproTicksIn>
						<pproTicksOut>419410897920000</pproTicksOut>
						<alphatype>none</alphatype>
						<pixelaspectratio>square</pixelaspectratio>
						<anamorphic>FALSE</anamorphic>
						<file id="file-32">
							<name>Travis_Kelce_ANNOUNCE_WEDDING_DATE_with_Taylor_Swift_Why_He_was_Delaying_all_Along.mp4</name>
							<pathurl>file://localhost/Users/themalikano/Documents/VideoAutomation/premiere_videos/Travis_Kelce_ANNOUNCE_WEDDING_DATE_with_Taylor_Swift_Why_He_was_Delaying_all_Along.mp4</pathurl>
							<rate>
								<timebase>24</timebase>
								<ntsc>FALSE</ntsc>
							</rate>
							<duration>39627</duration>
							<timecode>
								<rate>
									<timebase>24</timebase>
									<ntsc>FALSE</ntsc>
								</rate>
								<string>00:00:00:00</string>
								<frame>0</frame>
								<displayformat>NDF</displayformat>
							</timecode>
							<media>
								<video>
									<samplecharacteristics>
										<rate>
											<timebase>24</timebase>
											<ntsc>FALSE</ntsc>
										</rate>
										<width>852</width>
										<height>480</height>
										<anamorphic>FALSE</anamorphic>
										<pixelaspectratio>square</pixelaspectratio>
										<fielddominance>none</fielddominance>
									</samplecharacteristics>
								</video>
								<audio>
									<samplecharacteristics>
										<depth>16</depth>
										<samplerate>44100</samplerate>
									</samplecharacteristics>
									<channelcount>2</channelcount>
								</audio>
							</media>
						</file>
						<filter>
							<effect>
								<name>Basic Motion</name>
								<effectid>basic</effectid>
								<effectcategory>motion</effectcategory>
								<effecttype>motion</effecttype>
								<mediatype>video</mediatype>
								<pproBypass>false</pproBypass>
								<parameter authoringApp="PremierePro">
									<parameterid>scale</parameterid>
									<name>Scale</name>
									<valuemin>0</valuemin>
									<valuemax>1000</valuemax>
									<value>225</value>
								</parameter>
								<parameter authoringApp="PremierePro">
									<parameterid>rotation</parameterid>
									<name>Rotation</name>
									<valuemin>-8640</valuemin>
									<valuemax>8640</valuemax>
									<value>0</value>
								</parameter>
								<parameter authoringApp="PremierePro">
									<parameterid>center</parameterid>
									<name>Center</name>
									<value>
										<horiz>0</horiz>
										<vert>0</vert>
									</value>
								</parameter>
								<parameter authoringApp="PremierePro">
									<parameterid>centerOffset</parameterid>
									<name>Anchor Point</name>
									<value>
										<horiz>0</horiz>
										<vert>0</vert>
									</value>
								</parameter>
								<parameter authoringApp="PremierePro">
									<parameterid>antiflicker</parameterid>
									<name>Anti-flicker Filter</name>
									<valuemin>0.0</valuemin>
									<valuemax>1.0</valuemax>
									<value>0</value>
								</parameter>
							</effect>
						</filter>
						<link>
							<linkclipref>clipitem-88</linkclipref>
							<mediatype>video</mediatype>
							<trackindex>1</trackindex>
							<clipindex>4</clipindex>
						</link>
						<link>
							<linkclipref>clipitem-96</linkclipref>
							<mediatype>audio</mediatype>
							<trackindex>1</trackindex>
							<clipindex>4</clipindex>
							<groupindex>1</groupindex>
						</link>
						<link>
							<linkclipref>clipitem-104</linkclipref>
							<mediatype>audio</mediatype>
							<trackindex>2</trackindex>
							<clipindex>4</clipindex>
							<groupindex>1</groupindex>
						</link>
						<logginginfo>
							<description />
							<scene />
							<shottake />
							<lognote />
							<good />
							<originalvideofilename />
							<originalaudiofilename />
						</logginginfo>
						<colorinfo>
							<lut />
							<lut1 />
							<asc_sop />
							<asc_sat />
							<lut2 />
						</colorinfo>
					<labels><label2>Lavender</label2></labels></clipitem>
					<clipitem id="clipitem-86">
						<masterclipid>clipitem-2-26</masterclipid>
						<name>Taylor_Swift_Shares_The_Story_Of_Calling_Travis_Kelce_For_The_First_Time.mp4</name>
						<enabled>TRUE</enabled>
						<duration>150</duration>
						<rate>
							<timebase>25</timebase>
							<ntsc>FALSE</ntsc>
						</rate>
						<start>71550</start>
						<end>71700</end>
						<in>3750</in>
						<out>3900</out>
						<pproTicksIn>0</pproTicksIn>
						<pproTicksOut>236438092800000</pproTicksOut>
						<alphatype>none</alphatype>
						<pixelaspectratio>square</pixelaspectratio>
						<anamorphic>FALSE</anamorphic>
						<file id="file-30">
							<name>Taylor_Swift_Shares_The_Story_Of_Calling_Travis_Kelce_For_The_First_Time.mp4</name>
							<pathurl>file://localhost/Users/themalikano/Documents/VideoAutomation/premiere_videos/Taylor_Swift_Shares_The_Story_Of_Calling_Travis_Kelce_For_The_First_Time.mp4</pathurl>
							<rate>
								<timebase>30</timebase>
								<ntsc>TRUE</ntsc>
							</rate>
							<duration>27897</duration>
							<timecode>
								<rate>
									<timebase>30</timebase>
									<ntsc>TRUE</ntsc>
								</rate>
								<string>00:00:00:00</string>
								<frame>0</frame>
								<displayformat>NDF</displayformat>
							</timecode>
							<media>
								<video>
									<samplecharacteristics>
										<rate>
											<timebase>30</timebase>
											<ntsc>TRUE</ntsc>
										</rate>
										<width>1920</width>
										<height>1080</height>
										<anamorphic>FALSE</anamorphic>
										<pixelaspectratio>square</pixelaspectratio>
										<fielddominance>none</fielddominance>
									</samplecharacteristics>
								</video>
								<audio>
									<samplecharacteristics>
										<depth>16</depth>
										<samplerate>44100</samplerate>
									</samplecharacteristics>
									<channelcount>2</channelcount>
								</audio>
							</media>
						</file>
						<link>
							<linkclipref>clipitem-86</linkclipref>
							<mediatype>video</mediatype>
							<trackindex>1</trackindex>
							<clipindex>2</clipindex>
						</link>
						<link>
							<linkclipref>clipitem-94</linkclipref>
							<mediatype>audio</mediatype>
							<trackindex>1</trackindex>
							<clipindex>2</clipindex>
							<groupindex>1</groupindex>
						</link>
						<link>
							<linkclipref>clipitem-102</linkclipref>
							<mediatype>audio</mediatype>
							<trackindex>2</trackindex>
							<clipindex>2</clipindex>
							<groupindex>1</groupindex>
						</link>
						<logginginfo>
							<description />
							<scene />
							<shottake />
							<lognote />
							<good />
							<originalvideofilename />
							<originalaudiofilename />
						</logginginfo>
						<colorinfo>
							<lut />
							<lut1 />
							<asc_sop />
							<asc_sat />
							<lut2 />
						</colorinfo>
					<labels><label2>Iris</label2></labels></clipitem>
					<clipitem id="clipitem-90">
						<masterclipid>clipitem-6-8</masterclipid>
						<name>Travis_Kelce_talks_about_postponing_his_wedding_to_Fiance_Taylor_Swift_on_the_New_Heights_Podcast.mp4</name>
						<enabled>TRUE</enabled>
						<duration>150</duration>
						<rate>
							<timebase>25</timebase>
							<ntsc>FALSE</ntsc>
						</rate>
						<start>71700</start>
						<end>71850</end>
						<in>1050</in>
						<out>1200</out>
						<pproTicksIn>0</pproTicksIn>
						<pproTicksOut>149391889920000</pproTicksOut>
						<alphatype>none</alphatype>
						<pixelaspectratio>square</pixelaspectratio>
						<anamorphic>FALSE</anamorphic>
						<file id="file-34">
							<name>Travis_Kelce_talks_about_postponing_his_wedding_to_Fiance_Taylor_Swift_on_the_New_Heights_Podcast.mp4</name>
							<pathurl>file://localhost/Users/themalikano/Documents/VideoAutomation/premiere_videos/Travis_Kelce_talks_about_postponing_his_wedding_to_Fiance_Taylor_Swift_on_the_New_Heights_Podcast.mp4</pathurl>
							<rate>
								<timebase>30</timebase>
								<ntsc>FALSE</ntsc>
							</rate>
							<duration>17644</duration>
							<timecode>
								<rate>
									<timebase>30</timebase>
									<ntsc>FALSE</ntsc>
								</rate>
								<string>00:00:00:00</string>
								<frame>0</frame>
								<displayformat>NDF</displayformat>
							</timecode>
							<media>
								<video>
									<samplecharacteristics>
										<rate>
											<timebase>30</timebase>
											<ntsc>FALSE</ntsc>
										</rate>
										<width>1920</width>
										<height>1080</height>
										<anamorphic>FALSE</anamorphic>
										<pixelaspectratio>square</pixelaspectratio>
										<fielddominance>none</fielddominance>
									</samplecharacteristics>
								</video>
								<audio>
									<samplecharacteristics>
										<depth>16</depth>
										<samplerate>44100</samplerate>
									</samplecharacteristics>
									<channelcount>2</channelcount>
								</audio>
							</media>
						</file>
						<link>
							<linkclipref>clipitem-90</linkclipref>
							<mediatype>video</mediatype>
							<trackindex>1</trackindex>
							<clipindex>6</clipindex>
						</link>
						<link>
							<linkclipref>clipitem-98</linkclipref>
							<mediatype>audio</mediatype>
							<trackindex>1</trackindex>
							<clipindex>6</clipindex>
							<groupindex>1</groupindex>
						</link>
						<link>
							<linkclipref>clipitem-106</linkclipref>
							<mediatype>audio</mediatype>
							<trackindex>2</trackindex>
							<clipindex>6</clipindex>
							<groupindex>1</groupindex>
						</link>
						<logginginfo>
							<description />
							<scene />
							<shottake />
							<lognote />
							<good />
							<originalvideofilename />
							<originalaudiofilename />
						</logginginfo>
						<colorinfo>
							<lut />
							<lut1 />
							<asc_sop />
							<asc_sat />
							<lut2 />
						</colorinfo>
					<labels><label2>Forest</label2></labels></clipitem>
					<clipitem id="clipitem-87">
						<masterclipid>clipitem-3-356</masterclipid>
						<name>Taylor_Swift_Travis_Kelce_-_The_New_Power_Couple.mp4</name>
						<enabled>TRUE</enabled>
						<duration>150</duration>
						<rate>
							<timebase>25</timebase>
							<ntsc>FALSE</ntsc>
						</rate>
						<start>71850</start>
						<end>72000</end>
						<in>53250</in>
						<out>53400</out>
						<pproTicksIn>0</pproTicksIn>
						<pproTicksOut>875013995520000</pproTicksOut>
						<alphatype>none</alphatype>
						<pixelaspectratio>square</pixelaspectratio>
						<anamorphic>FALSE</anamorphic>
						<file id="file-31">
							<name>Taylor_Swift_Travis_Kelce_-_The_New_Power_Couple.mp4</name>
							<pathurl>file://localhost/Users/themalikano/Documents/VideoAutomation/premiere_videos/Taylor_Swift_Travis_Kelce_-_The_New_Power_Couple.mp4</pathurl>
							<rate>
								<timebase>25</timebase>
								<ntsc>FALSE</ntsc>
							</rate>
							<duration>86118</duration>
							<timecode>
								<rate>
									<timebase>25</timebase>
									<ntsc>FALSE</ntsc>
								</rate>
								<string>00:00:00:00</string>
								<frame>0</frame>
								<displayformat>NDF</displayformat>
							</timecode>
							<media>
								<video>
									<samplecharacteristics>
										<rate>
											<timebase>25</timebase>
											<ntsc>FALSE</ntsc>
										</rate>
										<width>1920</width>
										<height>1080</height>
										<anamorphic>FALSE</anamorphic>
										<pixelaspectratio>square</pixelaspectratio>
										<fielddominance>none</fielddominance>
									</samplecharacteristics>
								</video>
								<audio>
									<samplecharacteristics>
										<depth>16</depth>
										<samplerate>44100</samplerate>
									</samplecharacteristics>
									<channelcount>2</channelcount>
								</audio>
							</media>
						</file>
						<link>
							<linkclipref>clipitem-87</linkclipref>
							<mediatype>video</mediatype>
							<trackindex>1</trackindex>
							<clipindex>3</clipindex>
						</link>
						<link>
							<linkclipref>clipitem-95</linkclipref>
							<mediatype>audio</mediatype>
							<trackindex>1</trackindex>
							<clipindex>3</clipindex>
							<groupindex>1</groupindex>
						</link>
						<link>
							<linkclipref>clipitem-103</linkclipref>
							<mediatype>audio</mediatype>
							<trackindex>2</trackindex>
							<clipindex>3</clipindex>
							<groupindex>1</groupindex>
						</link>
						<logginginfo>
							<description />
							<scene />
							<shottake />
							<lognote />
							<good />
							<originalvideofilename />
							<originalaudiofilename />
						</logginginfo>
						<colorinfo>
							<lut />
							<lut1 />
							<asc_sop />
							<asc_sat />
							<lut2 />
						</colorinfo>
					<labels><label2>Caribbean</label2></labels></clipitem>
					<clipitem id="clipitem-86">
						<masterclipid>clipitem-2-112</masterclipid>
						<name>Taylor_Swift_Shares_The_Story_Of_Calling_Travis_Kelce_For_The_First_Time.mp4</name>
						<enabled>TRUE</enabled>
						<duration>150</duration>
						<rate>
							<timebase>25</timebase>
							<ntsc>FALSE</ntsc>
						</rate>
						<start>72000</start>
						<end>72150</end>
						<in>16650</in>
						<out>16800</out>
						<pproTicksIn>0</pproTicksIn>
						<pproTicksOut>236438092800000</pproTicksOut>
						<alphatype>none</alphatype>
						<pixelaspectratio>square</pixelaspectratio>
						<anamorphic>FALSE</anamorphic>
						<file id="file-30">
							<name>Taylor_Swift_Shares_The_Story_Of_Calling_Travis_Kelce_For_The_First_Time.mp4</name>
							<pathurl>file://localhost/Users/themalikano/Documents/VideoAutomation/premiere_videos/Taylor_Swift_Shares_The_Story_Of_Calling_Travis_Kelce_For_The_First_Time.mp4</pathurl>
							<rate>
								<timebase>30</timebase>
								<ntsc>TRUE</ntsc>
							</rate>
							<duration>27897</duration>
							<timecode>
								<rate>
									<timebase>30</timebase>
									<ntsc>TRUE</ntsc>
								</rate>
								<string>00:00:00:00</string>
								<frame>0</frame>
								<displayformat>NDF</displayformat>
							</timecode>
							<media>
								<video>
									<samplecharacteristics>
										<rate>
											<timebase>30</timebase>
											<ntsc>TRUE</ntsc>
										</rate>
										<width>1920</width>
										<height>1080</height>
										<anamorphic>FALSE</anamorphic>
										<pixelaspectratio>square</pixelaspectratio>
										<fielddominance>none</fielddominance>
									</samplecharacteristics>
								</video>
								<audio>
									<samplecharacteristics>
										<depth>16</depth>
										<samplerate>44100</samplerate>
									</samplecharacteristics>
									<channelcount>2</channelcount>
								</audio>
							</media>
						</file>
						<link>
							<linkclipref>clipitem-86</linkclipref>
							<mediatype>video</mediatype>
							<trackindex>1</trackindex>
							<clipindex>2</clipindex>
						</link>
						<link>
							<linkclipref>clipitem-94</linkclipref>
							<mediatype>audio</mediatype>
							<trackindex>1</trackindex>
							<clipindex>2</clipindex>
							<groupindex>1</groupindex>
						</link>
						<link>
							<linkclipref>clipitem-102</linkclipref>
							<mediatype>audio</mediatype>
							<trackindex>2</trackindex>
							<clipindex>2</clipindex>
							<groupindex>1</groupindex>
						</link>
						<logginginfo>
							<description />
							<scene />
							<shottake />
							<lognote />
							<good />
							<originalvideofilename />
							<originalaudiofilename />
						</logginginfo>
						<colorinfo>
							<lut />
							<lut1 />
							<asc_sop />
							<asc_sat />
							<lut2 />
						</colorinfo>
					<labels><label2>Iris</label2></labels></clipitem>
					<clipitem id="clipitem-88">
						<masterclipid>clipitem-4-271</masterclipid>
						<name>Travis_Kelce_ANNOUNCE_WEDDING_DATE_with_Taylor_Swift_Why_He_was_Delaying_all_Along.mp4</name>
						<enabled>TRUE</enabled>
						<duration>150</duration>
						<rate>
							<timebase>25</timebase>
							<ntsc>FALSE</ntsc>
						</rate>
						<start>72150</start>
						<end>72300</end>
						<in>40500</in>
						<out>40650</out>
						<pproTicksIn>0</pproTicksIn>
						<pproTicksOut>419410897920000</pproTicksOut>
						<alphatype>none</alphatype>
						<pixelaspectratio>square</pixelaspectratio>
						<anamorphic>FALSE</anamorphic>
						<file id="file-32">
							<name>Travis_Kelce_ANNOUNCE_WEDDING_DATE_with_Taylor_Swift_Why_He_was_Delaying_all_Along.mp4</name>
							<pathurl>file://localhost/Users/themalikano/Documents/VideoAutomation/premiere_videos/Travis_Kelce_ANNOUNCE_WEDDING_DATE_with_Taylor_Swift_Why_He_was_Delaying_all_Along.mp4</pathurl>
							<rate>
								<timebase>24</timebase>
								<ntsc>FALSE</ntsc>
							</rate>
							<duration>39627</duration>
							<timecode>
								<rate>
									<timebase>24</timebase>
									<ntsc>FALSE</ntsc>
								</rate>
								<string>00:00:00:00</string>
								<frame>0</frame>
								<displayformat>NDF</displayformat>
							</timecode>
							<media>
								<video>
									<samplecharacteristics>
										<rate>
											<timebase>24</timebase>
											<ntsc>FALSE</ntsc>
										</rate>
										<width>852</width>
										<height>480</height>
										<anamorphic>FALSE</anamorphic>
										<pixelaspectratio>square</pixelaspectratio>
										<fielddominance>none</fielddominance>
									</samplecharacteristics>
								</video>
								<audio>
									<samplecharacteristics>
										<depth>16</depth>
										<samplerate>44100</samplerate>
									</samplecharacteristics>
									<channelcount>2</channelcount>
								</audio>
							</media>
						</file>
						<filter>
							<effect>
								<name>Basic Motion</name>
								<effectid>basic</effectid>
								<effectcategory>motion</effectcategory>
								<effecttype>motion</effecttype>
								<mediatype>video</mediatype>
								<pproBypass>false</pproBypass>
								<parameter authoringApp="PremierePro">
									<parameterid>scale</parameterid>
									<name>Scale</name>
									<valuemin>0</valuemin>
									<valuemax>1000</valuemax>
									<value>225</value>
								</parameter>
								<parameter authoringApp="PremierePro">
									<parameterid>rotation</parameterid>
									<name>Rotation</name>
									<valuemin>-8640</valuemin>
									<valuemax>8640</valuemax>
									<value>0</value>
								</parameter>
								<parameter authoringApp="PremierePro">
									<parameterid>center</parameterid>
									<name>Center</name>
									<value>
										<horiz>0</horiz>
										<vert>0</vert>
									</value>
								</parameter>
								<parameter authoringApp="PremierePro">
									<parameterid>centerOffset</parameterid>
									<name>Anchor Point</name>
									<value>
										<horiz>0</horiz>
										<vert>0</vert>
									</value>
								</parameter>
								<parameter authoringApp="PremierePro">
									<parameterid>antiflicker</parameterid>
									<name>Anti-flicker Filter</name>
									<valuemin>0.0</valuemin>
									<valuemax>1.0</valuemax>
									<value>0</value>
								</parameter>
							</effect>
						</filter>
						<link>
							<linkclipref>clipitem-88</linkclipref>
							<mediatype>video</mediatype>
							<trackindex>1</trackindex>
							<clipindex>4</clipindex>
						</link>
						<link>
							<linkclipref>clipitem-96</linkclipref>
							<mediatype>audio</mediatype>
							<trackindex>1</trackindex>
							<clipindex>4</clipindex>
							<groupindex>1</groupindex>
						</link>
						<link>
							<linkclipref>clipitem-104</linkclipref>
							<mediatype>audio</mediatype>
							<trackindex>2</trackindex>
							<clipindex>4</clipindex>
							<groupindex>1</groupindex>
						</link>
						<logginginfo>
							<description />
							<scene />
							<shottake />
							<lognote />
							<good />
							<originalvideofilename />
							<originalaudiofilename />
						</logginginfo>
						<colorinfo>
							<lut />
							<lut1 />
							<asc_sop />
							<asc_sat />
							<lut2 />
						</colorinfo>
					<labels><label2>Lavender</label2></labels></clipitem>
					<clipitem id="clipitem-86">
						<masterclipid>clipitem-2-47</masterclipid>
						<name>Taylor_Swift_Shares_The_Story_Of_Calling_Travis_Kelce_For_The_First_Time.mp4</name>
						<enabled>TRUE</enabled>
						<duration>150</duration>
						<rate>
							<timebase>25</timebase>
							<ntsc>FALSE</ntsc>
						</rate>
						<start>72300</start>
						<end>72450</end>
						<in>6900</in>
						<out>7050</out>
						<pproTicksIn>0</pproTicksIn>
						<pproTicksOut>236438092800000</pproTicksOut>
						<alphatype>none</alphatype>
						<pixelaspectratio>square</pixelaspectratio>
						<anamorphic>FALSE</anamorphic>
						<file id="file-30">
							<name>Taylor_Swift_Shares_The_Story_Of_Calling_Travis_Kelce_For_The_First_Time.mp4</name>
							<pathurl>file://localhost/Users/themalikano/Documents/VideoAutomation/premiere_videos/Taylor_Swift_Shares_The_Story_Of_Calling_Travis_Kelce_For_The_First_Time.mp4</pathurl>
							<rate>
								<timebase>30</timebase>
								<ntsc>TRUE</ntsc>
							</rate>
							<duration>27897</duration>
							<timecode>
								<rate>
									<timebase>30</timebase>
									<ntsc>TRUE</ntsc>
								</rate>
								<string>00:00:00:00</string>
								<frame>0</frame>
								<displayformat>NDF</displayformat>
							</timecode>
							<media>
								<video>
									<samplecharacteristics>
										<rate>
											<timebase>30</timebase>
											<ntsc>TRUE</ntsc>
										</rate>
										<width>1920</width>
										<height>1080</height>
										<anamorphic>FALSE</anamorphic>
										<pixelaspectratio>square</pixelaspectratio>
										<fielddominance>none</fielddominance>
									</samplecharacteristics>
								</video>
								<audio>
									<samplecharacteristics>
										<depth>16</depth>
										<samplerate>44100</samplerate>
									</samplecharacteristics>
									<channelcount>2</channelcount>
								</audio>
							</media>
						</file>
						<link>
							<linkclipref>clipitem-86</linkclipref>
							<mediatype>video</mediatype>
							<trackindex>1</trackindex>
							<clipindex>2</clipindex>
						</link>
						<link>
							<linkclipref>clipitem-94</linkclipref>
							<mediatype>audio</mediatype>
							<trackindex>1</trackindex>
							<clipindex>2</clipindex>
							<groupindex>1</groupindex>
						</link>
						<link>
							<linkclipref>clipitem-102</linkclipref>
							<mediatype>audio</mediatype>
							<trackindex>2</trackindex>
							<clipindex>2</clipindex>
							<groupindex>1</groupindex>
						</link>
						<logginginfo>
							<description />
							<scene />
							<shottake />
							<lognote />
							<good />
							<originalvideofilename />
							<originalaudiofilename />
						</logginginfo>
						<colorinfo>
							<lut />
							<lut1 />
							<asc_sop />
							<asc_sat />
							<lut2 />
						</colorinfo>
					<labels><label2>Iris</label2></labels></clipitem>
					<clipitem id="clipitem-90">
						<masterclipid>clipitem-6-73</masterclipid>
						<name>Travis_Kelce_talks_about_postponing_his_wedding_to_Fiance_Taylor_Swift_on_the_New_Heights_Podcast.mp4</name>
						<enabled>TRUE</enabled>
						<duration>150</duration>
						<rate>
							<timebase>25</timebase>
							<ntsc>FALSE</ntsc>
						</rate>
						<start>72450</start>
						<end>72600</end>
						<in>10800</in>
						<out>10950</out>
						<pproTicksIn>0</pproTicksIn>
						<pproTicksOut>149391889920000</pproTicksOut>
						<alphatype>none</alphatype>
						<pixelaspectratio>square</pixelaspectratio>
						<anamorphic>FALSE</anamorphic>
						<file id="file-34">
							<name>Travis_Kelce_talks_about_postponing_his_wedding_to_Fiance_Taylor_Swift_on_the_New_Heights_Podcast.mp4</name>
							<pathurl>file://localhost/Users/themalikano/Documents/VideoAutomation/premiere_videos/Travis_Kelce_talks_about_postponing_his_wedding_to_Fiance_Taylor_Swift_on_the_New_Heights_Podcast.mp4</pathurl>
							<rate>
								<timebase>30</timebase>
								<ntsc>FALSE</ntsc>
							</rate>
							<duration>17644</duration>
							<timecode>
								<rate>
									<timebase>30</timebase>
									<ntsc>FALSE</ntsc>
								</rate>
								<string>00:00:00:00</string>
								<frame>0</frame>
								<displayformat>NDF</displayformat>
							</timecode>
							<media>
								<video>
									<samplecharacteristics>
										<rate>
											<timebase>30</timebase>
											<ntsc>FALSE</ntsc>
										</rate>
										<width>1920</width>
										<height>1080</height>
										<anamorphic>FALSE</anamorphic>
										<pixelaspectratio>square</pixelaspectratio>
										<fielddominance>none</fielddominance>
									</samplecharacteristics>
								</video>
								<audio>
									<samplecharacteristics>
										<depth>16</depth>
										<samplerate>44100</samplerate>
									</samplecharacteristics>
									<channelcount>2</channelcount>
								</audio>
							</media>
						</file>
						<link>
							<linkclipref>clipitem-90</linkclipref>
							<mediatype>video</mediatype>
							<trackindex>1</trackindex>
							<clipindex>6</clipindex>
						</link>
						<link>
							<linkclipref>clipitem-98</linkclipref>
							<mediatype>audio</mediatype>
							<trackindex>1</trackindex>
							<clipindex>6</clipindex>
							<groupindex>1</groupindex>
						</link>
						<link>
							<linkclipref>clipitem-106</linkclipref>
							<mediatype>audio</mediatype>
							<trackindex>2</trackindex>
							<clipindex>6</clipindex>
							<groupindex>1</groupindex>
						</link>
						<logginginfo>
							<description />
							<scene />
							<shottake />
							<lognote />
							<good />
							<originalvideofilename />
							<originalaudiofilename />
						</logginginfo>
						<colorinfo>
							<lut />
							<lut1 />
							<asc_sop />
							<asc_sat />
							<lut2 />
						</colorinfo>
					<labels><label2>Forest</label2></labels></clipitem>
					<clipitem id="clipitem-88">
						<masterclipid>clipitem-4-155</masterclipid>
						<name>Travis_Kelce_ANNOUNCE_WEDDING_DATE_with_Taylor_Swift_Why_He_was_Delaying_all_Along.mp4</name>
						<enabled>TRUE</enabled>
						<duration>150</duration>
						<rate>
							<timebase>25</timebase>
							<ntsc>FALSE</ntsc>
						</rate>
						<start>72600</start>
						<end>72750</end>
						<in>23100</in>
						<out>23250</out>
						<pproTicksIn>0</pproTicksIn>
						<pproTicksOut>419410897920000</pproTicksOut>
						<alphatype>none</alphatype>
						<pixelaspectratio>square</pixelaspectratio>
						<anamorphic>FALSE</anamorphic>
						<file id="file-32">
							<name>Travis_Kelce_ANNOUNCE_WEDDING_DATE_with_Taylor_Swift_Why_He_was_Delaying_all_Along.mp4</name>
							<pathurl>file://localhost/Users/themalikano/Documents/VideoAutomation/premiere_videos/Travis_Kelce_ANNOUNCE_WEDDING_DATE_with_Taylor_Swift_Why_He_was_Delaying_all_Along.mp4</pathurl>
							<rate>
								<timebase>24</timebase>
								<ntsc>FALSE</ntsc>
							</rate>
							<duration>39627</duration>
							<timecode>
								<rate>
									<timebase>24</timebase>
									<ntsc>FALSE</ntsc>
								</rate>
								<string>00:00:00:00</string>
								<frame>0</frame>
								<displayformat>NDF</displayformat>
							</timecode>
							<media>
								<video>
									<samplecharacteristics>
										<rate>
											<timebase>24</timebase>
											<ntsc>FALSE</ntsc>
										</rate>
										<width>852</width>
										<height>480</height>
										<anamorphic>FALSE</anamorphic>
										<pixelaspectratio>square</pixelaspectratio>
										<fielddominance>none</fielddominance>
									</samplecharacteristics>
								</video>
								<audio>
									<samplecharacteristics>
										<depth>16</depth>
										<samplerate>44100</samplerate>
									</samplecharacteristics>
									<channelcount>2</channelcount>
								</audio>
							</media>
						</file>
						<filter>
							<effect>
								<name>Basic Motion</name>
								<effectid>basic</effectid>
								<effectcategory>motion</effectcategory>
								<effecttype>motion</effecttype>
								<mediatype>video</mediatype>
								<pproBypass>false</pproBypass>
								<parameter authoringApp="PremierePro">
									<parameterid>scale</parameterid>
									<name>Scale</name>
									<valuemin>0</valuemin>
									<valuemax>1000</valuemax>
									<value>225</value>
								</parameter>
								<parameter authoringApp="PremierePro">
									<parameterid>rotation</parameterid>
									<name>Rotation</name>
									<valuemin>-8640</valuemin>
									<valuemax>8640</valuemax>
									<value>0</value>
								</parameter>
								<parameter authoringApp="PremierePro">
									<parameterid>center</parameterid>
									<name>Center</name>
									<value>
										<horiz>0</horiz>
										<vert>0</vert>
									</value>
								</parameter>
								<parameter authoringApp="PremierePro">
									<parameterid>centerOffset</parameterid>
									<name>Anchor Point</name>
									<value>
										<horiz>0</horiz>
										<vert>0</vert>
									</value>
								</parameter>
								<parameter authoringApp="PremierePro">
									<parameterid>antiflicker</parameterid>
									<name>Anti-flicker Filter</name>
									<valuemin>0.0</valuemin>
									<valuemax>1.0</valuemax>
									<value>0</value>
								</parameter>
							</effect>
						</filter>
						<link>
							<linkclipref>clipitem-88</linkclipref>
							<mediatype>video</mediatype>
							<trackindex>1</trackindex>
							<clipindex>4</clipindex>
						</link>
						<link>
							<linkclipref>clipitem-96</linkclipref>
							<mediatype>audio</mediatype>
							<trackindex>1</trackindex>
							<clipindex>4</clipindex>
							<groupindex>1</groupindex>
						</link>
						<link>
							<linkclipref>clipitem-104</linkclipref>
							<mediatype>audio</mediatype>
							<trackindex>2</trackindex>
							<clipindex>4</clipindex>
							<groupindex>1</groupindex>
						</link>
						<logginginfo>
							<description />
							<scene />
							<shottake />
							<lognote />
							<good />
							<originalvideofilename />
							<originalaudiofilename />
						</logginginfo>
						<colorinfo>
							<lut />
							<lut1 />
							<asc_sop />
							<asc_sat />
							<lut2 />
						</colorinfo>
					<labels><label2>Lavender</label2></labels></clipitem>
					<clipitem id="clipitem-90">
						<masterclipid>clipitem-6-57</masterclipid>
						<name>Travis_Kelce_talks_about_postponing_his_wedding_to_Fiance_Taylor_Swift_on_the_New_Heights_Podcast.mp4</name>
						<enabled>TRUE</enabled>
						<duration>150</duration>
						<rate>
							<timebase>25</timebase>
							<ntsc>FALSE</ntsc>
						</rate>
						<start>72750</start>
						<end>72900</end>
						<in>8400</in>
						<out>8550</out>
						<pproTicksIn>0</pproTicksIn>
						<pproTicksOut>149391889920000</pproTicksOut>
						<alphatype>none</alphatype>
						<pixelaspectratio>square</pixelaspectratio>
						<anamorphic>FALSE</anamorphic>
						<file id="file-34">
							<name>Travis_Kelce_talks_about_postponing_his_wedding_to_Fiance_Taylor_Swift_on_the_New_Heights_Podcast.mp4</name>
							<pathurl>file://localhost/Users/themalikano/Documents/VideoAutomation/premiere_videos/Travis_Kelce_talks_about_postponing_his_wedding_to_Fiance_Taylor_Swift_on_the_New_Heights_Podcast.mp4</pathurl>
							<rate>
								<timebase>30</timebase>
								<ntsc>FALSE</ntsc>
							</rate>
							<duration>17644</duration>
							<timecode>
								<rate>
									<timebase>30</timebase>
									<ntsc>FALSE</ntsc>
								</rate>
								<string>00:00:00:00</string>
								<frame>0</frame>
								<displayformat>NDF</displayformat>
							</timecode>
							<media>
								<video>
									<samplecharacteristics>
										<rate>
											<timebase>30</timebase>
											<ntsc>FALSE</ntsc>
										</rate>
										<width>1920</width>
										<height>1080</height>
										<anamorphic>FALSE</anamorphic>
										<pixelaspectratio>square</pixelaspectratio>
										<fielddominance>none</fielddominance>
									</samplecharacteristics>
								</video>
								<audio>
									<samplecharacteristics>
										<depth>16</depth>
										<samplerate>44100</samplerate>
									</samplecharacteristics>
									<channelcount>2</channelcount>
								</audio>
							</media>
						</file>
						<link>
							<linkclipref>clipitem-90</linkclipref>
							<mediatype>video</mediatype>
							<trackindex>1</trackindex>
							<clipindex>6</clipindex>
						</link>
						<link>
							<linkclipref>clipitem-98</linkclipref>
							<mediatype>audio</mediatype>
							<trackindex>1</trackindex>
							<clipindex>6</clipindex>
							<groupindex>1</groupindex>
						</link>
						<link>
							<linkclipref>clipitem-106</linkclipref>
							<mediatype>audio</mediatype>
							<trackindex>2</trackindex>
							<clipindex>6</clipindex>
							<groupindex>1</groupindex>
						</link>
						<logginginfo>
							<description />
							<scene />
							<shottake />
							<lognote />
							<good />
							<originalvideofilename />
							<originalaudiofilename />
						</logginginfo>
						<colorinfo>
							<lut />
							<lut1 />
							<asc_sop />
							<asc_sat />
							<lut2 />
						</colorinfo>
					<labels><label2>Forest</label2></labels></clipitem>
					<clipitem id="clipitem-87">
						<masterclipid>clipitem-3-289</masterclipid>
						<name>Taylor_Swift_Travis_Kelce_-_The_New_Power_Couple.mp4</name>
						<enabled>TRUE</enabled>
						<duration>150</duration>
						<rate>
							<timebase>25</timebase>
							<ntsc>FALSE</ntsc>
						</rate>
						<start>72900</start>
						<end>73050</end>
						<in>43200</in>
						<out>43350</out>
						<pproTicksIn>0</pproTicksIn>
						<pproTicksOut>875013995520000</pproTicksOut>
						<alphatype>none</alphatype>
						<pixelaspectratio>square</pixelaspectratio>
						<anamorphic>FALSE</anamorphic>
						<file id="file-31">
							<name>Taylor_Swift_Travis_Kelce_-_The_New_Power_Couple.mp4</name>
							<pathurl>file://localhost/Users/themalikano/Documents/VideoAutomation/premiere_videos/Taylor_Swift_Travis_Kelce_-_The_New_Power_Couple.mp4</pathurl>
							<rate>
								<timebase>25</timebase>
								<ntsc>FALSE</ntsc>
							</rate>
							<duration>86118</duration>
							<timecode>
								<rate>
									<timebase>25</timebase>
									<ntsc>FALSE</ntsc>
								</rate>
								<string>00:00:00:00</string>
								<frame>0</frame>
								<displayformat>NDF</displayformat>
							</timecode>
							<media>
								<video>
									<samplecharacteristics>
										<rate>
											<timebase>25</timebase>
											<ntsc>FALSE</ntsc>
										</rate>
										<width>1920</width>
										<height>1080</height>
										<anamorphic>FALSE</anamorphic>
										<pixelaspectratio>square</pixelaspectratio>
										<fielddominance>none</fielddominance>
									</samplecharacteristics>
								</video>
								<audio>
									<samplecharacteristics>
										<depth>16</depth>
										<samplerate>44100</samplerate>
									</samplecharacteristics>
									<channelcount>2</channelcount>
								</audio>
							</media>
						</file>
						<link>
							<linkclipref>clipitem-87</linkclipref>
							<mediatype>video</mediatype>
							<trackindex>1</trackindex>
							<clipindex>3</clipindex>
						</link>
						<link>
							<linkclipref>clipitem-95</linkclipref>
							<mediatype>audio</mediatype>
							<trackindex>1</trackindex>
							<clipindex>3</clipindex>
							<groupindex>1</groupindex>
						</link>
						<link>
							<linkclipref>clipitem-103</linkclipref>
							<mediatype>audio</mediatype>
							<trackindex>2</trackindex>
							<clipindex>3</clipindex>
							<groupindex>1</groupindex>
						</link>
						<logginginfo>
							<description />
							<scene />
							<shottake />
							<lognote />
							<good />
							<originalvideofilename />
							<originalaudiofilename />
						</logginginfo>
						<colorinfo>
							<lut />
							<lut1 />
							<asc_sop />
							<asc_sat />
							<lut2 />
						</colorinfo>
					<labels><label2>Caribbean</label2></labels></clipitem>
					<clipitem id="clipitem-86">
						<masterclipid>clipitem-2-16</masterclipid>
						<name>Taylor_Swift_Shares_The_Story_Of_Calling_Travis_Kelce_For_The_First_Time.mp4</name>
						<enabled>TRUE</enabled>
						<duration>150</duration>
						<rate>
							<timebase>25</timebase>
							<ntsc>FALSE</ntsc>
						</rate>
						<start>73050</start>
						<end>73200</end>
						<in>2250</in>
						<out>2400</out>
						<pproTicksIn>0</pproTicksIn>
						<pproTicksOut>236438092800000</pproTicksOut>
						<alphatype>none</alphatype>
						<pixelaspectratio>square</pixelaspectratio>
						<anamorphic>FALSE</anamorphic>
						<file id="file-30">
							<name>Taylor_Swift_Shares_The_Story_Of_Calling_Travis_Kelce_For_The_First_Time.mp4</name>
							<pathurl>file://localhost/Users/themalikano/Documents/VideoAutomation/premiere_videos/Taylor_Swift_Shares_The_Story_Of_Calling_Travis_Kelce_For_The_First_Time.mp4</pathurl>
							<rate>
								<timebase>30</timebase>
								<ntsc>TRUE</ntsc>
							</rate>
							<duration>27897</duration>
							<timecode>
								<rate>
									<timebase>30</timebase>
									<ntsc>TRUE</ntsc>
								</rate>
								<string>00:00:00:00</string>
								<frame>0</frame>
								<displayformat>NDF</displayformat>
							</timecode>
							<media>
								<video>
									<samplecharacteristics>
										<rate>
											<timebase>30</timebase>
											<ntsc>TRUE</ntsc>
										</rate>
										<width>1920</width>
										<height>1080</height>
										<anamorphic>FALSE</anamorphic>
										<pixelaspectratio>square</pixelaspectratio>
										<fielddominance>none</fielddominance>
									</samplecharacteristics>
								</video>
								<audio>
									<samplecharacteristics>
										<depth>16</depth>
										<samplerate>44100</samplerate>
									</samplecharacteristics>
									<channelcount>2</channelcount>
								</audio>
							</media>
						</file>
						<link>
							<linkclipref>clipitem-86</linkclipref>
							<mediatype>video</mediatype>
							<trackindex>1</trackindex>
							<clipindex>2</clipindex>
						</link>
						<link>
							<linkclipref>clipitem-94</linkclipref>
							<mediatype>audio</mediatype>
							<trackindex>1</trackindex>
							<clipindex>2</clipindex>
							<groupindex>1</groupindex>
						</link>
						<link>
							<linkclipref>clipitem-102</linkclipref>
							<mediatype>audio</mediatype>
							<trackindex>2</trackindex>
							<clipindex>2</clipindex>
							<groupindex>1</groupindex>
						</link>
						<logginginfo>
							<description />
							<scene />
							<shottake />
							<lognote />
							<good />
							<originalvideofilename />
							<originalaudiofilename />
						</logginginfo>
						<colorinfo>
							<lut />
							<lut1 />
							<asc_sop />
							<asc_sat />
							<lut2 />
						</colorinfo>
					<labels><label2>Iris</label2></labels></clipitem>
					<clipitem id="clipitem-87">
						<masterclipid>clipitem-3-161</masterclipid>
						<name>Taylor_Swift_Travis_Kelce_-_The_New_Power_Couple.mp4</name>
						<enabled>TRUE</enabled>
						<duration>150</duration>
						<rate>
							<timebase>25</timebase>
							<ntsc>FALSE</ntsc>
						</rate>
						<start>73200</start>
						<end>73350</end>
						<in>24000</in>
						<out>24150</out>
						<pproTicksIn>0</pproTicksIn>
						<pproTicksOut>875013995520000</pproTicksOut>
						<alphatype>none</alphatype>
						<pixelaspectratio>square</pixelaspectratio>
						<anamorphic>FALSE</anamorphic>
						<file id="file-31">
							<name>Taylor_Swift_Travis_Kelce_-_The_New_Power_Couple.mp4</name>
							<pathurl>file://localhost/Users/themalikano/Documents/VideoAutomation/premiere_videos/Taylor_Swift_Travis_Kelce_-_The_New_Power_Couple.mp4</pathurl>
							<rate>
								<timebase>25</timebase>
								<ntsc>FALSE</ntsc>
							</rate>
							<duration>86118</duration>
							<timecode>
								<rate>
									<timebase>25</timebase>
									<ntsc>FALSE</ntsc>
								</rate>
								<string>00:00:00:00</string>
								<frame>0</frame>
								<displayformat>NDF</displayformat>
							</timecode>
							<media>
								<video>
									<samplecharacteristics>
										<rate>
											<timebase>25</timebase>
											<ntsc>FALSE</ntsc>
										</rate>
										<width>1920</width>
										<height>1080</height>
										<anamorphic>FALSE</anamorphic>
										<pixelaspectratio>square</pixelaspectratio>
										<fielddominance>none</fielddominance>
									</samplecharacteristics>
								</video>
								<audio>
									<samplecharacteristics>
										<depth>16</depth>
										<samplerate>44100</samplerate>
									</samplecharacteristics>
									<channelcount>2</channelcount>
								</audio>
							</media>
						</file>
						<link>
							<linkclipref>clipitem-87</linkclipref>
							<mediatype>video</mediatype>
							<trackindex>1</trackindex>
							<clipindex>3</clipindex>
						</link>
						<link>
							<linkclipref>clipitem-95</linkclipref>
							<mediatype>audio</mediatype>
							<trackindex>1</trackindex>
							<clipindex>3</clipindex>
							<groupindex>1</groupindex>
						</link>
						<link>
							<linkclipref>clipitem-103</linkclipref>
							<mediatype>audio</mediatype>
							<trackindex>2</trackindex>
							<clipindex>3</clipindex>
							<groupindex>1</groupindex>
						</link>
						<logginginfo>
							<description />
							<scene />
							<shottake />
							<lognote />
							<good />
							<originalvideofilename />
							<originalaudiofilename />
						</logginginfo>
						<colorinfo>
							<lut />
							<lut1 />
							<asc_sop />
							<asc_sat />
							<lut2 />
						</colorinfo>
					<labels><label2>Caribbean</label2></labels></clipitem>
					<clipitem id="clipitem-88">
						<masterclipid>clipitem-4-58</masterclipid>
						<name>Travis_Kelce_ANNOUNCE_WEDDING_DATE_with_Taylor_Swift_Why_He_was_Delaying_all_Along.mp4</name>
						<enabled>TRUE</enabled>
						<duration>150</duration>
						<rate>
							<timebase>25</timebase>
							<ntsc>FALSE</ntsc>
						</rate>
						<start>73350</start>
						<end>73500</end>
						<in>8550</in>
						<out>8700</out>
						<pproTicksIn>0</pproTicksIn>
						<pproTicksOut>419410897920000</pproTicksOut>
						<alphatype>none</alphatype>
						<pixelaspectratio>square</pixelaspectratio>
						<anamorphic>FALSE</anamorphic>
						<file id="file-32">
							<name>Travis_Kelce_ANNOUNCE_WEDDING_DATE_with_Taylor_Swift_Why_He_was_Delaying_all_Along.mp4</name>
							<pathurl>file://localhost/Users/themalikano/Documents/VideoAutomation/premiere_videos/Travis_Kelce_ANNOUNCE_WEDDING_DATE_with_Taylor_Swift_Why_He_was_Delaying_all_Along.mp4</pathurl>
							<rate>
								<timebase>24</timebase>
								<ntsc>FALSE</ntsc>
							</rate>
							<duration>39627</duration>
							<timecode>
								<rate>
									<timebase>24</timebase>
									<ntsc>FALSE</ntsc>
								</rate>
								<string>00:00:00:00</string>
								<frame>0</frame>
								<displayformat>NDF</displayformat>
							</timecode>
							<media>
								<video>
									<samplecharacteristics>
										<rate>
											<timebase>24</timebase>
											<ntsc>FALSE</ntsc>
										</rate>
										<width>852</width>
										<height>480</height>
										<anamorphic>FALSE</anamorphic>
										<pixelaspectratio>square</pixelaspectratio>
										<fielddominance>none</fielddominance>
									</samplecharacteristics>
								</video>
								<audio>
									<samplecharacteristics>
										<depth>16</depth>
										<samplerate>44100</samplerate>
									</samplecharacteristics>
									<channelcount>2</channelcount>
								</audio>
							</media>
						</file>
						<filter>
							<effect>
								<name>Basic Motion</name>
								<effectid>basic</effectid>
								<effectcategory>motion</effectcategory>
								<effecttype>motion</effecttype>
								<mediatype>video</mediatype>
								<pproBypass>false</pproBypass>
								<parameter authoringApp="PremierePro">
									<parameterid>scale</parameterid>
									<name>Scale</name>
									<valuemin>0</valuemin>
									<valuemax>1000</valuemax>
									<value>225</value>
								</parameter>
								<parameter authoringApp="PremierePro">
									<parameterid>rotation</parameterid>
									<name>Rotation</name>
									<valuemin>-8640</valuemin>
									<valuemax>8640</valuemax>
									<value>0</value>
								</parameter>
								<parameter authoringApp="PremierePro">
									<parameterid>center</parameterid>
									<name>Center</name>
									<value>
										<horiz>0</horiz>
										<vert>0</vert>
									</value>
								</parameter>
								<parameter authoringApp="PremierePro">
									<parameterid>centerOffset</parameterid>
									<name>Anchor Point</name>
									<value>
										<horiz>0</horiz>
										<vert>0</vert>
									</value>
								</parameter>
								<parameter authoringApp="PremierePro">
									<parameterid>antiflicker</parameterid>
									<name>Anti-flicker Filter</name>
									<valuemin>0.0</valuemin>
									<valuemax>1.0</valuemax>
									<value>0</value>
								</parameter>
							</effect>
						</filter>
						<link>
							<linkclipref>clipitem-88</linkclipref>
							<mediatype>video</mediatype>
							<trackindex>1</trackindex>
							<clipindex>4</clipindex>
						</link>
						<link>
							<linkclipref>clipitem-96</linkclipref>
							<mediatype>audio</mediatype>
							<trackindex>1</trackindex>
							<clipindex>4</clipindex>
							<groupindex>1</groupindex>
						</link>
						<link>
							<linkclipref>clipitem-104</linkclipref>
							<mediatype>audio</mediatype>
							<trackindex>2</trackindex>
							<clipindex>4</clipindex>
							<groupindex>1</groupindex>
						</link>
						<logginginfo>
							<description />
							<scene />
							<shottake />
							<lognote />
							<good />
							<originalvideofilename />
							<originalaudiofilename />
						</logginginfo>
						<colorinfo>
							<lut />
							<lut1 />
							<asc_sop />
							<asc_sat />
							<lut2 />
						</colorinfo>
					<labels><label2>Lavender</label2></labels></clipitem>
					<clipitem id="clipitem-87">
						<masterclipid>clipitem-3-421</masterclipid>
						<name>Taylor_Swift_Travis_Kelce_-_The_New_Power_Couple.mp4</name>
						<enabled>TRUE</enabled>
						<duration>150</duration>
						<rate>
							<timebase>25</timebase>
							<ntsc>FALSE</ntsc>
						</rate>
						<start>73500</start>
						<end>73650</end>
						<in>63000</in>
						<out>63150</out>
						<pproTicksIn>0</pproTicksIn>
						<pproTicksOut>875013995520000</pproTicksOut>
						<alphatype>none</alphatype>
						<pixelaspectratio>square</pixelaspectratio>
						<anamorphic>FALSE</anamorphic>
						<file id="file-31">
							<name>Taylor_Swift_Travis_Kelce_-_The_New_Power_Couple.mp4</name>
							<pathurl>file://localhost/Users/themalikano/Documents/VideoAutomation/premiere_videos/Taylor_Swift_Travis_Kelce_-_The_New_Power_Couple.mp4</pathurl>
							<rate>
								<timebase>25</timebase>
								<ntsc>FALSE</ntsc>
							</rate>
							<duration>86118</duration>
							<timecode>
								<rate>
									<timebase>25</timebase>
									<ntsc>FALSE</ntsc>
								</rate>
								<string>00:00:00:00</string>
								<frame>0</frame>
								<displayformat>NDF</displayformat>
							</timecode>
							<media>
								<video>
									<samplecharacteristics>
										<rate>
											<timebase>25</timebase>
											<ntsc>FALSE</ntsc>
										</rate>
										<width>1920</width>
										<height>1080</height>
										<anamorphic>FALSE</anamorphic>
										<pixelaspectratio>square</pixelaspectratio>
										<fielddominance>none</fielddominance>
									</samplecharacteristics>
								</video>
								<audio>
									<samplecharacteristics>
										<depth>16</depth>
										<samplerate>44100</samplerate>
									</samplecharacteristics>
									<channelcount>2</channelcount>
								</audio>
							</media>
						</file>
						<link>
							<linkclipref>clipitem-87</linkclipref>
							<mediatype>video</mediatype>
							<trackindex>1</trackindex>
							<clipindex>3</clipindex>
						</link>
						<link>
							<linkclipref>clipitem-95</linkclipref>
							<mediatype>audio</mediatype>
							<trackindex>1</trackindex>
							<clipindex>3</clipindex>
							<groupindex>1</groupindex>
						</link>
						<link>
							<linkclipref>clipitem-103</linkclipref>
							<mediatype>audio</mediatype>
							<trackindex>2</trackindex>
							<clipindex>3</clipindex>
							<groupindex>1</groupindex>
						</link>
						<logginginfo>
							<description />
							<scene />
							<shottake />
							<lognote />
							<good />
							<originalvideofilename />
							<originalaudiofilename />
						</logginginfo>
						<colorinfo>
							<lut />
							<lut1 />
							<asc_sop />
							<asc_sat />
							<lut2 />
						</colorinfo>
					<labels><label2>Caribbean</label2></labels></clipitem>
					<clipitem id="clipitem-90">
						<masterclipid>clipitem-6-35</masterclipid>
						<name>Travis_Kelce_talks_about_postponing_his_wedding_to_Fiance_Taylor_Swift_on_the_New_Heights_Podcast.mp4</name>
						<enabled>TRUE</enabled>
						<duration>150</duration>
						<rate>
							<timebase>25</timebase>
							<ntsc>FALSE</ntsc>
						</rate>
						<start>73650</start>
						<end>73800</end>
						<in>5100</in>
						<out>5250</out>
						<pproTicksIn>0</pproTicksIn>
						<pproTicksOut>149391889920000</pproTicksOut>
						<alphatype>none</alphatype>
						<pixelaspectratio>square</pixelaspectratio>
						<anamorphic>FALSE</anamorphic>
						<file id="file-34">
							<name>Travis_Kelce_talks_about_postponing_his_wedding_to_Fiance_Taylor_Swift_on_the_New_Heights_Podcast.mp4</name>
							<pathurl>file://localhost/Users/themalikano/Documents/VideoAutomation/premiere_videos/Travis_Kelce_talks_about_postponing_his_wedding_to_Fiance_Taylor_Swift_on_the_New_Heights_Podcast.mp4</pathurl>
							<rate>
								<timebase>30</timebase>
								<ntsc>FALSE</ntsc>
							</rate>
							<duration>17644</duration>
							<timecode>
								<rate>
									<timebase>30</timebase>
									<ntsc>FALSE</ntsc>
								</rate>
								<string>00:00:00:00</string>
								<frame>0</frame>
								<displayformat>NDF</displayformat>
							</timecode>
							<media>
								<video>
									<samplecharacteristics>
										<rate>
											<timebase>30</timebase>
											<ntsc>FALSE</ntsc>
										</rate>
										<width>1920</width>
										<height>1080</height>
										<anamorphic>FALSE</anamorphic>
										<pixelaspectratio>square</pixelaspectratio>
										<fielddominance>none</fielddominance>
									</samplecharacteristics>
								</video>
								<audio>
									<samplecharacteristics>
										<depth>16</depth>
										<samplerate>44100</samplerate>
									</samplecharacteristics>
									<channelcount>2</channelcount>
								</audio>
							</media>
						</file>
						<link>
							<linkclipref>clipitem-90</linkclipref>
							<mediatype>video</mediatype>
							<trackindex>1</trackindex>
							<clipindex>6</clipindex>
						</link>
						<link>
							<linkclipref>clipitem-98</linkclipref>
							<mediatype>audio</mediatype>
							<trackindex>1</trackindex>
							<clipindex>6</clipindex>
							<groupindex>1</groupindex>
						</link>
						<link>
							<linkclipref>clipitem-106</linkclipref>
							<mediatype>audio</mediatype>
							<trackindex>2</trackindex>
							<clipindex>6</clipindex>
							<groupindex>1</groupindex>
						</link>
						<logginginfo>
							<description />
							<scene />
							<shottake />
							<lognote />
							<good />
							<originalvideofilename />
							<originalaudiofilename />
						</logginginfo>
						<colorinfo>
							<lut />
							<lut1 />
							<asc_sop />
							<asc_sat />
							<lut2 />
						</colorinfo>
					<labels><label2>Forest</label2></labels></clipitem>
					<clipitem id="clipitem-87">
						<masterclipid>clipitem-3-353</masterclipid>
						<name>Taylor_Swift_Travis_Kelce_-_The_New_Power_Couple.mp4</name>
						<enabled>TRUE</enabled>
						<duration>150</duration>
						<rate>
							<timebase>25</timebase>
							<ntsc>FALSE</ntsc>
						</rate>
						<start>73800</start>
						<end>73950</end>
						<in>52800</in>
						<out>52950</out>
						<pproTicksIn>0</pproTicksIn>
						<pproTicksOut>875013995520000</pproTicksOut>
						<alphatype>none</alphatype>
						<pixelaspectratio>square</pixelaspectratio>
						<anamorphic>FALSE</anamorphic>
						<file id="file-31">
							<name>Taylor_Swift_Travis_Kelce_-_The_New_Power_Couple.mp4</name>
							<pathurl>file://localhost/Users/themalikano/Documents/VideoAutomation/premiere_videos/Taylor_Swift_Travis_Kelce_-_The_New_Power_Couple.mp4</pathurl>
							<rate>
								<timebase>25</timebase>
								<ntsc>FALSE</ntsc>
							</rate>
							<duration>86118</duration>
							<timecode>
								<rate>
									<timebase>25</timebase>
									<ntsc>FALSE</ntsc>
								</rate>
								<string>00:00:00:00</string>
								<frame>0</frame>
								<displayformat>NDF</displayformat>
							</timecode>
							<media>
								<video>
									<samplecharacteristics>
										<rate>
											<timebase>25</timebase>
											<ntsc>FALSE</ntsc>
										</rate>
										<width>1920</width>
										<height>1080</height>
										<anamorphic>FALSE</anamorphic>
										<pixelaspectratio>square</pixelaspectratio>
										<fielddominance>none</fielddominance>
									</samplecharacteristics>
								</video>
								<audio>
									<samplecharacteristics>
										<depth>16</depth>
										<samplerate>44100</samplerate>
									</samplecharacteristics>
									<channelcount>2</channelcount>
								</audio>
							</media>
						</file>
						<link>
							<linkclipref>clipitem-87</linkclipref>
							<mediatype>video</mediatype>
							<trackindex>1</trackindex>
							<clipindex>3</clipindex>
						</link>
						<link>
							<linkclipref>clipitem-95</linkclipref>
							<mediatype>audio</mediatype>
							<trackindex>1</trackindex>
							<clipindex>3</clipindex>
							<groupindex>1</groupindex>
						</link>
						<link>
							<linkclipref>clipitem-103</linkclipref>
							<mediatype>audio</mediatype>
							<trackindex>2</trackindex>
							<clipindex>3</clipindex>
							<groupindex>1</groupindex>
						</link>
						<logginginfo>
							<description />
							<scene />
							<shottake />
							<lognote />
							<good />
							<originalvideofilename />
							<originalaudiofilename />
						</logginginfo>
						<colorinfo>
							<lut />
							<lut1 />
							<asc_sop />
							<asc_sat />
							<lut2 />
						</colorinfo>
					<labels><label2>Caribbean</label2></labels></clipitem>
					<clipitem id="clipitem-86">
						<masterclipid>clipitem-2-110</masterclipid>
						<name>Taylor_Swift_Shares_The_Story_Of_Calling_Travis_Kelce_For_The_First_Time.mp4</name>
						<enabled>TRUE</enabled>
						<duration>150</duration>
						<rate>
							<timebase>25</timebase>
							<ntsc>FALSE</ntsc>
						</rate>
						<start>73950</start>
						<end>74100</end>
						<in>16350</in>
						<out>16500</out>
						<pproTicksIn>0</pproTicksIn>
						<pproTicksOut>236438092800000</pproTicksOut>
						<alphatype>none</alphatype>
						<pixelaspectratio>square</pixelaspectratio>
						<anamorphic>FALSE</anamorphic>
						<file id="file-30">
							<name>Taylor_Swift_Shares_The_Story_Of_Calling_Travis_Kelce_For_The_First_Time.mp4</name>
							<pathurl>file://localhost/Users/themalikano/Documents/VideoAutomation/premiere_videos/Taylor_Swift_Shares_The_Story_Of_Calling_Travis_Kelce_For_The_First_Time.mp4</pathurl>
							<rate>
								<timebase>30</timebase>
								<ntsc>TRUE</ntsc>
							</rate>
							<duration>27897</duration>
							<timecode>
								<rate>
									<timebase>30</timebase>
									<ntsc>TRUE</ntsc>
								</rate>
								<string>00:00:00:00</string>
								<frame>0</frame>
								<displayformat>NDF</displayformat>
							</timecode>
							<media>
								<video>
									<samplecharacteristics>
										<rate>
											<timebase>30</timebase>
											<ntsc>TRUE</ntsc>
										</rate>
										<width>1920</width>
										<height>1080</height>
										<anamorphic>FALSE</anamorphic>
										<pixelaspectratio>square</pixelaspectratio>
										<fielddominance>none</fielddominance>
									</samplecharacteristics>
								</video>
								<audio>
									<samplecharacteristics>
										<depth>16</depth>
										<samplerate>44100</samplerate>
									</samplecharacteristics>
									<channelcount>2</channelcount>
								</audio>
							</media>
						</file>
						<link>
							<linkclipref>clipitem-86</linkclipref>
							<mediatype>video</mediatype>
							<trackindex>1</trackindex>
							<clipindex>2</clipindex>
						</link>
						<link>
							<linkclipref>clipitem-94</linkclipref>
							<mediatype>audio</mediatype>
							<trackindex>1</trackindex>
							<clipindex>2</clipindex>
							<groupindex>1</groupindex>
						</link>
						<link>
							<linkclipref>clipitem-102</linkclipref>
							<mediatype>audio</mediatype>
							<trackindex>2</trackindex>
							<clipindex>2</clipindex>
							<groupindex>1</groupindex>
						</link>
						<logginginfo>
							<description />
							<scene />
							<shottake />
							<lognote />
							<good />
							<originalvideofilename />
							<originalaudiofilename />
						</logginginfo>
						<colorinfo>
							<lut />
							<lut1 />
							<asc_sop />
							<asc_sat />
							<lut2 />
						</colorinfo>
					<labels><label2>Iris</label2></labels></clipitem>
					<clipitem id="clipitem-90">
						<masterclipid>clipitem-6-20</masterclipid>
						<name>Travis_Kelce_talks_about_postponing_his_wedding_to_Fiance_Taylor_Swift_on_the_New_Heights_Podcast.mp4</name>
						<enabled>TRUE</enabled>
						<duration>150</duration>
						<rate>
							<timebase>25</timebase>
							<ntsc>FALSE</ntsc>
						</rate>
						<start>74100</start>
						<end>74250</end>
						<in>2850</in>
						<out>3000</out>
						<pproTicksIn>0</pproTicksIn>
						<pproTicksOut>149391889920000</pproTicksOut>
						<alphatype>none</alphatype>
						<pixelaspectratio>square</pixelaspectratio>
						<anamorphic>FALSE</anamorphic>
						<file id="file-34">
							<name>Travis_Kelce_talks_about_postponing_his_wedding_to_Fiance_Taylor_Swift_on_the_New_Heights_Podcast.mp4</name>
							<pathurl>file://localhost/Users/themalikano/Documents/VideoAutomation/premiere_videos/Travis_Kelce_talks_about_postponing_his_wedding_to_Fiance_Taylor_Swift_on_the_New_Heights_Podcast.mp4</pathurl>
							<rate>
								<timebase>30</timebase>
								<ntsc>FALSE</ntsc>
							</rate>
							<duration>17644</duration>
							<timecode>
								<rate>
									<timebase>30</timebase>
									<ntsc>FALSE</ntsc>
								</rate>
								<string>00:00:00:00</string>
								<frame>0</frame>
								<displayformat>NDF</displayformat>
							</timecode>
							<media>
								<video>
									<samplecharacteristics>
										<rate>
											<timebase>30</timebase>
											<ntsc>FALSE</ntsc>
										</rate>
										<width>1920</width>
										<height>1080</height>
										<anamorphic>FALSE</anamorphic>
										<pixelaspectratio>square</pixelaspectratio>
										<fielddominance>none</fielddominance>
									</samplecharacteristics>
								</video>
								<audio>
									<samplecharacteristics>
										<depth>16</depth>
										<samplerate>44100</samplerate>
									</samplecharacteristics>
									<channelcount>2</channelcount>
								</audio>
							</media>
						</file>
						<link>
							<linkclipref>clipitem-90</linkclipref>
							<mediatype>video</mediatype>
							<trackindex>1</trackindex>
							<clipindex>6</clipindex>
						</link>
						<link>
							<linkclipref>clipitem-98</linkclipref>
							<mediatype>audio</mediatype>
							<trackindex>1</trackindex>
							<clipindex>6</clipindex>
							<groupindex>1</groupindex>
						</link>
						<link>
							<linkclipref>clipitem-106</linkclipref>
							<mediatype>audio</mediatype>
							<trackindex>2</trackindex>
							<clipindex>6</clipindex>
							<groupindex>1</groupindex>
						</link>
						<logginginfo>
							<description />
							<scene />
							<shottake />
							<lognote />
							<good />
							<originalvideofilename />
							<originalaudiofilename />
						</logginginfo>
						<colorinfo>
							<lut />
							<lut1 />
							<asc_sop />
							<asc_sat />
							<lut2 />
						</colorinfo>
					<labels><label2>Forest</label2></labels></clipitem>
					<clipitem id="clipitem-87">
						<masterclipid>clipitem-3-305</masterclipid>
						<name>Taylor_Swift_Travis_Kelce_-_The_New_Power_Couple.mp4</name>
						<enabled>TRUE</enabled>
						<duration>150</duration>
						<rate>
							<timebase>25</timebase>
							<ntsc>FALSE</ntsc>
						</rate>
						<start>74250</start>
						<end>74400</end>
						<in>45600</in>
						<out>45750</out>
						<pproTicksIn>0</pproTicksIn>
						<pproTicksOut>875013995520000</pproTicksOut>
						<alphatype>none</alphatype>
						<pixelaspectratio>square</pixelaspectratio>
						<anamorphic>FALSE</anamorphic>
						<file id="file-31">
							<name>Taylor_Swift_Travis_Kelce_-_The_New_Power_Couple.mp4</name>
							<pathurl>file://localhost/Users/themalikano/Documents/VideoAutomation/premiere_videos/Taylor_Swift_Travis_Kelce_-_The_New_Power_Couple.mp4</pathurl>
							<rate>
								<timebase>25</timebase>
								<ntsc>FALSE</ntsc>
							</rate>
							<duration>86118</duration>
							<timecode>
								<rate>
									<timebase>25</timebase>
									<ntsc>FALSE</ntsc>
								</rate>
								<string>00:00:00:00</string>
								<frame>0</frame>
								<displayformat>NDF</displayformat>
							</timecode>
							<media>
								<video>
									<samplecharacteristics>
										<rate>
											<timebase>25</timebase>
											<ntsc>FALSE</ntsc>
										</rate>
										<width>1920</width>
										<height>1080</height>
										<anamorphic>FALSE</anamorphic>
										<pixelaspectratio>square</pixelaspectratio>
										<fielddominance>none</fielddominance>
									</samplecharacteristics>
								</video>
								<audio>
									<samplecharacteristics>
										<depth>16</depth>
										<samplerate>44100</samplerate>
									</samplecharacteristics>
									<channelcount>2</channelcount>
								</audio>
							</media>
						</file>
						<link>
							<linkclipref>clipitem-87</linkclipref>
							<mediatype>video</mediatype>
							<trackindex>1</trackindex>
							<clipindex>3</clipindex>
						</link>
						<link>
							<linkclipref>clipitem-95</linkclipref>
							<mediatype>audio</mediatype>
							<trackindex>1</trackindex>
							<clipindex>3</clipindex>
							<groupindex>1</groupindex>
						</link>
						<link>
							<linkclipref>clipitem-103</linkclipref>
							<mediatype>audio</mediatype>
							<trackindex>2</trackindex>
							<clipindex>3</clipindex>
							<groupindex>1</groupindex>
						</link>
						<logginginfo>
							<description />
							<scene />
							<shottake />
							<lognote />
							<good />
							<originalvideofilename />
							<originalaudiofilename />
						</logginginfo>
						<colorinfo>
							<lut />
							<lut1 />
							<asc_sop />
							<asc_sat />
							<lut2 />
						</colorinfo>
					<labels><label2>Caribbean</label2></labels></clipitem>
					<clipitem id="clipitem-90">
						<masterclipid>clipitem-6-19</masterclipid>
						<name>Travis_Kelce_talks_about_postponing_his_wedding_to_Fiance_Taylor_Swift_on_the_New_Heights_Podcast.mp4</name>
						<enabled>TRUE</enabled>
						<duration>150</duration>
						<rate>
							<timebase>25</timebase>
							<ntsc>FALSE</ntsc>
						</rate>
						<start>74400</start>
						<end>74550</end>
						<in>2700</in>
						<out>2850</out>
						<pproTicksIn>0</pproTicksIn>
						<pproTicksOut>149391889920000</pproTicksOut>
						<alphatype>none</alphatype>
						<pixelaspectratio>square</pixelaspectratio>
						<anamorphic>FALSE</anamorphic>
						<file id="file-34">
							<name>Travis_Kelce_talks_about_postponing_his_wedding_to_Fiance_Taylor_Swift_on_the_New_Heights_Podcast.mp4</name>
							<pathurl>file://localhost/Users/themalikano/Documents/VideoAutomation/premiere_videos/Travis_Kelce_talks_about_postponing_his_wedding_to_Fiance_Taylor_Swift_on_the_New_Heights_Podcast.mp4</pathurl>
							<rate>
								<timebase>30</timebase>
								<ntsc>FALSE</ntsc>
							</rate>
							<duration>17644</duration>
							<timecode>
								<rate>
									<timebase>30</timebase>
									<ntsc>FALSE</ntsc>
								</rate>
								<string>00:00:00:00</string>
								<frame>0</frame>
								<displayformat>NDF</displayformat>
							</timecode>
							<media>
								<video>
									<samplecharacteristics>
										<rate>
											<timebase>30</timebase>
											<ntsc>FALSE</ntsc>
										</rate>
										<width>1920</width>
										<height>1080</height>
										<anamorphic>FALSE</anamorphic>
										<pixelaspectratio>square</pixelaspectratio>
										<fielddominance>none</fielddominance>
									</samplecharacteristics>
								</video>
								<audio>
									<samplecharacteristics>
										<depth>16</depth>
										<samplerate>44100</samplerate>
									</samplecharacteristics>
									<channelcount>2</channelcount>
								</audio>
							</media>
						</file>
						<link>
							<linkclipref>clipitem-90</linkclipref>
							<mediatype>video</mediatype>
							<trackindex>1</trackindex>
							<clipindex>6</clipindex>
						</link>
						<link>
							<linkclipref>clipitem-98</linkclipref>
							<mediatype>audio</mediatype>
							<trackindex>1</trackindex>
							<clipindex>6</clipindex>
							<groupindex>1</groupindex>
						</link>
						<link>
							<linkclipref>clipitem-106</linkclipref>
							<mediatype>audio</mediatype>
							<trackindex>2</trackindex>
							<clipindex>6</clipindex>
							<groupindex>1</groupindex>
						</link>
						<logginginfo>
							<description />
							<scene />
							<shottake />
							<lognote />
							<good />
							<originalvideofilename />
							<originalaudiofilename />
						</logginginfo>
						<colorinfo>
							<lut />
							<lut1 />
							<asc_sop />
							<asc_sat />
							<lut2 />
						</colorinfo>
					<labels><label2>Forest</label2></labels></clipitem>
					<clipitem id="clipitem-86">
						<masterclipid>clipitem-2-111</masterclipid>
						<name>Taylor_Swift_Shares_The_Story_Of_Calling_Travis_Kelce_For_The_First_Time.mp4</name>
						<enabled>TRUE</enabled>
						<duration>150</duration>
						<rate>
							<timebase>25</timebase>
							<ntsc>FALSE</ntsc>
						</rate>
						<start>74550</start>
						<end>74700</end>
						<in>16500</in>
						<out>16650</out>
						<pproTicksIn>0</pproTicksIn>
						<pproTicksOut>236438092800000</pproTicksOut>
						<alphatype>none</alphatype>
						<pixelaspectratio>square</pixelaspectratio>
						<anamorphic>FALSE</anamorphic>
						<file id="file-30">
							<name>Taylor_Swift_Shares_The_Story_Of_Calling_Travis_Kelce_For_The_First_Time.mp4</name>
							<pathurl>file://localhost/Users/themalikano/Documents/VideoAutomation/premiere_videos/Taylor_Swift_Shares_The_Story_Of_Calling_Travis_Kelce_For_The_First_Time.mp4</pathurl>
							<rate>
								<timebase>30</timebase>
								<ntsc>TRUE</ntsc>
							</rate>
							<duration>27897</duration>
							<timecode>
								<rate>
									<timebase>30</timebase>
									<ntsc>TRUE</ntsc>
								</rate>
								<string>00:00:00:00</string>
								<frame>0</frame>
								<displayformat>NDF</displayformat>
							</timecode>
							<media>
								<video>
									<samplecharacteristics>
										<rate>
											<timebase>30</timebase>
											<ntsc>TRUE</ntsc>
										</rate>
										<width>1920</width>
										<height>1080</height>
										<anamorphic>FALSE</anamorphic>
										<pixelaspectratio>square</pixelaspectratio>
										<fielddominance>none</fielddominance>
									</samplecharacteristics>
								</video>
								<audio>
									<samplecharacteristics>
										<depth>16</depth>
										<samplerate>44100</samplerate>
									</samplecharacteristics>
									<channelcount>2</channelcount>
								</audio>
							</media>
						</file>
						<link>
							<linkclipref>clipitem-86</linkclipref>
							<mediatype>video</mediatype>
							<trackindex>1</trackindex>
							<clipindex>2</clipindex>
						</link>
						<link>
							<linkclipref>clipitem-94</linkclipref>
							<mediatype>audio</mediatype>
							<trackindex>1</trackindex>
							<clipindex>2</clipindex>
							<groupindex>1</groupindex>
						</link>
						<link>
							<linkclipref>clipitem-102</linkclipref>
							<mediatype>audio</mediatype>
							<trackindex>2</trackindex>
							<clipindex>2</clipindex>
							<groupindex>1</groupindex>
						</link>
						<logginginfo>
							<description />
							<scene />
							<shottake />
							<lognote />
							<good />
							<originalvideofilename />
							<originalaudiofilename />
						</logginginfo>
						<colorinfo>
							<lut />
							<lut1 />
							<asc_sop />
							<asc_sat />
							<lut2 />
						</colorinfo>
					<labels><label2>Iris</label2></labels></clipitem>
					<clipitem id="clipitem-90">
						<masterclipid>clipitem-6-41</masterclipid>
						<name>Travis_Kelce_talks_about_postponing_his_wedding_to_Fiance_Taylor_Swift_on_the_New_Heights_Podcast.mp4</name>
						<enabled>TRUE</enabled>
						<duration>150</duration>
						<rate>
							<timebase>25</timebase>
							<ntsc>FALSE</ntsc>
						</rate>
						<start>74700</start>
						<end>74850</end>
						<in>6000</in>
						<out>6150</out>
						<pproTicksIn>0</pproTicksIn>
						<pproTicksOut>149391889920000</pproTicksOut>
						<alphatype>none</alphatype>
						<pixelaspectratio>square</pixelaspectratio>
						<anamorphic>FALSE</anamorphic>
						<file id="file-34">
							<name>Travis_Kelce_talks_about_postponing_his_wedding_to_Fiance_Taylor_Swift_on_the_New_Heights_Podcast.mp4</name>
							<pathurl>file://localhost/Users/themalikano/Documents/VideoAutomation/premiere_videos/Travis_Kelce_talks_about_postponing_his_wedding_to_Fiance_Taylor_Swift_on_the_New_Heights_Podcast.mp4</pathurl>
							<rate>
								<timebase>30</timebase>
								<ntsc>FALSE</ntsc>
							</rate>
							<duration>17644</duration>
							<timecode>
								<rate>
									<timebase>30</timebase>
									<ntsc>FALSE</ntsc>
								</rate>
								<string>00:00:00:00</string>
								<frame>0</frame>
								<displayformat>NDF</displayformat>
							</timecode>
							<media>
								<video>
									<samplecharacteristics>
										<rate>
											<timebase>30</timebase>
											<ntsc>FALSE</ntsc>
										</rate>
										<width>1920</width>
										<height>1080</height>
										<anamorphic>FALSE</anamorphic>
										<pixelaspectratio>square</pixelaspectratio>
										<fielddominance>none</fielddominance>
									</samplecharacteristics>
								</video>
								<audio>
									<samplecharacteristics>
										<depth>16</depth>
										<samplerate>44100</samplerate>
									</samplecharacteristics>
									<channelcount>2</channelcount>
								</audio>
							</media>
						</file>
						<link>
							<linkclipref>clipitem-90</linkclipref>
							<mediatype>video</mediatype>
							<trackindex>1</trackindex>
							<clipindex>6</clipindex>
						</link>
						<link>
							<linkclipref>clipitem-98</linkclipref>
							<mediatype>audio</mediatype>
							<trackindex>1</trackindex>
							<clipindex>6</clipindex>
							<groupindex>1</groupindex>
						</link>
						<link>
							<linkclipref>clipitem-106</linkclipref>
							<mediatype>audio</mediatype>
							<trackindex>2</trackindex>
							<clipindex>6</clipindex>
							<groupindex>1</groupindex>
						</link>
						<logginginfo>
							<description />
							<scene />
							<shottake />
							<lognote />
							<good />
							<originalvideofilename />
							<originalaudiofilename />
						</logginginfo>
						<colorinfo>
							<lut />
							<lut1 />
							<asc_sop />
							<asc_sat />
							<lut2 />
						</colorinfo>
					<labels><label2>Forest</label2></labels></clipitem>
					<clipitem id="clipitem-87">
						<masterclipid>clipitem-3-396</masterclipid>
						<name>Taylor_Swift_Travis_Kelce_-_The_New_Power_Couple.mp4</name>
						<enabled>TRUE</enabled>
						<duration>150</duration>
						<rate>
							<timebase>25</timebase>
							<ntsc>FALSE</ntsc>
						</rate>
						<start>74850</start>
						<end>75000</end>
						<in>59250</in>
						<out>59400</out>
						<pproTicksIn>0</pproTicksIn>
						<pproTicksOut>875013995520000</pproTicksOut>
						<alphatype>none</alphatype>
						<pixelaspectratio>square</pixelaspectratio>
						<anamorphic>FALSE</anamorphic>
						<file id="file-31">
							<name>Taylor_Swift_Travis_Kelce_-_The_New_Power_Couple.mp4</name>
							<pathurl>file://localhost/Users/themalikano/Documents/VideoAutomation/premiere_videos/Taylor_Swift_Travis_Kelce_-_The_New_Power_Couple.mp4</pathurl>
							<rate>
								<timebase>25</timebase>
								<ntsc>FALSE</ntsc>
							</rate>
							<duration>86118</duration>
							<timecode>
								<rate>
									<timebase>25</timebase>
									<ntsc>FALSE</ntsc>
								</rate>
								<string>00:00:00:00</string>
								<frame>0</frame>
								<displayformat>NDF</displayformat>
							</timecode>
							<media>
								<video>
									<samplecharacteristics>
										<rate>
											<timebase>25</timebase>
											<ntsc>FALSE</ntsc>
										</rate>
										<width>1920</width>
										<height>1080</height>
										<anamorphic>FALSE</anamorphic>
										<pixelaspectratio>square</pixelaspectratio>
										<fielddominance>none</fielddominance>
									</samplecharacteristics>
								</video>
								<audio>
									<samplecharacteristics>
										<depth>16</depth>
										<samplerate>44100</samplerate>
									</samplecharacteristics>
									<channelcount>2</channelcount>
								</audio>
							</media>
						</file>
						<link>
							<linkclipref>clipitem-87</linkclipref>
							<mediatype>video</mediatype>
							<trackindex>1</trackindex>
							<clipindex>3</clipindex>
						</link>
						<link>
							<linkclipref>clipitem-95</linkclipref>
							<mediatype>audio</mediatype>
							<trackindex>1</trackindex>
							<clipindex>3</clipindex>
							<groupindex>1</groupindex>
						</link>
						<link>
							<linkclipref>clipitem-103</linkclipref>
							<mediatype>audio</mediatype>
							<trackindex>2</trackindex>
							<clipindex>3</clipindex>
							<groupindex>1</groupindex>
						</link>
						<logginginfo>
							<description />
							<scene />
							<shottake />
							<lognote />
							<good />
							<originalvideofilename />
							<originalaudiofilename />
						</logginginfo>
						<colorinfo>
							<lut />
							<lut1 />
							<asc_sop />
							<asc_sat />
							<lut2 />
						</colorinfo>
					<labels><label2>Caribbean</label2></labels></clipitem>
					<clipitem id="clipitem-86">
						<masterclipid>clipitem-2-123</masterclipid>
						<name>Taylor_Swift_Shares_The_Story_Of_Calling_Travis_Kelce_For_The_First_Time.mp4</name>
						<enabled>TRUE</enabled>
						<duration>150</duration>
						<rate>
							<timebase>25</timebase>
							<ntsc>FALSE</ntsc>
						</rate>
						<start>75000</start>
						<end>75150</end>
						<in>18300</in>
						<out>18450</out>
						<pproTicksIn>0</pproTicksIn>
						<pproTicksOut>236438092800000</pproTicksOut>
						<alphatype>none</alphatype>
						<pixelaspectratio>square</pixelaspectratio>
						<anamorphic>FALSE</anamorphic>
						<file id="file-30">
							<name>Taylor_Swift_Shares_The_Story_Of_Calling_Travis_Kelce_For_The_First_Time.mp4</name>
							<pathurl>file://localhost/Users/themalikano/Documents/VideoAutomation/premiere_videos/Taylor_Swift_Shares_The_Story_Of_Calling_Travis_Kelce_For_The_First_Time.mp4</pathurl>
							<rate>
								<timebase>30</timebase>
								<ntsc>TRUE</ntsc>
							</rate>
							<duration>27897</duration>
							<timecode>
								<rate>
									<timebase>30</timebase>
									<ntsc>TRUE</ntsc>
								</rate>
								<string>00:00:00:00</string>
								<frame>0</frame>
								<displayformat>NDF</displayformat>
							</timecode>
							<media>
								<video>
									<samplecharacteristics>
										<rate>
											<timebase>30</timebase>
											<ntsc>TRUE</ntsc>
										</rate>
										<width>1920</width>
										<height>1080</height>
										<anamorphic>FALSE</anamorphic>
										<pixelaspectratio>square</pixelaspectratio>
										<fielddominance>none</fielddominance>
									</samplecharacteristics>
								</video>
								<audio>
									<samplecharacteristics>
										<depth>16</depth>
										<samplerate>44100</samplerate>
									</samplecharacteristics>
									<channelcount>2</channelcount>
								</audio>
							</media>
						</file>
						<link>
							<linkclipref>clipitem-86</linkclipref>
							<mediatype>video</mediatype>
							<trackindex>1</trackindex>
							<clipindex>2</clipindex>
						</link>
						<link>
							<linkclipref>clipitem-94</linkclipref>
							<mediatype>audio</mediatype>
							<trackindex>1</trackindex>
							<clipindex>2</clipindex>
							<groupindex>1</groupindex>
						</link>
						<link>
							<linkclipref>clipitem-102</linkclipref>
							<mediatype>audio</mediatype>
							<trackindex>2</trackindex>
							<clipindex>2</clipindex>
							<groupindex>1</groupindex>
						</link>
						<logginginfo>
							<description />
							<scene />
							<shottake />
							<lognote />
							<good />
							<originalvideofilename />
							<originalaudiofilename />
						</logginginfo>
						<colorinfo>
							<lut />
							<lut1 />
							<asc_sop />
							<asc_sat />
							<lut2 />
						</colorinfo>
					<labels><label2>Iris</label2></labels></clipitem>
					<clipitem id="clipitem-87">
						<masterclipid>clipitem-3-266</masterclipid>
						<name>Taylor_Swift_Travis_Kelce_-_The_New_Power_Couple.mp4</name>
						<enabled>TRUE</enabled>
						<duration>150</duration>
						<rate>
							<timebase>25</timebase>
							<ntsc>FALSE</ntsc>
						</rate>
						<start>75150</start>
						<end>75300</end>
						<in>39750</in>
						<out>39900</out>
						<pproTicksIn>0</pproTicksIn>
						<pproTicksOut>875013995520000</pproTicksOut>
						<alphatype>none</alphatype>
						<pixelaspectratio>square</pixelaspectratio>
						<anamorphic>FALSE</anamorphic>
						<file id="file-31">
							<name>Taylor_Swift_Travis_Kelce_-_The_New_Power_Couple.mp4</name>
							<pathurl>file://localhost/Users/themalikano/Documents/VideoAutomation/premiere_videos/Taylor_Swift_Travis_Kelce_-_The_New_Power_Couple.mp4</pathurl>
							<rate>
								<timebase>25</timebase>
								<ntsc>FALSE</ntsc>
							</rate>
							<duration>86118</duration>
							<timecode>
								<rate>
									<timebase>25</timebase>
									<ntsc>FALSE</ntsc>
								</rate>
								<string>00:00:00:00</string>
								<frame>0</frame>
								<displayformat>NDF</displayformat>
							</timecode>
							<media>
								<video>
									<samplecharacteristics>
										<rate>
											<timebase>25</timebase>
											<ntsc>FALSE</ntsc>
										</rate>
										<width>1920</width>
										<height>1080</height>
										<anamorphic>FALSE</anamorphic>
										<pixelaspectratio>square</pixelaspectratio>
										<fielddominance>none</fielddominance>
									</samplecharacteristics>
								</video>
								<audio>
									<samplecharacteristics>
										<depth>16</depth>
										<samplerate>44100</samplerate>
									</samplecharacteristics>
									<channelcount>2</channelcount>
								</audio>
							</media>
						</file>
						<link>
							<linkclipref>clipitem-87</linkclipref>
							<mediatype>video</mediatype>
							<trackindex>1</trackindex>
							<clipindex>3</clipindex>
						</link>
						<link>
							<linkclipref>clipitem-95</linkclipref>
							<mediatype>audio</mediatype>
							<trackindex>1</trackindex>
							<clipindex>3</clipindex>
							<groupindex>1</groupindex>
						</link>
						<link>
							<linkclipref>clipitem-103</linkclipref>
							<mediatype>audio</mediatype>
							<trackindex>2</trackindex>
							<clipindex>3</clipindex>
							<groupindex>1</groupindex>
						</link>
						<logginginfo>
							<description />
							<scene />
							<shottake />
							<lognote />
							<good />
							<originalvideofilename />
							<originalaudiofilename />
						</logginginfo>
						<colorinfo>
							<lut />
							<lut1 />
							<asc_sop />
							<asc_sat />
							<lut2 />
						</colorinfo>
					<labels><label2>Caribbean</label2></labels></clipitem>
					<clipitem id="clipitem-86">
						<masterclipid>clipitem-2-54</masterclipid>
						<name>Taylor_Swift_Shares_The_Story_Of_Calling_Travis_Kelce_For_The_First_Time.mp4</name>
						<enabled>TRUE</enabled>
						<duration>150</duration>
						<rate>
							<timebase>25</timebase>
							<ntsc>FALSE</ntsc>
						</rate>
						<start>75300</start>
						<end>75450</end>
						<in>7950</in>
						<out>8100</out>
						<pproTicksIn>0</pproTicksIn>
						<pproTicksOut>236438092800000</pproTicksOut>
						<alphatype>none</alphatype>
						<pixelaspectratio>square</pixelaspectratio>
						<anamorphic>FALSE</anamorphic>
						<file id="file-30">
							<name>Taylor_Swift_Shares_The_Story_Of_Calling_Travis_Kelce_For_The_First_Time.mp4</name>
							<pathurl>file://localhost/Users/themalikano/Documents/VideoAutomation/premiere_videos/Taylor_Swift_Shares_The_Story_Of_Calling_Travis_Kelce_For_The_First_Time.mp4</pathurl>
							<rate>
								<timebase>30</timebase>
								<ntsc>TRUE</ntsc>
							</rate>
							<duration>27897</duration>
							<timecode>
								<rate>
									<timebase>30</timebase>
									<ntsc>TRUE</ntsc>
								</rate>
								<string>00:00:00:00</string>
								<frame>0</frame>
								<displayformat>NDF</displayformat>
							</timecode>
							<media>
								<video>
									<samplecharacteristics>
										<rate>
											<timebase>30</timebase>
											<ntsc>TRUE</ntsc>
										</rate>
										<width>1920</width>
										<height>1080</height>
										<anamorphic>FALSE</anamorphic>
										<pixelaspectratio>square</pixelaspectratio>
										<fielddominance>none</fielddominance>
									</samplecharacteristics>
								</video>
								<audio>
									<samplecharacteristics>
										<depth>16</depth>
										<samplerate>44100</samplerate>
									</samplecharacteristics>
									<channelcount>2</channelcount>
								</audio>
							</media>
						</file>
						<link>
							<linkclipref>clipitem-86</linkclipref>
							<mediatype>video</mediatype>
							<trackindex>1</trackindex>
							<clipindex>2</clipindex>
						</link>
						<link>
							<linkclipref>clipitem-94</linkclipref>
							<mediatype>audio</mediatype>
							<trackindex>1</trackindex>
							<clipindex>2</clipindex>
							<groupindex>1</groupindex>
						</link>
						<link>
							<linkclipref>clipitem-102</linkclipref>
							<mediatype>audio</mediatype>
							<trackindex>2</trackindex>
							<clipindex>2</clipindex>
							<groupindex>1</groupindex>
						</link>
						<logginginfo>
							<description />
							<scene />
							<shottake />
							<lognote />
							<good />
							<originalvideofilename />
							<originalaudiofilename />
						</logginginfo>
						<colorinfo>
							<lut />
							<lut1 />
							<asc_sop />
							<asc_sat />
							<lut2 />
						</colorinfo>
					<labels><label2>Iris</label2></labels></clipitem>
					<clipitem id="clipitem-90">
						<masterclipid>clipitem-6-25</masterclipid>
						<name>Travis_Kelce_talks_about_postponing_his_wedding_to_Fiance_Taylor_Swift_on_the_New_Heights_Podcast.mp4</name>
						<enabled>TRUE</enabled>
						<duration>150</duration>
						<rate>
							<timebase>25</timebase>
							<ntsc>FALSE</ntsc>
						</rate>
						<start>75450</start>
						<end>75600</end>
						<in>3600</in>
						<out>3750</out>
						<pproTicksIn>0</pproTicksIn>
						<pproTicksOut>149391889920000</pproTicksOut>
						<alphatype>none</alphatype>
						<pixelaspectratio>square</pixelaspectratio>
						<anamorphic>FALSE</anamorphic>
						<file id="file-34">
							<name>Travis_Kelce_talks_about_postponing_his_wedding_to_Fiance_Taylor_Swift_on_the_New_Heights_Podcast.mp4</name>
							<pathurl>file://localhost/Users/themalikano/Documents/VideoAutomation/premiere_videos/Travis_Kelce_talks_about_postponing_his_wedding_to_Fiance_Taylor_Swift_on_the_New_Heights_Podcast.mp4</pathurl>
							<rate>
								<timebase>30</timebase>
								<ntsc>FALSE</ntsc>
							</rate>
							<duration>17644</duration>
							<timecode>
								<rate>
									<timebase>30</timebase>
									<ntsc>FALSE</ntsc>
								</rate>
								<string>00:00:00:00</string>
								<frame>0</frame>
								<displayformat>NDF</displayformat>
							</timecode>
							<media>
								<video>
									<samplecharacteristics>
										<rate>
											<timebase>30</timebase>
											<ntsc>FALSE</ntsc>
										</rate>
										<width>1920</width>
										<height>1080</height>
										<anamorphic>FALSE</anamorphic>
										<pixelaspectratio>square</pixelaspectratio>
										<fielddominance>none</fielddominance>
									</samplecharacteristics>
								</video>
								<audio>
									<samplecharacteristics>
										<depth>16</depth>
										<samplerate>44100</samplerate>
									</samplecharacteristics>
									<channelcount>2</channelcount>
								</audio>
							</media>
						</file>
						<link>
							<linkclipref>clipitem-90</linkclipref>
							<mediatype>video</mediatype>
							<trackindex>1</trackindex>
							<clipindex>6</clipindex>
						</link>
						<link>
							<linkclipref>clipitem-98</linkclipref>
							<mediatype>audio</mediatype>
							<trackindex>1</trackindex>
							<clipindex>6</clipindex>
							<groupindex>1</groupindex>
						</link>
						<link>
							<linkclipref>clipitem-106</linkclipref>
							<mediatype>audio</mediatype>
							<trackindex>2</trackindex>
							<clipindex>6</clipindex>
							<groupindex>1</groupindex>
						</link>
						<logginginfo>
							<description />
							<scene />
							<shottake />
							<lognote />
							<good />
							<originalvideofilename />
							<originalaudiofilename />
						</logginginfo>
						<colorinfo>
							<lut />
							<lut1 />
							<asc_sop />
							<asc_sat />
							<lut2 />
						</colorinfo>
					<labels><label2>Forest</label2></labels></clipitem>
					<clipitem id="clipitem-88">
						<masterclipid>clipitem-4-12</masterclipid>
						<name>Travis_Kelce_ANNOUNCE_WEDDING_DATE_with_Taylor_Swift_Why_He_was_Delaying_all_Along.mp4</name>
						<enabled>TRUE</enabled>
						<duration>150</duration>
						<rate>
							<timebase>25</timebase>
							<ntsc>FALSE</ntsc>
						</rate>
						<start>75600</start>
						<end>75750</end>
						<in>1650</in>
						<out>1800</out>
						<pproTicksIn>0</pproTicksIn>
						<pproTicksOut>419410897920000</pproTicksOut>
						<alphatype>none</alphatype>
						<pixelaspectratio>square</pixelaspectratio>
						<anamorphic>FALSE</anamorphic>
						<file id="file-32">
							<name>Travis_Kelce_ANNOUNCE_WEDDING_DATE_with_Taylor_Swift_Why_He_was_Delaying_all_Along.mp4</name>
							<pathurl>file://localhost/Users/themalikano/Documents/VideoAutomation/premiere_videos/Travis_Kelce_ANNOUNCE_WEDDING_DATE_with_Taylor_Swift_Why_He_was_Delaying_all_Along.mp4</pathurl>
							<rate>
								<timebase>24</timebase>
								<ntsc>FALSE</ntsc>
							</rate>
							<duration>39627</duration>
							<timecode>
								<rate>
									<timebase>24</timebase>
									<ntsc>FALSE</ntsc>
								</rate>
								<string>00:00:00:00</string>
								<frame>0</frame>
								<displayformat>NDF</displayformat>
							</timecode>
							<media>
								<video>
									<samplecharacteristics>
										<rate>
											<timebase>24</timebase>
											<ntsc>FALSE</ntsc>
										</rate>
										<width>852</width>
										<height>480</height>
										<anamorphic>FALSE</anamorphic>
										<pixelaspectratio>square</pixelaspectratio>
										<fielddominance>none</fielddominance>
									</samplecharacteristics>
								</video>
								<audio>
									<samplecharacteristics>
										<depth>16</depth>
										<samplerate>44100</samplerate>
									</samplecharacteristics>
									<channelcount>2</channelcount>
								</audio>
							</media>
						</file>
						<filter>
							<effect>
								<name>Basic Motion</name>
								<effectid>basic</effectid>
								<effectcategory>motion</effectcategory>
								<effecttype>motion</effecttype>
								<mediatype>video</mediatype>
								<pproBypass>false</pproBypass>
								<parameter authoringApp="PremierePro">
									<parameterid>scale</parameterid>
									<name>Scale</name>
									<valuemin>0</valuemin>
									<valuemax>1000</valuemax>
									<value>225</value>
								</parameter>
								<parameter authoringApp="PremierePro">
									<parameterid>rotation</parameterid>
									<name>Rotation</name>
									<valuemin>-8640</valuemin>
									<valuemax>8640</valuemax>
									<value>0</value>
								</parameter>
								<parameter authoringApp="PremierePro">
									<parameterid>center</parameterid>
									<name>Center</name>
									<value>
										<horiz>0</horiz>
										<vert>0</vert>
									</value>
								</parameter>
								<parameter authoringApp="PremierePro">
									<parameterid>centerOffset</parameterid>
									<name>Anchor Point</name>
									<value>
										<horiz>0</horiz>
										<vert>0</vert>
									</value>
								</parameter>
								<parameter authoringApp="PremierePro">
									<parameterid>antiflicker</parameterid>
									<name>Anti-flicker Filter</name>
									<valuemin>0.0</valuemin>
									<valuemax>1.0</valuemax>
									<value>0</value>
								</parameter>
							</effect>
						</filter>
						<link>
							<linkclipref>clipitem-88</linkclipref>
							<mediatype>video</mediatype>
							<trackindex>1</trackindex>
							<clipindex>4</clipindex>
						</link>
						<link>
							<linkclipref>clipitem-96</linkclipref>
							<mediatype>audio</mediatype>
							<trackindex>1</trackindex>
							<clipindex>4</clipindex>
							<groupindex>1</groupindex>
						</link>
						<link>
							<linkclipref>clipitem-104</linkclipref>
							<mediatype>audio</mediatype>
							<trackindex>2</trackindex>
							<clipindex>4</clipindex>
							<groupindex>1</groupindex>
						</link>
						<logginginfo>
							<description />
							<scene />
							<shottake />
							<lognote />
							<good />
							<originalvideofilename />
							<originalaudiofilename />
						</logginginfo>
						<colorinfo>
							<lut />
							<lut1 />
							<asc_sop />
							<asc_sat />
							<lut2 />
						</colorinfo>
					<labels><label2>Lavender</label2></labels></clipitem>
					<clipitem id="clipitem-86">
						<masterclipid>clipitem-2-109</masterclipid>
						<name>Taylor_Swift_Shares_The_Story_Of_Calling_Travis_Kelce_For_The_First_Time.mp4</name>
						<enabled>TRUE</enabled>
						<duration>150</duration>
						<rate>
							<timebase>25</timebase>
							<ntsc>FALSE</ntsc>
						</rate>
						<start>75750</start>
						<end>75900</end>
						<in>16200</in>
						<out>16350</out>
						<pproTicksIn>0</pproTicksIn>
						<pproTicksOut>236438092800000</pproTicksOut>
						<alphatype>none</alphatype>
						<pixelaspectratio>square</pixelaspectratio>
						<anamorphic>FALSE</anamorphic>
						<file id="file-30">
							<name>Taylor_Swift_Shares_The_Story_Of_Calling_Travis_Kelce_For_The_First_Time.mp4</name>
							<pathurl>file://localhost/Users/themalikano/Documents/VideoAutomation/premiere_videos/Taylor_Swift_Shares_The_Story_Of_Calling_Travis_Kelce_For_The_First_Time.mp4</pathurl>
							<rate>
								<timebase>30</timebase>
								<ntsc>TRUE</ntsc>
							</rate>
							<duration>27897</duration>
							<timecode>
								<rate>
									<timebase>30</timebase>
									<ntsc>TRUE</ntsc>
								</rate>
								<string>00:00:00:00</string>
								<frame>0</frame>
								<displayformat>NDF</displayformat>
							</timecode>
							<media>
								<video>
									<samplecharacteristics>
										<rate>
											<timebase>30</timebase>
											<ntsc>TRUE</ntsc>
										</rate>
										<width>1920</width>
										<height>1080</height>
										<anamorphic>FALSE</anamorphic>
										<pixelaspectratio>square</pixelaspectratio>
										<fielddominance>none</fielddominance>
									</samplecharacteristics>
								</video>
								<audio>
									<samplecharacteristics>
										<depth>16</depth>
										<samplerate>44100</samplerate>
									</samplecharacteristics>
									<channelcount>2</channelcount>
								</audio>
							</media>
						</file>
						<link>
							<linkclipref>clipitem-86</linkclipref>
							<mediatype>video</mediatype>
							<trackindex>1</trackindex>
							<clipindex>2</clipindex>
						</link>
						<link>
							<linkclipref>clipitem-94</linkclipref>
							<mediatype>audio</mediatype>
							<trackindex>1</trackindex>
							<clipindex>2</clipindex>
							<groupindex>1</groupindex>
						</link>
						<link>
							<linkclipref>clipitem-102</linkclipref>
							<mediatype>audio</mediatype>
							<trackindex>2</trackindex>
							<clipindex>2</clipindex>
							<groupindex>1</groupindex>
						</link>
						<logginginfo>
							<description />
							<scene />
							<shottake />
							<lognote />
							<good />
							<originalvideofilename />
							<originalaudiofilename />
						</logginginfo>
						<colorinfo>
							<lut />
							<lut1 />
							<asc_sop />
							<asc_sat />
							<lut2 />
						</colorinfo>
					<labels><label2>Iris</label2></labels></clipitem>
					<clipitem id="clipitem-87">
						<masterclipid>clipitem-3-441</masterclipid>
						<name>Taylor_Swift_Travis_Kelce_-_The_New_Power_Couple.mp4</name>
						<enabled>TRUE</enabled>
						<duration>150</duration>
						<rate>
							<timebase>25</timebase>
							<ntsc>FALSE</ntsc>
						</rate>
						<start>75900</start>
						<end>76050</end>
						<in>66000</in>
						<out>66150</out>
						<pproTicksIn>0</pproTicksIn>
						<pproTicksOut>875013995520000</pproTicksOut>
						<alphatype>none</alphatype>
						<pixelaspectratio>square</pixelaspectratio>
						<anamorphic>FALSE</anamorphic>
						<file id="file-31">
							<name>Taylor_Swift_Travis_Kelce_-_The_New_Power_Couple.mp4</name>
							<pathurl>file://localhost/Users/themalikano/Documents/VideoAutomation/premiere_videos/Taylor_Swift_Travis_Kelce_-_The_New_Power_Couple.mp4</pathurl>
							<rate>
								<timebase>25</timebase>
								<ntsc>FALSE</ntsc>
							</rate>
							<duration>86118</duration>
							<timecode>
								<rate>
									<timebase>25</timebase>
									<ntsc>FALSE</ntsc>
								</rate>
								<string>00:00:00:00</string>
								<frame>0</frame>
								<displayformat>NDF</displayformat>
							</timecode>
							<media>
								<video>
									<samplecharacteristics>
										<rate>
											<timebase>25</timebase>
											<ntsc>FALSE</ntsc>
										</rate>
										<width>1920</width>
										<height>1080</height>
										<anamorphic>FALSE</anamorphic>
										<pixelaspectratio>square</pixelaspectratio>
										<fielddominance>none</fielddominance>
									</samplecharacteristics>
								</video>
								<audio>
									<samplecharacteristics>
										<depth>16</depth>
										<samplerate>44100</samplerate>
									</samplecharacteristics>
									<channelcount>2</channelcount>
								</audio>
							</media>
						</file>
						<link>
							<linkclipref>clipitem-87</linkclipref>
							<mediatype>video</mediatype>
							<trackindex>1</trackindex>
							<clipindex>3</clipindex>
						</link>
						<link>
							<linkclipref>clipitem-95</linkclipref>
							<mediatype>audio</mediatype>
							<trackindex>1</trackindex>
							<clipindex>3</clipindex>
							<groupindex>1</groupindex>
						</link>
						<link>
							<linkclipref>clipitem-103</linkclipref>
							<mediatype>audio</mediatype>
							<trackindex>2</trackindex>
							<clipindex>3</clipindex>
							<groupindex>1</groupindex>
						</link>
						<logginginfo>
							<description />
							<scene />
							<shottake />
							<lognote />
							<good />
							<originalvideofilename />
							<originalaudiofilename />
						</logginginfo>
						<colorinfo>
							<lut />
							<lut1 />
							<asc_sop />
							<asc_sat />
							<lut2 />
						</colorinfo>
					<labels><label2>Caribbean</label2></labels></clipitem>
					<clipitem id="clipitem-86">
						<masterclipid>clipitem-2-71</masterclipid>
						<name>Taylor_Swift_Shares_The_Story_Of_Calling_Travis_Kelce_For_The_First_Time.mp4</name>
						<enabled>TRUE</enabled>
						<duration>150</duration>
						<rate>
							<timebase>25</timebase>
							<ntsc>FALSE</ntsc>
						</rate>
						<start>76050</start>
						<end>76200</end>
						<in>10500</in>
						<out>10650</out>
						<pproTicksIn>0</pproTicksIn>
						<pproTicksOut>236438092800000</pproTicksOut>
						<alphatype>none</alphatype>
						<pixelaspectratio>square</pixelaspectratio>
						<anamorphic>FALSE</anamorphic>
						<file id="file-30">
							<name>Taylor_Swift_Shares_The_Story_Of_Calling_Travis_Kelce_For_The_First_Time.mp4</name>
							<pathurl>file://localhost/Users/themalikano/Documents/VideoAutomation/premiere_videos/Taylor_Swift_Shares_The_Story_Of_Calling_Travis_Kelce_For_The_First_Time.mp4</pathurl>
							<rate>
								<timebase>30</timebase>
								<ntsc>TRUE</ntsc>
							</rate>
							<duration>27897</duration>
							<timecode>
								<rate>
									<timebase>30</timebase>
									<ntsc>TRUE</ntsc>
								</rate>
								<string>00:00:00:00</string>
								<frame>0</frame>
								<displayformat>NDF</displayformat>
							</timecode>
							<media>
								<video>
									<samplecharacteristics>
										<rate>
											<timebase>30</timebase>
											<ntsc>TRUE</ntsc>
										</rate>
										<width>1920</width>
										<height>1080</height>
										<anamorphic>FALSE</anamorphic>
										<pixelaspectratio>square</pixelaspectratio>
										<fielddominance>none</fielddominance>
									</samplecharacteristics>
								</video>
								<audio>
									<samplecharacteristics>
										<depth>16</depth>
										<samplerate>44100</samplerate>
									</samplecharacteristics>
									<channelcount>2</channelcount>
								</audio>
							</media>
						</file>
						<link>
							<linkclipref>clipitem-86</linkclipref>
							<mediatype>video</mediatype>
							<trackindex>1</trackindex>
							<clipindex>2</clipindex>
						</link>
						<link>
							<linkclipref>clipitem-94</linkclipref>
							<mediatype>audio</mediatype>
							<trackindex>1</trackindex>
							<clipindex>2</clipindex>
							<groupindex>1</groupindex>
						</link>
						<link>
							<linkclipref>clipitem-102</linkclipref>
							<mediatype>audio</mediatype>
							<trackindex>2</trackindex>
							<clipindex>2</clipindex>
							<groupindex>1</groupindex>
						</link>
						<logginginfo>
							<description />
							<scene />
							<shottake />
							<lognote />
							<good />
							<originalvideofilename />
							<originalaudiofilename />
						</logginginfo>
						<colorinfo>
							<lut />
							<lut1 />
							<asc_sop />
							<asc_sat />
							<lut2 />
						</colorinfo>
					<labels><label2>Iris</label2></labels></clipitem>
					<clipitem id="clipitem-90">
						<masterclipid>clipitem-6-97</masterclipid>
						<name>Travis_Kelce_talks_about_postponing_his_wedding_to_Fiance_Taylor_Swift_on_the_New_Heights_Podcast.mp4</name>
						<enabled>TRUE</enabled>
						<duration>150</duration>
						<rate>
							<timebase>25</timebase>
							<ntsc>FALSE</ntsc>
						</rate>
						<start>76200</start>
						<end>76350</end>
						<in>14400</in>
						<out>14550</out>
						<pproTicksIn>0</pproTicksIn>
						<pproTicksOut>149391889920000</pproTicksOut>
						<alphatype>none</alphatype>
						<pixelaspectratio>square</pixelaspectratio>
						<anamorphic>FALSE</anamorphic>
						<file id="file-34">
							<name>Travis_Kelce_talks_about_postponing_his_wedding_to_Fiance_Taylor_Swift_on_the_New_Heights_Podcast.mp4</name>
							<pathurl>file://localhost/Users/themalikano/Documents/VideoAutomation/premiere_videos/Travis_Kelce_talks_about_postponing_his_wedding_to_Fiance_Taylor_Swift_on_the_New_Heights_Podcast.mp4</pathurl>
							<rate>
								<timebase>30</timebase>
								<ntsc>FALSE</ntsc>
							</rate>
							<duration>17644</duration>
							<timecode>
								<rate>
									<timebase>30</timebase>
									<ntsc>FALSE</ntsc>
								</rate>
								<string>00:00:00:00</string>
								<frame>0</frame>
								<displayformat>NDF</displayformat>
							</timecode>
							<media>
								<video>
									<samplecharacteristics>
										<rate>
											<timebase>30</timebase>
											<ntsc>FALSE</ntsc>
										</rate>
										<width>1920</width>
										<height>1080</height>
										<anamorphic>FALSE</anamorphic>
										<pixelaspectratio>square</pixelaspectratio>
										<fielddominance>none</fielddominance>
									</samplecharacteristics>
								</video>
								<audio>
									<samplecharacteristics>
										<depth>16</depth>
										<samplerate>44100</samplerate>
									</samplecharacteristics>
									<channelcount>2</channelcount>
								</audio>
							</media>
						</file>
						<link>
							<linkclipref>clipitem-90</linkclipref>
							<mediatype>video</mediatype>
							<trackindex>1</trackindex>
							<clipindex>6</clipindex>
						</link>
						<link>
							<linkclipref>clipitem-98</linkclipref>
							<mediatype>audio</mediatype>
							<trackindex>1</trackindex>
							<clipindex>6</clipindex>
							<groupindex>1</groupindex>
						</link>
						<link>
							<linkclipref>clipitem-106</linkclipref>
							<mediatype>audio</mediatype>
							<trackindex>2</trackindex>
							<clipindex>6</clipindex>
							<groupindex>1</groupindex>
						</link>
						<logginginfo>
							<description />
							<scene />
							<shottake />
							<lognote />
							<good />
							<originalvideofilename />
							<originalaudiofilename />
						</logginginfo>
						<colorinfo>
							<lut />
							<lut1 />
							<asc_sop />
							<asc_sat />
							<lut2 />
						</colorinfo>
					<labels><label2>Forest</label2></labels></clipitem>
					<clipitem id="clipitem-88">
						<masterclipid>clipitem-4-91</masterclipid>
						<name>Travis_Kelce_ANNOUNCE_WEDDING_DATE_with_Taylor_Swift_Why_He_was_Delaying_all_Along.mp4</name>
						<enabled>TRUE</enabled>
						<duration>150</duration>
						<rate>
							<timebase>25</timebase>
							<ntsc>FALSE</ntsc>
						</rate>
						<start>76350</start>
						<end>76500</end>
						<in>13500</in>
						<out>13650</out>
						<pproTicksIn>0</pproTicksIn>
						<pproTicksOut>419410897920000</pproTicksOut>
						<alphatype>none</alphatype>
						<pixelaspectratio>square</pixelaspectratio>
						<anamorphic>FALSE</anamorphic>
						<file id="file-32">
							<name>Travis_Kelce_ANNOUNCE_WEDDING_DATE_with_Taylor_Swift_Why_He_was_Delaying_all_Along.mp4</name>
							<pathurl>file://localhost/Users/themalikano/Documents/VideoAutomation/premiere_videos/Travis_Kelce_ANNOUNCE_WEDDING_DATE_with_Taylor_Swift_Why_He_was_Delaying_all_Along.mp4</pathurl>
							<rate>
								<timebase>24</timebase>
								<ntsc>FALSE</ntsc>
							</rate>
							<duration>39627</duration>
							<timecode>
								<rate>
									<timebase>24</timebase>
									<ntsc>FALSE</ntsc>
								</rate>
								<string>00:00:00:00</string>
								<frame>0</frame>
								<displayformat>NDF</displayformat>
							</timecode>
							<media>
								<video>
									<samplecharacteristics>
										<rate>
											<timebase>24</timebase>
											<ntsc>FALSE</ntsc>
										</rate>
										<width>852</width>
										<height>480</height>
										<anamorphic>FALSE</anamorphic>
										<pixelaspectratio>square</pixelaspectratio>
										<fielddominance>none</fielddominance>
									</samplecharacteristics>
								</video>
								<audio>
									<samplecharacteristics>
										<depth>16</depth>
										<samplerate>44100</samplerate>
									</samplecharacteristics>
									<channelcount>2</channelcount>
								</audio>
							</media>
						</file>
						<filter>
							<effect>
								<name>Basic Motion</name>
								<effectid>basic</effectid>
								<effectcategory>motion</effectcategory>
								<effecttype>motion</effecttype>
								<mediatype>video</mediatype>
								<pproBypass>false</pproBypass>
								<parameter authoringApp="PremierePro">
									<parameterid>scale</parameterid>
									<name>Scale</name>
									<valuemin>0</valuemin>
									<valuemax>1000</valuemax>
									<value>225</value>
								</parameter>
								<parameter authoringApp="PremierePro">
									<parameterid>rotation</parameterid>
									<name>Rotation</name>
									<valuemin>-8640</valuemin>
									<valuemax>8640</valuemax>
									<value>0</value>
								</parameter>
								<parameter authoringApp="PremierePro">
									<parameterid>center</parameterid>
									<name>Center</name>
									<value>
										<horiz>0</horiz>
										<vert>0</vert>
									</value>
								</parameter>
								<parameter authoringApp="PremierePro">
									<parameterid>centerOffset</parameterid>
									<name>Anchor Point</name>
									<value>
										<horiz>0</horiz>
										<vert>0</vert>
									</value>
								</parameter>
								<parameter authoringApp="PremierePro">
									<parameterid>antiflicker</parameterid>
									<name>Anti-flicker Filter</name>
									<valuemin>0.0</valuemin>
									<valuemax>1.0</valuemax>
									<value>0</value>
								</parameter>
							</effect>
						</filter>
						<link>
							<linkclipref>clipitem-88</linkclipref>
							<mediatype>video</mediatype>
							<trackindex>1</trackindex>
							<clipindex>4</clipindex>
						</link>
						<link>
							<linkclipref>clipitem-96</linkclipref>
							<mediatype>audio</mediatype>
							<trackindex>1</trackindex>
							<clipindex>4</clipindex>
							<groupindex>1</groupindex>
						</link>
						<link>
							<linkclipref>clipitem-104</linkclipref>
							<mediatype>audio</mediatype>
							<trackindex>2</trackindex>
							<clipindex>4</clipindex>
							<groupindex>1</groupindex>
						</link>
						<logginginfo>
							<description />
							<scene />
							<shottake />
							<lognote />
							<good />
							<originalvideofilename />
							<originalaudiofilename />
						</logginginfo>
						<colorinfo>
							<lut />
							<lut1 />
							<asc_sop />
							<asc_sat />
							<lut2 />
						</colorinfo>
					<labels><label2>Lavender</label2></labels></clipitem>
					<clipitem id="clipitem-86">
						<masterclipid>clipitem-2-51</masterclipid>
						<name>Taylor_Swift_Shares_The_Story_Of_Calling_Travis_Kelce_For_The_First_Time.mp4</name>
						<enabled>TRUE</enabled>
						<duration>150</duration>
						<rate>
							<timebase>25</timebase>
							<ntsc>FALSE</ntsc>
						</rate>
						<start>76500</start>
						<end>76650</end>
						<in>7500</in>
						<out>7650</out>
						<pproTicksIn>0</pproTicksIn>
						<pproTicksOut>236438092800000</pproTicksOut>
						<alphatype>none</alphatype>
						<pixelaspectratio>square</pixelaspectratio>
						<anamorphic>FALSE</anamorphic>
						<file id="file-30">
							<name>Taylor_Swift_Shares_The_Story_Of_Calling_Travis_Kelce_For_The_First_Time.mp4</name>
							<pathurl>file://localhost/Users/themalikano/Documents/VideoAutomation/premiere_videos/Taylor_Swift_Shares_The_Story_Of_Calling_Travis_Kelce_For_The_First_Time.mp4</pathurl>
							<rate>
								<timebase>30</timebase>
								<ntsc>TRUE</ntsc>
							</rate>
							<duration>27897</duration>
							<timecode>
								<rate>
									<timebase>30</timebase>
									<ntsc>TRUE</ntsc>
								</rate>
								<string>00:00:00:00</string>
								<frame>0</frame>
								<displayformat>NDF</displayformat>
							</timecode>
							<media>
								<video>
									<samplecharacteristics>
										<rate>
											<timebase>30</timebase>
											<ntsc>TRUE</ntsc>
										</rate>
										<width>1920</width>
										<height>1080</height>
										<anamorphic>FALSE</anamorphic>
										<pixelaspectratio>square</pixelaspectratio>
										<fielddominance>none</fielddominance>
									</samplecharacteristics>
								</video>
								<audio>
									<samplecharacteristics>
										<depth>16</depth>
										<samplerate>44100</samplerate>
									</samplecharacteristics>
									<channelcount>2</channelcount>
								</audio>
							</media>
						</file>
						<link>
							<linkclipref>clipitem-86</linkclipref>
							<mediatype>video</mediatype>
							<trackindex>1</trackindex>
							<clipindex>2</clipindex>
						</link>
						<link>
							<linkclipref>clipitem-94</linkclipref>
							<mediatype>audio</mediatype>
							<trackindex>1</trackindex>
							<clipindex>2</clipindex>
							<groupindex>1</groupindex>
						</link>
						<link>
							<linkclipref>clipitem-102</linkclipref>
							<mediatype>audio</mediatype>
							<trackindex>2</trackindex>
							<clipindex>2</clipindex>
							<groupindex>1</groupindex>
						</link>
						<logginginfo>
							<description />
							<scene />
							<shottake />
							<lognote />
							<good />
							<originalvideofilename />
							<originalaudiofilename />
						</logginginfo>
						<colorinfo>
							<lut />
							<lut1 />
							<asc_sop />
							<asc_sat />
							<lut2 />
						</colorinfo>
					<labels><label2>Iris</label2></labels></clipitem>
					<clipitem id="clipitem-88">
						<masterclipid>clipitem-4-114</masterclipid>
						<name>Travis_Kelce_ANNOUNCE_WEDDING_DATE_with_Taylor_Swift_Why_He_was_Delaying_all_Along.mp4</name>
						<enabled>TRUE</enabled>
						<duration>150</duration>
						<rate>
							<timebase>25</timebase>
							<ntsc>FALSE</ntsc>
						</rate>
						<start>76650</start>
						<end>76800</end>
						<in>16950</in>
						<out>17100</out>
						<pproTicksIn>0</pproTicksIn>
						<pproTicksOut>419410897920000</pproTicksOut>
						<alphatype>none</alphatype>
						<pixelaspectratio>square</pixelaspectratio>
						<anamorphic>FALSE</anamorphic>
						<file id="file-32">
							<name>Travis_Kelce_ANNOUNCE_WEDDING_DATE_with_Taylor_Swift_Why_He_was_Delaying_all_Along.mp4</name>
							<pathurl>file://localhost/Users/themalikano/Documents/VideoAutomation/premiere_videos/Travis_Kelce_ANNOUNCE_WEDDING_DATE_with_Taylor_Swift_Why_He_was_Delaying_all_Along.mp4</pathurl>
							<rate>
								<timebase>24</timebase>
								<ntsc>FALSE</ntsc>
							</rate>
							<duration>39627</duration>
							<timecode>
								<rate>
									<timebase>24</timebase>
									<ntsc>FALSE</ntsc>
								</rate>
								<string>00:00:00:00</string>
								<frame>0</frame>
								<displayformat>NDF</displayformat>
							</timecode>
							<media>
								<video>
									<samplecharacteristics>
										<rate>
											<timebase>24</timebase>
											<ntsc>FALSE</ntsc>
										</rate>
										<width>852</width>
										<height>480</height>
										<anamorphic>FALSE</anamorphic>
										<pixelaspectratio>square</pixelaspectratio>
										<fielddominance>none</fielddominance>
									</samplecharacteristics>
								</video>
								<audio>
									<samplecharacteristics>
										<depth>16</depth>
										<samplerate>44100</samplerate>
									</samplecharacteristics>
									<channelcount>2</channelcount>
								</audio>
							</media>
						</file>
						<filter>
							<effect>
								<name>Basic Motion</name>
								<effectid>basic</effectid>
								<effectcategory>motion</effectcategory>
								<effecttype>motion</effecttype>
								<mediatype>video</mediatype>
								<pproBypass>false</pproBypass>
								<parameter authoringApp="PremierePro">
									<parameterid>scale</parameterid>
									<name>Scale</name>
									<valuemin>0</valuemin>
									<valuemax>1000</valuemax>
									<value>225</value>
								</parameter>
								<parameter authoringApp="PremierePro">
									<parameterid>rotation</parameterid>
									<name>Rotation</name>
									<valuemin>-8640</valuemin>
									<valuemax>8640</valuemax>
									<value>0</value>
								</parameter>
								<parameter authoringApp="PremierePro">
									<parameterid>center</parameterid>
									<name>Center</name>
									<value>
										<horiz>0</horiz>
										<vert>0</vert>
									</value>
								</parameter>
								<parameter authoringApp="PremierePro">
									<parameterid>centerOffset</parameterid>
									<name>Anchor Point</name>
									<value>
										<horiz>0</horiz>
										<vert>0</vert>
									</value>
								</parameter>
								<parameter authoringApp="PremierePro">
									<parameterid>antiflicker</parameterid>
									<name>Anti-flicker Filter</name>
									<valuemin>0.0</valuemin>
									<valuemax>1.0</valuemax>
									<value>0</value>
								</parameter>
							</effect>
						</filter>
						<link>
							<linkclipref>clipitem-88</linkclipref>
							<mediatype>video</mediatype>
							<trackindex>1</trackindex>
							<clipindex>4</clipindex>
						</link>
						<link>
							<linkclipref>clipitem-96</linkclipref>
							<mediatype>audio</mediatype>
							<trackindex>1</trackindex>
							<clipindex>4</clipindex>
							<groupindex>1</groupindex>
						</link>
						<link>
							<linkclipref>clipitem-104</linkclipref>
							<mediatype>audio</mediatype>
							<trackindex>2</trackindex>
							<clipindex>4</clipindex>
							<groupindex>1</groupindex>
						</link>
						<logginginfo>
							<description />
							<scene />
							<shottake />
							<lognote />
							<good />
							<originalvideofilename />
							<originalaudiofilename />
						</logginginfo>
						<colorinfo>
							<lut />
							<lut1 />
							<asc_sop />
							<asc_sat />
							<lut2 />
						</colorinfo>
					<labels><label2>Lavender</label2></labels></clipitem>
					<clipitem id="clipitem-86">
						<masterclipid>clipitem-2-125</masterclipid>
						<name>Taylor_Swift_Shares_The_Story_Of_Calling_Travis_Kelce_For_The_First_Time.mp4</name>
						<enabled>TRUE</enabled>
						<duration>150</duration>
						<rate>
							<timebase>25</timebase>
							<ntsc>FALSE</ntsc>
						</rate>
						<start>76800</start>
						<end>76950</end>
						<in>18600</in>
						<out>18750</out>
						<pproTicksIn>0</pproTicksIn>
						<pproTicksOut>236438092800000</pproTicksOut>
						<alphatype>none</alphatype>
						<pixelaspectratio>square</pixelaspectratio>
						<anamorphic>FALSE</anamorphic>
						<file id="file-30">
							<name>Taylor_Swift_Shares_The_Story_Of_Calling_Travis_Kelce_For_The_First_Time.mp4</name>
							<pathurl>file://localhost/Users/themalikano/Documents/VideoAutomation/premiere_videos/Taylor_Swift_Shares_The_Story_Of_Calling_Travis_Kelce_For_The_First_Time.mp4</pathurl>
							<rate>
								<timebase>30</timebase>
								<ntsc>TRUE</ntsc>
							</rate>
							<duration>27897</duration>
							<timecode>
								<rate>
									<timebase>30</timebase>
									<ntsc>TRUE</ntsc>
								</rate>
								<string>00:00:00:00</string>
								<frame>0</frame>
								<displayformat>NDF</displayformat>
							</timecode>
							<media>
								<video>
									<samplecharacteristics>
										<rate>
											<timebase>30</timebase>
											<ntsc>TRUE</ntsc>
										</rate>
										<width>1920</width>
										<height>1080</height>
										<anamorphic>FALSE</anamorphic>
										<pixelaspectratio>square</pixelaspectratio>
										<fielddominance>none</fielddominance>
									</samplecharacteristics>
								</video>
								<audio>
									<samplecharacteristics>
										<depth>16</depth>
										<samplerate>44100</samplerate>
									</samplecharacteristics>
									<channelcount>2</channelcount>
								</audio>
							</media>
						</file>
						<link>
							<linkclipref>clipitem-86</linkclipref>
							<mediatype>video</mediatype>
							<trackindex>1</trackindex>
							<clipindex>2</clipindex>
						</link>
						<link>
							<linkclipref>clipitem-94</linkclipref>
							<mediatype>audio</mediatype>
							<trackindex>1</trackindex>
							<clipindex>2</clipindex>
							<groupindex>1</groupindex>
						</link>
						<link>
							<linkclipref>clipitem-102</linkclipref>
							<mediatype>audio</mediatype>
							<trackindex>2</trackindex>
							<clipindex>2</clipindex>
							<groupindex>1</groupindex>
						</link>
						<logginginfo>
							<description />
							<scene />
							<shottake />
							<lognote />
							<good />
							<originalvideofilename />
							<originalaudiofilename />
						</logginginfo>
						<colorinfo>
							<lut />
							<lut1 />
							<asc_sop />
							<asc_sat />
							<lut2 />
						</colorinfo>
					<labels><label2>Iris</label2></labels></clipitem>
					<clipitem id="clipitem-88">
						<masterclipid>clipitem-4-146</masterclipid>
						<name>Travis_Kelce_ANNOUNCE_WEDDING_DATE_with_Taylor_Swift_Why_He_was_Delaying_all_Along.mp4</name>
						<enabled>TRUE</enabled>
						<duration>150</duration>
						<rate>
							<timebase>25</timebase>
							<ntsc>FALSE</ntsc>
						</rate>
						<start>76950</start>
						<end>77100</end>
						<in>21750</in>
						<out>21900</out>
						<pproTicksIn>0</pproTicksIn>
						<pproTicksOut>419410897920000</pproTicksOut>
						<alphatype>none</alphatype>
						<pixelaspectratio>square</pixelaspectratio>
						<anamorphic>FALSE</anamorphic>
						<file id="file-32">
							<name>Travis_Kelce_ANNOUNCE_WEDDING_DATE_with_Taylor_Swift_Why_He_was_Delaying_all_Along.mp4</name>
							<pathurl>file://localhost/Users/themalikano/Documents/VideoAutomation/premiere_videos/Travis_Kelce_ANNOUNCE_WEDDING_DATE_with_Taylor_Swift_Why_He_was_Delaying_all_Along.mp4</pathurl>
							<rate>
								<timebase>24</timebase>
								<ntsc>FALSE</ntsc>
							</rate>
							<duration>39627</duration>
							<timecode>
								<rate>
									<timebase>24</timebase>
									<ntsc>FALSE</ntsc>
								</rate>
								<string>00:00:00:00</string>
								<frame>0</frame>
								<displayformat>NDF</displayformat>
							</timecode>
							<media>
								<video>
									<samplecharacteristics>
										<rate>
											<timebase>24</timebase>
											<ntsc>FALSE</ntsc>
										</rate>
										<width>852</width>
										<height>480</height>
										<anamorphic>FALSE</anamorphic>
										<pixelaspectratio>square</pixelaspectratio>
										<fielddominance>none</fielddominance>
									</samplecharacteristics>
								</video>
								<audio>
									<samplecharacteristics>
										<depth>16</depth>
										<samplerate>44100</samplerate>
									</samplecharacteristics>
									<channelcount>2</channelcount>
								</audio>
							</media>
						</file>
						<filter>
							<effect>
								<name>Basic Motion</name>
								<effectid>basic</effectid>
								<effectcategory>motion</effectcategory>
								<effecttype>motion</effecttype>
								<mediatype>video</mediatype>
								<pproBypass>false</pproBypass>
								<parameter authoringApp="PremierePro">
									<parameterid>scale</parameterid>
									<name>Scale</name>
									<valuemin>0</valuemin>
									<valuemax>1000</valuemax>
									<value>225</value>
								</parameter>
								<parameter authoringApp="PremierePro">
									<parameterid>rotation</parameterid>
									<name>Rotation</name>
									<valuemin>-8640</valuemin>
									<valuemax>8640</valuemax>
									<value>0</value>
								</parameter>
								<parameter authoringApp="PremierePro">
									<parameterid>center</parameterid>
									<name>Center</name>
									<value>
										<horiz>0</horiz>
										<vert>0</vert>
									</value>
								</parameter>
								<parameter authoringApp="PremierePro">
									<parameterid>centerOffset</parameterid>
									<name>Anchor Point</name>
									<value>
										<horiz>0</horiz>
										<vert>0</vert>
									</value>
								</parameter>
								<parameter authoringApp="PremierePro">
									<parameterid>antiflicker</parameterid>
									<name>Anti-flicker Filter</name>
									<valuemin>0.0</valuemin>
									<valuemax>1.0</valuemax>
									<value>0</value>
								</parameter>
							</effect>
						</filter>
						<link>
							<linkclipref>clipitem-88</linkclipref>
							<mediatype>video</mediatype>
							<trackindex>1</trackindex>
							<clipindex>4</clipindex>
						</link>
						<link>
							<linkclipref>clipitem-96</linkclipref>
							<mediatype>audio</mediatype>
							<trackindex>1</trackindex>
							<clipindex>4</clipindex>
							<groupindex>1</groupindex>
						</link>
						<link>
							<linkclipref>clipitem-104</linkclipref>
							<mediatype>audio</mediatype>
							<trackindex>2</trackindex>
							<clipindex>4</clipindex>
							<groupindex>1</groupindex>
						</link>
						<logginginfo>
							<description />
							<scene />
							<shottake />
							<lognote />
							<good />
							<originalvideofilename />
							<originalaudiofilename />
						</logginginfo>
						<colorinfo>
							<lut />
							<lut1 />
							<asc_sop />
							<asc_sat />
							<lut2 />
						</colorinfo>
					<labels><label2>Lavender</label2></labels></clipitem>
					<clipitem id="clipitem-86">
						<masterclipid>clipitem-2-78</masterclipid>
						<name>Taylor_Swift_Shares_The_Story_Of_Calling_Travis_Kelce_For_The_First_Time.mp4</name>
						<enabled>TRUE</enabled>
						<duration>150</duration>
						<rate>
							<timebase>25</timebase>
							<ntsc>FALSE</ntsc>
						</rate>
						<start>77100</start>
						<end>77250</end>
						<in>11550</in>
						<out>11700</out>
						<pproTicksIn>0</pproTicksIn>
						<pproTicksOut>236438092800000</pproTicksOut>
						<alphatype>none</alphatype>
						<pixelaspectratio>square</pixelaspectratio>
						<anamorphic>FALSE</anamorphic>
						<file id="file-30">
							<name>Taylor_Swift_Shares_The_Story_Of_Calling_Travis_Kelce_For_The_First_Time.mp4</name>
							<pathurl>file://localhost/Users/themalikano/Documents/VideoAutomation/premiere_videos/Taylor_Swift_Shares_The_Story_Of_Calling_Travis_Kelce_For_The_First_Time.mp4</pathurl>
							<rate>
								<timebase>30</timebase>
								<ntsc>TRUE</ntsc>
							</rate>
							<duration>27897</duration>
							<timecode>
								<rate>
									<timebase>30</timebase>
									<ntsc>TRUE</ntsc>
								</rate>
								<string>00:00:00:00</string>
								<frame>0</frame>
								<displayformat>NDF</displayformat>
							</timecode>
							<media>
								<video>
									<samplecharacteristics>
										<rate>
											<timebase>30</timebase>
											<ntsc>TRUE</ntsc>
										</rate>
										<width>1920</width>
										<height>1080</height>
										<anamorphic>FALSE</anamorphic>
										<pixelaspectratio>square</pixelaspectratio>
										<fielddominance>none</fielddominance>
									</samplecharacteristics>
								</video>
								<audio>
									<samplecharacteristics>
										<depth>16</depth>
										<samplerate>44100</samplerate>
									</samplecharacteristics>
									<channelcount>2</channelcount>
								</audio>
							</media>
						</file>
						<link>
							<linkclipref>clipitem-86</linkclipref>
							<mediatype>video</mediatype>
							<trackindex>1</trackindex>
							<clipindex>2</clipindex>
						</link>
						<link>
							<linkclipref>clipitem-94</linkclipref>
							<mediatype>audio</mediatype>
							<trackindex>1</trackindex>
							<clipindex>2</clipindex>
							<groupindex>1</groupindex>
						</link>
						<link>
							<linkclipref>clipitem-102</linkclipref>
							<mediatype>audio</mediatype>
							<trackindex>2</trackindex>
							<clipindex>2</clipindex>
							<groupindex>1</groupindex>
						</link>
						<logginginfo>
							<description />
							<scene />
							<shottake />
							<lognote />
							<good />
							<originalvideofilename />
							<originalaudiofilename />
						</logginginfo>
						<colorinfo>
							<lut />
							<lut1 />
							<asc_sop />
							<asc_sat />
							<lut2 />
						</colorinfo>
					<labels><label2>Iris</label2></labels></clipitem>
					<clipitem id="clipitem-87">
						<masterclipid>clipitem-3-434</masterclipid>
						<name>Taylor_Swift_Travis_Kelce_-_The_New_Power_Couple.mp4</name>
						<enabled>TRUE</enabled>
						<duration>150</duration>
						<rate>
							<timebase>25</timebase>
							<ntsc>FALSE</ntsc>
						</rate>
						<start>77250</start>
						<end>77400</end>
						<in>64950</in>
						<out>65100</out>
						<pproTicksIn>0</pproTicksIn>
						<pproTicksOut>875013995520000</pproTicksOut>
						<alphatype>none</alphatype>
						<pixelaspectratio>square</pixelaspectratio>
						<anamorphic>FALSE</anamorphic>
						<file id="file-31">
							<name>Taylor_Swift_Travis_Kelce_-_The_New_Power_Couple.mp4</name>
							<pathurl>file://localhost/Users/themalikano/Documents/VideoAutomation/premiere_videos/Taylor_Swift_Travis_Kelce_-_The_New_Power_Couple.mp4</pathurl>
							<rate>
								<timebase>25</timebase>
								<ntsc>FALSE</ntsc>
							</rate>
							<duration>86118</duration>
							<timecode>
								<rate>
									<timebase>25</timebase>
									<ntsc>FALSE</ntsc>
								</rate>
								<string>00:00:00:00</string>
								<frame>0</frame>
								<displayformat>NDF</displayformat>
							</timecode>
							<media>
								<video>
									<samplecharacteristics>
										<rate>
											<timebase>25</timebase>
											<ntsc>FALSE</ntsc>
										</rate>
										<width>1920</width>
										<height>1080</height>
										<anamorphic>FALSE</anamorphic>
										<pixelaspectratio>square</pixelaspectratio>
										<fielddominance>none</fielddominance>
									</samplecharacteristics>
								</video>
								<audio>
									<samplecharacteristics>
										<depth>16</depth>
										<samplerate>44100</samplerate>
									</samplecharacteristics>
									<channelcount>2</channelcount>
								</audio>
							</media>
						</file>
						<link>
							<linkclipref>clipitem-87</linkclipref>
							<mediatype>video</mediatype>
							<trackindex>1</trackindex>
							<clipindex>3</clipindex>
						</link>
						<link>
							<linkclipref>clipitem-95</linkclipref>
							<mediatype>audio</mediatype>
							<trackindex>1</trackindex>
							<clipindex>3</clipindex>
							<groupindex>1</groupindex>
						</link>
						<link>
							<linkclipref>clipitem-103</linkclipref>
							<mediatype>audio</mediatype>
							<trackindex>2</trackindex>
							<clipindex>3</clipindex>
							<groupindex>1</groupindex>
						</link>
						<logginginfo>
							<description />
							<scene />
							<shottake />
							<lognote />
							<good />
							<originalvideofilename />
							<originalaudiofilename />
						</logginginfo>
						<colorinfo>
							<lut />
							<lut1 />
							<asc_sop />
							<asc_sat />
							<lut2 />
						</colorinfo>
					<labels><label2>Caribbean</label2></labels></clipitem>
					<clipitem id="clipitem-88">
						<masterclipid>clipitem-4-149</masterclipid>
						<name>Travis_Kelce_ANNOUNCE_WEDDING_DATE_with_Taylor_Swift_Why_He_was_Delaying_all_Along.mp4</name>
						<enabled>TRUE</enabled>
						<duration>150</duration>
						<rate>
							<timebase>25</timebase>
							<ntsc>FALSE</ntsc>
						</rate>
						<start>77400</start>
						<end>77550</end>
						<in>22200</in>
						<out>22350</out>
						<pproTicksIn>0</pproTicksIn>
						<pproTicksOut>419410897920000</pproTicksOut>
						<alphatype>none</alphatype>
						<pixelaspectratio>square</pixelaspectratio>
						<anamorphic>FALSE</anamorphic>
						<file id="file-32">
							<name>Travis_Kelce_ANNOUNCE_WEDDING_DATE_with_Taylor_Swift_Why_He_was_Delaying_all_Along.mp4</name>
							<pathurl>file://localhost/Users/themalikano/Documents/VideoAutomation/premiere_videos/Travis_Kelce_ANNOUNCE_WEDDING_DATE_with_Taylor_Swift_Why_He_was_Delaying_all_Along.mp4</pathurl>
							<rate>
								<timebase>24</timebase>
								<ntsc>FALSE</ntsc>
							</rate>
							<duration>39627</duration>
							<timecode>
								<rate>
									<timebase>24</timebase>
									<ntsc>FALSE</ntsc>
								</rate>
								<string>00:00:00:00</string>
								<frame>0</frame>
								<displayformat>NDF</displayformat>
							</timecode>
							<media>
								<video>
									<samplecharacteristics>
										<rate>
											<timebase>24</timebase>
											<ntsc>FALSE</ntsc>
										</rate>
										<width>852</width>
										<height>480</height>
										<anamorphic>FALSE</anamorphic>
										<pixelaspectratio>square</pixelaspectratio>
										<fielddominance>none</fielddominance>
									</samplecharacteristics>
								</video>
								<audio>
									<samplecharacteristics>
										<depth>16</depth>
										<samplerate>44100</samplerate>
									</samplecharacteristics>
									<channelcount>2</channelcount>
								</audio>
							</media>
						</file>
						<filter>
							<effect>
								<name>Basic Motion</name>
								<effectid>basic</effectid>
								<effectcategory>motion</effectcategory>
								<effecttype>motion</effecttype>
								<mediatype>video</mediatype>
								<pproBypass>false</pproBypass>
								<parameter authoringApp="PremierePro">
									<parameterid>scale</parameterid>
									<name>Scale</name>
									<valuemin>0</valuemin>
									<valuemax>1000</valuemax>
									<value>225</value>
								</parameter>
								<parameter authoringApp="PremierePro">
									<parameterid>rotation</parameterid>
									<name>Rotation</name>
									<valuemin>-8640</valuemin>
									<valuemax>8640</valuemax>
									<value>0</value>
								</parameter>
								<parameter authoringApp="PremierePro">
									<parameterid>center</parameterid>
									<name>Center</name>
									<value>
										<horiz>0</horiz>
										<vert>0</vert>
									</value>
								</parameter>
								<parameter authoringApp="PremierePro">
									<parameterid>centerOffset</parameterid>
									<name>Anchor Point</name>
									<value>
										<horiz>0</horiz>
										<vert>0</vert>
									</value>
								</parameter>
								<parameter authoringApp="PremierePro">
									<parameterid>antiflicker</parameterid>
									<name>Anti-flicker Filter</name>
									<valuemin>0.0</valuemin>
									<valuemax>1.0</valuemax>
									<value>0</value>
								</parameter>
							</effect>
						</filter>
						<link>
							<linkclipref>clipitem-88</linkclipref>
							<mediatype>video</mediatype>
							<trackindex>1</trackindex>
							<clipindex>4</clipindex>
						</link>
						<link>
							<linkclipref>clipitem-96</linkclipref>
							<mediatype>audio</mediatype>
							<trackindex>1</trackindex>
							<clipindex>4</clipindex>
							<groupindex>1</groupindex>
						</link>
						<link>
							<linkclipref>clipitem-104</linkclipref>
							<mediatype>audio</mediatype>
							<trackindex>2</trackindex>
							<clipindex>4</clipindex>
							<groupindex>1</groupindex>
						</link>
						<logginginfo>
							<description />
							<scene />
							<shottake />
							<lognote />
							<good />
							<originalvideofilename />
							<originalaudiofilename />
						</logginginfo>
						<colorinfo>
							<lut />
							<lut1 />
							<asc_sop />
							<asc_sat />
							<lut2 />
						</colorinfo>
					<labels><label2>Lavender</label2></labels></clipitem>
					<clipitem id="clipitem-86">
						<masterclipid>clipitem-2-103</masterclipid>
						<name>Taylor_Swift_Shares_The_Story_Of_Calling_Travis_Kelce_For_The_First_Time.mp4</name>
						<enabled>TRUE</enabled>
						<duration>150</duration>
						<rate>
							<timebase>25</timebase>
							<ntsc>FALSE</ntsc>
						</rate>
						<start>77550</start>
						<end>77700</end>
						<in>15300</in>
						<out>15450</out>
						<pproTicksIn>0</pproTicksIn>
						<pproTicksOut>236438092800000</pproTicksOut>
						<alphatype>none</alphatype>
						<pixelaspectratio>square</pixelaspectratio>
						<anamorphic>FALSE</anamorphic>
						<file id="file-30">
							<name>Taylor_Swift_Shares_The_Story_Of_Calling_Travis_Kelce_For_The_First_Time.mp4</name>
							<pathurl>file://localhost/Users/themalikano/Documents/VideoAutomation/premiere_videos/Taylor_Swift_Shares_The_Story_Of_Calling_Travis_Kelce_For_The_First_Time.mp4</pathurl>
							<rate>
								<timebase>30</timebase>
								<ntsc>TRUE</ntsc>
							</rate>
							<duration>27897</duration>
							<timecode>
								<rate>
									<timebase>30</timebase>
									<ntsc>TRUE</ntsc>
								</rate>
								<string>00:00:00:00</string>
								<frame>0</frame>
								<displayformat>NDF</displayformat>
							</timecode>
							<media>
								<video>
									<samplecharacteristics>
										<rate>
											<timebase>30</timebase>
											<ntsc>TRUE</ntsc>
										</rate>
										<width>1920</width>
										<height>1080</height>
										<anamorphic>FALSE</anamorphic>
										<pixelaspectratio>square</pixelaspectratio>
										<fielddominance>none</fielddominance>
									</samplecharacteristics>
								</video>
								<audio>
									<samplecharacteristics>
										<depth>16</depth>
										<samplerate>44100</samplerate>
									</samplecharacteristics>
									<channelcount>2</channelcount>
								</audio>
							</media>
						</file>
						<link>
							<linkclipref>clipitem-86</linkclipref>
							<mediatype>video</mediatype>
							<trackindex>1</trackindex>
							<clipindex>2</clipindex>
						</link>
						<link>
							<linkclipref>clipitem-94</linkclipref>
							<mediatype>audio</mediatype>
							<trackindex>1</trackindex>
							<clipindex>2</clipindex>
							<groupindex>1</groupindex>
						</link>
						<link>
							<linkclipref>clipitem-102</linkclipref>
							<mediatype>audio</mediatype>
							<trackindex>2</trackindex>
							<clipindex>2</clipindex>
							<groupindex>1</groupindex>
						</link>
						<logginginfo>
							<description />
							<scene />
							<shottake />
							<lognote />
							<good />
							<originalvideofilename />
							<originalaudiofilename />
						</logginginfo>
						<colorinfo>
							<lut />
							<lut1 />
							<asc_sop />
							<asc_sat />
							<lut2 />
						</colorinfo>
					<labels><label2>Iris</label2></labels></clipitem>
					<clipitem id="clipitem-88">
						<masterclipid>clipitem-4-18</masterclipid>
						<name>Travis_Kelce_ANNOUNCE_WEDDING_DATE_with_Taylor_Swift_Why_He_was_Delaying_all_Along.mp4</name>
						<enabled>TRUE</enabled>
						<duration>150</duration>
						<rate>
							<timebase>25</timebase>
							<ntsc>FALSE</ntsc>
						</rate>
						<start>77700</start>
						<end>77850</end>
						<in>2550</in>
						<out>2700</out>
						<pproTicksIn>0</pproTicksIn>
						<pproTicksOut>419410897920000</pproTicksOut>
						<alphatype>none</alphatype>
						<pixelaspectratio>square</pixelaspectratio>
						<anamorphic>FALSE</anamorphic>
						<file id="file-32">
							<name>Travis_Kelce_ANNOUNCE_WEDDING_DATE_with_Taylor_Swift_Why_He_was_Delaying_all_Along.mp4</name>
							<pathurl>file://localhost/Users/themalikano/Documents/VideoAutomation/premiere_videos/Travis_Kelce_ANNOUNCE_WEDDING_DATE_with_Taylor_Swift_Why_He_was_Delaying_all_Along.mp4</pathurl>
							<rate>
								<timebase>24</timebase>
								<ntsc>FALSE</ntsc>
							</rate>
							<duration>39627</duration>
							<timecode>
								<rate>
									<timebase>24</timebase>
									<ntsc>FALSE</ntsc>
								</rate>
								<string>00:00:00:00</string>
								<frame>0</frame>
								<displayformat>NDF</displayformat>
							</timecode>
							<media>
								<video>
									<samplecharacteristics>
										<rate>
											<timebase>24</timebase>
											<ntsc>FALSE</ntsc>
										</rate>
										<width>852</width>
										<height>480</height>
										<anamorphic>FALSE</anamorphic>
										<pixelaspectratio>square</pixelaspectratio>
										<fielddominance>none</fielddominance>
									</samplecharacteristics>
								</video>
								<audio>
									<samplecharacteristics>
										<depth>16</depth>
										<samplerate>44100</samplerate>
									</samplecharacteristics>
									<channelcount>2</channelcount>
								</audio>
							</media>
						</file>
						<filter>
							<effect>
								<name>Basic Motion</name>
								<effectid>basic</effectid>
								<effectcategory>motion</effectcategory>
								<effecttype>motion</effecttype>
								<mediatype>video</mediatype>
								<pproBypass>false</pproBypass>
								<parameter authoringApp="PremierePro">
									<parameterid>scale</parameterid>
									<name>Scale</name>
									<valuemin>0</valuemin>
									<valuemax>1000</valuemax>
									<value>225</value>
								</parameter>
								<parameter authoringApp="PremierePro">
									<parameterid>rotation</parameterid>
									<name>Rotation</name>
									<valuemin>-8640</valuemin>
									<valuemax>8640</valuemax>
									<value>0</value>
								</parameter>
								<parameter authoringApp="PremierePro">
									<parameterid>center</parameterid>
									<name>Center</name>
									<value>
										<horiz>0</horiz>
										<vert>0</vert>
									</value>
								</parameter>
								<parameter authoringApp="PremierePro">
									<parameterid>centerOffset</parameterid>
									<name>Anchor Point</name>
									<value>
										<horiz>0</horiz>
										<vert>0</vert>
									</value>
								</parameter>
								<parameter authoringApp="PremierePro">
									<parameterid>antiflicker</parameterid>
									<name>Anti-flicker Filter</name>
									<valuemin>0.0</valuemin>
									<valuemax>1.0</valuemax>
									<value>0</value>
								</parameter>
							</effect>
						</filter>
						<link>
							<linkclipref>clipitem-88</linkclipref>
							<mediatype>video</mediatype>
							<trackindex>1</trackindex>
							<clipindex>4</clipindex>
						</link>
						<link>
							<linkclipref>clipitem-96</linkclipref>
							<mediatype>audio</mediatype>
							<trackindex>1</trackindex>
							<clipindex>4</clipindex>
							<groupindex>1</groupindex>
						</link>
						<link>
							<linkclipref>clipitem-104</linkclipref>
							<mediatype>audio</mediatype>
							<trackindex>2</trackindex>
							<clipindex>4</clipindex>
							<groupindex>1</groupindex>
						</link>
						<logginginfo>
							<description />
							<scene />
							<shottake />
							<lognote />
							<good />
							<originalvideofilename />
							<originalaudiofilename />
						</logginginfo>
						<colorinfo>
							<lut />
							<lut1 />
							<asc_sop />
							<asc_sat />
							<lut2 />
						</colorinfo>
					<labels><label2>Lavender</label2></labels></clipitem>
					<clipitem id="clipitem-86">
						<masterclipid>clipitem-2-90</masterclipid>
						<name>Taylor_Swift_Shares_The_Story_Of_Calling_Travis_Kelce_For_The_First_Time.mp4</name>
						<enabled>TRUE</enabled>
						<duration>150</duration>
						<rate>
							<timebase>25</timebase>
							<ntsc>FALSE</ntsc>
						</rate>
						<start>77850</start>
						<end>78000</end>
						<in>13350</in>
						<out>13500</out>
						<pproTicksIn>0</pproTicksIn>
						<pproTicksOut>236438092800000</pproTicksOut>
						<alphatype>none</alphatype>
						<pixelaspectratio>square</pixelaspectratio>
						<anamorphic>FALSE</anamorphic>
						<file id="file-30">
							<name>Taylor_Swift_Shares_The_Story_Of_Calling_Travis_Kelce_For_The_First_Time.mp4</name>
							<pathurl>file://localhost/Users/themalikano/Documents/VideoAutomation/premiere_videos/Taylor_Swift_Shares_The_Story_Of_Calling_Travis_Kelce_For_The_First_Time.mp4</pathurl>
							<rate>
								<timebase>30</timebase>
								<ntsc>TRUE</ntsc>
							</rate>
							<duration>27897</duration>
							<timecode>
								<rate>
									<timebase>30</timebase>
									<ntsc>TRUE</ntsc>
								</rate>
								<string>00:00:00:00</string>
								<frame>0</frame>
								<displayformat>NDF</displayformat>
							</timecode>
							<media>
								<video>
									<samplecharacteristics>
										<rate>
											<timebase>30</timebase>
											<ntsc>TRUE</ntsc>
										</rate>
										<width>1920</width>
										<height>1080</height>
										<anamorphic>FALSE</anamorphic>
										<pixelaspectratio>square</pixelaspectratio>
										<fielddominance>none</fielddominance>
									</samplecharacteristics>
								</video>
								<audio>
									<samplecharacteristics>
										<depth>16</depth>
										<samplerate>44100</samplerate>
									</samplecharacteristics>
									<channelcount>2</channelcount>
								</audio>
							</media>
						</file>
						<link>
							<linkclipref>clipitem-86</linkclipref>
							<mediatype>video</mediatype>
							<trackindex>1</trackindex>
							<clipindex>2</clipindex>
						</link>
						<link>
							<linkclipref>clipitem-94</linkclipref>
							<mediatype>audio</mediatype>
							<trackindex>1</trackindex>
							<clipindex>2</clipindex>
							<groupindex>1</groupindex>
						</link>
						<link>
							<linkclipref>clipitem-102</linkclipref>
							<mediatype>audio</mediatype>
							<trackindex>2</trackindex>
							<clipindex>2</clipindex>
							<groupindex>1</groupindex>
						</link>
						<logginginfo>
							<description />
							<scene />
							<shottake />
							<lognote />
							<good />
							<originalvideofilename />
							<originalaudiofilename />
						</logginginfo>
						<colorinfo>
							<lut />
							<lut1 />
							<asc_sop />
							<asc_sat />
							<lut2 />
						</colorinfo>
					<labels><label2>Iris</label2></labels></clipitem>
					<clipitem id="clipitem-87">
						<masterclipid>clipitem-3-21</masterclipid>
						<name>Taylor_Swift_Travis_Kelce_-_The_New_Power_Couple.mp4</name>
						<enabled>TRUE</enabled>
						<duration>150</duration>
						<rate>
							<timebase>25</timebase>
							<ntsc>FALSE</ntsc>
						</rate>
						<start>78000</start>
						<end>78150</end>
						<in>3000</in>
						<out>3150</out>
						<pproTicksIn>0</pproTicksIn>
						<pproTicksOut>875013995520000</pproTicksOut>
						<alphatype>none</alphatype>
						<pixelaspectratio>square</pixelaspectratio>
						<anamorphic>FALSE</anamorphic>
						<file id="file-31">
							<name>Taylor_Swift_Travis_Kelce_-_The_New_Power_Couple.mp4</name>
							<pathurl>file://localhost/Users/themalikano/Documents/VideoAutomation/premiere_videos/Taylor_Swift_Travis_Kelce_-_The_New_Power_Couple.mp4</pathurl>
							<rate>
								<timebase>25</timebase>
								<ntsc>FALSE</ntsc>
							</rate>
							<duration>86118</duration>
							<timecode>
								<rate>
									<timebase>25</timebase>
									<ntsc>FALSE</ntsc>
								</rate>
								<string>00:00:00:00</string>
								<frame>0</frame>
								<displayformat>NDF</displayformat>
							</timecode>
							<media>
								<video>
									<samplecharacteristics>
										<rate>
											<timebase>25</timebase>
											<ntsc>FALSE</ntsc>
										</rate>
										<width>1920</width>
										<height>1080</height>
										<anamorphic>FALSE</anamorphic>
										<pixelaspectratio>square</pixelaspectratio>
										<fielddominance>none</fielddominance>
									</samplecharacteristics>
								</video>
								<audio>
									<samplecharacteristics>
										<depth>16</depth>
										<samplerate>44100</samplerate>
									</samplecharacteristics>
									<channelcount>2</channelcount>
								</audio>
							</media>
						</file>
						<link>
							<linkclipref>clipitem-87</linkclipref>
							<mediatype>video</mediatype>
							<trackindex>1</trackindex>
							<clipindex>3</clipindex>
						</link>
						<link>
							<linkclipref>clipitem-95</linkclipref>
							<mediatype>audio</mediatype>
							<trackindex>1</trackindex>
							<clipindex>3</clipindex>
							<groupindex>1</groupindex>
						</link>
						<link>
							<linkclipref>clipitem-103</linkclipref>
							<mediatype>audio</mediatype>
							<trackindex>2</trackindex>
							<clipindex>3</clipindex>
							<groupindex>1</groupindex>
						</link>
						<logginginfo>
							<description />
							<scene />
							<shottake />
							<lognote />
							<good />
							<originalvideofilename />
							<originalaudiofilename />
						</logginginfo>
						<colorinfo>
							<lut />
							<lut1 />
							<asc_sop />
							<asc_sat />
							<lut2 />
						</colorinfo>
					<labels><label2>Caribbean</label2></labels></clipitem>
					<clipitem id="clipitem-86">
						<masterclipid>clipitem-2-22</masterclipid>
						<name>Taylor_Swift_Shares_The_Story_Of_Calling_Travis_Kelce_For_The_First_Time.mp4</name>
						<enabled>TRUE</enabled>
						<duration>150</duration>
						<rate>
							<timebase>25</timebase>
							<ntsc>FALSE</ntsc>
						</rate>
						<start>78150</start>
						<end>78300</end>
						<in>3150</in>
						<out>3300</out>
						<pproTicksIn>0</pproTicksIn>
						<pproTicksOut>236438092800000</pproTicksOut>
						<alphatype>none</alphatype>
						<pixelaspectratio>square</pixelaspectratio>
						<anamorphic>FALSE</anamorphic>
						<file id="file-30">
							<name>Taylor_Swift_Shares_The_Story_Of_Calling_Travis_Kelce_For_The_First_Time.mp4</name>
							<pathurl>file://localhost/Users/themalikano/Documents/VideoAutomation/premiere_videos/Taylor_Swift_Shares_The_Story_Of_Calling_Travis_Kelce_For_The_First_Time.mp4</pathurl>
							<rate>
								<timebase>30</timebase>
								<ntsc>TRUE</ntsc>
							</rate>
							<duration>27897</duration>
							<timecode>
								<rate>
									<timebase>30</timebase>
									<ntsc>TRUE</ntsc>
								</rate>
								<string>00:00:00:00</string>
								<frame>0</frame>
								<displayformat>NDF</displayformat>
							</timecode>
							<media>
								<video>
									<samplecharacteristics>
										<rate>
											<timebase>30</timebase>
											<ntsc>TRUE</ntsc>
										</rate>
										<width>1920</width>
										<height>1080</height>
										<anamorphic>FALSE</anamorphic>
										<pixelaspectratio>square</pixelaspectratio>
										<fielddominance>none</fielddominance>
									</samplecharacteristics>
								</video>
								<audio>
									<samplecharacteristics>
										<depth>16</depth>
										<samplerate>44100</samplerate>
									</samplecharacteristics>
									<channelcount>2</channelcount>
								</audio>
							</media>
						</file>
						<link>
							<linkclipref>clipitem-86</linkclipref>
							<mediatype>video</mediatype>
							<trackindex>1</trackindex>
							<clipindex>2</clipindex>
						</link>
						<link>
							<linkclipref>clipitem-94</linkclipref>
							<mediatype>audio</mediatype>
							<trackindex>1</trackindex>
							<clipindex>2</clipindex>
							<groupindex>1</groupindex>
						</link>
						<link>
							<linkclipref>clipitem-102</linkclipref>
							<mediatype>audio</mediatype>
							<trackindex>2</trackindex>
							<clipindex>2</clipindex>
							<groupindex>1</groupindex>
						</link>
						<logginginfo>
							<description />
							<scene />
							<shottake />
							<lognote />
							<good />
							<originalvideofilename />
							<originalaudiofilename />
						</logginginfo>
						<colorinfo>
							<lut />
							<lut1 />
							<asc_sop />
							<asc_sat />
							<lut2 />
						</colorinfo>
					<labels><label2>Iris</label2></labels></clipitem>
					<clipitem id="clipitem-88">
						<masterclipid>clipitem-4-170</masterclipid>
						<name>Travis_Kelce_ANNOUNCE_WEDDING_DATE_with_Taylor_Swift_Why_He_was_Delaying_all_Along.mp4</name>
						<enabled>TRUE</enabled>
						<duration>150</duration>
						<rate>
							<timebase>25</timebase>
							<ntsc>FALSE</ntsc>
						</rate>
						<start>78300</start>
						<end>78450</end>
						<in>25350</in>
						<out>25500</out>
						<pproTicksIn>0</pproTicksIn>
						<pproTicksOut>419410897920000</pproTicksOut>
						<alphatype>none</alphatype>
						<pixelaspectratio>square</pixelaspectratio>
						<anamorphic>FALSE</anamorphic>
						<file id="file-32">
							<name>Travis_Kelce_ANNOUNCE_WEDDING_DATE_with_Taylor_Swift_Why_He_was_Delaying_all_Along.mp4</name>
							<pathurl>file://localhost/Users/themalikano/Documents/VideoAutomation/premiere_videos/Travis_Kelce_ANNOUNCE_WEDDING_DATE_with_Taylor_Swift_Why_He_was_Delaying_all_Along.mp4</pathurl>
							<rate>
								<timebase>24</timebase>
								<ntsc>FALSE</ntsc>
							</rate>
							<duration>39627</duration>
							<timecode>
								<rate>
									<timebase>24</timebase>
									<ntsc>FALSE</ntsc>
								</rate>
								<string>00:00:00:00</string>
								<frame>0</frame>
								<displayformat>NDF</displayformat>
							</timecode>
							<media>
								<video>
									<samplecharacteristics>
										<rate>
											<timebase>24</timebase>
											<ntsc>FALSE</ntsc>
										</rate>
										<width>852</width>
										<height>480</height>
										<anamorphic>FALSE</anamorphic>
										<pixelaspectratio>square</pixelaspectratio>
										<fielddominance>none</fielddominance>
									</samplecharacteristics>
								</video>
								<audio>
									<samplecharacteristics>
										<depth>16</depth>
										<samplerate>44100</samplerate>
									</samplecharacteristics>
									<channelcount>2</channelcount>
								</audio>
							</media>
						</file>
						<filter>
							<effect>
								<name>Basic Motion</name>
								<effectid>basic</effectid>
								<effectcategory>motion</effectcategory>
								<effecttype>motion</effecttype>
								<mediatype>video</mediatype>
								<pproBypass>false</pproBypass>
								<parameter authoringApp="PremierePro">
									<parameterid>scale</parameterid>
									<name>Scale</name>
									<valuemin>0</valuemin>
									<valuemax>1000</valuemax>
									<value>225</value>
								</parameter>
								<parameter authoringApp="PremierePro">
									<parameterid>rotation</parameterid>
									<name>Rotation</name>
									<valuemin>-8640</valuemin>
									<valuemax>8640</valuemax>
									<value>0</value>
								</parameter>
								<parameter authoringApp="PremierePro">
									<parameterid>center</parameterid>
									<name>Center</name>
									<value>
										<horiz>0</horiz>
										<vert>0</vert>
									</value>
								</parameter>
								<parameter authoringApp="PremierePro">
									<parameterid>centerOffset</parameterid>
									<name>Anchor Point</name>
									<value>
										<horiz>0</horiz>
										<vert>0</vert>
									</value>
								</parameter>
								<parameter authoringApp="PremierePro">
									<parameterid>antiflicker</parameterid>
									<name>Anti-flicker Filter</name>
									<valuemin>0.0</valuemin>
									<valuemax>1.0</valuemax>
									<value>0</value>
								</parameter>
							</effect>
						</filter>
						<link>
							<linkclipref>clipitem-88</linkclipref>
							<mediatype>video</mediatype>
							<trackindex>1</trackindex>
							<clipindex>4</clipindex>
						</link>
						<link>
							<linkclipref>clipitem-96</linkclipref>
							<mediatype>audio</mediatype>
							<trackindex>1</trackindex>
							<clipindex>4</clipindex>
							<groupindex>1</groupindex>
						</link>
						<link>
							<linkclipref>clipitem-104</linkclipref>
							<mediatype>audio</mediatype>
							<trackindex>2</trackindex>
							<clipindex>4</clipindex>
							<groupindex>1</groupindex>
						</link>
						<logginginfo>
							<description />
							<scene />
							<shottake />
							<lognote />
							<good />
							<originalvideofilename />
							<originalaudiofilename />
						</logginginfo>
						<colorinfo>
							<lut />
							<lut1 />
							<asc_sop />
							<asc_sat />
							<lut2 />
						</colorinfo>
					<labels><label2>Lavender</label2></labels></clipitem>
					<clipitem id="clipitem-87">
						<masterclipid>clipitem-3-180</masterclipid>
						<name>Taylor_Swift_Travis_Kelce_-_The_New_Power_Couple.mp4</name>
						<enabled>TRUE</enabled>
						<duration>150</duration>
						<rate>
							<timebase>25</timebase>
							<ntsc>FALSE</ntsc>
						</rate>
						<start>78450</start>
						<end>78600</end>
						<in>26850</in>
						<out>27000</out>
						<pproTicksIn>0</pproTicksIn>
						<pproTicksOut>875013995520000</pproTicksOut>
						<alphatype>none</alphatype>
						<pixelaspectratio>square</pixelaspectratio>
						<anamorphic>FALSE</anamorphic>
						<file id="file-31">
							<name>Taylor_Swift_Travis_Kelce_-_The_New_Power_Couple.mp4</name>
							<pathurl>file://localhost/Users/themalikano/Documents/VideoAutomation/premiere_videos/Taylor_Swift_Travis_Kelce_-_The_New_Power_Couple.mp4</pathurl>
							<rate>
								<timebase>25</timebase>
								<ntsc>FALSE</ntsc>
							</rate>
							<duration>86118</duration>
							<timecode>
								<rate>
									<timebase>25</timebase>
									<ntsc>FALSE</ntsc>
								</rate>
								<string>00:00:00:00</string>
								<frame>0</frame>
								<displayformat>NDF</displayformat>
							</timecode>
							<media>
								<video>
									<samplecharacteristics>
										<rate>
											<timebase>25</timebase>
											<ntsc>FALSE</ntsc>
										</rate>
										<width>1920</width>
										<height>1080</height>
										<anamorphic>FALSE</anamorphic>
										<pixelaspectratio>square</pixelaspectratio>
										<fielddominance>none</fielddominance>
									</samplecharacteristics>
								</video>
								<audio>
									<samplecharacteristics>
										<depth>16</depth>
										<samplerate>44100</samplerate>
									</samplecharacteristics>
									<channelcount>2</channelcount>
								</audio>
							</media>
						</file>
						<link>
							<linkclipref>clipitem-87</linkclipref>
							<mediatype>video</mediatype>
							<trackindex>1</trackindex>
							<clipindex>3</clipindex>
						</link>
						<link>
							<linkclipref>clipitem-95</linkclipref>
							<mediatype>audio</mediatype>
							<trackindex>1</trackindex>
							<clipindex>3</clipindex>
							<groupindex>1</groupindex>
						</link>
						<link>
							<linkclipref>clipitem-103</linkclipref>
							<mediatype>audio</mediatype>
							<trackindex>2</trackindex>
							<clipindex>3</clipindex>
							<groupindex>1</groupindex>
						</link>
						<logginginfo>
							<description />
							<scene />
							<shottake />
							<lognote />
							<good />
							<originalvideofilename />
							<originalaudiofilename />
						</logginginfo>
						<colorinfo>
							<lut />
							<lut1 />
							<asc_sop />
							<asc_sat />
							<lut2 />
						</colorinfo>
					<labels><label2>Caribbean</label2></labels></clipitem>
					<clipitem id="clipitem-86">
						<masterclipid>clipitem-2-69</masterclipid>
						<name>Taylor_Swift_Shares_The_Story_Of_Calling_Travis_Kelce_For_The_First_Time.mp4</name>
						<enabled>TRUE</enabled>
						<duration>150</duration>
						<rate>
							<timebase>25</timebase>
							<ntsc>FALSE</ntsc>
						</rate>
						<start>78600</start>
						<end>78750</end>
						<in>10200</in>
						<out>10350</out>
						<pproTicksIn>0</pproTicksIn>
						<pproTicksOut>236438092800000</pproTicksOut>
						<alphatype>none</alphatype>
						<pixelaspectratio>square</pixelaspectratio>
						<anamorphic>FALSE</anamorphic>
						<file id="file-30">
							<name>Taylor_Swift_Shares_The_Story_Of_Calling_Travis_Kelce_For_The_First_Time.mp4</name>
							<pathurl>file://localhost/Users/themalikano/Documents/VideoAutomation/premiere_videos/Taylor_Swift_Shares_The_Story_Of_Calling_Travis_Kelce_For_The_First_Time.mp4</pathurl>
							<rate>
								<timebase>30</timebase>
								<ntsc>TRUE</ntsc>
							</rate>
							<duration>27897</duration>
							<timecode>
								<rate>
									<timebase>30</timebase>
									<ntsc>TRUE</ntsc>
								</rate>
								<string>00:00:00:00</string>
								<frame>0</frame>
								<displayformat>NDF</displayformat>
							</timecode>
							<media>
								<video>
									<samplecharacteristics>
										<rate>
											<timebase>30</timebase>
											<ntsc>TRUE</ntsc>
										</rate>
										<width>1920</width>
										<height>1080</height>
										<anamorphic>FALSE</anamorphic>
										<pixelaspectratio>square</pixelaspectratio>
										<fielddominance>none</fielddominance>
									</samplecharacteristics>
								</video>
								<audio>
									<samplecharacteristics>
										<depth>16</depth>
										<samplerate>44100</samplerate>
									</samplecharacteristics>
									<channelcount>2</channelcount>
								</audio>
							</media>
						</file>
						<link>
							<linkclipref>clipitem-86</linkclipref>
							<mediatype>video</mediatype>
							<trackindex>1</trackindex>
							<clipindex>2</clipindex>
						</link>
						<link>
							<linkclipref>clipitem-94</linkclipref>
							<mediatype>audio</mediatype>
							<trackindex>1</trackindex>
							<clipindex>2</clipindex>
							<groupindex>1</groupindex>
						</link>
						<link>
							<linkclipref>clipitem-102</linkclipref>
							<mediatype>audio</mediatype>
							<trackindex>2</trackindex>
							<clipindex>2</clipindex>
							<groupindex>1</groupindex>
						</link>
						<logginginfo>
							<description />
							<scene />
							<shottake />
							<lognote />
							<good />
							<originalvideofilename />
							<originalaudiofilename />
						</logginginfo>
						<colorinfo>
							<lut />
							<lut1 />
							<asc_sop />
							<asc_sat />
							<lut2 />
						</colorinfo>
					<labels><label2>Iris</label2></labels></clipitem>
					<clipitem id="clipitem-87">
						<masterclipid>clipitem-3-388</masterclipid>
						<name>Taylor_Swift_Travis_Kelce_-_The_New_Power_Couple.mp4</name>
						<enabled>TRUE</enabled>
						<duration>150</duration>
						<rate>
							<timebase>25</timebase>
							<ntsc>FALSE</ntsc>
						</rate>
						<start>78750</start>
						<end>78900</end>
						<in>58050</in>
						<out>58200</out>
						<pproTicksIn>0</pproTicksIn>
						<pproTicksOut>875013995520000</pproTicksOut>
						<alphatype>none</alphatype>
						<pixelaspectratio>square</pixelaspectratio>
						<anamorphic>FALSE</anamorphic>
						<file id="file-31">
							<name>Taylor_Swift_Travis_Kelce_-_The_New_Power_Couple.mp4</name>
							<pathurl>file://localhost/Users/themalikano/Documents/VideoAutomation/premiere_videos/Taylor_Swift_Travis_Kelce_-_The_New_Power_Couple.mp4</pathurl>
							<rate>
								<timebase>25</timebase>
								<ntsc>FALSE</ntsc>
							</rate>
							<duration>86118</duration>
							<timecode>
								<rate>
									<timebase>25</timebase>
									<ntsc>FALSE</ntsc>
								</rate>
								<string>00:00:00:00</string>
								<frame>0</frame>
								<displayformat>NDF</displayformat>
							</timecode>
							<media>
								<video>
									<samplecharacteristics>
										<rate>
											<timebase>25</timebase>
											<ntsc>FALSE</ntsc>
										</rate>
										<width>1920</width>
										<height>1080</height>
										<anamorphic>FALSE</anamorphic>
										<pixelaspectratio>square</pixelaspectratio>
										<fielddominance>none</fielddominance>
									</samplecharacteristics>
								</video>
								<audio>
									<samplecharacteristics>
										<depth>16</depth>
										<samplerate>44100</samplerate>
									</samplecharacteristics>
									<channelcount>2</channelcount>
								</audio>
							</media>
						</file>
						<link>
							<linkclipref>clipitem-87</linkclipref>
							<mediatype>video</mediatype>
							<trackindex>1</trackindex>
							<clipindex>3</clipindex>
						</link>
						<link>
							<linkclipref>clipitem-95</linkclipref>
							<mediatype>audio</mediatype>
							<trackindex>1</trackindex>
							<clipindex>3</clipindex>
							<groupindex>1</groupindex>
						</link>
						<link>
							<linkclipref>clipitem-103</linkclipref>
							<mediatype>audio</mediatype>
							<trackindex>2</trackindex>
							<clipindex>3</clipindex>
							<groupindex>1</groupindex>
						</link>
						<logginginfo>
							<description />
							<scene />
							<shottake />
							<lognote />
							<good />
							<originalvideofilename />
							<originalaudiofilename />
						</logginginfo>
						<colorinfo>
							<lut />
							<lut1 />
							<asc_sop />
							<asc_sat />
							<lut2 />
						</colorinfo>
					<labels><label2>Caribbean</label2></labels></clipitem>
					<clipitem id="clipitem-88">
						<masterclipid>clipitem-4-61</masterclipid>
						<name>Travis_Kelce_ANNOUNCE_WEDDING_DATE_with_Taylor_Swift_Why_He_was_Delaying_all_Along.mp4</name>
						<enabled>TRUE</enabled>
						<duration>150</duration>
						<rate>
							<timebase>25</timebase>
							<ntsc>FALSE</ntsc>
						</rate>
						<start>78900</start>
						<end>79050</end>
						<in>9000</in>
						<out>9150</out>
						<pproTicksIn>0</pproTicksIn>
						<pproTicksOut>419410897920000</pproTicksOut>
						<alphatype>none</alphatype>
						<pixelaspectratio>square</pixelaspectratio>
						<anamorphic>FALSE</anamorphic>
						<file id="file-32">
							<name>Travis_Kelce_ANNOUNCE_WEDDING_DATE_with_Taylor_Swift_Why_He_was_Delaying_all_Along.mp4</name>
							<pathurl>file://localhost/Users/themalikano/Documents/VideoAutomation/premiere_videos/Travis_Kelce_ANNOUNCE_WEDDING_DATE_with_Taylor_Swift_Why_He_was_Delaying_all_Along.mp4</pathurl>
							<rate>
								<timebase>24</timebase>
								<ntsc>FALSE</ntsc>
							</rate>
							<duration>39627</duration>
							<timecode>
								<rate>
									<timebase>24</timebase>
									<ntsc>FALSE</ntsc>
								</rate>
								<string>00:00:00:00</string>
								<frame>0</frame>
								<displayformat>NDF</displayformat>
							</timecode>
							<media>
								<video>
									<samplecharacteristics>
										<rate>
											<timebase>24</timebase>
											<ntsc>FALSE</ntsc>
										</rate>
										<width>852</width>
										<height>480</height>
										<anamorphic>FALSE</anamorphic>
										<pixelaspectratio>square</pixelaspectratio>
										<fielddominance>none</fielddominance>
									</samplecharacteristics>
								</video>
								<audio>
									<samplecharacteristics>
										<depth>16</depth>
										<samplerate>44100</samplerate>
									</samplecharacteristics>
									<channelcount>2</channelcount>
								</audio>
							</media>
						</file>
						<filter>
							<effect>
								<name>Basic Motion</name>
								<effectid>basic</effectid>
								<effectcategory>motion</effectcategory>
								<effecttype>motion</effecttype>
								<mediatype>video</mediatype>
								<pproBypass>false</pproBypass>
								<parameter authoringApp="PremierePro">
									<parameterid>scale</parameterid>
									<name>Scale</name>
									<valuemin>0</valuemin>
									<valuemax>1000</valuemax>
									<value>225</value>
								</parameter>
								<parameter authoringApp="PremierePro">
									<parameterid>rotation</parameterid>
									<name>Rotation</name>
									<valuemin>-8640</valuemin>
									<valuemax>8640</valuemax>
									<value>0</value>
								</parameter>
								<parameter authoringApp="PremierePro">
									<parameterid>center</parameterid>
									<name>Center</name>
									<value>
										<horiz>0</horiz>
										<vert>0</vert>
									</value>
								</parameter>
								<parameter authoringApp="PremierePro">
									<parameterid>centerOffset</parameterid>
									<name>Anchor Point</name>
									<value>
										<horiz>0</horiz>
										<vert>0</vert>
									</value>
								</parameter>
								<parameter authoringApp="PremierePro">
									<parameterid>antiflicker</parameterid>
									<name>Anti-flicker Filter</name>
									<valuemin>0.0</valuemin>
									<valuemax>1.0</valuemax>
									<value>0</value>
								</parameter>
							</effect>
						</filter>
						<link>
							<linkclipref>clipitem-88</linkclipref>
							<mediatype>video</mediatype>
							<trackindex>1</trackindex>
							<clipindex>4</clipindex>
						</link>
						<link>
							<linkclipref>clipitem-96</linkclipref>
							<mediatype>audio</mediatype>
							<trackindex>1</trackindex>
							<clipindex>4</clipindex>
							<groupindex>1</groupindex>
						</link>
						<link>
							<linkclipref>clipitem-104</linkclipref>
							<mediatype>audio</mediatype>
							<trackindex>2</trackindex>
							<clipindex>4</clipindex>
							<groupindex>1</groupindex>
						</link>
						<logginginfo>
							<description />
							<scene />
							<shottake />
							<lognote />
							<good />
							<originalvideofilename />
							<originalaudiofilename />
						</logginginfo>
						<colorinfo>
							<lut />
							<lut1 />
							<asc_sop />
							<asc_sat />
							<lut2 />
						</colorinfo>
					<labels><label2>Lavender</label2></labels></clipitem>
					<clipitem id="clipitem-86">
						<masterclipid>clipitem-2-91</masterclipid>
						<name>Taylor_Swift_Shares_The_Story_Of_Calling_Travis_Kelce_For_The_First_Time.mp4</name>
						<enabled>TRUE</enabled>
						<duration>150</duration>
						<rate>
							<timebase>25</timebase>
							<ntsc>FALSE</ntsc>
						</rate>
						<start>79050</start>
						<end>79200</end>
						<in>13500</in>
						<out>13650</out>
						<pproTicksIn>0</pproTicksIn>
						<pproTicksOut>236438092800000</pproTicksOut>
						<alphatype>none</alphatype>
						<pixelaspectratio>square</pixelaspectratio>
						<anamorphic>FALSE</anamorphic>
						<file id="file-30">
							<name>Taylor_Swift_Shares_The_Story_Of_Calling_Travis_Kelce_For_The_First_Time.mp4</name>
							<pathurl>file://localhost/Users/themalikano/Documents/VideoAutomation/premiere_videos/Taylor_Swift_Shares_The_Story_Of_Calling_Travis_Kelce_For_The_First_Time.mp4</pathurl>
							<rate>
								<timebase>30</timebase>
								<ntsc>TRUE</ntsc>
							</rate>
							<duration>27897</duration>
							<timecode>
								<rate>
									<timebase>30</timebase>
									<ntsc>TRUE</ntsc>
								</rate>
								<string>00:00:00:00</string>
								<frame>0</frame>
								<displayformat>NDF</displayformat>
							</timecode>
							<media>
								<video>
									<samplecharacteristics>
										<rate>
											<timebase>30</timebase>
											<ntsc>TRUE</ntsc>
										</rate>
										<width>1920</width>
										<height>1080</height>
										<anamorphic>FALSE</anamorphic>
										<pixelaspectratio>square</pixelaspectratio>
										<fielddominance>none</fielddominance>
									</samplecharacteristics>
								</video>
								<audio>
									<samplecharacteristics>
										<depth>16</depth>
										<samplerate>44100</samplerate>
									</samplecharacteristics>
									<channelcount>2</channelcount>
								</audio>
							</media>
						</file>
						<link>
							<linkclipref>clipitem-86</linkclipref>
							<mediatype>video</mediatype>
							<trackindex>1</trackindex>
							<clipindex>2</clipindex>
						</link>
						<link>
							<linkclipref>clipitem-94</linkclipref>
							<mediatype>audio</mediatype>
							<trackindex>1</trackindex>
							<clipindex>2</clipindex>
							<groupindex>1</groupindex>
						</link>
						<link>
							<linkclipref>clipitem-102</linkclipref>
							<mediatype>audio</mediatype>
							<trackindex>2</trackindex>
							<clipindex>2</clipindex>
							<groupindex>1</groupindex>
						</link>
						<logginginfo>
							<description />
							<scene />
							<shottake />
							<lognote />
							<good />
							<originalvideofilename />
							<originalaudiofilename />
						</logginginfo>
						<colorinfo>
							<lut />
							<lut1 />
							<asc_sop />
							<asc_sat />
							<lut2 />
						</colorinfo>
					<labels><label2>Iris</label2></labels></clipitem>
					<clipitem id="clipitem-87">
						<masterclipid>clipitem-3-14</masterclipid>
						<name>Taylor_Swift_Travis_Kelce_-_The_New_Power_Couple.mp4</name>
						<enabled>TRUE</enabled>
						<duration>150</duration>
						<rate>
							<timebase>25</timebase>
							<ntsc>FALSE</ntsc>
						</rate>
						<start>79200</start>
						<end>79350</end>
						<in>1950</in>
						<out>2100</out>
						<pproTicksIn>0</pproTicksIn>
						<pproTicksOut>875013995520000</pproTicksOut>
						<alphatype>none</alphatype>
						<pixelaspectratio>square</pixelaspectratio>
						<anamorphic>FALSE</anamorphic>
						<file id="file-31">
							<name>Taylor_Swift_Travis_Kelce_-_The_New_Power_Couple.mp4</name>
							<pathurl>file://localhost/Users/themalikano/Documents/VideoAutomation/premiere_videos/Taylor_Swift_Travis_Kelce_-_The_New_Power_Couple.mp4</pathurl>
							<rate>
								<timebase>25</timebase>
								<ntsc>FALSE</ntsc>
							</rate>
							<duration>86118</duration>
							<timecode>
								<rate>
									<timebase>25</timebase>
									<ntsc>FALSE</ntsc>
								</rate>
								<string>00:00:00:00</string>
								<frame>0</frame>
								<displayformat>NDF</displayformat>
							</timecode>
							<media>
								<video>
									<samplecharacteristics>
										<rate>
											<timebase>25</timebase>
											<ntsc>FALSE</ntsc>
										</rate>
										<width>1920</width>
										<height>1080</height>
										<anamorphic>FALSE</anamorphic>
										<pixelaspectratio>square</pixelaspectratio>
										<fielddominance>none</fielddominance>
									</samplecharacteristics>
								</video>
								<audio>
									<samplecharacteristics>
										<depth>16</depth>
										<samplerate>44100</samplerate>
									</samplecharacteristics>
									<channelcount>2</channelcount>
								</audio>
							</media>
						</file>
						<link>
							<linkclipref>clipitem-87</linkclipref>
							<mediatype>video</mediatype>
							<trackindex>1</trackindex>
							<clipindex>3</clipindex>
						</link>
						<link>
							<linkclipref>clipitem-95</linkclipref>
							<mediatype>audio</mediatype>
							<trackindex>1</trackindex>
							<clipindex>3</clipindex>
							<groupindex>1</groupindex>
						</link>
						<link>
							<linkclipref>clipitem-103</linkclipref>
							<mediatype>audio</mediatype>
							<trackindex>2</trackindex>
							<clipindex>3</clipindex>
							<groupindex>1</groupindex>
						</link>
						<logginginfo>
							<description />
							<scene />
							<shottake />
							<lognote />
							<good />
							<originalvideofilename />
							<originalaudiofilename />
						</logginginfo>
						<colorinfo>
							<lut />
							<lut1 />
							<asc_sop />
							<asc_sat />
							<lut2 />
						</colorinfo>
					<labels><label2>Caribbean</label2></labels></clipitem>
					<clipitem id="clipitem-86">
						<masterclipid>clipitem-2-131</masterclipid>
						<name>Taylor_Swift_Shares_The_Story_Of_Calling_Travis_Kelce_For_The_First_Time.mp4</name>
						<enabled>TRUE</enabled>
						<duration>150</duration>
						<rate>
							<timebase>25</timebase>
							<ntsc>FALSE</ntsc>
						</rate>
						<start>79350</start>
						<end>79500</end>
						<in>19500</in>
						<out>19650</out>
						<pproTicksIn>0</pproTicksIn>
						<pproTicksOut>236438092800000</pproTicksOut>
						<alphatype>none</alphatype>
						<pixelaspectratio>square</pixelaspectratio>
						<anamorphic>FALSE</anamorphic>
						<file id="file-30">
							<name>Taylor_Swift_Shares_The_Story_Of_Calling_Travis_Kelce_For_The_First_Time.mp4</name>
							<pathurl>file://localhost/Users/themalikano/Documents/VideoAutomation/premiere_videos/Taylor_Swift_Shares_The_Story_Of_Calling_Travis_Kelce_For_The_First_Time.mp4</pathurl>
							<rate>
								<timebase>30</timebase>
								<ntsc>TRUE</ntsc>
							</rate>
							<duration>27897</duration>
							<timecode>
								<rate>
									<timebase>30</timebase>
									<ntsc>TRUE</ntsc>
								</rate>
								<string>00:00:00:00</string>
								<frame>0</frame>
								<displayformat>NDF</displayformat>
							</timecode>
							<media>
								<video>
									<samplecharacteristics>
										<rate>
											<timebase>30</timebase>
											<ntsc>TRUE</ntsc>
										</rate>
										<width>1920</width>
										<height>1080</height>
										<anamorphic>FALSE</anamorphic>
										<pixelaspectratio>square</pixelaspectratio>
										<fielddominance>none</fielddominance>
									</samplecharacteristics>
								</video>
								<audio>
									<samplecharacteristics>
										<depth>16</depth>
										<samplerate>44100</samplerate>
									</samplecharacteristics>
									<channelcount>2</channelcount>
								</audio>
							</media>
						</file>
						<link>
							<linkclipref>clipitem-86</linkclipref>
							<mediatype>video</mediatype>
							<trackindex>1</trackindex>
							<clipindex>2</clipindex>
						</link>
						<link>
							<linkclipref>clipitem-94</linkclipref>
							<mediatype>audio</mediatype>
							<trackindex>1</trackindex>
							<clipindex>2</clipindex>
							<groupindex>1</groupindex>
						</link>
						<link>
							<linkclipref>clipitem-102</linkclipref>
							<mediatype>audio</mediatype>
							<trackindex>2</trackindex>
							<clipindex>2</clipindex>
							<groupindex>1</groupindex>
						</link>
						<logginginfo>
							<description />
							<scene />
							<shottake />
							<lognote />
							<good />
							<originalvideofilename />
							<originalaudiofilename />
						</logginginfo>
						<colorinfo>
							<lut />
							<lut1 />
							<asc_sop />
							<asc_sat />
							<lut2 />
						</colorinfo>
					<labels><label2>Iris</label2></labels></clipitem>
					<clipitem id="clipitem-88">
						<masterclipid>clipitem-4-130</masterclipid>
						<name>Travis_Kelce_ANNOUNCE_WEDDING_DATE_with_Taylor_Swift_Why_He_was_Delaying_all_Along.mp4</name>
						<enabled>TRUE</enabled>
						<duration>150</duration>
						<rate>
							<timebase>25</timebase>
							<ntsc>FALSE</ntsc>
						</rate>
						<start>79500</start>
						<end>79650</end>
						<in>19350</in>
						<out>19500</out>
						<pproTicksIn>0</pproTicksIn>
						<pproTicksOut>419410897920000</pproTicksOut>
						<alphatype>none</alphatype>
						<pixelaspectratio>square</pixelaspectratio>
						<anamorphic>FALSE</anamorphic>
						<file id="file-32">
							<name>Travis_Kelce_ANNOUNCE_WEDDING_DATE_with_Taylor_Swift_Why_He_was_Delaying_all_Along.mp4</name>
							<pathurl>file://localhost/Users/themalikano/Documents/VideoAutomation/premiere_videos/Travis_Kelce_ANNOUNCE_WEDDING_DATE_with_Taylor_Swift_Why_He_was_Delaying_all_Along.mp4</pathurl>
							<rate>
								<timebase>24</timebase>
								<ntsc>FALSE</ntsc>
							</rate>
							<duration>39627</duration>
							<timecode>
								<rate>
									<timebase>24</timebase>
									<ntsc>FALSE</ntsc>
								</rate>
								<string>00:00:00:00</string>
								<frame>0</frame>
								<displayformat>NDF</displayformat>
							</timecode>
							<media>
								<video>
									<samplecharacteristics>
										<rate>
											<timebase>24</timebase>
											<ntsc>FALSE</ntsc>
										</rate>
										<width>852</width>
										<height>480</height>
										<anamorphic>FALSE</anamorphic>
										<pixelaspectratio>square</pixelaspectratio>
										<fielddominance>none</fielddominance>
									</samplecharacteristics>
								</video>
								<audio>
									<samplecharacteristics>
										<depth>16</depth>
										<samplerate>44100</samplerate>
									</samplecharacteristics>
									<channelcount>2</channelcount>
								</audio>
							</media>
						</file>
						<filter>
							<effect>
								<name>Basic Motion</name>
								<effectid>basic</effectid>
								<effectcategory>motion</effectcategory>
								<effecttype>motion</effecttype>
								<mediatype>video</mediatype>
								<pproBypass>false</pproBypass>
								<parameter authoringApp="PremierePro">
									<parameterid>scale</parameterid>
									<name>Scale</name>
									<valuemin>0</valuemin>
									<valuemax>1000</valuemax>
									<value>225</value>
								</parameter>
								<parameter authoringApp="PremierePro">
									<parameterid>rotation</parameterid>
									<name>Rotation</name>
									<valuemin>-8640</valuemin>
									<valuemax>8640</valuemax>
									<value>0</value>
								</parameter>
								<parameter authoringApp="PremierePro">
									<parameterid>center</parameterid>
									<name>Center</name>
									<value>
										<horiz>0</horiz>
										<vert>0</vert>
									</value>
								</parameter>
								<parameter authoringApp="PremierePro">
									<parameterid>centerOffset</parameterid>
									<name>Anchor Point</name>
									<value>
										<horiz>0</horiz>
										<vert>0</vert>
									</value>
								</parameter>
								<parameter authoringApp="PremierePro">
									<parameterid>antiflicker</parameterid>
									<name>Anti-flicker Filter</name>
									<valuemin>0.0</valuemin>
									<valuemax>1.0</valuemax>
									<value>0</value>
								</parameter>
							</effect>
						</filter>
						<link>
							<linkclipref>clipitem-88</linkclipref>
							<mediatype>video</mediatype>
							<trackindex>1</trackindex>
							<clipindex>4</clipindex>
						</link>
						<link>
							<linkclipref>clipitem-96</linkclipref>
							<mediatype>audio</mediatype>
							<trackindex>1</trackindex>
							<clipindex>4</clipindex>
							<groupindex>1</groupindex>
						</link>
						<link>
							<linkclipref>clipitem-104</linkclipref>
							<mediatype>audio</mediatype>
							<trackindex>2</trackindex>
							<clipindex>4</clipindex>
							<groupindex>1</groupindex>
						</link>
						<logginginfo>
							<description />
							<scene />
							<shottake />
							<lognote />
							<good />
							<originalvideofilename />
							<originalaudiofilename />
						</logginginfo>
						<colorinfo>
							<lut />
							<lut1 />
							<asc_sop />
							<asc_sat />
							<lut2 />
						</colorinfo>
					<labels><label2>Lavender</label2></labels></clipitem>
					<clipitem id="clipitem-87">
						<masterclipid>clipitem-3-437</masterclipid>
						<name>Taylor_Swift_Travis_Kelce_-_The_New_Power_Couple.mp4</name>
						<enabled>TRUE</enabled>
						<duration>150</duration>
						<rate>
							<timebase>25</timebase>
							<ntsc>FALSE</ntsc>
						</rate>
						<start>79650</start>
						<end>79800</end>
						<in>65400</in>
						<out>65550</out>
						<pproTicksIn>0</pproTicksIn>
						<pproTicksOut>875013995520000</pproTicksOut>
						<alphatype>none</alphatype>
						<pixelaspectratio>square</pixelaspectratio>
						<anamorphic>FALSE</anamorphic>
						<file id="file-31">
							<name>Taylor_Swift_Travis_Kelce_-_The_New_Power_Couple.mp4</name>
							<pathurl>file://localhost/Users/themalikano/Documents/VideoAutomation/premiere_videos/Taylor_Swift_Travis_Kelce_-_The_New_Power_Couple.mp4</pathurl>
							<rate>
								<timebase>25</timebase>
								<ntsc>FALSE</ntsc>
							</rate>
							<duration>86118</duration>
							<timecode>
								<rate>
									<timebase>25</timebase>
									<ntsc>FALSE</ntsc>
								</rate>
								<string>00:00:00:00</string>
								<frame>0</frame>
								<displayformat>NDF</displayformat>
							</timecode>
							<media>
								<video>
									<samplecharacteristics>
										<rate>
											<timebase>25</timebase>
											<ntsc>FALSE</ntsc>
										</rate>
										<width>1920</width>
										<height>1080</height>
										<anamorphic>FALSE</anamorphic>
										<pixelaspectratio>square</pixelaspectratio>
										<fielddominance>none</fielddominance>
									</samplecharacteristics>
								</video>
								<audio>
									<samplecharacteristics>
										<depth>16</depth>
										<samplerate>44100</samplerate>
									</samplecharacteristics>
									<channelcount>2</channelcount>
								</audio>
							</media>
						</file>
						<link>
							<linkclipref>clipitem-87</linkclipref>
							<mediatype>video</mediatype>
							<trackindex>1</trackindex>
							<clipindex>3</clipindex>
						</link>
						<link>
							<linkclipref>clipitem-95</linkclipref>
							<mediatype>audio</mediatype>
							<trackindex>1</trackindex>
							<clipindex>3</clipindex>
							<groupindex>1</groupindex>
						</link>
						<link>
							<linkclipref>clipitem-103</linkclipref>
							<mediatype>audio</mediatype>
							<trackindex>2</trackindex>
							<clipindex>3</clipindex>
							<groupindex>1</groupindex>
						</link>
						<logginginfo>
							<description />
							<scene />
							<shottake />
							<lognote />
							<good />
							<originalvideofilename />
							<originalaudiofilename />
						</logginginfo>
						<colorinfo>
							<lut />
							<lut1 />
							<asc_sop />
							<asc_sat />
							<lut2 />
						</colorinfo>
					<labels><label2>Caribbean</label2></labels></clipitem>
					<clipitem id="clipitem-86">
						<masterclipid>clipitem-2-141</masterclipid>
						<name>Taylor_Swift_Shares_The_Story_Of_Calling_Travis_Kelce_For_The_First_Time.mp4</name>
						<enabled>TRUE</enabled>
						<duration>150</duration>
						<rate>
							<timebase>25</timebase>
							<ntsc>FALSE</ntsc>
						</rate>
						<start>79800</start>
						<end>79950</end>
						<in>21000</in>
						<out>21150</out>
						<pproTicksIn>0</pproTicksIn>
						<pproTicksOut>236438092800000</pproTicksOut>
						<alphatype>none</alphatype>
						<pixelaspectratio>square</pixelaspectratio>
						<anamorphic>FALSE</anamorphic>
						<file id="file-30">
							<name>Taylor_Swift_Shares_The_Story_Of_Calling_Travis_Kelce_For_The_First_Time.mp4</name>
							<pathurl>file://localhost/Users/themalikano/Documents/VideoAutomation/premiere_videos/Taylor_Swift_Shares_The_Story_Of_Calling_Travis_Kelce_For_The_First_Time.mp4</pathurl>
							<rate>
								<timebase>30</timebase>
								<ntsc>TRUE</ntsc>
							</rate>
							<duration>27897</duration>
							<timecode>
								<rate>
									<timebase>30</timebase>
									<ntsc>TRUE</ntsc>
								</rate>
								<string>00:00:00:00</string>
								<frame>0</frame>
								<displayformat>NDF</displayformat>
							</timecode>
							<media>
								<video>
									<samplecharacteristics>
										<rate>
											<timebase>30</timebase>
											<ntsc>TRUE</ntsc>
										</rate>
										<width>1920</width>
										<height>1080</height>
										<anamorphic>FALSE</anamorphic>
										<pixelaspectratio>square</pixelaspectratio>
										<fielddominance>none</fielddominance>
									</samplecharacteristics>
								</video>
								<audio>
									<samplecharacteristics>
										<depth>16</depth>
										<samplerate>44100</samplerate>
									</samplecharacteristics>
									<channelcount>2</channelcount>
								</audio>
							</media>
						</file>
						<link>
							<linkclipref>clipitem-86</linkclipref>
							<mediatype>video</mediatype>
							<trackindex>1</trackindex>
							<clipindex>2</clipindex>
						</link>
						<link>
							<linkclipref>clipitem-94</linkclipref>
							<mediatype>audio</mediatype>
							<trackindex>1</trackindex>
							<clipindex>2</clipindex>
							<groupindex>1</groupindex>
						</link>
						<link>
							<linkclipref>clipitem-102</linkclipref>
							<mediatype>audio</mediatype>
							<trackindex>2</trackindex>
							<clipindex>2</clipindex>
							<groupindex>1</groupindex>
						</link>
						<logginginfo>
							<description />
							<scene />
							<shottake />
							<lognote />
							<good />
							<originalvideofilename />
							<originalaudiofilename />
						</logginginfo>
						<colorinfo>
							<lut />
							<lut1 />
							<asc_sop />
							<asc_sat />
							<lut2 />
						</colorinfo>
					<labels><label2>Iris</label2></labels></clipitem>
					<clipitem id="clipitem-87">
						<masterclipid>clipitem-3-460</masterclipid>
						<name>Taylor_Swift_Travis_Kelce_-_The_New_Power_Couple.mp4</name>
						<enabled>TRUE</enabled>
						<duration>150</duration>
						<rate>
							<timebase>25</timebase>
							<ntsc>FALSE</ntsc>
						</rate>
						<start>79950</start>
						<end>80100</end>
						<in>68850</in>
						<out>69000</out>
						<pproTicksIn>0</pproTicksIn>
						<pproTicksOut>875013995520000</pproTicksOut>
						<alphatype>none</alphatype>
						<pixelaspectratio>square</pixelaspectratio>
						<anamorphic>FALSE</anamorphic>
						<file id="file-31">
							<name>Taylor_Swift_Travis_Kelce_-_The_New_Power_Couple.mp4</name>
							<pathurl>file://localhost/Users/themalikano/Documents/VideoAutomation/premiere_videos/Taylor_Swift_Travis_Kelce_-_The_New_Power_Couple.mp4</pathurl>
							<rate>
								<timebase>25</timebase>
								<ntsc>FALSE</ntsc>
							</rate>
							<duration>86118</duration>
							<timecode>
								<rate>
									<timebase>25</timebase>
									<ntsc>FALSE</ntsc>
								</rate>
								<string>00:00:00:00</string>
								<frame>0</frame>
								<displayformat>NDF</displayformat>
							</timecode>
							<media>
								<video>
									<samplecharacteristics>
										<rate>
											<timebase>25</timebase>
											<ntsc>FALSE</ntsc>
										</rate>
										<width>1920</width>
										<height>1080</height>
										<anamorphic>FALSE</anamorphic>
										<pixelaspectratio>square</pixelaspectratio>
										<fielddominance>none</fielddominance>
									</samplecharacteristics>
								</video>
								<audio>
									<samplecharacteristics>
										<depth>16</depth>
										<samplerate>44100</samplerate>
									</samplecharacteristics>
									<channelcount>2</channelcount>
								</audio>
							</media>
						</file>
						<link>
							<linkclipref>clipitem-87</linkclipref>
							<mediatype>video</mediatype>
							<trackindex>1</trackindex>
							<clipindex>3</clipindex>
						</link>
						<link>
							<linkclipref>clipitem-95</linkclipref>
							<mediatype>audio</mediatype>
							<trackindex>1</trackindex>
							<clipindex>3</clipindex>
							<groupindex>1</groupindex>
						</link>
						<link>
							<linkclipref>clipitem-103</linkclipref>
							<mediatype>audio</mediatype>
							<trackindex>2</trackindex>
							<clipindex>3</clipindex>
							<groupindex>1</groupindex>
						</link>
						<logginginfo>
							<description />
							<scene />
							<shottake />
							<lognote />
							<good />
							<originalvideofilename />
							<originalaudiofilename />
						</logginginfo>
						<colorinfo>
							<lut />
							<lut1 />
							<asc_sop />
							<asc_sat />
							<lut2 />
						</colorinfo>
					<labels><label2>Caribbean</label2></labels></clipitem>
					<clipitem id="clipitem-86">
						<masterclipid>clipitem-2-146</masterclipid>
						<name>Taylor_Swift_Shares_The_Story_Of_Calling_Travis_Kelce_For_The_First_Time.mp4</name>
						<enabled>TRUE</enabled>
						<duration>150</duration>
						<rate>
							<timebase>25</timebase>
							<ntsc>FALSE</ntsc>
						</rate>
						<start>80100</start>
						<end>80250</end>
						<in>21750</in>
						<out>21900</out>
						<pproTicksIn>0</pproTicksIn>
						<pproTicksOut>236438092800000</pproTicksOut>
						<alphatype>none</alphatype>
						<pixelaspectratio>square</pixelaspectratio>
						<anamorphic>FALSE</anamorphic>
						<file id="file-30">
							<name>Taylor_Swift_Shares_The_Story_Of_Calling_Travis_Kelce_For_The_First_Time.mp4</name>
							<pathurl>file://localhost/Users/themalikano/Documents/VideoAutomation/premiere_videos/Taylor_Swift_Shares_The_Story_Of_Calling_Travis_Kelce_For_The_First_Time.mp4</pathurl>
							<rate>
								<timebase>30</timebase>
								<ntsc>TRUE</ntsc>
							</rate>
							<duration>27897</duration>
							<timecode>
								<rate>
									<timebase>30</timebase>
									<ntsc>TRUE</ntsc>
								</rate>
								<string>00:00:00:00</string>
								<frame>0</frame>
								<displayformat>NDF</displayformat>
							</timecode>
							<media>
								<video>
									<samplecharacteristics>
										<rate>
											<timebase>30</timebase>
											<ntsc>TRUE</ntsc>
										</rate>
										<width>1920</width>
										<height>1080</height>
										<anamorphic>FALSE</anamorphic>
										<pixelaspectratio>square</pixelaspectratio>
										<fielddominance>none</fielddominance>
									</samplecharacteristics>
								</video>
								<audio>
									<samplecharacteristics>
										<depth>16</depth>
										<samplerate>44100</samplerate>
									</samplecharacteristics>
									<channelcount>2</channelcount>
								</audio>
							</media>
						</file>
						<link>
							<linkclipref>clipitem-86</linkclipref>
							<mediatype>video</mediatype>
							<trackindex>1</trackindex>
							<clipindex>2</clipindex>
						</link>
						<link>
							<linkclipref>clipitem-94</linkclipref>
							<mediatype>audio</mediatype>
							<trackindex>1</trackindex>
							<clipindex>2</clipindex>
							<groupindex>1</groupindex>
						</link>
						<link>
							<linkclipref>clipitem-102</linkclipref>
							<mediatype>audio</mediatype>
							<trackindex>2</trackindex>
							<clipindex>2</clipindex>
							<groupindex>1</groupindex>
						</link>
						<logginginfo>
							<description />
							<scene />
							<shottake />
							<lognote />
							<good />
							<originalvideofilename />
							<originalaudiofilename />
						</logginginfo>
						<colorinfo>
							<lut />
							<lut1 />
							<asc_sop />
							<asc_sat />
							<lut2 />
						</colorinfo>
					<labels><label2>Iris</label2></labels></clipitem>
					<clipitem id="clipitem-87">
						<masterclipid>clipitem-3-425</masterclipid>
						<name>Taylor_Swift_Travis_Kelce_-_The_New_Power_Couple.mp4</name>
						<enabled>TRUE</enabled>
						<duration>150</duration>
						<rate>
							<timebase>25</timebase>
							<ntsc>FALSE</ntsc>
						</rate>
						<start>80250</start>
						<end>80400</end>
						<in>63600</in>
						<out>63750</out>
						<pproTicksIn>0</pproTicksIn>
						<pproTicksOut>875013995520000</pproTicksOut>
						<alphatype>none</alphatype>
						<pixelaspectratio>square</pixelaspectratio>
						<anamorphic>FALSE</anamorphic>
						<file id="file-31">
							<name>Taylor_Swift_Travis_Kelce_-_The_New_Power_Couple.mp4</name>
							<pathurl>file://localhost/Users/themalikano/Documents/VideoAutomation/premiere_videos/Taylor_Swift_Travis_Kelce_-_The_New_Power_Couple.mp4</pathurl>
							<rate>
								<timebase>25</timebase>
								<ntsc>FALSE</ntsc>
							</rate>
							<duration>86118</duration>
							<timecode>
								<rate>
									<timebase>25</timebase>
									<ntsc>FALSE</ntsc>
								</rate>
								<string>00:00:00:00</string>
								<frame>0</frame>
								<displayformat>NDF</displayformat>
							</timecode>
							<media>
								<video>
									<samplecharacteristics>
										<rate>
											<timebase>25</timebase>
											<ntsc>FALSE</ntsc>
										</rate>
										<width>1920</width>
										<height>1080</height>
										<anamorphic>FALSE</anamorphic>
										<pixelaspectratio>square</pixelaspectratio>
										<fielddominance>none</fielddominance>
									</samplecharacteristics>
								</video>
								<audio>
									<samplecharacteristics>
										<depth>16</depth>
										<samplerate>44100</samplerate>
									</samplecharacteristics>
									<channelcount>2</channelcount>
								</audio>
							</media>
						</file>
						<link>
							<linkclipref>clipitem-87</linkclipref>
							<mediatype>video</mediatype>
							<trackindex>1</trackindex>
							<clipindex>3</clipindex>
						</link>
						<link>
							<linkclipref>clipitem-95</linkclipref>
							<mediatype>audio</mediatype>
							<trackindex>1</trackindex>
							<clipindex>3</clipindex>
							<groupindex>1</groupindex>
						</link>
						<link>
							<linkclipref>clipitem-103</linkclipref>
							<mediatype>audio</mediatype>
							<trackindex>2</trackindex>
							<clipindex>3</clipindex>
							<groupindex>1</groupindex>
						</link>
						<logginginfo>
							<description />
							<scene />
							<shottake />
							<lognote />
							<good />
							<originalvideofilename />
							<originalaudiofilename />
						</logginginfo>
						<colorinfo>
							<lut />
							<lut1 />
							<asc_sop />
							<asc_sat />
							<lut2 />
						</colorinfo>
					<labels><label2>Caribbean</label2></labels></clipitem>
					<clipitem id="clipitem-88">
						<masterclipid>clipitem-4-162</masterclipid>
						<name>Travis_Kelce_ANNOUNCE_WEDDING_DATE_with_Taylor_Swift_Why_He_was_Delaying_all_Along.mp4</name>
						<enabled>TRUE</enabled>
						<duration>150</duration>
						<rate>
							<timebase>25</timebase>
							<ntsc>FALSE</ntsc>
						</rate>
						<start>80400</start>
						<end>80550</end>
						<in>24150</in>
						<out>24300</out>
						<pproTicksIn>0</pproTicksIn>
						<pproTicksOut>419410897920000</pproTicksOut>
						<alphatype>none</alphatype>
						<pixelaspectratio>square</pixelaspectratio>
						<anamorphic>FALSE</anamorphic>
						<file id="file-32">
							<name>Travis_Kelce_ANNOUNCE_WEDDING_DATE_with_Taylor_Swift_Why_He_was_Delaying_all_Along.mp4</name>
							<pathurl>file://localhost/Users/themalikano/Documents/VideoAutomation/premiere_videos/Travis_Kelce_ANNOUNCE_WEDDING_DATE_with_Taylor_Swift_Why_He_was_Delaying_all_Along.mp4</pathurl>
							<rate>
								<timebase>24</timebase>
								<ntsc>FALSE</ntsc>
							</rate>
							<duration>39627</duration>
							<timecode>
								<rate>
									<timebase>24</timebase>
									<ntsc>FALSE</ntsc>
								</rate>
								<string>00:00:00:00</string>
								<frame>0</frame>
								<displayformat>NDF</displayformat>
							</timecode>
							<media>
								<video>
									<samplecharacteristics>
										<rate>
											<timebase>24</timebase>
											<ntsc>FALSE</ntsc>
										</rate>
										<width>852</width>
										<height>480</height>
										<anamorphic>FALSE</anamorphic>
										<pixelaspectratio>square</pixelaspectratio>
										<fielddominance>none</fielddominance>
									</samplecharacteristics>
								</video>
								<audio>
									<samplecharacteristics>
										<depth>16</depth>
										<samplerate>44100</samplerate>
									</samplecharacteristics>
									<channelcount>2</channelcount>
								</audio>
							</media>
						</file>
						<filter>
							<effect>
								<name>Basic Motion</name>
								<effectid>basic</effectid>
								<effectcategory>motion</effectcategory>
								<effecttype>motion</effecttype>
								<mediatype>video</mediatype>
								<pproBypass>false</pproBypass>
								<parameter authoringApp="PremierePro">
									<parameterid>scale</parameterid>
									<name>Scale</name>
									<valuemin>0</valuemin>
									<valuemax>1000</valuemax>
									<value>225</value>
								</parameter>
								<parameter authoringApp="PremierePro">
									<parameterid>rotation</parameterid>
									<name>Rotation</name>
									<valuemin>-8640</valuemin>
									<valuemax>8640</valuemax>
									<value>0</value>
								</parameter>
								<parameter authoringApp="PremierePro">
									<parameterid>center</parameterid>
									<name>Center</name>
									<value>
										<horiz>0</horiz>
										<vert>0</vert>
									</value>
								</parameter>
								<parameter authoringApp="PremierePro">
									<parameterid>centerOffset</parameterid>
									<name>Anchor Point</name>
									<value>
										<horiz>0</horiz>
										<vert>0</vert>
									</value>
								</parameter>
								<parameter authoringApp="PremierePro">
									<parameterid>antiflicker</parameterid>
									<name>Anti-flicker Filter</name>
									<valuemin>0.0</valuemin>
									<valuemax>1.0</valuemax>
									<value>0</value>
								</parameter>
							</effect>
						</filter>
						<link>
							<linkclipref>clipitem-88</linkclipref>
							<mediatype>video</mediatype>
							<trackindex>1</trackindex>
							<clipindex>4</clipindex>
						</link>
						<link>
							<linkclipref>clipitem-96</linkclipref>
							<mediatype>audio</mediatype>
							<trackindex>1</trackindex>
							<clipindex>4</clipindex>
							<groupindex>1</groupindex>
						</link>
						<link>
							<linkclipref>clipitem-104</linkclipref>
							<mediatype>audio</mediatype>
							<trackindex>2</trackindex>
							<clipindex>4</clipindex>
							<groupindex>1</groupindex>
						</link>
						<logginginfo>
							<description />
							<scene />
							<shottake />
							<lognote />
							<good />
							<originalvideofilename />
							<originalaudiofilename />
						</logginginfo>
						<colorinfo>
							<lut />
							<lut1 />
							<asc_sop />
							<asc_sat />
							<lut2 />
						</colorinfo>
					<labels><label2>Lavender</label2></labels></clipitem>
					<clipitem id="clipitem-87">
						<masterclipid>clipitem-3-372</masterclipid>
						<name>Taylor_Swift_Travis_Kelce_-_The_New_Power_Couple.mp4</name>
						<enabled>TRUE</enabled>
						<duration>150</duration>
						<rate>
							<timebase>25</timebase>
							<ntsc>FALSE</ntsc>
						</rate>
						<start>80550</start>
						<end>80700</end>
						<in>55650</in>
						<out>55800</out>
						<pproTicksIn>0</pproTicksIn>
						<pproTicksOut>875013995520000</pproTicksOut>
						<alphatype>none</alphatype>
						<pixelaspectratio>square</pixelaspectratio>
						<anamorphic>FALSE</anamorphic>
						<file id="file-31">
							<name>Taylor_Swift_Travis_Kelce_-_The_New_Power_Couple.mp4</name>
							<pathurl>file://localhost/Users/themalikano/Documents/VideoAutomation/premiere_videos/Taylor_Swift_Travis_Kelce_-_The_New_Power_Couple.mp4</pathurl>
							<rate>
								<timebase>25</timebase>
								<ntsc>FALSE</ntsc>
							</rate>
							<duration>86118</duration>
							<timecode>
								<rate>
									<timebase>25</timebase>
									<ntsc>FALSE</ntsc>
								</rate>
								<string>00:00:00:00</string>
								<frame>0</frame>
								<displayformat>NDF</displayformat>
							</timecode>
							<media>
								<video>
									<samplecharacteristics>
										<rate>
											<timebase>25</timebase>
											<ntsc>FALSE</ntsc>
										</rate>
										<width>1920</width>
										<height>1080</height>
										<anamorphic>FALSE</anamorphic>
										<pixelaspectratio>square</pixelaspectratio>
										<fielddominance>none</fielddominance>
									</samplecharacteristics>
								</video>
								<audio>
									<samplecharacteristics>
										<depth>16</depth>
										<samplerate>44100</samplerate>
									</samplecharacteristics>
									<channelcount>2</channelcount>
								</audio>
							</media>
						</file>
						<link>
							<linkclipref>clipitem-87</linkclipref>
							<mediatype>video</mediatype>
							<trackindex>1</trackindex>
							<clipindex>3</clipindex>
						</link>
						<link>
							<linkclipref>clipitem-95</linkclipref>
							<mediatype>audio</mediatype>
							<trackindex>1</trackindex>
							<clipindex>3</clipindex>
							<groupindex>1</groupindex>
						</link>
						<link>
							<linkclipref>clipitem-103</linkclipref>
							<mediatype>audio</mediatype>
							<trackindex>2</trackindex>
							<clipindex>3</clipindex>
							<groupindex>1</groupindex>
						</link>
						<logginginfo>
							<description />
							<scene />
							<shottake />
							<lognote />
							<good />
							<originalvideofilename />
							<originalaudiofilename />
						</logginginfo>
						<colorinfo>
							<lut />
							<lut1 />
							<asc_sop />
							<asc_sat />
							<lut2 />
						</colorinfo>
					<labels><label2>Caribbean</label2></labels></clipitem>
					<clipitem id="clipitem-88">
						<masterclipid>clipitem-4-92</masterclipid>
						<name>Travis_Kelce_ANNOUNCE_WEDDING_DATE_with_Taylor_Swift_Why_He_was_Delaying_all_Along.mp4</name>
						<enabled>TRUE</enabled>
						<duration>150</duration>
						<rate>
							<timebase>25</timebase>
							<ntsc>FALSE</ntsc>
						</rate>
						<start>80700</start>
						<end>80850</end>
						<in>13650</in>
						<out>13800</out>
						<pproTicksIn>0</pproTicksIn>
						<pproTicksOut>419410897920000</pproTicksOut>
						<alphatype>none</alphatype>
						<pixelaspectratio>square</pixelaspectratio>
						<anamorphic>FALSE</anamorphic>
						<file id="file-32">
							<name>Travis_Kelce_ANNOUNCE_WEDDING_DATE_with_Taylor_Swift_Why_He_was_Delaying_all_Along.mp4</name>
							<pathurl>file://localhost/Users/themalikano/Documents/VideoAutomation/premiere_videos/Travis_Kelce_ANNOUNCE_WEDDING_DATE_with_Taylor_Swift_Why_He_was_Delaying_all_Along.mp4</pathurl>
							<rate>
								<timebase>24</timebase>
								<ntsc>FALSE</ntsc>
							</rate>
							<duration>39627</duration>
							<timecode>
								<rate>
									<timebase>24</timebase>
									<ntsc>FALSE</ntsc>
								</rate>
								<string>00:00:00:00</string>
								<frame>0</frame>
								<displayformat>NDF</displayformat>
							</timecode>
							<media>
								<video>
									<samplecharacteristics>
										<rate>
											<timebase>24</timebase>
											<ntsc>FALSE</ntsc>
										</rate>
										<width>852</width>
										<height>480</height>
										<anamorphic>FALSE</anamorphic>
										<pixelaspectratio>square</pixelaspectratio>
										<fielddominance>none</fielddominance>
									</samplecharacteristics>
								</video>
								<audio>
									<samplecharacteristics>
										<depth>16</depth>
										<samplerate>44100</samplerate>
									</samplecharacteristics>
									<channelcount>2</channelcount>
								</audio>
							</media>
						</file>
						<filter>
							<effect>
								<name>Basic Motion</name>
								<effectid>basic</effectid>
								<effectcategory>motion</effectcategory>
								<effecttype>motion</effecttype>
								<mediatype>video</mediatype>
								<pproBypass>false</pproBypass>
								<parameter authoringApp="PremierePro">
									<parameterid>scale</parameterid>
									<name>Scale</name>
									<valuemin>0</valuemin>
									<valuemax>1000</valuemax>
									<value>225</value>
								</parameter>
								<parameter authoringApp="PremierePro">
									<parameterid>rotation</parameterid>
									<name>Rotation</name>
									<valuemin>-8640</valuemin>
									<valuemax>8640</valuemax>
									<value>0</value>
								</parameter>
								<parameter authoringApp="PremierePro">
									<parameterid>center</parameterid>
									<name>Center</name>
									<value>
										<horiz>0</horiz>
										<vert>0</vert>
									</value>
								</parameter>
								<parameter authoringApp="PremierePro">
									<parameterid>centerOffset</parameterid>
									<name>Anchor Point</name>
									<value>
										<horiz>0</horiz>
										<vert>0</vert>
									</value>
								</parameter>
								<parameter authoringApp="PremierePro">
									<parameterid>antiflicker</parameterid>
									<name>Anti-flicker Filter</name>
									<valuemin>0.0</valuemin>
									<valuemax>1.0</valuemax>
									<value>0</value>
								</parameter>
							</effect>
						</filter>
						<link>
							<linkclipref>clipitem-88</linkclipref>
							<mediatype>video</mediatype>
							<trackindex>1</trackindex>
							<clipindex>4</clipindex>
						</link>
						<link>
							<linkclipref>clipitem-96</linkclipref>
							<mediatype>audio</mediatype>
							<trackindex>1</trackindex>
							<clipindex>4</clipindex>
							<groupindex>1</groupindex>
						</link>
						<link>
							<linkclipref>clipitem-104</linkclipref>
							<mediatype>audio</mediatype>
							<trackindex>2</trackindex>
							<clipindex>4</clipindex>
							<groupindex>1</groupindex>
						</link>
						<logginginfo>
							<description />
							<scene />
							<shottake />
							<lognote />
							<good />
							<originalvideofilename />
							<originalaudiofilename />
						</logginginfo>
						<colorinfo>
							<lut />
							<lut1 />
							<asc_sop />
							<asc_sat />
							<lut2 />
						</colorinfo>
					<labels><label2>Lavender</label2></labels></clipitem>
					<clipitem id="clipitem-87">
						<masterclipid>clipitem-3-132</masterclipid>
						<name>Taylor_Swift_Travis_Kelce_-_The_New_Power_Couple.mp4</name>
						<enabled>TRUE</enabled>
						<duration>150</duration>
						<rate>
							<timebase>25</timebase>
							<ntsc>FALSE</ntsc>
						</rate>
						<start>80850</start>
						<end>81000</end>
						<in>19650</in>
						<out>19800</out>
						<pproTicksIn>0</pproTicksIn>
						<pproTicksOut>875013995520000</pproTicksOut>
						<alphatype>none</alphatype>
						<pixelaspectratio>square</pixelaspectratio>
						<anamorphic>FALSE</anamorphic>
						<file id="file-31">
							<name>Taylor_Swift_Travis_Kelce_-_The_New_Power_Couple.mp4</name>
							<pathurl>file://localhost/Users/themalikano/Documents/VideoAutomation/premiere_videos/Taylor_Swift_Travis_Kelce_-_The_New_Power_Couple.mp4</pathurl>
							<rate>
								<timebase>25</timebase>
								<ntsc>FALSE</ntsc>
							</rate>
							<duration>86118</duration>
							<timecode>
								<rate>
									<timebase>25</timebase>
									<ntsc>FALSE</ntsc>
								</rate>
								<string>00:00:00:00</string>
								<frame>0</frame>
								<displayformat>NDF</displayformat>
							</timecode>
							<media>
								<video>
									<samplecharacteristics>
										<rate>
											<timebase>25</timebase>
											<ntsc>FALSE</ntsc>
										</rate>
										<width>1920</width>
										<height>1080</height>
										<anamorphic>FALSE</anamorphic>
										<pixelaspectratio>square</pixelaspectratio>
										<fielddominance>none</fielddominance>
									</samplecharacteristics>
								</video>
								<audio>
									<samplecharacteristics>
										<depth>16</depth>
										<samplerate>44100</samplerate>
									</samplecharacteristics>
									<channelcount>2</channelcount>
								</audio>
							</media>
						</file>
						<link>
							<linkclipref>clipitem-87</linkclipref>
							<mediatype>video</mediatype>
							<trackindex>1</trackindex>
							<clipindex>3</clipindex>
						</link>
						<link>
							<linkclipref>clipitem-95</linkclipref>
							<mediatype>audio</mediatype>
							<trackindex>1</trackindex>
							<clipindex>3</clipindex>
							<groupindex>1</groupindex>
						</link>
						<link>
							<linkclipref>clipitem-103</linkclipref>
							<mediatype>audio</mediatype>
							<trackindex>2</trackindex>
							<clipindex>3</clipindex>
							<groupindex>1</groupindex>
						</link>
						<logginginfo>
							<description />
							<scene />
							<shottake />
							<lognote />
							<good />
							<originalvideofilename />
							<originalaudiofilename />
						</logginginfo>
						<colorinfo>
							<lut />
							<lut1 />
							<asc_sop />
							<asc_sat />
							<lut2 />
						</colorinfo>
					<labels><label2>Caribbean</label2></labels></clipitem>
					<clipitem id="clipitem-88">
						<masterclipid>clipitem-4-233</masterclipid>
						<name>Travis_Kelce_ANNOUNCE_WEDDING_DATE_with_Taylor_Swift_Why_He_was_Delaying_all_Along.mp4</name>
						<enabled>TRUE</enabled>
						<duration>150</duration>
						<rate>
							<timebase>25</timebase>
							<ntsc>FALSE</ntsc>
						</rate>
						<start>81000</start>
						<end>81150</end>
						<in>34800</in>
						<out>34950</out>
						<pproTicksIn>0</pproTicksIn>
						<pproTicksOut>419410897920000</pproTicksOut>
						<alphatype>none</alphatype>
						<pixelaspectratio>square</pixelaspectratio>
						<anamorphic>FALSE</anamorphic>
						<file id="file-32">
							<name>Travis_Kelce_ANNOUNCE_WEDDING_DATE_with_Taylor_Swift_Why_He_was_Delaying_all_Along.mp4</name>
							<pathurl>file://localhost/Users/themalikano/Documents/VideoAutomation/premiere_videos/Travis_Kelce_ANNOUNCE_WEDDING_DATE_with_Taylor_Swift_Why_He_was_Delaying_all_Along.mp4</pathurl>
							<rate>
								<timebase>24</timebase>
								<ntsc>FALSE</ntsc>
							</rate>
							<duration>39627</duration>
							<timecode>
								<rate>
									<timebase>24</timebase>
									<ntsc>FALSE</ntsc>
								</rate>
								<string>00:00:00:00</string>
								<frame>0</frame>
								<displayformat>NDF</displayformat>
							</timecode>
							<media>
								<video>
									<samplecharacteristics>
										<rate>
											<timebase>24</timebase>
											<ntsc>FALSE</ntsc>
										</rate>
										<width>852</width>
										<height>480</height>
										<anamorphic>FALSE</anamorphic>
										<pixelaspectratio>square</pixelaspectratio>
										<fielddominance>none</fielddominance>
									</samplecharacteristics>
								</video>
								<audio>
									<samplecharacteristics>
										<depth>16</depth>
										<samplerate>44100</samplerate>
									</samplecharacteristics>
									<channelcount>2</channelcount>
								</audio>
							</media>
						</file>
						<filter>
							<effect>
								<name>Basic Motion</name>
								<effectid>basic</effectid>
								<effectcategory>motion</effectcategory>
								<effecttype>motion</effecttype>
								<mediatype>video</mediatype>
								<pproBypass>false</pproBypass>
								<parameter authoringApp="PremierePro">
									<parameterid>scale</parameterid>
									<name>Scale</name>
									<valuemin>0</valuemin>
									<valuemax>1000</valuemax>
									<value>225</value>
								</parameter>
								<parameter authoringApp="PremierePro">
									<parameterid>rotation</parameterid>
									<name>Rotation</name>
									<valuemin>-8640</valuemin>
									<valuemax>8640</valuemax>
									<value>0</value>
								</parameter>
								<parameter authoringApp="PremierePro">
									<parameterid>center</parameterid>
									<name>Center</name>
									<value>
										<horiz>0</horiz>
										<vert>0</vert>
									</value>
								</parameter>
								<parameter authoringApp="PremierePro">
									<parameterid>centerOffset</parameterid>
									<name>Anchor Point</name>
									<value>
										<horiz>0</horiz>
										<vert>0</vert>
									</value>
								</parameter>
								<parameter authoringApp="PremierePro">
									<parameterid>antiflicker</parameterid>
									<name>Anti-flicker Filter</name>
									<valuemin>0.0</valuemin>
									<valuemax>1.0</valuemax>
									<value>0</value>
								</parameter>
							</effect>
						</filter>
						<link>
							<linkclipref>clipitem-88</linkclipref>
							<mediatype>video</mediatype>
							<trackindex>1</trackindex>
							<clipindex>4</clipindex>
						</link>
						<link>
							<linkclipref>clipitem-96</linkclipref>
							<mediatype>audio</mediatype>
							<trackindex>1</trackindex>
							<clipindex>4</clipindex>
							<groupindex>1</groupindex>
						</link>
						<link>
							<linkclipref>clipitem-104</linkclipref>
							<mediatype>audio</mediatype>
							<trackindex>2</trackindex>
							<clipindex>4</clipindex>
							<groupindex>1</groupindex>
						</link>
						<logginginfo>
							<description />
							<scene />
							<shottake />
							<lognote />
							<good />
							<originalvideofilename />
							<originalaudiofilename />
						</logginginfo>
						<colorinfo>
							<lut />
							<lut1 />
							<asc_sop />
							<asc_sat />
							<lut2 />
						</colorinfo>
					<labels><label2>Lavender</label2></labels></clipitem>
					<clipitem id="clipitem-86">
						<masterclipid>clipitem-2-83</masterclipid>
						<name>Taylor_Swift_Shares_The_Story_Of_Calling_Travis_Kelce_For_The_First_Time.mp4</name>
						<enabled>TRUE</enabled>
						<duration>150</duration>
						<rate>
							<timebase>25</timebase>
							<ntsc>FALSE</ntsc>
						</rate>
						<start>81150</start>
						<end>81300</end>
						<in>12300</in>
						<out>12450</out>
						<pproTicksIn>0</pproTicksIn>
						<pproTicksOut>236438092800000</pproTicksOut>
						<alphatype>none</alphatype>
						<pixelaspectratio>square</pixelaspectratio>
						<anamorphic>FALSE</anamorphic>
						<file id="file-30">
							<name>Taylor_Swift_Shares_The_Story_Of_Calling_Travis_Kelce_For_The_First_Time.mp4</name>
							<pathurl>file://localhost/Users/themalikano/Documents/VideoAutomation/premiere_videos/Taylor_Swift_Shares_The_Story_Of_Calling_Travis_Kelce_For_The_First_Time.mp4</pathurl>
							<rate>
								<timebase>30</timebase>
								<ntsc>TRUE</ntsc>
							</rate>
							<duration>27897</duration>
							<timecode>
								<rate>
									<timebase>30</timebase>
									<ntsc>TRUE</ntsc>
								</rate>
								<string>00:00:00:00</string>
								<frame>0</frame>
								<displayformat>NDF</displayformat>
							</timecode>
							<media>
								<video>
									<samplecharacteristics>
										<rate>
											<timebase>30</timebase>
											<ntsc>TRUE</ntsc>
										</rate>
										<width>1920</width>
										<height>1080</height>
										<anamorphic>FALSE</anamorphic>
										<pixelaspectratio>square</pixelaspectratio>
										<fielddominance>none</fielddominance>
									</samplecharacteristics>
								</video>
								<audio>
									<samplecharacteristics>
										<depth>16</depth>
										<samplerate>44100</samplerate>
									</samplecharacteristics>
									<channelcount>2</channelcount>
								</audio>
							</media>
						</file>
						<link>
							<linkclipref>clipitem-86</linkclipref>
							<mediatype>video</mediatype>
							<trackindex>1</trackindex>
							<clipindex>2</clipindex>
						</link>
						<link>
							<linkclipref>clipitem-94</linkclipref>
							<mediatype>audio</mediatype>
							<trackindex>1</trackindex>
							<clipindex>2</clipindex>
							<groupindex>1</groupindex>
						</link>
						<link>
							<linkclipref>clipitem-102</linkclipref>
							<mediatype>audio</mediatype>
							<trackindex>2</trackindex>
							<clipindex>2</clipindex>
							<groupindex>1</groupindex>
						</link>
						<logginginfo>
							<description />
							<scene />
							<shottake />
							<lognote />
							<good />
							<originalvideofilename />
							<originalaudiofilename />
						</logginginfo>
						<colorinfo>
							<lut />
							<lut1 />
							<asc_sop />
							<asc_sat />
							<lut2 />
						</colorinfo>
					<labels><label2>Iris</label2></labels></clipitem>
					<clipitem id="clipitem-88">
						<masterclipid>clipitem-4-203</masterclipid>
						<name>Travis_Kelce_ANNOUNCE_WEDDING_DATE_with_Taylor_Swift_Why_He_was_Delaying_all_Along.mp4</name>
						<enabled>TRUE</enabled>
						<duration>150</duration>
						<rate>
							<timebase>25</timebase>
							<ntsc>FALSE</ntsc>
						</rate>
						<start>81300</start>
						<end>81450</end>
						<in>30300</in>
						<out>30450</out>
						<pproTicksIn>0</pproTicksIn>
						<pproTicksOut>419410897920000</pproTicksOut>
						<alphatype>none</alphatype>
						<pixelaspectratio>square</pixelaspectratio>
						<anamorphic>FALSE</anamorphic>
						<file id="file-32">
							<name>Travis_Kelce_ANNOUNCE_WEDDING_DATE_with_Taylor_Swift_Why_He_was_Delaying_all_Along.mp4</name>
							<pathurl>file://localhost/Users/themalikano/Documents/VideoAutomation/premiere_videos/Travis_Kelce_ANNOUNCE_WEDDING_DATE_with_Taylor_Swift_Why_He_was_Delaying_all_Along.mp4</pathurl>
							<rate>
								<timebase>24</timebase>
								<ntsc>FALSE</ntsc>
							</rate>
							<duration>39627</duration>
							<timecode>
								<rate>
									<timebase>24</timebase>
									<ntsc>FALSE</ntsc>
								</rate>
								<string>00:00:00:00</string>
								<frame>0</frame>
								<displayformat>NDF</displayformat>
							</timecode>
							<media>
								<video>
									<samplecharacteristics>
										<rate>
											<timebase>24</timebase>
											<ntsc>FALSE</ntsc>
										</rate>
										<width>852</width>
										<height>480</height>
										<anamorphic>FALSE</anamorphic>
										<pixelaspectratio>square</pixelaspectratio>
										<fielddominance>none</fielddominance>
									</samplecharacteristics>
								</video>
								<audio>
									<samplecharacteristics>
										<depth>16</depth>
										<samplerate>44100</samplerate>
									</samplecharacteristics>
									<channelcount>2</channelcount>
								</audio>
							</media>
						</file>
						<filter>
							<effect>
								<name>Basic Motion</name>
								<effectid>basic</effectid>
								<effectcategory>motion</effectcategory>
								<effecttype>motion</effecttype>
								<mediatype>video</mediatype>
								<pproBypass>false</pproBypass>
								<parameter authoringApp="PremierePro">
									<parameterid>scale</parameterid>
									<name>Scale</name>
									<valuemin>0</valuemin>
									<valuemax>1000</valuemax>
									<value>225</value>
								</parameter>
								<parameter authoringApp="PremierePro">
									<parameterid>rotation</parameterid>
									<name>Rotation</name>
									<valuemin>-8640</valuemin>
									<valuemax>8640</valuemax>
									<value>0</value>
								</parameter>
								<parameter authoringApp="PremierePro">
									<parameterid>center</parameterid>
									<name>Center</name>
									<value>
										<horiz>0</horiz>
										<vert>0</vert>
									</value>
								</parameter>
								<parameter authoringApp="PremierePro">
									<parameterid>centerOffset</parameterid>
									<name>Anchor Point</name>
									<value>
										<horiz>0</horiz>
										<vert>0</vert>
									</value>
								</parameter>
								<parameter authoringApp="PremierePro">
									<parameterid>antiflicker</parameterid>
									<name>Anti-flicker Filter</name>
									<valuemin>0.0</valuemin>
									<valuemax>1.0</valuemax>
									<value>0</value>
								</parameter>
							</effect>
						</filter>
						<link>
							<linkclipref>clipitem-88</linkclipref>
							<mediatype>video</mediatype>
							<trackindex>1</trackindex>
							<clipindex>4</clipindex>
						</link>
						<link>
							<linkclipref>clipitem-96</linkclipref>
							<mediatype>audio</mediatype>
							<trackindex>1</trackindex>
							<clipindex>4</clipindex>
							<groupindex>1</groupindex>
						</link>
						<link>
							<linkclipref>clipitem-104</linkclipref>
							<mediatype>audio</mediatype>
							<trackindex>2</trackindex>
							<clipindex>4</clipindex>
							<groupindex>1</groupindex>
						</link>
						<logginginfo>
							<description />
							<scene />
							<shottake />
							<lognote />
							<good />
							<originalvideofilename />
							<originalaudiofilename />
						</logginginfo>
						<colorinfo>
							<lut />
							<lut1 />
							<asc_sop />
							<asc_sat />
							<lut2 />
						</colorinfo>
					<labels><label2>Lavender</label2></labels></clipitem>
					<clipitem id="clipitem-86">
						<masterclipid>clipitem-2-134</masterclipid>
						<name>Taylor_Swift_Shares_The_Story_Of_Calling_Travis_Kelce_For_The_First_Time.mp4</name>
						<enabled>TRUE</enabled>
						<duration>150</duration>
						<rate>
							<timebase>25</timebase>
							<ntsc>FALSE</ntsc>
						</rate>
						<start>81450</start>
						<end>81600</end>
						<in>19950</in>
						<out>20100</out>
						<pproTicksIn>0</pproTicksIn>
						<pproTicksOut>236438092800000</pproTicksOut>
						<alphatype>none</alphatype>
						<pixelaspectratio>square</pixelaspectratio>
						<anamorphic>FALSE</anamorphic>
						<file id="file-30">
							<name>Taylor_Swift_Shares_The_Story_Of_Calling_Travis_Kelce_For_The_First_Time.mp4</name>
							<pathurl>file://localhost/Users/themalikano/Documents/VideoAutomation/premiere_videos/Taylor_Swift_Shares_The_Story_Of_Calling_Travis_Kelce_For_The_First_Time.mp4</pathurl>
							<rate>
								<timebase>30</timebase>
								<ntsc>TRUE</ntsc>
							</rate>
							<duration>27897</duration>
							<timecode>
								<rate>
									<timebase>30</timebase>
									<ntsc>TRUE</ntsc>
								</rate>
								<string>00:00:00:00</string>
								<frame>0</frame>
								<displayformat>NDF</displayformat>
							</timecode>
							<media>
								<video>
									<samplecharacteristics>
										<rate>
											<timebase>30</timebase>
											<ntsc>TRUE</ntsc>
										</rate>
										<width>1920</width>
										<height>1080</height>
										<anamorphic>FALSE</anamorphic>
										<pixelaspectratio>square</pixelaspectratio>
										<fielddominance>none</fielddominance>
									</samplecharacteristics>
								</video>
								<audio>
									<samplecharacteristics>
										<depth>16</depth>
										<samplerate>44100</samplerate>
									</samplecharacteristics>
									<channelcount>2</channelcount>
								</audio>
							</media>
						</file>
						<link>
							<linkclipref>clipitem-86</linkclipref>
							<mediatype>video</mediatype>
							<trackindex>1</trackindex>
							<clipindex>2</clipindex>
						</link>
						<link>
							<linkclipref>clipitem-94</linkclipref>
							<mediatype>audio</mediatype>
							<trackindex>1</trackindex>
							<clipindex>2</clipindex>
							<groupindex>1</groupindex>
						</link>
						<link>
							<linkclipref>clipitem-102</linkclipref>
							<mediatype>audio</mediatype>
							<trackindex>2</trackindex>
							<clipindex>2</clipindex>
							<groupindex>1</groupindex>
						</link>
						<logginginfo>
							<description />
							<scene />
							<shottake />
							<lognote />
							<good />
							<originalvideofilename />
							<originalaudiofilename />
						</logginginfo>
						<colorinfo>
							<lut />
							<lut1 />
							<asc_sop />
							<asc_sat />
							<lut2 />
						</colorinfo>
					<labels><label2>Iris</label2></labels></clipitem>
					<clipitem id="clipitem-87">
						<masterclipid>clipitem-3-383</masterclipid>
						<name>Taylor_Swift_Travis_Kelce_-_The_New_Power_Couple.mp4</name>
						<enabled>TRUE</enabled>
						<duration>150</duration>
						<rate>
							<timebase>25</timebase>
							<ntsc>FALSE</ntsc>
						</rate>
						<start>81600</start>
						<end>81750</end>
						<in>57300</in>
						<out>57450</out>
						<pproTicksIn>0</pproTicksIn>
						<pproTicksOut>875013995520000</pproTicksOut>
						<alphatype>none</alphatype>
						<pixelaspectratio>square</pixelaspectratio>
						<anamorphic>FALSE</anamorphic>
						<file id="file-31">
							<name>Taylor_Swift_Travis_Kelce_-_The_New_Power_Couple.mp4</name>
							<pathurl>file://localhost/Users/themalikano/Documents/VideoAutomation/premiere_videos/Taylor_Swift_Travis_Kelce_-_The_New_Power_Couple.mp4</pathurl>
							<rate>
								<timebase>25</timebase>
								<ntsc>FALSE</ntsc>
							</rate>
							<duration>86118</duration>
							<timecode>
								<rate>
									<timebase>25</timebase>
									<ntsc>FALSE</ntsc>
								</rate>
								<string>00:00:00:00</string>
								<frame>0</frame>
								<displayformat>NDF</displayformat>
							</timecode>
							<media>
								<video>
									<samplecharacteristics>
										<rate>
											<timebase>25</timebase>
											<ntsc>FALSE</ntsc>
										</rate>
										<width>1920</width>
										<height>1080</height>
										<anamorphic>FALSE</anamorphic>
										<pixelaspectratio>square</pixelaspectratio>
										<fielddominance>none</fielddominance>
									</samplecharacteristics>
								</video>
								<audio>
									<samplecharacteristics>
										<depth>16</depth>
										<samplerate>44100</samplerate>
									</samplecharacteristics>
									<channelcount>2</channelcount>
								</audio>
							</media>
						</file>
						<link>
							<linkclipref>clipitem-87</linkclipref>
							<mediatype>video</mediatype>
							<trackindex>1</trackindex>
							<clipindex>3</clipindex>
						</link>
						<link>
							<linkclipref>clipitem-95</linkclipref>
							<mediatype>audio</mediatype>
							<trackindex>1</trackindex>
							<clipindex>3</clipindex>
							<groupindex>1</groupindex>
						</link>
						<link>
							<linkclipref>clipitem-103</linkclipref>
							<mediatype>audio</mediatype>
							<trackindex>2</trackindex>
							<clipindex>3</clipindex>
							<groupindex>1</groupindex>
						</link>
						<logginginfo>
							<description />
							<scene />
							<shottake />
							<lognote />
							<good />
							<originalvideofilename />
							<originalaudiofilename />
						</logginginfo>
						<colorinfo>
							<lut />
							<lut1 />
							<asc_sop />
							<asc_sat />
							<lut2 />
						</colorinfo>
					<labels><label2>Caribbean</label2></labels></clipitem>
					<clipitem id="clipitem-88">
						<masterclipid>clipitem-4-190</masterclipid>
						<name>Travis_Kelce_ANNOUNCE_WEDDING_DATE_with_Taylor_Swift_Why_He_was_Delaying_all_Along.mp4</name>
						<enabled>TRUE</enabled>
						<duration>150</duration>
						<rate>
							<timebase>25</timebase>
							<ntsc>FALSE</ntsc>
						</rate>
						<start>81750</start>
						<end>81900</end>
						<in>28350</in>
						<out>28500</out>
						<pproTicksIn>0</pproTicksIn>
						<pproTicksOut>419410897920000</pproTicksOut>
						<alphatype>none</alphatype>
						<pixelaspectratio>square</pixelaspectratio>
						<anamorphic>FALSE</anamorphic>
						<file id="file-32">
							<name>Travis_Kelce_ANNOUNCE_WEDDING_DATE_with_Taylor_Swift_Why_He_was_Delaying_all_Along.mp4</name>
							<pathurl>file://localhost/Users/themalikano/Documents/VideoAutomation/premiere_videos/Travis_Kelce_ANNOUNCE_WEDDING_DATE_with_Taylor_Swift_Why_He_was_Delaying_all_Along.mp4</pathurl>
							<rate>
								<timebase>24</timebase>
								<ntsc>FALSE</ntsc>
							</rate>
							<duration>39627</duration>
							<timecode>
								<rate>
									<timebase>24</timebase>
									<ntsc>FALSE</ntsc>
								</rate>
								<string>00:00:00:00</string>
								<frame>0</frame>
								<displayformat>NDF</displayformat>
							</timecode>
							<media>
								<video>
									<samplecharacteristics>
										<rate>
											<timebase>24</timebase>
											<ntsc>FALSE</ntsc>
										</rate>
										<width>852</width>
										<height>480</height>
										<anamorphic>FALSE</anamorphic>
										<pixelaspectratio>square</pixelaspectratio>
										<fielddominance>none</fielddominance>
									</samplecharacteristics>
								</video>
								<audio>
									<samplecharacteristics>
										<depth>16</depth>
										<samplerate>44100</samplerate>
									</samplecharacteristics>
									<channelcount>2</channelcount>
								</audio>
							</media>
						</file>
						<filter>
							<effect>
								<name>Basic Motion</name>
								<effectid>basic</effectid>
								<effectcategory>motion</effectcategory>
								<effecttype>motion</effecttype>
								<mediatype>video</mediatype>
								<pproBypass>false</pproBypass>
								<parameter authoringApp="PremierePro">
									<parameterid>scale</parameterid>
									<name>Scale</name>
									<valuemin>0</valuemin>
									<valuemax>1000</valuemax>
									<value>225</value>
								</parameter>
								<parameter authoringApp="PremierePro">
									<parameterid>rotation</parameterid>
									<name>Rotation</name>
									<valuemin>-8640</valuemin>
									<valuemax>8640</valuemax>
									<value>0</value>
								</parameter>
								<parameter authoringApp="PremierePro">
									<parameterid>center</parameterid>
									<name>Center</name>
									<value>
										<horiz>0</horiz>
										<vert>0</vert>
									</value>
								</parameter>
								<parameter authoringApp="PremierePro">
									<parameterid>centerOffset</parameterid>
									<name>Anchor Point</name>
									<value>
										<horiz>0</horiz>
										<vert>0</vert>
									</value>
								</parameter>
								<parameter authoringApp="PremierePro">
									<parameterid>antiflicker</parameterid>
									<name>Anti-flicker Filter</name>
									<valuemin>0.0</valuemin>
									<valuemax>1.0</valuemax>
									<value>0</value>
								</parameter>
							</effect>
						</filter>
						<link>
							<linkclipref>clipitem-88</linkclipref>
							<mediatype>video</mediatype>
							<trackindex>1</trackindex>
							<clipindex>4</clipindex>
						</link>
						<link>
							<linkclipref>clipitem-96</linkclipref>
							<mediatype>audio</mediatype>
							<trackindex>1</trackindex>
							<clipindex>4</clipindex>
							<groupindex>1</groupindex>
						</link>
						<link>
							<linkclipref>clipitem-104</linkclipref>
							<mediatype>audio</mediatype>
							<trackindex>2</trackindex>
							<clipindex>4</clipindex>
							<groupindex>1</groupindex>
						</link>
						<logginginfo>
							<description />
							<scene />
							<shottake />
							<lognote />
							<good />
							<originalvideofilename />
							<originalaudiofilename />
						</logginginfo>
						<colorinfo>
							<lut />
							<lut1 />
							<asc_sop />
							<asc_sat />
							<lut2 />
						</colorinfo>
					<labels><label2>Lavender</label2></labels></clipitem>
					<clipitem id="clipitem-86">
						<masterclipid>clipitem-2-58</masterclipid>
						<name>Taylor_Swift_Shares_The_Story_Of_Calling_Travis_Kelce_For_The_First_Time.mp4</name>
						<enabled>TRUE</enabled>
						<duration>150</duration>
						<rate>
							<timebase>25</timebase>
							<ntsc>FALSE</ntsc>
						</rate>
						<start>81900</start>
						<end>82050</end>
						<in>8550</in>
						<out>8700</out>
						<pproTicksIn>0</pproTicksIn>
						<pproTicksOut>236438092800000</pproTicksOut>
						<alphatype>none</alphatype>
						<pixelaspectratio>square</pixelaspectratio>
						<anamorphic>FALSE</anamorphic>
						<file id="file-30">
							<name>Taylor_Swift_Shares_The_Story_Of_Calling_Travis_Kelce_For_The_First_Time.mp4</name>
							<pathurl>file://localhost/Users/themalikano/Documents/VideoAutomation/premiere_videos/Taylor_Swift_Shares_The_Story_Of_Calling_Travis_Kelce_For_The_First_Time.mp4</pathurl>
							<rate>
								<timebase>30</timebase>
								<ntsc>TRUE</ntsc>
							</rate>
							<duration>27897</duration>
							<timecode>
								<rate>
									<timebase>30</timebase>
									<ntsc>TRUE</ntsc>
								</rate>
								<string>00:00:00:00</string>
								<frame>0</frame>
								<displayformat>NDF</displayformat>
							</timecode>
							<media>
								<video>
									<samplecharacteristics>
										<rate>
											<timebase>30</timebase>
											<ntsc>TRUE</ntsc>
										</rate>
										<width>1920</width>
										<height>1080</height>
										<anamorphic>FALSE</anamorphic>
										<pixelaspectratio>square</pixelaspectratio>
										<fielddominance>none</fielddominance>
									</samplecharacteristics>
								</video>
								<audio>
									<samplecharacteristics>
										<depth>16</depth>
										<samplerate>44100</samplerate>
									</samplecharacteristics>
									<channelcount>2</channelcount>
								</audio>
							</media>
						</file>
						<link>
							<linkclipref>clipitem-86</linkclipref>
							<mediatype>video</mediatype>
							<trackindex>1</trackindex>
							<clipindex>2</clipindex>
						</link>
						<link>
							<linkclipref>clipitem-94</linkclipref>
							<mediatype>audio</mediatype>
							<trackindex>1</trackindex>
							<clipindex>2</clipindex>
							<groupindex>1</groupindex>
						</link>
						<link>
							<linkclipref>clipitem-102</linkclipref>
							<mediatype>audio</mediatype>
							<trackindex>2</trackindex>
							<clipindex>2</clipindex>
							<groupindex>1</groupindex>
						</link>
						<logginginfo>
							<description />
							<scene />
							<shottake />
							<lognote />
							<good />
							<originalvideofilename />
							<originalaudiofilename />
						</logginginfo>
						<colorinfo>
							<lut />
							<lut1 />
							<asc_sop />
							<asc_sat />
							<lut2 />
						</colorinfo>
					<labels><label2>Iris</label2></labels></clipitem>
					<clipitem id="clipitem-88">
						<masterclipid>clipitem-4-133</masterclipid>
						<name>Travis_Kelce_ANNOUNCE_WEDDING_DATE_with_Taylor_Swift_Why_He_was_Delaying_all_Along.mp4</name>
						<enabled>TRUE</enabled>
						<duration>150</duration>
						<rate>
							<timebase>25</timebase>
							<ntsc>FALSE</ntsc>
						</rate>
						<start>82050</start>
						<end>82200</end>
						<in>19800</in>
						<out>19950</out>
						<pproTicksIn>0</pproTicksIn>
						<pproTicksOut>419410897920000</pproTicksOut>
						<alphatype>none</alphatype>
						<pixelaspectratio>square</pixelaspectratio>
						<anamorphic>FALSE</anamorphic>
						<file id="file-32">
							<name>Travis_Kelce_ANNOUNCE_WEDDING_DATE_with_Taylor_Swift_Why_He_was_Delaying_all_Along.mp4</name>
							<pathurl>file://localhost/Users/themalikano/Documents/VideoAutomation/premiere_videos/Travis_Kelce_ANNOUNCE_WEDDING_DATE_with_Taylor_Swift_Why_He_was_Delaying_all_Along.mp4</pathurl>
							<rate>
								<timebase>24</timebase>
								<ntsc>FALSE</ntsc>
							</rate>
							<duration>39627</duration>
							<timecode>
								<rate>
									<timebase>24</timebase>
									<ntsc>FALSE</ntsc>
								</rate>
								<string>00:00:00:00</string>
								<frame>0</frame>
								<displayformat>NDF</displayformat>
							</timecode>
							<media>
								<video>
									<samplecharacteristics>
										<rate>
											<timebase>24</timebase>
											<ntsc>FALSE</ntsc>
										</rate>
										<width>852</width>
										<height>480</height>
										<anamorphic>FALSE</anamorphic>
										<pixelaspectratio>square</pixelaspectratio>
										<fielddominance>none</fielddominance>
									</samplecharacteristics>
								</video>
								<audio>
									<samplecharacteristics>
										<depth>16</depth>
										<samplerate>44100</samplerate>
									</samplecharacteristics>
									<channelcount>2</channelcount>
								</audio>
							</media>
						</file>
						<filter>
							<effect>
								<name>Basic Motion</name>
								<effectid>basic</effectid>
								<effectcategory>motion</effectcategory>
								<effecttype>motion</effecttype>
								<mediatype>video</mediatype>
								<pproBypass>false</pproBypass>
								<parameter authoringApp="PremierePro">
									<parameterid>scale</parameterid>
									<name>Scale</name>
									<valuemin>0</valuemin>
									<valuemax>1000</valuemax>
									<value>225</value>
								</parameter>
								<parameter authoringApp="PremierePro">
									<parameterid>rotation</parameterid>
									<name>Rotation</name>
									<valuemin>-8640</valuemin>
									<valuemax>8640</valuemax>
									<value>0</value>
								</parameter>
								<parameter authoringApp="PremierePro">
									<parameterid>center</parameterid>
									<name>Center</name>
									<value>
										<horiz>0</horiz>
										<vert>0</vert>
									</value>
								</parameter>
								<parameter authoringApp="PremierePro">
									<parameterid>centerOffset</parameterid>
									<name>Anchor Point</name>
									<value>
										<horiz>0</horiz>
										<vert>0</vert>
									</value>
								</parameter>
								<parameter authoringApp="PremierePro">
									<parameterid>antiflicker</parameterid>
									<name>Anti-flicker Filter</name>
									<valuemin>0.0</valuemin>
									<valuemax>1.0</valuemax>
									<value>0</value>
								</parameter>
							</effect>
						</filter>
						<link>
							<linkclipref>clipitem-88</linkclipref>
							<mediatype>video</mediatype>
							<trackindex>1</trackindex>
							<clipindex>4</clipindex>
						</link>
						<link>
							<linkclipref>clipitem-96</linkclipref>
							<mediatype>audio</mediatype>
							<trackindex>1</trackindex>
							<clipindex>4</clipindex>
							<groupindex>1</groupindex>
						</link>
						<link>
							<linkclipref>clipitem-104</linkclipref>
							<mediatype>audio</mediatype>
							<trackindex>2</trackindex>
							<clipindex>4</clipindex>
							<groupindex>1</groupindex>
						</link>
						<logginginfo>
							<description />
							<scene />
							<shottake />
							<lognote />
							<good />
							<originalvideofilename />
							<originalaudiofilename />
						</logginginfo>
						<colorinfo>
							<lut />
							<lut1 />
							<asc_sop />
							<asc_sat />
							<lut2 />
						</colorinfo>
					<labels><label2>Lavender</label2></labels></clipitem>
					<clipitem id="clipitem-86">
						<masterclipid>clipitem-2-67</masterclipid>
						<name>Taylor_Swift_Shares_The_Story_Of_Calling_Travis_Kelce_For_The_First_Time.mp4</name>
						<enabled>TRUE</enabled>
						<duration>150</duration>
						<rate>
							<timebase>25</timebase>
							<ntsc>FALSE</ntsc>
						</rate>
						<start>82200</start>
						<end>82350</end>
						<in>9900</in>
						<out>10050</out>
						<pproTicksIn>0</pproTicksIn>
						<pproTicksOut>236438092800000</pproTicksOut>
						<alphatype>none</alphatype>
						<pixelaspectratio>square</pixelaspectratio>
						<anamorphic>FALSE</anamorphic>
						<file id="file-30">
							<name>Taylor_Swift_Shares_The_Story_Of_Calling_Travis_Kelce_For_The_First_Time.mp4</name>
							<pathurl>file://localhost/Users/themalikano/Documents/VideoAutomation/premiere_videos/Taylor_Swift_Shares_The_Story_Of_Calling_Travis_Kelce_For_The_First_Time.mp4</pathurl>
							<rate>
								<timebase>30</timebase>
								<ntsc>TRUE</ntsc>
							</rate>
							<duration>27897</duration>
							<timecode>
								<rate>
									<timebase>30</timebase>
									<ntsc>TRUE</ntsc>
								</rate>
								<string>00:00:00:00</string>
								<frame>0</frame>
								<displayformat>NDF</displayformat>
							</timecode>
							<media>
								<video>
									<samplecharacteristics>
										<rate>
											<timebase>30</timebase>
											<ntsc>TRUE</ntsc>
										</rate>
										<width>1920</width>
										<height>1080</height>
										<anamorphic>FALSE</anamorphic>
										<pixelaspectratio>square</pixelaspectratio>
										<fielddominance>none</fielddominance>
									</samplecharacteristics>
								</video>
								<audio>
									<samplecharacteristics>
										<depth>16</depth>
										<samplerate>44100</samplerate>
									</samplecharacteristics>
									<channelcount>2</channelcount>
								</audio>
							</media>
						</file>
						<link>
							<linkclipref>clipitem-86</linkclipref>
							<mediatype>video</mediatype>
							<trackindex>1</trackindex>
							<clipindex>2</clipindex>
						</link>
						<link>
							<linkclipref>clipitem-94</linkclipref>
							<mediatype>audio</mediatype>
							<trackindex>1</trackindex>
							<clipindex>2</clipindex>
							<groupindex>1</groupindex>
						</link>
						<link>
							<linkclipref>clipitem-102</linkclipref>
							<mediatype>audio</mediatype>
							<trackindex>2</trackindex>
							<clipindex>2</clipindex>
							<groupindex>1</groupindex>
						</link>
						<logginginfo>
							<description />
							<scene />
							<shottake />
							<lognote />
							<good />
							<originalvideofilename />
							<originalaudiofilename />
						</logginginfo>
						<colorinfo>
							<lut />
							<lut1 />
							<asc_sop />
							<asc_sat />
							<lut2 />
						</colorinfo>
					<labels><label2>Iris</label2></labels></clipitem>
					<clipitem id="clipitem-88">
						<masterclipid>clipitem-4-206</masterclipid>
						<name>Travis_Kelce_ANNOUNCE_WEDDING_DATE_with_Taylor_Swift_Why_He_was_Delaying_all_Along.mp4</name>
						<enabled>TRUE</enabled>
						<duration>150</duration>
						<rate>
							<timebase>25</timebase>
							<ntsc>FALSE</ntsc>
						</rate>
						<start>82350</start>
						<end>82500</end>
						<in>30750</in>
						<out>30900</out>
						<pproTicksIn>0</pproTicksIn>
						<pproTicksOut>419410897920000</pproTicksOut>
						<alphatype>none</alphatype>
						<pixelaspectratio>square</pixelaspectratio>
						<anamorphic>FALSE</anamorphic>
						<file id="file-32">
							<name>Travis_Kelce_ANNOUNCE_WEDDING_DATE_with_Taylor_Swift_Why_He_was_Delaying_all_Along.mp4</name>
							<pathurl>file://localhost/Users/themalikano/Documents/VideoAutomation/premiere_videos/Travis_Kelce_ANNOUNCE_WEDDING_DATE_with_Taylor_Swift_Why_He_was_Delaying_all_Along.mp4</pathurl>
							<rate>
								<timebase>24</timebase>
								<ntsc>FALSE</ntsc>
							</rate>
							<duration>39627</duration>
							<timecode>
								<rate>
									<timebase>24</timebase>
									<ntsc>FALSE</ntsc>
								</rate>
								<string>00:00:00:00</string>
								<frame>0</frame>
								<displayformat>NDF</displayformat>
							</timecode>
							<media>
								<video>
									<samplecharacteristics>
										<rate>
											<timebase>24</timebase>
											<ntsc>FALSE</ntsc>
										</rate>
										<width>852</width>
										<height>480</height>
										<anamorphic>FALSE</anamorphic>
										<pixelaspectratio>square</pixelaspectratio>
										<fielddominance>none</fielddominance>
									</samplecharacteristics>
								</video>
								<audio>
									<samplecharacteristics>
										<depth>16</depth>
										<samplerate>44100</samplerate>
									</samplecharacteristics>
									<channelcount>2</channelcount>
								</audio>
							</media>
						</file>
						<filter>
							<effect>
								<name>Basic Motion</name>
								<effectid>basic</effectid>
								<effectcategory>motion</effectcategory>
								<effecttype>motion</effecttype>
								<mediatype>video</mediatype>
								<pproBypass>false</pproBypass>
								<parameter authoringApp="PremierePro">
									<parameterid>scale</parameterid>
									<name>Scale</name>
									<valuemin>0</valuemin>
									<valuemax>1000</valuemax>
									<value>225</value>
								</parameter>
								<parameter authoringApp="PremierePro">
									<parameterid>rotation</parameterid>
									<name>Rotation</name>
									<valuemin>-8640</valuemin>
									<valuemax>8640</valuemax>
									<value>0</value>
								</parameter>
								<parameter authoringApp="PremierePro">
									<parameterid>center</parameterid>
									<name>Center</name>
									<value>
										<horiz>0</horiz>
										<vert>0</vert>
									</value>
								</parameter>
								<parameter authoringApp="PremierePro">
									<parameterid>centerOffset</parameterid>
									<name>Anchor Point</name>
									<value>
										<horiz>0</horiz>
										<vert>0</vert>
									</value>
								</parameter>
								<parameter authoringApp="PremierePro">
									<parameterid>antiflicker</parameterid>
									<name>Anti-flicker Filter</name>
									<valuemin>0.0</valuemin>
									<valuemax>1.0</valuemax>
									<value>0</value>
								</parameter>
							</effect>
						</filter>
						<link>
							<linkclipref>clipitem-88</linkclipref>
							<mediatype>video</mediatype>
							<trackindex>1</trackindex>
							<clipindex>4</clipindex>
						</link>
						<link>
							<linkclipref>clipitem-96</linkclipref>
							<mediatype>audio</mediatype>
							<trackindex>1</trackindex>
							<clipindex>4</clipindex>
							<groupindex>1</groupindex>
						</link>
						<link>
							<linkclipref>clipitem-104</linkclipref>
							<mediatype>audio</mediatype>
							<trackindex>2</trackindex>
							<clipindex>4</clipindex>
							<groupindex>1</groupindex>
						</link>
						<logginginfo>
							<description />
							<scene />
							<shottake />
							<lognote />
							<good />
							<originalvideofilename />
							<originalaudiofilename />
						</logginginfo>
						<colorinfo>
							<lut />
							<lut1 />
							<asc_sop />
							<asc_sat />
							<lut2 />
						</colorinfo>
					<labels><label2>Lavender</label2></labels></clipitem>
					<clipitem id="clipitem-86">
						<masterclipid>clipitem-2-20</masterclipid>
						<name>Taylor_Swift_Shares_The_Story_Of_Calling_Travis_Kelce_For_The_First_Time.mp4</name>
						<enabled>TRUE</enabled>
						<duration>150</duration>
						<rate>
							<timebase>25</timebase>
							<ntsc>FALSE</ntsc>
						</rate>
						<start>82500</start>
						<end>82650</end>
						<in>2850</in>
						<out>3000</out>
						<pproTicksIn>0</pproTicksIn>
						<pproTicksOut>236438092800000</pproTicksOut>
						<alphatype>none</alphatype>
						<pixelaspectratio>square</pixelaspectratio>
						<anamorphic>FALSE</anamorphic>
						<file id="file-30">
							<name>Taylor_Swift_Shares_The_Story_Of_Calling_Travis_Kelce_For_The_First_Time.mp4</name>
							<pathurl>file://localhost/Users/themalikano/Documents/VideoAutomation/premiere_videos/Taylor_Swift_Shares_The_Story_Of_Calling_Travis_Kelce_For_The_First_Time.mp4</pathurl>
							<rate>
								<timebase>30</timebase>
								<ntsc>TRUE</ntsc>
							</rate>
							<duration>27897</duration>
							<timecode>
								<rate>
									<timebase>30</timebase>
									<ntsc>TRUE</ntsc>
								</rate>
								<string>00:00:00:00</string>
								<frame>0</frame>
								<displayformat>NDF</displayformat>
							</timecode>
							<media>
								<video>
									<samplecharacteristics>
										<rate>
											<timebase>30</timebase>
											<ntsc>TRUE</ntsc>
										</rate>
										<width>1920</width>
										<height>1080</height>
										<anamorphic>FALSE</anamorphic>
										<pixelaspectratio>square</pixelaspectratio>
										<fielddominance>none</fielddominance>
									</samplecharacteristics>
								</video>
								<audio>
									<samplecharacteristics>
										<depth>16</depth>
										<samplerate>44100</samplerate>
									</samplecharacteristics>
									<channelcount>2</channelcount>
								</audio>
							</media>
						</file>
						<link>
							<linkclipref>clipitem-86</linkclipref>
							<mediatype>video</mediatype>
							<trackindex>1</trackindex>
							<clipindex>2</clipindex>
						</link>
						<link>
							<linkclipref>clipitem-94</linkclipref>
							<mediatype>audio</mediatype>
							<trackindex>1</trackindex>
							<clipindex>2</clipindex>
							<groupindex>1</groupindex>
						</link>
						<link>
							<linkclipref>clipitem-102</linkclipref>
							<mediatype>audio</mediatype>
							<trackindex>2</trackindex>
							<clipindex>2</clipindex>
							<groupindex>1</groupindex>
						</link>
						<logginginfo>
							<description />
							<scene />
							<shottake />
							<lognote />
							<good />
							<originalvideofilename />
							<originalaudiofilename />
						</logginginfo>
						<colorinfo>
							<lut />
							<lut1 />
							<asc_sop />
							<asc_sat />
							<lut2 />
						</colorinfo>
					<labels><label2>Iris</label2></labels></clipitem>
					<clipitem id="clipitem-87">
						<masterclipid>clipitem-3-221</masterclipid>
						<name>Taylor_Swift_Travis_Kelce_-_The_New_Power_Couple.mp4</name>
						<enabled>TRUE</enabled>
						<duration>150</duration>
						<rate>
							<timebase>25</timebase>
							<ntsc>FALSE</ntsc>
						</rate>
						<start>82650</start>
						<end>82800</end>
						<in>33000</in>
						<out>33150</out>
						<pproTicksIn>0</pproTicksIn>
						<pproTicksOut>875013995520000</pproTicksOut>
						<alphatype>none</alphatype>
						<pixelaspectratio>square</pixelaspectratio>
						<anamorphic>FALSE</anamorphic>
						<file id="file-31">
							<name>Taylor_Swift_Travis_Kelce_-_The_New_Power_Couple.mp4</name>
							<pathurl>file://localhost/Users/themalikano/Documents/VideoAutomation/premiere_videos/Taylor_Swift_Travis_Kelce_-_The_New_Power_Couple.mp4</pathurl>
							<rate>
								<timebase>25</timebase>
								<ntsc>FALSE</ntsc>
							</rate>
							<duration>86118</duration>
							<timecode>
								<rate>
									<timebase>25</timebase>
									<ntsc>FALSE</ntsc>
								</rate>
								<string>00:00:00:00</string>
								<frame>0</frame>
								<displayformat>NDF</displayformat>
							</timecode>
							<media>
								<video>
									<samplecharacteristics>
										<rate>
											<timebase>25</timebase>
											<ntsc>FALSE</ntsc>
										</rate>
										<width>1920</width>
										<height>1080</height>
										<anamorphic>FALSE</anamorphic>
										<pixelaspectratio>square</pixelaspectratio>
										<fielddominance>none</fielddominance>
									</samplecharacteristics>
								</video>
								<audio>
									<samplecharacteristics>
										<depth>16</depth>
										<samplerate>44100</samplerate>
									</samplecharacteristics>
									<channelcount>2</channelcount>
								</audio>
							</media>
						</file>
						<link>
							<linkclipref>clipitem-87</linkclipref>
							<mediatype>video</mediatype>
							<trackindex>1</trackindex>
							<clipindex>3</clipindex>
						</link>
						<link>
							<linkclipref>clipitem-95</linkclipref>
							<mediatype>audio</mediatype>
							<trackindex>1</trackindex>
							<clipindex>3</clipindex>
							<groupindex>1</groupindex>
						</link>
						<link>
							<linkclipref>clipitem-103</linkclipref>
							<mediatype>audio</mediatype>
							<trackindex>2</trackindex>
							<clipindex>3</clipindex>
							<groupindex>1</groupindex>
						</link>
						<logginginfo>
							<description />
							<scene />
							<shottake />
							<lognote />
							<good />
							<originalvideofilename />
							<originalaudiofilename />
						</logginginfo>
						<colorinfo>
							<lut />
							<lut1 />
							<asc_sop />
							<asc_sat />
							<lut2 />
						</colorinfo>
					<labels><label2>Caribbean</label2></labels></clipitem>
					<clipitem id="clipitem-86">
						<masterclipid>clipitem-2-57</masterclipid>
						<name>Taylor_Swift_Shares_The_Story_Of_Calling_Travis_Kelce_For_The_First_Time.mp4</name>
						<enabled>TRUE</enabled>
						<duration>150</duration>
						<rate>
							<timebase>25</timebase>
							<ntsc>FALSE</ntsc>
						</rate>
						<start>82800</start>
						<end>82950</end>
						<in>8400</in>
						<out>8550</out>
						<pproTicksIn>0</pproTicksIn>
						<pproTicksOut>236438092800000</pproTicksOut>
						<alphatype>none</alphatype>
						<pixelaspectratio>square</pixelaspectratio>
						<anamorphic>FALSE</anamorphic>
						<file id="file-30">
							<name>Taylor_Swift_Shares_The_Story_Of_Calling_Travis_Kelce_For_The_First_Time.mp4</name>
							<pathurl>file://localhost/Users/themalikano/Documents/VideoAutomation/premiere_videos/Taylor_Swift_Shares_The_Story_Of_Calling_Travis_Kelce_For_The_First_Time.mp4</pathurl>
							<rate>
								<timebase>30</timebase>
								<ntsc>TRUE</ntsc>
							</rate>
							<duration>27897</duration>
							<timecode>
								<rate>
									<timebase>30</timebase>
									<ntsc>TRUE</ntsc>
								</rate>
								<string>00:00:00:00</string>
								<frame>0</frame>
								<displayformat>NDF</displayformat>
							</timecode>
							<media>
								<video>
									<samplecharacteristics>
										<rate>
											<timebase>30</timebase>
											<ntsc>TRUE</ntsc>
										</rate>
										<width>1920</width>
										<height>1080</height>
										<anamorphic>FALSE</anamorphic>
										<pixelaspectratio>square</pixelaspectratio>
										<fielddominance>none</fielddominance>
									</samplecharacteristics>
								</video>
								<audio>
									<samplecharacteristics>
										<depth>16</depth>
										<samplerate>44100</samplerate>
									</samplecharacteristics>
									<channelcount>2</channelcount>
								</audio>
							</media>
						</file>
						<link>
							<linkclipref>clipitem-86</linkclipref>
							<mediatype>video</mediatype>
							<trackindex>1</trackindex>
							<clipindex>2</clipindex>
						</link>
						<link>
							<linkclipref>clipitem-94</linkclipref>
							<mediatype>audio</mediatype>
							<trackindex>1</trackindex>
							<clipindex>2</clipindex>
							<groupindex>1</groupindex>
						</link>
						<link>
							<linkclipref>clipitem-102</linkclipref>
							<mediatype>audio</mediatype>
							<trackindex>2</trackindex>
							<clipindex>2</clipindex>
							<groupindex>1</groupindex>
						</link>
						<logginginfo>
							<description />
							<scene />
							<shottake />
							<lognote />
							<good />
							<originalvideofilename />
							<originalaudiofilename />
						</logginginfo>
						<colorinfo>
							<lut />
							<lut1 />
							<asc_sop />
							<asc_sat />
							<lut2 />
						</colorinfo>
					<labels><label2>Iris</label2></labels></clipitem>
					<clipitem id="clipitem-87">
						<masterclipid>clipitem-3-251</masterclipid>
						<name>Taylor_Swift_Travis_Kelce_-_The_New_Power_Couple.mp4</name>
						<enabled>TRUE</enabled>
						<duration>150</duration>
						<rate>
							<timebase>25</timebase>
							<ntsc>FALSE</ntsc>
						</rate>
						<start>82950</start>
						<end>83100</end>
						<in>37500</in>
						<out>37650</out>
						<pproTicksIn>0</pproTicksIn>
						<pproTicksOut>875013995520000</pproTicksOut>
						<alphatype>none</alphatype>
						<pixelaspectratio>square</pixelaspectratio>
						<anamorphic>FALSE</anamorphic>
						<file id="file-31">
							<name>Taylor_Swift_Travis_Kelce_-_The_New_Power_Couple.mp4</name>
							<pathurl>file://localhost/Users/themalikano/Documents/VideoAutomation/premiere_videos/Taylor_Swift_Travis_Kelce_-_The_New_Power_Couple.mp4</pathurl>
							<rate>
								<timebase>25</timebase>
								<ntsc>FALSE</ntsc>
							</rate>
							<duration>86118</duration>
							<timecode>
								<rate>
									<timebase>25</timebase>
									<ntsc>FALSE</ntsc>
								</rate>
								<string>00:00:00:00</string>
								<frame>0</frame>
								<displayformat>NDF</displayformat>
							</timecode>
							<media>
								<video>
									<samplecharacteristics>
										<rate>
											<timebase>25</timebase>
											<ntsc>FALSE</ntsc>
										</rate>
										<width>1920</width>
										<height>1080</height>
										<anamorphic>FALSE</anamorphic>
										<pixelaspectratio>square</pixelaspectratio>
										<fielddominance>none</fielddominance>
									</samplecharacteristics>
								</video>
								<audio>
									<samplecharacteristics>
										<depth>16</depth>
										<samplerate>44100</samplerate>
									</samplecharacteristics>
									<channelcount>2</channelcount>
								</audio>
							</media>
						</file>
						<link>
							<linkclipref>clipitem-87</linkclipref>
							<mediatype>video</mediatype>
							<trackindex>1</trackindex>
							<clipindex>3</clipindex>
						</link>
						<link>
							<linkclipref>clipitem-95</linkclipref>
							<mediatype>audio</mediatype>
							<trackindex>1</trackindex>
							<clipindex>3</clipindex>
							<groupindex>1</groupindex>
						</link>
						<link>
							<linkclipref>clipitem-103</linkclipref>
							<mediatype>audio</mediatype>
							<trackindex>2</trackindex>
							<clipindex>3</clipindex>
							<groupindex>1</groupindex>
						</link>
						<logginginfo>
							<description />
							<scene />
							<shottake />
							<lognote />
							<good />
							<originalvideofilename />
							<originalaudiofilename />
						</logginginfo>
						<colorinfo>
							<lut />
							<lut1 />
							<asc_sop />
							<asc_sat />
							<lut2 />
						</colorinfo>
					<labels><label2>Caribbean</label2></labels></clipitem>
					<clipitem id="clipitem-88">
						<masterclipid>clipitem-4-84</masterclipid>
						<name>Travis_Kelce_ANNOUNCE_WEDDING_DATE_with_Taylor_Swift_Why_He_was_Delaying_all_Along.mp4</name>
						<enabled>TRUE</enabled>
						<duration>150</duration>
						<rate>
							<timebase>25</timebase>
							<ntsc>FALSE</ntsc>
						</rate>
						<start>83100</start>
						<end>83250</end>
						<in>12450</in>
						<out>12600</out>
						<pproTicksIn>0</pproTicksIn>
						<pproTicksOut>419410897920000</pproTicksOut>
						<alphatype>none</alphatype>
						<pixelaspectratio>square</pixelaspectratio>
						<anamorphic>FALSE</anamorphic>
						<file id="file-32">
							<name>Travis_Kelce_ANNOUNCE_WEDDING_DATE_with_Taylor_Swift_Why_He_was_Delaying_all_Along.mp4</name>
							<pathurl>file://localhost/Users/themalikano/Documents/VideoAutomation/premiere_videos/Travis_Kelce_ANNOUNCE_WEDDING_DATE_with_Taylor_Swift_Why_He_was_Delaying_all_Along.mp4</pathurl>
							<rate>
								<timebase>24</timebase>
								<ntsc>FALSE</ntsc>
							</rate>
							<duration>39627</duration>
							<timecode>
								<rate>
									<timebase>24</timebase>
									<ntsc>FALSE</ntsc>
								</rate>
								<string>00:00:00:00</string>
								<frame>0</frame>
								<displayformat>NDF</displayformat>
							</timecode>
							<media>
								<video>
									<samplecharacteristics>
										<rate>
											<timebase>24</timebase>
											<ntsc>FALSE</ntsc>
										</rate>
										<width>852</width>
										<height>480</height>
										<anamorphic>FALSE</anamorphic>
										<pixelaspectratio>square</pixelaspectratio>
										<fielddominance>none</fielddominance>
									</samplecharacteristics>
								</video>
								<audio>
									<samplecharacteristics>
										<depth>16</depth>
										<samplerate>44100</samplerate>
									</samplecharacteristics>
									<channelcount>2</channelcount>
								</audio>
							</media>
						</file>
						<filter>
							<effect>
								<name>Basic Motion</name>
								<effectid>basic</effectid>
								<effectcategory>motion</effectcategory>
								<effecttype>motion</effecttype>
								<mediatype>video</mediatype>
								<pproBypass>false</pproBypass>
								<parameter authoringApp="PremierePro">
									<parameterid>scale</parameterid>
									<name>Scale</name>
									<valuemin>0</valuemin>
									<valuemax>1000</valuemax>
									<value>225</value>
								</parameter>
								<parameter authoringApp="PremierePro">
									<parameterid>rotation</parameterid>
									<name>Rotation</name>
									<valuemin>-8640</valuemin>
									<valuemax>8640</valuemax>
									<value>0</value>
								</parameter>
								<parameter authoringApp="PremierePro">
									<parameterid>center</parameterid>
									<name>Center</name>
									<value>
										<horiz>0</horiz>
										<vert>0</vert>
									</value>
								</parameter>
								<parameter authoringApp="PremierePro">
									<parameterid>centerOffset</parameterid>
									<name>Anchor Point</name>
									<value>
										<horiz>0</horiz>
										<vert>0</vert>
									</value>
								</parameter>
								<parameter authoringApp="PremierePro">
									<parameterid>antiflicker</parameterid>
									<name>Anti-flicker Filter</name>
									<valuemin>0.0</valuemin>
									<valuemax>1.0</valuemax>
									<value>0</value>
								</parameter>
							</effect>
						</filter>
						<link>
							<linkclipref>clipitem-88</linkclipref>
							<mediatype>video</mediatype>
							<trackindex>1</trackindex>
							<clipindex>4</clipindex>
						</link>
						<link>
							<linkclipref>clipitem-96</linkclipref>
							<mediatype>audio</mediatype>
							<trackindex>1</trackindex>
							<clipindex>4</clipindex>
							<groupindex>1</groupindex>
						</link>
						<link>
							<linkclipref>clipitem-104</linkclipref>
							<mediatype>audio</mediatype>
							<trackindex>2</trackindex>
							<clipindex>4</clipindex>
							<groupindex>1</groupindex>
						</link>
						<logginginfo>
							<description />
							<scene />
							<shottake />
							<lognote />
							<good />
							<originalvideofilename />
							<originalaudiofilename />
						</logginginfo>
						<colorinfo>
							<lut />
							<lut1 />
							<asc_sop />
							<asc_sat />
							<lut2 />
						</colorinfo>
					<labels><label2>Lavender</label2></labels></clipitem>
					<clipitem id="clipitem-87">
						<masterclipid>clipitem-3-254</masterclipid>
						<name>Taylor_Swift_Travis_Kelce_-_The_New_Power_Couple.mp4</name>
						<enabled>TRUE</enabled>
						<duration>150</duration>
						<rate>
							<timebase>25</timebase>
							<ntsc>FALSE</ntsc>
						</rate>
						<start>83250</start>
						<end>83400</end>
						<in>37950</in>
						<out>38100</out>
						<pproTicksIn>0</pproTicksIn>
						<pproTicksOut>875013995520000</pproTicksOut>
						<alphatype>none</alphatype>
						<pixelaspectratio>square</pixelaspectratio>
						<anamorphic>FALSE</anamorphic>
						<file id="file-31">
							<name>Taylor_Swift_Travis_Kelce_-_The_New_Power_Couple.mp4</name>
							<pathurl>file://localhost/Users/themalikano/Documents/VideoAutomation/premiere_videos/Taylor_Swift_Travis_Kelce_-_The_New_Power_Couple.mp4</pathurl>
							<rate>
								<timebase>25</timebase>
								<ntsc>FALSE</ntsc>
							</rate>
							<duration>86118</duration>
							<timecode>
								<rate>
									<timebase>25</timebase>
									<ntsc>FALSE</ntsc>
								</rate>
								<string>00:00:00:00</string>
								<frame>0</frame>
								<displayformat>NDF</displayformat>
							</timecode>
							<media>
								<video>
									<samplecharacteristics>
										<rate>
											<timebase>25</timebase>
											<ntsc>FALSE</ntsc>
										</rate>
										<width>1920</width>
										<height>1080</height>
										<anamorphic>FALSE</anamorphic>
										<pixelaspectratio>square</pixelaspectratio>
										<fielddominance>none</fielddominance>
									</samplecharacteristics>
								</video>
								<audio>
									<samplecharacteristics>
										<depth>16</depth>
										<samplerate>44100</samplerate>
									</samplecharacteristics>
									<channelcount>2</channelcount>
								</audio>
							</media>
						</file>
						<link>
							<linkclipref>clipitem-87</linkclipref>
							<mediatype>video</mediatype>
							<trackindex>1</trackindex>
							<clipindex>3</clipindex>
						</link>
						<link>
							<linkclipref>clipitem-95</linkclipref>
							<mediatype>audio</mediatype>
							<trackindex>1</trackindex>
							<clipindex>3</clipindex>
							<groupindex>1</groupindex>
						</link>
						<link>
							<linkclipref>clipitem-103</linkclipref>
							<mediatype>audio</mediatype>
							<trackindex>2</trackindex>
							<clipindex>3</clipindex>
							<groupindex>1</groupindex>
						</link>
						<logginginfo>
							<description />
							<scene />
							<shottake />
							<lognote />
							<good />
							<originalvideofilename />
							<originalaudiofilename />
						</logginginfo>
						<colorinfo>
							<lut />
							<lut1 />
							<asc_sop />
							<asc_sat />
							<lut2 />
						</colorinfo>
					<labels><label2>Caribbean</label2></labels></clipitem>
					<clipitem id="clipitem-86">
						<masterclipid>clipitem-2-41</masterclipid>
						<name>Taylor_Swift_Shares_The_Story_Of_Calling_Travis_Kelce_For_The_First_Time.mp4</name>
						<enabled>TRUE</enabled>
						<duration>150</duration>
						<rate>
							<timebase>25</timebase>
							<ntsc>FALSE</ntsc>
						</rate>
						<start>83400</start>
						<end>83550</end>
						<in>6000</in>
						<out>6150</out>
						<pproTicksIn>0</pproTicksIn>
						<pproTicksOut>236438092800000</pproTicksOut>
						<alphatype>none</alphatype>
						<pixelaspectratio>square</pixelaspectratio>
						<anamorphic>FALSE</anamorphic>
						<file id="file-30">
							<name>Taylor_Swift_Shares_The_Story_Of_Calling_Travis_Kelce_For_The_First_Time.mp4</name>
							<pathurl>file://localhost/Users/themalikano/Documents/VideoAutomation/premiere_videos/Taylor_Swift_Shares_The_Story_Of_Calling_Travis_Kelce_For_The_First_Time.mp4</pathurl>
							<rate>
								<timebase>30</timebase>
								<ntsc>TRUE</ntsc>
							</rate>
							<duration>27897</duration>
							<timecode>
								<rate>
									<timebase>30</timebase>
									<ntsc>TRUE</ntsc>
								</rate>
								<string>00:00:00:00</string>
								<frame>0</frame>
								<displayformat>NDF</displayformat>
							</timecode>
							<media>
								<video>
									<samplecharacteristics>
										<rate>
											<timebase>30</timebase>
											<ntsc>TRUE</ntsc>
										</rate>
										<width>1920</width>
										<height>1080</height>
										<anamorphic>FALSE</anamorphic>
										<pixelaspectratio>square</pixelaspectratio>
										<fielddominance>none</fielddominance>
									</samplecharacteristics>
								</video>
								<audio>
									<samplecharacteristics>
										<depth>16</depth>
										<samplerate>44100</samplerate>
									</samplecharacteristics>
									<channelcount>2</channelcount>
								</audio>
							</media>
						</file>
						<link>
							<linkclipref>clipitem-86</linkclipref>
							<mediatype>video</mediatype>
							<trackindex>1</trackindex>
							<clipindex>2</clipindex>
						</link>
						<link>
							<linkclipref>clipitem-94</linkclipref>
							<mediatype>audio</mediatype>
							<trackindex>1</trackindex>
							<clipindex>2</clipindex>
							<groupindex>1</groupindex>
						</link>
						<link>
							<linkclipref>clipitem-102</linkclipref>
							<mediatype>audio</mediatype>
							<trackindex>2</trackindex>
							<clipindex>2</clipindex>
							<groupindex>1</groupindex>
						</link>
						<logginginfo>
							<description />
							<scene />
							<shottake />
							<lognote />
							<good />
							<originalvideofilename />
							<originalaudiofilename />
						</logginginfo>
						<colorinfo>
							<lut />
							<lut1 />
							<asc_sop />
							<asc_sat />
							<lut2 />
						</colorinfo>
					<labels><label2>Iris</label2></labels></clipitem>
					<clipitem id="clipitem-88">
						<masterclipid>clipitem-4-96</masterclipid>
						<name>Travis_Kelce_ANNOUNCE_WEDDING_DATE_with_Taylor_Swift_Why_He_was_Delaying_all_Along.mp4</name>
						<enabled>TRUE</enabled>
						<duration>150</duration>
						<rate>
							<timebase>25</timebase>
							<ntsc>FALSE</ntsc>
						</rate>
						<start>83550</start>
						<end>83700</end>
						<in>14250</in>
						<out>14400</out>
						<pproTicksIn>0</pproTicksIn>
						<pproTicksOut>419410897920000</pproTicksOut>
						<alphatype>none</alphatype>
						<pixelaspectratio>square</pixelaspectratio>
						<anamorphic>FALSE</anamorphic>
						<file id="file-32">
							<name>Travis_Kelce_ANNOUNCE_WEDDING_DATE_with_Taylor_Swift_Why_He_was_Delaying_all_Along.mp4</name>
							<pathurl>file://localhost/Users/themalikano/Documents/VideoAutomation/premiere_videos/Travis_Kelce_ANNOUNCE_WEDDING_DATE_with_Taylor_Swift_Why_He_was_Delaying_all_Along.mp4</pathurl>
							<rate>
								<timebase>24</timebase>
								<ntsc>FALSE</ntsc>
							</rate>
							<duration>39627</duration>
							<timecode>
								<rate>
									<timebase>24</timebase>
									<ntsc>FALSE</ntsc>
								</rate>
								<string>00:00:00:00</string>
								<frame>0</frame>
								<displayformat>NDF</displayformat>
							</timecode>
							<media>
								<video>
									<samplecharacteristics>
										<rate>
											<timebase>24</timebase>
											<ntsc>FALSE</ntsc>
										</rate>
										<width>852</width>
										<height>480</height>
										<anamorphic>FALSE</anamorphic>
										<pixelaspectratio>square</pixelaspectratio>
										<fielddominance>none</fielddominance>
									</samplecharacteristics>
								</video>
								<audio>
									<samplecharacteristics>
										<depth>16</depth>
										<samplerate>44100</samplerate>
									</samplecharacteristics>
									<channelcount>2</channelcount>
								</audio>
							</media>
						</file>
						<filter>
							<effect>
								<name>Basic Motion</name>
								<effectid>basic</effectid>
								<effectcategory>motion</effectcategory>
								<effecttype>motion</effecttype>
								<mediatype>video</mediatype>
								<pproBypass>false</pproBypass>
								<parameter authoringApp="PremierePro">
									<parameterid>scale</parameterid>
									<name>Scale</name>
									<valuemin>0</valuemin>
									<valuemax>1000</valuemax>
									<value>225</value>
								</parameter>
								<parameter authoringApp="PremierePro">
									<parameterid>rotation</parameterid>
									<name>Rotation</name>
									<valuemin>-8640</valuemin>
									<valuemax>8640</valuemax>
									<value>0</value>
								</parameter>
								<parameter authoringApp="PremierePro">
									<parameterid>center</parameterid>
									<name>Center</name>
									<value>
										<horiz>0</horiz>
										<vert>0</vert>
									</value>
								</parameter>
								<parameter authoringApp="PremierePro">
									<parameterid>centerOffset</parameterid>
									<name>Anchor Point</name>
									<value>
										<horiz>0</horiz>
										<vert>0</vert>
									</value>
								</parameter>
								<parameter authoringApp="PremierePro">
									<parameterid>antiflicker</parameterid>
									<name>Anti-flicker Filter</name>
									<valuemin>0.0</valuemin>
									<valuemax>1.0</valuemax>
									<value>0</value>
								</parameter>
							</effect>
						</filter>
						<link>
							<linkclipref>clipitem-88</linkclipref>
							<mediatype>video</mediatype>
							<trackindex>1</trackindex>
							<clipindex>4</clipindex>
						</link>
						<link>
							<linkclipref>clipitem-96</linkclipref>
							<mediatype>audio</mediatype>
							<trackindex>1</trackindex>
							<clipindex>4</clipindex>
							<groupindex>1</groupindex>
						</link>
						<link>
							<linkclipref>clipitem-104</linkclipref>
							<mediatype>audio</mediatype>
							<trackindex>2</trackindex>
							<clipindex>4</clipindex>
							<groupindex>1</groupindex>
						</link>
						<logginginfo>
							<description />
							<scene />
							<shottake />
							<lognote />
							<good />
							<originalvideofilename />
							<originalaudiofilename />
						</logginginfo>
						<colorinfo>
							<lut />
							<lut1 />
							<asc_sop />
							<asc_sat />
							<lut2 />
						</colorinfo>
					<labels><label2>Lavender</label2></labels></clipitem>
					<clipitem id="clipitem-87">
						<masterclipid>clipitem-3-548</masterclipid>
						<name>Taylor_Swift_Travis_Kelce_-_The_New_Power_Couple.mp4</name>
						<enabled>TRUE</enabled>
						<duration>150</duration>
						<rate>
							<timebase>25</timebase>
							<ntsc>FALSE</ntsc>
						</rate>
						<start>83700</start>
						<end>83850</end>
						<in>82050</in>
						<out>82200</out>
						<pproTicksIn>0</pproTicksIn>
						<pproTicksOut>875013995520000</pproTicksOut>
						<alphatype>none</alphatype>
						<pixelaspectratio>square</pixelaspectratio>
						<anamorphic>FALSE</anamorphic>
						<file id="file-31">
							<name>Taylor_Swift_Travis_Kelce_-_The_New_Power_Couple.mp4</name>
							<pathurl>file://localhost/Users/themalikano/Documents/VideoAutomation/premiere_videos/Taylor_Swift_Travis_Kelce_-_The_New_Power_Couple.mp4</pathurl>
							<rate>
								<timebase>25</timebase>
								<ntsc>FALSE</ntsc>
							</rate>
							<duration>86118</duration>
							<timecode>
								<rate>
									<timebase>25</timebase>
									<ntsc>FALSE</ntsc>
								</rate>
								<string>00:00:00:00</string>
								<frame>0</frame>
								<displayformat>NDF</displayformat>
							</timecode>
							<media>
								<video>
									<samplecharacteristics>
										<rate>
											<timebase>25</timebase>
											<ntsc>FALSE</ntsc>
										</rate>
										<width>1920</width>
										<height>1080</height>
										<anamorphic>FALSE</anamorphic>
										<pixelaspectratio>square</pixelaspectratio>
										<fielddominance>none</fielddominance>
									</samplecharacteristics>
								</video>
								<audio>
									<samplecharacteristics>
										<depth>16</depth>
										<samplerate>44100</samplerate>
									</samplecharacteristics>
									<channelcount>2</channelcount>
								</audio>
							</media>
						</file>
						<link>
							<linkclipref>clipitem-87</linkclipref>
							<mediatype>video</mediatype>
							<trackindex>1</trackindex>
							<clipindex>3</clipindex>
						</link>
						<link>
							<linkclipref>clipitem-95</linkclipref>
							<mediatype>audio</mediatype>
							<trackindex>1</trackindex>
							<clipindex>3</clipindex>
							<groupindex>1</groupindex>
						</link>
						<link>
							<linkclipref>clipitem-103</linkclipref>
							<mediatype>audio</mediatype>
							<trackindex>2</trackindex>
							<clipindex>3</clipindex>
							<groupindex>1</groupindex>
						</link>
						<logginginfo>
							<description />
							<scene />
							<shottake />
							<lognote />
							<good />
							<originalvideofilename />
							<originalaudiofilename />
						</logginginfo>
						<colorinfo>
							<lut />
							<lut1 />
							<asc_sop />
							<asc_sat />
							<lut2 />
						</colorinfo>
					<labels><label2>Caribbean</label2></labels></clipitem>
					<clipitem id="clipitem-88">
						<masterclipid>clipitem-4-86</masterclipid>
						<name>Travis_Kelce_ANNOUNCE_WEDDING_DATE_with_Taylor_Swift_Why_He_was_Delaying_all_Along.mp4</name>
						<enabled>TRUE</enabled>
						<duration>150</duration>
						<rate>
							<timebase>25</timebase>
							<ntsc>FALSE</ntsc>
						</rate>
						<start>83850</start>
						<end>84000</end>
						<in>12750</in>
						<out>12900</out>
						<pproTicksIn>0</pproTicksIn>
						<pproTicksOut>419410897920000</pproTicksOut>
						<alphatype>none</alphatype>
						<pixelaspectratio>square</pixelaspectratio>
						<anamorphic>FALSE</anamorphic>
						<file id="file-32">
							<name>Travis_Kelce_ANNOUNCE_WEDDING_DATE_with_Taylor_Swift_Why_He_was_Delaying_all_Along.mp4</name>
							<pathurl>file://localhost/Users/themalikano/Documents/VideoAutomation/premiere_videos/Travis_Kelce_ANNOUNCE_WEDDING_DATE_with_Taylor_Swift_Why_He_was_Delaying_all_Along.mp4</pathurl>
							<rate>
								<timebase>24</timebase>
								<ntsc>FALSE</ntsc>
							</rate>
							<duration>39627</duration>
							<timecode>
								<rate>
									<timebase>24</timebase>
									<ntsc>FALSE</ntsc>
								</rate>
								<string>00:00:00:00</string>
								<frame>0</frame>
								<displayformat>NDF</displayformat>
							</timecode>
							<media>
								<video>
									<samplecharacteristics>
										<rate>
											<timebase>24</timebase>
											<ntsc>FALSE</ntsc>
										</rate>
										<width>852</width>
										<height>480</height>
										<anamorphic>FALSE</anamorphic>
										<pixelaspectratio>square</pixelaspectratio>
										<fielddominance>none</fielddominance>
									</samplecharacteristics>
								</video>
								<audio>
									<samplecharacteristics>
										<depth>16</depth>
										<samplerate>44100</samplerate>
									</samplecharacteristics>
									<channelcount>2</channelcount>
								</audio>
							</media>
						</file>
						<filter>
							<effect>
								<name>Basic Motion</name>
								<effectid>basic</effectid>
								<effectcategory>motion</effectcategory>
								<effecttype>motion</effecttype>
								<mediatype>video</mediatype>
								<pproBypass>false</pproBypass>
								<parameter authoringApp="PremierePro">
									<parameterid>scale</parameterid>
									<name>Scale</name>
									<valuemin>0</valuemin>
									<valuemax>1000</valuemax>
									<value>225</value>
								</parameter>
								<parameter authoringApp="PremierePro">
									<parameterid>rotation</parameterid>
									<name>Rotation</name>
									<valuemin>-8640</valuemin>
									<valuemax>8640</valuemax>
									<value>0</value>
								</parameter>
								<parameter authoringApp="PremierePro">
									<parameterid>center</parameterid>
									<name>Center</name>
									<value>
										<horiz>0</horiz>
										<vert>0</vert>
									</value>
								</parameter>
								<parameter authoringApp="PremierePro">
									<parameterid>centerOffset</parameterid>
									<name>Anchor Point</name>
									<value>
										<horiz>0</horiz>
										<vert>0</vert>
									</value>
								</parameter>
								<parameter authoringApp="PremierePro">
									<parameterid>antiflicker</parameterid>
									<name>Anti-flicker Filter</name>
									<valuemin>0.0</valuemin>
									<valuemax>1.0</valuemax>
									<value>0</value>
								</parameter>
							</effect>
						</filter>
						<link>
							<linkclipref>clipitem-88</linkclipref>
							<mediatype>video</mediatype>
							<trackindex>1</trackindex>
							<clipindex>4</clipindex>
						</link>
						<link>
							<linkclipref>clipitem-96</linkclipref>
							<mediatype>audio</mediatype>
							<trackindex>1</trackindex>
							<clipindex>4</clipindex>
							<groupindex>1</groupindex>
						</link>
						<link>
							<linkclipref>clipitem-104</linkclipref>
							<mediatype>audio</mediatype>
							<trackindex>2</trackindex>
							<clipindex>4</clipindex>
							<groupindex>1</groupindex>
						</link>
						<logginginfo>
							<description />
							<scene />
							<shottake />
							<lognote />
							<good />
							<originalvideofilename />
							<originalaudiofilename />
						</logginginfo>
						<colorinfo>
							<lut />
							<lut1 />
							<asc_sop />
							<asc_sat />
							<lut2 />
						</colorinfo>
					<labels><label2>Lavender</label2></labels></clipitem>
					<clipitem id="clipitem-87">
						<masterclipid>clipitem-3-561</masterclipid>
						<name>Taylor_Swift_Travis_Kelce_-_The_New_Power_Couple.mp4</name>
						<enabled>TRUE</enabled>
						<duration>150</duration>
						<rate>
							<timebase>25</timebase>
							<ntsc>FALSE</ntsc>
						</rate>
						<start>84000</start>
						<end>84150</end>
						<in>84000</in>
						<out>84150</out>
						<pproTicksIn>0</pproTicksIn>
						<pproTicksOut>875013995520000</pproTicksOut>
						<alphatype>none</alphatype>
						<pixelaspectratio>square</pixelaspectratio>
						<anamorphic>FALSE</anamorphic>
						<file id="file-31">
							<name>Taylor_Swift_Travis_Kelce_-_The_New_Power_Couple.mp4</name>
							<pathurl>file://localhost/Users/themalikano/Documents/VideoAutomation/premiere_videos/Taylor_Swift_Travis_Kelce_-_The_New_Power_Couple.mp4</pathurl>
							<rate>
								<timebase>25</timebase>
								<ntsc>FALSE</ntsc>
							</rate>
							<duration>86118</duration>
							<timecode>
								<rate>
									<timebase>25</timebase>
									<ntsc>FALSE</ntsc>
								</rate>
								<string>00:00:00:00</string>
								<frame>0</frame>
								<displayformat>NDF</displayformat>
							</timecode>
							<media>
								<video>
									<samplecharacteristics>
										<rate>
											<timebase>25</timebase>
											<ntsc>FALSE</ntsc>
										</rate>
										<width>1920</width>
										<height>1080</height>
										<anamorphic>FALSE</anamorphic>
										<pixelaspectratio>square</pixelaspectratio>
										<fielddominance>none</fielddominance>
									</samplecharacteristics>
								</video>
								<audio>
									<samplecharacteristics>
										<depth>16</depth>
										<samplerate>44100</samplerate>
									</samplecharacteristics>
									<channelcount>2</channelcount>
								</audio>
							</media>
						</file>
						<link>
							<linkclipref>clipitem-87</linkclipref>
							<mediatype>video</mediatype>
							<trackindex>1</trackindex>
							<clipindex>3</clipindex>
						</link>
						<link>
							<linkclipref>clipitem-95</linkclipref>
							<mediatype>audio</mediatype>
							<trackindex>1</trackindex>
							<clipindex>3</clipindex>
							<groupindex>1</groupindex>
						</link>
						<link>
							<linkclipref>clipitem-103</linkclipref>
							<mediatype>audio</mediatype>
							<trackindex>2</trackindex>
							<clipindex>3</clipindex>
							<groupindex>1</groupindex>
						</link>
						<logginginfo>
							<description />
							<scene />
							<shottake />
							<lognote />
							<good />
							<originalvideofilename />
							<originalaudiofilename />
						</logginginfo>
						<colorinfo>
							<lut />
							<lut1 />
							<asc_sop />
							<asc_sat />
							<lut2 />
						</colorinfo>
					<labels><label2>Caribbean</label2></labels></clipitem>
					<clipitem id="clipitem-86">
						<masterclipid>clipitem-2-52</masterclipid>
						<name>Taylor_Swift_Shares_The_Story_Of_Calling_Travis_Kelce_For_The_First_Time.mp4</name>
						<enabled>TRUE</enabled>
						<duration>150</duration>
						<rate>
							<timebase>25</timebase>
							<ntsc>FALSE</ntsc>
						</rate>
						<start>84150</start>
						<end>84300</end>
						<in>7650</in>
						<out>7800</out>
						<pproTicksIn>0</pproTicksIn>
						<pproTicksOut>236438092800000</pproTicksOut>
						<alphatype>none</alphatype>
						<pixelaspectratio>square</pixelaspectratio>
						<anamorphic>FALSE</anamorphic>
						<file id="file-30">
							<name>Taylor_Swift_Shares_The_Story_Of_Calling_Travis_Kelce_For_The_First_Time.mp4</name>
							<pathurl>file://localhost/Users/themalikano/Documents/VideoAutomation/premiere_videos/Taylor_Swift_Shares_The_Story_Of_Calling_Travis_Kelce_For_The_First_Time.mp4</pathurl>
							<rate>
								<timebase>30</timebase>
								<ntsc>TRUE</ntsc>
							</rate>
							<duration>27897</duration>
							<timecode>
								<rate>
									<timebase>30</timebase>
									<ntsc>TRUE</ntsc>
								</rate>
								<string>00:00:00:00</string>
								<frame>0</frame>
								<displayformat>NDF</displayformat>
							</timecode>
							<media>
								<video>
									<samplecharacteristics>
										<rate>
											<timebase>30</timebase>
											<ntsc>TRUE</ntsc>
										</rate>
										<width>1920</width>
										<height>1080</height>
										<anamorphic>FALSE</anamorphic>
										<pixelaspectratio>square</pixelaspectratio>
										<fielddominance>none</fielddominance>
									</samplecharacteristics>
								</video>
								<audio>
									<samplecharacteristics>
										<depth>16</depth>
										<samplerate>44100</samplerate>
									</samplecharacteristics>
									<channelcount>2</channelcount>
								</audio>
							</media>
						</file>
						<link>
							<linkclipref>clipitem-86</linkclipref>
							<mediatype>video</mediatype>
							<trackindex>1</trackindex>
							<clipindex>2</clipindex>
						</link>
						<link>
							<linkclipref>clipitem-94</linkclipref>
							<mediatype>audio</mediatype>
							<trackindex>1</trackindex>
							<clipindex>2</clipindex>
							<groupindex>1</groupindex>
						</link>
						<link>
							<linkclipref>clipitem-102</linkclipref>
							<mediatype>audio</mediatype>
							<trackindex>2</trackindex>
							<clipindex>2</clipindex>
							<groupindex>1</groupindex>
						</link>
						<logginginfo>
							<description />
							<scene />
							<shottake />
							<lognote />
							<good />
							<originalvideofilename />
							<originalaudiofilename />
						</logginginfo>
						<colorinfo>
							<lut />
							<lut1 />
							<asc_sop />
							<asc_sat />
							<lut2 />
						</colorinfo>
					<labels><label2>Iris</label2></labels></clipitem>
					<clipitem id="clipitem-87">
						<masterclipid>clipitem-3-351</masterclipid>
						<name>Taylor_Swift_Travis_Kelce_-_The_New_Power_Couple.mp4</name>
						<enabled>TRUE</enabled>
						<duration>150</duration>
						<rate>
							<timebase>25</timebase>
							<ntsc>FALSE</ntsc>
						</rate>
						<start>84300</start>
						<end>84450</end>
						<in>52500</in>
						<out>52650</out>
						<pproTicksIn>0</pproTicksIn>
						<pproTicksOut>875013995520000</pproTicksOut>
						<alphatype>none</alphatype>
						<pixelaspectratio>square</pixelaspectratio>
						<anamorphic>FALSE</anamorphic>
						<file id="file-31">
							<name>Taylor_Swift_Travis_Kelce_-_The_New_Power_Couple.mp4</name>
							<pathurl>file://localhost/Users/themalikano/Documents/VideoAutomation/premiere_videos/Taylor_Swift_Travis_Kelce_-_The_New_Power_Couple.mp4</pathurl>
							<rate>
								<timebase>25</timebase>
								<ntsc>FALSE</ntsc>
							</rate>
							<duration>86118</duration>
							<timecode>
								<rate>
									<timebase>25</timebase>
									<ntsc>FALSE</ntsc>
								</rate>
								<string>00:00:00:00</string>
								<frame>0</frame>
								<displayformat>NDF</displayformat>
							</timecode>
							<media>
								<video>
									<samplecharacteristics>
										<rate>
											<timebase>25</timebase>
											<ntsc>FALSE</ntsc>
										</rate>
										<width>1920</width>
										<height>1080</height>
										<anamorphic>FALSE</anamorphic>
										<pixelaspectratio>square</pixelaspectratio>
										<fielddominance>none</fielddominance>
									</samplecharacteristics>
								</video>
								<audio>
									<samplecharacteristics>
										<depth>16</depth>
										<samplerate>44100</samplerate>
									</samplecharacteristics>
									<channelcount>2</channelcount>
								</audio>
							</media>
						</file>
						<link>
							<linkclipref>clipitem-87</linkclipref>
							<mediatype>video</mediatype>
							<trackindex>1</trackindex>
							<clipindex>3</clipindex>
						</link>
						<link>
							<linkclipref>clipitem-95</linkclipref>
							<mediatype>audio</mediatype>
							<trackindex>1</trackindex>
							<clipindex>3</clipindex>
							<groupindex>1</groupindex>
						</link>
						<link>
							<linkclipref>clipitem-103</linkclipref>
							<mediatype>audio</mediatype>
							<trackindex>2</trackindex>
							<clipindex>3</clipindex>
							<groupindex>1</groupindex>
						</link>
						<logginginfo>
							<description />
							<scene />
							<shottake />
							<lognote />
							<good />
							<originalvideofilename />
							<originalaudiofilename />
						</logginginfo>
						<colorinfo>
							<lut />
							<lut1 />
							<asc_sop />
							<asc_sat />
							<lut2 />
						</colorinfo>
					<labels><label2>Caribbean</label2></labels></clipitem>
					<clipitem id="clipitem-88">
						<masterclipid>clipitem-4-106</masterclipid>
						<name>Travis_Kelce_ANNOUNCE_WEDDING_DATE_with_Taylor_Swift_Why_He_was_Delaying_all_Along.mp4</name>
						<enabled>TRUE</enabled>
						<duration>150</duration>
						<rate>
							<timebase>25</timebase>
							<ntsc>FALSE</ntsc>
						</rate>
						<start>84450</start>
						<end>84600</end>
						<in>15750</in>
						<out>15900</out>
						<pproTicksIn>0</pproTicksIn>
						<pproTicksOut>419410897920000</pproTicksOut>
						<alphatype>none</alphatype>
						<pixelaspectratio>square</pixelaspectratio>
						<anamorphic>FALSE</anamorphic>
						<file id="file-32">
							<name>Travis_Kelce_ANNOUNCE_WEDDING_DATE_with_Taylor_Swift_Why_He_was_Delaying_all_Along.mp4</name>
							<pathurl>file://localhost/Users/themalikano/Documents/VideoAutomation/premiere_videos/Travis_Kelce_ANNOUNCE_WEDDING_DATE_with_Taylor_Swift_Why_He_was_Delaying_all_Along.mp4</pathurl>
							<rate>
								<timebase>24</timebase>
								<ntsc>FALSE</ntsc>
							</rate>
							<duration>39627</duration>
							<timecode>
								<rate>
									<timebase>24</timebase>
									<ntsc>FALSE</ntsc>
								</rate>
								<string>00:00:00:00</string>
								<frame>0</frame>
								<displayformat>NDF</displayformat>
							</timecode>
							<media>
								<video>
									<samplecharacteristics>
										<rate>
											<timebase>24</timebase>
											<ntsc>FALSE</ntsc>
										</rate>
										<width>852</width>
										<height>480</height>
										<anamorphic>FALSE</anamorphic>
										<pixelaspectratio>square</pixelaspectratio>
										<fielddominance>none</fielddominance>
									</samplecharacteristics>
								</video>
								<audio>
									<samplecharacteristics>
										<depth>16</depth>
										<samplerate>44100</samplerate>
									</samplecharacteristics>
									<channelcount>2</channelcount>
								</audio>
							</media>
						</file>
						<filter>
							<effect>
								<name>Basic Motion</name>
								<effectid>basic</effectid>
								<effectcategory>motion</effectcategory>
								<effecttype>motion</effecttype>
								<mediatype>video</mediatype>
								<pproBypass>false</pproBypass>
								<parameter authoringApp="PremierePro">
									<parameterid>scale</parameterid>
									<name>Scale</name>
									<valuemin>0</valuemin>
									<valuemax>1000</valuemax>
									<value>225</value>
								</parameter>
								<parameter authoringApp="PremierePro">
									<parameterid>rotation</parameterid>
									<name>Rotation</name>
									<valuemin>-8640</valuemin>
									<valuemax>8640</valuemax>
									<value>0</value>
								</parameter>
								<parameter authoringApp="PremierePro">
									<parameterid>center</parameterid>
									<name>Center</name>
									<value>
										<horiz>0</horiz>
										<vert>0</vert>
									</value>
								</parameter>
								<parameter authoringApp="PremierePro">
									<parameterid>centerOffset</parameterid>
									<name>Anchor Point</name>
									<value>
										<horiz>0</horiz>
										<vert>0</vert>
									</value>
								</parameter>
								<parameter authoringApp="PremierePro">
									<parameterid>antiflicker</parameterid>
									<name>Anti-flicker Filter</name>
									<valuemin>0.0</valuemin>
									<valuemax>1.0</valuemax>
									<value>0</value>
								</parameter>
							</effect>
						</filter>
						<link>
							<linkclipref>clipitem-88</linkclipref>
							<mediatype>video</mediatype>
							<trackindex>1</trackindex>
							<clipindex>4</clipindex>
						</link>
						<link>
							<linkclipref>clipitem-96</linkclipref>
							<mediatype>audio</mediatype>
							<trackindex>1</trackindex>
							<clipindex>4</clipindex>
							<groupindex>1</groupindex>
						</link>
						<link>
							<linkclipref>clipitem-104</linkclipref>
							<mediatype>audio</mediatype>
							<trackindex>2</trackindex>
							<clipindex>4</clipindex>
							<groupindex>1</groupindex>
						</link>
						<logginginfo>
							<description />
							<scene />
							<shottake />
							<lognote />
							<good />
							<originalvideofilename />
							<originalaudiofilename />
						</logginginfo>
						<colorinfo>
							<lut />
							<lut1 />
							<asc_sop />
							<asc_sat />
							<lut2 />
						</colorinfo>
					<labels><label2>Lavender</label2></labels></clipitem>
					<clipitem id="clipitem-86">
						<masterclipid>clipitem-2-12</masterclipid>
						<name>Taylor_Swift_Shares_The_Story_Of_Calling_Travis_Kelce_For_The_First_Time.mp4</name>
						<enabled>TRUE</enabled>
						<duration>150</duration>
						<rate>
							<timebase>25</timebase>
							<ntsc>FALSE</ntsc>
						</rate>
						<start>84600</start>
						<end>84750</end>
						<in>1650</in>
						<out>1800</out>
						<pproTicksIn>0</pproTicksIn>
						<pproTicksOut>236438092800000</pproTicksOut>
						<alphatype>none</alphatype>
						<pixelaspectratio>square</pixelaspectratio>
						<anamorphic>FALSE</anamorphic>
						<file id="file-30">
							<name>Taylor_Swift_Shares_The_Story_Of_Calling_Travis_Kelce_For_The_First_Time.mp4</name>
							<pathurl>file://localhost/Users/themalikano/Documents/VideoAutomation/premiere_videos/Taylor_Swift_Shares_The_Story_Of_Calling_Travis_Kelce_For_The_First_Time.mp4</pathurl>
							<rate>
								<timebase>30</timebase>
								<ntsc>TRUE</ntsc>
							</rate>
							<duration>27897</duration>
							<timecode>
								<rate>
									<timebase>30</timebase>
									<ntsc>TRUE</ntsc>
								</rate>
								<string>00:00:00:00</string>
								<frame>0</frame>
								<displayformat>NDF</displayformat>
							</timecode>
							<media>
								<video>
									<samplecharacteristics>
										<rate>
											<timebase>30</timebase>
											<ntsc>TRUE</ntsc>
										</rate>
										<width>1920</width>
										<height>1080</height>
										<anamorphic>FALSE</anamorphic>
										<pixelaspectratio>square</pixelaspectratio>
										<fielddominance>none</fielddominance>
									</samplecharacteristics>
								</video>
								<audio>
									<samplecharacteristics>
										<depth>16</depth>
										<samplerate>44100</samplerate>
									</samplecharacteristics>
									<channelcount>2</channelcount>
								</audio>
							</media>
						</file>
						<link>
							<linkclipref>clipitem-86</linkclipref>
							<mediatype>video</mediatype>
							<trackindex>1</trackindex>
							<clipindex>2</clipindex>
						</link>
						<link>
							<linkclipref>clipitem-94</linkclipref>
							<mediatype>audio</mediatype>
							<trackindex>1</trackindex>
							<clipindex>2</clipindex>
							<groupindex>1</groupindex>
						</link>
						<link>
							<linkclipref>clipitem-102</linkclipref>
							<mediatype>audio</mediatype>
							<trackindex>2</trackindex>
							<clipindex>2</clipindex>
							<groupindex>1</groupindex>
						</link>
						<logginginfo>
							<description />
							<scene />
							<shottake />
							<lognote />
							<good />
							<originalvideofilename />
							<originalaudiofilename />
						</logginginfo>
						<colorinfo>
							<lut />
							<lut1 />
							<asc_sop />
							<asc_sat />
							<lut2 />
						</colorinfo>
					<labels><label2>Iris</label2></labels></clipitem>
					<clipitem id="clipitem-88">
						<masterclipid>clipitem-4-47</masterclipid>
						<name>Travis_Kelce_ANNOUNCE_WEDDING_DATE_with_Taylor_Swift_Why_He_was_Delaying_all_Along.mp4</name>
						<enabled>TRUE</enabled>
						<duration>150</duration>
						<rate>
							<timebase>25</timebase>
							<ntsc>FALSE</ntsc>
						</rate>
						<start>84750</start>
						<end>84900</end>
						<in>6900</in>
						<out>7050</out>
						<pproTicksIn>0</pproTicksIn>
						<pproTicksOut>419410897920000</pproTicksOut>
						<alphatype>none</alphatype>
						<pixelaspectratio>square</pixelaspectratio>
						<anamorphic>FALSE</anamorphic>
						<file id="file-32">
							<name>Travis_Kelce_ANNOUNCE_WEDDING_DATE_with_Taylor_Swift_Why_He_was_Delaying_all_Along.mp4</name>
							<pathurl>file://localhost/Users/themalikano/Documents/VideoAutomation/premiere_videos/Travis_Kelce_ANNOUNCE_WEDDING_DATE_with_Taylor_Swift_Why_He_was_Delaying_all_Along.mp4</pathurl>
							<rate>
								<timebase>24</timebase>
								<ntsc>FALSE</ntsc>
							</rate>
							<duration>39627</duration>
							<timecode>
								<rate>
									<timebase>24</timebase>
									<ntsc>FALSE</ntsc>
								</rate>
								<string>00:00:00:00</string>
								<frame>0</frame>
								<displayformat>NDF</displayformat>
							</timecode>
							<media>
								<video>
									<samplecharacteristics>
										<rate>
											<timebase>24</timebase>
											<ntsc>FALSE</ntsc>
										</rate>
										<width>852</width>
										<height>480</height>
										<anamorphic>FALSE</anamorphic>
										<pixelaspectratio>square</pixelaspectratio>
										<fielddominance>none</fielddominance>
									</samplecharacteristics>
								</video>
								<audio>
									<samplecharacteristics>
										<depth>16</depth>
										<samplerate>44100</samplerate>
									</samplecharacteristics>
									<channelcount>2</channelcount>
								</audio>
							</media>
						</file>
						<filter>
							<effect>
								<name>Basic Motion</name>
								<effectid>basic</effectid>
								<effectcategory>motion</effectcategory>
								<effecttype>motion</effecttype>
								<mediatype>video</mediatype>
								<pproBypass>false</pproBypass>
								<parameter authoringApp="PremierePro">
									<parameterid>scale</parameterid>
									<name>Scale</name>
									<valuemin>0</valuemin>
									<valuemax>1000</valuemax>
									<value>225</value>
								</parameter>
								<parameter authoringApp="PremierePro">
									<parameterid>rotation</parameterid>
									<name>Rotation</name>
									<valuemin>-8640</valuemin>
									<valuemax>8640</valuemax>
									<value>0</value>
								</parameter>
								<parameter authoringApp="PremierePro">
									<parameterid>center</parameterid>
									<name>Center</name>
									<value>
										<horiz>0</horiz>
										<vert>0</vert>
									</value>
								</parameter>
								<parameter authoringApp="PremierePro">
									<parameterid>centerOffset</parameterid>
									<name>Anchor Point</name>
									<value>
										<horiz>0</horiz>
										<vert>0</vert>
									</value>
								</parameter>
								<parameter authoringApp="PremierePro">
									<parameterid>antiflicker</parameterid>
									<name>Anti-flicker Filter</name>
									<valuemin>0.0</valuemin>
									<valuemax>1.0</valuemax>
									<value>0</value>
								</parameter>
							</effect>
						</filter>
						<link>
							<linkclipref>clipitem-88</linkclipref>
							<mediatype>video</mediatype>
							<trackindex>1</trackindex>
							<clipindex>4</clipindex>
						</link>
						<link>
							<linkclipref>clipitem-96</linkclipref>
							<mediatype>audio</mediatype>
							<trackindex>1</trackindex>
							<clipindex>4</clipindex>
							<groupindex>1</groupindex>
						</link>
						<link>
							<linkclipref>clipitem-104</linkclipref>
							<mediatype>audio</mediatype>
							<trackindex>2</trackindex>
							<clipindex>4</clipindex>
							<groupindex>1</groupindex>
						</link>
						<logginginfo>
							<description />
							<scene />
							<shottake />
							<lognote />
							<good />
							<originalvideofilename />
							<originalaudiofilename />
						</logginginfo>
						<colorinfo>
							<lut />
							<lut1 />
							<asc_sop />
							<asc_sat />
							<lut2 />
						</colorinfo>
					<labels><label2>Lavender</label2></labels></clipitem>
					<clipitem id="clipitem-86">
						<masterclipid>clipitem-2-34</masterclipid>
						<name>Taylor_Swift_Shares_The_Story_Of_Calling_Travis_Kelce_For_The_First_Time.mp4</name>
						<enabled>TRUE</enabled>
						<duration>150</duration>
						<rate>
							<timebase>25</timebase>
							<ntsc>FALSE</ntsc>
						</rate>
						<start>84900</start>
						<end>85050</end>
						<in>4950</in>
						<out>5100</out>
						<pproTicksIn>0</pproTicksIn>
						<pproTicksOut>236438092800000</pproTicksOut>
						<alphatype>none</alphatype>
						<pixelaspectratio>square</pixelaspectratio>
						<anamorphic>FALSE</anamorphic>
						<file id="file-30">
							<name>Taylor_Swift_Shares_The_Story_Of_Calling_Travis_Kelce_For_The_First_Time.mp4</name>
							<pathurl>file://localhost/Users/themalikano/Documents/VideoAutomation/premiere_videos/Taylor_Swift_Shares_The_Story_Of_Calling_Travis_Kelce_For_The_First_Time.mp4</pathurl>
							<rate>
								<timebase>30</timebase>
								<ntsc>TRUE</ntsc>
							</rate>
							<duration>27897</duration>
							<timecode>
								<rate>
									<timebase>30</timebase>
									<ntsc>TRUE</ntsc>
								</rate>
								<string>00:00:00:00</string>
								<frame>0</frame>
								<displayformat>NDF</displayformat>
							</timecode>
							<media>
								<video>
									<samplecharacteristics>
										<rate>
											<timebase>30</timebase>
											<ntsc>TRUE</ntsc>
										</rate>
										<width>1920</width>
										<height>1080</height>
										<anamorphic>FALSE</anamorphic>
										<pixelaspectratio>square</pixelaspectratio>
										<fielddominance>none</fielddominance>
									</samplecharacteristics>
								</video>
								<audio>
									<samplecharacteristics>
										<depth>16</depth>
										<samplerate>44100</samplerate>
									</samplecharacteristics>
									<channelcount>2</channelcount>
								</audio>
							</media>
						</file>
						<link>
							<linkclipref>clipitem-86</linkclipref>
							<mediatype>video</mediatype>
							<trackindex>1</trackindex>
							<clipindex>2</clipindex>
						</link>
						<link>
							<linkclipref>clipitem-94</linkclipref>
							<mediatype>audio</mediatype>
							<trackindex>1</trackindex>
							<clipindex>2</clipindex>
							<groupindex>1</groupindex>
						</link>
						<link>
							<linkclipref>clipitem-102</linkclipref>
							<mediatype>audio</mediatype>
							<trackindex>2</trackindex>
							<clipindex>2</clipindex>
							<groupindex>1</groupindex>
						</link>
						<logginginfo>
							<description />
							<scene />
							<shottake />
							<lognote />
							<good />
							<originalvideofilename />
							<originalaudiofilename />
						</logginginfo>
						<colorinfo>
							<lut />
							<lut1 />
							<asc_sop />
							<asc_sat />
							<lut2 />
						</colorinfo>
					<labels><label2>Iris</label2></labels></clipitem>
					<clipitem id="clipitem-87">
						<masterclipid>clipitem-3-61</masterclipid>
						<name>Taylor_Swift_Travis_Kelce_-_The_New_Power_Couple.mp4</name>
						<enabled>TRUE</enabled>
						<duration>150</duration>
						<rate>
							<timebase>25</timebase>
							<ntsc>FALSE</ntsc>
						</rate>
						<start>85050</start>
						<end>85200</end>
						<in>9000</in>
						<out>9150</out>
						<pproTicksIn>0</pproTicksIn>
						<pproTicksOut>875013995520000</pproTicksOut>
						<alphatype>none</alphatype>
						<pixelaspectratio>square</pixelaspectratio>
						<anamorphic>FALSE</anamorphic>
						<file id="file-31">
							<name>Taylor_Swift_Travis_Kelce_-_The_New_Power_Couple.mp4</name>
							<pathurl>file://localhost/Users/themalikano/Documents/VideoAutomation/premiere_videos/Taylor_Swift_Travis_Kelce_-_The_New_Power_Couple.mp4</pathurl>
							<rate>
								<timebase>25</timebase>
								<ntsc>FALSE</ntsc>
							</rate>
							<duration>86118</duration>
							<timecode>
								<rate>
									<timebase>25</timebase>
									<ntsc>FALSE</ntsc>
								</rate>
								<string>00:00:00:00</string>
								<frame>0</frame>
								<displayformat>NDF</displayformat>
							</timecode>
							<media>
								<video>
									<samplecharacteristics>
										<rate>
											<timebase>25</timebase>
											<ntsc>FALSE</ntsc>
										</rate>
										<width>1920</width>
										<height>1080</height>
										<anamorphic>FALSE</anamorphic>
										<pixelaspectratio>square</pixelaspectratio>
										<fielddominance>none</fielddominance>
									</samplecharacteristics>
								</video>
								<audio>
									<samplecharacteristics>
										<depth>16</depth>
										<samplerate>44100</samplerate>
									</samplecharacteristics>
									<channelcount>2</channelcount>
								</audio>
							</media>
						</file>
						<link>
							<linkclipref>clipitem-87</linkclipref>
							<mediatype>video</mediatype>
							<trackindex>1</trackindex>
							<clipindex>3</clipindex>
						</link>
						<link>
							<linkclipref>clipitem-95</linkclipref>
							<mediatype>audio</mediatype>
							<trackindex>1</trackindex>
							<clipindex>3</clipindex>
							<groupindex>1</groupindex>
						</link>
						<link>
							<linkclipref>clipitem-103</linkclipref>
							<mediatype>audio</mediatype>
							<trackindex>2</trackindex>
							<clipindex>3</clipindex>
							<groupindex>1</groupindex>
						</link>
						<logginginfo>
							<description />
							<scene />
							<shottake />
							<lognote />
							<good />
							<originalvideofilename />
							<originalaudiofilename />
						</logginginfo>
						<colorinfo>
							<lut />
							<lut1 />
							<asc_sop />
							<asc_sat />
							<lut2 />
						</colorinfo>
					<labels><label2>Caribbean</label2></labels></clipitem>
					<clipitem id="clipitem-86">
						<masterclipid>clipitem-2-82</masterclipid>
						<name>Taylor_Swift_Shares_The_Story_Of_Calling_Travis_Kelce_For_The_First_Time.mp4</name>
						<enabled>TRUE</enabled>
						<duration>150</duration>
						<rate>
							<timebase>25</timebase>
							<ntsc>FALSE</ntsc>
						</rate>
						<start>85200</start>
						<end>85350</end>
						<in>12150</in>
						<out>12300</out>
						<pproTicksIn>0</pproTicksIn>
						<pproTicksOut>236438092800000</pproTicksOut>
						<alphatype>none</alphatype>
						<pixelaspectratio>square</pixelaspectratio>
						<anamorphic>FALSE</anamorphic>
						<file id="file-30">
							<name>Taylor_Swift_Shares_The_Story_Of_Calling_Travis_Kelce_For_The_First_Time.mp4</name>
							<pathurl>file://localhost/Users/themalikano/Documents/VideoAutomation/premiere_videos/Taylor_Swift_Shares_The_Story_Of_Calling_Travis_Kelce_For_The_First_Time.mp4</pathurl>
							<rate>
								<timebase>30</timebase>
								<ntsc>TRUE</ntsc>
							</rate>
							<duration>27897</duration>
							<timecode>
								<rate>
									<timebase>30</timebase>
									<ntsc>TRUE</ntsc>
								</rate>
								<string>00:00:00:00</string>
								<frame>0</frame>
								<displayformat>NDF</displayformat>
							</timecode>
							<media>
								<video>
									<samplecharacteristics>
										<rate>
											<timebase>30</timebase>
											<ntsc>TRUE</ntsc>
										</rate>
										<width>1920</width>
										<height>1080</height>
										<anamorphic>FALSE</anamorphic>
										<pixelaspectratio>square</pixelaspectratio>
										<fielddominance>none</fielddominance>
									</samplecharacteristics>
								</video>
								<audio>
									<samplecharacteristics>
										<depth>16</depth>
										<samplerate>44100</samplerate>
									</samplecharacteristics>
									<channelcount>2</channelcount>
								</audio>
							</media>
						</file>
						<link>
							<linkclipref>clipitem-86</linkclipref>
							<mediatype>video</mediatype>
							<trackindex>1</trackindex>
							<clipindex>2</clipindex>
						</link>
						<link>
							<linkclipref>clipitem-94</linkclipref>
							<mediatype>audio</mediatype>
							<trackindex>1</trackindex>
							<clipindex>2</clipindex>
							<groupindex>1</groupindex>
						</link>
						<link>
							<linkclipref>clipitem-102</linkclipref>
							<mediatype>audio</mediatype>
							<trackindex>2</trackindex>
							<clipindex>2</clipindex>
							<groupindex>1</groupindex>
						</link>
						<logginginfo>
							<description />
							<scene />
							<shottake />
							<lognote />
							<good />
							<originalvideofilename />
							<originalaudiofilename />
						</logginginfo>
						<colorinfo>
							<lut />
							<lut1 />
							<asc_sop />
							<asc_sat />
							<lut2 />
						</colorinfo>
					<labels><label2>Iris</label2></labels></clipitem>
					<clipitem id="clipitem-88">
						<masterclipid>clipitem-4-173</masterclipid>
						<name>Travis_Kelce_ANNOUNCE_WEDDING_DATE_with_Taylor_Swift_Why_He_was_Delaying_all_Along.mp4</name>
						<enabled>TRUE</enabled>
						<duration>150</duration>
						<rate>
							<timebase>25</timebase>
							<ntsc>FALSE</ntsc>
						</rate>
						<start>85350</start>
						<end>85500</end>
						<in>25800</in>
						<out>25950</out>
						<pproTicksIn>0</pproTicksIn>
						<pproTicksOut>419410897920000</pproTicksOut>
						<alphatype>none</alphatype>
						<pixelaspectratio>square</pixelaspectratio>
						<anamorphic>FALSE</anamorphic>
						<file id="file-32">
							<name>Travis_Kelce_ANNOUNCE_WEDDING_DATE_with_Taylor_Swift_Why_He_was_Delaying_all_Along.mp4</name>
							<pathurl>file://localhost/Users/themalikano/Documents/VideoAutomation/premiere_videos/Travis_Kelce_ANNOUNCE_WEDDING_DATE_with_Taylor_Swift_Why_He_was_Delaying_all_Along.mp4</pathurl>
							<rate>
								<timebase>24</timebase>
								<ntsc>FALSE</ntsc>
							</rate>
							<duration>39627</duration>
							<timecode>
								<rate>
									<timebase>24</timebase>
									<ntsc>FALSE</ntsc>
								</rate>
								<string>00:00:00:00</string>
								<frame>0</frame>
								<displayformat>NDF</displayformat>
							</timecode>
							<media>
								<video>
									<samplecharacteristics>
										<rate>
											<timebase>24</timebase>
											<ntsc>FALSE</ntsc>
										</rate>
										<width>852</width>
										<height>480</height>
										<anamorphic>FALSE</anamorphic>
										<pixelaspectratio>square</pixelaspectratio>
										<fielddominance>none</fielddominance>
									</samplecharacteristics>
								</video>
								<audio>
									<samplecharacteristics>
										<depth>16</depth>
										<samplerate>44100</samplerate>
									</samplecharacteristics>
									<channelcount>2</channelcount>
								</audio>
							</media>
						</file>
						<filter>
							<effect>
								<name>Basic Motion</name>
								<effectid>basic</effectid>
								<effectcategory>motion</effectcategory>
								<effecttype>motion</effecttype>
								<mediatype>video</mediatype>
								<pproBypass>false</pproBypass>
								<parameter authoringApp="PremierePro">
									<parameterid>scale</parameterid>
									<name>Scale</name>
									<valuemin>0</valuemin>
									<valuemax>1000</valuemax>
									<value>225</value>
								</parameter>
								<parameter authoringApp="PremierePro">
									<parameterid>rotation</parameterid>
									<name>Rotation</name>
									<valuemin>-8640</valuemin>
									<valuemax>8640</valuemax>
									<value>0</value>
								</parameter>
								<parameter authoringApp="PremierePro">
									<parameterid>center</parameterid>
									<name>Center</name>
									<value>
										<horiz>0</horiz>
										<vert>0</vert>
									</value>
								</parameter>
								<parameter authoringApp="PremierePro">
									<parameterid>centerOffset</parameterid>
									<name>Anchor Point</name>
									<value>
										<horiz>0</horiz>
										<vert>0</vert>
									</value>
								</parameter>
								<parameter authoringApp="PremierePro">
									<parameterid>antiflicker</parameterid>
									<name>Anti-flicker Filter</name>
									<valuemin>0.0</valuemin>
									<valuemax>1.0</valuemax>
									<value>0</value>
								</parameter>
							</effect>
						</filter>
						<link>
							<linkclipref>clipitem-88</linkclipref>
							<mediatype>video</mediatype>
							<trackindex>1</trackindex>
							<clipindex>4</clipindex>
						</link>
						<link>
							<linkclipref>clipitem-96</linkclipref>
							<mediatype>audio</mediatype>
							<trackindex>1</trackindex>
							<clipindex>4</clipindex>
							<groupindex>1</groupindex>
						</link>
						<link>
							<linkclipref>clipitem-104</linkclipref>
							<mediatype>audio</mediatype>
							<trackindex>2</trackindex>
							<clipindex>4</clipindex>
							<groupindex>1</groupindex>
						</link>
						<logginginfo>
							<description />
							<scene />
							<shottake />
							<lognote />
							<good />
							<originalvideofilename />
							<originalaudiofilename />
						</logginginfo>
						<colorinfo>
							<lut />
							<lut1 />
							<asc_sop />
							<asc_sat />
							<lut2 />
						</colorinfo>
					<labels><label2>Lavender</label2></labels></clipitem>
					<clipitem id="clipitem-87">
						<masterclipid>clipitem-3-520</masterclipid>
						<name>Taylor_Swift_Travis_Kelce_-_The_New_Power_Couple.mp4</name>
						<enabled>TRUE</enabled>
						<duration>150</duration>
						<rate>
							<timebase>25</timebase>
							<ntsc>FALSE</ntsc>
						</rate>
						<start>85500</start>
						<end>85650</end>
						<in>77850</in>
						<out>78000</out>
						<pproTicksIn>0</pproTicksIn>
						<pproTicksOut>875013995520000</pproTicksOut>
						<alphatype>none</alphatype>
						<pixelaspectratio>square</pixelaspectratio>
						<anamorphic>FALSE</anamorphic>
						<file id="file-31">
							<name>Taylor_Swift_Travis_Kelce_-_The_New_Power_Couple.mp4</name>
							<pathurl>file://localhost/Users/themalikano/Documents/VideoAutomation/premiere_videos/Taylor_Swift_Travis_Kelce_-_The_New_Power_Couple.mp4</pathurl>
							<rate>
								<timebase>25</timebase>
								<ntsc>FALSE</ntsc>
							</rate>
							<duration>86118</duration>
							<timecode>
								<rate>
									<timebase>25</timebase>
									<ntsc>FALSE</ntsc>
								</rate>
								<string>00:00:00:00</string>
								<frame>0</frame>
								<displayformat>NDF</displayformat>
							</timecode>
							<media>
								<video>
									<samplecharacteristics>
										<rate>
											<timebase>25</timebase>
											<ntsc>FALSE</ntsc>
										</rate>
										<width>1920</width>
										<height>1080</height>
										<anamorphic>FALSE</anamorphic>
										<pixelaspectratio>square</pixelaspectratio>
										<fielddominance>none</fielddominance>
									</samplecharacteristics>
								</video>
								<audio>
									<samplecharacteristics>
										<depth>16</depth>
										<samplerate>44100</samplerate>
									</samplecharacteristics>
									<channelcount>2</channelcount>
								</audio>
							</media>
						</file>
						<link>
							<linkclipref>clipitem-87</linkclipref>
							<mediatype>video</mediatype>
							<trackindex>1</trackindex>
							<clipindex>3</clipindex>
						</link>
						<link>
							<linkclipref>clipitem-95</linkclipref>
							<mediatype>audio</mediatype>
							<trackindex>1</trackindex>
							<clipindex>3</clipindex>
							<groupindex>1</groupindex>
						</link>
						<link>
							<linkclipref>clipitem-103</linkclipref>
							<mediatype>audio</mediatype>
							<trackindex>2</trackindex>
							<clipindex>3</clipindex>
							<groupindex>1</groupindex>
						</link>
						<logginginfo>
							<description />
							<scene />
							<shottake />
							<lognote />
							<good />
							<originalvideofilename />
							<originalaudiofilename />
						</logginginfo>
						<colorinfo>
							<lut />
							<lut1 />
							<asc_sop />
							<asc_sat />
							<lut2 />
						</colorinfo>
					<labels><label2>Caribbean</label2></labels></clipitem>
					<clipitem id="clipitem-88">
						<masterclipid>clipitem-4-142</masterclipid>
						<name>Travis_Kelce_ANNOUNCE_WEDDING_DATE_with_Taylor_Swift_Why_He_was_Delaying_all_Along.mp4</name>
						<enabled>TRUE</enabled>
						<duration>150</duration>
						<rate>
							<timebase>25</timebase>
							<ntsc>FALSE</ntsc>
						</rate>
						<start>85650</start>
						<end>85800</end>
						<in>21150</in>
						<out>21300</out>
						<pproTicksIn>0</pproTicksIn>
						<pproTicksOut>419410897920000</pproTicksOut>
						<alphatype>none</alphatype>
						<pixelaspectratio>square</pixelaspectratio>
						<anamorphic>FALSE</anamorphic>
						<file id="file-32">
							<name>Travis_Kelce_ANNOUNCE_WEDDING_DATE_with_Taylor_Swift_Why_He_was_Delaying_all_Along.mp4</name>
							<pathurl>file://localhost/Users/themalikano/Documents/VideoAutomation/premiere_videos/Travis_Kelce_ANNOUNCE_WEDDING_DATE_with_Taylor_Swift_Why_He_was_Delaying_all_Along.mp4</pathurl>
							<rate>
								<timebase>24</timebase>
								<ntsc>FALSE</ntsc>
							</rate>
							<duration>39627</duration>
							<timecode>
								<rate>
									<timebase>24</timebase>
									<ntsc>FALSE</ntsc>
								</rate>
								<string>00:00:00:00</string>
								<frame>0</frame>
								<displayformat>NDF</displayformat>
							</timecode>
							<media>
								<video>
									<samplecharacteristics>
										<rate>
											<timebase>24</timebase>
											<ntsc>FALSE</ntsc>
										</rate>
										<width>852</width>
										<height>480</height>
										<anamorphic>FALSE</anamorphic>
										<pixelaspectratio>square</pixelaspectratio>
										<fielddominance>none</fielddominance>
									</samplecharacteristics>
								</video>
								<audio>
									<samplecharacteristics>
										<depth>16</depth>
										<samplerate>44100</samplerate>
									</samplecharacteristics>
									<channelcount>2</channelcount>
								</audio>
							</media>
						</file>
						<filter>
							<effect>
								<name>Basic Motion</name>
								<effectid>basic</effectid>
								<effectcategory>motion</effectcategory>
								<effecttype>motion</effecttype>
								<mediatype>video</mediatype>
								<pproBypass>false</pproBypass>
								<parameter authoringApp="PremierePro">
									<parameterid>scale</parameterid>
									<name>Scale</name>
									<valuemin>0</valuemin>
									<valuemax>1000</valuemax>
									<value>225</value>
								</parameter>
								<parameter authoringApp="PremierePro">
									<parameterid>rotation</parameterid>
									<name>Rotation</name>
									<valuemin>-8640</valuemin>
									<valuemax>8640</valuemax>
									<value>0</value>
								</parameter>
								<parameter authoringApp="PremierePro">
									<parameterid>center</parameterid>
									<name>Center</name>
									<value>
										<horiz>0</horiz>
										<vert>0</vert>
									</value>
								</parameter>
								<parameter authoringApp="PremierePro">
									<parameterid>centerOffset</parameterid>
									<name>Anchor Point</name>
									<value>
										<horiz>0</horiz>
										<vert>0</vert>
									</value>
								</parameter>
								<parameter authoringApp="PremierePro">
									<parameterid>antiflicker</parameterid>
									<name>Anti-flicker Filter</name>
									<valuemin>0.0</valuemin>
									<valuemax>1.0</valuemax>
									<value>0</value>
								</parameter>
							</effect>
						</filter>
						<link>
							<linkclipref>clipitem-88</linkclipref>
							<mediatype>video</mediatype>
							<trackindex>1</trackindex>
							<clipindex>4</clipindex>
						</link>
						<link>
							<linkclipref>clipitem-96</linkclipref>
							<mediatype>audio</mediatype>
							<trackindex>1</trackindex>
							<clipindex>4</clipindex>
							<groupindex>1</groupindex>
						</link>
						<link>
							<linkclipref>clipitem-104</linkclipref>
							<mediatype>audio</mediatype>
							<trackindex>2</trackindex>
							<clipindex>4</clipindex>
							<groupindex>1</groupindex>
						</link>
						<logginginfo>
							<description />
							<scene />
							<shottake />
							<lognote />
							<good />
							<originalvideofilename />
							<originalaudiofilename />
						</logginginfo>
						<colorinfo>
							<lut />
							<lut1 />
							<asc_sop />
							<asc_sat />
							<lut2 />
						</colorinfo>
					<labels><label2>Lavender</label2></labels></clipitem>
					<clipitem id="clipitem-86">
						<masterclipid>clipitem-2-13</masterclipid>
						<name>Taylor_Swift_Shares_The_Story_Of_Calling_Travis_Kelce_For_The_First_Time.mp4</name>
						<enabled>TRUE</enabled>
						<duration>150</duration>
						<rate>
							<timebase>25</timebase>
							<ntsc>FALSE</ntsc>
						</rate>
						<start>85800</start>
						<end>85950</end>
						<in>1800</in>
						<out>1950</out>
						<pproTicksIn>0</pproTicksIn>
						<pproTicksOut>236438092800000</pproTicksOut>
						<alphatype>none</alphatype>
						<pixelaspectratio>square</pixelaspectratio>
						<anamorphic>FALSE</anamorphic>
						<file id="file-30">
							<name>Taylor_Swift_Shares_The_Story_Of_Calling_Travis_Kelce_For_The_First_Time.mp4</name>
							<pathurl>file://localhost/Users/themalikano/Documents/VideoAutomation/premiere_videos/Taylor_Swift_Shares_The_Story_Of_Calling_Travis_Kelce_For_The_First_Time.mp4</pathurl>
							<rate>
								<timebase>30</timebase>
								<ntsc>TRUE</ntsc>
							</rate>
							<duration>27897</duration>
							<timecode>
								<rate>
									<timebase>30</timebase>
									<ntsc>TRUE</ntsc>
								</rate>
								<string>00:00:00:00</string>
								<frame>0</frame>
								<displayformat>NDF</displayformat>
							</timecode>
							<media>
								<video>
									<samplecharacteristics>
										<rate>
											<timebase>30</timebase>
											<ntsc>TRUE</ntsc>
										</rate>
										<width>1920</width>
										<height>1080</height>
										<anamorphic>FALSE</anamorphic>
										<pixelaspectratio>square</pixelaspectratio>
										<fielddominance>none</fielddominance>
									</samplecharacteristics>
								</video>
								<audio>
									<samplecharacteristics>
										<depth>16</depth>
										<samplerate>44100</samplerate>
									</samplecharacteristics>
									<channelcount>2</channelcount>
								</audio>
							</media>
						</file>
						<link>
							<linkclipref>clipitem-86</linkclipref>
							<mediatype>video</mediatype>
							<trackindex>1</trackindex>
							<clipindex>2</clipindex>
						</link>
						<link>
							<linkclipref>clipitem-94</linkclipref>
							<mediatype>audio</mediatype>
							<trackindex>1</trackindex>
							<clipindex>2</clipindex>
							<groupindex>1</groupindex>
						</link>
						<link>
							<linkclipref>clipitem-102</linkclipref>
							<mediatype>audio</mediatype>
							<trackindex>2</trackindex>
							<clipindex>2</clipindex>
							<groupindex>1</groupindex>
						</link>
						<logginginfo>
							<description />
							<scene />
							<shottake />
							<lognote />
							<good />
							<originalvideofilename />
							<originalaudiofilename />
						</logginginfo>
						<colorinfo>
							<lut />
							<lut1 />
							<asc_sop />
							<asc_sat />
							<lut2 />
						</colorinfo>
					<labels><label2>Iris</label2></labels></clipitem>
					<clipitem id="clipitem-87">
						<masterclipid>clipitem-3-227</masterclipid>
						<name>Taylor_Swift_Travis_Kelce_-_The_New_Power_Couple.mp4</name>
						<enabled>TRUE</enabled>
						<duration>150</duration>
						<rate>
							<timebase>25</timebase>
							<ntsc>FALSE</ntsc>
						</rate>
						<start>85950</start>
						<end>86100</end>
						<in>33900</in>
						<out>34050</out>
						<pproTicksIn>0</pproTicksIn>
						<pproTicksOut>875013995520000</pproTicksOut>
						<alphatype>none</alphatype>
						<pixelaspectratio>square</pixelaspectratio>
						<anamorphic>FALSE</anamorphic>
						<file id="file-31">
							<name>Taylor_Swift_Travis_Kelce_-_The_New_Power_Couple.mp4</name>
							<pathurl>file://localhost/Users/themalikano/Documents/VideoAutomation/premiere_videos/Taylor_Swift_Travis_Kelce_-_The_New_Power_Couple.mp4</pathurl>
							<rate>
								<timebase>25</timebase>
								<ntsc>FALSE</ntsc>
							</rate>
							<duration>86118</duration>
							<timecode>
								<rate>
									<timebase>25</timebase>
									<ntsc>FALSE</ntsc>
								</rate>
								<string>00:00:00:00</string>
								<frame>0</frame>
								<displayformat>NDF</displayformat>
							</timecode>
							<media>
								<video>
									<samplecharacteristics>
										<rate>
											<timebase>25</timebase>
											<ntsc>FALSE</ntsc>
										</rate>
										<width>1920</width>
										<height>1080</height>
										<anamorphic>FALSE</anamorphic>
										<pixelaspectratio>square</pixelaspectratio>
										<fielddominance>none</fielddominance>
									</samplecharacteristics>
								</video>
								<audio>
									<samplecharacteristics>
										<depth>16</depth>
										<samplerate>44100</samplerate>
									</samplecharacteristics>
									<channelcount>2</channelcount>
								</audio>
							</media>
						</file>
						<link>
							<linkclipref>clipitem-87</linkclipref>
							<mediatype>video</mediatype>
							<trackindex>1</trackindex>
							<clipindex>3</clipindex>
						</link>
						<link>
							<linkclipref>clipitem-95</linkclipref>
							<mediatype>audio</mediatype>
							<trackindex>1</trackindex>
							<clipindex>3</clipindex>
							<groupindex>1</groupindex>
						</link>
						<link>
							<linkclipref>clipitem-103</linkclipref>
							<mediatype>audio</mediatype>
							<trackindex>2</trackindex>
							<clipindex>3</clipindex>
							<groupindex>1</groupindex>
						</link>
						<logginginfo>
							<description />
							<scene />
							<shottake />
							<lognote />
							<good />
							<originalvideofilename />
							<originalaudiofilename />
						</logginginfo>
						<colorinfo>
							<lut />
							<lut1 />
							<asc_sop />
							<asc_sat />
							<lut2 />
						</colorinfo>
					<labels><label2>Caribbean</label2></labels></clipitem>
					<clipitem id="clipitem-88">
						<masterclipid>clipitem-4-60</masterclipid>
						<name>Travis_Kelce_ANNOUNCE_WEDDING_DATE_with_Taylor_Swift_Why_He_was_Delaying_all_Along.mp4</name>
						<enabled>TRUE</enabled>
						<duration>150</duration>
						<rate>
							<timebase>25</timebase>
							<ntsc>FALSE</ntsc>
						</rate>
						<start>86100</start>
						<end>86250</end>
						<in>8850</in>
						<out>9000</out>
						<pproTicksIn>0</pproTicksIn>
						<pproTicksOut>419410897920000</pproTicksOut>
						<alphatype>none</alphatype>
						<pixelaspectratio>square</pixelaspectratio>
						<anamorphic>FALSE</anamorphic>
						<file id="file-32">
							<name>Travis_Kelce_ANNOUNCE_WEDDING_DATE_with_Taylor_Swift_Why_He_was_Delaying_all_Along.mp4</name>
							<pathurl>file://localhost/Users/themalikano/Documents/VideoAutomation/premiere_videos/Travis_Kelce_ANNOUNCE_WEDDING_DATE_with_Taylor_Swift_Why_He_was_Delaying_all_Along.mp4</pathurl>
							<rate>
								<timebase>24</timebase>
								<ntsc>FALSE</ntsc>
							</rate>
							<duration>39627</duration>
							<timecode>
								<rate>
									<timebase>24</timebase>
									<ntsc>FALSE</ntsc>
								</rate>
								<string>00:00:00:00</string>
								<frame>0</frame>
								<displayformat>NDF</displayformat>
							</timecode>
							<media>
								<video>
									<samplecharacteristics>
										<rate>
											<timebase>24</timebase>
											<ntsc>FALSE</ntsc>
										</rate>
										<width>852</width>
										<height>480</height>
										<anamorphic>FALSE</anamorphic>
										<pixelaspectratio>square</pixelaspectratio>
										<fielddominance>none</fielddominance>
									</samplecharacteristics>
								</video>
								<audio>
									<samplecharacteristics>
										<depth>16</depth>
										<samplerate>44100</samplerate>
									</samplecharacteristics>
									<channelcount>2</channelcount>
								</audio>
							</media>
						</file>
						<filter>
							<effect>
								<name>Basic Motion</name>
								<effectid>basic</effectid>
								<effectcategory>motion</effectcategory>
								<effecttype>motion</effecttype>
								<mediatype>video</mediatype>
								<pproBypass>false</pproBypass>
								<parameter authoringApp="PremierePro">
									<parameterid>scale</parameterid>
									<name>Scale</name>
									<valuemin>0</valuemin>
									<valuemax>1000</valuemax>
									<value>225</value>
								</parameter>
								<parameter authoringApp="PremierePro">
									<parameterid>rotation</parameterid>
									<name>Rotation</name>
									<valuemin>-8640</valuemin>
									<valuemax>8640</valuemax>
									<value>0</value>
								</parameter>
								<parameter authoringApp="PremierePro">
									<parameterid>center</parameterid>
									<name>Center</name>
									<value>
										<horiz>0</horiz>
										<vert>0</vert>
									</value>
								</parameter>
								<parameter authoringApp="PremierePro">
									<parameterid>centerOffset</parameterid>
									<name>Anchor Point</name>
									<value>
										<horiz>0</horiz>
										<vert>0</vert>
									</value>
								</parameter>
								<parameter authoringApp="PremierePro">
									<parameterid>antiflicker</parameterid>
									<name>Anti-flicker Filter</name>
									<valuemin>0.0</valuemin>
									<valuemax>1.0</valuemax>
									<value>0</value>
								</parameter>
							</effect>
						</filter>
						<link>
							<linkclipref>clipitem-88</linkclipref>
							<mediatype>video</mediatype>
							<trackindex>1</trackindex>
							<clipindex>4</clipindex>
						</link>
						<link>
							<linkclipref>clipitem-96</linkclipref>
							<mediatype>audio</mediatype>
							<trackindex>1</trackindex>
							<clipindex>4</clipindex>
							<groupindex>1</groupindex>
						</link>
						<link>
							<linkclipref>clipitem-104</linkclipref>
							<mediatype>audio</mediatype>
							<trackindex>2</trackindex>
							<clipindex>4</clipindex>
							<groupindex>1</groupindex>
						</link>
						<logginginfo>
							<description />
							<scene />
							<shottake />
							<lognote />
							<good />
							<originalvideofilename />
							<originalaudiofilename />
						</logginginfo>
						<colorinfo>
							<lut />
							<lut1 />
							<asc_sop />
							<asc_sat />
							<lut2 />
						</colorinfo>
					<labels><label2>Lavender</label2></labels></clipitem>
					<clipitem id="clipitem-87">
						<masterclipid>clipitem-3-280</masterclipid>
						<name>Taylor_Swift_Travis_Kelce_-_The_New_Power_Couple.mp4</name>
						<enabled>TRUE</enabled>
						<duration>150</duration>
						<rate>
							<timebase>25</timebase>
							<ntsc>FALSE</ntsc>
						</rate>
						<start>86250</start>
						<end>86400</end>
						<in>41850</in>
						<out>42000</out>
						<pproTicksIn>0</pproTicksIn>
						<pproTicksOut>875013995520000</pproTicksOut>
						<alphatype>none</alphatype>
						<pixelaspectratio>square</pixelaspectratio>
						<anamorphic>FALSE</anamorphic>
						<file id="file-31">
							<name>Taylor_Swift_Travis_Kelce_-_The_New_Power_Couple.mp4</name>
							<pathurl>file://localhost/Users/themalikano/Documents/VideoAutomation/premiere_videos/Taylor_Swift_Travis_Kelce_-_The_New_Power_Couple.mp4</pathurl>
							<rate>
								<timebase>25</timebase>
								<ntsc>FALSE</ntsc>
							</rate>
							<duration>86118</duration>
							<timecode>
								<rate>
									<timebase>25</timebase>
									<ntsc>FALSE</ntsc>
								</rate>
								<string>00:00:00:00</string>
								<frame>0</frame>
								<displayformat>NDF</displayformat>
							</timecode>
							<media>
								<video>
									<samplecharacteristics>
										<rate>
											<timebase>25</timebase>
											<ntsc>FALSE</ntsc>
										</rate>
										<width>1920</width>
										<height>1080</height>
										<anamorphic>FALSE</anamorphic>
										<pixelaspectratio>square</pixelaspectratio>
										<fielddominance>none</fielddominance>
									</samplecharacteristics>
								</video>
								<audio>
									<samplecharacteristics>
										<depth>16</depth>
										<samplerate>44100</samplerate>
									</samplecharacteristics>
									<channelcount>2</channelcount>
								</audio>
							</media>
						</file>
						<link>
							<linkclipref>clipitem-87</linkclipref>
							<mediatype>video</mediatype>
							<trackindex>1</trackindex>
							<clipindex>3</clipindex>
						</link>
						<link>
							<linkclipref>clipitem-95</linkclipref>
							<mediatype>audio</mediatype>
							<trackindex>1</trackindex>
							<clipindex>3</clipindex>
							<groupindex>1</groupindex>
						</link>
						<link>
							<linkclipref>clipitem-103</linkclipref>
							<mediatype>audio</mediatype>
							<trackindex>2</trackindex>
							<clipindex>3</clipindex>
							<groupindex>1</groupindex>
						</link>
						<logginginfo>
							<description />
							<scene />
							<shottake />
							<lognote />
							<good />
							<originalvideofilename />
							<originalaudiofilename />
						</logginginfo>
						<colorinfo>
							<lut />
							<lut1 />
							<asc_sop />
							<asc_sat />
							<lut2 />
						</colorinfo>
					<labels><label2>Caribbean</label2></labels></clipitem>
					<clipitem id="clipitem-86">
						<masterclipid>clipitem-2-19</masterclipid>
						<name>Taylor_Swift_Shares_The_Story_Of_Calling_Travis_Kelce_For_The_First_Time.mp4</name>
						<enabled>TRUE</enabled>
						<duration>150</duration>
						<rate>
							<timebase>25</timebase>
							<ntsc>FALSE</ntsc>
						</rate>
						<start>86400</start>
						<end>86550</end>
						<in>2700</in>
						<out>2850</out>
						<pproTicksIn>0</pproTicksIn>
						<pproTicksOut>236438092800000</pproTicksOut>
						<alphatype>none</alphatype>
						<pixelaspectratio>square</pixelaspectratio>
						<anamorphic>FALSE</anamorphic>
						<file id="file-30">
							<name>Taylor_Swift_Shares_The_Story_Of_Calling_Travis_Kelce_For_The_First_Time.mp4</name>
							<pathurl>file://localhost/Users/themalikano/Documents/VideoAutomation/premiere_videos/Taylor_Swift_Shares_The_Story_Of_Calling_Travis_Kelce_For_The_First_Time.mp4</pathurl>
							<rate>
								<timebase>30</timebase>
								<ntsc>TRUE</ntsc>
							</rate>
							<duration>27897</duration>
							<timecode>
								<rate>
									<timebase>30</timebase>
									<ntsc>TRUE</ntsc>
								</rate>
								<string>00:00:00:00</string>
								<frame>0</frame>
								<displayformat>NDF</displayformat>
							</timecode>
							<media>
								<video>
									<samplecharacteristics>
										<rate>
											<timebase>30</timebase>
											<ntsc>TRUE</ntsc>
										</rate>
										<width>1920</width>
										<height>1080</height>
										<anamorphic>FALSE</anamorphic>
										<pixelaspectratio>square</pixelaspectratio>
										<fielddominance>none</fielddominance>
									</samplecharacteristics>
								</video>
								<audio>
									<samplecharacteristics>
										<depth>16</depth>
										<samplerate>44100</samplerate>
									</samplecharacteristics>
									<channelcount>2</channelcount>
								</audio>
							</media>
						</file>
						<link>
							<linkclipref>clipitem-86</linkclipref>
							<mediatype>video</mediatype>
							<trackindex>1</trackindex>
							<clipindex>2</clipindex>
						</link>
						<link>
							<linkclipref>clipitem-94</linkclipref>
							<mediatype>audio</mediatype>
							<trackindex>1</trackindex>
							<clipindex>2</clipindex>
							<groupindex>1</groupindex>
						</link>
						<link>
							<linkclipref>clipitem-102</linkclipref>
							<mediatype>audio</mediatype>
							<trackindex>2</trackindex>
							<clipindex>2</clipindex>
							<groupindex>1</groupindex>
						</link>
						<logginginfo>
							<description />
							<scene />
							<shottake />
							<lognote />
							<good />
							<originalvideofilename />
							<originalaudiofilename />
						</logginginfo>
						<colorinfo>
							<lut />
							<lut1 />
							<asc_sop />
							<asc_sat />
							<lut2 />
						</colorinfo>
					<labels><label2>Iris</label2></labels></clipitem>
					<clipitem id="clipitem-88">
						<masterclipid>clipitem-4-238</masterclipid>
						<name>Travis_Kelce_ANNOUNCE_WEDDING_DATE_with_Taylor_Swift_Why_He_was_Delaying_all_Along.mp4</name>
						<enabled>TRUE</enabled>
						<duration>150</duration>
						<rate>
							<timebase>25</timebase>
							<ntsc>FALSE</ntsc>
						</rate>
						<start>86550</start>
						<end>86700</end>
						<in>35550</in>
						<out>35700</out>
						<pproTicksIn>0</pproTicksIn>
						<pproTicksOut>419410897920000</pproTicksOut>
						<alphatype>none</alphatype>
						<pixelaspectratio>square</pixelaspectratio>
						<anamorphic>FALSE</anamorphic>
						<file id="file-32">
							<name>Travis_Kelce_ANNOUNCE_WEDDING_DATE_with_Taylor_Swift_Why_He_was_Delaying_all_Along.mp4</name>
							<pathurl>file://localhost/Users/themalikano/Documents/VideoAutomation/premiere_videos/Travis_Kelce_ANNOUNCE_WEDDING_DATE_with_Taylor_Swift_Why_He_was_Delaying_all_Along.mp4</pathurl>
							<rate>
								<timebase>24</timebase>
								<ntsc>FALSE</ntsc>
							</rate>
							<duration>39627</duration>
							<timecode>
								<rate>
									<timebase>24</timebase>
									<ntsc>FALSE</ntsc>
								</rate>
								<string>00:00:00:00</string>
								<frame>0</frame>
								<displayformat>NDF</displayformat>
							</timecode>
							<media>
								<video>
									<samplecharacteristics>
										<rate>
											<timebase>24</timebase>
											<ntsc>FALSE</ntsc>
										</rate>
										<width>852</width>
										<height>480</height>
										<anamorphic>FALSE</anamorphic>
										<pixelaspectratio>square</pixelaspectratio>
										<fielddominance>none</fielddominance>
									</samplecharacteristics>
								</video>
								<audio>
									<samplecharacteristics>
										<depth>16</depth>
										<samplerate>44100</samplerate>
									</samplecharacteristics>
									<channelcount>2</channelcount>
								</audio>
							</media>
						</file>
						<filter>
							<effect>
								<name>Basic Motion</name>
								<effectid>basic</effectid>
								<effectcategory>motion</effectcategory>
								<effecttype>motion</effecttype>
								<mediatype>video</mediatype>
								<pproBypass>false</pproBypass>
								<parameter authoringApp="PremierePro">
									<parameterid>scale</parameterid>
									<name>Scale</name>
									<valuemin>0</valuemin>
									<valuemax>1000</valuemax>
									<value>225</value>
								</parameter>
								<parameter authoringApp="PremierePro">
									<parameterid>rotation</parameterid>
									<name>Rotation</name>
									<valuemin>-8640</valuemin>
									<valuemax>8640</valuemax>
									<value>0</value>
								</parameter>
								<parameter authoringApp="PremierePro">
									<parameterid>center</parameterid>
									<name>Center</name>
									<value>
										<horiz>0</horiz>
										<vert>0</vert>
									</value>
								</parameter>
								<parameter authoringApp="PremierePro">
									<parameterid>centerOffset</parameterid>
									<name>Anchor Point</name>
									<value>
										<horiz>0</horiz>
										<vert>0</vert>
									</value>
								</parameter>
								<parameter authoringApp="PremierePro">
									<parameterid>antiflicker</parameterid>
									<name>Anti-flicker Filter</name>
									<valuemin>0.0</valuemin>
									<valuemax>1.0</valuemax>
									<value>0</value>
								</parameter>
							</effect>
						</filter>
						<link>
							<linkclipref>clipitem-88</linkclipref>
							<mediatype>video</mediatype>
							<trackindex>1</trackindex>
							<clipindex>4</clipindex>
						</link>
						<link>
							<linkclipref>clipitem-96</linkclipref>
							<mediatype>audio</mediatype>
							<trackindex>1</trackindex>
							<clipindex>4</clipindex>
							<groupindex>1</groupindex>
						</link>
						<link>
							<linkclipref>clipitem-104</linkclipref>
							<mediatype>audio</mediatype>
							<trackindex>2</trackindex>
							<clipindex>4</clipindex>
							<groupindex>1</groupindex>
						</link>
						<logginginfo>
							<description />
							<scene />
							<shottake />
							<lognote />
							<good />
							<originalvideofilename />
							<originalaudiofilename />
						</logginginfo>
						<colorinfo>
							<lut />
							<lut1 />
							<asc_sop />
							<asc_sat />
							<lut2 />
						</colorinfo>
					<labels><label2>Lavender</label2></labels></clipitem>
					<clipitem id="clipitem-87">
						<masterclipid>clipitem-3-101</masterclipid>
						<name>Taylor_Swift_Travis_Kelce_-_The_New_Power_Couple.mp4</name>
						<enabled>TRUE</enabled>
						<duration>150</duration>
						<rate>
							<timebase>25</timebase>
							<ntsc>FALSE</ntsc>
						</rate>
						<start>86700</start>
						<end>86850</end>
						<in>15000</in>
						<out>15150</out>
						<pproTicksIn>0</pproTicksIn>
						<pproTicksOut>875013995520000</pproTicksOut>
						<alphatype>none</alphatype>
						<pixelaspectratio>square</pixelaspectratio>
						<anamorphic>FALSE</anamorphic>
						<file id="file-31">
							<name>Taylor_Swift_Travis_Kelce_-_The_New_Power_Couple.mp4</name>
							<pathurl>file://localhost/Users/themalikano/Documents/VideoAutomation/premiere_videos/Taylor_Swift_Travis_Kelce_-_The_New_Power_Couple.mp4</pathurl>
							<rate>
								<timebase>25</timebase>
								<ntsc>FALSE</ntsc>
							</rate>
							<duration>86118</duration>
							<timecode>
								<rate>
									<timebase>25</timebase>
									<ntsc>FALSE</ntsc>
								</rate>
								<string>00:00:00:00</string>
								<frame>0</frame>
								<displayformat>NDF</displayformat>
							</timecode>
							<media>
								<video>
									<samplecharacteristics>
										<rate>
											<timebase>25</timebase>
											<ntsc>FALSE</ntsc>
										</rate>
										<width>1920</width>
										<height>1080</height>
										<anamorphic>FALSE</anamorphic>
										<pixelaspectratio>square</pixelaspectratio>
										<fielddominance>none</fielddominance>
									</samplecharacteristics>
								</video>
								<audio>
									<samplecharacteristics>
										<depth>16</depth>
										<samplerate>44100</samplerate>
									</samplecharacteristics>
									<channelcount>2</channelcount>
								</audio>
							</media>
						</file>
						<link>
							<linkclipref>clipitem-87</linkclipref>
							<mediatype>video</mediatype>
							<trackindex>1</trackindex>
							<clipindex>3</clipindex>
						</link>
						<link>
							<linkclipref>clipitem-95</linkclipref>
							<mediatype>audio</mediatype>
							<trackindex>1</trackindex>
							<clipindex>3</clipindex>
							<groupindex>1</groupindex>
						</link>
						<link>
							<linkclipref>clipitem-103</linkclipref>
							<mediatype>audio</mediatype>
							<trackindex>2</trackindex>
							<clipindex>3</clipindex>
							<groupindex>1</groupindex>
						</link>
						<logginginfo>
							<description />
							<scene />
							<shottake />
							<lognote />
							<good />
							<originalvideofilename />
							<originalaudiofilename />
						</logginginfo>
						<colorinfo>
							<lut />
							<lut1 />
							<asc_sop />
							<asc_sat />
							<lut2 />
						</colorinfo>
					<labels><label2>Caribbean</label2></labels></clipitem>
					<clipitem id="clipitem-86">
						<masterclipid>clipitem-2-106</masterclipid>
						<name>Taylor_Swift_Shares_The_Story_Of_Calling_Travis_Kelce_For_The_First_Time.mp4</name>
						<enabled>TRUE</enabled>
						<duration>150</duration>
						<rate>
							<timebase>25</timebase>
							<ntsc>FALSE</ntsc>
						</rate>
						<start>86850</start>
						<end>87000</end>
						<in>15750</in>
						<out>15900</out>
						<pproTicksIn>0</pproTicksIn>
						<pproTicksOut>236438092800000</pproTicksOut>
						<alphatype>none</alphatype>
						<pixelaspectratio>square</pixelaspectratio>
						<anamorphic>FALSE</anamorphic>
						<file id="file-30">
							<name>Taylor_Swift_Shares_The_Story_Of_Calling_Travis_Kelce_For_The_First_Time.mp4</name>
							<pathurl>file://localhost/Users/themalikano/Documents/VideoAutomation/premiere_videos/Taylor_Swift_Shares_The_Story_Of_Calling_Travis_Kelce_For_The_First_Time.mp4</pathurl>
							<rate>
								<timebase>30</timebase>
								<ntsc>TRUE</ntsc>
							</rate>
							<duration>27897</duration>
							<timecode>
								<rate>
									<timebase>30</timebase>
									<ntsc>TRUE</ntsc>
								</rate>
								<string>00:00:00:00</string>
								<frame>0</frame>
								<displayformat>NDF</displayformat>
							</timecode>
							<media>
								<video>
									<samplecharacteristics>
										<rate>
											<timebase>30</timebase>
											<ntsc>TRUE</ntsc>
										</rate>
										<width>1920</width>
										<height>1080</height>
										<anamorphic>FALSE</anamorphic>
										<pixelaspectratio>square</pixelaspectratio>
										<fielddominance>none</fielddominance>
									</samplecharacteristics>
								</video>
								<audio>
									<samplecharacteristics>
										<depth>16</depth>
										<samplerate>44100</samplerate>
									</samplecharacteristics>
									<channelcount>2</channelcount>
								</audio>
							</media>
						</file>
						<link>
							<linkclipref>clipitem-86</linkclipref>
							<mediatype>video</mediatype>
							<trackindex>1</trackindex>
							<clipindex>2</clipindex>
						</link>
						<link>
							<linkclipref>clipitem-94</linkclipref>
							<mediatype>audio</mediatype>
							<trackindex>1</trackindex>
							<clipindex>2</clipindex>
							<groupindex>1</groupindex>
						</link>
						<link>
							<linkclipref>clipitem-102</linkclipref>
							<mediatype>audio</mediatype>
							<trackindex>2</trackindex>
							<clipindex>2</clipindex>
							<groupindex>1</groupindex>
						</link>
						<logginginfo>
							<description />
							<scene />
							<shottake />
							<lognote />
							<good />
							<originalvideofilename />
							<originalaudiofilename />
						</logginginfo>
						<colorinfo>
							<lut />
							<lut1 />
							<asc_sop />
							<asc_sat />
							<lut2 />
						</colorinfo>
					<labels><label2>Iris</label2></labels></clipitem>
					<clipitem id="clipitem-87">
						<masterclipid>clipitem-3-277</masterclipid>
						<name>Taylor_Swift_Travis_Kelce_-_The_New_Power_Couple.mp4</name>
						<enabled>TRUE</enabled>
						<duration>150</duration>
						<rate>
							<timebase>25</timebase>
							<ntsc>FALSE</ntsc>
						</rate>
						<start>87000</start>
						<end>87150</end>
						<in>41400</in>
						<out>41550</out>
						<pproTicksIn>0</pproTicksIn>
						<pproTicksOut>875013995520000</pproTicksOut>
						<alphatype>none</alphatype>
						<pixelaspectratio>square</pixelaspectratio>
						<anamorphic>FALSE</anamorphic>
						<file id="file-31">
							<name>Taylor_Swift_Travis_Kelce_-_The_New_Power_Couple.mp4</name>
							<pathurl>file://localhost/Users/themalikano/Documents/VideoAutomation/premiere_videos/Taylor_Swift_Travis_Kelce_-_The_New_Power_Couple.mp4</pathurl>
							<rate>
								<timebase>25</timebase>
								<ntsc>FALSE</ntsc>
							</rate>
							<duration>86118</duration>
							<timecode>
								<rate>
									<timebase>25</timebase>
									<ntsc>FALSE</ntsc>
								</rate>
								<string>00:00:00:00</string>
								<frame>0</frame>
								<displayformat>NDF</displayformat>
							</timecode>
							<media>
								<video>
									<samplecharacteristics>
										<rate>
											<timebase>25</timebase>
											<ntsc>FALSE</ntsc>
										</rate>
										<width>1920</width>
										<height>1080</height>
										<anamorphic>FALSE</anamorphic>
										<pixelaspectratio>square</pixelaspectratio>
										<fielddominance>none</fielddominance>
									</samplecharacteristics>
								</video>
								<audio>
									<samplecharacteristics>
										<depth>16</depth>
										<samplerate>44100</samplerate>
									</samplecharacteristics>
									<channelcount>2</channelcount>
								</audio>
							</media>
						</file>
						<link>
							<linkclipref>clipitem-87</linkclipref>
							<mediatype>video</mediatype>
							<trackindex>1</trackindex>
							<clipindex>3</clipindex>
						</link>
						<link>
							<linkclipref>clipitem-95</linkclipref>
							<mediatype>audio</mediatype>
							<trackindex>1</trackindex>
							<clipindex>3</clipindex>
							<groupindex>1</groupindex>
						</link>
						<link>
							<linkclipref>clipitem-103</linkclipref>
							<mediatype>audio</mediatype>
							<trackindex>2</trackindex>
							<clipindex>3</clipindex>
							<groupindex>1</groupindex>
						</link>
						<logginginfo>
							<description />
							<scene />
							<shottake />
							<lognote />
							<good />
							<originalvideofilename />
							<originalaudiofilename />
						</logginginfo>
						<colorinfo>
							<lut />
							<lut1 />
							<asc_sop />
							<asc_sat />
							<lut2 />
						</colorinfo>
					<labels><label2>Caribbean</label2></labels></clipitem>
					<clipitem id="clipitem-88">
						<masterclipid>clipitem-4-79</masterclipid>
						<name>Travis_Kelce_ANNOUNCE_WEDDING_DATE_with_Taylor_Swift_Why_He_was_Delaying_all_Along.mp4</name>
						<enabled>TRUE</enabled>
						<duration>150</duration>
						<rate>
							<timebase>25</timebase>
							<ntsc>FALSE</ntsc>
						</rate>
						<start>87150</start>
						<end>87300</end>
						<in>11700</in>
						<out>11850</out>
						<pproTicksIn>0</pproTicksIn>
						<pproTicksOut>419410897920000</pproTicksOut>
						<alphatype>none</alphatype>
						<pixelaspectratio>square</pixelaspectratio>
						<anamorphic>FALSE</anamorphic>
						<file id="file-32">
							<name>Travis_Kelce_ANNOUNCE_WEDDING_DATE_with_Taylor_Swift_Why_He_was_Delaying_all_Along.mp4</name>
							<pathurl>file://localhost/Users/themalikano/Documents/VideoAutomation/premiere_videos/Travis_Kelce_ANNOUNCE_WEDDING_DATE_with_Taylor_Swift_Why_He_was_Delaying_all_Along.mp4</pathurl>
							<rate>
								<timebase>24</timebase>
								<ntsc>FALSE</ntsc>
							</rate>
							<duration>39627</duration>
							<timecode>
								<rate>
									<timebase>24</timebase>
									<ntsc>FALSE</ntsc>
								</rate>
								<string>00:00:00:00</string>
								<frame>0</frame>
								<displayformat>NDF</displayformat>
							</timecode>
							<media>
								<video>
									<samplecharacteristics>
										<rate>
											<timebase>24</timebase>
											<ntsc>FALSE</ntsc>
										</rate>
										<width>852</width>
										<height>480</height>
										<anamorphic>FALSE</anamorphic>
										<pixelaspectratio>square</pixelaspectratio>
										<fielddominance>none</fielddominance>
									</samplecharacteristics>
								</video>
								<audio>
									<samplecharacteristics>
										<depth>16</depth>
										<samplerate>44100</samplerate>
									</samplecharacteristics>
									<channelcount>2</channelcount>
								</audio>
							</media>
						</file>
						<filter>
							<effect>
								<name>Basic Motion</name>
								<effectid>basic</effectid>
								<effectcategory>motion</effectcategory>
								<effecttype>motion</effecttype>
								<mediatype>video</mediatype>
								<pproBypass>false</pproBypass>
								<parameter authoringApp="PremierePro">
									<parameterid>scale</parameterid>
									<name>Scale</name>
									<valuemin>0</valuemin>
									<valuemax>1000</valuemax>
									<value>225</value>
								</parameter>
								<parameter authoringApp="PremierePro">
									<parameterid>rotation</parameterid>
									<name>Rotation</name>
									<valuemin>-8640</valuemin>
									<valuemax>8640</valuemax>
									<value>0</value>
								</parameter>
								<parameter authoringApp="PremierePro">
									<parameterid>center</parameterid>
									<name>Center</name>
									<value>
										<horiz>0</horiz>
										<vert>0</vert>
									</value>
								</parameter>
								<parameter authoringApp="PremierePro">
									<parameterid>centerOffset</parameterid>
									<name>Anchor Point</name>
									<value>
										<horiz>0</horiz>
										<vert>0</vert>
									</value>
								</parameter>
								<parameter authoringApp="PremierePro">
									<parameterid>antiflicker</parameterid>
									<name>Anti-flicker Filter</name>
									<valuemin>0.0</valuemin>
									<valuemax>1.0</valuemax>
									<value>0</value>
								</parameter>
							</effect>
						</filter>
						<link>
							<linkclipref>clipitem-88</linkclipref>
							<mediatype>video</mediatype>
							<trackindex>1</trackindex>
							<clipindex>4</clipindex>
						</link>
						<link>
							<linkclipref>clipitem-96</linkclipref>
							<mediatype>audio</mediatype>
							<trackindex>1</trackindex>
							<clipindex>4</clipindex>
							<groupindex>1</groupindex>
						</link>
						<link>
							<linkclipref>clipitem-104</linkclipref>
							<mediatype>audio</mediatype>
							<trackindex>2</trackindex>
							<clipindex>4</clipindex>
							<groupindex>1</groupindex>
						</link>
						<logginginfo>
							<description />
							<scene />
							<shottake />
							<lognote />
							<good />
							<originalvideofilename />
							<originalaudiofilename />
						</logginginfo>
						<colorinfo>
							<lut />
							<lut1 />
							<asc_sop />
							<asc_sat />
							<lut2 />
						</colorinfo>
					<labels><label2>Lavender</label2></labels></clipitem>
					<clipitem id="clipitem-87">
						<masterclipid>clipitem-3-389</masterclipid>
						<name>Taylor_Swift_Travis_Kelce_-_The_New_Power_Couple.mp4</name>
						<enabled>TRUE</enabled>
						<duration>150</duration>
						<rate>
							<timebase>25</timebase>
							<ntsc>FALSE</ntsc>
						</rate>
						<start>87300</start>
						<end>87450</end>
						<in>58200</in>
						<out>58350</out>
						<pproTicksIn>0</pproTicksIn>
						<pproTicksOut>875013995520000</pproTicksOut>
						<alphatype>none</alphatype>
						<pixelaspectratio>square</pixelaspectratio>
						<anamorphic>FALSE</anamorphic>
						<file id="file-31">
							<name>Taylor_Swift_Travis_Kelce_-_The_New_Power_Couple.mp4</name>
							<pathurl>file://localhost/Users/themalikano/Documents/VideoAutomation/premiere_videos/Taylor_Swift_Travis_Kelce_-_The_New_Power_Couple.mp4</pathurl>
							<rate>
								<timebase>25</timebase>
								<ntsc>FALSE</ntsc>
							</rate>
							<duration>86118</duration>
							<timecode>
								<rate>
									<timebase>25</timebase>
									<ntsc>FALSE</ntsc>
								</rate>
								<string>00:00:00:00</string>
								<frame>0</frame>
								<displayformat>NDF</displayformat>
							</timecode>
							<media>
								<video>
									<samplecharacteristics>
										<rate>
											<timebase>25</timebase>
											<ntsc>FALSE</ntsc>
										</rate>
										<width>1920</width>
										<height>1080</height>
										<anamorphic>FALSE</anamorphic>
										<pixelaspectratio>square</pixelaspectratio>
										<fielddominance>none</fielddominance>
									</samplecharacteristics>
								</video>
								<audio>
									<samplecharacteristics>
										<depth>16</depth>
										<samplerate>44100</samplerate>
									</samplecharacteristics>
									<channelcount>2</channelcount>
								</audio>
							</media>
						</file>
						<link>
							<linkclipref>clipitem-87</linkclipref>
							<mediatype>video</mediatype>
							<trackindex>1</trackindex>
							<clipindex>3</clipindex>
						</link>
						<link>
							<linkclipref>clipitem-95</linkclipref>
							<mediatype>audio</mediatype>
							<trackindex>1</trackindex>
							<clipindex>3</clipindex>
							<groupindex>1</groupindex>
						</link>
						<link>
							<linkclipref>clipitem-103</linkclipref>
							<mediatype>audio</mediatype>
							<trackindex>2</trackindex>
							<clipindex>3</clipindex>
							<groupindex>1</groupindex>
						</link>
						<logginginfo>
							<description />
							<scene />
							<shottake />
							<lognote />
							<good />
							<originalvideofilename />
							<originalaudiofilename />
						</logginginfo>
						<colorinfo>
							<lut />
							<lut1 />
							<asc_sop />
							<asc_sat />
							<lut2 />
						</colorinfo>
					<labels><label2>Caribbean</label2></labels></clipitem>
					<clipitem id="clipitem-88">
						<masterclipid>clipitem-4-174</masterclipid>
						<name>Travis_Kelce_ANNOUNCE_WEDDING_DATE_with_Taylor_Swift_Why_He_was_Delaying_all_Along.mp4</name>
						<enabled>TRUE</enabled>
						<duration>150</duration>
						<rate>
							<timebase>25</timebase>
							<ntsc>FALSE</ntsc>
						</rate>
						<start>87450</start>
						<end>87600</end>
						<in>25950</in>
						<out>26100</out>
						<pproTicksIn>0</pproTicksIn>
						<pproTicksOut>419410897920000</pproTicksOut>
						<alphatype>none</alphatype>
						<pixelaspectratio>square</pixelaspectratio>
						<anamorphic>FALSE</anamorphic>
						<file id="file-32">
							<name>Travis_Kelce_ANNOUNCE_WEDDING_DATE_with_Taylor_Swift_Why_He_was_Delaying_all_Along.mp4</name>
							<pathurl>file://localhost/Users/themalikano/Documents/VideoAutomation/premiere_videos/Travis_Kelce_ANNOUNCE_WEDDING_DATE_with_Taylor_Swift_Why_He_was_Delaying_all_Along.mp4</pathurl>
							<rate>
								<timebase>24</timebase>
								<ntsc>FALSE</ntsc>
							</rate>
							<duration>39627</duration>
							<timecode>
								<rate>
									<timebase>24</timebase>
									<ntsc>FALSE</ntsc>
								</rate>
								<string>00:00:00:00</string>
								<frame>0</frame>
								<displayformat>NDF</displayformat>
							</timecode>
							<media>
								<video>
									<samplecharacteristics>
										<rate>
											<timebase>24</timebase>
											<ntsc>FALSE</ntsc>
										</rate>
										<width>852</width>
										<height>480</height>
										<anamorphic>FALSE</anamorphic>
										<pixelaspectratio>square</pixelaspectratio>
										<fielddominance>none</fielddominance>
									</samplecharacteristics>
								</video>
								<audio>
									<samplecharacteristics>
										<depth>16</depth>
										<samplerate>44100</samplerate>
									</samplecharacteristics>
									<channelcount>2</channelcount>
								</audio>
							</media>
						</file>
						<filter>
							<effect>
								<name>Basic Motion</name>
								<effectid>basic</effectid>
								<effectcategory>motion</effectcategory>
								<effecttype>motion</effecttype>
								<mediatype>video</mediatype>
								<pproBypass>false</pproBypass>
								<parameter authoringApp="PremierePro">
									<parameterid>scale</parameterid>
									<name>Scale</name>
									<valuemin>0</valuemin>
									<valuemax>1000</valuemax>
									<value>225</value>
								</parameter>
								<parameter authoringApp="PremierePro">
									<parameterid>rotation</parameterid>
									<name>Rotation</name>
									<valuemin>-8640</valuemin>
									<valuemax>8640</valuemax>
									<value>0</value>
								</parameter>
								<parameter authoringApp="PremierePro">
									<parameterid>center</parameterid>
									<name>Center</name>
									<value>
										<horiz>0</horiz>
										<vert>0</vert>
									</value>
								</parameter>
								<parameter authoringApp="PremierePro">
									<parameterid>centerOffset</parameterid>
									<name>Anchor Point</name>
									<value>
										<horiz>0</horiz>
										<vert>0</vert>
									</value>
								</parameter>
								<parameter authoringApp="PremierePro">
									<parameterid>antiflicker</parameterid>
									<name>Anti-flicker Filter</name>
									<valuemin>0.0</valuemin>
									<valuemax>1.0</valuemax>
									<value>0</value>
								</parameter>
							</effect>
						</filter>
						<link>
							<linkclipref>clipitem-88</linkclipref>
							<mediatype>video</mediatype>
							<trackindex>1</trackindex>
							<clipindex>4</clipindex>
						</link>
						<link>
							<linkclipref>clipitem-96</linkclipref>
							<mediatype>audio</mediatype>
							<trackindex>1</trackindex>
							<clipindex>4</clipindex>
							<groupindex>1</groupindex>
						</link>
						<link>
							<linkclipref>clipitem-104</linkclipref>
							<mediatype>audio</mediatype>
							<trackindex>2</trackindex>
							<clipindex>4</clipindex>
							<groupindex>1</groupindex>
						</link>
						<logginginfo>
							<description />
							<scene />
							<shottake />
							<lognote />
							<good />
							<originalvideofilename />
							<originalaudiofilename />
						</logginginfo>
						<colorinfo>
							<lut />
							<lut1 />
							<asc_sop />
							<asc_sat />
							<lut2 />
						</colorinfo>
					<labels><label2>Lavender</label2></labels></clipitem>
					<clipitem id="clipitem-86">
						<masterclipid>clipitem-2-132</masterclipid>
						<name>Taylor_Swift_Shares_The_Story_Of_Calling_Travis_Kelce_For_The_First_Time.mp4</name>
						<enabled>TRUE</enabled>
						<duration>150</duration>
						<rate>
							<timebase>25</timebase>
							<ntsc>FALSE</ntsc>
						</rate>
						<start>87600</start>
						<end>87750</end>
						<in>19650</in>
						<out>19800</out>
						<pproTicksIn>0</pproTicksIn>
						<pproTicksOut>236438092800000</pproTicksOut>
						<alphatype>none</alphatype>
						<pixelaspectratio>square</pixelaspectratio>
						<anamorphic>FALSE</anamorphic>
						<file id="file-30">
							<name>Taylor_Swift_Shares_The_Story_Of_Calling_Travis_Kelce_For_The_First_Time.mp4</name>
							<pathurl>file://localhost/Users/themalikano/Documents/VideoAutomation/premiere_videos/Taylor_Swift_Shares_The_Story_Of_Calling_Travis_Kelce_For_The_First_Time.mp4</pathurl>
							<rate>
								<timebase>30</timebase>
								<ntsc>TRUE</ntsc>
							</rate>
							<duration>27897</duration>
							<timecode>
								<rate>
									<timebase>30</timebase>
									<ntsc>TRUE</ntsc>
								</rate>
								<string>00:00:00:00</string>
								<frame>0</frame>
								<displayformat>NDF</displayformat>
							</timecode>
							<media>
								<video>
									<samplecharacteristics>
										<rate>
											<timebase>30</timebase>
											<ntsc>TRUE</ntsc>
										</rate>
										<width>1920</width>
										<height>1080</height>
										<anamorphic>FALSE</anamorphic>
										<pixelaspectratio>square</pixelaspectratio>
										<fielddominance>none</fielddominance>
									</samplecharacteristics>
								</video>
								<audio>
									<samplecharacteristics>
										<depth>16</depth>
										<samplerate>44100</samplerate>
									</samplecharacteristics>
									<channelcount>2</channelcount>
								</audio>
							</media>
						</file>
						<link>
							<linkclipref>clipitem-86</linkclipref>
							<mediatype>video</mediatype>
							<trackindex>1</trackindex>
							<clipindex>2</clipindex>
						</link>
						<link>
							<linkclipref>clipitem-94</linkclipref>
							<mediatype>audio</mediatype>
							<trackindex>1</trackindex>
							<clipindex>2</clipindex>
							<groupindex>1</groupindex>
						</link>
						<link>
							<linkclipref>clipitem-102</linkclipref>
							<mediatype>audio</mediatype>
							<trackindex>2</trackindex>
							<clipindex>2</clipindex>
							<groupindex>1</groupindex>
						</link>
						<logginginfo>
							<description />
							<scene />
							<shottake />
							<lognote />
							<good />
							<originalvideofilename />
							<originalaudiofilename />
						</logginginfo>
						<colorinfo>
							<lut />
							<lut1 />
							<asc_sop />
							<asc_sat />
							<lut2 />
						</colorinfo>
					<labels><label2>Iris</label2></labels></clipitem>
					<clipitem id="clipitem-87">
						<masterclipid>clipitem-3-137</masterclipid>
						<name>Taylor_Swift_Travis_Kelce_-_The_New_Power_Couple.mp4</name>
						<enabled>TRUE</enabled>
						<duration>150</duration>
						<rate>
							<timebase>25</timebase>
							<ntsc>FALSE</ntsc>
						</rate>
						<start>87750</start>
						<end>87900</end>
						<in>20400</in>
						<out>20550</out>
						<pproTicksIn>0</pproTicksIn>
						<pproTicksOut>875013995520000</pproTicksOut>
						<alphatype>none</alphatype>
						<pixelaspectratio>square</pixelaspectratio>
						<anamorphic>FALSE</anamorphic>
						<file id="file-31">
							<name>Taylor_Swift_Travis_Kelce_-_The_New_Power_Couple.mp4</name>
							<pathurl>file://localhost/Users/themalikano/Documents/VideoAutomation/premiere_videos/Taylor_Swift_Travis_Kelce_-_The_New_Power_Couple.mp4</pathurl>
							<rate>
								<timebase>25</timebase>
								<ntsc>FALSE</ntsc>
							</rate>
							<duration>86118</duration>
							<timecode>
								<rate>
									<timebase>25</timebase>
									<ntsc>FALSE</ntsc>
								</rate>
								<string>00:00:00:00</string>
								<frame>0</frame>
								<displayformat>NDF</displayformat>
							</timecode>
							<media>
								<video>
									<samplecharacteristics>
										<rate>
											<timebase>25</timebase>
											<ntsc>FALSE</ntsc>
										</rate>
										<width>1920</width>
										<height>1080</height>
										<anamorphic>FALSE</anamorphic>
										<pixelaspectratio>square</pixelaspectratio>
										<fielddominance>none</fielddominance>
									</samplecharacteristics>
								</video>
								<audio>
									<samplecharacteristics>
										<depth>16</depth>
										<samplerate>44100</samplerate>
									</samplecharacteristics>
									<channelcount>2</channelcount>
								</audio>
							</media>
						</file>
						<link>
							<linkclipref>clipitem-87</linkclipref>
							<mediatype>video</mediatype>
							<trackindex>1</trackindex>
							<clipindex>3</clipindex>
						</link>
						<link>
							<linkclipref>clipitem-95</linkclipref>
							<mediatype>audio</mediatype>
							<trackindex>1</trackindex>
							<clipindex>3</clipindex>
							<groupindex>1</groupindex>
						</link>
						<link>
							<linkclipref>clipitem-103</linkclipref>
							<mediatype>audio</mediatype>
							<trackindex>2</trackindex>
							<clipindex>3</clipindex>
							<groupindex>1</groupindex>
						</link>
						<logginginfo>
							<description />
							<scene />
							<shottake />
							<lognote />
							<good />
							<originalvideofilename />
							<originalaudiofilename />
						</logginginfo>
						<colorinfo>
							<lut />
							<lut1 />
							<asc_sop />
							<asc_sat />
							<lut2 />
						</colorinfo>
					<labels><label2>Caribbean</label2></labels></clipitem>
					<clipitem id="clipitem-88">
						<masterclipid>clipitem-4-184</masterclipid>
						<name>Travis_Kelce_ANNOUNCE_WEDDING_DATE_with_Taylor_Swift_Why_He_was_Delaying_all_Along.mp4</name>
						<enabled>TRUE</enabled>
						<duration>150</duration>
						<rate>
							<timebase>25</timebase>
							<ntsc>FALSE</ntsc>
						</rate>
						<start>87900</start>
						<end>88050</end>
						<in>27450</in>
						<out>27600</out>
						<pproTicksIn>0</pproTicksIn>
						<pproTicksOut>419410897920000</pproTicksOut>
						<alphatype>none</alphatype>
						<pixelaspectratio>square</pixelaspectratio>
						<anamorphic>FALSE</anamorphic>
						<file id="file-32">
							<name>Travis_Kelce_ANNOUNCE_WEDDING_DATE_with_Taylor_Swift_Why_He_was_Delaying_all_Along.mp4</name>
							<pathurl>file://localhost/Users/themalikano/Documents/VideoAutomation/premiere_videos/Travis_Kelce_ANNOUNCE_WEDDING_DATE_with_Taylor_Swift_Why_He_was_Delaying_all_Along.mp4</pathurl>
							<rate>
								<timebase>24</timebase>
								<ntsc>FALSE</ntsc>
							</rate>
							<duration>39627</duration>
							<timecode>
								<rate>
									<timebase>24</timebase>
									<ntsc>FALSE</ntsc>
								</rate>
								<string>00:00:00:00</string>
								<frame>0</frame>
								<displayformat>NDF</displayformat>
							</timecode>
							<media>
								<video>
									<samplecharacteristics>
										<rate>
											<timebase>24</timebase>
											<ntsc>FALSE</ntsc>
										</rate>
										<width>852</width>
										<height>480</height>
										<anamorphic>FALSE</anamorphic>
										<pixelaspectratio>square</pixelaspectratio>
										<fielddominance>none</fielddominance>
									</samplecharacteristics>
								</video>
								<audio>
									<samplecharacteristics>
										<depth>16</depth>
										<samplerate>44100</samplerate>
									</samplecharacteristics>
									<channelcount>2</channelcount>
								</audio>
							</media>
						</file>
						<filter>
							<effect>
								<name>Basic Motion</name>
								<effectid>basic</effectid>
								<effectcategory>motion</effectcategory>
								<effecttype>motion</effecttype>
								<mediatype>video</mediatype>
								<pproBypass>false</pproBypass>
								<parameter authoringApp="PremierePro">
									<parameterid>scale</parameterid>
									<name>Scale</name>
									<valuemin>0</valuemin>
									<valuemax>1000</valuemax>
									<value>225</value>
								</parameter>
								<parameter authoringApp="PremierePro">
									<parameterid>rotation</parameterid>
									<name>Rotation</name>
									<valuemin>-8640</valuemin>
									<valuemax>8640</valuemax>
									<value>0</value>
								</parameter>
								<parameter authoringApp="PremierePro">
									<parameterid>center</parameterid>
									<name>Center</name>
									<value>
										<horiz>0</horiz>
										<vert>0</vert>
									</value>
								</parameter>
								<parameter authoringApp="PremierePro">
									<parameterid>centerOffset</parameterid>
									<name>Anchor Point</name>
									<value>
										<horiz>0</horiz>
										<vert>0</vert>
									</value>
								</parameter>
								<parameter authoringApp="PremierePro">
									<parameterid>antiflicker</parameterid>
									<name>Anti-flicker Filter</name>
									<valuemin>0.0</valuemin>
									<valuemax>1.0</valuemax>
									<value>0</value>
								</parameter>
							</effect>
						</filter>
						<link>
							<linkclipref>clipitem-88</linkclipref>
							<mediatype>video</mediatype>
							<trackindex>1</trackindex>
							<clipindex>4</clipindex>
						</link>
						<link>
							<linkclipref>clipitem-96</linkclipref>
							<mediatype>audio</mediatype>
							<trackindex>1</trackindex>
							<clipindex>4</clipindex>
							<groupindex>1</groupindex>
						</link>
						<link>
							<linkclipref>clipitem-104</linkclipref>
							<mediatype>audio</mediatype>
							<trackindex>2</trackindex>
							<clipindex>4</clipindex>
							<groupindex>1</groupindex>
						</link>
						<logginginfo>
							<description />
							<scene />
							<shottake />
							<lognote />
							<good />
							<originalvideofilename />
							<originalaudiofilename />
						</logginginfo>
						<colorinfo>
							<lut />
							<lut1 />
							<asc_sop />
							<asc_sat />
							<lut2 />
						</colorinfo>
					<labels><label2>Lavender</label2></labels></clipitem>
					<clipitem id="clipitem-87">
						<masterclipid>clipitem-3-295</masterclipid>
						<name>Taylor_Swift_Travis_Kelce_-_The_New_Power_Couple.mp4</name>
						<enabled>TRUE</enabled>
						<duration>150</duration>
						<rate>
							<timebase>25</timebase>
							<ntsc>FALSE</ntsc>
						</rate>
						<start>88050</start>
						<end>88200</end>
						<in>44100</in>
						<out>44250</out>
						<pproTicksIn>0</pproTicksIn>
						<pproTicksOut>875013995520000</pproTicksOut>
						<alphatype>none</alphatype>
						<pixelaspectratio>square</pixelaspectratio>
						<anamorphic>FALSE</anamorphic>
						<file id="file-31">
							<name>Taylor_Swift_Travis_Kelce_-_The_New_Power_Couple.mp4</name>
							<pathurl>file://localhost/Users/themalikano/Documents/VideoAutomation/premiere_videos/Taylor_Swift_Travis_Kelce_-_The_New_Power_Couple.mp4</pathurl>
							<rate>
								<timebase>25</timebase>
								<ntsc>FALSE</ntsc>
							</rate>
							<duration>86118</duration>
							<timecode>
								<rate>
									<timebase>25</timebase>
									<ntsc>FALSE</ntsc>
								</rate>
								<string>00:00:00:00</string>
								<frame>0</frame>
								<displayformat>NDF</displayformat>
							</timecode>
							<media>
								<video>
									<samplecharacteristics>
										<rate>
											<timebase>25</timebase>
											<ntsc>FALSE</ntsc>
										</rate>
										<width>1920</width>
										<height>1080</height>
										<anamorphic>FALSE</anamorphic>
										<pixelaspectratio>square</pixelaspectratio>
										<fielddominance>none</fielddominance>
									</samplecharacteristics>
								</video>
								<audio>
									<samplecharacteristics>
										<depth>16</depth>
										<samplerate>44100</samplerate>
									</samplecharacteristics>
									<channelcount>2</channelcount>
								</audio>
							</media>
						</file>
						<link>
							<linkclipref>clipitem-87</linkclipref>
							<mediatype>video</mediatype>
							<trackindex>1</trackindex>
							<clipindex>3</clipindex>
						</link>
						<link>
							<linkclipref>clipitem-95</linkclipref>
							<mediatype>audio</mediatype>
							<trackindex>1</trackindex>
							<clipindex>3</clipindex>
							<groupindex>1</groupindex>
						</link>
						<link>
							<linkclipref>clipitem-103</linkclipref>
							<mediatype>audio</mediatype>
							<trackindex>2</trackindex>
							<clipindex>3</clipindex>
							<groupindex>1</groupindex>
						</link>
						<logginginfo>
							<description />
							<scene />
							<shottake />
							<lognote />
							<good />
							<originalvideofilename />
							<originalaudiofilename />
						</logginginfo>
						<colorinfo>
							<lut />
							<lut1 />
							<asc_sop />
							<asc_sat />
							<lut2 />
						</colorinfo>
					<labels><label2>Caribbean</label2></labels></clipitem>
					<clipitem id="clipitem-88">
						<masterclipid>clipitem-4-104</masterclipid>
						<name>Travis_Kelce_ANNOUNCE_WEDDING_DATE_with_Taylor_Swift_Why_He_was_Delaying_all_Along.mp4</name>
						<enabled>TRUE</enabled>
						<duration>150</duration>
						<rate>
							<timebase>25</timebase>
							<ntsc>FALSE</ntsc>
						</rate>
						<start>88200</start>
						<end>88350</end>
						<in>15450</in>
						<out>15600</out>
						<pproTicksIn>0</pproTicksIn>
						<pproTicksOut>419410897920000</pproTicksOut>
						<alphatype>none</alphatype>
						<pixelaspectratio>square</pixelaspectratio>
						<anamorphic>FALSE</anamorphic>
						<file id="file-32">
							<name>Travis_Kelce_ANNOUNCE_WEDDING_DATE_with_Taylor_Swift_Why_He_was_Delaying_all_Along.mp4</name>
							<pathurl>file://localhost/Users/themalikano/Documents/VideoAutomation/premiere_videos/Travis_Kelce_ANNOUNCE_WEDDING_DATE_with_Taylor_Swift_Why_He_was_Delaying_all_Along.mp4</pathurl>
							<rate>
								<timebase>24</timebase>
								<ntsc>FALSE</ntsc>
							</rate>
							<duration>39627</duration>
							<timecode>
								<rate>
									<timebase>24</timebase>
									<ntsc>FALSE</ntsc>
								</rate>
								<string>00:00:00:00</string>
								<frame>0</frame>
								<displayformat>NDF</displayformat>
							</timecode>
							<media>
								<video>
									<samplecharacteristics>
										<rate>
											<timebase>24</timebase>
											<ntsc>FALSE</ntsc>
										</rate>
										<width>852</width>
										<height>480</height>
										<anamorphic>FALSE</anamorphic>
										<pixelaspectratio>square</pixelaspectratio>
										<fielddominance>none</fielddominance>
									</samplecharacteristics>
								</video>
								<audio>
									<samplecharacteristics>
										<depth>16</depth>
										<samplerate>44100</samplerate>
									</samplecharacteristics>
									<channelcount>2</channelcount>
								</audio>
							</media>
						</file>
						<filter>
							<effect>
								<name>Basic Motion</name>
								<effectid>basic</effectid>
								<effectcategory>motion</effectcategory>
								<effecttype>motion</effecttype>
								<mediatype>video</mediatype>
								<pproBypass>false</pproBypass>
								<parameter authoringApp="PremierePro">
									<parameterid>scale</parameterid>
									<name>Scale</name>
									<valuemin>0</valuemin>
									<valuemax>1000</valuemax>
									<value>225</value>
								</parameter>
								<parameter authoringApp="PremierePro">
									<parameterid>rotation</parameterid>
									<name>Rotation</name>
									<valuemin>-8640</valuemin>
									<valuemax>8640</valuemax>
									<value>0</value>
								</parameter>
								<parameter authoringApp="PremierePro">
									<parameterid>center</parameterid>
									<name>Center</name>
									<value>
										<horiz>0</horiz>
										<vert>0</vert>
									</value>
								</parameter>
								<parameter authoringApp="PremierePro">
									<parameterid>centerOffset</parameterid>
									<name>Anchor Point</name>
									<value>
										<horiz>0</horiz>
										<vert>0</vert>
									</value>
								</parameter>
								<parameter authoringApp="PremierePro">
									<parameterid>antiflicker</parameterid>
									<name>Anti-flicker Filter</name>
									<valuemin>0.0</valuemin>
									<valuemax>1.0</valuemax>
									<value>0</value>
								</parameter>
							</effect>
						</filter>
						<link>
							<linkclipref>clipitem-88</linkclipref>
							<mediatype>video</mediatype>
							<trackindex>1</trackindex>
							<clipindex>4</clipindex>
						</link>
						<link>
							<linkclipref>clipitem-96</linkclipref>
							<mediatype>audio</mediatype>
							<trackindex>1</trackindex>
							<clipindex>4</clipindex>
							<groupindex>1</groupindex>
						</link>
						<link>
							<linkclipref>clipitem-104</linkclipref>
							<mediatype>audio</mediatype>
							<trackindex>2</trackindex>
							<clipindex>4</clipindex>
							<groupindex>1</groupindex>
						</link>
						<logginginfo>
							<description />
							<scene />
							<shottake />
							<lognote />
							<good />
							<originalvideofilename />
							<originalaudiofilename />
						</logginginfo>
						<colorinfo>
							<lut />
							<lut1 />
							<asc_sop />
							<asc_sat />
							<lut2 />
						</colorinfo>
					<labels><label2>Lavender</label2></labels></clipitem>
					<clipitem id="clipitem-87">
						<masterclipid>clipitem-3-143</masterclipid>
						<name>Taylor_Swift_Travis_Kelce_-_The_New_Power_Couple.mp4</name>
						<enabled>TRUE</enabled>
						<duration>150</duration>
						<rate>
							<timebase>25</timebase>
							<ntsc>FALSE</ntsc>
						</rate>
						<start>88350</start>
						<end>88500</end>
						<in>21300</in>
						<out>21450</out>
						<pproTicksIn>0</pproTicksIn>
						<pproTicksOut>875013995520000</pproTicksOut>
						<alphatype>none</alphatype>
						<pixelaspectratio>square</pixelaspectratio>
						<anamorphic>FALSE</anamorphic>
						<file id="file-31">
							<name>Taylor_Swift_Travis_Kelce_-_The_New_Power_Couple.mp4</name>
							<pathurl>file://localhost/Users/themalikano/Documents/VideoAutomation/premiere_videos/Taylor_Swift_Travis_Kelce_-_The_New_Power_Couple.mp4</pathurl>
							<rate>
								<timebase>25</timebase>
								<ntsc>FALSE</ntsc>
							</rate>
							<duration>86118</duration>
							<timecode>
								<rate>
									<timebase>25</timebase>
									<ntsc>FALSE</ntsc>
								</rate>
								<string>00:00:00:00</string>
								<frame>0</frame>
								<displayformat>NDF</displayformat>
							</timecode>
							<media>
								<video>
									<samplecharacteristics>
										<rate>
											<timebase>25</timebase>
											<ntsc>FALSE</ntsc>
										</rate>
										<width>1920</width>
										<height>1080</height>
										<anamorphic>FALSE</anamorphic>
										<pixelaspectratio>square</pixelaspectratio>
										<fielddominance>none</fielddominance>
									</samplecharacteristics>
								</video>
								<audio>
									<samplecharacteristics>
										<depth>16</depth>
										<samplerate>44100</samplerate>
									</samplecharacteristics>
									<channelcount>2</channelcount>
								</audio>
							</media>
						</file>
						<link>
							<linkclipref>clipitem-87</linkclipref>
							<mediatype>video</mediatype>
							<trackindex>1</trackindex>
							<clipindex>3</clipindex>
						</link>
						<link>
							<linkclipref>clipitem-95</linkclipref>
							<mediatype>audio</mediatype>
							<trackindex>1</trackindex>
							<clipindex>3</clipindex>
							<groupindex>1</groupindex>
						</link>
						<link>
							<linkclipref>clipitem-103</linkclipref>
							<mediatype>audio</mediatype>
							<trackindex>2</trackindex>
							<clipindex>3</clipindex>
							<groupindex>1</groupindex>
						</link>
						<logginginfo>
							<description />
							<scene />
							<shottake />
							<lognote />
							<good />
							<originalvideofilename />
							<originalaudiofilename />
						</logginginfo>
						<colorinfo>
							<lut />
							<lut1 />
							<asc_sop />
							<asc_sat />
							<lut2 />
						</colorinfo>
					<labels><label2>Caribbean</label2></labels></clipitem>
					<clipitem id="clipitem-88">
						<masterclipid>clipitem-4-165</masterclipid>
						<name>Travis_Kelce_ANNOUNCE_WEDDING_DATE_with_Taylor_Swift_Why_He_was_Delaying_all_Along.mp4</name>
						<enabled>TRUE</enabled>
						<duration>150</duration>
						<rate>
							<timebase>25</timebase>
							<ntsc>FALSE</ntsc>
						</rate>
						<start>88500</start>
						<end>88650</end>
						<in>24600</in>
						<out>24750</out>
						<pproTicksIn>0</pproTicksIn>
						<pproTicksOut>419410897920000</pproTicksOut>
						<alphatype>none</alphatype>
						<pixelaspectratio>square</pixelaspectratio>
						<anamorphic>FALSE</anamorphic>
						<file id="file-32">
							<name>Travis_Kelce_ANNOUNCE_WEDDING_DATE_with_Taylor_Swift_Why_He_was_Delaying_all_Along.mp4</name>
							<pathurl>file://localhost/Users/themalikano/Documents/VideoAutomation/premiere_videos/Travis_Kelce_ANNOUNCE_WEDDING_DATE_with_Taylor_Swift_Why_He_was_Delaying_all_Along.mp4</pathurl>
							<rate>
								<timebase>24</timebase>
								<ntsc>FALSE</ntsc>
							</rate>
							<duration>39627</duration>
							<timecode>
								<rate>
									<timebase>24</timebase>
									<ntsc>FALSE</ntsc>
								</rate>
								<string>00:00:00:00</string>
								<frame>0</frame>
								<displayformat>NDF</displayformat>
							</timecode>
							<media>
								<video>
									<samplecharacteristics>
										<rate>
											<timebase>24</timebase>
											<ntsc>FALSE</ntsc>
										</rate>
										<width>852</width>
										<height>480</height>
										<anamorphic>FALSE</anamorphic>
										<pixelaspectratio>square</pixelaspectratio>
										<fielddominance>none</fielddominance>
									</samplecharacteristics>
								</video>
								<audio>
									<samplecharacteristics>
										<depth>16</depth>
										<samplerate>44100</samplerate>
									</samplecharacteristics>
									<channelcount>2</channelcount>
								</audio>
							</media>
						</file>
						<filter>
							<effect>
								<name>Basic Motion</name>
								<effectid>basic</effectid>
								<effectcategory>motion</effectcategory>
								<effecttype>motion</effecttype>
								<mediatype>video</mediatype>
								<pproBypass>false</pproBypass>
								<parameter authoringApp="PremierePro">
									<parameterid>scale</parameterid>
									<name>Scale</name>
									<valuemin>0</valuemin>
									<valuemax>1000</valuemax>
									<value>225</value>
								</parameter>
								<parameter authoringApp="PremierePro">
									<parameterid>rotation</parameterid>
									<name>Rotation</name>
									<valuemin>-8640</valuemin>
									<valuemax>8640</valuemax>
									<value>0</value>
								</parameter>
								<parameter authoringApp="PremierePro">
									<parameterid>center</parameterid>
									<name>Center</name>
									<value>
										<horiz>0</horiz>
										<vert>0</vert>
									</value>
								</parameter>
								<parameter authoringApp="PremierePro">
									<parameterid>centerOffset</parameterid>
									<name>Anchor Point</name>
									<value>
										<horiz>0</horiz>
										<vert>0</vert>
									</value>
								</parameter>
								<parameter authoringApp="PremierePro">
									<parameterid>antiflicker</parameterid>
									<name>Anti-flicker Filter</name>
									<valuemin>0.0</valuemin>
									<valuemax>1.0</valuemax>
									<value>0</value>
								</parameter>
							</effect>
						</filter>
						<link>
							<linkclipref>clipitem-88</linkclipref>
							<mediatype>video</mediatype>
							<trackindex>1</trackindex>
							<clipindex>4</clipindex>
						</link>
						<link>
							<linkclipref>clipitem-96</linkclipref>
							<mediatype>audio</mediatype>
							<trackindex>1</trackindex>
							<clipindex>4</clipindex>
							<groupindex>1</groupindex>
						</link>
						<link>
							<linkclipref>clipitem-104</linkclipref>
							<mediatype>audio</mediatype>
							<trackindex>2</trackindex>
							<clipindex>4</clipindex>
							<groupindex>1</groupindex>
						</link>
						<logginginfo>
							<description />
							<scene />
							<shottake />
							<lognote />
							<good />
							<originalvideofilename />
							<originalaudiofilename />
						</logginginfo>
						<colorinfo>
							<lut />
							<lut1 />
							<asc_sop />
							<asc_sat />
							<lut2 />
						</colorinfo>
					<labels><label2>Lavender</label2></labels></clipitem>
					<clipitem id="clipitem-86">
						<masterclipid>clipitem-2-29</masterclipid>
						<name>Taylor_Swift_Shares_The_Story_Of_Calling_Travis_Kelce_For_The_First_Time.mp4</name>
						<enabled>TRUE</enabled>
						<duration>150</duration>
						<rate>
							<timebase>25</timebase>
							<ntsc>FALSE</ntsc>
						</rate>
						<start>88650</start>
						<end>88800</end>
						<in>4200</in>
						<out>4350</out>
						<pproTicksIn>0</pproTicksIn>
						<pproTicksOut>236438092800000</pproTicksOut>
						<alphatype>none</alphatype>
						<pixelaspectratio>square</pixelaspectratio>
						<anamorphic>FALSE</anamorphic>
						<file id="file-30">
							<name>Taylor_Swift_Shares_The_Story_Of_Calling_Travis_Kelce_For_The_First_Time.mp4</name>
							<pathurl>file://localhost/Users/themalikano/Documents/VideoAutomation/premiere_videos/Taylor_Swift_Shares_The_Story_Of_Calling_Travis_Kelce_For_The_First_Time.mp4</pathurl>
							<rate>
								<timebase>30</timebase>
								<ntsc>TRUE</ntsc>
							</rate>
							<duration>27897</duration>
							<timecode>
								<rate>
									<timebase>30</timebase>
									<ntsc>TRUE</ntsc>
								</rate>
								<string>00:00:00:00</string>
								<frame>0</frame>
								<displayformat>NDF</displayformat>
							</timecode>
							<media>
								<video>
									<samplecharacteristics>
										<rate>
											<timebase>30</timebase>
											<ntsc>TRUE</ntsc>
										</rate>
										<width>1920</width>
										<height>1080</height>
										<anamorphic>FALSE</anamorphic>
										<pixelaspectratio>square</pixelaspectratio>
										<fielddominance>none</fielddominance>
									</samplecharacteristics>
								</video>
								<audio>
									<samplecharacteristics>
										<depth>16</depth>
										<samplerate>44100</samplerate>
									</samplecharacteristics>
									<channelcount>2</channelcount>
								</audio>
							</media>
						</file>
						<link>
							<linkclipref>clipitem-86</linkclipref>
							<mediatype>video</mediatype>
							<trackindex>1</trackindex>
							<clipindex>2</clipindex>
						</link>
						<link>
							<linkclipref>clipitem-94</linkclipref>
							<mediatype>audio</mediatype>
							<trackindex>1</trackindex>
							<clipindex>2</clipindex>
							<groupindex>1</groupindex>
						</link>
						<link>
							<linkclipref>clipitem-102</linkclipref>
							<mediatype>audio</mediatype>
							<trackindex>2</trackindex>
							<clipindex>2</clipindex>
							<groupindex>1</groupindex>
						</link>
						<logginginfo>
							<description />
							<scene />
							<shottake />
							<lognote />
							<good />
							<originalvideofilename />
							<originalaudiofilename />
						</logginginfo>
						<colorinfo>
							<lut />
							<lut1 />
							<asc_sop />
							<asc_sat />
							<lut2 />
						</colorinfo>
					<labels><label2>Iris</label2></labels></clipitem>
					<clipitem id="clipitem-87">
						<masterclipid>clipitem-3-50</masterclipid>
						<name>Taylor_Swift_Travis_Kelce_-_The_New_Power_Couple.mp4</name>
						<enabled>TRUE</enabled>
						<duration>150</duration>
						<rate>
							<timebase>25</timebase>
							<ntsc>FALSE</ntsc>
						</rate>
						<start>88800</start>
						<end>88950</end>
						<in>7350</in>
						<out>7500</out>
						<pproTicksIn>0</pproTicksIn>
						<pproTicksOut>875013995520000</pproTicksOut>
						<alphatype>none</alphatype>
						<pixelaspectratio>square</pixelaspectratio>
						<anamorphic>FALSE</anamorphic>
						<file id="file-31">
							<name>Taylor_Swift_Travis_Kelce_-_The_New_Power_Couple.mp4</name>
							<pathurl>file://localhost/Users/themalikano/Documents/VideoAutomation/premiere_videos/Taylor_Swift_Travis_Kelce_-_The_New_Power_Couple.mp4</pathurl>
							<rate>
								<timebase>25</timebase>
								<ntsc>FALSE</ntsc>
							</rate>
							<duration>86118</duration>
							<timecode>
								<rate>
									<timebase>25</timebase>
									<ntsc>FALSE</ntsc>
								</rate>
								<string>00:00:00:00</string>
								<frame>0</frame>
								<displayformat>NDF</displayformat>
							</timecode>
							<media>
								<video>
									<samplecharacteristics>
										<rate>
											<timebase>25</timebase>
											<ntsc>FALSE</ntsc>
										</rate>
										<width>1920</width>
										<height>1080</height>
										<anamorphic>FALSE</anamorphic>
										<pixelaspectratio>square</pixelaspectratio>
										<fielddominance>none</fielddominance>
									</samplecharacteristics>
								</video>
								<audio>
									<samplecharacteristics>
										<depth>16</depth>
										<samplerate>44100</samplerate>
									</samplecharacteristics>
									<channelcount>2</channelcount>
								</audio>
							</media>
						</file>
						<link>
							<linkclipref>clipitem-87</linkclipref>
							<mediatype>video</mediatype>
							<trackindex>1</trackindex>
							<clipindex>3</clipindex>
						</link>
						<link>
							<linkclipref>clipitem-95</linkclipref>
							<mediatype>audio</mediatype>
							<trackindex>1</trackindex>
							<clipindex>3</clipindex>
							<groupindex>1</groupindex>
						</link>
						<link>
							<linkclipref>clipitem-103</linkclipref>
							<mediatype>audio</mediatype>
							<trackindex>2</trackindex>
							<clipindex>3</clipindex>
							<groupindex>1</groupindex>
						</link>
						<logginginfo>
							<description />
							<scene />
							<shottake />
							<lognote />
							<good />
							<originalvideofilename />
							<originalaudiofilename />
						</logginginfo>
						<colorinfo>
							<lut />
							<lut1 />
							<asc_sop />
							<asc_sat />
							<lut2 />
						</colorinfo>
					<labels><label2>Caribbean</label2></labels></clipitem>
					<clipitem id="clipitem-88">
						<masterclipid>clipitem-4-201</masterclipid>
						<name>Travis_Kelce_ANNOUNCE_WEDDING_DATE_with_Taylor_Swift_Why_He_was_Delaying_all_Along.mp4</name>
						<enabled>TRUE</enabled>
						<duration>150</duration>
						<rate>
							<timebase>25</timebase>
							<ntsc>FALSE</ntsc>
						</rate>
						<start>88950</start>
						<end>89100</end>
						<in>30000</in>
						<out>30150</out>
						<pproTicksIn>0</pproTicksIn>
						<pproTicksOut>419410897920000</pproTicksOut>
						<alphatype>none</alphatype>
						<pixelaspectratio>square</pixelaspectratio>
						<anamorphic>FALSE</anamorphic>
						<file id="file-32">
							<name>Travis_Kelce_ANNOUNCE_WEDDING_DATE_with_Taylor_Swift_Why_He_was_Delaying_all_Along.mp4</name>
							<pathurl>file://localhost/Users/themalikano/Documents/VideoAutomation/premiere_videos/Travis_Kelce_ANNOUNCE_WEDDING_DATE_with_Taylor_Swift_Why_He_was_Delaying_all_Along.mp4</pathurl>
							<rate>
								<timebase>24</timebase>
								<ntsc>FALSE</ntsc>
							</rate>
							<duration>39627</duration>
							<timecode>
								<rate>
									<timebase>24</timebase>
									<ntsc>FALSE</ntsc>
								</rate>
								<string>00:00:00:00</string>
								<frame>0</frame>
								<displayformat>NDF</displayformat>
							</timecode>
							<media>
								<video>
									<samplecharacteristics>
										<rate>
											<timebase>24</timebase>
											<ntsc>FALSE</ntsc>
										</rate>
										<width>852</width>
										<height>480</height>
										<anamorphic>FALSE</anamorphic>
										<pixelaspectratio>square</pixelaspectratio>
										<fielddominance>none</fielddominance>
									</samplecharacteristics>
								</video>
								<audio>
									<samplecharacteristics>
										<depth>16</depth>
										<samplerate>44100</samplerate>
									</samplecharacteristics>
									<channelcount>2</channelcount>
								</audio>
							</media>
						</file>
						<filter>
							<effect>
								<name>Basic Motion</name>
								<effectid>basic</effectid>
								<effectcategory>motion</effectcategory>
								<effecttype>motion</effecttype>
								<mediatype>video</mediatype>
								<pproBypass>false</pproBypass>
								<parameter authoringApp="PremierePro">
									<parameterid>scale</parameterid>
									<name>Scale</name>
									<valuemin>0</valuemin>
									<valuemax>1000</valuemax>
									<value>225</value>
								</parameter>
								<parameter authoringApp="PremierePro">
									<parameterid>rotation</parameterid>
									<name>Rotation</name>
									<valuemin>-8640</valuemin>
									<valuemax>8640</valuemax>
									<value>0</value>
								</parameter>
								<parameter authoringApp="PremierePro">
									<parameterid>center</parameterid>
									<name>Center</name>
									<value>
										<horiz>0</horiz>
										<vert>0</vert>
									</value>
								</parameter>
								<parameter authoringApp="PremierePro">
									<parameterid>centerOffset</parameterid>
									<name>Anchor Point</name>
									<value>
										<horiz>0</horiz>
										<vert>0</vert>
									</value>
								</parameter>
								<parameter authoringApp="PremierePro">
									<parameterid>antiflicker</parameterid>
									<name>Anti-flicker Filter</name>
									<valuemin>0.0</valuemin>
									<valuemax>1.0</valuemax>
									<value>0</value>
								</parameter>
							</effect>
						</filter>
						<link>
							<linkclipref>clipitem-88</linkclipref>
							<mediatype>video</mediatype>
							<trackindex>1</trackindex>
							<clipindex>4</clipindex>
						</link>
						<link>
							<linkclipref>clipitem-96</linkclipref>
							<mediatype>audio</mediatype>
							<trackindex>1</trackindex>
							<clipindex>4</clipindex>
							<groupindex>1</groupindex>
						</link>
						<link>
							<linkclipref>clipitem-104</linkclipref>
							<mediatype>audio</mediatype>
							<trackindex>2</trackindex>
							<clipindex>4</clipindex>
							<groupindex>1</groupindex>
						</link>
						<logginginfo>
							<description />
							<scene />
							<shottake />
							<lognote />
							<good />
							<originalvideofilename />
							<originalaudiofilename />
						</logginginfo>
						<colorinfo>
							<lut />
							<lut1 />
							<asc_sop />
							<asc_sat />
							<lut2 />
						</colorinfo>
					<labels><label2>Lavender</label2></labels></clipitem>
					<clipitem id="clipitem-87">
						<masterclipid>clipitem-3-139</masterclipid>
						<name>Taylor_Swift_Travis_Kelce_-_The_New_Power_Couple.mp4</name>
						<enabled>TRUE</enabled>
						<duration>150</duration>
						<rate>
							<timebase>25</timebase>
							<ntsc>FALSE</ntsc>
						</rate>
						<start>89100</start>
						<end>89250</end>
						<in>20700</in>
						<out>20850</out>
						<pproTicksIn>0</pproTicksIn>
						<pproTicksOut>875013995520000</pproTicksOut>
						<alphatype>none</alphatype>
						<pixelaspectratio>square</pixelaspectratio>
						<anamorphic>FALSE</anamorphic>
						<file id="file-31">
							<name>Taylor_Swift_Travis_Kelce_-_The_New_Power_Couple.mp4</name>
							<pathurl>file://localhost/Users/themalikano/Documents/VideoAutomation/premiere_videos/Taylor_Swift_Travis_Kelce_-_The_New_Power_Couple.mp4</pathurl>
							<rate>
								<timebase>25</timebase>
								<ntsc>FALSE</ntsc>
							</rate>
							<duration>86118</duration>
							<timecode>
								<rate>
									<timebase>25</timebase>
									<ntsc>FALSE</ntsc>
								</rate>
								<string>00:00:00:00</string>
								<frame>0</frame>
								<displayformat>NDF</displayformat>
							</timecode>
							<media>
								<video>
									<samplecharacteristics>
										<rate>
											<timebase>25</timebase>
											<ntsc>FALSE</ntsc>
										</rate>
										<width>1920</width>
										<height>1080</height>
										<anamorphic>FALSE</anamorphic>
										<pixelaspectratio>square</pixelaspectratio>
										<fielddominance>none</fielddominance>
									</samplecharacteristics>
								</video>
								<audio>
									<samplecharacteristics>
										<depth>16</depth>
										<samplerate>44100</samplerate>
									</samplecharacteristics>
									<channelcount>2</channelcount>
								</audio>
							</media>
						</file>
						<link>
							<linkclipref>clipitem-87</linkclipref>
							<mediatype>video</mediatype>
							<trackindex>1</trackindex>
							<clipindex>3</clipindex>
						</link>
						<link>
							<linkclipref>clipitem-95</linkclipref>
							<mediatype>audio</mediatype>
							<trackindex>1</trackindex>
							<clipindex>3</clipindex>
							<groupindex>1</groupindex>
						</link>
						<link>
							<linkclipref>clipitem-103</linkclipref>
							<mediatype>audio</mediatype>
							<trackindex>2</trackindex>
							<clipindex>3</clipindex>
							<groupindex>1</groupindex>
						</link>
						<logginginfo>
							<description />
							<scene />
							<shottake />
							<lognote />
							<good />
							<originalvideofilename />
							<originalaudiofilename />
						</logginginfo>
						<colorinfo>
							<lut />
							<lut1 />
							<asc_sop />
							<asc_sat />
							<lut2 />
						</colorinfo>
					<labels><label2>Caribbean</label2></labels></clipitem>
					<clipitem id="clipitem-86">
						<masterclipid>clipitem-2-151</masterclipid>
						<name>Taylor_Swift_Shares_The_Story_Of_Calling_Travis_Kelce_For_The_First_Time.mp4</name>
						<enabled>TRUE</enabled>
						<duration>150</duration>
						<rate>
							<timebase>25</timebase>
							<ntsc>FALSE</ntsc>
						</rate>
						<start>89250</start>
						<end>89400</end>
						<in>22500</in>
						<out>22650</out>
						<pproTicksIn>0</pproTicksIn>
						<pproTicksOut>236438092800000</pproTicksOut>
						<alphatype>none</alphatype>
						<pixelaspectratio>square</pixelaspectratio>
						<anamorphic>FALSE</anamorphic>
						<file id="file-30">
							<name>Taylor_Swift_Shares_The_Story_Of_Calling_Travis_Kelce_For_The_First_Time.mp4</name>
							<pathurl>file://localhost/Users/themalikano/Documents/VideoAutomation/premiere_videos/Taylor_Swift_Shares_The_Story_Of_Calling_Travis_Kelce_For_The_First_Time.mp4</pathurl>
							<rate>
								<timebase>30</timebase>
								<ntsc>TRUE</ntsc>
							</rate>
							<duration>27897</duration>
							<timecode>
								<rate>
									<timebase>30</timebase>
									<ntsc>TRUE</ntsc>
								</rate>
								<string>00:00:00:00</string>
								<frame>0</frame>
								<displayformat>NDF</displayformat>
							</timecode>
							<media>
								<video>
									<samplecharacteristics>
										<rate>
											<timebase>30</timebase>
											<ntsc>TRUE</ntsc>
										</rate>
										<width>1920</width>
										<height>1080</height>
										<anamorphic>FALSE</anamorphic>
										<pixelaspectratio>square</pixelaspectratio>
										<fielddominance>none</fielddominance>
									</samplecharacteristics>
								</video>
								<audio>
									<samplecharacteristics>
										<depth>16</depth>
										<samplerate>44100</samplerate>
									</samplecharacteristics>
									<channelcount>2</channelcount>
								</audio>
							</media>
						</file>
						<link>
							<linkclipref>clipitem-86</linkclipref>
							<mediatype>video</mediatype>
							<trackindex>1</trackindex>
							<clipindex>2</clipindex>
						</link>
						<link>
							<linkclipref>clipitem-94</linkclipref>
							<mediatype>audio</mediatype>
							<trackindex>1</trackindex>
							<clipindex>2</clipindex>
							<groupindex>1</groupindex>
						</link>
						<link>
							<linkclipref>clipitem-102</linkclipref>
							<mediatype>audio</mediatype>
							<trackindex>2</trackindex>
							<clipindex>2</clipindex>
							<groupindex>1</groupindex>
						</link>
						<logginginfo>
							<description />
							<scene />
							<shottake />
							<lognote />
							<good />
							<originalvideofilename />
							<originalaudiofilename />
						</logginginfo>
						<colorinfo>
							<lut />
							<lut1 />
							<asc_sop />
							<asc_sat />
							<lut2 />
						</colorinfo>
					<labels><label2>Iris</label2></labels></clipitem>
					<clipitem id="clipitem-87">
						<masterclipid>clipitem-3-294</masterclipid>
						<name>Taylor_Swift_Travis_Kelce_-_The_New_Power_Couple.mp4</name>
						<enabled>TRUE</enabled>
						<duration>150</duration>
						<rate>
							<timebase>25</timebase>
							<ntsc>FALSE</ntsc>
						</rate>
						<start>89400</start>
						<end>89550</end>
						<in>43950</in>
						<out>44100</out>
						<pproTicksIn>0</pproTicksIn>
						<pproTicksOut>875013995520000</pproTicksOut>
						<alphatype>none</alphatype>
						<pixelaspectratio>square</pixelaspectratio>
						<anamorphic>FALSE</anamorphic>
						<file id="file-31">
							<name>Taylor_Swift_Travis_Kelce_-_The_New_Power_Couple.mp4</name>
							<pathurl>file://localhost/Users/themalikano/Documents/VideoAutomation/premiere_videos/Taylor_Swift_Travis_Kelce_-_The_New_Power_Couple.mp4</pathurl>
							<rate>
								<timebase>25</timebase>
								<ntsc>FALSE</ntsc>
							</rate>
							<duration>86118</duration>
							<timecode>
								<rate>
									<timebase>25</timebase>
									<ntsc>FALSE</ntsc>
								</rate>
								<string>00:00:00:00</string>
								<frame>0</frame>
								<displayformat>NDF</displayformat>
							</timecode>
							<media>
								<video>
									<samplecharacteristics>
										<rate>
											<timebase>25</timebase>
											<ntsc>FALSE</ntsc>
										</rate>
										<width>1920</width>
										<height>1080</height>
										<anamorphic>FALSE</anamorphic>
										<pixelaspectratio>square</pixelaspectratio>
										<fielddominance>none</fielddominance>
									</samplecharacteristics>
								</video>
								<audio>
									<samplecharacteristics>
										<depth>16</depth>
										<samplerate>44100</samplerate>
									</samplecharacteristics>
									<channelcount>2</channelcount>
								</audio>
							</media>
						</file>
						<link>
							<linkclipref>clipitem-87</linkclipref>
							<mediatype>video</mediatype>
							<trackindex>1</trackindex>
							<clipindex>3</clipindex>
						</link>
						<link>
							<linkclipref>clipitem-95</linkclipref>
							<mediatype>audio</mediatype>
							<trackindex>1</trackindex>
							<clipindex>3</clipindex>
							<groupindex>1</groupindex>
						</link>
						<link>
							<linkclipref>clipitem-103</linkclipref>
							<mediatype>audio</mediatype>
							<trackindex>2</trackindex>
							<clipindex>3</clipindex>
							<groupindex>1</groupindex>
						</link>
						<logginginfo>
							<description />
							<scene />
							<shottake />
							<lognote />
							<good />
							<originalvideofilename />
							<originalaudiofilename />
						</logginginfo>
						<colorinfo>
							<lut />
							<lut1 />
							<asc_sop />
							<asc_sat />
							<lut2 />
						</colorinfo>
					<labels><label2>Caribbean</label2></labels></clipitem>
					<clipitem id="clipitem-86">
						<masterclipid>clipitem-2-93</masterclipid>
						<name>Taylor_Swift_Shares_The_Story_Of_Calling_Travis_Kelce_For_The_First_Time.mp4</name>
						<enabled>TRUE</enabled>
						<duration>150</duration>
						<rate>
							<timebase>25</timebase>
							<ntsc>FALSE</ntsc>
						</rate>
						<start>89550</start>
						<end>89700</end>
						<in>13800</in>
						<out>13950</out>
						<pproTicksIn>0</pproTicksIn>
						<pproTicksOut>236438092800000</pproTicksOut>
						<alphatype>none</alphatype>
						<pixelaspectratio>square</pixelaspectratio>
						<anamorphic>FALSE</anamorphic>
						<file id="file-30">
							<name>Taylor_Swift_Shares_The_Story_Of_Calling_Travis_Kelce_For_The_First_Time.mp4</name>
							<pathurl>file://localhost/Users/themalikano/Documents/VideoAutomation/premiere_videos/Taylor_Swift_Shares_The_Story_Of_Calling_Travis_Kelce_For_The_First_Time.mp4</pathurl>
							<rate>
								<timebase>30</timebase>
								<ntsc>TRUE</ntsc>
							</rate>
							<duration>27897</duration>
							<timecode>
								<rate>
									<timebase>30</timebase>
									<ntsc>TRUE</ntsc>
								</rate>
								<string>00:00:00:00</string>
								<frame>0</frame>
								<displayformat>NDF</displayformat>
							</timecode>
							<media>
								<video>
									<samplecharacteristics>
										<rate>
											<timebase>30</timebase>
											<ntsc>TRUE</ntsc>
										</rate>
										<width>1920</width>
										<height>1080</height>
										<anamorphic>FALSE</anamorphic>
										<pixelaspectratio>square</pixelaspectratio>
										<fielddominance>none</fielddominance>
									</samplecharacteristics>
								</video>
								<audio>
									<samplecharacteristics>
										<depth>16</depth>
										<samplerate>44100</samplerate>
									</samplecharacteristics>
									<channelcount>2</channelcount>
								</audio>
							</media>
						</file>
						<link>
							<linkclipref>clipitem-86</linkclipref>
							<mediatype>video</mediatype>
							<trackindex>1</trackindex>
							<clipindex>2</clipindex>
						</link>
						<link>
							<linkclipref>clipitem-94</linkclipref>
							<mediatype>audio</mediatype>
							<trackindex>1</trackindex>
							<clipindex>2</clipindex>
							<groupindex>1</groupindex>
						</link>
						<link>
							<linkclipref>clipitem-102</linkclipref>
							<mediatype>audio</mediatype>
							<trackindex>2</trackindex>
							<clipindex>2</clipindex>
							<groupindex>1</groupindex>
						</link>
						<logginginfo>
							<description />
							<scene />
							<shottake />
							<lognote />
							<good />
							<originalvideofilename />
							<originalaudiofilename />
						</logginginfo>
						<colorinfo>
							<lut />
							<lut1 />
							<asc_sop />
							<asc_sat />
							<lut2 />
						</colorinfo>
					<labels><label2>Iris</label2></labels></clipitem>
					<clipitem id="clipitem-88">
						<masterclipid>clipitem-4-202</masterclipid>
						<name>Travis_Kelce_ANNOUNCE_WEDDING_DATE_with_Taylor_Swift_Why_He_was_Delaying_all_Along.mp4</name>
						<enabled>TRUE</enabled>
						<duration>150</duration>
						<rate>
							<timebase>25</timebase>
							<ntsc>FALSE</ntsc>
						</rate>
						<start>89700</start>
						<end>89850</end>
						<in>30150</in>
						<out>30300</out>
						<pproTicksIn>0</pproTicksIn>
						<pproTicksOut>419410897920000</pproTicksOut>
						<alphatype>none</alphatype>
						<pixelaspectratio>square</pixelaspectratio>
						<anamorphic>FALSE</anamorphic>
						<file id="file-32">
							<name>Travis_Kelce_ANNOUNCE_WEDDING_DATE_with_Taylor_Swift_Why_He_was_Delaying_all_Along.mp4</name>
							<pathurl>file://localhost/Users/themalikano/Documents/VideoAutomation/premiere_videos/Travis_Kelce_ANNOUNCE_WEDDING_DATE_with_Taylor_Swift_Why_He_was_Delaying_all_Along.mp4</pathurl>
							<rate>
								<timebase>24</timebase>
								<ntsc>FALSE</ntsc>
							</rate>
							<duration>39627</duration>
							<timecode>
								<rate>
									<timebase>24</timebase>
									<ntsc>FALSE</ntsc>
								</rate>
								<string>00:00:00:00</string>
								<frame>0</frame>
								<displayformat>NDF</displayformat>
							</timecode>
							<media>
								<video>
									<samplecharacteristics>
										<rate>
											<timebase>24</timebase>
											<ntsc>FALSE</ntsc>
										</rate>
										<width>852</width>
										<height>480</height>
										<anamorphic>FALSE</anamorphic>
										<pixelaspectratio>square</pixelaspectratio>
										<fielddominance>none</fielddominance>
									</samplecharacteristics>
								</video>
								<audio>
									<samplecharacteristics>
										<depth>16</depth>
										<samplerate>44100</samplerate>
									</samplecharacteristics>
									<channelcount>2</channelcount>
								</audio>
							</media>
						</file>
						<filter>
							<effect>
								<name>Basic Motion</name>
								<effectid>basic</effectid>
								<effectcategory>motion</effectcategory>
								<effecttype>motion</effecttype>
								<mediatype>video</mediatype>
								<pproBypass>false</pproBypass>
								<parameter authoringApp="PremierePro">
									<parameterid>scale</parameterid>
									<name>Scale</name>
									<valuemin>0</valuemin>
									<valuemax>1000</valuemax>
									<value>225</value>
								</parameter>
								<parameter authoringApp="PremierePro">
									<parameterid>rotation</parameterid>
									<name>Rotation</name>
									<valuemin>-8640</valuemin>
									<valuemax>8640</valuemax>
									<value>0</value>
								</parameter>
								<parameter authoringApp="PremierePro">
									<parameterid>center</parameterid>
									<name>Center</name>
									<value>
										<horiz>0</horiz>
										<vert>0</vert>
									</value>
								</parameter>
								<parameter authoringApp="PremierePro">
									<parameterid>centerOffset</parameterid>
									<name>Anchor Point</name>
									<value>
										<horiz>0</horiz>
										<vert>0</vert>
									</value>
								</parameter>
								<parameter authoringApp="PremierePro">
									<parameterid>antiflicker</parameterid>
									<name>Anti-flicker Filter</name>
									<valuemin>0.0</valuemin>
									<valuemax>1.0</valuemax>
									<value>0</value>
								</parameter>
							</effect>
						</filter>
						<link>
							<linkclipref>clipitem-88</linkclipref>
							<mediatype>video</mediatype>
							<trackindex>1</trackindex>
							<clipindex>4</clipindex>
						</link>
						<link>
							<linkclipref>clipitem-96</linkclipref>
							<mediatype>audio</mediatype>
							<trackindex>1</trackindex>
							<clipindex>4</clipindex>
							<groupindex>1</groupindex>
						</link>
						<link>
							<linkclipref>clipitem-104</linkclipref>
							<mediatype>audio</mediatype>
							<trackindex>2</trackindex>
							<clipindex>4</clipindex>
							<groupindex>1</groupindex>
						</link>
						<logginginfo>
							<description />
							<scene />
							<shottake />
							<lognote />
							<good />
							<originalvideofilename />
							<originalaudiofilename />
						</logginginfo>
						<colorinfo>
							<lut />
							<lut1 />
							<asc_sop />
							<asc_sat />
							<lut2 />
						</colorinfo>
					<labels><label2>Lavender</label2></labels></clipitem>
					<clipitem id="clipitem-86">
						<masterclipid>clipitem-2-6</masterclipid>
						<name>Taylor_Swift_Shares_The_Story_Of_Calling_Travis_Kelce_For_The_First_Time.mp4</name>
						<enabled>TRUE</enabled>
						<duration>150</duration>
						<rate>
							<timebase>25</timebase>
							<ntsc>FALSE</ntsc>
						</rate>
						<start>89850</start>
						<end>90000</end>
						<in>750</in>
						<out>900</out>
						<pproTicksIn>0</pproTicksIn>
						<pproTicksOut>236438092800000</pproTicksOut>
						<alphatype>none</alphatype>
						<pixelaspectratio>square</pixelaspectratio>
						<anamorphic>FALSE</anamorphic>
						<file id="file-30">
							<name>Taylor_Swift_Shares_The_Story_Of_Calling_Travis_Kelce_For_The_First_Time.mp4</name>
							<pathurl>file://localhost/Users/themalikano/Documents/VideoAutomation/premiere_videos/Taylor_Swift_Shares_The_Story_Of_Calling_Travis_Kelce_For_The_First_Time.mp4</pathurl>
							<rate>
								<timebase>30</timebase>
								<ntsc>TRUE</ntsc>
							</rate>
							<duration>27897</duration>
							<timecode>
								<rate>
									<timebase>30</timebase>
									<ntsc>TRUE</ntsc>
								</rate>
								<string>00:00:00:00</string>
								<frame>0</frame>
								<displayformat>NDF</displayformat>
							</timecode>
							<media>
								<video>
									<samplecharacteristics>
										<rate>
											<timebase>30</timebase>
											<ntsc>TRUE</ntsc>
										</rate>
										<width>1920</width>
										<height>1080</height>
										<anamorphic>FALSE</anamorphic>
										<pixelaspectratio>square</pixelaspectratio>
										<fielddominance>none</fielddominance>
									</samplecharacteristics>
								</video>
								<audio>
									<samplecharacteristics>
										<depth>16</depth>
										<samplerate>44100</samplerate>
									</samplecharacteristics>
									<channelcount>2</channelcount>
								</audio>
							</media>
						</file>
						<link>
							<linkclipref>clipitem-86</linkclipref>
							<mediatype>video</mediatype>
							<trackindex>1</trackindex>
							<clipindex>2</clipindex>
						</link>
						<link>
							<linkclipref>clipitem-94</linkclipref>
							<mediatype>audio</mediatype>
							<trackindex>1</trackindex>
							<clipindex>2</clipindex>
							<groupindex>1</groupindex>
						</link>
						<link>
							<linkclipref>clipitem-102</linkclipref>
							<mediatype>audio</mediatype>
							<trackindex>2</trackindex>
							<clipindex>2</clipindex>
							<groupindex>1</groupindex>
						</link>
						<logginginfo>
							<description />
							<scene />
							<shottake />
							<lognote />
							<good />
							<originalvideofilename />
							<originalaudiofilename />
						</logginginfo>
						<colorinfo>
							<lut />
							<lut1 />
							<asc_sop />
							<asc_sat />
							<lut2 />
						</colorinfo>
					<labels><label2>Iris</label2></labels></clipitem>
					<clipitem id="clipitem-87">
						<masterclipid>clipitem-3-167</masterclipid>
						<name>Taylor_Swift_Travis_Kelce_-_The_New_Power_Couple.mp4</name>
						<enabled>TRUE</enabled>
						<duration>150</duration>
						<rate>
							<timebase>25</timebase>
							<ntsc>FALSE</ntsc>
						</rate>
						<start>90000</start>
						<end>90150</end>
						<in>24900</in>
						<out>25050</out>
						<pproTicksIn>0</pproTicksIn>
						<pproTicksOut>875013995520000</pproTicksOut>
						<alphatype>none</alphatype>
						<pixelaspectratio>square</pixelaspectratio>
						<anamorphic>FALSE</anamorphic>
						<file id="file-31">
							<name>Taylor_Swift_Travis_Kelce_-_The_New_Power_Couple.mp4</name>
							<pathurl>file://localhost/Users/themalikano/Documents/VideoAutomation/premiere_videos/Taylor_Swift_Travis_Kelce_-_The_New_Power_Couple.mp4</pathurl>
							<rate>
								<timebase>25</timebase>
								<ntsc>FALSE</ntsc>
							</rate>
							<duration>86118</duration>
							<timecode>
								<rate>
									<timebase>25</timebase>
									<ntsc>FALSE</ntsc>
								</rate>
								<string>00:00:00:00</string>
								<frame>0</frame>
								<displayformat>NDF</displayformat>
							</timecode>
							<media>
								<video>
									<samplecharacteristics>
										<rate>
											<timebase>25</timebase>
											<ntsc>FALSE</ntsc>
										</rate>
										<width>1920</width>
										<height>1080</height>
										<anamorphic>FALSE</anamorphic>
										<pixelaspectratio>square</pixelaspectratio>
										<fielddominance>none</fielddominance>
									</samplecharacteristics>
								</video>
								<audio>
									<samplecharacteristics>
										<depth>16</depth>
										<samplerate>44100</samplerate>
									</samplecharacteristics>
									<channelcount>2</channelcount>
								</audio>
							</media>
						</file>
						<link>
							<linkclipref>clipitem-87</linkclipref>
							<mediatype>video</mediatype>
							<trackindex>1</trackindex>
							<clipindex>3</clipindex>
						</link>
						<link>
							<linkclipref>clipitem-95</linkclipref>
							<mediatype>audio</mediatype>
							<trackindex>1</trackindex>
							<clipindex>3</clipindex>
							<groupindex>1</groupindex>
						</link>
						<link>
							<linkclipref>clipitem-103</linkclipref>
							<mediatype>audio</mediatype>
							<trackindex>2</trackindex>
							<clipindex>3</clipindex>
							<groupindex>1</groupindex>
						</link>
						<logginginfo>
							<description />
							<scene />
							<shottake />
							<lognote />
							<good />
							<originalvideofilename />
							<originalaudiofilename />
						</logginginfo>
						<colorinfo>
							<lut />
							<lut1 />
							<asc_sop />
							<asc_sat />
							<lut2 />
						</colorinfo>
					<labels><label2>Caribbean</label2></labels></clipitem>
					<clipitem id="clipitem-86">
						<masterclipid>clipitem-2-124</masterclipid>
						<name>Taylor_Swift_Shares_The_Story_Of_Calling_Travis_Kelce_For_The_First_Time.mp4</name>
						<enabled>TRUE</enabled>
						<duration>150</duration>
						<rate>
							<timebase>25</timebase>
							<ntsc>FALSE</ntsc>
						</rate>
						<start>90150</start>
						<end>90300</end>
						<in>18450</in>
						<out>18600</out>
						<pproTicksIn>0</pproTicksIn>
						<pproTicksOut>236438092800000</pproTicksOut>
						<alphatype>none</alphatype>
						<pixelaspectratio>square</pixelaspectratio>
						<anamorphic>FALSE</anamorphic>
						<file id="file-30">
							<name>Taylor_Swift_Shares_The_Story_Of_Calling_Travis_Kelce_For_The_First_Time.mp4</name>
							<pathurl>file://localhost/Users/themalikano/Documents/VideoAutomation/premiere_videos/Taylor_Swift_Shares_The_Story_Of_Calling_Travis_Kelce_For_The_First_Time.mp4</pathurl>
							<rate>
								<timebase>30</timebase>
								<ntsc>TRUE</ntsc>
							</rate>
							<duration>27897</duration>
							<timecode>
								<rate>
									<timebase>30</timebase>
									<ntsc>TRUE</ntsc>
								</rate>
								<string>00:00:00:00</string>
								<frame>0</frame>
								<displayformat>NDF</displayformat>
							</timecode>
							<media>
								<video>
									<samplecharacteristics>
										<rate>
											<timebase>30</timebase>
											<ntsc>TRUE</ntsc>
										</rate>
										<width>1920</width>
										<height>1080</height>
										<anamorphic>FALSE</anamorphic>
										<pixelaspectratio>square</pixelaspectratio>
										<fielddominance>none</fielddominance>
									</samplecharacteristics>
								</video>
								<audio>
									<samplecharacteristics>
										<depth>16</depth>
										<samplerate>44100</samplerate>
									</samplecharacteristics>
									<channelcount>2</channelcount>
								</audio>
							</media>
						</file>
						<link>
							<linkclipref>clipitem-86</linkclipref>
							<mediatype>video</mediatype>
							<trackindex>1</trackindex>
							<clipindex>2</clipindex>
						</link>
						<link>
							<linkclipref>clipitem-94</linkclipref>
							<mediatype>audio</mediatype>
							<trackindex>1</trackindex>
							<clipindex>2</clipindex>
							<groupindex>1</groupindex>
						</link>
						<link>
							<linkclipref>clipitem-102</linkclipref>
							<mediatype>audio</mediatype>
							<trackindex>2</trackindex>
							<clipindex>2</clipindex>
							<groupindex>1</groupindex>
						</link>
						<logginginfo>
							<description />
							<scene />
							<shottake />
							<lognote />
							<good />
							<originalvideofilename />
							<originalaudiofilename />
						</logginginfo>
						<colorinfo>
							<lut />
							<lut1 />
							<asc_sop />
							<asc_sat />
							<lut2 />
						</colorinfo>
					<labels><label2>Iris</label2></labels></clipitem>
					<clipitem id="clipitem-88">
						<masterclipid>clipitem-4-157</masterclipid>
						<name>Travis_Kelce_ANNOUNCE_WEDDING_DATE_with_Taylor_Swift_Why_He_was_Delaying_all_Along.mp4</name>
						<enabled>TRUE</enabled>
						<duration>150</duration>
						<rate>
							<timebase>25</timebase>
							<ntsc>FALSE</ntsc>
						</rate>
						<start>90300</start>
						<end>90450</end>
						<in>23400</in>
						<out>23550</out>
						<pproTicksIn>0</pproTicksIn>
						<pproTicksOut>419410897920000</pproTicksOut>
						<alphatype>none</alphatype>
						<pixelaspectratio>square</pixelaspectratio>
						<anamorphic>FALSE</anamorphic>
						<file id="file-32">
							<name>Travis_Kelce_ANNOUNCE_WEDDING_DATE_with_Taylor_Swift_Why_He_was_Delaying_all_Along.mp4</name>
							<pathurl>file://localhost/Users/themalikano/Documents/VideoAutomation/premiere_videos/Travis_Kelce_ANNOUNCE_WEDDING_DATE_with_Taylor_Swift_Why_He_was_Delaying_all_Along.mp4</pathurl>
							<rate>
								<timebase>24</timebase>
								<ntsc>FALSE</ntsc>
							</rate>
							<duration>39627</duration>
							<timecode>
								<rate>
									<timebase>24</timebase>
									<ntsc>FALSE</ntsc>
								</rate>
								<string>00:00:00:00</string>
								<frame>0</frame>
								<displayformat>NDF</displayformat>
							</timecode>
							<media>
								<video>
									<samplecharacteristics>
										<rate>
											<timebase>24</timebase>
											<ntsc>FALSE</ntsc>
										</rate>
										<width>852</width>
										<height>480</height>
										<anamorphic>FALSE</anamorphic>
										<pixelaspectratio>square</pixelaspectratio>
										<fielddominance>none</fielddominance>
									</samplecharacteristics>
								</video>
								<audio>
									<samplecharacteristics>
										<depth>16</depth>
										<samplerate>44100</samplerate>
									</samplecharacteristics>
									<channelcount>2</channelcount>
								</audio>
							</media>
						</file>
						<filter>
							<effect>
								<name>Basic Motion</name>
								<effectid>basic</effectid>
								<effectcategory>motion</effectcategory>
								<effecttype>motion</effecttype>
								<mediatype>video</mediatype>
								<pproBypass>false</pproBypass>
								<parameter authoringApp="PremierePro">
									<parameterid>scale</parameterid>
									<name>Scale</name>
									<valuemin>0</valuemin>
									<valuemax>1000</valuemax>
									<value>225</value>
								</parameter>
								<parameter authoringApp="PremierePro">
									<parameterid>rotation</parameterid>
									<name>Rotation</name>
									<valuemin>-8640</valuemin>
									<valuemax>8640</valuemax>
									<value>0</value>
								</parameter>
								<parameter authoringApp="PremierePro">
									<parameterid>center</parameterid>
									<name>Center</name>
									<value>
										<horiz>0</horiz>
										<vert>0</vert>
									</value>
								</parameter>
								<parameter authoringApp="PremierePro">
									<parameterid>centerOffset</parameterid>
									<name>Anchor Point</name>
									<value>
										<horiz>0</horiz>
										<vert>0</vert>
									</value>
								</parameter>
								<parameter authoringApp="PremierePro">
									<parameterid>antiflicker</parameterid>
									<name>Anti-flicker Filter</name>
									<valuemin>0.0</valuemin>
									<valuemax>1.0</valuemax>
									<value>0</value>
								</parameter>
							</effect>
						</filter>
						<link>
							<linkclipref>clipitem-88</linkclipref>
							<mediatype>video</mediatype>
							<trackindex>1</trackindex>
							<clipindex>4</clipindex>
						</link>
						<link>
							<linkclipref>clipitem-96</linkclipref>
							<mediatype>audio</mediatype>
							<trackindex>1</trackindex>
							<clipindex>4</clipindex>
							<groupindex>1</groupindex>
						</link>
						<link>
							<linkclipref>clipitem-104</linkclipref>
							<mediatype>audio</mediatype>
							<trackindex>2</trackindex>
							<clipindex>4</clipindex>
							<groupindex>1</groupindex>
						</link>
						<logginginfo>
							<description />
							<scene />
							<shottake />
							<lognote />
							<good />
							<originalvideofilename />
							<originalaudiofilename />
						</logginginfo>
						<colorinfo>
							<lut />
							<lut1 />
							<asc_sop />
							<asc_sat />
							<lut2 />
						</colorinfo>
					<labels><label2>Lavender</label2></labels></clipitem>
					<clipitem id="clipitem-86">
						<masterclipid>clipitem-2-102</masterclipid>
						<name>Taylor_Swift_Shares_The_Story_Of_Calling_Travis_Kelce_For_The_First_Time.mp4</name>
						<enabled>TRUE</enabled>
						<duration>150</duration>
						<rate>
							<timebase>25</timebase>
							<ntsc>FALSE</ntsc>
						</rate>
						<start>90450</start>
						<end>90600</end>
						<in>15150</in>
						<out>15300</out>
						<pproTicksIn>0</pproTicksIn>
						<pproTicksOut>236438092800000</pproTicksOut>
						<alphatype>none</alphatype>
						<pixelaspectratio>square</pixelaspectratio>
						<anamorphic>FALSE</anamorphic>
						<file id="file-30">
							<name>Taylor_Swift_Shares_The_Story_Of_Calling_Travis_Kelce_For_The_First_Time.mp4</name>
							<pathurl>file://localhost/Users/themalikano/Documents/VideoAutomation/premiere_videos/Taylor_Swift_Shares_The_Story_Of_Calling_Travis_Kelce_For_The_First_Time.mp4</pathurl>
							<rate>
								<timebase>30</timebase>
								<ntsc>TRUE</ntsc>
							</rate>
							<duration>27897</duration>
							<timecode>
								<rate>
									<timebase>30</timebase>
									<ntsc>TRUE</ntsc>
								</rate>
								<string>00:00:00:00</string>
								<frame>0</frame>
								<displayformat>NDF</displayformat>
							</timecode>
							<media>
								<video>
									<samplecharacteristics>
										<rate>
											<timebase>30</timebase>
											<ntsc>TRUE</ntsc>
										</rate>
										<width>1920</width>
										<height>1080</height>
										<anamorphic>FALSE</anamorphic>
										<pixelaspectratio>square</pixelaspectratio>
										<fielddominance>none</fielddominance>
									</samplecharacteristics>
								</video>
								<audio>
									<samplecharacteristics>
										<depth>16</depth>
										<samplerate>44100</samplerate>
									</samplecharacteristics>
									<channelcount>2</channelcount>
								</audio>
							</media>
						</file>
						<link>
							<linkclipref>clipitem-86</linkclipref>
							<mediatype>video</mediatype>
							<trackindex>1</trackindex>
							<clipindex>2</clipindex>
						</link>
						<link>
							<linkclipref>clipitem-94</linkclipref>
							<mediatype>audio</mediatype>
							<trackindex>1</trackindex>
							<clipindex>2</clipindex>
							<groupindex>1</groupindex>
						</link>
						<link>
							<linkclipref>clipitem-102</linkclipref>
							<mediatype>audio</mediatype>
							<trackindex>2</trackindex>
							<clipindex>2</clipindex>
							<groupindex>1</groupindex>
						</link>
						<logginginfo>
							<description />
							<scene />
							<shottake />
							<lognote />
							<good />
							<originalvideofilename />
							<originalaudiofilename />
						</logginginfo>
						<colorinfo>
							<lut />
							<lut1 />
							<asc_sop />
							<asc_sat />
							<lut2 />
						</colorinfo>
					<labels><label2>Iris</label2></labels></clipitem>
					<clipitem id="clipitem-87">
						<masterclipid>clipitem-3-569</masterclipid>
						<name>Taylor_Swift_Travis_Kelce_-_The_New_Power_Couple.mp4</name>
						<enabled>TRUE</enabled>
						<duration>150</duration>
						<rate>
							<timebase>25</timebase>
							<ntsc>FALSE</ntsc>
						</rate>
						<start>90600</start>
						<end>90750</end>
						<in>85200</in>
						<out>85350</out>
						<pproTicksIn>0</pproTicksIn>
						<pproTicksOut>875013995520000</pproTicksOut>
						<alphatype>none</alphatype>
						<pixelaspectratio>square</pixelaspectratio>
						<anamorphic>FALSE</anamorphic>
						<file id="file-31">
							<name>Taylor_Swift_Travis_Kelce_-_The_New_Power_Couple.mp4</name>
							<pathurl>file://localhost/Users/themalikano/Documents/VideoAutomation/premiere_videos/Taylor_Swift_Travis_Kelce_-_The_New_Power_Couple.mp4</pathurl>
							<rate>
								<timebase>25</timebase>
								<ntsc>FALSE</ntsc>
							</rate>
							<duration>86118</duration>
							<timecode>
								<rate>
									<timebase>25</timebase>
									<ntsc>FALSE</ntsc>
								</rate>
								<string>00:00:00:00</string>
								<frame>0</frame>
								<displayformat>NDF</displayformat>
							</timecode>
							<media>
								<video>
									<samplecharacteristics>
										<rate>
											<timebase>25</timebase>
											<ntsc>FALSE</ntsc>
										</rate>
										<width>1920</width>
										<height>1080</height>
										<anamorphic>FALSE</anamorphic>
										<pixelaspectratio>square</pixelaspectratio>
										<fielddominance>none</fielddominance>
									</samplecharacteristics>
								</video>
								<audio>
									<samplecharacteristics>
										<depth>16</depth>
										<samplerate>44100</samplerate>
									</samplecharacteristics>
									<channelcount>2</channelcount>
								</audio>
							</media>
						</file>
						<link>
							<linkclipref>clipitem-87</linkclipref>
							<mediatype>video</mediatype>
							<trackindex>1</trackindex>
							<clipindex>3</clipindex>
						</link>
						<link>
							<linkclipref>clipitem-95</linkclipref>
							<mediatype>audio</mediatype>
							<trackindex>1</trackindex>
							<clipindex>3</clipindex>
							<groupindex>1</groupindex>
						</link>
						<link>
							<linkclipref>clipitem-103</linkclipref>
							<mediatype>audio</mediatype>
							<trackindex>2</trackindex>
							<clipindex>3</clipindex>
							<groupindex>1</groupindex>
						</link>
						<logginginfo>
							<description />
							<scene />
							<shottake />
							<lognote />
							<good />
							<originalvideofilename />
							<originalaudiofilename />
						</logginginfo>
						<colorinfo>
							<lut />
							<lut1 />
							<asc_sop />
							<asc_sat />
							<lut2 />
						</colorinfo>
					<labels><label2>Caribbean</label2></labels></clipitem>
					<clipitem id="clipitem-88">
						<masterclipid>clipitem-4-50</masterclipid>
						<name>Travis_Kelce_ANNOUNCE_WEDDING_DATE_with_Taylor_Swift_Why_He_was_Delaying_all_Along.mp4</name>
						<enabled>TRUE</enabled>
						<duration>150</duration>
						<rate>
							<timebase>25</timebase>
							<ntsc>FALSE</ntsc>
						</rate>
						<start>90750</start>
						<end>90900</end>
						<in>7350</in>
						<out>7500</out>
						<pproTicksIn>0</pproTicksIn>
						<pproTicksOut>419410897920000</pproTicksOut>
						<alphatype>none</alphatype>
						<pixelaspectratio>square</pixelaspectratio>
						<anamorphic>FALSE</anamorphic>
						<file id="file-32">
							<name>Travis_Kelce_ANNOUNCE_WEDDING_DATE_with_Taylor_Swift_Why_He_was_Delaying_all_Along.mp4</name>
							<pathurl>file://localhost/Users/themalikano/Documents/VideoAutomation/premiere_videos/Travis_Kelce_ANNOUNCE_WEDDING_DATE_with_Taylor_Swift_Why_He_was_Delaying_all_Along.mp4</pathurl>
							<rate>
								<timebase>24</timebase>
								<ntsc>FALSE</ntsc>
							</rate>
							<duration>39627</duration>
							<timecode>
								<rate>
									<timebase>24</timebase>
									<ntsc>FALSE</ntsc>
								</rate>
								<string>00:00:00:00</string>
								<frame>0</frame>
								<displayformat>NDF</displayformat>
							</timecode>
							<media>
								<video>
									<samplecharacteristics>
										<rate>
											<timebase>24</timebase>
											<ntsc>FALSE</ntsc>
										</rate>
										<width>852</width>
										<height>480</height>
										<anamorphic>FALSE</anamorphic>
										<pixelaspectratio>square</pixelaspectratio>
										<fielddominance>none</fielddominance>
									</samplecharacteristics>
								</video>
								<audio>
									<samplecharacteristics>
										<depth>16</depth>
										<samplerate>44100</samplerate>
									</samplecharacteristics>
									<channelcount>2</channelcount>
								</audio>
							</media>
						</file>
						<filter>
							<effect>
								<name>Basic Motion</name>
								<effectid>basic</effectid>
								<effectcategory>motion</effectcategory>
								<effecttype>motion</effecttype>
								<mediatype>video</mediatype>
								<pproBypass>false</pproBypass>
								<parameter authoringApp="PremierePro">
									<parameterid>scale</parameterid>
									<name>Scale</name>
									<valuemin>0</valuemin>
									<valuemax>1000</valuemax>
									<value>225</value>
								</parameter>
								<parameter authoringApp="PremierePro">
									<parameterid>rotation</parameterid>
									<name>Rotation</name>
									<valuemin>-8640</valuemin>
									<valuemax>8640</valuemax>
									<value>0</value>
								</parameter>
								<parameter authoringApp="PremierePro">
									<parameterid>center</parameterid>
									<name>Center</name>
									<value>
										<horiz>0</horiz>
										<vert>0</vert>
									</value>
								</parameter>
								<parameter authoringApp="PremierePro">
									<parameterid>centerOffset</parameterid>
									<name>Anchor Point</name>
									<value>
										<horiz>0</horiz>
										<vert>0</vert>
									</value>
								</parameter>
								<parameter authoringApp="PremierePro">
									<parameterid>antiflicker</parameterid>
									<name>Anti-flicker Filter</name>
									<valuemin>0.0</valuemin>
									<valuemax>1.0</valuemax>
									<value>0</value>
								</parameter>
							</effect>
						</filter>
						<link>
							<linkclipref>clipitem-88</linkclipref>
							<mediatype>video</mediatype>
							<trackindex>1</trackindex>
							<clipindex>4</clipindex>
						</link>
						<link>
							<linkclipref>clipitem-96</linkclipref>
							<mediatype>audio</mediatype>
							<trackindex>1</trackindex>
							<clipindex>4</clipindex>
							<groupindex>1</groupindex>
						</link>
						<link>
							<linkclipref>clipitem-104</linkclipref>
							<mediatype>audio</mediatype>
							<trackindex>2</trackindex>
							<clipindex>4</clipindex>
							<groupindex>1</groupindex>
						</link>
						<logginginfo>
							<description />
							<scene />
							<shottake />
							<lognote />
							<good />
							<originalvideofilename />
							<originalaudiofilename />
						</logginginfo>
						<colorinfo>
							<lut />
							<lut1 />
							<asc_sop />
							<asc_sat />
							<lut2 />
						</colorinfo>
					<labels><label2>Lavender</label2></labels></clipitem>
					<clipitem id="clipitem-87">
						<masterclipid>clipitem-3-564</masterclipid>
						<name>Taylor_Swift_Travis_Kelce_-_The_New_Power_Couple.mp4</name>
						<enabled>TRUE</enabled>
						<duration>150</duration>
						<rate>
							<timebase>25</timebase>
							<ntsc>FALSE</ntsc>
						</rate>
						<start>90900</start>
						<end>91050</end>
						<in>84450</in>
						<out>84600</out>
						<pproTicksIn>0</pproTicksIn>
						<pproTicksOut>875013995520000</pproTicksOut>
						<alphatype>none</alphatype>
						<pixelaspectratio>square</pixelaspectratio>
						<anamorphic>FALSE</anamorphic>
						<file id="file-31">
							<name>Taylor_Swift_Travis_Kelce_-_The_New_Power_Couple.mp4</name>
							<pathurl>file://localhost/Users/themalikano/Documents/VideoAutomation/premiere_videos/Taylor_Swift_Travis_Kelce_-_The_New_Power_Couple.mp4</pathurl>
							<rate>
								<timebase>25</timebase>
								<ntsc>FALSE</ntsc>
							</rate>
							<duration>86118</duration>
							<timecode>
								<rate>
									<timebase>25</timebase>
									<ntsc>FALSE</ntsc>
								</rate>
								<string>00:00:00:00</string>
								<frame>0</frame>
								<displayformat>NDF</displayformat>
							</timecode>
							<media>
								<video>
									<samplecharacteristics>
										<rate>
											<timebase>25</timebase>
											<ntsc>FALSE</ntsc>
										</rate>
										<width>1920</width>
										<height>1080</height>
										<anamorphic>FALSE</anamorphic>
										<pixelaspectratio>square</pixelaspectratio>
										<fielddominance>none</fielddominance>
									</samplecharacteristics>
								</video>
								<audio>
									<samplecharacteristics>
										<depth>16</depth>
										<samplerate>44100</samplerate>
									</samplecharacteristics>
									<channelcount>2</channelcount>
								</audio>
							</media>
						</file>
						<link>
							<linkclipref>clipitem-87</linkclipref>
							<mediatype>video</mediatype>
							<trackindex>1</trackindex>
							<clipindex>3</clipindex>
						</link>
						<link>
							<linkclipref>clipitem-95</linkclipref>
							<mediatype>audio</mediatype>
							<trackindex>1</trackindex>
							<clipindex>3</clipindex>
							<groupindex>1</groupindex>
						</link>
						<link>
							<linkclipref>clipitem-103</linkclipref>
							<mediatype>audio</mediatype>
							<trackindex>2</trackindex>
							<clipindex>3</clipindex>
							<groupindex>1</groupindex>
						</link>
						<logginginfo>
							<description />
							<scene />
							<shottake />
							<lognote />
							<good />
							<originalvideofilename />
							<originalaudiofilename />
						</logginginfo>
						<colorinfo>
							<lut />
							<lut1 />
							<asc_sop />
							<asc_sat />
							<lut2 />
						</colorinfo>
					<labels><label2>Caribbean</label2></labels></clipitem>
					<clipitem id="clipitem-88">
						<masterclipid>clipitem-4-270</masterclipid>
						<name>Travis_Kelce_ANNOUNCE_WEDDING_DATE_with_Taylor_Swift_Why_He_was_Delaying_all_Along.mp4</name>
						<enabled>TRUE</enabled>
						<duration>150</duration>
						<rate>
							<timebase>25</timebase>
							<ntsc>FALSE</ntsc>
						</rate>
						<start>91050</start>
						<end>91200</end>
						<in>40350</in>
						<out>40500</out>
						<pproTicksIn>0</pproTicksIn>
						<pproTicksOut>419410897920000</pproTicksOut>
						<alphatype>none</alphatype>
						<pixelaspectratio>square</pixelaspectratio>
						<anamorphic>FALSE</anamorphic>
						<file id="file-32">
							<name>Travis_Kelce_ANNOUNCE_WEDDING_DATE_with_Taylor_Swift_Why_He_was_Delaying_all_Along.mp4</name>
							<pathurl>file://localhost/Users/themalikano/Documents/VideoAutomation/premiere_videos/Travis_Kelce_ANNOUNCE_WEDDING_DATE_with_Taylor_Swift_Why_He_was_Delaying_all_Along.mp4</pathurl>
							<rate>
								<timebase>24</timebase>
								<ntsc>FALSE</ntsc>
							</rate>
							<duration>39627</duration>
							<timecode>
								<rate>
									<timebase>24</timebase>
									<ntsc>FALSE</ntsc>
								</rate>
								<string>00:00:00:00</string>
								<frame>0</frame>
								<displayformat>NDF</displayformat>
							</timecode>
							<media>
								<video>
									<samplecharacteristics>
										<rate>
											<timebase>24</timebase>
											<ntsc>FALSE</ntsc>
										</rate>
										<width>852</width>
										<height>480</height>
										<anamorphic>FALSE</anamorphic>
										<pixelaspectratio>square</pixelaspectratio>
										<fielddominance>none</fielddominance>
									</samplecharacteristics>
								</video>
								<audio>
									<samplecharacteristics>
										<depth>16</depth>
										<samplerate>44100</samplerate>
									</samplecharacteristics>
									<channelcount>2</channelcount>
								</audio>
							</media>
						</file>
						<filter>
							<effect>
								<name>Basic Motion</name>
								<effectid>basic</effectid>
								<effectcategory>motion</effectcategory>
								<effecttype>motion</effecttype>
								<mediatype>video</mediatype>
								<pproBypass>false</pproBypass>
								<parameter authoringApp="PremierePro">
									<parameterid>scale</parameterid>
									<name>Scale</name>
									<valuemin>0</valuemin>
									<valuemax>1000</valuemax>
									<value>225</value>
								</parameter>
								<parameter authoringApp="PremierePro">
									<parameterid>rotation</parameterid>
									<name>Rotation</name>
									<valuemin>-8640</valuemin>
									<valuemax>8640</valuemax>
									<value>0</value>
								</parameter>
								<parameter authoringApp="PremierePro">
									<parameterid>center</parameterid>
									<name>Center</name>
									<value>
										<horiz>0</horiz>
										<vert>0</vert>
									</value>
								</parameter>
								<parameter authoringApp="PremierePro">
									<parameterid>centerOffset</parameterid>
									<name>Anchor Point</name>
									<value>
										<horiz>0</horiz>
										<vert>0</vert>
									</value>
								</parameter>
								<parameter authoringApp="PremierePro">
									<parameterid>antiflicker</parameterid>
									<name>Anti-flicker Filter</name>
									<valuemin>0.0</valuemin>
									<valuemax>1.0</valuemax>
									<value>0</value>
								</parameter>
							</effect>
						</filter>
						<link>
							<linkclipref>clipitem-88</linkclipref>
							<mediatype>video</mediatype>
							<trackindex>1</trackindex>
							<clipindex>4</clipindex>
						</link>
						<link>
							<linkclipref>clipitem-96</linkclipref>
							<mediatype>audio</mediatype>
							<trackindex>1</trackindex>
							<clipindex>4</clipindex>
							<groupindex>1</groupindex>
						</link>
						<link>
							<linkclipref>clipitem-104</linkclipref>
							<mediatype>audio</mediatype>
							<trackindex>2</trackindex>
							<clipindex>4</clipindex>
							<groupindex>1</groupindex>
						</link>
						<logginginfo>
							<description />
							<scene />
							<shottake />
							<lognote />
							<good />
							<originalvideofilename />
							<originalaudiofilename />
						</logginginfo>
						<colorinfo>
							<lut />
							<lut1 />
							<asc_sop />
							<asc_sat />
							<lut2 />
						</colorinfo>
					<labels><label2>Lavender</label2></labels></clipitem>
					<clipitem id="clipitem-87">
						<masterclipid>clipitem-3-200</masterclipid>
						<name>Taylor_Swift_Travis_Kelce_-_The_New_Power_Couple.mp4</name>
						<enabled>TRUE</enabled>
						<duration>150</duration>
						<rate>
							<timebase>25</timebase>
							<ntsc>FALSE</ntsc>
						</rate>
						<start>91200</start>
						<end>91350</end>
						<in>29850</in>
						<out>30000</out>
						<pproTicksIn>0</pproTicksIn>
						<pproTicksOut>875013995520000</pproTicksOut>
						<alphatype>none</alphatype>
						<pixelaspectratio>square</pixelaspectratio>
						<anamorphic>FALSE</anamorphic>
						<file id="file-31">
							<name>Taylor_Swift_Travis_Kelce_-_The_New_Power_Couple.mp4</name>
							<pathurl>file://localhost/Users/themalikano/Documents/VideoAutomation/premiere_videos/Taylor_Swift_Travis_Kelce_-_The_New_Power_Couple.mp4</pathurl>
							<rate>
								<timebase>25</timebase>
								<ntsc>FALSE</ntsc>
							</rate>
							<duration>86118</duration>
							<timecode>
								<rate>
									<timebase>25</timebase>
									<ntsc>FALSE</ntsc>
								</rate>
								<string>00:00:00:00</string>
								<frame>0</frame>
								<displayformat>NDF</displayformat>
							</timecode>
							<media>
								<video>
									<samplecharacteristics>
										<rate>
											<timebase>25</timebase>
											<ntsc>FALSE</ntsc>
										</rate>
										<width>1920</width>
										<height>1080</height>
										<anamorphic>FALSE</anamorphic>
										<pixelaspectratio>square</pixelaspectratio>
										<fielddominance>none</fielddominance>
									</samplecharacteristics>
								</video>
								<audio>
									<samplecharacteristics>
										<depth>16</depth>
										<samplerate>44100</samplerate>
									</samplecharacteristics>
									<channelcount>2</channelcount>
								</audio>
							</media>
						</file>
						<link>
							<linkclipref>clipitem-87</linkclipref>
							<mediatype>video</mediatype>
							<trackindex>1</trackindex>
							<clipindex>3</clipindex>
						</link>
						<link>
							<linkclipref>clipitem-95</linkclipref>
							<mediatype>audio</mediatype>
							<trackindex>1</trackindex>
							<clipindex>3</clipindex>
							<groupindex>1</groupindex>
						</link>
						<link>
							<linkclipref>clipitem-103</linkclipref>
							<mediatype>audio</mediatype>
							<trackindex>2</trackindex>
							<clipindex>3</clipindex>
							<groupindex>1</groupindex>
						</link>
						<logginginfo>
							<description />
							<scene />
							<shottake />
							<lognote />
							<good />
							<originalvideofilename />
							<originalaudiofilename />
						</logginginfo>
						<colorinfo>
							<lut />
							<lut1 />
							<asc_sop />
							<asc_sat />
							<lut2 />
						</colorinfo>
					<labels><label2>Caribbean</label2></labels></clipitem>
					<clipitem id="clipitem-86">
						<masterclipid>clipitem-2-11</masterclipid>
						<name>Taylor_Swift_Shares_The_Story_Of_Calling_Travis_Kelce_For_The_First_Time.mp4</name>
						<enabled>TRUE</enabled>
						<duration>150</duration>
						<rate>
							<timebase>25</timebase>
							<ntsc>FALSE</ntsc>
						</rate>
						<start>91350</start>
						<end>91500</end>
						<in>1500</in>
						<out>1650</out>
						<pproTicksIn>0</pproTicksIn>
						<pproTicksOut>236438092800000</pproTicksOut>
						<alphatype>none</alphatype>
						<pixelaspectratio>square</pixelaspectratio>
						<anamorphic>FALSE</anamorphic>
						<file id="file-30">
							<name>Taylor_Swift_Shares_The_Story_Of_Calling_Travis_Kelce_For_The_First_Time.mp4</name>
							<pathurl>file://localhost/Users/themalikano/Documents/VideoAutomation/premiere_videos/Taylor_Swift_Shares_The_Story_Of_Calling_Travis_Kelce_For_The_First_Time.mp4</pathurl>
							<rate>
								<timebase>30</timebase>
								<ntsc>TRUE</ntsc>
							</rate>
							<duration>27897</duration>
							<timecode>
								<rate>
									<timebase>30</timebase>
									<ntsc>TRUE</ntsc>
								</rate>
								<string>00:00:00:00</string>
								<frame>0</frame>
								<displayformat>NDF</displayformat>
							</timecode>
							<media>
								<video>
									<samplecharacteristics>
										<rate>
											<timebase>30</timebase>
											<ntsc>TRUE</ntsc>
										</rate>
										<width>1920</width>
										<height>1080</height>
										<anamorphic>FALSE</anamorphic>
										<pixelaspectratio>square</pixelaspectratio>
										<fielddominance>none</fielddominance>
									</samplecharacteristics>
								</video>
								<audio>
									<samplecharacteristics>
										<depth>16</depth>
										<samplerate>44100</samplerate>
									</samplecharacteristics>
									<channelcount>2</channelcount>
								</audio>
							</media>
						</file>
						<link>
							<linkclipref>clipitem-86</linkclipref>
							<mediatype>video</mediatype>
							<trackindex>1</trackindex>
							<clipindex>2</clipindex>
						</link>
						<link>
							<linkclipref>clipitem-94</linkclipref>
							<mediatype>audio</mediatype>
							<trackindex>1</trackindex>
							<clipindex>2</clipindex>
							<groupindex>1</groupindex>
						</link>
						<link>
							<linkclipref>clipitem-102</linkclipref>
							<mediatype>audio</mediatype>
							<trackindex>2</trackindex>
							<clipindex>2</clipindex>
							<groupindex>1</groupindex>
						</link>
						<logginginfo>
							<description />
							<scene />
							<shottake />
							<lognote />
							<good />
							<originalvideofilename />
							<originalaudiofilename />
						</logginginfo>
						<colorinfo>
							<lut />
							<lut1 />
							<asc_sop />
							<asc_sat />
							<lut2 />
						</colorinfo>
					<labels><label2>Iris</label2></labels></clipitem>
					<clipitem id="clipitem-88">
						<masterclipid>clipitem-4-95</masterclipid>
						<name>Travis_Kelce_ANNOUNCE_WEDDING_DATE_with_Taylor_Swift_Why_He_was_Delaying_all_Along.mp4</name>
						<enabled>TRUE</enabled>
						<duration>150</duration>
						<rate>
							<timebase>25</timebase>
							<ntsc>FALSE</ntsc>
						</rate>
						<start>91500</start>
						<end>91650</end>
						<in>14100</in>
						<out>14250</out>
						<pproTicksIn>0</pproTicksIn>
						<pproTicksOut>419410897920000</pproTicksOut>
						<alphatype>none</alphatype>
						<pixelaspectratio>square</pixelaspectratio>
						<anamorphic>FALSE</anamorphic>
						<file id="file-32">
							<name>Travis_Kelce_ANNOUNCE_WEDDING_DATE_with_Taylor_Swift_Why_He_was_Delaying_all_Along.mp4</name>
							<pathurl>file://localhost/Users/themalikano/Documents/VideoAutomation/premiere_videos/Travis_Kelce_ANNOUNCE_WEDDING_DATE_with_Taylor_Swift_Why_He_was_Delaying_all_Along.mp4</pathurl>
							<rate>
								<timebase>24</timebase>
								<ntsc>FALSE</ntsc>
							</rate>
							<duration>39627</duration>
							<timecode>
								<rate>
									<timebase>24</timebase>
									<ntsc>FALSE</ntsc>
								</rate>
								<string>00:00:00:00</string>
								<frame>0</frame>
								<displayformat>NDF</displayformat>
							</timecode>
							<media>
								<video>
									<samplecharacteristics>
										<rate>
											<timebase>24</timebase>
											<ntsc>FALSE</ntsc>
										</rate>
										<width>852</width>
										<height>480</height>
										<anamorphic>FALSE</anamorphic>
										<pixelaspectratio>square</pixelaspectratio>
										<fielddominance>none</fielddominance>
									</samplecharacteristics>
								</video>
								<audio>
									<samplecharacteristics>
										<depth>16</depth>
										<samplerate>44100</samplerate>
									</samplecharacteristics>
									<channelcount>2</channelcount>
								</audio>
							</media>
						</file>
						<filter>
							<effect>
								<name>Basic Motion</name>
								<effectid>basic</effectid>
								<effectcategory>motion</effectcategory>
								<effecttype>motion</effecttype>
								<mediatype>video</mediatype>
								<pproBypass>false</pproBypass>
								<parameter authoringApp="PremierePro">
									<parameterid>scale</parameterid>
									<name>Scale</name>
									<valuemin>0</valuemin>
									<valuemax>1000</valuemax>
									<value>225</value>
								</parameter>
								<parameter authoringApp="PremierePro">
									<parameterid>rotation</parameterid>
									<name>Rotation</name>
									<valuemin>-8640</valuemin>
									<valuemax>8640</valuemax>
									<value>0</value>
								</parameter>
								<parameter authoringApp="PremierePro">
									<parameterid>center</parameterid>
									<name>Center</name>
									<value>
										<horiz>0</horiz>
										<vert>0</vert>
									</value>
								</parameter>
								<parameter authoringApp="PremierePro">
									<parameterid>centerOffset</parameterid>
									<name>Anchor Point</name>
									<value>
										<horiz>0</horiz>
										<vert>0</vert>
									</value>
								</parameter>
								<parameter authoringApp="PremierePro">
									<parameterid>antiflicker</parameterid>
									<name>Anti-flicker Filter</name>
									<valuemin>0.0</valuemin>
									<valuemax>1.0</valuemax>
									<value>0</value>
								</parameter>
							</effect>
						</filter>
						<link>
							<linkclipref>clipitem-88</linkclipref>
							<mediatype>video</mediatype>
							<trackindex>1</trackindex>
							<clipindex>4</clipindex>
						</link>
						<link>
							<linkclipref>clipitem-96</linkclipref>
							<mediatype>audio</mediatype>
							<trackindex>1</trackindex>
							<clipindex>4</clipindex>
							<groupindex>1</groupindex>
						</link>
						<link>
							<linkclipref>clipitem-104</linkclipref>
							<mediatype>audio</mediatype>
							<trackindex>2</trackindex>
							<clipindex>4</clipindex>
							<groupindex>1</groupindex>
						</link>
						<logginginfo>
							<description />
							<scene />
							<shottake />
							<lognote />
							<good />
							<originalvideofilename />
							<originalaudiofilename />
						</logginginfo>
						<colorinfo>
							<lut />
							<lut1 />
							<asc_sop />
							<asc_sat />
							<lut2 />
						</colorinfo>
					<labels><label2>Lavender</label2></labels></clipitem>
					<clipitem id="clipitem-87">
						<masterclipid>clipitem-3-306</masterclipid>
						<name>Taylor_Swift_Travis_Kelce_-_The_New_Power_Couple.mp4</name>
						<enabled>TRUE</enabled>
						<duration>150</duration>
						<rate>
							<timebase>25</timebase>
							<ntsc>FALSE</ntsc>
						</rate>
						<start>91650</start>
						<end>91800</end>
						<in>45750</in>
						<out>45900</out>
						<pproTicksIn>0</pproTicksIn>
						<pproTicksOut>875013995520000</pproTicksOut>
						<alphatype>none</alphatype>
						<pixelaspectratio>square</pixelaspectratio>
						<anamorphic>FALSE</anamorphic>
						<file id="file-31">
							<name>Taylor_Swift_Travis_Kelce_-_The_New_Power_Couple.mp4</name>
							<pathurl>file://localhost/Users/themalikano/Documents/VideoAutomation/premiere_videos/Taylor_Swift_Travis_Kelce_-_The_New_Power_Couple.mp4</pathurl>
							<rate>
								<timebase>25</timebase>
								<ntsc>FALSE</ntsc>
							</rate>
							<duration>86118</duration>
							<timecode>
								<rate>
									<timebase>25</timebase>
									<ntsc>FALSE</ntsc>
								</rate>
								<string>00:00:00:00</string>
								<frame>0</frame>
								<displayformat>NDF</displayformat>
							</timecode>
							<media>
								<video>
									<samplecharacteristics>
										<rate>
											<timebase>25</timebase>
											<ntsc>FALSE</ntsc>
										</rate>
										<width>1920</width>
										<height>1080</height>
										<anamorphic>FALSE</anamorphic>
										<pixelaspectratio>square</pixelaspectratio>
										<fielddominance>none</fielddominance>
									</samplecharacteristics>
								</video>
								<audio>
									<samplecharacteristics>
										<depth>16</depth>
										<samplerate>44100</samplerate>
									</samplecharacteristics>
									<channelcount>2</channelcount>
								</audio>
							</media>
						</file>
						<link>
							<linkclipref>clipitem-87</linkclipref>
							<mediatype>video</mediatype>
							<trackindex>1</trackindex>
							<clipindex>3</clipindex>
						</link>
						<link>
							<linkclipref>clipitem-95</linkclipref>
							<mediatype>audio</mediatype>
							<trackindex>1</trackindex>
							<clipindex>3</clipindex>
							<groupindex>1</groupindex>
						</link>
						<link>
							<linkclipref>clipitem-103</linkclipref>
							<mediatype>audio</mediatype>
							<trackindex>2</trackindex>
							<clipindex>3</clipindex>
							<groupindex>1</groupindex>
						</link>
						<logginginfo>
							<description />
							<scene />
							<shottake />
							<lognote />
							<good />
							<originalvideofilename />
							<originalaudiofilename />
						</logginginfo>
						<colorinfo>
							<lut />
							<lut1 />
							<asc_sop />
							<asc_sat />
							<lut2 />
						</colorinfo>
					<labels><label2>Caribbean</label2></labels></clipitem>
					<clipitem id="clipitem-88">
						<masterclipid>clipitem-4-175</masterclipid>
						<name>Travis_Kelce_ANNOUNCE_WEDDING_DATE_with_Taylor_Swift_Why_He_was_Delaying_all_Along.mp4</name>
						<enabled>TRUE</enabled>
						<duration>150</duration>
						<rate>
							<timebase>25</timebase>
							<ntsc>FALSE</ntsc>
						</rate>
						<start>91800</start>
						<end>91950</end>
						<in>26100</in>
						<out>26250</out>
						<pproTicksIn>0</pproTicksIn>
						<pproTicksOut>419410897920000</pproTicksOut>
						<alphatype>none</alphatype>
						<pixelaspectratio>square</pixelaspectratio>
						<anamorphic>FALSE</anamorphic>
						<file id="file-32">
							<name>Travis_Kelce_ANNOUNCE_WEDDING_DATE_with_Taylor_Swift_Why_He_was_Delaying_all_Along.mp4</name>
							<pathurl>file://localhost/Users/themalikano/Documents/VideoAutomation/premiere_videos/Travis_Kelce_ANNOUNCE_WEDDING_DATE_with_Taylor_Swift_Why_He_was_Delaying_all_Along.mp4</pathurl>
							<rate>
								<timebase>24</timebase>
								<ntsc>FALSE</ntsc>
							</rate>
							<duration>39627</duration>
							<timecode>
								<rate>
									<timebase>24</timebase>
									<ntsc>FALSE</ntsc>
								</rate>
								<string>00:00:00:00</string>
								<frame>0</frame>
								<displayformat>NDF</displayformat>
							</timecode>
							<media>
								<video>
									<samplecharacteristics>
										<rate>
											<timebase>24</timebase>
											<ntsc>FALSE</ntsc>
										</rate>
										<width>852</width>
										<height>480</height>
										<anamorphic>FALSE</anamorphic>
										<pixelaspectratio>square</pixelaspectratio>
										<fielddominance>none</fielddominance>
									</samplecharacteristics>
								</video>
								<audio>
									<samplecharacteristics>
										<depth>16</depth>
										<samplerate>44100</samplerate>
									</samplecharacteristics>
									<channelcount>2</channelcount>
								</audio>
							</media>
						</file>
						<filter>
							<effect>
								<name>Basic Motion</name>
								<effectid>basic</effectid>
								<effectcategory>motion</effectcategory>
								<effecttype>motion</effecttype>
								<mediatype>video</mediatype>
								<pproBypass>false</pproBypass>
								<parameter authoringApp="PremierePro">
									<parameterid>scale</parameterid>
									<name>Scale</name>
									<valuemin>0</valuemin>
									<valuemax>1000</valuemax>
									<value>225</value>
								</parameter>
								<parameter authoringApp="PremierePro">
									<parameterid>rotation</parameterid>
									<name>Rotation</name>
									<valuemin>-8640</valuemin>
									<valuemax>8640</valuemax>
									<value>0</value>
								</parameter>
								<parameter authoringApp="PremierePro">
									<parameterid>center</parameterid>
									<name>Center</name>
									<value>
										<horiz>0</horiz>
										<vert>0</vert>
									</value>
								</parameter>
								<parameter authoringApp="PremierePro">
									<parameterid>centerOffset</parameterid>
									<name>Anchor Point</name>
									<value>
										<horiz>0</horiz>
										<vert>0</vert>
									</value>
								</parameter>
								<parameter authoringApp="PremierePro">
									<parameterid>antiflicker</parameterid>
									<name>Anti-flicker Filter</name>
									<valuemin>0.0</valuemin>
									<valuemax>1.0</valuemax>
									<value>0</value>
								</parameter>
							</effect>
						</filter>
						<link>
							<linkclipref>clipitem-88</linkclipref>
							<mediatype>video</mediatype>
							<trackindex>1</trackindex>
							<clipindex>4</clipindex>
						</link>
						<link>
							<linkclipref>clipitem-96</linkclipref>
							<mediatype>audio</mediatype>
							<trackindex>1</trackindex>
							<clipindex>4</clipindex>
							<groupindex>1</groupindex>
						</link>
						<link>
							<linkclipref>clipitem-104</linkclipref>
							<mediatype>audio</mediatype>
							<trackindex>2</trackindex>
							<clipindex>4</clipindex>
							<groupindex>1</groupindex>
						</link>
						<logginginfo>
							<description />
							<scene />
							<shottake />
							<lognote />
							<good />
							<originalvideofilename />
							<originalaudiofilename />
						</logginginfo>
						<colorinfo>
							<lut />
							<lut1 />
							<asc_sop />
							<asc_sat />
							<lut2 />
						</colorinfo>
					<labels><label2>Lavender</label2></labels></clipitem>
					<clipitem id="clipitem-87">
						<masterclipid>clipitem-3-359</masterclipid>
						<name>Taylor_Swift_Travis_Kelce_-_The_New_Power_Couple.mp4</name>
						<enabled>TRUE</enabled>
						<duration>150</duration>
						<rate>
							<timebase>25</timebase>
							<ntsc>FALSE</ntsc>
						</rate>
						<start>91950</start>
						<end>92100</end>
						<in>53700</in>
						<out>53850</out>
						<pproTicksIn>0</pproTicksIn>
						<pproTicksOut>875013995520000</pproTicksOut>
						<alphatype>none</alphatype>
						<pixelaspectratio>square</pixelaspectratio>
						<anamorphic>FALSE</anamorphic>
						<file id="file-31">
							<name>Taylor_Swift_Travis_Kelce_-_The_New_Power_Couple.mp4</name>
							<pathurl>file://localhost/Users/themalikano/Documents/VideoAutomation/premiere_videos/Taylor_Swift_Travis_Kelce_-_The_New_Power_Couple.mp4</pathurl>
							<rate>
								<timebase>25</timebase>
								<ntsc>FALSE</ntsc>
							</rate>
							<duration>86118</duration>
							<timecode>
								<rate>
									<timebase>25</timebase>
									<ntsc>FALSE</ntsc>
								</rate>
								<string>00:00:00:00</string>
								<frame>0</frame>
								<displayformat>NDF</displayformat>
							</timecode>
							<media>
								<video>
									<samplecharacteristics>
										<rate>
											<timebase>25</timebase>
											<ntsc>FALSE</ntsc>
										</rate>
										<width>1920</width>
										<height>1080</height>
										<anamorphic>FALSE</anamorphic>
										<pixelaspectratio>square</pixelaspectratio>
										<fielddominance>none</fielddominance>
									</samplecharacteristics>
								</video>
								<audio>
									<samplecharacteristics>
										<depth>16</depth>
										<samplerate>44100</samplerate>
									</samplecharacteristics>
									<channelcount>2</channelcount>
								</audio>
							</media>
						</file>
						<link>
							<linkclipref>clipitem-87</linkclipref>
							<mediatype>video</mediatype>
							<trackindex>1</trackindex>
							<clipindex>3</clipindex>
						</link>
						<link>
							<linkclipref>clipitem-95</linkclipref>
							<mediatype>audio</mediatype>
							<trackindex>1</trackindex>
							<clipindex>3</clipindex>
							<groupindex>1</groupindex>
						</link>
						<link>
							<linkclipref>clipitem-103</linkclipref>
							<mediatype>audio</mediatype>
							<trackindex>2</trackindex>
							<clipindex>3</clipindex>
							<groupindex>1</groupindex>
						</link>
						<logginginfo>
							<description />
							<scene />
							<shottake />
							<lognote />
							<good />
							<originalvideofilename />
							<originalaudiofilename />
						</logginginfo>
						<colorinfo>
							<lut />
							<lut1 />
							<asc_sop />
							<asc_sat />
							<lut2 />
						</colorinfo>
					<labels><label2>Caribbean</label2></labels></clipitem>
					<clipitem id="clipitem-86">
						<masterclipid>clipitem-2-117</masterclipid>
						<name>Taylor_Swift_Shares_The_Story_Of_Calling_Travis_Kelce_For_The_First_Time.mp4</name>
						<enabled>TRUE</enabled>
						<duration>150</duration>
						<rate>
							<timebase>25</timebase>
							<ntsc>FALSE</ntsc>
						</rate>
						<start>92100</start>
						<end>92250</end>
						<in>17400</in>
						<out>17550</out>
						<pproTicksIn>0</pproTicksIn>
						<pproTicksOut>236438092800000</pproTicksOut>
						<alphatype>none</alphatype>
						<pixelaspectratio>square</pixelaspectratio>
						<anamorphic>FALSE</anamorphic>
						<file id="file-30">
							<name>Taylor_Swift_Shares_The_Story_Of_Calling_Travis_Kelce_For_The_First_Time.mp4</name>
							<pathurl>file://localhost/Users/themalikano/Documents/VideoAutomation/premiere_videos/Taylor_Swift_Shares_The_Story_Of_Calling_Travis_Kelce_For_The_First_Time.mp4</pathurl>
							<rate>
								<timebase>30</timebase>
								<ntsc>TRUE</ntsc>
							</rate>
							<duration>27897</duration>
							<timecode>
								<rate>
									<timebase>30</timebase>
									<ntsc>TRUE</ntsc>
								</rate>
								<string>00:00:00:00</string>
								<frame>0</frame>
								<displayformat>NDF</displayformat>
							</timecode>
							<media>
								<video>
									<samplecharacteristics>
										<rate>
											<timebase>30</timebase>
											<ntsc>TRUE</ntsc>
										</rate>
										<width>1920</width>
										<height>1080</height>
										<anamorphic>FALSE</anamorphic>
										<pixelaspectratio>square</pixelaspectratio>
										<fielddominance>none</fielddominance>
									</samplecharacteristics>
								</video>
								<audio>
									<samplecharacteristics>
										<depth>16</depth>
										<samplerate>44100</samplerate>
									</samplecharacteristics>
									<channelcount>2</channelcount>
								</audio>
							</media>
						</file>
						<link>
							<linkclipref>clipitem-86</linkclipref>
							<mediatype>video</mediatype>
							<trackindex>1</trackindex>
							<clipindex>2</clipindex>
						</link>
						<link>
							<linkclipref>clipitem-94</linkclipref>
							<mediatype>audio</mediatype>
							<trackindex>1</trackindex>
							<clipindex>2</clipindex>
							<groupindex>1</groupindex>
						</link>
						<link>
							<linkclipref>clipitem-102</linkclipref>
							<mediatype>audio</mediatype>
							<trackindex>2</trackindex>
							<clipindex>2</clipindex>
							<groupindex>1</groupindex>
						</link>
						<logginginfo>
							<description />
							<scene />
							<shottake />
							<lognote />
							<good />
							<originalvideofilename />
							<originalaudiofilename />
						</logginginfo>
						<colorinfo>
							<lut />
							<lut1 />
							<asc_sop />
							<asc_sat />
							<lut2 />
						</colorinfo>
					<labels><label2>Iris</label2></labels></clipitem>
					<clipitem id="clipitem-88">
						<masterclipid>clipitem-4-223</masterclipid>
						<name>Travis_Kelce_ANNOUNCE_WEDDING_DATE_with_Taylor_Swift_Why_He_was_Delaying_all_Along.mp4</name>
						<enabled>TRUE</enabled>
						<duration>150</duration>
						<rate>
							<timebase>25</timebase>
							<ntsc>FALSE</ntsc>
						</rate>
						<start>92250</start>
						<end>92400</end>
						<in>33300</in>
						<out>33450</out>
						<pproTicksIn>0</pproTicksIn>
						<pproTicksOut>419410897920000</pproTicksOut>
						<alphatype>none</alphatype>
						<pixelaspectratio>square</pixelaspectratio>
						<anamorphic>FALSE</anamorphic>
						<file id="file-32">
							<name>Travis_Kelce_ANNOUNCE_WEDDING_DATE_with_Taylor_Swift_Why_He_was_Delaying_all_Along.mp4</name>
							<pathurl>file://localhost/Users/themalikano/Documents/VideoAutomation/premiere_videos/Travis_Kelce_ANNOUNCE_WEDDING_DATE_with_Taylor_Swift_Why_He_was_Delaying_all_Along.mp4</pathurl>
							<rate>
								<timebase>24</timebase>
								<ntsc>FALSE</ntsc>
							</rate>
							<duration>39627</duration>
							<timecode>
								<rate>
									<timebase>24</timebase>
									<ntsc>FALSE</ntsc>
								</rate>
								<string>00:00:00:00</string>
								<frame>0</frame>
								<displayformat>NDF</displayformat>
							</timecode>
							<media>
								<video>
									<samplecharacteristics>
										<rate>
											<timebase>24</timebase>
											<ntsc>FALSE</ntsc>
										</rate>
										<width>852</width>
										<height>480</height>
										<anamorphic>FALSE</anamorphic>
										<pixelaspectratio>square</pixelaspectratio>
										<fielddominance>none</fielddominance>
									</samplecharacteristics>
								</video>
								<audio>
									<samplecharacteristics>
										<depth>16</depth>
										<samplerate>44100</samplerate>
									</samplecharacteristics>
									<channelcount>2</channelcount>
								</audio>
							</media>
						</file>
						<filter>
							<effect>
								<name>Basic Motion</name>
								<effectid>basic</effectid>
								<effectcategory>motion</effectcategory>
								<effecttype>motion</effecttype>
								<mediatype>video</mediatype>
								<pproBypass>false</pproBypass>
								<parameter authoringApp="PremierePro">
									<parameterid>scale</parameterid>
									<name>Scale</name>
									<valuemin>0</valuemin>
									<valuemax>1000</valuemax>
									<value>225</value>
								</parameter>
								<parameter authoringApp="PremierePro">
									<parameterid>rotation</parameterid>
									<name>Rotation</name>
									<valuemin>-8640</valuemin>
									<valuemax>8640</valuemax>
									<value>0</value>
								</parameter>
								<parameter authoringApp="PremierePro">
									<parameterid>center</parameterid>
									<name>Center</name>
									<value>
										<horiz>0</horiz>
										<vert>0</vert>
									</value>
								</parameter>
								<parameter authoringApp="PremierePro">
									<parameterid>centerOffset</parameterid>
									<name>Anchor Point</name>
									<value>
										<horiz>0</horiz>
										<vert>0</vert>
									</value>
								</parameter>
								<parameter authoringApp="PremierePro">
									<parameterid>antiflicker</parameterid>
									<name>Anti-flicker Filter</name>
									<valuemin>0.0</valuemin>
									<valuemax>1.0</valuemax>
									<value>0</value>
								</parameter>
							</effect>
						</filter>
						<link>
							<linkclipref>clipitem-88</linkclipref>
							<mediatype>video</mediatype>
							<trackindex>1</trackindex>
							<clipindex>4</clipindex>
						</link>
						<link>
							<linkclipref>clipitem-96</linkclipref>
							<mediatype>audio</mediatype>
							<trackindex>1</trackindex>
							<clipindex>4</clipindex>
							<groupindex>1</groupindex>
						</link>
						<link>
							<linkclipref>clipitem-104</linkclipref>
							<mediatype>audio</mediatype>
							<trackindex>2</trackindex>
							<clipindex>4</clipindex>
							<groupindex>1</groupindex>
						</link>
						<logginginfo>
							<description />
							<scene />
							<shottake />
							<lognote />
							<good />
							<originalvideofilename />
							<originalaudiofilename />
						</logginginfo>
						<colorinfo>
							<lut />
							<lut1 />
							<asc_sop />
							<asc_sat />
							<lut2 />
						</colorinfo>
					<labels><label2>Lavender</label2></labels></clipitem>
					<clipitem id="clipitem-86">
						<masterclipid>clipitem-2-64</masterclipid>
						<name>Taylor_Swift_Shares_The_Story_Of_Calling_Travis_Kelce_For_The_First_Time.mp4</name>
						<enabled>TRUE</enabled>
						<duration>150</duration>
						<rate>
							<timebase>25</timebase>
							<ntsc>FALSE</ntsc>
						</rate>
						<start>92400</start>
						<end>92550</end>
						<in>9450</in>
						<out>9600</out>
						<pproTicksIn>0</pproTicksIn>
						<pproTicksOut>236438092800000</pproTicksOut>
						<alphatype>none</alphatype>
						<pixelaspectratio>square</pixelaspectratio>
						<anamorphic>FALSE</anamorphic>
						<file id="file-30">
							<name>Taylor_Swift_Shares_The_Story_Of_Calling_Travis_Kelce_For_The_First_Time.mp4</name>
							<pathurl>file://localhost/Users/themalikano/Documents/VideoAutomation/premiere_videos/Taylor_Swift_Shares_The_Story_Of_Calling_Travis_Kelce_For_The_First_Time.mp4</pathurl>
							<rate>
								<timebase>30</timebase>
								<ntsc>TRUE</ntsc>
							</rate>
							<duration>27897</duration>
							<timecode>
								<rate>
									<timebase>30</timebase>
									<ntsc>TRUE</ntsc>
								</rate>
								<string>00:00:00:00</string>
								<frame>0</frame>
								<displayformat>NDF</displayformat>
							</timecode>
							<media>
								<video>
									<samplecharacteristics>
										<rate>
											<timebase>30</timebase>
											<ntsc>TRUE</ntsc>
										</rate>
										<width>1920</width>
										<height>1080</height>
										<anamorphic>FALSE</anamorphic>
										<pixelaspectratio>square</pixelaspectratio>
										<fielddominance>none</fielddominance>
									</samplecharacteristics>
								</video>
								<audio>
									<samplecharacteristics>
										<depth>16</depth>
										<samplerate>44100</samplerate>
									</samplecharacteristics>
									<channelcount>2</channelcount>
								</audio>
							</media>
						</file>
						<link>
							<linkclipref>clipitem-86</linkclipref>
							<mediatype>video</mediatype>
							<trackindex>1</trackindex>
							<clipindex>2</clipindex>
						</link>
						<link>
							<linkclipref>clipitem-94</linkclipref>
							<mediatype>audio</mediatype>
							<trackindex>1</trackindex>
							<clipindex>2</clipindex>
							<groupindex>1</groupindex>
						</link>
						<link>
							<linkclipref>clipitem-102</linkclipref>
							<mediatype>audio</mediatype>
							<trackindex>2</trackindex>
							<clipindex>2</clipindex>
							<groupindex>1</groupindex>
						</link>
						<logginginfo>
							<description />
							<scene />
							<shottake />
							<lognote />
							<good />
							<originalvideofilename />
							<originalaudiofilename />
						</logginginfo>
						<colorinfo>
							<lut />
							<lut1 />
							<asc_sop />
							<asc_sat />
							<lut2 />
						</colorinfo>
					<labels><label2>Iris</label2></labels></clipitem>
					<clipitem id="clipitem-87">
						<masterclipid>clipitem-3-5</masterclipid>
						<name>Taylor_Swift_Travis_Kelce_-_The_New_Power_Couple.mp4</name>
						<enabled>TRUE</enabled>
						<duration>150</duration>
						<rate>
							<timebase>25</timebase>
							<ntsc>FALSE</ntsc>
						</rate>
						<start>92550</start>
						<end>92700</end>
						<in>600</in>
						<out>750</out>
						<pproTicksIn>0</pproTicksIn>
						<pproTicksOut>875013995520000</pproTicksOut>
						<alphatype>none</alphatype>
						<pixelaspectratio>square</pixelaspectratio>
						<anamorphic>FALSE</anamorphic>
						<file id="file-31">
							<name>Taylor_Swift_Travis_Kelce_-_The_New_Power_Couple.mp4</name>
							<pathurl>file://localhost/Users/themalikano/Documents/VideoAutomation/premiere_videos/Taylor_Swift_Travis_Kelce_-_The_New_Power_Couple.mp4</pathurl>
							<rate>
								<timebase>25</timebase>
								<ntsc>FALSE</ntsc>
							</rate>
							<duration>86118</duration>
							<timecode>
								<rate>
									<timebase>25</timebase>
									<ntsc>FALSE</ntsc>
								</rate>
								<string>00:00:00:00</string>
								<frame>0</frame>
								<displayformat>NDF</displayformat>
							</timecode>
							<media>
								<video>
									<samplecharacteristics>
										<rate>
											<timebase>25</timebase>
											<ntsc>FALSE</ntsc>
										</rate>
										<width>1920</width>
										<height>1080</height>
										<anamorphic>FALSE</anamorphic>
										<pixelaspectratio>square</pixelaspectratio>
										<fielddominance>none</fielddominance>
									</samplecharacteristics>
								</video>
								<audio>
									<samplecharacteristics>
										<depth>16</depth>
										<samplerate>44100</samplerate>
									</samplecharacteristics>
									<channelcount>2</channelcount>
								</audio>
							</media>
						</file>
						<link>
							<linkclipref>clipitem-87</linkclipref>
							<mediatype>video</mediatype>
							<trackindex>1</trackindex>
							<clipindex>3</clipindex>
						</link>
						<link>
							<linkclipref>clipitem-95</linkclipref>
							<mediatype>audio</mediatype>
							<trackindex>1</trackindex>
							<clipindex>3</clipindex>
							<groupindex>1</groupindex>
						</link>
						<link>
							<linkclipref>clipitem-103</linkclipref>
							<mediatype>audio</mediatype>
							<trackindex>2</trackindex>
							<clipindex>3</clipindex>
							<groupindex>1</groupindex>
						</link>
						<logginginfo>
							<description />
							<scene />
							<shottake />
							<lognote />
							<good />
							<originalvideofilename />
							<originalaudiofilename />
						</logginginfo>
						<colorinfo>
							<lut />
							<lut1 />
							<asc_sop />
							<asc_sat />
							<lut2 />
						</colorinfo>
					<labels><label2>Caribbean</label2></labels></clipitem>
					<clipitem id="clipitem-86">
						<masterclipid>clipitem-2-10</masterclipid>
						<name>Taylor_Swift_Shares_The_Story_Of_Calling_Travis_Kelce_For_The_First_Time.mp4</name>
						<enabled>TRUE</enabled>
						<duration>150</duration>
						<rate>
							<timebase>25</timebase>
							<ntsc>FALSE</ntsc>
						</rate>
						<start>92700</start>
						<end>92850</end>
						<in>1350</in>
						<out>1500</out>
						<pproTicksIn>0</pproTicksIn>
						<pproTicksOut>236438092800000</pproTicksOut>
						<alphatype>none</alphatype>
						<pixelaspectratio>square</pixelaspectratio>
						<anamorphic>FALSE</anamorphic>
						<file id="file-30">
							<name>Taylor_Swift_Shares_The_Story_Of_Calling_Travis_Kelce_For_The_First_Time.mp4</name>
							<pathurl>file://localhost/Users/themalikano/Documents/VideoAutomation/premiere_videos/Taylor_Swift_Shares_The_Story_Of_Calling_Travis_Kelce_For_The_First_Time.mp4</pathurl>
							<rate>
								<timebase>30</timebase>
								<ntsc>TRUE</ntsc>
							</rate>
							<duration>27897</duration>
							<timecode>
								<rate>
									<timebase>30</timebase>
									<ntsc>TRUE</ntsc>
								</rate>
								<string>00:00:00:00</string>
								<frame>0</frame>
								<displayformat>NDF</displayformat>
							</timecode>
							<media>
								<video>
									<samplecharacteristics>
										<rate>
											<timebase>30</timebase>
											<ntsc>TRUE</ntsc>
										</rate>
										<width>1920</width>
										<height>1080</height>
										<anamorphic>FALSE</anamorphic>
										<pixelaspectratio>square</pixelaspectratio>
										<fielddominance>none</fielddominance>
									</samplecharacteristics>
								</video>
								<audio>
									<samplecharacteristics>
										<depth>16</depth>
										<samplerate>44100</samplerate>
									</samplecharacteristics>
									<channelcount>2</channelcount>
								</audio>
							</media>
						</file>
						<link>
							<linkclipref>clipitem-86</linkclipref>
							<mediatype>video</mediatype>
							<trackindex>1</trackindex>
							<clipindex>2</clipindex>
						</link>
						<link>
							<linkclipref>clipitem-94</linkclipref>
							<mediatype>audio</mediatype>
							<trackindex>1</trackindex>
							<clipindex>2</clipindex>
							<groupindex>1</groupindex>
						</link>
						<link>
							<linkclipref>clipitem-102</linkclipref>
							<mediatype>audio</mediatype>
							<trackindex>2</trackindex>
							<clipindex>2</clipindex>
							<groupindex>1</groupindex>
						</link>
						<logginginfo>
							<description />
							<scene />
							<shottake />
							<lognote />
							<good />
							<originalvideofilename />
							<originalaudiofilename />
						</logginginfo>
						<colorinfo>
							<lut />
							<lut1 />
							<asc_sop />
							<asc_sat />
							<lut2 />
						</colorinfo>
					<labels><label2>Iris</label2></labels></clipitem>
					<clipitem id="clipitem-88">
						<masterclipid>clipitem-4-167</masterclipid>
						<name>Travis_Kelce_ANNOUNCE_WEDDING_DATE_with_Taylor_Swift_Why_He_was_Delaying_all_Along.mp4</name>
						<enabled>TRUE</enabled>
						<duration>150</duration>
						<rate>
							<timebase>25</timebase>
							<ntsc>FALSE</ntsc>
						</rate>
						<start>92850</start>
						<end>93000</end>
						<in>24900</in>
						<out>25050</out>
						<pproTicksIn>0</pproTicksIn>
						<pproTicksOut>419410897920000</pproTicksOut>
						<alphatype>none</alphatype>
						<pixelaspectratio>square</pixelaspectratio>
						<anamorphic>FALSE</anamorphic>
						<file id="file-32">
							<name>Travis_Kelce_ANNOUNCE_WEDDING_DATE_with_Taylor_Swift_Why_He_was_Delaying_all_Along.mp4</name>
							<pathurl>file://localhost/Users/themalikano/Documents/VideoAutomation/premiere_videos/Travis_Kelce_ANNOUNCE_WEDDING_DATE_with_Taylor_Swift_Why_He_was_Delaying_all_Along.mp4</pathurl>
							<rate>
								<timebase>24</timebase>
								<ntsc>FALSE</ntsc>
							</rate>
							<duration>39627</duration>
							<timecode>
								<rate>
									<timebase>24</timebase>
									<ntsc>FALSE</ntsc>
								</rate>
								<string>00:00:00:00</string>
								<frame>0</frame>
								<displayformat>NDF</displayformat>
							</timecode>
							<media>
								<video>
									<samplecharacteristics>
										<rate>
											<timebase>24</timebase>
											<ntsc>FALSE</ntsc>
										</rate>
										<width>852</width>
										<height>480</height>
										<anamorphic>FALSE</anamorphic>
										<pixelaspectratio>square</pixelaspectratio>
										<fielddominance>none</fielddominance>
									</samplecharacteristics>
								</video>
								<audio>
									<samplecharacteristics>
										<depth>16</depth>
										<samplerate>44100</samplerate>
									</samplecharacteristics>
									<channelcount>2</channelcount>
								</audio>
							</media>
						</file>
						<filter>
							<effect>
								<name>Basic Motion</name>
								<effectid>basic</effectid>
								<effectcategory>motion</effectcategory>
								<effecttype>motion</effecttype>
								<mediatype>video</mediatype>
								<pproBypass>false</pproBypass>
								<parameter authoringApp="PremierePro">
									<parameterid>scale</parameterid>
									<name>Scale</name>
									<valuemin>0</valuemin>
									<valuemax>1000</valuemax>
									<value>225</value>
								</parameter>
								<parameter authoringApp="PremierePro">
									<parameterid>rotation</parameterid>
									<name>Rotation</name>
									<valuemin>-8640</valuemin>
									<valuemax>8640</valuemax>
									<value>0</value>
								</parameter>
								<parameter authoringApp="PremierePro">
									<parameterid>center</parameterid>
									<name>Center</name>
									<value>
										<horiz>0</horiz>
										<vert>0</vert>
									</value>
								</parameter>
								<parameter authoringApp="PremierePro">
									<parameterid>centerOffset</parameterid>
									<name>Anchor Point</name>
									<value>
										<horiz>0</horiz>
										<vert>0</vert>
									</value>
								</parameter>
								<parameter authoringApp="PremierePro">
									<parameterid>antiflicker</parameterid>
									<name>Anti-flicker Filter</name>
									<valuemin>0.0</valuemin>
									<valuemax>1.0</valuemax>
									<value>0</value>
								</parameter>
							</effect>
						</filter>
						<link>
							<linkclipref>clipitem-88</linkclipref>
							<mediatype>video</mediatype>
							<trackindex>1</trackindex>
							<clipindex>4</clipindex>
						</link>
						<link>
							<linkclipref>clipitem-96</linkclipref>
							<mediatype>audio</mediatype>
							<trackindex>1</trackindex>
							<clipindex>4</clipindex>
							<groupindex>1</groupindex>
						</link>
						<link>
							<linkclipref>clipitem-104</linkclipref>
							<mediatype>audio</mediatype>
							<trackindex>2</trackindex>
							<clipindex>4</clipindex>
							<groupindex>1</groupindex>
						</link>
						<logginginfo>
							<description />
							<scene />
							<shottake />
							<lognote />
							<good />
							<originalvideofilename />
							<originalaudiofilename />
						</logginginfo>
						<colorinfo>
							<lut />
							<lut1 />
							<asc_sop />
							<asc_sat />
							<lut2 />
						</colorinfo>
					<labels><label2>Lavender</label2></labels></clipitem>
					<clipitem id="clipitem-87">
						<masterclipid>clipitem-3-56</masterclipid>
						<name>Taylor_Swift_Travis_Kelce_-_The_New_Power_Couple.mp4</name>
						<enabled>TRUE</enabled>
						<duration>150</duration>
						<rate>
							<timebase>25</timebase>
							<ntsc>FALSE</ntsc>
						</rate>
						<start>93000</start>
						<end>93150</end>
						<in>8250</in>
						<out>8400</out>
						<pproTicksIn>0</pproTicksIn>
						<pproTicksOut>875013995520000</pproTicksOut>
						<alphatype>none</alphatype>
						<pixelaspectratio>square</pixelaspectratio>
						<anamorphic>FALSE</anamorphic>
						<file id="file-31">
							<name>Taylor_Swift_Travis_Kelce_-_The_New_Power_Couple.mp4</name>
							<pathurl>file://localhost/Users/themalikano/Documents/VideoAutomation/premiere_videos/Taylor_Swift_Travis_Kelce_-_The_New_Power_Couple.mp4</pathurl>
							<rate>
								<timebase>25</timebase>
								<ntsc>FALSE</ntsc>
							</rate>
							<duration>86118</duration>
							<timecode>
								<rate>
									<timebase>25</timebase>
									<ntsc>FALSE</ntsc>
								</rate>
								<string>00:00:00:00</string>
								<frame>0</frame>
								<displayformat>NDF</displayformat>
							</timecode>
							<media>
								<video>
									<samplecharacteristics>
										<rate>
											<timebase>25</timebase>
											<ntsc>FALSE</ntsc>
										</rate>
										<width>1920</width>
										<height>1080</height>
										<anamorphic>FALSE</anamorphic>
										<pixelaspectratio>square</pixelaspectratio>
										<fielddominance>none</fielddominance>
									</samplecharacteristics>
								</video>
								<audio>
									<samplecharacteristics>
										<depth>16</depth>
										<samplerate>44100</samplerate>
									</samplecharacteristics>
									<channelcount>2</channelcount>
								</audio>
							</media>
						</file>
						<link>
							<linkclipref>clipitem-87</linkclipref>
							<mediatype>video</mediatype>
							<trackindex>1</trackindex>
							<clipindex>3</clipindex>
						</link>
						<link>
							<linkclipref>clipitem-95</linkclipref>
							<mediatype>audio</mediatype>
							<trackindex>1</trackindex>
							<clipindex>3</clipindex>
							<groupindex>1</groupindex>
						</link>
						<link>
							<linkclipref>clipitem-103</linkclipref>
							<mediatype>audio</mediatype>
							<trackindex>2</trackindex>
							<clipindex>3</clipindex>
							<groupindex>1</groupindex>
						</link>
						<logginginfo>
							<description />
							<scene />
							<shottake />
							<lognote />
							<good />
							<originalvideofilename />
							<originalaudiofilename />
						</logginginfo>
						<colorinfo>
							<lut />
							<lut1 />
							<asc_sop />
							<asc_sat />
							<lut2 />
						</colorinfo>
					<labels><label2>Caribbean</label2></labels></clipitem>
					<clipitem id="clipitem-88">
						<masterclipid>clipitem-4-208</masterclipid>
						<name>Travis_Kelce_ANNOUNCE_WEDDING_DATE_with_Taylor_Swift_Why_He_was_Delaying_all_Along.mp4</name>
						<enabled>TRUE</enabled>
						<duration>150</duration>
						<rate>
							<timebase>25</timebase>
							<ntsc>FALSE</ntsc>
						</rate>
						<start>93150</start>
						<end>93300</end>
						<in>31050</in>
						<out>31200</out>
						<pproTicksIn>0</pproTicksIn>
						<pproTicksOut>419410897920000</pproTicksOut>
						<alphatype>none</alphatype>
						<pixelaspectratio>square</pixelaspectratio>
						<anamorphic>FALSE</anamorphic>
						<file id="file-32">
							<name>Travis_Kelce_ANNOUNCE_WEDDING_DATE_with_Taylor_Swift_Why_He_was_Delaying_all_Along.mp4</name>
							<pathurl>file://localhost/Users/themalikano/Documents/VideoAutomation/premiere_videos/Travis_Kelce_ANNOUNCE_WEDDING_DATE_with_Taylor_Swift_Why_He_was_Delaying_all_Along.mp4</pathurl>
							<rate>
								<timebase>24</timebase>
								<ntsc>FALSE</ntsc>
							</rate>
							<duration>39627</duration>
							<timecode>
								<rate>
									<timebase>24</timebase>
									<ntsc>FALSE</ntsc>
								</rate>
								<string>00:00:00:00</string>
								<frame>0</frame>
								<displayformat>NDF</displayformat>
							</timecode>
							<media>
								<video>
									<samplecharacteristics>
										<rate>
											<timebase>24</timebase>
											<ntsc>FALSE</ntsc>
										</rate>
										<width>852</width>
										<height>480</height>
										<anamorphic>FALSE</anamorphic>
										<pixelaspectratio>square</pixelaspectratio>
										<fielddominance>none</fielddominance>
									</samplecharacteristics>
								</video>
								<audio>
									<samplecharacteristics>
										<depth>16</depth>
										<samplerate>44100</samplerate>
									</samplecharacteristics>
									<channelcount>2</channelcount>
								</audio>
							</media>
						</file>
						<filter>
							<effect>
								<name>Basic Motion</name>
								<effectid>basic</effectid>
								<effectcategory>motion</effectcategory>
								<effecttype>motion</effecttype>
								<mediatype>video</mediatype>
								<pproBypass>false</pproBypass>
								<parameter authoringApp="PremierePro">
									<parameterid>scale</parameterid>
									<name>Scale</name>
									<valuemin>0</valuemin>
									<valuemax>1000</valuemax>
									<value>225</value>
								</parameter>
								<parameter authoringApp="PremierePro">
									<parameterid>rotation</parameterid>
									<name>Rotation</name>
									<valuemin>-8640</valuemin>
									<valuemax>8640</valuemax>
									<value>0</value>
								</parameter>
								<parameter authoringApp="PremierePro">
									<parameterid>center</parameterid>
									<name>Center</name>
									<value>
										<horiz>0</horiz>
										<vert>0</vert>
									</value>
								</parameter>
								<parameter authoringApp="PremierePro">
									<parameterid>centerOffset</parameterid>
									<name>Anchor Point</name>
									<value>
										<horiz>0</horiz>
										<vert>0</vert>
									</value>
								</parameter>
								<parameter authoringApp="PremierePro">
									<parameterid>antiflicker</parameterid>
									<name>Anti-flicker Filter</name>
									<valuemin>0.0</valuemin>
									<valuemax>1.0</valuemax>
									<value>0</value>
								</parameter>
							</effect>
						</filter>
						<link>
							<linkclipref>clipitem-88</linkclipref>
							<mediatype>video</mediatype>
							<trackindex>1</trackindex>
							<clipindex>4</clipindex>
						</link>
						<link>
							<linkclipref>clipitem-96</linkclipref>
							<mediatype>audio</mediatype>
							<trackindex>1</trackindex>
							<clipindex>4</clipindex>
							<groupindex>1</groupindex>
						</link>
						<link>
							<linkclipref>clipitem-104</linkclipref>
							<mediatype>audio</mediatype>
							<trackindex>2</trackindex>
							<clipindex>4</clipindex>
							<groupindex>1</groupindex>
						</link>
						<logginginfo>
							<description />
							<scene />
							<shottake />
							<lognote />
							<good />
							<originalvideofilename />
							<originalaudiofilename />
						</logginginfo>
						<colorinfo>
							<lut />
							<lut1 />
							<asc_sop />
							<asc_sat />
							<lut2 />
						</colorinfo>
					<labels><label2>Lavender</label2></labels></clipitem>
					<clipitem id="clipitem-87">
						<masterclipid>clipitem-3-327</masterclipid>
						<name>Taylor_Swift_Travis_Kelce_-_The_New_Power_Couple.mp4</name>
						<enabled>TRUE</enabled>
						<duration>150</duration>
						<rate>
							<timebase>25</timebase>
							<ntsc>FALSE</ntsc>
						</rate>
						<start>93300</start>
						<end>93450</end>
						<in>48900</in>
						<out>49050</out>
						<pproTicksIn>0</pproTicksIn>
						<pproTicksOut>875013995520000</pproTicksOut>
						<alphatype>none</alphatype>
						<pixelaspectratio>square</pixelaspectratio>
						<anamorphic>FALSE</anamorphic>
						<file id="file-31">
							<name>Taylor_Swift_Travis_Kelce_-_The_New_Power_Couple.mp4</name>
							<pathurl>file://localhost/Users/themalikano/Documents/VideoAutomation/premiere_videos/Taylor_Swift_Travis_Kelce_-_The_New_Power_Couple.mp4</pathurl>
							<rate>
								<timebase>25</timebase>
								<ntsc>FALSE</ntsc>
							</rate>
							<duration>86118</duration>
							<timecode>
								<rate>
									<timebase>25</timebase>
									<ntsc>FALSE</ntsc>
								</rate>
								<string>00:00:00:00</string>
								<frame>0</frame>
								<displayformat>NDF</displayformat>
							</timecode>
							<media>
								<video>
									<samplecharacteristics>
										<rate>
											<timebase>25</timebase>
											<ntsc>FALSE</ntsc>
										</rate>
										<width>1920</width>
										<height>1080</height>
										<anamorphic>FALSE</anamorphic>
										<pixelaspectratio>square</pixelaspectratio>
										<fielddominance>none</fielddominance>
									</samplecharacteristics>
								</video>
								<audio>
									<samplecharacteristics>
										<depth>16</depth>
										<samplerate>44100</samplerate>
									</samplecharacteristics>
									<channelcount>2</channelcount>
								</audio>
							</media>
						</file>
						<link>
							<linkclipref>clipitem-87</linkclipref>
							<mediatype>video</mediatype>
							<trackindex>1</trackindex>
							<clipindex>3</clipindex>
						</link>
						<link>
							<linkclipref>clipitem-95</linkclipref>
							<mediatype>audio</mediatype>
							<trackindex>1</trackindex>
							<clipindex>3</clipindex>
							<groupindex>1</groupindex>
						</link>
						<link>
							<linkclipref>clipitem-103</linkclipref>
							<mediatype>audio</mediatype>
							<trackindex>2</trackindex>
							<clipindex>3</clipindex>
							<groupindex>1</groupindex>
						</link>
						<logginginfo>
							<description />
							<scene />
							<shottake />
							<lognote />
							<good />
							<originalvideofilename />
							<originalaudiofilename />
						</logginginfo>
						<colorinfo>
							<lut />
							<lut1 />
							<asc_sop />
							<asc_sat />
							<lut2 />
						</colorinfo>
					<labels><label2>Caribbean</label2></labels></clipitem>
					<clipitem id="clipitem-86">
						<masterclipid>clipitem-2-40</masterclipid>
						<name>Taylor_Swift_Shares_The_Story_Of_Calling_Travis_Kelce_For_The_First_Time.mp4</name>
						<enabled>TRUE</enabled>
						<duration>150</duration>
						<rate>
							<timebase>25</timebase>
							<ntsc>FALSE</ntsc>
						</rate>
						<start>93450</start>
						<end>93600</end>
						<in>5850</in>
						<out>6000</out>
						<pproTicksIn>0</pproTicksIn>
						<pproTicksOut>236438092800000</pproTicksOut>
						<alphatype>none</alphatype>
						<pixelaspectratio>square</pixelaspectratio>
						<anamorphic>FALSE</anamorphic>
						<file id="file-30">
							<name>Taylor_Swift_Shares_The_Story_Of_Calling_Travis_Kelce_For_The_First_Time.mp4</name>
							<pathurl>file://localhost/Users/themalikano/Documents/VideoAutomation/premiere_videos/Taylor_Swift_Shares_The_Story_Of_Calling_Travis_Kelce_For_The_First_Time.mp4</pathurl>
							<rate>
								<timebase>30</timebase>
								<ntsc>TRUE</ntsc>
							</rate>
							<duration>27897</duration>
							<timecode>
								<rate>
									<timebase>30</timebase>
									<ntsc>TRUE</ntsc>
								</rate>
								<string>00:00:00:00</string>
								<frame>0</frame>
								<displayformat>NDF</displayformat>
							</timecode>
							<media>
								<video>
									<samplecharacteristics>
										<rate>
											<timebase>30</timebase>
											<ntsc>TRUE</ntsc>
										</rate>
										<width>1920</width>
										<height>1080</height>
										<anamorphic>FALSE</anamorphic>
										<pixelaspectratio>square</pixelaspectratio>
										<fielddominance>none</fielddominance>
									</samplecharacteristics>
								</video>
								<audio>
									<samplecharacteristics>
										<depth>16</depth>
										<samplerate>44100</samplerate>
									</samplecharacteristics>
									<channelcount>2</channelcount>
								</audio>
							</media>
						</file>
						<link>
							<linkclipref>clipitem-86</linkclipref>
							<mediatype>video</mediatype>
							<trackindex>1</trackindex>
							<clipindex>2</clipindex>
						</link>
						<link>
							<linkclipref>clipitem-94</linkclipref>
							<mediatype>audio</mediatype>
							<trackindex>1</trackindex>
							<clipindex>2</clipindex>
							<groupindex>1</groupindex>
						</link>
						<link>
							<linkclipref>clipitem-102</linkclipref>
							<mediatype>audio</mediatype>
							<trackindex>2</trackindex>
							<clipindex>2</clipindex>
							<groupindex>1</groupindex>
						</link>
						<logginginfo>
							<description />
							<scene />
							<shottake />
							<lognote />
							<good />
							<originalvideofilename />
							<originalaudiofilename />
						</logginginfo>
						<colorinfo>
							<lut />
							<lut1 />
							<asc_sop />
							<asc_sat />
							<lut2 />
						</colorinfo>
					<labels><label2>Iris</label2></labels></clipitem>
					<clipitem id="clipitem-88">
						<masterclipid>clipitem-4-235</masterclipid>
						<name>Travis_Kelce_ANNOUNCE_WEDDING_DATE_with_Taylor_Swift_Why_He_was_Delaying_all_Along.mp4</name>
						<enabled>TRUE</enabled>
						<duration>150</duration>
						<rate>
							<timebase>25</timebase>
							<ntsc>FALSE</ntsc>
						</rate>
						<start>93600</start>
						<end>93750</end>
						<in>35100</in>
						<out>35250</out>
						<pproTicksIn>0</pproTicksIn>
						<pproTicksOut>419410897920000</pproTicksOut>
						<alphatype>none</alphatype>
						<pixelaspectratio>square</pixelaspectratio>
						<anamorphic>FALSE</anamorphic>
						<file id="file-32">
							<name>Travis_Kelce_ANNOUNCE_WEDDING_DATE_with_Taylor_Swift_Why_He_was_Delaying_all_Along.mp4</name>
							<pathurl>file://localhost/Users/themalikano/Documents/VideoAutomation/premiere_videos/Travis_Kelce_ANNOUNCE_WEDDING_DATE_with_Taylor_Swift_Why_He_was_Delaying_all_Along.mp4</pathurl>
							<rate>
								<timebase>24</timebase>
								<ntsc>FALSE</ntsc>
							</rate>
							<duration>39627</duration>
							<timecode>
								<rate>
									<timebase>24</timebase>
									<ntsc>FALSE</ntsc>
								</rate>
								<string>00:00:00:00</string>
								<frame>0</frame>
								<displayformat>NDF</displayformat>
							</timecode>
							<media>
								<video>
									<samplecharacteristics>
										<rate>
											<timebase>24</timebase>
											<ntsc>FALSE</ntsc>
										</rate>
										<width>852</width>
										<height>480</height>
										<anamorphic>FALSE</anamorphic>
										<pixelaspectratio>square</pixelaspectratio>
										<fielddominance>none</fielddominance>
									</samplecharacteristics>
								</video>
								<audio>
									<samplecharacteristics>
										<depth>16</depth>
										<samplerate>44100</samplerate>
									</samplecharacteristics>
									<channelcount>2</channelcount>
								</audio>
							</media>
						</file>
						<filter>
							<effect>
								<name>Basic Motion</name>
								<effectid>basic</effectid>
								<effectcategory>motion</effectcategory>
								<effecttype>motion</effecttype>
								<mediatype>video</mediatype>
								<pproBypass>false</pproBypass>
								<parameter authoringApp="PremierePro">
									<parameterid>scale</parameterid>
									<name>Scale</name>
									<valuemin>0</valuemin>
									<valuemax>1000</valuemax>
									<value>225</value>
								</parameter>
								<parameter authoringApp="PremierePro">
									<parameterid>rotation</parameterid>
									<name>Rotation</name>
									<valuemin>-8640</valuemin>
									<valuemax>8640</valuemax>
									<value>0</value>
								</parameter>
								<parameter authoringApp="PremierePro">
									<parameterid>center</parameterid>
									<name>Center</name>
									<value>
										<horiz>0</horiz>
										<vert>0</vert>
									</value>
								</parameter>
								<parameter authoringApp="PremierePro">
									<parameterid>centerOffset</parameterid>
									<name>Anchor Point</name>
									<value>
										<horiz>0</horiz>
										<vert>0</vert>
									</value>
								</parameter>
								<parameter authoringApp="PremierePro">
									<parameterid>antiflicker</parameterid>
									<name>Anti-flicker Filter</name>
									<valuemin>0.0</valuemin>
									<valuemax>1.0</valuemax>
									<value>0</value>
								</parameter>
							</effect>
						</filter>
						<link>
							<linkclipref>clipitem-88</linkclipref>
							<mediatype>video</mediatype>
							<trackindex>1</trackindex>
							<clipindex>4</clipindex>
						</link>
						<link>
							<linkclipref>clipitem-96</linkclipref>
							<mediatype>audio</mediatype>
							<trackindex>1</trackindex>
							<clipindex>4</clipindex>
							<groupindex>1</groupindex>
						</link>
						<link>
							<linkclipref>clipitem-104</linkclipref>
							<mediatype>audio</mediatype>
							<trackindex>2</trackindex>
							<clipindex>4</clipindex>
							<groupindex>1</groupindex>
						</link>
						<logginginfo>
							<description />
							<scene />
							<shottake />
							<lognote />
							<good />
							<originalvideofilename />
							<originalaudiofilename />
						</logginginfo>
						<colorinfo>
							<lut />
							<lut1 />
							<asc_sop />
							<asc_sat />
							<lut2 />
						</colorinfo>
					<labels><label2>Lavender</label2></labels></clipitem>
					<clipitem id="clipitem-86">
						<masterclipid>clipitem-2-87</masterclipid>
						<name>Taylor_Swift_Shares_The_Story_Of_Calling_Travis_Kelce_For_The_First_Time.mp4</name>
						<enabled>TRUE</enabled>
						<duration>150</duration>
						<rate>
							<timebase>25</timebase>
							<ntsc>FALSE</ntsc>
						</rate>
						<start>93750</start>
						<end>93900</end>
						<in>12900</in>
						<out>13050</out>
						<pproTicksIn>0</pproTicksIn>
						<pproTicksOut>236438092800000</pproTicksOut>
						<alphatype>none</alphatype>
						<pixelaspectratio>square</pixelaspectratio>
						<anamorphic>FALSE</anamorphic>
						<file id="file-30">
							<name>Taylor_Swift_Shares_The_Story_Of_Calling_Travis_Kelce_For_The_First_Time.mp4</name>
							<pathurl>file://localhost/Users/themalikano/Documents/VideoAutomation/premiere_videos/Taylor_Swift_Shares_The_Story_Of_Calling_Travis_Kelce_For_The_First_Time.mp4</pathurl>
							<rate>
								<timebase>30</timebase>
								<ntsc>TRUE</ntsc>
							</rate>
							<duration>27897</duration>
							<timecode>
								<rate>
									<timebase>30</timebase>
									<ntsc>TRUE</ntsc>
								</rate>
								<string>00:00:00:00</string>
								<frame>0</frame>
								<displayformat>NDF</displayformat>
							</timecode>
							<media>
								<video>
									<samplecharacteristics>
										<rate>
											<timebase>30</timebase>
											<ntsc>TRUE</ntsc>
										</rate>
										<width>1920</width>
										<height>1080</height>
										<anamorphic>FALSE</anamorphic>
										<pixelaspectratio>square</pixelaspectratio>
										<fielddominance>none</fielddominance>
									</samplecharacteristics>
								</video>
								<audio>
									<samplecharacteristics>
										<depth>16</depth>
										<samplerate>44100</samplerate>
									</samplecharacteristics>
									<channelcount>2</channelcount>
								</audio>
							</media>
						</file>
						<link>
							<linkclipref>clipitem-86</linkclipref>
							<mediatype>video</mediatype>
							<trackindex>1</trackindex>
							<clipindex>2</clipindex>
						</link>
						<link>
							<linkclipref>clipitem-94</linkclipref>
							<mediatype>audio</mediatype>
							<trackindex>1</trackindex>
							<clipindex>2</clipindex>
							<groupindex>1</groupindex>
						</link>
						<link>
							<linkclipref>clipitem-102</linkclipref>
							<mediatype>audio</mediatype>
							<trackindex>2</trackindex>
							<clipindex>2</clipindex>
							<groupindex>1</groupindex>
						</link>
						<logginginfo>
							<description />
							<scene />
							<shottake />
							<lognote />
							<good />
							<originalvideofilename />
							<originalaudiofilename />
						</logginginfo>
						<colorinfo>
							<lut />
							<lut1 />
							<asc_sop />
							<asc_sat />
							<lut2 />
						</colorinfo>
					<labels><label2>Iris</label2></labels></clipitem>
					<clipitem id="clipitem-87">
						<masterclipid>clipitem-3-9</masterclipid>
						<name>Taylor_Swift_Travis_Kelce_-_The_New_Power_Couple.mp4</name>
						<enabled>TRUE</enabled>
						<duration>150</duration>
						<rate>
							<timebase>25</timebase>
							<ntsc>FALSE</ntsc>
						</rate>
						<start>93900</start>
						<end>94050</end>
						<in>1200</in>
						<out>1350</out>
						<pproTicksIn>0</pproTicksIn>
						<pproTicksOut>875013995520000</pproTicksOut>
						<alphatype>none</alphatype>
						<pixelaspectratio>square</pixelaspectratio>
						<anamorphic>FALSE</anamorphic>
						<file id="file-31">
							<name>Taylor_Swift_Travis_Kelce_-_The_New_Power_Couple.mp4</name>
							<pathurl>file://localhost/Users/themalikano/Documents/VideoAutomation/premiere_videos/Taylor_Swift_Travis_Kelce_-_The_New_Power_Couple.mp4</pathurl>
							<rate>
								<timebase>25</timebase>
								<ntsc>FALSE</ntsc>
							</rate>
							<duration>86118</duration>
							<timecode>
								<rate>
									<timebase>25</timebase>
									<ntsc>FALSE</ntsc>
								</rate>
								<string>00:00:00:00</string>
								<frame>0</frame>
								<displayformat>NDF</displayformat>
							</timecode>
							<media>
								<video>
									<samplecharacteristics>
										<rate>
											<timebase>25</timebase>
											<ntsc>FALSE</ntsc>
										</rate>
										<width>1920</width>
										<height>1080</height>
										<anamorphic>FALSE</anamorphic>
										<pixelaspectratio>square</pixelaspectratio>
										<fielddominance>none</fielddominance>
									</samplecharacteristics>
								</video>
								<audio>
									<samplecharacteristics>
										<depth>16</depth>
										<samplerate>44100</samplerate>
									</samplecharacteristics>
									<channelcount>2</channelcount>
								</audio>
							</media>
						</file>
						<link>
							<linkclipref>clipitem-87</linkclipref>
							<mediatype>video</mediatype>
							<trackindex>1</trackindex>
							<clipindex>3</clipindex>
						</link>
						<link>
							<linkclipref>clipitem-95</linkclipref>
							<mediatype>audio</mediatype>
							<trackindex>1</trackindex>
							<clipindex>3</clipindex>
							<groupindex>1</groupindex>
						</link>
						<link>
							<linkclipref>clipitem-103</linkclipref>
							<mediatype>audio</mediatype>
							<trackindex>2</trackindex>
							<clipindex>3</clipindex>
							<groupindex>1</groupindex>
						</link>
						<logginginfo>
							<description />
							<scene />
							<shottake />
							<lognote />
							<good />
							<originalvideofilename />
							<originalaudiofilename />
						</logginginfo>
						<colorinfo>
							<lut />
							<lut1 />
							<asc_sop />
							<asc_sat />
							<lut2 />
						</colorinfo>
					<labels><label2>Caribbean</label2></labels></clipitem>
					<clipitem id="clipitem-86">
						<masterclipid>clipitem-2-97</masterclipid>
						<name>Taylor_Swift_Shares_The_Story_Of_Calling_Travis_Kelce_For_The_First_Time.mp4</name>
						<enabled>TRUE</enabled>
						<duration>150</duration>
						<rate>
							<timebase>25</timebase>
							<ntsc>FALSE</ntsc>
						</rate>
						<start>94050</start>
						<end>94200</end>
						<in>14400</in>
						<out>14550</out>
						<pproTicksIn>0</pproTicksIn>
						<pproTicksOut>236438092800000</pproTicksOut>
						<alphatype>none</alphatype>
						<pixelaspectratio>square</pixelaspectratio>
						<anamorphic>FALSE</anamorphic>
						<file id="file-30">
							<name>Taylor_Swift_Shares_The_Story_Of_Calling_Travis_Kelce_For_The_First_Time.mp4</name>
							<pathurl>file://localhost/Users/themalikano/Documents/VideoAutomation/premiere_videos/Taylor_Swift_Shares_The_Story_Of_Calling_Travis_Kelce_For_The_First_Time.mp4</pathurl>
							<rate>
								<timebase>30</timebase>
								<ntsc>TRUE</ntsc>
							</rate>
							<duration>27897</duration>
							<timecode>
								<rate>
									<timebase>30</timebase>
									<ntsc>TRUE</ntsc>
								</rate>
								<string>00:00:00:00</string>
								<frame>0</frame>
								<displayformat>NDF</displayformat>
							</timecode>
							<media>
								<video>
									<samplecharacteristics>
										<rate>
											<timebase>30</timebase>
											<ntsc>TRUE</ntsc>
										</rate>
										<width>1920</width>
										<height>1080</height>
										<anamorphic>FALSE</anamorphic>
										<pixelaspectratio>square</pixelaspectratio>
										<fielddominance>none</fielddominance>
									</samplecharacteristics>
								</video>
								<audio>
									<samplecharacteristics>
										<depth>16</depth>
										<samplerate>44100</samplerate>
									</samplecharacteristics>
									<channelcount>2</channelcount>
								</audio>
							</media>
						</file>
						<link>
							<linkclipref>clipitem-86</linkclipref>
							<mediatype>video</mediatype>
							<trackindex>1</trackindex>
							<clipindex>2</clipindex>
						</link>
						<link>
							<linkclipref>clipitem-94</linkclipref>
							<mediatype>audio</mediatype>
							<trackindex>1</trackindex>
							<clipindex>2</clipindex>
							<groupindex>1</groupindex>
						</link>
						<link>
							<linkclipref>clipitem-102</linkclipref>
							<mediatype>audio</mediatype>
							<trackindex>2</trackindex>
							<clipindex>2</clipindex>
							<groupindex>1</groupindex>
						</link>
						<logginginfo>
							<description />
							<scene />
							<shottake />
							<lognote />
							<good />
							<originalvideofilename />
							<originalaudiofilename />
						</logginginfo>
						<colorinfo>
							<lut />
							<lut1 />
							<asc_sop />
							<asc_sat />
							<lut2 />
						</colorinfo>
					<labels><label2>Iris</label2></labels></clipitem>
					<clipitem id="clipitem-88">
						<masterclipid>clipitem-4-257</masterclipid>
						<name>Travis_Kelce_ANNOUNCE_WEDDING_DATE_with_Taylor_Swift_Why_He_was_Delaying_all_Along.mp4</name>
						<enabled>TRUE</enabled>
						<duration>150</duration>
						<rate>
							<timebase>25</timebase>
							<ntsc>FALSE</ntsc>
						</rate>
						<start>94200</start>
						<end>94350</end>
						<in>38400</in>
						<out>38550</out>
						<pproTicksIn>0</pproTicksIn>
						<pproTicksOut>419410897920000</pproTicksOut>
						<alphatype>none</alphatype>
						<pixelaspectratio>square</pixelaspectratio>
						<anamorphic>FALSE</anamorphic>
						<file id="file-32">
							<name>Travis_Kelce_ANNOUNCE_WEDDING_DATE_with_Taylor_Swift_Why_He_was_Delaying_all_Along.mp4</name>
							<pathurl>file://localhost/Users/themalikano/Documents/VideoAutomation/premiere_videos/Travis_Kelce_ANNOUNCE_WEDDING_DATE_with_Taylor_Swift_Why_He_was_Delaying_all_Along.mp4</pathurl>
							<rate>
								<timebase>24</timebase>
								<ntsc>FALSE</ntsc>
							</rate>
							<duration>39627</duration>
							<timecode>
								<rate>
									<timebase>24</timebase>
									<ntsc>FALSE</ntsc>
								</rate>
								<string>00:00:00:00</string>
								<frame>0</frame>
								<displayformat>NDF</displayformat>
							</timecode>
							<media>
								<video>
									<samplecharacteristics>
										<rate>
											<timebase>24</timebase>
											<ntsc>FALSE</ntsc>
										</rate>
										<width>852</width>
										<height>480</height>
										<anamorphic>FALSE</anamorphic>
										<pixelaspectratio>square</pixelaspectratio>
										<fielddominance>none</fielddominance>
									</samplecharacteristics>
								</video>
								<audio>
									<samplecharacteristics>
										<depth>16</depth>
										<samplerate>44100</samplerate>
									</samplecharacteristics>
									<channelcount>2</channelcount>
								</audio>
							</media>
						</file>
						<filter>
							<effect>
								<name>Basic Motion</name>
								<effectid>basic</effectid>
								<effectcategory>motion</effectcategory>
								<effecttype>motion</effecttype>
								<mediatype>video</mediatype>
								<pproBypass>false</pproBypass>
								<parameter authoringApp="PremierePro">
									<parameterid>scale</parameterid>
									<name>Scale</name>
									<valuemin>0</valuemin>
									<valuemax>1000</valuemax>
									<value>225</value>
								</parameter>
								<parameter authoringApp="PremierePro">
									<parameterid>rotation</parameterid>
									<name>Rotation</name>
									<valuemin>-8640</valuemin>
									<valuemax>8640</valuemax>
									<value>0</value>
								</parameter>
								<parameter authoringApp="PremierePro">
									<parameterid>center</parameterid>
									<name>Center</name>
									<value>
										<horiz>0</horiz>
										<vert>0</vert>
									</value>
								</parameter>
								<parameter authoringApp="PremierePro">
									<parameterid>centerOffset</parameterid>
									<name>Anchor Point</name>
									<value>
										<horiz>0</horiz>
										<vert>0</vert>
									</value>
								</parameter>
								<parameter authoringApp="PremierePro">
									<parameterid>antiflicker</parameterid>
									<name>Anti-flicker Filter</name>
									<valuemin>0.0</valuemin>
									<valuemax>1.0</valuemax>
									<value>0</value>
								</parameter>
							</effect>
						</filter>
						<link>
							<linkclipref>clipitem-88</linkclipref>
							<mediatype>video</mediatype>
							<trackindex>1</trackindex>
							<clipindex>4</clipindex>
						</link>
						<link>
							<linkclipref>clipitem-96</linkclipref>
							<mediatype>audio</mediatype>
							<trackindex>1</trackindex>
							<clipindex>4</clipindex>
							<groupindex>1</groupindex>
						</link>
						<link>
							<linkclipref>clipitem-104</linkclipref>
							<mediatype>audio</mediatype>
							<trackindex>2</trackindex>
							<clipindex>4</clipindex>
							<groupindex>1</groupindex>
						</link>
						<logginginfo>
							<description />
							<scene />
							<shottake />
							<lognote />
							<good />
							<originalvideofilename />
							<originalaudiofilename />
						</logginginfo>
						<colorinfo>
							<lut />
							<lut1 />
							<asc_sop />
							<asc_sat />
							<lut2 />
						</colorinfo>
					<labels><label2>Lavender</label2></labels></clipitem>
					<clipitem id="clipitem-87">
						<masterclipid>clipitem-3-340</masterclipid>
						<name>Taylor_Swift_Travis_Kelce_-_The_New_Power_Couple.mp4</name>
						<enabled>TRUE</enabled>
						<duration>150</duration>
						<rate>
							<timebase>25</timebase>
							<ntsc>FALSE</ntsc>
						</rate>
						<start>94350</start>
						<end>94500</end>
						<in>50850</in>
						<out>51000</out>
						<pproTicksIn>0</pproTicksIn>
						<pproTicksOut>875013995520000</pproTicksOut>
						<alphatype>none</alphatype>
						<pixelaspectratio>square</pixelaspectratio>
						<anamorphic>FALSE</anamorphic>
						<file id="file-31">
							<name>Taylor_Swift_Travis_Kelce_-_The_New_Power_Couple.mp4</name>
							<pathurl>file://localhost/Users/themalikano/Documents/VideoAutomation/premiere_videos/Taylor_Swift_Travis_Kelce_-_The_New_Power_Couple.mp4</pathurl>
							<rate>
								<timebase>25</timebase>
								<ntsc>FALSE</ntsc>
							</rate>
							<duration>86118</duration>
							<timecode>
								<rate>
									<timebase>25</timebase>
									<ntsc>FALSE</ntsc>
								</rate>
								<string>00:00:00:00</string>
								<frame>0</frame>
								<displayformat>NDF</displayformat>
							</timecode>
							<media>
								<video>
									<samplecharacteristics>
										<rate>
											<timebase>25</timebase>
											<ntsc>FALSE</ntsc>
										</rate>
										<width>1920</width>
										<height>1080</height>
										<anamorphic>FALSE</anamorphic>
										<pixelaspectratio>square</pixelaspectratio>
										<fielddominance>none</fielddominance>
									</samplecharacteristics>
								</video>
								<audio>
									<samplecharacteristics>
										<depth>16</depth>
										<samplerate>44100</samplerate>
									</samplecharacteristics>
									<channelcount>2</channelcount>
								</audio>
							</media>
						</file>
						<link>
							<linkclipref>clipitem-87</linkclipref>
							<mediatype>video</mediatype>
							<trackindex>1</trackindex>
							<clipindex>3</clipindex>
						</link>
						<link>
							<linkclipref>clipitem-95</linkclipref>
							<mediatype>audio</mediatype>
							<trackindex>1</trackindex>
							<clipindex>3</clipindex>
							<groupindex>1</groupindex>
						</link>
						<link>
							<linkclipref>clipitem-103</linkclipref>
							<mediatype>audio</mediatype>
							<trackindex>2</trackindex>
							<clipindex>3</clipindex>
							<groupindex>1</groupindex>
						</link>
						<logginginfo>
							<description />
							<scene />
							<shottake />
							<lognote />
							<good />
							<originalvideofilename />
							<originalaudiofilename />
						</logginginfo>
						<colorinfo>
							<lut />
							<lut1 />
							<asc_sop />
							<asc_sat />
							<lut2 />
						</colorinfo>
					<labels><label2>Caribbean</label2></labels></clipitem>
					<clipitem id="clipitem-88">
						<masterclipid>clipitem-4-136</masterclipid>
						<name>Travis_Kelce_ANNOUNCE_WEDDING_DATE_with_Taylor_Swift_Why_He_was_Delaying_all_Along.mp4</name>
						<enabled>TRUE</enabled>
						<duration>150</duration>
						<rate>
							<timebase>25</timebase>
							<ntsc>FALSE</ntsc>
						</rate>
						<start>94500</start>
						<end>94650</end>
						<in>20250</in>
						<out>20400</out>
						<pproTicksIn>0</pproTicksIn>
						<pproTicksOut>419410897920000</pproTicksOut>
						<alphatype>none</alphatype>
						<pixelaspectratio>square</pixelaspectratio>
						<anamorphic>FALSE</anamorphic>
						<file id="file-32">
							<name>Travis_Kelce_ANNOUNCE_WEDDING_DATE_with_Taylor_Swift_Why_He_was_Delaying_all_Along.mp4</name>
							<pathurl>file://localhost/Users/themalikano/Documents/VideoAutomation/premiere_videos/Travis_Kelce_ANNOUNCE_WEDDING_DATE_with_Taylor_Swift_Why_He_was_Delaying_all_Along.mp4</pathurl>
							<rate>
								<timebase>24</timebase>
								<ntsc>FALSE</ntsc>
							</rate>
							<duration>39627</duration>
							<timecode>
								<rate>
									<timebase>24</timebase>
									<ntsc>FALSE</ntsc>
								</rate>
								<string>00:00:00:00</string>
								<frame>0</frame>
								<displayformat>NDF</displayformat>
							</timecode>
							<media>
								<video>
									<samplecharacteristics>
										<rate>
											<timebase>24</timebase>
											<ntsc>FALSE</ntsc>
										</rate>
										<width>852</width>
										<height>480</height>
										<anamorphic>FALSE</anamorphic>
										<pixelaspectratio>square</pixelaspectratio>
										<fielddominance>none</fielddominance>
									</samplecharacteristics>
								</video>
								<audio>
									<samplecharacteristics>
										<depth>16</depth>
										<samplerate>44100</samplerate>
									</samplecharacteristics>
									<channelcount>2</channelcount>
								</audio>
							</media>
						</file>
						<filter>
							<effect>
								<name>Basic Motion</name>
								<effectid>basic</effectid>
								<effectcategory>motion</effectcategory>
								<effecttype>motion</effecttype>
								<mediatype>video</mediatype>
								<pproBypass>false</pproBypass>
								<parameter authoringApp="PremierePro">
									<parameterid>scale</parameterid>
									<name>Scale</name>
									<valuemin>0</valuemin>
									<valuemax>1000</valuemax>
									<value>225</value>
								</parameter>
								<parameter authoringApp="PremierePro">
									<parameterid>rotation</parameterid>
									<name>Rotation</name>
									<valuemin>-8640</valuemin>
									<valuemax>8640</valuemax>
									<value>0</value>
								</parameter>
								<parameter authoringApp="PremierePro">
									<parameterid>center</parameterid>
									<name>Center</name>
									<value>
										<horiz>0</horiz>
										<vert>0</vert>
									</value>
								</parameter>
								<parameter authoringApp="PremierePro">
									<parameterid>centerOffset</parameterid>
									<name>Anchor Point</name>
									<value>
										<horiz>0</horiz>
										<vert>0</vert>
									</value>
								</parameter>
								<parameter authoringApp="PremierePro">
									<parameterid>antiflicker</parameterid>
									<name>Anti-flicker Filter</name>
									<valuemin>0.0</valuemin>
									<valuemax>1.0</valuemax>
									<value>0</value>
								</parameter>
							</effect>
						</filter>
						<link>
							<linkclipref>clipitem-88</linkclipref>
							<mediatype>video</mediatype>
							<trackindex>1</trackindex>
							<clipindex>4</clipindex>
						</link>
						<link>
							<linkclipref>clipitem-96</linkclipref>
							<mediatype>audio</mediatype>
							<trackindex>1</trackindex>
							<clipindex>4</clipindex>
							<groupindex>1</groupindex>
						</link>
						<link>
							<linkclipref>clipitem-104</linkclipref>
							<mediatype>audio</mediatype>
							<trackindex>2</trackindex>
							<clipindex>4</clipindex>
							<groupindex>1</groupindex>
						</link>
						<logginginfo>
							<description />
							<scene />
							<shottake />
							<lognote />
							<good />
							<originalvideofilename />
							<originalaudiofilename />
						</logginginfo>
						<colorinfo>
							<lut />
							<lut1 />
							<asc_sop />
							<asc_sat />
							<lut2 />
						</colorinfo>
					<labels><label2>Lavender</label2></labels></clipitem>
					<clipitem id="clipitem-87">
						<masterclipid>clipitem-3-278</masterclipid>
						<name>Taylor_Swift_Travis_Kelce_-_The_New_Power_Couple.mp4</name>
						<enabled>TRUE</enabled>
						<duration>150</duration>
						<rate>
							<timebase>25</timebase>
							<ntsc>FALSE</ntsc>
						</rate>
						<start>94650</start>
						<end>94800</end>
						<in>41550</in>
						<out>41700</out>
						<pproTicksIn>0</pproTicksIn>
						<pproTicksOut>875013995520000</pproTicksOut>
						<alphatype>none</alphatype>
						<pixelaspectratio>square</pixelaspectratio>
						<anamorphic>FALSE</anamorphic>
						<file id="file-31">
							<name>Taylor_Swift_Travis_Kelce_-_The_New_Power_Couple.mp4</name>
							<pathurl>file://localhost/Users/themalikano/Documents/VideoAutomation/premiere_videos/Taylor_Swift_Travis_Kelce_-_The_New_Power_Couple.mp4</pathurl>
							<rate>
								<timebase>25</timebase>
								<ntsc>FALSE</ntsc>
							</rate>
							<duration>86118</duration>
							<timecode>
								<rate>
									<timebase>25</timebase>
									<ntsc>FALSE</ntsc>
								</rate>
								<string>00:00:00:00</string>
								<frame>0</frame>
								<displayformat>NDF</displayformat>
							</timecode>
							<media>
								<video>
									<samplecharacteristics>
										<rate>
											<timebase>25</timebase>
											<ntsc>FALSE</ntsc>
										</rate>
										<width>1920</width>
										<height>1080</height>
										<anamorphic>FALSE</anamorphic>
										<pixelaspectratio>square</pixelaspectratio>
										<fielddominance>none</fielddominance>
									</samplecharacteristics>
								</video>
								<audio>
									<samplecharacteristics>
										<depth>16</depth>
										<samplerate>44100</samplerate>
									</samplecharacteristics>
									<channelcount>2</channelcount>
								</audio>
							</media>
						</file>
						<link>
							<linkclipref>clipitem-87</linkclipref>
							<mediatype>video</mediatype>
							<trackindex>1</trackindex>
							<clipindex>3</clipindex>
						</link>
						<link>
							<linkclipref>clipitem-95</linkclipref>
							<mediatype>audio</mediatype>
							<trackindex>1</trackindex>
							<clipindex>3</clipindex>
							<groupindex>1</groupindex>
						</link>
						<link>
							<linkclipref>clipitem-103</linkclipref>
							<mediatype>audio</mediatype>
							<trackindex>2</trackindex>
							<clipindex>3</clipindex>
							<groupindex>1</groupindex>
						</link>
						<logginginfo>
							<description />
							<scene />
							<shottake />
							<lognote />
							<good />
							<originalvideofilename />
							<originalaudiofilename />
						</logginginfo>
						<colorinfo>
							<lut />
							<lut1 />
							<asc_sop />
							<asc_sat />
							<lut2 />
						</colorinfo>
					<labels><label2>Caribbean</label2></labels></clipitem>
					<clipitem id="clipitem-88">
						<masterclipid>clipitem-4-102</masterclipid>
						<name>Travis_Kelce_ANNOUNCE_WEDDING_DATE_with_Taylor_Swift_Why_He_was_Delaying_all_Along.mp4</name>
						<enabled>TRUE</enabled>
						<duration>150</duration>
						<rate>
							<timebase>25</timebase>
							<ntsc>FALSE</ntsc>
						</rate>
						<start>94800</start>
						<end>94950</end>
						<in>15150</in>
						<out>15300</out>
						<pproTicksIn>0</pproTicksIn>
						<pproTicksOut>419410897920000</pproTicksOut>
						<alphatype>none</alphatype>
						<pixelaspectratio>square</pixelaspectratio>
						<anamorphic>FALSE</anamorphic>
						<file id="file-32">
							<name>Travis_Kelce_ANNOUNCE_WEDDING_DATE_with_Taylor_Swift_Why_He_was_Delaying_all_Along.mp4</name>
							<pathurl>file://localhost/Users/themalikano/Documents/VideoAutomation/premiere_videos/Travis_Kelce_ANNOUNCE_WEDDING_DATE_with_Taylor_Swift_Why_He_was_Delaying_all_Along.mp4</pathurl>
							<rate>
								<timebase>24</timebase>
								<ntsc>FALSE</ntsc>
							</rate>
							<duration>39627</duration>
							<timecode>
								<rate>
									<timebase>24</timebase>
									<ntsc>FALSE</ntsc>
								</rate>
								<string>00:00:00:00</string>
								<frame>0</frame>
								<displayformat>NDF</displayformat>
							</timecode>
							<media>
								<video>
									<samplecharacteristics>
										<rate>
											<timebase>24</timebase>
											<ntsc>FALSE</ntsc>
										</rate>
										<width>852</width>
										<height>480</height>
										<anamorphic>FALSE</anamorphic>
										<pixelaspectratio>square</pixelaspectratio>
										<fielddominance>none</fielddominance>
									</samplecharacteristics>
								</video>
								<audio>
									<samplecharacteristics>
										<depth>16</depth>
										<samplerate>44100</samplerate>
									</samplecharacteristics>
									<channelcount>2</channelcount>
								</audio>
							</media>
						</file>
						<filter>
							<effect>
								<name>Basic Motion</name>
								<effectid>basic</effectid>
								<effectcategory>motion</effectcategory>
								<effecttype>motion</effecttype>
								<mediatype>video</mediatype>
								<pproBypass>false</pproBypass>
								<parameter authoringApp="PremierePro">
									<parameterid>scale</parameterid>
									<name>Scale</name>
									<valuemin>0</valuemin>
									<valuemax>1000</valuemax>
									<value>225</value>
								</parameter>
								<parameter authoringApp="PremierePro">
									<parameterid>rotation</parameterid>
									<name>Rotation</name>
									<valuemin>-8640</valuemin>
									<valuemax>8640</valuemax>
									<value>0</value>
								</parameter>
								<parameter authoringApp="PremierePro">
									<parameterid>center</parameterid>
									<name>Center</name>
									<value>
										<horiz>0</horiz>
										<vert>0</vert>
									</value>
								</parameter>
								<parameter authoringApp="PremierePro">
									<parameterid>centerOffset</parameterid>
									<name>Anchor Point</name>
									<value>
										<horiz>0</horiz>
										<vert>0</vert>
									</value>
								</parameter>
								<parameter authoringApp="PremierePro">
									<parameterid>antiflicker</parameterid>
									<name>Anti-flicker Filter</name>
									<valuemin>0.0</valuemin>
									<valuemax>1.0</valuemax>
									<value>0</value>
								</parameter>
							</effect>
						</filter>
						<link>
							<linkclipref>clipitem-88</linkclipref>
							<mediatype>video</mediatype>
							<trackindex>1</trackindex>
							<clipindex>4</clipindex>
						</link>
						<link>
							<linkclipref>clipitem-96</linkclipref>
							<mediatype>audio</mediatype>
							<trackindex>1</trackindex>
							<clipindex>4</clipindex>
							<groupindex>1</groupindex>
						</link>
						<link>
							<linkclipref>clipitem-104</linkclipref>
							<mediatype>audio</mediatype>
							<trackindex>2</trackindex>
							<clipindex>4</clipindex>
							<groupindex>1</groupindex>
						</link>
						<logginginfo>
							<description />
							<scene />
							<shottake />
							<lognote />
							<good />
							<originalvideofilename />
							<originalaudiofilename />
						</logginginfo>
						<colorinfo>
							<lut />
							<lut1 />
							<asc_sop />
							<asc_sat />
							<lut2 />
						</colorinfo>
					<labels><label2>Lavender</label2></labels></clipitem>
					<clipitem id="clipitem-86">
						<masterclipid>clipitem-2-27</masterclipid>
						<name>Taylor_Swift_Shares_The_Story_Of_Calling_Travis_Kelce_For_The_First_Time.mp4</name>
						<enabled>TRUE</enabled>
						<duration>150</duration>
						<rate>
							<timebase>25</timebase>
							<ntsc>FALSE</ntsc>
						</rate>
						<start>94950</start>
						<end>95100</end>
						<in>3900</in>
						<out>4050</out>
						<pproTicksIn>0</pproTicksIn>
						<pproTicksOut>236438092800000</pproTicksOut>
						<alphatype>none</alphatype>
						<pixelaspectratio>square</pixelaspectratio>
						<anamorphic>FALSE</anamorphic>
						<file id="file-30">
							<name>Taylor_Swift_Shares_The_Story_Of_Calling_Travis_Kelce_For_The_First_Time.mp4</name>
							<pathurl>file://localhost/Users/themalikano/Documents/VideoAutomation/premiere_videos/Taylor_Swift_Shares_The_Story_Of_Calling_Travis_Kelce_For_The_First_Time.mp4</pathurl>
							<rate>
								<timebase>30</timebase>
								<ntsc>TRUE</ntsc>
							</rate>
							<duration>27897</duration>
							<timecode>
								<rate>
									<timebase>30</timebase>
									<ntsc>TRUE</ntsc>
								</rate>
								<string>00:00:00:00</string>
								<frame>0</frame>
								<displayformat>NDF</displayformat>
							</timecode>
							<media>
								<video>
									<samplecharacteristics>
										<rate>
											<timebase>30</timebase>
											<ntsc>TRUE</ntsc>
										</rate>
										<width>1920</width>
										<height>1080</height>
										<anamorphic>FALSE</anamorphic>
										<pixelaspectratio>square</pixelaspectratio>
										<fielddominance>none</fielddominance>
									</samplecharacteristics>
								</video>
								<audio>
									<samplecharacteristics>
										<depth>16</depth>
										<samplerate>44100</samplerate>
									</samplecharacteristics>
									<channelcount>2</channelcount>
								</audio>
							</media>
						</file>
						<link>
							<linkclipref>clipitem-86</linkclipref>
							<mediatype>video</mediatype>
							<trackindex>1</trackindex>
							<clipindex>2</clipindex>
						</link>
						<link>
							<linkclipref>clipitem-94</linkclipref>
							<mediatype>audio</mediatype>
							<trackindex>1</trackindex>
							<clipindex>2</clipindex>
							<groupindex>1</groupindex>
						</link>
						<link>
							<linkclipref>clipitem-102</linkclipref>
							<mediatype>audio</mediatype>
							<trackindex>2</trackindex>
							<clipindex>2</clipindex>
							<groupindex>1</groupindex>
						</link>
						<logginginfo>
							<description />
							<scene />
							<shottake />
							<lognote />
							<good />
							<originalvideofilename />
							<originalaudiofilename />
						</logginginfo>
						<colorinfo>
							<lut />
							<lut1 />
							<asc_sop />
							<asc_sat />
							<lut2 />
						</colorinfo>
					<labels><label2>Iris</label2></labels></clipitem>
					<clipitem id="clipitem-88">
						<masterclipid>clipitem-4-213</masterclipid>
						<name>Travis_Kelce_ANNOUNCE_WEDDING_DATE_with_Taylor_Swift_Why_He_was_Delaying_all_Along.mp4</name>
						<enabled>TRUE</enabled>
						<duration>150</duration>
						<rate>
							<timebase>25</timebase>
							<ntsc>FALSE</ntsc>
						</rate>
						<start>95100</start>
						<end>95250</end>
						<in>31800</in>
						<out>31950</out>
						<pproTicksIn>0</pproTicksIn>
						<pproTicksOut>419410897920000</pproTicksOut>
						<alphatype>none</alphatype>
						<pixelaspectratio>square</pixelaspectratio>
						<anamorphic>FALSE</anamorphic>
						<file id="file-32">
							<name>Travis_Kelce_ANNOUNCE_WEDDING_DATE_with_Taylor_Swift_Why_He_was_Delaying_all_Along.mp4</name>
							<pathurl>file://localhost/Users/themalikano/Documents/VideoAutomation/premiere_videos/Travis_Kelce_ANNOUNCE_WEDDING_DATE_with_Taylor_Swift_Why_He_was_Delaying_all_Along.mp4</pathurl>
							<rate>
								<timebase>24</timebase>
								<ntsc>FALSE</ntsc>
							</rate>
							<duration>39627</duration>
							<timecode>
								<rate>
									<timebase>24</timebase>
									<ntsc>FALSE</ntsc>
								</rate>
								<string>00:00:00:00</string>
								<frame>0</frame>
								<displayformat>NDF</displayformat>
							</timecode>
							<media>
								<video>
									<samplecharacteristics>
										<rate>
											<timebase>24</timebase>
											<ntsc>FALSE</ntsc>
										</rate>
										<width>852</width>
										<height>480</height>
										<anamorphic>FALSE</anamorphic>
										<pixelaspectratio>square</pixelaspectratio>
										<fielddominance>none</fielddominance>
									</samplecharacteristics>
								</video>
								<audio>
									<samplecharacteristics>
										<depth>16</depth>
										<samplerate>44100</samplerate>
									</samplecharacteristics>
									<channelcount>2</channelcount>
								</audio>
							</media>
						</file>
						<filter>
							<effect>
								<name>Basic Motion</name>
								<effectid>basic</effectid>
								<effectcategory>motion</effectcategory>
								<effecttype>motion</effecttype>
								<mediatype>video</mediatype>
								<pproBypass>false</pproBypass>
								<parameter authoringApp="PremierePro">
									<parameterid>scale</parameterid>
									<name>Scale</name>
									<valuemin>0</valuemin>
									<valuemax>1000</valuemax>
									<value>225</value>
								</parameter>
								<parameter authoringApp="PremierePro">
									<parameterid>rotation</parameterid>
									<name>Rotation</name>
									<valuemin>-8640</valuemin>
									<valuemax>8640</valuemax>
									<value>0</value>
								</parameter>
								<parameter authoringApp="PremierePro">
									<parameterid>center</parameterid>
									<name>Center</name>
									<value>
										<horiz>0</horiz>
										<vert>0</vert>
									</value>
								</parameter>
								<parameter authoringApp="PremierePro">
									<parameterid>centerOffset</parameterid>
									<name>Anchor Point</name>
									<value>
										<horiz>0</horiz>
										<vert>0</vert>
									</value>
								</parameter>
								<parameter authoringApp="PremierePro">
									<parameterid>antiflicker</parameterid>
									<name>Anti-flicker Filter</name>
									<valuemin>0.0</valuemin>
									<valuemax>1.0</valuemax>
									<value>0</value>
								</parameter>
							</effect>
						</filter>
						<link>
							<linkclipref>clipitem-88</linkclipref>
							<mediatype>video</mediatype>
							<trackindex>1</trackindex>
							<clipindex>4</clipindex>
						</link>
						<link>
							<linkclipref>clipitem-96</linkclipref>
							<mediatype>audio</mediatype>
							<trackindex>1</trackindex>
							<clipindex>4</clipindex>
							<groupindex>1</groupindex>
						</link>
						<link>
							<linkclipref>clipitem-104</linkclipref>
							<mediatype>audio</mediatype>
							<trackindex>2</trackindex>
							<clipindex>4</clipindex>
							<groupindex>1</groupindex>
						</link>
						<logginginfo>
							<description />
							<scene />
							<shottake />
							<lognote />
							<good />
							<originalvideofilename />
							<originalaudiofilename />
						</logginginfo>
						<colorinfo>
							<lut />
							<lut1 />
							<asc_sop />
							<asc_sat />
							<lut2 />
						</colorinfo>
					<labels><label2>Lavender</label2></labels></clipitem>
					<clipitem id="clipitem-86">
						<masterclipid>clipitem-2-154</masterclipid>
						<name>Taylor_Swift_Shares_The_Story_Of_Calling_Travis_Kelce_For_The_First_Time.mp4</name>
						<enabled>TRUE</enabled>
						<duration>150</duration>
						<rate>
							<timebase>25</timebase>
							<ntsc>FALSE</ntsc>
						</rate>
						<start>95250</start>
						<end>95400</end>
						<in>22950</in>
						<out>23100</out>
						<pproTicksIn>0</pproTicksIn>
						<pproTicksOut>236438092800000</pproTicksOut>
						<alphatype>none</alphatype>
						<pixelaspectratio>square</pixelaspectratio>
						<anamorphic>FALSE</anamorphic>
						<file id="file-30">
							<name>Taylor_Swift_Shares_The_Story_Of_Calling_Travis_Kelce_For_The_First_Time.mp4</name>
							<pathurl>file://localhost/Users/themalikano/Documents/VideoAutomation/premiere_videos/Taylor_Swift_Shares_The_Story_Of_Calling_Travis_Kelce_For_The_First_Time.mp4</pathurl>
							<rate>
								<timebase>30</timebase>
								<ntsc>TRUE</ntsc>
							</rate>
							<duration>27897</duration>
							<timecode>
								<rate>
									<timebase>30</timebase>
									<ntsc>TRUE</ntsc>
								</rate>
								<string>00:00:00:00</string>
								<frame>0</frame>
								<displayformat>NDF</displayformat>
							</timecode>
							<media>
								<video>
									<samplecharacteristics>
										<rate>
											<timebase>30</timebase>
											<ntsc>TRUE</ntsc>
										</rate>
										<width>1920</width>
										<height>1080</height>
										<anamorphic>FALSE</anamorphic>
										<pixelaspectratio>square</pixelaspectratio>
										<fielddominance>none</fielddominance>
									</samplecharacteristics>
								</video>
								<audio>
									<samplecharacteristics>
										<depth>16</depth>
										<samplerate>44100</samplerate>
									</samplecharacteristics>
									<channelcount>2</channelcount>
								</audio>
							</media>
						</file>
						<link>
							<linkclipref>clipitem-86</linkclipref>
							<mediatype>video</mediatype>
							<trackindex>1</trackindex>
							<clipindex>2</clipindex>
						</link>
						<link>
							<linkclipref>clipitem-94</linkclipref>
							<mediatype>audio</mediatype>
							<trackindex>1</trackindex>
							<clipindex>2</clipindex>
							<groupindex>1</groupindex>
						</link>
						<link>
							<linkclipref>clipitem-102</linkclipref>
							<mediatype>audio</mediatype>
							<trackindex>2</trackindex>
							<clipindex>2</clipindex>
							<groupindex>1</groupindex>
						</link>
						<logginginfo>
							<description />
							<scene />
							<shottake />
							<lognote />
							<good />
							<originalvideofilename />
							<originalaudiofilename />
						</logginginfo>
						<colorinfo>
							<lut />
							<lut1 />
							<asc_sop />
							<asc_sat />
							<lut2 />
						</colorinfo>
					<labels><label2>Iris</label2></labels></clipitem>
					<clipitem id="clipitem-87">
						<masterclipid>clipitem-3-285</masterclipid>
						<name>Taylor_Swift_Travis_Kelce_-_The_New_Power_Couple.mp4</name>
						<enabled>TRUE</enabled>
						<duration>150</duration>
						<rate>
							<timebase>25</timebase>
							<ntsc>FALSE</ntsc>
						</rate>
						<start>95400</start>
						<end>95550</end>
						<in>42600</in>
						<out>42750</out>
						<pproTicksIn>0</pproTicksIn>
						<pproTicksOut>875013995520000</pproTicksOut>
						<alphatype>none</alphatype>
						<pixelaspectratio>square</pixelaspectratio>
						<anamorphic>FALSE</anamorphic>
						<file id="file-31">
							<name>Taylor_Swift_Travis_Kelce_-_The_New_Power_Couple.mp4</name>
							<pathurl>file://localhost/Users/themalikano/Documents/VideoAutomation/premiere_videos/Taylor_Swift_Travis_Kelce_-_The_New_Power_Couple.mp4</pathurl>
							<rate>
								<timebase>25</timebase>
								<ntsc>FALSE</ntsc>
							</rate>
							<duration>86118</duration>
							<timecode>
								<rate>
									<timebase>25</timebase>
									<ntsc>FALSE</ntsc>
								</rate>
								<string>00:00:00:00</string>
								<frame>0</frame>
								<displayformat>NDF</displayformat>
							</timecode>
							<media>
								<video>
									<samplecharacteristics>
										<rate>
											<timebase>25</timebase>
											<ntsc>FALSE</ntsc>
										</rate>
										<width>1920</width>
										<height>1080</height>
										<anamorphic>FALSE</anamorphic>
										<pixelaspectratio>square</pixelaspectratio>
										<fielddominance>none</fielddominance>
									</samplecharacteristics>
								</video>
								<audio>
									<samplecharacteristics>
										<depth>16</depth>
										<samplerate>44100</samplerate>
									</samplecharacteristics>
									<channelcount>2</channelcount>
								</audio>
							</media>
						</file>
						<link>
							<linkclipref>clipitem-87</linkclipref>
							<mediatype>video</mediatype>
							<trackindex>1</trackindex>
							<clipindex>3</clipindex>
						</link>
						<link>
							<linkclipref>clipitem-95</linkclipref>
							<mediatype>audio</mediatype>
							<trackindex>1</trackindex>
							<clipindex>3</clipindex>
							<groupindex>1</groupindex>
						</link>
						<link>
							<linkclipref>clipitem-103</linkclipref>
							<mediatype>audio</mediatype>
							<trackindex>2</trackindex>
							<clipindex>3</clipindex>
							<groupindex>1</groupindex>
						</link>
						<logginginfo>
							<description />
							<scene />
							<shottake />
							<lognote />
							<good />
							<originalvideofilename />
							<originalaudiofilename />
						</logginginfo>
						<colorinfo>
							<lut />
							<lut1 />
							<asc_sop />
							<asc_sat />
							<lut2 />
						</colorinfo>
					<labels><label2>Caribbean</label2></labels></clipitem>
					<clipitem id="clipitem-86">
						<masterclipid>clipitem-2-128</masterclipid>
						<name>Taylor_Swift_Shares_The_Story_Of_Calling_Travis_Kelce_For_The_First_Time.mp4</name>
						<enabled>TRUE</enabled>
						<duration>150</duration>
						<rate>
							<timebase>25</timebase>
							<ntsc>FALSE</ntsc>
						</rate>
						<start>95550</start>
						<end>95700</end>
						<in>19050</in>
						<out>19200</out>
						<pproTicksIn>0</pproTicksIn>
						<pproTicksOut>236438092800000</pproTicksOut>
						<alphatype>none</alphatype>
						<pixelaspectratio>square</pixelaspectratio>
						<anamorphic>FALSE</anamorphic>
						<file id="file-30">
							<name>Taylor_Swift_Shares_The_Story_Of_Calling_Travis_Kelce_For_The_First_Time.mp4</name>
							<pathurl>file://localhost/Users/themalikano/Documents/VideoAutomation/premiere_videos/Taylor_Swift_Shares_The_Story_Of_Calling_Travis_Kelce_For_The_First_Time.mp4</pathurl>
							<rate>
								<timebase>30</timebase>
								<ntsc>TRUE</ntsc>
							</rate>
							<duration>27897</duration>
							<timecode>
								<rate>
									<timebase>30</timebase>
									<ntsc>TRUE</ntsc>
								</rate>
								<string>00:00:00:00</string>
								<frame>0</frame>
								<displayformat>NDF</displayformat>
							</timecode>
							<media>
								<video>
									<samplecharacteristics>
										<rate>
											<timebase>30</timebase>
											<ntsc>TRUE</ntsc>
										</rate>
										<width>1920</width>
										<height>1080</height>
										<anamorphic>FALSE</anamorphic>
										<pixelaspectratio>square</pixelaspectratio>
										<fielddominance>none</fielddominance>
									</samplecharacteristics>
								</video>
								<audio>
									<samplecharacteristics>
										<depth>16</depth>
										<samplerate>44100</samplerate>
									</samplecharacteristics>
									<channelcount>2</channelcount>
								</audio>
							</media>
						</file>
						<link>
							<linkclipref>clipitem-86</linkclipref>
							<mediatype>video</mediatype>
							<trackindex>1</trackindex>
							<clipindex>2</clipindex>
						</link>
						<link>
							<linkclipref>clipitem-94</linkclipref>
							<mediatype>audio</mediatype>
							<trackindex>1</trackindex>
							<clipindex>2</clipindex>
							<groupindex>1</groupindex>
						</link>
						<link>
							<linkclipref>clipitem-102</linkclipref>
							<mediatype>audio</mediatype>
							<trackindex>2</trackindex>
							<clipindex>2</clipindex>
							<groupindex>1</groupindex>
						</link>
						<logginginfo>
							<description />
							<scene />
							<shottake />
							<lognote />
							<good />
							<originalvideofilename />
							<originalaudiofilename />
						</logginginfo>
						<colorinfo>
							<lut />
							<lut1 />
							<asc_sop />
							<asc_sat />
							<lut2 />
						</colorinfo>
					<labels><label2>Iris</label2></labels></clipitem>
					<clipitem id="clipitem-88">
						<masterclipid>clipitem-4-262</masterclipid>
						<name>Travis_Kelce_ANNOUNCE_WEDDING_DATE_with_Taylor_Swift_Why_He_was_Delaying_all_Along.mp4</name>
						<enabled>TRUE</enabled>
						<duration>150</duration>
						<rate>
							<timebase>25</timebase>
							<ntsc>FALSE</ntsc>
						</rate>
						<start>95700</start>
						<end>95850</end>
						<in>39150</in>
						<out>39300</out>
						<pproTicksIn>0</pproTicksIn>
						<pproTicksOut>419410897920000</pproTicksOut>
						<alphatype>none</alphatype>
						<pixelaspectratio>square</pixelaspectratio>
						<anamorphic>FALSE</anamorphic>
						<file id="file-32">
							<name>Travis_Kelce_ANNOUNCE_WEDDING_DATE_with_Taylor_Swift_Why_He_was_Delaying_all_Along.mp4</name>
							<pathurl>file://localhost/Users/themalikano/Documents/VideoAutomation/premiere_videos/Travis_Kelce_ANNOUNCE_WEDDING_DATE_with_Taylor_Swift_Why_He_was_Delaying_all_Along.mp4</pathurl>
							<rate>
								<timebase>24</timebase>
								<ntsc>FALSE</ntsc>
							</rate>
							<duration>39627</duration>
							<timecode>
								<rate>
									<timebase>24</timebase>
									<ntsc>FALSE</ntsc>
								</rate>
								<string>00:00:00:00</string>
								<frame>0</frame>
								<displayformat>NDF</displayformat>
							</timecode>
							<media>
								<video>
									<samplecharacteristics>
										<rate>
											<timebase>24</timebase>
											<ntsc>FALSE</ntsc>
										</rate>
										<width>852</width>
										<height>480</height>
										<anamorphic>FALSE</anamorphic>
										<pixelaspectratio>square</pixelaspectratio>
										<fielddominance>none</fielddominance>
									</samplecharacteristics>
								</video>
								<audio>
									<samplecharacteristics>
										<depth>16</depth>
										<samplerate>44100</samplerate>
									</samplecharacteristics>
									<channelcount>2</channelcount>
								</audio>
							</media>
						</file>
						<filter>
							<effect>
								<name>Basic Motion</name>
								<effectid>basic</effectid>
								<effectcategory>motion</effectcategory>
								<effecttype>motion</effecttype>
								<mediatype>video</mediatype>
								<pproBypass>false</pproBypass>
								<parameter authoringApp="PremierePro">
									<parameterid>scale</parameterid>
									<name>Scale</name>
									<valuemin>0</valuemin>
									<valuemax>1000</valuemax>
									<value>225</value>
								</parameter>
								<parameter authoringApp="PremierePro">
									<parameterid>rotation</parameterid>
									<name>Rotation</name>
									<valuemin>-8640</valuemin>
									<valuemax>8640</valuemax>
									<value>0</value>
								</parameter>
								<parameter authoringApp="PremierePro">
									<parameterid>center</parameterid>
									<name>Center</name>
									<value>
										<horiz>0</horiz>
										<vert>0</vert>
									</value>
								</parameter>
								<parameter authoringApp="PremierePro">
									<parameterid>centerOffset</parameterid>
									<name>Anchor Point</name>
									<value>
										<horiz>0</horiz>
										<vert>0</vert>
									</value>
								</parameter>
								<parameter authoringApp="PremierePro">
									<parameterid>antiflicker</parameterid>
									<name>Anti-flicker Filter</name>
									<valuemin>0.0</valuemin>
									<valuemax>1.0</valuemax>
									<value>0</value>
								</parameter>
							</effect>
						</filter>
						<link>
							<linkclipref>clipitem-88</linkclipref>
							<mediatype>video</mediatype>
							<trackindex>1</trackindex>
							<clipindex>4</clipindex>
						</link>
						<link>
							<linkclipref>clipitem-96</linkclipref>
							<mediatype>audio</mediatype>
							<trackindex>1</trackindex>
							<clipindex>4</clipindex>
							<groupindex>1</groupindex>
						</link>
						<link>
							<linkclipref>clipitem-104</linkclipref>
							<mediatype>audio</mediatype>
							<trackindex>2</trackindex>
							<clipindex>4</clipindex>
							<groupindex>1</groupindex>
						</link>
						<logginginfo>
							<description />
							<scene />
							<shottake />
							<lognote />
							<good />
							<originalvideofilename />
							<originalaudiofilename />
						</logginginfo>
						<colorinfo>
							<lut />
							<lut1 />
							<asc_sop />
							<asc_sat />
							<lut2 />
						</colorinfo>
					<labels><label2>Lavender</label2></labels></clipitem>
					<clipitem id="clipitem-86">
						<masterclipid>clipitem-2-86</masterclipid>
						<name>Taylor_Swift_Shares_The_Story_Of_Calling_Travis_Kelce_For_The_First_Time.mp4</name>
						<enabled>TRUE</enabled>
						<duration>150</duration>
						<rate>
							<timebase>25</timebase>
							<ntsc>FALSE</ntsc>
						</rate>
						<start>95850</start>
						<end>96000</end>
						<in>12750</in>
						<out>12900</out>
						<pproTicksIn>0</pproTicksIn>
						<pproTicksOut>236438092800000</pproTicksOut>
						<alphatype>none</alphatype>
						<pixelaspectratio>square</pixelaspectratio>
						<anamorphic>FALSE</anamorphic>
						<file id="file-30">
							<name>Taylor_Swift_Shares_The_Story_Of_Calling_Travis_Kelce_For_The_First_Time.mp4</name>
							<pathurl>file://localhost/Users/themalikano/Documents/VideoAutomation/premiere_videos/Taylor_Swift_Shares_The_Story_Of_Calling_Travis_Kelce_For_The_First_Time.mp4</pathurl>
							<rate>
								<timebase>30</timebase>
								<ntsc>TRUE</ntsc>
							</rate>
							<duration>27897</duration>
							<timecode>
								<rate>
									<timebase>30</timebase>
									<ntsc>TRUE</ntsc>
								</rate>
								<string>00:00:00:00</string>
								<frame>0</frame>
								<displayformat>NDF</displayformat>
							</timecode>
							<media>
								<video>
									<samplecharacteristics>
										<rate>
											<timebase>30</timebase>
											<ntsc>TRUE</ntsc>
										</rate>
										<width>1920</width>
										<height>1080</height>
										<anamorphic>FALSE</anamorphic>
										<pixelaspectratio>square</pixelaspectratio>
										<fielddominance>none</fielddominance>
									</samplecharacteristics>
								</video>
								<audio>
									<samplecharacteristics>
										<depth>16</depth>
										<samplerate>44100</samplerate>
									</samplecharacteristics>
									<channelcount>2</channelcount>
								</audio>
							</media>
						</file>
						<link>
							<linkclipref>clipitem-86</linkclipref>
							<mediatype>video</mediatype>
							<trackindex>1</trackindex>
							<clipindex>2</clipindex>
						</link>
						<link>
							<linkclipref>clipitem-94</linkclipref>
							<mediatype>audio</mediatype>
							<trackindex>1</trackindex>
							<clipindex>2</clipindex>
							<groupindex>1</groupindex>
						</link>
						<link>
							<linkclipref>clipitem-102</linkclipref>
							<mediatype>audio</mediatype>
							<trackindex>2</trackindex>
							<clipindex>2</clipindex>
							<groupindex>1</groupindex>
						</link>
						<logginginfo>
							<description />
							<scene />
							<shottake />
							<lognote />
							<good />
							<originalvideofilename />
							<originalaudiofilename />
						</logginginfo>
						<colorinfo>
							<lut />
							<lut1 />
							<asc_sop />
							<asc_sat />
							<lut2 />
						</colorinfo>
					<labels><label2>Iris</label2></labels></clipitem>
					<clipitem id="clipitem-88">
						<masterclipid>clipitem-4-275</masterclipid>
						<name>Travis_Kelce_ANNOUNCE_WEDDING_DATE_with_Taylor_Swift_Why_He_was_Delaying_all_Along.mp4</name>
						<enabled>TRUE</enabled>
						<duration>150</duration>
						<rate>
							<timebase>25</timebase>
							<ntsc>FALSE</ntsc>
						</rate>
						<start>96000</start>
						<end>96150</end>
						<in>41100</in>
						<out>41250</out>
						<pproTicksIn>0</pproTicksIn>
						<pproTicksOut>419410897920000</pproTicksOut>
						<alphatype>none</alphatype>
						<pixelaspectratio>square</pixelaspectratio>
						<anamorphic>FALSE</anamorphic>
						<file id="file-32">
							<name>Travis_Kelce_ANNOUNCE_WEDDING_DATE_with_Taylor_Swift_Why_He_was_Delaying_all_Along.mp4</name>
							<pathurl>file://localhost/Users/themalikano/Documents/VideoAutomation/premiere_videos/Travis_Kelce_ANNOUNCE_WEDDING_DATE_with_Taylor_Swift_Why_He_was_Delaying_all_Along.mp4</pathurl>
							<rate>
								<timebase>24</timebase>
								<ntsc>FALSE</ntsc>
							</rate>
							<duration>39627</duration>
							<timecode>
								<rate>
									<timebase>24</timebase>
									<ntsc>FALSE</ntsc>
								</rate>
								<string>00:00:00:00</string>
								<frame>0</frame>
								<displayformat>NDF</displayformat>
							</timecode>
							<media>
								<video>
									<samplecharacteristics>
										<rate>
											<timebase>24</timebase>
											<ntsc>FALSE</ntsc>
										</rate>
										<width>852</width>
										<height>480</height>
										<anamorphic>FALSE</anamorphic>
										<pixelaspectratio>square</pixelaspectratio>
										<fielddominance>none</fielddominance>
									</samplecharacteristics>
								</video>
								<audio>
									<samplecharacteristics>
										<depth>16</depth>
										<samplerate>44100</samplerate>
									</samplecharacteristics>
									<channelcount>2</channelcount>
								</audio>
							</media>
						</file>
						<filter>
							<effect>
								<name>Basic Motion</name>
								<effectid>basic</effectid>
								<effectcategory>motion</effectcategory>
								<effecttype>motion</effecttype>
								<mediatype>video</mediatype>
								<pproBypass>false</pproBypass>
								<parameter authoringApp="PremierePro">
									<parameterid>scale</parameterid>
									<name>Scale</name>
									<valuemin>0</valuemin>
									<valuemax>1000</valuemax>
									<value>225</value>
								</parameter>
								<parameter authoringApp="PremierePro">
									<parameterid>rotation</parameterid>
									<name>Rotation</name>
									<valuemin>-8640</valuemin>
									<valuemax>8640</valuemax>
									<value>0</value>
								</parameter>
								<parameter authoringApp="PremierePro">
									<parameterid>center</parameterid>
									<name>Center</name>
									<value>
										<horiz>0</horiz>
										<vert>0</vert>
									</value>
								</parameter>
								<parameter authoringApp="PremierePro">
									<parameterid>centerOffset</parameterid>
									<name>Anchor Point</name>
									<value>
										<horiz>0</horiz>
										<vert>0</vert>
									</value>
								</parameter>
								<parameter authoringApp="PremierePro">
									<parameterid>antiflicker</parameterid>
									<name>Anti-flicker Filter</name>
									<valuemin>0.0</valuemin>
									<valuemax>1.0</valuemax>
									<value>0</value>
								</parameter>
							</effect>
						</filter>
						<link>
							<linkclipref>clipitem-88</linkclipref>
							<mediatype>video</mediatype>
							<trackindex>1</trackindex>
							<clipindex>4</clipindex>
						</link>
						<link>
							<linkclipref>clipitem-96</linkclipref>
							<mediatype>audio</mediatype>
							<trackindex>1</trackindex>
							<clipindex>4</clipindex>
							<groupindex>1</groupindex>
						</link>
						<link>
							<linkclipref>clipitem-104</linkclipref>
							<mediatype>audio</mediatype>
							<trackindex>2</trackindex>
							<clipindex>4</clipindex>
							<groupindex>1</groupindex>
						</link>
						<logginginfo>
							<description />
							<scene />
							<shottake />
							<lognote />
							<good />
							<originalvideofilename />
							<originalaudiofilename />
						</logginginfo>
						<colorinfo>
							<lut />
							<lut1 />
							<asc_sop />
							<asc_sat />
							<lut2 />
						</colorinfo>
					<labels><label2>Lavender</label2></labels></clipitem>
					<clipitem id="clipitem-86">
						<masterclipid>clipitem-2-140</masterclipid>
						<name>Taylor_Swift_Shares_The_Story_Of_Calling_Travis_Kelce_For_The_First_Time.mp4</name>
						<enabled>TRUE</enabled>
						<duration>150</duration>
						<rate>
							<timebase>25</timebase>
							<ntsc>FALSE</ntsc>
						</rate>
						<start>96150</start>
						<end>96300</end>
						<in>20850</in>
						<out>21000</out>
						<pproTicksIn>0</pproTicksIn>
						<pproTicksOut>236438092800000</pproTicksOut>
						<alphatype>none</alphatype>
						<pixelaspectratio>square</pixelaspectratio>
						<anamorphic>FALSE</anamorphic>
						<file id="file-30">
							<name>Taylor_Swift_Shares_The_Story_Of_Calling_Travis_Kelce_For_The_First_Time.mp4</name>
							<pathurl>file://localhost/Users/themalikano/Documents/VideoAutomation/premiere_videos/Taylor_Swift_Shares_The_Story_Of_Calling_Travis_Kelce_For_The_First_Time.mp4</pathurl>
							<rate>
								<timebase>30</timebase>
								<ntsc>TRUE</ntsc>
							</rate>
							<duration>27897</duration>
							<timecode>
								<rate>
									<timebase>30</timebase>
									<ntsc>TRUE</ntsc>
								</rate>
								<string>00:00:00:00</string>
								<frame>0</frame>
								<displayformat>NDF</displayformat>
							</timecode>
							<media>
								<video>
									<samplecharacteristics>
										<rate>
											<timebase>30</timebase>
											<ntsc>TRUE</ntsc>
										</rate>
										<width>1920</width>
										<height>1080</height>
										<anamorphic>FALSE</anamorphic>
										<pixelaspectratio>square</pixelaspectratio>
										<fielddominance>none</fielddominance>
									</samplecharacteristics>
								</video>
								<audio>
									<samplecharacteristics>
										<depth>16</depth>
										<samplerate>44100</samplerate>
									</samplecharacteristics>
									<channelcount>2</channelcount>
								</audio>
							</media>
						</file>
						<link>
							<linkclipref>clipitem-86</linkclipref>
							<mediatype>video</mediatype>
							<trackindex>1</trackindex>
							<clipindex>2</clipindex>
						</link>
						<link>
							<linkclipref>clipitem-94</linkclipref>
							<mediatype>audio</mediatype>
							<trackindex>1</trackindex>
							<clipindex>2</clipindex>
							<groupindex>1</groupindex>
						</link>
						<link>
							<linkclipref>clipitem-102</linkclipref>
							<mediatype>audio</mediatype>
							<trackindex>2</trackindex>
							<clipindex>2</clipindex>
							<groupindex>1</groupindex>
						</link>
						<logginginfo>
							<description />
							<scene />
							<shottake />
							<lognote />
							<good />
							<originalvideofilename />
							<originalaudiofilename />
						</logginginfo>
						<colorinfo>
							<lut />
							<lut1 />
							<asc_sop />
							<asc_sat />
							<lut2 />
						</colorinfo>
					<labels><label2>Iris</label2></labels></clipitem>
					<clipitem id="clipitem-88">
						<masterclipid>clipitem-4-108</masterclipid>
						<name>Travis_Kelce_ANNOUNCE_WEDDING_DATE_with_Taylor_Swift_Why_He_was_Delaying_all_Along.mp4</name>
						<enabled>TRUE</enabled>
						<duration>150</duration>
						<rate>
							<timebase>25</timebase>
							<ntsc>FALSE</ntsc>
						</rate>
						<start>96300</start>
						<end>96450</end>
						<in>16050</in>
						<out>16200</out>
						<pproTicksIn>0</pproTicksIn>
						<pproTicksOut>419410897920000</pproTicksOut>
						<alphatype>none</alphatype>
						<pixelaspectratio>square</pixelaspectratio>
						<anamorphic>FALSE</anamorphic>
						<file id="file-32">
							<name>Travis_Kelce_ANNOUNCE_WEDDING_DATE_with_Taylor_Swift_Why_He_was_Delaying_all_Along.mp4</name>
							<pathurl>file://localhost/Users/themalikano/Documents/VideoAutomation/premiere_videos/Travis_Kelce_ANNOUNCE_WEDDING_DATE_with_Taylor_Swift_Why_He_was_Delaying_all_Along.mp4</pathurl>
							<rate>
								<timebase>24</timebase>
								<ntsc>FALSE</ntsc>
							</rate>
							<duration>39627</duration>
							<timecode>
								<rate>
									<timebase>24</timebase>
									<ntsc>FALSE</ntsc>
								</rate>
								<string>00:00:00:00</string>
								<frame>0</frame>
								<displayformat>NDF</displayformat>
							</timecode>
							<media>
								<video>
									<samplecharacteristics>
										<rate>
											<timebase>24</timebase>
											<ntsc>FALSE</ntsc>
										</rate>
										<width>852</width>
										<height>480</height>
										<anamorphic>FALSE</anamorphic>
										<pixelaspectratio>square</pixelaspectratio>
										<fielddominance>none</fielddominance>
									</samplecharacteristics>
								</video>
								<audio>
									<samplecharacteristics>
										<depth>16</depth>
										<samplerate>44100</samplerate>
									</samplecharacteristics>
									<channelcount>2</channelcount>
								</audio>
							</media>
						</file>
						<filter>
							<effect>
								<name>Basic Motion</name>
								<effectid>basic</effectid>
								<effectcategory>motion</effectcategory>
								<effecttype>motion</effecttype>
								<mediatype>video</mediatype>
								<pproBypass>false</pproBypass>
								<parameter authoringApp="PremierePro">
									<parameterid>scale</parameterid>
									<name>Scale</name>
									<valuemin>0</valuemin>
									<valuemax>1000</valuemax>
									<value>225</value>
								</parameter>
								<parameter authoringApp="PremierePro">
									<parameterid>rotation</parameterid>
									<name>Rotation</name>
									<valuemin>-8640</valuemin>
									<valuemax>8640</valuemax>
									<value>0</value>
								</parameter>
								<parameter authoringApp="PremierePro">
									<parameterid>center</parameterid>
									<name>Center</name>
									<value>
										<horiz>0</horiz>
										<vert>0</vert>
									</value>
								</parameter>
								<parameter authoringApp="PremierePro">
									<parameterid>centerOffset</parameterid>
									<name>Anchor Point</name>
									<value>
										<horiz>0</horiz>
										<vert>0</vert>
									</value>
								</parameter>
								<parameter authoringApp="PremierePro">
									<parameterid>antiflicker</parameterid>
									<name>Anti-flicker Filter</name>
									<valuemin>0.0</valuemin>
									<valuemax>1.0</valuemax>
									<value>0</value>
								</parameter>
							</effect>
						</filter>
						<link>
							<linkclipref>clipitem-88</linkclipref>
							<mediatype>video</mediatype>
							<trackindex>1</trackindex>
							<clipindex>4</clipindex>
						</link>
						<link>
							<linkclipref>clipitem-96</linkclipref>
							<mediatype>audio</mediatype>
							<trackindex>1</trackindex>
							<clipindex>4</clipindex>
							<groupindex>1</groupindex>
						</link>
						<link>
							<linkclipref>clipitem-104</linkclipref>
							<mediatype>audio</mediatype>
							<trackindex>2</trackindex>
							<clipindex>4</clipindex>
							<groupindex>1</groupindex>
						</link>
						<logginginfo>
							<description />
							<scene />
							<shottake />
							<lognote />
							<good />
							<originalvideofilename />
							<originalaudiofilename />
						</logginginfo>
						<colorinfo>
							<lut />
							<lut1 />
							<asc_sop />
							<asc_sat />
							<lut2 />
						</colorinfo>
					<labels><label2>Lavender</label2></labels></clipitem>
					<clipitem id="clipitem-87">
						<masterclipid>clipitem-3-117</masterclipid>
						<name>Taylor_Swift_Travis_Kelce_-_The_New_Power_Couple.mp4</name>
						<enabled>TRUE</enabled>
						<duration>150</duration>
						<rate>
							<timebase>25</timebase>
							<ntsc>FALSE</ntsc>
						</rate>
						<start>96450</start>
						<end>96600</end>
						<in>17400</in>
						<out>17550</out>
						<pproTicksIn>0</pproTicksIn>
						<pproTicksOut>875013995520000</pproTicksOut>
						<alphatype>none</alphatype>
						<pixelaspectratio>square</pixelaspectratio>
						<anamorphic>FALSE</anamorphic>
						<file id="file-31">
							<name>Taylor_Swift_Travis_Kelce_-_The_New_Power_Couple.mp4</name>
							<pathurl>file://localhost/Users/themalikano/Documents/VideoAutomation/premiere_videos/Taylor_Swift_Travis_Kelce_-_The_New_Power_Couple.mp4</pathurl>
							<rate>
								<timebase>25</timebase>
								<ntsc>FALSE</ntsc>
							</rate>
							<duration>86118</duration>
							<timecode>
								<rate>
									<timebase>25</timebase>
									<ntsc>FALSE</ntsc>
								</rate>
								<string>00:00:00:00</string>
								<frame>0</frame>
								<displayformat>NDF</displayformat>
							</timecode>
							<media>
								<video>
									<samplecharacteristics>
										<rate>
											<timebase>25</timebase>
											<ntsc>FALSE</ntsc>
										</rate>
										<width>1920</width>
										<height>1080</height>
										<anamorphic>FALSE</anamorphic>
										<pixelaspectratio>square</pixelaspectratio>
										<fielddominance>none</fielddominance>
									</samplecharacteristics>
								</video>
								<audio>
									<samplecharacteristics>
										<depth>16</depth>
										<samplerate>44100</samplerate>
									</samplecharacteristics>
									<channelcount>2</channelcount>
								</audio>
							</media>
						</file>
						<link>
							<linkclipref>clipitem-87</linkclipref>
							<mediatype>video</mediatype>
							<trackindex>1</trackindex>
							<clipindex>3</clipindex>
						</link>
						<link>
							<linkclipref>clipitem-95</linkclipref>
							<mediatype>audio</mediatype>
							<trackindex>1</trackindex>
							<clipindex>3</clipindex>
							<groupindex>1</groupindex>
						</link>
						<link>
							<linkclipref>clipitem-103</linkclipref>
							<mediatype>audio</mediatype>
							<trackindex>2</trackindex>
							<clipindex>3</clipindex>
							<groupindex>1</groupindex>
						</link>
						<logginginfo>
							<description />
							<scene />
							<shottake />
							<lognote />
							<good />
							<originalvideofilename />
							<originalaudiofilename />
						</logginginfo>
						<colorinfo>
							<lut />
							<lut1 />
							<asc_sop />
							<asc_sat />
							<lut2 />
						</colorinfo>
					<labels><label2>Caribbean</label2></labels></clipitem>
					<clipitem id="clipitem-88">
						<masterclipid>clipitem-4-231</masterclipid>
						<name>Travis_Kelce_ANNOUNCE_WEDDING_DATE_with_Taylor_Swift_Why_He_was_Delaying_all_Along.mp4</name>
						<enabled>TRUE</enabled>
						<duration>150</duration>
						<rate>
							<timebase>25</timebase>
							<ntsc>FALSE</ntsc>
						</rate>
						<start>96600</start>
						<end>96750</end>
						<in>34500</in>
						<out>34650</out>
						<pproTicksIn>0</pproTicksIn>
						<pproTicksOut>419410897920000</pproTicksOut>
						<alphatype>none</alphatype>
						<pixelaspectratio>square</pixelaspectratio>
						<anamorphic>FALSE</anamorphic>
						<file id="file-32">
							<name>Travis_Kelce_ANNOUNCE_WEDDING_DATE_with_Taylor_Swift_Why_He_was_Delaying_all_Along.mp4</name>
							<pathurl>file://localhost/Users/themalikano/Documents/VideoAutomation/premiere_videos/Travis_Kelce_ANNOUNCE_WEDDING_DATE_with_Taylor_Swift_Why_He_was_Delaying_all_Along.mp4</pathurl>
							<rate>
								<timebase>24</timebase>
								<ntsc>FALSE</ntsc>
							</rate>
							<duration>39627</duration>
							<timecode>
								<rate>
									<timebase>24</timebase>
									<ntsc>FALSE</ntsc>
								</rate>
								<string>00:00:00:00</string>
								<frame>0</frame>
								<displayformat>NDF</displayformat>
							</timecode>
							<media>
								<video>
									<samplecharacteristics>
										<rate>
											<timebase>24</timebase>
											<ntsc>FALSE</ntsc>
										</rate>
										<width>852</width>
										<height>480</height>
										<anamorphic>FALSE</anamorphic>
										<pixelaspectratio>square</pixelaspectratio>
										<fielddominance>none</fielddominance>
									</samplecharacteristics>
								</video>
								<audio>
									<samplecharacteristics>
										<depth>16</depth>
										<samplerate>44100</samplerate>
									</samplecharacteristics>
									<channelcount>2</channelcount>
								</audio>
							</media>
						</file>
						<filter>
							<effect>
								<name>Basic Motion</name>
								<effectid>basic</effectid>
								<effectcategory>motion</effectcategory>
								<effecttype>motion</effecttype>
								<mediatype>video</mediatype>
								<pproBypass>false</pproBypass>
								<parameter authoringApp="PremierePro">
									<parameterid>scale</parameterid>
									<name>Scale</name>
									<valuemin>0</valuemin>
									<valuemax>1000</valuemax>
									<value>225</value>
								</parameter>
								<parameter authoringApp="PremierePro">
									<parameterid>rotation</parameterid>
									<name>Rotation</name>
									<valuemin>-8640</valuemin>
									<valuemax>8640</valuemax>
									<value>0</value>
								</parameter>
								<parameter authoringApp="PremierePro">
									<parameterid>center</parameterid>
									<name>Center</name>
									<value>
										<horiz>0</horiz>
										<vert>0</vert>
									</value>
								</parameter>
								<parameter authoringApp="PremierePro">
									<parameterid>centerOffset</parameterid>
									<name>Anchor Point</name>
									<value>
										<horiz>0</horiz>
										<vert>0</vert>
									</value>
								</parameter>
								<parameter authoringApp="PremierePro">
									<parameterid>antiflicker</parameterid>
									<name>Anti-flicker Filter</name>
									<valuemin>0.0</valuemin>
									<valuemax>1.0</valuemax>
									<value>0</value>
								</parameter>
							</effect>
						</filter>
						<link>
							<linkclipref>clipitem-88</linkclipref>
							<mediatype>video</mediatype>
							<trackindex>1</trackindex>
							<clipindex>4</clipindex>
						</link>
						<link>
							<linkclipref>clipitem-96</linkclipref>
							<mediatype>audio</mediatype>
							<trackindex>1</trackindex>
							<clipindex>4</clipindex>
							<groupindex>1</groupindex>
						</link>
						<link>
							<linkclipref>clipitem-104</linkclipref>
							<mediatype>audio</mediatype>
							<trackindex>2</trackindex>
							<clipindex>4</clipindex>
							<groupindex>1</groupindex>
						</link>
						<logginginfo>
							<description />
							<scene />
							<shottake />
							<lognote />
							<good />
							<originalvideofilename />
							<originalaudiofilename />
						</logginginfo>
						<colorinfo>
							<lut />
							<lut1 />
							<asc_sop />
							<asc_sat />
							<lut2 />
						</colorinfo>
					<labels><label2>Lavender</label2></labels></clipitem>
					<clipitem id="clipitem-86">
						<masterclipid>clipitem-2-33</masterclipid>
						<name>Taylor_Swift_Shares_The_Story_Of_Calling_Travis_Kelce_For_The_First_Time.mp4</name>
						<enabled>TRUE</enabled>
						<duration>150</duration>
						<rate>
							<timebase>25</timebase>
							<ntsc>FALSE</ntsc>
						</rate>
						<start>96750</start>
						<end>96900</end>
						<in>4800</in>
						<out>4950</out>
						<pproTicksIn>0</pproTicksIn>
						<pproTicksOut>236438092800000</pproTicksOut>
						<alphatype>none</alphatype>
						<pixelaspectratio>square</pixelaspectratio>
						<anamorphic>FALSE</anamorphic>
						<file id="file-30">
							<name>Taylor_Swift_Shares_The_Story_Of_Calling_Travis_Kelce_For_The_First_Time.mp4</name>
							<pathurl>file://localhost/Users/themalikano/Documents/VideoAutomation/premiere_videos/Taylor_Swift_Shares_The_Story_Of_Calling_Travis_Kelce_For_The_First_Time.mp4</pathurl>
							<rate>
								<timebase>30</timebase>
								<ntsc>TRUE</ntsc>
							</rate>
							<duration>27897</duration>
							<timecode>
								<rate>
									<timebase>30</timebase>
									<ntsc>TRUE</ntsc>
								</rate>
								<string>00:00:00:00</string>
								<frame>0</frame>
								<displayformat>NDF</displayformat>
							</timecode>
							<media>
								<video>
									<samplecharacteristics>
										<rate>
											<timebase>30</timebase>
											<ntsc>TRUE</ntsc>
										</rate>
										<width>1920</width>
										<height>1080</height>
										<anamorphic>FALSE</anamorphic>
										<pixelaspectratio>square</pixelaspectratio>
										<fielddominance>none</fielddominance>
									</samplecharacteristics>
								</video>
								<audio>
									<samplecharacteristics>
										<depth>16</depth>
										<samplerate>44100</samplerate>
									</samplecharacteristics>
									<channelcount>2</channelcount>
								</audio>
							</media>
						</file>
						<link>
							<linkclipref>clipitem-86</linkclipref>
							<mediatype>video</mediatype>
							<trackindex>1</trackindex>
							<clipindex>2</clipindex>
						</link>
						<link>
							<linkclipref>clipitem-94</linkclipref>
							<mediatype>audio</mediatype>
							<trackindex>1</trackindex>
							<clipindex>2</clipindex>
							<groupindex>1</groupindex>
						</link>
						<link>
							<linkclipref>clipitem-102</linkclipref>
							<mediatype>audio</mediatype>
							<trackindex>2</trackindex>
							<clipindex>2</clipindex>
							<groupindex>1</groupindex>
						</link>
						<logginginfo>
							<description />
							<scene />
							<shottake />
							<lognote />
							<good />
							<originalvideofilename />
							<originalaudiofilename />
						</logginginfo>
						<colorinfo>
							<lut />
							<lut1 />
							<asc_sop />
							<asc_sat />
							<lut2 />
						</colorinfo>
					<labels><label2>Iris</label2></labels></clipitem>
					<clipitem id="clipitem-88">
						<masterclipid>clipitem-4-57</masterclipid>
						<name>Travis_Kelce_ANNOUNCE_WEDDING_DATE_with_Taylor_Swift_Why_He_was_Delaying_all_Along.mp4</name>
						<enabled>TRUE</enabled>
						<duration>150</duration>
						<rate>
							<timebase>25</timebase>
							<ntsc>FALSE</ntsc>
						</rate>
						<start>96900</start>
						<end>97050</end>
						<in>8400</in>
						<out>8550</out>
						<pproTicksIn>0</pproTicksIn>
						<pproTicksOut>419410897920000</pproTicksOut>
						<alphatype>none</alphatype>
						<pixelaspectratio>square</pixelaspectratio>
						<anamorphic>FALSE</anamorphic>
						<file id="file-32">
							<name>Travis_Kelce_ANNOUNCE_WEDDING_DATE_with_Taylor_Swift_Why_He_was_Delaying_all_Along.mp4</name>
							<pathurl>file://localhost/Users/themalikano/Documents/VideoAutomation/premiere_videos/Travis_Kelce_ANNOUNCE_WEDDING_DATE_with_Taylor_Swift_Why_He_was_Delaying_all_Along.mp4</pathurl>
							<rate>
								<timebase>24</timebase>
								<ntsc>FALSE</ntsc>
							</rate>
							<duration>39627</duration>
							<timecode>
								<rate>
									<timebase>24</timebase>
									<ntsc>FALSE</ntsc>
								</rate>
								<string>00:00:00:00</string>
								<frame>0</frame>
								<displayformat>NDF</displayformat>
							</timecode>
							<media>
								<video>
									<samplecharacteristics>
										<rate>
											<timebase>24</timebase>
											<ntsc>FALSE</ntsc>
										</rate>
										<width>852</width>
										<height>480</height>
										<anamorphic>FALSE</anamorphic>
										<pixelaspectratio>square</pixelaspectratio>
										<fielddominance>none</fielddominance>
									</samplecharacteristics>
								</video>
								<audio>
									<samplecharacteristics>
										<depth>16</depth>
										<samplerate>44100</samplerate>
									</samplecharacteristics>
									<channelcount>2</channelcount>
								</audio>
							</media>
						</file>
						<filter>
							<effect>
								<name>Basic Motion</name>
								<effectid>basic</effectid>
								<effectcategory>motion</effectcategory>
								<effecttype>motion</effecttype>
								<mediatype>video</mediatype>
								<pproBypass>false</pproBypass>
								<parameter authoringApp="PremierePro">
									<parameterid>scale</parameterid>
									<name>Scale</name>
									<valuemin>0</valuemin>
									<valuemax>1000</valuemax>
									<value>225</value>
								</parameter>
								<parameter authoringApp="PremierePro">
									<parameterid>rotation</parameterid>
									<name>Rotation</name>
									<valuemin>-8640</valuemin>
									<valuemax>8640</valuemax>
									<value>0</value>
								</parameter>
								<parameter authoringApp="PremierePro">
									<parameterid>center</parameterid>
									<name>Center</name>
									<value>
										<horiz>0</horiz>
										<vert>0</vert>
									</value>
								</parameter>
								<parameter authoringApp="PremierePro">
									<parameterid>centerOffset</parameterid>
									<name>Anchor Point</name>
									<value>
										<horiz>0</horiz>
										<vert>0</vert>
									</value>
								</parameter>
								<parameter authoringApp="PremierePro">
									<parameterid>antiflicker</parameterid>
									<name>Anti-flicker Filter</name>
									<valuemin>0.0</valuemin>
									<valuemax>1.0</valuemax>
									<value>0</value>
								</parameter>
							</effect>
						</filter>
						<link>
							<linkclipref>clipitem-88</linkclipref>
							<mediatype>video</mediatype>
							<trackindex>1</trackindex>
							<clipindex>4</clipindex>
						</link>
						<link>
							<linkclipref>clipitem-96</linkclipref>
							<mediatype>audio</mediatype>
							<trackindex>1</trackindex>
							<clipindex>4</clipindex>
							<groupindex>1</groupindex>
						</link>
						<link>
							<linkclipref>clipitem-104</linkclipref>
							<mediatype>audio</mediatype>
							<trackindex>2</trackindex>
							<clipindex>4</clipindex>
							<groupindex>1</groupindex>
						</link>
						<logginginfo>
							<description />
							<scene />
							<shottake />
							<lognote />
							<good />
							<originalvideofilename />
							<originalaudiofilename />
						</logginginfo>
						<colorinfo>
							<lut />
							<lut1 />
							<asc_sop />
							<asc_sat />
							<lut2 />
						</colorinfo>
					<labels><label2>Lavender</label2></labels></clipitem>
					<clipitem id="clipitem-86">
						<masterclipid>clipitem-2-36</masterclipid>
						<name>Taylor_Swift_Shares_The_Story_Of_Calling_Travis_Kelce_For_The_First_Time.mp4</name>
						<enabled>TRUE</enabled>
						<duration>150</duration>
						<rate>
							<timebase>25</timebase>
							<ntsc>FALSE</ntsc>
						</rate>
						<start>97050</start>
						<end>97200</end>
						<in>5250</in>
						<out>5400</out>
						<pproTicksIn>0</pproTicksIn>
						<pproTicksOut>236438092800000</pproTicksOut>
						<alphatype>none</alphatype>
						<pixelaspectratio>square</pixelaspectratio>
						<anamorphic>FALSE</anamorphic>
						<file id="file-30">
							<name>Taylor_Swift_Shares_The_Story_Of_Calling_Travis_Kelce_For_The_First_Time.mp4</name>
							<pathurl>file://localhost/Users/themalikano/Documents/VideoAutomation/premiere_videos/Taylor_Swift_Shares_The_Story_Of_Calling_Travis_Kelce_For_The_First_Time.mp4</pathurl>
							<rate>
								<timebase>30</timebase>
								<ntsc>TRUE</ntsc>
							</rate>
							<duration>27897</duration>
							<timecode>
								<rate>
									<timebase>30</timebase>
									<ntsc>TRUE</ntsc>
								</rate>
								<string>00:00:00:00</string>
								<frame>0</frame>
								<displayformat>NDF</displayformat>
							</timecode>
							<media>
								<video>
									<samplecharacteristics>
										<rate>
											<timebase>30</timebase>
											<ntsc>TRUE</ntsc>
										</rate>
										<width>1920</width>
										<height>1080</height>
										<anamorphic>FALSE</anamorphic>
										<pixelaspectratio>square</pixelaspectratio>
										<fielddominance>none</fielddominance>
									</samplecharacteristics>
								</video>
								<audio>
									<samplecharacteristics>
										<depth>16</depth>
										<samplerate>44100</samplerate>
									</samplecharacteristics>
									<channelcount>2</channelcount>
								</audio>
							</media>
						</file>
						<link>
							<linkclipref>clipitem-86</linkclipref>
							<mediatype>video</mediatype>
							<trackindex>1</trackindex>
							<clipindex>2</clipindex>
						</link>
						<link>
							<linkclipref>clipitem-94</linkclipref>
							<mediatype>audio</mediatype>
							<trackindex>1</trackindex>
							<clipindex>2</clipindex>
							<groupindex>1</groupindex>
						</link>
						<link>
							<linkclipref>clipitem-102</linkclipref>
							<mediatype>audio</mediatype>
							<trackindex>2</trackindex>
							<clipindex>2</clipindex>
							<groupindex>1</groupindex>
						</link>
						<logginginfo>
							<description />
							<scene />
							<shottake />
							<lognote />
							<good />
							<originalvideofilename />
							<originalaudiofilename />
						</logginginfo>
						<colorinfo>
							<lut />
							<lut1 />
							<asc_sop />
							<asc_sat />
							<lut2 />
						</colorinfo>
					<labels><label2>Iris</label2></labels></clipitem>
					<clipitem id="clipitem-88">
						<masterclipid>clipitem-4-5</masterclipid>
						<name>Travis_Kelce_ANNOUNCE_WEDDING_DATE_with_Taylor_Swift_Why_He_was_Delaying_all_Along.mp4</name>
						<enabled>TRUE</enabled>
						<duration>150</duration>
						<rate>
							<timebase>25</timebase>
							<ntsc>FALSE</ntsc>
						</rate>
						<start>97200</start>
						<end>97350</end>
						<in>600</in>
						<out>750</out>
						<pproTicksIn>0</pproTicksIn>
						<pproTicksOut>419410897920000</pproTicksOut>
						<alphatype>none</alphatype>
						<pixelaspectratio>square</pixelaspectratio>
						<anamorphic>FALSE</anamorphic>
						<file id="file-32">
							<name>Travis_Kelce_ANNOUNCE_WEDDING_DATE_with_Taylor_Swift_Why_He_was_Delaying_all_Along.mp4</name>
							<pathurl>file://localhost/Users/themalikano/Documents/VideoAutomation/premiere_videos/Travis_Kelce_ANNOUNCE_WEDDING_DATE_with_Taylor_Swift_Why_He_was_Delaying_all_Along.mp4</pathurl>
							<rate>
								<timebase>24</timebase>
								<ntsc>FALSE</ntsc>
							</rate>
							<duration>39627</duration>
							<timecode>
								<rate>
									<timebase>24</timebase>
									<ntsc>FALSE</ntsc>
								</rate>
								<string>00:00:00:00</string>
								<frame>0</frame>
								<displayformat>NDF</displayformat>
							</timecode>
							<media>
								<video>
									<samplecharacteristics>
										<rate>
											<timebase>24</timebase>
											<ntsc>FALSE</ntsc>
										</rate>
										<width>852</width>
										<height>480</height>
										<anamorphic>FALSE</anamorphic>
										<pixelaspectratio>square</pixelaspectratio>
										<fielddominance>none</fielddominance>
									</samplecharacteristics>
								</video>
								<audio>
									<samplecharacteristics>
										<depth>16</depth>
										<samplerate>44100</samplerate>
									</samplecharacteristics>
									<channelcount>2</channelcount>
								</audio>
							</media>
						</file>
						<filter>
							<effect>
								<name>Basic Motion</name>
								<effectid>basic</effectid>
								<effectcategory>motion</effectcategory>
								<effecttype>motion</effecttype>
								<mediatype>video</mediatype>
								<pproBypass>false</pproBypass>
								<parameter authoringApp="PremierePro">
									<parameterid>scale</parameterid>
									<name>Scale</name>
									<valuemin>0</valuemin>
									<valuemax>1000</valuemax>
									<value>225</value>
								</parameter>
								<parameter authoringApp="PremierePro">
									<parameterid>rotation</parameterid>
									<name>Rotation</name>
									<valuemin>-8640</valuemin>
									<valuemax>8640</valuemax>
									<value>0</value>
								</parameter>
								<parameter authoringApp="PremierePro">
									<parameterid>center</parameterid>
									<name>Center</name>
									<value>
										<horiz>0</horiz>
										<vert>0</vert>
									</value>
								</parameter>
								<parameter authoringApp="PremierePro">
									<parameterid>centerOffset</parameterid>
									<name>Anchor Point</name>
									<value>
										<horiz>0</horiz>
										<vert>0</vert>
									</value>
								</parameter>
								<parameter authoringApp="PremierePro">
									<parameterid>antiflicker</parameterid>
									<name>Anti-flicker Filter</name>
									<valuemin>0.0</valuemin>
									<valuemax>1.0</valuemax>
									<value>0</value>
								</parameter>
							</effect>
						</filter>
						<link>
							<linkclipref>clipitem-88</linkclipref>
							<mediatype>video</mediatype>
							<trackindex>1</trackindex>
							<clipindex>4</clipindex>
						</link>
						<link>
							<linkclipref>clipitem-96</linkclipref>
							<mediatype>audio</mediatype>
							<trackindex>1</trackindex>
							<clipindex>4</clipindex>
							<groupindex>1</groupindex>
						</link>
						<link>
							<linkclipref>clipitem-104</linkclipref>
							<mediatype>audio</mediatype>
							<trackindex>2</trackindex>
							<clipindex>4</clipindex>
							<groupindex>1</groupindex>
						</link>
						<logginginfo>
							<description />
							<scene />
							<shottake />
							<lognote />
							<good />
							<originalvideofilename />
							<originalaudiofilename />
						</logginginfo>
						<colorinfo>
							<lut />
							<lut1 />
							<asc_sop />
							<asc_sat />
							<lut2 />
						</colorinfo>
					<labels><label2>Lavender</label2></labels></clipitem>
					<clipitem id="clipitem-86">
						<masterclipid>clipitem-2-114</masterclipid>
						<name>Taylor_Swift_Shares_The_Story_Of_Calling_Travis_Kelce_For_The_First_Time.mp4</name>
						<enabled>TRUE</enabled>
						<duration>150</duration>
						<rate>
							<timebase>25</timebase>
							<ntsc>FALSE</ntsc>
						</rate>
						<start>97350</start>
						<end>97500</end>
						<in>16950</in>
						<out>17100</out>
						<pproTicksIn>0</pproTicksIn>
						<pproTicksOut>236438092800000</pproTicksOut>
						<alphatype>none</alphatype>
						<pixelaspectratio>square</pixelaspectratio>
						<anamorphic>FALSE</anamorphic>
						<file id="file-30">
							<name>Taylor_Swift_Shares_The_Story_Of_Calling_Travis_Kelce_For_The_First_Time.mp4</name>
							<pathurl>file://localhost/Users/themalikano/Documents/VideoAutomation/premiere_videos/Taylor_Swift_Shares_The_Story_Of_Calling_Travis_Kelce_For_The_First_Time.mp4</pathurl>
							<rate>
								<timebase>30</timebase>
								<ntsc>TRUE</ntsc>
							</rate>
							<duration>27897</duration>
							<timecode>
								<rate>
									<timebase>30</timebase>
									<ntsc>TRUE</ntsc>
								</rate>
								<string>00:00:00:00</string>
								<frame>0</frame>
								<displayformat>NDF</displayformat>
							</timecode>
							<media>
								<video>
									<samplecharacteristics>
										<rate>
											<timebase>30</timebase>
											<ntsc>TRUE</ntsc>
										</rate>
										<width>1920</width>
										<height>1080</height>
										<anamorphic>FALSE</anamorphic>
										<pixelaspectratio>square</pixelaspectratio>
										<fielddominance>none</fielddominance>
									</samplecharacteristics>
								</video>
								<audio>
									<samplecharacteristics>
										<depth>16</depth>
										<samplerate>44100</samplerate>
									</samplecharacteristics>
									<channelcount>2</channelcount>
								</audio>
							</media>
						</file>
						<link>
							<linkclipref>clipitem-86</linkclipref>
							<mediatype>video</mediatype>
							<trackindex>1</trackindex>
							<clipindex>2</clipindex>
						</link>
						<link>
							<linkclipref>clipitem-94</linkclipref>
							<mediatype>audio</mediatype>
							<trackindex>1</trackindex>
							<clipindex>2</clipindex>
							<groupindex>1</groupindex>
						</link>
						<link>
							<linkclipref>clipitem-102</linkclipref>
							<mediatype>audio</mediatype>
							<trackindex>2</trackindex>
							<clipindex>2</clipindex>
							<groupindex>1</groupindex>
						</link>
						<logginginfo>
							<description />
							<scene />
							<shottake />
							<lognote />
							<good />
							<originalvideofilename />
							<originalaudiofilename />
						</logginginfo>
						<colorinfo>
							<lut />
							<lut1 />
							<asc_sop />
							<asc_sat />
							<lut2 />
						</colorinfo>
					<labels><label2>Iris</label2></labels></clipitem>
					<clipitem id="clipitem-87">
						<masterclipid>clipitem-3-198</masterclipid>
						<name>Taylor_Swift_Travis_Kelce_-_The_New_Power_Couple.mp4</name>
						<enabled>TRUE</enabled>
						<duration>150</duration>
						<rate>
							<timebase>25</timebase>
							<ntsc>FALSE</ntsc>
						</rate>
						<start>97500</start>
						<end>97650</end>
						<in>29550</in>
						<out>29700</out>
						<pproTicksIn>0</pproTicksIn>
						<pproTicksOut>875013995520000</pproTicksOut>
						<alphatype>none</alphatype>
						<pixelaspectratio>square</pixelaspectratio>
						<anamorphic>FALSE</anamorphic>
						<file id="file-31">
							<name>Taylor_Swift_Travis_Kelce_-_The_New_Power_Couple.mp4</name>
							<pathurl>file://localhost/Users/themalikano/Documents/VideoAutomation/premiere_videos/Taylor_Swift_Travis_Kelce_-_The_New_Power_Couple.mp4</pathurl>
							<rate>
								<timebase>25</timebase>
								<ntsc>FALSE</ntsc>
							</rate>
							<duration>86118</duration>
							<timecode>
								<rate>
									<timebase>25</timebase>
									<ntsc>FALSE</ntsc>
								</rate>
								<string>00:00:00:00</string>
								<frame>0</frame>
								<displayformat>NDF</displayformat>
							</timecode>
							<media>
								<video>
									<samplecharacteristics>
										<rate>
											<timebase>25</timebase>
											<ntsc>FALSE</ntsc>
										</rate>
										<width>1920</width>
										<height>1080</height>
										<anamorphic>FALSE</anamorphic>
										<pixelaspectratio>square</pixelaspectratio>
										<fielddominance>none</fielddominance>
									</samplecharacteristics>
								</video>
								<audio>
									<samplecharacteristics>
										<depth>16</depth>
										<samplerate>44100</samplerate>
									</samplecharacteristics>
									<channelcount>2</channelcount>
								</audio>
							</media>
						</file>
						<link>
							<linkclipref>clipitem-87</linkclipref>
							<mediatype>video</mediatype>
							<trackindex>1</trackindex>
							<clipindex>3</clipindex>
						</link>
						<link>
							<linkclipref>clipitem-95</linkclipref>
							<mediatype>audio</mediatype>
							<trackindex>1</trackindex>
							<clipindex>3</clipindex>
							<groupindex>1</groupindex>
						</link>
						<link>
							<linkclipref>clipitem-103</linkclipref>
							<mediatype>audio</mediatype>
							<trackindex>2</trackindex>
							<clipindex>3</clipindex>
							<groupindex>1</groupindex>
						</link>
						<logginginfo>
							<description />
							<scene />
							<shottake />
							<lognote />
							<good />
							<originalvideofilename />
							<originalaudiofilename />
						</logginginfo>
						<colorinfo>
							<lut />
							<lut1 />
							<asc_sop />
							<asc_sat />
							<lut2 />
						</colorinfo>
					<labels><label2>Caribbean</label2></labels></clipitem>
					<clipitem id="clipitem-86">
						<masterclipid>clipitem-2-39</masterclipid>
						<name>Taylor_Swift_Shares_The_Story_Of_Calling_Travis_Kelce_For_The_First_Time.mp4</name>
						<enabled>TRUE</enabled>
						<duration>150</duration>
						<rate>
							<timebase>25</timebase>
							<ntsc>FALSE</ntsc>
						</rate>
						<start>97650</start>
						<end>97800</end>
						<in>5700</in>
						<out>5850</out>
						<pproTicksIn>0</pproTicksIn>
						<pproTicksOut>236438092800000</pproTicksOut>
						<alphatype>none</alphatype>
						<pixelaspectratio>square</pixelaspectratio>
						<anamorphic>FALSE</anamorphic>
						<file id="file-30">
							<name>Taylor_Swift_Shares_The_Story_Of_Calling_Travis_Kelce_For_The_First_Time.mp4</name>
							<pathurl>file://localhost/Users/themalikano/Documents/VideoAutomation/premiere_videos/Taylor_Swift_Shares_The_Story_Of_Calling_Travis_Kelce_For_The_First_Time.mp4</pathurl>
							<rate>
								<timebase>30</timebase>
								<ntsc>TRUE</ntsc>
							</rate>
							<duration>27897</duration>
							<timecode>
								<rate>
									<timebase>30</timebase>
									<ntsc>TRUE</ntsc>
								</rate>
								<string>00:00:00:00</string>
								<frame>0</frame>
								<displayformat>NDF</displayformat>
							</timecode>
							<media>
								<video>
									<samplecharacteristics>
										<rate>
											<timebase>30</timebase>
											<ntsc>TRUE</ntsc>
										</rate>
										<width>1920</width>
										<height>1080</height>
										<anamorphic>FALSE</anamorphic>
										<pixelaspectratio>square</pixelaspectratio>
										<fielddominance>none</fielddominance>
									</samplecharacteristics>
								</video>
								<audio>
									<samplecharacteristics>
										<depth>16</depth>
										<samplerate>44100</samplerate>
									</samplecharacteristics>
									<channelcount>2</channelcount>
								</audio>
							</media>
						</file>
						<link>
							<linkclipref>clipitem-86</linkclipref>
							<mediatype>video</mediatype>
							<trackindex>1</trackindex>
							<clipindex>2</clipindex>
						</link>
						<link>
							<linkclipref>clipitem-94</linkclipref>
							<mediatype>audio</mediatype>
							<trackindex>1</trackindex>
							<clipindex>2</clipindex>
							<groupindex>1</groupindex>
						</link>
						<link>
							<linkclipref>clipitem-102</linkclipref>
							<mediatype>audio</mediatype>
							<trackindex>2</trackindex>
							<clipindex>2</clipindex>
							<groupindex>1</groupindex>
						</link>
						<logginginfo>
							<description />
							<scene />
							<shottake />
							<lognote />
							<good />
							<originalvideofilename />
							<originalaudiofilename />
						</logginginfo>
						<colorinfo>
							<lut />
							<lut1 />
							<asc_sop />
							<asc_sat />
							<lut2 />
						</colorinfo>
					<labels><label2>Iris</label2></labels></clipitem>
					<clipitem id="clipitem-88">
						<masterclipid>clipitem-4-69</masterclipid>
						<name>Travis_Kelce_ANNOUNCE_WEDDING_DATE_with_Taylor_Swift_Why_He_was_Delaying_all_Along.mp4</name>
						<enabled>TRUE</enabled>
						<duration>150</duration>
						<rate>
							<timebase>25</timebase>
							<ntsc>FALSE</ntsc>
						</rate>
						<start>97800</start>
						<end>97950</end>
						<in>10200</in>
						<out>10350</out>
						<pproTicksIn>0</pproTicksIn>
						<pproTicksOut>419410897920000</pproTicksOut>
						<alphatype>none</alphatype>
						<pixelaspectratio>square</pixelaspectratio>
						<anamorphic>FALSE</anamorphic>
						<file id="file-32">
							<name>Travis_Kelce_ANNOUNCE_WEDDING_DATE_with_Taylor_Swift_Why_He_was_Delaying_all_Along.mp4</name>
							<pathurl>file://localhost/Users/themalikano/Documents/VideoAutomation/premiere_videos/Travis_Kelce_ANNOUNCE_WEDDING_DATE_with_Taylor_Swift_Why_He_was_Delaying_all_Along.mp4</pathurl>
							<rate>
								<timebase>24</timebase>
								<ntsc>FALSE</ntsc>
							</rate>
							<duration>39627</duration>
							<timecode>
								<rate>
									<timebase>24</timebase>
									<ntsc>FALSE</ntsc>
								</rate>
								<string>00:00:00:00</string>
								<frame>0</frame>
								<displayformat>NDF</displayformat>
							</timecode>
							<media>
								<video>
									<samplecharacteristics>
										<rate>
											<timebase>24</timebase>
											<ntsc>FALSE</ntsc>
										</rate>
										<width>852</width>
										<height>480</height>
										<anamorphic>FALSE</anamorphic>
										<pixelaspectratio>square</pixelaspectratio>
										<fielddominance>none</fielddominance>
									</samplecharacteristics>
								</video>
								<audio>
									<samplecharacteristics>
										<depth>16</depth>
										<samplerate>44100</samplerate>
									</samplecharacteristics>
									<channelcount>2</channelcount>
								</audio>
							</media>
						</file>
						<filter>
							<effect>
								<name>Basic Motion</name>
								<effectid>basic</effectid>
								<effectcategory>motion</effectcategory>
								<effecttype>motion</effecttype>
								<mediatype>video</mediatype>
								<pproBypass>false</pproBypass>
								<parameter authoringApp="PremierePro">
									<parameterid>scale</parameterid>
									<name>Scale</name>
									<valuemin>0</valuemin>
									<valuemax>1000</valuemax>
									<value>225</value>
								</parameter>
								<parameter authoringApp="PremierePro">
									<parameterid>rotation</parameterid>
									<name>Rotation</name>
									<valuemin>-8640</valuemin>
									<valuemax>8640</valuemax>
									<value>0</value>
								</parameter>
								<parameter authoringApp="PremierePro">
									<parameterid>center</parameterid>
									<name>Center</name>
									<value>
										<horiz>0</horiz>
										<vert>0</vert>
									</value>
								</parameter>
								<parameter authoringApp="PremierePro">
									<parameterid>centerOffset</parameterid>
									<name>Anchor Point</name>
									<value>
										<horiz>0</horiz>
										<vert>0</vert>
									</value>
								</parameter>
								<parameter authoringApp="PremierePro">
									<parameterid>antiflicker</parameterid>
									<name>Anti-flicker Filter</name>
									<valuemin>0.0</valuemin>
									<valuemax>1.0</valuemax>
									<value>0</value>
								</parameter>
							</effect>
						</filter>
						<link>
							<linkclipref>clipitem-88</linkclipref>
							<mediatype>video</mediatype>
							<trackindex>1</trackindex>
							<clipindex>4</clipindex>
						</link>
						<link>
							<linkclipref>clipitem-96</linkclipref>
							<mediatype>audio</mediatype>
							<trackindex>1</trackindex>
							<clipindex>4</clipindex>
							<groupindex>1</groupindex>
						</link>
						<link>
							<linkclipref>clipitem-104</linkclipref>
							<mediatype>audio</mediatype>
							<trackindex>2</trackindex>
							<clipindex>4</clipindex>
							<groupindex>1</groupindex>
						</link>
						<logginginfo>
							<description />
							<scene />
							<shottake />
							<lognote />
							<good />
							<originalvideofilename />
							<originalaudiofilename />
						</logginginfo>
						<colorinfo>
							<lut />
							<lut1 />
							<asc_sop />
							<asc_sat />
							<lut2 />
						</colorinfo>
					<labels><label2>Lavender</label2></labels></clipitem>
					<clipitem id="clipitem-86">
						<masterclipid>clipitem-2-31</masterclipid>
						<name>Taylor_Swift_Shares_The_Story_Of_Calling_Travis_Kelce_For_The_First_Time.mp4</name>
						<enabled>TRUE</enabled>
						<duration>150</duration>
						<rate>
							<timebase>25</timebase>
							<ntsc>FALSE</ntsc>
						</rate>
						<start>97950</start>
						<end>98100</end>
						<in>4500</in>
						<out>4650</out>
						<pproTicksIn>0</pproTicksIn>
						<pproTicksOut>236438092800000</pproTicksOut>
						<alphatype>none</alphatype>
						<pixelaspectratio>square</pixelaspectratio>
						<anamorphic>FALSE</anamorphic>
						<file id="file-30">
							<name>Taylor_Swift_Shares_The_Story_Of_Calling_Travis_Kelce_For_The_First_Time.mp4</name>
							<pathurl>file://localhost/Users/themalikano/Documents/VideoAutomation/premiere_videos/Taylor_Swift_Shares_The_Story_Of_Calling_Travis_Kelce_For_The_First_Time.mp4</pathurl>
							<rate>
								<timebase>30</timebase>
								<ntsc>TRUE</ntsc>
							</rate>
							<duration>27897</duration>
							<timecode>
								<rate>
									<timebase>30</timebase>
									<ntsc>TRUE</ntsc>
								</rate>
								<string>00:00:00:00</string>
								<frame>0</frame>
								<displayformat>NDF</displayformat>
							</timecode>
							<media>
								<video>
									<samplecharacteristics>
										<rate>
											<timebase>30</timebase>
											<ntsc>TRUE</ntsc>
										</rate>
										<width>1920</width>
										<height>1080</height>
										<anamorphic>FALSE</anamorphic>
										<pixelaspectratio>square</pixelaspectratio>
										<fielddominance>none</fielddominance>
									</samplecharacteristics>
								</video>
								<audio>
									<samplecharacteristics>
										<depth>16</depth>
										<samplerate>44100</samplerate>
									</samplecharacteristics>
									<channelcount>2</channelcount>
								</audio>
							</media>
						</file>
						<link>
							<linkclipref>clipitem-86</linkclipref>
							<mediatype>video</mediatype>
							<trackindex>1</trackindex>
							<clipindex>2</clipindex>
						</link>
						<link>
							<linkclipref>clipitem-94</linkclipref>
							<mediatype>audio</mediatype>
							<trackindex>1</trackindex>
							<clipindex>2</clipindex>
							<groupindex>1</groupindex>
						</link>
						<link>
							<linkclipref>clipitem-102</linkclipref>
							<mediatype>audio</mediatype>
							<trackindex>2</trackindex>
							<clipindex>2</clipindex>
							<groupindex>1</groupindex>
						</link>
						<logginginfo>
							<description />
							<scene />
							<shottake />
							<lognote />
							<good />
							<originalvideofilename />
							<originalaudiofilename />
						</logginginfo>
						<colorinfo>
							<lut />
							<lut1 />
							<asc_sop />
							<asc_sat />
							<lut2 />
						</colorinfo>
					<labels><label2>Iris</label2></labels></clipitem>
					<clipitem id="clipitem-88">
						<masterclipid>clipitem-4-75</masterclipid>
						<name>Travis_Kelce_ANNOUNCE_WEDDING_DATE_with_Taylor_Swift_Why_He_was_Delaying_all_Along.mp4</name>
						<enabled>TRUE</enabled>
						<duration>150</duration>
						<rate>
							<timebase>25</timebase>
							<ntsc>FALSE</ntsc>
						</rate>
						<start>98100</start>
						<end>98250</end>
						<in>11100</in>
						<out>11250</out>
						<pproTicksIn>0</pproTicksIn>
						<pproTicksOut>419410897920000</pproTicksOut>
						<alphatype>none</alphatype>
						<pixelaspectratio>square</pixelaspectratio>
						<anamorphic>FALSE</anamorphic>
						<file id="file-32">
							<name>Travis_Kelce_ANNOUNCE_WEDDING_DATE_with_Taylor_Swift_Why_He_was_Delaying_all_Along.mp4</name>
							<pathurl>file://localhost/Users/themalikano/Documents/VideoAutomation/premiere_videos/Travis_Kelce_ANNOUNCE_WEDDING_DATE_with_Taylor_Swift_Why_He_was_Delaying_all_Along.mp4</pathurl>
							<rate>
								<timebase>24</timebase>
								<ntsc>FALSE</ntsc>
							</rate>
							<duration>39627</duration>
							<timecode>
								<rate>
									<timebase>24</timebase>
									<ntsc>FALSE</ntsc>
								</rate>
								<string>00:00:00:00</string>
								<frame>0</frame>
								<displayformat>NDF</displayformat>
							</timecode>
							<media>
								<video>
									<samplecharacteristics>
										<rate>
											<timebase>24</timebase>
											<ntsc>FALSE</ntsc>
										</rate>
										<width>852</width>
										<height>480</height>
										<anamorphic>FALSE</anamorphic>
										<pixelaspectratio>square</pixelaspectratio>
										<fielddominance>none</fielddominance>
									</samplecharacteristics>
								</video>
								<audio>
									<samplecharacteristics>
										<depth>16</depth>
										<samplerate>44100</samplerate>
									</samplecharacteristics>
									<channelcount>2</channelcount>
								</audio>
							</media>
						</file>
						<filter>
							<effect>
								<name>Basic Motion</name>
								<effectid>basic</effectid>
								<effectcategory>motion</effectcategory>
								<effecttype>motion</effecttype>
								<mediatype>video</mediatype>
								<pproBypass>false</pproBypass>
								<parameter authoringApp="PremierePro">
									<parameterid>scale</parameterid>
									<name>Scale</name>
									<valuemin>0</valuemin>
									<valuemax>1000</valuemax>
									<value>225</value>
								</parameter>
								<parameter authoringApp="PremierePro">
									<parameterid>rotation</parameterid>
									<name>Rotation</name>
									<valuemin>-8640</valuemin>
									<valuemax>8640</valuemax>
									<value>0</value>
								</parameter>
								<parameter authoringApp="PremierePro">
									<parameterid>center</parameterid>
									<name>Center</name>
									<value>
										<horiz>0</horiz>
										<vert>0</vert>
									</value>
								</parameter>
								<parameter authoringApp="PremierePro">
									<parameterid>centerOffset</parameterid>
									<name>Anchor Point</name>
									<value>
										<horiz>0</horiz>
										<vert>0</vert>
									</value>
								</parameter>
								<parameter authoringApp="PremierePro">
									<parameterid>antiflicker</parameterid>
									<name>Anti-flicker Filter</name>
									<valuemin>0.0</valuemin>
									<valuemax>1.0</valuemax>
									<value>0</value>
								</parameter>
							</effect>
						</filter>
						<link>
							<linkclipref>clipitem-88</linkclipref>
							<mediatype>video</mediatype>
							<trackindex>1</trackindex>
							<clipindex>4</clipindex>
						</link>
						<link>
							<linkclipref>clipitem-96</linkclipref>
							<mediatype>audio</mediatype>
							<trackindex>1</trackindex>
							<clipindex>4</clipindex>
							<groupindex>1</groupindex>
						</link>
						<link>
							<linkclipref>clipitem-104</linkclipref>
							<mediatype>audio</mediatype>
							<trackindex>2</trackindex>
							<clipindex>4</clipindex>
							<groupindex>1</groupindex>
						</link>
						<logginginfo>
							<description />
							<scene />
							<shottake />
							<lognote />
							<good />
							<originalvideofilename />
							<originalaudiofilename />
						</logginginfo>
						<colorinfo>
							<lut />
							<lut1 />
							<asc_sop />
							<asc_sat />
							<lut2 />
						</colorinfo>
					<labels><label2>Lavender</label2></labels></clipitem>
					<clipitem id="clipitem-87">
						<masterclipid>clipitem-3-239</masterclipid>
						<name>Taylor_Swift_Travis_Kelce_-_The_New_Power_Couple.mp4</name>
						<enabled>TRUE</enabled>
						<duration>150</duration>
						<rate>
							<timebase>25</timebase>
							<ntsc>FALSE</ntsc>
						</rate>
						<start>98250</start>
						<end>98400</end>
						<in>35700</in>
						<out>35850</out>
						<pproTicksIn>0</pproTicksIn>
						<pproTicksOut>875013995520000</pproTicksOut>
						<alphatype>none</alphatype>
						<pixelaspectratio>square</pixelaspectratio>
						<anamorphic>FALSE</anamorphic>
						<file id="file-31">
							<name>Taylor_Swift_Travis_Kelce_-_The_New_Power_Couple.mp4</name>
							<pathurl>file://localhost/Users/themalikano/Documents/VideoAutomation/premiere_videos/Taylor_Swift_Travis_Kelce_-_The_New_Power_Couple.mp4</pathurl>
							<rate>
								<timebase>25</timebase>
								<ntsc>FALSE</ntsc>
							</rate>
							<duration>86118</duration>
							<timecode>
								<rate>
									<timebase>25</timebase>
									<ntsc>FALSE</ntsc>
								</rate>
								<string>00:00:00:00</string>
								<frame>0</frame>
								<displayformat>NDF</displayformat>
							</timecode>
							<media>
								<video>
									<samplecharacteristics>
										<rate>
											<timebase>25</timebase>
											<ntsc>FALSE</ntsc>
										</rate>
										<width>1920</width>
										<height>1080</height>
										<anamorphic>FALSE</anamorphic>
										<pixelaspectratio>square</pixelaspectratio>
										<fielddominance>none</fielddominance>
									</samplecharacteristics>
								</video>
								<audio>
									<samplecharacteristics>
										<depth>16</depth>
										<samplerate>44100</samplerate>
									</samplecharacteristics>
									<channelcount>2</channelcount>
								</audio>
							</media>
						</file>
						<link>
							<linkclipref>clipitem-87</linkclipref>
							<mediatype>video</mediatype>
							<trackindex>1</trackindex>
							<clipindex>3</clipindex>
						</link>
						<link>
							<linkclipref>clipitem-95</linkclipref>
							<mediatype>audio</mediatype>
							<trackindex>1</trackindex>
							<clipindex>3</clipindex>
							<groupindex>1</groupindex>
						</link>
						<link>
							<linkclipref>clipitem-103</linkclipref>
							<mediatype>audio</mediatype>
							<trackindex>2</trackindex>
							<clipindex>3</clipindex>
							<groupindex>1</groupindex>
						</link>
						<logginginfo>
							<description />
							<scene />
							<shottake />
							<lognote />
							<good />
							<originalvideofilename />
							<originalaudiofilename />
						</logginginfo>
						<colorinfo>
							<lut />
							<lut1 />
							<asc_sop />
							<asc_sat />
							<lut2 />
						</colorinfo>
					<labels><label2>Caribbean</label2></labels></clipitem>
					<clipitem id="clipitem-88">
						<masterclipid>clipitem-4-205</masterclipid>
						<name>Travis_Kelce_ANNOUNCE_WEDDING_DATE_with_Taylor_Swift_Why_He_was_Delaying_all_Along.mp4</name>
						<enabled>TRUE</enabled>
						<duration>150</duration>
						<rate>
							<timebase>25</timebase>
							<ntsc>FALSE</ntsc>
						</rate>
						<start>98400</start>
						<end>98550</end>
						<in>30600</in>
						<out>30750</out>
						<pproTicksIn>0</pproTicksIn>
						<pproTicksOut>419410897920000</pproTicksOut>
						<alphatype>none</alphatype>
						<pixelaspectratio>square</pixelaspectratio>
						<anamorphic>FALSE</anamorphic>
						<file id="file-32">
							<name>Travis_Kelce_ANNOUNCE_WEDDING_DATE_with_Taylor_Swift_Why_He_was_Delaying_all_Along.mp4</name>
							<pathurl>file://localhost/Users/themalikano/Documents/VideoAutomation/premiere_videos/Travis_Kelce_ANNOUNCE_WEDDING_DATE_with_Taylor_Swift_Why_He_was_Delaying_all_Along.mp4</pathurl>
							<rate>
								<timebase>24</timebase>
								<ntsc>FALSE</ntsc>
							</rate>
							<duration>39627</duration>
							<timecode>
								<rate>
									<timebase>24</timebase>
									<ntsc>FALSE</ntsc>
								</rate>
								<string>00:00:00:00</string>
								<frame>0</frame>
								<displayformat>NDF</displayformat>
							</timecode>
							<media>
								<video>
									<samplecharacteristics>
										<rate>
											<timebase>24</timebase>
											<ntsc>FALSE</ntsc>
										</rate>
										<width>852</width>
										<height>480</height>
										<anamorphic>FALSE</anamorphic>
										<pixelaspectratio>square</pixelaspectratio>
										<fielddominance>none</fielddominance>
									</samplecharacteristics>
								</video>
								<audio>
									<samplecharacteristics>
										<depth>16</depth>
										<samplerate>44100</samplerate>
									</samplecharacteristics>
									<channelcount>2</channelcount>
								</audio>
							</media>
						</file>
						<filter>
							<effect>
								<name>Basic Motion</name>
								<effectid>basic</effectid>
								<effectcategory>motion</effectcategory>
								<effecttype>motion</effecttype>
								<mediatype>video</mediatype>
								<pproBypass>false</pproBypass>
								<parameter authoringApp="PremierePro">
									<parameterid>scale</parameterid>
									<name>Scale</name>
									<valuemin>0</valuemin>
									<valuemax>1000</valuemax>
									<value>225</value>
								</parameter>
								<parameter authoringApp="PremierePro">
									<parameterid>rotation</parameterid>
									<name>Rotation</name>
									<valuemin>-8640</valuemin>
									<valuemax>8640</valuemax>
									<value>0</value>
								</parameter>
								<parameter authoringApp="PremierePro">
									<parameterid>center</parameterid>
									<name>Center</name>
									<value>
										<horiz>0</horiz>
										<vert>0</vert>
									</value>
								</parameter>
								<parameter authoringApp="PremierePro">
									<parameterid>centerOffset</parameterid>
									<name>Anchor Point</name>
									<value>
										<horiz>0</horiz>
										<vert>0</vert>
									</value>
								</parameter>
								<parameter authoringApp="PremierePro">
									<parameterid>antiflicker</parameterid>
									<name>Anti-flicker Filter</name>
									<valuemin>0.0</valuemin>
									<valuemax>1.0</valuemax>
									<value>0</value>
								</parameter>
							</effect>
						</filter>
						<link>
							<linkclipref>clipitem-88</linkclipref>
							<mediatype>video</mediatype>
							<trackindex>1</trackindex>
							<clipindex>4</clipindex>
						</link>
						<link>
							<linkclipref>clipitem-96</linkclipref>
							<mediatype>audio</mediatype>
							<trackindex>1</trackindex>
							<clipindex>4</clipindex>
							<groupindex>1</groupindex>
						</link>
						<link>
							<linkclipref>clipitem-104</linkclipref>
							<mediatype>audio</mediatype>
							<trackindex>2</trackindex>
							<clipindex>4</clipindex>
							<groupindex>1</groupindex>
						</link>
						<logginginfo>
							<description />
							<scene />
							<shottake />
							<lognote />
							<good />
							<originalvideofilename />
							<originalaudiofilename />
						</logginginfo>
						<colorinfo>
							<lut />
							<lut1 />
							<asc_sop />
							<asc_sat />
							<lut2 />
						</colorinfo>
					<labels><label2>Lavender</label2></labels></clipitem>
					<clipitem id="clipitem-87">
						<masterclipid>clipitem-3-67</masterclipid>
						<name>Taylor_Swift_Travis_Kelce_-_The_New_Power_Couple.mp4</name>
						<enabled>TRUE</enabled>
						<duration>150</duration>
						<rate>
							<timebase>25</timebase>
							<ntsc>FALSE</ntsc>
						</rate>
						<start>98550</start>
						<end>98700</end>
						<in>9900</in>
						<out>10050</out>
						<pproTicksIn>0</pproTicksIn>
						<pproTicksOut>875013995520000</pproTicksOut>
						<alphatype>none</alphatype>
						<pixelaspectratio>square</pixelaspectratio>
						<anamorphic>FALSE</anamorphic>
						<file id="file-31">
							<name>Taylor_Swift_Travis_Kelce_-_The_New_Power_Couple.mp4</name>
							<pathurl>file://localhost/Users/themalikano/Documents/VideoAutomation/premiere_videos/Taylor_Swift_Travis_Kelce_-_The_New_Power_Couple.mp4</pathurl>
							<rate>
								<timebase>25</timebase>
								<ntsc>FALSE</ntsc>
							</rate>
							<duration>86118</duration>
							<timecode>
								<rate>
									<timebase>25</timebase>
									<ntsc>FALSE</ntsc>
								</rate>
								<string>00:00:00:00</string>
								<frame>0</frame>
								<displayformat>NDF</displayformat>
							</timecode>
							<media>
								<video>
									<samplecharacteristics>
										<rate>
											<timebase>25</timebase>
											<ntsc>FALSE</ntsc>
										</rate>
										<width>1920</width>
										<height>1080</height>
										<anamorphic>FALSE</anamorphic>
										<pixelaspectratio>square</pixelaspectratio>
										<fielddominance>none</fielddominance>
									</samplecharacteristics>
								</video>
								<audio>
									<samplecharacteristics>
										<depth>16</depth>
										<samplerate>44100</samplerate>
									</samplecharacteristics>
									<channelcount>2</channelcount>
								</audio>
							</media>
						</file>
						<link>
							<linkclipref>clipitem-87</linkclipref>
							<mediatype>video</mediatype>
							<trackindex>1</trackindex>
							<clipindex>3</clipindex>
						</link>
						<link>
							<linkclipref>clipitem-95</linkclipref>
							<mediatype>audio</mediatype>
							<trackindex>1</trackindex>
							<clipindex>3</clipindex>
							<groupindex>1</groupindex>
						</link>
						<link>
							<linkclipref>clipitem-103</linkclipref>
							<mediatype>audio</mediatype>
							<trackindex>2</trackindex>
							<clipindex>3</clipindex>
							<groupindex>1</groupindex>
						</link>
						<logginginfo>
							<description />
							<scene />
							<shottake />
							<lognote />
							<good />
							<originalvideofilename />
							<originalaudiofilename />
						</logginginfo>
						<colorinfo>
							<lut />
							<lut1 />
							<asc_sop />
							<asc_sat />
							<lut2 />
						</colorinfo>
					<labels><label2>Caribbean</label2></labels></clipitem>
					<clipitem id="clipitem-88">
						<masterclipid>clipitem-4-220</masterclipid>
						<name>Travis_Kelce_ANNOUNCE_WEDDING_DATE_with_Taylor_Swift_Why_He_was_Delaying_all_Along.mp4</name>
						<enabled>TRUE</enabled>
						<duration>150</duration>
						<rate>
							<timebase>25</timebase>
							<ntsc>FALSE</ntsc>
						</rate>
						<start>98700</start>
						<end>98850</end>
						<in>32850</in>
						<out>33000</out>
						<pproTicksIn>0</pproTicksIn>
						<pproTicksOut>419410897920000</pproTicksOut>
						<alphatype>none</alphatype>
						<pixelaspectratio>square</pixelaspectratio>
						<anamorphic>FALSE</anamorphic>
						<file id="file-32">
							<name>Travis_Kelce_ANNOUNCE_WEDDING_DATE_with_Taylor_Swift_Why_He_was_Delaying_all_Along.mp4</name>
							<pathurl>file://localhost/Users/themalikano/Documents/VideoAutomation/premiere_videos/Travis_Kelce_ANNOUNCE_WEDDING_DATE_with_Taylor_Swift_Why_He_was_Delaying_all_Along.mp4</pathurl>
							<rate>
								<timebase>24</timebase>
								<ntsc>FALSE</ntsc>
							</rate>
							<duration>39627</duration>
							<timecode>
								<rate>
									<timebase>24</timebase>
									<ntsc>FALSE</ntsc>
								</rate>
								<string>00:00:00:00</string>
								<frame>0</frame>
								<displayformat>NDF</displayformat>
							</timecode>
							<media>
								<video>
									<samplecharacteristics>
										<rate>
											<timebase>24</timebase>
											<ntsc>FALSE</ntsc>
										</rate>
										<width>852</width>
										<height>480</height>
										<anamorphic>FALSE</anamorphic>
										<pixelaspectratio>square</pixelaspectratio>
										<fielddominance>none</fielddominance>
									</samplecharacteristics>
								</video>
								<audio>
									<samplecharacteristics>
										<depth>16</depth>
										<samplerate>44100</samplerate>
									</samplecharacteristics>
									<channelcount>2</channelcount>
								</audio>
							</media>
						</file>
						<filter>
							<effect>
								<name>Basic Motion</name>
								<effectid>basic</effectid>
								<effectcategory>motion</effectcategory>
								<effecttype>motion</effecttype>
								<mediatype>video</mediatype>
								<pproBypass>false</pproBypass>
								<parameter authoringApp="PremierePro">
									<parameterid>scale</parameterid>
									<name>Scale</name>
									<valuemin>0</valuemin>
									<valuemax>1000</valuemax>
									<value>225</value>
								</parameter>
								<parameter authoringApp="PremierePro">
									<parameterid>rotation</parameterid>
									<name>Rotation</name>
									<valuemin>-8640</valuemin>
									<valuemax>8640</valuemax>
									<value>0</value>
								</parameter>
								<parameter authoringApp="PremierePro">
									<parameterid>center</parameterid>
									<name>Center</name>
									<value>
										<horiz>0</horiz>
										<vert>0</vert>
									</value>
								</parameter>
								<parameter authoringApp="PremierePro">
									<parameterid>centerOffset</parameterid>
									<name>Anchor Point</name>
									<value>
										<horiz>0</horiz>
										<vert>0</vert>
									</value>
								</parameter>
								<parameter authoringApp="PremierePro">
									<parameterid>antiflicker</parameterid>
									<name>Anti-flicker Filter</name>
									<valuemin>0.0</valuemin>
									<valuemax>1.0</valuemax>
									<value>0</value>
								</parameter>
							</effect>
						</filter>
						<link>
							<linkclipref>clipitem-88</linkclipref>
							<mediatype>video</mediatype>
							<trackindex>1</trackindex>
							<clipindex>4</clipindex>
						</link>
						<link>
							<linkclipref>clipitem-96</linkclipref>
							<mediatype>audio</mediatype>
							<trackindex>1</trackindex>
							<clipindex>4</clipindex>
							<groupindex>1</groupindex>
						</link>
						<link>
							<linkclipref>clipitem-104</linkclipref>
							<mediatype>audio</mediatype>
							<trackindex>2</trackindex>
							<clipindex>4</clipindex>
							<groupindex>1</groupindex>
						</link>
						<logginginfo>
							<description />
							<scene />
							<shottake />
							<lognote />
							<good />
							<originalvideofilename />
							<originalaudiofilename />
						</logginginfo>
						<colorinfo>
							<lut />
							<lut1 />
							<asc_sop />
							<asc_sat />
							<lut2 />
						</colorinfo>
					<labels><label2>Lavender</label2></labels></clipitem>
					<clipitem id="clipitem-87">
						<masterclipid>clipitem-3-110</masterclipid>
						<name>Taylor_Swift_Travis_Kelce_-_The_New_Power_Couple.mp4</name>
						<enabled>TRUE</enabled>
						<duration>150</duration>
						<rate>
							<timebase>25</timebase>
							<ntsc>FALSE</ntsc>
						</rate>
						<start>98850</start>
						<end>99000</end>
						<in>16350</in>
						<out>16500</out>
						<pproTicksIn>0</pproTicksIn>
						<pproTicksOut>875013995520000</pproTicksOut>
						<alphatype>none</alphatype>
						<pixelaspectratio>square</pixelaspectratio>
						<anamorphic>FALSE</anamorphic>
						<file id="file-31">
							<name>Taylor_Swift_Travis_Kelce_-_The_New_Power_Couple.mp4</name>
							<pathurl>file://localhost/Users/themalikano/Documents/VideoAutomation/premiere_videos/Taylor_Swift_Travis_Kelce_-_The_New_Power_Couple.mp4</pathurl>
							<rate>
								<timebase>25</timebase>
								<ntsc>FALSE</ntsc>
							</rate>
							<duration>86118</duration>
							<timecode>
								<rate>
									<timebase>25</timebase>
									<ntsc>FALSE</ntsc>
								</rate>
								<string>00:00:00:00</string>
								<frame>0</frame>
								<displayformat>NDF</displayformat>
							</timecode>
							<media>
								<video>
									<samplecharacteristics>
										<rate>
											<timebase>25</timebase>
											<ntsc>FALSE</ntsc>
										</rate>
										<width>1920</width>
										<height>1080</height>
										<anamorphic>FALSE</anamorphic>
										<pixelaspectratio>square</pixelaspectratio>
										<fielddominance>none</fielddominance>
									</samplecharacteristics>
								</video>
								<audio>
									<samplecharacteristics>
										<depth>16</depth>
										<samplerate>44100</samplerate>
									</samplecharacteristics>
									<channelcount>2</channelcount>
								</audio>
							</media>
						</file>
						<link>
							<linkclipref>clipitem-87</linkclipref>
							<mediatype>video</mediatype>
							<trackindex>1</trackindex>
							<clipindex>3</clipindex>
						</link>
						<link>
							<linkclipref>clipitem-95</linkclipref>
							<mediatype>audio</mediatype>
							<trackindex>1</trackindex>
							<clipindex>3</clipindex>
							<groupindex>1</groupindex>
						</link>
						<link>
							<linkclipref>clipitem-103</linkclipref>
							<mediatype>audio</mediatype>
							<trackindex>2</trackindex>
							<clipindex>3</clipindex>
							<groupindex>1</groupindex>
						</link>
						<logginginfo>
							<description />
							<scene />
							<shottake />
							<lognote />
							<good />
							<originalvideofilename />
							<originalaudiofilename />
						</logginginfo>
						<colorinfo>
							<lut />
							<lut1 />
							<asc_sop />
							<asc_sat />
							<lut2 />
						</colorinfo>
					<labels><label2>Caribbean</label2></labels></clipitem>
					<clipitem id="clipitem-88">
						<masterclipid>clipitem-4-126</masterclipid>
						<name>Travis_Kelce_ANNOUNCE_WEDDING_DATE_with_Taylor_Swift_Why_He_was_Delaying_all_Along.mp4</name>
						<enabled>TRUE</enabled>
						<duration>150</duration>
						<rate>
							<timebase>25</timebase>
							<ntsc>FALSE</ntsc>
						</rate>
						<start>99000</start>
						<end>99150</end>
						<in>18750</in>
						<out>18900</out>
						<pproTicksIn>0</pproTicksIn>
						<pproTicksOut>419410897920000</pproTicksOut>
						<alphatype>none</alphatype>
						<pixelaspectratio>square</pixelaspectratio>
						<anamorphic>FALSE</anamorphic>
						<file id="file-32">
							<name>Travis_Kelce_ANNOUNCE_WEDDING_DATE_with_Taylor_Swift_Why_He_was_Delaying_all_Along.mp4</name>
							<pathurl>file://localhost/Users/themalikano/Documents/VideoAutomation/premiere_videos/Travis_Kelce_ANNOUNCE_WEDDING_DATE_with_Taylor_Swift_Why_He_was_Delaying_all_Along.mp4</pathurl>
							<rate>
								<timebase>24</timebase>
								<ntsc>FALSE</ntsc>
							</rate>
							<duration>39627</duration>
							<timecode>
								<rate>
									<timebase>24</timebase>
									<ntsc>FALSE</ntsc>
								</rate>
								<string>00:00:00:00</string>
								<frame>0</frame>
								<displayformat>NDF</displayformat>
							</timecode>
							<media>
								<video>
									<samplecharacteristics>
										<rate>
											<timebase>24</timebase>
											<ntsc>FALSE</ntsc>
										</rate>
										<width>852</width>
										<height>480</height>
										<anamorphic>FALSE</anamorphic>
										<pixelaspectratio>square</pixelaspectratio>
										<fielddominance>none</fielddominance>
									</samplecharacteristics>
								</video>
								<audio>
									<samplecharacteristics>
										<depth>16</depth>
										<samplerate>44100</samplerate>
									</samplecharacteristics>
									<channelcount>2</channelcount>
								</audio>
							</media>
						</file>
						<filter>
							<effect>
								<name>Basic Motion</name>
								<effectid>basic</effectid>
								<effectcategory>motion</effectcategory>
								<effecttype>motion</effecttype>
								<mediatype>video</mediatype>
								<pproBypass>false</pproBypass>
								<parameter authoringApp="PremierePro">
									<parameterid>scale</parameterid>
									<name>Scale</name>
									<valuemin>0</valuemin>
									<valuemax>1000</valuemax>
									<value>225</value>
								</parameter>
								<parameter authoringApp="PremierePro">
									<parameterid>rotation</parameterid>
									<name>Rotation</name>
									<valuemin>-8640</valuemin>
									<valuemax>8640</valuemax>
									<value>0</value>
								</parameter>
								<parameter authoringApp="PremierePro">
									<parameterid>center</parameterid>
									<name>Center</name>
									<value>
										<horiz>0</horiz>
										<vert>0</vert>
									</value>
								</parameter>
								<parameter authoringApp="PremierePro">
									<parameterid>centerOffset</parameterid>
									<name>Anchor Point</name>
									<value>
										<horiz>0</horiz>
										<vert>0</vert>
									</value>
								</parameter>
								<parameter authoringApp="PremierePro">
									<parameterid>antiflicker</parameterid>
									<name>Anti-flicker Filter</name>
									<valuemin>0.0</valuemin>
									<valuemax>1.0</valuemax>
									<value>0</value>
								</parameter>
							</effect>
						</filter>
						<link>
							<linkclipref>clipitem-88</linkclipref>
							<mediatype>video</mediatype>
							<trackindex>1</trackindex>
							<clipindex>4</clipindex>
						</link>
						<link>
							<linkclipref>clipitem-96</linkclipref>
							<mediatype>audio</mediatype>
							<trackindex>1</trackindex>
							<clipindex>4</clipindex>
							<groupindex>1</groupindex>
						</link>
						<link>
							<linkclipref>clipitem-104</linkclipref>
							<mediatype>audio</mediatype>
							<trackindex>2</trackindex>
							<clipindex>4</clipindex>
							<groupindex>1</groupindex>
						</link>
						<logginginfo>
							<description />
							<scene />
							<shottake />
							<lognote />
							<good />
							<originalvideofilename />
							<originalaudiofilename />
						</logginginfo>
						<colorinfo>
							<lut />
							<lut1 />
							<asc_sop />
							<asc_sat />
							<lut2 />
						</colorinfo>
					<labels><label2>Lavender</label2></labels></clipitem>
					<clipitem id="clipitem-87">
						<masterclipid>clipitem-3-431</masterclipid>
						<name>Taylor_Swift_Travis_Kelce_-_The_New_Power_Couple.mp4</name>
						<enabled>TRUE</enabled>
						<duration>150</duration>
						<rate>
							<timebase>25</timebase>
							<ntsc>FALSE</ntsc>
						</rate>
						<start>99150</start>
						<end>99300</end>
						<in>64500</in>
						<out>64650</out>
						<pproTicksIn>0</pproTicksIn>
						<pproTicksOut>875013995520000</pproTicksOut>
						<alphatype>none</alphatype>
						<pixelaspectratio>square</pixelaspectratio>
						<anamorphic>FALSE</anamorphic>
						<file id="file-31">
							<name>Taylor_Swift_Travis_Kelce_-_The_New_Power_Couple.mp4</name>
							<pathurl>file://localhost/Users/themalikano/Documents/VideoAutomation/premiere_videos/Taylor_Swift_Travis_Kelce_-_The_New_Power_Couple.mp4</pathurl>
							<rate>
								<timebase>25</timebase>
								<ntsc>FALSE</ntsc>
							</rate>
							<duration>86118</duration>
							<timecode>
								<rate>
									<timebase>25</timebase>
									<ntsc>FALSE</ntsc>
								</rate>
								<string>00:00:00:00</string>
								<frame>0</frame>
								<displayformat>NDF</displayformat>
							</timecode>
							<media>
								<video>
									<samplecharacteristics>
										<rate>
											<timebase>25</timebase>
											<ntsc>FALSE</ntsc>
										</rate>
										<width>1920</width>
										<height>1080</height>
										<anamorphic>FALSE</anamorphic>
										<pixelaspectratio>square</pixelaspectratio>
										<fielddominance>none</fielddominance>
									</samplecharacteristics>
								</video>
								<audio>
									<samplecharacteristics>
										<depth>16</depth>
										<samplerate>44100</samplerate>
									</samplecharacteristics>
									<channelcount>2</channelcount>
								</audio>
							</media>
						</file>
						<link>
							<linkclipref>clipitem-87</linkclipref>
							<mediatype>video</mediatype>
							<trackindex>1</trackindex>
							<clipindex>3</clipindex>
						</link>
						<link>
							<linkclipref>clipitem-95</linkclipref>
							<mediatype>audio</mediatype>
							<trackindex>1</trackindex>
							<clipindex>3</clipindex>
							<groupindex>1</groupindex>
						</link>
						<link>
							<linkclipref>clipitem-103</linkclipref>
							<mediatype>audio</mediatype>
							<trackindex>2</trackindex>
							<clipindex>3</clipindex>
							<groupindex>1</groupindex>
						</link>
						<logginginfo>
							<description />
							<scene />
							<shottake />
							<lognote />
							<good />
							<originalvideofilename />
							<originalaudiofilename />
						</logginginfo>
						<colorinfo>
							<lut />
							<lut1 />
							<asc_sop />
							<asc_sat />
							<lut2 />
						</colorinfo>
					<labels><label2>Caribbean</label2></labels></clipitem>
					<clipitem id="clipitem-88">
						<masterclipid>clipitem-4-17</masterclipid>
						<name>Travis_Kelce_ANNOUNCE_WEDDING_DATE_with_Taylor_Swift_Why_He_was_Delaying_all_Along.mp4</name>
						<enabled>TRUE</enabled>
						<duration>150</duration>
						<rate>
							<timebase>25</timebase>
							<ntsc>FALSE</ntsc>
						</rate>
						<start>99300</start>
						<end>99450</end>
						<in>2400</in>
						<out>2550</out>
						<pproTicksIn>0</pproTicksIn>
						<pproTicksOut>419410897920000</pproTicksOut>
						<alphatype>none</alphatype>
						<pixelaspectratio>square</pixelaspectratio>
						<anamorphic>FALSE</anamorphic>
						<file id="file-32">
							<name>Travis_Kelce_ANNOUNCE_WEDDING_DATE_with_Taylor_Swift_Why_He_was_Delaying_all_Along.mp4</name>
							<pathurl>file://localhost/Users/themalikano/Documents/VideoAutomation/premiere_videos/Travis_Kelce_ANNOUNCE_WEDDING_DATE_with_Taylor_Swift_Why_He_was_Delaying_all_Along.mp4</pathurl>
							<rate>
								<timebase>24</timebase>
								<ntsc>FALSE</ntsc>
							</rate>
							<duration>39627</duration>
							<timecode>
								<rate>
									<timebase>24</timebase>
									<ntsc>FALSE</ntsc>
								</rate>
								<string>00:00:00:00</string>
								<frame>0</frame>
								<displayformat>NDF</displayformat>
							</timecode>
							<media>
								<video>
									<samplecharacteristics>
										<rate>
											<timebase>24</timebase>
											<ntsc>FALSE</ntsc>
										</rate>
										<width>852</width>
										<height>480</height>
										<anamorphic>FALSE</anamorphic>
										<pixelaspectratio>square</pixelaspectratio>
										<fielddominance>none</fielddominance>
									</samplecharacteristics>
								</video>
								<audio>
									<samplecharacteristics>
										<depth>16</depth>
										<samplerate>44100</samplerate>
									</samplecharacteristics>
									<channelcount>2</channelcount>
								</audio>
							</media>
						</file>
						<filter>
							<effect>
								<name>Basic Motion</name>
								<effectid>basic</effectid>
								<effectcategory>motion</effectcategory>
								<effecttype>motion</effecttype>
								<mediatype>video</mediatype>
								<pproBypass>false</pproBypass>
								<parameter authoringApp="PremierePro">
									<parameterid>scale</parameterid>
									<name>Scale</name>
									<valuemin>0</valuemin>
									<valuemax>1000</valuemax>
									<value>225</value>
								</parameter>
								<parameter authoringApp="PremierePro">
									<parameterid>rotation</parameterid>
									<name>Rotation</name>
									<valuemin>-8640</valuemin>
									<valuemax>8640</valuemax>
									<value>0</value>
								</parameter>
								<parameter authoringApp="PremierePro">
									<parameterid>center</parameterid>
									<name>Center</name>
									<value>
										<horiz>0</horiz>
										<vert>0</vert>
									</value>
								</parameter>
								<parameter authoringApp="PremierePro">
									<parameterid>centerOffset</parameterid>
									<name>Anchor Point</name>
									<value>
										<horiz>0</horiz>
										<vert>0</vert>
									</value>
								</parameter>
								<parameter authoringApp="PremierePro">
									<parameterid>antiflicker</parameterid>
									<name>Anti-flicker Filter</name>
									<valuemin>0.0</valuemin>
									<valuemax>1.0</valuemax>
									<value>0</value>
								</parameter>
							</effect>
						</filter>
						<link>
							<linkclipref>clipitem-88</linkclipref>
							<mediatype>video</mediatype>
							<trackindex>1</trackindex>
							<clipindex>4</clipindex>
						</link>
						<link>
							<linkclipref>clipitem-96</linkclipref>
							<mediatype>audio</mediatype>
							<trackindex>1</trackindex>
							<clipindex>4</clipindex>
							<groupindex>1</groupindex>
						</link>
						<link>
							<linkclipref>clipitem-104</linkclipref>
							<mediatype>audio</mediatype>
							<trackindex>2</trackindex>
							<clipindex>4</clipindex>
							<groupindex>1</groupindex>
						</link>
						<logginginfo>
							<description />
							<scene />
							<shottake />
							<lognote />
							<good />
							<originalvideofilename />
							<originalaudiofilename />
						</logginginfo>
						<colorinfo>
							<lut />
							<lut1 />
							<asc_sop />
							<asc_sat />
							<lut2 />
						</colorinfo>
					<labels><label2>Lavender</label2></labels></clipitem>
					<clipitem id="clipitem-87">
						<masterclipid>clipitem-3-387</masterclipid>
						<name>Taylor_Swift_Travis_Kelce_-_The_New_Power_Couple.mp4</name>
						<enabled>TRUE</enabled>
						<duration>150</duration>
						<rate>
							<timebase>25</timebase>
							<ntsc>FALSE</ntsc>
						</rate>
						<start>99450</start>
						<end>99600</end>
						<in>57900</in>
						<out>58050</out>
						<pproTicksIn>0</pproTicksIn>
						<pproTicksOut>875013995520000</pproTicksOut>
						<alphatype>none</alphatype>
						<pixelaspectratio>square</pixelaspectratio>
						<anamorphic>FALSE</anamorphic>
						<file id="file-31">
							<name>Taylor_Swift_Travis_Kelce_-_The_New_Power_Couple.mp4</name>
							<pathurl>file://localhost/Users/themalikano/Documents/VideoAutomation/premiere_videos/Taylor_Swift_Travis_Kelce_-_The_New_Power_Couple.mp4</pathurl>
							<rate>
								<timebase>25</timebase>
								<ntsc>FALSE</ntsc>
							</rate>
							<duration>86118</duration>
							<timecode>
								<rate>
									<timebase>25</timebase>
									<ntsc>FALSE</ntsc>
								</rate>
								<string>00:00:00:00</string>
								<frame>0</frame>
								<displayformat>NDF</displayformat>
							</timecode>
							<media>
								<video>
									<samplecharacteristics>
										<rate>
											<timebase>25</timebase>
											<ntsc>FALSE</ntsc>
										</rate>
										<width>1920</width>
										<height>1080</height>
										<anamorphic>FALSE</anamorphic>
										<pixelaspectratio>square</pixelaspectratio>
										<fielddominance>none</fielddominance>
									</samplecharacteristics>
								</video>
								<audio>
									<samplecharacteristics>
										<depth>16</depth>
										<samplerate>44100</samplerate>
									</samplecharacteristics>
									<channelcount>2</channelcount>
								</audio>
							</media>
						</file>
						<link>
							<linkclipref>clipitem-87</linkclipref>
							<mediatype>video</mediatype>
							<trackindex>1</trackindex>
							<clipindex>3</clipindex>
						</link>
						<link>
							<linkclipref>clipitem-95</linkclipref>
							<mediatype>audio</mediatype>
							<trackindex>1</trackindex>
							<clipindex>3</clipindex>
							<groupindex>1</groupindex>
						</link>
						<link>
							<linkclipref>clipitem-103</linkclipref>
							<mediatype>audio</mediatype>
							<trackindex>2</trackindex>
							<clipindex>3</clipindex>
							<groupindex>1</groupindex>
						</link>
						<logginginfo>
							<description />
							<scene />
							<shottake />
							<lognote />
							<good />
							<originalvideofilename />
							<originalaudiofilename />
						</logginginfo>
						<colorinfo>
							<lut />
							<lut1 />
							<asc_sop />
							<asc_sat />
							<lut2 />
						</colorinfo>
					<labels><label2>Caribbean</label2></labels></clipitem>
					<clipitem id="clipitem-88">
						<masterclipid>clipitem-4-273</masterclipid>
						<name>Travis_Kelce_ANNOUNCE_WEDDING_DATE_with_Taylor_Swift_Why_He_was_Delaying_all_Along.mp4</name>
						<enabled>TRUE</enabled>
						<duration>150</duration>
						<rate>
							<timebase>25</timebase>
							<ntsc>FALSE</ntsc>
						</rate>
						<start>99600</start>
						<end>99750</end>
						<in>40800</in>
						<out>40950</out>
						<pproTicksIn>0</pproTicksIn>
						<pproTicksOut>419410897920000</pproTicksOut>
						<alphatype>none</alphatype>
						<pixelaspectratio>square</pixelaspectratio>
						<anamorphic>FALSE</anamorphic>
						<file id="file-32">
							<name>Travis_Kelce_ANNOUNCE_WEDDING_DATE_with_Taylor_Swift_Why_He_was_Delaying_all_Along.mp4</name>
							<pathurl>file://localhost/Users/themalikano/Documents/VideoAutomation/premiere_videos/Travis_Kelce_ANNOUNCE_WEDDING_DATE_with_Taylor_Swift_Why_He_was_Delaying_all_Along.mp4</pathurl>
							<rate>
								<timebase>24</timebase>
								<ntsc>FALSE</ntsc>
							</rate>
							<duration>39627</duration>
							<timecode>
								<rate>
									<timebase>24</timebase>
									<ntsc>FALSE</ntsc>
								</rate>
								<string>00:00:00:00</string>
								<frame>0</frame>
								<displayformat>NDF</displayformat>
							</timecode>
							<media>
								<video>
									<samplecharacteristics>
										<rate>
											<timebase>24</timebase>
											<ntsc>FALSE</ntsc>
										</rate>
										<width>852</width>
										<height>480</height>
										<anamorphic>FALSE</anamorphic>
										<pixelaspectratio>square</pixelaspectratio>
										<fielddominance>none</fielddominance>
									</samplecharacteristics>
								</video>
								<audio>
									<samplecharacteristics>
										<depth>16</depth>
										<samplerate>44100</samplerate>
									</samplecharacteristics>
									<channelcount>2</channelcount>
								</audio>
							</media>
						</file>
						<filter>
							<effect>
								<name>Basic Motion</name>
								<effectid>basic</effectid>
								<effectcategory>motion</effectcategory>
								<effecttype>motion</effecttype>
								<mediatype>video</mediatype>
								<pproBypass>false</pproBypass>
								<parameter authoringApp="PremierePro">
									<parameterid>scale</parameterid>
									<name>Scale</name>
									<valuemin>0</valuemin>
									<valuemax>1000</valuemax>
									<value>225</value>
								</parameter>
								<parameter authoringApp="PremierePro">
									<parameterid>rotation</parameterid>
									<name>Rotation</name>
									<valuemin>-8640</valuemin>
									<valuemax>8640</valuemax>
									<value>0</value>
								</parameter>
								<parameter authoringApp="PremierePro">
									<parameterid>center</parameterid>
									<name>Center</name>
									<value>
										<horiz>0</horiz>
										<vert>0</vert>
									</value>
								</parameter>
								<parameter authoringApp="PremierePro">
									<parameterid>centerOffset</parameterid>
									<name>Anchor Point</name>
									<value>
										<horiz>0</horiz>
										<vert>0</vert>
									</value>
								</parameter>
								<parameter authoringApp="PremierePro">
									<parameterid>antiflicker</parameterid>
									<name>Anti-flicker Filter</name>
									<valuemin>0.0</valuemin>
									<valuemax>1.0</valuemax>
									<value>0</value>
								</parameter>
							</effect>
						</filter>
						<link>
							<linkclipref>clipitem-88</linkclipref>
							<mediatype>video</mediatype>
							<trackindex>1</trackindex>
							<clipindex>4</clipindex>
						</link>
						<link>
							<linkclipref>clipitem-96</linkclipref>
							<mediatype>audio</mediatype>
							<trackindex>1</trackindex>
							<clipindex>4</clipindex>
							<groupindex>1</groupindex>
						</link>
						<link>
							<linkclipref>clipitem-104</linkclipref>
							<mediatype>audio</mediatype>
							<trackindex>2</trackindex>
							<clipindex>4</clipindex>
							<groupindex>1</groupindex>
						</link>
						<logginginfo>
							<description />
							<scene />
							<shottake />
							<lognote />
							<good />
							<originalvideofilename />
							<originalaudiofilename />
						</logginginfo>
						<colorinfo>
							<lut />
							<lut1 />
							<asc_sop />
							<asc_sat />
							<lut2 />
						</colorinfo>
					<labels><label2>Lavender</label2></labels></clipitem>
					<clipitem id="clipitem-87">
						<masterclipid>clipitem-3-496</masterclipid>
						<name>Taylor_Swift_Travis_Kelce_-_The_New_Power_Couple.mp4</name>
						<enabled>TRUE</enabled>
						<duration>150</duration>
						<rate>
							<timebase>25</timebase>
							<ntsc>FALSE</ntsc>
						</rate>
						<start>99750</start>
						<end>99900</end>
						<in>74250</in>
						<out>74400</out>
						<pproTicksIn>0</pproTicksIn>
						<pproTicksOut>875013995520000</pproTicksOut>
						<alphatype>none</alphatype>
						<pixelaspectratio>square</pixelaspectratio>
						<anamorphic>FALSE</anamorphic>
						<file id="file-31">
							<name>Taylor_Swift_Travis_Kelce_-_The_New_Power_Couple.mp4</name>
							<pathurl>file://localhost/Users/themalikano/Documents/VideoAutomation/premiere_videos/Taylor_Swift_Travis_Kelce_-_The_New_Power_Couple.mp4</pathurl>
							<rate>
								<timebase>25</timebase>
								<ntsc>FALSE</ntsc>
							</rate>
							<duration>86118</duration>
							<timecode>
								<rate>
									<timebase>25</timebase>
									<ntsc>FALSE</ntsc>
								</rate>
								<string>00:00:00:00</string>
								<frame>0</frame>
								<displayformat>NDF</displayformat>
							</timecode>
							<media>
								<video>
									<samplecharacteristics>
										<rate>
											<timebase>25</timebase>
											<ntsc>FALSE</ntsc>
										</rate>
										<width>1920</width>
										<height>1080</height>
										<anamorphic>FALSE</anamorphic>
										<pixelaspectratio>square</pixelaspectratio>
										<fielddominance>none</fielddominance>
									</samplecharacteristics>
								</video>
								<audio>
									<samplecharacteristics>
										<depth>16</depth>
										<samplerate>44100</samplerate>
									</samplecharacteristics>
									<channelcount>2</channelcount>
								</audio>
							</media>
						</file>
						<link>
							<linkclipref>clipitem-87</linkclipref>
							<mediatype>video</mediatype>
							<trackindex>1</trackindex>
							<clipindex>3</clipindex>
						</link>
						<link>
							<linkclipref>clipitem-95</linkclipref>
							<mediatype>audio</mediatype>
							<trackindex>1</trackindex>
							<clipindex>3</clipindex>
							<groupindex>1</groupindex>
						</link>
						<link>
							<linkclipref>clipitem-103</linkclipref>
							<mediatype>audio</mediatype>
							<trackindex>2</trackindex>
							<clipindex>3</clipindex>
							<groupindex>1</groupindex>
						</link>
						<logginginfo>
							<description />
							<scene />
							<shottake />
							<lognote />
							<good />
							<originalvideofilename />
							<originalaudiofilename />
						</logginginfo>
						<colorinfo>
							<lut />
							<lut1 />
							<asc_sop />
							<asc_sat />
							<lut2 />
						</colorinfo>
					<labels><label2>Caribbean</label2></labels></clipitem>
					<clipitem id="clipitem-88">
						<masterclipid>clipitem-4-181</masterclipid>
						<name>Travis_Kelce_ANNOUNCE_WEDDING_DATE_with_Taylor_Swift_Why_He_was_Delaying_all_Along.mp4</name>
						<enabled>TRUE</enabled>
						<duration>150</duration>
						<rate>
							<timebase>25</timebase>
							<ntsc>FALSE</ntsc>
						</rate>
						<start>99900</start>
						<end>100050</end>
						<in>27000</in>
						<out>27150</out>
						<pproTicksIn>0</pproTicksIn>
						<pproTicksOut>419410897920000</pproTicksOut>
						<alphatype>none</alphatype>
						<pixelaspectratio>square</pixelaspectratio>
						<anamorphic>FALSE</anamorphic>
						<file id="file-32">
							<name>Travis_Kelce_ANNOUNCE_WEDDING_DATE_with_Taylor_Swift_Why_He_was_Delaying_all_Along.mp4</name>
							<pathurl>file://localhost/Users/themalikano/Documents/VideoAutomation/premiere_videos/Travis_Kelce_ANNOUNCE_WEDDING_DATE_with_Taylor_Swift_Why_He_was_Delaying_all_Along.mp4</pathurl>
							<rate>
								<timebase>24</timebase>
								<ntsc>FALSE</ntsc>
							</rate>
							<duration>39627</duration>
							<timecode>
								<rate>
									<timebase>24</timebase>
									<ntsc>FALSE</ntsc>
								</rate>
								<string>00:00:00:00</string>
								<frame>0</frame>
								<displayformat>NDF</displayformat>
							</timecode>
							<media>
								<video>
									<samplecharacteristics>
										<rate>
											<timebase>24</timebase>
											<ntsc>FALSE</ntsc>
										</rate>
										<width>852</width>
										<height>480</height>
										<anamorphic>FALSE</anamorphic>
										<pixelaspectratio>square</pixelaspectratio>
										<fielddominance>none</fielddominance>
									</samplecharacteristics>
								</video>
								<audio>
									<samplecharacteristics>
										<depth>16</depth>
										<samplerate>44100</samplerate>
									</samplecharacteristics>
									<channelcount>2</channelcount>
								</audio>
							</media>
						</file>
						<filter>
							<effect>
								<name>Basic Motion</name>
								<effectid>basic</effectid>
								<effectcategory>motion</effectcategory>
								<effecttype>motion</effecttype>
								<mediatype>video</mediatype>
								<pproBypass>false</pproBypass>
								<parameter authoringApp="PremierePro">
									<parameterid>scale</parameterid>
									<name>Scale</name>
									<valuemin>0</valuemin>
									<valuemax>1000</valuemax>
									<value>225</value>
								</parameter>
								<parameter authoringApp="PremierePro">
									<parameterid>rotation</parameterid>
									<name>Rotation</name>
									<valuemin>-8640</valuemin>
									<valuemax>8640</valuemax>
									<value>0</value>
								</parameter>
								<parameter authoringApp="PremierePro">
									<parameterid>center</parameterid>
									<name>Center</name>
									<value>
										<horiz>0</horiz>
										<vert>0</vert>
									</value>
								</parameter>
								<parameter authoringApp="PremierePro">
									<parameterid>centerOffset</parameterid>
									<name>Anchor Point</name>
									<value>
										<horiz>0</horiz>
										<vert>0</vert>
									</value>
								</parameter>
								<parameter authoringApp="PremierePro">
									<parameterid>antiflicker</parameterid>
									<name>Anti-flicker Filter</name>
									<valuemin>0.0</valuemin>
									<valuemax>1.0</valuemax>
									<value>0</value>
								</parameter>
							</effect>
						</filter>
						<link>
							<linkclipref>clipitem-88</linkclipref>
							<mediatype>video</mediatype>
							<trackindex>1</trackindex>
							<clipindex>4</clipindex>
						</link>
						<link>
							<linkclipref>clipitem-96</linkclipref>
							<mediatype>audio</mediatype>
							<trackindex>1</trackindex>
							<clipindex>4</clipindex>
							<groupindex>1</groupindex>
						</link>
						<link>
							<linkclipref>clipitem-104</linkclipref>
							<mediatype>audio</mediatype>
							<trackindex>2</trackindex>
							<clipindex>4</clipindex>
							<groupindex>1</groupindex>
						</link>
						<logginginfo>
							<description />
							<scene />
							<shottake />
							<lognote />
							<good />
							<originalvideofilename />
							<originalaudiofilename />
						</logginginfo>
						<colorinfo>
							<lut />
							<lut1 />
							<asc_sop />
							<asc_sat />
							<lut2 />
						</colorinfo>
					<labels><label2>Lavender</label2></labels></clipitem>
					<clipitem id="clipitem-87">
						<masterclipid>clipitem-3-429</masterclipid>
						<name>Taylor_Swift_Travis_Kelce_-_The_New_Power_Couple.mp4</name>
						<enabled>TRUE</enabled>
						<duration>150</duration>
						<rate>
							<timebase>25</timebase>
							<ntsc>FALSE</ntsc>
						</rate>
						<start>100050</start>
						<end>100200</end>
						<in>64200</in>
						<out>64350</out>
						<pproTicksIn>0</pproTicksIn>
						<pproTicksOut>875013995520000</pproTicksOut>
						<alphatype>none</alphatype>
						<pixelaspectratio>square</pixelaspectratio>
						<anamorphic>FALSE</anamorphic>
						<file id="file-31">
							<name>Taylor_Swift_Travis_Kelce_-_The_New_Power_Couple.mp4</name>
							<pathurl>file://localhost/Users/themalikano/Documents/VideoAutomation/premiere_videos/Taylor_Swift_Travis_Kelce_-_The_New_Power_Couple.mp4</pathurl>
							<rate>
								<timebase>25</timebase>
								<ntsc>FALSE</ntsc>
							</rate>
							<duration>86118</duration>
							<timecode>
								<rate>
									<timebase>25</timebase>
									<ntsc>FALSE</ntsc>
								</rate>
								<string>00:00:00:00</string>
								<frame>0</frame>
								<displayformat>NDF</displayformat>
							</timecode>
							<media>
								<video>
									<samplecharacteristics>
										<rate>
											<timebase>25</timebase>
											<ntsc>FALSE</ntsc>
										</rate>
										<width>1920</width>
										<height>1080</height>
										<anamorphic>FALSE</anamorphic>
										<pixelaspectratio>square</pixelaspectratio>
										<fielddominance>none</fielddominance>
									</samplecharacteristics>
								</video>
								<audio>
									<samplecharacteristics>
										<depth>16</depth>
										<samplerate>44100</samplerate>
									</samplecharacteristics>
									<channelcount>2</channelcount>
								</audio>
							</media>
						</file>
						<link>
							<linkclipref>clipitem-87</linkclipref>
							<mediatype>video</mediatype>
							<trackindex>1</trackindex>
							<clipindex>3</clipindex>
						</link>
						<link>
							<linkclipref>clipitem-95</linkclipref>
							<mediatype>audio</mediatype>
							<trackindex>1</trackindex>
							<clipindex>3</clipindex>
							<groupindex>1</groupindex>
						</link>
						<link>
							<linkclipref>clipitem-103</linkclipref>
							<mediatype>audio</mediatype>
							<trackindex>2</trackindex>
							<clipindex>3</clipindex>
							<groupindex>1</groupindex>
						</link>
						<logginginfo>
							<description />
							<scene />
							<shottake />
							<lognote />
							<good />
							<originalvideofilename />
							<originalaudiofilename />
						</logginginfo>
						<colorinfo>
							<lut />
							<lut1 />
							<asc_sop />
							<asc_sat />
							<lut2 />
						</colorinfo>
					<labels><label2>Caribbean</label2></labels></clipitem>
					<clipitem id="clipitem-88">
						<masterclipid>clipitem-4-188</masterclipid>
						<name>Travis_Kelce_ANNOUNCE_WEDDING_DATE_with_Taylor_Swift_Why_He_was_Delaying_all_Along.mp4</name>
						<enabled>TRUE</enabled>
						<duration>150</duration>
						<rate>
							<timebase>25</timebase>
							<ntsc>FALSE</ntsc>
						</rate>
						<start>100200</start>
						<end>100350</end>
						<in>28050</in>
						<out>28200</out>
						<pproTicksIn>0</pproTicksIn>
						<pproTicksOut>419410897920000</pproTicksOut>
						<alphatype>none</alphatype>
						<pixelaspectratio>square</pixelaspectratio>
						<anamorphic>FALSE</anamorphic>
						<file id="file-32">
							<name>Travis_Kelce_ANNOUNCE_WEDDING_DATE_with_Taylor_Swift_Why_He_was_Delaying_all_Along.mp4</name>
							<pathurl>file://localhost/Users/themalikano/Documents/VideoAutomation/premiere_videos/Travis_Kelce_ANNOUNCE_WEDDING_DATE_with_Taylor_Swift_Why_He_was_Delaying_all_Along.mp4</pathurl>
							<rate>
								<timebase>24</timebase>
								<ntsc>FALSE</ntsc>
							</rate>
							<duration>39627</duration>
							<timecode>
								<rate>
									<timebase>24</timebase>
									<ntsc>FALSE</ntsc>
								</rate>
								<string>00:00:00:00</string>
								<frame>0</frame>
								<displayformat>NDF</displayformat>
							</timecode>
							<media>
								<video>
									<samplecharacteristics>
										<rate>
											<timebase>24</timebase>
											<ntsc>FALSE</ntsc>
										</rate>
										<width>852</width>
										<height>480</height>
										<anamorphic>FALSE</anamorphic>
										<pixelaspectratio>square</pixelaspectratio>
										<fielddominance>none</fielddominance>
									</samplecharacteristics>
								</video>
								<audio>
									<samplecharacteristics>
										<depth>16</depth>
										<samplerate>44100</samplerate>
									</samplecharacteristics>
									<channelcount>2</channelcount>
								</audio>
							</media>
						</file>
						<filter>
							<effect>
								<name>Basic Motion</name>
								<effectid>basic</effectid>
								<effectcategory>motion</effectcategory>
								<effecttype>motion</effecttype>
								<mediatype>video</mediatype>
								<pproBypass>false</pproBypass>
								<parameter authoringApp="PremierePro">
									<parameterid>scale</parameterid>
									<name>Scale</name>
									<valuemin>0</valuemin>
									<valuemax>1000</valuemax>
									<value>225</value>
								</parameter>
								<parameter authoringApp="PremierePro">
									<parameterid>rotation</parameterid>
									<name>Rotation</name>
									<valuemin>-8640</valuemin>
									<valuemax>8640</valuemax>
									<value>0</value>
								</parameter>
								<parameter authoringApp="PremierePro">
									<parameterid>center</parameterid>
									<name>Center</name>
									<value>
										<horiz>0</horiz>
										<vert>0</vert>
									</value>
								</parameter>
								<parameter authoringApp="PremierePro">
									<parameterid>centerOffset</parameterid>
									<name>Anchor Point</name>
									<value>
										<horiz>0</horiz>
										<vert>0</vert>
									</value>
								</parameter>
								<parameter authoringApp="PremierePro">
									<parameterid>antiflicker</parameterid>
									<name>Anti-flicker Filter</name>
									<valuemin>0.0</valuemin>
									<valuemax>1.0</valuemax>
									<value>0</value>
								</parameter>
							</effect>
						</filter>
						<link>
							<linkclipref>clipitem-88</linkclipref>
							<mediatype>video</mediatype>
							<trackindex>1</trackindex>
							<clipindex>4</clipindex>
						</link>
						<link>
							<linkclipref>clipitem-96</linkclipref>
							<mediatype>audio</mediatype>
							<trackindex>1</trackindex>
							<clipindex>4</clipindex>
							<groupindex>1</groupindex>
						</link>
						<link>
							<linkclipref>clipitem-104</linkclipref>
							<mediatype>audio</mediatype>
							<trackindex>2</trackindex>
							<clipindex>4</clipindex>
							<groupindex>1</groupindex>
						</link>
						<logginginfo>
							<description />
							<scene />
							<shottake />
							<lognote />
							<good />
							<originalvideofilename />
							<originalaudiofilename />
						</logginginfo>
						<colorinfo>
							<lut />
							<lut1 />
							<asc_sop />
							<asc_sat />
							<lut2 />
						</colorinfo>
					<labels><label2>Lavender</label2></labels></clipitem>
					<clipitem id="clipitem-87">
						<masterclipid>clipitem-3-83</masterclipid>
						<name>Taylor_Swift_Travis_Kelce_-_The_New_Power_Couple.mp4</name>
						<enabled>TRUE</enabled>
						<duration>150</duration>
						<rate>
							<timebase>25</timebase>
							<ntsc>FALSE</ntsc>
						</rate>
						<start>100350</start>
						<end>100500</end>
						<in>12300</in>
						<out>12450</out>
						<pproTicksIn>0</pproTicksIn>
						<pproTicksOut>875013995520000</pproTicksOut>
						<alphatype>none</alphatype>
						<pixelaspectratio>square</pixelaspectratio>
						<anamorphic>FALSE</anamorphic>
						<file id="file-31">
							<name>Taylor_Swift_Travis_Kelce_-_The_New_Power_Couple.mp4</name>
							<pathurl>file://localhost/Users/themalikano/Documents/VideoAutomation/premiere_videos/Taylor_Swift_Travis_Kelce_-_The_New_Power_Couple.mp4</pathurl>
							<rate>
								<timebase>25</timebase>
								<ntsc>FALSE</ntsc>
							</rate>
							<duration>86118</duration>
							<timecode>
								<rate>
									<timebase>25</timebase>
									<ntsc>FALSE</ntsc>
								</rate>
								<string>00:00:00:00</string>
								<frame>0</frame>
								<displayformat>NDF</displayformat>
							</timecode>
							<media>
								<video>
									<samplecharacteristics>
										<rate>
											<timebase>25</timebase>
											<ntsc>FALSE</ntsc>
										</rate>
										<width>1920</width>
										<height>1080</height>
										<anamorphic>FALSE</anamorphic>
										<pixelaspectratio>square</pixelaspectratio>
										<fielddominance>none</fielddominance>
									</samplecharacteristics>
								</video>
								<audio>
									<samplecharacteristics>
										<depth>16</depth>
										<samplerate>44100</samplerate>
									</samplecharacteristics>
									<channelcount>2</channelcount>
								</audio>
							</media>
						</file>
						<link>
							<linkclipref>clipitem-87</linkclipref>
							<mediatype>video</mediatype>
							<trackindex>1</trackindex>
							<clipindex>3</clipindex>
						</link>
						<link>
							<linkclipref>clipitem-95</linkclipref>
							<mediatype>audio</mediatype>
							<trackindex>1</trackindex>
							<clipindex>3</clipindex>
							<groupindex>1</groupindex>
						</link>
						<link>
							<linkclipref>clipitem-103</linkclipref>
							<mediatype>audio</mediatype>
							<trackindex>2</trackindex>
							<clipindex>3</clipindex>
							<groupindex>1</groupindex>
						</link>
						<logginginfo>
							<description />
							<scene />
							<shottake />
							<lognote />
							<good />
							<originalvideofilename />
							<originalaudiofilename />
						</logginginfo>
						<colorinfo>
							<lut />
							<lut1 />
							<asc_sop />
							<asc_sat />
							<lut2 />
						</colorinfo>
					<labels><label2>Caribbean</label2></labels></clipitem>
					<clipitem id="clipitem-88">
						<masterclipid>clipitem-4-20</masterclipid>
						<name>Travis_Kelce_ANNOUNCE_WEDDING_DATE_with_Taylor_Swift_Why_He_was_Delaying_all_Along.mp4</name>
						<enabled>TRUE</enabled>
						<duration>150</duration>
						<rate>
							<timebase>25</timebase>
							<ntsc>FALSE</ntsc>
						</rate>
						<start>100500</start>
						<end>100650</end>
						<in>2850</in>
						<out>3000</out>
						<pproTicksIn>0</pproTicksIn>
						<pproTicksOut>419410897920000</pproTicksOut>
						<alphatype>none</alphatype>
						<pixelaspectratio>square</pixelaspectratio>
						<anamorphic>FALSE</anamorphic>
						<file id="file-32">
							<name>Travis_Kelce_ANNOUNCE_WEDDING_DATE_with_Taylor_Swift_Why_He_was_Delaying_all_Along.mp4</name>
							<pathurl>file://localhost/Users/themalikano/Documents/VideoAutomation/premiere_videos/Travis_Kelce_ANNOUNCE_WEDDING_DATE_with_Taylor_Swift_Why_He_was_Delaying_all_Along.mp4</pathurl>
							<rate>
								<timebase>24</timebase>
								<ntsc>FALSE</ntsc>
							</rate>
							<duration>39627</duration>
							<timecode>
								<rate>
									<timebase>24</timebase>
									<ntsc>FALSE</ntsc>
								</rate>
								<string>00:00:00:00</string>
								<frame>0</frame>
								<displayformat>NDF</displayformat>
							</timecode>
							<media>
								<video>
									<samplecharacteristics>
										<rate>
											<timebase>24</timebase>
											<ntsc>FALSE</ntsc>
										</rate>
										<width>852</width>
										<height>480</height>
										<anamorphic>FALSE</anamorphic>
										<pixelaspectratio>square</pixelaspectratio>
										<fielddominance>none</fielddominance>
									</samplecharacteristics>
								</video>
								<audio>
									<samplecharacteristics>
										<depth>16</depth>
										<samplerate>44100</samplerate>
									</samplecharacteristics>
									<channelcount>2</channelcount>
								</audio>
							</media>
						</file>
						<filter>
							<effect>
								<name>Basic Motion</name>
								<effectid>basic</effectid>
								<effectcategory>motion</effectcategory>
								<effecttype>motion</effecttype>
								<mediatype>video</mediatype>
								<pproBypass>false</pproBypass>
								<parameter authoringApp="PremierePro">
									<parameterid>scale</parameterid>
									<name>Scale</name>
									<valuemin>0</valuemin>
									<valuemax>1000</valuemax>
									<value>225</value>
								</parameter>
								<parameter authoringApp="PremierePro">
									<parameterid>rotation</parameterid>
									<name>Rotation</name>
									<valuemin>-8640</valuemin>
									<valuemax>8640</valuemax>
									<value>0</value>
								</parameter>
								<parameter authoringApp="PremierePro">
									<parameterid>center</parameterid>
									<name>Center</name>
									<value>
										<horiz>0</horiz>
										<vert>0</vert>
									</value>
								</parameter>
								<parameter authoringApp="PremierePro">
									<parameterid>centerOffset</parameterid>
									<name>Anchor Point</name>
									<value>
										<horiz>0</horiz>
										<vert>0</vert>
									</value>
								</parameter>
								<parameter authoringApp="PremierePro">
									<parameterid>antiflicker</parameterid>
									<name>Anti-flicker Filter</name>
									<valuemin>0.0</valuemin>
									<valuemax>1.0</valuemax>
									<value>0</value>
								</parameter>
							</effect>
						</filter>
						<link>
							<linkclipref>clipitem-88</linkclipref>
							<mediatype>video</mediatype>
							<trackindex>1</trackindex>
							<clipindex>4</clipindex>
						</link>
						<link>
							<linkclipref>clipitem-96</linkclipref>
							<mediatype>audio</mediatype>
							<trackindex>1</trackindex>
							<clipindex>4</clipindex>
							<groupindex>1</groupindex>
						</link>
						<link>
							<linkclipref>clipitem-104</linkclipref>
							<mediatype>audio</mediatype>
							<trackindex>2</trackindex>
							<clipindex>4</clipindex>
							<groupindex>1</groupindex>
						</link>
						<logginginfo>
							<description />
							<scene />
							<shottake />
							<lognote />
							<good />
							<originalvideofilename />
							<originalaudiofilename />
						</logginginfo>
						<colorinfo>
							<lut />
							<lut1 />
							<asc_sop />
							<asc_sat />
							<lut2 />
						</colorinfo>
					<labels><label2>Lavender</label2></labels></clipitem>
					<clipitem id="clipitem-87">
						<masterclipid>clipitem-3-512</masterclipid>
						<name>Taylor_Swift_Travis_Kelce_-_The_New_Power_Couple.mp4</name>
						<enabled>TRUE</enabled>
						<duration>150</duration>
						<rate>
							<timebase>25</timebase>
							<ntsc>FALSE</ntsc>
						</rate>
						<start>100650</start>
						<end>100800</end>
						<in>76650</in>
						<out>76800</out>
						<pproTicksIn>0</pproTicksIn>
						<pproTicksOut>875013995520000</pproTicksOut>
						<alphatype>none</alphatype>
						<pixelaspectratio>square</pixelaspectratio>
						<anamorphic>FALSE</anamorphic>
						<file id="file-31">
							<name>Taylor_Swift_Travis_Kelce_-_The_New_Power_Couple.mp4</name>
							<pathurl>file://localhost/Users/themalikano/Documents/VideoAutomation/premiere_videos/Taylor_Swift_Travis_Kelce_-_The_New_Power_Couple.mp4</pathurl>
							<rate>
								<timebase>25</timebase>
								<ntsc>FALSE</ntsc>
							</rate>
							<duration>86118</duration>
							<timecode>
								<rate>
									<timebase>25</timebase>
									<ntsc>FALSE</ntsc>
								</rate>
								<string>00:00:00:00</string>
								<frame>0</frame>
								<displayformat>NDF</displayformat>
							</timecode>
							<media>
								<video>
									<samplecharacteristics>
										<rate>
											<timebase>25</timebase>
											<ntsc>FALSE</ntsc>
										</rate>
										<width>1920</width>
										<height>1080</height>
										<anamorphic>FALSE</anamorphic>
										<pixelaspectratio>square</pixelaspectratio>
										<fielddominance>none</fielddominance>
									</samplecharacteristics>
								</video>
								<audio>
									<samplecharacteristics>
										<depth>16</depth>
										<samplerate>44100</samplerate>
									</samplecharacteristics>
									<channelcount>2</channelcount>
								</audio>
							</media>
						</file>
						<link>
							<linkclipref>clipitem-87</linkclipref>
							<mediatype>video</mediatype>
							<trackindex>1</trackindex>
							<clipindex>3</clipindex>
						</link>
						<link>
							<linkclipref>clipitem-95</linkclipref>
							<mediatype>audio</mediatype>
							<trackindex>1</trackindex>
							<clipindex>3</clipindex>
							<groupindex>1</groupindex>
						</link>
						<link>
							<linkclipref>clipitem-103</linkclipref>
							<mediatype>audio</mediatype>
							<trackindex>2</trackindex>
							<clipindex>3</clipindex>
							<groupindex>1</groupindex>
						</link>
						<logginginfo>
							<description />
							<scene />
							<shottake />
							<lognote />
							<good />
							<originalvideofilename />
							<originalaudiofilename />
						</logginginfo>
						<colorinfo>
							<lut />
							<lut1 />
							<asc_sop />
							<asc_sat />
							<lut2 />
						</colorinfo>
					<labels><label2>Caribbean</label2></labels></clipitem>
					<clipitem id="clipitem-88">
						<masterclipid>clipitem-4-6</masterclipid>
						<name>Travis_Kelce_ANNOUNCE_WEDDING_DATE_with_Taylor_Swift_Why_He_was_Delaying_all_Along.mp4</name>
						<enabled>TRUE</enabled>
						<duration>150</duration>
						<rate>
							<timebase>25</timebase>
							<ntsc>FALSE</ntsc>
						</rate>
						<start>100800</start>
						<end>100950</end>
						<in>750</in>
						<out>900</out>
						<pproTicksIn>0</pproTicksIn>
						<pproTicksOut>419410897920000</pproTicksOut>
						<alphatype>none</alphatype>
						<pixelaspectratio>square</pixelaspectratio>
						<anamorphic>FALSE</anamorphic>
						<file id="file-32">
							<name>Travis_Kelce_ANNOUNCE_WEDDING_DATE_with_Taylor_Swift_Why_He_was_Delaying_all_Along.mp4</name>
							<pathurl>file://localhost/Users/themalikano/Documents/VideoAutomation/premiere_videos/Travis_Kelce_ANNOUNCE_WEDDING_DATE_with_Taylor_Swift_Why_He_was_Delaying_all_Along.mp4</pathurl>
							<rate>
								<timebase>24</timebase>
								<ntsc>FALSE</ntsc>
							</rate>
							<duration>39627</duration>
							<timecode>
								<rate>
									<timebase>24</timebase>
									<ntsc>FALSE</ntsc>
								</rate>
								<string>00:00:00:00</string>
								<frame>0</frame>
								<displayformat>NDF</displayformat>
							</timecode>
							<media>
								<video>
									<samplecharacteristics>
										<rate>
											<timebase>24</timebase>
											<ntsc>FALSE</ntsc>
										</rate>
										<width>852</width>
										<height>480</height>
										<anamorphic>FALSE</anamorphic>
										<pixelaspectratio>square</pixelaspectratio>
										<fielddominance>none</fielddominance>
									</samplecharacteristics>
								</video>
								<audio>
									<samplecharacteristics>
										<depth>16</depth>
										<samplerate>44100</samplerate>
									</samplecharacteristics>
									<channelcount>2</channelcount>
								</audio>
							</media>
						</file>
						<filter>
							<effect>
								<name>Basic Motion</name>
								<effectid>basic</effectid>
								<effectcategory>motion</effectcategory>
								<effecttype>motion</effecttype>
								<mediatype>video</mediatype>
								<pproBypass>false</pproBypass>
								<parameter authoringApp="PremierePro">
									<parameterid>scale</parameterid>
									<name>Scale</name>
									<valuemin>0</valuemin>
									<valuemax>1000</valuemax>
									<value>225</value>
								</parameter>
								<parameter authoringApp="PremierePro">
									<parameterid>rotation</parameterid>
									<name>Rotation</name>
									<valuemin>-8640</valuemin>
									<valuemax>8640</valuemax>
									<value>0</value>
								</parameter>
								<parameter authoringApp="PremierePro">
									<parameterid>center</parameterid>
									<name>Center</name>
									<value>
										<horiz>0</horiz>
										<vert>0</vert>
									</value>
								</parameter>
								<parameter authoringApp="PremierePro">
									<parameterid>centerOffset</parameterid>
									<name>Anchor Point</name>
									<value>
										<horiz>0</horiz>
										<vert>0</vert>
									</value>
								</parameter>
								<parameter authoringApp="PremierePro">
									<parameterid>antiflicker</parameterid>
									<name>Anti-flicker Filter</name>
									<valuemin>0.0</valuemin>
									<valuemax>1.0</valuemax>
									<value>0</value>
								</parameter>
							</effect>
						</filter>
						<link>
							<linkclipref>clipitem-88</linkclipref>
							<mediatype>video</mediatype>
							<trackindex>1</trackindex>
							<clipindex>4</clipindex>
						</link>
						<link>
							<linkclipref>clipitem-96</linkclipref>
							<mediatype>audio</mediatype>
							<trackindex>1</trackindex>
							<clipindex>4</clipindex>
							<groupindex>1</groupindex>
						</link>
						<link>
							<linkclipref>clipitem-104</linkclipref>
							<mediatype>audio</mediatype>
							<trackindex>2</trackindex>
							<clipindex>4</clipindex>
							<groupindex>1</groupindex>
						</link>
						<logginginfo>
							<description />
							<scene />
							<shottake />
							<lognote />
							<good />
							<originalvideofilename />
							<originalaudiofilename />
						</logginginfo>
						<colorinfo>
							<lut />
							<lut1 />
							<asc_sop />
							<asc_sat />
							<lut2 />
						</colorinfo>
					<labels><label2>Lavender</label2></labels></clipitem>
					<clipitem id="clipitem-87">
						<masterclipid>clipitem-3-260</masterclipid>
						<name>Taylor_Swift_Travis_Kelce_-_The_New_Power_Couple.mp4</name>
						<enabled>TRUE</enabled>
						<duration>150</duration>
						<rate>
							<timebase>25</timebase>
							<ntsc>FALSE</ntsc>
						</rate>
						<start>100950</start>
						<end>101100</end>
						<in>38850</in>
						<out>39000</out>
						<pproTicksIn>0</pproTicksIn>
						<pproTicksOut>875013995520000</pproTicksOut>
						<alphatype>none</alphatype>
						<pixelaspectratio>square</pixelaspectratio>
						<anamorphic>FALSE</anamorphic>
						<file id="file-31">
							<name>Taylor_Swift_Travis_Kelce_-_The_New_Power_Couple.mp4</name>
							<pathurl>file://localhost/Users/themalikano/Documents/VideoAutomation/premiere_videos/Taylor_Swift_Travis_Kelce_-_The_New_Power_Couple.mp4</pathurl>
							<rate>
								<timebase>25</timebase>
								<ntsc>FALSE</ntsc>
							</rate>
							<duration>86118</duration>
							<timecode>
								<rate>
									<timebase>25</timebase>
									<ntsc>FALSE</ntsc>
								</rate>
								<string>00:00:00:00</string>
								<frame>0</frame>
								<displayformat>NDF</displayformat>
							</timecode>
							<media>
								<video>
									<samplecharacteristics>
										<rate>
											<timebase>25</timebase>
											<ntsc>FALSE</ntsc>
										</rate>
										<width>1920</width>
										<height>1080</height>
										<anamorphic>FALSE</anamorphic>
										<pixelaspectratio>square</pixelaspectratio>
										<fielddominance>none</fielddominance>
									</samplecharacteristics>
								</video>
								<audio>
									<samplecharacteristics>
										<depth>16</depth>
										<samplerate>44100</samplerate>
									</samplecharacteristics>
									<channelcount>2</channelcount>
								</audio>
							</media>
						</file>
						<link>
							<linkclipref>clipitem-87</linkclipref>
							<mediatype>video</mediatype>
							<trackindex>1</trackindex>
							<clipindex>3</clipindex>
						</link>
						<link>
							<linkclipref>clipitem-95</linkclipref>
							<mediatype>audio</mediatype>
							<trackindex>1</trackindex>
							<clipindex>3</clipindex>
							<groupindex>1</groupindex>
						</link>
						<link>
							<linkclipref>clipitem-103</linkclipref>
							<mediatype>audio</mediatype>
							<trackindex>2</trackindex>
							<clipindex>3</clipindex>
							<groupindex>1</groupindex>
						</link>
						<logginginfo>
							<description />
							<scene />
							<shottake />
							<lognote />
							<good />
							<originalvideofilename />
							<originalaudiofilename />
						</logginginfo>
						<colorinfo>
							<lut />
							<lut1 />
							<asc_sop />
							<asc_sat />
							<lut2 />
						</colorinfo>
					<labels><label2>Caribbean</label2></labels></clipitem>
					<clipitem id="clipitem-88">
						<masterclipid>clipitem-4-243</masterclipid>
						<name>Travis_Kelce_ANNOUNCE_WEDDING_DATE_with_Taylor_Swift_Why_He_was_Delaying_all_Along.mp4</name>
						<enabled>TRUE</enabled>
						<duration>150</duration>
						<rate>
							<timebase>25</timebase>
							<ntsc>FALSE</ntsc>
						</rate>
						<start>101100</start>
						<end>101250</end>
						<in>36300</in>
						<out>36450</out>
						<pproTicksIn>0</pproTicksIn>
						<pproTicksOut>419410897920000</pproTicksOut>
						<alphatype>none</alphatype>
						<pixelaspectratio>square</pixelaspectratio>
						<anamorphic>FALSE</anamorphic>
						<file id="file-32">
							<name>Travis_Kelce_ANNOUNCE_WEDDING_DATE_with_Taylor_Swift_Why_He_was_Delaying_all_Along.mp4</name>
							<pathurl>file://localhost/Users/themalikano/Documents/VideoAutomation/premiere_videos/Travis_Kelce_ANNOUNCE_WEDDING_DATE_with_Taylor_Swift_Why_He_was_Delaying_all_Along.mp4</pathurl>
							<rate>
								<timebase>24</timebase>
								<ntsc>FALSE</ntsc>
							</rate>
							<duration>39627</duration>
							<timecode>
								<rate>
									<timebase>24</timebase>
									<ntsc>FALSE</ntsc>
								</rate>
								<string>00:00:00:00</string>
								<frame>0</frame>
								<displayformat>NDF</displayformat>
							</timecode>
							<media>
								<video>
									<samplecharacteristics>
										<rate>
											<timebase>24</timebase>
											<ntsc>FALSE</ntsc>
										</rate>
										<width>852</width>
										<height>480</height>
										<anamorphic>FALSE</anamorphic>
										<pixelaspectratio>square</pixelaspectratio>
										<fielddominance>none</fielddominance>
									</samplecharacteristics>
								</video>
								<audio>
									<samplecharacteristics>
										<depth>16</depth>
										<samplerate>44100</samplerate>
									</samplecharacteristics>
									<channelcount>2</channelcount>
								</audio>
							</media>
						</file>
						<filter>
							<effect>
								<name>Basic Motion</name>
								<effectid>basic</effectid>
								<effectcategory>motion</effectcategory>
								<effecttype>motion</effecttype>
								<mediatype>video</mediatype>
								<pproBypass>false</pproBypass>
								<parameter authoringApp="PremierePro">
									<parameterid>scale</parameterid>
									<name>Scale</name>
									<valuemin>0</valuemin>
									<valuemax>1000</valuemax>
									<value>225</value>
								</parameter>
								<parameter authoringApp="PremierePro">
									<parameterid>rotation</parameterid>
									<name>Rotation</name>
									<valuemin>-8640</valuemin>
									<valuemax>8640</valuemax>
									<value>0</value>
								</parameter>
								<parameter authoringApp="PremierePro">
									<parameterid>center</parameterid>
									<name>Center</name>
									<value>
										<horiz>0</horiz>
										<vert>0</vert>
									</value>
								</parameter>
								<parameter authoringApp="PremierePro">
									<parameterid>centerOffset</parameterid>
									<name>Anchor Point</name>
									<value>
										<horiz>0</horiz>
										<vert>0</vert>
									</value>
								</parameter>
								<parameter authoringApp="PremierePro">
									<parameterid>antiflicker</parameterid>
									<name>Anti-flicker Filter</name>
									<valuemin>0.0</valuemin>
									<valuemax>1.0</valuemax>
									<value>0</value>
								</parameter>
							</effect>
						</filter>
						<link>
							<linkclipref>clipitem-88</linkclipref>
							<mediatype>video</mediatype>
							<trackindex>1</trackindex>
							<clipindex>4</clipindex>
						</link>
						<link>
							<linkclipref>clipitem-96</linkclipref>
							<mediatype>audio</mediatype>
							<trackindex>1</trackindex>
							<clipindex>4</clipindex>
							<groupindex>1</groupindex>
						</link>
						<link>
							<linkclipref>clipitem-104</linkclipref>
							<mediatype>audio</mediatype>
							<trackindex>2</trackindex>
							<clipindex>4</clipindex>
							<groupindex>1</groupindex>
						</link>
						<logginginfo>
							<description />
							<scene />
							<shottake />
							<lognote />
							<good />
							<originalvideofilename />
							<originalaudiofilename />
						</logginginfo>
						<colorinfo>
							<lut />
							<lut1 />
							<asc_sop />
							<asc_sat />
							<lut2 />
						</colorinfo>
					<labels><label2>Lavender</label2></labels></clipitem>
					<clipitem id="clipitem-87">
						<masterclipid>clipitem-3-102</masterclipid>
						<name>Taylor_Swift_Travis_Kelce_-_The_New_Power_Couple.mp4</name>
						<enabled>TRUE</enabled>
						<duration>150</duration>
						<rate>
							<timebase>25</timebase>
							<ntsc>FALSE</ntsc>
						</rate>
						<start>101250</start>
						<end>101400</end>
						<in>15150</in>
						<out>15300</out>
						<pproTicksIn>0</pproTicksIn>
						<pproTicksOut>875013995520000</pproTicksOut>
						<alphatype>none</alphatype>
						<pixelaspectratio>square</pixelaspectratio>
						<anamorphic>FALSE</anamorphic>
						<file id="file-31">
							<name>Taylor_Swift_Travis_Kelce_-_The_New_Power_Couple.mp4</name>
							<pathurl>file://localhost/Users/themalikano/Documents/VideoAutomation/premiere_videos/Taylor_Swift_Travis_Kelce_-_The_New_Power_Couple.mp4</pathurl>
							<rate>
								<timebase>25</timebase>
								<ntsc>FALSE</ntsc>
							</rate>
							<duration>86118</duration>
							<timecode>
								<rate>
									<timebase>25</timebase>
									<ntsc>FALSE</ntsc>
								</rate>
								<string>00:00:00:00</string>
								<frame>0</frame>
								<displayformat>NDF</displayformat>
							</timecode>
							<media>
								<video>
									<samplecharacteristics>
										<rate>
											<timebase>25</timebase>
											<ntsc>FALSE</ntsc>
										</rate>
										<width>1920</width>
										<height>1080</height>
										<anamorphic>FALSE</anamorphic>
										<pixelaspectratio>square</pixelaspectratio>
										<fielddominance>none</fielddominance>
									</samplecharacteristics>
								</video>
								<audio>
									<samplecharacteristics>
										<depth>16</depth>
										<samplerate>44100</samplerate>
									</samplecharacteristics>
									<channelcount>2</channelcount>
								</audio>
							</media>
						</file>
						<link>
							<linkclipref>clipitem-87</linkclipref>
							<mediatype>video</mediatype>
							<trackindex>1</trackindex>
							<clipindex>3</clipindex>
						</link>
						<link>
							<linkclipref>clipitem-95</linkclipref>
							<mediatype>audio</mediatype>
							<trackindex>1</trackindex>
							<clipindex>3</clipindex>
							<groupindex>1</groupindex>
						</link>
						<link>
							<linkclipref>clipitem-103</linkclipref>
							<mediatype>audio</mediatype>
							<trackindex>2</trackindex>
							<clipindex>3</clipindex>
							<groupindex>1</groupindex>
						</link>
						<logginginfo>
							<description />
							<scene />
							<shottake />
							<lognote />
							<good />
							<originalvideofilename />
							<originalaudiofilename />
						</logginginfo>
						<colorinfo>
							<lut />
							<lut1 />
							<asc_sop />
							<asc_sat />
							<lut2 />
						</colorinfo>
					<labels><label2>Caribbean</label2></labels></clipitem>
					<clipitem id="clipitem-88">
						<masterclipid>clipitem-4-274</masterclipid>
						<name>Travis_Kelce_ANNOUNCE_WEDDING_DATE_with_Taylor_Swift_Why_He_was_Delaying_all_Along.mp4</name>
						<enabled>TRUE</enabled>
						<duration>150</duration>
						<rate>
							<timebase>25</timebase>
							<ntsc>FALSE</ntsc>
						</rate>
						<start>101400</start>
						<end>101550</end>
						<in>40950</in>
						<out>41100</out>
						<pproTicksIn>0</pproTicksIn>
						<pproTicksOut>419410897920000</pproTicksOut>
						<alphatype>none</alphatype>
						<pixelaspectratio>square</pixelaspectratio>
						<anamorphic>FALSE</anamorphic>
						<file id="file-32">
							<name>Travis_Kelce_ANNOUNCE_WEDDING_DATE_with_Taylor_Swift_Why_He_was_Delaying_all_Along.mp4</name>
							<pathurl>file://localhost/Users/themalikano/Documents/VideoAutomation/premiere_videos/Travis_Kelce_ANNOUNCE_WEDDING_DATE_with_Taylor_Swift_Why_He_was_Delaying_all_Along.mp4</pathurl>
							<rate>
								<timebase>24</timebase>
								<ntsc>FALSE</ntsc>
							</rate>
							<duration>39627</duration>
							<timecode>
								<rate>
									<timebase>24</timebase>
									<ntsc>FALSE</ntsc>
								</rate>
								<string>00:00:00:00</string>
								<frame>0</frame>
								<displayformat>NDF</displayformat>
							</timecode>
							<media>
								<video>
									<samplecharacteristics>
										<rate>
											<timebase>24</timebase>
											<ntsc>FALSE</ntsc>
										</rate>
										<width>852</width>
										<height>480</height>
										<anamorphic>FALSE</anamorphic>
										<pixelaspectratio>square</pixelaspectratio>
										<fielddominance>none</fielddominance>
									</samplecharacteristics>
								</video>
								<audio>
									<samplecharacteristics>
										<depth>16</depth>
										<samplerate>44100</samplerate>
									</samplecharacteristics>
									<channelcount>2</channelcount>
								</audio>
							</media>
						</file>
						<filter>
							<effect>
								<name>Basic Motion</name>
								<effectid>basic</effectid>
								<effectcategory>motion</effectcategory>
								<effecttype>motion</effecttype>
								<mediatype>video</mediatype>
								<pproBypass>false</pproBypass>
								<parameter authoringApp="PremierePro">
									<parameterid>scale</parameterid>
									<name>Scale</name>
									<valuemin>0</valuemin>
									<valuemax>1000</valuemax>
									<value>225</value>
								</parameter>
								<parameter authoringApp="PremierePro">
									<parameterid>rotation</parameterid>
									<name>Rotation</name>
									<valuemin>-8640</valuemin>
									<valuemax>8640</valuemax>
									<value>0</value>
								</parameter>
								<parameter authoringApp="PremierePro">
									<parameterid>center</parameterid>
									<name>Center</name>
									<value>
										<horiz>0</horiz>
										<vert>0</vert>
									</value>
								</parameter>
								<parameter authoringApp="PremierePro">
									<parameterid>centerOffset</parameterid>
									<name>Anchor Point</name>
									<value>
										<horiz>0</horiz>
										<vert>0</vert>
									</value>
								</parameter>
								<parameter authoringApp="PremierePro">
									<parameterid>antiflicker</parameterid>
									<name>Anti-flicker Filter</name>
									<valuemin>0.0</valuemin>
									<valuemax>1.0</valuemax>
									<value>0</value>
								</parameter>
							</effect>
						</filter>
						<link>
							<linkclipref>clipitem-88</linkclipref>
							<mediatype>video</mediatype>
							<trackindex>1</trackindex>
							<clipindex>4</clipindex>
						</link>
						<link>
							<linkclipref>clipitem-96</linkclipref>
							<mediatype>audio</mediatype>
							<trackindex>1</trackindex>
							<clipindex>4</clipindex>
							<groupindex>1</groupindex>
						</link>
						<link>
							<linkclipref>clipitem-104</linkclipref>
							<mediatype>audio</mediatype>
							<trackindex>2</trackindex>
							<clipindex>4</clipindex>
							<groupindex>1</groupindex>
						</link>
						<logginginfo>
							<description />
							<scene />
							<shottake />
							<lognote />
							<good />
							<originalvideofilename />
							<originalaudiofilename />
						</logginginfo>
						<colorinfo>
							<lut />
							<lut1 />
							<asc_sop />
							<asc_sat />
							<lut2 />
						</colorinfo>
					<labels><label2>Lavender</label2></labels></clipitem>
					<clipitem id="clipitem-87">
						<masterclipid>clipitem-3-209</masterclipid>
						<name>Taylor_Swift_Travis_Kelce_-_The_New_Power_Couple.mp4</name>
						<enabled>TRUE</enabled>
						<duration>150</duration>
						<rate>
							<timebase>25</timebase>
							<ntsc>FALSE</ntsc>
						</rate>
						<start>101550</start>
						<end>101700</end>
						<in>31200</in>
						<out>31350</out>
						<pproTicksIn>0</pproTicksIn>
						<pproTicksOut>875013995520000</pproTicksOut>
						<alphatype>none</alphatype>
						<pixelaspectratio>square</pixelaspectratio>
						<anamorphic>FALSE</anamorphic>
						<file id="file-31">
							<name>Taylor_Swift_Travis_Kelce_-_The_New_Power_Couple.mp4</name>
							<pathurl>file://localhost/Users/themalikano/Documents/VideoAutomation/premiere_videos/Taylor_Swift_Travis_Kelce_-_The_New_Power_Couple.mp4</pathurl>
							<rate>
								<timebase>25</timebase>
								<ntsc>FALSE</ntsc>
							</rate>
							<duration>86118</duration>
							<timecode>
								<rate>
									<timebase>25</timebase>
									<ntsc>FALSE</ntsc>
								</rate>
								<string>00:00:00:00</string>
								<frame>0</frame>
								<displayformat>NDF</displayformat>
							</timecode>
							<media>
								<video>
									<samplecharacteristics>
										<rate>
											<timebase>25</timebase>
											<ntsc>FALSE</ntsc>
										</rate>
										<width>1920</width>
										<height>1080</height>
										<anamorphic>FALSE</anamorphic>
										<pixelaspectratio>square</pixelaspectratio>
										<fielddominance>none</fielddominance>
									</samplecharacteristics>
								</video>
								<audio>
									<samplecharacteristics>
										<depth>16</depth>
										<samplerate>44100</samplerate>
									</samplecharacteristics>
									<channelcount>2</channelcount>
								</audio>
							</media>
						</file>
						<link>
							<linkclipref>clipitem-87</linkclipref>
							<mediatype>video</mediatype>
							<trackindex>1</trackindex>
							<clipindex>3</clipindex>
						</link>
						<link>
							<linkclipref>clipitem-95</linkclipref>
							<mediatype>audio</mediatype>
							<trackindex>1</trackindex>
							<clipindex>3</clipindex>
							<groupindex>1</groupindex>
						</link>
						<link>
							<linkclipref>clipitem-103</linkclipref>
							<mediatype>audio</mediatype>
							<trackindex>2</trackindex>
							<clipindex>3</clipindex>
							<groupindex>1</groupindex>
						</link>
						<logginginfo>
							<description />
							<scene />
							<shottake />
							<lognote />
							<good />
							<originalvideofilename />
							<originalaudiofilename />
						</logginginfo>
						<colorinfo>
							<lut />
							<lut1 />
							<asc_sop />
							<asc_sat />
							<lut2 />
						</colorinfo>
					<labels><label2>Caribbean</label2></labels></clipitem>
					<clipitem id="clipitem-88">
						<masterclipid>clipitem-4-70</masterclipid>
						<name>Travis_Kelce_ANNOUNCE_WEDDING_DATE_with_Taylor_Swift_Why_He_was_Delaying_all_Along.mp4</name>
						<enabled>TRUE</enabled>
						<duration>150</duration>
						<rate>
							<timebase>25</timebase>
							<ntsc>FALSE</ntsc>
						</rate>
						<start>101700</start>
						<end>101850</end>
						<in>10350</in>
						<out>10500</out>
						<pproTicksIn>0</pproTicksIn>
						<pproTicksOut>419410897920000</pproTicksOut>
						<alphatype>none</alphatype>
						<pixelaspectratio>square</pixelaspectratio>
						<anamorphic>FALSE</anamorphic>
						<file id="file-32">
							<name>Travis_Kelce_ANNOUNCE_WEDDING_DATE_with_Taylor_Swift_Why_He_was_Delaying_all_Along.mp4</name>
							<pathurl>file://localhost/Users/themalikano/Documents/VideoAutomation/premiere_videos/Travis_Kelce_ANNOUNCE_WEDDING_DATE_with_Taylor_Swift_Why_He_was_Delaying_all_Along.mp4</pathurl>
							<rate>
								<timebase>24</timebase>
								<ntsc>FALSE</ntsc>
							</rate>
							<duration>39627</duration>
							<timecode>
								<rate>
									<timebase>24</timebase>
									<ntsc>FALSE</ntsc>
								</rate>
								<string>00:00:00:00</string>
								<frame>0</frame>
								<displayformat>NDF</displayformat>
							</timecode>
							<media>
								<video>
									<samplecharacteristics>
										<rate>
											<timebase>24</timebase>
											<ntsc>FALSE</ntsc>
										</rate>
										<width>852</width>
										<height>480</height>
										<anamorphic>FALSE</anamorphic>
										<pixelaspectratio>square</pixelaspectratio>
										<fielddominance>none</fielddominance>
									</samplecharacteristics>
								</video>
								<audio>
									<samplecharacteristics>
										<depth>16</depth>
										<samplerate>44100</samplerate>
									</samplecharacteristics>
									<channelcount>2</channelcount>
								</audio>
							</media>
						</file>
						<filter>
							<effect>
								<name>Basic Motion</name>
								<effectid>basic</effectid>
								<effectcategory>motion</effectcategory>
								<effecttype>motion</effecttype>
								<mediatype>video</mediatype>
								<pproBypass>false</pproBypass>
								<parameter authoringApp="PremierePro">
									<parameterid>scale</parameterid>
									<name>Scale</name>
									<valuemin>0</valuemin>
									<valuemax>1000</valuemax>
									<value>225</value>
								</parameter>
								<parameter authoringApp="PremierePro">
									<parameterid>rotation</parameterid>
									<name>Rotation</name>
									<valuemin>-8640</valuemin>
									<valuemax>8640</valuemax>
									<value>0</value>
								</parameter>
								<parameter authoringApp="PremierePro">
									<parameterid>center</parameterid>
									<name>Center</name>
									<value>
										<horiz>0</horiz>
										<vert>0</vert>
									</value>
								</parameter>
								<parameter authoringApp="PremierePro">
									<parameterid>centerOffset</parameterid>
									<name>Anchor Point</name>
									<value>
										<horiz>0</horiz>
										<vert>0</vert>
									</value>
								</parameter>
								<parameter authoringApp="PremierePro">
									<parameterid>antiflicker</parameterid>
									<name>Anti-flicker Filter</name>
									<valuemin>0.0</valuemin>
									<valuemax>1.0</valuemax>
									<value>0</value>
								</parameter>
							</effect>
						</filter>
						<link>
							<linkclipref>clipitem-88</linkclipref>
							<mediatype>video</mediatype>
							<trackindex>1</trackindex>
							<clipindex>4</clipindex>
						</link>
						<link>
							<linkclipref>clipitem-96</linkclipref>
							<mediatype>audio</mediatype>
							<trackindex>1</trackindex>
							<clipindex>4</clipindex>
							<groupindex>1</groupindex>
						</link>
						<link>
							<linkclipref>clipitem-104</linkclipref>
							<mediatype>audio</mediatype>
							<trackindex>2</trackindex>
							<clipindex>4</clipindex>
							<groupindex>1</groupindex>
						</link>
						<logginginfo>
							<description />
							<scene />
							<shottake />
							<lognote />
							<good />
							<originalvideofilename />
							<originalaudiofilename />
						</logginginfo>
						<colorinfo>
							<lut />
							<lut1 />
							<asc_sop />
							<asc_sat />
							<lut2 />
						</colorinfo>
					<labels><label2>Lavender</label2></labels></clipitem>
					<clipitem id="clipitem-87">
						<masterclipid>clipitem-3-178</masterclipid>
						<name>Taylor_Swift_Travis_Kelce_-_The_New_Power_Couple.mp4</name>
						<enabled>TRUE</enabled>
						<duration>150</duration>
						<rate>
							<timebase>25</timebase>
							<ntsc>FALSE</ntsc>
						</rate>
						<start>101850</start>
						<end>102000</end>
						<in>26550</in>
						<out>26700</out>
						<pproTicksIn>0</pproTicksIn>
						<pproTicksOut>875013995520000</pproTicksOut>
						<alphatype>none</alphatype>
						<pixelaspectratio>square</pixelaspectratio>
						<anamorphic>FALSE</anamorphic>
						<file id="file-31">
							<name>Taylor_Swift_Travis_Kelce_-_The_New_Power_Couple.mp4</name>
							<pathurl>file://localhost/Users/themalikano/Documents/VideoAutomation/premiere_videos/Taylor_Swift_Travis_Kelce_-_The_New_Power_Couple.mp4</pathurl>
							<rate>
								<timebase>25</timebase>
								<ntsc>FALSE</ntsc>
							</rate>
							<duration>86118</duration>
							<timecode>
								<rate>
									<timebase>25</timebase>
									<ntsc>FALSE</ntsc>
								</rate>
								<string>00:00:00:00</string>
								<frame>0</frame>
								<displayformat>NDF</displayformat>
							</timecode>
							<media>
								<video>
									<samplecharacteristics>
										<rate>
											<timebase>25</timebase>
											<ntsc>FALSE</ntsc>
										</rate>
										<width>1920</width>
										<height>1080</height>
										<anamorphic>FALSE</anamorphic>
										<pixelaspectratio>square</pixelaspectratio>
										<fielddominance>none</fielddominance>
									</samplecharacteristics>
								</video>
								<audio>
									<samplecharacteristics>
										<depth>16</depth>
										<samplerate>44100</samplerate>
									</samplecharacteristics>
									<channelcount>2</channelcount>
								</audio>
							</media>
						</file>
						<link>
							<linkclipref>clipitem-87</linkclipref>
							<mediatype>video</mediatype>
							<trackindex>1</trackindex>
							<clipindex>3</clipindex>
						</link>
						<link>
							<linkclipref>clipitem-95</linkclipref>
							<mediatype>audio</mediatype>
							<trackindex>1</trackindex>
							<clipindex>3</clipindex>
							<groupindex>1</groupindex>
						</link>
						<link>
							<linkclipref>clipitem-103</linkclipref>
							<mediatype>audio</mediatype>
							<trackindex>2</trackindex>
							<clipindex>3</clipindex>
							<groupindex>1</groupindex>
						</link>
						<logginginfo>
							<description />
							<scene />
							<shottake />
							<lognote />
							<good />
							<originalvideofilename />
							<originalaudiofilename />
						</logginginfo>
						<colorinfo>
							<lut />
							<lut1 />
							<asc_sop />
							<asc_sat />
							<lut2 />
						</colorinfo>
					<labels><label2>Caribbean</label2></labels></clipitem>
					<clipitem id="clipitem-88">
						<masterclipid>clipitem-4-134</masterclipid>
						<name>Travis_Kelce_ANNOUNCE_WEDDING_DATE_with_Taylor_Swift_Why_He_was_Delaying_all_Along.mp4</name>
						<enabled>TRUE</enabled>
						<duration>150</duration>
						<rate>
							<timebase>25</timebase>
							<ntsc>FALSE</ntsc>
						</rate>
						<start>102000</start>
						<end>102150</end>
						<in>19950</in>
						<out>20100</out>
						<pproTicksIn>0</pproTicksIn>
						<pproTicksOut>419410897920000</pproTicksOut>
						<alphatype>none</alphatype>
						<pixelaspectratio>square</pixelaspectratio>
						<anamorphic>FALSE</anamorphic>
						<file id="file-32">
							<name>Travis_Kelce_ANNOUNCE_WEDDING_DATE_with_Taylor_Swift_Why_He_was_Delaying_all_Along.mp4</name>
							<pathurl>file://localhost/Users/themalikano/Documents/VideoAutomation/premiere_videos/Travis_Kelce_ANNOUNCE_WEDDING_DATE_with_Taylor_Swift_Why_He_was_Delaying_all_Along.mp4</pathurl>
							<rate>
								<timebase>24</timebase>
								<ntsc>FALSE</ntsc>
							</rate>
							<duration>39627</duration>
							<timecode>
								<rate>
									<timebase>24</timebase>
									<ntsc>FALSE</ntsc>
								</rate>
								<string>00:00:00:00</string>
								<frame>0</frame>
								<displayformat>NDF</displayformat>
							</timecode>
							<media>
								<video>
									<samplecharacteristics>
										<rate>
											<timebase>24</timebase>
											<ntsc>FALSE</ntsc>
										</rate>
										<width>852</width>
										<height>480</height>
										<anamorphic>FALSE</anamorphic>
										<pixelaspectratio>square</pixelaspectratio>
										<fielddominance>none</fielddominance>
									</samplecharacteristics>
								</video>
								<audio>
									<samplecharacteristics>
										<depth>16</depth>
										<samplerate>44100</samplerate>
									</samplecharacteristics>
									<channelcount>2</channelcount>
								</audio>
							</media>
						</file>
						<filter>
							<effect>
								<name>Basic Motion</name>
								<effectid>basic</effectid>
								<effectcategory>motion</effectcategory>
								<effecttype>motion</effecttype>
								<mediatype>video</mediatype>
								<pproBypass>false</pproBypass>
								<parameter authoringApp="PremierePro">
									<parameterid>scale</parameterid>
									<name>Scale</name>
									<valuemin>0</valuemin>
									<valuemax>1000</valuemax>
									<value>225</value>
								</parameter>
								<parameter authoringApp="PremierePro">
									<parameterid>rotation</parameterid>
									<name>Rotation</name>
									<valuemin>-8640</valuemin>
									<valuemax>8640</valuemax>
									<value>0</value>
								</parameter>
								<parameter authoringApp="PremierePro">
									<parameterid>center</parameterid>
									<name>Center</name>
									<value>
										<horiz>0</horiz>
										<vert>0</vert>
									</value>
								</parameter>
								<parameter authoringApp="PremierePro">
									<parameterid>centerOffset</parameterid>
									<name>Anchor Point</name>
									<value>
										<horiz>0</horiz>
										<vert>0</vert>
									</value>
								</parameter>
								<parameter authoringApp="PremierePro">
									<parameterid>antiflicker</parameterid>
									<name>Anti-flicker Filter</name>
									<valuemin>0.0</valuemin>
									<valuemax>1.0</valuemax>
									<value>0</value>
								</parameter>
							</effect>
						</filter>
						<link>
							<linkclipref>clipitem-88</linkclipref>
							<mediatype>video</mediatype>
							<trackindex>1</trackindex>
							<clipindex>4</clipindex>
						</link>
						<link>
							<linkclipref>clipitem-96</linkclipref>
							<mediatype>audio</mediatype>
							<trackindex>1</trackindex>
							<clipindex>4</clipindex>
							<groupindex>1</groupindex>
						</link>
						<link>
							<linkclipref>clipitem-104</linkclipref>
							<mediatype>audio</mediatype>
							<trackindex>2</trackindex>
							<clipindex>4</clipindex>
							<groupindex>1</groupindex>
						</link>
						<logginginfo>
							<description />
							<scene />
							<shottake />
							<lognote />
							<good />
							<originalvideofilename />
							<originalaudiofilename />
						</logginginfo>
						<colorinfo>
							<lut />
							<lut1 />
							<asc_sop />
							<asc_sat />
							<lut2 />
						</colorinfo>
					<labels><label2>Lavender</label2></labels></clipitem>
					<clipitem id="clipitem-87">
						<masterclipid>clipitem-3-468</masterclipid>
						<name>Taylor_Swift_Travis_Kelce_-_The_New_Power_Couple.mp4</name>
						<enabled>TRUE</enabled>
						<duration>150</duration>
						<rate>
							<timebase>25</timebase>
							<ntsc>FALSE</ntsc>
						</rate>
						<start>102150</start>
						<end>102300</end>
						<in>70050</in>
						<out>70200</out>
						<pproTicksIn>0</pproTicksIn>
						<pproTicksOut>875013995520000</pproTicksOut>
						<alphatype>none</alphatype>
						<pixelaspectratio>square</pixelaspectratio>
						<anamorphic>FALSE</anamorphic>
						<file id="file-31">
							<name>Taylor_Swift_Travis_Kelce_-_The_New_Power_Couple.mp4</name>
							<pathurl>file://localhost/Users/themalikano/Documents/VideoAutomation/premiere_videos/Taylor_Swift_Travis_Kelce_-_The_New_Power_Couple.mp4</pathurl>
							<rate>
								<timebase>25</timebase>
								<ntsc>FALSE</ntsc>
							</rate>
							<duration>86118</duration>
							<timecode>
								<rate>
									<timebase>25</timebase>
									<ntsc>FALSE</ntsc>
								</rate>
								<string>00:00:00:00</string>
								<frame>0</frame>
								<displayformat>NDF</displayformat>
							</timecode>
							<media>
								<video>
									<samplecharacteristics>
										<rate>
											<timebase>25</timebase>
											<ntsc>FALSE</ntsc>
										</rate>
										<width>1920</width>
										<height>1080</height>
										<anamorphic>FALSE</anamorphic>
										<pixelaspectratio>square</pixelaspectratio>
										<fielddominance>none</fielddominance>
									</samplecharacteristics>
								</video>
								<audio>
									<samplecharacteristics>
										<depth>16</depth>
										<samplerate>44100</samplerate>
									</samplecharacteristics>
									<channelcount>2</channelcount>
								</audio>
							</media>
						</file>
						<link>
							<linkclipref>clipitem-87</linkclipref>
							<mediatype>video</mediatype>
							<trackindex>1</trackindex>
							<clipindex>3</clipindex>
						</link>
						<link>
							<linkclipref>clipitem-95</linkclipref>
							<mediatype>audio</mediatype>
							<trackindex>1</trackindex>
							<clipindex>3</clipindex>
							<groupindex>1</groupindex>
						</link>
						<link>
							<linkclipref>clipitem-103</linkclipref>
							<mediatype>audio</mediatype>
							<trackindex>2</trackindex>
							<clipindex>3</clipindex>
							<groupindex>1</groupindex>
						</link>
						<logginginfo>
							<description />
							<scene />
							<shottake />
							<lognote />
							<good />
							<originalvideofilename />
							<originalaudiofilename />
						</logginginfo>
						<colorinfo>
							<lut />
							<lut1 />
							<asc_sop />
							<asc_sat />
							<lut2 />
						</colorinfo>
					<labels><label2>Caribbean</label2></labels></clipitem>
					<clipitem id="clipitem-88">
						<masterclipid>clipitem-4-22</masterclipid>
						<name>Travis_Kelce_ANNOUNCE_WEDDING_DATE_with_Taylor_Swift_Why_He_was_Delaying_all_Along.mp4</name>
						<enabled>TRUE</enabled>
						<duration>150</duration>
						<rate>
							<timebase>25</timebase>
							<ntsc>FALSE</ntsc>
						</rate>
						<start>102300</start>
						<end>102450</end>
						<in>3150</in>
						<out>3300</out>
						<pproTicksIn>0</pproTicksIn>
						<pproTicksOut>419410897920000</pproTicksOut>
						<alphatype>none</alphatype>
						<pixelaspectratio>square</pixelaspectratio>
						<anamorphic>FALSE</anamorphic>
						<file id="file-32">
							<name>Travis_Kelce_ANNOUNCE_WEDDING_DATE_with_Taylor_Swift_Why_He_was_Delaying_all_Along.mp4</name>
							<pathurl>file://localhost/Users/themalikano/Documents/VideoAutomation/premiere_videos/Travis_Kelce_ANNOUNCE_WEDDING_DATE_with_Taylor_Swift_Why_He_was_Delaying_all_Along.mp4</pathurl>
							<rate>
								<timebase>24</timebase>
								<ntsc>FALSE</ntsc>
							</rate>
							<duration>39627</duration>
							<timecode>
								<rate>
									<timebase>24</timebase>
									<ntsc>FALSE</ntsc>
								</rate>
								<string>00:00:00:00</string>
								<frame>0</frame>
								<displayformat>NDF</displayformat>
							</timecode>
							<media>
								<video>
									<samplecharacteristics>
										<rate>
											<timebase>24</timebase>
											<ntsc>FALSE</ntsc>
										</rate>
										<width>852</width>
										<height>480</height>
										<anamorphic>FALSE</anamorphic>
										<pixelaspectratio>square</pixelaspectratio>
										<fielddominance>none</fielddominance>
									</samplecharacteristics>
								</video>
								<audio>
									<samplecharacteristics>
										<depth>16</depth>
										<samplerate>44100</samplerate>
									</samplecharacteristics>
									<channelcount>2</channelcount>
								</audio>
							</media>
						</file>
						<filter>
							<effect>
								<name>Basic Motion</name>
								<effectid>basic</effectid>
								<effectcategory>motion</effectcategory>
								<effecttype>motion</effecttype>
								<mediatype>video</mediatype>
								<pproBypass>false</pproBypass>
								<parameter authoringApp="PremierePro">
									<parameterid>scale</parameterid>
									<name>Scale</name>
									<valuemin>0</valuemin>
									<valuemax>1000</valuemax>
									<value>225</value>
								</parameter>
								<parameter authoringApp="PremierePro">
									<parameterid>rotation</parameterid>
									<name>Rotation</name>
									<valuemin>-8640</valuemin>
									<valuemax>8640</valuemax>
									<value>0</value>
								</parameter>
								<parameter authoringApp="PremierePro">
									<parameterid>center</parameterid>
									<name>Center</name>
									<value>
										<horiz>0</horiz>
										<vert>0</vert>
									</value>
								</parameter>
								<parameter authoringApp="PremierePro">
									<parameterid>centerOffset</parameterid>
									<name>Anchor Point</name>
									<value>
										<horiz>0</horiz>
										<vert>0</vert>
									</value>
								</parameter>
								<parameter authoringApp="PremierePro">
									<parameterid>antiflicker</parameterid>
									<name>Anti-flicker Filter</name>
									<valuemin>0.0</valuemin>
									<valuemax>1.0</valuemax>
									<value>0</value>
								</parameter>
							</effect>
						</filter>
						<link>
							<linkclipref>clipitem-88</linkclipref>
							<mediatype>video</mediatype>
							<trackindex>1</trackindex>
							<clipindex>4</clipindex>
						</link>
						<link>
							<linkclipref>clipitem-96</linkclipref>
							<mediatype>audio</mediatype>
							<trackindex>1</trackindex>
							<clipindex>4</clipindex>
							<groupindex>1</groupindex>
						</link>
						<link>
							<linkclipref>clipitem-104</linkclipref>
							<mediatype>audio</mediatype>
							<trackindex>2</trackindex>
							<clipindex>4</clipindex>
							<groupindex>1</groupindex>
						</link>
						<logginginfo>
							<description />
							<scene />
							<shottake />
							<lognote />
							<good />
							<originalvideofilename />
							<originalaudiofilename />
						</logginginfo>
						<colorinfo>
							<lut />
							<lut1 />
							<asc_sop />
							<asc_sat />
							<lut2 />
						</colorinfo>
					<labels><label2>Lavender</label2></labels></clipitem>
					<clipitem id="clipitem-87">
						<masterclipid>clipitem-3-330</masterclipid>
						<name>Taylor_Swift_Travis_Kelce_-_The_New_Power_Couple.mp4</name>
						<enabled>TRUE</enabled>
						<duration>150</duration>
						<rate>
							<timebase>25</timebase>
							<ntsc>FALSE</ntsc>
						</rate>
						<start>102450</start>
						<end>102600</end>
						<in>49350</in>
						<out>49500</out>
						<pproTicksIn>0</pproTicksIn>
						<pproTicksOut>875013995520000</pproTicksOut>
						<alphatype>none</alphatype>
						<pixelaspectratio>square</pixelaspectratio>
						<anamorphic>FALSE</anamorphic>
						<file id="file-31">
							<name>Taylor_Swift_Travis_Kelce_-_The_New_Power_Couple.mp4</name>
							<pathurl>file://localhost/Users/themalikano/Documents/VideoAutomation/premiere_videos/Taylor_Swift_Travis_Kelce_-_The_New_Power_Couple.mp4</pathurl>
							<rate>
								<timebase>25</timebase>
								<ntsc>FALSE</ntsc>
							</rate>
							<duration>86118</duration>
							<timecode>
								<rate>
									<timebase>25</timebase>
									<ntsc>FALSE</ntsc>
								</rate>
								<string>00:00:00:00</string>
								<frame>0</frame>
								<displayformat>NDF</displayformat>
							</timecode>
							<media>
								<video>
									<samplecharacteristics>
										<rate>
											<timebase>25</timebase>
											<ntsc>FALSE</ntsc>
										</rate>
										<width>1920</width>
										<height>1080</height>
										<anamorphic>FALSE</anamorphic>
										<pixelaspectratio>square</pixelaspectratio>
										<fielddominance>none</fielddominance>
									</samplecharacteristics>
								</video>
								<audio>
									<samplecharacteristics>
										<depth>16</depth>
										<samplerate>44100</samplerate>
									</samplecharacteristics>
									<channelcount>2</channelcount>
								</audio>
							</media>
						</file>
						<link>
							<linkclipref>clipitem-87</linkclipref>
							<mediatype>video</mediatype>
							<trackindex>1</trackindex>
							<clipindex>3</clipindex>
						</link>
						<link>
							<linkclipref>clipitem-95</linkclipref>
							<mediatype>audio</mediatype>
							<trackindex>1</trackindex>
							<clipindex>3</clipindex>
							<groupindex>1</groupindex>
						</link>
						<link>
							<linkclipref>clipitem-103</linkclipref>
							<mediatype>audio</mediatype>
							<trackindex>2</trackindex>
							<clipindex>3</clipindex>
							<groupindex>1</groupindex>
						</link>
						<logginginfo>
							<description />
							<scene />
							<shottake />
							<lognote />
							<good />
							<originalvideofilename />
							<originalaudiofilename />
						</logginginfo>
						<colorinfo>
							<lut />
							<lut1 />
							<asc_sop />
							<asc_sat />
							<lut2 />
						</colorinfo>
					<labels><label2>Caribbean</label2></labels></clipitem>
					<clipitem id="clipitem-88">
						<masterclipid>clipitem-4-192</masterclipid>
						<name>Travis_Kelce_ANNOUNCE_WEDDING_DATE_with_Taylor_Swift_Why_He_was_Delaying_all_Along.mp4</name>
						<enabled>TRUE</enabled>
						<duration>150</duration>
						<rate>
							<timebase>25</timebase>
							<ntsc>FALSE</ntsc>
						</rate>
						<start>102600</start>
						<end>102750</end>
						<in>28650</in>
						<out>28800</out>
						<pproTicksIn>0</pproTicksIn>
						<pproTicksOut>419410897920000</pproTicksOut>
						<alphatype>none</alphatype>
						<pixelaspectratio>square</pixelaspectratio>
						<anamorphic>FALSE</anamorphic>
						<file id="file-32">
							<name>Travis_Kelce_ANNOUNCE_WEDDING_DATE_with_Taylor_Swift_Why_He_was_Delaying_all_Along.mp4</name>
							<pathurl>file://localhost/Users/themalikano/Documents/VideoAutomation/premiere_videos/Travis_Kelce_ANNOUNCE_WEDDING_DATE_with_Taylor_Swift_Why_He_was_Delaying_all_Along.mp4</pathurl>
							<rate>
								<timebase>24</timebase>
								<ntsc>FALSE</ntsc>
							</rate>
							<duration>39627</duration>
							<timecode>
								<rate>
									<timebase>24</timebase>
									<ntsc>FALSE</ntsc>
								</rate>
								<string>00:00:00:00</string>
								<frame>0</frame>
								<displayformat>NDF</displayformat>
							</timecode>
							<media>
								<video>
									<samplecharacteristics>
										<rate>
											<timebase>24</timebase>
											<ntsc>FALSE</ntsc>
										</rate>
										<width>852</width>
										<height>480</height>
										<anamorphic>FALSE</anamorphic>
										<pixelaspectratio>square</pixelaspectratio>
										<fielddominance>none</fielddominance>
									</samplecharacteristics>
								</video>
								<audio>
									<samplecharacteristics>
										<depth>16</depth>
										<samplerate>44100</samplerate>
									</samplecharacteristics>
									<channelcount>2</channelcount>
								</audio>
							</media>
						</file>
						<filter>
							<effect>
								<name>Basic Motion</name>
								<effectid>basic</effectid>
								<effectcategory>motion</effectcategory>
								<effecttype>motion</effecttype>
								<mediatype>video</mediatype>
								<pproBypass>false</pproBypass>
								<parameter authoringApp="PremierePro">
									<parameterid>scale</parameterid>
									<name>Scale</name>
									<valuemin>0</valuemin>
									<valuemax>1000</valuemax>
									<value>225</value>
								</parameter>
								<parameter authoringApp="PremierePro">
									<parameterid>rotation</parameterid>
									<name>Rotation</name>
									<valuemin>-8640</valuemin>
									<valuemax>8640</valuemax>
									<value>0</value>
								</parameter>
								<parameter authoringApp="PremierePro">
									<parameterid>center</parameterid>
									<name>Center</name>
									<value>
										<horiz>0</horiz>
										<vert>0</vert>
									</value>
								</parameter>
								<parameter authoringApp="PremierePro">
									<parameterid>centerOffset</parameterid>
									<name>Anchor Point</name>
									<value>
										<horiz>0</horiz>
										<vert>0</vert>
									</value>
								</parameter>
								<parameter authoringApp="PremierePro">
									<parameterid>antiflicker</parameterid>
									<name>Anti-flicker Filter</name>
									<valuemin>0.0</valuemin>
									<valuemax>1.0</valuemax>
									<value>0</value>
								</parameter>
							</effect>
						</filter>
						<link>
							<linkclipref>clipitem-88</linkclipref>
							<mediatype>video</mediatype>
							<trackindex>1</trackindex>
							<clipindex>4</clipindex>
						</link>
						<link>
							<linkclipref>clipitem-96</linkclipref>
							<mediatype>audio</mediatype>
							<trackindex>1</trackindex>
							<clipindex>4</clipindex>
							<groupindex>1</groupindex>
						</link>
						<link>
							<linkclipref>clipitem-104</linkclipref>
							<mediatype>audio</mediatype>
							<trackindex>2</trackindex>
							<clipindex>4</clipindex>
							<groupindex>1</groupindex>
						</link>
						<logginginfo>
							<description />
							<scene />
							<shottake />
							<lognote />
							<good />
							<originalvideofilename />
							<originalaudiofilename />
						</logginginfo>
						<colorinfo>
							<lut />
							<lut1 />
							<asc_sop />
							<asc_sat />
							<lut2 />
						</colorinfo>
					<labels><label2>Lavender</label2></labels></clipitem>
					<clipitem id="clipitem-87">
						<masterclipid>clipitem-3-562</masterclipid>
						<name>Taylor_Swift_Travis_Kelce_-_The_New_Power_Couple.mp4</name>
						<enabled>TRUE</enabled>
						<duration>150</duration>
						<rate>
							<timebase>25</timebase>
							<ntsc>FALSE</ntsc>
						</rate>
						<start>102750</start>
						<end>102900</end>
						<in>84150</in>
						<out>84300</out>
						<pproTicksIn>0</pproTicksIn>
						<pproTicksOut>875013995520000</pproTicksOut>
						<alphatype>none</alphatype>
						<pixelaspectratio>square</pixelaspectratio>
						<anamorphic>FALSE</anamorphic>
						<file id="file-31">
							<name>Taylor_Swift_Travis_Kelce_-_The_New_Power_Couple.mp4</name>
							<pathurl>file://localhost/Users/themalikano/Documents/VideoAutomation/premiere_videos/Taylor_Swift_Travis_Kelce_-_The_New_Power_Couple.mp4</pathurl>
							<rate>
								<timebase>25</timebase>
								<ntsc>FALSE</ntsc>
							</rate>
							<duration>86118</duration>
							<timecode>
								<rate>
									<timebase>25</timebase>
									<ntsc>FALSE</ntsc>
								</rate>
								<string>00:00:00:00</string>
								<frame>0</frame>
								<displayformat>NDF</displayformat>
							</timecode>
							<media>
								<video>
									<samplecharacteristics>
										<rate>
											<timebase>25</timebase>
											<ntsc>FALSE</ntsc>
										</rate>
										<width>1920</width>
										<height>1080</height>
										<anamorphic>FALSE</anamorphic>
										<pixelaspectratio>square</pixelaspectratio>
										<fielddominance>none</fielddominance>
									</samplecharacteristics>
								</video>
								<audio>
									<samplecharacteristics>
										<depth>16</depth>
										<samplerate>44100</samplerate>
									</samplecharacteristics>
									<channelcount>2</channelcount>
								</audio>
							</media>
						</file>
						<link>
							<linkclipref>clipitem-87</linkclipref>
							<mediatype>video</mediatype>
							<trackindex>1</trackindex>
							<clipindex>3</clipindex>
						</link>
						<link>
							<linkclipref>clipitem-95</linkclipref>
							<mediatype>audio</mediatype>
							<trackindex>1</trackindex>
							<clipindex>3</clipindex>
							<groupindex>1</groupindex>
						</link>
						<link>
							<linkclipref>clipitem-103</linkclipref>
							<mediatype>audio</mediatype>
							<trackindex>2</trackindex>
							<clipindex>3</clipindex>
							<groupindex>1</groupindex>
						</link>
						<logginginfo>
							<description />
							<scene />
							<shottake />
							<lognote />
							<good />
							<originalvideofilename />
							<originalaudiofilename />
						</logginginfo>
						<colorinfo>
							<lut />
							<lut1 />
							<asc_sop />
							<asc_sat />
							<lut2 />
						</colorinfo>
					<labels><label2>Caribbean</label2></labels></clipitem>
					<clipitem id="clipitem-88">
						<masterclipid>clipitem-4-198</masterclipid>
						<name>Travis_Kelce_ANNOUNCE_WEDDING_DATE_with_Taylor_Swift_Why_He_was_Delaying_all_Along.mp4</name>
						<enabled>TRUE</enabled>
						<duration>150</duration>
						<rate>
							<timebase>25</timebase>
							<ntsc>FALSE</ntsc>
						</rate>
						<start>102900</start>
						<end>103050</end>
						<in>29550</in>
						<out>29700</out>
						<pproTicksIn>0</pproTicksIn>
						<pproTicksOut>419410897920000</pproTicksOut>
						<alphatype>none</alphatype>
						<pixelaspectratio>square</pixelaspectratio>
						<anamorphic>FALSE</anamorphic>
						<file id="file-32">
							<name>Travis_Kelce_ANNOUNCE_WEDDING_DATE_with_Taylor_Swift_Why_He_was_Delaying_all_Along.mp4</name>
							<pathurl>file://localhost/Users/themalikano/Documents/VideoAutomation/premiere_videos/Travis_Kelce_ANNOUNCE_WEDDING_DATE_with_Taylor_Swift_Why_He_was_Delaying_all_Along.mp4</pathurl>
							<rate>
								<timebase>24</timebase>
								<ntsc>FALSE</ntsc>
							</rate>
							<duration>39627</duration>
							<timecode>
								<rate>
									<timebase>24</timebase>
									<ntsc>FALSE</ntsc>
								</rate>
								<string>00:00:00:00</string>
								<frame>0</frame>
								<displayformat>NDF</displayformat>
							</timecode>
							<media>
								<video>
									<samplecharacteristics>
										<rate>
											<timebase>24</timebase>
											<ntsc>FALSE</ntsc>
										</rate>
										<width>852</width>
										<height>480</height>
										<anamorphic>FALSE</anamorphic>
										<pixelaspectratio>square</pixelaspectratio>
										<fielddominance>none</fielddominance>
									</samplecharacteristics>
								</video>
								<audio>
									<samplecharacteristics>
										<depth>16</depth>
										<samplerate>44100</samplerate>
									</samplecharacteristics>
									<channelcount>2</channelcount>
								</audio>
							</media>
						</file>
						<filter>
							<effect>
								<name>Basic Motion</name>
								<effectid>basic</effectid>
								<effectcategory>motion</effectcategory>
								<effecttype>motion</effecttype>
								<mediatype>video</mediatype>
								<pproBypass>false</pproBypass>
								<parameter authoringApp="PremierePro">
									<parameterid>scale</parameterid>
									<name>Scale</name>
									<valuemin>0</valuemin>
									<valuemax>1000</valuemax>
									<value>225</value>
								</parameter>
								<parameter authoringApp="PremierePro">
									<parameterid>rotation</parameterid>
									<name>Rotation</name>
									<valuemin>-8640</valuemin>
									<valuemax>8640</valuemax>
									<value>0</value>
								</parameter>
								<parameter authoringApp="PremierePro">
									<parameterid>center</parameterid>
									<name>Center</name>
									<value>
										<horiz>0</horiz>
										<vert>0</vert>
									</value>
								</parameter>
								<parameter authoringApp="PremierePro">
									<parameterid>centerOffset</parameterid>
									<name>Anchor Point</name>
									<value>
										<horiz>0</horiz>
										<vert>0</vert>
									</value>
								</parameter>
								<parameter authoringApp="PremierePro">
									<parameterid>antiflicker</parameterid>
									<name>Anti-flicker Filter</name>
									<valuemin>0.0</valuemin>
									<valuemax>1.0</valuemax>
									<value>0</value>
								</parameter>
							</effect>
						</filter>
						<link>
							<linkclipref>clipitem-88</linkclipref>
							<mediatype>video</mediatype>
							<trackindex>1</trackindex>
							<clipindex>4</clipindex>
						</link>
						<link>
							<linkclipref>clipitem-96</linkclipref>
							<mediatype>audio</mediatype>
							<trackindex>1</trackindex>
							<clipindex>4</clipindex>
							<groupindex>1</groupindex>
						</link>
						<link>
							<linkclipref>clipitem-104</linkclipref>
							<mediatype>audio</mediatype>
							<trackindex>2</trackindex>
							<clipindex>4</clipindex>
							<groupindex>1</groupindex>
						</link>
						<logginginfo>
							<description />
							<scene />
							<shottake />
							<lognote />
							<good />
							<originalvideofilename />
							<originalaudiofilename />
						</logginginfo>
						<colorinfo>
							<lut />
							<lut1 />
							<asc_sop />
							<asc_sat />
							<lut2 />
						</colorinfo>
					<labels><label2>Lavender</label2></labels></clipitem>
					<clipitem id="clipitem-87">
						<masterclipid>clipitem-3-355</masterclipid>
						<name>Taylor_Swift_Travis_Kelce_-_The_New_Power_Couple.mp4</name>
						<enabled>TRUE</enabled>
						<duration>150</duration>
						<rate>
							<timebase>25</timebase>
							<ntsc>FALSE</ntsc>
						</rate>
						<start>103050</start>
						<end>103200</end>
						<in>53100</in>
						<out>53250</out>
						<pproTicksIn>0</pproTicksIn>
						<pproTicksOut>875013995520000</pproTicksOut>
						<alphatype>none</alphatype>
						<pixelaspectratio>square</pixelaspectratio>
						<anamorphic>FALSE</anamorphic>
						<file id="file-31">
							<name>Taylor_Swift_Travis_Kelce_-_The_New_Power_Couple.mp4</name>
							<pathurl>file://localhost/Users/themalikano/Documents/VideoAutomation/premiere_videos/Taylor_Swift_Travis_Kelce_-_The_New_Power_Couple.mp4</pathurl>
							<rate>
								<timebase>25</timebase>
								<ntsc>FALSE</ntsc>
							</rate>
							<duration>86118</duration>
							<timecode>
								<rate>
									<timebase>25</timebase>
									<ntsc>FALSE</ntsc>
								</rate>
								<string>00:00:00:00</string>
								<frame>0</frame>
								<displayformat>NDF</displayformat>
							</timecode>
							<media>
								<video>
									<samplecharacteristics>
										<rate>
											<timebase>25</timebase>
											<ntsc>FALSE</ntsc>
										</rate>
										<width>1920</width>
										<height>1080</height>
										<anamorphic>FALSE</anamorphic>
										<pixelaspectratio>square</pixelaspectratio>
										<fielddominance>none</fielddominance>
									</samplecharacteristics>
								</video>
								<audio>
									<samplecharacteristics>
										<depth>16</depth>
										<samplerate>44100</samplerate>
									</samplecharacteristics>
									<channelcount>2</channelcount>
								</audio>
							</media>
						</file>
						<link>
							<linkclipref>clipitem-87</linkclipref>
							<mediatype>video</mediatype>
							<trackindex>1</trackindex>
							<clipindex>3</clipindex>
						</link>
						<link>
							<linkclipref>clipitem-95</linkclipref>
							<mediatype>audio</mediatype>
							<trackindex>1</trackindex>
							<clipindex>3</clipindex>
							<groupindex>1</groupindex>
						</link>
						<link>
							<linkclipref>clipitem-103</linkclipref>
							<mediatype>audio</mediatype>
							<trackindex>2</trackindex>
							<clipindex>3</clipindex>
							<groupindex>1</groupindex>
						</link>
						<logginginfo>
							<description />
							<scene />
							<shottake />
							<lognote />
							<good />
							<originalvideofilename />
							<originalaudiofilename />
						</logginginfo>
						<colorinfo>
							<lut />
							<lut1 />
							<asc_sop />
							<asc_sat />
							<lut2 />
						</colorinfo>
					<labels><label2>Caribbean</label2></labels></clipitem>
					<clipitem id="clipitem-88">
						<masterclipid>clipitem-4-253</masterclipid>
						<name>Travis_Kelce_ANNOUNCE_WEDDING_DATE_with_Taylor_Swift_Why_He_was_Delaying_all_Along.mp4</name>
						<enabled>TRUE</enabled>
						<duration>150</duration>
						<rate>
							<timebase>25</timebase>
							<ntsc>FALSE</ntsc>
						</rate>
						<start>103200</start>
						<end>103350</end>
						<in>37800</in>
						<out>37950</out>
						<pproTicksIn>0</pproTicksIn>
						<pproTicksOut>419410897920000</pproTicksOut>
						<alphatype>none</alphatype>
						<pixelaspectratio>square</pixelaspectratio>
						<anamorphic>FALSE</anamorphic>
						<file id="file-32">
							<name>Travis_Kelce_ANNOUNCE_WEDDING_DATE_with_Taylor_Swift_Why_He_was_Delaying_all_Along.mp4</name>
							<pathurl>file://localhost/Users/themalikano/Documents/VideoAutomation/premiere_videos/Travis_Kelce_ANNOUNCE_WEDDING_DATE_with_Taylor_Swift_Why_He_was_Delaying_all_Along.mp4</pathurl>
							<rate>
								<timebase>24</timebase>
								<ntsc>FALSE</ntsc>
							</rate>
							<duration>39627</duration>
							<timecode>
								<rate>
									<timebase>24</timebase>
									<ntsc>FALSE</ntsc>
								</rate>
								<string>00:00:00:00</string>
								<frame>0</frame>
								<displayformat>NDF</displayformat>
							</timecode>
							<media>
								<video>
									<samplecharacteristics>
										<rate>
											<timebase>24</timebase>
											<ntsc>FALSE</ntsc>
										</rate>
										<width>852</width>
										<height>480</height>
										<anamorphic>FALSE</anamorphic>
										<pixelaspectratio>square</pixelaspectratio>
										<fielddominance>none</fielddominance>
									</samplecharacteristics>
								</video>
								<audio>
									<samplecharacteristics>
										<depth>16</depth>
										<samplerate>44100</samplerate>
									</samplecharacteristics>
									<channelcount>2</channelcount>
								</audio>
							</media>
						</file>
						<filter>
							<effect>
								<name>Basic Motion</name>
								<effectid>basic</effectid>
								<effectcategory>motion</effectcategory>
								<effecttype>motion</effecttype>
								<mediatype>video</mediatype>
								<pproBypass>false</pproBypass>
								<parameter authoringApp="PremierePro">
									<parameterid>scale</parameterid>
									<name>Scale</name>
									<valuemin>0</valuemin>
									<valuemax>1000</valuemax>
									<value>225</value>
								</parameter>
								<parameter authoringApp="PremierePro">
									<parameterid>rotation</parameterid>
									<name>Rotation</name>
									<valuemin>-8640</valuemin>
									<valuemax>8640</valuemax>
									<value>0</value>
								</parameter>
								<parameter authoringApp="PremierePro">
									<parameterid>center</parameterid>
									<name>Center</name>
									<value>
										<horiz>0</horiz>
										<vert>0</vert>
									</value>
								</parameter>
								<parameter authoringApp="PremierePro">
									<parameterid>centerOffset</parameterid>
									<name>Anchor Point</name>
									<value>
										<horiz>0</horiz>
										<vert>0</vert>
									</value>
								</parameter>
								<parameter authoringApp="PremierePro">
									<parameterid>antiflicker</parameterid>
									<name>Anti-flicker Filter</name>
									<valuemin>0.0</valuemin>
									<valuemax>1.0</valuemax>
									<value>0</value>
								</parameter>
							</effect>
						</filter>
						<link>
							<linkclipref>clipitem-88</linkclipref>
							<mediatype>video</mediatype>
							<trackindex>1</trackindex>
							<clipindex>4</clipindex>
						</link>
						<link>
							<linkclipref>clipitem-96</linkclipref>
							<mediatype>audio</mediatype>
							<trackindex>1</trackindex>
							<clipindex>4</clipindex>
							<groupindex>1</groupindex>
						</link>
						<link>
							<linkclipref>clipitem-104</linkclipref>
							<mediatype>audio</mediatype>
							<trackindex>2</trackindex>
							<clipindex>4</clipindex>
							<groupindex>1</groupindex>
						</link>
						<logginginfo>
							<description />
							<scene />
							<shottake />
							<lognote />
							<good />
							<originalvideofilename />
							<originalaudiofilename />
						</logginginfo>
						<colorinfo>
							<lut />
							<lut1 />
							<asc_sop />
							<asc_sat />
							<lut2 />
						</colorinfo>
					<labels><label2>Lavender</label2></labels></clipitem>
					<clipitem id="clipitem-87">
						<masterclipid>clipitem-3-272</masterclipid>
						<name>Taylor_Swift_Travis_Kelce_-_The_New_Power_Couple.mp4</name>
						<enabled>TRUE</enabled>
						<duration>150</duration>
						<rate>
							<timebase>25</timebase>
							<ntsc>FALSE</ntsc>
						</rate>
						<start>103350</start>
						<end>103500</end>
						<in>40650</in>
						<out>40800</out>
						<pproTicksIn>0</pproTicksIn>
						<pproTicksOut>875013995520000</pproTicksOut>
						<alphatype>none</alphatype>
						<pixelaspectratio>square</pixelaspectratio>
						<anamorphic>FALSE</anamorphic>
						<file id="file-31">
							<name>Taylor_Swift_Travis_Kelce_-_The_New_Power_Couple.mp4</name>
							<pathurl>file://localhost/Users/themalikano/Documents/VideoAutomation/premiere_videos/Taylor_Swift_Travis_Kelce_-_The_New_Power_Couple.mp4</pathurl>
							<rate>
								<timebase>25</timebase>
								<ntsc>FALSE</ntsc>
							</rate>
							<duration>86118</duration>
							<timecode>
								<rate>
									<timebase>25</timebase>
									<ntsc>FALSE</ntsc>
								</rate>
								<string>00:00:00:00</string>
								<frame>0</frame>
								<displayformat>NDF</displayformat>
							</timecode>
							<media>
								<video>
									<samplecharacteristics>
										<rate>
											<timebase>25</timebase>
											<ntsc>FALSE</ntsc>
										</rate>
										<width>1920</width>
										<height>1080</height>
										<anamorphic>FALSE</anamorphic>
										<pixelaspectratio>square</pixelaspectratio>
										<fielddominance>none</fielddominance>
									</samplecharacteristics>
								</video>
								<audio>
									<samplecharacteristics>
										<depth>16</depth>
										<samplerate>44100</samplerate>
									</samplecharacteristics>
									<channelcount>2</channelcount>
								</audio>
							</media>
						</file>
						<link>
							<linkclipref>clipitem-87</linkclipref>
							<mediatype>video</mediatype>
							<trackindex>1</trackindex>
							<clipindex>3</clipindex>
						</link>
						<link>
							<linkclipref>clipitem-95</linkclipref>
							<mediatype>audio</mediatype>
							<trackindex>1</trackindex>
							<clipindex>3</clipindex>
							<groupindex>1</groupindex>
						</link>
						<link>
							<linkclipref>clipitem-103</linkclipref>
							<mediatype>audio</mediatype>
							<trackindex>2</trackindex>
							<clipindex>3</clipindex>
							<groupindex>1</groupindex>
						</link>
						<logginginfo>
							<description />
							<scene />
							<shottake />
							<lognote />
							<good />
							<originalvideofilename />
							<originalaudiofilename />
						</logginginfo>
						<colorinfo>
							<lut />
							<lut1 />
							<asc_sop />
							<asc_sat />
							<lut2 />
						</colorinfo>
					<labels><label2>Caribbean</label2></labels></clipitem>
					<clipitem id="clipitem-88">
						<masterclipid>clipitem-4-152</masterclipid>
						<name>Travis_Kelce_ANNOUNCE_WEDDING_DATE_with_Taylor_Swift_Why_He_was_Delaying_all_Along.mp4</name>
						<enabled>TRUE</enabled>
						<duration>150</duration>
						<rate>
							<timebase>25</timebase>
							<ntsc>FALSE</ntsc>
						</rate>
						<start>103500</start>
						<end>103650</end>
						<in>22650</in>
						<out>22800</out>
						<pproTicksIn>0</pproTicksIn>
						<pproTicksOut>419410897920000</pproTicksOut>
						<alphatype>none</alphatype>
						<pixelaspectratio>square</pixelaspectratio>
						<anamorphic>FALSE</anamorphic>
						<file id="file-32">
							<name>Travis_Kelce_ANNOUNCE_WEDDING_DATE_with_Taylor_Swift_Why_He_was_Delaying_all_Along.mp4</name>
							<pathurl>file://localhost/Users/themalikano/Documents/VideoAutomation/premiere_videos/Travis_Kelce_ANNOUNCE_WEDDING_DATE_with_Taylor_Swift_Why_He_was_Delaying_all_Along.mp4</pathurl>
							<rate>
								<timebase>24</timebase>
								<ntsc>FALSE</ntsc>
							</rate>
							<duration>39627</duration>
							<timecode>
								<rate>
									<timebase>24</timebase>
									<ntsc>FALSE</ntsc>
								</rate>
								<string>00:00:00:00</string>
								<frame>0</frame>
								<displayformat>NDF</displayformat>
							</timecode>
							<media>
								<video>
									<samplecharacteristics>
										<rate>
											<timebase>24</timebase>
											<ntsc>FALSE</ntsc>
										</rate>
										<width>852</width>
										<height>480</height>
										<anamorphic>FALSE</anamorphic>
										<pixelaspectratio>square</pixelaspectratio>
										<fielddominance>none</fielddominance>
									</samplecharacteristics>
								</video>
								<audio>
									<samplecharacteristics>
										<depth>16</depth>
										<samplerate>44100</samplerate>
									</samplecharacteristics>
									<channelcount>2</channelcount>
								</audio>
							</media>
						</file>
						<filter>
							<effect>
								<name>Basic Motion</name>
								<effectid>basic</effectid>
								<effectcategory>motion</effectcategory>
								<effecttype>motion</effecttype>
								<mediatype>video</mediatype>
								<pproBypass>false</pproBypass>
								<parameter authoringApp="PremierePro">
									<parameterid>scale</parameterid>
									<name>Scale</name>
									<valuemin>0</valuemin>
									<valuemax>1000</valuemax>
									<value>225</value>
								</parameter>
								<parameter authoringApp="PremierePro">
									<parameterid>rotation</parameterid>
									<name>Rotation</name>
									<valuemin>-8640</valuemin>
									<valuemax>8640</valuemax>
									<value>0</value>
								</parameter>
								<parameter authoringApp="PremierePro">
									<parameterid>center</parameterid>
									<name>Center</name>
									<value>
										<horiz>0</horiz>
										<vert>0</vert>
									</value>
								</parameter>
								<parameter authoringApp="PremierePro">
									<parameterid>centerOffset</parameterid>
									<name>Anchor Point</name>
									<value>
										<horiz>0</horiz>
										<vert>0</vert>
									</value>
								</parameter>
								<parameter authoringApp="PremierePro">
									<parameterid>antiflicker</parameterid>
									<name>Anti-flicker Filter</name>
									<valuemin>0.0</valuemin>
									<valuemax>1.0</valuemax>
									<value>0</value>
								</parameter>
							</effect>
						</filter>
						<link>
							<linkclipref>clipitem-88</linkclipref>
							<mediatype>video</mediatype>
							<trackindex>1</trackindex>
							<clipindex>4</clipindex>
						</link>
						<link>
							<linkclipref>clipitem-96</linkclipref>
							<mediatype>audio</mediatype>
							<trackindex>1</trackindex>
							<clipindex>4</clipindex>
							<groupindex>1</groupindex>
						</link>
						<link>
							<linkclipref>clipitem-104</linkclipref>
							<mediatype>audio</mediatype>
							<trackindex>2</trackindex>
							<clipindex>4</clipindex>
							<groupindex>1</groupindex>
						</link>
						<logginginfo>
							<description />
							<scene />
							<shottake />
							<lognote />
							<good />
							<originalvideofilename />
							<originalaudiofilename />
						</logginginfo>
						<colorinfo>
							<lut />
							<lut1 />
							<asc_sop />
							<asc_sat />
							<lut2 />
						</colorinfo>
					<labels><label2>Lavender</label2></labels></clipitem>
					<clipitem id="clipitem-87">
						<masterclipid>clipitem-3-133</masterclipid>
						<name>Taylor_Swift_Travis_Kelce_-_The_New_Power_Couple.mp4</name>
						<enabled>TRUE</enabled>
						<duration>150</duration>
						<rate>
							<timebase>25</timebase>
							<ntsc>FALSE</ntsc>
						</rate>
						<start>103650</start>
						<end>103800</end>
						<in>19800</in>
						<out>19950</out>
						<pproTicksIn>0</pproTicksIn>
						<pproTicksOut>875013995520000</pproTicksOut>
						<alphatype>none</alphatype>
						<pixelaspectratio>square</pixelaspectratio>
						<anamorphic>FALSE</anamorphic>
						<file id="file-31">
							<name>Taylor_Swift_Travis_Kelce_-_The_New_Power_Couple.mp4</name>
							<pathurl>file://localhost/Users/themalikano/Documents/VideoAutomation/premiere_videos/Taylor_Swift_Travis_Kelce_-_The_New_Power_Couple.mp4</pathurl>
							<rate>
								<timebase>25</timebase>
								<ntsc>FALSE</ntsc>
							</rate>
							<duration>86118</duration>
							<timecode>
								<rate>
									<timebase>25</timebase>
									<ntsc>FALSE</ntsc>
								</rate>
								<string>00:00:00:00</string>
								<frame>0</frame>
								<displayformat>NDF</displayformat>
							</timecode>
							<media>
								<video>
									<samplecharacteristics>
										<rate>
											<timebase>25</timebase>
											<ntsc>FALSE</ntsc>
										</rate>
										<width>1920</width>
										<height>1080</height>
										<anamorphic>FALSE</anamorphic>
										<pixelaspectratio>square</pixelaspectratio>
										<fielddominance>none</fielddominance>
									</samplecharacteristics>
								</video>
								<audio>
									<samplecharacteristics>
										<depth>16</depth>
										<samplerate>44100</samplerate>
									</samplecharacteristics>
									<channelcount>2</channelcount>
								</audio>
							</media>
						</file>
						<link>
							<linkclipref>clipitem-87</linkclipref>
							<mediatype>video</mediatype>
							<trackindex>1</trackindex>
							<clipindex>3</clipindex>
						</link>
						<link>
							<linkclipref>clipitem-95</linkclipref>
							<mediatype>audio</mediatype>
							<trackindex>1</trackindex>
							<clipindex>3</clipindex>
							<groupindex>1</groupindex>
						</link>
						<link>
							<linkclipref>clipitem-103</linkclipref>
							<mediatype>audio</mediatype>
							<trackindex>2</trackindex>
							<clipindex>3</clipindex>
							<groupindex>1</groupindex>
						</link>
						<logginginfo>
							<description />
							<scene />
							<shottake />
							<lognote />
							<good />
							<originalvideofilename />
							<originalaudiofilename />
						</logginginfo>
						<colorinfo>
							<lut />
							<lut1 />
							<asc_sop />
							<asc_sat />
							<lut2 />
						</colorinfo>
					<labels><label2>Caribbean</label2></labels></clipitem>
					<clipitem id="clipitem-88">
						<masterclipid>clipitem-4-211</masterclipid>
						<name>Travis_Kelce_ANNOUNCE_WEDDING_DATE_with_Taylor_Swift_Why_He_was_Delaying_all_Along.mp4</name>
						<enabled>TRUE</enabled>
						<duration>150</duration>
						<rate>
							<timebase>25</timebase>
							<ntsc>FALSE</ntsc>
						</rate>
						<start>103800</start>
						<end>103950</end>
						<in>31500</in>
						<out>31650</out>
						<pproTicksIn>0</pproTicksIn>
						<pproTicksOut>419410897920000</pproTicksOut>
						<alphatype>none</alphatype>
						<pixelaspectratio>square</pixelaspectratio>
						<anamorphic>FALSE</anamorphic>
						<file id="file-32">
							<name>Travis_Kelce_ANNOUNCE_WEDDING_DATE_with_Taylor_Swift_Why_He_was_Delaying_all_Along.mp4</name>
							<pathurl>file://localhost/Users/themalikano/Documents/VideoAutomation/premiere_videos/Travis_Kelce_ANNOUNCE_WEDDING_DATE_with_Taylor_Swift_Why_He_was_Delaying_all_Along.mp4</pathurl>
							<rate>
								<timebase>24</timebase>
								<ntsc>FALSE</ntsc>
							</rate>
							<duration>39627</duration>
							<timecode>
								<rate>
									<timebase>24</timebase>
									<ntsc>FALSE</ntsc>
								</rate>
								<string>00:00:00:00</string>
								<frame>0</frame>
								<displayformat>NDF</displayformat>
							</timecode>
							<media>
								<video>
									<samplecharacteristics>
										<rate>
											<timebase>24</timebase>
											<ntsc>FALSE</ntsc>
										</rate>
										<width>852</width>
										<height>480</height>
										<anamorphic>FALSE</anamorphic>
										<pixelaspectratio>square</pixelaspectratio>
										<fielddominance>none</fielddominance>
									</samplecharacteristics>
								</video>
								<audio>
									<samplecharacteristics>
										<depth>16</depth>
										<samplerate>44100</samplerate>
									</samplecharacteristics>
									<channelcount>2</channelcount>
								</audio>
							</media>
						</file>
						<filter>
							<effect>
								<name>Basic Motion</name>
								<effectid>basic</effectid>
								<effectcategory>motion</effectcategory>
								<effecttype>motion</effecttype>
								<mediatype>video</mediatype>
								<pproBypass>false</pproBypass>
								<parameter authoringApp="PremierePro">
									<parameterid>scale</parameterid>
									<name>Scale</name>
									<valuemin>0</valuemin>
									<valuemax>1000</valuemax>
									<value>225</value>
								</parameter>
								<parameter authoringApp="PremierePro">
									<parameterid>rotation</parameterid>
									<name>Rotation</name>
									<valuemin>-8640</valuemin>
									<valuemax>8640</valuemax>
									<value>0</value>
								</parameter>
								<parameter authoringApp="PremierePro">
									<parameterid>center</parameterid>
									<name>Center</name>
									<value>
										<horiz>0</horiz>
										<vert>0</vert>
									</value>
								</parameter>
								<parameter authoringApp="PremierePro">
									<parameterid>centerOffset</parameterid>
									<name>Anchor Point</name>
									<value>
										<horiz>0</horiz>
										<vert>0</vert>
									</value>
								</parameter>
								<parameter authoringApp="PremierePro">
									<parameterid>antiflicker</parameterid>
									<name>Anti-flicker Filter</name>
									<valuemin>0.0</valuemin>
									<valuemax>1.0</valuemax>
									<value>0</value>
								</parameter>
							</effect>
						</filter>
						<link>
							<linkclipref>clipitem-88</linkclipref>
							<mediatype>video</mediatype>
							<trackindex>1</trackindex>
							<clipindex>4</clipindex>
						</link>
						<link>
							<linkclipref>clipitem-96</linkclipref>
							<mediatype>audio</mediatype>
							<trackindex>1</trackindex>
							<clipindex>4</clipindex>
							<groupindex>1</groupindex>
						</link>
						<link>
							<linkclipref>clipitem-104</linkclipref>
							<mediatype>audio</mediatype>
							<trackindex>2</trackindex>
							<clipindex>4</clipindex>
							<groupindex>1</groupindex>
						</link>
						<logginginfo>
							<description />
							<scene />
							<shottake />
							<lognote />
							<good />
							<originalvideofilename />
							<originalaudiofilename />
						</logginginfo>
						<colorinfo>
							<lut />
							<lut1 />
							<asc_sop />
							<asc_sat />
							<lut2 />
						</colorinfo>
					<labels><label2>Lavender</label2></labels></clipitem>
					<clipitem id="clipitem-87">
						<masterclipid>clipitem-3-126</masterclipid>
						<name>Taylor_Swift_Travis_Kelce_-_The_New_Power_Couple.mp4</name>
						<enabled>TRUE</enabled>
						<duration>150</duration>
						<rate>
							<timebase>25</timebase>
							<ntsc>FALSE</ntsc>
						</rate>
						<start>103950</start>
						<end>104100</end>
						<in>18750</in>
						<out>18900</out>
						<pproTicksIn>0</pproTicksIn>
						<pproTicksOut>875013995520000</pproTicksOut>
						<alphatype>none</alphatype>
						<pixelaspectratio>square</pixelaspectratio>
						<anamorphic>FALSE</anamorphic>
						<file id="file-31">
							<name>Taylor_Swift_Travis_Kelce_-_The_New_Power_Couple.mp4</name>
							<pathurl>file://localhost/Users/themalikano/Documents/VideoAutomation/premiere_videos/Taylor_Swift_Travis_Kelce_-_The_New_Power_Couple.mp4</pathurl>
							<rate>
								<timebase>25</timebase>
								<ntsc>FALSE</ntsc>
							</rate>
							<duration>86118</duration>
							<timecode>
								<rate>
									<timebase>25</timebase>
									<ntsc>FALSE</ntsc>
								</rate>
								<string>00:00:00:00</string>
								<frame>0</frame>
								<displayformat>NDF</displayformat>
							</timecode>
							<media>
								<video>
									<samplecharacteristics>
										<rate>
											<timebase>25</timebase>
											<ntsc>FALSE</ntsc>
										</rate>
										<width>1920</width>
										<height>1080</height>
										<anamorphic>FALSE</anamorphic>
										<pixelaspectratio>square</pixelaspectratio>
										<fielddominance>none</fielddominance>
									</samplecharacteristics>
								</video>
								<audio>
									<samplecharacteristics>
										<depth>16</depth>
										<samplerate>44100</samplerate>
									</samplecharacteristics>
									<channelcount>2</channelcount>
								</audio>
							</media>
						</file>
						<link>
							<linkclipref>clipitem-87</linkclipref>
							<mediatype>video</mediatype>
							<trackindex>1</trackindex>
							<clipindex>3</clipindex>
						</link>
						<link>
							<linkclipref>clipitem-95</linkclipref>
							<mediatype>audio</mediatype>
							<trackindex>1</trackindex>
							<clipindex>3</clipindex>
							<groupindex>1</groupindex>
						</link>
						<link>
							<linkclipref>clipitem-103</linkclipref>
							<mediatype>audio</mediatype>
							<trackindex>2</trackindex>
							<clipindex>3</clipindex>
							<groupindex>1</groupindex>
						</link>
						<logginginfo>
							<description />
							<scene />
							<shottake />
							<lognote />
							<good />
							<originalvideofilename />
							<originalaudiofilename />
						</logginginfo>
						<colorinfo>
							<lut />
							<lut1 />
							<asc_sop />
							<asc_sat />
							<lut2 />
						</colorinfo>
					<labels><label2>Caribbean</label2></labels></clipitem>
					<clipitem id="clipitem-88">
						<masterclipid>clipitem-4-80</masterclipid>
						<name>Travis_Kelce_ANNOUNCE_WEDDING_DATE_with_Taylor_Swift_Why_He_was_Delaying_all_Along.mp4</name>
						<enabled>TRUE</enabled>
						<duration>150</duration>
						<rate>
							<timebase>25</timebase>
							<ntsc>FALSE</ntsc>
						</rate>
						<start>104100</start>
						<end>104250</end>
						<in>11850</in>
						<out>12000</out>
						<pproTicksIn>0</pproTicksIn>
						<pproTicksOut>419410897920000</pproTicksOut>
						<alphatype>none</alphatype>
						<pixelaspectratio>square</pixelaspectratio>
						<anamorphic>FALSE</anamorphic>
						<file id="file-32">
							<name>Travis_Kelce_ANNOUNCE_WEDDING_DATE_with_Taylor_Swift_Why_He_was_Delaying_all_Along.mp4</name>
							<pathurl>file://localhost/Users/themalikano/Documents/VideoAutomation/premiere_videos/Travis_Kelce_ANNOUNCE_WEDDING_DATE_with_Taylor_Swift_Why_He_was_Delaying_all_Along.mp4</pathurl>
							<rate>
								<timebase>24</timebase>
								<ntsc>FALSE</ntsc>
							</rate>
							<duration>39627</duration>
							<timecode>
								<rate>
									<timebase>24</timebase>
									<ntsc>FALSE</ntsc>
								</rate>
								<string>00:00:00:00</string>
								<frame>0</frame>
								<displayformat>NDF</displayformat>
							</timecode>
							<media>
								<video>
									<samplecharacteristics>
										<rate>
											<timebase>24</timebase>
											<ntsc>FALSE</ntsc>
										</rate>
										<width>852</width>
										<height>480</height>
										<anamorphic>FALSE</anamorphic>
										<pixelaspectratio>square</pixelaspectratio>
										<fielddominance>none</fielddominance>
									</samplecharacteristics>
								</video>
								<audio>
									<samplecharacteristics>
										<depth>16</depth>
										<samplerate>44100</samplerate>
									</samplecharacteristics>
									<channelcount>2</channelcount>
								</audio>
							</media>
						</file>
						<filter>
							<effect>
								<name>Basic Motion</name>
								<effectid>basic</effectid>
								<effectcategory>motion</effectcategory>
								<effecttype>motion</effecttype>
								<mediatype>video</mediatype>
								<pproBypass>false</pproBypass>
								<parameter authoringApp="PremierePro">
									<parameterid>scale</parameterid>
									<name>Scale</name>
									<valuemin>0</valuemin>
									<valuemax>1000</valuemax>
									<value>225</value>
								</parameter>
								<parameter authoringApp="PremierePro">
									<parameterid>rotation</parameterid>
									<name>Rotation</name>
									<valuemin>-8640</valuemin>
									<valuemax>8640</valuemax>
									<value>0</value>
								</parameter>
								<parameter authoringApp="PremierePro">
									<parameterid>center</parameterid>
									<name>Center</name>
									<value>
										<horiz>0</horiz>
										<vert>0</vert>
									</value>
								</parameter>
								<parameter authoringApp="PremierePro">
									<parameterid>centerOffset</parameterid>
									<name>Anchor Point</name>
									<value>
										<horiz>0</horiz>
										<vert>0</vert>
									</value>
								</parameter>
								<parameter authoringApp="PremierePro">
									<parameterid>antiflicker</parameterid>
									<name>Anti-flicker Filter</name>
									<valuemin>0.0</valuemin>
									<valuemax>1.0</valuemax>
									<value>0</value>
								</parameter>
							</effect>
						</filter>
						<link>
							<linkclipref>clipitem-88</linkclipref>
							<mediatype>video</mediatype>
							<trackindex>1</trackindex>
							<clipindex>4</clipindex>
						</link>
						<link>
							<linkclipref>clipitem-96</linkclipref>
							<mediatype>audio</mediatype>
							<trackindex>1</trackindex>
							<clipindex>4</clipindex>
							<groupindex>1</groupindex>
						</link>
						<link>
							<linkclipref>clipitem-104</linkclipref>
							<mediatype>audio</mediatype>
							<trackindex>2</trackindex>
							<clipindex>4</clipindex>
							<groupindex>1</groupindex>
						</link>
						<logginginfo>
							<description />
							<scene />
							<shottake />
							<lognote />
							<good />
							<originalvideofilename />
							<originalaudiofilename />
						</logginginfo>
						<colorinfo>
							<lut />
							<lut1 />
							<asc_sop />
							<asc_sat />
							<lut2 />
						</colorinfo>
					<labels><label2>Lavender</label2></labels></clipitem>
					<clipitem id="clipitem-87">
						<masterclipid>clipitem-3-269</masterclipid>
						<name>Taylor_Swift_Travis_Kelce_-_The_New_Power_Couple.mp4</name>
						<enabled>TRUE</enabled>
						<duration>150</duration>
						<rate>
							<timebase>25</timebase>
							<ntsc>FALSE</ntsc>
						</rate>
						<start>104250</start>
						<end>104400</end>
						<in>40200</in>
						<out>40350</out>
						<pproTicksIn>0</pproTicksIn>
						<pproTicksOut>875013995520000</pproTicksOut>
						<alphatype>none</alphatype>
						<pixelaspectratio>square</pixelaspectratio>
						<anamorphic>FALSE</anamorphic>
						<file id="file-31">
							<name>Taylor_Swift_Travis_Kelce_-_The_New_Power_Couple.mp4</name>
							<pathurl>file://localhost/Users/themalikano/Documents/VideoAutomation/premiere_videos/Taylor_Swift_Travis_Kelce_-_The_New_Power_Couple.mp4</pathurl>
							<rate>
								<timebase>25</timebase>
								<ntsc>FALSE</ntsc>
							</rate>
							<duration>86118</duration>
							<timecode>
								<rate>
									<timebase>25</timebase>
									<ntsc>FALSE</ntsc>
								</rate>
								<string>00:00:00:00</string>
								<frame>0</frame>
								<displayformat>NDF</displayformat>
							</timecode>
							<media>
								<video>
									<samplecharacteristics>
										<rate>
											<timebase>25</timebase>
											<ntsc>FALSE</ntsc>
										</rate>
										<width>1920</width>
										<height>1080</height>
										<anamorphic>FALSE</anamorphic>
										<pixelaspectratio>square</pixelaspectratio>
										<fielddominance>none</fielddominance>
									</samplecharacteristics>
								</video>
								<audio>
									<samplecharacteristics>
										<depth>16</depth>
										<samplerate>44100</samplerate>
									</samplecharacteristics>
									<channelcount>2</channelcount>
								</audio>
							</media>
						</file>
						<link>
							<linkclipref>clipitem-87</linkclipref>
							<mediatype>video</mediatype>
							<trackindex>1</trackindex>
							<clipindex>3</clipindex>
						</link>
						<link>
							<linkclipref>clipitem-95</linkclipref>
							<mediatype>audio</mediatype>
							<trackindex>1</trackindex>
							<clipindex>3</clipindex>
							<groupindex>1</groupindex>
						</link>
						<link>
							<linkclipref>clipitem-103</linkclipref>
							<mediatype>audio</mediatype>
							<trackindex>2</trackindex>
							<clipindex>3</clipindex>
							<groupindex>1</groupindex>
						</link>
						<logginginfo>
							<description />
							<scene />
							<shottake />
							<lognote />
							<good />
							<originalvideofilename />
							<originalaudiofilename />
						</logginginfo>
						<colorinfo>
							<lut />
							<lut1 />
							<asc_sop />
							<asc_sat />
							<lut2 />
						</colorinfo>
					<labels><label2>Caribbean</label2></labels></clipitem>
					<clipitem id="clipitem-88">
						<masterclipid>clipitem-4-237</masterclipid>
						<name>Travis_Kelce_ANNOUNCE_WEDDING_DATE_with_Taylor_Swift_Why_He_was_Delaying_all_Along.mp4</name>
						<enabled>TRUE</enabled>
						<duration>150</duration>
						<rate>
							<timebase>25</timebase>
							<ntsc>FALSE</ntsc>
						</rate>
						<start>104400</start>
						<end>104550</end>
						<in>35400</in>
						<out>35550</out>
						<pproTicksIn>0</pproTicksIn>
						<pproTicksOut>419410897920000</pproTicksOut>
						<alphatype>none</alphatype>
						<pixelaspectratio>square</pixelaspectratio>
						<anamorphic>FALSE</anamorphic>
						<file id="file-32">
							<name>Travis_Kelce_ANNOUNCE_WEDDING_DATE_with_Taylor_Swift_Why_He_was_Delaying_all_Along.mp4</name>
							<pathurl>file://localhost/Users/themalikano/Documents/VideoAutomation/premiere_videos/Travis_Kelce_ANNOUNCE_WEDDING_DATE_with_Taylor_Swift_Why_He_was_Delaying_all_Along.mp4</pathurl>
							<rate>
								<timebase>24</timebase>
								<ntsc>FALSE</ntsc>
							</rate>
							<duration>39627</duration>
							<timecode>
								<rate>
									<timebase>24</timebase>
									<ntsc>FALSE</ntsc>
								</rate>
								<string>00:00:00:00</string>
								<frame>0</frame>
								<displayformat>NDF</displayformat>
							</timecode>
							<media>
								<video>
									<samplecharacteristics>
										<rate>
											<timebase>24</timebase>
											<ntsc>FALSE</ntsc>
										</rate>
										<width>852</width>
										<height>480</height>
										<anamorphic>FALSE</anamorphic>
										<pixelaspectratio>square</pixelaspectratio>
										<fielddominance>none</fielddominance>
									</samplecharacteristics>
								</video>
								<audio>
									<samplecharacteristics>
										<depth>16</depth>
										<samplerate>44100</samplerate>
									</samplecharacteristics>
									<channelcount>2</channelcount>
								</audio>
							</media>
						</file>
						<filter>
							<effect>
								<name>Basic Motion</name>
								<effectid>basic</effectid>
								<effectcategory>motion</effectcategory>
								<effecttype>motion</effecttype>
								<mediatype>video</mediatype>
								<pproBypass>false</pproBypass>
								<parameter authoringApp="PremierePro">
									<parameterid>scale</parameterid>
									<name>Scale</name>
									<valuemin>0</valuemin>
									<valuemax>1000</valuemax>
									<value>225</value>
								</parameter>
								<parameter authoringApp="PremierePro">
									<parameterid>rotation</parameterid>
									<name>Rotation</name>
									<valuemin>-8640</valuemin>
									<valuemax>8640</valuemax>
									<value>0</value>
								</parameter>
								<parameter authoringApp="PremierePro">
									<parameterid>center</parameterid>
									<name>Center</name>
									<value>
										<horiz>0</horiz>
										<vert>0</vert>
									</value>
								</parameter>
								<parameter authoringApp="PremierePro">
									<parameterid>centerOffset</parameterid>
									<name>Anchor Point</name>
									<value>
										<horiz>0</horiz>
										<vert>0</vert>
									</value>
								</parameter>
								<parameter authoringApp="PremierePro">
									<parameterid>antiflicker</parameterid>
									<name>Anti-flicker Filter</name>
									<valuemin>0.0</valuemin>
									<valuemax>1.0</valuemax>
									<value>0</value>
								</parameter>
							</effect>
						</filter>
						<link>
							<linkclipref>clipitem-88</linkclipref>
							<mediatype>video</mediatype>
							<trackindex>1</trackindex>
							<clipindex>4</clipindex>
						</link>
						<link>
							<linkclipref>clipitem-96</linkclipref>
							<mediatype>audio</mediatype>
							<trackindex>1</trackindex>
							<clipindex>4</clipindex>
							<groupindex>1</groupindex>
						</link>
						<link>
							<linkclipref>clipitem-104</linkclipref>
							<mediatype>audio</mediatype>
							<trackindex>2</trackindex>
							<clipindex>4</clipindex>
							<groupindex>1</groupindex>
						</link>
						<logginginfo>
							<description />
							<scene />
							<shottake />
							<lognote />
							<good />
							<originalvideofilename />
							<originalaudiofilename />
						</logginginfo>
						<colorinfo>
							<lut />
							<lut1 />
							<asc_sop />
							<asc_sat />
							<lut2 />
						</colorinfo>
					<labels><label2>Lavender</label2></labels></clipitem>
					<clipitem id="clipitem-87">
						<masterclipid>clipitem-3-488</masterclipid>
						<name>Taylor_Swift_Travis_Kelce_-_The_New_Power_Couple.mp4</name>
						<enabled>TRUE</enabled>
						<duration>150</duration>
						<rate>
							<timebase>25</timebase>
							<ntsc>FALSE</ntsc>
						</rate>
						<start>104550</start>
						<end>104700</end>
						<in>73050</in>
						<out>73200</out>
						<pproTicksIn>0</pproTicksIn>
						<pproTicksOut>875013995520000</pproTicksOut>
						<alphatype>none</alphatype>
						<pixelaspectratio>square</pixelaspectratio>
						<anamorphic>FALSE</anamorphic>
						<file id="file-31">
							<name>Taylor_Swift_Travis_Kelce_-_The_New_Power_Couple.mp4</name>
							<pathurl>file://localhost/Users/themalikano/Documents/VideoAutomation/premiere_videos/Taylor_Swift_Travis_Kelce_-_The_New_Power_Couple.mp4</pathurl>
							<rate>
								<timebase>25</timebase>
								<ntsc>FALSE</ntsc>
							</rate>
							<duration>86118</duration>
							<timecode>
								<rate>
									<timebase>25</timebase>
									<ntsc>FALSE</ntsc>
								</rate>
								<string>00:00:00:00</string>
								<frame>0</frame>
								<displayformat>NDF</displayformat>
							</timecode>
							<media>
								<video>
									<samplecharacteristics>
										<rate>
											<timebase>25</timebase>
											<ntsc>FALSE</ntsc>
										</rate>
										<width>1920</width>
										<height>1080</height>
										<anamorphic>FALSE</anamorphic>
										<pixelaspectratio>square</pixelaspectratio>
										<fielddominance>none</fielddominance>
									</samplecharacteristics>
								</video>
								<audio>
									<samplecharacteristics>
										<depth>16</depth>
										<samplerate>44100</samplerate>
									</samplecharacteristics>
									<channelcount>2</channelcount>
								</audio>
							</media>
						</file>
						<link>
							<linkclipref>clipitem-87</linkclipref>
							<mediatype>video</mediatype>
							<trackindex>1</trackindex>
							<clipindex>3</clipindex>
						</link>
						<link>
							<linkclipref>clipitem-95</linkclipref>
							<mediatype>audio</mediatype>
							<trackindex>1</trackindex>
							<clipindex>3</clipindex>
							<groupindex>1</groupindex>
						</link>
						<link>
							<linkclipref>clipitem-103</linkclipref>
							<mediatype>audio</mediatype>
							<trackindex>2</trackindex>
							<clipindex>3</clipindex>
							<groupindex>1</groupindex>
						</link>
						<logginginfo>
							<description />
							<scene />
							<shottake />
							<lognote />
							<good />
							<originalvideofilename />
							<originalaudiofilename />
						</logginginfo>
						<colorinfo>
							<lut />
							<lut1 />
							<asc_sop />
							<asc_sat />
							<lut2 />
						</colorinfo>
					<labels><label2>Caribbean</label2></labels></clipitem>
					<clipitem id="clipitem-88">
						<masterclipid>clipitem-4-127</masterclipid>
						<name>Travis_Kelce_ANNOUNCE_WEDDING_DATE_with_Taylor_Swift_Why_He_was_Delaying_all_Along.mp4</name>
						<enabled>TRUE</enabled>
						<duration>150</duration>
						<rate>
							<timebase>25</timebase>
							<ntsc>FALSE</ntsc>
						</rate>
						<start>104700</start>
						<end>104850</end>
						<in>18900</in>
						<out>19050</out>
						<pproTicksIn>0</pproTicksIn>
						<pproTicksOut>419410897920000</pproTicksOut>
						<alphatype>none</alphatype>
						<pixelaspectratio>square</pixelaspectratio>
						<anamorphic>FALSE</anamorphic>
						<file id="file-32">
							<name>Travis_Kelce_ANNOUNCE_WEDDING_DATE_with_Taylor_Swift_Why_He_was_Delaying_all_Along.mp4</name>
							<pathurl>file://localhost/Users/themalikano/Documents/VideoAutomation/premiere_videos/Travis_Kelce_ANNOUNCE_WEDDING_DATE_with_Taylor_Swift_Why_He_was_Delaying_all_Along.mp4</pathurl>
							<rate>
								<timebase>24</timebase>
								<ntsc>FALSE</ntsc>
							</rate>
							<duration>39627</duration>
							<timecode>
								<rate>
									<timebase>24</timebase>
									<ntsc>FALSE</ntsc>
								</rate>
								<string>00:00:00:00</string>
								<frame>0</frame>
								<displayformat>NDF</displayformat>
							</timecode>
							<media>
								<video>
									<samplecharacteristics>
										<rate>
											<timebase>24</timebase>
											<ntsc>FALSE</ntsc>
										</rate>
										<width>852</width>
										<height>480</height>
										<anamorphic>FALSE</anamorphic>
										<pixelaspectratio>square</pixelaspectratio>
										<fielddominance>none</fielddominance>
									</samplecharacteristics>
								</video>
								<audio>
									<samplecharacteristics>
										<depth>16</depth>
										<samplerate>44100</samplerate>
									</samplecharacteristics>
									<channelcount>2</channelcount>
								</audio>
							</media>
						</file>
						<filter>
							<effect>
								<name>Basic Motion</name>
								<effectid>basic</effectid>
								<effectcategory>motion</effectcategory>
								<effecttype>motion</effecttype>
								<mediatype>video</mediatype>
								<pproBypass>false</pproBypass>
								<parameter authoringApp="PremierePro">
									<parameterid>scale</parameterid>
									<name>Scale</name>
									<valuemin>0</valuemin>
									<valuemax>1000</valuemax>
									<value>225</value>
								</parameter>
								<parameter authoringApp="PremierePro">
									<parameterid>rotation</parameterid>
									<name>Rotation</name>
									<valuemin>-8640</valuemin>
									<valuemax>8640</valuemax>
									<value>0</value>
								</parameter>
								<parameter authoringApp="PremierePro">
									<parameterid>center</parameterid>
									<name>Center</name>
									<value>
										<horiz>0</horiz>
										<vert>0</vert>
									</value>
								</parameter>
								<parameter authoringApp="PremierePro">
									<parameterid>centerOffset</parameterid>
									<name>Anchor Point</name>
									<value>
										<horiz>0</horiz>
										<vert>0</vert>
									</value>
								</parameter>
								<parameter authoringApp="PremierePro">
									<parameterid>antiflicker</parameterid>
									<name>Anti-flicker Filter</name>
									<valuemin>0.0</valuemin>
									<valuemax>1.0</valuemax>
									<value>0</value>
								</parameter>
							</effect>
						</filter>
						<link>
							<linkclipref>clipitem-88</linkclipref>
							<mediatype>video</mediatype>
							<trackindex>1</trackindex>
							<clipindex>4</clipindex>
						</link>
						<link>
							<linkclipref>clipitem-96</linkclipref>
							<mediatype>audio</mediatype>
							<trackindex>1</trackindex>
							<clipindex>4</clipindex>
							<groupindex>1</groupindex>
						</link>
						<link>
							<linkclipref>clipitem-104</linkclipref>
							<mediatype>audio</mediatype>
							<trackindex>2</trackindex>
							<clipindex>4</clipindex>
							<groupindex>1</groupindex>
						</link>
						<logginginfo>
							<description />
							<scene />
							<shottake />
							<lognote />
							<good />
							<originalvideofilename />
							<originalaudiofilename />
						</logginginfo>
						<colorinfo>
							<lut />
							<lut1 />
							<asc_sop />
							<asc_sat />
							<lut2 />
						</colorinfo>
					<labels><label2>Lavender</label2></labels></clipitem>
					<clipitem id="clipitem-87">
						<masterclipid>clipitem-3-457</masterclipid>
						<name>Taylor_Swift_Travis_Kelce_-_The_New_Power_Couple.mp4</name>
						<enabled>TRUE</enabled>
						<duration>150</duration>
						<rate>
							<timebase>25</timebase>
							<ntsc>FALSE</ntsc>
						</rate>
						<start>104850</start>
						<end>105000</end>
						<in>68400</in>
						<out>68550</out>
						<pproTicksIn>0</pproTicksIn>
						<pproTicksOut>875013995520000</pproTicksOut>
						<alphatype>none</alphatype>
						<pixelaspectratio>square</pixelaspectratio>
						<anamorphic>FALSE</anamorphic>
						<file id="file-31">
							<name>Taylor_Swift_Travis_Kelce_-_The_New_Power_Couple.mp4</name>
							<pathurl>file://localhost/Users/themalikano/Documents/VideoAutomation/premiere_videos/Taylor_Swift_Travis_Kelce_-_The_New_Power_Couple.mp4</pathurl>
							<rate>
								<timebase>25</timebase>
								<ntsc>FALSE</ntsc>
							</rate>
							<duration>86118</duration>
							<timecode>
								<rate>
									<timebase>25</timebase>
									<ntsc>FALSE</ntsc>
								</rate>
								<string>00:00:00:00</string>
								<frame>0</frame>
								<displayformat>NDF</displayformat>
							</timecode>
							<media>
								<video>
									<samplecharacteristics>
										<rate>
											<timebase>25</timebase>
											<ntsc>FALSE</ntsc>
										</rate>
										<width>1920</width>
										<height>1080</height>
										<anamorphic>FALSE</anamorphic>
										<pixelaspectratio>square</pixelaspectratio>
										<fielddominance>none</fielddominance>
									</samplecharacteristics>
								</video>
								<audio>
									<samplecharacteristics>
										<depth>16</depth>
										<samplerate>44100</samplerate>
									</samplecharacteristics>
									<channelcount>2</channelcount>
								</audio>
							</media>
						</file>
						<link>
							<linkclipref>clipitem-87</linkclipref>
							<mediatype>video</mediatype>
							<trackindex>1</trackindex>
							<clipindex>3</clipindex>
						</link>
						<link>
							<linkclipref>clipitem-95</linkclipref>
							<mediatype>audio</mediatype>
							<trackindex>1</trackindex>
							<clipindex>3</clipindex>
							<groupindex>1</groupindex>
						</link>
						<link>
							<linkclipref>clipitem-103</linkclipref>
							<mediatype>audio</mediatype>
							<trackindex>2</trackindex>
							<clipindex>3</clipindex>
							<groupindex>1</groupindex>
						</link>
						<logginginfo>
							<description />
							<scene />
							<shottake />
							<lognote />
							<good />
							<originalvideofilename />
							<originalaudiofilename />
						</logginginfo>
						<colorinfo>
							<lut />
							<lut1 />
							<asc_sop />
							<asc_sat />
							<lut2 />
						</colorinfo>
					<labels><label2>Caribbean</label2></labels></clipitem>
					<clipitem id="clipitem-88">
						<masterclipid>clipitem-4-260</masterclipid>
						<name>Travis_Kelce_ANNOUNCE_WEDDING_DATE_with_Taylor_Swift_Why_He_was_Delaying_all_Along.mp4</name>
						<enabled>TRUE</enabled>
						<duration>150</duration>
						<rate>
							<timebase>25</timebase>
							<ntsc>FALSE</ntsc>
						</rate>
						<start>105000</start>
						<end>105150</end>
						<in>38850</in>
						<out>39000</out>
						<pproTicksIn>0</pproTicksIn>
						<pproTicksOut>419410897920000</pproTicksOut>
						<alphatype>none</alphatype>
						<pixelaspectratio>square</pixelaspectratio>
						<anamorphic>FALSE</anamorphic>
						<file id="file-32">
							<name>Travis_Kelce_ANNOUNCE_WEDDING_DATE_with_Taylor_Swift_Why_He_was_Delaying_all_Along.mp4</name>
							<pathurl>file://localhost/Users/themalikano/Documents/VideoAutomation/premiere_videos/Travis_Kelce_ANNOUNCE_WEDDING_DATE_with_Taylor_Swift_Why_He_was_Delaying_all_Along.mp4</pathurl>
							<rate>
								<timebase>24</timebase>
								<ntsc>FALSE</ntsc>
							</rate>
							<duration>39627</duration>
							<timecode>
								<rate>
									<timebase>24</timebase>
									<ntsc>FALSE</ntsc>
								</rate>
								<string>00:00:00:00</string>
								<frame>0</frame>
								<displayformat>NDF</displayformat>
							</timecode>
							<media>
								<video>
									<samplecharacteristics>
										<rate>
											<timebase>24</timebase>
											<ntsc>FALSE</ntsc>
										</rate>
										<width>852</width>
										<height>480</height>
										<anamorphic>FALSE</anamorphic>
										<pixelaspectratio>square</pixelaspectratio>
										<fielddominance>none</fielddominance>
									</samplecharacteristics>
								</video>
								<audio>
									<samplecharacteristics>
										<depth>16</depth>
										<samplerate>44100</samplerate>
									</samplecharacteristics>
									<channelcount>2</channelcount>
								</audio>
							</media>
						</file>
						<filter>
							<effect>
								<name>Basic Motion</name>
								<effectid>basic</effectid>
								<effectcategory>motion</effectcategory>
								<effecttype>motion</effecttype>
								<mediatype>video</mediatype>
								<pproBypass>false</pproBypass>
								<parameter authoringApp="PremierePro">
									<parameterid>scale</parameterid>
									<name>Scale</name>
									<valuemin>0</valuemin>
									<valuemax>1000</valuemax>
									<value>225</value>
								</parameter>
								<parameter authoringApp="PremierePro">
									<parameterid>rotation</parameterid>
									<name>Rotation</name>
									<valuemin>-8640</valuemin>
									<valuemax>8640</valuemax>
									<value>0</value>
								</parameter>
								<parameter authoringApp="PremierePro">
									<parameterid>center</parameterid>
									<name>Center</name>
									<value>
										<horiz>0</horiz>
										<vert>0</vert>
									</value>
								</parameter>
								<parameter authoringApp="PremierePro">
									<parameterid>centerOffset</parameterid>
									<name>Anchor Point</name>
									<value>
										<horiz>0</horiz>
										<vert>0</vert>
									</value>
								</parameter>
								<parameter authoringApp="PremierePro">
									<parameterid>antiflicker</parameterid>
									<name>Anti-flicker Filter</name>
									<valuemin>0.0</valuemin>
									<valuemax>1.0</valuemax>
									<value>0</value>
								</parameter>
							</effect>
						</filter>
						<link>
							<linkclipref>clipitem-88</linkclipref>
							<mediatype>video</mediatype>
							<trackindex>1</trackindex>
							<clipindex>4</clipindex>
						</link>
						<link>
							<linkclipref>clipitem-96</linkclipref>
							<mediatype>audio</mediatype>
							<trackindex>1</trackindex>
							<clipindex>4</clipindex>
							<groupindex>1</groupindex>
						</link>
						<link>
							<linkclipref>clipitem-104</linkclipref>
							<mediatype>audio</mediatype>
							<trackindex>2</trackindex>
							<clipindex>4</clipindex>
							<groupindex>1</groupindex>
						</link>
						<logginginfo>
							<description />
							<scene />
							<shottake />
							<lognote />
							<good />
							<originalvideofilename />
							<originalaudiofilename />
						</logginginfo>
						<colorinfo>
							<lut />
							<lut1 />
							<asc_sop />
							<asc_sat />
							<lut2 />
						</colorinfo>
					<labels><label2>Lavender</label2></labels></clipitem>
					<clipitem id="clipitem-87">
						<masterclipid>clipitem-3-394</masterclipid>
						<name>Taylor_Swift_Travis_Kelce_-_The_New_Power_Couple.mp4</name>
						<enabled>TRUE</enabled>
						<duration>150</duration>
						<rate>
							<timebase>25</timebase>
							<ntsc>FALSE</ntsc>
						</rate>
						<start>105150</start>
						<end>105300</end>
						<in>58950</in>
						<out>59100</out>
						<pproTicksIn>0</pproTicksIn>
						<pproTicksOut>875013995520000</pproTicksOut>
						<alphatype>none</alphatype>
						<pixelaspectratio>square</pixelaspectratio>
						<anamorphic>FALSE</anamorphic>
						<file id="file-31">
							<name>Taylor_Swift_Travis_Kelce_-_The_New_Power_Couple.mp4</name>
							<pathurl>file://localhost/Users/themalikano/Documents/VideoAutomation/premiere_videos/Taylor_Swift_Travis_Kelce_-_The_New_Power_Couple.mp4</pathurl>
							<rate>
								<timebase>25</timebase>
								<ntsc>FALSE</ntsc>
							</rate>
							<duration>86118</duration>
							<timecode>
								<rate>
									<timebase>25</timebase>
									<ntsc>FALSE</ntsc>
								</rate>
								<string>00:00:00:00</string>
								<frame>0</frame>
								<displayformat>NDF</displayformat>
							</timecode>
							<media>
								<video>
									<samplecharacteristics>
										<rate>
											<timebase>25</timebase>
											<ntsc>FALSE</ntsc>
										</rate>
										<width>1920</width>
										<height>1080</height>
										<anamorphic>FALSE</anamorphic>
										<pixelaspectratio>square</pixelaspectratio>
										<fielddominance>none</fielddominance>
									</samplecharacteristics>
								</video>
								<audio>
									<samplecharacteristics>
										<depth>16</depth>
										<samplerate>44100</samplerate>
									</samplecharacteristics>
									<channelcount>2</channelcount>
								</audio>
							</media>
						</file>
						<link>
							<linkclipref>clipitem-87</linkclipref>
							<mediatype>video</mediatype>
							<trackindex>1</trackindex>
							<clipindex>3</clipindex>
						</link>
						<link>
							<linkclipref>clipitem-95</linkclipref>
							<mediatype>audio</mediatype>
							<trackindex>1</trackindex>
							<clipindex>3</clipindex>
							<groupindex>1</groupindex>
						</link>
						<link>
							<linkclipref>clipitem-103</linkclipref>
							<mediatype>audio</mediatype>
							<trackindex>2</trackindex>
							<clipindex>3</clipindex>
							<groupindex>1</groupindex>
						</link>
						<logginginfo>
							<description />
							<scene />
							<shottake />
							<lognote />
							<good />
							<originalvideofilename />
							<originalaudiofilename />
						</logginginfo>
						<colorinfo>
							<lut />
							<lut1 />
							<asc_sop />
							<asc_sat />
							<lut2 />
						</colorinfo>
					<labels><label2>Caribbean</label2></labels></clipitem>
					<clipitem id="clipitem-88">
						<masterclipid>clipitem-4-195</masterclipid>
						<name>Travis_Kelce_ANNOUNCE_WEDDING_DATE_with_Taylor_Swift_Why_He_was_Delaying_all_Along.mp4</name>
						<enabled>TRUE</enabled>
						<duration>150</duration>
						<rate>
							<timebase>25</timebase>
							<ntsc>FALSE</ntsc>
						</rate>
						<start>105300</start>
						<end>105450</end>
						<in>29100</in>
						<out>29250</out>
						<pproTicksIn>0</pproTicksIn>
						<pproTicksOut>419410897920000</pproTicksOut>
						<alphatype>none</alphatype>
						<pixelaspectratio>square</pixelaspectratio>
						<anamorphic>FALSE</anamorphic>
						<file id="file-32">
							<name>Travis_Kelce_ANNOUNCE_WEDDING_DATE_with_Taylor_Swift_Why_He_was_Delaying_all_Along.mp4</name>
							<pathurl>file://localhost/Users/themalikano/Documents/VideoAutomation/premiere_videos/Travis_Kelce_ANNOUNCE_WEDDING_DATE_with_Taylor_Swift_Why_He_was_Delaying_all_Along.mp4</pathurl>
							<rate>
								<timebase>24</timebase>
								<ntsc>FALSE</ntsc>
							</rate>
							<duration>39627</duration>
							<timecode>
								<rate>
									<timebase>24</timebase>
									<ntsc>FALSE</ntsc>
								</rate>
								<string>00:00:00:00</string>
								<frame>0</frame>
								<displayformat>NDF</displayformat>
							</timecode>
							<media>
								<video>
									<samplecharacteristics>
										<rate>
											<timebase>24</timebase>
											<ntsc>FALSE</ntsc>
										</rate>
										<width>852</width>
										<height>480</height>
										<anamorphic>FALSE</anamorphic>
										<pixelaspectratio>square</pixelaspectratio>
										<fielddominance>none</fielddominance>
									</samplecharacteristics>
								</video>
								<audio>
									<samplecharacteristics>
										<depth>16</depth>
										<samplerate>44100</samplerate>
									</samplecharacteristics>
									<channelcount>2</channelcount>
								</audio>
							</media>
						</file>
						<filter>
							<effect>
								<name>Basic Motion</name>
								<effectid>basic</effectid>
								<effectcategory>motion</effectcategory>
								<effecttype>motion</effecttype>
								<mediatype>video</mediatype>
								<pproBypass>false</pproBypass>
								<parameter authoringApp="PremierePro">
									<parameterid>scale</parameterid>
									<name>Scale</name>
									<valuemin>0</valuemin>
									<valuemax>1000</valuemax>
									<value>225</value>
								</parameter>
								<parameter authoringApp="PremierePro">
									<parameterid>rotation</parameterid>
									<name>Rotation</name>
									<valuemin>-8640</valuemin>
									<valuemax>8640</valuemax>
									<value>0</value>
								</parameter>
								<parameter authoringApp="PremierePro">
									<parameterid>center</parameterid>
									<name>Center</name>
									<value>
										<horiz>0</horiz>
										<vert>0</vert>
									</value>
								</parameter>
								<parameter authoringApp="PremierePro">
									<parameterid>centerOffset</parameterid>
									<name>Anchor Point</name>
									<value>
										<horiz>0</horiz>
										<vert>0</vert>
									</value>
								</parameter>
								<parameter authoringApp="PremierePro">
									<parameterid>antiflicker</parameterid>
									<name>Anti-flicker Filter</name>
									<valuemin>0.0</valuemin>
									<valuemax>1.0</valuemax>
									<value>0</value>
								</parameter>
							</effect>
						</filter>
						<link>
							<linkclipref>clipitem-88</linkclipref>
							<mediatype>video</mediatype>
							<trackindex>1</trackindex>
							<clipindex>4</clipindex>
						</link>
						<link>
							<linkclipref>clipitem-96</linkclipref>
							<mediatype>audio</mediatype>
							<trackindex>1</trackindex>
							<clipindex>4</clipindex>
							<groupindex>1</groupindex>
						</link>
						<link>
							<linkclipref>clipitem-104</linkclipref>
							<mediatype>audio</mediatype>
							<trackindex>2</trackindex>
							<clipindex>4</clipindex>
							<groupindex>1</groupindex>
						</link>
						<logginginfo>
							<description />
							<scene />
							<shottake />
							<lognote />
							<good />
							<originalvideofilename />
							<originalaudiofilename />
						</logginginfo>
						<colorinfo>
							<lut />
							<lut1 />
							<asc_sop />
							<asc_sat />
							<lut2 />
						</colorinfo>
					<labels><label2>Lavender</label2></labels></clipitem>
					<clipitem id="clipitem-87">
						<masterclipid>clipitem-3-233</masterclipid>
						<name>Taylor_Swift_Travis_Kelce_-_The_New_Power_Couple.mp4</name>
						<enabled>TRUE</enabled>
						<duration>150</duration>
						<rate>
							<timebase>25</timebase>
							<ntsc>FALSE</ntsc>
						</rate>
						<start>105450</start>
						<end>105600</end>
						<in>34800</in>
						<out>34950</out>
						<pproTicksIn>0</pproTicksIn>
						<pproTicksOut>875013995520000</pproTicksOut>
						<alphatype>none</alphatype>
						<pixelaspectratio>square</pixelaspectratio>
						<anamorphic>FALSE</anamorphic>
						<file id="file-31">
							<name>Taylor_Swift_Travis_Kelce_-_The_New_Power_Couple.mp4</name>
							<pathurl>file://localhost/Users/themalikano/Documents/VideoAutomation/premiere_videos/Taylor_Swift_Travis_Kelce_-_The_New_Power_Couple.mp4</pathurl>
							<rate>
								<timebase>25</timebase>
								<ntsc>FALSE</ntsc>
							</rate>
							<duration>86118</duration>
							<timecode>
								<rate>
									<timebase>25</timebase>
									<ntsc>FALSE</ntsc>
								</rate>
								<string>00:00:00:00</string>
								<frame>0</frame>
								<displayformat>NDF</displayformat>
							</timecode>
							<media>
								<video>
									<samplecharacteristics>
										<rate>
											<timebase>25</timebase>
											<ntsc>FALSE</ntsc>
										</rate>
										<width>1920</width>
										<height>1080</height>
										<anamorphic>FALSE</anamorphic>
										<pixelaspectratio>square</pixelaspectratio>
										<fielddominance>none</fielddominance>
									</samplecharacteristics>
								</video>
								<audio>
									<samplecharacteristics>
										<depth>16</depth>
										<samplerate>44100</samplerate>
									</samplecharacteristics>
									<channelcount>2</channelcount>
								</audio>
							</media>
						</file>
						<link>
							<linkclipref>clipitem-87</linkclipref>
							<mediatype>video</mediatype>
							<trackindex>1</trackindex>
							<clipindex>3</clipindex>
						</link>
						<link>
							<linkclipref>clipitem-95</linkclipref>
							<mediatype>audio</mediatype>
							<trackindex>1</trackindex>
							<clipindex>3</clipindex>
							<groupindex>1</groupindex>
						</link>
						<link>
							<linkclipref>clipitem-103</linkclipref>
							<mediatype>audio</mediatype>
							<trackindex>2</trackindex>
							<clipindex>3</clipindex>
							<groupindex>1</groupindex>
						</link>
						<logginginfo>
							<description />
							<scene />
							<shottake />
							<lognote />
							<good />
							<originalvideofilename />
							<originalaudiofilename />
						</logginginfo>
						<colorinfo>
							<lut />
							<lut1 />
							<asc_sop />
							<asc_sat />
							<lut2 />
						</colorinfo>
					<labels><label2>Caribbean</label2></labels></clipitem>
					<clipitem id="clipitem-88">
						<masterclipid>clipitem-4-150</masterclipid>
						<name>Travis_Kelce_ANNOUNCE_WEDDING_DATE_with_Taylor_Swift_Why_He_was_Delaying_all_Along.mp4</name>
						<enabled>TRUE</enabled>
						<duration>150</duration>
						<rate>
							<timebase>25</timebase>
							<ntsc>FALSE</ntsc>
						</rate>
						<start>105600</start>
						<end>105750</end>
						<in>22350</in>
						<out>22500</out>
						<pproTicksIn>0</pproTicksIn>
						<pproTicksOut>419410897920000</pproTicksOut>
						<alphatype>none</alphatype>
						<pixelaspectratio>square</pixelaspectratio>
						<anamorphic>FALSE</anamorphic>
						<file id="file-32">
							<name>Travis_Kelce_ANNOUNCE_WEDDING_DATE_with_Taylor_Swift_Why_He_was_Delaying_all_Along.mp4</name>
							<pathurl>file://localhost/Users/themalikano/Documents/VideoAutomation/premiere_videos/Travis_Kelce_ANNOUNCE_WEDDING_DATE_with_Taylor_Swift_Why_He_was_Delaying_all_Along.mp4</pathurl>
							<rate>
								<timebase>24</timebase>
								<ntsc>FALSE</ntsc>
							</rate>
							<duration>39627</duration>
							<timecode>
								<rate>
									<timebase>24</timebase>
									<ntsc>FALSE</ntsc>
								</rate>
								<string>00:00:00:00</string>
								<frame>0</frame>
								<displayformat>NDF</displayformat>
							</timecode>
							<media>
								<video>
									<samplecharacteristics>
										<rate>
											<timebase>24</timebase>
											<ntsc>FALSE</ntsc>
										</rate>
										<width>852</width>
										<height>480</height>
										<anamorphic>FALSE</anamorphic>
										<pixelaspectratio>square</pixelaspectratio>
										<fielddominance>none</fielddominance>
									</samplecharacteristics>
								</video>
								<audio>
									<samplecharacteristics>
										<depth>16</depth>
										<samplerate>44100</samplerate>
									</samplecharacteristics>
									<channelcount>2</channelcount>
								</audio>
							</media>
						</file>
						<filter>
							<effect>
								<name>Basic Motion</name>
								<effectid>basic</effectid>
								<effectcategory>motion</effectcategory>
								<effecttype>motion</effecttype>
								<mediatype>video</mediatype>
								<pproBypass>false</pproBypass>
								<parameter authoringApp="PremierePro">
									<parameterid>scale</parameterid>
									<name>Scale</name>
									<valuemin>0</valuemin>
									<valuemax>1000</valuemax>
									<value>225</value>
								</parameter>
								<parameter authoringApp="PremierePro">
									<parameterid>rotation</parameterid>
									<name>Rotation</name>
									<valuemin>-8640</valuemin>
									<valuemax>8640</valuemax>
									<value>0</value>
								</parameter>
								<parameter authoringApp="PremierePro">
									<parameterid>center</parameterid>
									<name>Center</name>
									<value>
										<horiz>0</horiz>
										<vert>0</vert>
									</value>
								</parameter>
								<parameter authoringApp="PremierePro">
									<parameterid>centerOffset</parameterid>
									<name>Anchor Point</name>
									<value>
										<horiz>0</horiz>
										<vert>0</vert>
									</value>
								</parameter>
								<parameter authoringApp="PremierePro">
									<parameterid>antiflicker</parameterid>
									<name>Anti-flicker Filter</name>
									<valuemin>0.0</valuemin>
									<valuemax>1.0</valuemax>
									<value>0</value>
								</parameter>
							</effect>
						</filter>
						<link>
							<linkclipref>clipitem-88</linkclipref>
							<mediatype>video</mediatype>
							<trackindex>1</trackindex>
							<clipindex>4</clipindex>
						</link>
						<link>
							<linkclipref>clipitem-96</linkclipref>
							<mediatype>audio</mediatype>
							<trackindex>1</trackindex>
							<clipindex>4</clipindex>
							<groupindex>1</groupindex>
						</link>
						<link>
							<linkclipref>clipitem-104</linkclipref>
							<mediatype>audio</mediatype>
							<trackindex>2</trackindex>
							<clipindex>4</clipindex>
							<groupindex>1</groupindex>
						</link>
						<logginginfo>
							<description />
							<scene />
							<shottake />
							<lognote />
							<good />
							<originalvideofilename />
							<originalaudiofilename />
						</logginginfo>
						<colorinfo>
							<lut />
							<lut1 />
							<asc_sop />
							<asc_sat />
							<lut2 />
						</colorinfo>
					<labels><label2>Lavender</label2></labels></clipitem>
					<clipitem id="clipitem-87">
						<masterclipid>clipitem-3-68</masterclipid>
						<name>Taylor_Swift_Travis_Kelce_-_The_New_Power_Couple.mp4</name>
						<enabled>TRUE</enabled>
						<duration>150</duration>
						<rate>
							<timebase>25</timebase>
							<ntsc>FALSE</ntsc>
						</rate>
						<start>105750</start>
						<end>105900</end>
						<in>10050</in>
						<out>10200</out>
						<pproTicksIn>0</pproTicksIn>
						<pproTicksOut>875013995520000</pproTicksOut>
						<alphatype>none</alphatype>
						<pixelaspectratio>square</pixelaspectratio>
						<anamorphic>FALSE</anamorphic>
						<file id="file-31">
							<name>Taylor_Swift_Travis_Kelce_-_The_New_Power_Couple.mp4</name>
							<pathurl>file://localhost/Users/themalikano/Documents/VideoAutomation/premiere_videos/Taylor_Swift_Travis_Kelce_-_The_New_Power_Couple.mp4</pathurl>
							<rate>
								<timebase>25</timebase>
								<ntsc>FALSE</ntsc>
							</rate>
							<duration>86118</duration>
							<timecode>
								<rate>
									<timebase>25</timebase>
									<ntsc>FALSE</ntsc>
								</rate>
								<string>00:00:00:00</string>
								<frame>0</frame>
								<displayformat>NDF</displayformat>
							</timecode>
							<media>
								<video>
									<samplecharacteristics>
										<rate>
											<timebase>25</timebase>
											<ntsc>FALSE</ntsc>
										</rate>
										<width>1920</width>
										<height>1080</height>
										<anamorphic>FALSE</anamorphic>
										<pixelaspectratio>square</pixelaspectratio>
										<fielddominance>none</fielddominance>
									</samplecharacteristics>
								</video>
								<audio>
									<samplecharacteristics>
										<depth>16</depth>
										<samplerate>44100</samplerate>
									</samplecharacteristics>
									<channelcount>2</channelcount>
								</audio>
							</media>
						</file>
						<link>
							<linkclipref>clipitem-87</linkclipref>
							<mediatype>video</mediatype>
							<trackindex>1</trackindex>
							<clipindex>3</clipindex>
						</link>
						<link>
							<linkclipref>clipitem-95</linkclipref>
							<mediatype>audio</mediatype>
							<trackindex>1</trackindex>
							<clipindex>3</clipindex>
							<groupindex>1</groupindex>
						</link>
						<link>
							<linkclipref>clipitem-103</linkclipref>
							<mediatype>audio</mediatype>
							<trackindex>2</trackindex>
							<clipindex>3</clipindex>
							<groupindex>1</groupindex>
						</link>
						<logginginfo>
							<description />
							<scene />
							<shottake />
							<lognote />
							<good />
							<originalvideofilename />
							<originalaudiofilename />
						</logginginfo>
						<colorinfo>
							<lut />
							<lut1 />
							<asc_sop />
							<asc_sat />
							<lut2 />
						</colorinfo>
					<labels><label2>Caribbean</label2></labels></clipitem>
					<clipitem id="clipitem-88">
						<masterclipid>clipitem-4-140</masterclipid>
						<name>Travis_Kelce_ANNOUNCE_WEDDING_DATE_with_Taylor_Swift_Why_He_was_Delaying_all_Along.mp4</name>
						<enabled>TRUE</enabled>
						<duration>150</duration>
						<rate>
							<timebase>25</timebase>
							<ntsc>FALSE</ntsc>
						</rate>
						<start>105900</start>
						<end>106050</end>
						<in>20850</in>
						<out>21000</out>
						<pproTicksIn>0</pproTicksIn>
						<pproTicksOut>419410897920000</pproTicksOut>
						<alphatype>none</alphatype>
						<pixelaspectratio>square</pixelaspectratio>
						<anamorphic>FALSE</anamorphic>
						<file id="file-32">
							<name>Travis_Kelce_ANNOUNCE_WEDDING_DATE_with_Taylor_Swift_Why_He_was_Delaying_all_Along.mp4</name>
							<pathurl>file://localhost/Users/themalikano/Documents/VideoAutomation/premiere_videos/Travis_Kelce_ANNOUNCE_WEDDING_DATE_with_Taylor_Swift_Why_He_was_Delaying_all_Along.mp4</pathurl>
							<rate>
								<timebase>24</timebase>
								<ntsc>FALSE</ntsc>
							</rate>
							<duration>39627</duration>
							<timecode>
								<rate>
									<timebase>24</timebase>
									<ntsc>FALSE</ntsc>
								</rate>
								<string>00:00:00:00</string>
								<frame>0</frame>
								<displayformat>NDF</displayformat>
							</timecode>
							<media>
								<video>
									<samplecharacteristics>
										<rate>
											<timebase>24</timebase>
											<ntsc>FALSE</ntsc>
										</rate>
										<width>852</width>
										<height>480</height>
										<anamorphic>FALSE</anamorphic>
										<pixelaspectratio>square</pixelaspectratio>
										<fielddominance>none</fielddominance>
									</samplecharacteristics>
								</video>
								<audio>
									<samplecharacteristics>
										<depth>16</depth>
										<samplerate>44100</samplerate>
									</samplecharacteristics>
									<channelcount>2</channelcount>
								</audio>
							</media>
						</file>
						<filter>
							<effect>
								<name>Basic Motion</name>
								<effectid>basic</effectid>
								<effectcategory>motion</effectcategory>
								<effecttype>motion</effecttype>
								<mediatype>video</mediatype>
								<pproBypass>false</pproBypass>
								<parameter authoringApp="PremierePro">
									<parameterid>scale</parameterid>
									<name>Scale</name>
									<valuemin>0</valuemin>
									<valuemax>1000</valuemax>
									<value>225</value>
								</parameter>
								<parameter authoringApp="PremierePro">
									<parameterid>rotation</parameterid>
									<name>Rotation</name>
									<valuemin>-8640</valuemin>
									<valuemax>8640</valuemax>
									<value>0</value>
								</parameter>
								<parameter authoringApp="PremierePro">
									<parameterid>center</parameterid>
									<name>Center</name>
									<value>
										<horiz>0</horiz>
										<vert>0</vert>
									</value>
								</parameter>
								<parameter authoringApp="PremierePro">
									<parameterid>centerOffset</parameterid>
									<name>Anchor Point</name>
									<value>
										<horiz>0</horiz>
										<vert>0</vert>
									</value>
								</parameter>
								<parameter authoringApp="PremierePro">
									<parameterid>antiflicker</parameterid>
									<name>Anti-flicker Filter</name>
									<valuemin>0.0</valuemin>
									<valuemax>1.0</valuemax>
									<value>0</value>
								</parameter>
							</effect>
						</filter>
						<link>
							<linkclipref>clipitem-88</linkclipref>
							<mediatype>video</mediatype>
							<trackindex>1</trackindex>
							<clipindex>4</clipindex>
						</link>
						<link>
							<linkclipref>clipitem-96</linkclipref>
							<mediatype>audio</mediatype>
							<trackindex>1</trackindex>
							<clipindex>4</clipindex>
							<groupindex>1</groupindex>
						</link>
						<link>
							<linkclipref>clipitem-104</linkclipref>
							<mediatype>audio</mediatype>
							<trackindex>2</trackindex>
							<clipindex>4</clipindex>
							<groupindex>1</groupindex>
						</link>
						<logginginfo>
							<description />
							<scene />
							<shottake />
							<lognote />
							<good />
							<originalvideofilename />
							<originalaudiofilename />
						</logginginfo>
						<colorinfo>
							<lut />
							<lut1 />
							<asc_sop />
							<asc_sat />
							<lut2 />
						</colorinfo>
					<labels><label2>Lavender</label2></labels></clipitem>
					<clipitem id="clipitem-87">
						<masterclipid>clipitem-3-113</masterclipid>
						<name>Taylor_Swift_Travis_Kelce_-_The_New_Power_Couple.mp4</name>
						<enabled>TRUE</enabled>
						<duration>150</duration>
						<rate>
							<timebase>25</timebase>
							<ntsc>FALSE</ntsc>
						</rate>
						<start>106050</start>
						<end>106200</end>
						<in>16800</in>
						<out>16950</out>
						<pproTicksIn>0</pproTicksIn>
						<pproTicksOut>875013995520000</pproTicksOut>
						<alphatype>none</alphatype>
						<pixelaspectratio>square</pixelaspectratio>
						<anamorphic>FALSE</anamorphic>
						<file id="file-31">
							<name>Taylor_Swift_Travis_Kelce_-_The_New_Power_Couple.mp4</name>
							<pathurl>file://localhost/Users/themalikano/Documents/VideoAutomation/premiere_videos/Taylor_Swift_Travis_Kelce_-_The_New_Power_Couple.mp4</pathurl>
							<rate>
								<timebase>25</timebase>
								<ntsc>FALSE</ntsc>
							</rate>
							<duration>86118</duration>
							<timecode>
								<rate>
									<timebase>25</timebase>
									<ntsc>FALSE</ntsc>
								</rate>
								<string>00:00:00:00</string>
								<frame>0</frame>
								<displayformat>NDF</displayformat>
							</timecode>
							<media>
								<video>
									<samplecharacteristics>
										<rate>
											<timebase>25</timebase>
											<ntsc>FALSE</ntsc>
										</rate>
										<width>1920</width>
										<height>1080</height>
										<anamorphic>FALSE</anamorphic>
										<pixelaspectratio>square</pixelaspectratio>
										<fielddominance>none</fielddominance>
									</samplecharacteristics>
								</video>
								<audio>
									<samplecharacteristics>
										<depth>16</depth>
										<samplerate>44100</samplerate>
									</samplecharacteristics>
									<channelcount>2</channelcount>
								</audio>
							</media>
						</file>
						<link>
							<linkclipref>clipitem-87</linkclipref>
							<mediatype>video</mediatype>
							<trackindex>1</trackindex>
							<clipindex>3</clipindex>
						</link>
						<link>
							<linkclipref>clipitem-95</linkclipref>
							<mediatype>audio</mediatype>
							<trackindex>1</trackindex>
							<clipindex>3</clipindex>
							<groupindex>1</groupindex>
						</link>
						<link>
							<linkclipref>clipitem-103</linkclipref>
							<mediatype>audio</mediatype>
							<trackindex>2</trackindex>
							<clipindex>3</clipindex>
							<groupindex>1</groupindex>
						</link>
						<logginginfo>
							<description />
							<scene />
							<shottake />
							<lognote />
							<good />
							<originalvideofilename />
							<originalaudiofilename />
						</logginginfo>
						<colorinfo>
							<lut />
							<lut1 />
							<asc_sop />
							<asc_sat />
							<lut2 />
						</colorinfo>
					<labels><label2>Caribbean</label2></labels></clipitem>
					<clipitem id="clipitem-88">
						<masterclipid>clipitem-4-148</masterclipid>
						<name>Travis_Kelce_ANNOUNCE_WEDDING_DATE_with_Taylor_Swift_Why_He_was_Delaying_all_Along.mp4</name>
						<enabled>TRUE</enabled>
						<duration>150</duration>
						<rate>
							<timebase>25</timebase>
							<ntsc>FALSE</ntsc>
						</rate>
						<start>106200</start>
						<end>106350</end>
						<in>22050</in>
						<out>22200</out>
						<pproTicksIn>0</pproTicksIn>
						<pproTicksOut>419410897920000</pproTicksOut>
						<alphatype>none</alphatype>
						<pixelaspectratio>square</pixelaspectratio>
						<anamorphic>FALSE</anamorphic>
						<file id="file-32">
							<name>Travis_Kelce_ANNOUNCE_WEDDING_DATE_with_Taylor_Swift_Why_He_was_Delaying_all_Along.mp4</name>
							<pathurl>file://localhost/Users/themalikano/Documents/VideoAutomation/premiere_videos/Travis_Kelce_ANNOUNCE_WEDDING_DATE_with_Taylor_Swift_Why_He_was_Delaying_all_Along.mp4</pathurl>
							<rate>
								<timebase>24</timebase>
								<ntsc>FALSE</ntsc>
							</rate>
							<duration>39627</duration>
							<timecode>
								<rate>
									<timebase>24</timebase>
									<ntsc>FALSE</ntsc>
								</rate>
								<string>00:00:00:00</string>
								<frame>0</frame>
								<displayformat>NDF</displayformat>
							</timecode>
							<media>
								<video>
									<samplecharacteristics>
										<rate>
											<timebase>24</timebase>
											<ntsc>FALSE</ntsc>
										</rate>
										<width>852</width>
										<height>480</height>
										<anamorphic>FALSE</anamorphic>
										<pixelaspectratio>square</pixelaspectratio>
										<fielddominance>none</fielddominance>
									</samplecharacteristics>
								</video>
								<audio>
									<samplecharacteristics>
										<depth>16</depth>
										<samplerate>44100</samplerate>
									</samplecharacteristics>
									<channelcount>2</channelcount>
								</audio>
							</media>
						</file>
						<filter>
							<effect>
								<name>Basic Motion</name>
								<effectid>basic</effectid>
								<effectcategory>motion</effectcategory>
								<effecttype>motion</effecttype>
								<mediatype>video</mediatype>
								<pproBypass>false</pproBypass>
								<parameter authoringApp="PremierePro">
									<parameterid>scale</parameterid>
									<name>Scale</name>
									<valuemin>0</valuemin>
									<valuemax>1000</valuemax>
									<value>225</value>
								</parameter>
								<parameter authoringApp="PremierePro">
									<parameterid>rotation</parameterid>
									<name>Rotation</name>
									<valuemin>-8640</valuemin>
									<valuemax>8640</valuemax>
									<value>0</value>
								</parameter>
								<parameter authoringApp="PremierePro">
									<parameterid>center</parameterid>
									<name>Center</name>
									<value>
										<horiz>0</horiz>
										<vert>0</vert>
									</value>
								</parameter>
								<parameter authoringApp="PremierePro">
									<parameterid>centerOffset</parameterid>
									<name>Anchor Point</name>
									<value>
										<horiz>0</horiz>
										<vert>0</vert>
									</value>
								</parameter>
								<parameter authoringApp="PremierePro">
									<parameterid>antiflicker</parameterid>
									<name>Anti-flicker Filter</name>
									<valuemin>0.0</valuemin>
									<valuemax>1.0</valuemax>
									<value>0</value>
								</parameter>
							</effect>
						</filter>
						<link>
							<linkclipref>clipitem-88</linkclipref>
							<mediatype>video</mediatype>
							<trackindex>1</trackindex>
							<clipindex>4</clipindex>
						</link>
						<link>
							<linkclipref>clipitem-96</linkclipref>
							<mediatype>audio</mediatype>
							<trackindex>1</trackindex>
							<clipindex>4</clipindex>
							<groupindex>1</groupindex>
						</link>
						<link>
							<linkclipref>clipitem-104</linkclipref>
							<mediatype>audio</mediatype>
							<trackindex>2</trackindex>
							<clipindex>4</clipindex>
							<groupindex>1</groupindex>
						</link>
						<logginginfo>
							<description />
							<scene />
							<shottake />
							<lognote />
							<good />
							<originalvideofilename />
							<originalaudiofilename />
						</logginginfo>
						<colorinfo>
							<lut />
							<lut1 />
							<asc_sop />
							<asc_sat />
							<lut2 />
						</colorinfo>
					<labels><label2>Lavender</label2></labels></clipitem>
					<clipitem id="clipitem-87">
						<masterclipid>clipitem-3-202</masterclipid>
						<name>Taylor_Swift_Travis_Kelce_-_The_New_Power_Couple.mp4</name>
						<enabled>TRUE</enabled>
						<duration>150</duration>
						<rate>
							<timebase>25</timebase>
							<ntsc>FALSE</ntsc>
						</rate>
						<start>106350</start>
						<end>106500</end>
						<in>30150</in>
						<out>30300</out>
						<pproTicksIn>0</pproTicksIn>
						<pproTicksOut>875013995520000</pproTicksOut>
						<alphatype>none</alphatype>
						<pixelaspectratio>square</pixelaspectratio>
						<anamorphic>FALSE</anamorphic>
						<file id="file-31">
							<name>Taylor_Swift_Travis_Kelce_-_The_New_Power_Couple.mp4</name>
							<pathurl>file://localhost/Users/themalikano/Documents/VideoAutomation/premiere_videos/Taylor_Swift_Travis_Kelce_-_The_New_Power_Couple.mp4</pathurl>
							<rate>
								<timebase>25</timebase>
								<ntsc>FALSE</ntsc>
							</rate>
							<duration>86118</duration>
							<timecode>
								<rate>
									<timebase>25</timebase>
									<ntsc>FALSE</ntsc>
								</rate>
								<string>00:00:00:00</string>
								<frame>0</frame>
								<displayformat>NDF</displayformat>
							</timecode>
							<media>
								<video>
									<samplecharacteristics>
										<rate>
											<timebase>25</timebase>
											<ntsc>FALSE</ntsc>
										</rate>
										<width>1920</width>
										<height>1080</height>
										<anamorphic>FALSE</anamorphic>
										<pixelaspectratio>square</pixelaspectratio>
										<fielddominance>none</fielddominance>
									</samplecharacteristics>
								</video>
								<audio>
									<samplecharacteristics>
										<depth>16</depth>
										<samplerate>44100</samplerate>
									</samplecharacteristics>
									<channelcount>2</channelcount>
								</audio>
							</media>
						</file>
						<link>
							<linkclipref>clipitem-87</linkclipref>
							<mediatype>video</mediatype>
							<trackindex>1</trackindex>
							<clipindex>3</clipindex>
						</link>
						<link>
							<linkclipref>clipitem-95</linkclipref>
							<mediatype>audio</mediatype>
							<trackindex>1</trackindex>
							<clipindex>3</clipindex>
							<groupindex>1</groupindex>
						</link>
						<link>
							<linkclipref>clipitem-103</linkclipref>
							<mediatype>audio</mediatype>
							<trackindex>2</trackindex>
							<clipindex>3</clipindex>
							<groupindex>1</groupindex>
						</link>
						<logginginfo>
							<description />
							<scene />
							<shottake />
							<lognote />
							<good />
							<originalvideofilename />
							<originalaudiofilename />
						</logginginfo>
						<colorinfo>
							<lut />
							<lut1 />
							<asc_sop />
							<asc_sat />
							<lut2 />
						</colorinfo>
					<labels><label2>Caribbean</label2></labels></clipitem>
					<clipitem id="clipitem-88">
						<masterclipid>clipitem-4-36</masterclipid>
						<name>Travis_Kelce_ANNOUNCE_WEDDING_DATE_with_Taylor_Swift_Why_He_was_Delaying_all_Along.mp4</name>
						<enabled>TRUE</enabled>
						<duration>150</duration>
						<rate>
							<timebase>25</timebase>
							<ntsc>FALSE</ntsc>
						</rate>
						<start>106500</start>
						<end>106650</end>
						<in>5250</in>
						<out>5400</out>
						<pproTicksIn>0</pproTicksIn>
						<pproTicksOut>419410897920000</pproTicksOut>
						<alphatype>none</alphatype>
						<pixelaspectratio>square</pixelaspectratio>
						<anamorphic>FALSE</anamorphic>
						<file id="file-32">
							<name>Travis_Kelce_ANNOUNCE_WEDDING_DATE_with_Taylor_Swift_Why_He_was_Delaying_all_Along.mp4</name>
							<pathurl>file://localhost/Users/themalikano/Documents/VideoAutomation/premiere_videos/Travis_Kelce_ANNOUNCE_WEDDING_DATE_with_Taylor_Swift_Why_He_was_Delaying_all_Along.mp4</pathurl>
							<rate>
								<timebase>24</timebase>
								<ntsc>FALSE</ntsc>
							</rate>
							<duration>39627</duration>
							<timecode>
								<rate>
									<timebase>24</timebase>
									<ntsc>FALSE</ntsc>
								</rate>
								<string>00:00:00:00</string>
								<frame>0</frame>
								<displayformat>NDF</displayformat>
							</timecode>
							<media>
								<video>
									<samplecharacteristics>
										<rate>
											<timebase>24</timebase>
											<ntsc>FALSE</ntsc>
										</rate>
										<width>852</width>
										<height>480</height>
										<anamorphic>FALSE</anamorphic>
										<pixelaspectratio>square</pixelaspectratio>
										<fielddominance>none</fielddominance>
									</samplecharacteristics>
								</video>
								<audio>
									<samplecharacteristics>
										<depth>16</depth>
										<samplerate>44100</samplerate>
									</samplecharacteristics>
									<channelcount>2</channelcount>
								</audio>
							</media>
						</file>
						<filter>
							<effect>
								<name>Basic Motion</name>
								<effectid>basic</effectid>
								<effectcategory>motion</effectcategory>
								<effecttype>motion</effecttype>
								<mediatype>video</mediatype>
								<pproBypass>false</pproBypass>
								<parameter authoringApp="PremierePro">
									<parameterid>scale</parameterid>
									<name>Scale</name>
									<valuemin>0</valuemin>
									<valuemax>1000</valuemax>
									<value>225</value>
								</parameter>
								<parameter authoringApp="PremierePro">
									<parameterid>rotation</parameterid>
									<name>Rotation</name>
									<valuemin>-8640</valuemin>
									<valuemax>8640</valuemax>
									<value>0</value>
								</parameter>
								<parameter authoringApp="PremierePro">
									<parameterid>center</parameterid>
									<name>Center</name>
									<value>
										<horiz>0</horiz>
										<vert>0</vert>
									</value>
								</parameter>
								<parameter authoringApp="PremierePro">
									<parameterid>centerOffset</parameterid>
									<name>Anchor Point</name>
									<value>
										<horiz>0</horiz>
										<vert>0</vert>
									</value>
								</parameter>
								<parameter authoringApp="PremierePro">
									<parameterid>antiflicker</parameterid>
									<name>Anti-flicker Filter</name>
									<valuemin>0.0</valuemin>
									<valuemax>1.0</valuemax>
									<value>0</value>
								</parameter>
							</effect>
						</filter>
						<link>
							<linkclipref>clipitem-88</linkclipref>
							<mediatype>video</mediatype>
							<trackindex>1</trackindex>
							<clipindex>4</clipindex>
						</link>
						<link>
							<linkclipref>clipitem-96</linkclipref>
							<mediatype>audio</mediatype>
							<trackindex>1</trackindex>
							<clipindex>4</clipindex>
							<groupindex>1</groupindex>
						</link>
						<link>
							<linkclipref>clipitem-104</linkclipref>
							<mediatype>audio</mediatype>
							<trackindex>2</trackindex>
							<clipindex>4</clipindex>
							<groupindex>1</groupindex>
						</link>
						<logginginfo>
							<description />
							<scene />
							<shottake />
							<lognote />
							<good />
							<originalvideofilename />
							<originalaudiofilename />
						</logginginfo>
						<colorinfo>
							<lut />
							<lut1 />
							<asc_sop />
							<asc_sat />
							<lut2 />
						</colorinfo>
					<labels><label2>Lavender</label2></labels></clipitem>
					<clipitem id="clipitem-87">
						<masterclipid>clipitem-3-145</masterclipid>
						<name>Taylor_Swift_Travis_Kelce_-_The_New_Power_Couple.mp4</name>
						<enabled>TRUE</enabled>
						<duration>150</duration>
						<rate>
							<timebase>25</timebase>
							<ntsc>FALSE</ntsc>
						</rate>
						<start>106650</start>
						<end>106800</end>
						<in>21600</in>
						<out>21750</out>
						<pproTicksIn>0</pproTicksIn>
						<pproTicksOut>875013995520000</pproTicksOut>
						<alphatype>none</alphatype>
						<pixelaspectratio>square</pixelaspectratio>
						<anamorphic>FALSE</anamorphic>
						<file id="file-31">
							<name>Taylor_Swift_Travis_Kelce_-_The_New_Power_Couple.mp4</name>
							<pathurl>file://localhost/Users/themalikano/Documents/VideoAutomation/premiere_videos/Taylor_Swift_Travis_Kelce_-_The_New_Power_Couple.mp4</pathurl>
							<rate>
								<timebase>25</timebase>
								<ntsc>FALSE</ntsc>
							</rate>
							<duration>86118</duration>
							<timecode>
								<rate>
									<timebase>25</timebase>
									<ntsc>FALSE</ntsc>
								</rate>
								<string>00:00:00:00</string>
								<frame>0</frame>
								<displayformat>NDF</displayformat>
							</timecode>
							<media>
								<video>
									<samplecharacteristics>
										<rate>
											<timebase>25</timebase>
											<ntsc>FALSE</ntsc>
										</rate>
										<width>1920</width>
										<height>1080</height>
										<anamorphic>FALSE</anamorphic>
										<pixelaspectratio>square</pixelaspectratio>
										<fielddominance>none</fielddominance>
									</samplecharacteristics>
								</video>
								<audio>
									<samplecharacteristics>
										<depth>16</depth>
										<samplerate>44100</samplerate>
									</samplecharacteristics>
									<channelcount>2</channelcount>
								</audio>
							</media>
						</file>
						<link>
							<linkclipref>clipitem-87</linkclipref>
							<mediatype>video</mediatype>
							<trackindex>1</trackindex>
							<clipindex>3</clipindex>
						</link>
						<link>
							<linkclipref>clipitem-95</linkclipref>
							<mediatype>audio</mediatype>
							<trackindex>1</trackindex>
							<clipindex>3</clipindex>
							<groupindex>1</groupindex>
						</link>
						<link>
							<linkclipref>clipitem-103</linkclipref>
							<mediatype>audio</mediatype>
							<trackindex>2</trackindex>
							<clipindex>3</clipindex>
							<groupindex>1</groupindex>
						</link>
						<logginginfo>
							<description />
							<scene />
							<shottake />
							<lognote />
							<good />
							<originalvideofilename />
							<originalaudiofilename />
						</logginginfo>
						<colorinfo>
							<lut />
							<lut1 />
							<asc_sop />
							<asc_sat />
							<lut2 />
						</colorinfo>
					<labels><label2>Caribbean</label2></labels></clipitem>
					<clipitem id="clipitem-88">
						<masterclipid>clipitem-4-255</masterclipid>
						<name>Travis_Kelce_ANNOUNCE_WEDDING_DATE_with_Taylor_Swift_Why_He_was_Delaying_all_Along.mp4</name>
						<enabled>TRUE</enabled>
						<duration>150</duration>
						<rate>
							<timebase>25</timebase>
							<ntsc>FALSE</ntsc>
						</rate>
						<start>106800</start>
						<end>106950</end>
						<in>38100</in>
						<out>38250</out>
						<pproTicksIn>0</pproTicksIn>
						<pproTicksOut>419410897920000</pproTicksOut>
						<alphatype>none</alphatype>
						<pixelaspectratio>square</pixelaspectratio>
						<anamorphic>FALSE</anamorphic>
						<file id="file-32">
							<name>Travis_Kelce_ANNOUNCE_WEDDING_DATE_with_Taylor_Swift_Why_He_was_Delaying_all_Along.mp4</name>
							<pathurl>file://localhost/Users/themalikano/Documents/VideoAutomation/premiere_videos/Travis_Kelce_ANNOUNCE_WEDDING_DATE_with_Taylor_Swift_Why_He_was_Delaying_all_Along.mp4</pathurl>
							<rate>
								<timebase>24</timebase>
								<ntsc>FALSE</ntsc>
							</rate>
							<duration>39627</duration>
							<timecode>
								<rate>
									<timebase>24</timebase>
									<ntsc>FALSE</ntsc>
								</rate>
								<string>00:00:00:00</string>
								<frame>0</frame>
								<displayformat>NDF</displayformat>
							</timecode>
							<media>
								<video>
									<samplecharacteristics>
										<rate>
											<timebase>24</timebase>
											<ntsc>FALSE</ntsc>
										</rate>
										<width>852</width>
										<height>480</height>
										<anamorphic>FALSE</anamorphic>
										<pixelaspectratio>square</pixelaspectratio>
										<fielddominance>none</fielddominance>
									</samplecharacteristics>
								</video>
								<audio>
									<samplecharacteristics>
										<depth>16</depth>
										<samplerate>44100</samplerate>
									</samplecharacteristics>
									<channelcount>2</channelcount>
								</audio>
							</media>
						</file>
						<filter>
							<effect>
								<name>Basic Motion</name>
								<effectid>basic</effectid>
								<effectcategory>motion</effectcategory>
								<effecttype>motion</effecttype>
								<mediatype>video</mediatype>
								<pproBypass>false</pproBypass>
								<parameter authoringApp="PremierePro">
									<parameterid>scale</parameterid>
									<name>Scale</name>
									<valuemin>0</valuemin>
									<valuemax>1000</valuemax>
									<value>225</value>
								</parameter>
								<parameter authoringApp="PremierePro">
									<parameterid>rotation</parameterid>
									<name>Rotation</name>
									<valuemin>-8640</valuemin>
									<valuemax>8640</valuemax>
									<value>0</value>
								</parameter>
								<parameter authoringApp="PremierePro">
									<parameterid>center</parameterid>
									<name>Center</name>
									<value>
										<horiz>0</horiz>
										<vert>0</vert>
									</value>
								</parameter>
								<parameter authoringApp="PremierePro">
									<parameterid>centerOffset</parameterid>
									<name>Anchor Point</name>
									<value>
										<horiz>0</horiz>
										<vert>0</vert>
									</value>
								</parameter>
								<parameter authoringApp="PremierePro">
									<parameterid>antiflicker</parameterid>
									<name>Anti-flicker Filter</name>
									<valuemin>0.0</valuemin>
									<valuemax>1.0</valuemax>
									<value>0</value>
								</parameter>
							</effect>
						</filter>
						<link>
							<linkclipref>clipitem-88</linkclipref>
							<mediatype>video</mediatype>
							<trackindex>1</trackindex>
							<clipindex>4</clipindex>
						</link>
						<link>
							<linkclipref>clipitem-96</linkclipref>
							<mediatype>audio</mediatype>
							<trackindex>1</trackindex>
							<clipindex>4</clipindex>
							<groupindex>1</groupindex>
						</link>
						<link>
							<linkclipref>clipitem-104</linkclipref>
							<mediatype>audio</mediatype>
							<trackindex>2</trackindex>
							<clipindex>4</clipindex>
							<groupindex>1</groupindex>
						</link>
						<logginginfo>
							<description />
							<scene />
							<shottake />
							<lognote />
							<good />
							<originalvideofilename />
							<originalaudiofilename />
						</logginginfo>
						<colorinfo>
							<lut />
							<lut1 />
							<asc_sop />
							<asc_sat />
							<lut2 />
						</colorinfo>
					<labels><label2>Lavender</label2></labels></clipitem>
					<clipitem id="clipitem-87">
						<masterclipid>clipitem-3-224</masterclipid>
						<name>Taylor_Swift_Travis_Kelce_-_The_New_Power_Couple.mp4</name>
						<enabled>TRUE</enabled>
						<duration>150</duration>
						<rate>
							<timebase>25</timebase>
							<ntsc>FALSE</ntsc>
						</rate>
						<start>106950</start>
						<end>107100</end>
						<in>33450</in>
						<out>33600</out>
						<pproTicksIn>0</pproTicksIn>
						<pproTicksOut>875013995520000</pproTicksOut>
						<alphatype>none</alphatype>
						<pixelaspectratio>square</pixelaspectratio>
						<anamorphic>FALSE</anamorphic>
						<file id="file-31">
							<name>Taylor_Swift_Travis_Kelce_-_The_New_Power_Couple.mp4</name>
							<pathurl>file://localhost/Users/themalikano/Documents/VideoAutomation/premiere_videos/Taylor_Swift_Travis_Kelce_-_The_New_Power_Couple.mp4</pathurl>
							<rate>
								<timebase>25</timebase>
								<ntsc>FALSE</ntsc>
							</rate>
							<duration>86118</duration>
							<timecode>
								<rate>
									<timebase>25</timebase>
									<ntsc>FALSE</ntsc>
								</rate>
								<string>00:00:00:00</string>
								<frame>0</frame>
								<displayformat>NDF</displayformat>
							</timecode>
							<media>
								<video>
									<samplecharacteristics>
										<rate>
											<timebase>25</timebase>
											<ntsc>FALSE</ntsc>
										</rate>
										<width>1920</width>
										<height>1080</height>
										<anamorphic>FALSE</anamorphic>
										<pixelaspectratio>square</pixelaspectratio>
										<fielddominance>none</fielddominance>
									</samplecharacteristics>
								</video>
								<audio>
									<samplecharacteristics>
										<depth>16</depth>
										<samplerate>44100</samplerate>
									</samplecharacteristics>
									<channelcount>2</channelcount>
								</audio>
							</media>
						</file>
						<link>
							<linkclipref>clipitem-87</linkclipref>
							<mediatype>video</mediatype>
							<trackindex>1</trackindex>
							<clipindex>3</clipindex>
						</link>
						<link>
							<linkclipref>clipitem-95</linkclipref>
							<mediatype>audio</mediatype>
							<trackindex>1</trackindex>
							<clipindex>3</clipindex>
							<groupindex>1</groupindex>
						</link>
						<link>
							<linkclipref>clipitem-103</linkclipref>
							<mediatype>audio</mediatype>
							<trackindex>2</trackindex>
							<clipindex>3</clipindex>
							<groupindex>1</groupindex>
						</link>
						<logginginfo>
							<description />
							<scene />
							<shottake />
							<lognote />
							<good />
							<originalvideofilename />
							<originalaudiofilename />
						</logginginfo>
						<colorinfo>
							<lut />
							<lut1 />
							<asc_sop />
							<asc_sat />
							<lut2 />
						</colorinfo>
					<labels><label2>Caribbean</label2></labels></clipitem>
					<clipitem id="clipitem-88">
						<masterclipid>clipitem-4-24</masterclipid>
						<name>Travis_Kelce_ANNOUNCE_WEDDING_DATE_with_Taylor_Swift_Why_He_was_Delaying_all_Along.mp4</name>
						<enabled>TRUE</enabled>
						<duration>150</duration>
						<rate>
							<timebase>25</timebase>
							<ntsc>FALSE</ntsc>
						</rate>
						<start>107100</start>
						<end>107250</end>
						<in>3450</in>
						<out>3600</out>
						<pproTicksIn>0</pproTicksIn>
						<pproTicksOut>419410897920000</pproTicksOut>
						<alphatype>none</alphatype>
						<pixelaspectratio>square</pixelaspectratio>
						<anamorphic>FALSE</anamorphic>
						<file id="file-32">
							<name>Travis_Kelce_ANNOUNCE_WEDDING_DATE_with_Taylor_Swift_Why_He_was_Delaying_all_Along.mp4</name>
							<pathurl>file://localhost/Users/themalikano/Documents/VideoAutomation/premiere_videos/Travis_Kelce_ANNOUNCE_WEDDING_DATE_with_Taylor_Swift_Why_He_was_Delaying_all_Along.mp4</pathurl>
							<rate>
								<timebase>24</timebase>
								<ntsc>FALSE</ntsc>
							</rate>
							<duration>39627</duration>
							<timecode>
								<rate>
									<timebase>24</timebase>
									<ntsc>FALSE</ntsc>
								</rate>
								<string>00:00:00:00</string>
								<frame>0</frame>
								<displayformat>NDF</displayformat>
							</timecode>
							<media>
								<video>
									<samplecharacteristics>
										<rate>
											<timebase>24</timebase>
											<ntsc>FALSE</ntsc>
										</rate>
										<width>852</width>
										<height>480</height>
										<anamorphic>FALSE</anamorphic>
										<pixelaspectratio>square</pixelaspectratio>
										<fielddominance>none</fielddominance>
									</samplecharacteristics>
								</video>
								<audio>
									<samplecharacteristics>
										<depth>16</depth>
										<samplerate>44100</samplerate>
									</samplecharacteristics>
									<channelcount>2</channelcount>
								</audio>
							</media>
						</file>
						<filter>
							<effect>
								<name>Basic Motion</name>
								<effectid>basic</effectid>
								<effectcategory>motion</effectcategory>
								<effecttype>motion</effecttype>
								<mediatype>video</mediatype>
								<pproBypass>false</pproBypass>
								<parameter authoringApp="PremierePro">
									<parameterid>scale</parameterid>
									<name>Scale</name>
									<valuemin>0</valuemin>
									<valuemax>1000</valuemax>
									<value>225</value>
								</parameter>
								<parameter authoringApp="PremierePro">
									<parameterid>rotation</parameterid>
									<name>Rotation</name>
									<valuemin>-8640</valuemin>
									<valuemax>8640</valuemax>
									<value>0</value>
								</parameter>
								<parameter authoringApp="PremierePro">
									<parameterid>center</parameterid>
									<name>Center</name>
									<value>
										<horiz>0</horiz>
										<vert>0</vert>
									</value>
								</parameter>
								<parameter authoringApp="PremierePro">
									<parameterid>centerOffset</parameterid>
									<name>Anchor Point</name>
									<value>
										<horiz>0</horiz>
										<vert>0</vert>
									</value>
								</parameter>
								<parameter authoringApp="PremierePro">
									<parameterid>antiflicker</parameterid>
									<name>Anti-flicker Filter</name>
									<valuemin>0.0</valuemin>
									<valuemax>1.0</valuemax>
									<value>0</value>
								</parameter>
							</effect>
						</filter>
						<link>
							<linkclipref>clipitem-88</linkclipref>
							<mediatype>video</mediatype>
							<trackindex>1</trackindex>
							<clipindex>4</clipindex>
						</link>
						<link>
							<linkclipref>clipitem-96</linkclipref>
							<mediatype>audio</mediatype>
							<trackindex>1</trackindex>
							<clipindex>4</clipindex>
							<groupindex>1</groupindex>
						</link>
						<link>
							<linkclipref>clipitem-104</linkclipref>
							<mediatype>audio</mediatype>
							<trackindex>2</trackindex>
							<clipindex>4</clipindex>
							<groupindex>1</groupindex>
						</link>
						<logginginfo>
							<description />
							<scene />
							<shottake />
							<lognote />
							<good />
							<originalvideofilename />
							<originalaudiofilename />
						</logginginfo>
						<colorinfo>
							<lut />
							<lut1 />
							<asc_sop />
							<asc_sat />
							<lut2 />
						</colorinfo>
					<labels><label2>Lavender</label2></labels></clipitem>
					<clipitem id="clipitem-87">
						<masterclipid>clipitem-3-563</masterclipid>
						<name>Taylor_Swift_Travis_Kelce_-_The_New_Power_Couple.mp4</name>
						<enabled>TRUE</enabled>
						<duration>150</duration>
						<rate>
							<timebase>25</timebase>
							<ntsc>FALSE</ntsc>
						</rate>
						<start>107250</start>
						<end>107400</end>
						<in>84300</in>
						<out>84450</out>
						<pproTicksIn>0</pproTicksIn>
						<pproTicksOut>875013995520000</pproTicksOut>
						<alphatype>none</alphatype>
						<pixelaspectratio>square</pixelaspectratio>
						<anamorphic>FALSE</anamorphic>
						<file id="file-31">
							<name>Taylor_Swift_Travis_Kelce_-_The_New_Power_Couple.mp4</name>
							<pathurl>file://localhost/Users/themalikano/Documents/VideoAutomation/premiere_videos/Taylor_Swift_Travis_Kelce_-_The_New_Power_Couple.mp4</pathurl>
							<rate>
								<timebase>25</timebase>
								<ntsc>FALSE</ntsc>
							</rate>
							<duration>86118</duration>
							<timecode>
								<rate>
									<timebase>25</timebase>
									<ntsc>FALSE</ntsc>
								</rate>
								<string>00:00:00:00</string>
								<frame>0</frame>
								<displayformat>NDF</displayformat>
							</timecode>
							<media>
								<video>
									<samplecharacteristics>
										<rate>
											<timebase>25</timebase>
											<ntsc>FALSE</ntsc>
										</rate>
										<width>1920</width>
										<height>1080</height>
										<anamorphic>FALSE</anamorphic>
										<pixelaspectratio>square</pixelaspectratio>
										<fielddominance>none</fielddominance>
									</samplecharacteristics>
								</video>
								<audio>
									<samplecharacteristics>
										<depth>16</depth>
										<samplerate>44100</samplerate>
									</samplecharacteristics>
									<channelcount>2</channelcount>
								</audio>
							</media>
						</file>
						<link>
							<linkclipref>clipitem-87</linkclipref>
							<mediatype>video</mediatype>
							<trackindex>1</trackindex>
							<clipindex>3</clipindex>
						</link>
						<link>
							<linkclipref>clipitem-95</linkclipref>
							<mediatype>audio</mediatype>
							<trackindex>1</trackindex>
							<clipindex>3</clipindex>
							<groupindex>1</groupindex>
						</link>
						<link>
							<linkclipref>clipitem-103</linkclipref>
							<mediatype>audio</mediatype>
							<trackindex>2</trackindex>
							<clipindex>3</clipindex>
							<groupindex>1</groupindex>
						</link>
						<logginginfo>
							<description />
							<scene />
							<shottake />
							<lognote />
							<good />
							<originalvideofilename />
							<originalaudiofilename />
						</logginginfo>
						<colorinfo>
							<lut />
							<lut1 />
							<asc_sop />
							<asc_sat />
							<lut2 />
						</colorinfo>
					<labels><label2>Caribbean</label2></labels></clipitem>
					<clipitem id="clipitem-88">
						<masterclipid>clipitem-4-63</masterclipid>
						<name>Travis_Kelce_ANNOUNCE_WEDDING_DATE_with_Taylor_Swift_Why_He_was_Delaying_all_Along.mp4</name>
						<enabled>TRUE</enabled>
						<duration>150</duration>
						<rate>
							<timebase>25</timebase>
							<ntsc>FALSE</ntsc>
						</rate>
						<start>107400</start>
						<end>107550</end>
						<in>9300</in>
						<out>9450</out>
						<pproTicksIn>0</pproTicksIn>
						<pproTicksOut>419410897920000</pproTicksOut>
						<alphatype>none</alphatype>
						<pixelaspectratio>square</pixelaspectratio>
						<anamorphic>FALSE</anamorphic>
						<file id="file-32">
							<name>Travis_Kelce_ANNOUNCE_WEDDING_DATE_with_Taylor_Swift_Why_He_was_Delaying_all_Along.mp4</name>
							<pathurl>file://localhost/Users/themalikano/Documents/VideoAutomation/premiere_videos/Travis_Kelce_ANNOUNCE_WEDDING_DATE_with_Taylor_Swift_Why_He_was_Delaying_all_Along.mp4</pathurl>
							<rate>
								<timebase>24</timebase>
								<ntsc>FALSE</ntsc>
							</rate>
							<duration>39627</duration>
							<timecode>
								<rate>
									<timebase>24</timebase>
									<ntsc>FALSE</ntsc>
								</rate>
								<string>00:00:00:00</string>
								<frame>0</frame>
								<displayformat>NDF</displayformat>
							</timecode>
							<media>
								<video>
									<samplecharacteristics>
										<rate>
											<timebase>24</timebase>
											<ntsc>FALSE</ntsc>
										</rate>
										<width>852</width>
										<height>480</height>
										<anamorphic>FALSE</anamorphic>
										<pixelaspectratio>square</pixelaspectratio>
										<fielddominance>none</fielddominance>
									</samplecharacteristics>
								</video>
								<audio>
									<samplecharacteristics>
										<depth>16</depth>
										<samplerate>44100</samplerate>
									</samplecharacteristics>
									<channelcount>2</channelcount>
								</audio>
							</media>
						</file>
						<filter>
							<effect>
								<name>Basic Motion</name>
								<effectid>basic</effectid>
								<effectcategory>motion</effectcategory>
								<effecttype>motion</effecttype>
								<mediatype>video</mediatype>
								<pproBypass>false</pproBypass>
								<parameter authoringApp="PremierePro">
									<parameterid>scale</parameterid>
									<name>Scale</name>
									<valuemin>0</valuemin>
									<valuemax>1000</valuemax>
									<value>225</value>
								</parameter>
								<parameter authoringApp="PremierePro">
									<parameterid>rotation</parameterid>
									<name>Rotation</name>
									<valuemin>-8640</valuemin>
									<valuemax>8640</valuemax>
									<value>0</value>
								</parameter>
								<parameter authoringApp="PremierePro">
									<parameterid>center</parameterid>
									<name>Center</name>
									<value>
										<horiz>0</horiz>
										<vert>0</vert>
									</value>
								</parameter>
								<parameter authoringApp="PremierePro">
									<parameterid>centerOffset</parameterid>
									<name>Anchor Point</name>
									<value>
										<horiz>0</horiz>
										<vert>0</vert>
									</value>
								</parameter>
								<parameter authoringApp="PremierePro">
									<parameterid>antiflicker</parameterid>
									<name>Anti-flicker Filter</name>
									<valuemin>0.0</valuemin>
									<valuemax>1.0</valuemax>
									<value>0</value>
								</parameter>
							</effect>
						</filter>
						<link>
							<linkclipref>clipitem-88</linkclipref>
							<mediatype>video</mediatype>
							<trackindex>1</trackindex>
							<clipindex>4</clipindex>
						</link>
						<link>
							<linkclipref>clipitem-96</linkclipref>
							<mediatype>audio</mediatype>
							<trackindex>1</trackindex>
							<clipindex>4</clipindex>
							<groupindex>1</groupindex>
						</link>
						<link>
							<linkclipref>clipitem-104</linkclipref>
							<mediatype>audio</mediatype>
							<trackindex>2</trackindex>
							<clipindex>4</clipindex>
							<groupindex>1</groupindex>
						</link>
						<logginginfo>
							<description />
							<scene />
							<shottake />
							<lognote />
							<good />
							<originalvideofilename />
							<originalaudiofilename />
						</logginginfo>
						<colorinfo>
							<lut />
							<lut1 />
							<asc_sop />
							<asc_sat />
							<lut2 />
						</colorinfo>
					<labels><label2>Lavender</label2></labels></clipitem>
					<clipitem id="clipitem-87">
						<masterclipid>clipitem-3-554</masterclipid>
						<name>Taylor_Swift_Travis_Kelce_-_The_New_Power_Couple.mp4</name>
						<enabled>TRUE</enabled>
						<duration>150</duration>
						<rate>
							<timebase>25</timebase>
							<ntsc>FALSE</ntsc>
						</rate>
						<start>107550</start>
						<end>107700</end>
						<in>82950</in>
						<out>83100</out>
						<pproTicksIn>0</pproTicksIn>
						<pproTicksOut>875013995520000</pproTicksOut>
						<alphatype>none</alphatype>
						<pixelaspectratio>square</pixelaspectratio>
						<anamorphic>FALSE</anamorphic>
						<file id="file-31">
							<name>Taylor_Swift_Travis_Kelce_-_The_New_Power_Couple.mp4</name>
							<pathurl>file://localhost/Users/themalikano/Documents/VideoAutomation/premiere_videos/Taylor_Swift_Travis_Kelce_-_The_New_Power_Couple.mp4</pathurl>
							<rate>
								<timebase>25</timebase>
								<ntsc>FALSE</ntsc>
							</rate>
							<duration>86118</duration>
							<timecode>
								<rate>
									<timebase>25</timebase>
									<ntsc>FALSE</ntsc>
								</rate>
								<string>00:00:00:00</string>
								<frame>0</frame>
								<displayformat>NDF</displayformat>
							</timecode>
							<media>
								<video>
									<samplecharacteristics>
										<rate>
											<timebase>25</timebase>
											<ntsc>FALSE</ntsc>
										</rate>
										<width>1920</width>
										<height>1080</height>
										<anamorphic>FALSE</anamorphic>
										<pixelaspectratio>square</pixelaspectratio>
										<fielddominance>none</fielddominance>
									</samplecharacteristics>
								</video>
								<audio>
									<samplecharacteristics>
										<depth>16</depth>
										<samplerate>44100</samplerate>
									</samplecharacteristics>
									<channelcount>2</channelcount>
								</audio>
							</media>
						</file>
						<link>
							<linkclipref>clipitem-87</linkclipref>
							<mediatype>video</mediatype>
							<trackindex>1</trackindex>
							<clipindex>3</clipindex>
						</link>
						<link>
							<linkclipref>clipitem-95</linkclipref>
							<mediatype>audio</mediatype>
							<trackindex>1</trackindex>
							<clipindex>3</clipindex>
							<groupindex>1</groupindex>
						</link>
						<link>
							<linkclipref>clipitem-103</linkclipref>
							<mediatype>audio</mediatype>
							<trackindex>2</trackindex>
							<clipindex>3</clipindex>
							<groupindex>1</groupindex>
						</link>
						<logginginfo>
							<description />
							<scene />
							<shottake />
							<lognote />
							<good />
							<originalvideofilename />
							<originalaudiofilename />
						</logginginfo>
						<colorinfo>
							<lut />
							<lut1 />
							<asc_sop />
							<asc_sat />
							<lut2 />
						</colorinfo>
					<labels><label2>Caribbean</label2></labels></clipitem>
					<clipitem id="clipitem-88">
						<masterclipid>clipitem-4-72</masterclipid>
						<name>Travis_Kelce_ANNOUNCE_WEDDING_DATE_with_Taylor_Swift_Why_He_was_Delaying_all_Along.mp4</name>
						<enabled>TRUE</enabled>
						<duration>150</duration>
						<rate>
							<timebase>25</timebase>
							<ntsc>FALSE</ntsc>
						</rate>
						<start>107700</start>
						<end>107850</end>
						<in>10650</in>
						<out>10800</out>
						<pproTicksIn>0</pproTicksIn>
						<pproTicksOut>419410897920000</pproTicksOut>
						<alphatype>none</alphatype>
						<pixelaspectratio>square</pixelaspectratio>
						<anamorphic>FALSE</anamorphic>
						<file id="file-32">
							<name>Travis_Kelce_ANNOUNCE_WEDDING_DATE_with_Taylor_Swift_Why_He_was_Delaying_all_Along.mp4</name>
							<pathurl>file://localhost/Users/themalikano/Documents/VideoAutomation/premiere_videos/Travis_Kelce_ANNOUNCE_WEDDING_DATE_with_Taylor_Swift_Why_He_was_Delaying_all_Along.mp4</pathurl>
							<rate>
								<timebase>24</timebase>
								<ntsc>FALSE</ntsc>
							</rate>
							<duration>39627</duration>
							<timecode>
								<rate>
									<timebase>24</timebase>
									<ntsc>FALSE</ntsc>
								</rate>
								<string>00:00:00:00</string>
								<frame>0</frame>
								<displayformat>NDF</displayformat>
							</timecode>
							<media>
								<video>
									<samplecharacteristics>
										<rate>
											<timebase>24</timebase>
											<ntsc>FALSE</ntsc>
										</rate>
										<width>852</width>
										<height>480</height>
										<anamorphic>FALSE</anamorphic>
										<pixelaspectratio>square</pixelaspectratio>
										<fielddominance>none</fielddominance>
									</samplecharacteristics>
								</video>
								<audio>
									<samplecharacteristics>
										<depth>16</depth>
										<samplerate>44100</samplerate>
									</samplecharacteristics>
									<channelcount>2</channelcount>
								</audio>
							</media>
						</file>
						<filter>
							<effect>
								<name>Basic Motion</name>
								<effectid>basic</effectid>
								<effectcategory>motion</effectcategory>
								<effecttype>motion</effecttype>
								<mediatype>video</mediatype>
								<pproBypass>false</pproBypass>
								<parameter authoringApp="PremierePro">
									<parameterid>scale</parameterid>
									<name>Scale</name>
									<valuemin>0</valuemin>
									<valuemax>1000</valuemax>
									<value>225</value>
								</parameter>
								<parameter authoringApp="PremierePro">
									<parameterid>rotation</parameterid>
									<name>Rotation</name>
									<valuemin>-8640</valuemin>
									<valuemax>8640</valuemax>
									<value>0</value>
								</parameter>
								<parameter authoringApp="PremierePro">
									<parameterid>center</parameterid>
									<name>Center</name>
									<value>
										<horiz>0</horiz>
										<vert>0</vert>
									</value>
								</parameter>
								<parameter authoringApp="PremierePro">
									<parameterid>centerOffset</parameterid>
									<name>Anchor Point</name>
									<value>
										<horiz>0</horiz>
										<vert>0</vert>
									</value>
								</parameter>
								<parameter authoringApp="PremierePro">
									<parameterid>antiflicker</parameterid>
									<name>Anti-flicker Filter</name>
									<valuemin>0.0</valuemin>
									<valuemax>1.0</valuemax>
									<value>0</value>
								</parameter>
							</effect>
						</filter>
						<link>
							<linkclipref>clipitem-88</linkclipref>
							<mediatype>video</mediatype>
							<trackindex>1</trackindex>
							<clipindex>4</clipindex>
						</link>
						<link>
							<linkclipref>clipitem-96</linkclipref>
							<mediatype>audio</mediatype>
							<trackindex>1</trackindex>
							<clipindex>4</clipindex>
							<groupindex>1</groupindex>
						</link>
						<link>
							<linkclipref>clipitem-104</linkclipref>
							<mediatype>audio</mediatype>
							<trackindex>2</trackindex>
							<clipindex>4</clipindex>
							<groupindex>1</groupindex>
						</link>
						<logginginfo>
							<description />
							<scene />
							<shottake />
							<lognote />
							<good />
							<originalvideofilename />
							<originalaudiofilename />
						</logginginfo>
						<colorinfo>
							<lut />
							<lut1 />
							<asc_sop />
							<asc_sat />
							<lut2 />
						</colorinfo>
					<labels><label2>Lavender</label2></labels></clipitem>
					<clipitem id="clipitem-87">
						<masterclipid>clipitem-3-194</masterclipid>
						<name>Taylor_Swift_Travis_Kelce_-_The_New_Power_Couple.mp4</name>
						<enabled>TRUE</enabled>
						<duration>150</duration>
						<rate>
							<timebase>25</timebase>
							<ntsc>FALSE</ntsc>
						</rate>
						<start>107850</start>
						<end>108000</end>
						<in>28950</in>
						<out>29100</out>
						<pproTicksIn>0</pproTicksIn>
						<pproTicksOut>875013995520000</pproTicksOut>
						<alphatype>none</alphatype>
						<pixelaspectratio>square</pixelaspectratio>
						<anamorphic>FALSE</anamorphic>
						<file id="file-31">
							<name>Taylor_Swift_Travis_Kelce_-_The_New_Power_Couple.mp4</name>
							<pathurl>file://localhost/Users/themalikano/Documents/VideoAutomation/premiere_videos/Taylor_Swift_Travis_Kelce_-_The_New_Power_Couple.mp4</pathurl>
							<rate>
								<timebase>25</timebase>
								<ntsc>FALSE</ntsc>
							</rate>
							<duration>86118</duration>
							<timecode>
								<rate>
									<timebase>25</timebase>
									<ntsc>FALSE</ntsc>
								</rate>
								<string>00:00:00:00</string>
								<frame>0</frame>
								<displayformat>NDF</displayformat>
							</timecode>
							<media>
								<video>
									<samplecharacteristics>
										<rate>
											<timebase>25</timebase>
											<ntsc>FALSE</ntsc>
										</rate>
										<width>1920</width>
										<height>1080</height>
										<anamorphic>FALSE</anamorphic>
										<pixelaspectratio>square</pixelaspectratio>
										<fielddominance>none</fielddominance>
									</samplecharacteristics>
								</video>
								<audio>
									<samplecharacteristics>
										<depth>16</depth>
										<samplerate>44100</samplerate>
									</samplecharacteristics>
									<channelcount>2</channelcount>
								</audio>
							</media>
						</file>
						<link>
							<linkclipref>clipitem-87</linkclipref>
							<mediatype>video</mediatype>
							<trackindex>1</trackindex>
							<clipindex>3</clipindex>
						</link>
						<link>
							<linkclipref>clipitem-95</linkclipref>
							<mediatype>audio</mediatype>
							<trackindex>1</trackindex>
							<clipindex>3</clipindex>
							<groupindex>1</groupindex>
						</link>
						<link>
							<linkclipref>clipitem-103</linkclipref>
							<mediatype>audio</mediatype>
							<trackindex>2</trackindex>
							<clipindex>3</clipindex>
							<groupindex>1</groupindex>
						</link>
						<logginginfo>
							<description />
							<scene />
							<shottake />
							<lognote />
							<good />
							<originalvideofilename />
							<originalaudiofilename />
						</logginginfo>
						<colorinfo>
							<lut />
							<lut1 />
							<asc_sop />
							<asc_sat />
							<lut2 />
						</colorinfo>
					<labels><label2>Caribbean</label2></labels></clipitem>
					<clipitem id="clipitem-88">
						<masterclipid>clipitem-4-27</masterclipid>
						<name>Travis_Kelce_ANNOUNCE_WEDDING_DATE_with_Taylor_Swift_Why_He_was_Delaying_all_Along.mp4</name>
						<enabled>TRUE</enabled>
						<duration>150</duration>
						<rate>
							<timebase>25</timebase>
							<ntsc>FALSE</ntsc>
						</rate>
						<start>108000</start>
						<end>108150</end>
						<in>3900</in>
						<out>4050</out>
						<pproTicksIn>0</pproTicksIn>
						<pproTicksOut>419410897920000</pproTicksOut>
						<alphatype>none</alphatype>
						<pixelaspectratio>square</pixelaspectratio>
						<anamorphic>FALSE</anamorphic>
						<file id="file-32">
							<name>Travis_Kelce_ANNOUNCE_WEDDING_DATE_with_Taylor_Swift_Why_He_was_Delaying_all_Along.mp4</name>
							<pathurl>file://localhost/Users/themalikano/Documents/VideoAutomation/premiere_videos/Travis_Kelce_ANNOUNCE_WEDDING_DATE_with_Taylor_Swift_Why_He_was_Delaying_all_Along.mp4</pathurl>
							<rate>
								<timebase>24</timebase>
								<ntsc>FALSE</ntsc>
							</rate>
							<duration>39627</duration>
							<timecode>
								<rate>
									<timebase>24</timebase>
									<ntsc>FALSE</ntsc>
								</rate>
								<string>00:00:00:00</string>
								<frame>0</frame>
								<displayformat>NDF</displayformat>
							</timecode>
							<media>
								<video>
									<samplecharacteristics>
										<rate>
											<timebase>24</timebase>
											<ntsc>FALSE</ntsc>
										</rate>
										<width>852</width>
										<height>480</height>
										<anamorphic>FALSE</anamorphic>
										<pixelaspectratio>square</pixelaspectratio>
										<fielddominance>none</fielddominance>
									</samplecharacteristics>
								</video>
								<audio>
									<samplecharacteristics>
										<depth>16</depth>
										<samplerate>44100</samplerate>
									</samplecharacteristics>
									<channelcount>2</channelcount>
								</audio>
							</media>
						</file>
						<filter>
							<effect>
								<name>Basic Motion</name>
								<effectid>basic</effectid>
								<effectcategory>motion</effectcategory>
								<effecttype>motion</effecttype>
								<mediatype>video</mediatype>
								<pproBypass>false</pproBypass>
								<parameter authoringApp="PremierePro">
									<parameterid>scale</parameterid>
									<name>Scale</name>
									<valuemin>0</valuemin>
									<valuemax>1000</valuemax>
									<value>225</value>
								</parameter>
								<parameter authoringApp="PremierePro">
									<parameterid>rotation</parameterid>
									<name>Rotation</name>
									<valuemin>-8640</valuemin>
									<valuemax>8640</valuemax>
									<value>0</value>
								</parameter>
								<parameter authoringApp="PremierePro">
									<parameterid>center</parameterid>
									<name>Center</name>
									<value>
										<horiz>0</horiz>
										<vert>0</vert>
									</value>
								</parameter>
								<parameter authoringApp="PremierePro">
									<parameterid>centerOffset</parameterid>
									<name>Anchor Point</name>
									<value>
										<horiz>0</horiz>
										<vert>0</vert>
									</value>
								</parameter>
								<parameter authoringApp="PremierePro">
									<parameterid>antiflicker</parameterid>
									<name>Anti-flicker Filter</name>
									<valuemin>0.0</valuemin>
									<valuemax>1.0</valuemax>
									<value>0</value>
								</parameter>
							</effect>
						</filter>
						<link>
							<linkclipref>clipitem-88</linkclipref>
							<mediatype>video</mediatype>
							<trackindex>1</trackindex>
							<clipindex>4</clipindex>
						</link>
						<link>
							<linkclipref>clipitem-96</linkclipref>
							<mediatype>audio</mediatype>
							<trackindex>1</trackindex>
							<clipindex>4</clipindex>
							<groupindex>1</groupindex>
						</link>
						<link>
							<linkclipref>clipitem-104</linkclipref>
							<mediatype>audio</mediatype>
							<trackindex>2</trackindex>
							<clipindex>4</clipindex>
							<groupindex>1</groupindex>
						</link>
						<logginginfo>
							<description />
							<scene />
							<shottake />
							<lognote />
							<good />
							<originalvideofilename />
							<originalaudiofilename />
						</logginginfo>
						<colorinfo>
							<lut />
							<lut1 />
							<asc_sop />
							<asc_sat />
							<lut2 />
						</colorinfo>
					<labels><label2>Lavender</label2></labels></clipitem>
					<clipitem id="clipitem-87">
						<masterclipid>clipitem-3-197</masterclipid>
						<name>Taylor_Swift_Travis_Kelce_-_The_New_Power_Couple.mp4</name>
						<enabled>TRUE</enabled>
						<duration>150</duration>
						<rate>
							<timebase>25</timebase>
							<ntsc>FALSE</ntsc>
						</rate>
						<start>108150</start>
						<end>108300</end>
						<in>29400</in>
						<out>29550</out>
						<pproTicksIn>0</pproTicksIn>
						<pproTicksOut>875013995520000</pproTicksOut>
						<alphatype>none</alphatype>
						<pixelaspectratio>square</pixelaspectratio>
						<anamorphic>FALSE</anamorphic>
						<file id="file-31">
							<name>Taylor_Swift_Travis_Kelce_-_The_New_Power_Couple.mp4</name>
							<pathurl>file://localhost/Users/themalikano/Documents/VideoAutomation/premiere_videos/Taylor_Swift_Travis_Kelce_-_The_New_Power_Couple.mp4</pathurl>
							<rate>
								<timebase>25</timebase>
								<ntsc>FALSE</ntsc>
							</rate>
							<duration>86118</duration>
							<timecode>
								<rate>
									<timebase>25</timebase>
									<ntsc>FALSE</ntsc>
								</rate>
								<string>00:00:00:00</string>
								<frame>0</frame>
								<displayformat>NDF</displayformat>
							</timecode>
							<media>
								<video>
									<samplecharacteristics>
										<rate>
											<timebase>25</timebase>
											<ntsc>FALSE</ntsc>
										</rate>
										<width>1920</width>
										<height>1080</height>
										<anamorphic>FALSE</anamorphic>
										<pixelaspectratio>square</pixelaspectratio>
										<fielddominance>none</fielddominance>
									</samplecharacteristics>
								</video>
								<audio>
									<samplecharacteristics>
										<depth>16</depth>
										<samplerate>44100</samplerate>
									</samplecharacteristics>
									<channelcount>2</channelcount>
								</audio>
							</media>
						</file>
						<link>
							<linkclipref>clipitem-87</linkclipref>
							<mediatype>video</mediatype>
							<trackindex>1</trackindex>
							<clipindex>3</clipindex>
						</link>
						<link>
							<linkclipref>clipitem-95</linkclipref>
							<mediatype>audio</mediatype>
							<trackindex>1</trackindex>
							<clipindex>3</clipindex>
							<groupindex>1</groupindex>
						</link>
						<link>
							<linkclipref>clipitem-103</linkclipref>
							<mediatype>audio</mediatype>
							<trackindex>2</trackindex>
							<clipindex>3</clipindex>
							<groupindex>1</groupindex>
						</link>
						<logginginfo>
							<description />
							<scene />
							<shottake />
							<lognote />
							<good />
							<originalvideofilename />
							<originalaudiofilename />
						</logginginfo>
						<colorinfo>
							<lut />
							<lut1 />
							<asc_sop />
							<asc_sat />
							<lut2 />
						</colorinfo>
					<labels><label2>Caribbean</label2></labels></clipitem>
					<clipitem id="clipitem-88">
						<masterclipid>clipitem-4-232</masterclipid>
						<name>Travis_Kelce_ANNOUNCE_WEDDING_DATE_with_Taylor_Swift_Why_He_was_Delaying_all_Along.mp4</name>
						<enabled>TRUE</enabled>
						<duration>150</duration>
						<rate>
							<timebase>25</timebase>
							<ntsc>FALSE</ntsc>
						</rate>
						<start>108300</start>
						<end>108450</end>
						<in>34650</in>
						<out>34800</out>
						<pproTicksIn>0</pproTicksIn>
						<pproTicksOut>419410897920000</pproTicksOut>
						<alphatype>none</alphatype>
						<pixelaspectratio>square</pixelaspectratio>
						<anamorphic>FALSE</anamorphic>
						<file id="file-32">
							<name>Travis_Kelce_ANNOUNCE_WEDDING_DATE_with_Taylor_Swift_Why_He_was_Delaying_all_Along.mp4</name>
							<pathurl>file://localhost/Users/themalikano/Documents/VideoAutomation/premiere_videos/Travis_Kelce_ANNOUNCE_WEDDING_DATE_with_Taylor_Swift_Why_He_was_Delaying_all_Along.mp4</pathurl>
							<rate>
								<timebase>24</timebase>
								<ntsc>FALSE</ntsc>
							</rate>
							<duration>39627</duration>
							<timecode>
								<rate>
									<timebase>24</timebase>
									<ntsc>FALSE</ntsc>
								</rate>
								<string>00:00:00:00</string>
								<frame>0</frame>
								<displayformat>NDF</displayformat>
							</timecode>
							<media>
								<video>
									<samplecharacteristics>
										<rate>
											<timebase>24</timebase>
											<ntsc>FALSE</ntsc>
										</rate>
										<width>852</width>
										<height>480</height>
										<anamorphic>FALSE</anamorphic>
										<pixelaspectratio>square</pixelaspectratio>
										<fielddominance>none</fielddominance>
									</samplecharacteristics>
								</video>
								<audio>
									<samplecharacteristics>
										<depth>16</depth>
										<samplerate>44100</samplerate>
									</samplecharacteristics>
									<channelcount>2</channelcount>
								</audio>
							</media>
						</file>
						<filter>
							<effect>
								<name>Basic Motion</name>
								<effectid>basic</effectid>
								<effectcategory>motion</effectcategory>
								<effecttype>motion</effecttype>
								<mediatype>video</mediatype>
								<pproBypass>false</pproBypass>
								<parameter authoringApp="PremierePro">
									<parameterid>scale</parameterid>
									<name>Scale</name>
									<valuemin>0</valuemin>
									<valuemax>1000</valuemax>
									<value>225</value>
								</parameter>
								<parameter authoringApp="PremierePro">
									<parameterid>rotation</parameterid>
									<name>Rotation</name>
									<valuemin>-8640</valuemin>
									<valuemax>8640</valuemax>
									<value>0</value>
								</parameter>
								<parameter authoringApp="PremierePro">
									<parameterid>center</parameterid>
									<name>Center</name>
									<value>
										<horiz>0</horiz>
										<vert>0</vert>
									</value>
								</parameter>
								<parameter authoringApp="PremierePro">
									<parameterid>centerOffset</parameterid>
									<name>Anchor Point</name>
									<value>
										<horiz>0</horiz>
										<vert>0</vert>
									</value>
								</parameter>
								<parameter authoringApp="PremierePro">
									<parameterid>antiflicker</parameterid>
									<name>Anti-flicker Filter</name>
									<valuemin>0.0</valuemin>
									<valuemax>1.0</valuemax>
									<value>0</value>
								</parameter>
							</effect>
						</filter>
						<link>
							<linkclipref>clipitem-88</linkclipref>
							<mediatype>video</mediatype>
							<trackindex>1</trackindex>
							<clipindex>4</clipindex>
						</link>
						<link>
							<linkclipref>clipitem-96</linkclipref>
							<mediatype>audio</mediatype>
							<trackindex>1</trackindex>
							<clipindex>4</clipindex>
							<groupindex>1</groupindex>
						</link>
						<link>
							<linkclipref>clipitem-104</linkclipref>
							<mediatype>audio</mediatype>
							<trackindex>2</trackindex>
							<clipindex>4</clipindex>
							<groupindex>1</groupindex>
						</link>
						<logginginfo>
							<description />
							<scene />
							<shottake />
							<lognote />
							<good />
							<originalvideofilename />
							<originalaudiofilename />
						</logginginfo>
						<colorinfo>
							<lut />
							<lut1 />
							<asc_sop />
							<asc_sat />
							<lut2 />
						</colorinfo>
					<labels><label2>Lavender</label2></labels></clipitem>
					<clipitem id="clipitem-87">
						<masterclipid>clipitem-3-218</masterclipid>
						<name>Taylor_Swift_Travis_Kelce_-_The_New_Power_Couple.mp4</name>
						<enabled>TRUE</enabled>
						<duration>150</duration>
						<rate>
							<timebase>25</timebase>
							<ntsc>FALSE</ntsc>
						</rate>
						<start>108450</start>
						<end>108600</end>
						<in>32550</in>
						<out>32700</out>
						<pproTicksIn>0</pproTicksIn>
						<pproTicksOut>875013995520000</pproTicksOut>
						<alphatype>none</alphatype>
						<pixelaspectratio>square</pixelaspectratio>
						<anamorphic>FALSE</anamorphic>
						<file id="file-31">
							<name>Taylor_Swift_Travis_Kelce_-_The_New_Power_Couple.mp4</name>
							<pathurl>file://localhost/Users/themalikano/Documents/VideoAutomation/premiere_videos/Taylor_Swift_Travis_Kelce_-_The_New_Power_Couple.mp4</pathurl>
							<rate>
								<timebase>25</timebase>
								<ntsc>FALSE</ntsc>
							</rate>
							<duration>86118</duration>
							<timecode>
								<rate>
									<timebase>25</timebase>
									<ntsc>FALSE</ntsc>
								</rate>
								<string>00:00:00:00</string>
								<frame>0</frame>
								<displayformat>NDF</displayformat>
							</timecode>
							<media>
								<video>
									<samplecharacteristics>
										<rate>
											<timebase>25</timebase>
											<ntsc>FALSE</ntsc>
										</rate>
										<width>1920</width>
										<height>1080</height>
										<anamorphic>FALSE</anamorphic>
										<pixelaspectratio>square</pixelaspectratio>
										<fielddominance>none</fielddominance>
									</samplecharacteristics>
								</video>
								<audio>
									<samplecharacteristics>
										<depth>16</depth>
										<samplerate>44100</samplerate>
									</samplecharacteristics>
									<channelcount>2</channelcount>
								</audio>
							</media>
						</file>
						<link>
							<linkclipref>clipitem-87</linkclipref>
							<mediatype>video</mediatype>
							<trackindex>1</trackindex>
							<clipindex>3</clipindex>
						</link>
						<link>
							<linkclipref>clipitem-95</linkclipref>
							<mediatype>audio</mediatype>
							<trackindex>1</trackindex>
							<clipindex>3</clipindex>
							<groupindex>1</groupindex>
						</link>
						<link>
							<linkclipref>clipitem-103</linkclipref>
							<mediatype>audio</mediatype>
							<trackindex>2</trackindex>
							<clipindex>3</clipindex>
							<groupindex>1</groupindex>
						</link>
						<logginginfo>
							<description />
							<scene />
							<shottake />
							<lognote />
							<good />
							<originalvideofilename />
							<originalaudiofilename />
						</logginginfo>
						<colorinfo>
							<lut />
							<lut1 />
							<asc_sop />
							<asc_sat />
							<lut2 />
						</colorinfo>
					<labels><label2>Caribbean</label2></labels></clipitem>
					<clipitem id="clipitem-88">
						<masterclipid>clipitem-4-52</masterclipid>
						<name>Travis_Kelce_ANNOUNCE_WEDDING_DATE_with_Taylor_Swift_Why_He_was_Delaying_all_Along.mp4</name>
						<enabled>TRUE</enabled>
						<duration>150</duration>
						<rate>
							<timebase>25</timebase>
							<ntsc>FALSE</ntsc>
						</rate>
						<start>108600</start>
						<end>108750</end>
						<in>7650</in>
						<out>7800</out>
						<pproTicksIn>0</pproTicksIn>
						<pproTicksOut>419410897920000</pproTicksOut>
						<alphatype>none</alphatype>
						<pixelaspectratio>square</pixelaspectratio>
						<anamorphic>FALSE</anamorphic>
						<file id="file-32">
							<name>Travis_Kelce_ANNOUNCE_WEDDING_DATE_with_Taylor_Swift_Why_He_was_Delaying_all_Along.mp4</name>
							<pathurl>file://localhost/Users/themalikano/Documents/VideoAutomation/premiere_videos/Travis_Kelce_ANNOUNCE_WEDDING_DATE_with_Taylor_Swift_Why_He_was_Delaying_all_Along.mp4</pathurl>
							<rate>
								<timebase>24</timebase>
								<ntsc>FALSE</ntsc>
							</rate>
							<duration>39627</duration>
							<timecode>
								<rate>
									<timebase>24</timebase>
									<ntsc>FALSE</ntsc>
								</rate>
								<string>00:00:00:00</string>
								<frame>0</frame>
								<displayformat>NDF</displayformat>
							</timecode>
							<media>
								<video>
									<samplecharacteristics>
										<rate>
											<timebase>24</timebase>
											<ntsc>FALSE</ntsc>
										</rate>
										<width>852</width>
										<height>480</height>
										<anamorphic>FALSE</anamorphic>
										<pixelaspectratio>square</pixelaspectratio>
										<fielddominance>none</fielddominance>
									</samplecharacteristics>
								</video>
								<audio>
									<samplecharacteristics>
										<depth>16</depth>
										<samplerate>44100</samplerate>
									</samplecharacteristics>
									<channelcount>2</channelcount>
								</audio>
							</media>
						</file>
						<filter>
							<effect>
								<name>Basic Motion</name>
								<effectid>basic</effectid>
								<effectcategory>motion</effectcategory>
								<effecttype>motion</effecttype>
								<mediatype>video</mediatype>
								<pproBypass>false</pproBypass>
								<parameter authoringApp="PremierePro">
									<parameterid>scale</parameterid>
									<name>Scale</name>
									<valuemin>0</valuemin>
									<valuemax>1000</valuemax>
									<value>225</value>
								</parameter>
								<parameter authoringApp="PremierePro">
									<parameterid>rotation</parameterid>
									<name>Rotation</name>
									<valuemin>-8640</valuemin>
									<valuemax>8640</valuemax>
									<value>0</value>
								</parameter>
								<parameter authoringApp="PremierePro">
									<parameterid>center</parameterid>
									<name>Center</name>
									<value>
										<horiz>0</horiz>
										<vert>0</vert>
									</value>
								</parameter>
								<parameter authoringApp="PremierePro">
									<parameterid>centerOffset</parameterid>
									<name>Anchor Point</name>
									<value>
										<horiz>0</horiz>
										<vert>0</vert>
									</value>
								</parameter>
								<parameter authoringApp="PremierePro">
									<parameterid>antiflicker</parameterid>
									<name>Anti-flicker Filter</name>
									<valuemin>0.0</valuemin>
									<valuemax>1.0</valuemax>
									<value>0</value>
								</parameter>
							</effect>
						</filter>
						<link>
							<linkclipref>clipitem-88</linkclipref>
							<mediatype>video</mediatype>
							<trackindex>1</trackindex>
							<clipindex>4</clipindex>
						</link>
						<link>
							<linkclipref>clipitem-96</linkclipref>
							<mediatype>audio</mediatype>
							<trackindex>1</trackindex>
							<clipindex>4</clipindex>
							<groupindex>1</groupindex>
						</link>
						<link>
							<linkclipref>clipitem-104</linkclipref>
							<mediatype>audio</mediatype>
							<trackindex>2</trackindex>
							<clipindex>4</clipindex>
							<groupindex>1</groupindex>
						</link>
						<logginginfo>
							<description />
							<scene />
							<shottake />
							<lognote />
							<good />
							<originalvideofilename />
							<originalaudiofilename />
						</logginginfo>
						<colorinfo>
							<lut />
							<lut1 />
							<asc_sop />
							<asc_sat />
							<lut2 />
						</colorinfo>
					<labels><label2>Lavender</label2></labels></clipitem>
					<clipitem id="clipitem-87">
						<masterclipid>clipitem-3-461</masterclipid>
						<name>Taylor_Swift_Travis_Kelce_-_The_New_Power_Couple.mp4</name>
						<enabled>TRUE</enabled>
						<duration>150</duration>
						<rate>
							<timebase>25</timebase>
							<ntsc>FALSE</ntsc>
						</rate>
						<start>108750</start>
						<end>108900</end>
						<in>69000</in>
						<out>69150</out>
						<pproTicksIn>0</pproTicksIn>
						<pproTicksOut>875013995520000</pproTicksOut>
						<alphatype>none</alphatype>
						<pixelaspectratio>square</pixelaspectratio>
						<anamorphic>FALSE</anamorphic>
						<file id="file-31">
							<name>Taylor_Swift_Travis_Kelce_-_The_New_Power_Couple.mp4</name>
							<pathurl>file://localhost/Users/themalikano/Documents/VideoAutomation/premiere_videos/Taylor_Swift_Travis_Kelce_-_The_New_Power_Couple.mp4</pathurl>
							<rate>
								<timebase>25</timebase>
								<ntsc>FALSE</ntsc>
							</rate>
							<duration>86118</duration>
							<timecode>
								<rate>
									<timebase>25</timebase>
									<ntsc>FALSE</ntsc>
								</rate>
								<string>00:00:00:00</string>
								<frame>0</frame>
								<displayformat>NDF</displayformat>
							</timecode>
							<media>
								<video>
									<samplecharacteristics>
										<rate>
											<timebase>25</timebase>
											<ntsc>FALSE</ntsc>
										</rate>
										<width>1920</width>
										<height>1080</height>
										<anamorphic>FALSE</anamorphic>
										<pixelaspectratio>square</pixelaspectratio>
										<fielddominance>none</fielddominance>
									</samplecharacteristics>
								</video>
								<audio>
									<samplecharacteristics>
										<depth>16</depth>
										<samplerate>44100</samplerate>
									</samplecharacteristics>
									<channelcount>2</channelcount>
								</audio>
							</media>
						</file>
						<link>
							<linkclipref>clipitem-87</linkclipref>
							<mediatype>video</mediatype>
							<trackindex>1</trackindex>
							<clipindex>3</clipindex>
						</link>
						<link>
							<linkclipref>clipitem-95</linkclipref>
							<mediatype>audio</mediatype>
							<trackindex>1</trackindex>
							<clipindex>3</clipindex>
							<groupindex>1</groupindex>
						</link>
						<link>
							<linkclipref>clipitem-103</linkclipref>
							<mediatype>audio</mediatype>
							<trackindex>2</trackindex>
							<clipindex>3</clipindex>
							<groupindex>1</groupindex>
						</link>
						<logginginfo>
							<description />
							<scene />
							<shottake />
							<lognote />
							<good />
							<originalvideofilename />
							<originalaudiofilename />
						</logginginfo>
						<colorinfo>
							<lut />
							<lut1 />
							<asc_sop />
							<asc_sat />
							<lut2 />
						</colorinfo>
					<labels><label2>Caribbean</label2></labels></clipitem>
					<clipitem id="clipitem-88">
						<masterclipid>clipitem-4-247</masterclipid>
						<name>Travis_Kelce_ANNOUNCE_WEDDING_DATE_with_Taylor_Swift_Why_He_was_Delaying_all_Along.mp4</name>
						<enabled>TRUE</enabled>
						<duration>150</duration>
						<rate>
							<timebase>25</timebase>
							<ntsc>FALSE</ntsc>
						</rate>
						<start>108900</start>
						<end>109050</end>
						<in>36900</in>
						<out>37050</out>
						<pproTicksIn>0</pproTicksIn>
						<pproTicksOut>419410897920000</pproTicksOut>
						<alphatype>none</alphatype>
						<pixelaspectratio>square</pixelaspectratio>
						<anamorphic>FALSE</anamorphic>
						<file id="file-32">
							<name>Travis_Kelce_ANNOUNCE_WEDDING_DATE_with_Taylor_Swift_Why_He_was_Delaying_all_Along.mp4</name>
							<pathurl>file://localhost/Users/themalikano/Documents/VideoAutomation/premiere_videos/Travis_Kelce_ANNOUNCE_WEDDING_DATE_with_Taylor_Swift_Why_He_was_Delaying_all_Along.mp4</pathurl>
							<rate>
								<timebase>24</timebase>
								<ntsc>FALSE</ntsc>
							</rate>
							<duration>39627</duration>
							<timecode>
								<rate>
									<timebase>24</timebase>
									<ntsc>FALSE</ntsc>
								</rate>
								<string>00:00:00:00</string>
								<frame>0</frame>
								<displayformat>NDF</displayformat>
							</timecode>
							<media>
								<video>
									<samplecharacteristics>
										<rate>
											<timebase>24</timebase>
											<ntsc>FALSE</ntsc>
										</rate>
										<width>852</width>
										<height>480</height>
										<anamorphic>FALSE</anamorphic>
										<pixelaspectratio>square</pixelaspectratio>
										<fielddominance>none</fielddominance>
									</samplecharacteristics>
								</video>
								<audio>
									<samplecharacteristics>
										<depth>16</depth>
										<samplerate>44100</samplerate>
									</samplecharacteristics>
									<channelcount>2</channelcount>
								</audio>
							</media>
						</file>
						<filter>
							<effect>
								<name>Basic Motion</name>
								<effectid>basic</effectid>
								<effectcategory>motion</effectcategory>
								<effecttype>motion</effecttype>
								<mediatype>video</mediatype>
								<pproBypass>false</pproBypass>
								<parameter authoringApp="PremierePro">
									<parameterid>scale</parameterid>
									<name>Scale</name>
									<valuemin>0</valuemin>
									<valuemax>1000</valuemax>
									<value>225</value>
								</parameter>
								<parameter authoringApp="PremierePro">
									<parameterid>rotation</parameterid>
									<name>Rotation</name>
									<valuemin>-8640</valuemin>
									<valuemax>8640</valuemax>
									<value>0</value>
								</parameter>
								<parameter authoringApp="PremierePro">
									<parameterid>center</parameterid>
									<name>Center</name>
									<value>
										<horiz>0</horiz>
										<vert>0</vert>
									</value>
								</parameter>
								<parameter authoringApp="PremierePro">
									<parameterid>centerOffset</parameterid>
									<name>Anchor Point</name>
									<value>
										<horiz>0</horiz>
										<vert>0</vert>
									</value>
								</parameter>
								<parameter authoringApp="PremierePro">
									<parameterid>antiflicker</parameterid>
									<name>Anti-flicker Filter</name>
									<valuemin>0.0</valuemin>
									<valuemax>1.0</valuemax>
									<value>0</value>
								</parameter>
							</effect>
						</filter>
						<link>
							<linkclipref>clipitem-88</linkclipref>
							<mediatype>video</mediatype>
							<trackindex>1</trackindex>
							<clipindex>4</clipindex>
						</link>
						<link>
							<linkclipref>clipitem-96</linkclipref>
							<mediatype>audio</mediatype>
							<trackindex>1</trackindex>
							<clipindex>4</clipindex>
							<groupindex>1</groupindex>
						</link>
						<link>
							<linkclipref>clipitem-104</linkclipref>
							<mediatype>audio</mediatype>
							<trackindex>2</trackindex>
							<clipindex>4</clipindex>
							<groupindex>1</groupindex>
						</link>
						<logginginfo>
							<description />
							<scene />
							<shottake />
							<lognote />
							<good />
							<originalvideofilename />
							<originalaudiofilename />
						</logginginfo>
						<colorinfo>
							<lut />
							<lut1 />
							<asc_sop />
							<asc_sat />
							<lut2 />
						</colorinfo>
					<labels><label2>Lavender</label2></labels></clipitem>
					<clipitem id="clipitem-87">
						<masterclipid>clipitem-3-382</masterclipid>
						<name>Taylor_Swift_Travis_Kelce_-_The_New_Power_Couple.mp4</name>
						<enabled>TRUE</enabled>
						<duration>150</duration>
						<rate>
							<timebase>25</timebase>
							<ntsc>FALSE</ntsc>
						</rate>
						<start>109050</start>
						<end>109200</end>
						<in>57150</in>
						<out>57300</out>
						<pproTicksIn>0</pproTicksIn>
						<pproTicksOut>875013995520000</pproTicksOut>
						<alphatype>none</alphatype>
						<pixelaspectratio>square</pixelaspectratio>
						<anamorphic>FALSE</anamorphic>
						<file id="file-31">
							<name>Taylor_Swift_Travis_Kelce_-_The_New_Power_Couple.mp4</name>
							<pathurl>file://localhost/Users/themalikano/Documents/VideoAutomation/premiere_videos/Taylor_Swift_Travis_Kelce_-_The_New_Power_Couple.mp4</pathurl>
							<rate>
								<timebase>25</timebase>
								<ntsc>FALSE</ntsc>
							</rate>
							<duration>86118</duration>
							<timecode>
								<rate>
									<timebase>25</timebase>
									<ntsc>FALSE</ntsc>
								</rate>
								<string>00:00:00:00</string>
								<frame>0</frame>
								<displayformat>NDF</displayformat>
							</timecode>
							<media>
								<video>
									<samplecharacteristics>
										<rate>
											<timebase>25</timebase>
											<ntsc>FALSE</ntsc>
										</rate>
										<width>1920</width>
										<height>1080</height>
										<anamorphic>FALSE</anamorphic>
										<pixelaspectratio>square</pixelaspectratio>
										<fielddominance>none</fielddominance>
									</samplecharacteristics>
								</video>
								<audio>
									<samplecharacteristics>
										<depth>16</depth>
										<samplerate>44100</samplerate>
									</samplecharacteristics>
									<channelcount>2</channelcount>
								</audio>
							</media>
						</file>
						<link>
							<linkclipref>clipitem-87</linkclipref>
							<mediatype>video</mediatype>
							<trackindex>1</trackindex>
							<clipindex>3</clipindex>
						</link>
						<link>
							<linkclipref>clipitem-95</linkclipref>
							<mediatype>audio</mediatype>
							<trackindex>1</trackindex>
							<clipindex>3</clipindex>
							<groupindex>1</groupindex>
						</link>
						<link>
							<linkclipref>clipitem-103</linkclipref>
							<mediatype>audio</mediatype>
							<trackindex>2</trackindex>
							<clipindex>3</clipindex>
							<groupindex>1</groupindex>
						</link>
						<logginginfo>
							<description />
							<scene />
							<shottake />
							<lognote />
							<good />
							<originalvideofilename />
							<originalaudiofilename />
						</logginginfo>
						<colorinfo>
							<lut />
							<lut1 />
							<asc_sop />
							<asc_sat />
							<lut2 />
						</colorinfo>
					<labels><label2>Caribbean</label2></labels></clipitem>
					<clipitem id="clipitem-88">
						<masterclipid>clipitem-4-236</masterclipid>
						<name>Travis_Kelce_ANNOUNCE_WEDDING_DATE_with_Taylor_Swift_Why_He_was_Delaying_all_Along.mp4</name>
						<enabled>TRUE</enabled>
						<duration>150</duration>
						<rate>
							<timebase>25</timebase>
							<ntsc>FALSE</ntsc>
						</rate>
						<start>109200</start>
						<end>109350</end>
						<in>35250</in>
						<out>35400</out>
						<pproTicksIn>0</pproTicksIn>
						<pproTicksOut>419410897920000</pproTicksOut>
						<alphatype>none</alphatype>
						<pixelaspectratio>square</pixelaspectratio>
						<anamorphic>FALSE</anamorphic>
						<file id="file-32">
							<name>Travis_Kelce_ANNOUNCE_WEDDING_DATE_with_Taylor_Swift_Why_He_was_Delaying_all_Along.mp4</name>
							<pathurl>file://localhost/Users/themalikano/Documents/VideoAutomation/premiere_videos/Travis_Kelce_ANNOUNCE_WEDDING_DATE_with_Taylor_Swift_Why_He_was_Delaying_all_Along.mp4</pathurl>
							<rate>
								<timebase>24</timebase>
								<ntsc>FALSE</ntsc>
							</rate>
							<duration>39627</duration>
							<timecode>
								<rate>
									<timebase>24</timebase>
									<ntsc>FALSE</ntsc>
								</rate>
								<string>00:00:00:00</string>
								<frame>0</frame>
								<displayformat>NDF</displayformat>
							</timecode>
							<media>
								<video>
									<samplecharacteristics>
										<rate>
											<timebase>24</timebase>
											<ntsc>FALSE</ntsc>
										</rate>
										<width>852</width>
										<height>480</height>
										<anamorphic>FALSE</anamorphic>
										<pixelaspectratio>square</pixelaspectratio>
										<fielddominance>none</fielddominance>
									</samplecharacteristics>
								</video>
								<audio>
									<samplecharacteristics>
										<depth>16</depth>
										<samplerate>44100</samplerate>
									</samplecharacteristics>
									<channelcount>2</channelcount>
								</audio>
							</media>
						</file>
						<filter>
							<effect>
								<name>Basic Motion</name>
								<effectid>basic</effectid>
								<effectcategory>motion</effectcategory>
								<effecttype>motion</effecttype>
								<mediatype>video</mediatype>
								<pproBypass>false</pproBypass>
								<parameter authoringApp="PremierePro">
									<parameterid>scale</parameterid>
									<name>Scale</name>
									<valuemin>0</valuemin>
									<valuemax>1000</valuemax>
									<value>225</value>
								</parameter>
								<parameter authoringApp="PremierePro">
									<parameterid>rotation</parameterid>
									<name>Rotation</name>
									<valuemin>-8640</valuemin>
									<valuemax>8640</valuemax>
									<value>0</value>
								</parameter>
								<parameter authoringApp="PremierePro">
									<parameterid>center</parameterid>
									<name>Center</name>
									<value>
										<horiz>0</horiz>
										<vert>0</vert>
									</value>
								</parameter>
								<parameter authoringApp="PremierePro">
									<parameterid>centerOffset</parameterid>
									<name>Anchor Point</name>
									<value>
										<horiz>0</horiz>
										<vert>0</vert>
									</value>
								</parameter>
								<parameter authoringApp="PremierePro">
									<parameterid>antiflicker</parameterid>
									<name>Anti-flicker Filter</name>
									<valuemin>0.0</valuemin>
									<valuemax>1.0</valuemax>
									<value>0</value>
								</parameter>
							</effect>
						</filter>
						<link>
							<linkclipref>clipitem-88</linkclipref>
							<mediatype>video</mediatype>
							<trackindex>1</trackindex>
							<clipindex>4</clipindex>
						</link>
						<link>
							<linkclipref>clipitem-96</linkclipref>
							<mediatype>audio</mediatype>
							<trackindex>1</trackindex>
							<clipindex>4</clipindex>
							<groupindex>1</groupindex>
						</link>
						<link>
							<linkclipref>clipitem-104</linkclipref>
							<mediatype>audio</mediatype>
							<trackindex>2</trackindex>
							<clipindex>4</clipindex>
							<groupindex>1</groupindex>
						</link>
						<logginginfo>
							<description />
							<scene />
							<shottake />
							<lognote />
							<good />
							<originalvideofilename />
							<originalaudiofilename />
						</logginginfo>
						<colorinfo>
							<lut />
							<lut1 />
							<asc_sop />
							<asc_sat />
							<lut2 />
						</colorinfo>
					<labels><label2>Lavender</label2></labels></clipitem>
					<clipitem id="clipitem-87">
						<masterclipid>clipitem-3-86</masterclipid>
						<name>Taylor_Swift_Travis_Kelce_-_The_New_Power_Couple.mp4</name>
						<enabled>TRUE</enabled>
						<duration>150</duration>
						<rate>
							<timebase>25</timebase>
							<ntsc>FALSE</ntsc>
						</rate>
						<start>109350</start>
						<end>109500</end>
						<in>12750</in>
						<out>12900</out>
						<pproTicksIn>0</pproTicksIn>
						<pproTicksOut>875013995520000</pproTicksOut>
						<alphatype>none</alphatype>
						<pixelaspectratio>square</pixelaspectratio>
						<anamorphic>FALSE</anamorphic>
						<file id="file-31">
							<name>Taylor_Swift_Travis_Kelce_-_The_New_Power_Couple.mp4</name>
							<pathurl>file://localhost/Users/themalikano/Documents/VideoAutomation/premiere_videos/Taylor_Swift_Travis_Kelce_-_The_New_Power_Couple.mp4</pathurl>
							<rate>
								<timebase>25</timebase>
								<ntsc>FALSE</ntsc>
							</rate>
							<duration>86118</duration>
							<timecode>
								<rate>
									<timebase>25</timebase>
									<ntsc>FALSE</ntsc>
								</rate>
								<string>00:00:00:00</string>
								<frame>0</frame>
								<displayformat>NDF</displayformat>
							</timecode>
							<media>
								<video>
									<samplecharacteristics>
										<rate>
											<timebase>25</timebase>
											<ntsc>FALSE</ntsc>
										</rate>
										<width>1920</width>
										<height>1080</height>
										<anamorphic>FALSE</anamorphic>
										<pixelaspectratio>square</pixelaspectratio>
										<fielddominance>none</fielddominance>
									</samplecharacteristics>
								</video>
								<audio>
									<samplecharacteristics>
										<depth>16</depth>
										<samplerate>44100</samplerate>
									</samplecharacteristics>
									<channelcount>2</channelcount>
								</audio>
							</media>
						</file>
						<link>
							<linkclipref>clipitem-87</linkclipref>
							<mediatype>video</mediatype>
							<trackindex>1</trackindex>
							<clipindex>3</clipindex>
						</link>
						<link>
							<linkclipref>clipitem-95</linkclipref>
							<mediatype>audio</mediatype>
							<trackindex>1</trackindex>
							<clipindex>3</clipindex>
							<groupindex>1</groupindex>
						</link>
						<link>
							<linkclipref>clipitem-103</linkclipref>
							<mediatype>audio</mediatype>
							<trackindex>2</trackindex>
							<clipindex>3</clipindex>
							<groupindex>1</groupindex>
						</link>
						<logginginfo>
							<description />
							<scene />
							<shottake />
							<lognote />
							<good />
							<originalvideofilename />
							<originalaudiofilename />
						</logginginfo>
						<colorinfo>
							<lut />
							<lut1 />
							<asc_sop />
							<asc_sat />
							<lut2 />
						</colorinfo>
					<labels><label2>Caribbean</label2></labels></clipitem>
					<clipitem id="clipitem-88">
						<masterclipid>clipitem-4-123</masterclipid>
						<name>Travis_Kelce_ANNOUNCE_WEDDING_DATE_with_Taylor_Swift_Why_He_was_Delaying_all_Along.mp4</name>
						<enabled>TRUE</enabled>
						<duration>150</duration>
						<rate>
							<timebase>25</timebase>
							<ntsc>FALSE</ntsc>
						</rate>
						<start>109500</start>
						<end>109650</end>
						<in>18300</in>
						<out>18450</out>
						<pproTicksIn>0</pproTicksIn>
						<pproTicksOut>419410897920000</pproTicksOut>
						<alphatype>none</alphatype>
						<pixelaspectratio>square</pixelaspectratio>
						<anamorphic>FALSE</anamorphic>
						<file id="file-32">
							<name>Travis_Kelce_ANNOUNCE_WEDDING_DATE_with_Taylor_Swift_Why_He_was_Delaying_all_Along.mp4</name>
							<pathurl>file://localhost/Users/themalikano/Documents/VideoAutomation/premiere_videos/Travis_Kelce_ANNOUNCE_WEDDING_DATE_with_Taylor_Swift_Why_He_was_Delaying_all_Along.mp4</pathurl>
							<rate>
								<timebase>24</timebase>
								<ntsc>FALSE</ntsc>
							</rate>
							<duration>39627</duration>
							<timecode>
								<rate>
									<timebase>24</timebase>
									<ntsc>FALSE</ntsc>
								</rate>
								<string>00:00:00:00</string>
								<frame>0</frame>
								<displayformat>NDF</displayformat>
							</timecode>
							<media>
								<video>
									<samplecharacteristics>
										<rate>
											<timebase>24</timebase>
											<ntsc>FALSE</ntsc>
										</rate>
										<width>852</width>
										<height>480</height>
										<anamorphic>FALSE</anamorphic>
										<pixelaspectratio>square</pixelaspectratio>
										<fielddominance>none</fielddominance>
									</samplecharacteristics>
								</video>
								<audio>
									<samplecharacteristics>
										<depth>16</depth>
										<samplerate>44100</samplerate>
									</samplecharacteristics>
									<channelcount>2</channelcount>
								</audio>
							</media>
						</file>
						<filter>
							<effect>
								<name>Basic Motion</name>
								<effectid>basic</effectid>
								<effectcategory>motion</effectcategory>
								<effecttype>motion</effecttype>
								<mediatype>video</mediatype>
								<pproBypass>false</pproBypass>
								<parameter authoringApp="PremierePro">
									<parameterid>scale</parameterid>
									<name>Scale</name>
									<valuemin>0</valuemin>
									<valuemax>1000</valuemax>
									<value>225</value>
								</parameter>
								<parameter authoringApp="PremierePro">
									<parameterid>rotation</parameterid>
									<name>Rotation</name>
									<valuemin>-8640</valuemin>
									<valuemax>8640</valuemax>
									<value>0</value>
								</parameter>
								<parameter authoringApp="PremierePro">
									<parameterid>center</parameterid>
									<name>Center</name>
									<value>
										<horiz>0</horiz>
										<vert>0</vert>
									</value>
								</parameter>
								<parameter authoringApp="PremierePro">
									<parameterid>centerOffset</parameterid>
									<name>Anchor Point</name>
									<value>
										<horiz>0</horiz>
										<vert>0</vert>
									</value>
								</parameter>
								<parameter authoringApp="PremierePro">
									<parameterid>antiflicker</parameterid>
									<name>Anti-flicker Filter</name>
									<valuemin>0.0</valuemin>
									<valuemax>1.0</valuemax>
									<value>0</value>
								</parameter>
							</effect>
						</filter>
						<link>
							<linkclipref>clipitem-88</linkclipref>
							<mediatype>video</mediatype>
							<trackindex>1</trackindex>
							<clipindex>4</clipindex>
						</link>
						<link>
							<linkclipref>clipitem-96</linkclipref>
							<mediatype>audio</mediatype>
							<trackindex>1</trackindex>
							<clipindex>4</clipindex>
							<groupindex>1</groupindex>
						</link>
						<link>
							<linkclipref>clipitem-104</linkclipref>
							<mediatype>audio</mediatype>
							<trackindex>2</trackindex>
							<clipindex>4</clipindex>
							<groupindex>1</groupindex>
						</link>
						<logginginfo>
							<description />
							<scene />
							<shottake />
							<lognote />
							<good />
							<originalvideofilename />
							<originalaudiofilename />
						</logginginfo>
						<colorinfo>
							<lut />
							<lut1 />
							<asc_sop />
							<asc_sat />
							<lut2 />
						</colorinfo>
					<labels><label2>Lavender</label2></labels></clipitem>
					<clipitem id="clipitem-87">
						<masterclipid>clipitem-3-465</masterclipid>
						<name>Taylor_Swift_Travis_Kelce_-_The_New_Power_Couple.mp4</name>
						<enabled>TRUE</enabled>
						<duration>150</duration>
						<rate>
							<timebase>25</timebase>
							<ntsc>FALSE</ntsc>
						</rate>
						<start>109650</start>
						<end>109800</end>
						<in>69600</in>
						<out>69750</out>
						<pproTicksIn>0</pproTicksIn>
						<pproTicksOut>875013995520000</pproTicksOut>
						<alphatype>none</alphatype>
						<pixelaspectratio>square</pixelaspectratio>
						<anamorphic>FALSE</anamorphic>
						<file id="file-31">
							<name>Taylor_Swift_Travis_Kelce_-_The_New_Power_Couple.mp4</name>
							<pathurl>file://localhost/Users/themalikano/Documents/VideoAutomation/premiere_videos/Taylor_Swift_Travis_Kelce_-_The_New_Power_Couple.mp4</pathurl>
							<rate>
								<timebase>25</timebase>
								<ntsc>FALSE</ntsc>
							</rate>
							<duration>86118</duration>
							<timecode>
								<rate>
									<timebase>25</timebase>
									<ntsc>FALSE</ntsc>
								</rate>
								<string>00:00:00:00</string>
								<frame>0</frame>
								<displayformat>NDF</displayformat>
							</timecode>
							<media>
								<video>
									<samplecharacteristics>
										<rate>
											<timebase>25</timebase>
											<ntsc>FALSE</ntsc>
										</rate>
										<width>1920</width>
										<height>1080</height>
										<anamorphic>FALSE</anamorphic>
										<pixelaspectratio>square</pixelaspectratio>
										<fielddominance>none</fielddominance>
									</samplecharacteristics>
								</video>
								<audio>
									<samplecharacteristics>
										<depth>16</depth>
										<samplerate>44100</samplerate>
									</samplecharacteristics>
									<channelcount>2</channelcount>
								</audio>
							</media>
						</file>
						<link>
							<linkclipref>clipitem-87</linkclipref>
							<mediatype>video</mediatype>
							<trackindex>1</trackindex>
							<clipindex>3</clipindex>
						</link>
						<link>
							<linkclipref>clipitem-95</linkclipref>
							<mediatype>audio</mediatype>
							<trackindex>1</trackindex>
							<clipindex>3</clipindex>
							<groupindex>1</groupindex>
						</link>
						<link>
							<linkclipref>clipitem-103</linkclipref>
							<mediatype>audio</mediatype>
							<trackindex>2</trackindex>
							<clipindex>3</clipindex>
							<groupindex>1</groupindex>
						</link>
						<logginginfo>
							<description />
							<scene />
							<shottake />
							<lognote />
							<good />
							<originalvideofilename />
							<originalaudiofilename />
						</logginginfo>
						<colorinfo>
							<lut />
							<lut1 />
							<asc_sop />
							<asc_sat />
							<lut2 />
						</colorinfo>
					<labels><label2>Caribbean</label2></labels></clipitem>
					<clipitem id="clipitem-88">
						<masterclipid>clipitem-4-169</masterclipid>
						<name>Travis_Kelce_ANNOUNCE_WEDDING_DATE_with_Taylor_Swift_Why_He_was_Delaying_all_Along.mp4</name>
						<enabled>TRUE</enabled>
						<duration>150</duration>
						<rate>
							<timebase>25</timebase>
							<ntsc>FALSE</ntsc>
						</rate>
						<start>109800</start>
						<end>109950</end>
						<in>25200</in>
						<out>25350</out>
						<pproTicksIn>0</pproTicksIn>
						<pproTicksOut>419410897920000</pproTicksOut>
						<alphatype>none</alphatype>
						<pixelaspectratio>square</pixelaspectratio>
						<anamorphic>FALSE</anamorphic>
						<file id="file-32">
							<name>Travis_Kelce_ANNOUNCE_WEDDING_DATE_with_Taylor_Swift_Why_He_was_Delaying_all_Along.mp4</name>
							<pathurl>file://localhost/Users/themalikano/Documents/VideoAutomation/premiere_videos/Travis_Kelce_ANNOUNCE_WEDDING_DATE_with_Taylor_Swift_Why_He_was_Delaying_all_Along.mp4</pathurl>
							<rate>
								<timebase>24</timebase>
								<ntsc>FALSE</ntsc>
							</rate>
							<duration>39627</duration>
							<timecode>
								<rate>
									<timebase>24</timebase>
									<ntsc>FALSE</ntsc>
								</rate>
								<string>00:00:00:00</string>
								<frame>0</frame>
								<displayformat>NDF</displayformat>
							</timecode>
							<media>
								<video>
									<samplecharacteristics>
										<rate>
											<timebase>24</timebase>
											<ntsc>FALSE</ntsc>
										</rate>
										<width>852</width>
										<height>480</height>
										<anamorphic>FALSE</anamorphic>
										<pixelaspectratio>square</pixelaspectratio>
										<fielddominance>none</fielddominance>
									</samplecharacteristics>
								</video>
								<audio>
									<samplecharacteristics>
										<depth>16</depth>
										<samplerate>44100</samplerate>
									</samplecharacteristics>
									<channelcount>2</channelcount>
								</audio>
							</media>
						</file>
						<filter>
							<effect>
								<name>Basic Motion</name>
								<effectid>basic</effectid>
								<effectcategory>motion</effectcategory>
								<effecttype>motion</effecttype>
								<mediatype>video</mediatype>
								<pproBypass>false</pproBypass>
								<parameter authoringApp="PremierePro">
									<parameterid>scale</parameterid>
									<name>Scale</name>
									<valuemin>0</valuemin>
									<valuemax>1000</valuemax>
									<value>225</value>
								</parameter>
								<parameter authoringApp="PremierePro">
									<parameterid>rotation</parameterid>
									<name>Rotation</name>
									<valuemin>-8640</valuemin>
									<valuemax>8640</valuemax>
									<value>0</value>
								</parameter>
								<parameter authoringApp="PremierePro">
									<parameterid>center</parameterid>
									<name>Center</name>
									<value>
										<horiz>0</horiz>
										<vert>0</vert>
									</value>
								</parameter>
								<parameter authoringApp="PremierePro">
									<parameterid>centerOffset</parameterid>
									<name>Anchor Point</name>
									<value>
										<horiz>0</horiz>
										<vert>0</vert>
									</value>
								</parameter>
								<parameter authoringApp="PremierePro">
									<parameterid>antiflicker</parameterid>
									<name>Anti-flicker Filter</name>
									<valuemin>0.0</valuemin>
									<valuemax>1.0</valuemax>
									<value>0</value>
								</parameter>
							</effect>
						</filter>
						<link>
							<linkclipref>clipitem-88</linkclipref>
							<mediatype>video</mediatype>
							<trackindex>1</trackindex>
							<clipindex>4</clipindex>
						</link>
						<link>
							<linkclipref>clipitem-96</linkclipref>
							<mediatype>audio</mediatype>
							<trackindex>1</trackindex>
							<clipindex>4</clipindex>
							<groupindex>1</groupindex>
						</link>
						<link>
							<linkclipref>clipitem-104</linkclipref>
							<mediatype>audio</mediatype>
							<trackindex>2</trackindex>
							<clipindex>4</clipindex>
							<groupindex>1</groupindex>
						</link>
						<logginginfo>
							<description />
							<scene />
							<shottake />
							<lognote />
							<good />
							<originalvideofilename />
							<originalaudiofilename />
						</logginginfo>
						<colorinfo>
							<lut />
							<lut1 />
							<asc_sop />
							<asc_sat />
							<lut2 />
						</colorinfo>
					<labels><label2>Lavender</label2></labels></clipitem>
					<clipitem id="clipitem-87">
						<masterclipid>clipitem-3-31</masterclipid>
						<name>Taylor_Swift_Travis_Kelce_-_The_New_Power_Couple.mp4</name>
						<enabled>TRUE</enabled>
						<duration>150</duration>
						<rate>
							<timebase>25</timebase>
							<ntsc>FALSE</ntsc>
						</rate>
						<start>109950</start>
						<end>110100</end>
						<in>4500</in>
						<out>4650</out>
						<pproTicksIn>0</pproTicksIn>
						<pproTicksOut>875013995520000</pproTicksOut>
						<alphatype>none</alphatype>
						<pixelaspectratio>square</pixelaspectratio>
						<anamorphic>FALSE</anamorphic>
						<file id="file-31">
							<name>Taylor_Swift_Travis_Kelce_-_The_New_Power_Couple.mp4</name>
							<pathurl>file://localhost/Users/themalikano/Documents/VideoAutomation/premiere_videos/Taylor_Swift_Travis_Kelce_-_The_New_Power_Couple.mp4</pathurl>
							<rate>
								<timebase>25</timebase>
								<ntsc>FALSE</ntsc>
							</rate>
							<duration>86118</duration>
							<timecode>
								<rate>
									<timebase>25</timebase>
									<ntsc>FALSE</ntsc>
								</rate>
								<string>00:00:00:00</string>
								<frame>0</frame>
								<displayformat>NDF</displayformat>
							</timecode>
							<media>
								<video>
									<samplecharacteristics>
										<rate>
											<timebase>25</timebase>
											<ntsc>FALSE</ntsc>
										</rate>
										<width>1920</width>
										<height>1080</height>
										<anamorphic>FALSE</anamorphic>
										<pixelaspectratio>square</pixelaspectratio>
										<fielddominance>none</fielddominance>
									</samplecharacteristics>
								</video>
								<audio>
									<samplecharacteristics>
										<depth>16</depth>
										<samplerate>44100</samplerate>
									</samplecharacteristics>
									<channelcount>2</channelcount>
								</audio>
							</media>
						</file>
						<link>
							<linkclipref>clipitem-87</linkclipref>
							<mediatype>video</mediatype>
							<trackindex>1</trackindex>
							<clipindex>3</clipindex>
						</link>
						<link>
							<linkclipref>clipitem-95</linkclipref>
							<mediatype>audio</mediatype>
							<trackindex>1</trackindex>
							<clipindex>3</clipindex>
							<groupindex>1</groupindex>
						</link>
						<link>
							<linkclipref>clipitem-103</linkclipref>
							<mediatype>audio</mediatype>
							<trackindex>2</trackindex>
							<clipindex>3</clipindex>
							<groupindex>1</groupindex>
						</link>
						<logginginfo>
							<description />
							<scene />
							<shottake />
							<lognote />
							<good />
							<originalvideofilename />
							<originalaudiofilename />
						</logginginfo>
						<colorinfo>
							<lut />
							<lut1 />
							<asc_sop />
							<asc_sat />
							<lut2 />
						</colorinfo>
					<labels><label2>Caribbean</label2></labels></clipitem>
					<clipitem id="clipitem-88">
						<masterclipid>clipitem-4-197</masterclipid>
						<name>Travis_Kelce_ANNOUNCE_WEDDING_DATE_with_Taylor_Swift_Why_He_was_Delaying_all_Along.mp4</name>
						<enabled>TRUE</enabled>
						<duration>150</duration>
						<rate>
							<timebase>25</timebase>
							<ntsc>FALSE</ntsc>
						</rate>
						<start>110100</start>
						<end>110250</end>
						<in>29400</in>
						<out>29550</out>
						<pproTicksIn>0</pproTicksIn>
						<pproTicksOut>419410897920000</pproTicksOut>
						<alphatype>none</alphatype>
						<pixelaspectratio>square</pixelaspectratio>
						<anamorphic>FALSE</anamorphic>
						<file id="file-32">
							<name>Travis_Kelce_ANNOUNCE_WEDDING_DATE_with_Taylor_Swift_Why_He_was_Delaying_all_Along.mp4</name>
							<pathurl>file://localhost/Users/themalikano/Documents/VideoAutomation/premiere_videos/Travis_Kelce_ANNOUNCE_WEDDING_DATE_with_Taylor_Swift_Why_He_was_Delaying_all_Along.mp4</pathurl>
							<rate>
								<timebase>24</timebase>
								<ntsc>FALSE</ntsc>
							</rate>
							<duration>39627</duration>
							<timecode>
								<rate>
									<timebase>24</timebase>
									<ntsc>FALSE</ntsc>
								</rate>
								<string>00:00:00:00</string>
								<frame>0</frame>
								<displayformat>NDF</displayformat>
							</timecode>
							<media>
								<video>
									<samplecharacteristics>
										<rate>
											<timebase>24</timebase>
											<ntsc>FALSE</ntsc>
										</rate>
										<width>852</width>
										<height>480</height>
										<anamorphic>FALSE</anamorphic>
										<pixelaspectratio>square</pixelaspectratio>
										<fielddominance>none</fielddominance>
									</samplecharacteristics>
								</video>
								<audio>
									<samplecharacteristics>
										<depth>16</depth>
										<samplerate>44100</samplerate>
									</samplecharacteristics>
									<channelcount>2</channelcount>
								</audio>
							</media>
						</file>
						<filter>
							<effect>
								<name>Basic Motion</name>
								<effectid>basic</effectid>
								<effectcategory>motion</effectcategory>
								<effecttype>motion</effecttype>
								<mediatype>video</mediatype>
								<pproBypass>false</pproBypass>
								<parameter authoringApp="PremierePro">
									<parameterid>scale</parameterid>
									<name>Scale</name>
									<valuemin>0</valuemin>
									<valuemax>1000</valuemax>
									<value>225</value>
								</parameter>
								<parameter authoringApp="PremierePro">
									<parameterid>rotation</parameterid>
									<name>Rotation</name>
									<valuemin>-8640</valuemin>
									<valuemax>8640</valuemax>
									<value>0</value>
								</parameter>
								<parameter authoringApp="PremierePro">
									<parameterid>center</parameterid>
									<name>Center</name>
									<value>
										<horiz>0</horiz>
										<vert>0</vert>
									</value>
								</parameter>
								<parameter authoringApp="PremierePro">
									<parameterid>centerOffset</parameterid>
									<name>Anchor Point</name>
									<value>
										<horiz>0</horiz>
										<vert>0</vert>
									</value>
								</parameter>
								<parameter authoringApp="PremierePro">
									<parameterid>antiflicker</parameterid>
									<name>Anti-flicker Filter</name>
									<valuemin>0.0</valuemin>
									<valuemax>1.0</valuemax>
									<value>0</value>
								</parameter>
							</effect>
						</filter>
						<link>
							<linkclipref>clipitem-88</linkclipref>
							<mediatype>video</mediatype>
							<trackindex>1</trackindex>
							<clipindex>4</clipindex>
						</link>
						<link>
							<linkclipref>clipitem-96</linkclipref>
							<mediatype>audio</mediatype>
							<trackindex>1</trackindex>
							<clipindex>4</clipindex>
							<groupindex>1</groupindex>
						</link>
						<link>
							<linkclipref>clipitem-104</linkclipref>
							<mediatype>audio</mediatype>
							<trackindex>2</trackindex>
							<clipindex>4</clipindex>
							<groupindex>1</groupindex>
						</link>
						<logginginfo>
							<description />
							<scene />
							<shottake />
							<lognote />
							<good />
							<originalvideofilename />
							<originalaudiofilename />
						</logginginfo>
						<colorinfo>
							<lut />
							<lut1 />
							<asc_sop />
							<asc_sat />
							<lut2 />
						</colorinfo>
					<labels><label2>Lavender</label2></labels></clipitem>
					<clipitem id="clipitem-87">
						<masterclipid>clipitem-3-473</masterclipid>
						<name>Taylor_Swift_Travis_Kelce_-_The_New_Power_Couple.mp4</name>
						<enabled>TRUE</enabled>
						<duration>150</duration>
						<rate>
							<timebase>25</timebase>
							<ntsc>FALSE</ntsc>
						</rate>
						<start>110250</start>
						<end>110400</end>
						<in>70800</in>
						<out>70950</out>
						<pproTicksIn>0</pproTicksIn>
						<pproTicksOut>875013995520000</pproTicksOut>
						<alphatype>none</alphatype>
						<pixelaspectratio>square</pixelaspectratio>
						<anamorphic>FALSE</anamorphic>
						<file id="file-31">
							<name>Taylor_Swift_Travis_Kelce_-_The_New_Power_Couple.mp4</name>
							<pathurl>file://localhost/Users/themalikano/Documents/VideoAutomation/premiere_videos/Taylor_Swift_Travis_Kelce_-_The_New_Power_Couple.mp4</pathurl>
							<rate>
								<timebase>25</timebase>
								<ntsc>FALSE</ntsc>
							</rate>
							<duration>86118</duration>
							<timecode>
								<rate>
									<timebase>25</timebase>
									<ntsc>FALSE</ntsc>
								</rate>
								<string>00:00:00:00</string>
								<frame>0</frame>
								<displayformat>NDF</displayformat>
							</timecode>
							<media>
								<video>
									<samplecharacteristics>
										<rate>
											<timebase>25</timebase>
											<ntsc>FALSE</ntsc>
										</rate>
										<width>1920</width>
										<height>1080</height>
										<anamorphic>FALSE</anamorphic>
										<pixelaspectratio>square</pixelaspectratio>
										<fielddominance>none</fielddominance>
									</samplecharacteristics>
								</video>
								<audio>
									<samplecharacteristics>
										<depth>16</depth>
										<samplerate>44100</samplerate>
									</samplecharacteristics>
									<channelcount>2</channelcount>
								</audio>
							</media>
						</file>
						<link>
							<linkclipref>clipitem-87</linkclipref>
							<mediatype>video</mediatype>
							<trackindex>1</trackindex>
							<clipindex>3</clipindex>
						</link>
						<link>
							<linkclipref>clipitem-95</linkclipref>
							<mediatype>audio</mediatype>
							<trackindex>1</trackindex>
							<clipindex>3</clipindex>
							<groupindex>1</groupindex>
						</link>
						<link>
							<linkclipref>clipitem-103</linkclipref>
							<mediatype>audio</mediatype>
							<trackindex>2</trackindex>
							<clipindex>3</clipindex>
							<groupindex>1</groupindex>
						</link>
						<logginginfo>
							<description />
							<scene />
							<shottake />
							<lognote />
							<good />
							<originalvideofilename />
							<originalaudiofilename />
						</logginginfo>
						<colorinfo>
							<lut />
							<lut1 />
							<asc_sop />
							<asc_sat />
							<lut2 />
						</colorinfo>
					<labels><label2>Caribbean</label2></labels></clipitem>
					<clipitem id="clipitem-88">
						<masterclipid>clipitem-4-216</masterclipid>
						<name>Travis_Kelce_ANNOUNCE_WEDDING_DATE_with_Taylor_Swift_Why_He_was_Delaying_all_Along.mp4</name>
						<enabled>TRUE</enabled>
						<duration>150</duration>
						<rate>
							<timebase>25</timebase>
							<ntsc>FALSE</ntsc>
						</rate>
						<start>110400</start>
						<end>110550</end>
						<in>32250</in>
						<out>32400</out>
						<pproTicksIn>0</pproTicksIn>
						<pproTicksOut>419410897920000</pproTicksOut>
						<alphatype>none</alphatype>
						<pixelaspectratio>square</pixelaspectratio>
						<anamorphic>FALSE</anamorphic>
						<file id="file-32">
							<name>Travis_Kelce_ANNOUNCE_WEDDING_DATE_with_Taylor_Swift_Why_He_was_Delaying_all_Along.mp4</name>
							<pathurl>file://localhost/Users/themalikano/Documents/VideoAutomation/premiere_videos/Travis_Kelce_ANNOUNCE_WEDDING_DATE_with_Taylor_Swift_Why_He_was_Delaying_all_Along.mp4</pathurl>
							<rate>
								<timebase>24</timebase>
								<ntsc>FALSE</ntsc>
							</rate>
							<duration>39627</duration>
							<timecode>
								<rate>
									<timebase>24</timebase>
									<ntsc>FALSE</ntsc>
								</rate>
								<string>00:00:00:00</string>
								<frame>0</frame>
								<displayformat>NDF</displayformat>
							</timecode>
							<media>
								<video>
									<samplecharacteristics>
										<rate>
											<timebase>24</timebase>
											<ntsc>FALSE</ntsc>
										</rate>
										<width>852</width>
										<height>480</height>
										<anamorphic>FALSE</anamorphic>
										<pixelaspectratio>square</pixelaspectratio>
										<fielddominance>none</fielddominance>
									</samplecharacteristics>
								</video>
								<audio>
									<samplecharacteristics>
										<depth>16</depth>
										<samplerate>44100</samplerate>
									</samplecharacteristics>
									<channelcount>2</channelcount>
								</audio>
							</media>
						</file>
						<filter>
							<effect>
								<name>Basic Motion</name>
								<effectid>basic</effectid>
								<effectcategory>motion</effectcategory>
								<effecttype>motion</effecttype>
								<mediatype>video</mediatype>
								<pproBypass>false</pproBypass>
								<parameter authoringApp="PremierePro">
									<parameterid>scale</parameterid>
									<name>Scale</name>
									<valuemin>0</valuemin>
									<valuemax>1000</valuemax>
									<value>225</value>
								</parameter>
								<parameter authoringApp="PremierePro">
									<parameterid>rotation</parameterid>
									<name>Rotation</name>
									<valuemin>-8640</valuemin>
									<valuemax>8640</valuemax>
									<value>0</value>
								</parameter>
								<parameter authoringApp="PremierePro">
									<parameterid>center</parameterid>
									<name>Center</name>
									<value>
										<horiz>0</horiz>
										<vert>0</vert>
									</value>
								</parameter>
								<parameter authoringApp="PremierePro">
									<parameterid>centerOffset</parameterid>
									<name>Anchor Point</name>
									<value>
										<horiz>0</horiz>
										<vert>0</vert>
									</value>
								</parameter>
								<parameter authoringApp="PremierePro">
									<parameterid>antiflicker</parameterid>
									<name>Anti-flicker Filter</name>
									<valuemin>0.0</valuemin>
									<valuemax>1.0</valuemax>
									<value>0</value>
								</parameter>
							</effect>
						</filter>
						<link>
							<linkclipref>clipitem-88</linkclipref>
							<mediatype>video</mediatype>
							<trackindex>1</trackindex>
							<clipindex>4</clipindex>
						</link>
						<link>
							<linkclipref>clipitem-96</linkclipref>
							<mediatype>audio</mediatype>
							<trackindex>1</trackindex>
							<clipindex>4</clipindex>
							<groupindex>1</groupindex>
						</link>
						<link>
							<linkclipref>clipitem-104</linkclipref>
							<mediatype>audio</mediatype>
							<trackindex>2</trackindex>
							<clipindex>4</clipindex>
							<groupindex>1</groupindex>
						</link>
						<logginginfo>
							<description />
							<scene />
							<shottake />
							<lognote />
							<good />
							<originalvideofilename />
							<originalaudiofilename />
						</logginginfo>
						<colorinfo>
							<lut />
							<lut1 />
							<asc_sop />
							<asc_sat />
							<lut2 />
						</colorinfo>
					<labels><label2>Lavender</label2></labels></clipitem>
					<clipitem id="clipitem-87">
						<masterclipid>clipitem-3-104</masterclipid>
						<name>Taylor_Swift_Travis_Kelce_-_The_New_Power_Couple.mp4</name>
						<enabled>TRUE</enabled>
						<duration>150</duration>
						<rate>
							<timebase>25</timebase>
							<ntsc>FALSE</ntsc>
						</rate>
						<start>110550</start>
						<end>110700</end>
						<in>15450</in>
						<out>15600</out>
						<pproTicksIn>0</pproTicksIn>
						<pproTicksOut>875013995520000</pproTicksOut>
						<alphatype>none</alphatype>
						<pixelaspectratio>square</pixelaspectratio>
						<anamorphic>FALSE</anamorphic>
						<file id="file-31">
							<name>Taylor_Swift_Travis_Kelce_-_The_New_Power_Couple.mp4</name>
							<pathurl>file://localhost/Users/themalikano/Documents/VideoAutomation/premiere_videos/Taylor_Swift_Travis_Kelce_-_The_New_Power_Couple.mp4</pathurl>
							<rate>
								<timebase>25</timebase>
								<ntsc>FALSE</ntsc>
							</rate>
							<duration>86118</duration>
							<timecode>
								<rate>
									<timebase>25</timebase>
									<ntsc>FALSE</ntsc>
								</rate>
								<string>00:00:00:00</string>
								<frame>0</frame>
								<displayformat>NDF</displayformat>
							</timecode>
							<media>
								<video>
									<samplecharacteristics>
										<rate>
											<timebase>25</timebase>
											<ntsc>FALSE</ntsc>
										</rate>
										<width>1920</width>
										<height>1080</height>
										<anamorphic>FALSE</anamorphic>
										<pixelaspectratio>square</pixelaspectratio>
										<fielddominance>none</fielddominance>
									</samplecharacteristics>
								</video>
								<audio>
									<samplecharacteristics>
										<depth>16</depth>
										<samplerate>44100</samplerate>
									</samplecharacteristics>
									<channelcount>2</channelcount>
								</audio>
							</media>
						</file>
						<link>
							<linkclipref>clipitem-87</linkclipref>
							<mediatype>video</mediatype>
							<trackindex>1</trackindex>
							<clipindex>3</clipindex>
						</link>
						<link>
							<linkclipref>clipitem-95</linkclipref>
							<mediatype>audio</mediatype>
							<trackindex>1</trackindex>
							<clipindex>3</clipindex>
							<groupindex>1</groupindex>
						</link>
						<link>
							<linkclipref>clipitem-103</linkclipref>
							<mediatype>audio</mediatype>
							<trackindex>2</trackindex>
							<clipindex>3</clipindex>
							<groupindex>1</groupindex>
						</link>
						<logginginfo>
							<description />
							<scene />
							<shottake />
							<lognote />
							<good />
							<originalvideofilename />
							<originalaudiofilename />
						</logginginfo>
						<colorinfo>
							<lut />
							<lut1 />
							<asc_sop />
							<asc_sat />
							<lut2 />
						</colorinfo>
					<labels><label2>Caribbean</label2></labels></clipitem>
					<clipitem id="clipitem-88">
						<masterclipid>clipitem-4-49</masterclipid>
						<name>Travis_Kelce_ANNOUNCE_WEDDING_DATE_with_Taylor_Swift_Why_He_was_Delaying_all_Along.mp4</name>
						<enabled>TRUE</enabled>
						<duration>150</duration>
						<rate>
							<timebase>25</timebase>
							<ntsc>FALSE</ntsc>
						</rate>
						<start>110700</start>
						<end>110850</end>
						<in>7200</in>
						<out>7350</out>
						<pproTicksIn>0</pproTicksIn>
						<pproTicksOut>419410897920000</pproTicksOut>
						<alphatype>none</alphatype>
						<pixelaspectratio>square</pixelaspectratio>
						<anamorphic>FALSE</anamorphic>
						<file id="file-32">
							<name>Travis_Kelce_ANNOUNCE_WEDDING_DATE_with_Taylor_Swift_Why_He_was_Delaying_all_Along.mp4</name>
							<pathurl>file://localhost/Users/themalikano/Documents/VideoAutomation/premiere_videos/Travis_Kelce_ANNOUNCE_WEDDING_DATE_with_Taylor_Swift_Why_He_was_Delaying_all_Along.mp4</pathurl>
							<rate>
								<timebase>24</timebase>
								<ntsc>FALSE</ntsc>
							</rate>
							<duration>39627</duration>
							<timecode>
								<rate>
									<timebase>24</timebase>
									<ntsc>FALSE</ntsc>
								</rate>
								<string>00:00:00:00</string>
								<frame>0</frame>
								<displayformat>NDF</displayformat>
							</timecode>
							<media>
								<video>
									<samplecharacteristics>
										<rate>
											<timebase>24</timebase>
											<ntsc>FALSE</ntsc>
										</rate>
										<width>852</width>
										<height>480</height>
										<anamorphic>FALSE</anamorphic>
										<pixelaspectratio>square</pixelaspectratio>
										<fielddominance>none</fielddominance>
									</samplecharacteristics>
								</video>
								<audio>
									<samplecharacteristics>
										<depth>16</depth>
										<samplerate>44100</samplerate>
									</samplecharacteristics>
									<channelcount>2</channelcount>
								</audio>
							</media>
						</file>
						<filter>
							<effect>
								<name>Basic Motion</name>
								<effectid>basic</effectid>
								<effectcategory>motion</effectcategory>
								<effecttype>motion</effecttype>
								<mediatype>video</mediatype>
								<pproBypass>false</pproBypass>
								<parameter authoringApp="PremierePro">
									<parameterid>scale</parameterid>
									<name>Scale</name>
									<valuemin>0</valuemin>
									<valuemax>1000</valuemax>
									<value>225</value>
								</parameter>
								<parameter authoringApp="PremierePro">
									<parameterid>rotation</parameterid>
									<name>Rotation</name>
									<valuemin>-8640</valuemin>
									<valuemax>8640</valuemax>
									<value>0</value>
								</parameter>
								<parameter authoringApp="PremierePro">
									<parameterid>center</parameterid>
									<name>Center</name>
									<value>
										<horiz>0</horiz>
										<vert>0</vert>
									</value>
								</parameter>
								<parameter authoringApp="PremierePro">
									<parameterid>centerOffset</parameterid>
									<name>Anchor Point</name>
									<value>
										<horiz>0</horiz>
										<vert>0</vert>
									</value>
								</parameter>
								<parameter authoringApp="PremierePro">
									<parameterid>antiflicker</parameterid>
									<name>Anti-flicker Filter</name>
									<valuemin>0.0</valuemin>
									<valuemax>1.0</valuemax>
									<value>0</value>
								</parameter>
							</effect>
						</filter>
						<link>
							<linkclipref>clipitem-88</linkclipref>
							<mediatype>video</mediatype>
							<trackindex>1</trackindex>
							<clipindex>4</clipindex>
						</link>
						<link>
							<linkclipref>clipitem-96</linkclipref>
							<mediatype>audio</mediatype>
							<trackindex>1</trackindex>
							<clipindex>4</clipindex>
							<groupindex>1</groupindex>
						</link>
						<link>
							<linkclipref>clipitem-104</linkclipref>
							<mediatype>audio</mediatype>
							<trackindex>2</trackindex>
							<clipindex>4</clipindex>
							<groupindex>1</groupindex>
						</link>
						<logginginfo>
							<description />
							<scene />
							<shottake />
							<lognote />
							<good />
							<originalvideofilename />
							<originalaudiofilename />
						</logginginfo>
						<colorinfo>
							<lut />
							<lut1 />
							<asc_sop />
							<asc_sat />
							<lut2 />
						</colorinfo>
					<labels><label2>Lavender</label2></labels></clipitem>
					<clipitem id="clipitem-87">
						<masterclipid>clipitem-3-336</masterclipid>
						<name>Taylor_Swift_Travis_Kelce_-_The_New_Power_Couple.mp4</name>
						<enabled>TRUE</enabled>
						<duration>150</duration>
						<rate>
							<timebase>25</timebase>
							<ntsc>FALSE</ntsc>
						</rate>
						<start>110850</start>
						<end>111000</end>
						<in>50250</in>
						<out>50400</out>
						<pproTicksIn>0</pproTicksIn>
						<pproTicksOut>875013995520000</pproTicksOut>
						<alphatype>none</alphatype>
						<pixelaspectratio>square</pixelaspectratio>
						<anamorphic>FALSE</anamorphic>
						<file id="file-31">
							<name>Taylor_Swift_Travis_Kelce_-_The_New_Power_Couple.mp4</name>
							<pathurl>file://localhost/Users/themalikano/Documents/VideoAutomation/premiere_videos/Taylor_Swift_Travis_Kelce_-_The_New_Power_Couple.mp4</pathurl>
							<rate>
								<timebase>25</timebase>
								<ntsc>FALSE</ntsc>
							</rate>
							<duration>86118</duration>
							<timecode>
								<rate>
									<timebase>25</timebase>
									<ntsc>FALSE</ntsc>
								</rate>
								<string>00:00:00:00</string>
								<frame>0</frame>
								<displayformat>NDF</displayformat>
							</timecode>
							<media>
								<video>
									<samplecharacteristics>
										<rate>
											<timebase>25</timebase>
											<ntsc>FALSE</ntsc>
										</rate>
										<width>1920</width>
										<height>1080</height>
										<anamorphic>FALSE</anamorphic>
										<pixelaspectratio>square</pixelaspectratio>
										<fielddominance>none</fielddominance>
									</samplecharacteristics>
								</video>
								<audio>
									<samplecharacteristics>
										<depth>16</depth>
										<samplerate>44100</samplerate>
									</samplecharacteristics>
									<channelcount>2</channelcount>
								</audio>
							</media>
						</file>
						<link>
							<linkclipref>clipitem-87</linkclipref>
							<mediatype>video</mediatype>
							<trackindex>1</trackindex>
							<clipindex>3</clipindex>
						</link>
						<link>
							<linkclipref>clipitem-95</linkclipref>
							<mediatype>audio</mediatype>
							<trackindex>1</trackindex>
							<clipindex>3</clipindex>
							<groupindex>1</groupindex>
						</link>
						<link>
							<linkclipref>clipitem-103</linkclipref>
							<mediatype>audio</mediatype>
							<trackindex>2</trackindex>
							<clipindex>3</clipindex>
							<groupindex>1</groupindex>
						</link>
						<logginginfo>
							<description />
							<scene />
							<shottake />
							<lognote />
							<good />
							<originalvideofilename />
							<originalaudiofilename />
						</logginginfo>
						<colorinfo>
							<lut />
							<lut1 />
							<asc_sop />
							<asc_sat />
							<lut2 />
						</colorinfo>
					<labels><label2>Caribbean</label2></labels></clipitem>
					<clipitem id="clipitem-88">
						<masterclipid>clipitem-4-81</masterclipid>
						<name>Travis_Kelce_ANNOUNCE_WEDDING_DATE_with_Taylor_Swift_Why_He_was_Delaying_all_Along.mp4</name>
						<enabled>TRUE</enabled>
						<duration>150</duration>
						<rate>
							<timebase>25</timebase>
							<ntsc>FALSE</ntsc>
						</rate>
						<start>111000</start>
						<end>111150</end>
						<in>12000</in>
						<out>12150</out>
						<pproTicksIn>0</pproTicksIn>
						<pproTicksOut>419410897920000</pproTicksOut>
						<alphatype>none</alphatype>
						<pixelaspectratio>square</pixelaspectratio>
						<anamorphic>FALSE</anamorphic>
						<file id="file-32">
							<name>Travis_Kelce_ANNOUNCE_WEDDING_DATE_with_Taylor_Swift_Why_He_was_Delaying_all_Along.mp4</name>
							<pathurl>file://localhost/Users/themalikano/Documents/VideoAutomation/premiere_videos/Travis_Kelce_ANNOUNCE_WEDDING_DATE_with_Taylor_Swift_Why_He_was_Delaying_all_Along.mp4</pathurl>
							<rate>
								<timebase>24</timebase>
								<ntsc>FALSE</ntsc>
							</rate>
							<duration>39627</duration>
							<timecode>
								<rate>
									<timebase>24</timebase>
									<ntsc>FALSE</ntsc>
								</rate>
								<string>00:00:00:00</string>
								<frame>0</frame>
								<displayformat>NDF</displayformat>
							</timecode>
							<media>
								<video>
									<samplecharacteristics>
										<rate>
											<timebase>24</timebase>
											<ntsc>FALSE</ntsc>
										</rate>
										<width>852</width>
										<height>480</height>
										<anamorphic>FALSE</anamorphic>
										<pixelaspectratio>square</pixelaspectratio>
										<fielddominance>none</fielddominance>
									</samplecharacteristics>
								</video>
								<audio>
									<samplecharacteristics>
										<depth>16</depth>
										<samplerate>44100</samplerate>
									</samplecharacteristics>
									<channelcount>2</channelcount>
								</audio>
							</media>
						</file>
						<filter>
							<effect>
								<name>Basic Motion</name>
								<effectid>basic</effectid>
								<effectcategory>motion</effectcategory>
								<effecttype>motion</effecttype>
								<mediatype>video</mediatype>
								<pproBypass>false</pproBypass>
								<parameter authoringApp="PremierePro">
									<parameterid>scale</parameterid>
									<name>Scale</name>
									<valuemin>0</valuemin>
									<valuemax>1000</valuemax>
									<value>225</value>
								</parameter>
								<parameter authoringApp="PremierePro">
									<parameterid>rotation</parameterid>
									<name>Rotation</name>
									<valuemin>-8640</valuemin>
									<valuemax>8640</valuemax>
									<value>0</value>
								</parameter>
								<parameter authoringApp="PremierePro">
									<parameterid>center</parameterid>
									<name>Center</name>
									<value>
										<horiz>0</horiz>
										<vert>0</vert>
									</value>
								</parameter>
								<parameter authoringApp="PremierePro">
									<parameterid>centerOffset</parameterid>
									<name>Anchor Point</name>
									<value>
										<horiz>0</horiz>
										<vert>0</vert>
									</value>
								</parameter>
								<parameter authoringApp="PremierePro">
									<parameterid>antiflicker</parameterid>
									<name>Anti-flicker Filter</name>
									<valuemin>0.0</valuemin>
									<valuemax>1.0</valuemax>
									<value>0</value>
								</parameter>
							</effect>
						</filter>
						<link>
							<linkclipref>clipitem-88</linkclipref>
							<mediatype>video</mediatype>
							<trackindex>1</trackindex>
							<clipindex>4</clipindex>
						</link>
						<link>
							<linkclipref>clipitem-96</linkclipref>
							<mediatype>audio</mediatype>
							<trackindex>1</trackindex>
							<clipindex>4</clipindex>
							<groupindex>1</groupindex>
						</link>
						<link>
							<linkclipref>clipitem-104</linkclipref>
							<mediatype>audio</mediatype>
							<trackindex>2</trackindex>
							<clipindex>4</clipindex>
							<groupindex>1</groupindex>
						</link>
						<logginginfo>
							<description />
							<scene />
							<shottake />
							<lognote />
							<good />
							<originalvideofilename />
							<originalaudiofilename />
						</logginginfo>
						<colorinfo>
							<lut />
							<lut1 />
							<asc_sop />
							<asc_sat />
							<lut2 />
						</colorinfo>
					<labels><label2>Lavender</label2></labels></clipitem>
					<clipitem id="clipitem-87">
						<masterclipid>clipitem-3-190</masterclipid>
						<name>Taylor_Swift_Travis_Kelce_-_The_New_Power_Couple.mp4</name>
						<enabled>TRUE</enabled>
						<duration>150</duration>
						<rate>
							<timebase>25</timebase>
							<ntsc>FALSE</ntsc>
						</rate>
						<start>111150</start>
						<end>111300</end>
						<in>28350</in>
						<out>28500</out>
						<pproTicksIn>0</pproTicksIn>
						<pproTicksOut>875013995520000</pproTicksOut>
						<alphatype>none</alphatype>
						<pixelaspectratio>square</pixelaspectratio>
						<anamorphic>FALSE</anamorphic>
						<file id="file-31">
							<name>Taylor_Swift_Travis_Kelce_-_The_New_Power_Couple.mp4</name>
							<pathurl>file://localhost/Users/themalikano/Documents/VideoAutomation/premiere_videos/Taylor_Swift_Travis_Kelce_-_The_New_Power_Couple.mp4</pathurl>
							<rate>
								<timebase>25</timebase>
								<ntsc>FALSE</ntsc>
							</rate>
							<duration>86118</duration>
							<timecode>
								<rate>
									<timebase>25</timebase>
									<ntsc>FALSE</ntsc>
								</rate>
								<string>00:00:00:00</string>
								<frame>0</frame>
								<displayformat>NDF</displayformat>
							</timecode>
							<media>
								<video>
									<samplecharacteristics>
										<rate>
											<timebase>25</timebase>
											<ntsc>FALSE</ntsc>
										</rate>
										<width>1920</width>
										<height>1080</height>
										<anamorphic>FALSE</anamorphic>
										<pixelaspectratio>square</pixelaspectratio>
										<fielddominance>none</fielddominance>
									</samplecharacteristics>
								</video>
								<audio>
									<samplecharacteristics>
										<depth>16</depth>
										<samplerate>44100</samplerate>
									</samplecharacteristics>
									<channelcount>2</channelcount>
								</audio>
							</media>
						</file>
						<link>
							<linkclipref>clipitem-87</linkclipref>
							<mediatype>video</mediatype>
							<trackindex>1</trackindex>
							<clipindex>3</clipindex>
						</link>
						<link>
							<linkclipref>clipitem-95</linkclipref>
							<mediatype>audio</mediatype>
							<trackindex>1</trackindex>
							<clipindex>3</clipindex>
							<groupindex>1</groupindex>
						</link>
						<link>
							<linkclipref>clipitem-103</linkclipref>
							<mediatype>audio</mediatype>
							<trackindex>2</trackindex>
							<clipindex>3</clipindex>
							<groupindex>1</groupindex>
						</link>
						<logginginfo>
							<description />
							<scene />
							<shottake />
							<lognote />
							<good />
							<originalvideofilename />
							<originalaudiofilename />
						</logginginfo>
						<colorinfo>
							<lut />
							<lut1 />
							<asc_sop />
							<asc_sat />
							<lut2 />
						</colorinfo>
					<labels><label2>Caribbean</label2></labels></clipitem>
					<clipitem id="clipitem-88">
						<masterclipid>clipitem-4-14</masterclipid>
						<name>Travis_Kelce_ANNOUNCE_WEDDING_DATE_with_Taylor_Swift_Why_He_was_Delaying_all_Along.mp4</name>
						<enabled>TRUE</enabled>
						<duration>150</duration>
						<rate>
							<timebase>25</timebase>
							<ntsc>FALSE</ntsc>
						</rate>
						<start>111300</start>
						<end>111450</end>
						<in>1950</in>
						<out>2100</out>
						<pproTicksIn>0</pproTicksIn>
						<pproTicksOut>419410897920000</pproTicksOut>
						<alphatype>none</alphatype>
						<pixelaspectratio>square</pixelaspectratio>
						<anamorphic>FALSE</anamorphic>
						<file id="file-32">
							<name>Travis_Kelce_ANNOUNCE_WEDDING_DATE_with_Taylor_Swift_Why_He_was_Delaying_all_Along.mp4</name>
							<pathurl>file://localhost/Users/themalikano/Documents/VideoAutomation/premiere_videos/Travis_Kelce_ANNOUNCE_WEDDING_DATE_with_Taylor_Swift_Why_He_was_Delaying_all_Along.mp4</pathurl>
							<rate>
								<timebase>24</timebase>
								<ntsc>FALSE</ntsc>
							</rate>
							<duration>39627</duration>
							<timecode>
								<rate>
									<timebase>24</timebase>
									<ntsc>FALSE</ntsc>
								</rate>
								<string>00:00:00:00</string>
								<frame>0</frame>
								<displayformat>NDF</displayformat>
							</timecode>
							<media>
								<video>
									<samplecharacteristics>
										<rate>
											<timebase>24</timebase>
											<ntsc>FALSE</ntsc>
										</rate>
										<width>852</width>
										<height>480</height>
										<anamorphic>FALSE</anamorphic>
										<pixelaspectratio>square</pixelaspectratio>
										<fielddominance>none</fielddominance>
									</samplecharacteristics>
								</video>
								<audio>
									<samplecharacteristics>
										<depth>16</depth>
										<samplerate>44100</samplerate>
									</samplecharacteristics>
									<channelcount>2</channelcount>
								</audio>
							</media>
						</file>
						<filter>
							<effect>
								<name>Basic Motion</name>
								<effectid>basic</effectid>
								<effectcategory>motion</effectcategory>
								<effecttype>motion</effecttype>
								<mediatype>video</mediatype>
								<pproBypass>false</pproBypass>
								<parameter authoringApp="PremierePro">
									<parameterid>scale</parameterid>
									<name>Scale</name>
									<valuemin>0</valuemin>
									<valuemax>1000</valuemax>
									<value>225</value>
								</parameter>
								<parameter authoringApp="PremierePro">
									<parameterid>rotation</parameterid>
									<name>Rotation</name>
									<valuemin>-8640</valuemin>
									<valuemax>8640</valuemax>
									<value>0</value>
								</parameter>
								<parameter authoringApp="PremierePro">
									<parameterid>center</parameterid>
									<name>Center</name>
									<value>
										<horiz>0</horiz>
										<vert>0</vert>
									</value>
								</parameter>
								<parameter authoringApp="PremierePro">
									<parameterid>centerOffset</parameterid>
									<name>Anchor Point</name>
									<value>
										<horiz>0</horiz>
										<vert>0</vert>
									</value>
								</parameter>
								<parameter authoringApp="PremierePro">
									<parameterid>antiflicker</parameterid>
									<name>Anti-flicker Filter</name>
									<valuemin>0.0</valuemin>
									<valuemax>1.0</valuemax>
									<value>0</value>
								</parameter>
							</effect>
						</filter>
						<link>
							<linkclipref>clipitem-88</linkclipref>
							<mediatype>video</mediatype>
							<trackindex>1</trackindex>
							<clipindex>4</clipindex>
						</link>
						<link>
							<linkclipref>clipitem-96</linkclipref>
							<mediatype>audio</mediatype>
							<trackindex>1</trackindex>
							<clipindex>4</clipindex>
							<groupindex>1</groupindex>
						</link>
						<link>
							<linkclipref>clipitem-104</linkclipref>
							<mediatype>audio</mediatype>
							<trackindex>2</trackindex>
							<clipindex>4</clipindex>
							<groupindex>1</groupindex>
						</link>
						<logginginfo>
							<description />
							<scene />
							<shottake />
							<lognote />
							<good />
							<originalvideofilename />
							<originalaudiofilename />
						</logginginfo>
						<colorinfo>
							<lut />
							<lut1 />
							<asc_sop />
							<asc_sat />
							<lut2 />
						</colorinfo>
					<labels><label2>Lavender</label2></labels></clipitem>
					<clipitem id="clipitem-87">
						<masterclipid>clipitem-3-193</masterclipid>
						<name>Taylor_Swift_Travis_Kelce_-_The_New_Power_Couple.mp4</name>
						<enabled>TRUE</enabled>
						<duration>150</duration>
						<rate>
							<timebase>25</timebase>
							<ntsc>FALSE</ntsc>
						</rate>
						<start>111450</start>
						<end>111600</end>
						<in>28800</in>
						<out>28950</out>
						<pproTicksIn>0</pproTicksIn>
						<pproTicksOut>875013995520000</pproTicksOut>
						<alphatype>none</alphatype>
						<pixelaspectratio>square</pixelaspectratio>
						<anamorphic>FALSE</anamorphic>
						<file id="file-31">
							<name>Taylor_Swift_Travis_Kelce_-_The_New_Power_Couple.mp4</name>
							<pathurl>file://localhost/Users/themalikano/Documents/VideoAutomation/premiere_videos/Taylor_Swift_Travis_Kelce_-_The_New_Power_Couple.mp4</pathurl>
							<rate>
								<timebase>25</timebase>
								<ntsc>FALSE</ntsc>
							</rate>
							<duration>86118</duration>
							<timecode>
								<rate>
									<timebase>25</timebase>
									<ntsc>FALSE</ntsc>
								</rate>
								<string>00:00:00:00</string>
								<frame>0</frame>
								<displayformat>NDF</displayformat>
							</timecode>
							<media>
								<video>
									<samplecharacteristics>
										<rate>
											<timebase>25</timebase>
											<ntsc>FALSE</ntsc>
										</rate>
										<width>1920</width>
										<height>1080</height>
										<anamorphic>FALSE</anamorphic>
										<pixelaspectratio>square</pixelaspectratio>
										<fielddominance>none</fielddominance>
									</samplecharacteristics>
								</video>
								<audio>
									<samplecharacteristics>
										<depth>16</depth>
										<samplerate>44100</samplerate>
									</samplecharacteristics>
									<channelcount>2</channelcount>
								</audio>
							</media>
						</file>
						<link>
							<linkclipref>clipitem-87</linkclipref>
							<mediatype>video</mediatype>
							<trackindex>1</trackindex>
							<clipindex>3</clipindex>
						</link>
						<link>
							<linkclipref>clipitem-95</linkclipref>
							<mediatype>audio</mediatype>
							<trackindex>1</trackindex>
							<clipindex>3</clipindex>
							<groupindex>1</groupindex>
						</link>
						<link>
							<linkclipref>clipitem-103</linkclipref>
							<mediatype>audio</mediatype>
							<trackindex>2</trackindex>
							<clipindex>3</clipindex>
							<groupindex>1</groupindex>
						</link>
						<logginginfo>
							<description />
							<scene />
							<shottake />
							<lognote />
							<good />
							<originalvideofilename />
							<originalaudiofilename />
						</logginginfo>
						<colorinfo>
							<lut />
							<lut1 />
							<asc_sop />
							<asc_sat />
							<lut2 />
						</colorinfo>
					<labels><label2>Caribbean</label2></labels></clipitem>
					<clipitem id="clipitem-88">
						<masterclipid>clipitem-4-199</masterclipid>
						<name>Travis_Kelce_ANNOUNCE_WEDDING_DATE_with_Taylor_Swift_Why_He_was_Delaying_all_Along.mp4</name>
						<enabled>TRUE</enabled>
						<duration>150</duration>
						<rate>
							<timebase>25</timebase>
							<ntsc>FALSE</ntsc>
						</rate>
						<start>111600</start>
						<end>111750</end>
						<in>29700</in>
						<out>29850</out>
						<pproTicksIn>0</pproTicksIn>
						<pproTicksOut>419410897920000</pproTicksOut>
						<alphatype>none</alphatype>
						<pixelaspectratio>square</pixelaspectratio>
						<anamorphic>FALSE</anamorphic>
						<file id="file-32">
							<name>Travis_Kelce_ANNOUNCE_WEDDING_DATE_with_Taylor_Swift_Why_He_was_Delaying_all_Along.mp4</name>
							<pathurl>file://localhost/Users/themalikano/Documents/VideoAutomation/premiere_videos/Travis_Kelce_ANNOUNCE_WEDDING_DATE_with_Taylor_Swift_Why_He_was_Delaying_all_Along.mp4</pathurl>
							<rate>
								<timebase>24</timebase>
								<ntsc>FALSE</ntsc>
							</rate>
							<duration>39627</duration>
							<timecode>
								<rate>
									<timebase>24</timebase>
									<ntsc>FALSE</ntsc>
								</rate>
								<string>00:00:00:00</string>
								<frame>0</frame>
								<displayformat>NDF</displayformat>
							</timecode>
							<media>
								<video>
									<samplecharacteristics>
										<rate>
											<timebase>24</timebase>
											<ntsc>FALSE</ntsc>
										</rate>
										<width>852</width>
										<height>480</height>
										<anamorphic>FALSE</anamorphic>
										<pixelaspectratio>square</pixelaspectratio>
										<fielddominance>none</fielddominance>
									</samplecharacteristics>
								</video>
								<audio>
									<samplecharacteristics>
										<depth>16</depth>
										<samplerate>44100</samplerate>
									</samplecharacteristics>
									<channelcount>2</channelcount>
								</audio>
							</media>
						</file>
						<filter>
							<effect>
								<name>Basic Motion</name>
								<effectid>basic</effectid>
								<effectcategory>motion</effectcategory>
								<effecttype>motion</effecttype>
								<mediatype>video</mediatype>
								<pproBypass>false</pproBypass>
								<parameter authoringApp="PremierePro">
									<parameterid>scale</parameterid>
									<name>Scale</name>
									<valuemin>0</valuemin>
									<valuemax>1000</valuemax>
									<value>225</value>
								</parameter>
								<parameter authoringApp="PremierePro">
									<parameterid>rotation</parameterid>
									<name>Rotation</name>
									<valuemin>-8640</valuemin>
									<valuemax>8640</valuemax>
									<value>0</value>
								</parameter>
								<parameter authoringApp="PremierePro">
									<parameterid>center</parameterid>
									<name>Center</name>
									<value>
										<horiz>0</horiz>
										<vert>0</vert>
									</value>
								</parameter>
								<parameter authoringApp="PremierePro">
									<parameterid>centerOffset</parameterid>
									<name>Anchor Point</name>
									<value>
										<horiz>0</horiz>
										<vert>0</vert>
									</value>
								</parameter>
								<parameter authoringApp="PremierePro">
									<parameterid>antiflicker</parameterid>
									<name>Anti-flicker Filter</name>
									<valuemin>0.0</valuemin>
									<valuemax>1.0</valuemax>
									<value>0</value>
								</parameter>
							</effect>
						</filter>
						<link>
							<linkclipref>clipitem-88</linkclipref>
							<mediatype>video</mediatype>
							<trackindex>1</trackindex>
							<clipindex>4</clipindex>
						</link>
						<link>
							<linkclipref>clipitem-96</linkclipref>
							<mediatype>audio</mediatype>
							<trackindex>1</trackindex>
							<clipindex>4</clipindex>
							<groupindex>1</groupindex>
						</link>
						<link>
							<linkclipref>clipitem-104</linkclipref>
							<mediatype>audio</mediatype>
							<trackindex>2</trackindex>
							<clipindex>4</clipindex>
							<groupindex>1</groupindex>
						</link>
						<logginginfo>
							<description />
							<scene />
							<shottake />
							<lognote />
							<good />
							<originalvideofilename />
							<originalaudiofilename />
						</logginginfo>
						<colorinfo>
							<lut />
							<lut1 />
							<asc_sop />
							<asc_sat />
							<lut2 />
						</colorinfo>
					<labels><label2>Lavender</label2></labels></clipitem>
					<clipitem id="clipitem-87">
						<masterclipid>clipitem-3-489</masterclipid>
						<name>Taylor_Swift_Travis_Kelce_-_The_New_Power_Couple.mp4</name>
						<enabled>TRUE</enabled>
						<duration>150</duration>
						<rate>
							<timebase>25</timebase>
							<ntsc>FALSE</ntsc>
						</rate>
						<start>111750</start>
						<end>111900</end>
						<in>73200</in>
						<out>73350</out>
						<pproTicksIn>0</pproTicksIn>
						<pproTicksOut>875013995520000</pproTicksOut>
						<alphatype>none</alphatype>
						<pixelaspectratio>square</pixelaspectratio>
						<anamorphic>FALSE</anamorphic>
						<file id="file-31">
							<name>Taylor_Swift_Travis_Kelce_-_The_New_Power_Couple.mp4</name>
							<pathurl>file://localhost/Users/themalikano/Documents/VideoAutomation/premiere_videos/Taylor_Swift_Travis_Kelce_-_The_New_Power_Couple.mp4</pathurl>
							<rate>
								<timebase>25</timebase>
								<ntsc>FALSE</ntsc>
							</rate>
							<duration>86118</duration>
							<timecode>
								<rate>
									<timebase>25</timebase>
									<ntsc>FALSE</ntsc>
								</rate>
								<string>00:00:00:00</string>
								<frame>0</frame>
								<displayformat>NDF</displayformat>
							</timecode>
							<media>
								<video>
									<samplecharacteristics>
										<rate>
											<timebase>25</timebase>
											<ntsc>FALSE</ntsc>
										</rate>
										<width>1920</width>
										<height>1080</height>
										<anamorphic>FALSE</anamorphic>
										<pixelaspectratio>square</pixelaspectratio>
										<fielddominance>none</fielddominance>
									</samplecharacteristics>
								</video>
								<audio>
									<samplecharacteristics>
										<depth>16</depth>
										<samplerate>44100</samplerate>
									</samplecharacteristics>
									<channelcount>2</channelcount>
								</audio>
							</media>
						</file>
						<link>
							<linkclipref>clipitem-87</linkclipref>
							<mediatype>video</mediatype>
							<trackindex>1</trackindex>
							<clipindex>3</clipindex>
						</link>
						<link>
							<linkclipref>clipitem-95</linkclipref>
							<mediatype>audio</mediatype>
							<trackindex>1</trackindex>
							<clipindex>3</clipindex>
							<groupindex>1</groupindex>
						</link>
						<link>
							<linkclipref>clipitem-103</linkclipref>
							<mediatype>audio</mediatype>
							<trackindex>2</trackindex>
							<clipindex>3</clipindex>
							<groupindex>1</groupindex>
						</link>
						<logginginfo>
							<description />
							<scene />
							<shottake />
							<lognote />
							<good />
							<originalvideofilename />
							<originalaudiofilename />
						</logginginfo>
						<colorinfo>
							<lut />
							<lut1 />
							<asc_sop />
							<asc_sat />
							<lut2 />
						</colorinfo>
					<labels><label2>Caribbean</label2></labels></clipitem>
					<clipitem id="clipitem-88">
						<masterclipid>clipitem-4-193</masterclipid>
						<name>Travis_Kelce_ANNOUNCE_WEDDING_DATE_with_Taylor_Swift_Why_He_was_Delaying_all_Along.mp4</name>
						<enabled>TRUE</enabled>
						<duration>150</duration>
						<rate>
							<timebase>25</timebase>
							<ntsc>FALSE</ntsc>
						</rate>
						<start>111900</start>
						<end>112050</end>
						<in>28800</in>
						<out>28950</out>
						<pproTicksIn>0</pproTicksIn>
						<pproTicksOut>419410897920000</pproTicksOut>
						<alphatype>none</alphatype>
						<pixelaspectratio>square</pixelaspectratio>
						<anamorphic>FALSE</anamorphic>
						<file id="file-32">
							<name>Travis_Kelce_ANNOUNCE_WEDDING_DATE_with_Taylor_Swift_Why_He_was_Delaying_all_Along.mp4</name>
							<pathurl>file://localhost/Users/themalikano/Documents/VideoAutomation/premiere_videos/Travis_Kelce_ANNOUNCE_WEDDING_DATE_with_Taylor_Swift_Why_He_was_Delaying_all_Along.mp4</pathurl>
							<rate>
								<timebase>24</timebase>
								<ntsc>FALSE</ntsc>
							</rate>
							<duration>39627</duration>
							<timecode>
								<rate>
									<timebase>24</timebase>
									<ntsc>FALSE</ntsc>
								</rate>
								<string>00:00:00:00</string>
								<frame>0</frame>
								<displayformat>NDF</displayformat>
							</timecode>
							<media>
								<video>
									<samplecharacteristics>
										<rate>
											<timebase>24</timebase>
											<ntsc>FALSE</ntsc>
										</rate>
										<width>852</width>
										<height>480</height>
										<anamorphic>FALSE</anamorphic>
										<pixelaspectratio>square</pixelaspectratio>
										<fielddominance>none</fielddominance>
									</samplecharacteristics>
								</video>
								<audio>
									<samplecharacteristics>
										<depth>16</depth>
										<samplerate>44100</samplerate>
									</samplecharacteristics>
									<channelcount>2</channelcount>
								</audio>
							</media>
						</file>
						<filter>
							<effect>
								<name>Basic Motion</name>
								<effectid>basic</effectid>
								<effectcategory>motion</effectcategory>
								<effecttype>motion</effecttype>
								<mediatype>video</mediatype>
								<pproBypass>false</pproBypass>
								<parameter authoringApp="PremierePro">
									<parameterid>scale</parameterid>
									<name>Scale</name>
									<valuemin>0</valuemin>
									<valuemax>1000</valuemax>
									<value>225</value>
								</parameter>
								<parameter authoringApp="PremierePro">
									<parameterid>rotation</parameterid>
									<name>Rotation</name>
									<valuemin>-8640</valuemin>
									<valuemax>8640</valuemax>
									<value>0</value>
								</parameter>
								<parameter authoringApp="PremierePro">
									<parameterid>center</parameterid>
									<name>Center</name>
									<value>
										<horiz>0</horiz>
										<vert>0</vert>
									</value>
								</parameter>
								<parameter authoringApp="PremierePro">
									<parameterid>centerOffset</parameterid>
									<name>Anchor Point</name>
									<value>
										<horiz>0</horiz>
										<vert>0</vert>
									</value>
								</parameter>
								<parameter authoringApp="PremierePro">
									<parameterid>antiflicker</parameterid>
									<name>Anti-flicker Filter</name>
									<valuemin>0.0</valuemin>
									<valuemax>1.0</valuemax>
									<value>0</value>
								</parameter>
							</effect>
						</filter>
						<link>
							<linkclipref>clipitem-88</linkclipref>
							<mediatype>video</mediatype>
							<trackindex>1</trackindex>
							<clipindex>4</clipindex>
						</link>
						<link>
							<linkclipref>clipitem-96</linkclipref>
							<mediatype>audio</mediatype>
							<trackindex>1</trackindex>
							<clipindex>4</clipindex>
							<groupindex>1</groupindex>
						</link>
						<link>
							<linkclipref>clipitem-104</linkclipref>
							<mediatype>audio</mediatype>
							<trackindex>2</trackindex>
							<clipindex>4</clipindex>
							<groupindex>1</groupindex>
						</link>
						<logginginfo>
							<description />
							<scene />
							<shottake />
							<lognote />
							<good />
							<originalvideofilename />
							<originalaudiofilename />
						</logginginfo>
						<colorinfo>
							<lut />
							<lut1 />
							<asc_sop />
							<asc_sat />
							<lut2 />
						</colorinfo>
					<labels><label2>Lavender</label2></labels></clipitem>
					<clipitem id="clipitem-87">
						<masterclipid>clipitem-3-203</masterclipid>
						<name>Taylor_Swift_Travis_Kelce_-_The_New_Power_Couple.mp4</name>
						<enabled>TRUE</enabled>
						<duration>150</duration>
						<rate>
							<timebase>25</timebase>
							<ntsc>FALSE</ntsc>
						</rate>
						<start>112050</start>
						<end>112200</end>
						<in>30300</in>
						<out>30450</out>
						<pproTicksIn>0</pproTicksIn>
						<pproTicksOut>875013995520000</pproTicksOut>
						<alphatype>none</alphatype>
						<pixelaspectratio>square</pixelaspectratio>
						<anamorphic>FALSE</anamorphic>
						<file id="file-31">
							<name>Taylor_Swift_Travis_Kelce_-_The_New_Power_Couple.mp4</name>
							<pathurl>file://localhost/Users/themalikano/Documents/VideoAutomation/premiere_videos/Taylor_Swift_Travis_Kelce_-_The_New_Power_Couple.mp4</pathurl>
							<rate>
								<timebase>25</timebase>
								<ntsc>FALSE</ntsc>
							</rate>
							<duration>86118</duration>
							<timecode>
								<rate>
									<timebase>25</timebase>
									<ntsc>FALSE</ntsc>
								</rate>
								<string>00:00:00:00</string>
								<frame>0</frame>
								<displayformat>NDF</displayformat>
							</timecode>
							<media>
								<video>
									<samplecharacteristics>
										<rate>
											<timebase>25</timebase>
											<ntsc>FALSE</ntsc>
										</rate>
										<width>1920</width>
										<height>1080</height>
										<anamorphic>FALSE</anamorphic>
										<pixelaspectratio>square</pixelaspectratio>
										<fielddominance>none</fielddominance>
									</samplecharacteristics>
								</video>
								<audio>
									<samplecharacteristics>
										<depth>16</depth>
										<samplerate>44100</samplerate>
									</samplecharacteristics>
									<channelcount>2</channelcount>
								</audio>
							</media>
						</file>
						<link>
							<linkclipref>clipitem-87</linkclipref>
							<mediatype>video</mediatype>
							<trackindex>1</trackindex>
							<clipindex>3</clipindex>
						</link>
						<link>
							<linkclipref>clipitem-95</linkclipref>
							<mediatype>audio</mediatype>
							<trackindex>1</trackindex>
							<clipindex>3</clipindex>
							<groupindex>1</groupindex>
						</link>
						<link>
							<linkclipref>clipitem-103</linkclipref>
							<mediatype>audio</mediatype>
							<trackindex>2</trackindex>
							<clipindex>3</clipindex>
							<groupindex>1</groupindex>
						</link>
						<logginginfo>
							<description />
							<scene />
							<shottake />
							<lognote />
							<good />
							<originalvideofilename />
							<originalaudiofilename />
						</logginginfo>
						<colorinfo>
							<lut />
							<lut1 />
							<asc_sop />
							<asc_sat />
							<lut2 />
						</colorinfo>
					<labels><label2>Caribbean</label2></labels></clipitem>
					<clipitem id="clipitem-88">
						<masterclipid>clipitem-4-200</masterclipid>
						<name>Travis_Kelce_ANNOUNCE_WEDDING_DATE_with_Taylor_Swift_Why_He_was_Delaying_all_Along.mp4</name>
						<enabled>TRUE</enabled>
						<duration>150</duration>
						<rate>
							<timebase>25</timebase>
							<ntsc>FALSE</ntsc>
						</rate>
						<start>112200</start>
						<end>112350</end>
						<in>29850</in>
						<out>30000</out>
						<pproTicksIn>0</pproTicksIn>
						<pproTicksOut>419410897920000</pproTicksOut>
						<alphatype>none</alphatype>
						<pixelaspectratio>square</pixelaspectratio>
						<anamorphic>FALSE</anamorphic>
						<file id="file-32">
							<name>Travis_Kelce_ANNOUNCE_WEDDING_DATE_with_Taylor_Swift_Why_He_was_Delaying_all_Along.mp4</name>
							<pathurl>file://localhost/Users/themalikano/Documents/VideoAutomation/premiere_videos/Travis_Kelce_ANNOUNCE_WEDDING_DATE_with_Taylor_Swift_Why_He_was_Delaying_all_Along.mp4</pathurl>
							<rate>
								<timebase>24</timebase>
								<ntsc>FALSE</ntsc>
							</rate>
							<duration>39627</duration>
							<timecode>
								<rate>
									<timebase>24</timebase>
									<ntsc>FALSE</ntsc>
								</rate>
								<string>00:00:00:00</string>
								<frame>0</frame>
								<displayformat>NDF</displayformat>
							</timecode>
							<media>
								<video>
									<samplecharacteristics>
										<rate>
											<timebase>24</timebase>
											<ntsc>FALSE</ntsc>
										</rate>
										<width>852</width>
										<height>480</height>
										<anamorphic>FALSE</anamorphic>
										<pixelaspectratio>square</pixelaspectratio>
										<fielddominance>none</fielddominance>
									</samplecharacteristics>
								</video>
								<audio>
									<samplecharacteristics>
										<depth>16</depth>
										<samplerate>44100</samplerate>
									</samplecharacteristics>
									<channelcount>2</channelcount>
								</audio>
							</media>
						</file>
						<filter>
							<effect>
								<name>Basic Motion</name>
								<effectid>basic</effectid>
								<effectcategory>motion</effectcategory>
								<effecttype>motion</effecttype>
								<mediatype>video</mediatype>
								<pproBypass>false</pproBypass>
								<parameter authoringApp="PremierePro">
									<parameterid>scale</parameterid>
									<name>Scale</name>
									<valuemin>0</valuemin>
									<valuemax>1000</valuemax>
									<value>225</value>
								</parameter>
								<parameter authoringApp="PremierePro">
									<parameterid>rotation</parameterid>
									<name>Rotation</name>
									<valuemin>-8640</valuemin>
									<valuemax>8640</valuemax>
									<value>0</value>
								</parameter>
								<parameter authoringApp="PremierePro">
									<parameterid>center</parameterid>
									<name>Center</name>
									<value>
										<horiz>0</horiz>
										<vert>0</vert>
									</value>
								</parameter>
								<parameter authoringApp="PremierePro">
									<parameterid>centerOffset</parameterid>
									<name>Anchor Point</name>
									<value>
										<horiz>0</horiz>
										<vert>0</vert>
									</value>
								</parameter>
								<parameter authoringApp="PremierePro">
									<parameterid>antiflicker</parameterid>
									<name>Anti-flicker Filter</name>
									<valuemin>0.0</valuemin>
									<valuemax>1.0</valuemax>
									<value>0</value>
								</parameter>
							</effect>
						</filter>
						<link>
							<linkclipref>clipitem-88</linkclipref>
							<mediatype>video</mediatype>
							<trackindex>1</trackindex>
							<clipindex>4</clipindex>
						</link>
						<link>
							<linkclipref>clipitem-96</linkclipref>
							<mediatype>audio</mediatype>
							<trackindex>1</trackindex>
							<clipindex>4</clipindex>
							<groupindex>1</groupindex>
						</link>
						<link>
							<linkclipref>clipitem-104</linkclipref>
							<mediatype>audio</mediatype>
							<trackindex>2</trackindex>
							<clipindex>4</clipindex>
							<groupindex>1</groupindex>
						</link>
						<logginginfo>
							<description />
							<scene />
							<shottake />
							<lognote />
							<good />
							<originalvideofilename />
							<originalaudiofilename />
						</logginginfo>
						<colorinfo>
							<lut />
							<lut1 />
							<asc_sop />
							<asc_sat />
							<lut2 />
						</colorinfo>
					<labels><label2>Lavender</label2></labels></clipitem>
					<clipitem id="clipitem-87">
						<masterclipid>clipitem-3-533</masterclipid>
						<name>Taylor_Swift_Travis_Kelce_-_The_New_Power_Couple.mp4</name>
						<enabled>TRUE</enabled>
						<duration>150</duration>
						<rate>
							<timebase>25</timebase>
							<ntsc>FALSE</ntsc>
						</rate>
						<start>112350</start>
						<end>112500</end>
						<in>79800</in>
						<out>79950</out>
						<pproTicksIn>0</pproTicksIn>
						<pproTicksOut>875013995520000</pproTicksOut>
						<alphatype>none</alphatype>
						<pixelaspectratio>square</pixelaspectratio>
						<anamorphic>FALSE</anamorphic>
						<file id="file-31">
							<name>Taylor_Swift_Travis_Kelce_-_The_New_Power_Couple.mp4</name>
							<pathurl>file://localhost/Users/themalikano/Documents/VideoAutomation/premiere_videos/Taylor_Swift_Travis_Kelce_-_The_New_Power_Couple.mp4</pathurl>
							<rate>
								<timebase>25</timebase>
								<ntsc>FALSE</ntsc>
							</rate>
							<duration>86118</duration>
							<timecode>
								<rate>
									<timebase>25</timebase>
									<ntsc>FALSE</ntsc>
								</rate>
								<string>00:00:00:00</string>
								<frame>0</frame>
								<displayformat>NDF</displayformat>
							</timecode>
							<media>
								<video>
									<samplecharacteristics>
										<rate>
											<timebase>25</timebase>
											<ntsc>FALSE</ntsc>
										</rate>
										<width>1920</width>
										<height>1080</height>
										<anamorphic>FALSE</anamorphic>
										<pixelaspectratio>square</pixelaspectratio>
										<fielddominance>none</fielddominance>
									</samplecharacteristics>
								</video>
								<audio>
									<samplecharacteristics>
										<depth>16</depth>
										<samplerate>44100</samplerate>
									</samplecharacteristics>
									<channelcount>2</channelcount>
								</audio>
							</media>
						</file>
						<link>
							<linkclipref>clipitem-87</linkclipref>
							<mediatype>video</mediatype>
							<trackindex>1</trackindex>
							<clipindex>3</clipindex>
						</link>
						<link>
							<linkclipref>clipitem-95</linkclipref>
							<mediatype>audio</mediatype>
							<trackindex>1</trackindex>
							<clipindex>3</clipindex>
							<groupindex>1</groupindex>
						</link>
						<link>
							<linkclipref>clipitem-103</linkclipref>
							<mediatype>audio</mediatype>
							<trackindex>2</trackindex>
							<clipindex>3</clipindex>
							<groupindex>1</groupindex>
						</link>
						<logginginfo>
							<description />
							<scene />
							<shottake />
							<lognote />
							<good />
							<originalvideofilename />
							<originalaudiofilename />
						</logginginfo>
						<colorinfo>
							<lut />
							<lut1 />
							<asc_sop />
							<asc_sat />
							<lut2 />
						</colorinfo>
					<labels><label2>Caribbean</label2></labels></clipitem>
					<clipitem id="clipitem-88">
						<masterclipid>clipitem-4-159</masterclipid>
						<name>Travis_Kelce_ANNOUNCE_WEDDING_DATE_with_Taylor_Swift_Why_He_was_Delaying_all_Along.mp4</name>
						<enabled>TRUE</enabled>
						<duration>150</duration>
						<rate>
							<timebase>25</timebase>
							<ntsc>FALSE</ntsc>
						</rate>
						<start>112500</start>
						<end>112650</end>
						<in>23700</in>
						<out>23850</out>
						<pproTicksIn>0</pproTicksIn>
						<pproTicksOut>419410897920000</pproTicksOut>
						<alphatype>none</alphatype>
						<pixelaspectratio>square</pixelaspectratio>
						<anamorphic>FALSE</anamorphic>
						<file id="file-32">
							<name>Travis_Kelce_ANNOUNCE_WEDDING_DATE_with_Taylor_Swift_Why_He_was_Delaying_all_Along.mp4</name>
							<pathurl>file://localhost/Users/themalikano/Documents/VideoAutomation/premiere_videos/Travis_Kelce_ANNOUNCE_WEDDING_DATE_with_Taylor_Swift_Why_He_was_Delaying_all_Along.mp4</pathurl>
							<rate>
								<timebase>24</timebase>
								<ntsc>FALSE</ntsc>
							</rate>
							<duration>39627</duration>
							<timecode>
								<rate>
									<timebase>24</timebase>
									<ntsc>FALSE</ntsc>
								</rate>
								<string>00:00:00:00</string>
								<frame>0</frame>
								<displayformat>NDF</displayformat>
							</timecode>
							<media>
								<video>
									<samplecharacteristics>
										<rate>
											<timebase>24</timebase>
											<ntsc>FALSE</ntsc>
										</rate>
										<width>852</width>
										<height>480</height>
										<anamorphic>FALSE</anamorphic>
										<pixelaspectratio>square</pixelaspectratio>
										<fielddominance>none</fielddominance>
									</samplecharacteristics>
								</video>
								<audio>
									<samplecharacteristics>
										<depth>16</depth>
										<samplerate>44100</samplerate>
									</samplecharacteristics>
									<channelcount>2</channelcount>
								</audio>
							</media>
						</file>
						<filter>
							<effect>
								<name>Basic Motion</name>
								<effectid>basic</effectid>
								<effectcategory>motion</effectcategory>
								<effecttype>motion</effecttype>
								<mediatype>video</mediatype>
								<pproBypass>false</pproBypass>
								<parameter authoringApp="PremierePro">
									<parameterid>scale</parameterid>
									<name>Scale</name>
									<valuemin>0</valuemin>
									<valuemax>1000</valuemax>
									<value>225</value>
								</parameter>
								<parameter authoringApp="PremierePro">
									<parameterid>rotation</parameterid>
									<name>Rotation</name>
									<valuemin>-8640</valuemin>
									<valuemax>8640</valuemax>
									<value>0</value>
								</parameter>
								<parameter authoringApp="PremierePro">
									<parameterid>center</parameterid>
									<name>Center</name>
									<value>
										<horiz>0</horiz>
										<vert>0</vert>
									</value>
								</parameter>
								<parameter authoringApp="PremierePro">
									<parameterid>centerOffset</parameterid>
									<name>Anchor Point</name>
									<value>
										<horiz>0</horiz>
										<vert>0</vert>
									</value>
								</parameter>
								<parameter authoringApp="PremierePro">
									<parameterid>antiflicker</parameterid>
									<name>Anti-flicker Filter</name>
									<valuemin>0.0</valuemin>
									<valuemax>1.0</valuemax>
									<value>0</value>
								</parameter>
							</effect>
						</filter>
						<link>
							<linkclipref>clipitem-88</linkclipref>
							<mediatype>video</mediatype>
							<trackindex>1</trackindex>
							<clipindex>4</clipindex>
						</link>
						<link>
							<linkclipref>clipitem-96</linkclipref>
							<mediatype>audio</mediatype>
							<trackindex>1</trackindex>
							<clipindex>4</clipindex>
							<groupindex>1</groupindex>
						</link>
						<link>
							<linkclipref>clipitem-104</linkclipref>
							<mediatype>audio</mediatype>
							<trackindex>2</trackindex>
							<clipindex>4</clipindex>
							<groupindex>1</groupindex>
						</link>
						<logginginfo>
							<description />
							<scene />
							<shottake />
							<lognote />
							<good />
							<originalvideofilename />
							<originalaudiofilename />
						</logginginfo>
						<colorinfo>
							<lut />
							<lut1 />
							<asc_sop />
							<asc_sat />
							<lut2 />
						</colorinfo>
					<labels><label2>Lavender</label2></labels></clipitem>
					<clipitem id="clipitem-87">
						<masterclipid>clipitem-3-328</masterclipid>
						<name>Taylor_Swift_Travis_Kelce_-_The_New_Power_Couple.mp4</name>
						<enabled>TRUE</enabled>
						<duration>150</duration>
						<rate>
							<timebase>25</timebase>
							<ntsc>FALSE</ntsc>
						</rate>
						<start>112650</start>
						<end>112800</end>
						<in>49050</in>
						<out>49200</out>
						<pproTicksIn>0</pproTicksIn>
						<pproTicksOut>875013995520000</pproTicksOut>
						<alphatype>none</alphatype>
						<pixelaspectratio>square</pixelaspectratio>
						<anamorphic>FALSE</anamorphic>
						<file id="file-31">
							<name>Taylor_Swift_Travis_Kelce_-_The_New_Power_Couple.mp4</name>
							<pathurl>file://localhost/Users/themalikano/Documents/VideoAutomation/premiere_videos/Taylor_Swift_Travis_Kelce_-_The_New_Power_Couple.mp4</pathurl>
							<rate>
								<timebase>25</timebase>
								<ntsc>FALSE</ntsc>
							</rate>
							<duration>86118</duration>
							<timecode>
								<rate>
									<timebase>25</timebase>
									<ntsc>FALSE</ntsc>
								</rate>
								<string>00:00:00:00</string>
								<frame>0</frame>
								<displayformat>NDF</displayformat>
							</timecode>
							<media>
								<video>
									<samplecharacteristics>
										<rate>
											<timebase>25</timebase>
											<ntsc>FALSE</ntsc>
										</rate>
										<width>1920</width>
										<height>1080</height>
										<anamorphic>FALSE</anamorphic>
										<pixelaspectratio>square</pixelaspectratio>
										<fielddominance>none</fielddominance>
									</samplecharacteristics>
								</video>
								<audio>
									<samplecharacteristics>
										<depth>16</depth>
										<samplerate>44100</samplerate>
									</samplecharacteristics>
									<channelcount>2</channelcount>
								</audio>
							</media>
						</file>
						<link>
							<linkclipref>clipitem-87</linkclipref>
							<mediatype>video</mediatype>
							<trackindex>1</trackindex>
							<clipindex>3</clipindex>
						</link>
						<link>
							<linkclipref>clipitem-95</linkclipref>
							<mediatype>audio</mediatype>
							<trackindex>1</trackindex>
							<clipindex>3</clipindex>
							<groupindex>1</groupindex>
						</link>
						<link>
							<linkclipref>clipitem-103</linkclipref>
							<mediatype>audio</mediatype>
							<trackindex>2</trackindex>
							<clipindex>3</clipindex>
							<groupindex>1</groupindex>
						</link>
						<logginginfo>
							<description />
							<scene />
							<shottake />
							<lognote />
							<good />
							<originalvideofilename />
							<originalaudiofilename />
						</logginginfo>
						<colorinfo>
							<lut />
							<lut1 />
							<asc_sop />
							<asc_sat />
							<lut2 />
						</colorinfo>
					<labels><label2>Caribbean</label2></labels></clipitem>
					<clipitem id="clipitem-88">
						<masterclipid>clipitem-4-64</masterclipid>
						<name>Travis_Kelce_ANNOUNCE_WEDDING_DATE_with_Taylor_Swift_Why_He_was_Delaying_all_Along.mp4</name>
						<enabled>TRUE</enabled>
						<duration>150</duration>
						<rate>
							<timebase>25</timebase>
							<ntsc>FALSE</ntsc>
						</rate>
						<start>112800</start>
						<end>112950</end>
						<in>9450</in>
						<out>9600</out>
						<pproTicksIn>0</pproTicksIn>
						<pproTicksOut>419410897920000</pproTicksOut>
						<alphatype>none</alphatype>
						<pixelaspectratio>square</pixelaspectratio>
						<anamorphic>FALSE</anamorphic>
						<file id="file-32">
							<name>Travis_Kelce_ANNOUNCE_WEDDING_DATE_with_Taylor_Swift_Why_He_was_Delaying_all_Along.mp4</name>
							<pathurl>file://localhost/Users/themalikano/Documents/VideoAutomation/premiere_videos/Travis_Kelce_ANNOUNCE_WEDDING_DATE_with_Taylor_Swift_Why_He_was_Delaying_all_Along.mp4</pathurl>
							<rate>
								<timebase>24</timebase>
								<ntsc>FALSE</ntsc>
							</rate>
							<duration>39627</duration>
							<timecode>
								<rate>
									<timebase>24</timebase>
									<ntsc>FALSE</ntsc>
								</rate>
								<string>00:00:00:00</string>
								<frame>0</frame>
								<displayformat>NDF</displayformat>
							</timecode>
							<media>
								<video>
									<samplecharacteristics>
										<rate>
											<timebase>24</timebase>
											<ntsc>FALSE</ntsc>
										</rate>
										<width>852</width>
										<height>480</height>
										<anamorphic>FALSE</anamorphic>
										<pixelaspectratio>square</pixelaspectratio>
										<fielddominance>none</fielddominance>
									</samplecharacteristics>
								</video>
								<audio>
									<samplecharacteristics>
										<depth>16</depth>
										<samplerate>44100</samplerate>
									</samplecharacteristics>
									<channelcount>2</channelcount>
								</audio>
							</media>
						</file>
						<filter>
							<effect>
								<name>Basic Motion</name>
								<effectid>basic</effectid>
								<effectcategory>motion</effectcategory>
								<effecttype>motion</effecttype>
								<mediatype>video</mediatype>
								<pproBypass>false</pproBypass>
								<parameter authoringApp="PremierePro">
									<parameterid>scale</parameterid>
									<name>Scale</name>
									<valuemin>0</valuemin>
									<valuemax>1000</valuemax>
									<value>225</value>
								</parameter>
								<parameter authoringApp="PremierePro">
									<parameterid>rotation</parameterid>
									<name>Rotation</name>
									<valuemin>-8640</valuemin>
									<valuemax>8640</valuemax>
									<value>0</value>
								</parameter>
								<parameter authoringApp="PremierePro">
									<parameterid>center</parameterid>
									<name>Center</name>
									<value>
										<horiz>0</horiz>
										<vert>0</vert>
									</value>
								</parameter>
								<parameter authoringApp="PremierePro">
									<parameterid>centerOffset</parameterid>
									<name>Anchor Point</name>
									<value>
										<horiz>0</horiz>
										<vert>0</vert>
									</value>
								</parameter>
								<parameter authoringApp="PremierePro">
									<parameterid>antiflicker</parameterid>
									<name>Anti-flicker Filter</name>
									<valuemin>0.0</valuemin>
									<valuemax>1.0</valuemax>
									<value>0</value>
								</parameter>
							</effect>
						</filter>
						<link>
							<linkclipref>clipitem-88</linkclipref>
							<mediatype>video</mediatype>
							<trackindex>1</trackindex>
							<clipindex>4</clipindex>
						</link>
						<link>
							<linkclipref>clipitem-96</linkclipref>
							<mediatype>audio</mediatype>
							<trackindex>1</trackindex>
							<clipindex>4</clipindex>
							<groupindex>1</groupindex>
						</link>
						<link>
							<linkclipref>clipitem-104</linkclipref>
							<mediatype>audio</mediatype>
							<trackindex>2</trackindex>
							<clipindex>4</clipindex>
							<groupindex>1</groupindex>
						</link>
						<logginginfo>
							<description />
							<scene />
							<shottake />
							<lognote />
							<good />
							<originalvideofilename />
							<originalaudiofilename />
						</logginginfo>
						<colorinfo>
							<lut />
							<lut1 />
							<asc_sop />
							<asc_sat />
							<lut2 />
						</colorinfo>
					<labels><label2>Lavender</label2></labels></clipitem>
					<clipitem id="clipitem-87">
						<masterclipid>clipitem-3-169</masterclipid>
						<name>Taylor_Swift_Travis_Kelce_-_The_New_Power_Couple.mp4</name>
						<enabled>TRUE</enabled>
						<duration>150</duration>
						<rate>
							<timebase>25</timebase>
							<ntsc>FALSE</ntsc>
						</rate>
						<start>112950</start>
						<end>113100</end>
						<in>25200</in>
						<out>25350</out>
						<pproTicksIn>0</pproTicksIn>
						<pproTicksOut>875013995520000</pproTicksOut>
						<alphatype>none</alphatype>
						<pixelaspectratio>square</pixelaspectratio>
						<anamorphic>FALSE</anamorphic>
						<file id="file-31">
							<name>Taylor_Swift_Travis_Kelce_-_The_New_Power_Couple.mp4</name>
							<pathurl>file://localhost/Users/themalikano/Documents/VideoAutomation/premiere_videos/Taylor_Swift_Travis_Kelce_-_The_New_Power_Couple.mp4</pathurl>
							<rate>
								<timebase>25</timebase>
								<ntsc>FALSE</ntsc>
							</rate>
							<duration>86118</duration>
							<timecode>
								<rate>
									<timebase>25</timebase>
									<ntsc>FALSE</ntsc>
								</rate>
								<string>00:00:00:00</string>
								<frame>0</frame>
								<displayformat>NDF</displayformat>
							</timecode>
							<media>
								<video>
									<samplecharacteristics>
										<rate>
											<timebase>25</timebase>
											<ntsc>FALSE</ntsc>
										</rate>
										<width>1920</width>
										<height>1080</height>
										<anamorphic>FALSE</anamorphic>
										<pixelaspectratio>square</pixelaspectratio>
										<fielddominance>none</fielddominance>
									</samplecharacteristics>
								</video>
								<audio>
									<samplecharacteristics>
										<depth>16</depth>
										<samplerate>44100</samplerate>
									</samplecharacteristics>
									<channelcount>2</channelcount>
								</audio>
							</media>
						</file>
						<link>
							<linkclipref>clipitem-87</linkclipref>
							<mediatype>video</mediatype>
							<trackindex>1</trackindex>
							<clipindex>3</clipindex>
						</link>
						<link>
							<linkclipref>clipitem-95</linkclipref>
							<mediatype>audio</mediatype>
							<trackindex>1</trackindex>
							<clipindex>3</clipindex>
							<groupindex>1</groupindex>
						</link>
						<link>
							<linkclipref>clipitem-103</linkclipref>
							<mediatype>audio</mediatype>
							<trackindex>2</trackindex>
							<clipindex>3</clipindex>
							<groupindex>1</groupindex>
						</link>
						<logginginfo>
							<description />
							<scene />
							<shottake />
							<lognote />
							<good />
							<originalvideofilename />
							<originalaudiofilename />
						</logginginfo>
						<colorinfo>
							<lut />
							<lut1 />
							<asc_sop />
							<asc_sat />
							<lut2 />
						</colorinfo>
					<labels><label2>Caribbean</label2></labels></clipitem>
					<clipitem id="clipitem-88">
						<masterclipid>clipitem-4-224</masterclipid>
						<name>Travis_Kelce_ANNOUNCE_WEDDING_DATE_with_Taylor_Swift_Why_He_was_Delaying_all_Along.mp4</name>
						<enabled>TRUE</enabled>
						<duration>150</duration>
						<rate>
							<timebase>25</timebase>
							<ntsc>FALSE</ntsc>
						</rate>
						<start>113100</start>
						<end>113250</end>
						<in>33450</in>
						<out>33600</out>
						<pproTicksIn>0</pproTicksIn>
						<pproTicksOut>419410897920000</pproTicksOut>
						<alphatype>none</alphatype>
						<pixelaspectratio>square</pixelaspectratio>
						<anamorphic>FALSE</anamorphic>
						<file id="file-32">
							<name>Travis_Kelce_ANNOUNCE_WEDDING_DATE_with_Taylor_Swift_Why_He_was_Delaying_all_Along.mp4</name>
							<pathurl>file://localhost/Users/themalikano/Documents/VideoAutomation/premiere_videos/Travis_Kelce_ANNOUNCE_WEDDING_DATE_with_Taylor_Swift_Why_He_was_Delaying_all_Along.mp4</pathurl>
							<rate>
								<timebase>24</timebase>
								<ntsc>FALSE</ntsc>
							</rate>
							<duration>39627</duration>
							<timecode>
								<rate>
									<timebase>24</timebase>
									<ntsc>FALSE</ntsc>
								</rate>
								<string>00:00:00:00</string>
								<frame>0</frame>
								<displayformat>NDF</displayformat>
							</timecode>
							<media>
								<video>
									<samplecharacteristics>
										<rate>
											<timebase>24</timebase>
											<ntsc>FALSE</ntsc>
										</rate>
										<width>852</width>
										<height>480</height>
										<anamorphic>FALSE</anamorphic>
										<pixelaspectratio>square</pixelaspectratio>
										<fielddominance>none</fielddominance>
									</samplecharacteristics>
								</video>
								<audio>
									<samplecharacteristics>
										<depth>16</depth>
										<samplerate>44100</samplerate>
									</samplecharacteristics>
									<channelcount>2</channelcount>
								</audio>
							</media>
						</file>
						<filter>
							<effect>
								<name>Basic Motion</name>
								<effectid>basic</effectid>
								<effectcategory>motion</effectcategory>
								<effecttype>motion</effecttype>
								<mediatype>video</mediatype>
								<pproBypass>false</pproBypass>
								<parameter authoringApp="PremierePro">
									<parameterid>scale</parameterid>
									<name>Scale</name>
									<valuemin>0</valuemin>
									<valuemax>1000</valuemax>
									<value>225</value>
								</parameter>
								<parameter authoringApp="PremierePro">
									<parameterid>rotation</parameterid>
									<name>Rotation</name>
									<valuemin>-8640</valuemin>
									<valuemax>8640</valuemax>
									<value>0</value>
								</parameter>
								<parameter authoringApp="PremierePro">
									<parameterid>center</parameterid>
									<name>Center</name>
									<value>
										<horiz>0</horiz>
										<vert>0</vert>
									</value>
								</parameter>
								<parameter authoringApp="PremierePro">
									<parameterid>centerOffset</parameterid>
									<name>Anchor Point</name>
									<value>
										<horiz>0</horiz>
										<vert>0</vert>
									</value>
								</parameter>
								<parameter authoringApp="PremierePro">
									<parameterid>antiflicker</parameterid>
									<name>Anti-flicker Filter</name>
									<valuemin>0.0</valuemin>
									<valuemax>1.0</valuemax>
									<value>0</value>
								</parameter>
							</effect>
						</filter>
						<link>
							<linkclipref>clipitem-88</linkclipref>
							<mediatype>video</mediatype>
							<trackindex>1</trackindex>
							<clipindex>4</clipindex>
						</link>
						<link>
							<linkclipref>clipitem-96</linkclipref>
							<mediatype>audio</mediatype>
							<trackindex>1</trackindex>
							<clipindex>4</clipindex>
							<groupindex>1</groupindex>
						</link>
						<link>
							<linkclipref>clipitem-104</linkclipref>
							<mediatype>audio</mediatype>
							<trackindex>2</trackindex>
							<clipindex>4</clipindex>
							<groupindex>1</groupindex>
						</link>
						<logginginfo>
							<description />
							<scene />
							<shottake />
							<lognote />
							<good />
							<originalvideofilename />
							<originalaudiofilename />
						</logginginfo>
						<colorinfo>
							<lut />
							<lut1 />
							<asc_sop />
							<asc_sat />
							<lut2 />
						</colorinfo>
					<labels><label2>Lavender</label2></labels></clipitem>
					<clipitem id="clipitem-87">
						<masterclipid>clipitem-3-444</masterclipid>
						<name>Taylor_Swift_Travis_Kelce_-_The_New_Power_Couple.mp4</name>
						<enabled>TRUE</enabled>
						<duration>150</duration>
						<rate>
							<timebase>25</timebase>
							<ntsc>FALSE</ntsc>
						</rate>
						<start>113250</start>
						<end>113400</end>
						<in>66450</in>
						<out>66600</out>
						<pproTicksIn>0</pproTicksIn>
						<pproTicksOut>875013995520000</pproTicksOut>
						<alphatype>none</alphatype>
						<pixelaspectratio>square</pixelaspectratio>
						<anamorphic>FALSE</anamorphic>
						<file id="file-31">
							<name>Taylor_Swift_Travis_Kelce_-_The_New_Power_Couple.mp4</name>
							<pathurl>file://localhost/Users/themalikano/Documents/VideoAutomation/premiere_videos/Taylor_Swift_Travis_Kelce_-_The_New_Power_Couple.mp4</pathurl>
							<rate>
								<timebase>25</timebase>
								<ntsc>FALSE</ntsc>
							</rate>
							<duration>86118</duration>
							<timecode>
								<rate>
									<timebase>25</timebase>
									<ntsc>FALSE</ntsc>
								</rate>
								<string>00:00:00:00</string>
								<frame>0</frame>
								<displayformat>NDF</displayformat>
							</timecode>
							<media>
								<video>
									<samplecharacteristics>
										<rate>
											<timebase>25</timebase>
											<ntsc>FALSE</ntsc>
										</rate>
										<width>1920</width>
										<height>1080</height>
										<anamorphic>FALSE</anamorphic>
										<pixelaspectratio>square</pixelaspectratio>
										<fielddominance>none</fielddominance>
									</samplecharacteristics>
								</video>
								<audio>
									<samplecharacteristics>
										<depth>16</depth>
										<samplerate>44100</samplerate>
									</samplecharacteristics>
									<channelcount>2</channelcount>
								</audio>
							</media>
						</file>
						<link>
							<linkclipref>clipitem-87</linkclipref>
							<mediatype>video</mediatype>
							<trackindex>1</trackindex>
							<clipindex>3</clipindex>
						</link>
						<link>
							<linkclipref>clipitem-95</linkclipref>
							<mediatype>audio</mediatype>
							<trackindex>1</trackindex>
							<clipindex>3</clipindex>
							<groupindex>1</groupindex>
						</link>
						<link>
							<linkclipref>clipitem-103</linkclipref>
							<mediatype>audio</mediatype>
							<trackindex>2</trackindex>
							<clipindex>3</clipindex>
							<groupindex>1</groupindex>
						</link>
						<logginginfo>
							<description />
							<scene />
							<shottake />
							<lognote />
							<good />
							<originalvideofilename />
							<originalaudiofilename />
						</logginginfo>
						<colorinfo>
							<lut />
							<lut1 />
							<asc_sop />
							<asc_sat />
							<lut2 />
						</colorinfo>
					<labels><label2>Caribbean</label2></labels></clipitem>
					<clipitem id="clipitem-88">
						<masterclipid>clipitem-4-153</masterclipid>
						<name>Travis_Kelce_ANNOUNCE_WEDDING_DATE_with_Taylor_Swift_Why_He_was_Delaying_all_Along.mp4</name>
						<enabled>TRUE</enabled>
						<duration>150</duration>
						<rate>
							<timebase>25</timebase>
							<ntsc>FALSE</ntsc>
						</rate>
						<start>113400</start>
						<end>113550</end>
						<in>22800</in>
						<out>22950</out>
						<pproTicksIn>0</pproTicksIn>
						<pproTicksOut>419410897920000</pproTicksOut>
						<alphatype>none</alphatype>
						<pixelaspectratio>square</pixelaspectratio>
						<anamorphic>FALSE</anamorphic>
						<file id="file-32">
							<name>Travis_Kelce_ANNOUNCE_WEDDING_DATE_with_Taylor_Swift_Why_He_was_Delaying_all_Along.mp4</name>
							<pathurl>file://localhost/Users/themalikano/Documents/VideoAutomation/premiere_videos/Travis_Kelce_ANNOUNCE_WEDDING_DATE_with_Taylor_Swift_Why_He_was_Delaying_all_Along.mp4</pathurl>
							<rate>
								<timebase>24</timebase>
								<ntsc>FALSE</ntsc>
							</rate>
							<duration>39627</duration>
							<timecode>
								<rate>
									<timebase>24</timebase>
									<ntsc>FALSE</ntsc>
								</rate>
								<string>00:00:00:00</string>
								<frame>0</frame>
								<displayformat>NDF</displayformat>
							</timecode>
							<media>
								<video>
									<samplecharacteristics>
										<rate>
											<timebase>24</timebase>
											<ntsc>FALSE</ntsc>
										</rate>
										<width>852</width>
										<height>480</height>
										<anamorphic>FALSE</anamorphic>
										<pixelaspectratio>square</pixelaspectratio>
										<fielddominance>none</fielddominance>
									</samplecharacteristics>
								</video>
								<audio>
									<samplecharacteristics>
										<depth>16</depth>
										<samplerate>44100</samplerate>
									</samplecharacteristics>
									<channelcount>2</channelcount>
								</audio>
							</media>
						</file>
						<filter>
							<effect>
								<name>Basic Motion</name>
								<effectid>basic</effectid>
								<effectcategory>motion</effectcategory>
								<effecttype>motion</effecttype>
								<mediatype>video</mediatype>
								<pproBypass>false</pproBypass>
								<parameter authoringApp="PremierePro">
									<parameterid>scale</parameterid>
									<name>Scale</name>
									<valuemin>0</valuemin>
									<valuemax>1000</valuemax>
									<value>225</value>
								</parameter>
								<parameter authoringApp="PremierePro">
									<parameterid>rotation</parameterid>
									<name>Rotation</name>
									<valuemin>-8640</valuemin>
									<valuemax>8640</valuemax>
									<value>0</value>
								</parameter>
								<parameter authoringApp="PremierePro">
									<parameterid>center</parameterid>
									<name>Center</name>
									<value>
										<horiz>0</horiz>
										<vert>0</vert>
									</value>
								</parameter>
								<parameter authoringApp="PremierePro">
									<parameterid>centerOffset</parameterid>
									<name>Anchor Point</name>
									<value>
										<horiz>0</horiz>
										<vert>0</vert>
									</value>
								</parameter>
								<parameter authoringApp="PremierePro">
									<parameterid>antiflicker</parameterid>
									<name>Anti-flicker Filter</name>
									<valuemin>0.0</valuemin>
									<valuemax>1.0</valuemax>
									<value>0</value>
								</parameter>
							</effect>
						</filter>
						<link>
							<linkclipref>clipitem-88</linkclipref>
							<mediatype>video</mediatype>
							<trackindex>1</trackindex>
							<clipindex>4</clipindex>
						</link>
						<link>
							<linkclipref>clipitem-96</linkclipref>
							<mediatype>audio</mediatype>
							<trackindex>1</trackindex>
							<clipindex>4</clipindex>
							<groupindex>1</groupindex>
						</link>
						<link>
							<linkclipref>clipitem-104</linkclipref>
							<mediatype>audio</mediatype>
							<trackindex>2</trackindex>
							<clipindex>4</clipindex>
							<groupindex>1</groupindex>
						</link>
						<logginginfo>
							<description />
							<scene />
							<shottake />
							<lognote />
							<good />
							<originalvideofilename />
							<originalaudiofilename />
						</logginginfo>
						<colorinfo>
							<lut />
							<lut1 />
							<asc_sop />
							<asc_sat />
							<lut2 />
						</colorinfo>
					<labels><label2>Lavender</label2></labels></clipitem>
					<clipitem id="clipitem-87">
						<masterclipid>clipitem-3-51</masterclipid>
						<name>Taylor_Swift_Travis_Kelce_-_The_New_Power_Couple.mp4</name>
						<enabled>TRUE</enabled>
						<duration>150</duration>
						<rate>
							<timebase>25</timebase>
							<ntsc>FALSE</ntsc>
						</rate>
						<start>113550</start>
						<end>113700</end>
						<in>7500</in>
						<out>7650</out>
						<pproTicksIn>0</pproTicksIn>
						<pproTicksOut>875013995520000</pproTicksOut>
						<alphatype>none</alphatype>
						<pixelaspectratio>square</pixelaspectratio>
						<anamorphic>FALSE</anamorphic>
						<file id="file-31">
							<name>Taylor_Swift_Travis_Kelce_-_The_New_Power_Couple.mp4</name>
							<pathurl>file://localhost/Users/themalikano/Documents/VideoAutomation/premiere_videos/Taylor_Swift_Travis_Kelce_-_The_New_Power_Couple.mp4</pathurl>
							<rate>
								<timebase>25</timebase>
								<ntsc>FALSE</ntsc>
							</rate>
							<duration>86118</duration>
							<timecode>
								<rate>
									<timebase>25</timebase>
									<ntsc>FALSE</ntsc>
								</rate>
								<string>00:00:00:00</string>
								<frame>0</frame>
								<displayformat>NDF</displayformat>
							</timecode>
							<media>
								<video>
									<samplecharacteristics>
										<rate>
											<timebase>25</timebase>
											<ntsc>FALSE</ntsc>
										</rate>
										<width>1920</width>
										<height>1080</height>
										<anamorphic>FALSE</anamorphic>
										<pixelaspectratio>square</pixelaspectratio>
										<fielddominance>none</fielddominance>
									</samplecharacteristics>
								</video>
								<audio>
									<samplecharacteristics>
										<depth>16</depth>
										<samplerate>44100</samplerate>
									</samplecharacteristics>
									<channelcount>2</channelcount>
								</audio>
							</media>
						</file>
						<link>
							<linkclipref>clipitem-87</linkclipref>
							<mediatype>video</mediatype>
							<trackindex>1</trackindex>
							<clipindex>3</clipindex>
						</link>
						<link>
							<linkclipref>clipitem-95</linkclipref>
							<mediatype>audio</mediatype>
							<trackindex>1</trackindex>
							<clipindex>3</clipindex>
							<groupindex>1</groupindex>
						</link>
						<link>
							<linkclipref>clipitem-103</linkclipref>
							<mediatype>audio</mediatype>
							<trackindex>2</trackindex>
							<clipindex>3</clipindex>
							<groupindex>1</groupindex>
						</link>
						<logginginfo>
							<description />
							<scene />
							<shottake />
							<lognote />
							<good />
							<originalvideofilename />
							<originalaudiofilename />
						</logginginfo>
						<colorinfo>
							<lut />
							<lut1 />
							<asc_sop />
							<asc_sat />
							<lut2 />
						</colorinfo>
					<labels><label2>Caribbean</label2></labels></clipitem>
					<clipitem id="clipitem-88">
						<masterclipid>clipitem-4-196</masterclipid>
						<name>Travis_Kelce_ANNOUNCE_WEDDING_DATE_with_Taylor_Swift_Why_He_was_Delaying_all_Along.mp4</name>
						<enabled>TRUE</enabled>
						<duration>150</duration>
						<rate>
							<timebase>25</timebase>
							<ntsc>FALSE</ntsc>
						</rate>
						<start>113700</start>
						<end>113850</end>
						<in>29250</in>
						<out>29400</out>
						<pproTicksIn>0</pproTicksIn>
						<pproTicksOut>419410897920000</pproTicksOut>
						<alphatype>none</alphatype>
						<pixelaspectratio>square</pixelaspectratio>
						<anamorphic>FALSE</anamorphic>
						<file id="file-32">
							<name>Travis_Kelce_ANNOUNCE_WEDDING_DATE_with_Taylor_Swift_Why_He_was_Delaying_all_Along.mp4</name>
							<pathurl>file://localhost/Users/themalikano/Documents/VideoAutomation/premiere_videos/Travis_Kelce_ANNOUNCE_WEDDING_DATE_with_Taylor_Swift_Why_He_was_Delaying_all_Along.mp4</pathurl>
							<rate>
								<timebase>24</timebase>
								<ntsc>FALSE</ntsc>
							</rate>
							<duration>39627</duration>
							<timecode>
								<rate>
									<timebase>24</timebase>
									<ntsc>FALSE</ntsc>
								</rate>
								<string>00:00:00:00</string>
								<frame>0</frame>
								<displayformat>NDF</displayformat>
							</timecode>
							<media>
								<video>
									<samplecharacteristics>
										<rate>
											<timebase>24</timebase>
											<ntsc>FALSE</ntsc>
										</rate>
										<width>852</width>
										<height>480</height>
										<anamorphic>FALSE</anamorphic>
										<pixelaspectratio>square</pixelaspectratio>
										<fielddominance>none</fielddominance>
									</samplecharacteristics>
								</video>
								<audio>
									<samplecharacteristics>
										<depth>16</depth>
										<samplerate>44100</samplerate>
									</samplecharacteristics>
									<channelcount>2</channelcount>
								</audio>
							</media>
						</file>
						<filter>
							<effect>
								<name>Basic Motion</name>
								<effectid>basic</effectid>
								<effectcategory>motion</effectcategory>
								<effecttype>motion</effecttype>
								<mediatype>video</mediatype>
								<pproBypass>false</pproBypass>
								<parameter authoringApp="PremierePro">
									<parameterid>scale</parameterid>
									<name>Scale</name>
									<valuemin>0</valuemin>
									<valuemax>1000</valuemax>
									<value>225</value>
								</parameter>
								<parameter authoringApp="PremierePro">
									<parameterid>rotation</parameterid>
									<name>Rotation</name>
									<valuemin>-8640</valuemin>
									<valuemax>8640</valuemax>
									<value>0</value>
								</parameter>
								<parameter authoringApp="PremierePro">
									<parameterid>center</parameterid>
									<name>Center</name>
									<value>
										<horiz>0</horiz>
										<vert>0</vert>
									</value>
								</parameter>
								<parameter authoringApp="PremierePro">
									<parameterid>centerOffset</parameterid>
									<name>Anchor Point</name>
									<value>
										<horiz>0</horiz>
										<vert>0</vert>
									</value>
								</parameter>
								<parameter authoringApp="PremierePro">
									<parameterid>antiflicker</parameterid>
									<name>Anti-flicker Filter</name>
									<valuemin>0.0</valuemin>
									<valuemax>1.0</valuemax>
									<value>0</value>
								</parameter>
							</effect>
						</filter>
						<link>
							<linkclipref>clipitem-88</linkclipref>
							<mediatype>video</mediatype>
							<trackindex>1</trackindex>
							<clipindex>4</clipindex>
						</link>
						<link>
							<linkclipref>clipitem-96</linkclipref>
							<mediatype>audio</mediatype>
							<trackindex>1</trackindex>
							<clipindex>4</clipindex>
							<groupindex>1</groupindex>
						</link>
						<link>
							<linkclipref>clipitem-104</linkclipref>
							<mediatype>audio</mediatype>
							<trackindex>2</trackindex>
							<clipindex>4</clipindex>
							<groupindex>1</groupindex>
						</link>
						<logginginfo>
							<description />
							<scene />
							<shottake />
							<lognote />
							<good />
							<originalvideofilename />
							<originalaudiofilename />
						</logginginfo>
						<colorinfo>
							<lut />
							<lut1 />
							<asc_sop />
							<asc_sat />
							<lut2 />
						</colorinfo>
					<labels><label2>Lavender</label2></labels></clipitem>
					<clipitem id="clipitem-87">
						<masterclipid>clipitem-3-166</masterclipid>
						<name>Taylor_Swift_Travis_Kelce_-_The_New_Power_Couple.mp4</name>
						<enabled>TRUE</enabled>
						<duration>150</duration>
						<rate>
							<timebase>25</timebase>
							<ntsc>FALSE</ntsc>
						</rate>
						<start>113850</start>
						<end>114000</end>
						<in>24750</in>
						<out>24900</out>
						<pproTicksIn>0</pproTicksIn>
						<pproTicksOut>875013995520000</pproTicksOut>
						<alphatype>none</alphatype>
						<pixelaspectratio>square</pixelaspectratio>
						<anamorphic>FALSE</anamorphic>
						<file id="file-31">
							<name>Taylor_Swift_Travis_Kelce_-_The_New_Power_Couple.mp4</name>
							<pathurl>file://localhost/Users/themalikano/Documents/VideoAutomation/premiere_videos/Taylor_Swift_Travis_Kelce_-_The_New_Power_Couple.mp4</pathurl>
							<rate>
								<timebase>25</timebase>
								<ntsc>FALSE</ntsc>
							</rate>
							<duration>86118</duration>
							<timecode>
								<rate>
									<timebase>25</timebase>
									<ntsc>FALSE</ntsc>
								</rate>
								<string>00:00:00:00</string>
								<frame>0</frame>
								<displayformat>NDF</displayformat>
							</timecode>
							<media>
								<video>
									<samplecharacteristics>
										<rate>
											<timebase>25</timebase>
											<ntsc>FALSE</ntsc>
										</rate>
										<width>1920</width>
										<height>1080</height>
										<anamorphic>FALSE</anamorphic>
										<pixelaspectratio>square</pixelaspectratio>
										<fielddominance>none</fielddominance>
									</samplecharacteristics>
								</video>
								<audio>
									<samplecharacteristics>
										<depth>16</depth>
										<samplerate>44100</samplerate>
									</samplecharacteristics>
									<channelcount>2</channelcount>
								</audio>
							</media>
						</file>
						<link>
							<linkclipref>clipitem-87</linkclipref>
							<mediatype>video</mediatype>
							<trackindex>1</trackindex>
							<clipindex>3</clipindex>
						</link>
						<link>
							<linkclipref>clipitem-95</linkclipref>
							<mediatype>audio</mediatype>
							<trackindex>1</trackindex>
							<clipindex>3</clipindex>
							<groupindex>1</groupindex>
						</link>
						<link>
							<linkclipref>clipitem-103</linkclipref>
							<mediatype>audio</mediatype>
							<trackindex>2</trackindex>
							<clipindex>3</clipindex>
							<groupindex>1</groupindex>
						</link>
						<logginginfo>
							<description />
							<scene />
							<shottake />
							<lognote />
							<good />
							<originalvideofilename />
							<originalaudiofilename />
						</logginginfo>
						<colorinfo>
							<lut />
							<lut1 />
							<asc_sop />
							<asc_sat />
							<lut2 />
						</colorinfo>
					<labels><label2>Caribbean</label2></labels></clipitem>
					<clipitem id="clipitem-88">
						<masterclipid>clipitem-4-37</masterclipid>
						<name>Travis_Kelce_ANNOUNCE_WEDDING_DATE_with_Taylor_Swift_Why_He_was_Delaying_all_Along.mp4</name>
						<enabled>TRUE</enabled>
						<duration>150</duration>
						<rate>
							<timebase>25</timebase>
							<ntsc>FALSE</ntsc>
						</rate>
						<start>114000</start>
						<end>114150</end>
						<in>5400</in>
						<out>5550</out>
						<pproTicksIn>0</pproTicksIn>
						<pproTicksOut>419410897920000</pproTicksOut>
						<alphatype>none</alphatype>
						<pixelaspectratio>square</pixelaspectratio>
						<anamorphic>FALSE</anamorphic>
						<file id="file-32">
							<name>Travis_Kelce_ANNOUNCE_WEDDING_DATE_with_Taylor_Swift_Why_He_was_Delaying_all_Along.mp4</name>
							<pathurl>file://localhost/Users/themalikano/Documents/VideoAutomation/premiere_videos/Travis_Kelce_ANNOUNCE_WEDDING_DATE_with_Taylor_Swift_Why_He_was_Delaying_all_Along.mp4</pathurl>
							<rate>
								<timebase>24</timebase>
								<ntsc>FALSE</ntsc>
							</rate>
							<duration>39627</duration>
							<timecode>
								<rate>
									<timebase>24</timebase>
									<ntsc>FALSE</ntsc>
								</rate>
								<string>00:00:00:00</string>
								<frame>0</frame>
								<displayformat>NDF</displayformat>
							</timecode>
							<media>
								<video>
									<samplecharacteristics>
										<rate>
											<timebase>24</timebase>
											<ntsc>FALSE</ntsc>
										</rate>
										<width>852</width>
										<height>480</height>
										<anamorphic>FALSE</anamorphic>
										<pixelaspectratio>square</pixelaspectratio>
										<fielddominance>none</fielddominance>
									</samplecharacteristics>
								</video>
								<audio>
									<samplecharacteristics>
										<depth>16</depth>
										<samplerate>44100</samplerate>
									</samplecharacteristics>
									<channelcount>2</channelcount>
								</audio>
							</media>
						</file>
						<filter>
							<effect>
								<name>Basic Motion</name>
								<effectid>basic</effectid>
								<effectcategory>motion</effectcategory>
								<effecttype>motion</effecttype>
								<mediatype>video</mediatype>
								<pproBypass>false</pproBypass>
								<parameter authoringApp="PremierePro">
									<parameterid>scale</parameterid>
									<name>Scale</name>
									<valuemin>0</valuemin>
									<valuemax>1000</valuemax>
									<value>225</value>
								</parameter>
								<parameter authoringApp="PremierePro">
									<parameterid>rotation</parameterid>
									<name>Rotation</name>
									<valuemin>-8640</valuemin>
									<valuemax>8640</valuemax>
									<value>0</value>
								</parameter>
								<parameter authoringApp="PremierePro">
									<parameterid>center</parameterid>
									<name>Center</name>
									<value>
										<horiz>0</horiz>
										<vert>0</vert>
									</value>
								</parameter>
								<parameter authoringApp="PremierePro">
									<parameterid>centerOffset</parameterid>
									<name>Anchor Point</name>
									<value>
										<horiz>0</horiz>
										<vert>0</vert>
									</value>
								</parameter>
								<parameter authoringApp="PremierePro">
									<parameterid>antiflicker</parameterid>
									<name>Anti-flicker Filter</name>
									<valuemin>0.0</valuemin>
									<valuemax>1.0</valuemax>
									<value>0</value>
								</parameter>
							</effect>
						</filter>
						<link>
							<linkclipref>clipitem-88</linkclipref>
							<mediatype>video</mediatype>
							<trackindex>1</trackindex>
							<clipindex>4</clipindex>
						</link>
						<link>
							<linkclipref>clipitem-96</linkclipref>
							<mediatype>audio</mediatype>
							<trackindex>1</trackindex>
							<clipindex>4</clipindex>
							<groupindex>1</groupindex>
						</link>
						<link>
							<linkclipref>clipitem-104</linkclipref>
							<mediatype>audio</mediatype>
							<trackindex>2</trackindex>
							<clipindex>4</clipindex>
							<groupindex>1</groupindex>
						</link>
						<logginginfo>
							<description />
							<scene />
							<shottake />
							<lognote />
							<good />
							<originalvideofilename />
							<originalaudiofilename />
						</logginginfo>
						<colorinfo>
							<lut />
							<lut1 />
							<asc_sop />
							<asc_sat />
							<lut2 />
						</colorinfo>
					<labels><label2>Lavender</label2></labels></clipitem>
					<clipitem id="clipitem-87">
						<masterclipid>clipitem-3-215</masterclipid>
						<name>Taylor_Swift_Travis_Kelce_-_The_New_Power_Couple.mp4</name>
						<enabled>TRUE</enabled>
						<duration>150</duration>
						<rate>
							<timebase>25</timebase>
							<ntsc>FALSE</ntsc>
						</rate>
						<start>114150</start>
						<end>114300</end>
						<in>32100</in>
						<out>32250</out>
						<pproTicksIn>0</pproTicksIn>
						<pproTicksOut>875013995520000</pproTicksOut>
						<alphatype>none</alphatype>
						<pixelaspectratio>square</pixelaspectratio>
						<anamorphic>FALSE</anamorphic>
						<file id="file-31">
							<name>Taylor_Swift_Travis_Kelce_-_The_New_Power_Couple.mp4</name>
							<pathurl>file://localhost/Users/themalikano/Documents/VideoAutomation/premiere_videos/Taylor_Swift_Travis_Kelce_-_The_New_Power_Couple.mp4</pathurl>
							<rate>
								<timebase>25</timebase>
								<ntsc>FALSE</ntsc>
							</rate>
							<duration>86118</duration>
							<timecode>
								<rate>
									<timebase>25</timebase>
									<ntsc>FALSE</ntsc>
								</rate>
								<string>00:00:00:00</string>
								<frame>0</frame>
								<displayformat>NDF</displayformat>
							</timecode>
							<media>
								<video>
									<samplecharacteristics>
										<rate>
											<timebase>25</timebase>
											<ntsc>FALSE</ntsc>
										</rate>
										<width>1920</width>
										<height>1080</height>
										<anamorphic>FALSE</anamorphic>
										<pixelaspectratio>square</pixelaspectratio>
										<fielddominance>none</fielddominance>
									</samplecharacteristics>
								</video>
								<audio>
									<samplecharacteristics>
										<depth>16</depth>
										<samplerate>44100</samplerate>
									</samplecharacteristics>
									<channelcount>2</channelcount>
								</audio>
							</media>
						</file>
						<link>
							<linkclipref>clipitem-87</linkclipref>
							<mediatype>video</mediatype>
							<trackindex>1</trackindex>
							<clipindex>3</clipindex>
						</link>
						<link>
							<linkclipref>clipitem-95</linkclipref>
							<mediatype>audio</mediatype>
							<trackindex>1</trackindex>
							<clipindex>3</clipindex>
							<groupindex>1</groupindex>
						</link>
						<link>
							<linkclipref>clipitem-103</linkclipref>
							<mediatype>audio</mediatype>
							<trackindex>2</trackindex>
							<clipindex>3</clipindex>
							<groupindex>1</groupindex>
						</link>
						<logginginfo>
							<description />
							<scene />
							<shottake />
							<lognote />
							<good />
							<originalvideofilename />
							<originalaudiofilename />
						</logginginfo>
						<colorinfo>
							<lut />
							<lut1 />
							<asc_sop />
							<asc_sat />
							<lut2 />
						</colorinfo>
					<labels><label2>Caribbean</label2></labels></clipitem>
					<clipitem id="clipitem-88">
						<masterclipid>clipitem-4-137</masterclipid>
						<name>Travis_Kelce_ANNOUNCE_WEDDING_DATE_with_Taylor_Swift_Why_He_was_Delaying_all_Along.mp4</name>
						<enabled>TRUE</enabled>
						<duration>150</duration>
						<rate>
							<timebase>25</timebase>
							<ntsc>FALSE</ntsc>
						</rate>
						<start>114300</start>
						<end>114450</end>
						<in>20400</in>
						<out>20550</out>
						<pproTicksIn>0</pproTicksIn>
						<pproTicksOut>419410897920000</pproTicksOut>
						<alphatype>none</alphatype>
						<pixelaspectratio>square</pixelaspectratio>
						<anamorphic>FALSE</anamorphic>
						<file id="file-32">
							<name>Travis_Kelce_ANNOUNCE_WEDDING_DATE_with_Taylor_Swift_Why_He_was_Delaying_all_Along.mp4</name>
							<pathurl>file://localhost/Users/themalikano/Documents/VideoAutomation/premiere_videos/Travis_Kelce_ANNOUNCE_WEDDING_DATE_with_Taylor_Swift_Why_He_was_Delaying_all_Along.mp4</pathurl>
							<rate>
								<timebase>24</timebase>
								<ntsc>FALSE</ntsc>
							</rate>
							<duration>39627</duration>
							<timecode>
								<rate>
									<timebase>24</timebase>
									<ntsc>FALSE</ntsc>
								</rate>
								<string>00:00:00:00</string>
								<frame>0</frame>
								<displayformat>NDF</displayformat>
							</timecode>
							<media>
								<video>
									<samplecharacteristics>
										<rate>
											<timebase>24</timebase>
											<ntsc>FALSE</ntsc>
										</rate>
										<width>852</width>
										<height>480</height>
										<anamorphic>FALSE</anamorphic>
										<pixelaspectratio>square</pixelaspectratio>
										<fielddominance>none</fielddominance>
									</samplecharacteristics>
								</video>
								<audio>
									<samplecharacteristics>
										<depth>16</depth>
										<samplerate>44100</samplerate>
									</samplecharacteristics>
									<channelcount>2</channelcount>
								</audio>
							</media>
						</file>
						<filter>
							<effect>
								<name>Basic Motion</name>
								<effectid>basic</effectid>
								<effectcategory>motion</effectcategory>
								<effecttype>motion</effecttype>
								<mediatype>video</mediatype>
								<pproBypass>false</pproBypass>
								<parameter authoringApp="PremierePro">
									<parameterid>scale</parameterid>
									<name>Scale</name>
									<valuemin>0</valuemin>
									<valuemax>1000</valuemax>
									<value>225</value>
								</parameter>
								<parameter authoringApp="PremierePro">
									<parameterid>rotation</parameterid>
									<name>Rotation</name>
									<valuemin>-8640</valuemin>
									<valuemax>8640</valuemax>
									<value>0</value>
								</parameter>
								<parameter authoringApp="PremierePro">
									<parameterid>center</parameterid>
									<name>Center</name>
									<value>
										<horiz>0</horiz>
										<vert>0</vert>
									</value>
								</parameter>
								<parameter authoringApp="PremierePro">
									<parameterid>centerOffset</parameterid>
									<name>Anchor Point</name>
									<value>
										<horiz>0</horiz>
										<vert>0</vert>
									</value>
								</parameter>
								<parameter authoringApp="PremierePro">
									<parameterid>antiflicker</parameterid>
									<name>Anti-flicker Filter</name>
									<valuemin>0.0</valuemin>
									<valuemax>1.0</valuemax>
									<value>0</value>
								</parameter>
							</effect>
						</filter>
						<link>
							<linkclipref>clipitem-88</linkclipref>
							<mediatype>video</mediatype>
							<trackindex>1</trackindex>
							<clipindex>4</clipindex>
						</link>
						<link>
							<linkclipref>clipitem-96</linkclipref>
							<mediatype>audio</mediatype>
							<trackindex>1</trackindex>
							<clipindex>4</clipindex>
							<groupindex>1</groupindex>
						</link>
						<link>
							<linkclipref>clipitem-104</linkclipref>
							<mediatype>audio</mediatype>
							<trackindex>2</trackindex>
							<clipindex>4</clipindex>
							<groupindex>1</groupindex>
						</link>
						<logginginfo>
							<description />
							<scene />
							<shottake />
							<lognote />
							<good />
							<originalvideofilename />
							<originalaudiofilename />
						</logginginfo>
						<colorinfo>
							<lut />
							<lut1 />
							<asc_sop />
							<asc_sat />
							<lut2 />
						</colorinfo>
					<labels><label2>Lavender</label2></labels></clipitem>
					<clipitem id="clipitem-87">
						<masterclipid>clipitem-3-256</masterclipid>
						<name>Taylor_Swift_Travis_Kelce_-_The_New_Power_Couple.mp4</name>
						<enabled>TRUE</enabled>
						<duration>150</duration>
						<rate>
							<timebase>25</timebase>
							<ntsc>FALSE</ntsc>
						</rate>
						<start>114450</start>
						<end>114600</end>
						<in>38250</in>
						<out>38400</out>
						<pproTicksIn>0</pproTicksIn>
						<pproTicksOut>875013995520000</pproTicksOut>
						<alphatype>none</alphatype>
						<pixelaspectratio>square</pixelaspectratio>
						<anamorphic>FALSE</anamorphic>
						<file id="file-31">
							<name>Taylor_Swift_Travis_Kelce_-_The_New_Power_Couple.mp4</name>
							<pathurl>file://localhost/Users/themalikano/Documents/VideoAutomation/premiere_videos/Taylor_Swift_Travis_Kelce_-_The_New_Power_Couple.mp4</pathurl>
							<rate>
								<timebase>25</timebase>
								<ntsc>FALSE</ntsc>
							</rate>
							<duration>86118</duration>
							<timecode>
								<rate>
									<timebase>25</timebase>
									<ntsc>FALSE</ntsc>
								</rate>
								<string>00:00:00:00</string>
								<frame>0</frame>
								<displayformat>NDF</displayformat>
							</timecode>
							<media>
								<video>
									<samplecharacteristics>
										<rate>
											<timebase>25</timebase>
											<ntsc>FALSE</ntsc>
										</rate>
										<width>1920</width>
										<height>1080</height>
										<anamorphic>FALSE</anamorphic>
										<pixelaspectratio>square</pixelaspectratio>
										<fielddominance>none</fielddominance>
									</samplecharacteristics>
								</video>
								<audio>
									<samplecharacteristics>
										<depth>16</depth>
										<samplerate>44100</samplerate>
									</samplecharacteristics>
									<channelcount>2</channelcount>
								</audio>
							</media>
						</file>
						<link>
							<linkclipref>clipitem-87</linkclipref>
							<mediatype>video</mediatype>
							<trackindex>1</trackindex>
							<clipindex>3</clipindex>
						</link>
						<link>
							<linkclipref>clipitem-95</linkclipref>
							<mediatype>audio</mediatype>
							<trackindex>1</trackindex>
							<clipindex>3</clipindex>
							<groupindex>1</groupindex>
						</link>
						<link>
							<linkclipref>clipitem-103</linkclipref>
							<mediatype>audio</mediatype>
							<trackindex>2</trackindex>
							<clipindex>3</clipindex>
							<groupindex>1</groupindex>
						</link>
						<logginginfo>
							<description />
							<scene />
							<shottake />
							<lognote />
							<good />
							<originalvideofilename />
							<originalaudiofilename />
						</logginginfo>
						<colorinfo>
							<lut />
							<lut1 />
							<asc_sop />
							<asc_sat />
							<lut2 />
						</colorinfo>
					<labels><label2>Caribbean</label2></labels></clipitem>
					<clipitem id="clipitem-88">
						<masterclipid>clipitem-4-267</masterclipid>
						<name>Travis_Kelce_ANNOUNCE_WEDDING_DATE_with_Taylor_Swift_Why_He_was_Delaying_all_Along.mp4</name>
						<enabled>TRUE</enabled>
						<duration>150</duration>
						<rate>
							<timebase>25</timebase>
							<ntsc>FALSE</ntsc>
						</rate>
						<start>114600</start>
						<end>114750</end>
						<in>39900</in>
						<out>40050</out>
						<pproTicksIn>0</pproTicksIn>
						<pproTicksOut>419410897920000</pproTicksOut>
						<alphatype>none</alphatype>
						<pixelaspectratio>square</pixelaspectratio>
						<anamorphic>FALSE</anamorphic>
						<file id="file-32">
							<name>Travis_Kelce_ANNOUNCE_WEDDING_DATE_with_Taylor_Swift_Why_He_was_Delaying_all_Along.mp4</name>
							<pathurl>file://localhost/Users/themalikano/Documents/VideoAutomation/premiere_videos/Travis_Kelce_ANNOUNCE_WEDDING_DATE_with_Taylor_Swift_Why_He_was_Delaying_all_Along.mp4</pathurl>
							<rate>
								<timebase>24</timebase>
								<ntsc>FALSE</ntsc>
							</rate>
							<duration>39627</duration>
							<timecode>
								<rate>
									<timebase>24</timebase>
									<ntsc>FALSE</ntsc>
								</rate>
								<string>00:00:00:00</string>
								<frame>0</frame>
								<displayformat>NDF</displayformat>
							</timecode>
							<media>
								<video>
									<samplecharacteristics>
										<rate>
											<timebase>24</timebase>
											<ntsc>FALSE</ntsc>
										</rate>
										<width>852</width>
										<height>480</height>
										<anamorphic>FALSE</anamorphic>
										<pixelaspectratio>square</pixelaspectratio>
										<fielddominance>none</fielddominance>
									</samplecharacteristics>
								</video>
								<audio>
									<samplecharacteristics>
										<depth>16</depth>
										<samplerate>44100</samplerate>
									</samplecharacteristics>
									<channelcount>2</channelcount>
								</audio>
							</media>
						</file>
						<filter>
							<effect>
								<name>Basic Motion</name>
								<effectid>basic</effectid>
								<effectcategory>motion</effectcategory>
								<effecttype>motion</effecttype>
								<mediatype>video</mediatype>
								<pproBypass>false</pproBypass>
								<parameter authoringApp="PremierePro">
									<parameterid>scale</parameterid>
									<name>Scale</name>
									<valuemin>0</valuemin>
									<valuemax>1000</valuemax>
									<value>225</value>
								</parameter>
								<parameter authoringApp="PremierePro">
									<parameterid>rotation</parameterid>
									<name>Rotation</name>
									<valuemin>-8640</valuemin>
									<valuemax>8640</valuemax>
									<value>0</value>
								</parameter>
								<parameter authoringApp="PremierePro">
									<parameterid>center</parameterid>
									<name>Center</name>
									<value>
										<horiz>0</horiz>
										<vert>0</vert>
									</value>
								</parameter>
								<parameter authoringApp="PremierePro">
									<parameterid>centerOffset</parameterid>
									<name>Anchor Point</name>
									<value>
										<horiz>0</horiz>
										<vert>0</vert>
									</value>
								</parameter>
								<parameter authoringApp="PremierePro">
									<parameterid>antiflicker</parameterid>
									<name>Anti-flicker Filter</name>
									<valuemin>0.0</valuemin>
									<valuemax>1.0</valuemax>
									<value>0</value>
								</parameter>
							</effect>
						</filter>
						<link>
							<linkclipref>clipitem-88</linkclipref>
							<mediatype>video</mediatype>
							<trackindex>1</trackindex>
							<clipindex>4</clipindex>
						</link>
						<link>
							<linkclipref>clipitem-96</linkclipref>
							<mediatype>audio</mediatype>
							<trackindex>1</trackindex>
							<clipindex>4</clipindex>
							<groupindex>1</groupindex>
						</link>
						<link>
							<linkclipref>clipitem-104</linkclipref>
							<mediatype>audio</mediatype>
							<trackindex>2</trackindex>
							<clipindex>4</clipindex>
							<groupindex>1</groupindex>
						</link>
						<logginginfo>
							<description />
							<scene />
							<shottake />
							<lognote />
							<good />
							<originalvideofilename />
							<originalaudiofilename />
						</logginginfo>
						<colorinfo>
							<lut />
							<lut1 />
							<asc_sop />
							<asc_sat />
							<lut2 />
						</colorinfo>
					<labels><label2>Lavender</label2></labels></clipitem>
					<clipitem id="clipitem-87">
						<masterclipid>clipitem-3-18</masterclipid>
						<name>Taylor_Swift_Travis_Kelce_-_The_New_Power_Couple.mp4</name>
						<enabled>TRUE</enabled>
						<duration>150</duration>
						<rate>
							<timebase>25</timebase>
							<ntsc>FALSE</ntsc>
						</rate>
						<start>114750</start>
						<end>114900</end>
						<in>2550</in>
						<out>2700</out>
						<pproTicksIn>0</pproTicksIn>
						<pproTicksOut>875013995520000</pproTicksOut>
						<alphatype>none</alphatype>
						<pixelaspectratio>square</pixelaspectratio>
						<anamorphic>FALSE</anamorphic>
						<file id="file-31">
							<name>Taylor_Swift_Travis_Kelce_-_The_New_Power_Couple.mp4</name>
							<pathurl>file://localhost/Users/themalikano/Documents/VideoAutomation/premiere_videos/Taylor_Swift_Travis_Kelce_-_The_New_Power_Couple.mp4</pathurl>
							<rate>
								<timebase>25</timebase>
								<ntsc>FALSE</ntsc>
							</rate>
							<duration>86118</duration>
							<timecode>
								<rate>
									<timebase>25</timebase>
									<ntsc>FALSE</ntsc>
								</rate>
								<string>00:00:00:00</string>
								<frame>0</frame>
								<displayformat>NDF</displayformat>
							</timecode>
							<media>
								<video>
									<samplecharacteristics>
										<rate>
											<timebase>25</timebase>
											<ntsc>FALSE</ntsc>
										</rate>
										<width>1920</width>
										<height>1080</height>
										<anamorphic>FALSE</anamorphic>
										<pixelaspectratio>square</pixelaspectratio>
										<fielddominance>none</fielddominance>
									</samplecharacteristics>
								</video>
								<audio>
									<samplecharacteristics>
										<depth>16</depth>
										<samplerate>44100</samplerate>
									</samplecharacteristics>
									<channelcount>2</channelcount>
								</audio>
							</media>
						</file>
						<link>
							<linkclipref>clipitem-87</linkclipref>
							<mediatype>video</mediatype>
							<trackindex>1</trackindex>
							<clipindex>3</clipindex>
						</link>
						<link>
							<linkclipref>clipitem-95</linkclipref>
							<mediatype>audio</mediatype>
							<trackindex>1</trackindex>
							<clipindex>3</clipindex>
							<groupindex>1</groupindex>
						</link>
						<link>
							<linkclipref>clipitem-103</linkclipref>
							<mediatype>audio</mediatype>
							<trackindex>2</trackindex>
							<clipindex>3</clipindex>
							<groupindex>1</groupindex>
						</link>
						<logginginfo>
							<description />
							<scene />
							<shottake />
							<lognote />
							<good />
							<originalvideofilename />
							<originalaudiofilename />
						</logginginfo>
						<colorinfo>
							<lut />
							<lut1 />
							<asc_sop />
							<asc_sat />
							<lut2 />
						</colorinfo>
					<labels><label2>Caribbean</label2></labels></clipitem>
					<clipitem id="clipitem-88">
						<masterclipid>clipitem-4-76</masterclipid>
						<name>Travis_Kelce_ANNOUNCE_WEDDING_DATE_with_Taylor_Swift_Why_He_was_Delaying_all_Along.mp4</name>
						<enabled>TRUE</enabled>
						<duration>150</duration>
						<rate>
							<timebase>25</timebase>
							<ntsc>FALSE</ntsc>
						</rate>
						<start>114900</start>
						<end>115050</end>
						<in>11250</in>
						<out>11400</out>
						<pproTicksIn>0</pproTicksIn>
						<pproTicksOut>419410897920000</pproTicksOut>
						<alphatype>none</alphatype>
						<pixelaspectratio>square</pixelaspectratio>
						<anamorphic>FALSE</anamorphic>
						<file id="file-32">
							<name>Travis_Kelce_ANNOUNCE_WEDDING_DATE_with_Taylor_Swift_Why_He_was_Delaying_all_Along.mp4</name>
							<pathurl>file://localhost/Users/themalikano/Documents/VideoAutomation/premiere_videos/Travis_Kelce_ANNOUNCE_WEDDING_DATE_with_Taylor_Swift_Why_He_was_Delaying_all_Along.mp4</pathurl>
							<rate>
								<timebase>24</timebase>
								<ntsc>FALSE</ntsc>
							</rate>
							<duration>39627</duration>
							<timecode>
								<rate>
									<timebase>24</timebase>
									<ntsc>FALSE</ntsc>
								</rate>
								<string>00:00:00:00</string>
								<frame>0</frame>
								<displayformat>NDF</displayformat>
							</timecode>
							<media>
								<video>
									<samplecharacteristics>
										<rate>
											<timebase>24</timebase>
											<ntsc>FALSE</ntsc>
										</rate>
										<width>852</width>
										<height>480</height>
										<anamorphic>FALSE</anamorphic>
										<pixelaspectratio>square</pixelaspectratio>
										<fielddominance>none</fielddominance>
									</samplecharacteristics>
								</video>
								<audio>
									<samplecharacteristics>
										<depth>16</depth>
										<samplerate>44100</samplerate>
									</samplecharacteristics>
									<channelcount>2</channelcount>
								</audio>
							</media>
						</file>
						<filter>
							<effect>
								<name>Basic Motion</name>
								<effectid>basic</effectid>
								<effectcategory>motion</effectcategory>
								<effecttype>motion</effecttype>
								<mediatype>video</mediatype>
								<pproBypass>false</pproBypass>
								<parameter authoringApp="PremierePro">
									<parameterid>scale</parameterid>
									<name>Scale</name>
									<valuemin>0</valuemin>
									<valuemax>1000</valuemax>
									<value>225</value>
								</parameter>
								<parameter authoringApp="PremierePro">
									<parameterid>rotation</parameterid>
									<name>Rotation</name>
									<valuemin>-8640</valuemin>
									<valuemax>8640</valuemax>
									<value>0</value>
								</parameter>
								<parameter authoringApp="PremierePro">
									<parameterid>center</parameterid>
									<name>Center</name>
									<value>
										<horiz>0</horiz>
										<vert>0</vert>
									</value>
								</parameter>
								<parameter authoringApp="PremierePro">
									<parameterid>centerOffset</parameterid>
									<name>Anchor Point</name>
									<value>
										<horiz>0</horiz>
										<vert>0</vert>
									</value>
								</parameter>
								<parameter authoringApp="PremierePro">
									<parameterid>antiflicker</parameterid>
									<name>Anti-flicker Filter</name>
									<valuemin>0.0</valuemin>
									<valuemax>1.0</valuemax>
									<value>0</value>
								</parameter>
							</effect>
						</filter>
						<link>
							<linkclipref>clipitem-88</linkclipref>
							<mediatype>video</mediatype>
							<trackindex>1</trackindex>
							<clipindex>4</clipindex>
						</link>
						<link>
							<linkclipref>clipitem-96</linkclipref>
							<mediatype>audio</mediatype>
							<trackindex>1</trackindex>
							<clipindex>4</clipindex>
							<groupindex>1</groupindex>
						</link>
						<link>
							<linkclipref>clipitem-104</linkclipref>
							<mediatype>audio</mediatype>
							<trackindex>2</trackindex>
							<clipindex>4</clipindex>
							<groupindex>1</groupindex>
						</link>
						<logginginfo>
							<description />
							<scene />
							<shottake />
							<lognote />
							<good />
							<originalvideofilename />
							<originalaudiofilename />
						</logginginfo>
						<colorinfo>
							<lut />
							<lut1 />
							<asc_sop />
							<asc_sat />
							<lut2 />
						</colorinfo>
					<labels><label2>Lavender</label2></labels></clipitem>
					<clipitem id="clipitem-87">
						<masterclipid>clipitem-3-568</masterclipid>
						<name>Taylor_Swift_Travis_Kelce_-_The_New_Power_Couple.mp4</name>
						<enabled>TRUE</enabled>
						<duration>150</duration>
						<rate>
							<timebase>25</timebase>
							<ntsc>FALSE</ntsc>
						</rate>
						<start>115050</start>
						<end>115200</end>
						<in>85050</in>
						<out>85200</out>
						<pproTicksIn>0</pproTicksIn>
						<pproTicksOut>875013995520000</pproTicksOut>
						<alphatype>none</alphatype>
						<pixelaspectratio>square</pixelaspectratio>
						<anamorphic>FALSE</anamorphic>
						<file id="file-31">
							<name>Taylor_Swift_Travis_Kelce_-_The_New_Power_Couple.mp4</name>
							<pathurl>file://localhost/Users/themalikano/Documents/VideoAutomation/premiere_videos/Taylor_Swift_Travis_Kelce_-_The_New_Power_Couple.mp4</pathurl>
							<rate>
								<timebase>25</timebase>
								<ntsc>FALSE</ntsc>
							</rate>
							<duration>86118</duration>
							<timecode>
								<rate>
									<timebase>25</timebase>
									<ntsc>FALSE</ntsc>
								</rate>
								<string>00:00:00:00</string>
								<frame>0</frame>
								<displayformat>NDF</displayformat>
							</timecode>
							<media>
								<video>
									<samplecharacteristics>
										<rate>
											<timebase>25</timebase>
											<ntsc>FALSE</ntsc>
										</rate>
										<width>1920</width>
										<height>1080</height>
										<anamorphic>FALSE</anamorphic>
										<pixelaspectratio>square</pixelaspectratio>
										<fielddominance>none</fielddominance>
									</samplecharacteristics>
								</video>
								<audio>
									<samplecharacteristics>
										<depth>16</depth>
										<samplerate>44100</samplerate>
									</samplecharacteristics>
									<channelcount>2</channelcount>
								</audio>
							</media>
						</file>
						<link>
							<linkclipref>clipitem-87</linkclipref>
							<mediatype>video</mediatype>
							<trackindex>1</trackindex>
							<clipindex>3</clipindex>
						</link>
						<link>
							<linkclipref>clipitem-95</linkclipref>
							<mediatype>audio</mediatype>
							<trackindex>1</trackindex>
							<clipindex>3</clipindex>
							<groupindex>1</groupindex>
						</link>
						<link>
							<linkclipref>clipitem-103</linkclipref>
							<mediatype>audio</mediatype>
							<trackindex>2</trackindex>
							<clipindex>3</clipindex>
							<groupindex>1</groupindex>
						</link>
						<logginginfo>
							<description />
							<scene />
							<shottake />
							<lognote />
							<good />
							<originalvideofilename />
							<originalaudiofilename />
						</logginginfo>
						<colorinfo>
							<lut />
							<lut1 />
							<asc_sop />
							<asc_sat />
							<lut2 />
						</colorinfo>
					<labels><label2>Caribbean</label2></labels></clipitem>
					<clipitem id="clipitem-88">
						<masterclipid>clipitem-4-35</masterclipid>
						<name>Travis_Kelce_ANNOUNCE_WEDDING_DATE_with_Taylor_Swift_Why_He_was_Delaying_all_Along.mp4</name>
						<enabled>TRUE</enabled>
						<duration>150</duration>
						<rate>
							<timebase>25</timebase>
							<ntsc>FALSE</ntsc>
						</rate>
						<start>115200</start>
						<end>115350</end>
						<in>5100</in>
						<out>5250</out>
						<pproTicksIn>0</pproTicksIn>
						<pproTicksOut>419410897920000</pproTicksOut>
						<alphatype>none</alphatype>
						<pixelaspectratio>square</pixelaspectratio>
						<anamorphic>FALSE</anamorphic>
						<file id="file-32">
							<name>Travis_Kelce_ANNOUNCE_WEDDING_DATE_with_Taylor_Swift_Why_He_was_Delaying_all_Along.mp4</name>
							<pathurl>file://localhost/Users/themalikano/Documents/VideoAutomation/premiere_videos/Travis_Kelce_ANNOUNCE_WEDDING_DATE_with_Taylor_Swift_Why_He_was_Delaying_all_Along.mp4</pathurl>
							<rate>
								<timebase>24</timebase>
								<ntsc>FALSE</ntsc>
							</rate>
							<duration>39627</duration>
							<timecode>
								<rate>
									<timebase>24</timebase>
									<ntsc>FALSE</ntsc>
								</rate>
								<string>00:00:00:00</string>
								<frame>0</frame>
								<displayformat>NDF</displayformat>
							</timecode>
							<media>
								<video>
									<samplecharacteristics>
										<rate>
											<timebase>24</timebase>
											<ntsc>FALSE</ntsc>
										</rate>
										<width>852</width>
										<height>480</height>
										<anamorphic>FALSE</anamorphic>
										<pixelaspectratio>square</pixelaspectratio>
										<fielddominance>none</fielddominance>
									</samplecharacteristics>
								</video>
								<audio>
									<samplecharacteristics>
										<depth>16</depth>
										<samplerate>44100</samplerate>
									</samplecharacteristics>
									<channelcount>2</channelcount>
								</audio>
							</media>
						</file>
						<filter>
							<effect>
								<name>Basic Motion</name>
								<effectid>basic</effectid>
								<effectcategory>motion</effectcategory>
								<effecttype>motion</effecttype>
								<mediatype>video</mediatype>
								<pproBypass>false</pproBypass>
								<parameter authoringApp="PremierePro">
									<parameterid>scale</parameterid>
									<name>Scale</name>
									<valuemin>0</valuemin>
									<valuemax>1000</valuemax>
									<value>225</value>
								</parameter>
								<parameter authoringApp="PremierePro">
									<parameterid>rotation</parameterid>
									<name>Rotation</name>
									<valuemin>-8640</valuemin>
									<valuemax>8640</valuemax>
									<value>0</value>
								</parameter>
								<parameter authoringApp="PremierePro">
									<parameterid>center</parameterid>
									<name>Center</name>
									<value>
										<horiz>0</horiz>
										<vert>0</vert>
									</value>
								</parameter>
								<parameter authoringApp="PremierePro">
									<parameterid>centerOffset</parameterid>
									<name>Anchor Point</name>
									<value>
										<horiz>0</horiz>
										<vert>0</vert>
									</value>
								</parameter>
								<parameter authoringApp="PremierePro">
									<parameterid>antiflicker</parameterid>
									<name>Anti-flicker Filter</name>
									<valuemin>0.0</valuemin>
									<valuemax>1.0</valuemax>
									<value>0</value>
								</parameter>
							</effect>
						</filter>
						<link>
							<linkclipref>clipitem-88</linkclipref>
							<mediatype>video</mediatype>
							<trackindex>1</trackindex>
							<clipindex>4</clipindex>
						</link>
						<link>
							<linkclipref>clipitem-96</linkclipref>
							<mediatype>audio</mediatype>
							<trackindex>1</trackindex>
							<clipindex>4</clipindex>
							<groupindex>1</groupindex>
						</link>
						<link>
							<linkclipref>clipitem-104</linkclipref>
							<mediatype>audio</mediatype>
							<trackindex>2</trackindex>
							<clipindex>4</clipindex>
							<groupindex>1</groupindex>
						</link>
						<logginginfo>
							<description />
							<scene />
							<shottake />
							<lognote />
							<good />
							<originalvideofilename />
							<originalaudiofilename />
						</logginginfo>
						<colorinfo>
							<lut />
							<lut1 />
							<asc_sop />
							<asc_sat />
							<lut2 />
						</colorinfo>
					<labels><label2>Lavender</label2></labels></clipitem>
					<clipitem id="clipitem-87">
						<masterclipid>clipitem-3-486</masterclipid>
						<name>Taylor_Swift_Travis_Kelce_-_The_New_Power_Couple.mp4</name>
						<enabled>TRUE</enabled>
						<duration>150</duration>
						<rate>
							<timebase>25</timebase>
							<ntsc>FALSE</ntsc>
						</rate>
						<start>115350</start>
						<end>115500</end>
						<in>72750</in>
						<out>72900</out>
						<pproTicksIn>0</pproTicksIn>
						<pproTicksOut>875013995520000</pproTicksOut>
						<alphatype>none</alphatype>
						<pixelaspectratio>square</pixelaspectratio>
						<anamorphic>FALSE</anamorphic>
						<file id="file-31">
							<name>Taylor_Swift_Travis_Kelce_-_The_New_Power_Couple.mp4</name>
							<pathurl>file://localhost/Users/themalikano/Documents/VideoAutomation/premiere_videos/Taylor_Swift_Travis_Kelce_-_The_New_Power_Couple.mp4</pathurl>
							<rate>
								<timebase>25</timebase>
								<ntsc>FALSE</ntsc>
							</rate>
							<duration>86118</duration>
							<timecode>
								<rate>
									<timebase>25</timebase>
									<ntsc>FALSE</ntsc>
								</rate>
								<string>00:00:00:00</string>
								<frame>0</frame>
								<displayformat>NDF</displayformat>
							</timecode>
							<media>
								<video>
									<samplecharacteristics>
										<rate>
											<timebase>25</timebase>
											<ntsc>FALSE</ntsc>
										</rate>
										<width>1920</width>
										<height>1080</height>
										<anamorphic>FALSE</anamorphic>
										<pixelaspectratio>square</pixelaspectratio>
										<fielddominance>none</fielddominance>
									</samplecharacteristics>
								</video>
								<audio>
									<samplecharacteristics>
										<depth>16</depth>
										<samplerate>44100</samplerate>
									</samplecharacteristics>
									<channelcount>2</channelcount>
								</audio>
							</media>
						</file>
						<link>
							<linkclipref>clipitem-87</linkclipref>
							<mediatype>video</mediatype>
							<trackindex>1</trackindex>
							<clipindex>3</clipindex>
						</link>
						<link>
							<linkclipref>clipitem-95</linkclipref>
							<mediatype>audio</mediatype>
							<trackindex>1</trackindex>
							<clipindex>3</clipindex>
							<groupindex>1</groupindex>
						</link>
						<link>
							<linkclipref>clipitem-103</linkclipref>
							<mediatype>audio</mediatype>
							<trackindex>2</trackindex>
							<clipindex>3</clipindex>
							<groupindex>1</groupindex>
						</link>
						<logginginfo>
							<description />
							<scene />
							<shottake />
							<lognote />
							<good />
							<originalvideofilename />
							<originalaudiofilename />
						</logginginfo>
						<colorinfo>
							<lut />
							<lut1 />
							<asc_sop />
							<asc_sat />
							<lut2 />
						</colorinfo>
					<labels><label2>Caribbean</label2></labels></clipitem>
					<clipitem id="clipitem-88">
						<masterclipid>clipitem-4-265</masterclipid>
						<name>Travis_Kelce_ANNOUNCE_WEDDING_DATE_with_Taylor_Swift_Why_He_was_Delaying_all_Along.mp4</name>
						<enabled>TRUE</enabled>
						<duration>150</duration>
						<rate>
							<timebase>25</timebase>
							<ntsc>FALSE</ntsc>
						</rate>
						<start>115500</start>
						<end>115650</end>
						<in>39600</in>
						<out>39750</out>
						<pproTicksIn>0</pproTicksIn>
						<pproTicksOut>419410897920000</pproTicksOut>
						<alphatype>none</alphatype>
						<pixelaspectratio>square</pixelaspectratio>
						<anamorphic>FALSE</anamorphic>
						<file id="file-32">
							<name>Travis_Kelce_ANNOUNCE_WEDDING_DATE_with_Taylor_Swift_Why_He_was_Delaying_all_Along.mp4</name>
							<pathurl>file://localhost/Users/themalikano/Documents/VideoAutomation/premiere_videos/Travis_Kelce_ANNOUNCE_WEDDING_DATE_with_Taylor_Swift_Why_He_was_Delaying_all_Along.mp4</pathurl>
							<rate>
								<timebase>24</timebase>
								<ntsc>FALSE</ntsc>
							</rate>
							<duration>39627</duration>
							<timecode>
								<rate>
									<timebase>24</timebase>
									<ntsc>FALSE</ntsc>
								</rate>
								<string>00:00:00:00</string>
								<frame>0</frame>
								<displayformat>NDF</displayformat>
							</timecode>
							<media>
								<video>
									<samplecharacteristics>
										<rate>
											<timebase>24</timebase>
											<ntsc>FALSE</ntsc>
										</rate>
										<width>852</width>
										<height>480</height>
										<anamorphic>FALSE</anamorphic>
										<pixelaspectratio>square</pixelaspectratio>
										<fielddominance>none</fielddominance>
									</samplecharacteristics>
								</video>
								<audio>
									<samplecharacteristics>
										<depth>16</depth>
										<samplerate>44100</samplerate>
									</samplecharacteristics>
									<channelcount>2</channelcount>
								</audio>
							</media>
						</file>
						<filter>
							<effect>
								<name>Basic Motion</name>
								<effectid>basic</effectid>
								<effectcategory>motion</effectcategory>
								<effecttype>motion</effecttype>
								<mediatype>video</mediatype>
								<pproBypass>false</pproBypass>
								<parameter authoringApp="PremierePro">
									<parameterid>scale</parameterid>
									<name>Scale</name>
									<valuemin>0</valuemin>
									<valuemax>1000</valuemax>
									<value>225</value>
								</parameter>
								<parameter authoringApp="PremierePro">
									<parameterid>rotation</parameterid>
									<name>Rotation</name>
									<valuemin>-8640</valuemin>
									<valuemax>8640</valuemax>
									<value>0</value>
								</parameter>
								<parameter authoringApp="PremierePro">
									<parameterid>center</parameterid>
									<name>Center</name>
									<value>
										<horiz>0</horiz>
										<vert>0</vert>
									</value>
								</parameter>
								<parameter authoringApp="PremierePro">
									<parameterid>centerOffset</parameterid>
									<name>Anchor Point</name>
									<value>
										<horiz>0</horiz>
										<vert>0</vert>
									</value>
								</parameter>
								<parameter authoringApp="PremierePro">
									<parameterid>antiflicker</parameterid>
									<name>Anti-flicker Filter</name>
									<valuemin>0.0</valuemin>
									<valuemax>1.0</valuemax>
									<value>0</value>
								</parameter>
							</effect>
						</filter>
						<link>
							<linkclipref>clipitem-88</linkclipref>
							<mediatype>video</mediatype>
							<trackindex>1</trackindex>
							<clipindex>4</clipindex>
						</link>
						<link>
							<linkclipref>clipitem-96</linkclipref>
							<mediatype>audio</mediatype>
							<trackindex>1</trackindex>
							<clipindex>4</clipindex>
							<groupindex>1</groupindex>
						</link>
						<link>
							<linkclipref>clipitem-104</linkclipref>
							<mediatype>audio</mediatype>
							<trackindex>2</trackindex>
							<clipindex>4</clipindex>
							<groupindex>1</groupindex>
						</link>
						<logginginfo>
							<description />
							<scene />
							<shottake />
							<lognote />
							<good />
							<originalvideofilename />
							<originalaudiofilename />
						</logginginfo>
						<colorinfo>
							<lut />
							<lut1 />
							<asc_sop />
							<asc_sat />
							<lut2 />
						</colorinfo>
					<labels><label2>Lavender</label2></labels></clipitem>
					<clipitem id="clipitem-87">
						<masterclipid>clipitem-3-458</masterclipid>
						<name>Taylor_Swift_Travis_Kelce_-_The_New_Power_Couple.mp4</name>
						<enabled>TRUE</enabled>
						<duration>150</duration>
						<rate>
							<timebase>25</timebase>
							<ntsc>FALSE</ntsc>
						</rate>
						<start>115650</start>
						<end>115800</end>
						<in>68550</in>
						<out>68700</out>
						<pproTicksIn>0</pproTicksIn>
						<pproTicksOut>875013995520000</pproTicksOut>
						<alphatype>none</alphatype>
						<pixelaspectratio>square</pixelaspectratio>
						<anamorphic>FALSE</anamorphic>
						<file id="file-31">
							<name>Taylor_Swift_Travis_Kelce_-_The_New_Power_Couple.mp4</name>
							<pathurl>file://localhost/Users/themalikano/Documents/VideoAutomation/premiere_videos/Taylor_Swift_Travis_Kelce_-_The_New_Power_Couple.mp4</pathurl>
							<rate>
								<timebase>25</timebase>
								<ntsc>FALSE</ntsc>
							</rate>
							<duration>86118</duration>
							<timecode>
								<rate>
									<timebase>25</timebase>
									<ntsc>FALSE</ntsc>
								</rate>
								<string>00:00:00:00</string>
								<frame>0</frame>
								<displayformat>NDF</displayformat>
							</timecode>
							<media>
								<video>
									<samplecharacteristics>
										<rate>
											<timebase>25</timebase>
											<ntsc>FALSE</ntsc>
										</rate>
										<width>1920</width>
										<height>1080</height>
										<anamorphic>FALSE</anamorphic>
										<pixelaspectratio>square</pixelaspectratio>
										<fielddominance>none</fielddominance>
									</samplecharacteristics>
								</video>
								<audio>
									<samplecharacteristics>
										<depth>16</depth>
										<samplerate>44100</samplerate>
									</samplecharacteristics>
									<channelcount>2</channelcount>
								</audio>
							</media>
						</file>
						<link>
							<linkclipref>clipitem-87</linkclipref>
							<mediatype>video</mediatype>
							<trackindex>1</trackindex>
							<clipindex>3</clipindex>
						</link>
						<link>
							<linkclipref>clipitem-95</linkclipref>
							<mediatype>audio</mediatype>
							<trackindex>1</trackindex>
							<clipindex>3</clipindex>
							<groupindex>1</groupindex>
						</link>
						<link>
							<linkclipref>clipitem-103</linkclipref>
							<mediatype>audio</mediatype>
							<trackindex>2</trackindex>
							<clipindex>3</clipindex>
							<groupindex>1</groupindex>
						</link>
						<logginginfo>
							<description />
							<scene />
							<shottake />
							<lognote />
							<good />
							<originalvideofilename />
							<originalaudiofilename />
						</logginginfo>
						<colorinfo>
							<lut />
							<lut1 />
							<asc_sop />
							<asc_sat />
							<lut2 />
						</colorinfo>
					<labels><label2>Caribbean</label2></labels></clipitem>
					<clipitem id="clipitem-88">
						<masterclipid>clipitem-4-48</masterclipid>
						<name>Travis_Kelce_ANNOUNCE_WEDDING_DATE_with_Taylor_Swift_Why_He_was_Delaying_all_Along.mp4</name>
						<enabled>TRUE</enabled>
						<duration>150</duration>
						<rate>
							<timebase>25</timebase>
							<ntsc>FALSE</ntsc>
						</rate>
						<start>115800</start>
						<end>115950</end>
						<in>7050</in>
						<out>7200</out>
						<pproTicksIn>0</pproTicksIn>
						<pproTicksOut>419410897920000</pproTicksOut>
						<alphatype>none</alphatype>
						<pixelaspectratio>square</pixelaspectratio>
						<anamorphic>FALSE</anamorphic>
						<file id="file-32">
							<name>Travis_Kelce_ANNOUNCE_WEDDING_DATE_with_Taylor_Swift_Why_He_was_Delaying_all_Along.mp4</name>
							<pathurl>file://localhost/Users/themalikano/Documents/VideoAutomation/premiere_videos/Travis_Kelce_ANNOUNCE_WEDDING_DATE_with_Taylor_Swift_Why_He_was_Delaying_all_Along.mp4</pathurl>
							<rate>
								<timebase>24</timebase>
								<ntsc>FALSE</ntsc>
							</rate>
							<duration>39627</duration>
							<timecode>
								<rate>
									<timebase>24</timebase>
									<ntsc>FALSE</ntsc>
								</rate>
								<string>00:00:00:00</string>
								<frame>0</frame>
								<displayformat>NDF</displayformat>
							</timecode>
							<media>
								<video>
									<samplecharacteristics>
										<rate>
											<timebase>24</timebase>
											<ntsc>FALSE</ntsc>
										</rate>
										<width>852</width>
										<height>480</height>
										<anamorphic>FALSE</anamorphic>
										<pixelaspectratio>square</pixelaspectratio>
										<fielddominance>none</fielddominance>
									</samplecharacteristics>
								</video>
								<audio>
									<samplecharacteristics>
										<depth>16</depth>
										<samplerate>44100</samplerate>
									</samplecharacteristics>
									<channelcount>2</channelcount>
								</audio>
							</media>
						</file>
						<filter>
							<effect>
								<name>Basic Motion</name>
								<effectid>basic</effectid>
								<effectcategory>motion</effectcategory>
								<effecttype>motion</effecttype>
								<mediatype>video</mediatype>
								<pproBypass>false</pproBypass>
								<parameter authoringApp="PremierePro">
									<parameterid>scale</parameterid>
									<name>Scale</name>
									<valuemin>0</valuemin>
									<valuemax>1000</valuemax>
									<value>225</value>
								</parameter>
								<parameter authoringApp="PremierePro">
									<parameterid>rotation</parameterid>
									<name>Rotation</name>
									<valuemin>-8640</valuemin>
									<valuemax>8640</valuemax>
									<value>0</value>
								</parameter>
								<parameter authoringApp="PremierePro">
									<parameterid>center</parameterid>
									<name>Center</name>
									<value>
										<horiz>0</horiz>
										<vert>0</vert>
									</value>
								</parameter>
								<parameter authoringApp="PremierePro">
									<parameterid>centerOffset</parameterid>
									<name>Anchor Point</name>
									<value>
										<horiz>0</horiz>
										<vert>0</vert>
									</value>
								</parameter>
								<parameter authoringApp="PremierePro">
									<parameterid>antiflicker</parameterid>
									<name>Anti-flicker Filter</name>
									<valuemin>0.0</valuemin>
									<valuemax>1.0</valuemax>
									<value>0</value>
								</parameter>
							</effect>
						</filter>
						<link>
							<linkclipref>clipitem-88</linkclipref>
							<mediatype>video</mediatype>
							<trackindex>1</trackindex>
							<clipindex>4</clipindex>
						</link>
						<link>
							<linkclipref>clipitem-96</linkclipref>
							<mediatype>audio</mediatype>
							<trackindex>1</trackindex>
							<clipindex>4</clipindex>
							<groupindex>1</groupindex>
						</link>
						<link>
							<linkclipref>clipitem-104</linkclipref>
							<mediatype>audio</mediatype>
							<trackindex>2</trackindex>
							<clipindex>4</clipindex>
							<groupindex>1</groupindex>
						</link>
						<logginginfo>
							<description />
							<scene />
							<shottake />
							<lognote />
							<good />
							<originalvideofilename />
							<originalaudiofilename />
						</logginginfo>
						<colorinfo>
							<lut />
							<lut1 />
							<asc_sop />
							<asc_sat />
							<lut2 />
						</colorinfo>
					<labels><label2>Lavender</label2></labels></clipitem>
					<clipitem id="clipitem-87">
						<masterclipid>clipitem-3-65</masterclipid>
						<name>Taylor_Swift_Travis_Kelce_-_The_New_Power_Couple.mp4</name>
						<enabled>TRUE</enabled>
						<duration>150</duration>
						<rate>
							<timebase>25</timebase>
							<ntsc>FALSE</ntsc>
						</rate>
						<start>115950</start>
						<end>116100</end>
						<in>9600</in>
						<out>9750</out>
						<pproTicksIn>0</pproTicksIn>
						<pproTicksOut>875013995520000</pproTicksOut>
						<alphatype>none</alphatype>
						<pixelaspectratio>square</pixelaspectratio>
						<anamorphic>FALSE</anamorphic>
						<file id="file-31">
							<name>Taylor_Swift_Travis_Kelce_-_The_New_Power_Couple.mp4</name>
							<pathurl>file://localhost/Users/themalikano/Documents/VideoAutomation/premiere_videos/Taylor_Swift_Travis_Kelce_-_The_New_Power_Couple.mp4</pathurl>
							<rate>
								<timebase>25</timebase>
								<ntsc>FALSE</ntsc>
							</rate>
							<duration>86118</duration>
							<timecode>
								<rate>
									<timebase>25</timebase>
									<ntsc>FALSE</ntsc>
								</rate>
								<string>00:00:00:00</string>
								<frame>0</frame>
								<displayformat>NDF</displayformat>
							</timecode>
							<media>
								<video>
									<samplecharacteristics>
										<rate>
											<timebase>25</timebase>
											<ntsc>FALSE</ntsc>
										</rate>
										<width>1920</width>
										<height>1080</height>
										<anamorphic>FALSE</anamorphic>
										<pixelaspectratio>square</pixelaspectratio>
										<fielddominance>none</fielddominance>
									</samplecharacteristics>
								</video>
								<audio>
									<samplecharacteristics>
										<depth>16</depth>
										<samplerate>44100</samplerate>
									</samplecharacteristics>
									<channelcount>2</channelcount>
								</audio>
							</media>
						</file>
						<link>
							<linkclipref>clipitem-87</linkclipref>
							<mediatype>video</mediatype>
							<trackindex>1</trackindex>
							<clipindex>3</clipindex>
						</link>
						<link>
							<linkclipref>clipitem-95</linkclipref>
							<mediatype>audio</mediatype>
							<trackindex>1</trackindex>
							<clipindex>3</clipindex>
							<groupindex>1</groupindex>
						</link>
						<link>
							<linkclipref>clipitem-103</linkclipref>
							<mediatype>audio</mediatype>
							<trackindex>2</trackindex>
							<clipindex>3</clipindex>
							<groupindex>1</groupindex>
						</link>
						<logginginfo>
							<description />
							<scene />
							<shottake />
							<lognote />
							<good />
							<originalvideofilename />
							<originalaudiofilename />
						</logginginfo>
						<colorinfo>
							<lut />
							<lut1 />
							<asc_sop />
							<asc_sat />
							<lut2 />
						</colorinfo>
					<labels><label2>Caribbean</label2></labels></clipitem>
					<clipitem id="clipitem-88">
						<masterclipid>clipitem-4-65</masterclipid>
						<name>Travis_Kelce_ANNOUNCE_WEDDING_DATE_with_Taylor_Swift_Why_He_was_Delaying_all_Along.mp4</name>
						<enabled>TRUE</enabled>
						<duration>150</duration>
						<rate>
							<timebase>25</timebase>
							<ntsc>FALSE</ntsc>
						</rate>
						<start>116100</start>
						<end>116250</end>
						<in>9600</in>
						<out>9750</out>
						<pproTicksIn>0</pproTicksIn>
						<pproTicksOut>419410897920000</pproTicksOut>
						<alphatype>none</alphatype>
						<pixelaspectratio>square</pixelaspectratio>
						<anamorphic>FALSE</anamorphic>
						<file id="file-32">
							<name>Travis_Kelce_ANNOUNCE_WEDDING_DATE_with_Taylor_Swift_Why_He_was_Delaying_all_Along.mp4</name>
							<pathurl>file://localhost/Users/themalikano/Documents/VideoAutomation/premiere_videos/Travis_Kelce_ANNOUNCE_WEDDING_DATE_with_Taylor_Swift_Why_He_was_Delaying_all_Along.mp4</pathurl>
							<rate>
								<timebase>24</timebase>
								<ntsc>FALSE</ntsc>
							</rate>
							<duration>39627</duration>
							<timecode>
								<rate>
									<timebase>24</timebase>
									<ntsc>FALSE</ntsc>
								</rate>
								<string>00:00:00:00</string>
								<frame>0</frame>
								<displayformat>NDF</displayformat>
							</timecode>
							<media>
								<video>
									<samplecharacteristics>
										<rate>
											<timebase>24</timebase>
											<ntsc>FALSE</ntsc>
										</rate>
										<width>852</width>
										<height>480</height>
										<anamorphic>FALSE</anamorphic>
										<pixelaspectratio>square</pixelaspectratio>
										<fielddominance>none</fielddominance>
									</samplecharacteristics>
								</video>
								<audio>
									<samplecharacteristics>
										<depth>16</depth>
										<samplerate>44100</samplerate>
									</samplecharacteristics>
									<channelcount>2</channelcount>
								</audio>
							</media>
						</file>
						<filter>
							<effect>
								<name>Basic Motion</name>
								<effectid>basic</effectid>
								<effectcategory>motion</effectcategory>
								<effecttype>motion</effecttype>
								<mediatype>video</mediatype>
								<pproBypass>false</pproBypass>
								<parameter authoringApp="PremierePro">
									<parameterid>scale</parameterid>
									<name>Scale</name>
									<valuemin>0</valuemin>
									<valuemax>1000</valuemax>
									<value>225</value>
								</parameter>
								<parameter authoringApp="PremierePro">
									<parameterid>rotation</parameterid>
									<name>Rotation</name>
									<valuemin>-8640</valuemin>
									<valuemax>8640</valuemax>
									<value>0</value>
								</parameter>
								<parameter authoringApp="PremierePro">
									<parameterid>center</parameterid>
									<name>Center</name>
									<value>
										<horiz>0</horiz>
										<vert>0</vert>
									</value>
								</parameter>
								<parameter authoringApp="PremierePro">
									<parameterid>centerOffset</parameterid>
									<name>Anchor Point</name>
									<value>
										<horiz>0</horiz>
										<vert>0</vert>
									</value>
								</parameter>
								<parameter authoringApp="PremierePro">
									<parameterid>antiflicker</parameterid>
									<name>Anti-flicker Filter</name>
									<valuemin>0.0</valuemin>
									<valuemax>1.0</valuemax>
									<value>0</value>
								</parameter>
							</effect>
						</filter>
						<link>
							<linkclipref>clipitem-88</linkclipref>
							<mediatype>video</mediatype>
							<trackindex>1</trackindex>
							<clipindex>4</clipindex>
						</link>
						<link>
							<linkclipref>clipitem-96</linkclipref>
							<mediatype>audio</mediatype>
							<trackindex>1</trackindex>
							<clipindex>4</clipindex>
							<groupindex>1</groupindex>
						</link>
						<link>
							<linkclipref>clipitem-104</linkclipref>
							<mediatype>audio</mediatype>
							<trackindex>2</trackindex>
							<clipindex>4</clipindex>
							<groupindex>1</groupindex>
						</link>
						<logginginfo>
							<description />
							<scene />
							<shottake />
							<lognote />
							<good />
							<originalvideofilename />
							<originalaudiofilename />
						</logginginfo>
						<colorinfo>
							<lut />
							<lut1 />
							<asc_sop />
							<asc_sat />
							<lut2 />
						</colorinfo>
					<labels><label2>Lavender</label2></labels></clipitem>
					<clipitem id="clipitem-87">
						<masterclipid>clipitem-3-371</masterclipid>
						<name>Taylor_Swift_Travis_Kelce_-_The_New_Power_Couple.mp4</name>
						<enabled>TRUE</enabled>
						<duration>150</duration>
						<rate>
							<timebase>25</timebase>
							<ntsc>FALSE</ntsc>
						</rate>
						<start>116250</start>
						<end>116400</end>
						<in>55500</in>
						<out>55650</out>
						<pproTicksIn>0</pproTicksIn>
						<pproTicksOut>875013995520000</pproTicksOut>
						<alphatype>none</alphatype>
						<pixelaspectratio>square</pixelaspectratio>
						<anamorphic>FALSE</anamorphic>
						<file id="file-31">
							<name>Taylor_Swift_Travis_Kelce_-_The_New_Power_Couple.mp4</name>
							<pathurl>file://localhost/Users/themalikano/Documents/VideoAutomation/premiere_videos/Taylor_Swift_Travis_Kelce_-_The_New_Power_Couple.mp4</pathurl>
							<rate>
								<timebase>25</timebase>
								<ntsc>FALSE</ntsc>
							</rate>
							<duration>86118</duration>
							<timecode>
								<rate>
									<timebase>25</timebase>
									<ntsc>FALSE</ntsc>
								</rate>
								<string>00:00:00:00</string>
								<frame>0</frame>
								<displayformat>NDF</displayformat>
							</timecode>
							<media>
								<video>
									<samplecharacteristics>
										<rate>
											<timebase>25</timebase>
											<ntsc>FALSE</ntsc>
										</rate>
										<width>1920</width>
										<height>1080</height>
										<anamorphic>FALSE</anamorphic>
										<pixelaspectratio>square</pixelaspectratio>
										<fielddominance>none</fielddominance>
									</samplecharacteristics>
								</video>
								<audio>
									<samplecharacteristics>
										<depth>16</depth>
										<samplerate>44100</samplerate>
									</samplecharacteristics>
									<channelcount>2</channelcount>
								</audio>
							</media>
						</file>
						<link>
							<linkclipref>clipitem-87</linkclipref>
							<mediatype>video</mediatype>
							<trackindex>1</trackindex>
							<clipindex>3</clipindex>
						</link>
						<link>
							<linkclipref>clipitem-95</linkclipref>
							<mediatype>audio</mediatype>
							<trackindex>1</trackindex>
							<clipindex>3</clipindex>
							<groupindex>1</groupindex>
						</link>
						<link>
							<linkclipref>clipitem-103</linkclipref>
							<mediatype>audio</mediatype>
							<trackindex>2</trackindex>
							<clipindex>3</clipindex>
							<groupindex>1</groupindex>
						</link>
						<logginginfo>
							<description />
							<scene />
							<shottake />
							<lognote />
							<good />
							<originalvideofilename />
							<originalaudiofilename />
						</logginginfo>
						<colorinfo>
							<lut />
							<lut1 />
							<asc_sop />
							<asc_sat />
							<lut2 />
						</colorinfo>
					<labels><label2>Caribbean</label2></labels></clipitem>
					<clipitem id="clipitem-88">
						<masterclipid>clipitem-4-67</masterclipid>
						<name>Travis_Kelce_ANNOUNCE_WEDDING_DATE_with_Taylor_Swift_Why_He_was_Delaying_all_Along.mp4</name>
						<enabled>TRUE</enabled>
						<duration>150</duration>
						<rate>
							<timebase>25</timebase>
							<ntsc>FALSE</ntsc>
						</rate>
						<start>116400</start>
						<end>116550</end>
						<in>9900</in>
						<out>10050</out>
						<pproTicksIn>0</pproTicksIn>
						<pproTicksOut>419410897920000</pproTicksOut>
						<alphatype>none</alphatype>
						<pixelaspectratio>square</pixelaspectratio>
						<anamorphic>FALSE</anamorphic>
						<file id="file-32">
							<name>Travis_Kelce_ANNOUNCE_WEDDING_DATE_with_Taylor_Swift_Why_He_was_Delaying_all_Along.mp4</name>
							<pathurl>file://localhost/Users/themalikano/Documents/VideoAutomation/premiere_videos/Travis_Kelce_ANNOUNCE_WEDDING_DATE_with_Taylor_Swift_Why_He_was_Delaying_all_Along.mp4</pathurl>
							<rate>
								<timebase>24</timebase>
								<ntsc>FALSE</ntsc>
							</rate>
							<duration>39627</duration>
							<timecode>
								<rate>
									<timebase>24</timebase>
									<ntsc>FALSE</ntsc>
								</rate>
								<string>00:00:00:00</string>
								<frame>0</frame>
								<displayformat>NDF</displayformat>
							</timecode>
							<media>
								<video>
									<samplecharacteristics>
										<rate>
											<timebase>24</timebase>
											<ntsc>FALSE</ntsc>
										</rate>
										<width>852</width>
										<height>480</height>
										<anamorphic>FALSE</anamorphic>
										<pixelaspectratio>square</pixelaspectratio>
										<fielddominance>none</fielddominance>
									</samplecharacteristics>
								</video>
								<audio>
									<samplecharacteristics>
										<depth>16</depth>
										<samplerate>44100</samplerate>
									</samplecharacteristics>
									<channelcount>2</channelcount>
								</audio>
							</media>
						</file>
						<filter>
							<effect>
								<name>Basic Motion</name>
								<effectid>basic</effectid>
								<effectcategory>motion</effectcategory>
								<effecttype>motion</effecttype>
								<mediatype>video</mediatype>
								<pproBypass>false</pproBypass>
								<parameter authoringApp="PremierePro">
									<parameterid>scale</parameterid>
									<name>Scale</name>
									<valuemin>0</valuemin>
									<valuemax>1000</valuemax>
									<value>225</value>
								</parameter>
								<parameter authoringApp="PremierePro">
									<parameterid>rotation</parameterid>
									<name>Rotation</name>
									<valuemin>-8640</valuemin>
									<valuemax>8640</valuemax>
									<value>0</value>
								</parameter>
								<parameter authoringApp="PremierePro">
									<parameterid>center</parameterid>
									<name>Center</name>
									<value>
										<horiz>0</horiz>
										<vert>0</vert>
									</value>
								</parameter>
								<parameter authoringApp="PremierePro">
									<parameterid>centerOffset</parameterid>
									<name>Anchor Point</name>
									<value>
										<horiz>0</horiz>
										<vert>0</vert>
									</value>
								</parameter>
								<parameter authoringApp="PremierePro">
									<parameterid>antiflicker</parameterid>
									<name>Anti-flicker Filter</name>
									<valuemin>0.0</valuemin>
									<valuemax>1.0</valuemax>
									<value>0</value>
								</parameter>
							</effect>
						</filter>
						<link>
							<linkclipref>clipitem-88</linkclipref>
							<mediatype>video</mediatype>
							<trackindex>1</trackindex>
							<clipindex>4</clipindex>
						</link>
						<link>
							<linkclipref>clipitem-96</linkclipref>
							<mediatype>audio</mediatype>
							<trackindex>1</trackindex>
							<clipindex>4</clipindex>
							<groupindex>1</groupindex>
						</link>
						<link>
							<linkclipref>clipitem-104</linkclipref>
							<mediatype>audio</mediatype>
							<trackindex>2</trackindex>
							<clipindex>4</clipindex>
							<groupindex>1</groupindex>
						</link>
						<logginginfo>
							<description />
							<scene />
							<shottake />
							<lognote />
							<good />
							<originalvideofilename />
							<originalaudiofilename />
						</logginginfo>
						<colorinfo>
							<lut />
							<lut1 />
							<asc_sop />
							<asc_sat />
							<lut2 />
						</colorinfo>
					<labels><label2>Lavender</label2></labels></clipitem>
					<clipitem id="clipitem-87">
						<masterclipid>clipitem-3-525</masterclipid>
						<name>Taylor_Swift_Travis_Kelce_-_The_New_Power_Couple.mp4</name>
						<enabled>TRUE</enabled>
						<duration>150</duration>
						<rate>
							<timebase>25</timebase>
							<ntsc>FALSE</ntsc>
						</rate>
						<start>116550</start>
						<end>116700</end>
						<in>78600</in>
						<out>78750</out>
						<pproTicksIn>0</pproTicksIn>
						<pproTicksOut>875013995520000</pproTicksOut>
						<alphatype>none</alphatype>
						<pixelaspectratio>square</pixelaspectratio>
						<anamorphic>FALSE</anamorphic>
						<file id="file-31">
							<name>Taylor_Swift_Travis_Kelce_-_The_New_Power_Couple.mp4</name>
							<pathurl>file://localhost/Users/themalikano/Documents/VideoAutomation/premiere_videos/Taylor_Swift_Travis_Kelce_-_The_New_Power_Couple.mp4</pathurl>
							<rate>
								<timebase>25</timebase>
								<ntsc>FALSE</ntsc>
							</rate>
							<duration>86118</duration>
							<timecode>
								<rate>
									<timebase>25</timebase>
									<ntsc>FALSE</ntsc>
								</rate>
								<string>00:00:00:00</string>
								<frame>0</frame>
								<displayformat>NDF</displayformat>
							</timecode>
							<media>
								<video>
									<samplecharacteristics>
										<rate>
											<timebase>25</timebase>
											<ntsc>FALSE</ntsc>
										</rate>
										<width>1920</width>
										<height>1080</height>
										<anamorphic>FALSE</anamorphic>
										<pixelaspectratio>square</pixelaspectratio>
										<fielddominance>none</fielddominance>
									</samplecharacteristics>
								</video>
								<audio>
									<samplecharacteristics>
										<depth>16</depth>
										<samplerate>44100</samplerate>
									</samplecharacteristics>
									<channelcount>2</channelcount>
								</audio>
							</media>
						</file>
						<link>
							<linkclipref>clipitem-87</linkclipref>
							<mediatype>video</mediatype>
							<trackindex>1</trackindex>
							<clipindex>3</clipindex>
						</link>
						<link>
							<linkclipref>clipitem-95</linkclipref>
							<mediatype>audio</mediatype>
							<trackindex>1</trackindex>
							<clipindex>3</clipindex>
							<groupindex>1</groupindex>
						</link>
						<link>
							<linkclipref>clipitem-103</linkclipref>
							<mediatype>audio</mediatype>
							<trackindex>2</trackindex>
							<clipindex>3</clipindex>
							<groupindex>1</groupindex>
						</link>
						<logginginfo>
							<description />
							<scene />
							<shottake />
							<lognote />
							<good />
							<originalvideofilename />
							<originalaudiofilename />
						</logginginfo>
						<colorinfo>
							<lut />
							<lut1 />
							<asc_sop />
							<asc_sat />
							<lut2 />
						</colorinfo>
					<labels><label2>Caribbean</label2></labels></clipitem>
					<clipitem id="clipitem-88">
						<masterclipid>clipitem-4-221</masterclipid>
						<name>Travis_Kelce_ANNOUNCE_WEDDING_DATE_with_Taylor_Swift_Why_He_was_Delaying_all_Along.mp4</name>
						<enabled>TRUE</enabled>
						<duration>150</duration>
						<rate>
							<timebase>25</timebase>
							<ntsc>FALSE</ntsc>
						</rate>
						<start>116700</start>
						<end>116850</end>
						<in>33000</in>
						<out>33150</out>
						<pproTicksIn>0</pproTicksIn>
						<pproTicksOut>419410897920000</pproTicksOut>
						<alphatype>none</alphatype>
						<pixelaspectratio>square</pixelaspectratio>
						<anamorphic>FALSE</anamorphic>
						<file id="file-32">
							<name>Travis_Kelce_ANNOUNCE_WEDDING_DATE_with_Taylor_Swift_Why_He_was_Delaying_all_Along.mp4</name>
							<pathurl>file://localhost/Users/themalikano/Documents/VideoAutomation/premiere_videos/Travis_Kelce_ANNOUNCE_WEDDING_DATE_with_Taylor_Swift_Why_He_was_Delaying_all_Along.mp4</pathurl>
							<rate>
								<timebase>24</timebase>
								<ntsc>FALSE</ntsc>
							</rate>
							<duration>39627</duration>
							<timecode>
								<rate>
									<timebase>24</timebase>
									<ntsc>FALSE</ntsc>
								</rate>
								<string>00:00:00:00</string>
								<frame>0</frame>
								<displayformat>NDF</displayformat>
							</timecode>
							<media>
								<video>
									<samplecharacteristics>
										<rate>
											<timebase>24</timebase>
											<ntsc>FALSE</ntsc>
										</rate>
										<width>852</width>
										<height>480</height>
										<anamorphic>FALSE</anamorphic>
										<pixelaspectratio>square</pixelaspectratio>
										<fielddominance>none</fielddominance>
									</samplecharacteristics>
								</video>
								<audio>
									<samplecharacteristics>
										<depth>16</depth>
										<samplerate>44100</samplerate>
									</samplecharacteristics>
									<channelcount>2</channelcount>
								</audio>
							</media>
						</file>
						<filter>
							<effect>
								<name>Basic Motion</name>
								<effectid>basic</effectid>
								<effectcategory>motion</effectcategory>
								<effecttype>motion</effecttype>
								<mediatype>video</mediatype>
								<pproBypass>false</pproBypass>
								<parameter authoringApp="PremierePro">
									<parameterid>scale</parameterid>
									<name>Scale</name>
									<valuemin>0</valuemin>
									<valuemax>1000</valuemax>
									<value>225</value>
								</parameter>
								<parameter authoringApp="PremierePro">
									<parameterid>rotation</parameterid>
									<name>Rotation</name>
									<valuemin>-8640</valuemin>
									<valuemax>8640</valuemax>
									<value>0</value>
								</parameter>
								<parameter authoringApp="PremierePro">
									<parameterid>center</parameterid>
									<name>Center</name>
									<value>
										<horiz>0</horiz>
										<vert>0</vert>
									</value>
								</parameter>
								<parameter authoringApp="PremierePro">
									<parameterid>centerOffset</parameterid>
									<name>Anchor Point</name>
									<value>
										<horiz>0</horiz>
										<vert>0</vert>
									</value>
								</parameter>
								<parameter authoringApp="PremierePro">
									<parameterid>antiflicker</parameterid>
									<name>Anti-flicker Filter</name>
									<valuemin>0.0</valuemin>
									<valuemax>1.0</valuemax>
									<value>0</value>
								</parameter>
							</effect>
						</filter>
						<link>
							<linkclipref>clipitem-88</linkclipref>
							<mediatype>video</mediatype>
							<trackindex>1</trackindex>
							<clipindex>4</clipindex>
						</link>
						<link>
							<linkclipref>clipitem-96</linkclipref>
							<mediatype>audio</mediatype>
							<trackindex>1</trackindex>
							<clipindex>4</clipindex>
							<groupindex>1</groupindex>
						</link>
						<link>
							<linkclipref>clipitem-104</linkclipref>
							<mediatype>audio</mediatype>
							<trackindex>2</trackindex>
							<clipindex>4</clipindex>
							<groupindex>1</groupindex>
						</link>
						<logginginfo>
							<description />
							<scene />
							<shottake />
							<lognote />
							<good />
							<originalvideofilename />
							<originalaudiofilename />
						</logginginfo>
						<colorinfo>
							<lut />
							<lut1 />
							<asc_sop />
							<asc_sat />
							<lut2 />
						</colorinfo>
					<labels><label2>Lavender</label2></labels></clipitem>
					<clipitem id="clipitem-87">
						<masterclipid>clipitem-3-304</masterclipid>
						<name>Taylor_Swift_Travis_Kelce_-_The_New_Power_Couple.mp4</name>
						<enabled>TRUE</enabled>
						<duration>150</duration>
						<rate>
							<timebase>25</timebase>
							<ntsc>FALSE</ntsc>
						</rate>
						<start>116850</start>
						<end>117000</end>
						<in>45450</in>
						<out>45600</out>
						<pproTicksIn>0</pproTicksIn>
						<pproTicksOut>875013995520000</pproTicksOut>
						<alphatype>none</alphatype>
						<pixelaspectratio>square</pixelaspectratio>
						<anamorphic>FALSE</anamorphic>
						<file id="file-31">
							<name>Taylor_Swift_Travis_Kelce_-_The_New_Power_Couple.mp4</name>
							<pathurl>file://localhost/Users/themalikano/Documents/VideoAutomation/premiere_videos/Taylor_Swift_Travis_Kelce_-_The_New_Power_Couple.mp4</pathurl>
							<rate>
								<timebase>25</timebase>
								<ntsc>FALSE</ntsc>
							</rate>
							<duration>86118</duration>
							<timecode>
								<rate>
									<timebase>25</timebase>
									<ntsc>FALSE</ntsc>
								</rate>
								<string>00:00:00:00</string>
								<frame>0</frame>
								<displayformat>NDF</displayformat>
							</timecode>
							<media>
								<video>
									<samplecharacteristics>
										<rate>
											<timebase>25</timebase>
											<ntsc>FALSE</ntsc>
										</rate>
										<width>1920</width>
										<height>1080</height>
										<anamorphic>FALSE</anamorphic>
										<pixelaspectratio>square</pixelaspectratio>
										<fielddominance>none</fielddominance>
									</samplecharacteristics>
								</video>
								<audio>
									<samplecharacteristics>
										<depth>16</depth>
										<samplerate>44100</samplerate>
									</samplecharacteristics>
									<channelcount>2</channelcount>
								</audio>
							</media>
						</file>
						<link>
							<linkclipref>clipitem-87</linkclipref>
							<mediatype>video</mediatype>
							<trackindex>1</trackindex>
							<clipindex>3</clipindex>
						</link>
						<link>
							<linkclipref>clipitem-95</linkclipref>
							<mediatype>audio</mediatype>
							<trackindex>1</trackindex>
							<clipindex>3</clipindex>
							<groupindex>1</groupindex>
						</link>
						<link>
							<linkclipref>clipitem-103</linkclipref>
							<mediatype>audio</mediatype>
							<trackindex>2</trackindex>
							<clipindex>3</clipindex>
							<groupindex>1</groupindex>
						</link>
						<logginginfo>
							<description />
							<scene />
							<shottake />
							<lognote />
							<good />
							<originalvideofilename />
							<originalaudiofilename />
						</logginginfo>
						<colorinfo>
							<lut />
							<lut1 />
							<asc_sop />
							<asc_sat />
							<lut2 />
						</colorinfo>
					<labels><label2>Caribbean</label2></labels></clipitem>
					<clipitem id="clipitem-88">
						<masterclipid>clipitem-4-116</masterclipid>
						<name>Travis_Kelce_ANNOUNCE_WEDDING_DATE_with_Taylor_Swift_Why_He_was_Delaying_all_Along.mp4</name>
						<enabled>TRUE</enabled>
						<duration>150</duration>
						<rate>
							<timebase>25</timebase>
							<ntsc>FALSE</ntsc>
						</rate>
						<start>117000</start>
						<end>117150</end>
						<in>17250</in>
						<out>17400</out>
						<pproTicksIn>0</pproTicksIn>
						<pproTicksOut>419410897920000</pproTicksOut>
						<alphatype>none</alphatype>
						<pixelaspectratio>square</pixelaspectratio>
						<anamorphic>FALSE</anamorphic>
						<file id="file-32">
							<name>Travis_Kelce_ANNOUNCE_WEDDING_DATE_with_Taylor_Swift_Why_He_was_Delaying_all_Along.mp4</name>
							<pathurl>file://localhost/Users/themalikano/Documents/VideoAutomation/premiere_videos/Travis_Kelce_ANNOUNCE_WEDDING_DATE_with_Taylor_Swift_Why_He_was_Delaying_all_Along.mp4</pathurl>
							<rate>
								<timebase>24</timebase>
								<ntsc>FALSE</ntsc>
							</rate>
							<duration>39627</duration>
							<timecode>
								<rate>
									<timebase>24</timebase>
									<ntsc>FALSE</ntsc>
								</rate>
								<string>00:00:00:00</string>
								<frame>0</frame>
								<displayformat>NDF</displayformat>
							</timecode>
							<media>
								<video>
									<samplecharacteristics>
										<rate>
											<timebase>24</timebase>
											<ntsc>FALSE</ntsc>
										</rate>
										<width>852</width>
										<height>480</height>
										<anamorphic>FALSE</anamorphic>
										<pixelaspectratio>square</pixelaspectratio>
										<fielddominance>none</fielddominance>
									</samplecharacteristics>
								</video>
								<audio>
									<samplecharacteristics>
										<depth>16</depth>
										<samplerate>44100</samplerate>
									</samplecharacteristics>
									<channelcount>2</channelcount>
								</audio>
							</media>
						</file>
						<filter>
							<effect>
								<name>Basic Motion</name>
								<effectid>basic</effectid>
								<effectcategory>motion</effectcategory>
								<effecttype>motion</effecttype>
								<mediatype>video</mediatype>
								<pproBypass>false</pproBypass>
								<parameter authoringApp="PremierePro">
									<parameterid>scale</parameterid>
									<name>Scale</name>
									<valuemin>0</valuemin>
									<valuemax>1000</valuemax>
									<value>225</value>
								</parameter>
								<parameter authoringApp="PremierePro">
									<parameterid>rotation</parameterid>
									<name>Rotation</name>
									<valuemin>-8640</valuemin>
									<valuemax>8640</valuemax>
									<value>0</value>
								</parameter>
								<parameter authoringApp="PremierePro">
									<parameterid>center</parameterid>
									<name>Center</name>
									<value>
										<horiz>0</horiz>
										<vert>0</vert>
									</value>
								</parameter>
								<parameter authoringApp="PremierePro">
									<parameterid>centerOffset</parameterid>
									<name>Anchor Point</name>
									<value>
										<horiz>0</horiz>
										<vert>0</vert>
									</value>
								</parameter>
								<parameter authoringApp="PremierePro">
									<parameterid>antiflicker</parameterid>
									<name>Anti-flicker Filter</name>
									<valuemin>0.0</valuemin>
									<valuemax>1.0</valuemax>
									<value>0</value>
								</parameter>
							</effect>
						</filter>
						<link>
							<linkclipref>clipitem-88</linkclipref>
							<mediatype>video</mediatype>
							<trackindex>1</trackindex>
							<clipindex>4</clipindex>
						</link>
						<link>
							<linkclipref>clipitem-96</linkclipref>
							<mediatype>audio</mediatype>
							<trackindex>1</trackindex>
							<clipindex>4</clipindex>
							<groupindex>1</groupindex>
						</link>
						<link>
							<linkclipref>clipitem-104</linkclipref>
							<mediatype>audio</mediatype>
							<trackindex>2</trackindex>
							<clipindex>4</clipindex>
							<groupindex>1</groupindex>
						</link>
						<logginginfo>
							<description />
							<scene />
							<shottake />
							<lognote />
							<good />
							<originalvideofilename />
							<originalaudiofilename />
						</logginginfo>
						<colorinfo>
							<lut />
							<lut1 />
							<asc_sop />
							<asc_sat />
							<lut2 />
						</colorinfo>
					<labels><label2>Lavender</label2></labels></clipitem>
					<clipitem id="clipitem-87">
						<masterclipid>clipitem-3-2</masterclipid>
						<name>Taylor_Swift_Travis_Kelce_-_The_New_Power_Couple.mp4</name>
						<enabled>TRUE</enabled>
						<duration>150</duration>
						<rate>
							<timebase>25</timebase>
							<ntsc>FALSE</ntsc>
						</rate>
						<start>117150</start>
						<end>117300</end>
						<in>150</in>
						<out>300</out>
						<pproTicksIn>0</pproTicksIn>
						<pproTicksOut>875013995520000</pproTicksOut>
						<alphatype>none</alphatype>
						<pixelaspectratio>square</pixelaspectratio>
						<anamorphic>FALSE</anamorphic>
						<file id="file-31">
							<name>Taylor_Swift_Travis_Kelce_-_The_New_Power_Couple.mp4</name>
							<pathurl>file://localhost/Users/themalikano/Documents/VideoAutomation/premiere_videos/Taylor_Swift_Travis_Kelce_-_The_New_Power_Couple.mp4</pathurl>
							<rate>
								<timebase>25</timebase>
								<ntsc>FALSE</ntsc>
							</rate>
							<duration>86118</duration>
							<timecode>
								<rate>
									<timebase>25</timebase>
									<ntsc>FALSE</ntsc>
								</rate>
								<string>00:00:00:00</string>
								<frame>0</frame>
								<displayformat>NDF</displayformat>
							</timecode>
							<media>
								<video>
									<samplecharacteristics>
										<rate>
											<timebase>25</timebase>
											<ntsc>FALSE</ntsc>
										</rate>
										<width>1920</width>
										<height>1080</height>
										<anamorphic>FALSE</anamorphic>
										<pixelaspectratio>square</pixelaspectratio>
										<fielddominance>none</fielddominance>
									</samplecharacteristics>
								</video>
								<audio>
									<samplecharacteristics>
										<depth>16</depth>
										<samplerate>44100</samplerate>
									</samplecharacteristics>
									<channelcount>2</channelcount>
								</audio>
							</media>
						</file>
						<link>
							<linkclipref>clipitem-87</linkclipref>
							<mediatype>video</mediatype>
							<trackindex>1</trackindex>
							<clipindex>3</clipindex>
						</link>
						<link>
							<linkclipref>clipitem-95</linkclipref>
							<mediatype>audio</mediatype>
							<trackindex>1</trackindex>
							<clipindex>3</clipindex>
							<groupindex>1</groupindex>
						</link>
						<link>
							<linkclipref>clipitem-103</linkclipref>
							<mediatype>audio</mediatype>
							<trackindex>2</trackindex>
							<clipindex>3</clipindex>
							<groupindex>1</groupindex>
						</link>
						<logginginfo>
							<description />
							<scene />
							<shottake />
							<lognote />
							<good />
							<originalvideofilename />
							<originalaudiofilename />
						</logginginfo>
						<colorinfo>
							<lut />
							<lut1 />
							<asc_sop />
							<asc_sat />
							<lut2 />
						</colorinfo>
					<labels><label2>Caribbean</label2></labels></clipitem>
					<clipitem id="clipitem-88">
						<masterclipid>clipitem-4-269</masterclipid>
						<name>Travis_Kelce_ANNOUNCE_WEDDING_DATE_with_Taylor_Swift_Why_He_was_Delaying_all_Along.mp4</name>
						<enabled>TRUE</enabled>
						<duration>150</duration>
						<rate>
							<timebase>25</timebase>
							<ntsc>FALSE</ntsc>
						</rate>
						<start>117300</start>
						<end>117450</end>
						<in>40200</in>
						<out>40350</out>
						<pproTicksIn>0</pproTicksIn>
						<pproTicksOut>419410897920000</pproTicksOut>
						<alphatype>none</alphatype>
						<pixelaspectratio>square</pixelaspectratio>
						<anamorphic>FALSE</anamorphic>
						<file id="file-32">
							<name>Travis_Kelce_ANNOUNCE_WEDDING_DATE_with_Taylor_Swift_Why_He_was_Delaying_all_Along.mp4</name>
							<pathurl>file://localhost/Users/themalikano/Documents/VideoAutomation/premiere_videos/Travis_Kelce_ANNOUNCE_WEDDING_DATE_with_Taylor_Swift_Why_He_was_Delaying_all_Along.mp4</pathurl>
							<rate>
								<timebase>24</timebase>
								<ntsc>FALSE</ntsc>
							</rate>
							<duration>39627</duration>
							<timecode>
								<rate>
									<timebase>24</timebase>
									<ntsc>FALSE</ntsc>
								</rate>
								<string>00:00:00:00</string>
								<frame>0</frame>
								<displayformat>NDF</displayformat>
							</timecode>
							<media>
								<video>
									<samplecharacteristics>
										<rate>
											<timebase>24</timebase>
											<ntsc>FALSE</ntsc>
										</rate>
										<width>852</width>
										<height>480</height>
										<anamorphic>FALSE</anamorphic>
										<pixelaspectratio>square</pixelaspectratio>
										<fielddominance>none</fielddominance>
									</samplecharacteristics>
								</video>
								<audio>
									<samplecharacteristics>
										<depth>16</depth>
										<samplerate>44100</samplerate>
									</samplecharacteristics>
									<channelcount>2</channelcount>
								</audio>
							</media>
						</file>
						<filter>
							<effect>
								<name>Basic Motion</name>
								<effectid>basic</effectid>
								<effectcategory>motion</effectcategory>
								<effecttype>motion</effecttype>
								<mediatype>video</mediatype>
								<pproBypass>false</pproBypass>
								<parameter authoringApp="PremierePro">
									<parameterid>scale</parameterid>
									<name>Scale</name>
									<valuemin>0</valuemin>
									<valuemax>1000</valuemax>
									<value>225</value>
								</parameter>
								<parameter authoringApp="PremierePro">
									<parameterid>rotation</parameterid>
									<name>Rotation</name>
									<valuemin>-8640</valuemin>
									<valuemax>8640</valuemax>
									<value>0</value>
								</parameter>
								<parameter authoringApp="PremierePro">
									<parameterid>center</parameterid>
									<name>Center</name>
									<value>
										<horiz>0</horiz>
										<vert>0</vert>
									</value>
								</parameter>
								<parameter authoringApp="PremierePro">
									<parameterid>centerOffset</parameterid>
									<name>Anchor Point</name>
									<value>
										<horiz>0</horiz>
										<vert>0</vert>
									</value>
								</parameter>
								<parameter authoringApp="PremierePro">
									<parameterid>antiflicker</parameterid>
									<name>Anti-flicker Filter</name>
									<valuemin>0.0</valuemin>
									<valuemax>1.0</valuemax>
									<value>0</value>
								</parameter>
							</effect>
						</filter>
						<link>
							<linkclipref>clipitem-88</linkclipref>
							<mediatype>video</mediatype>
							<trackindex>1</trackindex>
							<clipindex>4</clipindex>
						</link>
						<link>
							<linkclipref>clipitem-96</linkclipref>
							<mediatype>audio</mediatype>
							<trackindex>1</trackindex>
							<clipindex>4</clipindex>
							<groupindex>1</groupindex>
						</link>
						<link>
							<linkclipref>clipitem-104</linkclipref>
							<mediatype>audio</mediatype>
							<trackindex>2</trackindex>
							<clipindex>4</clipindex>
							<groupindex>1</groupindex>
						</link>
						<logginginfo>
							<description />
							<scene />
							<shottake />
							<lognote />
							<good />
							<originalvideofilename />
							<originalaudiofilename />
						</logginginfo>
						<colorinfo>
							<lut />
							<lut1 />
							<asc_sop />
							<asc_sat />
							<lut2 />
						</colorinfo>
					<labels><label2>Lavender</label2></labels></clipitem>
					<clipitem id="clipitem-87">
						<masterclipid>clipitem-3-571</masterclipid>
						<name>Taylor_Swift_Travis_Kelce_-_The_New_Power_Couple.mp4</name>
						<enabled>TRUE</enabled>
						<duration>150</duration>
						<rate>
							<timebase>25</timebase>
							<ntsc>FALSE</ntsc>
						</rate>
						<start>117450</start>
						<end>117600</end>
						<in>85500</in>
						<out>85650</out>
						<pproTicksIn>0</pproTicksIn>
						<pproTicksOut>875013995520000</pproTicksOut>
						<alphatype>none</alphatype>
						<pixelaspectratio>square</pixelaspectratio>
						<anamorphic>FALSE</anamorphic>
						<file id="file-31">
							<name>Taylor_Swift_Travis_Kelce_-_The_New_Power_Couple.mp4</name>
							<pathurl>file://localhost/Users/themalikano/Documents/VideoAutomation/premiere_videos/Taylor_Swift_Travis_Kelce_-_The_New_Power_Couple.mp4</pathurl>
							<rate>
								<timebase>25</timebase>
								<ntsc>FALSE</ntsc>
							</rate>
							<duration>86118</duration>
							<timecode>
								<rate>
									<timebase>25</timebase>
									<ntsc>FALSE</ntsc>
								</rate>
								<string>00:00:00:00</string>
								<frame>0</frame>
								<displayformat>NDF</displayformat>
							</timecode>
							<media>
								<video>
									<samplecharacteristics>
										<rate>
											<timebase>25</timebase>
											<ntsc>FALSE</ntsc>
										</rate>
										<width>1920</width>
										<height>1080</height>
										<anamorphic>FALSE</anamorphic>
										<pixelaspectratio>square</pixelaspectratio>
										<fielddominance>none</fielddominance>
									</samplecharacteristics>
								</video>
								<audio>
									<samplecharacteristics>
										<depth>16</depth>
										<samplerate>44100</samplerate>
									</samplecharacteristics>
									<channelcount>2</channelcount>
								</audio>
							</media>
						</file>
						<link>
							<linkclipref>clipitem-87</linkclipref>
							<mediatype>video</mediatype>
							<trackindex>1</trackindex>
							<clipindex>3</clipindex>
						</link>
						<link>
							<linkclipref>clipitem-95</linkclipref>
							<mediatype>audio</mediatype>
							<trackindex>1</trackindex>
							<clipindex>3</clipindex>
							<groupindex>1</groupindex>
						</link>
						<link>
							<linkclipref>clipitem-103</linkclipref>
							<mediatype>audio</mediatype>
							<trackindex>2</trackindex>
							<clipindex>3</clipindex>
							<groupindex>1</groupindex>
						</link>
						<logginginfo>
							<description />
							<scene />
							<shottake />
							<lognote />
							<good />
							<originalvideofilename />
							<originalaudiofilename />
						</logginginfo>
						<colorinfo>
							<lut />
							<lut1 />
							<asc_sop />
							<asc_sat />
							<lut2 />
						</colorinfo>
					<labels><label2>Caribbean</label2></labels></clipitem>
					<clipitem id="clipitem-88">
						<masterclipid>clipitem-4-33</masterclipid>
						<name>Travis_Kelce_ANNOUNCE_WEDDING_DATE_with_Taylor_Swift_Why_He_was_Delaying_all_Along.mp4</name>
						<enabled>TRUE</enabled>
						<duration>150</duration>
						<rate>
							<timebase>25</timebase>
							<ntsc>FALSE</ntsc>
						</rate>
						<start>117600</start>
						<end>117750</end>
						<in>4800</in>
						<out>4950</out>
						<pproTicksIn>0</pproTicksIn>
						<pproTicksOut>419410897920000</pproTicksOut>
						<alphatype>none</alphatype>
						<pixelaspectratio>square</pixelaspectratio>
						<anamorphic>FALSE</anamorphic>
						<file id="file-32">
							<name>Travis_Kelce_ANNOUNCE_WEDDING_DATE_with_Taylor_Swift_Why_He_was_Delaying_all_Along.mp4</name>
							<pathurl>file://localhost/Users/themalikano/Documents/VideoAutomation/premiere_videos/Travis_Kelce_ANNOUNCE_WEDDING_DATE_with_Taylor_Swift_Why_He_was_Delaying_all_Along.mp4</pathurl>
							<rate>
								<timebase>24</timebase>
								<ntsc>FALSE</ntsc>
							</rate>
							<duration>39627</duration>
							<timecode>
								<rate>
									<timebase>24</timebase>
									<ntsc>FALSE</ntsc>
								</rate>
								<string>00:00:00:00</string>
								<frame>0</frame>
								<displayformat>NDF</displayformat>
							</timecode>
							<media>
								<video>
									<samplecharacteristics>
										<rate>
											<timebase>24</timebase>
											<ntsc>FALSE</ntsc>
										</rate>
										<width>852</width>
										<height>480</height>
										<anamorphic>FALSE</anamorphic>
										<pixelaspectratio>square</pixelaspectratio>
										<fielddominance>none</fielddominance>
									</samplecharacteristics>
								</video>
								<audio>
									<samplecharacteristics>
										<depth>16</depth>
										<samplerate>44100</samplerate>
									</samplecharacteristics>
									<channelcount>2</channelcount>
								</audio>
							</media>
						</file>
						<filter>
							<effect>
								<name>Basic Motion</name>
								<effectid>basic</effectid>
								<effectcategory>motion</effectcategory>
								<effecttype>motion</effecttype>
								<mediatype>video</mediatype>
								<pproBypass>false</pproBypass>
								<parameter authoringApp="PremierePro">
									<parameterid>scale</parameterid>
									<name>Scale</name>
									<valuemin>0</valuemin>
									<valuemax>1000</valuemax>
									<value>225</value>
								</parameter>
								<parameter authoringApp="PremierePro">
									<parameterid>rotation</parameterid>
									<name>Rotation</name>
									<valuemin>-8640</valuemin>
									<valuemax>8640</valuemax>
									<value>0</value>
								</parameter>
								<parameter authoringApp="PremierePro">
									<parameterid>center</parameterid>
									<name>Center</name>
									<value>
										<horiz>0</horiz>
										<vert>0</vert>
									</value>
								</parameter>
								<parameter authoringApp="PremierePro">
									<parameterid>centerOffset</parameterid>
									<name>Anchor Point</name>
									<value>
										<horiz>0</horiz>
										<vert>0</vert>
									</value>
								</parameter>
								<parameter authoringApp="PremierePro">
									<parameterid>antiflicker</parameterid>
									<name>Anti-flicker Filter</name>
									<valuemin>0.0</valuemin>
									<valuemax>1.0</valuemax>
									<value>0</value>
								</parameter>
							</effect>
						</filter>
						<link>
							<linkclipref>clipitem-88</linkclipref>
							<mediatype>video</mediatype>
							<trackindex>1</trackindex>
							<clipindex>4</clipindex>
						</link>
						<link>
							<linkclipref>clipitem-96</linkclipref>
							<mediatype>audio</mediatype>
							<trackindex>1</trackindex>
							<clipindex>4</clipindex>
							<groupindex>1</groupindex>
						</link>
						<link>
							<linkclipref>clipitem-104</linkclipref>
							<mediatype>audio</mediatype>
							<trackindex>2</trackindex>
							<clipindex>4</clipindex>
							<groupindex>1</groupindex>
						</link>
						<logginginfo>
							<description />
							<scene />
							<shottake />
							<lognote />
							<good />
							<originalvideofilename />
							<originalaudiofilename />
						</logginginfo>
						<colorinfo>
							<lut />
							<lut1 />
							<asc_sop />
							<asc_sat />
							<lut2 />
						</colorinfo>
					<labels><label2>Lavender</label2></labels></clipitem>
					<clipitem id="clipitem-87">
						<masterclipid>clipitem-3-386</masterclipid>
						<name>Taylor_Swift_Travis_Kelce_-_The_New_Power_Couple.mp4</name>
						<enabled>TRUE</enabled>
						<duration>150</duration>
						<rate>
							<timebase>25</timebase>
							<ntsc>FALSE</ntsc>
						</rate>
						<start>117750</start>
						<end>117900</end>
						<in>57750</in>
						<out>57900</out>
						<pproTicksIn>0</pproTicksIn>
						<pproTicksOut>875013995520000</pproTicksOut>
						<alphatype>none</alphatype>
						<pixelaspectratio>square</pixelaspectratio>
						<anamorphic>FALSE</anamorphic>
						<file id="file-31">
							<name>Taylor_Swift_Travis_Kelce_-_The_New_Power_Couple.mp4</name>
							<pathurl>file://localhost/Users/themalikano/Documents/VideoAutomation/premiere_videos/Taylor_Swift_Travis_Kelce_-_The_New_Power_Couple.mp4</pathurl>
							<rate>
								<timebase>25</timebase>
								<ntsc>FALSE</ntsc>
							</rate>
							<duration>86118</duration>
							<timecode>
								<rate>
									<timebase>25</timebase>
									<ntsc>FALSE</ntsc>
								</rate>
								<string>00:00:00:00</string>
								<frame>0</frame>
								<displayformat>NDF</displayformat>
							</timecode>
							<media>
								<video>
									<samplecharacteristics>
										<rate>
											<timebase>25</timebase>
											<ntsc>FALSE</ntsc>
										</rate>
										<width>1920</width>
										<height>1080</height>
										<anamorphic>FALSE</anamorphic>
										<pixelaspectratio>square</pixelaspectratio>
										<fielddominance>none</fielddominance>
									</samplecharacteristics>
								</video>
								<audio>
									<samplecharacteristics>
										<depth>16</depth>
										<samplerate>44100</samplerate>
									</samplecharacteristics>
									<channelcount>2</channelcount>
								</audio>
							</media>
						</file>
						<link>
							<linkclipref>clipitem-87</linkclipref>
							<mediatype>video</mediatype>
							<trackindex>1</trackindex>
							<clipindex>3</clipindex>
						</link>
						<link>
							<linkclipref>clipitem-95</linkclipref>
							<mediatype>audio</mediatype>
							<trackindex>1</trackindex>
							<clipindex>3</clipindex>
							<groupindex>1</groupindex>
						</link>
						<link>
							<linkclipref>clipitem-103</linkclipref>
							<mediatype>audio</mediatype>
							<trackindex>2</trackindex>
							<clipindex>3</clipindex>
							<groupindex>1</groupindex>
						</link>
						<logginginfo>
							<description />
							<scene />
							<shottake />
							<lognote />
							<good />
							<originalvideofilename />
							<originalaudiofilename />
						</logginginfo>
						<colorinfo>
							<lut />
							<lut1 />
							<asc_sop />
							<asc_sat />
							<lut2 />
						</colorinfo>
					<labels><label2>Caribbean</label2></labels></clipitem>
					<clipitem id="clipitem-88">
						<masterclipid>clipitem-4-182</masterclipid>
						<name>Travis_Kelce_ANNOUNCE_WEDDING_DATE_with_Taylor_Swift_Why_He_was_Delaying_all_Along.mp4</name>
						<enabled>TRUE</enabled>
						<duration>150</duration>
						<rate>
							<timebase>25</timebase>
							<ntsc>FALSE</ntsc>
						</rate>
						<start>117900</start>
						<end>118050</end>
						<in>27150</in>
						<out>27300</out>
						<pproTicksIn>0</pproTicksIn>
						<pproTicksOut>419410897920000</pproTicksOut>
						<alphatype>none</alphatype>
						<pixelaspectratio>square</pixelaspectratio>
						<anamorphic>FALSE</anamorphic>
						<file id="file-32">
							<name>Travis_Kelce_ANNOUNCE_WEDDING_DATE_with_Taylor_Swift_Why_He_was_Delaying_all_Along.mp4</name>
							<pathurl>file://localhost/Users/themalikano/Documents/VideoAutomation/premiere_videos/Travis_Kelce_ANNOUNCE_WEDDING_DATE_with_Taylor_Swift_Why_He_was_Delaying_all_Along.mp4</pathurl>
							<rate>
								<timebase>24</timebase>
								<ntsc>FALSE</ntsc>
							</rate>
							<duration>39627</duration>
							<timecode>
								<rate>
									<timebase>24</timebase>
									<ntsc>FALSE</ntsc>
								</rate>
								<string>00:00:00:00</string>
								<frame>0</frame>
								<displayformat>NDF</displayformat>
							</timecode>
							<media>
								<video>
									<samplecharacteristics>
										<rate>
											<timebase>24</timebase>
											<ntsc>FALSE</ntsc>
										</rate>
										<width>852</width>
										<height>480</height>
										<anamorphic>FALSE</anamorphic>
										<pixelaspectratio>square</pixelaspectratio>
										<fielddominance>none</fielddominance>
									</samplecharacteristics>
								</video>
								<audio>
									<samplecharacteristics>
										<depth>16</depth>
										<samplerate>44100</samplerate>
									</samplecharacteristics>
									<channelcount>2</channelcount>
								</audio>
							</media>
						</file>
						<filter>
							<effect>
								<name>Basic Motion</name>
								<effectid>basic</effectid>
								<effectcategory>motion</effectcategory>
								<effecttype>motion</effecttype>
								<mediatype>video</mediatype>
								<pproBypass>false</pproBypass>
								<parameter authoringApp="PremierePro">
									<parameterid>scale</parameterid>
									<name>Scale</name>
									<valuemin>0</valuemin>
									<valuemax>1000</valuemax>
									<value>225</value>
								</parameter>
								<parameter authoringApp="PremierePro">
									<parameterid>rotation</parameterid>
									<name>Rotation</name>
									<valuemin>-8640</valuemin>
									<valuemax>8640</valuemax>
									<value>0</value>
								</parameter>
								<parameter authoringApp="PremierePro">
									<parameterid>center</parameterid>
									<name>Center</name>
									<value>
										<horiz>0</horiz>
										<vert>0</vert>
									</value>
								</parameter>
								<parameter authoringApp="PremierePro">
									<parameterid>centerOffset</parameterid>
									<name>Anchor Point</name>
									<value>
										<horiz>0</horiz>
										<vert>0</vert>
									</value>
								</parameter>
								<parameter authoringApp="PremierePro">
									<parameterid>antiflicker</parameterid>
									<name>Anti-flicker Filter</name>
									<valuemin>0.0</valuemin>
									<valuemax>1.0</valuemax>
									<value>0</value>
								</parameter>
							</effect>
						</filter>
						<link>
							<linkclipref>clipitem-88</linkclipref>
							<mediatype>video</mediatype>
							<trackindex>1</trackindex>
							<clipindex>4</clipindex>
						</link>
						<link>
							<linkclipref>clipitem-96</linkclipref>
							<mediatype>audio</mediatype>
							<trackindex>1</trackindex>
							<clipindex>4</clipindex>
							<groupindex>1</groupindex>
						</link>
						<link>
							<linkclipref>clipitem-104</linkclipref>
							<mediatype>audio</mediatype>
							<trackindex>2</trackindex>
							<clipindex>4</clipindex>
							<groupindex>1</groupindex>
						</link>
						<logginginfo>
							<description />
							<scene />
							<shottake />
							<lognote />
							<good />
							<originalvideofilename />
							<originalaudiofilename />
						</logginginfo>
						<colorinfo>
							<lut />
							<lut1 />
							<asc_sop />
							<asc_sat />
							<lut2 />
						</colorinfo>
					<labels><label2>Lavender</label2></labels></clipitem>
					<clipitem id="clipitem-87">
						<masterclipid>clipitem-3-326</masterclipid>
						<name>Taylor_Swift_Travis_Kelce_-_The_New_Power_Couple.mp4</name>
						<enabled>TRUE</enabled>
						<duration>150</duration>
						<rate>
							<timebase>25</timebase>
							<ntsc>FALSE</ntsc>
						</rate>
						<start>118050</start>
						<end>118200</end>
						<in>48750</in>
						<out>48900</out>
						<pproTicksIn>0</pproTicksIn>
						<pproTicksOut>875013995520000</pproTicksOut>
						<alphatype>none</alphatype>
						<pixelaspectratio>square</pixelaspectratio>
						<anamorphic>FALSE</anamorphic>
						<file id="file-31">
							<name>Taylor_Swift_Travis_Kelce_-_The_New_Power_Couple.mp4</name>
							<pathurl>file://localhost/Users/themalikano/Documents/VideoAutomation/premiere_videos/Taylor_Swift_Travis_Kelce_-_The_New_Power_Couple.mp4</pathurl>
							<rate>
								<timebase>25</timebase>
								<ntsc>FALSE</ntsc>
							</rate>
							<duration>86118</duration>
							<timecode>
								<rate>
									<timebase>25</timebase>
									<ntsc>FALSE</ntsc>
								</rate>
								<string>00:00:00:00</string>
								<frame>0</frame>
								<displayformat>NDF</displayformat>
							</timecode>
							<media>
								<video>
									<samplecharacteristics>
										<rate>
											<timebase>25</timebase>
											<ntsc>FALSE</ntsc>
										</rate>
										<width>1920</width>
										<height>1080</height>
										<anamorphic>FALSE</anamorphic>
										<pixelaspectratio>square</pixelaspectratio>
										<fielddominance>none</fielddominance>
									</samplecharacteristics>
								</video>
								<audio>
									<samplecharacteristics>
										<depth>16</depth>
										<samplerate>44100</samplerate>
									</samplecharacteristics>
									<channelcount>2</channelcount>
								</audio>
							</media>
						</file>
						<link>
							<linkclipref>clipitem-87</linkclipref>
							<mediatype>video</mediatype>
							<trackindex>1</trackindex>
							<clipindex>3</clipindex>
						</link>
						<link>
							<linkclipref>clipitem-95</linkclipref>
							<mediatype>audio</mediatype>
							<trackindex>1</trackindex>
							<clipindex>3</clipindex>
							<groupindex>1</groupindex>
						</link>
						<link>
							<linkclipref>clipitem-103</linkclipref>
							<mediatype>audio</mediatype>
							<trackindex>2</trackindex>
							<clipindex>3</clipindex>
							<groupindex>1</groupindex>
						</link>
						<logginginfo>
							<description />
							<scene />
							<shottake />
							<lognote />
							<good />
							<originalvideofilename />
							<originalaudiofilename />
						</logginginfo>
						<colorinfo>
							<lut />
							<lut1 />
							<asc_sop />
							<asc_sat />
							<lut2 />
						</colorinfo>
					<labels><label2>Caribbean</label2></labels></clipitem>
					<clipitem id="clipitem-88">
						<masterclipid>clipitem-4-147</masterclipid>
						<name>Travis_Kelce_ANNOUNCE_WEDDING_DATE_with_Taylor_Swift_Why_He_was_Delaying_all_Along.mp4</name>
						<enabled>TRUE</enabled>
						<duration>150</duration>
						<rate>
							<timebase>25</timebase>
							<ntsc>FALSE</ntsc>
						</rate>
						<start>118200</start>
						<end>118350</end>
						<in>21900</in>
						<out>22050</out>
						<pproTicksIn>0</pproTicksIn>
						<pproTicksOut>419410897920000</pproTicksOut>
						<alphatype>none</alphatype>
						<pixelaspectratio>square</pixelaspectratio>
						<anamorphic>FALSE</anamorphic>
						<file id="file-32">
							<name>Travis_Kelce_ANNOUNCE_WEDDING_DATE_with_Taylor_Swift_Why_He_was_Delaying_all_Along.mp4</name>
							<pathurl>file://localhost/Users/themalikano/Documents/VideoAutomation/premiere_videos/Travis_Kelce_ANNOUNCE_WEDDING_DATE_with_Taylor_Swift_Why_He_was_Delaying_all_Along.mp4</pathurl>
							<rate>
								<timebase>24</timebase>
								<ntsc>FALSE</ntsc>
							</rate>
							<duration>39627</duration>
							<timecode>
								<rate>
									<timebase>24</timebase>
									<ntsc>FALSE</ntsc>
								</rate>
								<string>00:00:00:00</string>
								<frame>0</frame>
								<displayformat>NDF</displayformat>
							</timecode>
							<media>
								<video>
									<samplecharacteristics>
										<rate>
											<timebase>24</timebase>
											<ntsc>FALSE</ntsc>
										</rate>
										<width>852</width>
										<height>480</height>
										<anamorphic>FALSE</anamorphic>
										<pixelaspectratio>square</pixelaspectratio>
										<fielddominance>none</fielddominance>
									</samplecharacteristics>
								</video>
								<audio>
									<samplecharacteristics>
										<depth>16</depth>
										<samplerate>44100</samplerate>
									</samplecharacteristics>
									<channelcount>2</channelcount>
								</audio>
							</media>
						</file>
						<filter>
							<effect>
								<name>Basic Motion</name>
								<effectid>basic</effectid>
								<effectcategory>motion</effectcategory>
								<effecttype>motion</effecttype>
								<mediatype>video</mediatype>
								<pproBypass>false</pproBypass>
								<parameter authoringApp="PremierePro">
									<parameterid>scale</parameterid>
									<name>Scale</name>
									<valuemin>0</valuemin>
									<valuemax>1000</valuemax>
									<value>225</value>
								</parameter>
								<parameter authoringApp="PremierePro">
									<parameterid>rotation</parameterid>
									<name>Rotation</name>
									<valuemin>-8640</valuemin>
									<valuemax>8640</valuemax>
									<value>0</value>
								</parameter>
								<parameter authoringApp="PremierePro">
									<parameterid>center</parameterid>
									<name>Center</name>
									<value>
										<horiz>0</horiz>
										<vert>0</vert>
									</value>
								</parameter>
								<parameter authoringApp="PremierePro">
									<parameterid>centerOffset</parameterid>
									<name>Anchor Point</name>
									<value>
										<horiz>0</horiz>
										<vert>0</vert>
									</value>
								</parameter>
								<parameter authoringApp="PremierePro">
									<parameterid>antiflicker</parameterid>
									<name>Anti-flicker Filter</name>
									<valuemin>0.0</valuemin>
									<valuemax>1.0</valuemax>
									<value>0</value>
								</parameter>
							</effect>
						</filter>
						<link>
							<linkclipref>clipitem-88</linkclipref>
							<mediatype>video</mediatype>
							<trackindex>1</trackindex>
							<clipindex>4</clipindex>
						</link>
						<link>
							<linkclipref>clipitem-96</linkclipref>
							<mediatype>audio</mediatype>
							<trackindex>1</trackindex>
							<clipindex>4</clipindex>
							<groupindex>1</groupindex>
						</link>
						<link>
							<linkclipref>clipitem-104</linkclipref>
							<mediatype>audio</mediatype>
							<trackindex>2</trackindex>
							<clipindex>4</clipindex>
							<groupindex>1</groupindex>
						</link>
						<logginginfo>
							<description />
							<scene />
							<shottake />
							<lognote />
							<good />
							<originalvideofilename />
							<originalaudiofilename />
						</logginginfo>
						<colorinfo>
							<lut />
							<lut1 />
							<asc_sop />
							<asc_sat />
							<lut2 />
						</colorinfo>
					<labels><label2>Lavender</label2></labels></clipitem>
					<clipitem id="clipitem-87">
						<masterclipid>clipitem-3-502</masterclipid>
						<name>Taylor_Swift_Travis_Kelce_-_The_New_Power_Couple.mp4</name>
						<enabled>TRUE</enabled>
						<duration>150</duration>
						<rate>
							<timebase>25</timebase>
							<ntsc>FALSE</ntsc>
						</rate>
						<start>118350</start>
						<end>118500</end>
						<in>75150</in>
						<out>75300</out>
						<pproTicksIn>0</pproTicksIn>
						<pproTicksOut>875013995520000</pproTicksOut>
						<alphatype>none</alphatype>
						<pixelaspectratio>square</pixelaspectratio>
						<anamorphic>FALSE</anamorphic>
						<file id="file-31">
							<name>Taylor_Swift_Travis_Kelce_-_The_New_Power_Couple.mp4</name>
							<pathurl>file://localhost/Users/themalikano/Documents/VideoAutomation/premiere_videos/Taylor_Swift_Travis_Kelce_-_The_New_Power_Couple.mp4</pathurl>
							<rate>
								<timebase>25</timebase>
								<ntsc>FALSE</ntsc>
							</rate>
							<duration>86118</duration>
							<timecode>
								<rate>
									<timebase>25</timebase>
									<ntsc>FALSE</ntsc>
								</rate>
								<string>00:00:00:00</string>
								<frame>0</frame>
								<displayformat>NDF</displayformat>
							</timecode>
							<media>
								<video>
									<samplecharacteristics>
										<rate>
											<timebase>25</timebase>
											<ntsc>FALSE</ntsc>
										</rate>
										<width>1920</width>
										<height>1080</height>
										<anamorphic>FALSE</anamorphic>
										<pixelaspectratio>square</pixelaspectratio>
										<fielddominance>none</fielddominance>
									</samplecharacteristics>
								</video>
								<audio>
									<samplecharacteristics>
										<depth>16</depth>
										<samplerate>44100</samplerate>
									</samplecharacteristics>
									<channelcount>2</channelcount>
								</audio>
							</media>
						</file>
						<link>
							<linkclipref>clipitem-87</linkclipref>
							<mediatype>video</mediatype>
							<trackindex>1</trackindex>
							<clipindex>3</clipindex>
						</link>
						<link>
							<linkclipref>clipitem-95</linkclipref>
							<mediatype>audio</mediatype>
							<trackindex>1</trackindex>
							<clipindex>3</clipindex>
							<groupindex>1</groupindex>
						</link>
						<link>
							<linkclipref>clipitem-103</linkclipref>
							<mediatype>audio</mediatype>
							<trackindex>2</trackindex>
							<clipindex>3</clipindex>
							<groupindex>1</groupindex>
						</link>
						<logginginfo>
							<description />
							<scene />
							<shottake />
							<lognote />
							<good />
							<originalvideofilename />
							<originalaudiofilename />
						</logginginfo>
						<colorinfo>
							<lut />
							<lut1 />
							<asc_sop />
							<asc_sat />
							<lut2 />
						</colorinfo>
					<labels><label2>Caribbean</label2></labels></clipitem>
					<clipitem id="clipitem-88">
						<masterclipid>clipitem-4-228</masterclipid>
						<name>Travis_Kelce_ANNOUNCE_WEDDING_DATE_with_Taylor_Swift_Why_He_was_Delaying_all_Along.mp4</name>
						<enabled>TRUE</enabled>
						<duration>150</duration>
						<rate>
							<timebase>25</timebase>
							<ntsc>FALSE</ntsc>
						</rate>
						<start>118500</start>
						<end>118650</end>
						<in>34050</in>
						<out>34200</out>
						<pproTicksIn>0</pproTicksIn>
						<pproTicksOut>419410897920000</pproTicksOut>
						<alphatype>none</alphatype>
						<pixelaspectratio>square</pixelaspectratio>
						<anamorphic>FALSE</anamorphic>
						<file id="file-32">
							<name>Travis_Kelce_ANNOUNCE_WEDDING_DATE_with_Taylor_Swift_Why_He_was_Delaying_all_Along.mp4</name>
							<pathurl>file://localhost/Users/themalikano/Documents/VideoAutomation/premiere_videos/Travis_Kelce_ANNOUNCE_WEDDING_DATE_with_Taylor_Swift_Why_He_was_Delaying_all_Along.mp4</pathurl>
							<rate>
								<timebase>24</timebase>
								<ntsc>FALSE</ntsc>
							</rate>
							<duration>39627</duration>
							<timecode>
								<rate>
									<timebase>24</timebase>
									<ntsc>FALSE</ntsc>
								</rate>
								<string>00:00:00:00</string>
								<frame>0</frame>
								<displayformat>NDF</displayformat>
							</timecode>
							<media>
								<video>
									<samplecharacteristics>
										<rate>
											<timebase>24</timebase>
											<ntsc>FALSE</ntsc>
										</rate>
										<width>852</width>
										<height>480</height>
										<anamorphic>FALSE</anamorphic>
										<pixelaspectratio>square</pixelaspectratio>
										<fielddominance>none</fielddominance>
									</samplecharacteristics>
								</video>
								<audio>
									<samplecharacteristics>
										<depth>16</depth>
										<samplerate>44100</samplerate>
									</samplecharacteristics>
									<channelcount>2</channelcount>
								</audio>
							</media>
						</file>
						<filter>
							<effect>
								<name>Basic Motion</name>
								<effectid>basic</effectid>
								<effectcategory>motion</effectcategory>
								<effecttype>motion</effecttype>
								<mediatype>video</mediatype>
								<pproBypass>false</pproBypass>
								<parameter authoringApp="PremierePro">
									<parameterid>scale</parameterid>
									<name>Scale</name>
									<valuemin>0</valuemin>
									<valuemax>1000</valuemax>
									<value>225</value>
								</parameter>
								<parameter authoringApp="PremierePro">
									<parameterid>rotation</parameterid>
									<name>Rotation</name>
									<valuemin>-8640</valuemin>
									<valuemax>8640</valuemax>
									<value>0</value>
								</parameter>
								<parameter authoringApp="PremierePro">
									<parameterid>center</parameterid>
									<name>Center</name>
									<value>
										<horiz>0</horiz>
										<vert>0</vert>
									</value>
								</parameter>
								<parameter authoringApp="PremierePro">
									<parameterid>centerOffset</parameterid>
									<name>Anchor Point</name>
									<value>
										<horiz>0</horiz>
										<vert>0</vert>
									</value>
								</parameter>
								<parameter authoringApp="PremierePro">
									<parameterid>antiflicker</parameterid>
									<name>Anti-flicker Filter</name>
									<valuemin>0.0</valuemin>
									<valuemax>1.0</valuemax>
									<value>0</value>
								</parameter>
							</effect>
						</filter>
						<link>
							<linkclipref>clipitem-88</linkclipref>
							<mediatype>video</mediatype>
							<trackindex>1</trackindex>
							<clipindex>4</clipindex>
						</link>
						<link>
							<linkclipref>clipitem-96</linkclipref>
							<mediatype>audio</mediatype>
							<trackindex>1</trackindex>
							<clipindex>4</clipindex>
							<groupindex>1</groupindex>
						</link>
						<link>
							<linkclipref>clipitem-104</linkclipref>
							<mediatype>audio</mediatype>
							<trackindex>2</trackindex>
							<clipindex>4</clipindex>
							<groupindex>1</groupindex>
						</link>
						<logginginfo>
							<description />
							<scene />
							<shottake />
							<lognote />
							<good />
							<originalvideofilename />
							<originalaudiofilename />
						</logginginfo>
						<colorinfo>
							<lut />
							<lut1 />
							<asc_sop />
							<asc_sat />
							<lut2 />
						</colorinfo>
					<labels><label2>Lavender</label2></labels></clipitem>
					<clipitem id="clipitem-87">
						<masterclipid>clipitem-3-556</masterclipid>
						<name>Taylor_Swift_Travis_Kelce_-_The_New_Power_Couple.mp4</name>
						<enabled>TRUE</enabled>
						<duration>150</duration>
						<rate>
							<timebase>25</timebase>
							<ntsc>FALSE</ntsc>
						</rate>
						<start>118650</start>
						<end>118800</end>
						<in>83250</in>
						<out>83400</out>
						<pproTicksIn>0</pproTicksIn>
						<pproTicksOut>875013995520000</pproTicksOut>
						<alphatype>none</alphatype>
						<pixelaspectratio>square</pixelaspectratio>
						<anamorphic>FALSE</anamorphic>
						<file id="file-31">
							<name>Taylor_Swift_Travis_Kelce_-_The_New_Power_Couple.mp4</name>
							<pathurl>file://localhost/Users/themalikano/Documents/VideoAutomation/premiere_videos/Taylor_Swift_Travis_Kelce_-_The_New_Power_Couple.mp4</pathurl>
							<rate>
								<timebase>25</timebase>
								<ntsc>FALSE</ntsc>
							</rate>
							<duration>86118</duration>
							<timecode>
								<rate>
									<timebase>25</timebase>
									<ntsc>FALSE</ntsc>
								</rate>
								<string>00:00:00:00</string>
								<frame>0</frame>
								<displayformat>NDF</displayformat>
							</timecode>
							<media>
								<video>
									<samplecharacteristics>
										<rate>
											<timebase>25</timebase>
											<ntsc>FALSE</ntsc>
										</rate>
										<width>1920</width>
										<height>1080</height>
										<anamorphic>FALSE</anamorphic>
										<pixelaspectratio>square</pixelaspectratio>
										<fielddominance>none</fielddominance>
									</samplecharacteristics>
								</video>
								<audio>
									<samplecharacteristics>
										<depth>16</depth>
										<samplerate>44100</samplerate>
									</samplecharacteristics>
									<channelcount>2</channelcount>
								</audio>
							</media>
						</file>
						<link>
							<linkclipref>clipitem-87</linkclipref>
							<mediatype>video</mediatype>
							<trackindex>1</trackindex>
							<clipindex>3</clipindex>
						</link>
						<link>
							<linkclipref>clipitem-95</linkclipref>
							<mediatype>audio</mediatype>
							<trackindex>1</trackindex>
							<clipindex>3</clipindex>
							<groupindex>1</groupindex>
						</link>
						<link>
							<linkclipref>clipitem-103</linkclipref>
							<mediatype>audio</mediatype>
							<trackindex>2</trackindex>
							<clipindex>3</clipindex>
							<groupindex>1</groupindex>
						</link>
						<logginginfo>
							<description />
							<scene />
							<shottake />
							<lognote />
							<good />
							<originalvideofilename />
							<originalaudiofilename />
						</logginginfo>
						<colorinfo>
							<lut />
							<lut1 />
							<asc_sop />
							<asc_sat />
							<lut2 />
						</colorinfo>
					<labels><label2>Caribbean</label2></labels></clipitem>
					<clipitem id="clipitem-88">
						<masterclipid>clipitem-4-53</masterclipid>
						<name>Travis_Kelce_ANNOUNCE_WEDDING_DATE_with_Taylor_Swift_Why_He_was_Delaying_all_Along.mp4</name>
						<enabled>TRUE</enabled>
						<duration>150</duration>
						<rate>
							<timebase>25</timebase>
							<ntsc>FALSE</ntsc>
						</rate>
						<start>118800</start>
						<end>118950</end>
						<in>7800</in>
						<out>7950</out>
						<pproTicksIn>0</pproTicksIn>
						<pproTicksOut>419410897920000</pproTicksOut>
						<alphatype>none</alphatype>
						<pixelaspectratio>square</pixelaspectratio>
						<anamorphic>FALSE</anamorphic>
						<file id="file-32">
							<name>Travis_Kelce_ANNOUNCE_WEDDING_DATE_with_Taylor_Swift_Why_He_was_Delaying_all_Along.mp4</name>
							<pathurl>file://localhost/Users/themalikano/Documents/VideoAutomation/premiere_videos/Travis_Kelce_ANNOUNCE_WEDDING_DATE_with_Taylor_Swift_Why_He_was_Delaying_all_Along.mp4</pathurl>
							<rate>
								<timebase>24</timebase>
								<ntsc>FALSE</ntsc>
							</rate>
							<duration>39627</duration>
							<timecode>
								<rate>
									<timebase>24</timebase>
									<ntsc>FALSE</ntsc>
								</rate>
								<string>00:00:00:00</string>
								<frame>0</frame>
								<displayformat>NDF</displayformat>
							</timecode>
							<media>
								<video>
									<samplecharacteristics>
										<rate>
											<timebase>24</timebase>
											<ntsc>FALSE</ntsc>
										</rate>
										<width>852</width>
										<height>480</height>
										<anamorphic>FALSE</anamorphic>
										<pixelaspectratio>square</pixelaspectratio>
										<fielddominance>none</fielddominance>
									</samplecharacteristics>
								</video>
								<audio>
									<samplecharacteristics>
										<depth>16</depth>
										<samplerate>44100</samplerate>
									</samplecharacteristics>
									<channelcount>2</channelcount>
								</audio>
							</media>
						</file>
						<filter>
							<effect>
								<name>Basic Motion</name>
								<effectid>basic</effectid>
								<effectcategory>motion</effectcategory>
								<effecttype>motion</effecttype>
								<mediatype>video</mediatype>
								<pproBypass>false</pproBypass>
								<parameter authoringApp="PremierePro">
									<parameterid>scale</parameterid>
									<name>Scale</name>
									<valuemin>0</valuemin>
									<valuemax>1000</valuemax>
									<value>225</value>
								</parameter>
								<parameter authoringApp="PremierePro">
									<parameterid>rotation</parameterid>
									<name>Rotation</name>
									<valuemin>-8640</valuemin>
									<valuemax>8640</valuemax>
									<value>0</value>
								</parameter>
								<parameter authoringApp="PremierePro">
									<parameterid>center</parameterid>
									<name>Center</name>
									<value>
										<horiz>0</horiz>
										<vert>0</vert>
									</value>
								</parameter>
								<parameter authoringApp="PremierePro">
									<parameterid>centerOffset</parameterid>
									<name>Anchor Point</name>
									<value>
										<horiz>0</horiz>
										<vert>0</vert>
									</value>
								</parameter>
								<parameter authoringApp="PremierePro">
									<parameterid>antiflicker</parameterid>
									<name>Anti-flicker Filter</name>
									<valuemin>0.0</valuemin>
									<valuemax>1.0</valuemax>
									<value>0</value>
								</parameter>
							</effect>
						</filter>
						<link>
							<linkclipref>clipitem-88</linkclipref>
							<mediatype>video</mediatype>
							<trackindex>1</trackindex>
							<clipindex>4</clipindex>
						</link>
						<link>
							<linkclipref>clipitem-96</linkclipref>
							<mediatype>audio</mediatype>
							<trackindex>1</trackindex>
							<clipindex>4</clipindex>
							<groupindex>1</groupindex>
						</link>
						<link>
							<linkclipref>clipitem-104</linkclipref>
							<mediatype>audio</mediatype>
							<trackindex>2</trackindex>
							<clipindex>4</clipindex>
							<groupindex>1</groupindex>
						</link>
						<logginginfo>
							<description />
							<scene />
							<shottake />
							<lognote />
							<good />
							<originalvideofilename />
							<originalaudiofilename />
						</logginginfo>
						<colorinfo>
							<lut />
							<lut1 />
							<asc_sop />
							<asc_sat />
							<lut2 />
						</colorinfo>
					<labels><label2>Lavender</label2></labels></clipitem>
					<clipitem id="clipitem-87">
						<masterclipid>clipitem-3-6</masterclipid>
						<name>Taylor_Swift_Travis_Kelce_-_The_New_Power_Couple.mp4</name>
						<enabled>TRUE</enabled>
						<duration>150</duration>
						<rate>
							<timebase>25</timebase>
							<ntsc>FALSE</ntsc>
						</rate>
						<start>118950</start>
						<end>119100</end>
						<in>750</in>
						<out>900</out>
						<pproTicksIn>0</pproTicksIn>
						<pproTicksOut>875013995520000</pproTicksOut>
						<alphatype>none</alphatype>
						<pixelaspectratio>square</pixelaspectratio>
						<anamorphic>FALSE</anamorphic>
						<file id="file-31">
							<name>Taylor_Swift_Travis_Kelce_-_The_New_Power_Couple.mp4</name>
							<pathurl>file://localhost/Users/themalikano/Documents/VideoAutomation/premiere_videos/Taylor_Swift_Travis_Kelce_-_The_New_Power_Couple.mp4</pathurl>
							<rate>
								<timebase>25</timebase>
								<ntsc>FALSE</ntsc>
							</rate>
							<duration>86118</duration>
							<timecode>
								<rate>
									<timebase>25</timebase>
									<ntsc>FALSE</ntsc>
								</rate>
								<string>00:00:00:00</string>
								<frame>0</frame>
								<displayformat>NDF</displayformat>
							</timecode>
							<media>
								<video>
									<samplecharacteristics>
										<rate>
											<timebase>25</timebase>
											<ntsc>FALSE</ntsc>
										</rate>
										<width>1920</width>
										<height>1080</height>
										<anamorphic>FALSE</anamorphic>
										<pixelaspectratio>square</pixelaspectratio>
										<fielddominance>none</fielddominance>
									</samplecharacteristics>
								</video>
								<audio>
									<samplecharacteristics>
										<depth>16</depth>
										<samplerate>44100</samplerate>
									</samplecharacteristics>
									<channelcount>2</channelcount>
								</audio>
							</media>
						</file>
						<link>
							<linkclipref>clipitem-87</linkclipref>
							<mediatype>video</mediatype>
							<trackindex>1</trackindex>
							<clipindex>3</clipindex>
						</link>
						<link>
							<linkclipref>clipitem-95</linkclipref>
							<mediatype>audio</mediatype>
							<trackindex>1</trackindex>
							<clipindex>3</clipindex>
							<groupindex>1</groupindex>
						</link>
						<link>
							<linkclipref>clipitem-103</linkclipref>
							<mediatype>audio</mediatype>
							<trackindex>2</trackindex>
							<clipindex>3</clipindex>
							<groupindex>1</groupindex>
						</link>
						<logginginfo>
							<description />
							<scene />
							<shottake />
							<lognote />
							<good />
							<originalvideofilename />
							<originalaudiofilename />
						</logginginfo>
						<colorinfo>
							<lut />
							<lut1 />
							<asc_sop />
							<asc_sat />
							<lut2 />
						</colorinfo>
					<labels><label2>Caribbean</label2></labels></clipitem>
					<clipitem id="clipitem-88">
						<masterclipid>clipitem-4-30</masterclipid>
						<name>Travis_Kelce_ANNOUNCE_WEDDING_DATE_with_Taylor_Swift_Why_He_was_Delaying_all_Along.mp4</name>
						<enabled>TRUE</enabled>
						<duration>150</duration>
						<rate>
							<timebase>25</timebase>
							<ntsc>FALSE</ntsc>
						</rate>
						<start>119100</start>
						<end>119250</end>
						<in>4350</in>
						<out>4500</out>
						<pproTicksIn>0</pproTicksIn>
						<pproTicksOut>419410897920000</pproTicksOut>
						<alphatype>none</alphatype>
						<pixelaspectratio>square</pixelaspectratio>
						<anamorphic>FALSE</anamorphic>
						<file id="file-32">
							<name>Travis_Kelce_ANNOUNCE_WEDDING_DATE_with_Taylor_Swift_Why_He_was_Delaying_all_Along.mp4</name>
							<pathurl>file://localhost/Users/themalikano/Documents/VideoAutomation/premiere_videos/Travis_Kelce_ANNOUNCE_WEDDING_DATE_with_Taylor_Swift_Why_He_was_Delaying_all_Along.mp4</pathurl>
							<rate>
								<timebase>24</timebase>
								<ntsc>FALSE</ntsc>
							</rate>
							<duration>39627</duration>
							<timecode>
								<rate>
									<timebase>24</timebase>
									<ntsc>FALSE</ntsc>
								</rate>
								<string>00:00:00:00</string>
								<frame>0</frame>
								<displayformat>NDF</displayformat>
							</timecode>
							<media>
								<video>
									<samplecharacteristics>
										<rate>
											<timebase>24</timebase>
											<ntsc>FALSE</ntsc>
										</rate>
										<width>852</width>
										<height>480</height>
										<anamorphic>FALSE</anamorphic>
										<pixelaspectratio>square</pixelaspectratio>
										<fielddominance>none</fielddominance>
									</samplecharacteristics>
								</video>
								<audio>
									<samplecharacteristics>
										<depth>16</depth>
										<samplerate>44100</samplerate>
									</samplecharacteristics>
									<channelcount>2</channelcount>
								</audio>
							</media>
						</file>
						<filter>
							<effect>
								<name>Basic Motion</name>
								<effectid>basic</effectid>
								<effectcategory>motion</effectcategory>
								<effecttype>motion</effecttype>
								<mediatype>video</mediatype>
								<pproBypass>false</pproBypass>
								<parameter authoringApp="PremierePro">
									<parameterid>scale</parameterid>
									<name>Scale</name>
									<valuemin>0</valuemin>
									<valuemax>1000</valuemax>
									<value>225</value>
								</parameter>
								<parameter authoringApp="PremierePro">
									<parameterid>rotation</parameterid>
									<name>Rotation</name>
									<valuemin>-8640</valuemin>
									<valuemax>8640</valuemax>
									<value>0</value>
								</parameter>
								<parameter authoringApp="PremierePro">
									<parameterid>center</parameterid>
									<name>Center</name>
									<value>
										<horiz>0</horiz>
										<vert>0</vert>
									</value>
								</parameter>
								<parameter authoringApp="PremierePro">
									<parameterid>centerOffset</parameterid>
									<name>Anchor Point</name>
									<value>
										<horiz>0</horiz>
										<vert>0</vert>
									</value>
								</parameter>
								<parameter authoringApp="PremierePro">
									<parameterid>antiflicker</parameterid>
									<name>Anti-flicker Filter</name>
									<valuemin>0.0</valuemin>
									<valuemax>1.0</valuemax>
									<value>0</value>
								</parameter>
							</effect>
						</filter>
						<link>
							<linkclipref>clipitem-88</linkclipref>
							<mediatype>video</mediatype>
							<trackindex>1</trackindex>
							<clipindex>4</clipindex>
						</link>
						<link>
							<linkclipref>clipitem-96</linkclipref>
							<mediatype>audio</mediatype>
							<trackindex>1</trackindex>
							<clipindex>4</clipindex>
							<groupindex>1</groupindex>
						</link>
						<link>
							<linkclipref>clipitem-104</linkclipref>
							<mediatype>audio</mediatype>
							<trackindex>2</trackindex>
							<clipindex>4</clipindex>
							<groupindex>1</groupindex>
						</link>
						<logginginfo>
							<description />
							<scene />
							<shottake />
							<lognote />
							<good />
							<originalvideofilename />
							<originalaudiofilename />
						</logginginfo>
						<colorinfo>
							<lut />
							<lut1 />
							<asc_sop />
							<asc_sat />
							<lut2 />
						</colorinfo>
					<labels><label2>Lavender</label2></labels></clipitem>
					<clipitem id="clipitem-87">
						<masterclipid>clipitem-3-90</masterclipid>
						<name>Taylor_Swift_Travis_Kelce_-_The_New_Power_Couple.mp4</name>
						<enabled>TRUE</enabled>
						<duration>150</duration>
						<rate>
							<timebase>25</timebase>
							<ntsc>FALSE</ntsc>
						</rate>
						<start>119250</start>
						<end>119400</end>
						<in>13350</in>
						<out>13500</out>
						<pproTicksIn>0</pproTicksIn>
						<pproTicksOut>875013995520000</pproTicksOut>
						<alphatype>none</alphatype>
						<pixelaspectratio>square</pixelaspectratio>
						<anamorphic>FALSE</anamorphic>
						<file id="file-31">
							<name>Taylor_Swift_Travis_Kelce_-_The_New_Power_Couple.mp4</name>
							<pathurl>file://localhost/Users/themalikano/Documents/VideoAutomation/premiere_videos/Taylor_Swift_Travis_Kelce_-_The_New_Power_Couple.mp4</pathurl>
							<rate>
								<timebase>25</timebase>
								<ntsc>FALSE</ntsc>
							</rate>
							<duration>86118</duration>
							<timecode>
								<rate>
									<timebase>25</timebase>
									<ntsc>FALSE</ntsc>
								</rate>
								<string>00:00:00:00</string>
								<frame>0</frame>
								<displayformat>NDF</displayformat>
							</timecode>
							<media>
								<video>
									<samplecharacteristics>
										<rate>
											<timebase>25</timebase>
											<ntsc>FALSE</ntsc>
										</rate>
										<width>1920</width>
										<height>1080</height>
										<anamorphic>FALSE</anamorphic>
										<pixelaspectratio>square</pixelaspectratio>
										<fielddominance>none</fielddominance>
									</samplecharacteristics>
								</video>
								<audio>
									<samplecharacteristics>
										<depth>16</depth>
										<samplerate>44100</samplerate>
									</samplecharacteristics>
									<channelcount>2</channelcount>
								</audio>
							</media>
						</file>
						<link>
							<linkclipref>clipitem-87</linkclipref>
							<mediatype>video</mediatype>
							<trackindex>1</trackindex>
							<clipindex>3</clipindex>
						</link>
						<link>
							<linkclipref>clipitem-95</linkclipref>
							<mediatype>audio</mediatype>
							<trackindex>1</trackindex>
							<clipindex>3</clipindex>
							<groupindex>1</groupindex>
						</link>
						<link>
							<linkclipref>clipitem-103</linkclipref>
							<mediatype>audio</mediatype>
							<trackindex>2</trackindex>
							<clipindex>3</clipindex>
							<groupindex>1</groupindex>
						</link>
						<logginginfo>
							<description />
							<scene />
							<shottake />
							<lognote />
							<good />
							<originalvideofilename />
							<originalaudiofilename />
						</logginginfo>
						<colorinfo>
							<lut />
							<lut1 />
							<asc_sop />
							<asc_sat />
							<lut2 />
						</colorinfo>
					<labels><label2>Caribbean</label2></labels></clipitem>
					<clipitem id="clipitem-88">
						<masterclipid>clipitem-4-41</masterclipid>
						<name>Travis_Kelce_ANNOUNCE_WEDDING_DATE_with_Taylor_Swift_Why_He_was_Delaying_all_Along.mp4</name>
						<enabled>TRUE</enabled>
						<duration>150</duration>
						<rate>
							<timebase>25</timebase>
							<ntsc>FALSE</ntsc>
						</rate>
						<start>119400</start>
						<end>119550</end>
						<in>6000</in>
						<out>6150</out>
						<pproTicksIn>0</pproTicksIn>
						<pproTicksOut>419410897920000</pproTicksOut>
						<alphatype>none</alphatype>
						<pixelaspectratio>square</pixelaspectratio>
						<anamorphic>FALSE</anamorphic>
						<file id="file-32">
							<name>Travis_Kelce_ANNOUNCE_WEDDING_DATE_with_Taylor_Swift_Why_He_was_Delaying_all_Along.mp4</name>
							<pathurl>file://localhost/Users/themalikano/Documents/VideoAutomation/premiere_videos/Travis_Kelce_ANNOUNCE_WEDDING_DATE_with_Taylor_Swift_Why_He_was_Delaying_all_Along.mp4</pathurl>
							<rate>
								<timebase>24</timebase>
								<ntsc>FALSE</ntsc>
							</rate>
							<duration>39627</duration>
							<timecode>
								<rate>
									<timebase>24</timebase>
									<ntsc>FALSE</ntsc>
								</rate>
								<string>00:00:00:00</string>
								<frame>0</frame>
								<displayformat>NDF</displayformat>
							</timecode>
							<media>
								<video>
									<samplecharacteristics>
										<rate>
											<timebase>24</timebase>
											<ntsc>FALSE</ntsc>
										</rate>
										<width>852</width>
										<height>480</height>
										<anamorphic>FALSE</anamorphic>
										<pixelaspectratio>square</pixelaspectratio>
										<fielddominance>none</fielddominance>
									</samplecharacteristics>
								</video>
								<audio>
									<samplecharacteristics>
										<depth>16</depth>
										<samplerate>44100</samplerate>
									</samplecharacteristics>
									<channelcount>2</channelcount>
								</audio>
							</media>
						</file>
						<filter>
							<effect>
								<name>Basic Motion</name>
								<effectid>basic</effectid>
								<effectcategory>motion</effectcategory>
								<effecttype>motion</effecttype>
								<mediatype>video</mediatype>
								<pproBypass>false</pproBypass>
								<parameter authoringApp="PremierePro">
									<parameterid>scale</parameterid>
									<name>Scale</name>
									<valuemin>0</valuemin>
									<valuemax>1000</valuemax>
									<value>225</value>
								</parameter>
								<parameter authoringApp="PremierePro">
									<parameterid>rotation</parameterid>
									<name>Rotation</name>
									<valuemin>-8640</valuemin>
									<valuemax>8640</valuemax>
									<value>0</value>
								</parameter>
								<parameter authoringApp="PremierePro">
									<parameterid>center</parameterid>
									<name>Center</name>
									<value>
										<horiz>0</horiz>
										<vert>0</vert>
									</value>
								</parameter>
								<parameter authoringApp="PremierePro">
									<parameterid>centerOffset</parameterid>
									<name>Anchor Point</name>
									<value>
										<horiz>0</horiz>
										<vert>0</vert>
									</value>
								</parameter>
								<parameter authoringApp="PremierePro">
									<parameterid>antiflicker</parameterid>
									<name>Anti-flicker Filter</name>
									<valuemin>0.0</valuemin>
									<valuemax>1.0</valuemax>
									<value>0</value>
								</parameter>
							</effect>
						</filter>
						<link>
							<linkclipref>clipitem-88</linkclipref>
							<mediatype>video</mediatype>
							<trackindex>1</trackindex>
							<clipindex>4</clipindex>
						</link>
						<link>
							<linkclipref>clipitem-96</linkclipref>
							<mediatype>audio</mediatype>
							<trackindex>1</trackindex>
							<clipindex>4</clipindex>
							<groupindex>1</groupindex>
						</link>
						<link>
							<linkclipref>clipitem-104</linkclipref>
							<mediatype>audio</mediatype>
							<trackindex>2</trackindex>
							<clipindex>4</clipindex>
							<groupindex>1</groupindex>
						</link>
						<logginginfo>
							<description />
							<scene />
							<shottake />
							<lognote />
							<good />
							<originalvideofilename />
							<originalaudiofilename />
						</logginginfo>
						<colorinfo>
							<lut />
							<lut1 />
							<asc_sop />
							<asc_sat />
							<lut2 />
						</colorinfo>
					<labels><label2>Lavender</label2></labels></clipitem>
					<clipitem id="clipitem-87">
						<masterclipid>clipitem-3-357</masterclipid>
						<name>Taylor_Swift_Travis_Kelce_-_The_New_Power_Couple.mp4</name>
						<enabled>TRUE</enabled>
						<duration>150</duration>
						<rate>
							<timebase>25</timebase>
							<ntsc>FALSE</ntsc>
						</rate>
						<start>119550</start>
						<end>119700</end>
						<in>53400</in>
						<out>53550</out>
						<pproTicksIn>0</pproTicksIn>
						<pproTicksOut>875013995520000</pproTicksOut>
						<alphatype>none</alphatype>
						<pixelaspectratio>square</pixelaspectratio>
						<anamorphic>FALSE</anamorphic>
						<file id="file-31">
							<name>Taylor_Swift_Travis_Kelce_-_The_New_Power_Couple.mp4</name>
							<pathurl>file://localhost/Users/themalikano/Documents/VideoAutomation/premiere_videos/Taylor_Swift_Travis_Kelce_-_The_New_Power_Couple.mp4</pathurl>
							<rate>
								<timebase>25</timebase>
								<ntsc>FALSE</ntsc>
							</rate>
							<duration>86118</duration>
							<timecode>
								<rate>
									<timebase>25</timebase>
									<ntsc>FALSE</ntsc>
								</rate>
								<string>00:00:00:00</string>
								<frame>0</frame>
								<displayformat>NDF</displayformat>
							</timecode>
							<media>
								<video>
									<samplecharacteristics>
										<rate>
											<timebase>25</timebase>
											<ntsc>FALSE</ntsc>
										</rate>
										<width>1920</width>
										<height>1080</height>
										<anamorphic>FALSE</anamorphic>
										<pixelaspectratio>square</pixelaspectratio>
										<fielddominance>none</fielddominance>
									</samplecharacteristics>
								</video>
								<audio>
									<samplecharacteristics>
										<depth>16</depth>
										<samplerate>44100</samplerate>
									</samplecharacteristics>
									<channelcount>2</channelcount>
								</audio>
							</media>
						</file>
						<link>
							<linkclipref>clipitem-87</linkclipref>
							<mediatype>video</mediatype>
							<trackindex>1</trackindex>
							<clipindex>3</clipindex>
						</link>
						<link>
							<linkclipref>clipitem-95</linkclipref>
							<mediatype>audio</mediatype>
							<trackindex>1</trackindex>
							<clipindex>3</clipindex>
							<groupindex>1</groupindex>
						</link>
						<link>
							<linkclipref>clipitem-103</linkclipref>
							<mediatype>audio</mediatype>
							<trackindex>2</trackindex>
							<clipindex>3</clipindex>
							<groupindex>1</groupindex>
						</link>
						<logginginfo>
							<description />
							<scene />
							<shottake />
							<lognote />
							<good />
							<originalvideofilename />
							<originalaudiofilename />
						</logginginfo>
						<colorinfo>
							<lut />
							<lut1 />
							<asc_sop />
							<asc_sat />
							<lut2 />
						</colorinfo>
					<labels><label2>Caribbean</label2></labels></clipitem>
					<clipitem id="clipitem-88">
						<masterclipid>clipitem-4-78</masterclipid>
						<name>Travis_Kelce_ANNOUNCE_WEDDING_DATE_with_Taylor_Swift_Why_He_was_Delaying_all_Along.mp4</name>
						<enabled>TRUE</enabled>
						<duration>150</duration>
						<rate>
							<timebase>25</timebase>
							<ntsc>FALSE</ntsc>
						</rate>
						<start>119700</start>
						<end>119850</end>
						<in>11550</in>
						<out>11700</out>
						<pproTicksIn>0</pproTicksIn>
						<pproTicksOut>419410897920000</pproTicksOut>
						<alphatype>none</alphatype>
						<pixelaspectratio>square</pixelaspectratio>
						<anamorphic>FALSE</anamorphic>
						<file id="file-32">
							<name>Travis_Kelce_ANNOUNCE_WEDDING_DATE_with_Taylor_Swift_Why_He_was_Delaying_all_Along.mp4</name>
							<pathurl>file://localhost/Users/themalikano/Documents/VideoAutomation/premiere_videos/Travis_Kelce_ANNOUNCE_WEDDING_DATE_with_Taylor_Swift_Why_He_was_Delaying_all_Along.mp4</pathurl>
							<rate>
								<timebase>24</timebase>
								<ntsc>FALSE</ntsc>
							</rate>
							<duration>39627</duration>
							<timecode>
								<rate>
									<timebase>24</timebase>
									<ntsc>FALSE</ntsc>
								</rate>
								<string>00:00:00:00</string>
								<frame>0</frame>
								<displayformat>NDF</displayformat>
							</timecode>
							<media>
								<video>
									<samplecharacteristics>
										<rate>
											<timebase>24</timebase>
											<ntsc>FALSE</ntsc>
										</rate>
										<width>852</width>
										<height>480</height>
										<anamorphic>FALSE</anamorphic>
										<pixelaspectratio>square</pixelaspectratio>
										<fielddominance>none</fielddominance>
									</samplecharacteristics>
								</video>
								<audio>
									<samplecharacteristics>
										<depth>16</depth>
										<samplerate>44100</samplerate>
									</samplecharacteristics>
									<channelcount>2</channelcount>
								</audio>
							</media>
						</file>
						<filter>
							<effect>
								<name>Basic Motion</name>
								<effectid>basic</effectid>
								<effectcategory>motion</effectcategory>
								<effecttype>motion</effecttype>
								<mediatype>video</mediatype>
								<pproBypass>false</pproBypass>
								<parameter authoringApp="PremierePro">
									<parameterid>scale</parameterid>
									<name>Scale</name>
									<valuemin>0</valuemin>
									<valuemax>1000</valuemax>
									<value>225</value>
								</parameter>
								<parameter authoringApp="PremierePro">
									<parameterid>rotation</parameterid>
									<name>Rotation</name>
									<valuemin>-8640</valuemin>
									<valuemax>8640</valuemax>
									<value>0</value>
								</parameter>
								<parameter authoringApp="PremierePro">
									<parameterid>center</parameterid>
									<name>Center</name>
									<value>
										<horiz>0</horiz>
										<vert>0</vert>
									</value>
								</parameter>
								<parameter authoringApp="PremierePro">
									<parameterid>centerOffset</parameterid>
									<name>Anchor Point</name>
									<value>
										<horiz>0</horiz>
										<vert>0</vert>
									</value>
								</parameter>
								<parameter authoringApp="PremierePro">
									<parameterid>antiflicker</parameterid>
									<name>Anti-flicker Filter</name>
									<valuemin>0.0</valuemin>
									<valuemax>1.0</valuemax>
									<value>0</value>
								</parameter>
							</effect>
						</filter>
						<link>
							<linkclipref>clipitem-88</linkclipref>
							<mediatype>video</mediatype>
							<trackindex>1</trackindex>
							<clipindex>4</clipindex>
						</link>
						<link>
							<linkclipref>clipitem-96</linkclipref>
							<mediatype>audio</mediatype>
							<trackindex>1</trackindex>
							<clipindex>4</clipindex>
							<groupindex>1</groupindex>
						</link>
						<link>
							<linkclipref>clipitem-104</linkclipref>
							<mediatype>audio</mediatype>
							<trackindex>2</trackindex>
							<clipindex>4</clipindex>
							<groupindex>1</groupindex>
						</link>
						<logginginfo>
							<description />
							<scene />
							<shottake />
							<lognote />
							<good />
							<originalvideofilename />
							<originalaudiofilename />
						</logginginfo>
						<colorinfo>
							<lut />
							<lut1 />
							<asc_sop />
							<asc_sat />
							<lut2 />
						</colorinfo>
					<labels><label2>Lavender</label2></labels></clipitem>
					<clipitem id="clipitem-87">
						<masterclipid>clipitem-3-234</masterclipid>
						<name>Taylor_Swift_Travis_Kelce_-_The_New_Power_Couple.mp4</name>
						<enabled>TRUE</enabled>
						<duration>150</duration>
						<rate>
							<timebase>25</timebase>
							<ntsc>FALSE</ntsc>
						</rate>
						<start>119850</start>
						<end>120000</end>
						<in>34950</in>
						<out>35100</out>
						<pproTicksIn>0</pproTicksIn>
						<pproTicksOut>875013995520000</pproTicksOut>
						<alphatype>none</alphatype>
						<pixelaspectratio>square</pixelaspectratio>
						<anamorphic>FALSE</anamorphic>
						<file id="file-31">
							<name>Taylor_Swift_Travis_Kelce_-_The_New_Power_Couple.mp4</name>
							<pathurl>file://localhost/Users/themalikano/Documents/VideoAutomation/premiere_videos/Taylor_Swift_Travis_Kelce_-_The_New_Power_Couple.mp4</pathurl>
							<rate>
								<timebase>25</timebase>
								<ntsc>FALSE</ntsc>
							</rate>
							<duration>86118</duration>
							<timecode>
								<rate>
									<timebase>25</timebase>
									<ntsc>FALSE</ntsc>
								</rate>
								<string>00:00:00:00</string>
								<frame>0</frame>
								<displayformat>NDF</displayformat>
							</timecode>
							<media>
								<video>
									<samplecharacteristics>
										<rate>
											<timebase>25</timebase>
											<ntsc>FALSE</ntsc>
										</rate>
										<width>1920</width>
										<height>1080</height>
										<anamorphic>FALSE</anamorphic>
										<pixelaspectratio>square</pixelaspectratio>
										<fielddominance>none</fielddominance>
									</samplecharacteristics>
								</video>
								<audio>
									<samplecharacteristics>
										<depth>16</depth>
										<samplerate>44100</samplerate>
									</samplecharacteristics>
									<channelcount>2</channelcount>
								</audio>
							</media>
						</file>
						<link>
							<linkclipref>clipitem-87</linkclipref>
							<mediatype>video</mediatype>
							<trackindex>1</trackindex>
							<clipindex>3</clipindex>
						</link>
						<link>
							<linkclipref>clipitem-95</linkclipref>
							<mediatype>audio</mediatype>
							<trackindex>1</trackindex>
							<clipindex>3</clipindex>
							<groupindex>1</groupindex>
						</link>
						<link>
							<linkclipref>clipitem-103</linkclipref>
							<mediatype>audio</mediatype>
							<trackindex>2</trackindex>
							<clipindex>3</clipindex>
							<groupindex>1</groupindex>
						</link>
						<logginginfo>
							<description />
							<scene />
							<shottake />
							<lognote />
							<good />
							<originalvideofilename />
							<originalaudiofilename />
						</logginginfo>
						<colorinfo>
							<lut />
							<lut1 />
							<asc_sop />
							<asc_sat />
							<lut2 />
						</colorinfo>
					<labels><label2>Caribbean</label2></labels></clipitem>
					<clipitem id="clipitem-88">
						<masterclipid>clipitem-4-73</masterclipid>
						<name>Travis_Kelce_ANNOUNCE_WEDDING_DATE_with_Taylor_Swift_Why_He_was_Delaying_all_Along.mp4</name>
						<enabled>TRUE</enabled>
						<duration>150</duration>
						<rate>
							<timebase>25</timebase>
							<ntsc>FALSE</ntsc>
						</rate>
						<start>120000</start>
						<end>120150</end>
						<in>10800</in>
						<out>10950</out>
						<pproTicksIn>0</pproTicksIn>
						<pproTicksOut>419410897920000</pproTicksOut>
						<alphatype>none</alphatype>
						<pixelaspectratio>square</pixelaspectratio>
						<anamorphic>FALSE</anamorphic>
						<file id="file-32">
							<name>Travis_Kelce_ANNOUNCE_WEDDING_DATE_with_Taylor_Swift_Why_He_was_Delaying_all_Along.mp4</name>
							<pathurl>file://localhost/Users/themalikano/Documents/VideoAutomation/premiere_videos/Travis_Kelce_ANNOUNCE_WEDDING_DATE_with_Taylor_Swift_Why_He_was_Delaying_all_Along.mp4</pathurl>
							<rate>
								<timebase>24</timebase>
								<ntsc>FALSE</ntsc>
							</rate>
							<duration>39627</duration>
							<timecode>
								<rate>
									<timebase>24</timebase>
									<ntsc>FALSE</ntsc>
								</rate>
								<string>00:00:00:00</string>
								<frame>0</frame>
								<displayformat>NDF</displayformat>
							</timecode>
							<media>
								<video>
									<samplecharacteristics>
										<rate>
											<timebase>24</timebase>
											<ntsc>FALSE</ntsc>
										</rate>
										<width>852</width>
										<height>480</height>
										<anamorphic>FALSE</anamorphic>
										<pixelaspectratio>square</pixelaspectratio>
										<fielddominance>none</fielddominance>
									</samplecharacteristics>
								</video>
								<audio>
									<samplecharacteristics>
										<depth>16</depth>
										<samplerate>44100</samplerate>
									</samplecharacteristics>
									<channelcount>2</channelcount>
								</audio>
							</media>
						</file>
						<filter>
							<effect>
								<name>Basic Motion</name>
								<effectid>basic</effectid>
								<effectcategory>motion</effectcategory>
								<effecttype>motion</effecttype>
								<mediatype>video</mediatype>
								<pproBypass>false</pproBypass>
								<parameter authoringApp="PremierePro">
									<parameterid>scale</parameterid>
									<name>Scale</name>
									<valuemin>0</valuemin>
									<valuemax>1000</valuemax>
									<value>225</value>
								</parameter>
								<parameter authoringApp="PremierePro">
									<parameterid>rotation</parameterid>
									<name>Rotation</name>
									<valuemin>-8640</valuemin>
									<valuemax>8640</valuemax>
									<value>0</value>
								</parameter>
								<parameter authoringApp="PremierePro">
									<parameterid>center</parameterid>
									<name>Center</name>
									<value>
										<horiz>0</horiz>
										<vert>0</vert>
									</value>
								</parameter>
								<parameter authoringApp="PremierePro">
									<parameterid>centerOffset</parameterid>
									<name>Anchor Point</name>
									<value>
										<horiz>0</horiz>
										<vert>0</vert>
									</value>
								</parameter>
								<parameter authoringApp="PremierePro">
									<parameterid>antiflicker</parameterid>
									<name>Anti-flicker Filter</name>
									<valuemin>0.0</valuemin>
									<valuemax>1.0</valuemax>
									<value>0</value>
								</parameter>
							</effect>
						</filter>
						<link>
							<linkclipref>clipitem-88</linkclipref>
							<mediatype>video</mediatype>
							<trackindex>1</trackindex>
							<clipindex>4</clipindex>
						</link>
						<link>
							<linkclipref>clipitem-96</linkclipref>
							<mediatype>audio</mediatype>
							<trackindex>1</trackindex>
							<clipindex>4</clipindex>
							<groupindex>1</groupindex>
						</link>
						<link>
							<linkclipref>clipitem-104</linkclipref>
							<mediatype>audio</mediatype>
							<trackindex>2</trackindex>
							<clipindex>4</clipindex>
							<groupindex>1</groupindex>
						</link>
						<logginginfo>
							<description />
							<scene />
							<shottake />
							<lognote />
							<good />
							<originalvideofilename />
							<originalaudiofilename />
						</logginginfo>
						<colorinfo>
							<lut />
							<lut1 />
							<asc_sop />
							<asc_sat />
							<lut2 />
						</colorinfo>
					<labels><label2>Lavender</label2></labels></clipitem>
					<clipitem id="clipitem-87">
						<masterclipid>clipitem-3-505</masterclipid>
						<name>Taylor_Swift_Travis_Kelce_-_The_New_Power_Couple.mp4</name>
						<enabled>TRUE</enabled>
						<duration>150</duration>
						<rate>
							<timebase>25</timebase>
							<ntsc>FALSE</ntsc>
						</rate>
						<start>120150</start>
						<end>120300</end>
						<in>75600</in>
						<out>75750</out>
						<pproTicksIn>0</pproTicksIn>
						<pproTicksOut>875013995520000</pproTicksOut>
						<alphatype>none</alphatype>
						<pixelaspectratio>square</pixelaspectratio>
						<anamorphic>FALSE</anamorphic>
						<file id="file-31">
							<name>Taylor_Swift_Travis_Kelce_-_The_New_Power_Couple.mp4</name>
							<pathurl>file://localhost/Users/themalikano/Documents/VideoAutomation/premiere_videos/Taylor_Swift_Travis_Kelce_-_The_New_Power_Couple.mp4</pathurl>
							<rate>
								<timebase>25</timebase>
								<ntsc>FALSE</ntsc>
							</rate>
							<duration>86118</duration>
							<timecode>
								<rate>
									<timebase>25</timebase>
									<ntsc>FALSE</ntsc>
								</rate>
								<string>00:00:00:00</string>
								<frame>0</frame>
								<displayformat>NDF</displayformat>
							</timecode>
							<media>
								<video>
									<samplecharacteristics>
										<rate>
											<timebase>25</timebase>
											<ntsc>FALSE</ntsc>
										</rate>
										<width>1920</width>
										<height>1080</height>
										<anamorphic>FALSE</anamorphic>
										<pixelaspectratio>square</pixelaspectratio>
										<fielddominance>none</fielddominance>
									</samplecharacteristics>
								</video>
								<audio>
									<samplecharacteristics>
										<depth>16</depth>
										<samplerate>44100</samplerate>
									</samplecharacteristics>
									<channelcount>2</channelcount>
								</audio>
							</media>
						</file>
						<link>
							<linkclipref>clipitem-87</linkclipref>
							<mediatype>video</mediatype>
							<trackindex>1</trackindex>
							<clipindex>3</clipindex>
						</link>
						<link>
							<linkclipref>clipitem-95</linkclipref>
							<mediatype>audio</mediatype>
							<trackindex>1</trackindex>
							<clipindex>3</clipindex>
							<groupindex>1</groupindex>
						</link>
						<link>
							<linkclipref>clipitem-103</linkclipref>
							<mediatype>audio</mediatype>
							<trackindex>2</trackindex>
							<clipindex>3</clipindex>
							<groupindex>1</groupindex>
						</link>
						<logginginfo>
							<description />
							<scene />
							<shottake />
							<lognote />
							<good />
							<originalvideofilename />
							<originalaudiofilename />
						</logginginfo>
						<colorinfo>
							<lut />
							<lut1 />
							<asc_sop />
							<asc_sat />
							<lut2 />
						</colorinfo>
					<labels><label2>Caribbean</label2></labels></clipitem>
					<clipitem id="clipitem-88">
						<masterclipid>clipitem-4-10</masterclipid>
						<name>Travis_Kelce_ANNOUNCE_WEDDING_DATE_with_Taylor_Swift_Why_He_was_Delaying_all_Along.mp4</name>
						<enabled>TRUE</enabled>
						<duration>150</duration>
						<rate>
							<timebase>25</timebase>
							<ntsc>FALSE</ntsc>
						</rate>
						<start>120300</start>
						<end>120450</end>
						<in>1350</in>
						<out>1500</out>
						<pproTicksIn>0</pproTicksIn>
						<pproTicksOut>419410897920000</pproTicksOut>
						<alphatype>none</alphatype>
						<pixelaspectratio>square</pixelaspectratio>
						<anamorphic>FALSE</anamorphic>
						<file id="file-32">
							<name>Travis_Kelce_ANNOUNCE_WEDDING_DATE_with_Taylor_Swift_Why_He_was_Delaying_all_Along.mp4</name>
							<pathurl>file://localhost/Users/themalikano/Documents/VideoAutomation/premiere_videos/Travis_Kelce_ANNOUNCE_WEDDING_DATE_with_Taylor_Swift_Why_He_was_Delaying_all_Along.mp4</pathurl>
							<rate>
								<timebase>24</timebase>
								<ntsc>FALSE</ntsc>
							</rate>
							<duration>39627</duration>
							<timecode>
								<rate>
									<timebase>24</timebase>
									<ntsc>FALSE</ntsc>
								</rate>
								<string>00:00:00:00</string>
								<frame>0</frame>
								<displayformat>NDF</displayformat>
							</timecode>
							<media>
								<video>
									<samplecharacteristics>
										<rate>
											<timebase>24</timebase>
											<ntsc>FALSE</ntsc>
										</rate>
										<width>852</width>
										<height>480</height>
										<anamorphic>FALSE</anamorphic>
										<pixelaspectratio>square</pixelaspectratio>
										<fielddominance>none</fielddominance>
									</samplecharacteristics>
								</video>
								<audio>
									<samplecharacteristics>
										<depth>16</depth>
										<samplerate>44100</samplerate>
									</samplecharacteristics>
									<channelcount>2</channelcount>
								</audio>
							</media>
						</file>
						<filter>
							<effect>
								<name>Basic Motion</name>
								<effectid>basic</effectid>
								<effectcategory>motion</effectcategory>
								<effecttype>motion</effecttype>
								<mediatype>video</mediatype>
								<pproBypass>false</pproBypass>
								<parameter authoringApp="PremierePro">
									<parameterid>scale</parameterid>
									<name>Scale</name>
									<valuemin>0</valuemin>
									<valuemax>1000</valuemax>
									<value>225</value>
								</parameter>
								<parameter authoringApp="PremierePro">
									<parameterid>rotation</parameterid>
									<name>Rotation</name>
									<valuemin>-8640</valuemin>
									<valuemax>8640</valuemax>
									<value>0</value>
								</parameter>
								<parameter authoringApp="PremierePro">
									<parameterid>center</parameterid>
									<name>Center</name>
									<value>
										<horiz>0</horiz>
										<vert>0</vert>
									</value>
								</parameter>
								<parameter authoringApp="PremierePro">
									<parameterid>centerOffset</parameterid>
									<name>Anchor Point</name>
									<value>
										<horiz>0</horiz>
										<vert>0</vert>
									</value>
								</parameter>
								<parameter authoringApp="PremierePro">
									<parameterid>antiflicker</parameterid>
									<name>Anti-flicker Filter</name>
									<valuemin>0.0</valuemin>
									<valuemax>1.0</valuemax>
									<value>0</value>
								</parameter>
							</effect>
						</filter>
						<link>
							<linkclipref>clipitem-88</linkclipref>
							<mediatype>video</mediatype>
							<trackindex>1</trackindex>
							<clipindex>4</clipindex>
						</link>
						<link>
							<linkclipref>clipitem-96</linkclipref>
							<mediatype>audio</mediatype>
							<trackindex>1</trackindex>
							<clipindex>4</clipindex>
							<groupindex>1</groupindex>
						</link>
						<link>
							<linkclipref>clipitem-104</linkclipref>
							<mediatype>audio</mediatype>
							<trackindex>2</trackindex>
							<clipindex>4</clipindex>
							<groupindex>1</groupindex>
						</link>
						<logginginfo>
							<description />
							<scene />
							<shottake />
							<lognote />
							<good />
							<originalvideofilename />
							<originalaudiofilename />
						</logginginfo>
						<colorinfo>
							<lut />
							<lut1 />
							<asc_sop />
							<asc_sat />
							<lut2 />
						</colorinfo>
					<labels><label2>Lavender</label2></labels></clipitem>
					<clipitem id="clipitem-87">
						<masterclipid>clipitem-3-111</masterclipid>
						<name>Taylor_Swift_Travis_Kelce_-_The_New_Power_Couple.mp4</name>
						<enabled>TRUE</enabled>
						<duration>150</duration>
						<rate>
							<timebase>25</timebase>
							<ntsc>FALSE</ntsc>
						</rate>
						<start>120450</start>
						<end>120600</end>
						<in>16500</in>
						<out>16650</out>
						<pproTicksIn>0</pproTicksIn>
						<pproTicksOut>875013995520000</pproTicksOut>
						<alphatype>none</alphatype>
						<pixelaspectratio>square</pixelaspectratio>
						<anamorphic>FALSE</anamorphic>
						<file id="file-31">
							<name>Taylor_Swift_Travis_Kelce_-_The_New_Power_Couple.mp4</name>
							<pathurl>file://localhost/Users/themalikano/Documents/VideoAutomation/premiere_videos/Taylor_Swift_Travis_Kelce_-_The_New_Power_Couple.mp4</pathurl>
							<rate>
								<timebase>25</timebase>
								<ntsc>FALSE</ntsc>
							</rate>
							<duration>86118</duration>
							<timecode>
								<rate>
									<timebase>25</timebase>
									<ntsc>FALSE</ntsc>
								</rate>
								<string>00:00:00:00</string>
								<frame>0</frame>
								<displayformat>NDF</displayformat>
							</timecode>
							<media>
								<video>
									<samplecharacteristics>
										<rate>
											<timebase>25</timebase>
											<ntsc>FALSE</ntsc>
										</rate>
										<width>1920</width>
										<height>1080</height>
										<anamorphic>FALSE</anamorphic>
										<pixelaspectratio>square</pixelaspectratio>
										<fielddominance>none</fielddominance>
									</samplecharacteristics>
								</video>
								<audio>
									<samplecharacteristics>
										<depth>16</depth>
										<samplerate>44100</samplerate>
									</samplecharacteristics>
									<channelcount>2</channelcount>
								</audio>
							</media>
						</file>
						<link>
							<linkclipref>clipitem-87</linkclipref>
							<mediatype>video</mediatype>
							<trackindex>1</trackindex>
							<clipindex>3</clipindex>
						</link>
						<link>
							<linkclipref>clipitem-95</linkclipref>
							<mediatype>audio</mediatype>
							<trackindex>1</trackindex>
							<clipindex>3</clipindex>
							<groupindex>1</groupindex>
						</link>
						<link>
							<linkclipref>clipitem-103</linkclipref>
							<mediatype>audio</mediatype>
							<trackindex>2</trackindex>
							<clipindex>3</clipindex>
							<groupindex>1</groupindex>
						</link>
						<logginginfo>
							<description />
							<scene />
							<shottake />
							<lognote />
							<good />
							<originalvideofilename />
							<originalaudiofilename />
						</logginginfo>
						<colorinfo>
							<lut />
							<lut1 />
							<asc_sop />
							<asc_sat />
							<lut2 />
						</colorinfo>
					<labels><label2>Caribbean</label2></labels></clipitem>
					<clipitem id="clipitem-88">
						<masterclipid>clipitem-4-227</masterclipid>
						<name>Travis_Kelce_ANNOUNCE_WEDDING_DATE_with_Taylor_Swift_Why_He_was_Delaying_all_Along.mp4</name>
						<enabled>TRUE</enabled>
						<duration>150</duration>
						<rate>
							<timebase>25</timebase>
							<ntsc>FALSE</ntsc>
						</rate>
						<start>120600</start>
						<end>120750</end>
						<in>33900</in>
						<out>34050</out>
						<pproTicksIn>0</pproTicksIn>
						<pproTicksOut>419410897920000</pproTicksOut>
						<alphatype>none</alphatype>
						<pixelaspectratio>square</pixelaspectratio>
						<anamorphic>FALSE</anamorphic>
						<file id="file-32">
							<name>Travis_Kelce_ANNOUNCE_WEDDING_DATE_with_Taylor_Swift_Why_He_was_Delaying_all_Along.mp4</name>
							<pathurl>file://localhost/Users/themalikano/Documents/VideoAutomation/premiere_videos/Travis_Kelce_ANNOUNCE_WEDDING_DATE_with_Taylor_Swift_Why_He_was_Delaying_all_Along.mp4</pathurl>
							<rate>
								<timebase>24</timebase>
								<ntsc>FALSE</ntsc>
							</rate>
							<duration>39627</duration>
							<timecode>
								<rate>
									<timebase>24</timebase>
									<ntsc>FALSE</ntsc>
								</rate>
								<string>00:00:00:00</string>
								<frame>0</frame>
								<displayformat>NDF</displayformat>
							</timecode>
							<media>
								<video>
									<samplecharacteristics>
										<rate>
											<timebase>24</timebase>
											<ntsc>FALSE</ntsc>
										</rate>
										<width>852</width>
										<height>480</height>
										<anamorphic>FALSE</anamorphic>
										<pixelaspectratio>square</pixelaspectratio>
										<fielddominance>none</fielddominance>
									</samplecharacteristics>
								</video>
								<audio>
									<samplecharacteristics>
										<depth>16</depth>
										<samplerate>44100</samplerate>
									</samplecharacteristics>
									<channelcount>2</channelcount>
								</audio>
							</media>
						</file>
						<filter>
							<effect>
								<name>Basic Motion</name>
								<effectid>basic</effectid>
								<effectcategory>motion</effectcategory>
								<effecttype>motion</effecttype>
								<mediatype>video</mediatype>
								<pproBypass>false</pproBypass>
								<parameter authoringApp="PremierePro">
									<parameterid>scale</parameterid>
									<name>Scale</name>
									<valuemin>0</valuemin>
									<valuemax>1000</valuemax>
									<value>225</value>
								</parameter>
								<parameter authoringApp="PremierePro">
									<parameterid>rotation</parameterid>
									<name>Rotation</name>
									<valuemin>-8640</valuemin>
									<valuemax>8640</valuemax>
									<value>0</value>
								</parameter>
								<parameter authoringApp="PremierePro">
									<parameterid>center</parameterid>
									<name>Center</name>
									<value>
										<horiz>0</horiz>
										<vert>0</vert>
									</value>
								</parameter>
								<parameter authoringApp="PremierePro">
									<parameterid>centerOffset</parameterid>
									<name>Anchor Point</name>
									<value>
										<horiz>0</horiz>
										<vert>0</vert>
									</value>
								</parameter>
								<parameter authoringApp="PremierePro">
									<parameterid>antiflicker</parameterid>
									<name>Anti-flicker Filter</name>
									<valuemin>0.0</valuemin>
									<valuemax>1.0</valuemax>
									<value>0</value>
								</parameter>
							</effect>
						</filter>
						<link>
							<linkclipref>clipitem-88</linkclipref>
							<mediatype>video</mediatype>
							<trackindex>1</trackindex>
							<clipindex>4</clipindex>
						</link>
						<link>
							<linkclipref>clipitem-96</linkclipref>
							<mediatype>audio</mediatype>
							<trackindex>1</trackindex>
							<clipindex>4</clipindex>
							<groupindex>1</groupindex>
						</link>
						<link>
							<linkclipref>clipitem-104</linkclipref>
							<mediatype>audio</mediatype>
							<trackindex>2</trackindex>
							<clipindex>4</clipindex>
							<groupindex>1</groupindex>
						</link>
						<logginginfo>
							<description />
							<scene />
							<shottake />
							<lognote />
							<good />
							<originalvideofilename />
							<originalaudiofilename />
						</logginginfo>
						<colorinfo>
							<lut />
							<lut1 />
							<asc_sop />
							<asc_sat />
							<lut2 />
						</colorinfo>
					<labels><label2>Lavender</label2></labels></clipitem>
					<clipitem id="clipitem-87">
						<masterclipid>clipitem-3-495</masterclipid>
						<name>Taylor_Swift_Travis_Kelce_-_The_New_Power_Couple.mp4</name>
						<enabled>TRUE</enabled>
						<duration>150</duration>
						<rate>
							<timebase>25</timebase>
							<ntsc>FALSE</ntsc>
						</rate>
						<start>120750</start>
						<end>120900</end>
						<in>74100</in>
						<out>74250</out>
						<pproTicksIn>0</pproTicksIn>
						<pproTicksOut>875013995520000</pproTicksOut>
						<alphatype>none</alphatype>
						<pixelaspectratio>square</pixelaspectratio>
						<anamorphic>FALSE</anamorphic>
						<file id="file-31">
							<name>Taylor_Swift_Travis_Kelce_-_The_New_Power_Couple.mp4</name>
							<pathurl>file://localhost/Users/themalikano/Documents/VideoAutomation/premiere_videos/Taylor_Swift_Travis_Kelce_-_The_New_Power_Couple.mp4</pathurl>
							<rate>
								<timebase>25</timebase>
								<ntsc>FALSE</ntsc>
							</rate>
							<duration>86118</duration>
							<timecode>
								<rate>
									<timebase>25</timebase>
									<ntsc>FALSE</ntsc>
								</rate>
								<string>00:00:00:00</string>
								<frame>0</frame>
								<displayformat>NDF</displayformat>
							</timecode>
							<media>
								<video>
									<samplecharacteristics>
										<rate>
											<timebase>25</timebase>
											<ntsc>FALSE</ntsc>
										</rate>
										<width>1920</width>
										<height>1080</height>
										<anamorphic>FALSE</anamorphic>
										<pixelaspectratio>square</pixelaspectratio>
										<fielddominance>none</fielddominance>
									</samplecharacteristics>
								</video>
								<audio>
									<samplecharacteristics>
										<depth>16</depth>
										<samplerate>44100</samplerate>
									</samplecharacteristics>
									<channelcount>2</channelcount>
								</audio>
							</media>
						</file>
						<link>
							<linkclipref>clipitem-87</linkclipref>
							<mediatype>video</mediatype>
							<trackindex>1</trackindex>
							<clipindex>3</clipindex>
						</link>
						<link>
							<linkclipref>clipitem-95</linkclipref>
							<mediatype>audio</mediatype>
							<trackindex>1</trackindex>
							<clipindex>3</clipindex>
							<groupindex>1</groupindex>
						</link>
						<link>
							<linkclipref>clipitem-103</linkclipref>
							<mediatype>audio</mediatype>
							<trackindex>2</trackindex>
							<clipindex>3</clipindex>
							<groupindex>1</groupindex>
						</link>
						<logginginfo>
							<description />
							<scene />
							<shottake />
							<lognote />
							<good />
							<originalvideofilename />
							<originalaudiofilename />
						</logginginfo>
						<colorinfo>
							<lut />
							<lut1 />
							<asc_sop />
							<asc_sat />
							<lut2 />
						</colorinfo>
					<labels><label2>Caribbean</label2></labels></clipitem>
					<clipitem id="clipitem-88">
						<masterclipid>clipitem-4-215</masterclipid>
						<name>Travis_Kelce_ANNOUNCE_WEDDING_DATE_with_Taylor_Swift_Why_He_was_Delaying_all_Along.mp4</name>
						<enabled>TRUE</enabled>
						<duration>150</duration>
						<rate>
							<timebase>25</timebase>
							<ntsc>FALSE</ntsc>
						</rate>
						<start>120900</start>
						<end>121050</end>
						<in>32100</in>
						<out>32250</out>
						<pproTicksIn>0</pproTicksIn>
						<pproTicksOut>419410897920000</pproTicksOut>
						<alphatype>none</alphatype>
						<pixelaspectratio>square</pixelaspectratio>
						<anamorphic>FALSE</anamorphic>
						<file id="file-32">
							<name>Travis_Kelce_ANNOUNCE_WEDDING_DATE_with_Taylor_Swift_Why_He_was_Delaying_all_Along.mp4</name>
							<pathurl>file://localhost/Users/themalikano/Documents/VideoAutomation/premiere_videos/Travis_Kelce_ANNOUNCE_WEDDING_DATE_with_Taylor_Swift_Why_He_was_Delaying_all_Along.mp4</pathurl>
							<rate>
								<timebase>24</timebase>
								<ntsc>FALSE</ntsc>
							</rate>
							<duration>39627</duration>
							<timecode>
								<rate>
									<timebase>24</timebase>
									<ntsc>FALSE</ntsc>
								</rate>
								<string>00:00:00:00</string>
								<frame>0</frame>
								<displayformat>NDF</displayformat>
							</timecode>
							<media>
								<video>
									<samplecharacteristics>
										<rate>
											<timebase>24</timebase>
											<ntsc>FALSE</ntsc>
										</rate>
										<width>852</width>
										<height>480</height>
										<anamorphic>FALSE</anamorphic>
										<pixelaspectratio>square</pixelaspectratio>
										<fielddominance>none</fielddominance>
									</samplecharacteristics>
								</video>
								<audio>
									<samplecharacteristics>
										<depth>16</depth>
										<samplerate>44100</samplerate>
									</samplecharacteristics>
									<channelcount>2</channelcount>
								</audio>
							</media>
						</file>
						<filter>
							<effect>
								<name>Basic Motion</name>
								<effectid>basic</effectid>
								<effectcategory>motion</effectcategory>
								<effecttype>motion</effecttype>
								<mediatype>video</mediatype>
								<pproBypass>false</pproBypass>
								<parameter authoringApp="PremierePro">
									<parameterid>scale</parameterid>
									<name>Scale</name>
									<valuemin>0</valuemin>
									<valuemax>1000</valuemax>
									<value>225</value>
								</parameter>
								<parameter authoringApp="PremierePro">
									<parameterid>rotation</parameterid>
									<name>Rotation</name>
									<valuemin>-8640</valuemin>
									<valuemax>8640</valuemax>
									<value>0</value>
								</parameter>
								<parameter authoringApp="PremierePro">
									<parameterid>center</parameterid>
									<name>Center</name>
									<value>
										<horiz>0</horiz>
										<vert>0</vert>
									</value>
								</parameter>
								<parameter authoringApp="PremierePro">
									<parameterid>centerOffset</parameterid>
									<name>Anchor Point</name>
									<value>
										<horiz>0</horiz>
										<vert>0</vert>
									</value>
								</parameter>
								<parameter authoringApp="PremierePro">
									<parameterid>antiflicker</parameterid>
									<name>Anti-flicker Filter</name>
									<valuemin>0.0</valuemin>
									<valuemax>1.0</valuemax>
									<value>0</value>
								</parameter>
							</effect>
						</filter>
						<link>
							<linkclipref>clipitem-88</linkclipref>
							<mediatype>video</mediatype>
							<trackindex>1</trackindex>
							<clipindex>4</clipindex>
						</link>
						<link>
							<linkclipref>clipitem-96</linkclipref>
							<mediatype>audio</mediatype>
							<trackindex>1</trackindex>
							<clipindex>4</clipindex>
							<groupindex>1</groupindex>
						</link>
						<link>
							<linkclipref>clipitem-104</linkclipref>
							<mediatype>audio</mediatype>
							<trackindex>2</trackindex>
							<clipindex>4</clipindex>
							<groupindex>1</groupindex>
						</link>
						<logginginfo>
							<description />
							<scene />
							<shottake />
							<lognote />
							<good />
							<originalvideofilename />
							<originalaudiofilename />
						</logginginfo>
						<colorinfo>
							<lut />
							<lut1 />
							<asc_sop />
							<asc_sat />
							<lut2 />
						</colorinfo>
					<labels><label2>Lavender</label2></labels></clipitem>
					<clipitem id="clipitem-87">
						<masterclipid>clipitem-3-545</masterclipid>
						<name>Taylor_Swift_Travis_Kelce_-_The_New_Power_Couple.mp4</name>
						<enabled>TRUE</enabled>
						<duration>150</duration>
						<rate>
							<timebase>25</timebase>
							<ntsc>FALSE</ntsc>
						</rate>
						<start>121050</start>
						<end>121200</end>
						<in>81600</in>
						<out>81750</out>
						<pproTicksIn>0</pproTicksIn>
						<pproTicksOut>875013995520000</pproTicksOut>
						<alphatype>none</alphatype>
						<pixelaspectratio>square</pixelaspectratio>
						<anamorphic>FALSE</anamorphic>
						<file id="file-31">
							<name>Taylor_Swift_Travis_Kelce_-_The_New_Power_Couple.mp4</name>
							<pathurl>file://localhost/Users/themalikano/Documents/VideoAutomation/premiere_videos/Taylor_Swift_Travis_Kelce_-_The_New_Power_Couple.mp4</pathurl>
							<rate>
								<timebase>25</timebase>
								<ntsc>FALSE</ntsc>
							</rate>
							<duration>86118</duration>
							<timecode>
								<rate>
									<timebase>25</timebase>
									<ntsc>FALSE</ntsc>
								</rate>
								<string>00:00:00:00</string>
								<frame>0</frame>
								<displayformat>NDF</displayformat>
							</timecode>
							<media>
								<video>
									<samplecharacteristics>
										<rate>
											<timebase>25</timebase>
											<ntsc>FALSE</ntsc>
										</rate>
										<width>1920</width>
										<height>1080</height>
										<anamorphic>FALSE</anamorphic>
										<pixelaspectratio>square</pixelaspectratio>
										<fielddominance>none</fielddominance>
									</samplecharacteristics>
								</video>
								<audio>
									<samplecharacteristics>
										<depth>16</depth>
										<samplerate>44100</samplerate>
									</samplecharacteristics>
									<channelcount>2</channelcount>
								</audio>
							</media>
						</file>
						<link>
							<linkclipref>clipitem-87</linkclipref>
							<mediatype>video</mediatype>
							<trackindex>1</trackindex>
							<clipindex>3</clipindex>
						</link>
						<link>
							<linkclipref>clipitem-95</linkclipref>
							<mediatype>audio</mediatype>
							<trackindex>1</trackindex>
							<clipindex>3</clipindex>
							<groupindex>1</groupindex>
						</link>
						<link>
							<linkclipref>clipitem-103</linkclipref>
							<mediatype>audio</mediatype>
							<trackindex>2</trackindex>
							<clipindex>3</clipindex>
							<groupindex>1</groupindex>
						</link>
						<logginginfo>
							<description />
							<scene />
							<shottake />
							<lognote />
							<good />
							<originalvideofilename />
							<originalaudiofilename />
						</logginginfo>
						<colorinfo>
							<lut />
							<lut1 />
							<asc_sop />
							<asc_sat />
							<lut2 />
						</colorinfo>
					<labels><label2>Caribbean</label2></labels></clipitem>
					<clipitem id="clipitem-88">
						<masterclipid>clipitem-4-189</masterclipid>
						<name>Travis_Kelce_ANNOUNCE_WEDDING_DATE_with_Taylor_Swift_Why_He_was_Delaying_all_Along.mp4</name>
						<enabled>TRUE</enabled>
						<duration>150</duration>
						<rate>
							<timebase>25</timebase>
							<ntsc>FALSE</ntsc>
						</rate>
						<start>121200</start>
						<end>121350</end>
						<in>28200</in>
						<out>28350</out>
						<pproTicksIn>0</pproTicksIn>
						<pproTicksOut>419410897920000</pproTicksOut>
						<alphatype>none</alphatype>
						<pixelaspectratio>square</pixelaspectratio>
						<anamorphic>FALSE</anamorphic>
						<file id="file-32">
							<name>Travis_Kelce_ANNOUNCE_WEDDING_DATE_with_Taylor_Swift_Why_He_was_Delaying_all_Along.mp4</name>
							<pathurl>file://localhost/Users/themalikano/Documents/VideoAutomation/premiere_videos/Travis_Kelce_ANNOUNCE_WEDDING_DATE_with_Taylor_Swift_Why_He_was_Delaying_all_Along.mp4</pathurl>
							<rate>
								<timebase>24</timebase>
								<ntsc>FALSE</ntsc>
							</rate>
							<duration>39627</duration>
							<timecode>
								<rate>
									<timebase>24</timebase>
									<ntsc>FALSE</ntsc>
								</rate>
								<string>00:00:00:00</string>
								<frame>0</frame>
								<displayformat>NDF</displayformat>
							</timecode>
							<media>
								<video>
									<samplecharacteristics>
										<rate>
											<timebase>24</timebase>
											<ntsc>FALSE</ntsc>
										</rate>
										<width>852</width>
										<height>480</height>
										<anamorphic>FALSE</anamorphic>
										<pixelaspectratio>square</pixelaspectratio>
										<fielddominance>none</fielddominance>
									</samplecharacteristics>
								</video>
								<audio>
									<samplecharacteristics>
										<depth>16</depth>
										<samplerate>44100</samplerate>
									</samplecharacteristics>
									<channelcount>2</channelcount>
								</audio>
							</media>
						</file>
						<filter>
							<effect>
								<name>Basic Motion</name>
								<effectid>basic</effectid>
								<effectcategory>motion</effectcategory>
								<effecttype>motion</effecttype>
								<mediatype>video</mediatype>
								<pproBypass>false</pproBypass>
								<parameter authoringApp="PremierePro">
									<parameterid>scale</parameterid>
									<name>Scale</name>
									<valuemin>0</valuemin>
									<valuemax>1000</valuemax>
									<value>225</value>
								</parameter>
								<parameter authoringApp="PremierePro">
									<parameterid>rotation</parameterid>
									<name>Rotation</name>
									<valuemin>-8640</valuemin>
									<valuemax>8640</valuemax>
									<value>0</value>
								</parameter>
								<parameter authoringApp="PremierePro">
									<parameterid>center</parameterid>
									<name>Center</name>
									<value>
										<horiz>0</horiz>
										<vert>0</vert>
									</value>
								</parameter>
								<parameter authoringApp="PremierePro">
									<parameterid>centerOffset</parameterid>
									<name>Anchor Point</name>
									<value>
										<horiz>0</horiz>
										<vert>0</vert>
									</value>
								</parameter>
								<parameter authoringApp="PremierePro">
									<parameterid>antiflicker</parameterid>
									<name>Anti-flicker Filter</name>
									<valuemin>0.0</valuemin>
									<valuemax>1.0</valuemax>
									<value>0</value>
								</parameter>
							</effect>
						</filter>
						<link>
							<linkclipref>clipitem-88</linkclipref>
							<mediatype>video</mediatype>
							<trackindex>1</trackindex>
							<clipindex>4</clipindex>
						</link>
						<link>
							<linkclipref>clipitem-96</linkclipref>
							<mediatype>audio</mediatype>
							<trackindex>1</trackindex>
							<clipindex>4</clipindex>
							<groupindex>1</groupindex>
						</link>
						<link>
							<linkclipref>clipitem-104</linkclipref>
							<mediatype>audio</mediatype>
							<trackindex>2</trackindex>
							<clipindex>4</clipindex>
							<groupindex>1</groupindex>
						</link>
						<logginginfo>
							<description />
							<scene />
							<shottake />
							<lognote />
							<good />
							<originalvideofilename />
							<originalaudiofilename />
						</logginginfo>
						<colorinfo>
							<lut />
							<lut1 />
							<asc_sop />
							<asc_sat />
							<lut2 />
						</colorinfo>
					<labels><label2>Lavender</label2></labels></clipitem>
					<clipitem id="clipitem-87">
						<masterclipid>clipitem-3-470</masterclipid>
						<name>Taylor_Swift_Travis_Kelce_-_The_New_Power_Couple.mp4</name>
						<enabled>TRUE</enabled>
						<duration>150</duration>
						<rate>
							<timebase>25</timebase>
							<ntsc>FALSE</ntsc>
						</rate>
						<start>121350</start>
						<end>121500</end>
						<in>70350</in>
						<out>70500</out>
						<pproTicksIn>0</pproTicksIn>
						<pproTicksOut>875013995520000</pproTicksOut>
						<alphatype>none</alphatype>
						<pixelaspectratio>square</pixelaspectratio>
						<anamorphic>FALSE</anamorphic>
						<file id="file-31">
							<name>Taylor_Swift_Travis_Kelce_-_The_New_Power_Couple.mp4</name>
							<pathurl>file://localhost/Users/themalikano/Documents/VideoAutomation/premiere_videos/Taylor_Swift_Travis_Kelce_-_The_New_Power_Couple.mp4</pathurl>
							<rate>
								<timebase>25</timebase>
								<ntsc>FALSE</ntsc>
							</rate>
							<duration>86118</duration>
							<timecode>
								<rate>
									<timebase>25</timebase>
									<ntsc>FALSE</ntsc>
								</rate>
								<string>00:00:00:00</string>
								<frame>0</frame>
								<displayformat>NDF</displayformat>
							</timecode>
							<media>
								<video>
									<samplecharacteristics>
										<rate>
											<timebase>25</timebase>
											<ntsc>FALSE</ntsc>
										</rate>
										<width>1920</width>
										<height>1080</height>
										<anamorphic>FALSE</anamorphic>
										<pixelaspectratio>square</pixelaspectratio>
										<fielddominance>none</fielddominance>
									</samplecharacteristics>
								</video>
								<audio>
									<samplecharacteristics>
										<depth>16</depth>
										<samplerate>44100</samplerate>
									</samplecharacteristics>
									<channelcount>2</channelcount>
								</audio>
							</media>
						</file>
						<link>
							<linkclipref>clipitem-87</linkclipref>
							<mediatype>video</mediatype>
							<trackindex>1</trackindex>
							<clipindex>3</clipindex>
						</link>
						<link>
							<linkclipref>clipitem-95</linkclipref>
							<mediatype>audio</mediatype>
							<trackindex>1</trackindex>
							<clipindex>3</clipindex>
							<groupindex>1</groupindex>
						</link>
						<link>
							<linkclipref>clipitem-103</linkclipref>
							<mediatype>audio</mediatype>
							<trackindex>2</trackindex>
							<clipindex>3</clipindex>
							<groupindex>1</groupindex>
						</link>
						<logginginfo>
							<description />
							<scene />
							<shottake />
							<lognote />
							<good />
							<originalvideofilename />
							<originalaudiofilename />
						</logginginfo>
						<colorinfo>
							<lut />
							<lut1 />
							<asc_sop />
							<asc_sat />
							<lut2 />
						</colorinfo>
					<labels><label2>Caribbean</label2></labels></clipitem>
					<clipitem id="clipitem-88">
						<masterclipid>clipitem-4-166</masterclipid>
						<name>Travis_Kelce_ANNOUNCE_WEDDING_DATE_with_Taylor_Swift_Why_He_was_Delaying_all_Along.mp4</name>
						<enabled>TRUE</enabled>
						<duration>150</duration>
						<rate>
							<timebase>25</timebase>
							<ntsc>FALSE</ntsc>
						</rate>
						<start>121500</start>
						<end>121650</end>
						<in>24750</in>
						<out>24900</out>
						<pproTicksIn>0</pproTicksIn>
						<pproTicksOut>419410897920000</pproTicksOut>
						<alphatype>none</alphatype>
						<pixelaspectratio>square</pixelaspectratio>
						<anamorphic>FALSE</anamorphic>
						<file id="file-32">
							<name>Travis_Kelce_ANNOUNCE_WEDDING_DATE_with_Taylor_Swift_Why_He_was_Delaying_all_Along.mp4</name>
							<pathurl>file://localhost/Users/themalikano/Documents/VideoAutomation/premiere_videos/Travis_Kelce_ANNOUNCE_WEDDING_DATE_with_Taylor_Swift_Why_He_was_Delaying_all_Along.mp4</pathurl>
							<rate>
								<timebase>24</timebase>
								<ntsc>FALSE</ntsc>
							</rate>
							<duration>39627</duration>
							<timecode>
								<rate>
									<timebase>24</timebase>
									<ntsc>FALSE</ntsc>
								</rate>
								<string>00:00:00:00</string>
								<frame>0</frame>
								<displayformat>NDF</displayformat>
							</timecode>
							<media>
								<video>
									<samplecharacteristics>
										<rate>
											<timebase>24</timebase>
											<ntsc>FALSE</ntsc>
										</rate>
										<width>852</width>
										<height>480</height>
										<anamorphic>FALSE</anamorphic>
										<pixelaspectratio>square</pixelaspectratio>
										<fielddominance>none</fielddominance>
									</samplecharacteristics>
								</video>
								<audio>
									<samplecharacteristics>
										<depth>16</depth>
										<samplerate>44100</samplerate>
									</samplecharacteristics>
									<channelcount>2</channelcount>
								</audio>
							</media>
						</file>
						<filter>
							<effect>
								<name>Basic Motion</name>
								<effectid>basic</effectid>
								<effectcategory>motion</effectcategory>
								<effecttype>motion</effecttype>
								<mediatype>video</mediatype>
								<pproBypass>false</pproBypass>
								<parameter authoringApp="PremierePro">
									<parameterid>scale</parameterid>
									<name>Scale</name>
									<valuemin>0</valuemin>
									<valuemax>1000</valuemax>
									<value>225</value>
								</parameter>
								<parameter authoringApp="PremierePro">
									<parameterid>rotation</parameterid>
									<name>Rotation</name>
									<valuemin>-8640</valuemin>
									<valuemax>8640</valuemax>
									<value>0</value>
								</parameter>
								<parameter authoringApp="PremierePro">
									<parameterid>center</parameterid>
									<name>Center</name>
									<value>
										<horiz>0</horiz>
										<vert>0</vert>
									</value>
								</parameter>
								<parameter authoringApp="PremierePro">
									<parameterid>centerOffset</parameterid>
									<name>Anchor Point</name>
									<value>
										<horiz>0</horiz>
										<vert>0</vert>
									</value>
								</parameter>
								<parameter authoringApp="PremierePro">
									<parameterid>antiflicker</parameterid>
									<name>Anti-flicker Filter</name>
									<valuemin>0.0</valuemin>
									<valuemax>1.0</valuemax>
									<value>0</value>
								</parameter>
							</effect>
						</filter>
						<link>
							<linkclipref>clipitem-88</linkclipref>
							<mediatype>video</mediatype>
							<trackindex>1</trackindex>
							<clipindex>4</clipindex>
						</link>
						<link>
							<linkclipref>clipitem-96</linkclipref>
							<mediatype>audio</mediatype>
							<trackindex>1</trackindex>
							<clipindex>4</clipindex>
							<groupindex>1</groupindex>
						</link>
						<link>
							<linkclipref>clipitem-104</linkclipref>
							<mediatype>audio</mediatype>
							<trackindex>2</trackindex>
							<clipindex>4</clipindex>
							<groupindex>1</groupindex>
						</link>
						<logginginfo>
							<description />
							<scene />
							<shottake />
							<lognote />
							<good />
							<originalvideofilename />
							<originalaudiofilename />
						</logginginfo>
						<colorinfo>
							<lut />
							<lut1 />
							<asc_sop />
							<asc_sat />
							<lut2 />
						</colorinfo>
					<labels><label2>Lavender</label2></labels></clipitem>
					<clipitem id="clipitem-87">
						<masterclipid>clipitem-3-25</masterclipid>
						<name>Taylor_Swift_Travis_Kelce_-_The_New_Power_Couple.mp4</name>
						<enabled>TRUE</enabled>
						<duration>150</duration>
						<rate>
							<timebase>25</timebase>
							<ntsc>FALSE</ntsc>
						</rate>
						<start>121650</start>
						<end>121800</end>
						<in>3600</in>
						<out>3750</out>
						<pproTicksIn>0</pproTicksIn>
						<pproTicksOut>875013995520000</pproTicksOut>
						<alphatype>none</alphatype>
						<pixelaspectratio>square</pixelaspectratio>
						<anamorphic>FALSE</anamorphic>
						<file id="file-31">
							<name>Taylor_Swift_Travis_Kelce_-_The_New_Power_Couple.mp4</name>
							<pathurl>file://localhost/Users/themalikano/Documents/VideoAutomation/premiere_videos/Taylor_Swift_Travis_Kelce_-_The_New_Power_Couple.mp4</pathurl>
							<rate>
								<timebase>25</timebase>
								<ntsc>FALSE</ntsc>
							</rate>
							<duration>86118</duration>
							<timecode>
								<rate>
									<timebase>25</timebase>
									<ntsc>FALSE</ntsc>
								</rate>
								<string>00:00:00:00</string>
								<frame>0</frame>
								<displayformat>NDF</displayformat>
							</timecode>
							<media>
								<video>
									<samplecharacteristics>
										<rate>
											<timebase>25</timebase>
											<ntsc>FALSE</ntsc>
										</rate>
										<width>1920</width>
										<height>1080</height>
										<anamorphic>FALSE</anamorphic>
										<pixelaspectratio>square</pixelaspectratio>
										<fielddominance>none</fielddominance>
									</samplecharacteristics>
								</video>
								<audio>
									<samplecharacteristics>
										<depth>16</depth>
										<samplerate>44100</samplerate>
									</samplecharacteristics>
									<channelcount>2</channelcount>
								</audio>
							</media>
						</file>
						<link>
							<linkclipref>clipitem-87</linkclipref>
							<mediatype>video</mediatype>
							<trackindex>1</trackindex>
							<clipindex>3</clipindex>
						</link>
						<link>
							<linkclipref>clipitem-95</linkclipref>
							<mediatype>audio</mediatype>
							<trackindex>1</trackindex>
							<clipindex>3</clipindex>
							<groupindex>1</groupindex>
						</link>
						<link>
							<linkclipref>clipitem-103</linkclipref>
							<mediatype>audio</mediatype>
							<trackindex>2</trackindex>
							<clipindex>3</clipindex>
							<groupindex>1</groupindex>
						</link>
						<logginginfo>
							<description />
							<scene />
							<shottake />
							<lognote />
							<good />
							<originalvideofilename />
							<originalaudiofilename />
						</logginginfo>
						<colorinfo>
							<lut />
							<lut1 />
							<asc_sop />
							<asc_sat />
							<lut2 />
						</colorinfo>
					<labels><label2>Caribbean</label2></labels></clipitem>
					<clipitem id="clipitem-88">
						<masterclipid>clipitem-4-250</masterclipid>
						<name>Travis_Kelce_ANNOUNCE_WEDDING_DATE_with_Taylor_Swift_Why_He_was_Delaying_all_Along.mp4</name>
						<enabled>TRUE</enabled>
						<duration>150</duration>
						<rate>
							<timebase>25</timebase>
							<ntsc>FALSE</ntsc>
						</rate>
						<start>121800</start>
						<end>121950</end>
						<in>37350</in>
						<out>37500</out>
						<pproTicksIn>0</pproTicksIn>
						<pproTicksOut>419410897920000</pproTicksOut>
						<alphatype>none</alphatype>
						<pixelaspectratio>square</pixelaspectratio>
						<anamorphic>FALSE</anamorphic>
						<file id="file-32">
							<name>Travis_Kelce_ANNOUNCE_WEDDING_DATE_with_Taylor_Swift_Why_He_was_Delaying_all_Along.mp4</name>
							<pathurl>file://localhost/Users/themalikano/Documents/VideoAutomation/premiere_videos/Travis_Kelce_ANNOUNCE_WEDDING_DATE_with_Taylor_Swift_Why_He_was_Delaying_all_Along.mp4</pathurl>
							<rate>
								<timebase>24</timebase>
								<ntsc>FALSE</ntsc>
							</rate>
							<duration>39627</duration>
							<timecode>
								<rate>
									<timebase>24</timebase>
									<ntsc>FALSE</ntsc>
								</rate>
								<string>00:00:00:00</string>
								<frame>0</frame>
								<displayformat>NDF</displayformat>
							</timecode>
							<media>
								<video>
									<samplecharacteristics>
										<rate>
											<timebase>24</timebase>
											<ntsc>FALSE</ntsc>
										</rate>
										<width>852</width>
										<height>480</height>
										<anamorphic>FALSE</anamorphic>
										<pixelaspectratio>square</pixelaspectratio>
										<fielddominance>none</fielddominance>
									</samplecharacteristics>
								</video>
								<audio>
									<samplecharacteristics>
										<depth>16</depth>
										<samplerate>44100</samplerate>
									</samplecharacteristics>
									<channelcount>2</channelcount>
								</audio>
							</media>
						</file>
						<filter>
							<effect>
								<name>Basic Motion</name>
								<effectid>basic</effectid>
								<effectcategory>motion</effectcategory>
								<effecttype>motion</effecttype>
								<mediatype>video</mediatype>
								<pproBypass>false</pproBypass>
								<parameter authoringApp="PremierePro">
									<parameterid>scale</parameterid>
									<name>Scale</name>
									<valuemin>0</valuemin>
									<valuemax>1000</valuemax>
									<value>225</value>
								</parameter>
								<parameter authoringApp="PremierePro">
									<parameterid>rotation</parameterid>
									<name>Rotation</name>
									<valuemin>-8640</valuemin>
									<valuemax>8640</valuemax>
									<value>0</value>
								</parameter>
								<parameter authoringApp="PremierePro">
									<parameterid>center</parameterid>
									<name>Center</name>
									<value>
										<horiz>0</horiz>
										<vert>0</vert>
									</value>
								</parameter>
								<parameter authoringApp="PremierePro">
									<parameterid>centerOffset</parameterid>
									<name>Anchor Point</name>
									<value>
										<horiz>0</horiz>
										<vert>0</vert>
									</value>
								</parameter>
								<parameter authoringApp="PremierePro">
									<parameterid>antiflicker</parameterid>
									<name>Anti-flicker Filter</name>
									<valuemin>0.0</valuemin>
									<valuemax>1.0</valuemax>
									<value>0</value>
								</parameter>
							</effect>
						</filter>
						<link>
							<linkclipref>clipitem-88</linkclipref>
							<mediatype>video</mediatype>
							<trackindex>1</trackindex>
							<clipindex>4</clipindex>
						</link>
						<link>
							<linkclipref>clipitem-96</linkclipref>
							<mediatype>audio</mediatype>
							<trackindex>1</trackindex>
							<clipindex>4</clipindex>
							<groupindex>1</groupindex>
						</link>
						<link>
							<linkclipref>clipitem-104</linkclipref>
							<mediatype>audio</mediatype>
							<trackindex>2</trackindex>
							<clipindex>4</clipindex>
							<groupindex>1</groupindex>
						</link>
						<logginginfo>
							<description />
							<scene />
							<shottake />
							<lognote />
							<good />
							<originalvideofilename />
							<originalaudiofilename />
						</logginginfo>
						<colorinfo>
							<lut />
							<lut1 />
							<asc_sop />
							<asc_sat />
							<lut2 />
						</colorinfo>
					<labels><label2>Lavender</label2></labels></clipitem>
					<clipitem id="clipitem-87">
						<masterclipid>clipitem-3-377</masterclipid>
						<name>Taylor_Swift_Travis_Kelce_-_The_New_Power_Couple.mp4</name>
						<enabled>TRUE</enabled>
						<duration>150</duration>
						<rate>
							<timebase>25</timebase>
							<ntsc>FALSE</ntsc>
						</rate>
						<start>121950</start>
						<end>122100</end>
						<in>56400</in>
						<out>56550</out>
						<pproTicksIn>0</pproTicksIn>
						<pproTicksOut>875013995520000</pproTicksOut>
						<alphatype>none</alphatype>
						<pixelaspectratio>square</pixelaspectratio>
						<anamorphic>FALSE</anamorphic>
						<file id="file-31">
							<name>Taylor_Swift_Travis_Kelce_-_The_New_Power_Couple.mp4</name>
							<pathurl>file://localhost/Users/themalikano/Documents/VideoAutomation/premiere_videos/Taylor_Swift_Travis_Kelce_-_The_New_Power_Couple.mp4</pathurl>
							<rate>
								<timebase>25</timebase>
								<ntsc>FALSE</ntsc>
							</rate>
							<duration>86118</duration>
							<timecode>
								<rate>
									<timebase>25</timebase>
									<ntsc>FALSE</ntsc>
								</rate>
								<string>00:00:00:00</string>
								<frame>0</frame>
								<displayformat>NDF</displayformat>
							</timecode>
							<media>
								<video>
									<samplecharacteristics>
										<rate>
											<timebase>25</timebase>
											<ntsc>FALSE</ntsc>
										</rate>
										<width>1920</width>
										<height>1080</height>
										<anamorphic>FALSE</anamorphic>
										<pixelaspectratio>square</pixelaspectratio>
										<fielddominance>none</fielddominance>
									</samplecharacteristics>
								</video>
								<audio>
									<samplecharacteristics>
										<depth>16</depth>
										<samplerate>44100</samplerate>
									</samplecharacteristics>
									<channelcount>2</channelcount>
								</audio>
							</media>
						</file>
						<link>
							<linkclipref>clipitem-87</linkclipref>
							<mediatype>video</mediatype>
							<trackindex>1</trackindex>
							<clipindex>3</clipindex>
						</link>
						<link>
							<linkclipref>clipitem-95</linkclipref>
							<mediatype>audio</mediatype>
							<trackindex>1</trackindex>
							<clipindex>3</clipindex>
							<groupindex>1</groupindex>
						</link>
						<link>
							<linkclipref>clipitem-103</linkclipref>
							<mediatype>audio</mediatype>
							<trackindex>2</trackindex>
							<clipindex>3</clipindex>
							<groupindex>1</groupindex>
						</link>
						<logginginfo>
							<description />
							<scene />
							<shottake />
							<lognote />
							<good />
							<originalvideofilename />
							<originalaudiofilename />
						</logginginfo>
						<colorinfo>
							<lut />
							<lut1 />
							<asc_sop />
							<asc_sat />
							<lut2 />
						</colorinfo>
					<labels><label2>Caribbean</label2></labels></clipitem>
					<clipitem id="clipitem-88">
						<masterclipid>clipitem-4-46</masterclipid>
						<name>Travis_Kelce_ANNOUNCE_WEDDING_DATE_with_Taylor_Swift_Why_He_was_Delaying_all_Along.mp4</name>
						<enabled>TRUE</enabled>
						<duration>150</duration>
						<rate>
							<timebase>25</timebase>
							<ntsc>FALSE</ntsc>
						</rate>
						<start>122100</start>
						<end>122250</end>
						<in>6750</in>
						<out>6900</out>
						<pproTicksIn>0</pproTicksIn>
						<pproTicksOut>419410897920000</pproTicksOut>
						<alphatype>none</alphatype>
						<pixelaspectratio>square</pixelaspectratio>
						<anamorphic>FALSE</anamorphic>
						<file id="file-32">
							<name>Travis_Kelce_ANNOUNCE_WEDDING_DATE_with_Taylor_Swift_Why_He_was_Delaying_all_Along.mp4</name>
							<pathurl>file://localhost/Users/themalikano/Documents/VideoAutomation/premiere_videos/Travis_Kelce_ANNOUNCE_WEDDING_DATE_with_Taylor_Swift_Why_He_was_Delaying_all_Along.mp4</pathurl>
							<rate>
								<timebase>24</timebase>
								<ntsc>FALSE</ntsc>
							</rate>
							<duration>39627</duration>
							<timecode>
								<rate>
									<timebase>24</timebase>
									<ntsc>FALSE</ntsc>
								</rate>
								<string>00:00:00:00</string>
								<frame>0</frame>
								<displayformat>NDF</displayformat>
							</timecode>
							<media>
								<video>
									<samplecharacteristics>
										<rate>
											<timebase>24</timebase>
											<ntsc>FALSE</ntsc>
										</rate>
										<width>852</width>
										<height>480</height>
										<anamorphic>FALSE</anamorphic>
										<pixelaspectratio>square</pixelaspectratio>
										<fielddominance>none</fielddominance>
									</samplecharacteristics>
								</video>
								<audio>
									<samplecharacteristics>
										<depth>16</depth>
										<samplerate>44100</samplerate>
									</samplecharacteristics>
									<channelcount>2</channelcount>
								</audio>
							</media>
						</file>
						<filter>
							<effect>
								<name>Basic Motion</name>
								<effectid>basic</effectid>
								<effectcategory>motion</effectcategory>
								<effecttype>motion</effecttype>
								<mediatype>video</mediatype>
								<pproBypass>false</pproBypass>
								<parameter authoringApp="PremierePro">
									<parameterid>scale</parameterid>
									<name>Scale</name>
									<valuemin>0</valuemin>
									<valuemax>1000</valuemax>
									<value>225</value>
								</parameter>
								<parameter authoringApp="PremierePro">
									<parameterid>rotation</parameterid>
									<name>Rotation</name>
									<valuemin>-8640</valuemin>
									<valuemax>8640</valuemax>
									<value>0</value>
								</parameter>
								<parameter authoringApp="PremierePro">
									<parameterid>center</parameterid>
									<name>Center</name>
									<value>
										<horiz>0</horiz>
										<vert>0</vert>
									</value>
								</parameter>
								<parameter authoringApp="PremierePro">
									<parameterid>centerOffset</parameterid>
									<name>Anchor Point</name>
									<value>
										<horiz>0</horiz>
										<vert>0</vert>
									</value>
								</parameter>
								<parameter authoringApp="PremierePro">
									<parameterid>antiflicker</parameterid>
									<name>Anti-flicker Filter</name>
									<valuemin>0.0</valuemin>
									<valuemax>1.0</valuemax>
									<value>0</value>
								</parameter>
							</effect>
						</filter>
						<link>
							<linkclipref>clipitem-88</linkclipref>
							<mediatype>video</mediatype>
							<trackindex>1</trackindex>
							<clipindex>4</clipindex>
						</link>
						<link>
							<linkclipref>clipitem-96</linkclipref>
							<mediatype>audio</mediatype>
							<trackindex>1</trackindex>
							<clipindex>4</clipindex>
							<groupindex>1</groupindex>
						</link>
						<link>
							<linkclipref>clipitem-104</linkclipref>
							<mediatype>audio</mediatype>
							<trackindex>2</trackindex>
							<clipindex>4</clipindex>
							<groupindex>1</groupindex>
						</link>
						<logginginfo>
							<description />
							<scene />
							<shottake />
							<lognote />
							<good />
							<originalvideofilename />
							<originalaudiofilename />
						</logginginfo>
						<colorinfo>
							<lut />
							<lut1 />
							<asc_sop />
							<asc_sat />
							<lut2 />
						</colorinfo>
					<labels><label2>Lavender</label2></labels></clipitem>
					<clipitem id="clipitem-87">
						<masterclipid>clipitem-3-80</masterclipid>
						<name>Taylor_Swift_Travis_Kelce_-_The_New_Power_Couple.mp4</name>
						<enabled>TRUE</enabled>
						<duration>150</duration>
						<rate>
							<timebase>25</timebase>
							<ntsc>FALSE</ntsc>
						</rate>
						<start>122250</start>
						<end>122400</end>
						<in>11850</in>
						<out>12000</out>
						<pproTicksIn>0</pproTicksIn>
						<pproTicksOut>875013995520000</pproTicksOut>
						<alphatype>none</alphatype>
						<pixelaspectratio>square</pixelaspectratio>
						<anamorphic>FALSE</anamorphic>
						<file id="file-31">
							<name>Taylor_Swift_Travis_Kelce_-_The_New_Power_Couple.mp4</name>
							<pathurl>file://localhost/Users/themalikano/Documents/VideoAutomation/premiere_videos/Taylor_Swift_Travis_Kelce_-_The_New_Power_Couple.mp4</pathurl>
							<rate>
								<timebase>25</timebase>
								<ntsc>FALSE</ntsc>
							</rate>
							<duration>86118</duration>
							<timecode>
								<rate>
									<timebase>25</timebase>
									<ntsc>FALSE</ntsc>
								</rate>
								<string>00:00:00:00</string>
								<frame>0</frame>
								<displayformat>NDF</displayformat>
							</timecode>
							<media>
								<video>
									<samplecharacteristics>
										<rate>
											<timebase>25</timebase>
											<ntsc>FALSE</ntsc>
										</rate>
										<width>1920</width>
										<height>1080</height>
										<anamorphic>FALSE</anamorphic>
										<pixelaspectratio>square</pixelaspectratio>
										<fielddominance>none</fielddominance>
									</samplecharacteristics>
								</video>
								<audio>
									<samplecharacteristics>
										<depth>16</depth>
										<samplerate>44100</samplerate>
									</samplecharacteristics>
									<channelcount>2</channelcount>
								</audio>
							</media>
						</file>
						<link>
							<linkclipref>clipitem-87</linkclipref>
							<mediatype>video</mediatype>
							<trackindex>1</trackindex>
							<clipindex>3</clipindex>
						</link>
						<link>
							<linkclipref>clipitem-95</linkclipref>
							<mediatype>audio</mediatype>
							<trackindex>1</trackindex>
							<clipindex>3</clipindex>
							<groupindex>1</groupindex>
						</link>
						<link>
							<linkclipref>clipitem-103</linkclipref>
							<mediatype>audio</mediatype>
							<trackindex>2</trackindex>
							<clipindex>3</clipindex>
							<groupindex>1</groupindex>
						</link>
						<logginginfo>
							<description />
							<scene />
							<shottake />
							<lognote />
							<good />
							<originalvideofilename />
							<originalaudiofilename />
						</logginginfo>
						<colorinfo>
							<lut />
							<lut1 />
							<asc_sop />
							<asc_sat />
							<lut2 />
						</colorinfo>
					<labels><label2>Caribbean</label2></labels></clipitem>
					<clipitem id="clipitem-88">
						<masterclipid>clipitem-4-55</masterclipid>
						<name>Travis_Kelce_ANNOUNCE_WEDDING_DATE_with_Taylor_Swift_Why_He_was_Delaying_all_Along.mp4</name>
						<enabled>TRUE</enabled>
						<duration>150</duration>
						<rate>
							<timebase>25</timebase>
							<ntsc>FALSE</ntsc>
						</rate>
						<start>122400</start>
						<end>122550</end>
						<in>8100</in>
						<out>8250</out>
						<pproTicksIn>0</pproTicksIn>
						<pproTicksOut>419410897920000</pproTicksOut>
						<alphatype>none</alphatype>
						<pixelaspectratio>square</pixelaspectratio>
						<anamorphic>FALSE</anamorphic>
						<file id="file-32">
							<name>Travis_Kelce_ANNOUNCE_WEDDING_DATE_with_Taylor_Swift_Why_He_was_Delaying_all_Along.mp4</name>
							<pathurl>file://localhost/Users/themalikano/Documents/VideoAutomation/premiere_videos/Travis_Kelce_ANNOUNCE_WEDDING_DATE_with_Taylor_Swift_Why_He_was_Delaying_all_Along.mp4</pathurl>
							<rate>
								<timebase>24</timebase>
								<ntsc>FALSE</ntsc>
							</rate>
							<duration>39627</duration>
							<timecode>
								<rate>
									<timebase>24</timebase>
									<ntsc>FALSE</ntsc>
								</rate>
								<string>00:00:00:00</string>
								<frame>0</frame>
								<displayformat>NDF</displayformat>
							</timecode>
							<media>
								<video>
									<samplecharacteristics>
										<rate>
											<timebase>24</timebase>
											<ntsc>FALSE</ntsc>
										</rate>
										<width>852</width>
										<height>480</height>
										<anamorphic>FALSE</anamorphic>
										<pixelaspectratio>square</pixelaspectratio>
										<fielddominance>none</fielddominance>
									</samplecharacteristics>
								</video>
								<audio>
									<samplecharacteristics>
										<depth>16</depth>
										<samplerate>44100</samplerate>
									</samplecharacteristics>
									<channelcount>2</channelcount>
								</audio>
							</media>
						</file>
						<filter>
							<effect>
								<name>Basic Motion</name>
								<effectid>basic</effectid>
								<effectcategory>motion</effectcategory>
								<effecttype>motion</effecttype>
								<mediatype>video</mediatype>
								<pproBypass>false</pproBypass>
								<parameter authoringApp="PremierePro">
									<parameterid>scale</parameterid>
									<name>Scale</name>
									<valuemin>0</valuemin>
									<valuemax>1000</valuemax>
									<value>225</value>
								</parameter>
								<parameter authoringApp="PremierePro">
									<parameterid>rotation</parameterid>
									<name>Rotation</name>
									<valuemin>-8640</valuemin>
									<valuemax>8640</valuemax>
									<value>0</value>
								</parameter>
								<parameter authoringApp="PremierePro">
									<parameterid>center</parameterid>
									<name>Center</name>
									<value>
										<horiz>0</horiz>
										<vert>0</vert>
									</value>
								</parameter>
								<parameter authoringApp="PremierePro">
									<parameterid>centerOffset</parameterid>
									<name>Anchor Point</name>
									<value>
										<horiz>0</horiz>
										<vert>0</vert>
									</value>
								</parameter>
								<parameter authoringApp="PremierePro">
									<parameterid>antiflicker</parameterid>
									<name>Anti-flicker Filter</name>
									<valuemin>0.0</valuemin>
									<valuemax>1.0</valuemax>
									<value>0</value>
								</parameter>
							</effect>
						</filter>
						<link>
							<linkclipref>clipitem-88</linkclipref>
							<mediatype>video</mediatype>
							<trackindex>1</trackindex>
							<clipindex>4</clipindex>
						</link>
						<link>
							<linkclipref>clipitem-96</linkclipref>
							<mediatype>audio</mediatype>
							<trackindex>1</trackindex>
							<clipindex>4</clipindex>
							<groupindex>1</groupindex>
						</link>
						<link>
							<linkclipref>clipitem-104</linkclipref>
							<mediatype>audio</mediatype>
							<trackindex>2</trackindex>
							<clipindex>4</clipindex>
							<groupindex>1</groupindex>
						</link>
						<logginginfo>
							<description />
							<scene />
							<shottake />
							<lognote />
							<good />
							<originalvideofilename />
							<originalaudiofilename />
						</logginginfo>
						<colorinfo>
							<lut />
							<lut1 />
							<asc_sop />
							<asc_sat />
							<lut2 />
						</colorinfo>
					<labels><label2>Lavender</label2></labels></clipitem>
					<clipitem id="clipitem-87">
						<masterclipid>clipitem-3-231</masterclipid>
						<name>Taylor_Swift_Travis_Kelce_-_The_New_Power_Couple.mp4</name>
						<enabled>TRUE</enabled>
						<duration>150</duration>
						<rate>
							<timebase>25</timebase>
							<ntsc>FALSE</ntsc>
						</rate>
						<start>122550</start>
						<end>122700</end>
						<in>34500</in>
						<out>34650</out>
						<pproTicksIn>0</pproTicksIn>
						<pproTicksOut>875013995520000</pproTicksOut>
						<alphatype>none</alphatype>
						<pixelaspectratio>square</pixelaspectratio>
						<anamorphic>FALSE</anamorphic>
						<file id="file-31">
							<name>Taylor_Swift_Travis_Kelce_-_The_New_Power_Couple.mp4</name>
							<pathurl>file://localhost/Users/themalikano/Documents/VideoAutomation/premiere_videos/Taylor_Swift_Travis_Kelce_-_The_New_Power_Couple.mp4</pathurl>
							<rate>
								<timebase>25</timebase>
								<ntsc>FALSE</ntsc>
							</rate>
							<duration>86118</duration>
							<timecode>
								<rate>
									<timebase>25</timebase>
									<ntsc>FALSE</ntsc>
								</rate>
								<string>00:00:00:00</string>
								<frame>0</frame>
								<displayformat>NDF</displayformat>
							</timecode>
							<media>
								<video>
									<samplecharacteristics>
										<rate>
											<timebase>25</timebase>
											<ntsc>FALSE</ntsc>
										</rate>
										<width>1920</width>
										<height>1080</height>
										<anamorphic>FALSE</anamorphic>
										<pixelaspectratio>square</pixelaspectratio>
										<fielddominance>none</fielddominance>
									</samplecharacteristics>
								</video>
								<audio>
									<samplecharacteristics>
										<depth>16</depth>
										<samplerate>44100</samplerate>
									</samplecharacteristics>
									<channelcount>2</channelcount>
								</audio>
							</media>
						</file>
						<link>
							<linkclipref>clipitem-87</linkclipref>
							<mediatype>video</mediatype>
							<trackindex>1</trackindex>
							<clipindex>3</clipindex>
						</link>
						<link>
							<linkclipref>clipitem-95</linkclipref>
							<mediatype>audio</mediatype>
							<trackindex>1</trackindex>
							<clipindex>3</clipindex>
							<groupindex>1</groupindex>
						</link>
						<link>
							<linkclipref>clipitem-103</linkclipref>
							<mediatype>audio</mediatype>
							<trackindex>2</trackindex>
							<clipindex>3</clipindex>
							<groupindex>1</groupindex>
						</link>
						<logginginfo>
							<description />
							<scene />
							<shottake />
							<lognote />
							<good />
							<originalvideofilename />
							<originalaudiofilename />
						</logginginfo>
						<colorinfo>
							<lut />
							<lut1 />
							<asc_sop />
							<asc_sat />
							<lut2 />
						</colorinfo>
					<labels><label2>Caribbean</label2></labels></clipitem>
					<clipitem id="clipitem-88">
						<masterclipid>clipitem-4-161</masterclipid>
						<name>Travis_Kelce_ANNOUNCE_WEDDING_DATE_with_Taylor_Swift_Why_He_was_Delaying_all_Along.mp4</name>
						<enabled>TRUE</enabled>
						<duration>150</duration>
						<rate>
							<timebase>25</timebase>
							<ntsc>FALSE</ntsc>
						</rate>
						<start>122700</start>
						<end>122850</end>
						<in>24000</in>
						<out>24150</out>
						<pproTicksIn>0</pproTicksIn>
						<pproTicksOut>419410897920000</pproTicksOut>
						<alphatype>none</alphatype>
						<pixelaspectratio>square</pixelaspectratio>
						<anamorphic>FALSE</anamorphic>
						<file id="file-32">
							<name>Travis_Kelce_ANNOUNCE_WEDDING_DATE_with_Taylor_Swift_Why_He_was_Delaying_all_Along.mp4</name>
							<pathurl>file://localhost/Users/themalikano/Documents/VideoAutomation/premiere_videos/Travis_Kelce_ANNOUNCE_WEDDING_DATE_with_Taylor_Swift_Why_He_was_Delaying_all_Along.mp4</pathurl>
							<rate>
								<timebase>24</timebase>
								<ntsc>FALSE</ntsc>
							</rate>
							<duration>39627</duration>
							<timecode>
								<rate>
									<timebase>24</timebase>
									<ntsc>FALSE</ntsc>
								</rate>
								<string>00:00:00:00</string>
								<frame>0</frame>
								<displayformat>NDF</displayformat>
							</timecode>
							<media>
								<video>
									<samplecharacteristics>
										<rate>
											<timebase>24</timebase>
											<ntsc>FALSE</ntsc>
										</rate>
										<width>852</width>
										<height>480</height>
										<anamorphic>FALSE</anamorphic>
										<pixelaspectratio>square</pixelaspectratio>
										<fielddominance>none</fielddominance>
									</samplecharacteristics>
								</video>
								<audio>
									<samplecharacteristics>
										<depth>16</depth>
										<samplerate>44100</samplerate>
									</samplecharacteristics>
									<channelcount>2</channelcount>
								</audio>
							</media>
						</file>
						<filter>
							<effect>
								<name>Basic Motion</name>
								<effectid>basic</effectid>
								<effectcategory>motion</effectcategory>
								<effecttype>motion</effecttype>
								<mediatype>video</mediatype>
								<pproBypass>false</pproBypass>
								<parameter authoringApp="PremierePro">
									<parameterid>scale</parameterid>
									<name>Scale</name>
									<valuemin>0</valuemin>
									<valuemax>1000</valuemax>
									<value>225</value>
								</parameter>
								<parameter authoringApp="PremierePro">
									<parameterid>rotation</parameterid>
									<name>Rotation</name>
									<valuemin>-8640</valuemin>
									<valuemax>8640</valuemax>
									<value>0</value>
								</parameter>
								<parameter authoringApp="PremierePro">
									<parameterid>center</parameterid>
									<name>Center</name>
									<value>
										<horiz>0</horiz>
										<vert>0</vert>
									</value>
								</parameter>
								<parameter authoringApp="PremierePro">
									<parameterid>centerOffset</parameterid>
									<name>Anchor Point</name>
									<value>
										<horiz>0</horiz>
										<vert>0</vert>
									</value>
								</parameter>
								<parameter authoringApp="PremierePro">
									<parameterid>antiflicker</parameterid>
									<name>Anti-flicker Filter</name>
									<valuemin>0.0</valuemin>
									<valuemax>1.0</valuemax>
									<value>0</value>
								</parameter>
							</effect>
						</filter>
						<link>
							<linkclipref>clipitem-88</linkclipref>
							<mediatype>video</mediatype>
							<trackindex>1</trackindex>
							<clipindex>4</clipindex>
						</link>
						<link>
							<linkclipref>clipitem-96</linkclipref>
							<mediatype>audio</mediatype>
							<trackindex>1</trackindex>
							<clipindex>4</clipindex>
							<groupindex>1</groupindex>
						</link>
						<link>
							<linkclipref>clipitem-104</linkclipref>
							<mediatype>audio</mediatype>
							<trackindex>2</trackindex>
							<clipindex>4</clipindex>
							<groupindex>1</groupindex>
						</link>
						<logginginfo>
							<description />
							<scene />
							<shottake />
							<lognote />
							<good />
							<originalvideofilename />
							<originalaudiofilename />
						</logginginfo>
						<colorinfo>
							<lut />
							<lut1 />
							<asc_sop />
							<asc_sat />
							<lut2 />
						</colorinfo>
					<labels><label2>Lavender</label2></labels></clipitem>
					<clipitem id="clipitem-87">
						<masterclipid>clipitem-3-291</masterclipid>
						<name>Taylor_Swift_Travis_Kelce_-_The_New_Power_Couple.mp4</name>
						<enabled>TRUE</enabled>
						<duration>150</duration>
						<rate>
							<timebase>25</timebase>
							<ntsc>FALSE</ntsc>
						</rate>
						<start>122850</start>
						<end>123000</end>
						<in>43500</in>
						<out>43650</out>
						<pproTicksIn>0</pproTicksIn>
						<pproTicksOut>875013995520000</pproTicksOut>
						<alphatype>none</alphatype>
						<pixelaspectratio>square</pixelaspectratio>
						<anamorphic>FALSE</anamorphic>
						<file id="file-31">
							<name>Taylor_Swift_Travis_Kelce_-_The_New_Power_Couple.mp4</name>
							<pathurl>file://localhost/Users/themalikano/Documents/VideoAutomation/premiere_videos/Taylor_Swift_Travis_Kelce_-_The_New_Power_Couple.mp4</pathurl>
							<rate>
								<timebase>25</timebase>
								<ntsc>FALSE</ntsc>
							</rate>
							<duration>86118</duration>
							<timecode>
								<rate>
									<timebase>25</timebase>
									<ntsc>FALSE</ntsc>
								</rate>
								<string>00:00:00:00</string>
								<frame>0</frame>
								<displayformat>NDF</displayformat>
							</timecode>
							<media>
								<video>
									<samplecharacteristics>
										<rate>
											<timebase>25</timebase>
											<ntsc>FALSE</ntsc>
										</rate>
										<width>1920</width>
										<height>1080</height>
										<anamorphic>FALSE</anamorphic>
										<pixelaspectratio>square</pixelaspectratio>
										<fielddominance>none</fielddominance>
									</samplecharacteristics>
								</video>
								<audio>
									<samplecharacteristics>
										<depth>16</depth>
										<samplerate>44100</samplerate>
									</samplecharacteristics>
									<channelcount>2</channelcount>
								</audio>
							</media>
						</file>
						<link>
							<linkclipref>clipitem-87</linkclipref>
							<mediatype>video</mediatype>
							<trackindex>1</trackindex>
							<clipindex>3</clipindex>
						</link>
						<link>
							<linkclipref>clipitem-95</linkclipref>
							<mediatype>audio</mediatype>
							<trackindex>1</trackindex>
							<clipindex>3</clipindex>
							<groupindex>1</groupindex>
						</link>
						<link>
							<linkclipref>clipitem-103</linkclipref>
							<mediatype>audio</mediatype>
							<trackindex>2</trackindex>
							<clipindex>3</clipindex>
							<groupindex>1</groupindex>
						</link>
						<logginginfo>
							<description />
							<scene />
							<shottake />
							<lognote />
							<good />
							<originalvideofilename />
							<originalaudiofilename />
						</logginginfo>
						<colorinfo>
							<lut />
							<lut1 />
							<asc_sop />
							<asc_sat />
							<lut2 />
						</colorinfo>
					<labels><label2>Caribbean</label2></labels></clipitem>
					<clipitem id="clipitem-88">
						<masterclipid>clipitem-4-31</masterclipid>
						<name>Travis_Kelce_ANNOUNCE_WEDDING_DATE_with_Taylor_Swift_Why_He_was_Delaying_all_Along.mp4</name>
						<enabled>TRUE</enabled>
						<duration>150</duration>
						<rate>
							<timebase>25</timebase>
							<ntsc>FALSE</ntsc>
						</rate>
						<start>123000</start>
						<end>123150</end>
						<in>4500</in>
						<out>4650</out>
						<pproTicksIn>0</pproTicksIn>
						<pproTicksOut>419410897920000</pproTicksOut>
						<alphatype>none</alphatype>
						<pixelaspectratio>square</pixelaspectratio>
						<anamorphic>FALSE</anamorphic>
						<file id="file-32">
							<name>Travis_Kelce_ANNOUNCE_WEDDING_DATE_with_Taylor_Swift_Why_He_was_Delaying_all_Along.mp4</name>
							<pathurl>file://localhost/Users/themalikano/Documents/VideoAutomation/premiere_videos/Travis_Kelce_ANNOUNCE_WEDDING_DATE_with_Taylor_Swift_Why_He_was_Delaying_all_Along.mp4</pathurl>
							<rate>
								<timebase>24</timebase>
								<ntsc>FALSE</ntsc>
							</rate>
							<duration>39627</duration>
							<timecode>
								<rate>
									<timebase>24</timebase>
									<ntsc>FALSE</ntsc>
								</rate>
								<string>00:00:00:00</string>
								<frame>0</frame>
								<displayformat>NDF</displayformat>
							</timecode>
							<media>
								<video>
									<samplecharacteristics>
										<rate>
											<timebase>24</timebase>
											<ntsc>FALSE</ntsc>
										</rate>
										<width>852</width>
										<height>480</height>
										<anamorphic>FALSE</anamorphic>
										<pixelaspectratio>square</pixelaspectratio>
										<fielddominance>none</fielddominance>
									</samplecharacteristics>
								</video>
								<audio>
									<samplecharacteristics>
										<depth>16</depth>
										<samplerate>44100</samplerate>
									</samplecharacteristics>
									<channelcount>2</channelcount>
								</audio>
							</media>
						</file>
						<filter>
							<effect>
								<name>Basic Motion</name>
								<effectid>basic</effectid>
								<effectcategory>motion</effectcategory>
								<effecttype>motion</effecttype>
								<mediatype>video</mediatype>
								<pproBypass>false</pproBypass>
								<parameter authoringApp="PremierePro">
									<parameterid>scale</parameterid>
									<name>Scale</name>
									<valuemin>0</valuemin>
									<valuemax>1000</valuemax>
									<value>225</value>
								</parameter>
								<parameter authoringApp="PremierePro">
									<parameterid>rotation</parameterid>
									<name>Rotation</name>
									<valuemin>-8640</valuemin>
									<valuemax>8640</valuemax>
									<value>0</value>
								</parameter>
								<parameter authoringApp="PremierePro">
									<parameterid>center</parameterid>
									<name>Center</name>
									<value>
										<horiz>0</horiz>
										<vert>0</vert>
									</value>
								</parameter>
								<parameter authoringApp="PremierePro">
									<parameterid>centerOffset</parameterid>
									<name>Anchor Point</name>
									<value>
										<horiz>0</horiz>
										<vert>0</vert>
									</value>
								</parameter>
								<parameter authoringApp="PremierePro">
									<parameterid>antiflicker</parameterid>
									<name>Anti-flicker Filter</name>
									<valuemin>0.0</valuemin>
									<valuemax>1.0</valuemax>
									<value>0</value>
								</parameter>
							</effect>
						</filter>
						<link>
							<linkclipref>clipitem-88</linkclipref>
							<mediatype>video</mediatype>
							<trackindex>1</trackindex>
							<clipindex>4</clipindex>
						</link>
						<link>
							<linkclipref>clipitem-96</linkclipref>
							<mediatype>audio</mediatype>
							<trackindex>1</trackindex>
							<clipindex>4</clipindex>
							<groupindex>1</groupindex>
						</link>
						<link>
							<linkclipref>clipitem-104</linkclipref>
							<mediatype>audio</mediatype>
							<trackindex>2</trackindex>
							<clipindex>4</clipindex>
							<groupindex>1</groupindex>
						</link>
						<logginginfo>
							<description />
							<scene />
							<shottake />
							<lognote />
							<good />
							<originalvideofilename />
							<originalaudiofilename />
						</logginginfo>
						<colorinfo>
							<lut />
							<lut1 />
							<asc_sop />
							<asc_sat />
							<lut2 />
						</colorinfo>
					<labels><label2>Lavender</label2></labels></clipitem>
					<clipitem id="clipitem-87">
						<masterclipid>clipitem-3-248</masterclipid>
						<name>Taylor_Swift_Travis_Kelce_-_The_New_Power_Couple.mp4</name>
						<enabled>TRUE</enabled>
						<duration>150</duration>
						<rate>
							<timebase>25</timebase>
							<ntsc>FALSE</ntsc>
						</rate>
						<start>123150</start>
						<end>123300</end>
						<in>37050</in>
						<out>37200</out>
						<pproTicksIn>0</pproTicksIn>
						<pproTicksOut>875013995520000</pproTicksOut>
						<alphatype>none</alphatype>
						<pixelaspectratio>square</pixelaspectratio>
						<anamorphic>FALSE</anamorphic>
						<file id="file-31">
							<name>Taylor_Swift_Travis_Kelce_-_The_New_Power_Couple.mp4</name>
							<pathurl>file://localhost/Users/themalikano/Documents/VideoAutomation/premiere_videos/Taylor_Swift_Travis_Kelce_-_The_New_Power_Couple.mp4</pathurl>
							<rate>
								<timebase>25</timebase>
								<ntsc>FALSE</ntsc>
							</rate>
							<duration>86118</duration>
							<timecode>
								<rate>
									<timebase>25</timebase>
									<ntsc>FALSE</ntsc>
								</rate>
								<string>00:00:00:00</string>
								<frame>0</frame>
								<displayformat>NDF</displayformat>
							</timecode>
							<media>
								<video>
									<samplecharacteristics>
										<rate>
											<timebase>25</timebase>
											<ntsc>FALSE</ntsc>
										</rate>
										<width>1920</width>
										<height>1080</height>
										<anamorphic>FALSE</anamorphic>
										<pixelaspectratio>square</pixelaspectratio>
										<fielddominance>none</fielddominance>
									</samplecharacteristics>
								</video>
								<audio>
									<samplecharacteristics>
										<depth>16</depth>
										<samplerate>44100</samplerate>
									</samplecharacteristics>
									<channelcount>2</channelcount>
								</audio>
							</media>
						</file>
						<link>
							<linkclipref>clipitem-87</linkclipref>
							<mediatype>video</mediatype>
							<trackindex>1</trackindex>
							<clipindex>3</clipindex>
						</link>
						<link>
							<linkclipref>clipitem-95</linkclipref>
							<mediatype>audio</mediatype>
							<trackindex>1</trackindex>
							<clipindex>3</clipindex>
							<groupindex>1</groupindex>
						</link>
						<link>
							<linkclipref>clipitem-103</linkclipref>
							<mediatype>audio</mediatype>
							<trackindex>2</trackindex>
							<clipindex>3</clipindex>
							<groupindex>1</groupindex>
						</link>
						<logginginfo>
							<description />
							<scene />
							<shottake />
							<lognote />
							<good />
							<originalvideofilename />
							<originalaudiofilename />
						</logginginfo>
						<colorinfo>
							<lut />
							<lut1 />
							<asc_sop />
							<asc_sat />
							<lut2 />
						</colorinfo>
					<labels><label2>Caribbean</label2></labels></clipitem>
					<clipitem id="clipitem-88">
						<masterclipid>clipitem-4-160</masterclipid>
						<name>Travis_Kelce_ANNOUNCE_WEDDING_DATE_with_Taylor_Swift_Why_He_was_Delaying_all_Along.mp4</name>
						<enabled>TRUE</enabled>
						<duration>150</duration>
						<rate>
							<timebase>25</timebase>
							<ntsc>FALSE</ntsc>
						</rate>
						<start>123300</start>
						<end>123450</end>
						<in>23850</in>
						<out>24000</out>
						<pproTicksIn>0</pproTicksIn>
						<pproTicksOut>419410897920000</pproTicksOut>
						<alphatype>none</alphatype>
						<pixelaspectratio>square</pixelaspectratio>
						<anamorphic>FALSE</anamorphic>
						<file id="file-32">
							<name>Travis_Kelce_ANNOUNCE_WEDDING_DATE_with_Taylor_Swift_Why_He_was_Delaying_all_Along.mp4</name>
							<pathurl>file://localhost/Users/themalikano/Documents/VideoAutomation/premiere_videos/Travis_Kelce_ANNOUNCE_WEDDING_DATE_with_Taylor_Swift_Why_He_was_Delaying_all_Along.mp4</pathurl>
							<rate>
								<timebase>24</timebase>
								<ntsc>FALSE</ntsc>
							</rate>
							<duration>39627</duration>
							<timecode>
								<rate>
									<timebase>24</timebase>
									<ntsc>FALSE</ntsc>
								</rate>
								<string>00:00:00:00</string>
								<frame>0</frame>
								<displayformat>NDF</displayformat>
							</timecode>
							<media>
								<video>
									<samplecharacteristics>
										<rate>
											<timebase>24</timebase>
											<ntsc>FALSE</ntsc>
										</rate>
										<width>852</width>
										<height>480</height>
										<anamorphic>FALSE</anamorphic>
										<pixelaspectratio>square</pixelaspectratio>
										<fielddominance>none</fielddominance>
									</samplecharacteristics>
								</video>
								<audio>
									<samplecharacteristics>
										<depth>16</depth>
										<samplerate>44100</samplerate>
									</samplecharacteristics>
									<channelcount>2</channelcount>
								</audio>
							</media>
						</file>
						<filter>
							<effect>
								<name>Basic Motion</name>
								<effectid>basic</effectid>
								<effectcategory>motion</effectcategory>
								<effecttype>motion</effecttype>
								<mediatype>video</mediatype>
								<pproBypass>false</pproBypass>
								<parameter authoringApp="PremierePro">
									<parameterid>scale</parameterid>
									<name>Scale</name>
									<valuemin>0</valuemin>
									<valuemax>1000</valuemax>
									<value>225</value>
								</parameter>
								<parameter authoringApp="PremierePro">
									<parameterid>rotation</parameterid>
									<name>Rotation</name>
									<valuemin>-8640</valuemin>
									<valuemax>8640</valuemax>
									<value>0</value>
								</parameter>
								<parameter authoringApp="PremierePro">
									<parameterid>center</parameterid>
									<name>Center</name>
									<value>
										<horiz>0</horiz>
										<vert>0</vert>
									</value>
								</parameter>
								<parameter authoringApp="PremierePro">
									<parameterid>centerOffset</parameterid>
									<name>Anchor Point</name>
									<value>
										<horiz>0</horiz>
										<vert>0</vert>
									</value>
								</parameter>
								<parameter authoringApp="PremierePro">
									<parameterid>antiflicker</parameterid>
									<name>Anti-flicker Filter</name>
									<valuemin>0.0</valuemin>
									<valuemax>1.0</valuemax>
									<value>0</value>
								</parameter>
							</effect>
						</filter>
						<link>
							<linkclipref>clipitem-88</linkclipref>
							<mediatype>video</mediatype>
							<trackindex>1</trackindex>
							<clipindex>4</clipindex>
						</link>
						<link>
							<linkclipref>clipitem-96</linkclipref>
							<mediatype>audio</mediatype>
							<trackindex>1</trackindex>
							<clipindex>4</clipindex>
							<groupindex>1</groupindex>
						</link>
						<link>
							<linkclipref>clipitem-104</linkclipref>
							<mediatype>audio</mediatype>
							<trackindex>2</trackindex>
							<clipindex>4</clipindex>
							<groupindex>1</groupindex>
						</link>
						<logginginfo>
							<description />
							<scene />
							<shottake />
							<lognote />
							<good />
							<originalvideofilename />
							<originalaudiofilename />
						</logginginfo>
						<colorinfo>
							<lut />
							<lut1 />
							<asc_sop />
							<asc_sat />
							<lut2 />
						</colorinfo>
					<labels><label2>Lavender</label2></labels></clipitem>
					<clipitem id="clipitem-87">
						<masterclipid>clipitem-3-158</masterclipid>
						<name>Taylor_Swift_Travis_Kelce_-_The_New_Power_Couple.mp4</name>
						<enabled>TRUE</enabled>
						<duration>150</duration>
						<rate>
							<timebase>25</timebase>
							<ntsc>FALSE</ntsc>
						</rate>
						<start>123450</start>
						<end>123600</end>
						<in>23550</in>
						<out>23700</out>
						<pproTicksIn>0</pproTicksIn>
						<pproTicksOut>875013995520000</pproTicksOut>
						<alphatype>none</alphatype>
						<pixelaspectratio>square</pixelaspectratio>
						<anamorphic>FALSE</anamorphic>
						<file id="file-31">
							<name>Taylor_Swift_Travis_Kelce_-_The_New_Power_Couple.mp4</name>
							<pathurl>file://localhost/Users/themalikano/Documents/VideoAutomation/premiere_videos/Taylor_Swift_Travis_Kelce_-_The_New_Power_Couple.mp4</pathurl>
							<rate>
								<timebase>25</timebase>
								<ntsc>FALSE</ntsc>
							</rate>
							<duration>86118</duration>
							<timecode>
								<rate>
									<timebase>25</timebase>
									<ntsc>FALSE</ntsc>
								</rate>
								<string>00:00:00:00</string>
								<frame>0</frame>
								<displayformat>NDF</displayformat>
							</timecode>
							<media>
								<video>
									<samplecharacteristics>
										<rate>
											<timebase>25</timebase>
											<ntsc>FALSE</ntsc>
										</rate>
										<width>1920</width>
										<height>1080</height>
										<anamorphic>FALSE</anamorphic>
										<pixelaspectratio>square</pixelaspectratio>
										<fielddominance>none</fielddominance>
									</samplecharacteristics>
								</video>
								<audio>
									<samplecharacteristics>
										<depth>16</depth>
										<samplerate>44100</samplerate>
									</samplecharacteristics>
									<channelcount>2</channelcount>
								</audio>
							</media>
						</file>
						<link>
							<linkclipref>clipitem-87</linkclipref>
							<mediatype>video</mediatype>
							<trackindex>1</trackindex>
							<clipindex>3</clipindex>
						</link>
						<link>
							<linkclipref>clipitem-95</linkclipref>
							<mediatype>audio</mediatype>
							<trackindex>1</trackindex>
							<clipindex>3</clipindex>
							<groupindex>1</groupindex>
						</link>
						<link>
							<linkclipref>clipitem-103</linkclipref>
							<mediatype>audio</mediatype>
							<trackindex>2</trackindex>
							<clipindex>3</clipindex>
							<groupindex>1</groupindex>
						</link>
						<logginginfo>
							<description />
							<scene />
							<shottake />
							<lognote />
							<good />
							<originalvideofilename />
							<originalaudiofilename />
						</logginginfo>
						<colorinfo>
							<lut />
							<lut1 />
							<asc_sop />
							<asc_sat />
							<lut2 />
						</colorinfo>
					<labels><label2>Caribbean</label2></labels></clipitem>
					<clipitem id="clipitem-88">
						<masterclipid>clipitem-4-158</masterclipid>
						<name>Travis_Kelce_ANNOUNCE_WEDDING_DATE_with_Taylor_Swift_Why_He_was_Delaying_all_Along.mp4</name>
						<enabled>TRUE</enabled>
						<duration>150</duration>
						<rate>
							<timebase>25</timebase>
							<ntsc>FALSE</ntsc>
						</rate>
						<start>123600</start>
						<end>123750</end>
						<in>23550</in>
						<out>23700</out>
						<pproTicksIn>0</pproTicksIn>
						<pproTicksOut>419410897920000</pproTicksOut>
						<alphatype>none</alphatype>
						<pixelaspectratio>square</pixelaspectratio>
						<anamorphic>FALSE</anamorphic>
						<file id="file-32">
							<name>Travis_Kelce_ANNOUNCE_WEDDING_DATE_with_Taylor_Swift_Why_He_was_Delaying_all_Along.mp4</name>
							<pathurl>file://localhost/Users/themalikano/Documents/VideoAutomation/premiere_videos/Travis_Kelce_ANNOUNCE_WEDDING_DATE_with_Taylor_Swift_Why_He_was_Delaying_all_Along.mp4</pathurl>
							<rate>
								<timebase>24</timebase>
								<ntsc>FALSE</ntsc>
							</rate>
							<duration>39627</duration>
							<timecode>
								<rate>
									<timebase>24</timebase>
									<ntsc>FALSE</ntsc>
								</rate>
								<string>00:00:00:00</string>
								<frame>0</frame>
								<displayformat>NDF</displayformat>
							</timecode>
							<media>
								<video>
									<samplecharacteristics>
										<rate>
											<timebase>24</timebase>
											<ntsc>FALSE</ntsc>
										</rate>
										<width>852</width>
										<height>480</height>
										<anamorphic>FALSE</anamorphic>
										<pixelaspectratio>square</pixelaspectratio>
										<fielddominance>none</fielddominance>
									</samplecharacteristics>
								</video>
								<audio>
									<samplecharacteristics>
										<depth>16</depth>
										<samplerate>44100</samplerate>
									</samplecharacteristics>
									<channelcount>2</channelcount>
								</audio>
							</media>
						</file>
						<filter>
							<effect>
								<name>Basic Motion</name>
								<effectid>basic</effectid>
								<effectcategory>motion</effectcategory>
								<effecttype>motion</effecttype>
								<mediatype>video</mediatype>
								<pproBypass>false</pproBypass>
								<parameter authoringApp="PremierePro">
									<parameterid>scale</parameterid>
									<name>Scale</name>
									<valuemin>0</valuemin>
									<valuemax>1000</valuemax>
									<value>225</value>
								</parameter>
								<parameter authoringApp="PremierePro">
									<parameterid>rotation</parameterid>
									<name>Rotation</name>
									<valuemin>-8640</valuemin>
									<valuemax>8640</valuemax>
									<value>0</value>
								</parameter>
								<parameter authoringApp="PremierePro">
									<parameterid>center</parameterid>
									<name>Center</name>
									<value>
										<horiz>0</horiz>
										<vert>0</vert>
									</value>
								</parameter>
								<parameter authoringApp="PremierePro">
									<parameterid>centerOffset</parameterid>
									<name>Anchor Point</name>
									<value>
										<horiz>0</horiz>
										<vert>0</vert>
									</value>
								</parameter>
								<parameter authoringApp="PremierePro">
									<parameterid>antiflicker</parameterid>
									<name>Anti-flicker Filter</name>
									<valuemin>0.0</valuemin>
									<valuemax>1.0</valuemax>
									<value>0</value>
								</parameter>
							</effect>
						</filter>
						<link>
							<linkclipref>clipitem-88</linkclipref>
							<mediatype>video</mediatype>
							<trackindex>1</trackindex>
							<clipindex>4</clipindex>
						</link>
						<link>
							<linkclipref>clipitem-96</linkclipref>
							<mediatype>audio</mediatype>
							<trackindex>1</trackindex>
							<clipindex>4</clipindex>
							<groupindex>1</groupindex>
						</link>
						<link>
							<linkclipref>clipitem-104</linkclipref>
							<mediatype>audio</mediatype>
							<trackindex>2</trackindex>
							<clipindex>4</clipindex>
							<groupindex>1</groupindex>
						</link>
						<logginginfo>
							<description />
							<scene />
							<shottake />
							<lognote />
							<good />
							<originalvideofilename />
							<originalaudiofilename />
						</logginginfo>
						<colorinfo>
							<lut />
							<lut1 />
							<asc_sop />
							<asc_sat />
							<lut2 />
						</colorinfo>
					<labels><label2>Lavender</label2></labels></clipitem>
					<clipitem id="clipitem-87">
						<masterclipid>clipitem-3-475</masterclipid>
						<name>Taylor_Swift_Travis_Kelce_-_The_New_Power_Couple.mp4</name>
						<enabled>TRUE</enabled>
						<duration>150</duration>
						<rate>
							<timebase>25</timebase>
							<ntsc>FALSE</ntsc>
						</rate>
						<start>123750</start>
						<end>123900</end>
						<in>71100</in>
						<out>71250</out>
						<pproTicksIn>0</pproTicksIn>
						<pproTicksOut>875013995520000</pproTicksOut>
						<alphatype>none</alphatype>
						<pixelaspectratio>square</pixelaspectratio>
						<anamorphic>FALSE</anamorphic>
						<file id="file-31">
							<name>Taylor_Swift_Travis_Kelce_-_The_New_Power_Couple.mp4</name>
							<pathurl>file://localhost/Users/themalikano/Documents/VideoAutomation/premiere_videos/Taylor_Swift_Travis_Kelce_-_The_New_Power_Couple.mp4</pathurl>
							<rate>
								<timebase>25</timebase>
								<ntsc>FALSE</ntsc>
							</rate>
							<duration>86118</duration>
							<timecode>
								<rate>
									<timebase>25</timebase>
									<ntsc>FALSE</ntsc>
								</rate>
								<string>00:00:00:00</string>
								<frame>0</frame>
								<displayformat>NDF</displayformat>
							</timecode>
							<media>
								<video>
									<samplecharacteristics>
										<rate>
											<timebase>25</timebase>
											<ntsc>FALSE</ntsc>
										</rate>
										<width>1920</width>
										<height>1080</height>
										<anamorphic>FALSE</anamorphic>
										<pixelaspectratio>square</pixelaspectratio>
										<fielddominance>none</fielddominance>
									</samplecharacteristics>
								</video>
								<audio>
									<samplecharacteristics>
										<depth>16</depth>
										<samplerate>44100</samplerate>
									</samplecharacteristics>
									<channelcount>2</channelcount>
								</audio>
							</media>
						</file>
						<link>
							<linkclipref>clipitem-87</linkclipref>
							<mediatype>video</mediatype>
							<trackindex>1</trackindex>
							<clipindex>3</clipindex>
						</link>
						<link>
							<linkclipref>clipitem-95</linkclipref>
							<mediatype>audio</mediatype>
							<trackindex>1</trackindex>
							<clipindex>3</clipindex>
							<groupindex>1</groupindex>
						</link>
						<link>
							<linkclipref>clipitem-103</linkclipref>
							<mediatype>audio</mediatype>
							<trackindex>2</trackindex>
							<clipindex>3</clipindex>
							<groupindex>1</groupindex>
						</link>
						<logginginfo>
							<description />
							<scene />
							<shottake />
							<lognote />
							<good />
							<originalvideofilename />
							<originalaudiofilename />
						</logginginfo>
						<colorinfo>
							<lut />
							<lut1 />
							<asc_sop />
							<asc_sat />
							<lut2 />
						</colorinfo>
					<labels><label2>Caribbean</label2></labels></clipitem>
					<clipitem id="clipitem-88">
						<masterclipid>clipitem-4-248</masterclipid>
						<name>Travis_Kelce_ANNOUNCE_WEDDING_DATE_with_Taylor_Swift_Why_He_was_Delaying_all_Along.mp4</name>
						<enabled>TRUE</enabled>
						<duration>150</duration>
						<rate>
							<timebase>25</timebase>
							<ntsc>FALSE</ntsc>
						</rate>
						<start>123900</start>
						<end>124050</end>
						<in>37050</in>
						<out>37200</out>
						<pproTicksIn>0</pproTicksIn>
						<pproTicksOut>419410897920000</pproTicksOut>
						<alphatype>none</alphatype>
						<pixelaspectratio>square</pixelaspectratio>
						<anamorphic>FALSE</anamorphic>
						<file id="file-32">
							<name>Travis_Kelce_ANNOUNCE_WEDDING_DATE_with_Taylor_Swift_Why_He_was_Delaying_all_Along.mp4</name>
							<pathurl>file://localhost/Users/themalikano/Documents/VideoAutomation/premiere_videos/Travis_Kelce_ANNOUNCE_WEDDING_DATE_with_Taylor_Swift_Why_He_was_Delaying_all_Along.mp4</pathurl>
							<rate>
								<timebase>24</timebase>
								<ntsc>FALSE</ntsc>
							</rate>
							<duration>39627</duration>
							<timecode>
								<rate>
									<timebase>24</timebase>
									<ntsc>FALSE</ntsc>
								</rate>
								<string>00:00:00:00</string>
								<frame>0</frame>
								<displayformat>NDF</displayformat>
							</timecode>
							<media>
								<video>
									<samplecharacteristics>
										<rate>
											<timebase>24</timebase>
											<ntsc>FALSE</ntsc>
										</rate>
										<width>852</width>
										<height>480</height>
										<anamorphic>FALSE</anamorphic>
										<pixelaspectratio>square</pixelaspectratio>
										<fielddominance>none</fielddominance>
									</samplecharacteristics>
								</video>
								<audio>
									<samplecharacteristics>
										<depth>16</depth>
										<samplerate>44100</samplerate>
									</samplecharacteristics>
									<channelcount>2</channelcount>
								</audio>
							</media>
						</file>
						<filter>
							<effect>
								<name>Basic Motion</name>
								<effectid>basic</effectid>
								<effectcategory>motion</effectcategory>
								<effecttype>motion</effecttype>
								<mediatype>video</mediatype>
								<pproBypass>false</pproBypass>
								<parameter authoringApp="PremierePro">
									<parameterid>scale</parameterid>
									<name>Scale</name>
									<valuemin>0</valuemin>
									<valuemax>1000</valuemax>
									<value>225</value>
								</parameter>
								<parameter authoringApp="PremierePro">
									<parameterid>rotation</parameterid>
									<name>Rotation</name>
									<valuemin>-8640</valuemin>
									<valuemax>8640</valuemax>
									<value>0</value>
								</parameter>
								<parameter authoringApp="PremierePro">
									<parameterid>center</parameterid>
									<name>Center</name>
									<value>
										<horiz>0</horiz>
										<vert>0</vert>
									</value>
								</parameter>
								<parameter authoringApp="PremierePro">
									<parameterid>centerOffset</parameterid>
									<name>Anchor Point</name>
									<value>
										<horiz>0</horiz>
										<vert>0</vert>
									</value>
								</parameter>
								<parameter authoringApp="PremierePro">
									<parameterid>antiflicker</parameterid>
									<name>Anti-flicker Filter</name>
									<valuemin>0.0</valuemin>
									<valuemax>1.0</valuemax>
									<value>0</value>
								</parameter>
							</effect>
						</filter>
						<link>
							<linkclipref>clipitem-88</linkclipref>
							<mediatype>video</mediatype>
							<trackindex>1</trackindex>
							<clipindex>4</clipindex>
						</link>
						<link>
							<linkclipref>clipitem-96</linkclipref>
							<mediatype>audio</mediatype>
							<trackindex>1</trackindex>
							<clipindex>4</clipindex>
							<groupindex>1</groupindex>
						</link>
						<link>
							<linkclipref>clipitem-104</linkclipref>
							<mediatype>audio</mediatype>
							<trackindex>2</trackindex>
							<clipindex>4</clipindex>
							<groupindex>1</groupindex>
						</link>
						<logginginfo>
							<description />
							<scene />
							<shottake />
							<lognote />
							<good />
							<originalvideofilename />
							<originalaudiofilename />
						</logginginfo>
						<colorinfo>
							<lut />
							<lut1 />
							<asc_sop />
							<asc_sat />
							<lut2 />
						</colorinfo>
					<labels><label2>Lavender</label2></labels></clipitem>
					<clipitem id="clipitem-87">
						<masterclipid>clipitem-3-33</masterclipid>
						<name>Taylor_Swift_Travis_Kelce_-_The_New_Power_Couple.mp4</name>
						<enabled>TRUE</enabled>
						<duration>150</duration>
						<rate>
							<timebase>25</timebase>
							<ntsc>FALSE</ntsc>
						</rate>
						<start>124050</start>
						<end>124200</end>
						<in>4800</in>
						<out>4950</out>
						<pproTicksIn>0</pproTicksIn>
						<pproTicksOut>875013995520000</pproTicksOut>
						<alphatype>none</alphatype>
						<pixelaspectratio>square</pixelaspectratio>
						<anamorphic>FALSE</anamorphic>
						<file id="file-31">
							<name>Taylor_Swift_Travis_Kelce_-_The_New_Power_Couple.mp4</name>
							<pathurl>file://localhost/Users/themalikano/Documents/VideoAutomation/premiere_videos/Taylor_Swift_Travis_Kelce_-_The_New_Power_Couple.mp4</pathurl>
							<rate>
								<timebase>25</timebase>
								<ntsc>FALSE</ntsc>
							</rate>
							<duration>86118</duration>
							<timecode>
								<rate>
									<timebase>25</timebase>
									<ntsc>FALSE</ntsc>
								</rate>
								<string>00:00:00:00</string>
								<frame>0</frame>
								<displayformat>NDF</displayformat>
							</timecode>
							<media>
								<video>
									<samplecharacteristics>
										<rate>
											<timebase>25</timebase>
											<ntsc>FALSE</ntsc>
										</rate>
										<width>1920</width>
										<height>1080</height>
										<anamorphic>FALSE</anamorphic>
										<pixelaspectratio>square</pixelaspectratio>
										<fielddominance>none</fielddominance>
									</samplecharacteristics>
								</video>
								<audio>
									<samplecharacteristics>
										<depth>16</depth>
										<samplerate>44100</samplerate>
									</samplecharacteristics>
									<channelcount>2</channelcount>
								</audio>
							</media>
						</file>
						<link>
							<linkclipref>clipitem-87</linkclipref>
							<mediatype>video</mediatype>
							<trackindex>1</trackindex>
							<clipindex>3</clipindex>
						</link>
						<link>
							<linkclipref>clipitem-95</linkclipref>
							<mediatype>audio</mediatype>
							<trackindex>1</trackindex>
							<clipindex>3</clipindex>
							<groupindex>1</groupindex>
						</link>
						<link>
							<linkclipref>clipitem-103</linkclipref>
							<mediatype>audio</mediatype>
							<trackindex>2</trackindex>
							<clipindex>3</clipindex>
							<groupindex>1</groupindex>
						</link>
						<logginginfo>
							<description />
							<scene />
							<shottake />
							<lognote />
							<good />
							<originalvideofilename />
							<originalaudiofilename />
						</logginginfo>
						<colorinfo>
							<lut />
							<lut1 />
							<asc_sop />
							<asc_sat />
							<lut2 />
						</colorinfo>
					<labels><label2>Caribbean</label2></labels></clipitem>
					<clipitem id="clipitem-88">
						<masterclipid>clipitem-4-179</masterclipid>
						<name>Travis_Kelce_ANNOUNCE_WEDDING_DATE_with_Taylor_Swift_Why_He_was_Delaying_all_Along.mp4</name>
						<enabled>TRUE</enabled>
						<duration>150</duration>
						<rate>
							<timebase>25</timebase>
							<ntsc>FALSE</ntsc>
						</rate>
						<start>124200</start>
						<end>124350</end>
						<in>26700</in>
						<out>26850</out>
						<pproTicksIn>0</pproTicksIn>
						<pproTicksOut>419410897920000</pproTicksOut>
						<alphatype>none</alphatype>
						<pixelaspectratio>square</pixelaspectratio>
						<anamorphic>FALSE</anamorphic>
						<file id="file-32">
							<name>Travis_Kelce_ANNOUNCE_WEDDING_DATE_with_Taylor_Swift_Why_He_was_Delaying_all_Along.mp4</name>
							<pathurl>file://localhost/Users/themalikano/Documents/VideoAutomation/premiere_videos/Travis_Kelce_ANNOUNCE_WEDDING_DATE_with_Taylor_Swift_Why_He_was_Delaying_all_Along.mp4</pathurl>
							<rate>
								<timebase>24</timebase>
								<ntsc>FALSE</ntsc>
							</rate>
							<duration>39627</duration>
							<timecode>
								<rate>
									<timebase>24</timebase>
									<ntsc>FALSE</ntsc>
								</rate>
								<string>00:00:00:00</string>
								<frame>0</frame>
								<displayformat>NDF</displayformat>
							</timecode>
							<media>
								<video>
									<samplecharacteristics>
										<rate>
											<timebase>24</timebase>
											<ntsc>FALSE</ntsc>
										</rate>
										<width>852</width>
										<height>480</height>
										<anamorphic>FALSE</anamorphic>
										<pixelaspectratio>square</pixelaspectratio>
										<fielddominance>none</fielddominance>
									</samplecharacteristics>
								</video>
								<audio>
									<samplecharacteristics>
										<depth>16</depth>
										<samplerate>44100</samplerate>
									</samplecharacteristics>
									<channelcount>2</channelcount>
								</audio>
							</media>
						</file>
						<filter>
							<effect>
								<name>Basic Motion</name>
								<effectid>basic</effectid>
								<effectcategory>motion</effectcategory>
								<effecttype>motion</effecttype>
								<mediatype>video</mediatype>
								<pproBypass>false</pproBypass>
								<parameter authoringApp="PremierePro">
									<parameterid>scale</parameterid>
									<name>Scale</name>
									<valuemin>0</valuemin>
									<valuemax>1000</valuemax>
									<value>225</value>
								</parameter>
								<parameter authoringApp="PremierePro">
									<parameterid>rotation</parameterid>
									<name>Rotation</name>
									<valuemin>-8640</valuemin>
									<valuemax>8640</valuemax>
									<value>0</value>
								</parameter>
								<parameter authoringApp="PremierePro">
									<parameterid>center</parameterid>
									<name>Center</name>
									<value>
										<horiz>0</horiz>
										<vert>0</vert>
									</value>
								</parameter>
								<parameter authoringApp="PremierePro">
									<parameterid>centerOffset</parameterid>
									<name>Anchor Point</name>
									<value>
										<horiz>0</horiz>
										<vert>0</vert>
									</value>
								</parameter>
								<parameter authoringApp="PremierePro">
									<parameterid>antiflicker</parameterid>
									<name>Anti-flicker Filter</name>
									<valuemin>0.0</valuemin>
									<valuemax>1.0</valuemax>
									<value>0</value>
								</parameter>
							</effect>
						</filter>
						<link>
							<linkclipref>clipitem-88</linkclipref>
							<mediatype>video</mediatype>
							<trackindex>1</trackindex>
							<clipindex>4</clipindex>
						</link>
						<link>
							<linkclipref>clipitem-96</linkclipref>
							<mediatype>audio</mediatype>
							<trackindex>1</trackindex>
							<clipindex>4</clipindex>
							<groupindex>1</groupindex>
						</link>
						<link>
							<linkclipref>clipitem-104</linkclipref>
							<mediatype>audio</mediatype>
							<trackindex>2</trackindex>
							<clipindex>4</clipindex>
							<groupindex>1</groupindex>
						</link>
						<logginginfo>
							<description />
							<scene />
							<shottake />
							<lognote />
							<good />
							<originalvideofilename />
							<originalaudiofilename />
						</logginginfo>
						<colorinfo>
							<lut />
							<lut1 />
							<asc_sop />
							<asc_sat />
							<lut2 />
						</colorinfo>
					<labels><label2>Lavender</label2></labels></clipitem>
					<clipitem id="clipitem-87">
						<masterclipid>clipitem-3-240</masterclipid>
						<name>Taylor_Swift_Travis_Kelce_-_The_New_Power_Couple.mp4</name>
						<enabled>TRUE</enabled>
						<duration>150</duration>
						<rate>
							<timebase>25</timebase>
							<ntsc>FALSE</ntsc>
						</rate>
						<start>124350</start>
						<end>124500</end>
						<in>35850</in>
						<out>36000</out>
						<pproTicksIn>0</pproTicksIn>
						<pproTicksOut>875013995520000</pproTicksOut>
						<alphatype>none</alphatype>
						<pixelaspectratio>square</pixelaspectratio>
						<anamorphic>FALSE</anamorphic>
						<file id="file-31">
							<name>Taylor_Swift_Travis_Kelce_-_The_New_Power_Couple.mp4</name>
							<pathurl>file://localhost/Users/themalikano/Documents/VideoAutomation/premiere_videos/Taylor_Swift_Travis_Kelce_-_The_New_Power_Couple.mp4</pathurl>
							<rate>
								<timebase>25</timebase>
								<ntsc>FALSE</ntsc>
							</rate>
							<duration>86118</duration>
							<timecode>
								<rate>
									<timebase>25</timebase>
									<ntsc>FALSE</ntsc>
								</rate>
								<string>00:00:00:00</string>
								<frame>0</frame>
								<displayformat>NDF</displayformat>
							</timecode>
							<media>
								<video>
									<samplecharacteristics>
										<rate>
											<timebase>25</timebase>
											<ntsc>FALSE</ntsc>
										</rate>
										<width>1920</width>
										<height>1080</height>
										<anamorphic>FALSE</anamorphic>
										<pixelaspectratio>square</pixelaspectratio>
										<fielddominance>none</fielddominance>
									</samplecharacteristics>
								</video>
								<audio>
									<samplecharacteristics>
										<depth>16</depth>
										<samplerate>44100</samplerate>
									</samplecharacteristics>
									<channelcount>2</channelcount>
								</audio>
							</media>
						</file>
						<link>
							<linkclipref>clipitem-87</linkclipref>
							<mediatype>video</mediatype>
							<trackindex>1</trackindex>
							<clipindex>3</clipindex>
						</link>
						<link>
							<linkclipref>clipitem-95</linkclipref>
							<mediatype>audio</mediatype>
							<trackindex>1</trackindex>
							<clipindex>3</clipindex>
							<groupindex>1</groupindex>
						</link>
						<link>
							<linkclipref>clipitem-103</linkclipref>
							<mediatype>audio</mediatype>
							<trackindex>2</trackindex>
							<clipindex>3</clipindex>
							<groupindex>1</groupindex>
						</link>
						<logginginfo>
							<description />
							<scene />
							<shottake />
							<lognote />
							<good />
							<originalvideofilename />
							<originalaudiofilename />
						</logginginfo>
						<colorinfo>
							<lut />
							<lut1 />
							<asc_sop />
							<asc_sat />
							<lut2 />
						</colorinfo>
					<labels><label2>Caribbean</label2></labels></clipitem>
					<clipitem id="clipitem-88">
						<masterclipid>clipitem-4-112</masterclipid>
						<name>Travis_Kelce_ANNOUNCE_WEDDING_DATE_with_Taylor_Swift_Why_He_was_Delaying_all_Along.mp4</name>
						<enabled>TRUE</enabled>
						<duration>150</duration>
						<rate>
							<timebase>25</timebase>
							<ntsc>FALSE</ntsc>
						</rate>
						<start>124500</start>
						<end>124650</end>
						<in>16650</in>
						<out>16800</out>
						<pproTicksIn>0</pproTicksIn>
						<pproTicksOut>419410897920000</pproTicksOut>
						<alphatype>none</alphatype>
						<pixelaspectratio>square</pixelaspectratio>
						<anamorphic>FALSE</anamorphic>
						<file id="file-32">
							<name>Travis_Kelce_ANNOUNCE_WEDDING_DATE_with_Taylor_Swift_Why_He_was_Delaying_all_Along.mp4</name>
							<pathurl>file://localhost/Users/themalikano/Documents/VideoAutomation/premiere_videos/Travis_Kelce_ANNOUNCE_WEDDING_DATE_with_Taylor_Swift_Why_He_was_Delaying_all_Along.mp4</pathurl>
							<rate>
								<timebase>24</timebase>
								<ntsc>FALSE</ntsc>
							</rate>
							<duration>39627</duration>
							<timecode>
								<rate>
									<timebase>24</timebase>
									<ntsc>FALSE</ntsc>
								</rate>
								<string>00:00:00:00</string>
								<frame>0</frame>
								<displayformat>NDF</displayformat>
							</timecode>
							<media>
								<video>
									<samplecharacteristics>
										<rate>
											<timebase>24</timebase>
											<ntsc>FALSE</ntsc>
										</rate>
										<width>852</width>
										<height>480</height>
										<anamorphic>FALSE</anamorphic>
										<pixelaspectratio>square</pixelaspectratio>
										<fielddominance>none</fielddominance>
									</samplecharacteristics>
								</video>
								<audio>
									<samplecharacteristics>
										<depth>16</depth>
										<samplerate>44100</samplerate>
									</samplecharacteristics>
									<channelcount>2</channelcount>
								</audio>
							</media>
						</file>
						<filter>
							<effect>
								<name>Basic Motion</name>
								<effectid>basic</effectid>
								<effectcategory>motion</effectcategory>
								<effecttype>motion</effecttype>
								<mediatype>video</mediatype>
								<pproBypass>false</pproBypass>
								<parameter authoringApp="PremierePro">
									<parameterid>scale</parameterid>
									<name>Scale</name>
									<valuemin>0</valuemin>
									<valuemax>1000</valuemax>
									<value>225</value>
								</parameter>
								<parameter authoringApp="PremierePro">
									<parameterid>rotation</parameterid>
									<name>Rotation</name>
									<valuemin>-8640</valuemin>
									<valuemax>8640</valuemax>
									<value>0</value>
								</parameter>
								<parameter authoringApp="PremierePro">
									<parameterid>center</parameterid>
									<name>Center</name>
									<value>
										<horiz>0</horiz>
										<vert>0</vert>
									</value>
								</parameter>
								<parameter authoringApp="PremierePro">
									<parameterid>centerOffset</parameterid>
									<name>Anchor Point</name>
									<value>
										<horiz>0</horiz>
										<vert>0</vert>
									</value>
								</parameter>
								<parameter authoringApp="PremierePro">
									<parameterid>antiflicker</parameterid>
									<name>Anti-flicker Filter</name>
									<valuemin>0.0</valuemin>
									<valuemax>1.0</valuemax>
									<value>0</value>
								</parameter>
							</effect>
						</filter>
						<link>
							<linkclipref>clipitem-88</linkclipref>
							<mediatype>video</mediatype>
							<trackindex>1</trackindex>
							<clipindex>4</clipindex>
						</link>
						<link>
							<linkclipref>clipitem-96</linkclipref>
							<mediatype>audio</mediatype>
							<trackindex>1</trackindex>
							<clipindex>4</clipindex>
							<groupindex>1</groupindex>
						</link>
						<link>
							<linkclipref>clipitem-104</linkclipref>
							<mediatype>audio</mediatype>
							<trackindex>2</trackindex>
							<clipindex>4</clipindex>
							<groupindex>1</groupindex>
						</link>
						<logginginfo>
							<description />
							<scene />
							<shottake />
							<lognote />
							<good />
							<originalvideofilename />
							<originalaudiofilename />
						</logginginfo>
						<colorinfo>
							<lut />
							<lut1 />
							<asc_sop />
							<asc_sat />
							<lut2 />
						</colorinfo>
					<labels><label2>Lavender</label2></labels></clipitem>
					<clipitem id="clipitem-87">
						<masterclipid>clipitem-3-560</masterclipid>
						<name>Taylor_Swift_Travis_Kelce_-_The_New_Power_Couple.mp4</name>
						<enabled>TRUE</enabled>
						<duration>150</duration>
						<rate>
							<timebase>25</timebase>
							<ntsc>FALSE</ntsc>
						</rate>
						<start>124650</start>
						<end>124800</end>
						<in>83850</in>
						<out>84000</out>
						<pproTicksIn>0</pproTicksIn>
						<pproTicksOut>875013995520000</pproTicksOut>
						<alphatype>none</alphatype>
						<pixelaspectratio>square</pixelaspectratio>
						<anamorphic>FALSE</anamorphic>
						<file id="file-31">
							<name>Taylor_Swift_Travis_Kelce_-_The_New_Power_Couple.mp4</name>
							<pathurl>file://localhost/Users/themalikano/Documents/VideoAutomation/premiere_videos/Taylor_Swift_Travis_Kelce_-_The_New_Power_Couple.mp4</pathurl>
							<rate>
								<timebase>25</timebase>
								<ntsc>FALSE</ntsc>
							</rate>
							<duration>86118</duration>
							<timecode>
								<rate>
									<timebase>25</timebase>
									<ntsc>FALSE</ntsc>
								</rate>
								<string>00:00:00:00</string>
								<frame>0</frame>
								<displayformat>NDF</displayformat>
							</timecode>
							<media>
								<video>
									<samplecharacteristics>
										<rate>
											<timebase>25</timebase>
											<ntsc>FALSE</ntsc>
										</rate>
										<width>1920</width>
										<height>1080</height>
										<anamorphic>FALSE</anamorphic>
										<pixelaspectratio>square</pixelaspectratio>
										<fielddominance>none</fielddominance>
									</samplecharacteristics>
								</video>
								<audio>
									<samplecharacteristics>
										<depth>16</depth>
										<samplerate>44100</samplerate>
									</samplecharacteristics>
									<channelcount>2</channelcount>
								</audio>
							</media>
						</file>
						<link>
							<linkclipref>clipitem-87</linkclipref>
							<mediatype>video</mediatype>
							<trackindex>1</trackindex>
							<clipindex>3</clipindex>
						</link>
						<link>
							<linkclipref>clipitem-95</linkclipref>
							<mediatype>audio</mediatype>
							<trackindex>1</trackindex>
							<clipindex>3</clipindex>
							<groupindex>1</groupindex>
						</link>
						<link>
							<linkclipref>clipitem-103</linkclipref>
							<mediatype>audio</mediatype>
							<trackindex>2</trackindex>
							<clipindex>3</clipindex>
							<groupindex>1</groupindex>
						</link>
						<logginginfo>
							<description />
							<scene />
							<shottake />
							<lognote />
							<good />
							<originalvideofilename />
							<originalaudiofilename />
						</logginginfo>
						<colorinfo>
							<lut />
							<lut1 />
							<asc_sop />
							<asc_sat />
							<lut2 />
						</colorinfo>
					<labels><label2>Caribbean</label2></labels></clipitem>
					<clipitem id="clipitem-88">
						<masterclipid>clipitem-4-107</masterclipid>
						<name>Travis_Kelce_ANNOUNCE_WEDDING_DATE_with_Taylor_Swift_Why_He_was_Delaying_all_Along.mp4</name>
						<enabled>TRUE</enabled>
						<duration>150</duration>
						<rate>
							<timebase>25</timebase>
							<ntsc>FALSE</ntsc>
						</rate>
						<start>124800</start>
						<end>124950</end>
						<in>15900</in>
						<out>16050</out>
						<pproTicksIn>0</pproTicksIn>
						<pproTicksOut>419410897920000</pproTicksOut>
						<alphatype>none</alphatype>
						<pixelaspectratio>square</pixelaspectratio>
						<anamorphic>FALSE</anamorphic>
						<file id="file-32">
							<name>Travis_Kelce_ANNOUNCE_WEDDING_DATE_with_Taylor_Swift_Why_He_was_Delaying_all_Along.mp4</name>
							<pathurl>file://localhost/Users/themalikano/Documents/VideoAutomation/premiere_videos/Travis_Kelce_ANNOUNCE_WEDDING_DATE_with_Taylor_Swift_Why_He_was_Delaying_all_Along.mp4</pathurl>
							<rate>
								<timebase>24</timebase>
								<ntsc>FALSE</ntsc>
							</rate>
							<duration>39627</duration>
							<timecode>
								<rate>
									<timebase>24</timebase>
									<ntsc>FALSE</ntsc>
								</rate>
								<string>00:00:00:00</string>
								<frame>0</frame>
								<displayformat>NDF</displayformat>
							</timecode>
							<media>
								<video>
									<samplecharacteristics>
										<rate>
											<timebase>24</timebase>
											<ntsc>FALSE</ntsc>
										</rate>
										<width>852</width>
										<height>480</height>
										<anamorphic>FALSE</anamorphic>
										<pixelaspectratio>square</pixelaspectratio>
										<fielddominance>none</fielddominance>
									</samplecharacteristics>
								</video>
								<audio>
									<samplecharacteristics>
										<depth>16</depth>
										<samplerate>44100</samplerate>
									</samplecharacteristics>
									<channelcount>2</channelcount>
								</audio>
							</media>
						</file>
						<filter>
							<effect>
								<name>Basic Motion</name>
								<effectid>basic</effectid>
								<effectcategory>motion</effectcategory>
								<effecttype>motion</effecttype>
								<mediatype>video</mediatype>
								<pproBypass>false</pproBypass>
								<parameter authoringApp="PremierePro">
									<parameterid>scale</parameterid>
									<name>Scale</name>
									<valuemin>0</valuemin>
									<valuemax>1000</valuemax>
									<value>225</value>
								</parameter>
								<parameter authoringApp="PremierePro">
									<parameterid>rotation</parameterid>
									<name>Rotation</name>
									<valuemin>-8640</valuemin>
									<valuemax>8640</valuemax>
									<value>0</value>
								</parameter>
								<parameter authoringApp="PremierePro">
									<parameterid>center</parameterid>
									<name>Center</name>
									<value>
										<horiz>0</horiz>
										<vert>0</vert>
									</value>
								</parameter>
								<parameter authoringApp="PremierePro">
									<parameterid>centerOffset</parameterid>
									<name>Anchor Point</name>
									<value>
										<horiz>0</horiz>
										<vert>0</vert>
									</value>
								</parameter>
								<parameter authoringApp="PremierePro">
									<parameterid>antiflicker</parameterid>
									<name>Anti-flicker Filter</name>
									<valuemin>0.0</valuemin>
									<valuemax>1.0</valuemax>
									<value>0</value>
								</parameter>
							</effect>
						</filter>
						<link>
							<linkclipref>clipitem-88</linkclipref>
							<mediatype>video</mediatype>
							<trackindex>1</trackindex>
							<clipindex>4</clipindex>
						</link>
						<link>
							<linkclipref>clipitem-96</linkclipref>
							<mediatype>audio</mediatype>
							<trackindex>1</trackindex>
							<clipindex>4</clipindex>
							<groupindex>1</groupindex>
						</link>
						<link>
							<linkclipref>clipitem-104</linkclipref>
							<mediatype>audio</mediatype>
							<trackindex>2</trackindex>
							<clipindex>4</clipindex>
							<groupindex>1</groupindex>
						</link>
						<logginginfo>
							<description />
							<scene />
							<shottake />
							<lognote />
							<good />
							<originalvideofilename />
							<originalaudiofilename />
						</logginginfo>
						<colorinfo>
							<lut />
							<lut1 />
							<asc_sop />
							<asc_sat />
							<lut2 />
						</colorinfo>
					<labels><label2>Lavender</label2></labels></clipitem>
					<clipitem id="clipitem-87">
						<masterclipid>clipitem-3-422</masterclipid>
						<name>Taylor_Swift_Travis_Kelce_-_The_New_Power_Couple.mp4</name>
						<enabled>TRUE</enabled>
						<duration>150</duration>
						<rate>
							<timebase>25</timebase>
							<ntsc>FALSE</ntsc>
						</rate>
						<start>124950</start>
						<end>125100</end>
						<in>63150</in>
						<out>63300</out>
						<pproTicksIn>0</pproTicksIn>
						<pproTicksOut>875013995520000</pproTicksOut>
						<alphatype>none</alphatype>
						<pixelaspectratio>square</pixelaspectratio>
						<anamorphic>FALSE</anamorphic>
						<file id="file-31">
							<name>Taylor_Swift_Travis_Kelce_-_The_New_Power_Couple.mp4</name>
							<pathurl>file://localhost/Users/themalikano/Documents/VideoAutomation/premiere_videos/Taylor_Swift_Travis_Kelce_-_The_New_Power_Couple.mp4</pathurl>
							<rate>
								<timebase>25</timebase>
								<ntsc>FALSE</ntsc>
							</rate>
							<duration>86118</duration>
							<timecode>
								<rate>
									<timebase>25</timebase>
									<ntsc>FALSE</ntsc>
								</rate>
								<string>00:00:00:00</string>
								<frame>0</frame>
								<displayformat>NDF</displayformat>
							</timecode>
							<media>
								<video>
									<samplecharacteristics>
										<rate>
											<timebase>25</timebase>
											<ntsc>FALSE</ntsc>
										</rate>
										<width>1920</width>
										<height>1080</height>
										<anamorphic>FALSE</anamorphic>
										<pixelaspectratio>square</pixelaspectratio>
										<fielddominance>none</fielddominance>
									</samplecharacteristics>
								</video>
								<audio>
									<samplecharacteristics>
										<depth>16</depth>
										<samplerate>44100</samplerate>
									</samplecharacteristics>
									<channelcount>2</channelcount>
								</audio>
							</media>
						</file>
						<link>
							<linkclipref>clipitem-87</linkclipref>
							<mediatype>video</mediatype>
							<trackindex>1</trackindex>
							<clipindex>3</clipindex>
						</link>
						<link>
							<linkclipref>clipitem-95</linkclipref>
							<mediatype>audio</mediatype>
							<trackindex>1</trackindex>
							<clipindex>3</clipindex>
							<groupindex>1</groupindex>
						</link>
						<link>
							<linkclipref>clipitem-103</linkclipref>
							<mediatype>audio</mediatype>
							<trackindex>2</trackindex>
							<clipindex>3</clipindex>
							<groupindex>1</groupindex>
						</link>
						<logginginfo>
							<description />
							<scene />
							<shottake />
							<lognote />
							<good />
							<originalvideofilename />
							<originalaudiofilename />
						</logginginfo>
						<colorinfo>
							<lut />
							<lut1 />
							<asc_sop />
							<asc_sat />
							<lut2 />
						</colorinfo>
					<labels><label2>Caribbean</label2></labels></clipitem>
					<clipitem id="clipitem-88">
						<masterclipid>clipitem-4-4</masterclipid>
						<name>Travis_Kelce_ANNOUNCE_WEDDING_DATE_with_Taylor_Swift_Why_He_was_Delaying_all_Along.mp4</name>
						<enabled>TRUE</enabled>
						<duration>150</duration>
						<rate>
							<timebase>25</timebase>
							<ntsc>FALSE</ntsc>
						</rate>
						<start>125100</start>
						<end>125250</end>
						<in>450</in>
						<out>600</out>
						<pproTicksIn>0</pproTicksIn>
						<pproTicksOut>419410897920000</pproTicksOut>
						<alphatype>none</alphatype>
						<pixelaspectratio>square</pixelaspectratio>
						<anamorphic>FALSE</anamorphic>
						<file id="file-32">
							<name>Travis_Kelce_ANNOUNCE_WEDDING_DATE_with_Taylor_Swift_Why_He_was_Delaying_all_Along.mp4</name>
							<pathurl>file://localhost/Users/themalikano/Documents/VideoAutomation/premiere_videos/Travis_Kelce_ANNOUNCE_WEDDING_DATE_with_Taylor_Swift_Why_He_was_Delaying_all_Along.mp4</pathurl>
							<rate>
								<timebase>24</timebase>
								<ntsc>FALSE</ntsc>
							</rate>
							<duration>39627</duration>
							<timecode>
								<rate>
									<timebase>24</timebase>
									<ntsc>FALSE</ntsc>
								</rate>
								<string>00:00:00:00</string>
								<frame>0</frame>
								<displayformat>NDF</displayformat>
							</timecode>
							<media>
								<video>
									<samplecharacteristics>
										<rate>
											<timebase>24</timebase>
											<ntsc>FALSE</ntsc>
										</rate>
										<width>852</width>
										<height>480</height>
										<anamorphic>FALSE</anamorphic>
										<pixelaspectratio>square</pixelaspectratio>
										<fielddominance>none</fielddominance>
									</samplecharacteristics>
								</video>
								<audio>
									<samplecharacteristics>
										<depth>16</depth>
										<samplerate>44100</samplerate>
									</samplecharacteristics>
									<channelcount>2</channelcount>
								</audio>
							</media>
						</file>
						<filter>
							<effect>
								<name>Basic Motion</name>
								<effectid>basic</effectid>
								<effectcategory>motion</effectcategory>
								<effecttype>motion</effecttype>
								<mediatype>video</mediatype>
								<pproBypass>false</pproBypass>
								<parameter authoringApp="PremierePro">
									<parameterid>scale</parameterid>
									<name>Scale</name>
									<valuemin>0</valuemin>
									<valuemax>1000</valuemax>
									<value>225</value>
								</parameter>
								<parameter authoringApp="PremierePro">
									<parameterid>rotation</parameterid>
									<name>Rotation</name>
									<valuemin>-8640</valuemin>
									<valuemax>8640</valuemax>
									<value>0</value>
								</parameter>
								<parameter authoringApp="PremierePro">
									<parameterid>center</parameterid>
									<name>Center</name>
									<value>
										<horiz>0</horiz>
										<vert>0</vert>
									</value>
								</parameter>
								<parameter authoringApp="PremierePro">
									<parameterid>centerOffset</parameterid>
									<name>Anchor Point</name>
									<value>
										<horiz>0</horiz>
										<vert>0</vert>
									</value>
								</parameter>
								<parameter authoringApp="PremierePro">
									<parameterid>antiflicker</parameterid>
									<name>Anti-flicker Filter</name>
									<valuemin>0.0</valuemin>
									<valuemax>1.0</valuemax>
									<value>0</value>
								</parameter>
							</effect>
						</filter>
						<link>
							<linkclipref>clipitem-88</linkclipref>
							<mediatype>video</mediatype>
							<trackindex>1</trackindex>
							<clipindex>4</clipindex>
						</link>
						<link>
							<linkclipref>clipitem-96</linkclipref>
							<mediatype>audio</mediatype>
							<trackindex>1</trackindex>
							<clipindex>4</clipindex>
							<groupindex>1</groupindex>
						</link>
						<link>
							<linkclipref>clipitem-104</linkclipref>
							<mediatype>audio</mediatype>
							<trackindex>2</trackindex>
							<clipindex>4</clipindex>
							<groupindex>1</groupindex>
						</link>
						<logginginfo>
							<description />
							<scene />
							<shottake />
							<lognote />
							<good />
							<originalvideofilename />
							<originalaudiofilename />
						</logginginfo>
						<colorinfo>
							<lut />
							<lut1 />
							<asc_sop />
							<asc_sat />
							<lut2 />
						</colorinfo>
					<labels><label2>Lavender</label2></labels></clipitem>
					<clipitem id="clipitem-87">
						<masterclipid>clipitem-3-550</masterclipid>
						<name>Taylor_Swift_Travis_Kelce_-_The_New_Power_Couple.mp4</name>
						<enabled>TRUE</enabled>
						<duration>150</duration>
						<rate>
							<timebase>25</timebase>
							<ntsc>FALSE</ntsc>
						</rate>
						<start>125250</start>
						<end>125400</end>
						<in>82350</in>
						<out>82500</out>
						<pproTicksIn>0</pproTicksIn>
						<pproTicksOut>875013995520000</pproTicksOut>
						<alphatype>none</alphatype>
						<pixelaspectratio>square</pixelaspectratio>
						<anamorphic>FALSE</anamorphic>
						<file id="file-31">
							<name>Taylor_Swift_Travis_Kelce_-_The_New_Power_Couple.mp4</name>
							<pathurl>file://localhost/Users/themalikano/Documents/VideoAutomation/premiere_videos/Taylor_Swift_Travis_Kelce_-_The_New_Power_Couple.mp4</pathurl>
							<rate>
								<timebase>25</timebase>
								<ntsc>FALSE</ntsc>
							</rate>
							<duration>86118</duration>
							<timecode>
								<rate>
									<timebase>25</timebase>
									<ntsc>FALSE</ntsc>
								</rate>
								<string>00:00:00:00</string>
								<frame>0</frame>
								<displayformat>NDF</displayformat>
							</timecode>
							<media>
								<video>
									<samplecharacteristics>
										<rate>
											<timebase>25</timebase>
											<ntsc>FALSE</ntsc>
										</rate>
										<width>1920</width>
										<height>1080</height>
										<anamorphic>FALSE</anamorphic>
										<pixelaspectratio>square</pixelaspectratio>
										<fielddominance>none</fielddominance>
									</samplecharacteristics>
								</video>
								<audio>
									<samplecharacteristics>
										<depth>16</depth>
										<samplerate>44100</samplerate>
									</samplecharacteristics>
									<channelcount>2</channelcount>
								</audio>
							</media>
						</file>
						<link>
							<linkclipref>clipitem-87</linkclipref>
							<mediatype>video</mediatype>
							<trackindex>1</trackindex>
							<clipindex>3</clipindex>
						</link>
						<link>
							<linkclipref>clipitem-95</linkclipref>
							<mediatype>audio</mediatype>
							<trackindex>1</trackindex>
							<clipindex>3</clipindex>
							<groupindex>1</groupindex>
						</link>
						<link>
							<linkclipref>clipitem-103</linkclipref>
							<mediatype>audio</mediatype>
							<trackindex>2</trackindex>
							<clipindex>3</clipindex>
							<groupindex>1</groupindex>
						</link>
						<logginginfo>
							<description />
							<scene />
							<shottake />
							<lognote />
							<good />
							<originalvideofilename />
							<originalaudiofilename />
						</logginginfo>
						<colorinfo>
							<lut />
							<lut1 />
							<asc_sop />
							<asc_sat />
							<lut2 />
						</colorinfo>
					<labels><label2>Caribbean</label2></labels></clipitem>
					<clipitem id="clipitem-88">
						<masterclipid>clipitem-4-111</masterclipid>
						<name>Travis_Kelce_ANNOUNCE_WEDDING_DATE_with_Taylor_Swift_Why_He_was_Delaying_all_Along.mp4</name>
						<enabled>TRUE</enabled>
						<duration>150</duration>
						<rate>
							<timebase>25</timebase>
							<ntsc>FALSE</ntsc>
						</rate>
						<start>125400</start>
						<end>125550</end>
						<in>16500</in>
						<out>16650</out>
						<pproTicksIn>0</pproTicksIn>
						<pproTicksOut>419410897920000</pproTicksOut>
						<alphatype>none</alphatype>
						<pixelaspectratio>square</pixelaspectratio>
						<anamorphic>FALSE</anamorphic>
						<file id="file-32">
							<name>Travis_Kelce_ANNOUNCE_WEDDING_DATE_with_Taylor_Swift_Why_He_was_Delaying_all_Along.mp4</name>
							<pathurl>file://localhost/Users/themalikano/Documents/VideoAutomation/premiere_videos/Travis_Kelce_ANNOUNCE_WEDDING_DATE_with_Taylor_Swift_Why_He_was_Delaying_all_Along.mp4</pathurl>
							<rate>
								<timebase>24</timebase>
								<ntsc>FALSE</ntsc>
							</rate>
							<duration>39627</duration>
							<timecode>
								<rate>
									<timebase>24</timebase>
									<ntsc>FALSE</ntsc>
								</rate>
								<string>00:00:00:00</string>
								<frame>0</frame>
								<displayformat>NDF</displayformat>
							</timecode>
							<media>
								<video>
									<samplecharacteristics>
										<rate>
											<timebase>24</timebase>
											<ntsc>FALSE</ntsc>
										</rate>
										<width>852</width>
										<height>480</height>
										<anamorphic>FALSE</anamorphic>
										<pixelaspectratio>square</pixelaspectratio>
										<fielddominance>none</fielddominance>
									</samplecharacteristics>
								</video>
								<audio>
									<samplecharacteristics>
										<depth>16</depth>
										<samplerate>44100</samplerate>
									</samplecharacteristics>
									<channelcount>2</channelcount>
								</audio>
							</media>
						</file>
						<filter>
							<effect>
								<name>Basic Motion</name>
								<effectid>basic</effectid>
								<effectcategory>motion</effectcategory>
								<effecttype>motion</effecttype>
								<mediatype>video</mediatype>
								<pproBypass>false</pproBypass>
								<parameter authoringApp="PremierePro">
									<parameterid>scale</parameterid>
									<name>Scale</name>
									<valuemin>0</valuemin>
									<valuemax>1000</valuemax>
									<value>225</value>
								</parameter>
								<parameter authoringApp="PremierePro">
									<parameterid>rotation</parameterid>
									<name>Rotation</name>
									<valuemin>-8640</valuemin>
									<valuemax>8640</valuemax>
									<value>0</value>
								</parameter>
								<parameter authoringApp="PremierePro">
									<parameterid>center</parameterid>
									<name>Center</name>
									<value>
										<horiz>0</horiz>
										<vert>0</vert>
									</value>
								</parameter>
								<parameter authoringApp="PremierePro">
									<parameterid>centerOffset</parameterid>
									<name>Anchor Point</name>
									<value>
										<horiz>0</horiz>
										<vert>0</vert>
									</value>
								</parameter>
								<parameter authoringApp="PremierePro">
									<parameterid>antiflicker</parameterid>
									<name>Anti-flicker Filter</name>
									<valuemin>0.0</valuemin>
									<valuemax>1.0</valuemax>
									<value>0</value>
								</parameter>
							</effect>
						</filter>
						<link>
							<linkclipref>clipitem-88</linkclipref>
							<mediatype>video</mediatype>
							<trackindex>1</trackindex>
							<clipindex>4</clipindex>
						</link>
						<link>
							<linkclipref>clipitem-96</linkclipref>
							<mediatype>audio</mediatype>
							<trackindex>1</trackindex>
							<clipindex>4</clipindex>
							<groupindex>1</groupindex>
						</link>
						<link>
							<linkclipref>clipitem-104</linkclipref>
							<mediatype>audio</mediatype>
							<trackindex>2</trackindex>
							<clipindex>4</clipindex>
							<groupindex>1</groupindex>
						</link>
						<logginginfo>
							<description />
							<scene />
							<shottake />
							<lognote />
							<good />
							<originalvideofilename />
							<originalaudiofilename />
						</logginginfo>
						<colorinfo>
							<lut />
							<lut1 />
							<asc_sop />
							<asc_sat />
							<lut2 />
						</colorinfo>
					<labels><label2>Lavender</label2></labels></clipitem>
					<clipitem id="clipitem-87">
						<masterclipid>clipitem-3-513</masterclipid>
						<name>Taylor_Swift_Travis_Kelce_-_The_New_Power_Couple.mp4</name>
						<enabled>TRUE</enabled>
						<duration>150</duration>
						<rate>
							<timebase>25</timebase>
							<ntsc>FALSE</ntsc>
						</rate>
						<start>125550</start>
						<end>125700</end>
						<in>76800</in>
						<out>76950</out>
						<pproTicksIn>0</pproTicksIn>
						<pproTicksOut>875013995520000</pproTicksOut>
						<alphatype>none</alphatype>
						<pixelaspectratio>square</pixelaspectratio>
						<anamorphic>FALSE</anamorphic>
						<file id="file-31">
							<name>Taylor_Swift_Travis_Kelce_-_The_New_Power_Couple.mp4</name>
							<pathurl>file://localhost/Users/themalikano/Documents/VideoAutomation/premiere_videos/Taylor_Swift_Travis_Kelce_-_The_New_Power_Couple.mp4</pathurl>
							<rate>
								<timebase>25</timebase>
								<ntsc>FALSE</ntsc>
							</rate>
							<duration>86118</duration>
							<timecode>
								<rate>
									<timebase>25</timebase>
									<ntsc>FALSE</ntsc>
								</rate>
								<string>00:00:00:00</string>
								<frame>0</frame>
								<displayformat>NDF</displayformat>
							</timecode>
							<media>
								<video>
									<samplecharacteristics>
										<rate>
											<timebase>25</timebase>
											<ntsc>FALSE</ntsc>
										</rate>
										<width>1920</width>
										<height>1080</height>
										<anamorphic>FALSE</anamorphic>
										<pixelaspectratio>square</pixelaspectratio>
										<fielddominance>none</fielddominance>
									</samplecharacteristics>
								</video>
								<audio>
									<samplecharacteristics>
										<depth>16</depth>
										<samplerate>44100</samplerate>
									</samplecharacteristics>
									<channelcount>2</channelcount>
								</audio>
							</media>
						</file>
						<link>
							<linkclipref>clipitem-87</linkclipref>
							<mediatype>video</mediatype>
							<trackindex>1</trackindex>
							<clipindex>3</clipindex>
						</link>
						<link>
							<linkclipref>clipitem-95</linkclipref>
							<mediatype>audio</mediatype>
							<trackindex>1</trackindex>
							<clipindex>3</clipindex>
							<groupindex>1</groupindex>
						</link>
						<link>
							<linkclipref>clipitem-103</linkclipref>
							<mediatype>audio</mediatype>
							<trackindex>2</trackindex>
							<clipindex>3</clipindex>
							<groupindex>1</groupindex>
						</link>
						<logginginfo>
							<description />
							<scene />
							<shottake />
							<lognote />
							<good />
							<originalvideofilename />
							<originalaudiofilename />
						</logginginfo>
						<colorinfo>
							<lut />
							<lut1 />
							<asc_sop />
							<asc_sat />
							<lut2 />
						</colorinfo>
					<labels><label2>Caribbean</label2></labels></clipitem>
					<clipitem id="clipitem-88">
						<masterclipid>clipitem-4-258</masterclipid>
						<name>Travis_Kelce_ANNOUNCE_WEDDING_DATE_with_Taylor_Swift_Why_He_was_Delaying_all_Along.mp4</name>
						<enabled>TRUE</enabled>
						<duration>150</duration>
						<rate>
							<timebase>25</timebase>
							<ntsc>FALSE</ntsc>
						</rate>
						<start>125700</start>
						<end>125850</end>
						<in>38550</in>
						<out>38700</out>
						<pproTicksIn>0</pproTicksIn>
						<pproTicksOut>419410897920000</pproTicksOut>
						<alphatype>none</alphatype>
						<pixelaspectratio>square</pixelaspectratio>
						<anamorphic>FALSE</anamorphic>
						<file id="file-32">
							<name>Travis_Kelce_ANNOUNCE_WEDDING_DATE_with_Taylor_Swift_Why_He_was_Delaying_all_Along.mp4</name>
							<pathurl>file://localhost/Users/themalikano/Documents/VideoAutomation/premiere_videos/Travis_Kelce_ANNOUNCE_WEDDING_DATE_with_Taylor_Swift_Why_He_was_Delaying_all_Along.mp4</pathurl>
							<rate>
								<timebase>24</timebase>
								<ntsc>FALSE</ntsc>
							</rate>
							<duration>39627</duration>
							<timecode>
								<rate>
									<timebase>24</timebase>
									<ntsc>FALSE</ntsc>
								</rate>
								<string>00:00:00:00</string>
								<frame>0</frame>
								<displayformat>NDF</displayformat>
							</timecode>
							<media>
								<video>
									<samplecharacteristics>
										<rate>
											<timebase>24</timebase>
											<ntsc>FALSE</ntsc>
										</rate>
										<width>852</width>
										<height>480</height>
										<anamorphic>FALSE</anamorphic>
										<pixelaspectratio>square</pixelaspectratio>
										<fielddominance>none</fielddominance>
									</samplecharacteristics>
								</video>
								<audio>
									<samplecharacteristics>
										<depth>16</depth>
										<samplerate>44100</samplerate>
									</samplecharacteristics>
									<channelcount>2</channelcount>
								</audio>
							</media>
						</file>
						<filter>
							<effect>
								<name>Basic Motion</name>
								<effectid>basic</effectid>
								<effectcategory>motion</effectcategory>
								<effecttype>motion</effecttype>
								<mediatype>video</mediatype>
								<pproBypass>false</pproBypass>
								<parameter authoringApp="PremierePro">
									<parameterid>scale</parameterid>
									<name>Scale</name>
									<valuemin>0</valuemin>
									<valuemax>1000</valuemax>
									<value>225</value>
								</parameter>
								<parameter authoringApp="PremierePro">
									<parameterid>rotation</parameterid>
									<name>Rotation</name>
									<valuemin>-8640</valuemin>
									<valuemax>8640</valuemax>
									<value>0</value>
								</parameter>
								<parameter authoringApp="PremierePro">
									<parameterid>center</parameterid>
									<name>Center</name>
									<value>
										<horiz>0</horiz>
										<vert>0</vert>
									</value>
								</parameter>
								<parameter authoringApp="PremierePro">
									<parameterid>centerOffset</parameterid>
									<name>Anchor Point</name>
									<value>
										<horiz>0</horiz>
										<vert>0</vert>
									</value>
								</parameter>
								<parameter authoringApp="PremierePro">
									<parameterid>antiflicker</parameterid>
									<name>Anti-flicker Filter</name>
									<valuemin>0.0</valuemin>
									<valuemax>1.0</valuemax>
									<value>0</value>
								</parameter>
							</effect>
						</filter>
						<link>
							<linkclipref>clipitem-88</linkclipref>
							<mediatype>video</mediatype>
							<trackindex>1</trackindex>
							<clipindex>4</clipindex>
						</link>
						<link>
							<linkclipref>clipitem-96</linkclipref>
							<mediatype>audio</mediatype>
							<trackindex>1</trackindex>
							<clipindex>4</clipindex>
							<groupindex>1</groupindex>
						</link>
						<link>
							<linkclipref>clipitem-104</linkclipref>
							<mediatype>audio</mediatype>
							<trackindex>2</trackindex>
							<clipindex>4</clipindex>
							<groupindex>1</groupindex>
						</link>
						<logginginfo>
							<description />
							<scene />
							<shottake />
							<lognote />
							<good />
							<originalvideofilename />
							<originalaudiofilename />
						</logginginfo>
						<colorinfo>
							<lut />
							<lut1 />
							<asc_sop />
							<asc_sat />
							<lut2 />
						</colorinfo>
					<labels><label2>Lavender</label2></labels></clipitem>
					<clipitem id="clipitem-87">
						<masterclipid>clipitem-3-365</masterclipid>
						<name>Taylor_Swift_Travis_Kelce_-_The_New_Power_Couple.mp4</name>
						<enabled>TRUE</enabled>
						<duration>150</duration>
						<rate>
							<timebase>25</timebase>
							<ntsc>FALSE</ntsc>
						</rate>
						<start>125850</start>
						<end>126000</end>
						<in>54600</in>
						<out>54750</out>
						<pproTicksIn>0</pproTicksIn>
						<pproTicksOut>875013995520000</pproTicksOut>
						<alphatype>none</alphatype>
						<pixelaspectratio>square</pixelaspectratio>
						<anamorphic>FALSE</anamorphic>
						<file id="file-31">
							<name>Taylor_Swift_Travis_Kelce_-_The_New_Power_Couple.mp4</name>
							<pathurl>file://localhost/Users/themalikano/Documents/VideoAutomation/premiere_videos/Taylor_Swift_Travis_Kelce_-_The_New_Power_Couple.mp4</pathurl>
							<rate>
								<timebase>25</timebase>
								<ntsc>FALSE</ntsc>
							</rate>
							<duration>86118</duration>
							<timecode>
								<rate>
									<timebase>25</timebase>
									<ntsc>FALSE</ntsc>
								</rate>
								<string>00:00:00:00</string>
								<frame>0</frame>
								<displayformat>NDF</displayformat>
							</timecode>
							<media>
								<video>
									<samplecharacteristics>
										<rate>
											<timebase>25</timebase>
											<ntsc>FALSE</ntsc>
										</rate>
										<width>1920</width>
										<height>1080</height>
										<anamorphic>FALSE</anamorphic>
										<pixelaspectratio>square</pixelaspectratio>
										<fielddominance>none</fielddominance>
									</samplecharacteristics>
								</video>
								<audio>
									<samplecharacteristics>
										<depth>16</depth>
										<samplerate>44100</samplerate>
									</samplecharacteristics>
									<channelcount>2</channelcount>
								</audio>
							</media>
						</file>
						<link>
							<linkclipref>clipitem-87</linkclipref>
							<mediatype>video</mediatype>
							<trackindex>1</trackindex>
							<clipindex>3</clipindex>
						</link>
						<link>
							<linkclipref>clipitem-95</linkclipref>
							<mediatype>audio</mediatype>
							<trackindex>1</trackindex>
							<clipindex>3</clipindex>
							<groupindex>1</groupindex>
						</link>
						<link>
							<linkclipref>clipitem-103</linkclipref>
							<mediatype>audio</mediatype>
							<trackindex>2</trackindex>
							<clipindex>3</clipindex>
							<groupindex>1</groupindex>
						</link>
						<logginginfo>
							<description />
							<scene />
							<shottake />
							<lognote />
							<good />
							<originalvideofilename />
							<originalaudiofilename />
						</logginginfo>
						<colorinfo>
							<lut />
							<lut1 />
							<asc_sop />
							<asc_sat />
							<lut2 />
						</colorinfo>
					<labels><label2>Caribbean</label2></labels></clipitem>
					<clipitem id="clipitem-88">
						<masterclipid>clipitem-4-194</masterclipid>
						<name>Travis_Kelce_ANNOUNCE_WEDDING_DATE_with_Taylor_Swift_Why_He_was_Delaying_all_Along.mp4</name>
						<enabled>TRUE</enabled>
						<duration>150</duration>
						<rate>
							<timebase>25</timebase>
							<ntsc>FALSE</ntsc>
						</rate>
						<start>126000</start>
						<end>126150</end>
						<in>28950</in>
						<out>29100</out>
						<pproTicksIn>0</pproTicksIn>
						<pproTicksOut>419410897920000</pproTicksOut>
						<alphatype>none</alphatype>
						<pixelaspectratio>square</pixelaspectratio>
						<anamorphic>FALSE</anamorphic>
						<file id="file-32">
							<name>Travis_Kelce_ANNOUNCE_WEDDING_DATE_with_Taylor_Swift_Why_He_was_Delaying_all_Along.mp4</name>
							<pathurl>file://localhost/Users/themalikano/Documents/VideoAutomation/premiere_videos/Travis_Kelce_ANNOUNCE_WEDDING_DATE_with_Taylor_Swift_Why_He_was_Delaying_all_Along.mp4</pathurl>
							<rate>
								<timebase>24</timebase>
								<ntsc>FALSE</ntsc>
							</rate>
							<duration>39627</duration>
							<timecode>
								<rate>
									<timebase>24</timebase>
									<ntsc>FALSE</ntsc>
								</rate>
								<string>00:00:00:00</string>
								<frame>0</frame>
								<displayformat>NDF</displayformat>
							</timecode>
							<media>
								<video>
									<samplecharacteristics>
										<rate>
											<timebase>24</timebase>
											<ntsc>FALSE</ntsc>
										</rate>
										<width>852</width>
										<height>480</height>
										<anamorphic>FALSE</anamorphic>
										<pixelaspectratio>square</pixelaspectratio>
										<fielddominance>none</fielddominance>
									</samplecharacteristics>
								</video>
								<audio>
									<samplecharacteristics>
										<depth>16</depth>
										<samplerate>44100</samplerate>
									</samplecharacteristics>
									<channelcount>2</channelcount>
								</audio>
							</media>
						</file>
						<filter>
							<effect>
								<name>Basic Motion</name>
								<effectid>basic</effectid>
								<effectcategory>motion</effectcategory>
								<effecttype>motion</effecttype>
								<mediatype>video</mediatype>
								<pproBypass>false</pproBypass>
								<parameter authoringApp="PremierePro">
									<parameterid>scale</parameterid>
									<name>Scale</name>
									<valuemin>0</valuemin>
									<valuemax>1000</valuemax>
									<value>225</value>
								</parameter>
								<parameter authoringApp="PremierePro">
									<parameterid>rotation</parameterid>
									<name>Rotation</name>
									<valuemin>-8640</valuemin>
									<valuemax>8640</valuemax>
									<value>0</value>
								</parameter>
								<parameter authoringApp="PremierePro">
									<parameterid>center</parameterid>
									<name>Center</name>
									<value>
										<horiz>0</horiz>
										<vert>0</vert>
									</value>
								</parameter>
								<parameter authoringApp="PremierePro">
									<parameterid>centerOffset</parameterid>
									<name>Anchor Point</name>
									<value>
										<horiz>0</horiz>
										<vert>0</vert>
									</value>
								</parameter>
								<parameter authoringApp="PremierePro">
									<parameterid>antiflicker</parameterid>
									<name>Anti-flicker Filter</name>
									<valuemin>0.0</valuemin>
									<valuemax>1.0</valuemax>
									<value>0</value>
								</parameter>
							</effect>
						</filter>
						<link>
							<linkclipref>clipitem-88</linkclipref>
							<mediatype>video</mediatype>
							<trackindex>1</trackindex>
							<clipindex>4</clipindex>
						</link>
						<link>
							<linkclipref>clipitem-96</linkclipref>
							<mediatype>audio</mediatype>
							<trackindex>1</trackindex>
							<clipindex>4</clipindex>
							<groupindex>1</groupindex>
						</link>
						<link>
							<linkclipref>clipitem-104</linkclipref>
							<mediatype>audio</mediatype>
							<trackindex>2</trackindex>
							<clipindex>4</clipindex>
							<groupindex>1</groupindex>
						</link>
						<logginginfo>
							<description />
							<scene />
							<shottake />
							<lognote />
							<good />
							<originalvideofilename />
							<originalaudiofilename />
						</logginginfo>
						<colorinfo>
							<lut />
							<lut1 />
							<asc_sop />
							<asc_sat />
							<lut2 />
						</colorinfo>
					<labels><label2>Lavender</label2></labels></clipitem>
					<clipitem id="clipitem-87">
						<masterclipid>clipitem-3-62</masterclipid>
						<name>Taylor_Swift_Travis_Kelce_-_The_New_Power_Couple.mp4</name>
						<enabled>TRUE</enabled>
						<duration>150</duration>
						<rate>
							<timebase>25</timebase>
							<ntsc>FALSE</ntsc>
						</rate>
						<start>126150</start>
						<end>126300</end>
						<in>9150</in>
						<out>9300</out>
						<pproTicksIn>0</pproTicksIn>
						<pproTicksOut>875013995520000</pproTicksOut>
						<alphatype>none</alphatype>
						<pixelaspectratio>square</pixelaspectratio>
						<anamorphic>FALSE</anamorphic>
						<file id="file-31">
							<name>Taylor_Swift_Travis_Kelce_-_The_New_Power_Couple.mp4</name>
							<pathurl>file://localhost/Users/themalikano/Documents/VideoAutomation/premiere_videos/Taylor_Swift_Travis_Kelce_-_The_New_Power_Couple.mp4</pathurl>
							<rate>
								<timebase>25</timebase>
								<ntsc>FALSE</ntsc>
							</rate>
							<duration>86118</duration>
							<timecode>
								<rate>
									<timebase>25</timebase>
									<ntsc>FALSE</ntsc>
								</rate>
								<string>00:00:00:00</string>
								<frame>0</frame>
								<displayformat>NDF</displayformat>
							</timecode>
							<media>
								<video>
									<samplecharacteristics>
										<rate>
											<timebase>25</timebase>
											<ntsc>FALSE</ntsc>
										</rate>
										<width>1920</width>
										<height>1080</height>
										<anamorphic>FALSE</anamorphic>
										<pixelaspectratio>square</pixelaspectratio>
										<fielddominance>none</fielddominance>
									</samplecharacteristics>
								</video>
								<audio>
									<samplecharacteristics>
										<depth>16</depth>
										<samplerate>44100</samplerate>
									</samplecharacteristics>
									<channelcount>2</channelcount>
								</audio>
							</media>
						</file>
						<link>
							<linkclipref>clipitem-87</linkclipref>
							<mediatype>video</mediatype>
							<trackindex>1</trackindex>
							<clipindex>3</clipindex>
						</link>
						<link>
							<linkclipref>clipitem-95</linkclipref>
							<mediatype>audio</mediatype>
							<trackindex>1</trackindex>
							<clipindex>3</clipindex>
							<groupindex>1</groupindex>
						</link>
						<link>
							<linkclipref>clipitem-103</linkclipref>
							<mediatype>audio</mediatype>
							<trackindex>2</trackindex>
							<clipindex>3</clipindex>
							<groupindex>1</groupindex>
						</link>
						<logginginfo>
							<description />
							<scene />
							<shottake />
							<lognote />
							<good />
							<originalvideofilename />
							<originalaudiofilename />
						</logginginfo>
						<colorinfo>
							<lut />
							<lut1 />
							<asc_sop />
							<asc_sat />
							<lut2 />
						</colorinfo>
					<labels><label2>Caribbean</label2></labels></clipitem>
					<clipitem id="clipitem-88">
						<masterclipid>clipitem-4-38</masterclipid>
						<name>Travis_Kelce_ANNOUNCE_WEDDING_DATE_with_Taylor_Swift_Why_He_was_Delaying_all_Along.mp4</name>
						<enabled>TRUE</enabled>
						<duration>150</duration>
						<rate>
							<timebase>25</timebase>
							<ntsc>FALSE</ntsc>
						</rate>
						<start>126300</start>
						<end>126450</end>
						<in>5550</in>
						<out>5700</out>
						<pproTicksIn>0</pproTicksIn>
						<pproTicksOut>419410897920000</pproTicksOut>
						<alphatype>none</alphatype>
						<pixelaspectratio>square</pixelaspectratio>
						<anamorphic>FALSE</anamorphic>
						<file id="file-32">
							<name>Travis_Kelce_ANNOUNCE_WEDDING_DATE_with_Taylor_Swift_Why_He_was_Delaying_all_Along.mp4</name>
							<pathurl>file://localhost/Users/themalikano/Documents/VideoAutomation/premiere_videos/Travis_Kelce_ANNOUNCE_WEDDING_DATE_with_Taylor_Swift_Why_He_was_Delaying_all_Along.mp4</pathurl>
							<rate>
								<timebase>24</timebase>
								<ntsc>FALSE</ntsc>
							</rate>
							<duration>39627</duration>
							<timecode>
								<rate>
									<timebase>24</timebase>
									<ntsc>FALSE</ntsc>
								</rate>
								<string>00:00:00:00</string>
								<frame>0</frame>
								<displayformat>NDF</displayformat>
							</timecode>
							<media>
								<video>
									<samplecharacteristics>
										<rate>
											<timebase>24</timebase>
											<ntsc>FALSE</ntsc>
										</rate>
										<width>852</width>
										<height>480</height>
										<anamorphic>FALSE</anamorphic>
										<pixelaspectratio>square</pixelaspectratio>
										<fielddominance>none</fielddominance>
									</samplecharacteristics>
								</video>
								<audio>
									<samplecharacteristics>
										<depth>16</depth>
										<samplerate>44100</samplerate>
									</samplecharacteristics>
									<channelcount>2</channelcount>
								</audio>
							</media>
						</file>
						<filter>
							<effect>
								<name>Basic Motion</name>
								<effectid>basic</effectid>
								<effectcategory>motion</effectcategory>
								<effecttype>motion</effecttype>
								<mediatype>video</mediatype>
								<pproBypass>false</pproBypass>
								<parameter authoringApp="PremierePro">
									<parameterid>scale</parameterid>
									<name>Scale</name>
									<valuemin>0</valuemin>
									<valuemax>1000</valuemax>
									<value>225</value>
								</parameter>
								<parameter authoringApp="PremierePro">
									<parameterid>rotation</parameterid>
									<name>Rotation</name>
									<valuemin>-8640</valuemin>
									<valuemax>8640</valuemax>
									<value>0</value>
								</parameter>
								<parameter authoringApp="PremierePro">
									<parameterid>center</parameterid>
									<name>Center</name>
									<value>
										<horiz>0</horiz>
										<vert>0</vert>
									</value>
								</parameter>
								<parameter authoringApp="PremierePro">
									<parameterid>centerOffset</parameterid>
									<name>Anchor Point</name>
									<value>
										<horiz>0</horiz>
										<vert>0</vert>
									</value>
								</parameter>
								<parameter authoringApp="PremierePro">
									<parameterid>antiflicker</parameterid>
									<name>Anti-flicker Filter</name>
									<valuemin>0.0</valuemin>
									<valuemax>1.0</valuemax>
									<value>0</value>
								</parameter>
							</effect>
						</filter>
						<link>
							<linkclipref>clipitem-88</linkclipref>
							<mediatype>video</mediatype>
							<trackindex>1</trackindex>
							<clipindex>4</clipindex>
						</link>
						<link>
							<linkclipref>clipitem-96</linkclipref>
							<mediatype>audio</mediatype>
							<trackindex>1</trackindex>
							<clipindex>4</clipindex>
							<groupindex>1</groupindex>
						</link>
						<link>
							<linkclipref>clipitem-104</linkclipref>
							<mediatype>audio</mediatype>
							<trackindex>2</trackindex>
							<clipindex>4</clipindex>
							<groupindex>1</groupindex>
						</link>
						<logginginfo>
							<description />
							<scene />
							<shottake />
							<lognote />
							<good />
							<originalvideofilename />
							<originalaudiofilename />
						</logginginfo>
						<colorinfo>
							<lut />
							<lut1 />
							<asc_sop />
							<asc_sat />
							<lut2 />
						</colorinfo>
					<labels><label2>Lavender</label2></labels></clipitem>
					<clipitem id="clipitem-87">
						<masterclipid>clipitem-3-400</masterclipid>
						<name>Taylor_Swift_Travis_Kelce_-_The_New_Power_Couple.mp4</name>
						<enabled>TRUE</enabled>
						<duration>150</duration>
						<rate>
							<timebase>25</timebase>
							<ntsc>FALSE</ntsc>
						</rate>
						<start>126450</start>
						<end>126600</end>
						<in>59850</in>
						<out>60000</out>
						<pproTicksIn>0</pproTicksIn>
						<pproTicksOut>875013995520000</pproTicksOut>
						<alphatype>none</alphatype>
						<pixelaspectratio>square</pixelaspectratio>
						<anamorphic>FALSE</anamorphic>
						<file id="file-31">
							<name>Taylor_Swift_Travis_Kelce_-_The_New_Power_Couple.mp4</name>
							<pathurl>file://localhost/Users/themalikano/Documents/VideoAutomation/premiere_videos/Taylor_Swift_Travis_Kelce_-_The_New_Power_Couple.mp4</pathurl>
							<rate>
								<timebase>25</timebase>
								<ntsc>FALSE</ntsc>
							</rate>
							<duration>86118</duration>
							<timecode>
								<rate>
									<timebase>25</timebase>
									<ntsc>FALSE</ntsc>
								</rate>
								<string>00:00:00:00</string>
								<frame>0</frame>
								<displayformat>NDF</displayformat>
							</timecode>
							<media>
								<video>
									<samplecharacteristics>
										<rate>
											<timebase>25</timebase>
											<ntsc>FALSE</ntsc>
										</rate>
										<width>1920</width>
										<height>1080</height>
										<anamorphic>FALSE</anamorphic>
										<pixelaspectratio>square</pixelaspectratio>
										<fielddominance>none</fielddominance>
									</samplecharacteristics>
								</video>
								<audio>
									<samplecharacteristics>
										<depth>16</depth>
										<samplerate>44100</samplerate>
									</samplecharacteristics>
									<channelcount>2</channelcount>
								</audio>
							</media>
						</file>
						<link>
							<linkclipref>clipitem-87</linkclipref>
							<mediatype>video</mediatype>
							<trackindex>1</trackindex>
							<clipindex>3</clipindex>
						</link>
						<link>
							<linkclipref>clipitem-95</linkclipref>
							<mediatype>audio</mediatype>
							<trackindex>1</trackindex>
							<clipindex>3</clipindex>
							<groupindex>1</groupindex>
						</link>
						<link>
							<linkclipref>clipitem-103</linkclipref>
							<mediatype>audio</mediatype>
							<trackindex>2</trackindex>
							<clipindex>3</clipindex>
							<groupindex>1</groupindex>
						</link>
						<logginginfo>
							<description />
							<scene />
							<shottake />
							<lognote />
							<good />
							<originalvideofilename />
							<originalaudiofilename />
						</logginginfo>
						<colorinfo>
							<lut />
							<lut1 />
							<asc_sop />
							<asc_sat />
							<lut2 />
						</colorinfo>
					<labels><label2>Caribbean</label2></labels></clipitem>
					<clipitem id="clipitem-88">
						<masterclipid>clipitem-4-168</masterclipid>
						<name>Travis_Kelce_ANNOUNCE_WEDDING_DATE_with_Taylor_Swift_Why_He_was_Delaying_all_Along.mp4</name>
						<enabled>TRUE</enabled>
						<duration>150</duration>
						<rate>
							<timebase>25</timebase>
							<ntsc>FALSE</ntsc>
						</rate>
						<start>126600</start>
						<end>126750</end>
						<in>25050</in>
						<out>25200</out>
						<pproTicksIn>0</pproTicksIn>
						<pproTicksOut>419410897920000</pproTicksOut>
						<alphatype>none</alphatype>
						<pixelaspectratio>square</pixelaspectratio>
						<anamorphic>FALSE</anamorphic>
						<file id="file-32">
							<name>Travis_Kelce_ANNOUNCE_WEDDING_DATE_with_Taylor_Swift_Why_He_was_Delaying_all_Along.mp4</name>
							<pathurl>file://localhost/Users/themalikano/Documents/VideoAutomation/premiere_videos/Travis_Kelce_ANNOUNCE_WEDDING_DATE_with_Taylor_Swift_Why_He_was_Delaying_all_Along.mp4</pathurl>
							<rate>
								<timebase>24</timebase>
								<ntsc>FALSE</ntsc>
							</rate>
							<duration>39627</duration>
							<timecode>
								<rate>
									<timebase>24</timebase>
									<ntsc>FALSE</ntsc>
								</rate>
								<string>00:00:00:00</string>
								<frame>0</frame>
								<displayformat>NDF</displayformat>
							</timecode>
							<media>
								<video>
									<samplecharacteristics>
										<rate>
											<timebase>24</timebase>
											<ntsc>FALSE</ntsc>
										</rate>
										<width>852</width>
										<height>480</height>
										<anamorphic>FALSE</anamorphic>
										<pixelaspectratio>square</pixelaspectratio>
										<fielddominance>none</fielddominance>
									</samplecharacteristics>
								</video>
								<audio>
									<samplecharacteristics>
										<depth>16</depth>
										<samplerate>44100</samplerate>
									</samplecharacteristics>
									<channelcount>2</channelcount>
								</audio>
							</media>
						</file>
						<filter>
							<effect>
								<name>Basic Motion</name>
								<effectid>basic</effectid>
								<effectcategory>motion</effectcategory>
								<effecttype>motion</effecttype>
								<mediatype>video</mediatype>
								<pproBypass>false</pproBypass>
								<parameter authoringApp="PremierePro">
									<parameterid>scale</parameterid>
									<name>Scale</name>
									<valuemin>0</valuemin>
									<valuemax>1000</valuemax>
									<value>225</value>
								</parameter>
								<parameter authoringApp="PremierePro">
									<parameterid>rotation</parameterid>
									<name>Rotation</name>
									<valuemin>-8640</valuemin>
									<valuemax>8640</valuemax>
									<value>0</value>
								</parameter>
								<parameter authoringApp="PremierePro">
									<parameterid>center</parameterid>
									<name>Center</name>
									<value>
										<horiz>0</horiz>
										<vert>0</vert>
									</value>
								</parameter>
								<parameter authoringApp="PremierePro">
									<parameterid>centerOffset</parameterid>
									<name>Anchor Point</name>
									<value>
										<horiz>0</horiz>
										<vert>0</vert>
									</value>
								</parameter>
								<parameter authoringApp="PremierePro">
									<parameterid>antiflicker</parameterid>
									<name>Anti-flicker Filter</name>
									<valuemin>0.0</valuemin>
									<valuemax>1.0</valuemax>
									<value>0</value>
								</parameter>
							</effect>
						</filter>
						<link>
							<linkclipref>clipitem-88</linkclipref>
							<mediatype>video</mediatype>
							<trackindex>1</trackindex>
							<clipindex>4</clipindex>
						</link>
						<link>
							<linkclipref>clipitem-96</linkclipref>
							<mediatype>audio</mediatype>
							<trackindex>1</trackindex>
							<clipindex>4</clipindex>
							<groupindex>1</groupindex>
						</link>
						<link>
							<linkclipref>clipitem-104</linkclipref>
							<mediatype>audio</mediatype>
							<trackindex>2</trackindex>
							<clipindex>4</clipindex>
							<groupindex>1</groupindex>
						</link>
						<logginginfo>
							<description />
							<scene />
							<shottake />
							<lognote />
							<good />
							<originalvideofilename />
							<originalaudiofilename />
						</logginginfo>
						<colorinfo>
							<lut />
							<lut1 />
							<asc_sop />
							<asc_sat />
							<lut2 />
						</colorinfo>
					<labels><label2>Lavender</label2></labels></clipitem>
					<clipitem id="clipitem-87">
						<masterclipid>clipitem-3-136</masterclipid>
						<name>Taylor_Swift_Travis_Kelce_-_The_New_Power_Couple.mp4</name>
						<enabled>TRUE</enabled>
						<duration>150</duration>
						<rate>
							<timebase>25</timebase>
							<ntsc>FALSE</ntsc>
						</rate>
						<start>126750</start>
						<end>126900</end>
						<in>20250</in>
						<out>20400</out>
						<pproTicksIn>0</pproTicksIn>
						<pproTicksOut>875013995520000</pproTicksOut>
						<alphatype>none</alphatype>
						<pixelaspectratio>square</pixelaspectratio>
						<anamorphic>FALSE</anamorphic>
						<file id="file-31">
							<name>Taylor_Swift_Travis_Kelce_-_The_New_Power_Couple.mp4</name>
							<pathurl>file://localhost/Users/themalikano/Documents/VideoAutomation/premiere_videos/Taylor_Swift_Travis_Kelce_-_The_New_Power_Couple.mp4</pathurl>
							<rate>
								<timebase>25</timebase>
								<ntsc>FALSE</ntsc>
							</rate>
							<duration>86118</duration>
							<timecode>
								<rate>
									<timebase>25</timebase>
									<ntsc>FALSE</ntsc>
								</rate>
								<string>00:00:00:00</string>
								<frame>0</frame>
								<displayformat>NDF</displayformat>
							</timecode>
							<media>
								<video>
									<samplecharacteristics>
										<rate>
											<timebase>25</timebase>
											<ntsc>FALSE</ntsc>
										</rate>
										<width>1920</width>
										<height>1080</height>
										<anamorphic>FALSE</anamorphic>
										<pixelaspectratio>square</pixelaspectratio>
										<fielddominance>none</fielddominance>
									</samplecharacteristics>
								</video>
								<audio>
									<samplecharacteristics>
										<depth>16</depth>
										<samplerate>44100</samplerate>
									</samplecharacteristics>
									<channelcount>2</channelcount>
								</audio>
							</media>
						</file>
						<link>
							<linkclipref>clipitem-87</linkclipref>
							<mediatype>video</mediatype>
							<trackindex>1</trackindex>
							<clipindex>3</clipindex>
						</link>
						<link>
							<linkclipref>clipitem-95</linkclipref>
							<mediatype>audio</mediatype>
							<trackindex>1</trackindex>
							<clipindex>3</clipindex>
							<groupindex>1</groupindex>
						</link>
						<link>
							<linkclipref>clipitem-103</linkclipref>
							<mediatype>audio</mediatype>
							<trackindex>2</trackindex>
							<clipindex>3</clipindex>
							<groupindex>1</groupindex>
						</link>
						<logginginfo>
							<description />
							<scene />
							<shottake />
							<lognote />
							<good />
							<originalvideofilename />
							<originalaudiofilename />
						</logginginfo>
						<colorinfo>
							<lut />
							<lut1 />
							<asc_sop />
							<asc_sat />
							<lut2 />
						</colorinfo>
					<labels><label2>Caribbean</label2></labels></clipitem>
					<clipitem id="clipitem-88">
						<masterclipid>clipitem-4-109</masterclipid>
						<name>Travis_Kelce_ANNOUNCE_WEDDING_DATE_with_Taylor_Swift_Why_He_was_Delaying_all_Along.mp4</name>
						<enabled>TRUE</enabled>
						<duration>150</duration>
						<rate>
							<timebase>25</timebase>
							<ntsc>FALSE</ntsc>
						</rate>
						<start>126900</start>
						<end>127050</end>
						<in>16200</in>
						<out>16350</out>
						<pproTicksIn>0</pproTicksIn>
						<pproTicksOut>419410897920000</pproTicksOut>
						<alphatype>none</alphatype>
						<pixelaspectratio>square</pixelaspectratio>
						<anamorphic>FALSE</anamorphic>
						<file id="file-32">
							<name>Travis_Kelce_ANNOUNCE_WEDDING_DATE_with_Taylor_Swift_Why_He_was_Delaying_all_Along.mp4</name>
							<pathurl>file://localhost/Users/themalikano/Documents/VideoAutomation/premiere_videos/Travis_Kelce_ANNOUNCE_WEDDING_DATE_with_Taylor_Swift_Why_He_was_Delaying_all_Along.mp4</pathurl>
							<rate>
								<timebase>24</timebase>
								<ntsc>FALSE</ntsc>
							</rate>
							<duration>39627</duration>
							<timecode>
								<rate>
									<timebase>24</timebase>
									<ntsc>FALSE</ntsc>
								</rate>
								<string>00:00:00:00</string>
								<frame>0</frame>
								<displayformat>NDF</displayformat>
							</timecode>
							<media>
								<video>
									<samplecharacteristics>
										<rate>
											<timebase>24</timebase>
											<ntsc>FALSE</ntsc>
										</rate>
										<width>852</width>
										<height>480</height>
										<anamorphic>FALSE</anamorphic>
										<pixelaspectratio>square</pixelaspectratio>
										<fielddominance>none</fielddominance>
									</samplecharacteristics>
								</video>
								<audio>
									<samplecharacteristics>
										<depth>16</depth>
										<samplerate>44100</samplerate>
									</samplecharacteristics>
									<channelcount>2</channelcount>
								</audio>
							</media>
						</file>
						<filter>
							<effect>
								<name>Basic Motion</name>
								<effectid>basic</effectid>
								<effectcategory>motion</effectcategory>
								<effecttype>motion</effecttype>
								<mediatype>video</mediatype>
								<pproBypass>false</pproBypass>
								<parameter authoringApp="PremierePro">
									<parameterid>scale</parameterid>
									<name>Scale</name>
									<valuemin>0</valuemin>
									<valuemax>1000</valuemax>
									<value>225</value>
								</parameter>
								<parameter authoringApp="PremierePro">
									<parameterid>rotation</parameterid>
									<name>Rotation</name>
									<valuemin>-8640</valuemin>
									<valuemax>8640</valuemax>
									<value>0</value>
								</parameter>
								<parameter authoringApp="PremierePro">
									<parameterid>center</parameterid>
									<name>Center</name>
									<value>
										<horiz>0</horiz>
										<vert>0</vert>
									</value>
								</parameter>
								<parameter authoringApp="PremierePro">
									<parameterid>centerOffset</parameterid>
									<name>Anchor Point</name>
									<value>
										<horiz>0</horiz>
										<vert>0</vert>
									</value>
								</parameter>
								<parameter authoringApp="PremierePro">
									<parameterid>antiflicker</parameterid>
									<name>Anti-flicker Filter</name>
									<valuemin>0.0</valuemin>
									<valuemax>1.0</valuemax>
									<value>0</value>
								</parameter>
							</effect>
						</filter>
						<link>
							<linkclipref>clipitem-88</linkclipref>
							<mediatype>video</mediatype>
							<trackindex>1</trackindex>
							<clipindex>4</clipindex>
						</link>
						<link>
							<linkclipref>clipitem-96</linkclipref>
							<mediatype>audio</mediatype>
							<trackindex>1</trackindex>
							<clipindex>4</clipindex>
							<groupindex>1</groupindex>
						</link>
						<link>
							<linkclipref>clipitem-104</linkclipref>
							<mediatype>audio</mediatype>
							<trackindex>2</trackindex>
							<clipindex>4</clipindex>
							<groupindex>1</groupindex>
						</link>
						<logginginfo>
							<description />
							<scene />
							<shottake />
							<lognote />
							<good />
							<originalvideofilename />
							<originalaudiofilename />
						</logginginfo>
						<colorinfo>
							<lut />
							<lut1 />
							<asc_sop />
							<asc_sat />
							<lut2 />
						</colorinfo>
					<labels><label2>Lavender</label2></labels></clipitem>
					<clipitem id="clipitem-87">
						<masterclipid>clipitem-3-436</masterclipid>
						<name>Taylor_Swift_Travis_Kelce_-_The_New_Power_Couple.mp4</name>
						<enabled>TRUE</enabled>
						<duration>150</duration>
						<rate>
							<timebase>25</timebase>
							<ntsc>FALSE</ntsc>
						</rate>
						<start>127050</start>
						<end>127200</end>
						<in>65250</in>
						<out>65400</out>
						<pproTicksIn>0</pproTicksIn>
						<pproTicksOut>875013995520000</pproTicksOut>
						<alphatype>none</alphatype>
						<pixelaspectratio>square</pixelaspectratio>
						<anamorphic>FALSE</anamorphic>
						<file id="file-31">
							<name>Taylor_Swift_Travis_Kelce_-_The_New_Power_Couple.mp4</name>
							<pathurl>file://localhost/Users/themalikano/Documents/VideoAutomation/premiere_videos/Taylor_Swift_Travis_Kelce_-_The_New_Power_Couple.mp4</pathurl>
							<rate>
								<timebase>25</timebase>
								<ntsc>FALSE</ntsc>
							</rate>
							<duration>86118</duration>
							<timecode>
								<rate>
									<timebase>25</timebase>
									<ntsc>FALSE</ntsc>
								</rate>
								<string>00:00:00:00</string>
								<frame>0</frame>
								<displayformat>NDF</displayformat>
							</timecode>
							<media>
								<video>
									<samplecharacteristics>
										<rate>
											<timebase>25</timebase>
											<ntsc>FALSE</ntsc>
										</rate>
										<width>1920</width>
										<height>1080</height>
										<anamorphic>FALSE</anamorphic>
										<pixelaspectratio>square</pixelaspectratio>
										<fielddominance>none</fielddominance>
									</samplecharacteristics>
								</video>
								<audio>
									<samplecharacteristics>
										<depth>16</depth>
										<samplerate>44100</samplerate>
									</samplecharacteristics>
									<channelcount>2</channelcount>
								</audio>
							</media>
						</file>
						<link>
							<linkclipref>clipitem-87</linkclipref>
							<mediatype>video</mediatype>
							<trackindex>1</trackindex>
							<clipindex>3</clipindex>
						</link>
						<link>
							<linkclipref>clipitem-95</linkclipref>
							<mediatype>audio</mediatype>
							<trackindex>1</trackindex>
							<clipindex>3</clipindex>
							<groupindex>1</groupindex>
						</link>
						<link>
							<linkclipref>clipitem-103</linkclipref>
							<mediatype>audio</mediatype>
							<trackindex>2</trackindex>
							<clipindex>3</clipindex>
							<groupindex>1</groupindex>
						</link>
						<logginginfo>
							<description />
							<scene />
							<shottake />
							<lognote />
							<good />
							<originalvideofilename />
							<originalaudiofilename />
						</logginginfo>
						<colorinfo>
							<lut />
							<lut1 />
							<asc_sop />
							<asc_sat />
							<lut2 />
						</colorinfo>
					<labels><label2>Caribbean</label2></labels></clipitem>
					<clipitem id="clipitem-88">
						<masterclipid>clipitem-4-7</masterclipid>
						<name>Travis_Kelce_ANNOUNCE_WEDDING_DATE_with_Taylor_Swift_Why_He_was_Delaying_all_Along.mp4</name>
						<enabled>TRUE</enabled>
						<duration>150</duration>
						<rate>
							<timebase>25</timebase>
							<ntsc>FALSE</ntsc>
						</rate>
						<start>127200</start>
						<end>127350</end>
						<in>900</in>
						<out>1050</out>
						<pproTicksIn>0</pproTicksIn>
						<pproTicksOut>419410897920000</pproTicksOut>
						<alphatype>none</alphatype>
						<pixelaspectratio>square</pixelaspectratio>
						<anamorphic>FALSE</anamorphic>
						<file id="file-32">
							<name>Travis_Kelce_ANNOUNCE_WEDDING_DATE_with_Taylor_Swift_Why_He_was_Delaying_all_Along.mp4</name>
							<pathurl>file://localhost/Users/themalikano/Documents/VideoAutomation/premiere_videos/Travis_Kelce_ANNOUNCE_WEDDING_DATE_with_Taylor_Swift_Why_He_was_Delaying_all_Along.mp4</pathurl>
							<rate>
								<timebase>24</timebase>
								<ntsc>FALSE</ntsc>
							</rate>
							<duration>39627</duration>
							<timecode>
								<rate>
									<timebase>24</timebase>
									<ntsc>FALSE</ntsc>
								</rate>
								<string>00:00:00:00</string>
								<frame>0</frame>
								<displayformat>NDF</displayformat>
							</timecode>
							<media>
								<video>
									<samplecharacteristics>
										<rate>
											<timebase>24</timebase>
											<ntsc>FALSE</ntsc>
										</rate>
										<width>852</width>
										<height>480</height>
										<anamorphic>FALSE</anamorphic>
										<pixelaspectratio>square</pixelaspectratio>
										<fielddominance>none</fielddominance>
									</samplecharacteristics>
								</video>
								<audio>
									<samplecharacteristics>
										<depth>16</depth>
										<samplerate>44100</samplerate>
									</samplecharacteristics>
									<channelcount>2</channelcount>
								</audio>
							</media>
						</file>
						<filter>
							<effect>
								<name>Basic Motion</name>
								<effectid>basic</effectid>
								<effectcategory>motion</effectcategory>
								<effecttype>motion</effecttype>
								<mediatype>video</mediatype>
								<pproBypass>false</pproBypass>
								<parameter authoringApp="PremierePro">
									<parameterid>scale</parameterid>
									<name>Scale</name>
									<valuemin>0</valuemin>
									<valuemax>1000</valuemax>
									<value>225</value>
								</parameter>
								<parameter authoringApp="PremierePro">
									<parameterid>rotation</parameterid>
									<name>Rotation</name>
									<valuemin>-8640</valuemin>
									<valuemax>8640</valuemax>
									<value>0</value>
								</parameter>
								<parameter authoringApp="PremierePro">
									<parameterid>center</parameterid>
									<name>Center</name>
									<value>
										<horiz>0</horiz>
										<vert>0</vert>
									</value>
								</parameter>
								<parameter authoringApp="PremierePro">
									<parameterid>centerOffset</parameterid>
									<name>Anchor Point</name>
									<value>
										<horiz>0</horiz>
										<vert>0</vert>
									</value>
								</parameter>
								<parameter authoringApp="PremierePro">
									<parameterid>antiflicker</parameterid>
									<name>Anti-flicker Filter</name>
									<valuemin>0.0</valuemin>
									<valuemax>1.0</valuemax>
									<value>0</value>
								</parameter>
							</effect>
						</filter>
						<link>
							<linkclipref>clipitem-88</linkclipref>
							<mediatype>video</mediatype>
							<trackindex>1</trackindex>
							<clipindex>4</clipindex>
						</link>
						<link>
							<linkclipref>clipitem-96</linkclipref>
							<mediatype>audio</mediatype>
							<trackindex>1</trackindex>
							<clipindex>4</clipindex>
							<groupindex>1</groupindex>
						</link>
						<link>
							<linkclipref>clipitem-104</linkclipref>
							<mediatype>audio</mediatype>
							<trackindex>2</trackindex>
							<clipindex>4</clipindex>
							<groupindex>1</groupindex>
						</link>
						<logginginfo>
							<description />
							<scene />
							<shottake />
							<lognote />
							<good />
							<originalvideofilename />
							<originalaudiofilename />
						</logginginfo>
						<colorinfo>
							<lut />
							<lut1 />
							<asc_sop />
							<asc_sat />
							<lut2 />
						</colorinfo>
					<labels><label2>Lavender</label2></labels></clipitem>
					<clipitem id="clipitem-87">
						<masterclipid>clipitem-3-318</masterclipid>
						<name>Taylor_Swift_Travis_Kelce_-_The_New_Power_Couple.mp4</name>
						<enabled>TRUE</enabled>
						<duration>150</duration>
						<rate>
							<timebase>25</timebase>
							<ntsc>FALSE</ntsc>
						</rate>
						<start>127350</start>
						<end>127500</end>
						<in>47550</in>
						<out>47700</out>
						<pproTicksIn>0</pproTicksIn>
						<pproTicksOut>875013995520000</pproTicksOut>
						<alphatype>none</alphatype>
						<pixelaspectratio>square</pixelaspectratio>
						<anamorphic>FALSE</anamorphic>
						<file id="file-31">
							<name>Taylor_Swift_Travis_Kelce_-_The_New_Power_Couple.mp4</name>
							<pathurl>file://localhost/Users/themalikano/Documents/VideoAutomation/premiere_videos/Taylor_Swift_Travis_Kelce_-_The_New_Power_Couple.mp4</pathurl>
							<rate>
								<timebase>25</timebase>
								<ntsc>FALSE</ntsc>
							</rate>
							<duration>86118</duration>
							<timecode>
								<rate>
									<timebase>25</timebase>
									<ntsc>FALSE</ntsc>
								</rate>
								<string>00:00:00:00</string>
								<frame>0</frame>
								<displayformat>NDF</displayformat>
							</timecode>
							<media>
								<video>
									<samplecharacteristics>
										<rate>
											<timebase>25</timebase>
											<ntsc>FALSE</ntsc>
										</rate>
										<width>1920</width>
										<height>1080</height>
										<anamorphic>FALSE</anamorphic>
										<pixelaspectratio>square</pixelaspectratio>
										<fielddominance>none</fielddominance>
									</samplecharacteristics>
								</video>
								<audio>
									<samplecharacteristics>
										<depth>16</depth>
										<samplerate>44100</samplerate>
									</samplecharacteristics>
									<channelcount>2</channelcount>
								</audio>
							</media>
						</file>
						<link>
							<linkclipref>clipitem-87</linkclipref>
							<mediatype>video</mediatype>
							<trackindex>1</trackindex>
							<clipindex>3</clipindex>
						</link>
						<link>
							<linkclipref>clipitem-95</linkclipref>
							<mediatype>audio</mediatype>
							<trackindex>1</trackindex>
							<clipindex>3</clipindex>
							<groupindex>1</groupindex>
						</link>
						<link>
							<linkclipref>clipitem-103</linkclipref>
							<mediatype>audio</mediatype>
							<trackindex>2</trackindex>
							<clipindex>3</clipindex>
							<groupindex>1</groupindex>
						</link>
						<logginginfo>
							<description />
							<scene />
							<shottake />
							<lognote />
							<good />
							<originalvideofilename />
							<originalaudiofilename />
						</logginginfo>
						<colorinfo>
							<lut />
							<lut1 />
							<asc_sop />
							<asc_sat />
							<lut2 />
						</colorinfo>
					<labels><label2>Caribbean</label2></labels></clipitem>
					<clipitem id="clipitem-88">
						<masterclipid>clipitem-4-234</masterclipid>
						<name>Travis_Kelce_ANNOUNCE_WEDDING_DATE_with_Taylor_Swift_Why_He_was_Delaying_all_Along.mp4</name>
						<enabled>TRUE</enabled>
						<duration>150</duration>
						<rate>
							<timebase>25</timebase>
							<ntsc>FALSE</ntsc>
						</rate>
						<start>127500</start>
						<end>127650</end>
						<in>34950</in>
						<out>35100</out>
						<pproTicksIn>0</pproTicksIn>
						<pproTicksOut>419410897920000</pproTicksOut>
						<alphatype>none</alphatype>
						<pixelaspectratio>square</pixelaspectratio>
						<anamorphic>FALSE</anamorphic>
						<file id="file-32">
							<name>Travis_Kelce_ANNOUNCE_WEDDING_DATE_with_Taylor_Swift_Why_He_was_Delaying_all_Along.mp4</name>
							<pathurl>file://localhost/Users/themalikano/Documents/VideoAutomation/premiere_videos/Travis_Kelce_ANNOUNCE_WEDDING_DATE_with_Taylor_Swift_Why_He_was_Delaying_all_Along.mp4</pathurl>
							<rate>
								<timebase>24</timebase>
								<ntsc>FALSE</ntsc>
							</rate>
							<duration>39627</duration>
							<timecode>
								<rate>
									<timebase>24</timebase>
									<ntsc>FALSE</ntsc>
								</rate>
								<string>00:00:00:00</string>
								<frame>0</frame>
								<displayformat>NDF</displayformat>
							</timecode>
							<media>
								<video>
									<samplecharacteristics>
										<rate>
											<timebase>24</timebase>
											<ntsc>FALSE</ntsc>
										</rate>
										<width>852</width>
										<height>480</height>
										<anamorphic>FALSE</anamorphic>
										<pixelaspectratio>square</pixelaspectratio>
										<fielddominance>none</fielddominance>
									</samplecharacteristics>
								</video>
								<audio>
									<samplecharacteristics>
										<depth>16</depth>
										<samplerate>44100</samplerate>
									</samplecharacteristics>
									<channelcount>2</channelcount>
								</audio>
							</media>
						</file>
						<filter>
							<effect>
								<name>Basic Motion</name>
								<effectid>basic</effectid>
								<effectcategory>motion</effectcategory>
								<effecttype>motion</effecttype>
								<mediatype>video</mediatype>
								<pproBypass>false</pproBypass>
								<parameter authoringApp="PremierePro">
									<parameterid>scale</parameterid>
									<name>Scale</name>
									<valuemin>0</valuemin>
									<valuemax>1000</valuemax>
									<value>225</value>
								</parameter>
								<parameter authoringApp="PremierePro">
									<parameterid>rotation</parameterid>
									<name>Rotation</name>
									<valuemin>-8640</valuemin>
									<valuemax>8640</valuemax>
									<value>0</value>
								</parameter>
								<parameter authoringApp="PremierePro">
									<parameterid>center</parameterid>
									<name>Center</name>
									<value>
										<horiz>0</horiz>
										<vert>0</vert>
									</value>
								</parameter>
								<parameter authoringApp="PremierePro">
									<parameterid>centerOffset</parameterid>
									<name>Anchor Point</name>
									<value>
										<horiz>0</horiz>
										<vert>0</vert>
									</value>
								</parameter>
								<parameter authoringApp="PremierePro">
									<parameterid>antiflicker</parameterid>
									<name>Anti-flicker Filter</name>
									<valuemin>0.0</valuemin>
									<valuemax>1.0</valuemax>
									<value>0</value>
								</parameter>
							</effect>
						</filter>
						<link>
							<linkclipref>clipitem-88</linkclipref>
							<mediatype>video</mediatype>
							<trackindex>1</trackindex>
							<clipindex>4</clipindex>
						</link>
						<link>
							<linkclipref>clipitem-96</linkclipref>
							<mediatype>audio</mediatype>
							<trackindex>1</trackindex>
							<clipindex>4</clipindex>
							<groupindex>1</groupindex>
						</link>
						<link>
							<linkclipref>clipitem-104</linkclipref>
							<mediatype>audio</mediatype>
							<trackindex>2</trackindex>
							<clipindex>4</clipindex>
							<groupindex>1</groupindex>
						</link>
						<logginginfo>
							<description />
							<scene />
							<shottake />
							<lognote />
							<good />
							<originalvideofilename />
							<originalaudiofilename />
						</logginginfo>
						<colorinfo>
							<lut />
							<lut1 />
							<asc_sop />
							<asc_sat />
							<lut2 />
						</colorinfo>
					<labels><label2>Lavender</label2></labels></clipitem>
					<clipitem id="clipitem-87">
						<masterclipid>clipitem-3-348</masterclipid>
						<name>Taylor_Swift_Travis_Kelce_-_The_New_Power_Couple.mp4</name>
						<enabled>TRUE</enabled>
						<duration>150</duration>
						<rate>
							<timebase>25</timebase>
							<ntsc>FALSE</ntsc>
						</rate>
						<start>127650</start>
						<end>127800</end>
						<in>52050</in>
						<out>52200</out>
						<pproTicksIn>0</pproTicksIn>
						<pproTicksOut>875013995520000</pproTicksOut>
						<alphatype>none</alphatype>
						<pixelaspectratio>square</pixelaspectratio>
						<anamorphic>FALSE</anamorphic>
						<file id="file-31">
							<name>Taylor_Swift_Travis_Kelce_-_The_New_Power_Couple.mp4</name>
							<pathurl>file://localhost/Users/themalikano/Documents/VideoAutomation/premiere_videos/Taylor_Swift_Travis_Kelce_-_The_New_Power_Couple.mp4</pathurl>
							<rate>
								<timebase>25</timebase>
								<ntsc>FALSE</ntsc>
							</rate>
							<duration>86118</duration>
							<timecode>
								<rate>
									<timebase>25</timebase>
									<ntsc>FALSE</ntsc>
								</rate>
								<string>00:00:00:00</string>
								<frame>0</frame>
								<displayformat>NDF</displayformat>
							</timecode>
							<media>
								<video>
									<samplecharacteristics>
										<rate>
											<timebase>25</timebase>
											<ntsc>FALSE</ntsc>
										</rate>
										<width>1920</width>
										<height>1080</height>
										<anamorphic>FALSE</anamorphic>
										<pixelaspectratio>square</pixelaspectratio>
										<fielddominance>none</fielddominance>
									</samplecharacteristics>
								</video>
								<audio>
									<samplecharacteristics>
										<depth>16</depth>
										<samplerate>44100</samplerate>
									</samplecharacteristics>
									<channelcount>2</channelcount>
								</audio>
							</media>
						</file>
						<link>
							<linkclipref>clipitem-87</linkclipref>
							<mediatype>video</mediatype>
							<trackindex>1</trackindex>
							<clipindex>3</clipindex>
						</link>
						<link>
							<linkclipref>clipitem-95</linkclipref>
							<mediatype>audio</mediatype>
							<trackindex>1</trackindex>
							<clipindex>3</clipindex>
							<groupindex>1</groupindex>
						</link>
						<link>
							<linkclipref>clipitem-103</linkclipref>
							<mediatype>audio</mediatype>
							<trackindex>2</trackindex>
							<clipindex>3</clipindex>
							<groupindex>1</groupindex>
						</link>
						<logginginfo>
							<description />
							<scene />
							<shottake />
							<lognote />
							<good />
							<originalvideofilename />
							<originalaudiofilename />
						</logginginfo>
						<colorinfo>
							<lut />
							<lut1 />
							<asc_sop />
							<asc_sat />
							<lut2 />
						</colorinfo>
					<labels><label2>Caribbean</label2></labels></clipitem>
					<clipitem id="clipitem-88">
						<masterclipid>clipitem-4-89</masterclipid>
						<name>Travis_Kelce_ANNOUNCE_WEDDING_DATE_with_Taylor_Swift_Why_He_was_Delaying_all_Along.mp4</name>
						<enabled>TRUE</enabled>
						<duration>150</duration>
						<rate>
							<timebase>25</timebase>
							<ntsc>FALSE</ntsc>
						</rate>
						<start>127800</start>
						<end>127950</end>
						<in>13200</in>
						<out>13350</out>
						<pproTicksIn>0</pproTicksIn>
						<pproTicksOut>419410897920000</pproTicksOut>
						<alphatype>none</alphatype>
						<pixelaspectratio>square</pixelaspectratio>
						<anamorphic>FALSE</anamorphic>
						<file id="file-32">
							<name>Travis_Kelce_ANNOUNCE_WEDDING_DATE_with_Taylor_Swift_Why_He_was_Delaying_all_Along.mp4</name>
							<pathurl>file://localhost/Users/themalikano/Documents/VideoAutomation/premiere_videos/Travis_Kelce_ANNOUNCE_WEDDING_DATE_with_Taylor_Swift_Why_He_was_Delaying_all_Along.mp4</pathurl>
							<rate>
								<timebase>24</timebase>
								<ntsc>FALSE</ntsc>
							</rate>
							<duration>39627</duration>
							<timecode>
								<rate>
									<timebase>24</timebase>
									<ntsc>FALSE</ntsc>
								</rate>
								<string>00:00:00:00</string>
								<frame>0</frame>
								<displayformat>NDF</displayformat>
							</timecode>
							<media>
								<video>
									<samplecharacteristics>
										<rate>
											<timebase>24</timebase>
											<ntsc>FALSE</ntsc>
										</rate>
										<width>852</width>
										<height>480</height>
										<anamorphic>FALSE</anamorphic>
										<pixelaspectratio>square</pixelaspectratio>
										<fielddominance>none</fielddominance>
									</samplecharacteristics>
								</video>
								<audio>
									<samplecharacteristics>
										<depth>16</depth>
										<samplerate>44100</samplerate>
									</samplecharacteristics>
									<channelcount>2</channelcount>
								</audio>
							</media>
						</file>
						<filter>
							<effect>
								<name>Basic Motion</name>
								<effectid>basic</effectid>
								<effectcategory>motion</effectcategory>
								<effecttype>motion</effecttype>
								<mediatype>video</mediatype>
								<pproBypass>false</pproBypass>
								<parameter authoringApp="PremierePro">
									<parameterid>scale</parameterid>
									<name>Scale</name>
									<valuemin>0</valuemin>
									<valuemax>1000</valuemax>
									<value>225</value>
								</parameter>
								<parameter authoringApp="PremierePro">
									<parameterid>rotation</parameterid>
									<name>Rotation</name>
									<valuemin>-8640</valuemin>
									<valuemax>8640</valuemax>
									<value>0</value>
								</parameter>
								<parameter authoringApp="PremierePro">
									<parameterid>center</parameterid>
									<name>Center</name>
									<value>
										<horiz>0</horiz>
										<vert>0</vert>
									</value>
								</parameter>
								<parameter authoringApp="PremierePro">
									<parameterid>centerOffset</parameterid>
									<name>Anchor Point</name>
									<value>
										<horiz>0</horiz>
										<vert>0</vert>
									</value>
								</parameter>
								<parameter authoringApp="PremierePro">
									<parameterid>antiflicker</parameterid>
									<name>Anti-flicker Filter</name>
									<valuemin>0.0</valuemin>
									<valuemax>1.0</valuemax>
									<value>0</value>
								</parameter>
							</effect>
						</filter>
						<link>
							<linkclipref>clipitem-88</linkclipref>
							<mediatype>video</mediatype>
							<trackindex>1</trackindex>
							<clipindex>4</clipindex>
						</link>
						<link>
							<linkclipref>clipitem-96</linkclipref>
							<mediatype>audio</mediatype>
							<trackindex>1</trackindex>
							<clipindex>4</clipindex>
							<groupindex>1</groupindex>
						</link>
						<link>
							<linkclipref>clipitem-104</linkclipref>
							<mediatype>audio</mediatype>
							<trackindex>2</trackindex>
							<clipindex>4</clipindex>
							<groupindex>1</groupindex>
						</link>
						<logginginfo>
							<description />
							<scene />
							<shottake />
							<lognote />
							<good />
							<originalvideofilename />
							<originalaudiofilename />
						</logginginfo>
						<colorinfo>
							<lut />
							<lut1 />
							<asc_sop />
							<asc_sat />
							<lut2 />
						</colorinfo>
					<labels><label2>Lavender</label2></labels></clipitem>
					<clipitem id="clipitem-87">
						<masterclipid>clipitem-3-41</masterclipid>
						<name>Taylor_Swift_Travis_Kelce_-_The_New_Power_Couple.mp4</name>
						<enabled>TRUE</enabled>
						<duration>150</duration>
						<rate>
							<timebase>25</timebase>
							<ntsc>FALSE</ntsc>
						</rate>
						<start>127950</start>
						<end>128100</end>
						<in>6000</in>
						<out>6150</out>
						<pproTicksIn>0</pproTicksIn>
						<pproTicksOut>875013995520000</pproTicksOut>
						<alphatype>none</alphatype>
						<pixelaspectratio>square</pixelaspectratio>
						<anamorphic>FALSE</anamorphic>
						<file id="file-31">
							<name>Taylor_Swift_Travis_Kelce_-_The_New_Power_Couple.mp4</name>
							<pathurl>file://localhost/Users/themalikano/Documents/VideoAutomation/premiere_videos/Taylor_Swift_Travis_Kelce_-_The_New_Power_Couple.mp4</pathurl>
							<rate>
								<timebase>25</timebase>
								<ntsc>FALSE</ntsc>
							</rate>
							<duration>86118</duration>
							<timecode>
								<rate>
									<timebase>25</timebase>
									<ntsc>FALSE</ntsc>
								</rate>
								<string>00:00:00:00</string>
								<frame>0</frame>
								<displayformat>NDF</displayformat>
							</timecode>
							<media>
								<video>
									<samplecharacteristics>
										<rate>
											<timebase>25</timebase>
											<ntsc>FALSE</ntsc>
										</rate>
										<width>1920</width>
										<height>1080</height>
										<anamorphic>FALSE</anamorphic>
										<pixelaspectratio>square</pixelaspectratio>
										<fielddominance>none</fielddominance>
									</samplecharacteristics>
								</video>
								<audio>
									<samplecharacteristics>
										<depth>16</depth>
										<samplerate>44100</samplerate>
									</samplecharacteristics>
									<channelcount>2</channelcount>
								</audio>
							</media>
						</file>
						<link>
							<linkclipref>clipitem-87</linkclipref>
							<mediatype>video</mediatype>
							<trackindex>1</trackindex>
							<clipindex>3</clipindex>
						</link>
						<link>
							<linkclipref>clipitem-95</linkclipref>
							<mediatype>audio</mediatype>
							<trackindex>1</trackindex>
							<clipindex>3</clipindex>
							<groupindex>1</groupindex>
						</link>
						<link>
							<linkclipref>clipitem-103</linkclipref>
							<mediatype>audio</mediatype>
							<trackindex>2</trackindex>
							<clipindex>3</clipindex>
							<groupindex>1</groupindex>
						</link>
						<logginginfo>
							<description />
							<scene />
							<shottake />
							<lognote />
							<good />
							<originalvideofilename />
							<originalaudiofilename />
						</logginginfo>
						<colorinfo>
							<lut />
							<lut1 />
							<asc_sop />
							<asc_sat />
							<lut2 />
						</colorinfo>
					<labels><label2>Caribbean</label2></labels></clipitem>
					<clipitem id="clipitem-88">
						<masterclipid>clipitem-4-268</masterclipid>
						<name>Travis_Kelce_ANNOUNCE_WEDDING_DATE_with_Taylor_Swift_Why_He_was_Delaying_all_Along.mp4</name>
						<enabled>TRUE</enabled>
						<duration>150</duration>
						<rate>
							<timebase>25</timebase>
							<ntsc>FALSE</ntsc>
						</rate>
						<start>128100</start>
						<end>128250</end>
						<in>40050</in>
						<out>40200</out>
						<pproTicksIn>0</pproTicksIn>
						<pproTicksOut>419410897920000</pproTicksOut>
						<alphatype>none</alphatype>
						<pixelaspectratio>square</pixelaspectratio>
						<anamorphic>FALSE</anamorphic>
						<file id="file-32">
							<name>Travis_Kelce_ANNOUNCE_WEDDING_DATE_with_Taylor_Swift_Why_He_was_Delaying_all_Along.mp4</name>
							<pathurl>file://localhost/Users/themalikano/Documents/VideoAutomation/premiere_videos/Travis_Kelce_ANNOUNCE_WEDDING_DATE_with_Taylor_Swift_Why_He_was_Delaying_all_Along.mp4</pathurl>
							<rate>
								<timebase>24</timebase>
								<ntsc>FALSE</ntsc>
							</rate>
							<duration>39627</duration>
							<timecode>
								<rate>
									<timebase>24</timebase>
									<ntsc>FALSE</ntsc>
								</rate>
								<string>00:00:00:00</string>
								<frame>0</frame>
								<displayformat>NDF</displayformat>
							</timecode>
							<media>
								<video>
									<samplecharacteristics>
										<rate>
											<timebase>24</timebase>
											<ntsc>FALSE</ntsc>
										</rate>
										<width>852</width>
										<height>480</height>
										<anamorphic>FALSE</anamorphic>
										<pixelaspectratio>square</pixelaspectratio>
										<fielddominance>none</fielddominance>
									</samplecharacteristics>
								</video>
								<audio>
									<samplecharacteristics>
										<depth>16</depth>
										<samplerate>44100</samplerate>
									</samplecharacteristics>
									<channelcount>2</channelcount>
								</audio>
							</media>
						</file>
						<filter>
							<effect>
								<name>Basic Motion</name>
								<effectid>basic</effectid>
								<effectcategory>motion</effectcategory>
								<effecttype>motion</effecttype>
								<mediatype>video</mediatype>
								<pproBypass>false</pproBypass>
								<parameter authoringApp="PremierePro">
									<parameterid>scale</parameterid>
									<name>Scale</name>
									<valuemin>0</valuemin>
									<valuemax>1000</valuemax>
									<value>225</value>
								</parameter>
								<parameter authoringApp="PremierePro">
									<parameterid>rotation</parameterid>
									<name>Rotation</name>
									<valuemin>-8640</valuemin>
									<valuemax>8640</valuemax>
									<value>0</value>
								</parameter>
								<parameter authoringApp="PremierePro">
									<parameterid>center</parameterid>
									<name>Center</name>
									<value>
										<horiz>0</horiz>
										<vert>0</vert>
									</value>
								</parameter>
								<parameter authoringApp="PremierePro">
									<parameterid>centerOffset</parameterid>
									<name>Anchor Point</name>
									<value>
										<horiz>0</horiz>
										<vert>0</vert>
									</value>
								</parameter>
								<parameter authoringApp="PremierePro">
									<parameterid>antiflicker</parameterid>
									<name>Anti-flicker Filter</name>
									<valuemin>0.0</valuemin>
									<valuemax>1.0</valuemax>
									<value>0</value>
								</parameter>
							</effect>
						</filter>
						<link>
							<linkclipref>clipitem-88</linkclipref>
							<mediatype>video</mediatype>
							<trackindex>1</trackindex>
							<clipindex>4</clipindex>
						</link>
						<link>
							<linkclipref>clipitem-96</linkclipref>
							<mediatype>audio</mediatype>
							<trackindex>1</trackindex>
							<clipindex>4</clipindex>
							<groupindex>1</groupindex>
						</link>
						<link>
							<linkclipref>clipitem-104</linkclipref>
							<mediatype>audio</mediatype>
							<trackindex>2</trackindex>
							<clipindex>4</clipindex>
							<groupindex>1</groupindex>
						</link>
						<logginginfo>
							<description />
							<scene />
							<shottake />
							<lognote />
							<good />
							<originalvideofilename />
							<originalaudiofilename />
						</logginginfo>
						<colorinfo>
							<lut />
							<lut1 />
							<asc_sop />
							<asc_sat />
							<lut2 />
						</colorinfo>
					<labels><label2>Lavender</label2></labels></clipitem>
					<clipitem id="clipitem-87">
						<masterclipid>clipitem-3-183</masterclipid>
						<name>Taylor_Swift_Travis_Kelce_-_The_New_Power_Couple.mp4</name>
						<enabled>TRUE</enabled>
						<duration>150</duration>
						<rate>
							<timebase>25</timebase>
							<ntsc>FALSE</ntsc>
						</rate>
						<start>128250</start>
						<end>128400</end>
						<in>27300</in>
						<out>27450</out>
						<pproTicksIn>0</pproTicksIn>
						<pproTicksOut>875013995520000</pproTicksOut>
						<alphatype>none</alphatype>
						<pixelaspectratio>square</pixelaspectratio>
						<anamorphic>FALSE</anamorphic>
						<file id="file-31">
							<name>Taylor_Swift_Travis_Kelce_-_The_New_Power_Couple.mp4</name>
							<pathurl>file://localhost/Users/themalikano/Documents/VideoAutomation/premiere_videos/Taylor_Swift_Travis_Kelce_-_The_New_Power_Couple.mp4</pathurl>
							<rate>
								<timebase>25</timebase>
								<ntsc>FALSE</ntsc>
							</rate>
							<duration>86118</duration>
							<timecode>
								<rate>
									<timebase>25</timebase>
									<ntsc>FALSE</ntsc>
								</rate>
								<string>00:00:00:00</string>
								<frame>0</frame>
								<displayformat>NDF</displayformat>
							</timecode>
							<media>
								<video>
									<samplecharacteristics>
										<rate>
											<timebase>25</timebase>
											<ntsc>FALSE</ntsc>
										</rate>
										<width>1920</width>
										<height>1080</height>
										<anamorphic>FALSE</anamorphic>
										<pixelaspectratio>square</pixelaspectratio>
										<fielddominance>none</fielddominance>
									</samplecharacteristics>
								</video>
								<audio>
									<samplecharacteristics>
										<depth>16</depth>
										<samplerate>44100</samplerate>
									</samplecharacteristics>
									<channelcount>2</channelcount>
								</audio>
							</media>
						</file>
						<link>
							<linkclipref>clipitem-87</linkclipref>
							<mediatype>video</mediatype>
							<trackindex>1</trackindex>
							<clipindex>3</clipindex>
						</link>
						<link>
							<linkclipref>clipitem-95</linkclipref>
							<mediatype>audio</mediatype>
							<trackindex>1</trackindex>
							<clipindex>3</clipindex>
							<groupindex>1</groupindex>
						</link>
						<link>
							<linkclipref>clipitem-103</linkclipref>
							<mediatype>audio</mediatype>
							<trackindex>2</trackindex>
							<clipindex>3</clipindex>
							<groupindex>1</groupindex>
						</link>
						<logginginfo>
							<description />
							<scene />
							<shottake />
							<lognote />
							<good />
							<originalvideofilename />
							<originalaudiofilename />
						</logginginfo>
						<colorinfo>
							<lut />
							<lut1 />
							<asc_sop />
							<asc_sat />
							<lut2 />
						</colorinfo>
					<labels><label2>Caribbean</label2></labels></clipitem>
					<clipitem id="clipitem-88">
						<masterclipid>clipitem-4-129</masterclipid>
						<name>Travis_Kelce_ANNOUNCE_WEDDING_DATE_with_Taylor_Swift_Why_He_was_Delaying_all_Along.mp4</name>
						<enabled>TRUE</enabled>
						<duration>150</duration>
						<rate>
							<timebase>25</timebase>
							<ntsc>FALSE</ntsc>
						</rate>
						<start>128400</start>
						<end>128550</end>
						<in>19200</in>
						<out>19350</out>
						<pproTicksIn>0</pproTicksIn>
						<pproTicksOut>419410897920000</pproTicksOut>
						<alphatype>none</alphatype>
						<pixelaspectratio>square</pixelaspectratio>
						<anamorphic>FALSE</anamorphic>
						<file id="file-32">
							<name>Travis_Kelce_ANNOUNCE_WEDDING_DATE_with_Taylor_Swift_Why_He_was_Delaying_all_Along.mp4</name>
							<pathurl>file://localhost/Users/themalikano/Documents/VideoAutomation/premiere_videos/Travis_Kelce_ANNOUNCE_WEDDING_DATE_with_Taylor_Swift_Why_He_was_Delaying_all_Along.mp4</pathurl>
							<rate>
								<timebase>24</timebase>
								<ntsc>FALSE</ntsc>
							</rate>
							<duration>39627</duration>
							<timecode>
								<rate>
									<timebase>24</timebase>
									<ntsc>FALSE</ntsc>
								</rate>
								<string>00:00:00:00</string>
								<frame>0</frame>
								<displayformat>NDF</displayformat>
							</timecode>
							<media>
								<video>
									<samplecharacteristics>
										<rate>
											<timebase>24</timebase>
											<ntsc>FALSE</ntsc>
										</rate>
										<width>852</width>
										<height>480</height>
										<anamorphic>FALSE</anamorphic>
										<pixelaspectratio>square</pixelaspectratio>
										<fielddominance>none</fielddominance>
									</samplecharacteristics>
								</video>
								<audio>
									<samplecharacteristics>
										<depth>16</depth>
										<samplerate>44100</samplerate>
									</samplecharacteristics>
									<channelcount>2</channelcount>
								</audio>
							</media>
						</file>
						<filter>
							<effect>
								<name>Basic Motion</name>
								<effectid>basic</effectid>
								<effectcategory>motion</effectcategory>
								<effecttype>motion</effecttype>
								<mediatype>video</mediatype>
								<pproBypass>false</pproBypass>
								<parameter authoringApp="PremierePro">
									<parameterid>scale</parameterid>
									<name>Scale</name>
									<valuemin>0</valuemin>
									<valuemax>1000</valuemax>
									<value>225</value>
								</parameter>
								<parameter authoringApp="PremierePro">
									<parameterid>rotation</parameterid>
									<name>Rotation</name>
									<valuemin>-8640</valuemin>
									<valuemax>8640</valuemax>
									<value>0</value>
								</parameter>
								<parameter authoringApp="PremierePro">
									<parameterid>center</parameterid>
									<name>Center</name>
									<value>
										<horiz>0</horiz>
										<vert>0</vert>
									</value>
								</parameter>
								<parameter authoringApp="PremierePro">
									<parameterid>centerOffset</parameterid>
									<name>Anchor Point</name>
									<value>
										<horiz>0</horiz>
										<vert>0</vert>
									</value>
								</parameter>
								<parameter authoringApp="PremierePro">
									<parameterid>antiflicker</parameterid>
									<name>Anti-flicker Filter</name>
									<valuemin>0.0</valuemin>
									<valuemax>1.0</valuemax>
									<value>0</value>
								</parameter>
							</effect>
						</filter>
						<link>
							<linkclipref>clipitem-88</linkclipref>
							<mediatype>video</mediatype>
							<trackindex>1</trackindex>
							<clipindex>4</clipindex>
						</link>
						<link>
							<linkclipref>clipitem-96</linkclipref>
							<mediatype>audio</mediatype>
							<trackindex>1</trackindex>
							<clipindex>4</clipindex>
							<groupindex>1</groupindex>
						</link>
						<link>
							<linkclipref>clipitem-104</linkclipref>
							<mediatype>audio</mediatype>
							<trackindex>2</trackindex>
							<clipindex>4</clipindex>
							<groupindex>1</groupindex>
						</link>
						<logginginfo>
							<description />
							<scene />
							<shottake />
							<lognote />
							<good />
							<originalvideofilename />
							<originalaudiofilename />
						</logginginfo>
						<colorinfo>
							<lut />
							<lut1 />
							<asc_sop />
							<asc_sat />
							<lut2 />
						</colorinfo>
					<labels><label2>Lavender</label2></labels></clipitem>
					<clipitem id="clipitem-87">
						<masterclipid>clipitem-3-399</masterclipid>
						<name>Taylor_Swift_Travis_Kelce_-_The_New_Power_Couple.mp4</name>
						<enabled>TRUE</enabled>
						<duration>150</duration>
						<rate>
							<timebase>25</timebase>
							<ntsc>FALSE</ntsc>
						</rate>
						<start>128550</start>
						<end>128700</end>
						<in>59700</in>
						<out>59850</out>
						<pproTicksIn>0</pproTicksIn>
						<pproTicksOut>875013995520000</pproTicksOut>
						<alphatype>none</alphatype>
						<pixelaspectratio>square</pixelaspectratio>
						<anamorphic>FALSE</anamorphic>
						<file id="file-31">
							<name>Taylor_Swift_Travis_Kelce_-_The_New_Power_Couple.mp4</name>
							<pathurl>file://localhost/Users/themalikano/Documents/VideoAutomation/premiere_videos/Taylor_Swift_Travis_Kelce_-_The_New_Power_Couple.mp4</pathurl>
							<rate>
								<timebase>25</timebase>
								<ntsc>FALSE</ntsc>
							</rate>
							<duration>86118</duration>
							<timecode>
								<rate>
									<timebase>25</timebase>
									<ntsc>FALSE</ntsc>
								</rate>
								<string>00:00:00:00</string>
								<frame>0</frame>
								<displayformat>NDF</displayformat>
							</timecode>
							<media>
								<video>
									<samplecharacteristics>
										<rate>
											<timebase>25</timebase>
											<ntsc>FALSE</ntsc>
										</rate>
										<width>1920</width>
										<height>1080</height>
										<anamorphic>FALSE</anamorphic>
										<pixelaspectratio>square</pixelaspectratio>
										<fielddominance>none</fielddominance>
									</samplecharacteristics>
								</video>
								<audio>
									<samplecharacteristics>
										<depth>16</depth>
										<samplerate>44100</samplerate>
									</samplecharacteristics>
									<channelcount>2</channelcount>
								</audio>
							</media>
						</file>
						<link>
							<linkclipref>clipitem-87</linkclipref>
							<mediatype>video</mediatype>
							<trackindex>1</trackindex>
							<clipindex>3</clipindex>
						</link>
						<link>
							<linkclipref>clipitem-95</linkclipref>
							<mediatype>audio</mediatype>
							<trackindex>1</trackindex>
							<clipindex>3</clipindex>
							<groupindex>1</groupindex>
						</link>
						<link>
							<linkclipref>clipitem-103</linkclipref>
							<mediatype>audio</mediatype>
							<trackindex>2</trackindex>
							<clipindex>3</clipindex>
							<groupindex>1</groupindex>
						</link>
						<logginginfo>
							<description />
							<scene />
							<shottake />
							<lognote />
							<good />
							<originalvideofilename />
							<originalaudiofilename />
						</logginginfo>
						<colorinfo>
							<lut />
							<lut1 />
							<asc_sop />
							<asc_sat />
							<lut2 />
						</colorinfo>
					<labels><label2>Caribbean</label2></labels></clipitem>
					<clipitem id="clipitem-88">
						<masterclipid>clipitem-4-242</masterclipid>
						<name>Travis_Kelce_ANNOUNCE_WEDDING_DATE_with_Taylor_Swift_Why_He_was_Delaying_all_Along.mp4</name>
						<enabled>TRUE</enabled>
						<duration>150</duration>
						<rate>
							<timebase>25</timebase>
							<ntsc>FALSE</ntsc>
						</rate>
						<start>128700</start>
						<end>128850</end>
						<in>36150</in>
						<out>36300</out>
						<pproTicksIn>0</pproTicksIn>
						<pproTicksOut>419410897920000</pproTicksOut>
						<alphatype>none</alphatype>
						<pixelaspectratio>square</pixelaspectratio>
						<anamorphic>FALSE</anamorphic>
						<file id="file-32">
							<name>Travis_Kelce_ANNOUNCE_WEDDING_DATE_with_Taylor_Swift_Why_He_was_Delaying_all_Along.mp4</name>
							<pathurl>file://localhost/Users/themalikano/Documents/VideoAutomation/premiere_videos/Travis_Kelce_ANNOUNCE_WEDDING_DATE_with_Taylor_Swift_Why_He_was_Delaying_all_Along.mp4</pathurl>
							<rate>
								<timebase>24</timebase>
								<ntsc>FALSE</ntsc>
							</rate>
							<duration>39627</duration>
							<timecode>
								<rate>
									<timebase>24</timebase>
									<ntsc>FALSE</ntsc>
								</rate>
								<string>00:00:00:00</string>
								<frame>0</frame>
								<displayformat>NDF</displayformat>
							</timecode>
							<media>
								<video>
									<samplecharacteristics>
										<rate>
											<timebase>24</timebase>
											<ntsc>FALSE</ntsc>
										</rate>
										<width>852</width>
										<height>480</height>
										<anamorphic>FALSE</anamorphic>
										<pixelaspectratio>square</pixelaspectratio>
										<fielddominance>none</fielddominance>
									</samplecharacteristics>
								</video>
								<audio>
									<samplecharacteristics>
										<depth>16</depth>
										<samplerate>44100</samplerate>
									</samplecharacteristics>
									<channelcount>2</channelcount>
								</audio>
							</media>
						</file>
						<filter>
							<effect>
								<name>Basic Motion</name>
								<effectid>basic</effectid>
								<effectcategory>motion</effectcategory>
								<effecttype>motion</effecttype>
								<mediatype>video</mediatype>
								<pproBypass>false</pproBypass>
								<parameter authoringApp="PremierePro">
									<parameterid>scale</parameterid>
									<name>Scale</name>
									<valuemin>0</valuemin>
									<valuemax>1000</valuemax>
									<value>225</value>
								</parameter>
								<parameter authoringApp="PremierePro">
									<parameterid>rotation</parameterid>
									<name>Rotation</name>
									<valuemin>-8640</valuemin>
									<valuemax>8640</valuemax>
									<value>0</value>
								</parameter>
								<parameter authoringApp="PremierePro">
									<parameterid>center</parameterid>
									<name>Center</name>
									<value>
										<horiz>0</horiz>
										<vert>0</vert>
									</value>
								</parameter>
								<parameter authoringApp="PremierePro">
									<parameterid>centerOffset</parameterid>
									<name>Anchor Point</name>
									<value>
										<horiz>0</horiz>
										<vert>0</vert>
									</value>
								</parameter>
								<parameter authoringApp="PremierePro">
									<parameterid>antiflicker</parameterid>
									<name>Anti-flicker Filter</name>
									<valuemin>0.0</valuemin>
									<valuemax>1.0</valuemax>
									<value>0</value>
								</parameter>
							</effect>
						</filter>
						<link>
							<linkclipref>clipitem-88</linkclipref>
							<mediatype>video</mediatype>
							<trackindex>1</trackindex>
							<clipindex>4</clipindex>
						</link>
						<link>
							<linkclipref>clipitem-96</linkclipref>
							<mediatype>audio</mediatype>
							<trackindex>1</trackindex>
							<clipindex>4</clipindex>
							<groupindex>1</groupindex>
						</link>
						<link>
							<linkclipref>clipitem-104</linkclipref>
							<mediatype>audio</mediatype>
							<trackindex>2</trackindex>
							<clipindex>4</clipindex>
							<groupindex>1</groupindex>
						</link>
						<logginginfo>
							<description />
							<scene />
							<shottake />
							<lognote />
							<good />
							<originalvideofilename />
							<originalaudiofilename />
						</logginginfo>
						<colorinfo>
							<lut />
							<lut1 />
							<asc_sop />
							<asc_sat />
							<lut2 />
						</colorinfo>
					<labels><label2>Lavender</label2></labels></clipitem>
					<clipitem id="clipitem-87">
						<masterclipid>clipitem-3-118</masterclipid>
						<name>Taylor_Swift_Travis_Kelce_-_The_New_Power_Couple.mp4</name>
						<enabled>TRUE</enabled>
						<duration>150</duration>
						<rate>
							<timebase>25</timebase>
							<ntsc>FALSE</ntsc>
						</rate>
						<start>128850</start>
						<end>129000</end>
						<in>17550</in>
						<out>17700</out>
						<pproTicksIn>0</pproTicksIn>
						<pproTicksOut>875013995520000</pproTicksOut>
						<alphatype>none</alphatype>
						<pixelaspectratio>square</pixelaspectratio>
						<anamorphic>FALSE</anamorphic>
						<file id="file-31">
							<name>Taylor_Swift_Travis_Kelce_-_The_New_Power_Couple.mp4</name>
							<pathurl>file://localhost/Users/themalikano/Documents/VideoAutomation/premiere_videos/Taylor_Swift_Travis_Kelce_-_The_New_Power_Couple.mp4</pathurl>
							<rate>
								<timebase>25</timebase>
								<ntsc>FALSE</ntsc>
							</rate>
							<duration>86118</duration>
							<timecode>
								<rate>
									<timebase>25</timebase>
									<ntsc>FALSE</ntsc>
								</rate>
								<string>00:00:00:00</string>
								<frame>0</frame>
								<displayformat>NDF</displayformat>
							</timecode>
							<media>
								<video>
									<samplecharacteristics>
										<rate>
											<timebase>25</timebase>
											<ntsc>FALSE</ntsc>
										</rate>
										<width>1920</width>
										<height>1080</height>
										<anamorphic>FALSE</anamorphic>
										<pixelaspectratio>square</pixelaspectratio>
										<fielddominance>none</fielddominance>
									</samplecharacteristics>
								</video>
								<audio>
									<samplecharacteristics>
										<depth>16</depth>
										<samplerate>44100</samplerate>
									</samplecharacteristics>
									<channelcount>2</channelcount>
								</audio>
							</media>
						</file>
						<link>
							<linkclipref>clipitem-87</linkclipref>
							<mediatype>video</mediatype>
							<trackindex>1</trackindex>
							<clipindex>3</clipindex>
						</link>
						<link>
							<linkclipref>clipitem-95</linkclipref>
							<mediatype>audio</mediatype>
							<trackindex>1</trackindex>
							<clipindex>3</clipindex>
							<groupindex>1</groupindex>
						</link>
						<link>
							<linkclipref>clipitem-103</linkclipref>
							<mediatype>audio</mediatype>
							<trackindex>2</trackindex>
							<clipindex>3</clipindex>
							<groupindex>1</groupindex>
						</link>
						<logginginfo>
							<description />
							<scene />
							<shottake />
							<lognote />
							<good />
							<originalvideofilename />
							<originalaudiofilename />
						</logginginfo>
						<colorinfo>
							<lut />
							<lut1 />
							<asc_sop />
							<asc_sat />
							<lut2 />
						</colorinfo>
					<labels><label2>Caribbean</label2></labels></clipitem>
					<clipitem id="clipitem-88">
						<masterclipid>clipitem-4-34</masterclipid>
						<name>Travis_Kelce_ANNOUNCE_WEDDING_DATE_with_Taylor_Swift_Why_He_was_Delaying_all_Along.mp4</name>
						<enabled>TRUE</enabled>
						<duration>150</duration>
						<rate>
							<timebase>25</timebase>
							<ntsc>FALSE</ntsc>
						</rate>
						<start>129000</start>
						<end>129150</end>
						<in>4950</in>
						<out>5100</out>
						<pproTicksIn>0</pproTicksIn>
						<pproTicksOut>419410897920000</pproTicksOut>
						<alphatype>none</alphatype>
						<pixelaspectratio>square</pixelaspectratio>
						<anamorphic>FALSE</anamorphic>
						<file id="file-32">
							<name>Travis_Kelce_ANNOUNCE_WEDDING_DATE_with_Taylor_Swift_Why_He_was_Delaying_all_Along.mp4</name>
							<pathurl>file://localhost/Users/themalikano/Documents/VideoAutomation/premiere_videos/Travis_Kelce_ANNOUNCE_WEDDING_DATE_with_Taylor_Swift_Why_He_was_Delaying_all_Along.mp4</pathurl>
							<rate>
								<timebase>24</timebase>
								<ntsc>FALSE</ntsc>
							</rate>
							<duration>39627</duration>
							<timecode>
								<rate>
									<timebase>24</timebase>
									<ntsc>FALSE</ntsc>
								</rate>
								<string>00:00:00:00</string>
								<frame>0</frame>
								<displayformat>NDF</displayformat>
							</timecode>
							<media>
								<video>
									<samplecharacteristics>
										<rate>
											<timebase>24</timebase>
											<ntsc>FALSE</ntsc>
										</rate>
										<width>852</width>
										<height>480</height>
										<anamorphic>FALSE</anamorphic>
										<pixelaspectratio>square</pixelaspectratio>
										<fielddominance>none</fielddominance>
									</samplecharacteristics>
								</video>
								<audio>
									<samplecharacteristics>
										<depth>16</depth>
										<samplerate>44100</samplerate>
									</samplecharacteristics>
									<channelcount>2</channelcount>
								</audio>
							</media>
						</file>
						<filter>
							<effect>
								<name>Basic Motion</name>
								<effectid>basic</effectid>
								<effectcategory>motion</effectcategory>
								<effecttype>motion</effecttype>
								<mediatype>video</mediatype>
								<pproBypass>false</pproBypass>
								<parameter authoringApp="PremierePro">
									<parameterid>scale</parameterid>
									<name>Scale</name>
									<valuemin>0</valuemin>
									<valuemax>1000</valuemax>
									<value>225</value>
								</parameter>
								<parameter authoringApp="PremierePro">
									<parameterid>rotation</parameterid>
									<name>Rotation</name>
									<valuemin>-8640</valuemin>
									<valuemax>8640</valuemax>
									<value>0</value>
								</parameter>
								<parameter authoringApp="PremierePro">
									<parameterid>center</parameterid>
									<name>Center</name>
									<value>
										<horiz>0</horiz>
										<vert>0</vert>
									</value>
								</parameter>
								<parameter authoringApp="PremierePro">
									<parameterid>centerOffset</parameterid>
									<name>Anchor Point</name>
									<value>
										<horiz>0</horiz>
										<vert>0</vert>
									</value>
								</parameter>
								<parameter authoringApp="PremierePro">
									<parameterid>antiflicker</parameterid>
									<name>Anti-flicker Filter</name>
									<valuemin>0.0</valuemin>
									<valuemax>1.0</valuemax>
									<value>0</value>
								</parameter>
							</effect>
						</filter>
						<link>
							<linkclipref>clipitem-88</linkclipref>
							<mediatype>video</mediatype>
							<trackindex>1</trackindex>
							<clipindex>4</clipindex>
						</link>
						<link>
							<linkclipref>clipitem-96</linkclipref>
							<mediatype>audio</mediatype>
							<trackindex>1</trackindex>
							<clipindex>4</clipindex>
							<groupindex>1</groupindex>
						</link>
						<link>
							<linkclipref>clipitem-104</linkclipref>
							<mediatype>audio</mediatype>
							<trackindex>2</trackindex>
							<clipindex>4</clipindex>
							<groupindex>1</groupindex>
						</link>
						<logginginfo>
							<description />
							<scene />
							<shottake />
							<lognote />
							<good />
							<originalvideofilename />
							<originalaudiofilename />
						</logginginfo>
						<colorinfo>
							<lut />
							<lut1 />
							<asc_sop />
							<asc_sat />
							<lut2 />
						</colorinfo>
					<labels><label2>Lavender</label2></labels></clipitem>
					<clipitem id="clipitem-87">
						<masterclipid>clipitem-3-297</masterclipid>
						<name>Taylor_Swift_Travis_Kelce_-_The_New_Power_Couple.mp4</name>
						<enabled>TRUE</enabled>
						<duration>150</duration>
						<rate>
							<timebase>25</timebase>
							<ntsc>FALSE</ntsc>
						</rate>
						<start>129150</start>
						<end>129300</end>
						<in>44400</in>
						<out>44550</out>
						<pproTicksIn>0</pproTicksIn>
						<pproTicksOut>875013995520000</pproTicksOut>
						<alphatype>none</alphatype>
						<pixelaspectratio>square</pixelaspectratio>
						<anamorphic>FALSE</anamorphic>
						<file id="file-31">
							<name>Taylor_Swift_Travis_Kelce_-_The_New_Power_Couple.mp4</name>
							<pathurl>file://localhost/Users/themalikano/Documents/VideoAutomation/premiere_videos/Taylor_Swift_Travis_Kelce_-_The_New_Power_Couple.mp4</pathurl>
							<rate>
								<timebase>25</timebase>
								<ntsc>FALSE</ntsc>
							</rate>
							<duration>86118</duration>
							<timecode>
								<rate>
									<timebase>25</timebase>
									<ntsc>FALSE</ntsc>
								</rate>
								<string>00:00:00:00</string>
								<frame>0</frame>
								<displayformat>NDF</displayformat>
							</timecode>
							<media>
								<video>
									<samplecharacteristics>
										<rate>
											<timebase>25</timebase>
											<ntsc>FALSE</ntsc>
										</rate>
										<width>1920</width>
										<height>1080</height>
										<anamorphic>FALSE</anamorphic>
										<pixelaspectratio>square</pixelaspectratio>
										<fielddominance>none</fielddominance>
									</samplecharacteristics>
								</video>
								<audio>
									<samplecharacteristics>
										<depth>16</depth>
										<samplerate>44100</samplerate>
									</samplecharacteristics>
									<channelcount>2</channelcount>
								</audio>
							</media>
						</file>
						<link>
							<linkclipref>clipitem-87</linkclipref>
							<mediatype>video</mediatype>
							<trackindex>1</trackindex>
							<clipindex>3</clipindex>
						</link>
						<link>
							<linkclipref>clipitem-95</linkclipref>
							<mediatype>audio</mediatype>
							<trackindex>1</trackindex>
							<clipindex>3</clipindex>
							<groupindex>1</groupindex>
						</link>
						<link>
							<linkclipref>clipitem-103</linkclipref>
							<mediatype>audio</mediatype>
							<trackindex>2</trackindex>
							<clipindex>3</clipindex>
							<groupindex>1</groupindex>
						</link>
						<logginginfo>
							<description />
							<scene />
							<shottake />
							<lognote />
							<good />
							<originalvideofilename />
							<originalaudiofilename />
						</logginginfo>
						<colorinfo>
							<lut />
							<lut1 />
							<asc_sop />
							<asc_sat />
							<lut2 />
						</colorinfo>
					<labels><label2>Caribbean</label2></labels></clipitem>
					<clipitem id="clipitem-88">
						<masterclipid>clipitem-4-120</masterclipid>
						<name>Travis_Kelce_ANNOUNCE_WEDDING_DATE_with_Taylor_Swift_Why_He_was_Delaying_all_Along.mp4</name>
						<enabled>TRUE</enabled>
						<duration>150</duration>
						<rate>
							<timebase>25</timebase>
							<ntsc>FALSE</ntsc>
						</rate>
						<start>129300</start>
						<end>129450</end>
						<in>17850</in>
						<out>18000</out>
						<pproTicksIn>0</pproTicksIn>
						<pproTicksOut>419410897920000</pproTicksOut>
						<alphatype>none</alphatype>
						<pixelaspectratio>square</pixelaspectratio>
						<anamorphic>FALSE</anamorphic>
						<file id="file-32">
							<name>Travis_Kelce_ANNOUNCE_WEDDING_DATE_with_Taylor_Swift_Why_He_was_Delaying_all_Along.mp4</name>
							<pathurl>file://localhost/Users/themalikano/Documents/VideoAutomation/premiere_videos/Travis_Kelce_ANNOUNCE_WEDDING_DATE_with_Taylor_Swift_Why_He_was_Delaying_all_Along.mp4</pathurl>
							<rate>
								<timebase>24</timebase>
								<ntsc>FALSE</ntsc>
							</rate>
							<duration>39627</duration>
							<timecode>
								<rate>
									<timebase>24</timebase>
									<ntsc>FALSE</ntsc>
								</rate>
								<string>00:00:00:00</string>
								<frame>0</frame>
								<displayformat>NDF</displayformat>
							</timecode>
							<media>
								<video>
									<samplecharacteristics>
										<rate>
											<timebase>24</timebase>
											<ntsc>FALSE</ntsc>
										</rate>
										<width>852</width>
										<height>480</height>
										<anamorphic>FALSE</anamorphic>
										<pixelaspectratio>square</pixelaspectratio>
										<fielddominance>none</fielddominance>
									</samplecharacteristics>
								</video>
								<audio>
									<samplecharacteristics>
										<depth>16</depth>
										<samplerate>44100</samplerate>
									</samplecharacteristics>
									<channelcount>2</channelcount>
								</audio>
							</media>
						</file>
						<filter>
							<effect>
								<name>Basic Motion</name>
								<effectid>basic</effectid>
								<effectcategory>motion</effectcategory>
								<effecttype>motion</effecttype>
								<mediatype>video</mediatype>
								<pproBypass>false</pproBypass>
								<parameter authoringApp="PremierePro">
									<parameterid>scale</parameterid>
									<name>Scale</name>
									<valuemin>0</valuemin>
									<valuemax>1000</valuemax>
									<value>225</value>
								</parameter>
								<parameter authoringApp="PremierePro">
									<parameterid>rotation</parameterid>
									<name>Rotation</name>
									<valuemin>-8640</valuemin>
									<valuemax>8640</valuemax>
									<value>0</value>
								</parameter>
								<parameter authoringApp="PremierePro">
									<parameterid>center</parameterid>
									<name>Center</name>
									<value>
										<horiz>0</horiz>
										<vert>0</vert>
									</value>
								</parameter>
								<parameter authoringApp="PremierePro">
									<parameterid>centerOffset</parameterid>
									<name>Anchor Point</name>
									<value>
										<horiz>0</horiz>
										<vert>0</vert>
									</value>
								</parameter>
								<parameter authoringApp="PremierePro">
									<parameterid>antiflicker</parameterid>
									<name>Anti-flicker Filter</name>
									<valuemin>0.0</valuemin>
									<valuemax>1.0</valuemax>
									<value>0</value>
								</parameter>
							</effect>
						</filter>
						<link>
							<linkclipref>clipitem-88</linkclipref>
							<mediatype>video</mediatype>
							<trackindex>1</trackindex>
							<clipindex>4</clipindex>
						</link>
						<link>
							<linkclipref>clipitem-96</linkclipref>
							<mediatype>audio</mediatype>
							<trackindex>1</trackindex>
							<clipindex>4</clipindex>
							<groupindex>1</groupindex>
						</link>
						<link>
							<linkclipref>clipitem-104</linkclipref>
							<mediatype>audio</mediatype>
							<trackindex>2</trackindex>
							<clipindex>4</clipindex>
							<groupindex>1</groupindex>
						</link>
						<logginginfo>
							<description />
							<scene />
							<shottake />
							<lognote />
							<good />
							<originalvideofilename />
							<originalaudiofilename />
						</logginginfo>
						<colorinfo>
							<lut />
							<lut1 />
							<asc_sop />
							<asc_sat />
							<lut2 />
						</colorinfo>
					<labels><label2>Lavender</label2></labels></clipitem>
					<clipitem id="clipitem-87">
						<masterclipid>clipitem-3-438</masterclipid>
						<name>Taylor_Swift_Travis_Kelce_-_The_New_Power_Couple.mp4</name>
						<enabled>TRUE</enabled>
						<duration>150</duration>
						<rate>
							<timebase>25</timebase>
							<ntsc>FALSE</ntsc>
						</rate>
						<start>129450</start>
						<end>129600</end>
						<in>65550</in>
						<out>65700</out>
						<pproTicksIn>0</pproTicksIn>
						<pproTicksOut>875013995520000</pproTicksOut>
						<alphatype>none</alphatype>
						<pixelaspectratio>square</pixelaspectratio>
						<anamorphic>FALSE</anamorphic>
						<file id="file-31">
							<name>Taylor_Swift_Travis_Kelce_-_The_New_Power_Couple.mp4</name>
							<pathurl>file://localhost/Users/themalikano/Documents/VideoAutomation/premiere_videos/Taylor_Swift_Travis_Kelce_-_The_New_Power_Couple.mp4</pathurl>
							<rate>
								<timebase>25</timebase>
								<ntsc>FALSE</ntsc>
							</rate>
							<duration>86118</duration>
							<timecode>
								<rate>
									<timebase>25</timebase>
									<ntsc>FALSE</ntsc>
								</rate>
								<string>00:00:00:00</string>
								<frame>0</frame>
								<displayformat>NDF</displayformat>
							</timecode>
							<media>
								<video>
									<samplecharacteristics>
										<rate>
											<timebase>25</timebase>
											<ntsc>FALSE</ntsc>
										</rate>
										<width>1920</width>
										<height>1080</height>
										<anamorphic>FALSE</anamorphic>
										<pixelaspectratio>square</pixelaspectratio>
										<fielddominance>none</fielddominance>
									</samplecharacteristics>
								</video>
								<audio>
									<samplecharacteristics>
										<depth>16</depth>
										<samplerate>44100</samplerate>
									</samplecharacteristics>
									<channelcount>2</channelcount>
								</audio>
							</media>
						</file>
						<link>
							<linkclipref>clipitem-87</linkclipref>
							<mediatype>video</mediatype>
							<trackindex>1</trackindex>
							<clipindex>3</clipindex>
						</link>
						<link>
							<linkclipref>clipitem-95</linkclipref>
							<mediatype>audio</mediatype>
							<trackindex>1</trackindex>
							<clipindex>3</clipindex>
							<groupindex>1</groupindex>
						</link>
						<link>
							<linkclipref>clipitem-103</linkclipref>
							<mediatype>audio</mediatype>
							<trackindex>2</trackindex>
							<clipindex>3</clipindex>
							<groupindex>1</groupindex>
						</link>
						<logginginfo>
							<description />
							<scene />
							<shottake />
							<lognote />
							<good />
							<originalvideofilename />
							<originalaudiofilename />
						</logginginfo>
						<colorinfo>
							<lut />
							<lut1 />
							<asc_sop />
							<asc_sat />
							<lut2 />
						</colorinfo>
					<labels><label2>Caribbean</label2></labels></clipitem>
					<clipitem id="clipitem-88">
						<masterclipid>clipitem-4-131</masterclipid>
						<name>Travis_Kelce_ANNOUNCE_WEDDING_DATE_with_Taylor_Swift_Why_He_was_Delaying_all_Along.mp4</name>
						<enabled>TRUE</enabled>
						<duration>150</duration>
						<rate>
							<timebase>25</timebase>
							<ntsc>FALSE</ntsc>
						</rate>
						<start>129600</start>
						<end>129750</end>
						<in>19500</in>
						<out>19650</out>
						<pproTicksIn>0</pproTicksIn>
						<pproTicksOut>419410897920000</pproTicksOut>
						<alphatype>none</alphatype>
						<pixelaspectratio>square</pixelaspectratio>
						<anamorphic>FALSE</anamorphic>
						<file id="file-32">
							<name>Travis_Kelce_ANNOUNCE_WEDDING_DATE_with_Taylor_Swift_Why_He_was_Delaying_all_Along.mp4</name>
							<pathurl>file://localhost/Users/themalikano/Documents/VideoAutomation/premiere_videos/Travis_Kelce_ANNOUNCE_WEDDING_DATE_with_Taylor_Swift_Why_He_was_Delaying_all_Along.mp4</pathurl>
							<rate>
								<timebase>24</timebase>
								<ntsc>FALSE</ntsc>
							</rate>
							<duration>39627</duration>
							<timecode>
								<rate>
									<timebase>24</timebase>
									<ntsc>FALSE</ntsc>
								</rate>
								<string>00:00:00:00</string>
								<frame>0</frame>
								<displayformat>NDF</displayformat>
							</timecode>
							<media>
								<video>
									<samplecharacteristics>
										<rate>
											<timebase>24</timebase>
											<ntsc>FALSE</ntsc>
										</rate>
										<width>852</width>
										<height>480</height>
										<anamorphic>FALSE</anamorphic>
										<pixelaspectratio>square</pixelaspectratio>
										<fielddominance>none</fielddominance>
									</samplecharacteristics>
								</video>
								<audio>
									<samplecharacteristics>
										<depth>16</depth>
										<samplerate>44100</samplerate>
									</samplecharacteristics>
									<channelcount>2</channelcount>
								</audio>
							</media>
						</file>
						<filter>
							<effect>
								<name>Basic Motion</name>
								<effectid>basic</effectid>
								<effectcategory>motion</effectcategory>
								<effecttype>motion</effecttype>
								<mediatype>video</mediatype>
								<pproBypass>false</pproBypass>
								<parameter authoringApp="PremierePro">
									<parameterid>scale</parameterid>
									<name>Scale</name>
									<valuemin>0</valuemin>
									<valuemax>1000</valuemax>
									<value>225</value>
								</parameter>
								<parameter authoringApp="PremierePro">
									<parameterid>rotation</parameterid>
									<name>Rotation</name>
									<valuemin>-8640</valuemin>
									<valuemax>8640</valuemax>
									<value>0</value>
								</parameter>
								<parameter authoringApp="PremierePro">
									<parameterid>center</parameterid>
									<name>Center</name>
									<value>
										<horiz>0</horiz>
										<vert>0</vert>
									</value>
								</parameter>
								<parameter authoringApp="PremierePro">
									<parameterid>centerOffset</parameterid>
									<name>Anchor Point</name>
									<value>
										<horiz>0</horiz>
										<vert>0</vert>
									</value>
								</parameter>
								<parameter authoringApp="PremierePro">
									<parameterid>antiflicker</parameterid>
									<name>Anti-flicker Filter</name>
									<valuemin>0.0</valuemin>
									<valuemax>1.0</valuemax>
									<value>0</value>
								</parameter>
							</effect>
						</filter>
						<link>
							<linkclipref>clipitem-88</linkclipref>
							<mediatype>video</mediatype>
							<trackindex>1</trackindex>
							<clipindex>4</clipindex>
						</link>
						<link>
							<linkclipref>clipitem-96</linkclipref>
							<mediatype>audio</mediatype>
							<trackindex>1</trackindex>
							<clipindex>4</clipindex>
							<groupindex>1</groupindex>
						</link>
						<link>
							<linkclipref>clipitem-104</linkclipref>
							<mediatype>audio</mediatype>
							<trackindex>2</trackindex>
							<clipindex>4</clipindex>
							<groupindex>1</groupindex>
						</link>
						<logginginfo>
							<description />
							<scene />
							<shottake />
							<lognote />
							<good />
							<originalvideofilename />
							<originalaudiofilename />
						</logginginfo>
						<colorinfo>
							<lut />
							<lut1 />
							<asc_sop />
							<asc_sat />
							<lut2 />
						</colorinfo>
					<labels><label2>Lavender</label2></labels></clipitem>
					<clipitem id="clipitem-87">
						<masterclipid>clipitem-3-528</masterclipid>
						<name>Taylor_Swift_Travis_Kelce_-_The_New_Power_Couple.mp4</name>
						<enabled>TRUE</enabled>
						<duration>150</duration>
						<rate>
							<timebase>25</timebase>
							<ntsc>FALSE</ntsc>
						</rate>
						<start>129750</start>
						<end>129900</end>
						<in>79050</in>
						<out>79200</out>
						<pproTicksIn>0</pproTicksIn>
						<pproTicksOut>875013995520000</pproTicksOut>
						<alphatype>none</alphatype>
						<pixelaspectratio>square</pixelaspectratio>
						<anamorphic>FALSE</anamorphic>
						<file id="file-31">
							<name>Taylor_Swift_Travis_Kelce_-_The_New_Power_Couple.mp4</name>
							<pathurl>file://localhost/Users/themalikano/Documents/VideoAutomation/premiere_videos/Taylor_Swift_Travis_Kelce_-_The_New_Power_Couple.mp4</pathurl>
							<rate>
								<timebase>25</timebase>
								<ntsc>FALSE</ntsc>
							</rate>
							<duration>86118</duration>
							<timecode>
								<rate>
									<timebase>25</timebase>
									<ntsc>FALSE</ntsc>
								</rate>
								<string>00:00:00:00</string>
								<frame>0</frame>
								<displayformat>NDF</displayformat>
							</timecode>
							<media>
								<video>
									<samplecharacteristics>
										<rate>
											<timebase>25</timebase>
											<ntsc>FALSE</ntsc>
										</rate>
										<width>1920</width>
										<height>1080</height>
										<anamorphic>FALSE</anamorphic>
										<pixelaspectratio>square</pixelaspectratio>
										<fielddominance>none</fielddominance>
									</samplecharacteristics>
								</video>
								<audio>
									<samplecharacteristics>
										<depth>16</depth>
										<samplerate>44100</samplerate>
									</samplecharacteristics>
									<channelcount>2</channelcount>
								</audio>
							</media>
						</file>
						<link>
							<linkclipref>clipitem-87</linkclipref>
							<mediatype>video</mediatype>
							<trackindex>1</trackindex>
							<clipindex>3</clipindex>
						</link>
						<link>
							<linkclipref>clipitem-95</linkclipref>
							<mediatype>audio</mediatype>
							<trackindex>1</trackindex>
							<clipindex>3</clipindex>
							<groupindex>1</groupindex>
						</link>
						<link>
							<linkclipref>clipitem-103</linkclipref>
							<mediatype>audio</mediatype>
							<trackindex>2</trackindex>
							<clipindex>3</clipindex>
							<groupindex>1</groupindex>
						</link>
						<logginginfo>
							<description />
							<scene />
							<shottake />
							<lognote />
							<good />
							<originalvideofilename />
							<originalaudiofilename />
						</logginginfo>
						<colorinfo>
							<lut />
							<lut1 />
							<asc_sop />
							<asc_sat />
							<lut2 />
						</colorinfo>
					<labels><label2>Caribbean</label2></labels></clipitem>
					<clipitem id="clipitem-88">
						<masterclipid>clipitem-4-187</masterclipid>
						<name>Travis_Kelce_ANNOUNCE_WEDDING_DATE_with_Taylor_Swift_Why_He_was_Delaying_all_Along.mp4</name>
						<enabled>TRUE</enabled>
						<duration>150</duration>
						<rate>
							<timebase>25</timebase>
							<ntsc>FALSE</ntsc>
						</rate>
						<start>129900</start>
						<end>130050</end>
						<in>27900</in>
						<out>28050</out>
						<pproTicksIn>0</pproTicksIn>
						<pproTicksOut>419410897920000</pproTicksOut>
						<alphatype>none</alphatype>
						<pixelaspectratio>square</pixelaspectratio>
						<anamorphic>FALSE</anamorphic>
						<file id="file-32">
							<name>Travis_Kelce_ANNOUNCE_WEDDING_DATE_with_Taylor_Swift_Why_He_was_Delaying_all_Along.mp4</name>
							<pathurl>file://localhost/Users/themalikano/Documents/VideoAutomation/premiere_videos/Travis_Kelce_ANNOUNCE_WEDDING_DATE_with_Taylor_Swift_Why_He_was_Delaying_all_Along.mp4</pathurl>
							<rate>
								<timebase>24</timebase>
								<ntsc>FALSE</ntsc>
							</rate>
							<duration>39627</duration>
							<timecode>
								<rate>
									<timebase>24</timebase>
									<ntsc>FALSE</ntsc>
								</rate>
								<string>00:00:00:00</string>
								<frame>0</frame>
								<displayformat>NDF</displayformat>
							</timecode>
							<media>
								<video>
									<samplecharacteristics>
										<rate>
											<timebase>24</timebase>
											<ntsc>FALSE</ntsc>
										</rate>
										<width>852</width>
										<height>480</height>
										<anamorphic>FALSE</anamorphic>
										<pixelaspectratio>square</pixelaspectratio>
										<fielddominance>none</fielddominance>
									</samplecharacteristics>
								</video>
								<audio>
									<samplecharacteristics>
										<depth>16</depth>
										<samplerate>44100</samplerate>
									</samplecharacteristics>
									<channelcount>2</channelcount>
								</audio>
							</media>
						</file>
						<filter>
							<effect>
								<name>Basic Motion</name>
								<effectid>basic</effectid>
								<effectcategory>motion</effectcategory>
								<effecttype>motion</effecttype>
								<mediatype>video</mediatype>
								<pproBypass>false</pproBypass>
								<parameter authoringApp="PremierePro">
									<parameterid>scale</parameterid>
									<name>Scale</name>
									<valuemin>0</valuemin>
									<valuemax>1000</valuemax>
									<value>225</value>
								</parameter>
								<parameter authoringApp="PremierePro">
									<parameterid>rotation</parameterid>
									<name>Rotation</name>
									<valuemin>-8640</valuemin>
									<valuemax>8640</valuemax>
									<value>0</value>
								</parameter>
								<parameter authoringApp="PremierePro">
									<parameterid>center</parameterid>
									<name>Center</name>
									<value>
										<horiz>0</horiz>
										<vert>0</vert>
									</value>
								</parameter>
								<parameter authoringApp="PremierePro">
									<parameterid>centerOffset</parameterid>
									<name>Anchor Point</name>
									<value>
										<horiz>0</horiz>
										<vert>0</vert>
									</value>
								</parameter>
								<parameter authoringApp="PremierePro">
									<parameterid>antiflicker</parameterid>
									<name>Anti-flicker Filter</name>
									<valuemin>0.0</valuemin>
									<valuemax>1.0</valuemax>
									<value>0</value>
								</parameter>
							</effect>
						</filter>
						<link>
							<linkclipref>clipitem-88</linkclipref>
							<mediatype>video</mediatype>
							<trackindex>1</trackindex>
							<clipindex>4</clipindex>
						</link>
						<link>
							<linkclipref>clipitem-96</linkclipref>
							<mediatype>audio</mediatype>
							<trackindex>1</trackindex>
							<clipindex>4</clipindex>
							<groupindex>1</groupindex>
						</link>
						<link>
							<linkclipref>clipitem-104</linkclipref>
							<mediatype>audio</mediatype>
							<trackindex>2</trackindex>
							<clipindex>4</clipindex>
							<groupindex>1</groupindex>
						</link>
						<logginginfo>
							<description />
							<scene />
							<shottake />
							<lognote />
							<good />
							<originalvideofilename />
							<originalaudiofilename />
						</logginginfo>
						<colorinfo>
							<lut />
							<lut1 />
							<asc_sop />
							<asc_sat />
							<lut2 />
						</colorinfo>
					<labels><label2>Lavender</label2></labels></clipitem>
					<clipitem id="clipitem-87">
						<masterclipid>clipitem-3-301</masterclipid>
						<name>Taylor_Swift_Travis_Kelce_-_The_New_Power_Couple.mp4</name>
						<enabled>TRUE</enabled>
						<duration>150</duration>
						<rate>
							<timebase>25</timebase>
							<ntsc>FALSE</ntsc>
						</rate>
						<start>130050</start>
						<end>130200</end>
						<in>45000</in>
						<out>45150</out>
						<pproTicksIn>0</pproTicksIn>
						<pproTicksOut>875013995520000</pproTicksOut>
						<alphatype>none</alphatype>
						<pixelaspectratio>square</pixelaspectratio>
						<anamorphic>FALSE</anamorphic>
						<file id="file-31">
							<name>Taylor_Swift_Travis_Kelce_-_The_New_Power_Couple.mp4</name>
							<pathurl>file://localhost/Users/themalikano/Documents/VideoAutomation/premiere_videos/Taylor_Swift_Travis_Kelce_-_The_New_Power_Couple.mp4</pathurl>
							<rate>
								<timebase>25</timebase>
								<ntsc>FALSE</ntsc>
							</rate>
							<duration>86118</duration>
							<timecode>
								<rate>
									<timebase>25</timebase>
									<ntsc>FALSE</ntsc>
								</rate>
								<string>00:00:00:00</string>
								<frame>0</frame>
								<displayformat>NDF</displayformat>
							</timecode>
							<media>
								<video>
									<samplecharacteristics>
										<rate>
											<timebase>25</timebase>
											<ntsc>FALSE</ntsc>
										</rate>
										<width>1920</width>
										<height>1080</height>
										<anamorphic>FALSE</anamorphic>
										<pixelaspectratio>square</pixelaspectratio>
										<fielddominance>none</fielddominance>
									</samplecharacteristics>
								</video>
								<audio>
									<samplecharacteristics>
										<depth>16</depth>
										<samplerate>44100</samplerate>
									</samplecharacteristics>
									<channelcount>2</channelcount>
								</audio>
							</media>
						</file>
						<link>
							<linkclipref>clipitem-87</linkclipref>
							<mediatype>video</mediatype>
							<trackindex>1</trackindex>
							<clipindex>3</clipindex>
						</link>
						<link>
							<linkclipref>clipitem-95</linkclipref>
							<mediatype>audio</mediatype>
							<trackindex>1</trackindex>
							<clipindex>3</clipindex>
							<groupindex>1</groupindex>
						</link>
						<link>
							<linkclipref>clipitem-103</linkclipref>
							<mediatype>audio</mediatype>
							<trackindex>2</trackindex>
							<clipindex>3</clipindex>
							<groupindex>1</groupindex>
						</link>
						<logginginfo>
							<description />
							<scene />
							<shottake />
							<lognote />
							<good />
							<originalvideofilename />
							<originalaudiofilename />
						</logginginfo>
						<colorinfo>
							<lut />
							<lut1 />
							<asc_sop />
							<asc_sat />
							<lut2 />
						</colorinfo>
					<labels><label2>Caribbean</label2></labels></clipitem>
					<clipitem id="clipitem-88">
						<masterclipid>clipitem-4-2</masterclipid>
						<name>Travis_Kelce_ANNOUNCE_WEDDING_DATE_with_Taylor_Swift_Why_He_was_Delaying_all_Along.mp4</name>
						<enabled>TRUE</enabled>
						<duration>150</duration>
						<rate>
							<timebase>25</timebase>
							<ntsc>FALSE</ntsc>
						</rate>
						<start>130200</start>
						<end>130350</end>
						<in>150</in>
						<out>300</out>
						<pproTicksIn>0</pproTicksIn>
						<pproTicksOut>419410897920000</pproTicksOut>
						<alphatype>none</alphatype>
						<pixelaspectratio>square</pixelaspectratio>
						<anamorphic>FALSE</anamorphic>
						<file id="file-32">
							<name>Travis_Kelce_ANNOUNCE_WEDDING_DATE_with_Taylor_Swift_Why_He_was_Delaying_all_Along.mp4</name>
							<pathurl>file://localhost/Users/themalikano/Documents/VideoAutomation/premiere_videos/Travis_Kelce_ANNOUNCE_WEDDING_DATE_with_Taylor_Swift_Why_He_was_Delaying_all_Along.mp4</pathurl>
							<rate>
								<timebase>24</timebase>
								<ntsc>FALSE</ntsc>
							</rate>
							<duration>39627</duration>
							<timecode>
								<rate>
									<timebase>24</timebase>
									<ntsc>FALSE</ntsc>
								</rate>
								<string>00:00:00:00</string>
								<frame>0</frame>
								<displayformat>NDF</displayformat>
							</timecode>
							<media>
								<video>
									<samplecharacteristics>
										<rate>
											<timebase>24</timebase>
											<ntsc>FALSE</ntsc>
										</rate>
										<width>852</width>
										<height>480</height>
										<anamorphic>FALSE</anamorphic>
										<pixelaspectratio>square</pixelaspectratio>
										<fielddominance>none</fielddominance>
									</samplecharacteristics>
								</video>
								<audio>
									<samplecharacteristics>
										<depth>16</depth>
										<samplerate>44100</samplerate>
									</samplecharacteristics>
									<channelcount>2</channelcount>
								</audio>
							</media>
						</file>
						<filter>
							<effect>
								<name>Basic Motion</name>
								<effectid>basic</effectid>
								<effectcategory>motion</effectcategory>
								<effecttype>motion</effecttype>
								<mediatype>video</mediatype>
								<pproBypass>false</pproBypass>
								<parameter authoringApp="PremierePro">
									<parameterid>scale</parameterid>
									<name>Scale</name>
									<valuemin>0</valuemin>
									<valuemax>1000</valuemax>
									<value>225</value>
								</parameter>
								<parameter authoringApp="PremierePro">
									<parameterid>rotation</parameterid>
									<name>Rotation</name>
									<valuemin>-8640</valuemin>
									<valuemax>8640</valuemax>
									<value>0</value>
								</parameter>
								<parameter authoringApp="PremierePro">
									<parameterid>center</parameterid>
									<name>Center</name>
									<value>
										<horiz>0</horiz>
										<vert>0</vert>
									</value>
								</parameter>
								<parameter authoringApp="PremierePro">
									<parameterid>centerOffset</parameterid>
									<name>Anchor Point</name>
									<value>
										<horiz>0</horiz>
										<vert>0</vert>
									</value>
								</parameter>
								<parameter authoringApp="PremierePro">
									<parameterid>antiflicker</parameterid>
									<name>Anti-flicker Filter</name>
									<valuemin>0.0</valuemin>
									<valuemax>1.0</valuemax>
									<value>0</value>
								</parameter>
							</effect>
						</filter>
						<link>
							<linkclipref>clipitem-88</linkclipref>
							<mediatype>video</mediatype>
							<trackindex>1</trackindex>
							<clipindex>4</clipindex>
						</link>
						<link>
							<linkclipref>clipitem-96</linkclipref>
							<mediatype>audio</mediatype>
							<trackindex>1</trackindex>
							<clipindex>4</clipindex>
							<groupindex>1</groupindex>
						</link>
						<link>
							<linkclipref>clipitem-104</linkclipref>
							<mediatype>audio</mediatype>
							<trackindex>2</trackindex>
							<clipindex>4</clipindex>
							<groupindex>1</groupindex>
						</link>
						<logginginfo>
							<description />
							<scene />
							<shottake />
							<lognote />
							<good />
							<originalvideofilename />
							<originalaudiofilename />
						</logginginfo>
						<colorinfo>
							<lut />
							<lut1 />
							<asc_sop />
							<asc_sat />
							<lut2 />
						</colorinfo>
					<labels><label2>Lavender</label2></labels></clipitem>
					<clipitem id="clipitem-87">
						<masterclipid>clipitem-3-127</masterclipid>
						<name>Taylor_Swift_Travis_Kelce_-_The_New_Power_Couple.mp4</name>
						<enabled>TRUE</enabled>
						<duration>150</duration>
						<rate>
							<timebase>25</timebase>
							<ntsc>FALSE</ntsc>
						</rate>
						<start>130350</start>
						<end>130500</end>
						<in>18900</in>
						<out>19050</out>
						<pproTicksIn>0</pproTicksIn>
						<pproTicksOut>875013995520000</pproTicksOut>
						<alphatype>none</alphatype>
						<pixelaspectratio>square</pixelaspectratio>
						<anamorphic>FALSE</anamorphic>
						<file id="file-31">
							<name>Taylor_Swift_Travis_Kelce_-_The_New_Power_Couple.mp4</name>
							<pathurl>file://localhost/Users/themalikano/Documents/VideoAutomation/premiere_videos/Taylor_Swift_Travis_Kelce_-_The_New_Power_Couple.mp4</pathurl>
							<rate>
								<timebase>25</timebase>
								<ntsc>FALSE</ntsc>
							</rate>
							<duration>86118</duration>
							<timecode>
								<rate>
									<timebase>25</timebase>
									<ntsc>FALSE</ntsc>
								</rate>
								<string>00:00:00:00</string>
								<frame>0</frame>
								<displayformat>NDF</displayformat>
							</timecode>
							<media>
								<video>
									<samplecharacteristics>
										<rate>
											<timebase>25</timebase>
											<ntsc>FALSE</ntsc>
										</rate>
										<width>1920</width>
										<height>1080</height>
										<anamorphic>FALSE</anamorphic>
										<pixelaspectratio>square</pixelaspectratio>
										<fielddominance>none</fielddominance>
									</samplecharacteristics>
								</video>
								<audio>
									<samplecharacteristics>
										<depth>16</depth>
										<samplerate>44100</samplerate>
									</samplecharacteristics>
									<channelcount>2</channelcount>
								</audio>
							</media>
						</file>
						<link>
							<linkclipref>clipitem-87</linkclipref>
							<mediatype>video</mediatype>
							<trackindex>1</trackindex>
							<clipindex>3</clipindex>
						</link>
						<link>
							<linkclipref>clipitem-95</linkclipref>
							<mediatype>audio</mediatype>
							<trackindex>1</trackindex>
							<clipindex>3</clipindex>
							<groupindex>1</groupindex>
						</link>
						<link>
							<linkclipref>clipitem-103</linkclipref>
							<mediatype>audio</mediatype>
							<trackindex>2</trackindex>
							<clipindex>3</clipindex>
							<groupindex>1</groupindex>
						</link>
						<logginginfo>
							<description />
							<scene />
							<shottake />
							<lognote />
							<good />
							<originalvideofilename />
							<originalaudiofilename />
						</logginginfo>
						<colorinfo>
							<lut />
							<lut1 />
							<asc_sop />
							<asc_sat />
							<lut2 />
						</colorinfo>
					<labels><label2>Caribbean</label2></labels></clipitem>
					<clipitem id="clipitem-88">
						<masterclipid>clipitem-4-178</masterclipid>
						<name>Travis_Kelce_ANNOUNCE_WEDDING_DATE_with_Taylor_Swift_Why_He_was_Delaying_all_Along.mp4</name>
						<enabled>TRUE</enabled>
						<duration>150</duration>
						<rate>
							<timebase>25</timebase>
							<ntsc>FALSE</ntsc>
						</rate>
						<start>130500</start>
						<end>130650</end>
						<in>26550</in>
						<out>26700</out>
						<pproTicksIn>0</pproTicksIn>
						<pproTicksOut>419410897920000</pproTicksOut>
						<alphatype>none</alphatype>
						<pixelaspectratio>square</pixelaspectratio>
						<anamorphic>FALSE</anamorphic>
						<file id="file-32">
							<name>Travis_Kelce_ANNOUNCE_WEDDING_DATE_with_Taylor_Swift_Why_He_was_Delaying_all_Along.mp4</name>
							<pathurl>file://localhost/Users/themalikano/Documents/VideoAutomation/premiere_videos/Travis_Kelce_ANNOUNCE_WEDDING_DATE_with_Taylor_Swift_Why_He_was_Delaying_all_Along.mp4</pathurl>
							<rate>
								<timebase>24</timebase>
								<ntsc>FALSE</ntsc>
							</rate>
							<duration>39627</duration>
							<timecode>
								<rate>
									<timebase>24</timebase>
									<ntsc>FALSE</ntsc>
								</rate>
								<string>00:00:00:00</string>
								<frame>0</frame>
								<displayformat>NDF</displayformat>
							</timecode>
							<media>
								<video>
									<samplecharacteristics>
										<rate>
											<timebase>24</timebase>
											<ntsc>FALSE</ntsc>
										</rate>
										<width>852</width>
										<height>480</height>
										<anamorphic>FALSE</anamorphic>
										<pixelaspectratio>square</pixelaspectratio>
										<fielddominance>none</fielddominance>
									</samplecharacteristics>
								</video>
								<audio>
									<samplecharacteristics>
										<depth>16</depth>
										<samplerate>44100</samplerate>
									</samplecharacteristics>
									<channelcount>2</channelcount>
								</audio>
							</media>
						</file>
						<filter>
							<effect>
								<name>Basic Motion</name>
								<effectid>basic</effectid>
								<effectcategory>motion</effectcategory>
								<effecttype>motion</effecttype>
								<mediatype>video</mediatype>
								<pproBypass>false</pproBypass>
								<parameter authoringApp="PremierePro">
									<parameterid>scale</parameterid>
									<name>Scale</name>
									<valuemin>0</valuemin>
									<valuemax>1000</valuemax>
									<value>225</value>
								</parameter>
								<parameter authoringApp="PremierePro">
									<parameterid>rotation</parameterid>
									<name>Rotation</name>
									<valuemin>-8640</valuemin>
									<valuemax>8640</valuemax>
									<value>0</value>
								</parameter>
								<parameter authoringApp="PremierePro">
									<parameterid>center</parameterid>
									<name>Center</name>
									<value>
										<horiz>0</horiz>
										<vert>0</vert>
									</value>
								</parameter>
								<parameter authoringApp="PremierePro">
									<parameterid>centerOffset</parameterid>
									<name>Anchor Point</name>
									<value>
										<horiz>0</horiz>
										<vert>0</vert>
									</value>
								</parameter>
								<parameter authoringApp="PremierePro">
									<parameterid>antiflicker</parameterid>
									<name>Anti-flicker Filter</name>
									<valuemin>0.0</valuemin>
									<valuemax>1.0</valuemax>
									<value>0</value>
								</parameter>
							</effect>
						</filter>
						<link>
							<linkclipref>clipitem-88</linkclipref>
							<mediatype>video</mediatype>
							<trackindex>1</trackindex>
							<clipindex>4</clipindex>
						</link>
						<link>
							<linkclipref>clipitem-96</linkclipref>
							<mediatype>audio</mediatype>
							<trackindex>1</trackindex>
							<clipindex>4</clipindex>
							<groupindex>1</groupindex>
						</link>
						<link>
							<linkclipref>clipitem-104</linkclipref>
							<mediatype>audio</mediatype>
							<trackindex>2</trackindex>
							<clipindex>4</clipindex>
							<groupindex>1</groupindex>
						</link>
						<logginginfo>
							<description />
							<scene />
							<shottake />
							<lognote />
							<good />
							<originalvideofilename />
							<originalaudiofilename />
						</logginginfo>
						<colorinfo>
							<lut />
							<lut1 />
							<asc_sop />
							<asc_sat />
							<lut2 />
						</colorinfo>
					<labels><label2>Lavender</label2></labels></clipitem>
					<clipitem id="clipitem-87">
						<masterclipid>clipitem-3-81</masterclipid>
						<name>Taylor_Swift_Travis_Kelce_-_The_New_Power_Couple.mp4</name>
						<enabled>TRUE</enabled>
						<duration>150</duration>
						<rate>
							<timebase>25</timebase>
							<ntsc>FALSE</ntsc>
						</rate>
						<start>130650</start>
						<end>130800</end>
						<in>12000</in>
						<out>12150</out>
						<pproTicksIn>0</pproTicksIn>
						<pproTicksOut>875013995520000</pproTicksOut>
						<alphatype>none</alphatype>
						<pixelaspectratio>square</pixelaspectratio>
						<anamorphic>FALSE</anamorphic>
						<file id="file-31">
							<name>Taylor_Swift_Travis_Kelce_-_The_New_Power_Couple.mp4</name>
							<pathurl>file://localhost/Users/themalikano/Documents/VideoAutomation/premiere_videos/Taylor_Swift_Travis_Kelce_-_The_New_Power_Couple.mp4</pathurl>
							<rate>
								<timebase>25</timebase>
								<ntsc>FALSE</ntsc>
							</rate>
							<duration>86118</duration>
							<timecode>
								<rate>
									<timebase>25</timebase>
									<ntsc>FALSE</ntsc>
								</rate>
								<string>00:00:00:00</string>
								<frame>0</frame>
								<displayformat>NDF</displayformat>
							</timecode>
							<media>
								<video>
									<samplecharacteristics>
										<rate>
											<timebase>25</timebase>
											<ntsc>FALSE</ntsc>
										</rate>
										<width>1920</width>
										<height>1080</height>
										<anamorphic>FALSE</anamorphic>
										<pixelaspectratio>square</pixelaspectratio>
										<fielddominance>none</fielddominance>
									</samplecharacteristics>
								</video>
								<audio>
									<samplecharacteristics>
										<depth>16</depth>
										<samplerate>44100</samplerate>
									</samplecharacteristics>
									<channelcount>2</channelcount>
								</audio>
							</media>
						</file>
						<link>
							<linkclipref>clipitem-87</linkclipref>
							<mediatype>video</mediatype>
							<trackindex>1</trackindex>
							<clipindex>3</clipindex>
						</link>
						<link>
							<linkclipref>clipitem-95</linkclipref>
							<mediatype>audio</mediatype>
							<trackindex>1</trackindex>
							<clipindex>3</clipindex>
							<groupindex>1</groupindex>
						</link>
						<link>
							<linkclipref>clipitem-103</linkclipref>
							<mediatype>audio</mediatype>
							<trackindex>2</trackindex>
							<clipindex>3</clipindex>
							<groupindex>1</groupindex>
						</link>
						<logginginfo>
							<description />
							<scene />
							<shottake />
							<lognote />
							<good />
							<originalvideofilename />
							<originalaudiofilename />
						</logginginfo>
						<colorinfo>
							<lut />
							<lut1 />
							<asc_sop />
							<asc_sat />
							<lut2 />
						</colorinfo>
					<labels><label2>Caribbean</label2></labels></clipitem>
					<clipitem id="clipitem-88">
						<masterclipid>clipitem-4-13</masterclipid>
						<name>Travis_Kelce_ANNOUNCE_WEDDING_DATE_with_Taylor_Swift_Why_He_was_Delaying_all_Along.mp4</name>
						<enabled>TRUE</enabled>
						<duration>150</duration>
						<rate>
							<timebase>25</timebase>
							<ntsc>FALSE</ntsc>
						</rate>
						<start>130800</start>
						<end>130950</end>
						<in>1800</in>
						<out>1950</out>
						<pproTicksIn>0</pproTicksIn>
						<pproTicksOut>419410897920000</pproTicksOut>
						<alphatype>none</alphatype>
						<pixelaspectratio>square</pixelaspectratio>
						<anamorphic>FALSE</anamorphic>
						<file id="file-32">
							<name>Travis_Kelce_ANNOUNCE_WEDDING_DATE_with_Taylor_Swift_Why_He_was_Delaying_all_Along.mp4</name>
							<pathurl>file://localhost/Users/themalikano/Documents/VideoAutomation/premiere_videos/Travis_Kelce_ANNOUNCE_WEDDING_DATE_with_Taylor_Swift_Why_He_was_Delaying_all_Along.mp4</pathurl>
							<rate>
								<timebase>24</timebase>
								<ntsc>FALSE</ntsc>
							</rate>
							<duration>39627</duration>
							<timecode>
								<rate>
									<timebase>24</timebase>
									<ntsc>FALSE</ntsc>
								</rate>
								<string>00:00:00:00</string>
								<frame>0</frame>
								<displayformat>NDF</displayformat>
							</timecode>
							<media>
								<video>
									<samplecharacteristics>
										<rate>
											<timebase>24</timebase>
											<ntsc>FALSE</ntsc>
										</rate>
										<width>852</width>
										<height>480</height>
										<anamorphic>FALSE</anamorphic>
										<pixelaspectratio>square</pixelaspectratio>
										<fielddominance>none</fielddominance>
									</samplecharacteristics>
								</video>
								<audio>
									<samplecharacteristics>
										<depth>16</depth>
										<samplerate>44100</samplerate>
									</samplecharacteristics>
									<channelcount>2</channelcount>
								</audio>
							</media>
						</file>
						<filter>
							<effect>
								<name>Basic Motion</name>
								<effectid>basic</effectid>
								<effectcategory>motion</effectcategory>
								<effecttype>motion</effecttype>
								<mediatype>video</mediatype>
								<pproBypass>false</pproBypass>
								<parameter authoringApp="PremierePro">
									<parameterid>scale</parameterid>
									<name>Scale</name>
									<valuemin>0</valuemin>
									<valuemax>1000</valuemax>
									<value>225</value>
								</parameter>
								<parameter authoringApp="PremierePro">
									<parameterid>rotation</parameterid>
									<name>Rotation</name>
									<valuemin>-8640</valuemin>
									<valuemax>8640</valuemax>
									<value>0</value>
								</parameter>
								<parameter authoringApp="PremierePro">
									<parameterid>center</parameterid>
									<name>Center</name>
									<value>
										<horiz>0</horiz>
										<vert>0</vert>
									</value>
								</parameter>
								<parameter authoringApp="PremierePro">
									<parameterid>centerOffset</parameterid>
									<name>Anchor Point</name>
									<value>
										<horiz>0</horiz>
										<vert>0</vert>
									</value>
								</parameter>
								<parameter authoringApp="PremierePro">
									<parameterid>antiflicker</parameterid>
									<name>Anti-flicker Filter</name>
									<valuemin>0.0</valuemin>
									<valuemax>1.0</valuemax>
									<value>0</value>
								</parameter>
							</effect>
						</filter>
						<link>
							<linkclipref>clipitem-88</linkclipref>
							<mediatype>video</mediatype>
							<trackindex>1</trackindex>
							<clipindex>4</clipindex>
						</link>
						<link>
							<linkclipref>clipitem-96</linkclipref>
							<mediatype>audio</mediatype>
							<trackindex>1</trackindex>
							<clipindex>4</clipindex>
							<groupindex>1</groupindex>
						</link>
						<link>
							<linkclipref>clipitem-104</linkclipref>
							<mediatype>audio</mediatype>
							<trackindex>2</trackindex>
							<clipindex>4</clipindex>
							<groupindex>1</groupindex>
						</link>
						<logginginfo>
							<description />
							<scene />
							<shottake />
							<lognote />
							<good />
							<originalvideofilename />
							<originalaudiofilename />
						</logginginfo>
						<colorinfo>
							<lut />
							<lut1 />
							<asc_sop />
							<asc_sat />
							<lut2 />
						</colorinfo>
					<labels><label2>Lavender</label2></labels></clipitem>
					<clipitem id="clipitem-87">
						<masterclipid>clipitem-3-337</masterclipid>
						<name>Taylor_Swift_Travis_Kelce_-_The_New_Power_Couple.mp4</name>
						<enabled>TRUE</enabled>
						<duration>150</duration>
						<rate>
							<timebase>25</timebase>
							<ntsc>FALSE</ntsc>
						</rate>
						<start>130950</start>
						<end>131100</end>
						<in>50400</in>
						<out>50550</out>
						<pproTicksIn>0</pproTicksIn>
						<pproTicksOut>875013995520000</pproTicksOut>
						<alphatype>none</alphatype>
						<pixelaspectratio>square</pixelaspectratio>
						<anamorphic>FALSE</anamorphic>
						<file id="file-31">
							<name>Taylor_Swift_Travis_Kelce_-_The_New_Power_Couple.mp4</name>
							<pathurl>file://localhost/Users/themalikano/Documents/VideoAutomation/premiere_videos/Taylor_Swift_Travis_Kelce_-_The_New_Power_Couple.mp4</pathurl>
							<rate>
								<timebase>25</timebase>
								<ntsc>FALSE</ntsc>
							</rate>
							<duration>86118</duration>
							<timecode>
								<rate>
									<timebase>25</timebase>
									<ntsc>FALSE</ntsc>
								</rate>
								<string>00:00:00:00</string>
								<frame>0</frame>
								<displayformat>NDF</displayformat>
							</timecode>
							<media>
								<video>
									<samplecharacteristics>
										<rate>
											<timebase>25</timebase>
											<ntsc>FALSE</ntsc>
										</rate>
										<width>1920</width>
										<height>1080</height>
										<anamorphic>FALSE</anamorphic>
										<pixelaspectratio>square</pixelaspectratio>
										<fielddominance>none</fielddominance>
									</samplecharacteristics>
								</video>
								<audio>
									<samplecharacteristics>
										<depth>16</depth>
										<samplerate>44100</samplerate>
									</samplecharacteristics>
									<channelcount>2</channelcount>
								</audio>
							</media>
						</file>
						<link>
							<linkclipref>clipitem-87</linkclipref>
							<mediatype>video</mediatype>
							<trackindex>1</trackindex>
							<clipindex>3</clipindex>
						</link>
						<link>
							<linkclipref>clipitem-95</linkclipref>
							<mediatype>audio</mediatype>
							<trackindex>1</trackindex>
							<clipindex>3</clipindex>
							<groupindex>1</groupindex>
						</link>
						<link>
							<linkclipref>clipitem-103</linkclipref>
							<mediatype>audio</mediatype>
							<trackindex>2</trackindex>
							<clipindex>3</clipindex>
							<groupindex>1</groupindex>
						</link>
						<logginginfo>
							<description />
							<scene />
							<shottake />
							<lognote />
							<good />
							<originalvideofilename />
							<originalaudiofilename />
						</logginginfo>
						<colorinfo>
							<lut />
							<lut1 />
							<asc_sop />
							<asc_sat />
							<lut2 />
						</colorinfo>
					<labels><label2>Caribbean</label2></labels></clipitem>
					<clipitem id="clipitem-88">
						<masterclipid>clipitem-4-71</masterclipid>
						<name>Travis_Kelce_ANNOUNCE_WEDDING_DATE_with_Taylor_Swift_Why_He_was_Delaying_all_Along.mp4</name>
						<enabled>TRUE</enabled>
						<duration>150</duration>
						<rate>
							<timebase>25</timebase>
							<ntsc>FALSE</ntsc>
						</rate>
						<start>131100</start>
						<end>131250</end>
						<in>10500</in>
						<out>10650</out>
						<pproTicksIn>0</pproTicksIn>
						<pproTicksOut>419410897920000</pproTicksOut>
						<alphatype>none</alphatype>
						<pixelaspectratio>square</pixelaspectratio>
						<anamorphic>FALSE</anamorphic>
						<file id="file-32">
							<name>Travis_Kelce_ANNOUNCE_WEDDING_DATE_with_Taylor_Swift_Why_He_was_Delaying_all_Along.mp4</name>
							<pathurl>file://localhost/Users/themalikano/Documents/VideoAutomation/premiere_videos/Travis_Kelce_ANNOUNCE_WEDDING_DATE_with_Taylor_Swift_Why_He_was_Delaying_all_Along.mp4</pathurl>
							<rate>
								<timebase>24</timebase>
								<ntsc>FALSE</ntsc>
							</rate>
							<duration>39627</duration>
							<timecode>
								<rate>
									<timebase>24</timebase>
									<ntsc>FALSE</ntsc>
								</rate>
								<string>00:00:00:00</string>
								<frame>0</frame>
								<displayformat>NDF</displayformat>
							</timecode>
							<media>
								<video>
									<samplecharacteristics>
										<rate>
											<timebase>24</timebase>
											<ntsc>FALSE</ntsc>
										</rate>
										<width>852</width>
										<height>480</height>
										<anamorphic>FALSE</anamorphic>
										<pixelaspectratio>square</pixelaspectratio>
										<fielddominance>none</fielddominance>
									</samplecharacteristics>
								</video>
								<audio>
									<samplecharacteristics>
										<depth>16</depth>
										<samplerate>44100</samplerate>
									</samplecharacteristics>
									<channelcount>2</channelcount>
								</audio>
							</media>
						</file>
						<filter>
							<effect>
								<name>Basic Motion</name>
								<effectid>basic</effectid>
								<effectcategory>motion</effectcategory>
								<effecttype>motion</effecttype>
								<mediatype>video</mediatype>
								<pproBypass>false</pproBypass>
								<parameter authoringApp="PremierePro">
									<parameterid>scale</parameterid>
									<name>Scale</name>
									<valuemin>0</valuemin>
									<valuemax>1000</valuemax>
									<value>225</value>
								</parameter>
								<parameter authoringApp="PremierePro">
									<parameterid>rotation</parameterid>
									<name>Rotation</name>
									<valuemin>-8640</valuemin>
									<valuemax>8640</valuemax>
									<value>0</value>
								</parameter>
								<parameter authoringApp="PremierePro">
									<parameterid>center</parameterid>
									<name>Center</name>
									<value>
										<horiz>0</horiz>
										<vert>0</vert>
									</value>
								</parameter>
								<parameter authoringApp="PremierePro">
									<parameterid>centerOffset</parameterid>
									<name>Anchor Point</name>
									<value>
										<horiz>0</horiz>
										<vert>0</vert>
									</value>
								</parameter>
								<parameter authoringApp="PremierePro">
									<parameterid>antiflicker</parameterid>
									<name>Anti-flicker Filter</name>
									<valuemin>0.0</valuemin>
									<valuemax>1.0</valuemax>
									<value>0</value>
								</parameter>
							</effect>
						</filter>
						<link>
							<linkclipref>clipitem-88</linkclipref>
							<mediatype>video</mediatype>
							<trackindex>1</trackindex>
							<clipindex>4</clipindex>
						</link>
						<link>
							<linkclipref>clipitem-96</linkclipref>
							<mediatype>audio</mediatype>
							<trackindex>1</trackindex>
							<clipindex>4</clipindex>
							<groupindex>1</groupindex>
						</link>
						<link>
							<linkclipref>clipitem-104</linkclipref>
							<mediatype>audio</mediatype>
							<trackindex>2</trackindex>
							<clipindex>4</clipindex>
							<groupindex>1</groupindex>
						</link>
						<logginginfo>
							<description />
							<scene />
							<shottake />
							<lognote />
							<good />
							<originalvideofilename />
							<originalaudiofilename />
						</logginginfo>
						<colorinfo>
							<lut />
							<lut1 />
							<asc_sop />
							<asc_sat />
							<lut2 />
						</colorinfo>
					<labels><label2>Lavender</label2></labels></clipitem>
					<clipitem id="clipitem-87">
						<masterclipid>clipitem-3-71</masterclipid>
						<name>Taylor_Swift_Travis_Kelce_-_The_New_Power_Couple.mp4</name>
						<enabled>TRUE</enabled>
						<duration>150</duration>
						<rate>
							<timebase>25</timebase>
							<ntsc>FALSE</ntsc>
						</rate>
						<start>131250</start>
						<end>131400</end>
						<in>10500</in>
						<out>10650</out>
						<pproTicksIn>0</pproTicksIn>
						<pproTicksOut>875013995520000</pproTicksOut>
						<alphatype>none</alphatype>
						<pixelaspectratio>square</pixelaspectratio>
						<anamorphic>FALSE</anamorphic>
						<file id="file-31">
							<name>Taylor_Swift_Travis_Kelce_-_The_New_Power_Couple.mp4</name>
							<pathurl>file://localhost/Users/themalikano/Documents/VideoAutomation/premiere_videos/Taylor_Swift_Travis_Kelce_-_The_New_Power_Couple.mp4</pathurl>
							<rate>
								<timebase>25</timebase>
								<ntsc>FALSE</ntsc>
							</rate>
							<duration>86118</duration>
							<timecode>
								<rate>
									<timebase>25</timebase>
									<ntsc>FALSE</ntsc>
								</rate>
								<string>00:00:00:00</string>
								<frame>0</frame>
								<displayformat>NDF</displayformat>
							</timecode>
							<media>
								<video>
									<samplecharacteristics>
										<rate>
											<timebase>25</timebase>
											<ntsc>FALSE</ntsc>
										</rate>
										<width>1920</width>
										<height>1080</height>
										<anamorphic>FALSE</anamorphic>
										<pixelaspectratio>square</pixelaspectratio>
										<fielddominance>none</fielddominance>
									</samplecharacteristics>
								</video>
								<audio>
									<samplecharacteristics>
										<depth>16</depth>
										<samplerate>44100</samplerate>
									</samplecharacteristics>
									<channelcount>2</channelcount>
								</audio>
							</media>
						</file>
						<link>
							<linkclipref>clipitem-87</linkclipref>
							<mediatype>video</mediatype>
							<trackindex>1</trackindex>
							<clipindex>3</clipindex>
						</link>
						<link>
							<linkclipref>clipitem-95</linkclipref>
							<mediatype>audio</mediatype>
							<trackindex>1</trackindex>
							<clipindex>3</clipindex>
							<groupindex>1</groupindex>
						</link>
						<link>
							<linkclipref>clipitem-103</linkclipref>
							<mediatype>audio</mediatype>
							<trackindex>2</trackindex>
							<clipindex>3</clipindex>
							<groupindex>1</groupindex>
						</link>
						<logginginfo>
							<description />
							<scene />
							<shottake />
							<lognote />
							<good />
							<originalvideofilename />
							<originalaudiofilename />
						</logginginfo>
						<colorinfo>
							<lut />
							<lut1 />
							<asc_sop />
							<asc_sat />
							<lut2 />
						</colorinfo>
					<labels><label2>Caribbean</label2></labels></clipitem>
					<clipitem id="clipitem-88">
						<masterclipid>clipitem-4-239</masterclipid>
						<name>Travis_Kelce_ANNOUNCE_WEDDING_DATE_with_Taylor_Swift_Why_He_was_Delaying_all_Along.mp4</name>
						<enabled>TRUE</enabled>
						<duration>150</duration>
						<rate>
							<timebase>25</timebase>
							<ntsc>FALSE</ntsc>
						</rate>
						<start>131400</start>
						<end>131550</end>
						<in>35700</in>
						<out>35850</out>
						<pproTicksIn>0</pproTicksIn>
						<pproTicksOut>419410897920000</pproTicksOut>
						<alphatype>none</alphatype>
						<pixelaspectratio>square</pixelaspectratio>
						<anamorphic>FALSE</anamorphic>
						<file id="file-32">
							<name>Travis_Kelce_ANNOUNCE_WEDDING_DATE_with_Taylor_Swift_Why_He_was_Delaying_all_Along.mp4</name>
							<pathurl>file://localhost/Users/themalikano/Documents/VideoAutomation/premiere_videos/Travis_Kelce_ANNOUNCE_WEDDING_DATE_with_Taylor_Swift_Why_He_was_Delaying_all_Along.mp4</pathurl>
							<rate>
								<timebase>24</timebase>
								<ntsc>FALSE</ntsc>
							</rate>
							<duration>39627</duration>
							<timecode>
								<rate>
									<timebase>24</timebase>
									<ntsc>FALSE</ntsc>
								</rate>
								<string>00:00:00:00</string>
								<frame>0</frame>
								<displayformat>NDF</displayformat>
							</timecode>
							<media>
								<video>
									<samplecharacteristics>
										<rate>
											<timebase>24</timebase>
											<ntsc>FALSE</ntsc>
										</rate>
										<width>852</width>
										<height>480</height>
										<anamorphic>FALSE</anamorphic>
										<pixelaspectratio>square</pixelaspectratio>
										<fielddominance>none</fielddominance>
									</samplecharacteristics>
								</video>
								<audio>
									<samplecharacteristics>
										<depth>16</depth>
										<samplerate>44100</samplerate>
									</samplecharacteristics>
									<channelcount>2</channelcount>
								</audio>
							</media>
						</file>
						<filter>
							<effect>
								<name>Basic Motion</name>
								<effectid>basic</effectid>
								<effectcategory>motion</effectcategory>
								<effecttype>motion</effecttype>
								<mediatype>video</mediatype>
								<pproBypass>false</pproBypass>
								<parameter authoringApp="PremierePro">
									<parameterid>scale</parameterid>
									<name>Scale</name>
									<valuemin>0</valuemin>
									<valuemax>1000</valuemax>
									<value>225</value>
								</parameter>
								<parameter authoringApp="PremierePro">
									<parameterid>rotation</parameterid>
									<name>Rotation</name>
									<valuemin>-8640</valuemin>
									<valuemax>8640</valuemax>
									<value>0</value>
								</parameter>
								<parameter authoringApp="PremierePro">
									<parameterid>center</parameterid>
									<name>Center</name>
									<value>
										<horiz>0</horiz>
										<vert>0</vert>
									</value>
								</parameter>
								<parameter authoringApp="PremierePro">
									<parameterid>centerOffset</parameterid>
									<name>Anchor Point</name>
									<value>
										<horiz>0</horiz>
										<vert>0</vert>
									</value>
								</parameter>
								<parameter authoringApp="PremierePro">
									<parameterid>antiflicker</parameterid>
									<name>Anti-flicker Filter</name>
									<valuemin>0.0</valuemin>
									<valuemax>1.0</valuemax>
									<value>0</value>
								</parameter>
							</effect>
						</filter>
						<link>
							<linkclipref>clipitem-88</linkclipref>
							<mediatype>video</mediatype>
							<trackindex>1</trackindex>
							<clipindex>4</clipindex>
						</link>
						<link>
							<linkclipref>clipitem-96</linkclipref>
							<mediatype>audio</mediatype>
							<trackindex>1</trackindex>
							<clipindex>4</clipindex>
							<groupindex>1</groupindex>
						</link>
						<link>
							<linkclipref>clipitem-104</linkclipref>
							<mediatype>audio</mediatype>
							<trackindex>2</trackindex>
							<clipindex>4</clipindex>
							<groupindex>1</groupindex>
						</link>
						<logginginfo>
							<description />
							<scene />
							<shottake />
							<lognote />
							<good />
							<originalvideofilename />
							<originalaudiofilename />
						</logginginfo>
						<colorinfo>
							<lut />
							<lut1 />
							<asc_sop />
							<asc_sat />
							<lut2 />
						</colorinfo>
					<labels><label2>Lavender</label2></labels></clipitem>
					<clipitem id="clipitem-87">
						<masterclipid>clipitem-3-220</masterclipid>
						<name>Taylor_Swift_Travis_Kelce_-_The_New_Power_Couple.mp4</name>
						<enabled>TRUE</enabled>
						<duration>150</duration>
						<rate>
							<timebase>25</timebase>
							<ntsc>FALSE</ntsc>
						</rate>
						<start>131550</start>
						<end>131700</end>
						<in>32850</in>
						<out>33000</out>
						<pproTicksIn>0</pproTicksIn>
						<pproTicksOut>875013995520000</pproTicksOut>
						<alphatype>none</alphatype>
						<pixelaspectratio>square</pixelaspectratio>
						<anamorphic>FALSE</anamorphic>
						<file id="file-31">
							<name>Taylor_Swift_Travis_Kelce_-_The_New_Power_Couple.mp4</name>
							<pathurl>file://localhost/Users/themalikano/Documents/VideoAutomation/premiere_videos/Taylor_Swift_Travis_Kelce_-_The_New_Power_Couple.mp4</pathurl>
							<rate>
								<timebase>25</timebase>
								<ntsc>FALSE</ntsc>
							</rate>
							<duration>86118</duration>
							<timecode>
								<rate>
									<timebase>25</timebase>
									<ntsc>FALSE</ntsc>
								</rate>
								<string>00:00:00:00</string>
								<frame>0</frame>
								<displayformat>NDF</displayformat>
							</timecode>
							<media>
								<video>
									<samplecharacteristics>
										<rate>
											<timebase>25</timebase>
											<ntsc>FALSE</ntsc>
										</rate>
										<width>1920</width>
										<height>1080</height>
										<anamorphic>FALSE</anamorphic>
										<pixelaspectratio>square</pixelaspectratio>
										<fielddominance>none</fielddominance>
									</samplecharacteristics>
								</video>
								<audio>
									<samplecharacteristics>
										<depth>16</depth>
										<samplerate>44100</samplerate>
									</samplecharacteristics>
									<channelcount>2</channelcount>
								</audio>
							</media>
						</file>
						<link>
							<linkclipref>clipitem-87</linkclipref>
							<mediatype>video</mediatype>
							<trackindex>1</trackindex>
							<clipindex>3</clipindex>
						</link>
						<link>
							<linkclipref>clipitem-95</linkclipref>
							<mediatype>audio</mediatype>
							<trackindex>1</trackindex>
							<clipindex>3</clipindex>
							<groupindex>1</groupindex>
						</link>
						<link>
							<linkclipref>clipitem-103</linkclipref>
							<mediatype>audio</mediatype>
							<trackindex>2</trackindex>
							<clipindex>3</clipindex>
							<groupindex>1</groupindex>
						</link>
						<logginginfo>
							<description />
							<scene />
							<shottake />
							<lognote />
							<good />
							<originalvideofilename />
							<originalaudiofilename />
						</logginginfo>
						<colorinfo>
							<lut />
							<lut1 />
							<asc_sop />
							<asc_sat />
							<lut2 />
						</colorinfo>
					<labels><label2>Caribbean</label2></labels></clipitem>
					<clipitem id="clipitem-88">
						<masterclipid>clipitem-4-54</masterclipid>
						<name>Travis_Kelce_ANNOUNCE_WEDDING_DATE_with_Taylor_Swift_Why_He_was_Delaying_all_Along.mp4</name>
						<enabled>TRUE</enabled>
						<duration>150</duration>
						<rate>
							<timebase>25</timebase>
							<ntsc>FALSE</ntsc>
						</rate>
						<start>131700</start>
						<end>131850</end>
						<in>7950</in>
						<out>8100</out>
						<pproTicksIn>0</pproTicksIn>
						<pproTicksOut>419410897920000</pproTicksOut>
						<alphatype>none</alphatype>
						<pixelaspectratio>square</pixelaspectratio>
						<anamorphic>FALSE</anamorphic>
						<file id="file-32">
							<name>Travis_Kelce_ANNOUNCE_WEDDING_DATE_with_Taylor_Swift_Why_He_was_Delaying_all_Along.mp4</name>
							<pathurl>file://localhost/Users/themalikano/Documents/VideoAutomation/premiere_videos/Travis_Kelce_ANNOUNCE_WEDDING_DATE_with_Taylor_Swift_Why_He_was_Delaying_all_Along.mp4</pathurl>
							<rate>
								<timebase>24</timebase>
								<ntsc>FALSE</ntsc>
							</rate>
							<duration>39627</duration>
							<timecode>
								<rate>
									<timebase>24</timebase>
									<ntsc>FALSE</ntsc>
								</rate>
								<string>00:00:00:00</string>
								<frame>0</frame>
								<displayformat>NDF</displayformat>
							</timecode>
							<media>
								<video>
									<samplecharacteristics>
										<rate>
											<timebase>24</timebase>
											<ntsc>FALSE</ntsc>
										</rate>
										<width>852</width>
										<height>480</height>
										<anamorphic>FALSE</anamorphic>
										<pixelaspectratio>square</pixelaspectratio>
										<fielddominance>none</fielddominance>
									</samplecharacteristics>
								</video>
								<audio>
									<samplecharacteristics>
										<depth>16</depth>
										<samplerate>44100</samplerate>
									</samplecharacteristics>
									<channelcount>2</channelcount>
								</audio>
							</media>
						</file>
						<filter>
							<effect>
								<name>Basic Motion</name>
								<effectid>basic</effectid>
								<effectcategory>motion</effectcategory>
								<effecttype>motion</effecttype>
								<mediatype>video</mediatype>
								<pproBypass>false</pproBypass>
								<parameter authoringApp="PremierePro">
									<parameterid>scale</parameterid>
									<name>Scale</name>
									<valuemin>0</valuemin>
									<valuemax>1000</valuemax>
									<value>225</value>
								</parameter>
								<parameter authoringApp="PremierePro">
									<parameterid>rotation</parameterid>
									<name>Rotation</name>
									<valuemin>-8640</valuemin>
									<valuemax>8640</valuemax>
									<value>0</value>
								</parameter>
								<parameter authoringApp="PremierePro">
									<parameterid>center</parameterid>
									<name>Center</name>
									<value>
										<horiz>0</horiz>
										<vert>0</vert>
									</value>
								</parameter>
								<parameter authoringApp="PremierePro">
									<parameterid>centerOffset</parameterid>
									<name>Anchor Point</name>
									<value>
										<horiz>0</horiz>
										<vert>0</vert>
									</value>
								</parameter>
								<parameter authoringApp="PremierePro">
									<parameterid>antiflicker</parameterid>
									<name>Anti-flicker Filter</name>
									<valuemin>0.0</valuemin>
									<valuemax>1.0</valuemax>
									<value>0</value>
								</parameter>
							</effect>
						</filter>
						<link>
							<linkclipref>clipitem-88</linkclipref>
							<mediatype>video</mediatype>
							<trackindex>1</trackindex>
							<clipindex>4</clipindex>
						</link>
						<link>
							<linkclipref>clipitem-96</linkclipref>
							<mediatype>audio</mediatype>
							<trackindex>1</trackindex>
							<clipindex>4</clipindex>
							<groupindex>1</groupindex>
						</link>
						<link>
							<linkclipref>clipitem-104</linkclipref>
							<mediatype>audio</mediatype>
							<trackindex>2</trackindex>
							<clipindex>4</clipindex>
							<groupindex>1</groupindex>
						</link>
						<logginginfo>
							<description />
							<scene />
							<shottake />
							<lognote />
							<good />
							<originalvideofilename />
							<originalaudiofilename />
						</logginginfo>
						<colorinfo>
							<lut />
							<lut1 />
							<asc_sop />
							<asc_sat />
							<lut2 />
						</colorinfo>
					<labels><label2>Lavender</label2></labels></clipitem>
					<clipitem id="clipitem-87">
						<masterclipid>clipitem-3-267</masterclipid>
						<name>Taylor_Swift_Travis_Kelce_-_The_New_Power_Couple.mp4</name>
						<enabled>TRUE</enabled>
						<duration>150</duration>
						<rate>
							<timebase>25</timebase>
							<ntsc>FALSE</ntsc>
						</rate>
						<start>131850</start>
						<end>132000</end>
						<in>39900</in>
						<out>40050</out>
						<pproTicksIn>0</pproTicksIn>
						<pproTicksOut>875013995520000</pproTicksOut>
						<alphatype>none</alphatype>
						<pixelaspectratio>square</pixelaspectratio>
						<anamorphic>FALSE</anamorphic>
						<file id="file-31">
							<name>Taylor_Swift_Travis_Kelce_-_The_New_Power_Couple.mp4</name>
							<pathurl>file://localhost/Users/themalikano/Documents/VideoAutomation/premiere_videos/Taylor_Swift_Travis_Kelce_-_The_New_Power_Couple.mp4</pathurl>
							<rate>
								<timebase>25</timebase>
								<ntsc>FALSE</ntsc>
							</rate>
							<duration>86118</duration>
							<timecode>
								<rate>
									<timebase>25</timebase>
									<ntsc>FALSE</ntsc>
								</rate>
								<string>00:00:00:00</string>
								<frame>0</frame>
								<displayformat>NDF</displayformat>
							</timecode>
							<media>
								<video>
									<samplecharacteristics>
										<rate>
											<timebase>25</timebase>
											<ntsc>FALSE</ntsc>
										</rate>
										<width>1920</width>
										<height>1080</height>
										<anamorphic>FALSE</anamorphic>
										<pixelaspectratio>square</pixelaspectratio>
										<fielddominance>none</fielddominance>
									</samplecharacteristics>
								</video>
								<audio>
									<samplecharacteristics>
										<depth>16</depth>
										<samplerate>44100</samplerate>
									</samplecharacteristics>
									<channelcount>2</channelcount>
								</audio>
							</media>
						</file>
						<link>
							<linkclipref>clipitem-87</linkclipref>
							<mediatype>video</mediatype>
							<trackindex>1</trackindex>
							<clipindex>3</clipindex>
						</link>
						<link>
							<linkclipref>clipitem-95</linkclipref>
							<mediatype>audio</mediatype>
							<trackindex>1</trackindex>
							<clipindex>3</clipindex>
							<groupindex>1</groupindex>
						</link>
						<link>
							<linkclipref>clipitem-103</linkclipref>
							<mediatype>audio</mediatype>
							<trackindex>2</trackindex>
							<clipindex>3</clipindex>
							<groupindex>1</groupindex>
						</link>
						<logginginfo>
							<description />
							<scene />
							<shottake />
							<lognote />
							<good />
							<originalvideofilename />
							<originalaudiofilename />
						</logginginfo>
						<colorinfo>
							<lut />
							<lut1 />
							<asc_sop />
							<asc_sat />
							<lut2 />
						</colorinfo>
					<labels><label2>Caribbean</label2></labels></clipitem>
					<clipitem id="clipitem-88">
						<masterclipid>clipitem-4-117</masterclipid>
						<name>Travis_Kelce_ANNOUNCE_WEDDING_DATE_with_Taylor_Swift_Why_He_was_Delaying_all_Along.mp4</name>
						<enabled>TRUE</enabled>
						<duration>150</duration>
						<rate>
							<timebase>25</timebase>
							<ntsc>FALSE</ntsc>
						</rate>
						<start>132000</start>
						<end>132150</end>
						<in>17400</in>
						<out>17550</out>
						<pproTicksIn>0</pproTicksIn>
						<pproTicksOut>419410897920000</pproTicksOut>
						<alphatype>none</alphatype>
						<pixelaspectratio>square</pixelaspectratio>
						<anamorphic>FALSE</anamorphic>
						<file id="file-32">
							<name>Travis_Kelce_ANNOUNCE_WEDDING_DATE_with_Taylor_Swift_Why_He_was_Delaying_all_Along.mp4</name>
							<pathurl>file://localhost/Users/themalikano/Documents/VideoAutomation/premiere_videos/Travis_Kelce_ANNOUNCE_WEDDING_DATE_with_Taylor_Swift_Why_He_was_Delaying_all_Along.mp4</pathurl>
							<rate>
								<timebase>24</timebase>
								<ntsc>FALSE</ntsc>
							</rate>
							<duration>39627</duration>
							<timecode>
								<rate>
									<timebase>24</timebase>
									<ntsc>FALSE</ntsc>
								</rate>
								<string>00:00:00:00</string>
								<frame>0</frame>
								<displayformat>NDF</displayformat>
							</timecode>
							<media>
								<video>
									<samplecharacteristics>
										<rate>
											<timebase>24</timebase>
											<ntsc>FALSE</ntsc>
										</rate>
										<width>852</width>
										<height>480</height>
										<anamorphic>FALSE</anamorphic>
										<pixelaspectratio>square</pixelaspectratio>
										<fielddominance>none</fielddominance>
									</samplecharacteristics>
								</video>
								<audio>
									<samplecharacteristics>
										<depth>16</depth>
										<samplerate>44100</samplerate>
									</samplecharacteristics>
									<channelcount>2</channelcount>
								</audio>
							</media>
						</file>
						<filter>
							<effect>
								<name>Basic Motion</name>
								<effectid>basic</effectid>
								<effectcategory>motion</effectcategory>
								<effecttype>motion</effecttype>
								<mediatype>video</mediatype>
								<pproBypass>false</pproBypass>
								<parameter authoringApp="PremierePro">
									<parameterid>scale</parameterid>
									<name>Scale</name>
									<valuemin>0</valuemin>
									<valuemax>1000</valuemax>
									<value>225</value>
								</parameter>
								<parameter authoringApp="PremierePro">
									<parameterid>rotation</parameterid>
									<name>Rotation</name>
									<valuemin>-8640</valuemin>
									<valuemax>8640</valuemax>
									<value>0</value>
								</parameter>
								<parameter authoringApp="PremierePro">
									<parameterid>center</parameterid>
									<name>Center</name>
									<value>
										<horiz>0</horiz>
										<vert>0</vert>
									</value>
								</parameter>
								<parameter authoringApp="PremierePro">
									<parameterid>centerOffset</parameterid>
									<name>Anchor Point</name>
									<value>
										<horiz>0</horiz>
										<vert>0</vert>
									</value>
								</parameter>
								<parameter authoringApp="PremierePro">
									<parameterid>antiflicker</parameterid>
									<name>Anti-flicker Filter</name>
									<valuemin>0.0</valuemin>
									<valuemax>1.0</valuemax>
									<value>0</value>
								</parameter>
							</effect>
						</filter>
						<link>
							<linkclipref>clipitem-88</linkclipref>
							<mediatype>video</mediatype>
							<trackindex>1</trackindex>
							<clipindex>4</clipindex>
						</link>
						<link>
							<linkclipref>clipitem-96</linkclipref>
							<mediatype>audio</mediatype>
							<trackindex>1</trackindex>
							<clipindex>4</clipindex>
							<groupindex>1</groupindex>
						</link>
						<link>
							<linkclipref>clipitem-104</linkclipref>
							<mediatype>audio</mediatype>
							<trackindex>2</trackindex>
							<clipindex>4</clipindex>
							<groupindex>1</groupindex>
						</link>
						<logginginfo>
							<description />
							<scene />
							<shottake />
							<lognote />
							<good />
							<originalvideofilename />
							<originalaudiofilename />
						</logginginfo>
						<colorinfo>
							<lut />
							<lut1 />
							<asc_sop />
							<asc_sat />
							<lut2 />
						</colorinfo>
					<labels><label2>Lavender</label2></labels></clipitem>
					<clipitem id="clipitem-87">
						<masterclipid>clipitem-3-36</masterclipid>
						<name>Taylor_Swift_Travis_Kelce_-_The_New_Power_Couple.mp4</name>
						<enabled>TRUE</enabled>
						<duration>150</duration>
						<rate>
							<timebase>25</timebase>
							<ntsc>FALSE</ntsc>
						</rate>
						<start>132150</start>
						<end>132300</end>
						<in>5250</in>
						<out>5400</out>
						<pproTicksIn>0</pproTicksIn>
						<pproTicksOut>875013995520000</pproTicksOut>
						<alphatype>none</alphatype>
						<pixelaspectratio>square</pixelaspectratio>
						<anamorphic>FALSE</anamorphic>
						<file id="file-31">
							<name>Taylor_Swift_Travis_Kelce_-_The_New_Power_Couple.mp4</name>
							<pathurl>file://localhost/Users/themalikano/Documents/VideoAutomation/premiere_videos/Taylor_Swift_Travis_Kelce_-_The_New_Power_Couple.mp4</pathurl>
							<rate>
								<timebase>25</timebase>
								<ntsc>FALSE</ntsc>
							</rate>
							<duration>86118</duration>
							<timecode>
								<rate>
									<timebase>25</timebase>
									<ntsc>FALSE</ntsc>
								</rate>
								<string>00:00:00:00</string>
								<frame>0</frame>
								<displayformat>NDF</displayformat>
							</timecode>
							<media>
								<video>
									<samplecharacteristics>
										<rate>
											<timebase>25</timebase>
											<ntsc>FALSE</ntsc>
										</rate>
										<width>1920</width>
										<height>1080</height>
										<anamorphic>FALSE</anamorphic>
										<pixelaspectratio>square</pixelaspectratio>
										<fielddominance>none</fielddominance>
									</samplecharacteristics>
								</video>
								<audio>
									<samplecharacteristics>
										<depth>16</depth>
										<samplerate>44100</samplerate>
									</samplecharacteristics>
									<channelcount>2</channelcount>
								</audio>
							</media>
						</file>
						<link>
							<linkclipref>clipitem-87</linkclipref>
							<mediatype>video</mediatype>
							<trackindex>1</trackindex>
							<clipindex>3</clipindex>
						</link>
						<link>
							<linkclipref>clipitem-95</linkclipref>
							<mediatype>audio</mediatype>
							<trackindex>1</trackindex>
							<clipindex>3</clipindex>
							<groupindex>1</groupindex>
						</link>
						<link>
							<linkclipref>clipitem-103</linkclipref>
							<mediatype>audio</mediatype>
							<trackindex>2</trackindex>
							<clipindex>3</clipindex>
							<groupindex>1</groupindex>
						</link>
						<logginginfo>
							<description />
							<scene />
							<shottake />
							<lognote />
							<good />
							<originalvideofilename />
							<originalaudiofilename />
						</logginginfo>
						<colorinfo>
							<lut />
							<lut1 />
							<asc_sop />
							<asc_sat />
							<lut2 />
						</colorinfo>
					<labels><label2>Caribbean</label2></labels></clipitem>
					<clipitem id="clipitem-88">
						<masterclipid>clipitem-4-39</masterclipid>
						<name>Travis_Kelce_ANNOUNCE_WEDDING_DATE_with_Taylor_Swift_Why_He_was_Delaying_all_Along.mp4</name>
						<enabled>TRUE</enabled>
						<duration>150</duration>
						<rate>
							<timebase>25</timebase>
							<ntsc>FALSE</ntsc>
						</rate>
						<start>132300</start>
						<end>132450</end>
						<in>5700</in>
						<out>5850</out>
						<pproTicksIn>0</pproTicksIn>
						<pproTicksOut>419410897920000</pproTicksOut>
						<alphatype>none</alphatype>
						<pixelaspectratio>square</pixelaspectratio>
						<anamorphic>FALSE</anamorphic>
						<file id="file-32">
							<name>Travis_Kelce_ANNOUNCE_WEDDING_DATE_with_Taylor_Swift_Why_He_was_Delaying_all_Along.mp4</name>
							<pathurl>file://localhost/Users/themalikano/Documents/VideoAutomation/premiere_videos/Travis_Kelce_ANNOUNCE_WEDDING_DATE_with_Taylor_Swift_Why_He_was_Delaying_all_Along.mp4</pathurl>
							<rate>
								<timebase>24</timebase>
								<ntsc>FALSE</ntsc>
							</rate>
							<duration>39627</duration>
							<timecode>
								<rate>
									<timebase>24</timebase>
									<ntsc>FALSE</ntsc>
								</rate>
								<string>00:00:00:00</string>
								<frame>0</frame>
								<displayformat>NDF</displayformat>
							</timecode>
							<media>
								<video>
									<samplecharacteristics>
										<rate>
											<timebase>24</timebase>
											<ntsc>FALSE</ntsc>
										</rate>
										<width>852</width>
										<height>480</height>
										<anamorphic>FALSE</anamorphic>
										<pixelaspectratio>square</pixelaspectratio>
										<fielddominance>none</fielddominance>
									</samplecharacteristics>
								</video>
								<audio>
									<samplecharacteristics>
										<depth>16</depth>
										<samplerate>44100</samplerate>
									</samplecharacteristics>
									<channelcount>2</channelcount>
								</audio>
							</media>
						</file>
						<filter>
							<effect>
								<name>Basic Motion</name>
								<effectid>basic</effectid>
								<effectcategory>motion</effectcategory>
								<effecttype>motion</effecttype>
								<mediatype>video</mediatype>
								<pproBypass>false</pproBypass>
								<parameter authoringApp="PremierePro">
									<parameterid>scale</parameterid>
									<name>Scale</name>
									<valuemin>0</valuemin>
									<valuemax>1000</valuemax>
									<value>225</value>
								</parameter>
								<parameter authoringApp="PremierePro">
									<parameterid>rotation</parameterid>
									<name>Rotation</name>
									<valuemin>-8640</valuemin>
									<valuemax>8640</valuemax>
									<value>0</value>
								</parameter>
								<parameter authoringApp="PremierePro">
									<parameterid>center</parameterid>
									<name>Center</name>
									<value>
										<horiz>0</horiz>
										<vert>0</vert>
									</value>
								</parameter>
								<parameter authoringApp="PremierePro">
									<parameterid>centerOffset</parameterid>
									<name>Anchor Point</name>
									<value>
										<horiz>0</horiz>
										<vert>0</vert>
									</value>
								</parameter>
								<parameter authoringApp="PremierePro">
									<parameterid>antiflicker</parameterid>
									<name>Anti-flicker Filter</name>
									<valuemin>0.0</valuemin>
									<valuemax>1.0</valuemax>
									<value>0</value>
								</parameter>
							</effect>
						</filter>
						<link>
							<linkclipref>clipitem-88</linkclipref>
							<mediatype>video</mediatype>
							<trackindex>1</trackindex>
							<clipindex>4</clipindex>
						</link>
						<link>
							<linkclipref>clipitem-96</linkclipref>
							<mediatype>audio</mediatype>
							<trackindex>1</trackindex>
							<clipindex>4</clipindex>
							<groupindex>1</groupindex>
						</link>
						<link>
							<linkclipref>clipitem-104</linkclipref>
							<mediatype>audio</mediatype>
							<trackindex>2</trackindex>
							<clipindex>4</clipindex>
							<groupindex>1</groupindex>
						</link>
						<logginginfo>
							<description />
							<scene />
							<shottake />
							<lognote />
							<good />
							<originalvideofilename />
							<originalaudiofilename />
						</logginginfo>
						<colorinfo>
							<lut />
							<lut1 />
							<asc_sop />
							<asc_sat />
							<lut2 />
						</colorinfo>
					<labels><label2>Lavender</label2></labels></clipitem>
					<clipitem id="clipitem-87">
						<masterclipid>clipitem-3-392</masterclipid>
						<name>Taylor_Swift_Travis_Kelce_-_The_New_Power_Couple.mp4</name>
						<enabled>TRUE</enabled>
						<duration>150</duration>
						<rate>
							<timebase>25</timebase>
							<ntsc>FALSE</ntsc>
						</rate>
						<start>132450</start>
						<end>132600</end>
						<in>58650</in>
						<out>58800</out>
						<pproTicksIn>0</pproTicksIn>
						<pproTicksOut>875013995520000</pproTicksOut>
						<alphatype>none</alphatype>
						<pixelaspectratio>square</pixelaspectratio>
						<anamorphic>FALSE</anamorphic>
						<file id="file-31">
							<name>Taylor_Swift_Travis_Kelce_-_The_New_Power_Couple.mp4</name>
							<pathurl>file://localhost/Users/themalikano/Documents/VideoAutomation/premiere_videos/Taylor_Swift_Travis_Kelce_-_The_New_Power_Couple.mp4</pathurl>
							<rate>
								<timebase>25</timebase>
								<ntsc>FALSE</ntsc>
							</rate>
							<duration>86118</duration>
							<timecode>
								<rate>
									<timebase>25</timebase>
									<ntsc>FALSE</ntsc>
								</rate>
								<string>00:00:00:00</string>
								<frame>0</frame>
								<displayformat>NDF</displayformat>
							</timecode>
							<media>
								<video>
									<samplecharacteristics>
										<rate>
											<timebase>25</timebase>
											<ntsc>FALSE</ntsc>
										</rate>
										<width>1920</width>
										<height>1080</height>
										<anamorphic>FALSE</anamorphic>
										<pixelaspectratio>square</pixelaspectratio>
										<fielddominance>none</fielddominance>
									</samplecharacteristics>
								</video>
								<audio>
									<samplecharacteristics>
										<depth>16</depth>
										<samplerate>44100</samplerate>
									</samplecharacteristics>
									<channelcount>2</channelcount>
								</audio>
							</media>
						</file>
						<link>
							<linkclipref>clipitem-87</linkclipref>
							<mediatype>video</mediatype>
							<trackindex>1</trackindex>
							<clipindex>3</clipindex>
						</link>
						<link>
							<linkclipref>clipitem-95</linkclipref>
							<mediatype>audio</mediatype>
							<trackindex>1</trackindex>
							<clipindex>3</clipindex>
							<groupindex>1</groupindex>
						</link>
						<link>
							<linkclipref>clipitem-103</linkclipref>
							<mediatype>audio</mediatype>
							<trackindex>2</trackindex>
							<clipindex>3</clipindex>
							<groupindex>1</groupindex>
						</link>
						<logginginfo>
							<description />
							<scene />
							<shottake />
							<lognote />
							<good />
							<originalvideofilename />
							<originalaudiofilename />
						</logginginfo>
						<colorinfo>
							<lut />
							<lut1 />
							<asc_sop />
							<asc_sat />
							<lut2 />
						</colorinfo>
					<labels><label2>Caribbean</label2></labels></clipitem>
					<clipitem id="clipitem-88">
						<masterclipid>clipitem-4-251</masterclipid>
						<name>Travis_Kelce_ANNOUNCE_WEDDING_DATE_with_Taylor_Swift_Why_He_was_Delaying_all_Along.mp4</name>
						<enabled>TRUE</enabled>
						<duration>150</duration>
						<rate>
							<timebase>25</timebase>
							<ntsc>FALSE</ntsc>
						</rate>
						<start>132600</start>
						<end>132750</end>
						<in>37500</in>
						<out>37650</out>
						<pproTicksIn>0</pproTicksIn>
						<pproTicksOut>419410897920000</pproTicksOut>
						<alphatype>none</alphatype>
						<pixelaspectratio>square</pixelaspectratio>
						<anamorphic>FALSE</anamorphic>
						<file id="file-32">
							<name>Travis_Kelce_ANNOUNCE_WEDDING_DATE_with_Taylor_Swift_Why_He_was_Delaying_all_Along.mp4</name>
							<pathurl>file://localhost/Users/themalikano/Documents/VideoAutomation/premiere_videos/Travis_Kelce_ANNOUNCE_WEDDING_DATE_with_Taylor_Swift_Why_He_was_Delaying_all_Along.mp4</pathurl>
							<rate>
								<timebase>24</timebase>
								<ntsc>FALSE</ntsc>
							</rate>
							<duration>39627</duration>
							<timecode>
								<rate>
									<timebase>24</timebase>
									<ntsc>FALSE</ntsc>
								</rate>
								<string>00:00:00:00</string>
								<frame>0</frame>
								<displayformat>NDF</displayformat>
							</timecode>
							<media>
								<video>
									<samplecharacteristics>
										<rate>
											<timebase>24</timebase>
											<ntsc>FALSE</ntsc>
										</rate>
										<width>852</width>
										<height>480</height>
										<anamorphic>FALSE</anamorphic>
										<pixelaspectratio>square</pixelaspectratio>
										<fielddominance>none</fielddominance>
									</samplecharacteristics>
								</video>
								<audio>
									<samplecharacteristics>
										<depth>16</depth>
										<samplerate>44100</samplerate>
									</samplecharacteristics>
									<channelcount>2</channelcount>
								</audio>
							</media>
						</file>
						<filter>
							<effect>
								<name>Basic Motion</name>
								<effectid>basic</effectid>
								<effectcategory>motion</effectcategory>
								<effecttype>motion</effecttype>
								<mediatype>video</mediatype>
								<pproBypass>false</pproBypass>
								<parameter authoringApp="PremierePro">
									<parameterid>scale</parameterid>
									<name>Scale</name>
									<valuemin>0</valuemin>
									<valuemax>1000</valuemax>
									<value>225</value>
								</parameter>
								<parameter authoringApp="PremierePro">
									<parameterid>rotation</parameterid>
									<name>Rotation</name>
									<valuemin>-8640</valuemin>
									<valuemax>8640</valuemax>
									<value>0</value>
								</parameter>
								<parameter authoringApp="PremierePro">
									<parameterid>center</parameterid>
									<name>Center</name>
									<value>
										<horiz>0</horiz>
										<vert>0</vert>
									</value>
								</parameter>
								<parameter authoringApp="PremierePro">
									<parameterid>centerOffset</parameterid>
									<name>Anchor Point</name>
									<value>
										<horiz>0</horiz>
										<vert>0</vert>
									</value>
								</parameter>
								<parameter authoringApp="PremierePro">
									<parameterid>antiflicker</parameterid>
									<name>Anti-flicker Filter</name>
									<valuemin>0.0</valuemin>
									<valuemax>1.0</valuemax>
									<value>0</value>
								</parameter>
							</effect>
						</filter>
						<link>
							<linkclipref>clipitem-88</linkclipref>
							<mediatype>video</mediatype>
							<trackindex>1</trackindex>
							<clipindex>4</clipindex>
						</link>
						<link>
							<linkclipref>clipitem-96</linkclipref>
							<mediatype>audio</mediatype>
							<trackindex>1</trackindex>
							<clipindex>4</clipindex>
							<groupindex>1</groupindex>
						</link>
						<link>
							<linkclipref>clipitem-104</linkclipref>
							<mediatype>audio</mediatype>
							<trackindex>2</trackindex>
							<clipindex>4</clipindex>
							<groupindex>1</groupindex>
						</link>
						<logginginfo>
							<description />
							<scene />
							<shottake />
							<lognote />
							<good />
							<originalvideofilename />
							<originalaudiofilename />
						</logginginfo>
						<colorinfo>
							<lut />
							<lut1 />
							<asc_sop />
							<asc_sat />
							<lut2 />
						</colorinfo>
					<labels><label2>Lavender</label2></labels></clipitem>
					<clipitem id="clipitem-87">
						<masterclipid>clipitem-3-381</masterclipid>
						<name>Taylor_Swift_Travis_Kelce_-_The_New_Power_Couple.mp4</name>
						<enabled>TRUE</enabled>
						<duration>150</duration>
						<rate>
							<timebase>25</timebase>
							<ntsc>FALSE</ntsc>
						</rate>
						<start>132750</start>
						<end>132900</end>
						<in>57000</in>
						<out>57150</out>
						<pproTicksIn>0</pproTicksIn>
						<pproTicksOut>875013995520000</pproTicksOut>
						<alphatype>none</alphatype>
						<pixelaspectratio>square</pixelaspectratio>
						<anamorphic>FALSE</anamorphic>
						<file id="file-31">
							<name>Taylor_Swift_Travis_Kelce_-_The_New_Power_Couple.mp4</name>
							<pathurl>file://localhost/Users/themalikano/Documents/VideoAutomation/premiere_videos/Taylor_Swift_Travis_Kelce_-_The_New_Power_Couple.mp4</pathurl>
							<rate>
								<timebase>25</timebase>
								<ntsc>FALSE</ntsc>
							</rate>
							<duration>86118</duration>
							<timecode>
								<rate>
									<timebase>25</timebase>
									<ntsc>FALSE</ntsc>
								</rate>
								<string>00:00:00:00</string>
								<frame>0</frame>
								<displayformat>NDF</displayformat>
							</timecode>
							<media>
								<video>
									<samplecharacteristics>
										<rate>
											<timebase>25</timebase>
											<ntsc>FALSE</ntsc>
										</rate>
										<width>1920</width>
										<height>1080</height>
										<anamorphic>FALSE</anamorphic>
										<pixelaspectratio>square</pixelaspectratio>
										<fielddominance>none</fielddominance>
									</samplecharacteristics>
								</video>
								<audio>
									<samplecharacteristics>
										<depth>16</depth>
										<samplerate>44100</samplerate>
									</samplecharacteristics>
									<channelcount>2</channelcount>
								</audio>
							</media>
						</file>
						<link>
							<linkclipref>clipitem-87</linkclipref>
							<mediatype>video</mediatype>
							<trackindex>1</trackindex>
							<clipindex>3</clipindex>
						</link>
						<link>
							<linkclipref>clipitem-95</linkclipref>
							<mediatype>audio</mediatype>
							<trackindex>1</trackindex>
							<clipindex>3</clipindex>
							<groupindex>1</groupindex>
						</link>
						<link>
							<linkclipref>clipitem-103</linkclipref>
							<mediatype>audio</mediatype>
							<trackindex>2</trackindex>
							<clipindex>3</clipindex>
							<groupindex>1</groupindex>
						</link>
						<logginginfo>
							<description />
							<scene />
							<shottake />
							<lognote />
							<good />
							<originalvideofilename />
							<originalaudiofilename />
						</logginginfo>
						<colorinfo>
							<lut />
							<lut1 />
							<asc_sop />
							<asc_sat />
							<lut2 />
						</colorinfo>
					<labels><label2>Caribbean</label2></labels></clipitem>
					<clipitem id="clipitem-88">
						<masterclipid>clipitem-4-246</masterclipid>
						<name>Travis_Kelce_ANNOUNCE_WEDDING_DATE_with_Taylor_Swift_Why_He_was_Delaying_all_Along.mp4</name>
						<enabled>TRUE</enabled>
						<duration>150</duration>
						<rate>
							<timebase>25</timebase>
							<ntsc>FALSE</ntsc>
						</rate>
						<start>132900</start>
						<end>133050</end>
						<in>36750</in>
						<out>36900</out>
						<pproTicksIn>0</pproTicksIn>
						<pproTicksOut>419410897920000</pproTicksOut>
						<alphatype>none</alphatype>
						<pixelaspectratio>square</pixelaspectratio>
						<anamorphic>FALSE</anamorphic>
						<file id="file-32">
							<name>Travis_Kelce_ANNOUNCE_WEDDING_DATE_with_Taylor_Swift_Why_He_was_Delaying_all_Along.mp4</name>
							<pathurl>file://localhost/Users/themalikano/Documents/VideoAutomation/premiere_videos/Travis_Kelce_ANNOUNCE_WEDDING_DATE_with_Taylor_Swift_Why_He_was_Delaying_all_Along.mp4</pathurl>
							<rate>
								<timebase>24</timebase>
								<ntsc>FALSE</ntsc>
							</rate>
							<duration>39627</duration>
							<timecode>
								<rate>
									<timebase>24</timebase>
									<ntsc>FALSE</ntsc>
								</rate>
								<string>00:00:00:00</string>
								<frame>0</frame>
								<displayformat>NDF</displayformat>
							</timecode>
							<media>
								<video>
									<samplecharacteristics>
										<rate>
											<timebase>24</timebase>
											<ntsc>FALSE</ntsc>
										</rate>
										<width>852</width>
										<height>480</height>
										<anamorphic>FALSE</anamorphic>
										<pixelaspectratio>square</pixelaspectratio>
										<fielddominance>none</fielddominance>
									</samplecharacteristics>
								</video>
								<audio>
									<samplecharacteristics>
										<depth>16</depth>
										<samplerate>44100</samplerate>
									</samplecharacteristics>
									<channelcount>2</channelcount>
								</audio>
							</media>
						</file>
						<filter>
							<effect>
								<name>Basic Motion</name>
								<effectid>basic</effectid>
								<effectcategory>motion</effectcategory>
								<effecttype>motion</effecttype>
								<mediatype>video</mediatype>
								<pproBypass>false</pproBypass>
								<parameter authoringApp="PremierePro">
									<parameterid>scale</parameterid>
									<name>Scale</name>
									<valuemin>0</valuemin>
									<valuemax>1000</valuemax>
									<value>225</value>
								</parameter>
								<parameter authoringApp="PremierePro">
									<parameterid>rotation</parameterid>
									<name>Rotation</name>
									<valuemin>-8640</valuemin>
									<valuemax>8640</valuemax>
									<value>0</value>
								</parameter>
								<parameter authoringApp="PremierePro">
									<parameterid>center</parameterid>
									<name>Center</name>
									<value>
										<horiz>0</horiz>
										<vert>0</vert>
									</value>
								</parameter>
								<parameter authoringApp="PremierePro">
									<parameterid>centerOffset</parameterid>
									<name>Anchor Point</name>
									<value>
										<horiz>0</horiz>
										<vert>0</vert>
									</value>
								</parameter>
								<parameter authoringApp="PremierePro">
									<parameterid>antiflicker</parameterid>
									<name>Anti-flicker Filter</name>
									<valuemin>0.0</valuemin>
									<valuemax>1.0</valuemax>
									<value>0</value>
								</parameter>
							</effect>
						</filter>
						<link>
							<linkclipref>clipitem-88</linkclipref>
							<mediatype>video</mediatype>
							<trackindex>1</trackindex>
							<clipindex>4</clipindex>
						</link>
						<link>
							<linkclipref>clipitem-96</linkclipref>
							<mediatype>audio</mediatype>
							<trackindex>1</trackindex>
							<clipindex>4</clipindex>
							<groupindex>1</groupindex>
						</link>
						<link>
							<linkclipref>clipitem-104</linkclipref>
							<mediatype>audio</mediatype>
							<trackindex>2</trackindex>
							<clipindex>4</clipindex>
							<groupindex>1</groupindex>
						</link>
						<logginginfo>
							<description />
							<scene />
							<shottake />
							<lognote />
							<good />
							<originalvideofilename />
							<originalaudiofilename />
						</logginginfo>
						<colorinfo>
							<lut />
							<lut1 />
							<asc_sop />
							<asc_sat />
							<lut2 />
						</colorinfo>
					<labels><label2>Lavender</label2></labels></clipitem>
					<clipitem id="clipitem-87">
						<masterclipid>clipitem-3-123</masterclipid>
						<name>Taylor_Swift_Travis_Kelce_-_The_New_Power_Couple.mp4</name>
						<enabled>TRUE</enabled>
						<duration>150</duration>
						<rate>
							<timebase>25</timebase>
							<ntsc>FALSE</ntsc>
						</rate>
						<start>133050</start>
						<end>133200</end>
						<in>18300</in>
						<out>18450</out>
						<pproTicksIn>0</pproTicksIn>
						<pproTicksOut>875013995520000</pproTicksOut>
						<alphatype>none</alphatype>
						<pixelaspectratio>square</pixelaspectratio>
						<anamorphic>FALSE</anamorphic>
						<file id="file-31">
							<name>Taylor_Swift_Travis_Kelce_-_The_New_Power_Couple.mp4</name>
							<pathurl>file://localhost/Users/themalikano/Documents/VideoAutomation/premiere_videos/Taylor_Swift_Travis_Kelce_-_The_New_Power_Couple.mp4</pathurl>
							<rate>
								<timebase>25</timebase>
								<ntsc>FALSE</ntsc>
							</rate>
							<duration>86118</duration>
							<timecode>
								<rate>
									<timebase>25</timebase>
									<ntsc>FALSE</ntsc>
								</rate>
								<string>00:00:00:00</string>
								<frame>0</frame>
								<displayformat>NDF</displayformat>
							</timecode>
							<media>
								<video>
									<samplecharacteristics>
										<rate>
											<timebase>25</timebase>
											<ntsc>FALSE</ntsc>
										</rate>
										<width>1920</width>
										<height>1080</height>
										<anamorphic>FALSE</anamorphic>
										<pixelaspectratio>square</pixelaspectratio>
										<fielddominance>none</fielddominance>
									</samplecharacteristics>
								</video>
								<audio>
									<samplecharacteristics>
										<depth>16</depth>
										<samplerate>44100</samplerate>
									</samplecharacteristics>
									<channelcount>2</channelcount>
								</audio>
							</media>
						</file>
						<link>
							<linkclipref>clipitem-87</linkclipref>
							<mediatype>video</mediatype>
							<trackindex>1</trackindex>
							<clipindex>3</clipindex>
						</link>
						<link>
							<linkclipref>clipitem-95</linkclipref>
							<mediatype>audio</mediatype>
							<trackindex>1</trackindex>
							<clipindex>3</clipindex>
							<groupindex>1</groupindex>
						</link>
						<link>
							<linkclipref>clipitem-103</linkclipref>
							<mediatype>audio</mediatype>
							<trackindex>2</trackindex>
							<clipindex>3</clipindex>
							<groupindex>1</groupindex>
						</link>
						<logginginfo>
							<description />
							<scene />
							<shottake />
							<lognote />
							<good />
							<originalvideofilename />
							<originalaudiofilename />
						</logginginfo>
						<colorinfo>
							<lut />
							<lut1 />
							<asc_sop />
							<asc_sat />
							<lut2 />
						</colorinfo>
					<labels><label2>Caribbean</label2></labels></clipitem>
					<clipitem id="clipitem-88">
						<masterclipid>clipitem-4-97</masterclipid>
						<name>Travis_Kelce_ANNOUNCE_WEDDING_DATE_with_Taylor_Swift_Why_He_was_Delaying_all_Along.mp4</name>
						<enabled>TRUE</enabled>
						<duration>150</duration>
						<rate>
							<timebase>25</timebase>
							<ntsc>FALSE</ntsc>
						</rate>
						<start>133200</start>
						<end>133350</end>
						<in>14400</in>
						<out>14550</out>
						<pproTicksIn>0</pproTicksIn>
						<pproTicksOut>419410897920000</pproTicksOut>
						<alphatype>none</alphatype>
						<pixelaspectratio>square</pixelaspectratio>
						<anamorphic>FALSE</anamorphic>
						<file id="file-32">
							<name>Travis_Kelce_ANNOUNCE_WEDDING_DATE_with_Taylor_Swift_Why_He_was_Delaying_all_Along.mp4</name>
							<pathurl>file://localhost/Users/themalikano/Documents/VideoAutomation/premiere_videos/Travis_Kelce_ANNOUNCE_WEDDING_DATE_with_Taylor_Swift_Why_He_was_Delaying_all_Along.mp4</pathurl>
							<rate>
								<timebase>24</timebase>
								<ntsc>FALSE</ntsc>
							</rate>
							<duration>39627</duration>
							<timecode>
								<rate>
									<timebase>24</timebase>
									<ntsc>FALSE</ntsc>
								</rate>
								<string>00:00:00:00</string>
								<frame>0</frame>
								<displayformat>NDF</displayformat>
							</timecode>
							<media>
								<video>
									<samplecharacteristics>
										<rate>
											<timebase>24</timebase>
											<ntsc>FALSE</ntsc>
										</rate>
										<width>852</width>
										<height>480</height>
										<anamorphic>FALSE</anamorphic>
										<pixelaspectratio>square</pixelaspectratio>
										<fielddominance>none</fielddominance>
									</samplecharacteristics>
								</video>
								<audio>
									<samplecharacteristics>
										<depth>16</depth>
										<samplerate>44100</samplerate>
									</samplecharacteristics>
									<channelcount>2</channelcount>
								</audio>
							</media>
						</file>
						<filter>
							<effect>
								<name>Basic Motion</name>
								<effectid>basic</effectid>
								<effectcategory>motion</effectcategory>
								<effecttype>motion</effecttype>
								<mediatype>video</mediatype>
								<pproBypass>false</pproBypass>
								<parameter authoringApp="PremierePro">
									<parameterid>scale</parameterid>
									<name>Scale</name>
									<valuemin>0</valuemin>
									<valuemax>1000</valuemax>
									<value>225</value>
								</parameter>
								<parameter authoringApp="PremierePro">
									<parameterid>rotation</parameterid>
									<name>Rotation</name>
									<valuemin>-8640</valuemin>
									<valuemax>8640</valuemax>
									<value>0</value>
								</parameter>
								<parameter authoringApp="PremierePro">
									<parameterid>center</parameterid>
									<name>Center</name>
									<value>
										<horiz>0</horiz>
										<vert>0</vert>
									</value>
								</parameter>
								<parameter authoringApp="PremierePro">
									<parameterid>centerOffset</parameterid>
									<name>Anchor Point</name>
									<value>
										<horiz>0</horiz>
										<vert>0</vert>
									</value>
								</parameter>
								<parameter authoringApp="PremierePro">
									<parameterid>antiflicker</parameterid>
									<name>Anti-flicker Filter</name>
									<valuemin>0.0</valuemin>
									<valuemax>1.0</valuemax>
									<value>0</value>
								</parameter>
							</effect>
						</filter>
						<link>
							<linkclipref>clipitem-88</linkclipref>
							<mediatype>video</mediatype>
							<trackindex>1</trackindex>
							<clipindex>4</clipindex>
						</link>
						<link>
							<linkclipref>clipitem-96</linkclipref>
							<mediatype>audio</mediatype>
							<trackindex>1</trackindex>
							<clipindex>4</clipindex>
							<groupindex>1</groupindex>
						</link>
						<link>
							<linkclipref>clipitem-104</linkclipref>
							<mediatype>audio</mediatype>
							<trackindex>2</trackindex>
							<clipindex>4</clipindex>
							<groupindex>1</groupindex>
						</link>
						<logginginfo>
							<description />
							<scene />
							<shottake />
							<lognote />
							<good />
							<originalvideofilename />
							<originalaudiofilename />
						</logginginfo>
						<colorinfo>
							<lut />
							<lut1 />
							<asc_sop />
							<asc_sat />
							<lut2 />
						</colorinfo>
					<labels><label2>Lavender</label2></labels></clipitem>
					<clipitem id="clipitem-87">
						<masterclipid>clipitem-3-54</masterclipid>
						<name>Taylor_Swift_Travis_Kelce_-_The_New_Power_Couple.mp4</name>
						<enabled>TRUE</enabled>
						<duration>150</duration>
						<rate>
							<timebase>25</timebase>
							<ntsc>FALSE</ntsc>
						</rate>
						<start>133350</start>
						<end>133500</end>
						<in>7950</in>
						<out>8100</out>
						<pproTicksIn>0</pproTicksIn>
						<pproTicksOut>875013995520000</pproTicksOut>
						<alphatype>none</alphatype>
						<pixelaspectratio>square</pixelaspectratio>
						<anamorphic>FALSE</anamorphic>
						<file id="file-31">
							<name>Taylor_Swift_Travis_Kelce_-_The_New_Power_Couple.mp4</name>
							<pathurl>file://localhost/Users/themalikano/Documents/VideoAutomation/premiere_videos/Taylor_Swift_Travis_Kelce_-_The_New_Power_Couple.mp4</pathurl>
							<rate>
								<timebase>25</timebase>
								<ntsc>FALSE</ntsc>
							</rate>
							<duration>86118</duration>
							<timecode>
								<rate>
									<timebase>25</timebase>
									<ntsc>FALSE</ntsc>
								</rate>
								<string>00:00:00:00</string>
								<frame>0</frame>
								<displayformat>NDF</displayformat>
							</timecode>
							<media>
								<video>
									<samplecharacteristics>
										<rate>
											<timebase>25</timebase>
											<ntsc>FALSE</ntsc>
										</rate>
										<width>1920</width>
										<height>1080</height>
										<anamorphic>FALSE</anamorphic>
										<pixelaspectratio>square</pixelaspectratio>
										<fielddominance>none</fielddominance>
									</samplecharacteristics>
								</video>
								<audio>
									<samplecharacteristics>
										<depth>16</depth>
										<samplerate>44100</samplerate>
									</samplecharacteristics>
									<channelcount>2</channelcount>
								</audio>
							</media>
						</file>
						<link>
							<linkclipref>clipitem-87</linkclipref>
							<mediatype>video</mediatype>
							<trackindex>1</trackindex>
							<clipindex>3</clipindex>
						</link>
						<link>
							<linkclipref>clipitem-95</linkclipref>
							<mediatype>audio</mediatype>
							<trackindex>1</trackindex>
							<clipindex>3</clipindex>
							<groupindex>1</groupindex>
						</link>
						<link>
							<linkclipref>clipitem-103</linkclipref>
							<mediatype>audio</mediatype>
							<trackindex>2</trackindex>
							<clipindex>3</clipindex>
							<groupindex>1</groupindex>
						</link>
						<logginginfo>
							<description />
							<scene />
							<shottake />
							<lognote />
							<good />
							<originalvideofilename />
							<originalaudiofilename />
						</logginginfo>
						<colorinfo>
							<lut />
							<lut1 />
							<asc_sop />
							<asc_sat />
							<lut2 />
						</colorinfo>
					<labels><label2>Caribbean</label2></labels></clipitem>
					<clipitem id="clipitem-88">
						<masterclipid>clipitem-4-82</masterclipid>
						<name>Travis_Kelce_ANNOUNCE_WEDDING_DATE_with_Taylor_Swift_Why_He_was_Delaying_all_Along.mp4</name>
						<enabled>TRUE</enabled>
						<duration>150</duration>
						<rate>
							<timebase>25</timebase>
							<ntsc>FALSE</ntsc>
						</rate>
						<start>133500</start>
						<end>133650</end>
						<in>12150</in>
						<out>12300</out>
						<pproTicksIn>0</pproTicksIn>
						<pproTicksOut>419410897920000</pproTicksOut>
						<alphatype>none</alphatype>
						<pixelaspectratio>square</pixelaspectratio>
						<anamorphic>FALSE</anamorphic>
						<file id="file-32">
							<name>Travis_Kelce_ANNOUNCE_WEDDING_DATE_with_Taylor_Swift_Why_He_was_Delaying_all_Along.mp4</name>
							<pathurl>file://localhost/Users/themalikano/Documents/VideoAutomation/premiere_videos/Travis_Kelce_ANNOUNCE_WEDDING_DATE_with_Taylor_Swift_Why_He_was_Delaying_all_Along.mp4</pathurl>
							<rate>
								<timebase>24</timebase>
								<ntsc>FALSE</ntsc>
							</rate>
							<duration>39627</duration>
							<timecode>
								<rate>
									<timebase>24</timebase>
									<ntsc>FALSE</ntsc>
								</rate>
								<string>00:00:00:00</string>
								<frame>0</frame>
								<displayformat>NDF</displayformat>
							</timecode>
							<media>
								<video>
									<samplecharacteristics>
										<rate>
											<timebase>24</timebase>
											<ntsc>FALSE</ntsc>
										</rate>
										<width>852</width>
										<height>480</height>
										<anamorphic>FALSE</anamorphic>
										<pixelaspectratio>square</pixelaspectratio>
										<fielddominance>none</fielddominance>
									</samplecharacteristics>
								</video>
								<audio>
									<samplecharacteristics>
										<depth>16</depth>
										<samplerate>44100</samplerate>
									</samplecharacteristics>
									<channelcount>2</channelcount>
								</audio>
							</media>
						</file>
						<filter>
							<effect>
								<name>Basic Motion</name>
								<effectid>basic</effectid>
								<effectcategory>motion</effectcategory>
								<effecttype>motion</effecttype>
								<mediatype>video</mediatype>
								<pproBypass>false</pproBypass>
								<parameter authoringApp="PremierePro">
									<parameterid>scale</parameterid>
									<name>Scale</name>
									<valuemin>0</valuemin>
									<valuemax>1000</valuemax>
									<value>225</value>
								</parameter>
								<parameter authoringApp="PremierePro">
									<parameterid>rotation</parameterid>
									<name>Rotation</name>
									<valuemin>-8640</valuemin>
									<valuemax>8640</valuemax>
									<value>0</value>
								</parameter>
								<parameter authoringApp="PremierePro">
									<parameterid>center</parameterid>
									<name>Center</name>
									<value>
										<horiz>0</horiz>
										<vert>0</vert>
									</value>
								</parameter>
								<parameter authoringApp="PremierePro">
									<parameterid>centerOffset</parameterid>
									<name>Anchor Point</name>
									<value>
										<horiz>0</horiz>
										<vert>0</vert>
									</value>
								</parameter>
								<parameter authoringApp="PremierePro">
									<parameterid>antiflicker</parameterid>
									<name>Anti-flicker Filter</name>
									<valuemin>0.0</valuemin>
									<valuemax>1.0</valuemax>
									<value>0</value>
								</parameter>
							</effect>
						</filter>
						<link>
							<linkclipref>clipitem-88</linkclipref>
							<mediatype>video</mediatype>
							<trackindex>1</trackindex>
							<clipindex>4</clipindex>
						</link>
						<link>
							<linkclipref>clipitem-96</linkclipref>
							<mediatype>audio</mediatype>
							<trackindex>1</trackindex>
							<clipindex>4</clipindex>
							<groupindex>1</groupindex>
						</link>
						<link>
							<linkclipref>clipitem-104</linkclipref>
							<mediatype>audio</mediatype>
							<trackindex>2</trackindex>
							<clipindex>4</clipindex>
							<groupindex>1</groupindex>
						</link>
						<logginginfo>
							<description />
							<scene />
							<shottake />
							<lognote />
							<good />
							<originalvideofilename />
							<originalaudiofilename />
						</logginginfo>
						<colorinfo>
							<lut />
							<lut1 />
							<asc_sop />
							<asc_sat />
							<lut2 />
						</colorinfo>
					<labels><label2>Lavender</label2></labels></clipitem>
					<clipitem id="clipitem-87">
						<masterclipid>clipitem-3-379</masterclipid>
						<name>Taylor_Swift_Travis_Kelce_-_The_New_Power_Couple.mp4</name>
						<enabled>TRUE</enabled>
						<duration>150</duration>
						<rate>
							<timebase>25</timebase>
							<ntsc>FALSE</ntsc>
						</rate>
						<start>133650</start>
						<end>133800</end>
						<in>56700</in>
						<out>56850</out>
						<pproTicksIn>0</pproTicksIn>
						<pproTicksOut>875013995520000</pproTicksOut>
						<alphatype>none</alphatype>
						<pixelaspectratio>square</pixelaspectratio>
						<anamorphic>FALSE</anamorphic>
						<file id="file-31">
							<name>Taylor_Swift_Travis_Kelce_-_The_New_Power_Couple.mp4</name>
							<pathurl>file://localhost/Users/themalikano/Documents/VideoAutomation/premiere_videos/Taylor_Swift_Travis_Kelce_-_The_New_Power_Couple.mp4</pathurl>
							<rate>
								<timebase>25</timebase>
								<ntsc>FALSE</ntsc>
							</rate>
							<duration>86118</duration>
							<timecode>
								<rate>
									<timebase>25</timebase>
									<ntsc>FALSE</ntsc>
								</rate>
								<string>00:00:00:00</string>
								<frame>0</frame>
								<displayformat>NDF</displayformat>
							</timecode>
							<media>
								<video>
									<samplecharacteristics>
										<rate>
											<timebase>25</timebase>
											<ntsc>FALSE</ntsc>
										</rate>
										<width>1920</width>
										<height>1080</height>
										<anamorphic>FALSE</anamorphic>
										<pixelaspectratio>square</pixelaspectratio>
										<fielddominance>none</fielddominance>
									</samplecharacteristics>
								</video>
								<audio>
									<samplecharacteristics>
										<depth>16</depth>
										<samplerate>44100</samplerate>
									</samplecharacteristics>
									<channelcount>2</channelcount>
								</audio>
							</media>
						</file>
						<link>
							<linkclipref>clipitem-87</linkclipref>
							<mediatype>video</mediatype>
							<trackindex>1</trackindex>
							<clipindex>3</clipindex>
						</link>
						<link>
							<linkclipref>clipitem-95</linkclipref>
							<mediatype>audio</mediatype>
							<trackindex>1</trackindex>
							<clipindex>3</clipindex>
							<groupindex>1</groupindex>
						</link>
						<link>
							<linkclipref>clipitem-103</linkclipref>
							<mediatype>audio</mediatype>
							<trackindex>2</trackindex>
							<clipindex>3</clipindex>
							<groupindex>1</groupindex>
						</link>
						<logginginfo>
							<description />
							<scene />
							<shottake />
							<lognote />
							<good />
							<originalvideofilename />
							<originalaudiofilename />
						</logginginfo>
						<colorinfo>
							<lut />
							<lut1 />
							<asc_sop />
							<asc_sat />
							<lut2 />
						</colorinfo>
					<labels><label2>Caribbean</label2></labels></clipitem>
					<clipitem id="clipitem-88">
						<masterclipid>clipitem-4-124</masterclipid>
						<name>Travis_Kelce_ANNOUNCE_WEDDING_DATE_with_Taylor_Swift_Why_He_was_Delaying_all_Along.mp4</name>
						<enabled>TRUE</enabled>
						<duration>150</duration>
						<rate>
							<timebase>25</timebase>
							<ntsc>FALSE</ntsc>
						</rate>
						<start>133800</start>
						<end>133950</end>
						<in>18450</in>
						<out>18600</out>
						<pproTicksIn>0</pproTicksIn>
						<pproTicksOut>419410897920000</pproTicksOut>
						<alphatype>none</alphatype>
						<pixelaspectratio>square</pixelaspectratio>
						<anamorphic>FALSE</anamorphic>
						<file id="file-32">
							<name>Travis_Kelce_ANNOUNCE_WEDDING_DATE_with_Taylor_Swift_Why_He_was_Delaying_all_Along.mp4</name>
							<pathurl>file://localhost/Users/themalikano/Documents/VideoAutomation/premiere_videos/Travis_Kelce_ANNOUNCE_WEDDING_DATE_with_Taylor_Swift_Why_He_was_Delaying_all_Along.mp4</pathurl>
							<rate>
								<timebase>24</timebase>
								<ntsc>FALSE</ntsc>
							</rate>
							<duration>39627</duration>
							<timecode>
								<rate>
									<timebase>24</timebase>
									<ntsc>FALSE</ntsc>
								</rate>
								<string>00:00:00:00</string>
								<frame>0</frame>
								<displayformat>NDF</displayformat>
							</timecode>
							<media>
								<video>
									<samplecharacteristics>
										<rate>
											<timebase>24</timebase>
											<ntsc>FALSE</ntsc>
										</rate>
										<width>852</width>
										<height>480</height>
										<anamorphic>FALSE</anamorphic>
										<pixelaspectratio>square</pixelaspectratio>
										<fielddominance>none</fielddominance>
									</samplecharacteristics>
								</video>
								<audio>
									<samplecharacteristics>
										<depth>16</depth>
										<samplerate>44100</samplerate>
									</samplecharacteristics>
									<channelcount>2</channelcount>
								</audio>
							</media>
						</file>
						<filter>
							<effect>
								<name>Basic Motion</name>
								<effectid>basic</effectid>
								<effectcategory>motion</effectcategory>
								<effecttype>motion</effecttype>
								<mediatype>video</mediatype>
								<pproBypass>false</pproBypass>
								<parameter authoringApp="PremierePro">
									<parameterid>scale</parameterid>
									<name>Scale</name>
									<valuemin>0</valuemin>
									<valuemax>1000</valuemax>
									<value>225</value>
								</parameter>
								<parameter authoringApp="PremierePro">
									<parameterid>rotation</parameterid>
									<name>Rotation</name>
									<valuemin>-8640</valuemin>
									<valuemax>8640</valuemax>
									<value>0</value>
								</parameter>
								<parameter authoringApp="PremierePro">
									<parameterid>center</parameterid>
									<name>Center</name>
									<value>
										<horiz>0</horiz>
										<vert>0</vert>
									</value>
								</parameter>
								<parameter authoringApp="PremierePro">
									<parameterid>centerOffset</parameterid>
									<name>Anchor Point</name>
									<value>
										<horiz>0</horiz>
										<vert>0</vert>
									</value>
								</parameter>
								<parameter authoringApp="PremierePro">
									<parameterid>antiflicker</parameterid>
									<name>Anti-flicker Filter</name>
									<valuemin>0.0</valuemin>
									<valuemax>1.0</valuemax>
									<value>0</value>
								</parameter>
							</effect>
						</filter>
						<link>
							<linkclipref>clipitem-88</linkclipref>
							<mediatype>video</mediatype>
							<trackindex>1</trackindex>
							<clipindex>4</clipindex>
						</link>
						<link>
							<linkclipref>clipitem-96</linkclipref>
							<mediatype>audio</mediatype>
							<trackindex>1</trackindex>
							<clipindex>4</clipindex>
							<groupindex>1</groupindex>
						</link>
						<link>
							<linkclipref>clipitem-104</linkclipref>
							<mediatype>audio</mediatype>
							<trackindex>2</trackindex>
							<clipindex>4</clipindex>
							<groupindex>1</groupindex>
						</link>
						<logginginfo>
							<description />
							<scene />
							<shottake />
							<lognote />
							<good />
							<originalvideofilename />
							<originalaudiofilename />
						</logginginfo>
						<colorinfo>
							<lut />
							<lut1 />
							<asc_sop />
							<asc_sat />
							<lut2 />
						</colorinfo>
					<labels><label2>Lavender</label2></labels></clipitem>
					<clipitem id="clipitem-87">
						<masterclipid>clipitem-3-325</masterclipid>
						<name>Taylor_Swift_Travis_Kelce_-_The_New_Power_Couple.mp4</name>
						<enabled>TRUE</enabled>
						<duration>150</duration>
						<rate>
							<timebase>25</timebase>
							<ntsc>FALSE</ntsc>
						</rate>
						<start>133950</start>
						<end>134100</end>
						<in>48600</in>
						<out>48750</out>
						<pproTicksIn>0</pproTicksIn>
						<pproTicksOut>875013995520000</pproTicksOut>
						<alphatype>none</alphatype>
						<pixelaspectratio>square</pixelaspectratio>
						<anamorphic>FALSE</anamorphic>
						<file id="file-31">
							<name>Taylor_Swift_Travis_Kelce_-_The_New_Power_Couple.mp4</name>
							<pathurl>file://localhost/Users/themalikano/Documents/VideoAutomation/premiere_videos/Taylor_Swift_Travis_Kelce_-_The_New_Power_Couple.mp4</pathurl>
							<rate>
								<timebase>25</timebase>
								<ntsc>FALSE</ntsc>
							</rate>
							<duration>86118</duration>
							<timecode>
								<rate>
									<timebase>25</timebase>
									<ntsc>FALSE</ntsc>
								</rate>
								<string>00:00:00:00</string>
								<frame>0</frame>
								<displayformat>NDF</displayformat>
							</timecode>
							<media>
								<video>
									<samplecharacteristics>
										<rate>
											<timebase>25</timebase>
											<ntsc>FALSE</ntsc>
										</rate>
										<width>1920</width>
										<height>1080</height>
										<anamorphic>FALSE</anamorphic>
										<pixelaspectratio>square</pixelaspectratio>
										<fielddominance>none</fielddominance>
									</samplecharacteristics>
								</video>
								<audio>
									<samplecharacteristics>
										<depth>16</depth>
										<samplerate>44100</samplerate>
									</samplecharacteristics>
									<channelcount>2</channelcount>
								</audio>
							</media>
						</file>
						<link>
							<linkclipref>clipitem-87</linkclipref>
							<mediatype>video</mediatype>
							<trackindex>1</trackindex>
							<clipindex>3</clipindex>
						</link>
						<link>
							<linkclipref>clipitem-95</linkclipref>
							<mediatype>audio</mediatype>
							<trackindex>1</trackindex>
							<clipindex>3</clipindex>
							<groupindex>1</groupindex>
						</link>
						<link>
							<linkclipref>clipitem-103</linkclipref>
							<mediatype>audio</mediatype>
							<trackindex>2</trackindex>
							<clipindex>3</clipindex>
							<groupindex>1</groupindex>
						</link>
						<logginginfo>
							<description />
							<scene />
							<shottake />
							<lognote />
							<good />
							<originalvideofilename />
							<originalaudiofilename />
						</logginginfo>
						<colorinfo>
							<lut />
							<lut1 />
							<asc_sop />
							<asc_sat />
							<lut2 />
						</colorinfo>
					<labels><label2>Caribbean</label2></labels></clipitem>
					<clipitem id="clipitem-88">
						<masterclipid>clipitem-4-66</masterclipid>
						<name>Travis_Kelce_ANNOUNCE_WEDDING_DATE_with_Taylor_Swift_Why_He_was_Delaying_all_Along.mp4</name>
						<enabled>TRUE</enabled>
						<duration>150</duration>
						<rate>
							<timebase>25</timebase>
							<ntsc>FALSE</ntsc>
						</rate>
						<start>134100</start>
						<end>134250</end>
						<in>9750</in>
						<out>9900</out>
						<pproTicksIn>0</pproTicksIn>
						<pproTicksOut>419410897920000</pproTicksOut>
						<alphatype>none</alphatype>
						<pixelaspectratio>square</pixelaspectratio>
						<anamorphic>FALSE</anamorphic>
						<file id="file-32">
							<name>Travis_Kelce_ANNOUNCE_WEDDING_DATE_with_Taylor_Swift_Why_He_was_Delaying_all_Along.mp4</name>
							<pathurl>file://localhost/Users/themalikano/Documents/VideoAutomation/premiere_videos/Travis_Kelce_ANNOUNCE_WEDDING_DATE_with_Taylor_Swift_Why_He_was_Delaying_all_Along.mp4</pathurl>
							<rate>
								<timebase>24</timebase>
								<ntsc>FALSE</ntsc>
							</rate>
							<duration>39627</duration>
							<timecode>
								<rate>
									<timebase>24</timebase>
									<ntsc>FALSE</ntsc>
								</rate>
								<string>00:00:00:00</string>
								<frame>0</frame>
								<displayformat>NDF</displayformat>
							</timecode>
							<media>
								<video>
									<samplecharacteristics>
										<rate>
											<timebase>24</timebase>
											<ntsc>FALSE</ntsc>
										</rate>
										<width>852</width>
										<height>480</height>
										<anamorphic>FALSE</anamorphic>
										<pixelaspectratio>square</pixelaspectratio>
										<fielddominance>none</fielddominance>
									</samplecharacteristics>
								</video>
								<audio>
									<samplecharacteristics>
										<depth>16</depth>
										<samplerate>44100</samplerate>
									</samplecharacteristics>
									<channelcount>2</channelcount>
								</audio>
							</media>
						</file>
						<filter>
							<effect>
								<name>Basic Motion</name>
								<effectid>basic</effectid>
								<effectcategory>motion</effectcategory>
								<effecttype>motion</effecttype>
								<mediatype>video</mediatype>
								<pproBypass>false</pproBypass>
								<parameter authoringApp="PremierePro">
									<parameterid>scale</parameterid>
									<name>Scale</name>
									<valuemin>0</valuemin>
									<valuemax>1000</valuemax>
									<value>225</value>
								</parameter>
								<parameter authoringApp="PremierePro">
									<parameterid>rotation</parameterid>
									<name>Rotation</name>
									<valuemin>-8640</valuemin>
									<valuemax>8640</valuemax>
									<value>0</value>
								</parameter>
								<parameter authoringApp="PremierePro">
									<parameterid>center</parameterid>
									<name>Center</name>
									<value>
										<horiz>0</horiz>
										<vert>0</vert>
									</value>
								</parameter>
								<parameter authoringApp="PremierePro">
									<parameterid>centerOffset</parameterid>
									<name>Anchor Point</name>
									<value>
										<horiz>0</horiz>
										<vert>0</vert>
									</value>
								</parameter>
								<parameter authoringApp="PremierePro">
									<parameterid>antiflicker</parameterid>
									<name>Anti-flicker Filter</name>
									<valuemin>0.0</valuemin>
									<valuemax>1.0</valuemax>
									<value>0</value>
								</parameter>
							</effect>
						</filter>
						<link>
							<linkclipref>clipitem-88</linkclipref>
							<mediatype>video</mediatype>
							<trackindex>1</trackindex>
							<clipindex>4</clipindex>
						</link>
						<link>
							<linkclipref>clipitem-96</linkclipref>
							<mediatype>audio</mediatype>
							<trackindex>1</trackindex>
							<clipindex>4</clipindex>
							<groupindex>1</groupindex>
						</link>
						<link>
							<linkclipref>clipitem-104</linkclipref>
							<mediatype>audio</mediatype>
							<trackindex>2</trackindex>
							<clipindex>4</clipindex>
							<groupindex>1</groupindex>
						</link>
						<logginginfo>
							<description />
							<scene />
							<shottake />
							<lognote />
							<good />
							<originalvideofilename />
							<originalaudiofilename />
						</logginginfo>
						<colorinfo>
							<lut />
							<lut1 />
							<asc_sop />
							<asc_sat />
							<lut2 />
						</colorinfo>
					<labels><label2>Lavender</label2></labels></clipitem>
					<clipitem id="clipitem-87">
						<masterclipid>clipitem-3-384</masterclipid>
						<name>Taylor_Swift_Travis_Kelce_-_The_New_Power_Couple.mp4</name>
						<enabled>TRUE</enabled>
						<duration>150</duration>
						<rate>
							<timebase>25</timebase>
							<ntsc>FALSE</ntsc>
						</rate>
						<start>134250</start>
						<end>134400</end>
						<in>57450</in>
						<out>57600</out>
						<pproTicksIn>0</pproTicksIn>
						<pproTicksOut>875013995520000</pproTicksOut>
						<alphatype>none</alphatype>
						<pixelaspectratio>square</pixelaspectratio>
						<anamorphic>FALSE</anamorphic>
						<file id="file-31">
							<name>Taylor_Swift_Travis_Kelce_-_The_New_Power_Couple.mp4</name>
							<pathurl>file://localhost/Users/themalikano/Documents/VideoAutomation/premiere_videos/Taylor_Swift_Travis_Kelce_-_The_New_Power_Couple.mp4</pathurl>
							<rate>
								<timebase>25</timebase>
								<ntsc>FALSE</ntsc>
							</rate>
							<duration>86118</duration>
							<timecode>
								<rate>
									<timebase>25</timebase>
									<ntsc>FALSE</ntsc>
								</rate>
								<string>00:00:00:00</string>
								<frame>0</frame>
								<displayformat>NDF</displayformat>
							</timecode>
							<media>
								<video>
									<samplecharacteristics>
										<rate>
											<timebase>25</timebase>
											<ntsc>FALSE</ntsc>
										</rate>
										<width>1920</width>
										<height>1080</height>
										<anamorphic>FALSE</anamorphic>
										<pixelaspectratio>square</pixelaspectratio>
										<fielddominance>none</fielddominance>
									</samplecharacteristics>
								</video>
								<audio>
									<samplecharacteristics>
										<depth>16</depth>
										<samplerate>44100</samplerate>
									</samplecharacteristics>
									<channelcount>2</channelcount>
								</audio>
							</media>
						</file>
						<link>
							<linkclipref>clipitem-87</linkclipref>
							<mediatype>video</mediatype>
							<trackindex>1</trackindex>
							<clipindex>3</clipindex>
						</link>
						<link>
							<linkclipref>clipitem-95</linkclipref>
							<mediatype>audio</mediatype>
							<trackindex>1</trackindex>
							<clipindex>3</clipindex>
							<groupindex>1</groupindex>
						</link>
						<link>
							<linkclipref>clipitem-103</linkclipref>
							<mediatype>audio</mediatype>
							<trackindex>2</trackindex>
							<clipindex>3</clipindex>
							<groupindex>1</groupindex>
						</link>
						<logginginfo>
							<description />
							<scene />
							<shottake />
							<lognote />
							<good />
							<originalvideofilename />
							<originalaudiofilename />
						</logginginfo>
						<colorinfo>
							<lut />
							<lut1 />
							<asc_sop />
							<asc_sat />
							<lut2 />
						</colorinfo>
					<labels><label2>Caribbean</label2></labels></clipitem>
					<clipitem id="clipitem-88">
						<masterclipid>clipitem-4-11</masterclipid>
						<name>Travis_Kelce_ANNOUNCE_WEDDING_DATE_with_Taylor_Swift_Why_He_was_Delaying_all_Along.mp4</name>
						<enabled>TRUE</enabled>
						<duration>150</duration>
						<rate>
							<timebase>25</timebase>
							<ntsc>FALSE</ntsc>
						</rate>
						<start>134400</start>
						<end>134550</end>
						<in>1500</in>
						<out>1650</out>
						<pproTicksIn>0</pproTicksIn>
						<pproTicksOut>419410897920000</pproTicksOut>
						<alphatype>none</alphatype>
						<pixelaspectratio>square</pixelaspectratio>
						<anamorphic>FALSE</anamorphic>
						<file id="file-32">
							<name>Travis_Kelce_ANNOUNCE_WEDDING_DATE_with_Taylor_Swift_Why_He_was_Delaying_all_Along.mp4</name>
							<pathurl>file://localhost/Users/themalikano/Documents/VideoAutomation/premiere_videos/Travis_Kelce_ANNOUNCE_WEDDING_DATE_with_Taylor_Swift_Why_He_was_Delaying_all_Along.mp4</pathurl>
							<rate>
								<timebase>24</timebase>
								<ntsc>FALSE</ntsc>
							</rate>
							<duration>39627</duration>
							<timecode>
								<rate>
									<timebase>24</timebase>
									<ntsc>FALSE</ntsc>
								</rate>
								<string>00:00:00:00</string>
								<frame>0</frame>
								<displayformat>NDF</displayformat>
							</timecode>
							<media>
								<video>
									<samplecharacteristics>
										<rate>
											<timebase>24</timebase>
											<ntsc>FALSE</ntsc>
										</rate>
										<width>852</width>
										<height>480</height>
										<anamorphic>FALSE</anamorphic>
										<pixelaspectratio>square</pixelaspectratio>
										<fielddominance>none</fielddominance>
									</samplecharacteristics>
								</video>
								<audio>
									<samplecharacteristics>
										<depth>16</depth>
										<samplerate>44100</samplerate>
									</samplecharacteristics>
									<channelcount>2</channelcount>
								</audio>
							</media>
						</file>
						<filter>
							<effect>
								<name>Basic Motion</name>
								<effectid>basic</effectid>
								<effectcategory>motion</effectcategory>
								<effecttype>motion</effecttype>
								<mediatype>video</mediatype>
								<pproBypass>false</pproBypass>
								<parameter authoringApp="PremierePro">
									<parameterid>scale</parameterid>
									<name>Scale</name>
									<valuemin>0</valuemin>
									<valuemax>1000</valuemax>
									<value>225</value>
								</parameter>
								<parameter authoringApp="PremierePro">
									<parameterid>rotation</parameterid>
									<name>Rotation</name>
									<valuemin>-8640</valuemin>
									<valuemax>8640</valuemax>
									<value>0</value>
								</parameter>
								<parameter authoringApp="PremierePro">
									<parameterid>center</parameterid>
									<name>Center</name>
									<value>
										<horiz>0</horiz>
										<vert>0</vert>
									</value>
								</parameter>
								<parameter authoringApp="PremierePro">
									<parameterid>centerOffset</parameterid>
									<name>Anchor Point</name>
									<value>
										<horiz>0</horiz>
										<vert>0</vert>
									</value>
								</parameter>
								<parameter authoringApp="PremierePro">
									<parameterid>antiflicker</parameterid>
									<name>Anti-flicker Filter</name>
									<valuemin>0.0</valuemin>
									<valuemax>1.0</valuemax>
									<value>0</value>
								</parameter>
							</effect>
						</filter>
						<link>
							<linkclipref>clipitem-88</linkclipref>
							<mediatype>video</mediatype>
							<trackindex>1</trackindex>
							<clipindex>4</clipindex>
						</link>
						<link>
							<linkclipref>clipitem-96</linkclipref>
							<mediatype>audio</mediatype>
							<trackindex>1</trackindex>
							<clipindex>4</clipindex>
							<groupindex>1</groupindex>
						</link>
						<link>
							<linkclipref>clipitem-104</linkclipref>
							<mediatype>audio</mediatype>
							<trackindex>2</trackindex>
							<clipindex>4</clipindex>
							<groupindex>1</groupindex>
						</link>
						<logginginfo>
							<description />
							<scene />
							<shottake />
							<lognote />
							<good />
							<originalvideofilename />
							<originalaudiofilename />
						</logginginfo>
						<colorinfo>
							<lut />
							<lut1 />
							<asc_sop />
							<asc_sat />
							<lut2 />
						</colorinfo>
					<labels><label2>Lavender</label2></labels></clipitem>
					<clipitem id="clipitem-87">
						<masterclipid>clipitem-3-380</masterclipid>
						<name>Taylor_Swift_Travis_Kelce_-_The_New_Power_Couple.mp4</name>
						<enabled>TRUE</enabled>
						<duration>150</duration>
						<rate>
							<timebase>25</timebase>
							<ntsc>FALSE</ntsc>
						</rate>
						<start>134550</start>
						<end>134700</end>
						<in>56850</in>
						<out>57000</out>
						<pproTicksIn>0</pproTicksIn>
						<pproTicksOut>875013995520000</pproTicksOut>
						<alphatype>none</alphatype>
						<pixelaspectratio>square</pixelaspectratio>
						<anamorphic>FALSE</anamorphic>
						<file id="file-31">
							<name>Taylor_Swift_Travis_Kelce_-_The_New_Power_Couple.mp4</name>
							<pathurl>file://localhost/Users/themalikano/Documents/VideoAutomation/premiere_videos/Taylor_Swift_Travis_Kelce_-_The_New_Power_Couple.mp4</pathurl>
							<rate>
								<timebase>25</timebase>
								<ntsc>FALSE</ntsc>
							</rate>
							<duration>86118</duration>
							<timecode>
								<rate>
									<timebase>25</timebase>
									<ntsc>FALSE</ntsc>
								</rate>
								<string>00:00:00:00</string>
								<frame>0</frame>
								<displayformat>NDF</displayformat>
							</timecode>
							<media>
								<video>
									<samplecharacteristics>
										<rate>
											<timebase>25</timebase>
											<ntsc>FALSE</ntsc>
										</rate>
										<width>1920</width>
										<height>1080</height>
										<anamorphic>FALSE</anamorphic>
										<pixelaspectratio>square</pixelaspectratio>
										<fielddominance>none</fielddominance>
									</samplecharacteristics>
								</video>
								<audio>
									<samplecharacteristics>
										<depth>16</depth>
										<samplerate>44100</samplerate>
									</samplecharacteristics>
									<channelcount>2</channelcount>
								</audio>
							</media>
						</file>
						<link>
							<linkclipref>clipitem-87</linkclipref>
							<mediatype>video</mediatype>
							<trackindex>1</trackindex>
							<clipindex>3</clipindex>
						</link>
						<link>
							<linkclipref>clipitem-95</linkclipref>
							<mediatype>audio</mediatype>
							<trackindex>1</trackindex>
							<clipindex>3</clipindex>
							<groupindex>1</groupindex>
						</link>
						<link>
							<linkclipref>clipitem-103</linkclipref>
							<mediatype>audio</mediatype>
							<trackindex>2</trackindex>
							<clipindex>3</clipindex>
							<groupindex>1</groupindex>
						</link>
						<logginginfo>
							<description />
							<scene />
							<shottake />
							<lognote />
							<good />
							<originalvideofilename />
							<originalaudiofilename />
						</logginginfo>
						<colorinfo>
							<lut />
							<lut1 />
							<asc_sop />
							<asc_sat />
							<lut2 />
						</colorinfo>
					<labels><label2>Caribbean</label2></labels></clipitem>
					<clipitem id="clipitem-88">
						<masterclipid>clipitem-4-45</masterclipid>
						<name>Travis_Kelce_ANNOUNCE_WEDDING_DATE_with_Taylor_Swift_Why_He_was_Delaying_all_Along.mp4</name>
						<enabled>TRUE</enabled>
						<duration>150</duration>
						<rate>
							<timebase>25</timebase>
							<ntsc>FALSE</ntsc>
						</rate>
						<start>134700</start>
						<end>134850</end>
						<in>6600</in>
						<out>6750</out>
						<pproTicksIn>0</pproTicksIn>
						<pproTicksOut>419410897920000</pproTicksOut>
						<alphatype>none</alphatype>
						<pixelaspectratio>square</pixelaspectratio>
						<anamorphic>FALSE</anamorphic>
						<file id="file-32">
							<name>Travis_Kelce_ANNOUNCE_WEDDING_DATE_with_Taylor_Swift_Why_He_was_Delaying_all_Along.mp4</name>
							<pathurl>file://localhost/Users/themalikano/Documents/VideoAutomation/premiere_videos/Travis_Kelce_ANNOUNCE_WEDDING_DATE_with_Taylor_Swift_Why_He_was_Delaying_all_Along.mp4</pathurl>
							<rate>
								<timebase>24</timebase>
								<ntsc>FALSE</ntsc>
							</rate>
							<duration>39627</duration>
							<timecode>
								<rate>
									<timebase>24</timebase>
									<ntsc>FALSE</ntsc>
								</rate>
								<string>00:00:00:00</string>
								<frame>0</frame>
								<displayformat>NDF</displayformat>
							</timecode>
							<media>
								<video>
									<samplecharacteristics>
										<rate>
											<timebase>24</timebase>
											<ntsc>FALSE</ntsc>
										</rate>
										<width>852</width>
										<height>480</height>
										<anamorphic>FALSE</anamorphic>
										<pixelaspectratio>square</pixelaspectratio>
										<fielddominance>none</fielddominance>
									</samplecharacteristics>
								</video>
								<audio>
									<samplecharacteristics>
										<depth>16</depth>
										<samplerate>44100</samplerate>
									</samplecharacteristics>
									<channelcount>2</channelcount>
								</audio>
							</media>
						</file>
						<filter>
							<effect>
								<name>Basic Motion</name>
								<effectid>basic</effectid>
								<effectcategory>motion</effectcategory>
								<effecttype>motion</effecttype>
								<mediatype>video</mediatype>
								<pproBypass>false</pproBypass>
								<parameter authoringApp="PremierePro">
									<parameterid>scale</parameterid>
									<name>Scale</name>
									<valuemin>0</valuemin>
									<valuemax>1000</valuemax>
									<value>225</value>
								</parameter>
								<parameter authoringApp="PremierePro">
									<parameterid>rotation</parameterid>
									<name>Rotation</name>
									<valuemin>-8640</valuemin>
									<valuemax>8640</valuemax>
									<value>0</value>
								</parameter>
								<parameter authoringApp="PremierePro">
									<parameterid>center</parameterid>
									<name>Center</name>
									<value>
										<horiz>0</horiz>
										<vert>0</vert>
									</value>
								</parameter>
								<parameter authoringApp="PremierePro">
									<parameterid>centerOffset</parameterid>
									<name>Anchor Point</name>
									<value>
										<horiz>0</horiz>
										<vert>0</vert>
									</value>
								</parameter>
								<parameter authoringApp="PremierePro">
									<parameterid>antiflicker</parameterid>
									<name>Anti-flicker Filter</name>
									<valuemin>0.0</valuemin>
									<valuemax>1.0</valuemax>
									<value>0</value>
								</parameter>
							</effect>
						</filter>
						<link>
							<linkclipref>clipitem-88</linkclipref>
							<mediatype>video</mediatype>
							<trackindex>1</trackindex>
							<clipindex>4</clipindex>
						</link>
						<link>
							<linkclipref>clipitem-96</linkclipref>
							<mediatype>audio</mediatype>
							<trackindex>1</trackindex>
							<clipindex>4</clipindex>
							<groupindex>1</groupindex>
						</link>
						<link>
							<linkclipref>clipitem-104</linkclipref>
							<mediatype>audio</mediatype>
							<trackindex>2</trackindex>
							<clipindex>4</clipindex>
							<groupindex>1</groupindex>
						</link>
						<logginginfo>
							<description />
							<scene />
							<shottake />
							<lognote />
							<good />
							<originalvideofilename />
							<originalaudiofilename />
						</logginginfo>
						<colorinfo>
							<lut />
							<lut1 />
							<asc_sop />
							<asc_sat />
							<lut2 />
						</colorinfo>
					<labels><label2>Lavender</label2></labels></clipitem>
					<clipitem id="clipitem-87">
						<masterclipid>clipitem-3-89</masterclipid>
						<name>Taylor_Swift_Travis_Kelce_-_The_New_Power_Couple.mp4</name>
						<enabled>TRUE</enabled>
						<duration>150</duration>
						<rate>
							<timebase>25</timebase>
							<ntsc>FALSE</ntsc>
						</rate>
						<start>134850</start>
						<end>135000</end>
						<in>13200</in>
						<out>13350</out>
						<pproTicksIn>0</pproTicksIn>
						<pproTicksOut>875013995520000</pproTicksOut>
						<alphatype>none</alphatype>
						<pixelaspectratio>square</pixelaspectratio>
						<anamorphic>FALSE</anamorphic>
						<file id="file-31">
							<name>Taylor_Swift_Travis_Kelce_-_The_New_Power_Couple.mp4</name>
							<pathurl>file://localhost/Users/themalikano/Documents/VideoAutomation/premiere_videos/Taylor_Swift_Travis_Kelce_-_The_New_Power_Couple.mp4</pathurl>
							<rate>
								<timebase>25</timebase>
								<ntsc>FALSE</ntsc>
							</rate>
							<duration>86118</duration>
							<timecode>
								<rate>
									<timebase>25</timebase>
									<ntsc>FALSE</ntsc>
								</rate>
								<string>00:00:00:00</string>
								<frame>0</frame>
								<displayformat>NDF</displayformat>
							</timecode>
							<media>
								<video>
									<samplecharacteristics>
										<rate>
											<timebase>25</timebase>
											<ntsc>FALSE</ntsc>
										</rate>
										<width>1920</width>
										<height>1080</height>
										<anamorphic>FALSE</anamorphic>
										<pixelaspectratio>square</pixelaspectratio>
										<fielddominance>none</fielddominance>
									</samplecharacteristics>
								</video>
								<audio>
									<samplecharacteristics>
										<depth>16</depth>
										<samplerate>44100</samplerate>
									</samplecharacteristics>
									<channelcount>2</channelcount>
								</audio>
							</media>
						</file>
						<link>
							<linkclipref>clipitem-87</linkclipref>
							<mediatype>video</mediatype>
							<trackindex>1</trackindex>
							<clipindex>3</clipindex>
						</link>
						<link>
							<linkclipref>clipitem-95</linkclipref>
							<mediatype>audio</mediatype>
							<trackindex>1</trackindex>
							<clipindex>3</clipindex>
							<groupindex>1</groupindex>
						</link>
						<link>
							<linkclipref>clipitem-103</linkclipref>
							<mediatype>audio</mediatype>
							<trackindex>2</trackindex>
							<clipindex>3</clipindex>
							<groupindex>1</groupindex>
						</link>
						<logginginfo>
							<description />
							<scene />
							<shottake />
							<lognote />
							<good />
							<originalvideofilename />
							<originalaudiofilename />
						</logginginfo>
						<colorinfo>
							<lut />
							<lut1 />
							<asc_sop />
							<asc_sat />
							<lut2 />
						</colorinfo>
					<labels><label2>Caribbean</label2></labels></clipitem>
					<clipitem id="clipitem-88">
						<masterclipid>clipitem-4-119</masterclipid>
						<name>Travis_Kelce_ANNOUNCE_WEDDING_DATE_with_Taylor_Swift_Why_He_was_Delaying_all_Along.mp4</name>
						<enabled>TRUE</enabled>
						<duration>150</duration>
						<rate>
							<timebase>25</timebase>
							<ntsc>FALSE</ntsc>
						</rate>
						<start>135000</start>
						<end>135150</end>
						<in>17700</in>
						<out>17850</out>
						<pproTicksIn>0</pproTicksIn>
						<pproTicksOut>419410897920000</pproTicksOut>
						<alphatype>none</alphatype>
						<pixelaspectratio>square</pixelaspectratio>
						<anamorphic>FALSE</anamorphic>
						<file id="file-32">
							<name>Travis_Kelce_ANNOUNCE_WEDDING_DATE_with_Taylor_Swift_Why_He_was_Delaying_all_Along.mp4</name>
							<pathurl>file://localhost/Users/themalikano/Documents/VideoAutomation/premiere_videos/Travis_Kelce_ANNOUNCE_WEDDING_DATE_with_Taylor_Swift_Why_He_was_Delaying_all_Along.mp4</pathurl>
							<rate>
								<timebase>24</timebase>
								<ntsc>FALSE</ntsc>
							</rate>
							<duration>39627</duration>
							<timecode>
								<rate>
									<timebase>24</timebase>
									<ntsc>FALSE</ntsc>
								</rate>
								<string>00:00:00:00</string>
								<frame>0</frame>
								<displayformat>NDF</displayformat>
							</timecode>
							<media>
								<video>
									<samplecharacteristics>
										<rate>
											<timebase>24</timebase>
											<ntsc>FALSE</ntsc>
										</rate>
										<width>852</width>
										<height>480</height>
										<anamorphic>FALSE</anamorphic>
										<pixelaspectratio>square</pixelaspectratio>
										<fielddominance>none</fielddominance>
									</samplecharacteristics>
								</video>
								<audio>
									<samplecharacteristics>
										<depth>16</depth>
										<samplerate>44100</samplerate>
									</samplecharacteristics>
									<channelcount>2</channelcount>
								</audio>
							</media>
						</file>
						<filter>
							<effect>
								<name>Basic Motion</name>
								<effectid>basic</effectid>
								<effectcategory>motion</effectcategory>
								<effecttype>motion</effecttype>
								<mediatype>video</mediatype>
								<pproBypass>false</pproBypass>
								<parameter authoringApp="PremierePro">
									<parameterid>scale</parameterid>
									<name>Scale</name>
									<valuemin>0</valuemin>
									<valuemax>1000</valuemax>
									<value>225</value>
								</parameter>
								<parameter authoringApp="PremierePro">
									<parameterid>rotation</parameterid>
									<name>Rotation</name>
									<valuemin>-8640</valuemin>
									<valuemax>8640</valuemax>
									<value>0</value>
								</parameter>
								<parameter authoringApp="PremierePro">
									<parameterid>center</parameterid>
									<name>Center</name>
									<value>
										<horiz>0</horiz>
										<vert>0</vert>
									</value>
								</parameter>
								<parameter authoringApp="PremierePro">
									<parameterid>centerOffset</parameterid>
									<name>Anchor Point</name>
									<value>
										<horiz>0</horiz>
										<vert>0</vert>
									</value>
								</parameter>
								<parameter authoringApp="PremierePro">
									<parameterid>antiflicker</parameterid>
									<name>Anti-flicker Filter</name>
									<valuemin>0.0</valuemin>
									<valuemax>1.0</valuemax>
									<value>0</value>
								</parameter>
							</effect>
						</filter>
						<link>
							<linkclipref>clipitem-88</linkclipref>
							<mediatype>video</mediatype>
							<trackindex>1</trackindex>
							<clipindex>4</clipindex>
						</link>
						<link>
							<linkclipref>clipitem-96</linkclipref>
							<mediatype>audio</mediatype>
							<trackindex>1</trackindex>
							<clipindex>4</clipindex>
							<groupindex>1</groupindex>
						</link>
						<link>
							<linkclipref>clipitem-104</linkclipref>
							<mediatype>audio</mediatype>
							<trackindex>2</trackindex>
							<clipindex>4</clipindex>
							<groupindex>1</groupindex>
						</link>
						<logginginfo>
							<description />
							<scene />
							<shottake />
							<lognote />
							<good />
							<originalvideofilename />
							<originalaudiofilename />
						</logginginfo>
						<colorinfo>
							<lut />
							<lut1 />
							<asc_sop />
							<asc_sat />
							<lut2 />
						</colorinfo>
					<labels><label2>Lavender</label2></labels></clipitem>
					<clipitem id="clipitem-87">
						<masterclipid>clipitem-3-57</masterclipid>
						<name>Taylor_Swift_Travis_Kelce_-_The_New_Power_Couple.mp4</name>
						<enabled>TRUE</enabled>
						<duration>150</duration>
						<rate>
							<timebase>25</timebase>
							<ntsc>FALSE</ntsc>
						</rate>
						<start>135150</start>
						<end>135300</end>
						<in>8400</in>
						<out>8550</out>
						<pproTicksIn>0</pproTicksIn>
						<pproTicksOut>875013995520000</pproTicksOut>
						<alphatype>none</alphatype>
						<pixelaspectratio>square</pixelaspectratio>
						<anamorphic>FALSE</anamorphic>
						<file id="file-31">
							<name>Taylor_Swift_Travis_Kelce_-_The_New_Power_Couple.mp4</name>
							<pathurl>file://localhost/Users/themalikano/Documents/VideoAutomation/premiere_videos/Taylor_Swift_Travis_Kelce_-_The_New_Power_Couple.mp4</pathurl>
							<rate>
								<timebase>25</timebase>
								<ntsc>FALSE</ntsc>
							</rate>
							<duration>86118</duration>
							<timecode>
								<rate>
									<timebase>25</timebase>
									<ntsc>FALSE</ntsc>
								</rate>
								<string>00:00:00:00</string>
								<frame>0</frame>
								<displayformat>NDF</displayformat>
							</timecode>
							<media>
								<video>
									<samplecharacteristics>
										<rate>
											<timebase>25</timebase>
											<ntsc>FALSE</ntsc>
										</rate>
										<width>1920</width>
										<height>1080</height>
										<anamorphic>FALSE</anamorphic>
										<pixelaspectratio>square</pixelaspectratio>
										<fielddominance>none</fielddominance>
									</samplecharacteristics>
								</video>
								<audio>
									<samplecharacteristics>
										<depth>16</depth>
										<samplerate>44100</samplerate>
									</samplecharacteristics>
									<channelcount>2</channelcount>
								</audio>
							</media>
						</file>
						<link>
							<linkclipref>clipitem-87</linkclipref>
							<mediatype>video</mediatype>
							<trackindex>1</trackindex>
							<clipindex>3</clipindex>
						</link>
						<link>
							<linkclipref>clipitem-95</linkclipref>
							<mediatype>audio</mediatype>
							<trackindex>1</trackindex>
							<clipindex>3</clipindex>
							<groupindex>1</groupindex>
						</link>
						<link>
							<linkclipref>clipitem-103</linkclipref>
							<mediatype>audio</mediatype>
							<trackindex>2</trackindex>
							<clipindex>3</clipindex>
							<groupindex>1</groupindex>
						</link>
						<logginginfo>
							<description />
							<scene />
							<shottake />
							<lognote />
							<good />
							<originalvideofilename />
							<originalaudiofilename />
						</logginginfo>
						<colorinfo>
							<lut />
							<lut1 />
							<asc_sop />
							<asc_sat />
							<lut2 />
						</colorinfo>
					<labels><label2>Caribbean</label2></labels></clipitem>
					<clipitem id="clipitem-87">
						<masterclipid>clipitem-3-435</masterclipid>
						<name>Taylor_Swift_Travis_Kelce_-_The_New_Power_Couple.mp4</name>
						<enabled>TRUE</enabled>
						<duration>150</duration>
						<rate>
							<timebase>25</timebase>
							<ntsc>FALSE</ntsc>
						</rate>
						<start>135300</start>
						<end>135450</end>
						<in>65100</in>
						<out>65250</out>
						<pproTicksIn>0</pproTicksIn>
						<pproTicksOut>875013995520000</pproTicksOut>
						<alphatype>none</alphatype>
						<pixelaspectratio>square</pixelaspectratio>
						<anamorphic>FALSE</anamorphic>
						<file id="file-31">
							<name>Taylor_Swift_Travis_Kelce_-_The_New_Power_Couple.mp4</name>
							<pathurl>file://localhost/Users/themalikano/Documents/VideoAutomation/premiere_videos/Taylor_Swift_Travis_Kelce_-_The_New_Power_Couple.mp4</pathurl>
							<rate>
								<timebase>25</timebase>
								<ntsc>FALSE</ntsc>
							</rate>
							<duration>86118</duration>
							<timecode>
								<rate>
									<timebase>25</timebase>
									<ntsc>FALSE</ntsc>
								</rate>
								<string>00:00:00:00</string>
								<frame>0</frame>
								<displayformat>NDF</displayformat>
							</timecode>
							<media>
								<video>
									<samplecharacteristics>
										<rate>
											<timebase>25</timebase>
											<ntsc>FALSE</ntsc>
										</rate>
										<width>1920</width>
										<height>1080</height>
										<anamorphic>FALSE</anamorphic>
										<pixelaspectratio>square</pixelaspectratio>
										<fielddominance>none</fielddominance>
									</samplecharacteristics>
								</video>
								<audio>
									<samplecharacteristics>
										<depth>16</depth>
										<samplerate>44100</samplerate>
									</samplecharacteristics>
									<channelcount>2</channelcount>
								</audio>
							</media>
						</file>
						<link>
							<linkclipref>clipitem-87</linkclipref>
							<mediatype>video</mediatype>
							<trackindex>1</trackindex>
							<clipindex>3</clipindex>
						</link>
						<link>
							<linkclipref>clipitem-95</linkclipref>
							<mediatype>audio</mediatype>
							<trackindex>1</trackindex>
							<clipindex>3</clipindex>
							<groupindex>1</groupindex>
						</link>
						<link>
							<linkclipref>clipitem-103</linkclipref>
							<mediatype>audio</mediatype>
							<trackindex>2</trackindex>
							<clipindex>3</clipindex>
							<groupindex>1</groupindex>
						</link>
						<logginginfo>
							<description />
							<scene />
							<shottake />
							<lognote />
							<good />
							<originalvideofilename />
							<originalaudiofilename />
						</logginginfo>
						<colorinfo>
							<lut />
							<lut1 />
							<asc_sop />
							<asc_sat />
							<lut2 />
						</colorinfo>
					<labels><label2>Caribbean</label2></labels></clipitem>
					<clipitem id="clipitem-87">
						<masterclipid>clipitem-3-94</masterclipid>
						<name>Taylor_Swift_Travis_Kelce_-_The_New_Power_Couple.mp4</name>
						<enabled>TRUE</enabled>
						<duration>150</duration>
						<rate>
							<timebase>25</timebase>
							<ntsc>FALSE</ntsc>
						</rate>
						<start>135450</start>
						<end>135600</end>
						<in>13950</in>
						<out>14100</out>
						<pproTicksIn>0</pproTicksIn>
						<pproTicksOut>875013995520000</pproTicksOut>
						<alphatype>none</alphatype>
						<pixelaspectratio>square</pixelaspectratio>
						<anamorphic>FALSE</anamorphic>
						<file id="file-31">
							<name>Taylor_Swift_Travis_Kelce_-_The_New_Power_Couple.mp4</name>
							<pathurl>file://localhost/Users/themalikano/Documents/VideoAutomation/premiere_videos/Taylor_Swift_Travis_Kelce_-_The_New_Power_Couple.mp4</pathurl>
							<rate>
								<timebase>25</timebase>
								<ntsc>FALSE</ntsc>
							</rate>
							<duration>86118</duration>
							<timecode>
								<rate>
									<timebase>25</timebase>
									<ntsc>FALSE</ntsc>
								</rate>
								<string>00:00:00:00</string>
								<frame>0</frame>
								<displayformat>NDF</displayformat>
							</timecode>
							<media>
								<video>
									<samplecharacteristics>
										<rate>
											<timebase>25</timebase>
											<ntsc>FALSE</ntsc>
										</rate>
										<width>1920</width>
										<height>1080</height>
										<anamorphic>FALSE</anamorphic>
										<pixelaspectratio>square</pixelaspectratio>
										<fielddominance>none</fielddominance>
									</samplecharacteristics>
								</video>
								<audio>
									<samplecharacteristics>
										<depth>16</depth>
										<samplerate>44100</samplerate>
									</samplecharacteristics>
									<channelcount>2</channelcount>
								</audio>
							</media>
						</file>
						<link>
							<linkclipref>clipitem-87</linkclipref>
							<mediatype>video</mediatype>
							<trackindex>1</trackindex>
							<clipindex>3</clipindex>
						</link>
						<link>
							<linkclipref>clipitem-95</linkclipref>
							<mediatype>audio</mediatype>
							<trackindex>1</trackindex>
							<clipindex>3</clipindex>
							<groupindex>1</groupindex>
						</link>
						<link>
							<linkclipref>clipitem-103</linkclipref>
							<mediatype>audio</mediatype>
							<trackindex>2</trackindex>
							<clipindex>3</clipindex>
							<groupindex>1</groupindex>
						</link>
						<logginginfo>
							<description />
							<scene />
							<shottake />
							<lognote />
							<good />
							<originalvideofilename />
							<originalaudiofilename />
						</logginginfo>
						<colorinfo>
							<lut />
							<lut1 />
							<asc_sop />
							<asc_sat />
							<lut2 />
						</colorinfo>
					<labels><label2>Caribbean</label2></labels></clipitem>
					<clipitem id="clipitem-87">
						<masterclipid>clipitem-3-271</masterclipid>
						<name>Taylor_Swift_Travis_Kelce_-_The_New_Power_Couple.mp4</name>
						<enabled>TRUE</enabled>
						<duration>150</duration>
						<rate>
							<timebase>25</timebase>
							<ntsc>FALSE</ntsc>
						</rate>
						<start>135600</start>
						<end>135750</end>
						<in>40500</in>
						<out>40650</out>
						<pproTicksIn>0</pproTicksIn>
						<pproTicksOut>875013995520000</pproTicksOut>
						<alphatype>none</alphatype>
						<pixelaspectratio>square</pixelaspectratio>
						<anamorphic>FALSE</anamorphic>
						<file id="file-31">
							<name>Taylor_Swift_Travis_Kelce_-_The_New_Power_Couple.mp4</name>
							<pathurl>file://localhost/Users/themalikano/Documents/VideoAutomation/premiere_videos/Taylor_Swift_Travis_Kelce_-_The_New_Power_Couple.mp4</pathurl>
							<rate>
								<timebase>25</timebase>
								<ntsc>FALSE</ntsc>
							</rate>
							<duration>86118</duration>
							<timecode>
								<rate>
									<timebase>25</timebase>
									<ntsc>FALSE</ntsc>
								</rate>
								<string>00:00:00:00</string>
								<frame>0</frame>
								<displayformat>NDF</displayformat>
							</timecode>
							<media>
								<video>
									<samplecharacteristics>
										<rate>
											<timebase>25</timebase>
											<ntsc>FALSE</ntsc>
										</rate>
										<width>1920</width>
										<height>1080</height>
										<anamorphic>FALSE</anamorphic>
										<pixelaspectratio>square</pixelaspectratio>
										<fielddominance>none</fielddominance>
									</samplecharacteristics>
								</video>
								<audio>
									<samplecharacteristics>
										<depth>16</depth>
										<samplerate>44100</samplerate>
									</samplecharacteristics>
									<channelcount>2</channelcount>
								</audio>
							</media>
						</file>
						<link>
							<linkclipref>clipitem-87</linkclipref>
							<mediatype>video</mediatype>
							<trackindex>1</trackindex>
							<clipindex>3</clipindex>
						</link>
						<link>
							<linkclipref>clipitem-95</linkclipref>
							<mediatype>audio</mediatype>
							<trackindex>1</trackindex>
							<clipindex>3</clipindex>
							<groupindex>1</groupindex>
						</link>
						<link>
							<linkclipref>clipitem-103</linkclipref>
							<mediatype>audio</mediatype>
							<trackindex>2</trackindex>
							<clipindex>3</clipindex>
							<groupindex>1</groupindex>
						</link>
						<logginginfo>
							<description />
							<scene />
							<shottake />
							<lognote />
							<good />
							<originalvideofilename />
							<originalaudiofilename />
						</logginginfo>
						<colorinfo>
							<lut />
							<lut1 />
							<asc_sop />
							<asc_sat />
							<lut2 />
						</colorinfo>
					<labels><label2>Caribbean</label2></labels></clipitem>
					<clipitem id="clipitem-87">
						<masterclipid>clipitem-3-368</masterclipid>
						<name>Taylor_Swift_Travis_Kelce_-_The_New_Power_Couple.mp4</name>
						<enabled>TRUE</enabled>
						<duration>150</duration>
						<rate>
							<timebase>25</timebase>
							<ntsc>FALSE</ntsc>
						</rate>
						<start>135750</start>
						<end>135900</end>
						<in>55050</in>
						<out>55200</out>
						<pproTicksIn>0</pproTicksIn>
						<pproTicksOut>875013995520000</pproTicksOut>
						<alphatype>none</alphatype>
						<pixelaspectratio>square</pixelaspectratio>
						<anamorphic>FALSE</anamorphic>
						<file id="file-31">
							<name>Taylor_Swift_Travis_Kelce_-_The_New_Power_Couple.mp4</name>
							<pathurl>file://localhost/Users/themalikano/Documents/VideoAutomation/premiere_videos/Taylor_Swift_Travis_Kelce_-_The_New_Power_Couple.mp4</pathurl>
							<rate>
								<timebase>25</timebase>
								<ntsc>FALSE</ntsc>
							</rate>
							<duration>86118</duration>
							<timecode>
								<rate>
									<timebase>25</timebase>
									<ntsc>FALSE</ntsc>
								</rate>
								<string>00:00:00:00</string>
								<frame>0</frame>
								<displayformat>NDF</displayformat>
							</timecode>
							<media>
								<video>
									<samplecharacteristics>
										<rate>
											<timebase>25</timebase>
											<ntsc>FALSE</ntsc>
										</rate>
										<width>1920</width>
										<height>1080</height>
										<anamorphic>FALSE</anamorphic>
										<pixelaspectratio>square</pixelaspectratio>
										<fielddominance>none</fielddominance>
									</samplecharacteristics>
								</video>
								<audio>
									<samplecharacteristics>
										<depth>16</depth>
										<samplerate>44100</samplerate>
									</samplecharacteristics>
									<channelcount>2</channelcount>
								</audio>
							</media>
						</file>
						<link>
							<linkclipref>clipitem-87</linkclipref>
							<mediatype>video</mediatype>
							<trackindex>1</trackindex>
							<clipindex>3</clipindex>
						</link>
						<link>
							<linkclipref>clipitem-95</linkclipref>
							<mediatype>audio</mediatype>
							<trackindex>1</trackindex>
							<clipindex>3</clipindex>
							<groupindex>1</groupindex>
						</link>
						<link>
							<linkclipref>clipitem-103</linkclipref>
							<mediatype>audio</mediatype>
							<trackindex>2</trackindex>
							<clipindex>3</clipindex>
							<groupindex>1</groupindex>
						</link>
						<logginginfo>
							<description />
							<scene />
							<shottake />
							<lognote />
							<good />
							<originalvideofilename />
							<originalaudiofilename />
						</logginginfo>
						<colorinfo>
							<lut />
							<lut1 />
							<asc_sop />
							<asc_sat />
							<lut2 />
						</colorinfo>
					<labels><label2>Caribbean</label2></labels></clipitem>
					<clipitem id="clipitem-87">
						<masterclipid>clipitem-3-565</masterclipid>
						<name>Taylor_Swift_Travis_Kelce_-_The_New_Power_Couple.mp4</name>
						<enabled>TRUE</enabled>
						<duration>150</duration>
						<rate>
							<timebase>25</timebase>
							<ntsc>FALSE</ntsc>
						</rate>
						<start>135900</start>
						<end>136050</end>
						<in>84600</in>
						<out>84750</out>
						<pproTicksIn>0</pproTicksIn>
						<pproTicksOut>875013995520000</pproTicksOut>
						<alphatype>none</alphatype>
						<pixelaspectratio>square</pixelaspectratio>
						<anamorphic>FALSE</anamorphic>
						<file id="file-31">
							<name>Taylor_Swift_Travis_Kelce_-_The_New_Power_Couple.mp4</name>
							<pathurl>file://localhost/Users/themalikano/Documents/VideoAutomation/premiere_videos/Taylor_Swift_Travis_Kelce_-_The_New_Power_Couple.mp4</pathurl>
							<rate>
								<timebase>25</timebase>
								<ntsc>FALSE</ntsc>
							</rate>
							<duration>86118</duration>
							<timecode>
								<rate>
									<timebase>25</timebase>
									<ntsc>FALSE</ntsc>
								</rate>
								<string>00:00:00:00</string>
								<frame>0</frame>
								<displayformat>NDF</displayformat>
							</timecode>
							<media>
								<video>
									<samplecharacteristics>
										<rate>
											<timebase>25</timebase>
											<ntsc>FALSE</ntsc>
										</rate>
										<width>1920</width>
										<height>1080</height>
										<anamorphic>FALSE</anamorphic>
										<pixelaspectratio>square</pixelaspectratio>
										<fielddominance>none</fielddominance>
									</samplecharacteristics>
								</video>
								<audio>
									<samplecharacteristics>
										<depth>16</depth>
										<samplerate>44100</samplerate>
									</samplecharacteristics>
									<channelcount>2</channelcount>
								</audio>
							</media>
						</file>
						<link>
							<linkclipref>clipitem-87</linkclipref>
							<mediatype>video</mediatype>
							<trackindex>1</trackindex>
							<clipindex>3</clipindex>
						</link>
						<link>
							<linkclipref>clipitem-95</linkclipref>
							<mediatype>audio</mediatype>
							<trackindex>1</trackindex>
							<clipindex>3</clipindex>
							<groupindex>1</groupindex>
						</link>
						<link>
							<linkclipref>clipitem-103</linkclipref>
							<mediatype>audio</mediatype>
							<trackindex>2</trackindex>
							<clipindex>3</clipindex>
							<groupindex>1</groupindex>
						</link>
						<logginginfo>
							<description />
							<scene />
							<shottake />
							<lognote />
							<good />
							<originalvideofilename />
							<originalaudiofilename />
						</logginginfo>
						<colorinfo>
							<lut />
							<lut1 />
							<asc_sop />
							<asc_sat />
							<lut2 />
						</colorinfo>
					<labels><label2>Caribbean</label2></labels></clipitem>
					<clipitem id="clipitem-87">
						<masterclipid>clipitem-3-236</masterclipid>
						<name>Taylor_Swift_Travis_Kelce_-_The_New_Power_Couple.mp4</name>
						<enabled>TRUE</enabled>
						<duration>150</duration>
						<rate>
							<timebase>25</timebase>
							<ntsc>FALSE</ntsc>
						</rate>
						<start>136050</start>
						<end>136200</end>
						<in>35250</in>
						<out>35400</out>
						<pproTicksIn>0</pproTicksIn>
						<pproTicksOut>875013995520000</pproTicksOut>
						<alphatype>none</alphatype>
						<pixelaspectratio>square</pixelaspectratio>
						<anamorphic>FALSE</anamorphic>
						<file id="file-31">
							<name>Taylor_Swift_Travis_Kelce_-_The_New_Power_Couple.mp4</name>
							<pathurl>file://localhost/Users/themalikano/Documents/VideoAutomation/premiere_videos/Taylor_Swift_Travis_Kelce_-_The_New_Power_Couple.mp4</pathurl>
							<rate>
								<timebase>25</timebase>
								<ntsc>FALSE</ntsc>
							</rate>
							<duration>86118</duration>
							<timecode>
								<rate>
									<timebase>25</timebase>
									<ntsc>FALSE</ntsc>
								</rate>
								<string>00:00:00:00</string>
								<frame>0</frame>
								<displayformat>NDF</displayformat>
							</timecode>
							<media>
								<video>
									<samplecharacteristics>
										<rate>
											<timebase>25</timebase>
											<ntsc>FALSE</ntsc>
										</rate>
										<width>1920</width>
										<height>1080</height>
										<anamorphic>FALSE</anamorphic>
										<pixelaspectratio>square</pixelaspectratio>
										<fielddominance>none</fielddominance>
									</samplecharacteristics>
								</video>
								<audio>
									<samplecharacteristics>
										<depth>16</depth>
										<samplerate>44100</samplerate>
									</samplecharacteristics>
									<channelcount>2</channelcount>
								</audio>
							</media>
						</file>
						<link>
							<linkclipref>clipitem-87</linkclipref>
							<mediatype>video</mediatype>
							<trackindex>1</trackindex>
							<clipindex>3</clipindex>
						</link>
						<link>
							<linkclipref>clipitem-95</linkclipref>
							<mediatype>audio</mediatype>
							<trackindex>1</trackindex>
							<clipindex>3</clipindex>
							<groupindex>1</groupindex>
						</link>
						<link>
							<linkclipref>clipitem-103</linkclipref>
							<mediatype>audio</mediatype>
							<trackindex>2</trackindex>
							<clipindex>3</clipindex>
							<groupindex>1</groupindex>
						</link>
						<logginginfo>
							<description />
							<scene />
							<shottake />
							<lognote />
							<good />
							<originalvideofilename />
							<originalaudiofilename />
						</logginginfo>
						<colorinfo>
							<lut />
							<lut1 />
							<asc_sop />
							<asc_sat />
							<lut2 />
						</colorinfo>
					<labels><label2>Caribbean</label2></labels></clipitem>
					<clipitem id="clipitem-87">
						<masterclipid>clipitem-3-148</masterclipid>
						<name>Taylor_Swift_Travis_Kelce_-_The_New_Power_Couple.mp4</name>
						<enabled>TRUE</enabled>
						<duration>150</duration>
						<rate>
							<timebase>25</timebase>
							<ntsc>FALSE</ntsc>
						</rate>
						<start>136200</start>
						<end>136350</end>
						<in>22050</in>
						<out>22200</out>
						<pproTicksIn>0</pproTicksIn>
						<pproTicksOut>875013995520000</pproTicksOut>
						<alphatype>none</alphatype>
						<pixelaspectratio>square</pixelaspectratio>
						<anamorphic>FALSE</anamorphic>
						<file id="file-31">
							<name>Taylor_Swift_Travis_Kelce_-_The_New_Power_Couple.mp4</name>
							<pathurl>file://localhost/Users/themalikano/Documents/VideoAutomation/premiere_videos/Taylor_Swift_Travis_Kelce_-_The_New_Power_Couple.mp4</pathurl>
							<rate>
								<timebase>25</timebase>
								<ntsc>FALSE</ntsc>
							</rate>
							<duration>86118</duration>
							<timecode>
								<rate>
									<timebase>25</timebase>
									<ntsc>FALSE</ntsc>
								</rate>
								<string>00:00:00:00</string>
								<frame>0</frame>
								<displayformat>NDF</displayformat>
							</timecode>
							<media>
								<video>
									<samplecharacteristics>
										<rate>
											<timebase>25</timebase>
											<ntsc>FALSE</ntsc>
										</rate>
										<width>1920</width>
										<height>1080</height>
										<anamorphic>FALSE</anamorphic>
										<pixelaspectratio>square</pixelaspectratio>
										<fielddominance>none</fielddominance>
									</samplecharacteristics>
								</video>
								<audio>
									<samplecharacteristics>
										<depth>16</depth>
										<samplerate>44100</samplerate>
									</samplecharacteristics>
									<channelcount>2</channelcount>
								</audio>
							</media>
						</file>
						<link>
							<linkclipref>clipitem-87</linkclipref>
							<mediatype>video</mediatype>
							<trackindex>1</trackindex>
							<clipindex>3</clipindex>
						</link>
						<link>
							<linkclipref>clipitem-95</linkclipref>
							<mediatype>audio</mediatype>
							<trackindex>1</trackindex>
							<clipindex>3</clipindex>
							<groupindex>1</groupindex>
						</link>
						<link>
							<linkclipref>clipitem-103</linkclipref>
							<mediatype>audio</mediatype>
							<trackindex>2</trackindex>
							<clipindex>3</clipindex>
							<groupindex>1</groupindex>
						</link>
						<logginginfo>
							<description />
							<scene />
							<shottake />
							<lognote />
							<good />
							<originalvideofilename />
							<originalaudiofilename />
						</logginginfo>
						<colorinfo>
							<lut />
							<lut1 />
							<asc_sop />
							<asc_sat />
							<lut2 />
						</colorinfo>
					<labels><label2>Caribbean</label2></labels></clipitem>
					<clipitem id="clipitem-87">
						<masterclipid>clipitem-3-275</masterclipid>
						<name>Taylor_Swift_Travis_Kelce_-_The_New_Power_Couple.mp4</name>
						<enabled>TRUE</enabled>
						<duration>150</duration>
						<rate>
							<timebase>25</timebase>
							<ntsc>FALSE</ntsc>
						</rate>
						<start>136350</start>
						<end>136500</end>
						<in>41100</in>
						<out>41250</out>
						<pproTicksIn>0</pproTicksIn>
						<pproTicksOut>875013995520000</pproTicksOut>
						<alphatype>none</alphatype>
						<pixelaspectratio>square</pixelaspectratio>
						<anamorphic>FALSE</anamorphic>
						<file id="file-31">
							<name>Taylor_Swift_Travis_Kelce_-_The_New_Power_Couple.mp4</name>
							<pathurl>file://localhost/Users/themalikano/Documents/VideoAutomation/premiere_videos/Taylor_Swift_Travis_Kelce_-_The_New_Power_Couple.mp4</pathurl>
							<rate>
								<timebase>25</timebase>
								<ntsc>FALSE</ntsc>
							</rate>
							<duration>86118</duration>
							<timecode>
								<rate>
									<timebase>25</timebase>
									<ntsc>FALSE</ntsc>
								</rate>
								<string>00:00:00:00</string>
								<frame>0</frame>
								<displayformat>NDF</displayformat>
							</timecode>
							<media>
								<video>
									<samplecharacteristics>
										<rate>
											<timebase>25</timebase>
											<ntsc>FALSE</ntsc>
										</rate>
										<width>1920</width>
										<height>1080</height>
										<anamorphic>FALSE</anamorphic>
										<pixelaspectratio>square</pixelaspectratio>
										<fielddominance>none</fielddominance>
									</samplecharacteristics>
								</video>
								<audio>
									<samplecharacteristics>
										<depth>16</depth>
										<samplerate>44100</samplerate>
									</samplecharacteristics>
									<channelcount>2</channelcount>
								</audio>
							</media>
						</file>
						<link>
							<linkclipref>clipitem-87</linkclipref>
							<mediatype>video</mediatype>
							<trackindex>1</trackindex>
							<clipindex>3</clipindex>
						</link>
						<link>
							<linkclipref>clipitem-95</linkclipref>
							<mediatype>audio</mediatype>
							<trackindex>1</trackindex>
							<clipindex>3</clipindex>
							<groupindex>1</groupindex>
						</link>
						<link>
							<linkclipref>clipitem-103</linkclipref>
							<mediatype>audio</mediatype>
							<trackindex>2</trackindex>
							<clipindex>3</clipindex>
							<groupindex>1</groupindex>
						</link>
						<logginginfo>
							<description />
							<scene />
							<shottake />
							<lognote />
							<good />
							<originalvideofilename />
							<originalaudiofilename />
						</logginginfo>
						<colorinfo>
							<lut />
							<lut1 />
							<asc_sop />
							<asc_sat />
							<lut2 />
						</colorinfo>
					<labels><label2>Caribbean</label2></labels></clipitem>
					<clipitem id="clipitem-87">
						<masterclipid>clipitem-3-22</masterclipid>
						<name>Taylor_Swift_Travis_Kelce_-_The_New_Power_Couple.mp4</name>
						<enabled>TRUE</enabled>
						<duration>150</duration>
						<rate>
							<timebase>25</timebase>
							<ntsc>FALSE</ntsc>
						</rate>
						<start>136500</start>
						<end>136650</end>
						<in>3150</in>
						<out>3300</out>
						<pproTicksIn>0</pproTicksIn>
						<pproTicksOut>875013995520000</pproTicksOut>
						<alphatype>none</alphatype>
						<pixelaspectratio>square</pixelaspectratio>
						<anamorphic>FALSE</anamorphic>
						<file id="file-31">
							<name>Taylor_Swift_Travis_Kelce_-_The_New_Power_Couple.mp4</name>
							<pathurl>file://localhost/Users/themalikano/Documents/VideoAutomation/premiere_videos/Taylor_Swift_Travis_Kelce_-_The_New_Power_Couple.mp4</pathurl>
							<rate>
								<timebase>25</timebase>
								<ntsc>FALSE</ntsc>
							</rate>
							<duration>86118</duration>
							<timecode>
								<rate>
									<timebase>25</timebase>
									<ntsc>FALSE</ntsc>
								</rate>
								<string>00:00:00:00</string>
								<frame>0</frame>
								<displayformat>NDF</displayformat>
							</timecode>
							<media>
								<video>
									<samplecharacteristics>
										<rate>
											<timebase>25</timebase>
											<ntsc>FALSE</ntsc>
										</rate>
										<width>1920</width>
										<height>1080</height>
										<anamorphic>FALSE</anamorphic>
										<pixelaspectratio>square</pixelaspectratio>
										<fielddominance>none</fielddominance>
									</samplecharacteristics>
								</video>
								<audio>
									<samplecharacteristics>
										<depth>16</depth>
										<samplerate>44100</samplerate>
									</samplecharacteristics>
									<channelcount>2</channelcount>
								</audio>
							</media>
						</file>
						<link>
							<linkclipref>clipitem-87</linkclipref>
							<mediatype>video</mediatype>
							<trackindex>1</trackindex>
							<clipindex>3</clipindex>
						</link>
						<link>
							<linkclipref>clipitem-95</linkclipref>
							<mediatype>audio</mediatype>
							<trackindex>1</trackindex>
							<clipindex>3</clipindex>
							<groupindex>1</groupindex>
						</link>
						<link>
							<linkclipref>clipitem-103</linkclipref>
							<mediatype>audio</mediatype>
							<trackindex>2</trackindex>
							<clipindex>3</clipindex>
							<groupindex>1</groupindex>
						</link>
						<logginginfo>
							<description />
							<scene />
							<shottake />
							<lognote />
							<good />
							<originalvideofilename />
							<originalaudiofilename />
						</logginginfo>
						<colorinfo>
							<lut />
							<lut1 />
							<asc_sop />
							<asc_sat />
							<lut2 />
						</colorinfo>
					<labels><label2>Caribbean</label2></labels></clipitem>
					<clipitem id="clipitem-87">
						<masterclipid>clipitem-3-49</masterclipid>
						<name>Taylor_Swift_Travis_Kelce_-_The_New_Power_Couple.mp4</name>
						<enabled>TRUE</enabled>
						<duration>150</duration>
						<rate>
							<timebase>25</timebase>
							<ntsc>FALSE</ntsc>
						</rate>
						<start>136650</start>
						<end>136800</end>
						<in>7200</in>
						<out>7350</out>
						<pproTicksIn>0</pproTicksIn>
						<pproTicksOut>875013995520000</pproTicksOut>
						<alphatype>none</alphatype>
						<pixelaspectratio>square</pixelaspectratio>
						<anamorphic>FALSE</anamorphic>
						<file id="file-31">
							<name>Taylor_Swift_Travis_Kelce_-_The_New_Power_Couple.mp4</name>
							<pathurl>file://localhost/Users/themalikano/Documents/VideoAutomation/premiere_videos/Taylor_Swift_Travis_Kelce_-_The_New_Power_Couple.mp4</pathurl>
							<rate>
								<timebase>25</timebase>
								<ntsc>FALSE</ntsc>
							</rate>
							<duration>86118</duration>
							<timecode>
								<rate>
									<timebase>25</timebase>
									<ntsc>FALSE</ntsc>
								</rate>
								<string>00:00:00:00</string>
								<frame>0</frame>
								<displayformat>NDF</displayformat>
							</timecode>
							<media>
								<video>
									<samplecharacteristics>
										<rate>
											<timebase>25</timebase>
											<ntsc>FALSE</ntsc>
										</rate>
										<width>1920</width>
										<height>1080</height>
										<anamorphic>FALSE</anamorphic>
										<pixelaspectratio>square</pixelaspectratio>
										<fielddominance>none</fielddominance>
									</samplecharacteristics>
								</video>
								<audio>
									<samplecharacteristics>
										<depth>16</depth>
										<samplerate>44100</samplerate>
									</samplecharacteristics>
									<channelcount>2</channelcount>
								</audio>
							</media>
						</file>
						<link>
							<linkclipref>clipitem-87</linkclipref>
							<mediatype>video</mediatype>
							<trackindex>1</trackindex>
							<clipindex>3</clipindex>
						</link>
						<link>
							<linkclipref>clipitem-95</linkclipref>
							<mediatype>audio</mediatype>
							<trackindex>1</trackindex>
							<clipindex>3</clipindex>
							<groupindex>1</groupindex>
						</link>
						<link>
							<linkclipref>clipitem-103</linkclipref>
							<mediatype>audio</mediatype>
							<trackindex>2</trackindex>
							<clipindex>3</clipindex>
							<groupindex>1</groupindex>
						</link>
						<logginginfo>
							<description />
							<scene />
							<shottake />
							<lognote />
							<good />
							<originalvideofilename />
							<originalaudiofilename />
						</logginginfo>
						<colorinfo>
							<lut />
							<lut1 />
							<asc_sop />
							<asc_sat />
							<lut2 />
						</colorinfo>
					<labels><label2>Caribbean</label2></labels></clipitem>
					<clipitem id="clipitem-87">
						<masterclipid>clipitem-3-154</masterclipid>
						<name>Taylor_Swift_Travis_Kelce_-_The_New_Power_Couple.mp4</name>
						<enabled>TRUE</enabled>
						<duration>150</duration>
						<rate>
							<timebase>25</timebase>
							<ntsc>FALSE</ntsc>
						</rate>
						<start>136800</start>
						<end>136950</end>
						<in>22950</in>
						<out>23100</out>
						<pproTicksIn>0</pproTicksIn>
						<pproTicksOut>875013995520000</pproTicksOut>
						<alphatype>none</alphatype>
						<pixelaspectratio>square</pixelaspectratio>
						<anamorphic>FALSE</anamorphic>
						<file id="file-31">
							<name>Taylor_Swift_Travis_Kelce_-_The_New_Power_Couple.mp4</name>
							<pathurl>file://localhost/Users/themalikano/Documents/VideoAutomation/premiere_videos/Taylor_Swift_Travis_Kelce_-_The_New_Power_Couple.mp4</pathurl>
							<rate>
								<timebase>25</timebase>
								<ntsc>FALSE</ntsc>
							</rate>
							<duration>86118</duration>
							<timecode>
								<rate>
									<timebase>25</timebase>
									<ntsc>FALSE</ntsc>
								</rate>
								<string>00:00:00:00</string>
								<frame>0</frame>
								<displayformat>NDF</displayformat>
							</timecode>
							<media>
								<video>
									<samplecharacteristics>
										<rate>
											<timebase>25</timebase>
											<ntsc>FALSE</ntsc>
										</rate>
										<width>1920</width>
										<height>1080</height>
										<anamorphic>FALSE</anamorphic>
										<pixelaspectratio>square</pixelaspectratio>
										<fielddominance>none</fielddominance>
									</samplecharacteristics>
								</video>
								<audio>
									<samplecharacteristics>
										<depth>16</depth>
										<samplerate>44100</samplerate>
									</samplecharacteristics>
									<channelcount>2</channelcount>
								</audio>
							</media>
						</file>
						<link>
							<linkclipref>clipitem-87</linkclipref>
							<mediatype>video</mediatype>
							<trackindex>1</trackindex>
							<clipindex>3</clipindex>
						</link>
						<link>
							<linkclipref>clipitem-95</linkclipref>
							<mediatype>audio</mediatype>
							<trackindex>1</trackindex>
							<clipindex>3</clipindex>
							<groupindex>1</groupindex>
						</link>
						<link>
							<linkclipref>clipitem-103</linkclipref>
							<mediatype>audio</mediatype>
							<trackindex>2</trackindex>
							<clipindex>3</clipindex>
							<groupindex>1</groupindex>
						</link>
						<logginginfo>
							<description />
							<scene />
							<shottake />
							<lognote />
							<good />
							<originalvideofilename />
							<originalaudiofilename />
						</logginginfo>
						<colorinfo>
							<lut />
							<lut1 />
							<asc_sop />
							<asc_sat />
							<lut2 />
						</colorinfo>
					<labels><label2>Caribbean</label2></labels></clipitem>
					<clipitem id="clipitem-87">
						<masterclipid>clipitem-3-28</masterclipid>
						<name>Taylor_Swift_Travis_Kelce_-_The_New_Power_Couple.mp4</name>
						<enabled>TRUE</enabled>
						<duration>150</duration>
						<rate>
							<timebase>25</timebase>
							<ntsc>FALSE</ntsc>
						</rate>
						<start>136950</start>
						<end>137100</end>
						<in>4050</in>
						<out>4200</out>
						<pproTicksIn>0</pproTicksIn>
						<pproTicksOut>875013995520000</pproTicksOut>
						<alphatype>none</alphatype>
						<pixelaspectratio>square</pixelaspectratio>
						<anamorphic>FALSE</anamorphic>
						<file id="file-31">
							<name>Taylor_Swift_Travis_Kelce_-_The_New_Power_Couple.mp4</name>
							<pathurl>file://localhost/Users/themalikano/Documents/VideoAutomation/premiere_videos/Taylor_Swift_Travis_Kelce_-_The_New_Power_Couple.mp4</pathurl>
							<rate>
								<timebase>25</timebase>
								<ntsc>FALSE</ntsc>
							</rate>
							<duration>86118</duration>
							<timecode>
								<rate>
									<timebase>25</timebase>
									<ntsc>FALSE</ntsc>
								</rate>
								<string>00:00:00:00</string>
								<frame>0</frame>
								<displayformat>NDF</displayformat>
							</timecode>
							<media>
								<video>
									<samplecharacteristics>
										<rate>
											<timebase>25</timebase>
											<ntsc>FALSE</ntsc>
										</rate>
										<width>1920</width>
										<height>1080</height>
										<anamorphic>FALSE</anamorphic>
										<pixelaspectratio>square</pixelaspectratio>
										<fielddominance>none</fielddominance>
									</samplecharacteristics>
								</video>
								<audio>
									<samplecharacteristics>
										<depth>16</depth>
										<samplerate>44100</samplerate>
									</samplecharacteristics>
									<channelcount>2</channelcount>
								</audio>
							</media>
						</file>
						<link>
							<linkclipref>clipitem-87</linkclipref>
							<mediatype>video</mediatype>
							<trackindex>1</trackindex>
							<clipindex>3</clipindex>
						</link>
						<link>
							<linkclipref>clipitem-95</linkclipref>
							<mediatype>audio</mediatype>
							<trackindex>1</trackindex>
							<clipindex>3</clipindex>
							<groupindex>1</groupindex>
						</link>
						<link>
							<linkclipref>clipitem-103</linkclipref>
							<mediatype>audio</mediatype>
							<trackindex>2</trackindex>
							<clipindex>3</clipindex>
							<groupindex>1</groupindex>
						</link>
						<logginginfo>
							<description />
							<scene />
							<shottake />
							<lognote />
							<good />
							<originalvideofilename />
							<originalaudiofilename />
						</logginginfo>
						<colorinfo>
							<lut />
							<lut1 />
							<asc_sop />
							<asc_sat />
							<lut2 />
						</colorinfo>
					<labels><label2>Caribbean</label2></labels></clipitem>
					<clipitem id="clipitem-87">
						<masterclipid>clipitem-3-449</masterclipid>
						<name>Taylor_Swift_Travis_Kelce_-_The_New_Power_Couple.mp4</name>
						<enabled>TRUE</enabled>
						<duration>150</duration>
						<rate>
							<timebase>25</timebase>
							<ntsc>FALSE</ntsc>
						</rate>
						<start>137100</start>
						<end>137250</end>
						<in>67200</in>
						<out>67350</out>
						<pproTicksIn>0</pproTicksIn>
						<pproTicksOut>875013995520000</pproTicksOut>
						<alphatype>none</alphatype>
						<pixelaspectratio>square</pixelaspectratio>
						<anamorphic>FALSE</anamorphic>
						<file id="file-31">
							<name>Taylor_Swift_Travis_Kelce_-_The_New_Power_Couple.mp4</name>
							<pathurl>file://localhost/Users/themalikano/Documents/VideoAutomation/premiere_videos/Taylor_Swift_Travis_Kelce_-_The_New_Power_Couple.mp4</pathurl>
							<rate>
								<timebase>25</timebase>
								<ntsc>FALSE</ntsc>
							</rate>
							<duration>86118</duration>
							<timecode>
								<rate>
									<timebase>25</timebase>
									<ntsc>FALSE</ntsc>
								</rate>
								<string>00:00:00:00</string>
								<frame>0</frame>
								<displayformat>NDF</displayformat>
							</timecode>
							<media>
								<video>
									<samplecharacteristics>
										<rate>
											<timebase>25</timebase>
											<ntsc>FALSE</ntsc>
										</rate>
										<width>1920</width>
										<height>1080</height>
										<anamorphic>FALSE</anamorphic>
										<pixelaspectratio>square</pixelaspectratio>
										<fielddominance>none</fielddominance>
									</samplecharacteristics>
								</video>
								<audio>
									<samplecharacteristics>
										<depth>16</depth>
										<samplerate>44100</samplerate>
									</samplecharacteristics>
									<channelcount>2</channelcount>
								</audio>
							</media>
						</file>
						<link>
							<linkclipref>clipitem-87</linkclipref>
							<mediatype>video</mediatype>
							<trackindex>1</trackindex>
							<clipindex>3</clipindex>
						</link>
						<link>
							<linkclipref>clipitem-95</linkclipref>
							<mediatype>audio</mediatype>
							<trackindex>1</trackindex>
							<clipindex>3</clipindex>
							<groupindex>1</groupindex>
						</link>
						<link>
							<linkclipref>clipitem-103</linkclipref>
							<mediatype>audio</mediatype>
							<trackindex>2</trackindex>
							<clipindex>3</clipindex>
							<groupindex>1</groupindex>
						</link>
						<logginginfo>
							<description />
							<scene />
							<shottake />
							<lognote />
							<good />
							<originalvideofilename />
							<originalaudiofilename />
						</logginginfo>
						<colorinfo>
							<lut />
							<lut1 />
							<asc_sop />
							<asc_sat />
							<lut2 />
						</colorinfo>
					<labels><label2>Caribbean</label2></labels></clipitem>
					<clipitem id="clipitem-87">
						<masterclipid>clipitem-3-373</masterclipid>
						<name>Taylor_Swift_Travis_Kelce_-_The_New_Power_Couple.mp4</name>
						<enabled>TRUE</enabled>
						<duration>150</duration>
						<rate>
							<timebase>25</timebase>
							<ntsc>FALSE</ntsc>
						</rate>
						<start>137250</start>
						<end>137400</end>
						<in>55800</in>
						<out>55950</out>
						<pproTicksIn>0</pproTicksIn>
						<pproTicksOut>875013995520000</pproTicksOut>
						<alphatype>none</alphatype>
						<pixelaspectratio>square</pixelaspectratio>
						<anamorphic>FALSE</anamorphic>
						<file id="file-31">
							<name>Taylor_Swift_Travis_Kelce_-_The_New_Power_Couple.mp4</name>
							<pathurl>file://localhost/Users/themalikano/Documents/VideoAutomation/premiere_videos/Taylor_Swift_Travis_Kelce_-_The_New_Power_Couple.mp4</pathurl>
							<rate>
								<timebase>25</timebase>
								<ntsc>FALSE</ntsc>
							</rate>
							<duration>86118</duration>
							<timecode>
								<rate>
									<timebase>25</timebase>
									<ntsc>FALSE</ntsc>
								</rate>
								<string>00:00:00:00</string>
								<frame>0</frame>
								<displayformat>NDF</displayformat>
							</timecode>
							<media>
								<video>
									<samplecharacteristics>
										<rate>
											<timebase>25</timebase>
											<ntsc>FALSE</ntsc>
										</rate>
										<width>1920</width>
										<height>1080</height>
										<anamorphic>FALSE</anamorphic>
										<pixelaspectratio>square</pixelaspectratio>
										<fielddominance>none</fielddominance>
									</samplecharacteristics>
								</video>
								<audio>
									<samplecharacteristics>
										<depth>16</depth>
										<samplerate>44100</samplerate>
									</samplecharacteristics>
									<channelcount>2</channelcount>
								</audio>
							</media>
						</file>
						<link>
							<linkclipref>clipitem-87</linkclipref>
							<mediatype>video</mediatype>
							<trackindex>1</trackindex>
							<clipindex>3</clipindex>
						</link>
						<link>
							<linkclipref>clipitem-95</linkclipref>
							<mediatype>audio</mediatype>
							<trackindex>1</trackindex>
							<clipindex>3</clipindex>
							<groupindex>1</groupindex>
						</link>
						<link>
							<linkclipref>clipitem-103</linkclipref>
							<mediatype>audio</mediatype>
							<trackindex>2</trackindex>
							<clipindex>3</clipindex>
							<groupindex>1</groupindex>
						</link>
						<logginginfo>
							<description />
							<scene />
							<shottake />
							<lognote />
							<good />
							<originalvideofilename />
							<originalaudiofilename />
						</logginginfo>
						<colorinfo>
							<lut />
							<lut1 />
							<asc_sop />
							<asc_sat />
							<lut2 />
						</colorinfo>
					<labels><label2>Caribbean</label2></labels></clipitem>
					<clipitem id="clipitem-87">
						<masterclipid>clipitem-3-342</masterclipid>
						<name>Taylor_Swift_Travis_Kelce_-_The_New_Power_Couple.mp4</name>
						<enabled>TRUE</enabled>
						<duration>150</duration>
						<rate>
							<timebase>25</timebase>
							<ntsc>FALSE</ntsc>
						</rate>
						<start>137400</start>
						<end>137550</end>
						<in>51150</in>
						<out>51300</out>
						<pproTicksIn>0</pproTicksIn>
						<pproTicksOut>875013995520000</pproTicksOut>
						<alphatype>none</alphatype>
						<pixelaspectratio>square</pixelaspectratio>
						<anamorphic>FALSE</anamorphic>
						<file id="file-31">
							<name>Taylor_Swift_Travis_Kelce_-_The_New_Power_Couple.mp4</name>
							<pathurl>file://localhost/Users/themalikano/Documents/VideoAutomation/premiere_videos/Taylor_Swift_Travis_Kelce_-_The_New_Power_Couple.mp4</pathurl>
							<rate>
								<timebase>25</timebase>
								<ntsc>FALSE</ntsc>
							</rate>
							<duration>86118</duration>
							<timecode>
								<rate>
									<timebase>25</timebase>
									<ntsc>FALSE</ntsc>
								</rate>
								<string>00:00:00:00</string>
								<frame>0</frame>
								<displayformat>NDF</displayformat>
							</timecode>
							<media>
								<video>
									<samplecharacteristics>
										<rate>
											<timebase>25</timebase>
											<ntsc>FALSE</ntsc>
										</rate>
										<width>1920</width>
										<height>1080</height>
										<anamorphic>FALSE</anamorphic>
										<pixelaspectratio>square</pixelaspectratio>
										<fielddominance>none</fielddominance>
									</samplecharacteristics>
								</video>
								<audio>
									<samplecharacteristics>
										<depth>16</depth>
										<samplerate>44100</samplerate>
									</samplecharacteristics>
									<channelcount>2</channelcount>
								</audio>
							</media>
						</file>
						<link>
							<linkclipref>clipitem-87</linkclipref>
							<mediatype>video</mediatype>
							<trackindex>1</trackindex>
							<clipindex>3</clipindex>
						</link>
						<link>
							<linkclipref>clipitem-95</linkclipref>
							<mediatype>audio</mediatype>
							<trackindex>1</trackindex>
							<clipindex>3</clipindex>
							<groupindex>1</groupindex>
						</link>
						<link>
							<linkclipref>clipitem-103</linkclipref>
							<mediatype>audio</mediatype>
							<trackindex>2</trackindex>
							<clipindex>3</clipindex>
							<groupindex>1</groupindex>
						</link>
						<logginginfo>
							<description />
							<scene />
							<shottake />
							<lognote />
							<good />
							<originalvideofilename />
							<originalaudiofilename />
						</logginginfo>
						<colorinfo>
							<lut />
							<lut1 />
							<asc_sop />
							<asc_sat />
							<lut2 />
						</colorinfo>
					<labels><label2>Caribbean</label2></labels></clipitem>
					<clipitem id="clipitem-87">
						<masterclipid>clipitem-3-195</masterclipid>
						<name>Taylor_Swift_Travis_Kelce_-_The_New_Power_Couple.mp4</name>
						<enabled>TRUE</enabled>
						<duration>150</duration>
						<rate>
							<timebase>25</timebase>
							<ntsc>FALSE</ntsc>
						</rate>
						<start>137550</start>
						<end>137700</end>
						<in>29100</in>
						<out>29250</out>
						<pproTicksIn>0</pproTicksIn>
						<pproTicksOut>875013995520000</pproTicksOut>
						<alphatype>none</alphatype>
						<pixelaspectratio>square</pixelaspectratio>
						<anamorphic>FALSE</anamorphic>
						<file id="file-31">
							<name>Taylor_Swift_Travis_Kelce_-_The_New_Power_Couple.mp4</name>
							<pathurl>file://localhost/Users/themalikano/Documents/VideoAutomation/premiere_videos/Taylor_Swift_Travis_Kelce_-_The_New_Power_Couple.mp4</pathurl>
							<rate>
								<timebase>25</timebase>
								<ntsc>FALSE</ntsc>
							</rate>
							<duration>86118</duration>
							<timecode>
								<rate>
									<timebase>25</timebase>
									<ntsc>FALSE</ntsc>
								</rate>
								<string>00:00:00:00</string>
								<frame>0</frame>
								<displayformat>NDF</displayformat>
							</timecode>
							<media>
								<video>
									<samplecharacteristics>
										<rate>
											<timebase>25</timebase>
											<ntsc>FALSE</ntsc>
										</rate>
										<width>1920</width>
										<height>1080</height>
										<anamorphic>FALSE</anamorphic>
										<pixelaspectratio>square</pixelaspectratio>
										<fielddominance>none</fielddominance>
									</samplecharacteristics>
								</video>
								<audio>
									<samplecharacteristics>
										<depth>16</depth>
										<samplerate>44100</samplerate>
									</samplecharacteristics>
									<channelcount>2</channelcount>
								</audio>
							</media>
						</file>
						<link>
							<linkclipref>clipitem-87</linkclipref>
							<mediatype>video</mediatype>
							<trackindex>1</trackindex>
							<clipindex>3</clipindex>
						</link>
						<link>
							<linkclipref>clipitem-95</linkclipref>
							<mediatype>audio</mediatype>
							<trackindex>1</trackindex>
							<clipindex>3</clipindex>
							<groupindex>1</groupindex>
						</link>
						<link>
							<linkclipref>clipitem-103</linkclipref>
							<mediatype>audio</mediatype>
							<trackindex>2</trackindex>
							<clipindex>3</clipindex>
							<groupindex>1</groupindex>
						</link>
						<logginginfo>
							<description />
							<scene />
							<shottake />
							<lognote />
							<good />
							<originalvideofilename />
							<originalaudiofilename />
						</logginginfo>
						<colorinfo>
							<lut />
							<lut1 />
							<asc_sop />
							<asc_sat />
							<lut2 />
						</colorinfo>
					<labels><label2>Caribbean</label2></labels></clipitem>
					<clipitem id="clipitem-87">
						<masterclipid>clipitem-3-395</masterclipid>
						<name>Taylor_Swift_Travis_Kelce_-_The_New_Power_Couple.mp4</name>
						<enabled>TRUE</enabled>
						<duration>150</duration>
						<rate>
							<timebase>25</timebase>
							<ntsc>FALSE</ntsc>
						</rate>
						<start>137700</start>
						<end>137850</end>
						<in>59100</in>
						<out>59250</out>
						<pproTicksIn>0</pproTicksIn>
						<pproTicksOut>875013995520000</pproTicksOut>
						<alphatype>none</alphatype>
						<pixelaspectratio>square</pixelaspectratio>
						<anamorphic>FALSE</anamorphic>
						<file id="file-31">
							<name>Taylor_Swift_Travis_Kelce_-_The_New_Power_Couple.mp4</name>
							<pathurl>file://localhost/Users/themalikano/Documents/VideoAutomation/premiere_videos/Taylor_Swift_Travis_Kelce_-_The_New_Power_Couple.mp4</pathurl>
							<rate>
								<timebase>25</timebase>
								<ntsc>FALSE</ntsc>
							</rate>
							<duration>86118</duration>
							<timecode>
								<rate>
									<timebase>25</timebase>
									<ntsc>FALSE</ntsc>
								</rate>
								<string>00:00:00:00</string>
								<frame>0</frame>
								<displayformat>NDF</displayformat>
							</timecode>
							<media>
								<video>
									<samplecharacteristics>
										<rate>
											<timebase>25</timebase>
											<ntsc>FALSE</ntsc>
										</rate>
										<width>1920</width>
										<height>1080</height>
										<anamorphic>FALSE</anamorphic>
										<pixelaspectratio>square</pixelaspectratio>
										<fielddominance>none</fielddominance>
									</samplecharacteristics>
								</video>
								<audio>
									<samplecharacteristics>
										<depth>16</depth>
										<samplerate>44100</samplerate>
									</samplecharacteristics>
									<channelcount>2</channelcount>
								</audio>
							</media>
						</file>
						<link>
							<linkclipref>clipitem-87</linkclipref>
							<mediatype>video</mediatype>
							<trackindex>1</trackindex>
							<clipindex>3</clipindex>
						</link>
						<link>
							<linkclipref>clipitem-95</linkclipref>
							<mediatype>audio</mediatype>
							<trackindex>1</trackindex>
							<clipindex>3</clipindex>
							<groupindex>1</groupindex>
						</link>
						<link>
							<linkclipref>clipitem-103</linkclipref>
							<mediatype>audio</mediatype>
							<trackindex>2</trackindex>
							<clipindex>3</clipindex>
							<groupindex>1</groupindex>
						</link>
						<logginginfo>
							<description />
							<scene />
							<shottake />
							<lognote />
							<good />
							<originalvideofilename />
							<originalaudiofilename />
						</logginginfo>
						<colorinfo>
							<lut />
							<lut1 />
							<asc_sop />
							<asc_sat />
							<lut2 />
						</colorinfo>
					<labels><label2>Caribbean</label2></labels></clipitem>
					<clipitem id="clipitem-87">
						<masterclipid>clipitem-3-112</masterclipid>
						<name>Taylor_Swift_Travis_Kelce_-_The_New_Power_Couple.mp4</name>
						<enabled>TRUE</enabled>
						<duration>150</duration>
						<rate>
							<timebase>25</timebase>
							<ntsc>FALSE</ntsc>
						</rate>
						<start>137850</start>
						<end>138000</end>
						<in>16650</in>
						<out>16800</out>
						<pproTicksIn>0</pproTicksIn>
						<pproTicksOut>875013995520000</pproTicksOut>
						<alphatype>none</alphatype>
						<pixelaspectratio>square</pixelaspectratio>
						<anamorphic>FALSE</anamorphic>
						<file id="file-31">
							<name>Taylor_Swift_Travis_Kelce_-_The_New_Power_Couple.mp4</name>
							<pathurl>file://localhost/Users/themalikano/Documents/VideoAutomation/premiere_videos/Taylor_Swift_Travis_Kelce_-_The_New_Power_Couple.mp4</pathurl>
							<rate>
								<timebase>25</timebase>
								<ntsc>FALSE</ntsc>
							</rate>
							<duration>86118</duration>
							<timecode>
								<rate>
									<timebase>25</timebase>
									<ntsc>FALSE</ntsc>
								</rate>
								<string>00:00:00:00</string>
								<frame>0</frame>
								<displayformat>NDF</displayformat>
							</timecode>
							<media>
								<video>
									<samplecharacteristics>
										<rate>
											<timebase>25</timebase>
											<ntsc>FALSE</ntsc>
										</rate>
										<width>1920</width>
										<height>1080</height>
										<anamorphic>FALSE</anamorphic>
										<pixelaspectratio>square</pixelaspectratio>
										<fielddominance>none</fielddominance>
									</samplecharacteristics>
								</video>
								<audio>
									<samplecharacteristics>
										<depth>16</depth>
										<samplerate>44100</samplerate>
									</samplecharacteristics>
									<channelcount>2</channelcount>
								</audio>
							</media>
						</file>
						<link>
							<linkclipref>clipitem-87</linkclipref>
							<mediatype>video</mediatype>
							<trackindex>1</trackindex>
							<clipindex>3</clipindex>
						</link>
						<link>
							<linkclipref>clipitem-95</linkclipref>
							<mediatype>audio</mediatype>
							<trackindex>1</trackindex>
							<clipindex>3</clipindex>
							<groupindex>1</groupindex>
						</link>
						<link>
							<linkclipref>clipitem-103</linkclipref>
							<mediatype>audio</mediatype>
							<trackindex>2</trackindex>
							<clipindex>3</clipindex>
							<groupindex>1</groupindex>
						</link>
						<logginginfo>
							<description />
							<scene />
							<shottake />
							<lognote />
							<good />
							<originalvideofilename />
							<originalaudiofilename />
						</logginginfo>
						<colorinfo>
							<lut />
							<lut1 />
							<asc_sop />
							<asc_sat />
							<lut2 />
						</colorinfo>
					<labels><label2>Caribbean</label2></labels></clipitem>
					<clipitem id="clipitem-87">
						<masterclipid>clipitem-3-555</masterclipid>
						<name>Taylor_Swift_Travis_Kelce_-_The_New_Power_Couple.mp4</name>
						<enabled>TRUE</enabled>
						<duration>150</duration>
						<rate>
							<timebase>25</timebase>
							<ntsc>FALSE</ntsc>
						</rate>
						<start>138000</start>
						<end>138150</end>
						<in>83100</in>
						<out>83250</out>
						<pproTicksIn>0</pproTicksIn>
						<pproTicksOut>875013995520000</pproTicksOut>
						<alphatype>none</alphatype>
						<pixelaspectratio>square</pixelaspectratio>
						<anamorphic>FALSE</anamorphic>
						<file id="file-31">
							<name>Taylor_Swift_Travis_Kelce_-_The_New_Power_Couple.mp4</name>
							<pathurl>file://localhost/Users/themalikano/Documents/VideoAutomation/premiere_videos/Taylor_Swift_Travis_Kelce_-_The_New_Power_Couple.mp4</pathurl>
							<rate>
								<timebase>25</timebase>
								<ntsc>FALSE</ntsc>
							</rate>
							<duration>86118</duration>
							<timecode>
								<rate>
									<timebase>25</timebase>
									<ntsc>FALSE</ntsc>
								</rate>
								<string>00:00:00:00</string>
								<frame>0</frame>
								<displayformat>NDF</displayformat>
							</timecode>
							<media>
								<video>
									<samplecharacteristics>
										<rate>
											<timebase>25</timebase>
											<ntsc>FALSE</ntsc>
										</rate>
										<width>1920</width>
										<height>1080</height>
										<anamorphic>FALSE</anamorphic>
										<pixelaspectratio>square</pixelaspectratio>
										<fielddominance>none</fielddominance>
									</samplecharacteristics>
								</video>
								<audio>
									<samplecharacteristics>
										<depth>16</depth>
										<samplerate>44100</samplerate>
									</samplecharacteristics>
									<channelcount>2</channelcount>
								</audio>
							</media>
						</file>
						<link>
							<linkclipref>clipitem-87</linkclipref>
							<mediatype>video</mediatype>
							<trackindex>1</trackindex>
							<clipindex>3</clipindex>
						</link>
						<link>
							<linkclipref>clipitem-95</linkclipref>
							<mediatype>audio</mediatype>
							<trackindex>1</trackindex>
							<clipindex>3</clipindex>
							<groupindex>1</groupindex>
						</link>
						<link>
							<linkclipref>clipitem-103</linkclipref>
							<mediatype>audio</mediatype>
							<trackindex>2</trackindex>
							<clipindex>3</clipindex>
							<groupindex>1</groupindex>
						</link>
						<logginginfo>
							<description />
							<scene />
							<shottake />
							<lognote />
							<good />
							<originalvideofilename />
							<originalaudiofilename />
						</logginginfo>
						<colorinfo>
							<lut />
							<lut1 />
							<asc_sop />
							<asc_sat />
							<lut2 />
						</colorinfo>
					<labels><label2>Caribbean</label2></labels></clipitem>
					<clipitem id="clipitem-87">
						<masterclipid>clipitem-3-257</masterclipid>
						<name>Taylor_Swift_Travis_Kelce_-_The_New_Power_Couple.mp4</name>
						<enabled>TRUE</enabled>
						<duration>150</duration>
						<rate>
							<timebase>25</timebase>
							<ntsc>FALSE</ntsc>
						</rate>
						<start>138150</start>
						<end>138300</end>
						<in>38400</in>
						<out>38550</out>
						<pproTicksIn>0</pproTicksIn>
						<pproTicksOut>875013995520000</pproTicksOut>
						<alphatype>none</alphatype>
						<pixelaspectratio>square</pixelaspectratio>
						<anamorphic>FALSE</anamorphic>
						<file id="file-31">
							<name>Taylor_Swift_Travis_Kelce_-_The_New_Power_Couple.mp4</name>
							<pathurl>file://localhost/Users/themalikano/Documents/VideoAutomation/premiere_videos/Taylor_Swift_Travis_Kelce_-_The_New_Power_Couple.mp4</pathurl>
							<rate>
								<timebase>25</timebase>
								<ntsc>FALSE</ntsc>
							</rate>
							<duration>86118</duration>
							<timecode>
								<rate>
									<timebase>25</timebase>
									<ntsc>FALSE</ntsc>
								</rate>
								<string>00:00:00:00</string>
								<frame>0</frame>
								<displayformat>NDF</displayformat>
							</timecode>
							<media>
								<video>
									<samplecharacteristics>
										<rate>
											<timebase>25</timebase>
											<ntsc>FALSE</ntsc>
										</rate>
										<width>1920</width>
										<height>1080</height>
										<anamorphic>FALSE</anamorphic>
										<pixelaspectratio>square</pixelaspectratio>
										<fielddominance>none</fielddominance>
									</samplecharacteristics>
								</video>
								<audio>
									<samplecharacteristics>
										<depth>16</depth>
										<samplerate>44100</samplerate>
									</samplecharacteristics>
									<channelcount>2</channelcount>
								</audio>
							</media>
						</file>
						<link>
							<linkclipref>clipitem-87</linkclipref>
							<mediatype>video</mediatype>
							<trackindex>1</trackindex>
							<clipindex>3</clipindex>
						</link>
						<link>
							<linkclipref>clipitem-95</linkclipref>
							<mediatype>audio</mediatype>
							<trackindex>1</trackindex>
							<clipindex>3</clipindex>
							<groupindex>1</groupindex>
						</link>
						<link>
							<linkclipref>clipitem-103</linkclipref>
							<mediatype>audio</mediatype>
							<trackindex>2</trackindex>
							<clipindex>3</clipindex>
							<groupindex>1</groupindex>
						</link>
						<logginginfo>
							<description />
							<scene />
							<shottake />
							<lognote />
							<good />
							<originalvideofilename />
							<originalaudiofilename />
						</logginginfo>
						<colorinfo>
							<lut />
							<lut1 />
							<asc_sop />
							<asc_sat />
							<lut2 />
						</colorinfo>
					<labels><label2>Caribbean</label2></labels></clipitem>
					<clipitem id="clipitem-87">
						<masterclipid>clipitem-3-484</masterclipid>
						<name>Taylor_Swift_Travis_Kelce_-_The_New_Power_Couple.mp4</name>
						<enabled>TRUE</enabled>
						<duration>150</duration>
						<rate>
							<timebase>25</timebase>
							<ntsc>FALSE</ntsc>
						</rate>
						<start>138300</start>
						<end>138450</end>
						<in>72450</in>
						<out>72600</out>
						<pproTicksIn>0</pproTicksIn>
						<pproTicksOut>875013995520000</pproTicksOut>
						<alphatype>none</alphatype>
						<pixelaspectratio>square</pixelaspectratio>
						<anamorphic>FALSE</anamorphic>
						<file id="file-31">
							<name>Taylor_Swift_Travis_Kelce_-_The_New_Power_Couple.mp4</name>
							<pathurl>file://localhost/Users/themalikano/Documents/VideoAutomation/premiere_videos/Taylor_Swift_Travis_Kelce_-_The_New_Power_Couple.mp4</pathurl>
							<rate>
								<timebase>25</timebase>
								<ntsc>FALSE</ntsc>
							</rate>
							<duration>86118</duration>
							<timecode>
								<rate>
									<timebase>25</timebase>
									<ntsc>FALSE</ntsc>
								</rate>
								<string>00:00:00:00</string>
								<frame>0</frame>
								<displayformat>NDF</displayformat>
							</timecode>
							<media>
								<video>
									<samplecharacteristics>
										<rate>
											<timebase>25</timebase>
											<ntsc>FALSE</ntsc>
										</rate>
										<width>1920</width>
										<height>1080</height>
										<anamorphic>FALSE</anamorphic>
										<pixelaspectratio>square</pixelaspectratio>
										<fielddominance>none</fielddominance>
									</samplecharacteristics>
								</video>
								<audio>
									<samplecharacteristics>
										<depth>16</depth>
										<samplerate>44100</samplerate>
									</samplecharacteristics>
									<channelcount>2</channelcount>
								</audio>
							</media>
						</file>
						<link>
							<linkclipref>clipitem-87</linkclipref>
							<mediatype>video</mediatype>
							<trackindex>1</trackindex>
							<clipindex>3</clipindex>
						</link>
						<link>
							<linkclipref>clipitem-95</linkclipref>
							<mediatype>audio</mediatype>
							<trackindex>1</trackindex>
							<clipindex>3</clipindex>
							<groupindex>1</groupindex>
						</link>
						<link>
							<linkclipref>clipitem-103</linkclipref>
							<mediatype>audio</mediatype>
							<trackindex>2</trackindex>
							<clipindex>3</clipindex>
							<groupindex>1</groupindex>
						</link>
						<logginginfo>
							<description />
							<scene />
							<shottake />
							<lognote />
							<good />
							<originalvideofilename />
							<originalaudiofilename />
						</logginginfo>
						<colorinfo>
							<lut />
							<lut1 />
							<asc_sop />
							<asc_sat />
							<lut2 />
						</colorinfo>
					<labels><label2>Caribbean</label2></labels></clipitem>
					<clipitem id="clipitem-87">
						<masterclipid>clipitem-3-186</masterclipid>
						<name>Taylor_Swift_Travis_Kelce_-_The_New_Power_Couple.mp4</name>
						<enabled>TRUE</enabled>
						<duration>150</duration>
						<rate>
							<timebase>25</timebase>
							<ntsc>FALSE</ntsc>
						</rate>
						<start>138450</start>
						<end>138600</end>
						<in>27750</in>
						<out>27900</out>
						<pproTicksIn>0</pproTicksIn>
						<pproTicksOut>875013995520000</pproTicksOut>
						<alphatype>none</alphatype>
						<pixelaspectratio>square</pixelaspectratio>
						<anamorphic>FALSE</anamorphic>
						<file id="file-31">
							<name>Taylor_Swift_Travis_Kelce_-_The_New_Power_Couple.mp4</name>
							<pathurl>file://localhost/Users/themalikano/Documents/VideoAutomation/premiere_videos/Taylor_Swift_Travis_Kelce_-_The_New_Power_Couple.mp4</pathurl>
							<rate>
								<timebase>25</timebase>
								<ntsc>FALSE</ntsc>
							</rate>
							<duration>86118</duration>
							<timecode>
								<rate>
									<timebase>25</timebase>
									<ntsc>FALSE</ntsc>
								</rate>
								<string>00:00:00:00</string>
								<frame>0</frame>
								<displayformat>NDF</displayformat>
							</timecode>
							<media>
								<video>
									<samplecharacteristics>
										<rate>
											<timebase>25</timebase>
											<ntsc>FALSE</ntsc>
										</rate>
										<width>1920</width>
										<height>1080</height>
										<anamorphic>FALSE</anamorphic>
										<pixelaspectratio>square</pixelaspectratio>
										<fielddominance>none</fielddominance>
									</samplecharacteristics>
								</video>
								<audio>
									<samplecharacteristics>
										<depth>16</depth>
										<samplerate>44100</samplerate>
									</samplecharacteristics>
									<channelcount>2</channelcount>
								</audio>
							</media>
						</file>
						<link>
							<linkclipref>clipitem-87</linkclipref>
							<mediatype>video</mediatype>
							<trackindex>1</trackindex>
							<clipindex>3</clipindex>
						</link>
						<link>
							<linkclipref>clipitem-95</linkclipref>
							<mediatype>audio</mediatype>
							<trackindex>1</trackindex>
							<clipindex>3</clipindex>
							<groupindex>1</groupindex>
						</link>
						<link>
							<linkclipref>clipitem-103</linkclipref>
							<mediatype>audio</mediatype>
							<trackindex>2</trackindex>
							<clipindex>3</clipindex>
							<groupindex>1</groupindex>
						</link>
						<logginginfo>
							<description />
							<scene />
							<shottake />
							<lognote />
							<good />
							<originalvideofilename />
							<originalaudiofilename />
						</logginginfo>
						<colorinfo>
							<lut />
							<lut1 />
							<asc_sop />
							<asc_sat />
							<lut2 />
						</colorinfo>
					<labels><label2>Caribbean</label2></labels></clipitem>
					<clipitem id="clipitem-87">
						<masterclipid>clipitem-3-476</masterclipid>
						<name>Taylor_Swift_Travis_Kelce_-_The_New_Power_Couple.mp4</name>
						<enabled>TRUE</enabled>
						<duration>150</duration>
						<rate>
							<timebase>25</timebase>
							<ntsc>FALSE</ntsc>
						</rate>
						<start>138600</start>
						<end>138750</end>
						<in>71250</in>
						<out>71400</out>
						<pproTicksIn>0</pproTicksIn>
						<pproTicksOut>875013995520000</pproTicksOut>
						<alphatype>none</alphatype>
						<pixelaspectratio>square</pixelaspectratio>
						<anamorphic>FALSE</anamorphic>
						<file id="file-31">
							<name>Taylor_Swift_Travis_Kelce_-_The_New_Power_Couple.mp4</name>
							<pathurl>file://localhost/Users/themalikano/Documents/VideoAutomation/premiere_videos/Taylor_Swift_Travis_Kelce_-_The_New_Power_Couple.mp4</pathurl>
							<rate>
								<timebase>25</timebase>
								<ntsc>FALSE</ntsc>
							</rate>
							<duration>86118</duration>
							<timecode>
								<rate>
									<timebase>25</timebase>
									<ntsc>FALSE</ntsc>
								</rate>
								<string>00:00:00:00</string>
								<frame>0</frame>
								<displayformat>NDF</displayformat>
							</timecode>
							<media>
								<video>
									<samplecharacteristics>
										<rate>
											<timebase>25</timebase>
											<ntsc>FALSE</ntsc>
										</rate>
										<width>1920</width>
										<height>1080</height>
										<anamorphic>FALSE</anamorphic>
										<pixelaspectratio>square</pixelaspectratio>
										<fielddominance>none</fielddominance>
									</samplecharacteristics>
								</video>
								<audio>
									<samplecharacteristics>
										<depth>16</depth>
										<samplerate>44100</samplerate>
									</samplecharacteristics>
									<channelcount>2</channelcount>
								</audio>
							</media>
						</file>
						<link>
							<linkclipref>clipitem-87</linkclipref>
							<mediatype>video</mediatype>
							<trackindex>1</trackindex>
							<clipindex>3</clipindex>
						</link>
						<link>
							<linkclipref>clipitem-95</linkclipref>
							<mediatype>audio</mediatype>
							<trackindex>1</trackindex>
							<clipindex>3</clipindex>
							<groupindex>1</groupindex>
						</link>
						<link>
							<linkclipref>clipitem-103</linkclipref>
							<mediatype>audio</mediatype>
							<trackindex>2</trackindex>
							<clipindex>3</clipindex>
							<groupindex>1</groupindex>
						</link>
						<logginginfo>
							<description />
							<scene />
							<shottake />
							<lognote />
							<good />
							<originalvideofilename />
							<originalaudiofilename />
						</logginginfo>
						<colorinfo>
							<lut />
							<lut1 />
							<asc_sop />
							<asc_sat />
							<lut2 />
						</colorinfo>
					<labels><label2>Caribbean</label2></labels></clipitem>
					<clipitem id="clipitem-87">
						<masterclipid>clipitem-3-416</masterclipid>
						<name>Taylor_Swift_Travis_Kelce_-_The_New_Power_Couple.mp4</name>
						<enabled>TRUE</enabled>
						<duration>150</duration>
						<rate>
							<timebase>25</timebase>
							<ntsc>FALSE</ntsc>
						</rate>
						<start>138750</start>
						<end>138900</end>
						<in>62250</in>
						<out>62400</out>
						<pproTicksIn>0</pproTicksIn>
						<pproTicksOut>875013995520000</pproTicksOut>
						<alphatype>none</alphatype>
						<pixelaspectratio>square</pixelaspectratio>
						<anamorphic>FALSE</anamorphic>
						<file id="file-31">
							<name>Taylor_Swift_Travis_Kelce_-_The_New_Power_Couple.mp4</name>
							<pathurl>file://localhost/Users/themalikano/Documents/VideoAutomation/premiere_videos/Taylor_Swift_Travis_Kelce_-_The_New_Power_Couple.mp4</pathurl>
							<rate>
								<timebase>25</timebase>
								<ntsc>FALSE</ntsc>
							</rate>
							<duration>86118</duration>
							<timecode>
								<rate>
									<timebase>25</timebase>
									<ntsc>FALSE</ntsc>
								</rate>
								<string>00:00:00:00</string>
								<frame>0</frame>
								<displayformat>NDF</displayformat>
							</timecode>
							<media>
								<video>
									<samplecharacteristics>
										<rate>
											<timebase>25</timebase>
											<ntsc>FALSE</ntsc>
										</rate>
										<width>1920</width>
										<height>1080</height>
										<anamorphic>FALSE</anamorphic>
										<pixelaspectratio>square</pixelaspectratio>
										<fielddominance>none</fielddominance>
									</samplecharacteristics>
								</video>
								<audio>
									<samplecharacteristics>
										<depth>16</depth>
										<samplerate>44100</samplerate>
									</samplecharacteristics>
									<channelcount>2</channelcount>
								</audio>
							</media>
						</file>
						<link>
							<linkclipref>clipitem-87</linkclipref>
							<mediatype>video</mediatype>
							<trackindex>1</trackindex>
							<clipindex>3</clipindex>
						</link>
						<link>
							<linkclipref>clipitem-95</linkclipref>
							<mediatype>audio</mediatype>
							<trackindex>1</trackindex>
							<clipindex>3</clipindex>
							<groupindex>1</groupindex>
						</link>
						<link>
							<linkclipref>clipitem-103</linkclipref>
							<mediatype>audio</mediatype>
							<trackindex>2</trackindex>
							<clipindex>3</clipindex>
							<groupindex>1</groupindex>
						</link>
						<logginginfo>
							<description />
							<scene />
							<shottake />
							<lognote />
							<good />
							<originalvideofilename />
							<originalaudiofilename />
						</logginginfo>
						<colorinfo>
							<lut />
							<lut1 />
							<asc_sop />
							<asc_sat />
							<lut2 />
						</colorinfo>
					<labels><label2>Caribbean</label2></labels></clipitem>
					<clipitem id="clipitem-87">
						<masterclipid>clipitem-3-173</masterclipid>
						<name>Taylor_Swift_Travis_Kelce_-_The_New_Power_Couple.mp4</name>
						<enabled>TRUE</enabled>
						<duration>150</duration>
						<rate>
							<timebase>25</timebase>
							<ntsc>FALSE</ntsc>
						</rate>
						<start>138900</start>
						<end>139050</end>
						<in>25800</in>
						<out>25950</out>
						<pproTicksIn>0</pproTicksIn>
						<pproTicksOut>875013995520000</pproTicksOut>
						<alphatype>none</alphatype>
						<pixelaspectratio>square</pixelaspectratio>
						<anamorphic>FALSE</anamorphic>
						<file id="file-31">
							<name>Taylor_Swift_Travis_Kelce_-_The_New_Power_Couple.mp4</name>
							<pathurl>file://localhost/Users/themalikano/Documents/VideoAutomation/premiere_videos/Taylor_Swift_Travis_Kelce_-_The_New_Power_Couple.mp4</pathurl>
							<rate>
								<timebase>25</timebase>
								<ntsc>FALSE</ntsc>
							</rate>
							<duration>86118</duration>
							<timecode>
								<rate>
									<timebase>25</timebase>
									<ntsc>FALSE</ntsc>
								</rate>
								<string>00:00:00:00</string>
								<frame>0</frame>
								<displayformat>NDF</displayformat>
							</timecode>
							<media>
								<video>
									<samplecharacteristics>
										<rate>
											<timebase>25</timebase>
											<ntsc>FALSE</ntsc>
										</rate>
										<width>1920</width>
										<height>1080</height>
										<anamorphic>FALSE</anamorphic>
										<pixelaspectratio>square</pixelaspectratio>
										<fielddominance>none</fielddominance>
									</samplecharacteristics>
								</video>
								<audio>
									<samplecharacteristics>
										<depth>16</depth>
										<samplerate>44100</samplerate>
									</samplecharacteristics>
									<channelcount>2</channelcount>
								</audio>
							</media>
						</file>
						<link>
							<linkclipref>clipitem-87</linkclipref>
							<mediatype>video</mediatype>
							<trackindex>1</trackindex>
							<clipindex>3</clipindex>
						</link>
						<link>
							<linkclipref>clipitem-95</linkclipref>
							<mediatype>audio</mediatype>
							<trackindex>1</trackindex>
							<clipindex>3</clipindex>
							<groupindex>1</groupindex>
						</link>
						<link>
							<linkclipref>clipitem-103</linkclipref>
							<mediatype>audio</mediatype>
							<trackindex>2</trackindex>
							<clipindex>3</clipindex>
							<groupindex>1</groupindex>
						</link>
						<logginginfo>
							<description />
							<scene />
							<shottake />
							<lognote />
							<good />
							<originalvideofilename />
							<originalaudiofilename />
						</logginginfo>
						<colorinfo>
							<lut />
							<lut1 />
							<asc_sop />
							<asc_sat />
							<lut2 />
						</colorinfo>
					<labels><label2>Caribbean</label2></labels></clipitem>
					<clipitem id="clipitem-87">
						<masterclipid>clipitem-3-23</masterclipid>
						<name>Taylor_Swift_Travis_Kelce_-_The_New_Power_Couple.mp4</name>
						<enabled>TRUE</enabled>
						<duration>150</duration>
						<rate>
							<timebase>25</timebase>
							<ntsc>FALSE</ntsc>
						</rate>
						<start>139050</start>
						<end>139200</end>
						<in>3300</in>
						<out>3450</out>
						<pproTicksIn>0</pproTicksIn>
						<pproTicksOut>875013995520000</pproTicksOut>
						<alphatype>none</alphatype>
						<pixelaspectratio>square</pixelaspectratio>
						<anamorphic>FALSE</anamorphic>
						<file id="file-31">
							<name>Taylor_Swift_Travis_Kelce_-_The_New_Power_Couple.mp4</name>
							<pathurl>file://localhost/Users/themalikano/Documents/VideoAutomation/premiere_videos/Taylor_Swift_Travis_Kelce_-_The_New_Power_Couple.mp4</pathurl>
							<rate>
								<timebase>25</timebase>
								<ntsc>FALSE</ntsc>
							</rate>
							<duration>86118</duration>
							<timecode>
								<rate>
									<timebase>25</timebase>
									<ntsc>FALSE</ntsc>
								</rate>
								<string>00:00:00:00</string>
								<frame>0</frame>
								<displayformat>NDF</displayformat>
							</timecode>
							<media>
								<video>
									<samplecharacteristics>
										<rate>
											<timebase>25</timebase>
											<ntsc>FALSE</ntsc>
										</rate>
										<width>1920</width>
										<height>1080</height>
										<anamorphic>FALSE</anamorphic>
										<pixelaspectratio>square</pixelaspectratio>
										<fielddominance>none</fielddominance>
									</samplecharacteristics>
								</video>
								<audio>
									<samplecharacteristics>
										<depth>16</depth>
										<samplerate>44100</samplerate>
									</samplecharacteristics>
									<channelcount>2</channelcount>
								</audio>
							</media>
						</file>
						<link>
							<linkclipref>clipitem-87</linkclipref>
							<mediatype>video</mediatype>
							<trackindex>1</trackindex>
							<clipindex>3</clipindex>
						</link>
						<link>
							<linkclipref>clipitem-95</linkclipref>
							<mediatype>audio</mediatype>
							<trackindex>1</trackindex>
							<clipindex>3</clipindex>
							<groupindex>1</groupindex>
						</link>
						<link>
							<linkclipref>clipitem-103</linkclipref>
							<mediatype>audio</mediatype>
							<trackindex>2</trackindex>
							<clipindex>3</clipindex>
							<groupindex>1</groupindex>
						</link>
						<logginginfo>
							<description />
							<scene />
							<shottake />
							<lognote />
							<good />
							<originalvideofilename />
							<originalaudiofilename />
						</logginginfo>
						<colorinfo>
							<lut />
							<lut1 />
							<asc_sop />
							<asc_sat />
							<lut2 />
						</colorinfo>
					<labels><label2>Caribbean</label2></labels></clipitem>
					<clipitem id="clipitem-87">
						<masterclipid>clipitem-3-467</masterclipid>
						<name>Taylor_Swift_Travis_Kelce_-_The_New_Power_Couple.mp4</name>
						<enabled>TRUE</enabled>
						<duration>150</duration>
						<rate>
							<timebase>25</timebase>
							<ntsc>FALSE</ntsc>
						</rate>
						<start>139200</start>
						<end>139350</end>
						<in>69900</in>
						<out>70050</out>
						<pproTicksIn>0</pproTicksIn>
						<pproTicksOut>875013995520000</pproTicksOut>
						<alphatype>none</alphatype>
						<pixelaspectratio>square</pixelaspectratio>
						<anamorphic>FALSE</anamorphic>
						<file id="file-31">
							<name>Taylor_Swift_Travis_Kelce_-_The_New_Power_Couple.mp4</name>
							<pathurl>file://localhost/Users/themalikano/Documents/VideoAutomation/premiere_videos/Taylor_Swift_Travis_Kelce_-_The_New_Power_Couple.mp4</pathurl>
							<rate>
								<timebase>25</timebase>
								<ntsc>FALSE</ntsc>
							</rate>
							<duration>86118</duration>
							<timecode>
								<rate>
									<timebase>25</timebase>
									<ntsc>FALSE</ntsc>
								</rate>
								<string>00:00:00:00</string>
								<frame>0</frame>
								<displayformat>NDF</displayformat>
							</timecode>
							<media>
								<video>
									<samplecharacteristics>
										<rate>
											<timebase>25</timebase>
											<ntsc>FALSE</ntsc>
										</rate>
										<width>1920</width>
										<height>1080</height>
										<anamorphic>FALSE</anamorphic>
										<pixelaspectratio>square</pixelaspectratio>
										<fielddominance>none</fielddominance>
									</samplecharacteristics>
								</video>
								<audio>
									<samplecharacteristics>
										<depth>16</depth>
										<samplerate>44100</samplerate>
									</samplecharacteristics>
									<channelcount>2</channelcount>
								</audio>
							</media>
						</file>
						<link>
							<linkclipref>clipitem-87</linkclipref>
							<mediatype>video</mediatype>
							<trackindex>1</trackindex>
							<clipindex>3</clipindex>
						</link>
						<link>
							<linkclipref>clipitem-95</linkclipref>
							<mediatype>audio</mediatype>
							<trackindex>1</trackindex>
							<clipindex>3</clipindex>
							<groupindex>1</groupindex>
						</link>
						<link>
							<linkclipref>clipitem-103</linkclipref>
							<mediatype>audio</mediatype>
							<trackindex>2</trackindex>
							<clipindex>3</clipindex>
							<groupindex>1</groupindex>
						</link>
						<logginginfo>
							<description />
							<scene />
							<shottake />
							<lognote />
							<good />
							<originalvideofilename />
							<originalaudiofilename />
						</logginginfo>
						<colorinfo>
							<lut />
							<lut1 />
							<asc_sop />
							<asc_sat />
							<lut2 />
						</colorinfo>
					<labels><label2>Caribbean</label2></labels></clipitem>
					<clipitem id="clipitem-87">
						<masterclipid>clipitem-3-491</masterclipid>
						<name>Taylor_Swift_Travis_Kelce_-_The_New_Power_Couple.mp4</name>
						<enabled>TRUE</enabled>
						<duration>150</duration>
						<rate>
							<timebase>25</timebase>
							<ntsc>FALSE</ntsc>
						</rate>
						<start>139350</start>
						<end>139500</end>
						<in>73500</in>
						<out>73650</out>
						<pproTicksIn>0</pproTicksIn>
						<pproTicksOut>875013995520000</pproTicksOut>
						<alphatype>none</alphatype>
						<pixelaspectratio>square</pixelaspectratio>
						<anamorphic>FALSE</anamorphic>
						<file id="file-31">
							<name>Taylor_Swift_Travis_Kelce_-_The_New_Power_Couple.mp4</name>
							<pathurl>file://localhost/Users/themalikano/Documents/VideoAutomation/premiere_videos/Taylor_Swift_Travis_Kelce_-_The_New_Power_Couple.mp4</pathurl>
							<rate>
								<timebase>25</timebase>
								<ntsc>FALSE</ntsc>
							</rate>
							<duration>86118</duration>
							<timecode>
								<rate>
									<timebase>25</timebase>
									<ntsc>FALSE</ntsc>
								</rate>
								<string>00:00:00:00</string>
								<frame>0</frame>
								<displayformat>NDF</displayformat>
							</timecode>
							<media>
								<video>
									<samplecharacteristics>
										<rate>
											<timebase>25</timebase>
											<ntsc>FALSE</ntsc>
										</rate>
										<width>1920</width>
										<height>1080</height>
										<anamorphic>FALSE</anamorphic>
										<pixelaspectratio>square</pixelaspectratio>
										<fielddominance>none</fielddominance>
									</samplecharacteristics>
								</video>
								<audio>
									<samplecharacteristics>
										<depth>16</depth>
										<samplerate>44100</samplerate>
									</samplecharacteristics>
									<channelcount>2</channelcount>
								</audio>
							</media>
						</file>
						<link>
							<linkclipref>clipitem-87</linkclipref>
							<mediatype>video</mediatype>
							<trackindex>1</trackindex>
							<clipindex>3</clipindex>
						</link>
						<link>
							<linkclipref>clipitem-95</linkclipref>
							<mediatype>audio</mediatype>
							<trackindex>1</trackindex>
							<clipindex>3</clipindex>
							<groupindex>1</groupindex>
						</link>
						<link>
							<linkclipref>clipitem-103</linkclipref>
							<mediatype>audio</mediatype>
							<trackindex>2</trackindex>
							<clipindex>3</clipindex>
							<groupindex>1</groupindex>
						</link>
						<logginginfo>
							<description />
							<scene />
							<shottake />
							<lognote />
							<good />
							<originalvideofilename />
							<originalaudiofilename />
						</logginginfo>
						<colorinfo>
							<lut />
							<lut1 />
							<asc_sop />
							<asc_sat />
							<lut2 />
						</colorinfo>
					<labels><label2>Caribbean</label2></labels></clipitem>
					<clipitem id="clipitem-87">
						<masterclipid>clipitem-3-232</masterclipid>
						<name>Taylor_Swift_Travis_Kelce_-_The_New_Power_Couple.mp4</name>
						<enabled>TRUE</enabled>
						<duration>150</duration>
						<rate>
							<timebase>25</timebase>
							<ntsc>FALSE</ntsc>
						</rate>
						<start>139500</start>
						<end>139650</end>
						<in>34650</in>
						<out>34800</out>
						<pproTicksIn>0</pproTicksIn>
						<pproTicksOut>875013995520000</pproTicksOut>
						<alphatype>none</alphatype>
						<pixelaspectratio>square</pixelaspectratio>
						<anamorphic>FALSE</anamorphic>
						<file id="file-31">
							<name>Taylor_Swift_Travis_Kelce_-_The_New_Power_Couple.mp4</name>
							<pathurl>file://localhost/Users/themalikano/Documents/VideoAutomation/premiere_videos/Taylor_Swift_Travis_Kelce_-_The_New_Power_Couple.mp4</pathurl>
							<rate>
								<timebase>25</timebase>
								<ntsc>FALSE</ntsc>
							</rate>
							<duration>86118</duration>
							<timecode>
								<rate>
									<timebase>25</timebase>
									<ntsc>FALSE</ntsc>
								</rate>
								<string>00:00:00:00</string>
								<frame>0</frame>
								<displayformat>NDF</displayformat>
							</timecode>
							<media>
								<video>
									<samplecharacteristics>
										<rate>
											<timebase>25</timebase>
											<ntsc>FALSE</ntsc>
										</rate>
										<width>1920</width>
										<height>1080</height>
										<anamorphic>FALSE</anamorphic>
										<pixelaspectratio>square</pixelaspectratio>
										<fielddominance>none</fielddominance>
									</samplecharacteristics>
								</video>
								<audio>
									<samplecharacteristics>
										<depth>16</depth>
										<samplerate>44100</samplerate>
									</samplecharacteristics>
									<channelcount>2</channelcount>
								</audio>
							</media>
						</file>
						<link>
							<linkclipref>clipitem-87</linkclipref>
							<mediatype>video</mediatype>
							<trackindex>1</trackindex>
							<clipindex>3</clipindex>
						</link>
						<link>
							<linkclipref>clipitem-95</linkclipref>
							<mediatype>audio</mediatype>
							<trackindex>1</trackindex>
							<clipindex>3</clipindex>
							<groupindex>1</groupindex>
						</link>
						<link>
							<linkclipref>clipitem-103</linkclipref>
							<mediatype>audio</mediatype>
							<trackindex>2</trackindex>
							<clipindex>3</clipindex>
							<groupindex>1</groupindex>
						</link>
						<logginginfo>
							<description />
							<scene />
							<shottake />
							<lognote />
							<good />
							<originalvideofilename />
							<originalaudiofilename />
						</logginginfo>
						<colorinfo>
							<lut />
							<lut1 />
							<asc_sop />
							<asc_sat />
							<lut2 />
						</colorinfo>
					<labels><label2>Caribbean</label2></labels></clipitem>
					<clipitem id="clipitem-87">
						<masterclipid>clipitem-3-307</masterclipid>
						<name>Taylor_Swift_Travis_Kelce_-_The_New_Power_Couple.mp4</name>
						<enabled>TRUE</enabled>
						<duration>150</duration>
						<rate>
							<timebase>25</timebase>
							<ntsc>FALSE</ntsc>
						</rate>
						<start>139650</start>
						<end>139800</end>
						<in>45900</in>
						<out>46050</out>
						<pproTicksIn>0</pproTicksIn>
						<pproTicksOut>875013995520000</pproTicksOut>
						<alphatype>none</alphatype>
						<pixelaspectratio>square</pixelaspectratio>
						<anamorphic>FALSE</anamorphic>
						<file id="file-31">
							<name>Taylor_Swift_Travis_Kelce_-_The_New_Power_Couple.mp4</name>
							<pathurl>file://localhost/Users/themalikano/Documents/VideoAutomation/premiere_videos/Taylor_Swift_Travis_Kelce_-_The_New_Power_Couple.mp4</pathurl>
							<rate>
								<timebase>25</timebase>
								<ntsc>FALSE</ntsc>
							</rate>
							<duration>86118</duration>
							<timecode>
								<rate>
									<timebase>25</timebase>
									<ntsc>FALSE</ntsc>
								</rate>
								<string>00:00:00:00</string>
								<frame>0</frame>
								<displayformat>NDF</displayformat>
							</timecode>
							<media>
								<video>
									<samplecharacteristics>
										<rate>
											<timebase>25</timebase>
											<ntsc>FALSE</ntsc>
										</rate>
										<width>1920</width>
										<height>1080</height>
										<anamorphic>FALSE</anamorphic>
										<pixelaspectratio>square</pixelaspectratio>
										<fielddominance>none</fielddominance>
									</samplecharacteristics>
								</video>
								<audio>
									<samplecharacteristics>
										<depth>16</depth>
										<samplerate>44100</samplerate>
									</samplecharacteristics>
									<channelcount>2</channelcount>
								</audio>
							</media>
						</file>
						<link>
							<linkclipref>clipitem-87</linkclipref>
							<mediatype>video</mediatype>
							<trackindex>1</trackindex>
							<clipindex>3</clipindex>
						</link>
						<link>
							<linkclipref>clipitem-95</linkclipref>
							<mediatype>audio</mediatype>
							<trackindex>1</trackindex>
							<clipindex>3</clipindex>
							<groupindex>1</groupindex>
						</link>
						<link>
							<linkclipref>clipitem-103</linkclipref>
							<mediatype>audio</mediatype>
							<trackindex>2</trackindex>
							<clipindex>3</clipindex>
							<groupindex>1</groupindex>
						</link>
						<logginginfo>
							<description />
							<scene />
							<shottake />
							<lognote />
							<good />
							<originalvideofilename />
							<originalaudiofilename />
						</logginginfo>
						<colorinfo>
							<lut />
							<lut1 />
							<asc_sop />
							<asc_sat />
							<lut2 />
						</colorinfo>
					<labels><label2>Caribbean</label2></labels></clipitem>
					<clipitem id="clipitem-87">
						<masterclipid>clipitem-3-253</masterclipid>
						<name>Taylor_Swift_Travis_Kelce_-_The_New_Power_Couple.mp4</name>
						<enabled>TRUE</enabled>
						<duration>150</duration>
						<rate>
							<timebase>25</timebase>
							<ntsc>FALSE</ntsc>
						</rate>
						<start>139800</start>
						<end>139950</end>
						<in>37800</in>
						<out>37950</out>
						<pproTicksIn>0</pproTicksIn>
						<pproTicksOut>875013995520000</pproTicksOut>
						<alphatype>none</alphatype>
						<pixelaspectratio>square</pixelaspectratio>
						<anamorphic>FALSE</anamorphic>
						<file id="file-31">
							<name>Taylor_Swift_Travis_Kelce_-_The_New_Power_Couple.mp4</name>
							<pathurl>file://localhost/Users/themalikano/Documents/VideoAutomation/premiere_videos/Taylor_Swift_Travis_Kelce_-_The_New_Power_Couple.mp4</pathurl>
							<rate>
								<timebase>25</timebase>
								<ntsc>FALSE</ntsc>
							</rate>
							<duration>86118</duration>
							<timecode>
								<rate>
									<timebase>25</timebase>
									<ntsc>FALSE</ntsc>
								</rate>
								<string>00:00:00:00</string>
								<frame>0</frame>
								<displayformat>NDF</displayformat>
							</timecode>
							<media>
								<video>
									<samplecharacteristics>
										<rate>
											<timebase>25</timebase>
											<ntsc>FALSE</ntsc>
										</rate>
										<width>1920</width>
										<height>1080</height>
										<anamorphic>FALSE</anamorphic>
										<pixelaspectratio>square</pixelaspectratio>
										<fielddominance>none</fielddominance>
									</samplecharacteristics>
								</video>
								<audio>
									<samplecharacteristics>
										<depth>16</depth>
										<samplerate>44100</samplerate>
									</samplecharacteristics>
									<channelcount>2</channelcount>
								</audio>
							</media>
						</file>
						<link>
							<linkclipref>clipitem-87</linkclipref>
							<mediatype>video</mediatype>
							<trackindex>1</trackindex>
							<clipindex>3</clipindex>
						</link>
						<link>
							<linkclipref>clipitem-95</linkclipref>
							<mediatype>audio</mediatype>
							<trackindex>1</trackindex>
							<clipindex>3</clipindex>
							<groupindex>1</groupindex>
						</link>
						<link>
							<linkclipref>clipitem-103</linkclipref>
							<mediatype>audio</mediatype>
							<trackindex>2</trackindex>
							<clipindex>3</clipindex>
							<groupindex>1</groupindex>
						</link>
						<logginginfo>
							<description />
							<scene />
							<shottake />
							<lognote />
							<good />
							<originalvideofilename />
							<originalaudiofilename />
						</logginginfo>
						<colorinfo>
							<lut />
							<lut1 />
							<asc_sop />
							<asc_sat />
							<lut2 />
						</colorinfo>
					<labels><label2>Caribbean</label2></labels></clipitem>
					<clipitem id="clipitem-87">
						<masterclipid>clipitem-3-284</masterclipid>
						<name>Taylor_Swift_Travis_Kelce_-_The_New_Power_Couple.mp4</name>
						<enabled>TRUE</enabled>
						<duration>150</duration>
						<rate>
							<timebase>25</timebase>
							<ntsc>FALSE</ntsc>
						</rate>
						<start>139950</start>
						<end>140100</end>
						<in>42450</in>
						<out>42600</out>
						<pproTicksIn>0</pproTicksIn>
						<pproTicksOut>875013995520000</pproTicksOut>
						<alphatype>none</alphatype>
						<pixelaspectratio>square</pixelaspectratio>
						<anamorphic>FALSE</anamorphic>
						<file id="file-31">
							<name>Taylor_Swift_Travis_Kelce_-_The_New_Power_Couple.mp4</name>
							<pathurl>file://localhost/Users/themalikano/Documents/VideoAutomation/premiere_videos/Taylor_Swift_Travis_Kelce_-_The_New_Power_Couple.mp4</pathurl>
							<rate>
								<timebase>25</timebase>
								<ntsc>FALSE</ntsc>
							</rate>
							<duration>86118</duration>
							<timecode>
								<rate>
									<timebase>25</timebase>
									<ntsc>FALSE</ntsc>
								</rate>
								<string>00:00:00:00</string>
								<frame>0</frame>
								<displayformat>NDF</displayformat>
							</timecode>
							<media>
								<video>
									<samplecharacteristics>
										<rate>
											<timebase>25</timebase>
											<ntsc>FALSE</ntsc>
										</rate>
										<width>1920</width>
										<height>1080</height>
										<anamorphic>FALSE</anamorphic>
										<pixelaspectratio>square</pixelaspectratio>
										<fielddominance>none</fielddominance>
									</samplecharacteristics>
								</video>
								<audio>
									<samplecharacteristics>
										<depth>16</depth>
										<samplerate>44100</samplerate>
									</samplecharacteristics>
									<channelcount>2</channelcount>
								</audio>
							</media>
						</file>
						<link>
							<linkclipref>clipitem-87</linkclipref>
							<mediatype>video</mediatype>
							<trackindex>1</trackindex>
							<clipindex>3</clipindex>
						</link>
						<link>
							<linkclipref>clipitem-95</linkclipref>
							<mediatype>audio</mediatype>
							<trackindex>1</trackindex>
							<clipindex>3</clipindex>
							<groupindex>1</groupindex>
						</link>
						<link>
							<linkclipref>clipitem-103</linkclipref>
							<mediatype>audio</mediatype>
							<trackindex>2</trackindex>
							<clipindex>3</clipindex>
							<groupindex>1</groupindex>
						</link>
						<logginginfo>
							<description />
							<scene />
							<shottake />
							<lognote />
							<good />
							<originalvideofilename />
							<originalaudiofilename />
						</logginginfo>
						<colorinfo>
							<lut />
							<lut1 />
							<asc_sop />
							<asc_sat />
							<lut2 />
						</colorinfo>
					<labels><label2>Caribbean</label2></labels></clipitem>
					<clipitem id="clipitem-87">
						<masterclipid>clipitem-3-125</masterclipid>
						<name>Taylor_Swift_Travis_Kelce_-_The_New_Power_Couple.mp4</name>
						<enabled>TRUE</enabled>
						<duration>150</duration>
						<rate>
							<timebase>25</timebase>
							<ntsc>FALSE</ntsc>
						</rate>
						<start>140100</start>
						<end>140250</end>
						<in>18600</in>
						<out>18750</out>
						<pproTicksIn>0</pproTicksIn>
						<pproTicksOut>875013995520000</pproTicksOut>
						<alphatype>none</alphatype>
						<pixelaspectratio>square</pixelaspectratio>
						<anamorphic>FALSE</anamorphic>
						<file id="file-31">
							<name>Taylor_Swift_Travis_Kelce_-_The_New_Power_Couple.mp4</name>
							<pathurl>file://localhost/Users/themalikano/Documents/VideoAutomation/premiere_videos/Taylor_Swift_Travis_Kelce_-_The_New_Power_Couple.mp4</pathurl>
							<rate>
								<timebase>25</timebase>
								<ntsc>FALSE</ntsc>
							</rate>
							<duration>86118</duration>
							<timecode>
								<rate>
									<timebase>25</timebase>
									<ntsc>FALSE</ntsc>
								</rate>
								<string>00:00:00:00</string>
								<frame>0</frame>
								<displayformat>NDF</displayformat>
							</timecode>
							<media>
								<video>
									<samplecharacteristics>
										<rate>
											<timebase>25</timebase>
											<ntsc>FALSE</ntsc>
										</rate>
										<width>1920</width>
										<height>1080</height>
										<anamorphic>FALSE</anamorphic>
										<pixelaspectratio>square</pixelaspectratio>
										<fielddominance>none</fielddominance>
									</samplecharacteristics>
								</video>
								<audio>
									<samplecharacteristics>
										<depth>16</depth>
										<samplerate>44100</samplerate>
									</samplecharacteristics>
									<channelcount>2</channelcount>
								</audio>
							</media>
						</file>
						<link>
							<linkclipref>clipitem-87</linkclipref>
							<mediatype>video</mediatype>
							<trackindex>1</trackindex>
							<clipindex>3</clipindex>
						</link>
						<link>
							<linkclipref>clipitem-95</linkclipref>
							<mediatype>audio</mediatype>
							<trackindex>1</trackindex>
							<clipindex>3</clipindex>
							<groupindex>1</groupindex>
						</link>
						<link>
							<linkclipref>clipitem-103</linkclipref>
							<mediatype>audio</mediatype>
							<trackindex>2</trackindex>
							<clipindex>3</clipindex>
							<groupindex>1</groupindex>
						</link>
						<logginginfo>
							<description />
							<scene />
							<shottake />
							<lognote />
							<good />
							<originalvideofilename />
							<originalaudiofilename />
						</logginginfo>
						<colorinfo>
							<lut />
							<lut1 />
							<asc_sop />
							<asc_sat />
							<lut2 />
						</colorinfo>
					<labels><label2>Caribbean</label2></labels></clipitem>
					<clipitem id="clipitem-87">
						<masterclipid>clipitem-3-534</masterclipid>
						<name>Taylor_Swift_Travis_Kelce_-_The_New_Power_Couple.mp4</name>
						<enabled>TRUE</enabled>
						<duration>150</duration>
						<rate>
							<timebase>25</timebase>
							<ntsc>FALSE</ntsc>
						</rate>
						<start>140250</start>
						<end>140400</end>
						<in>79950</in>
						<out>80100</out>
						<pproTicksIn>0</pproTicksIn>
						<pproTicksOut>875013995520000</pproTicksOut>
						<alphatype>none</alphatype>
						<pixelaspectratio>square</pixelaspectratio>
						<anamorphic>FALSE</anamorphic>
						<file id="file-31">
							<name>Taylor_Swift_Travis_Kelce_-_The_New_Power_Couple.mp4</name>
							<pathurl>file://localhost/Users/themalikano/Documents/VideoAutomation/premiere_videos/Taylor_Swift_Travis_Kelce_-_The_New_Power_Couple.mp4</pathurl>
							<rate>
								<timebase>25</timebase>
								<ntsc>FALSE</ntsc>
							</rate>
							<duration>86118</duration>
							<timecode>
								<rate>
									<timebase>25</timebase>
									<ntsc>FALSE</ntsc>
								</rate>
								<string>00:00:00:00</string>
								<frame>0</frame>
								<displayformat>NDF</displayformat>
							</timecode>
							<media>
								<video>
									<samplecharacteristics>
										<rate>
											<timebase>25</timebase>
											<ntsc>FALSE</ntsc>
										</rate>
										<width>1920</width>
										<height>1080</height>
										<anamorphic>FALSE</anamorphic>
										<pixelaspectratio>square</pixelaspectratio>
										<fielddominance>none</fielddominance>
									</samplecharacteristics>
								</video>
								<audio>
									<samplecharacteristics>
										<depth>16</depth>
										<samplerate>44100</samplerate>
									</samplecharacteristics>
									<channelcount>2</channelcount>
								</audio>
							</media>
						</file>
						<link>
							<linkclipref>clipitem-87</linkclipref>
							<mediatype>video</mediatype>
							<trackindex>1</trackindex>
							<clipindex>3</clipindex>
						</link>
						<link>
							<linkclipref>clipitem-95</linkclipref>
							<mediatype>audio</mediatype>
							<trackindex>1</trackindex>
							<clipindex>3</clipindex>
							<groupindex>1</groupindex>
						</link>
						<link>
							<linkclipref>clipitem-103</linkclipref>
							<mediatype>audio</mediatype>
							<trackindex>2</trackindex>
							<clipindex>3</clipindex>
							<groupindex>1</groupindex>
						</link>
						<logginginfo>
							<description />
							<scene />
							<shottake />
							<lognote />
							<good />
							<originalvideofilename />
							<originalaudiofilename />
						</logginginfo>
						<colorinfo>
							<lut />
							<lut1 />
							<asc_sop />
							<asc_sat />
							<lut2 />
						</colorinfo>
					<labels><label2>Caribbean</label2></labels></clipitem>
					<clipitem id="clipitem-87">
						<masterclipid>clipitem-3-74</masterclipid>
						<name>Taylor_Swift_Travis_Kelce_-_The_New_Power_Couple.mp4</name>
						<enabled>TRUE</enabled>
						<duration>150</duration>
						<rate>
							<timebase>25</timebase>
							<ntsc>FALSE</ntsc>
						</rate>
						<start>140400</start>
						<end>140550</end>
						<in>10950</in>
						<out>11100</out>
						<pproTicksIn>0</pproTicksIn>
						<pproTicksOut>875013995520000</pproTicksOut>
						<alphatype>none</alphatype>
						<pixelaspectratio>square</pixelaspectratio>
						<anamorphic>FALSE</anamorphic>
						<file id="file-31">
							<name>Taylor_Swift_Travis_Kelce_-_The_New_Power_Couple.mp4</name>
							<pathurl>file://localhost/Users/themalikano/Documents/VideoAutomation/premiere_videos/Taylor_Swift_Travis_Kelce_-_The_New_Power_Couple.mp4</pathurl>
							<rate>
								<timebase>25</timebase>
								<ntsc>FALSE</ntsc>
							</rate>
							<duration>86118</duration>
							<timecode>
								<rate>
									<timebase>25</timebase>
									<ntsc>FALSE</ntsc>
								</rate>
								<string>00:00:00:00</string>
								<frame>0</frame>
								<displayformat>NDF</displayformat>
							</timecode>
							<media>
								<video>
									<samplecharacteristics>
										<rate>
											<timebase>25</timebase>
											<ntsc>FALSE</ntsc>
										</rate>
										<width>1920</width>
										<height>1080</height>
										<anamorphic>FALSE</anamorphic>
										<pixelaspectratio>square</pixelaspectratio>
										<fielddominance>none</fielddominance>
									</samplecharacteristics>
								</video>
								<audio>
									<samplecharacteristics>
										<depth>16</depth>
										<samplerate>44100</samplerate>
									</samplecharacteristics>
									<channelcount>2</channelcount>
								</audio>
							</media>
						</file>
						<link>
							<linkclipref>clipitem-87</linkclipref>
							<mediatype>video</mediatype>
							<trackindex>1</trackindex>
							<clipindex>3</clipindex>
						</link>
						<link>
							<linkclipref>clipitem-95</linkclipref>
							<mediatype>audio</mediatype>
							<trackindex>1</trackindex>
							<clipindex>3</clipindex>
							<groupindex>1</groupindex>
						</link>
						<link>
							<linkclipref>clipitem-103</linkclipref>
							<mediatype>audio</mediatype>
							<trackindex>2</trackindex>
							<clipindex>3</clipindex>
							<groupindex>1</groupindex>
						</link>
						<logginginfo>
							<description />
							<scene />
							<shottake />
							<lognote />
							<good />
							<originalvideofilename />
							<originalaudiofilename />
						</logginginfo>
						<colorinfo>
							<lut />
							<lut1 />
							<asc_sop />
							<asc_sat />
							<lut2 />
						</colorinfo>
					<labels><label2>Caribbean</label2></labels></clipitem>
					<clipitem id="clipitem-87">
						<masterclipid>clipitem-3-546</masterclipid>
						<name>Taylor_Swift_Travis_Kelce_-_The_New_Power_Couple.mp4</name>
						<enabled>TRUE</enabled>
						<duration>150</duration>
						<rate>
							<timebase>25</timebase>
							<ntsc>FALSE</ntsc>
						</rate>
						<start>140550</start>
						<end>140700</end>
						<in>81750</in>
						<out>81900</out>
						<pproTicksIn>0</pproTicksIn>
						<pproTicksOut>875013995520000</pproTicksOut>
						<alphatype>none</alphatype>
						<pixelaspectratio>square</pixelaspectratio>
						<anamorphic>FALSE</anamorphic>
						<file id="file-31">
							<name>Taylor_Swift_Travis_Kelce_-_The_New_Power_Couple.mp4</name>
							<pathurl>file://localhost/Users/themalikano/Documents/VideoAutomation/premiere_videos/Taylor_Swift_Travis_Kelce_-_The_New_Power_Couple.mp4</pathurl>
							<rate>
								<timebase>25</timebase>
								<ntsc>FALSE</ntsc>
							</rate>
							<duration>86118</duration>
							<timecode>
								<rate>
									<timebase>25</timebase>
									<ntsc>FALSE</ntsc>
								</rate>
								<string>00:00:00:00</string>
								<frame>0</frame>
								<displayformat>NDF</displayformat>
							</timecode>
							<media>
								<video>
									<samplecharacteristics>
										<rate>
											<timebase>25</timebase>
											<ntsc>FALSE</ntsc>
										</rate>
										<width>1920</width>
										<height>1080</height>
										<anamorphic>FALSE</anamorphic>
										<pixelaspectratio>square</pixelaspectratio>
										<fielddominance>none</fielddominance>
									</samplecharacteristics>
								</video>
								<audio>
									<samplecharacteristics>
										<depth>16</depth>
										<samplerate>44100</samplerate>
									</samplecharacteristics>
									<channelcount>2</channelcount>
								</audio>
							</media>
						</file>
						<link>
							<linkclipref>clipitem-87</linkclipref>
							<mediatype>video</mediatype>
							<trackindex>1</trackindex>
							<clipindex>3</clipindex>
						</link>
						<link>
							<linkclipref>clipitem-95</linkclipref>
							<mediatype>audio</mediatype>
							<trackindex>1</trackindex>
							<clipindex>3</clipindex>
							<groupindex>1</groupindex>
						</link>
						<link>
							<linkclipref>clipitem-103</linkclipref>
							<mediatype>audio</mediatype>
							<trackindex>2</trackindex>
							<clipindex>3</clipindex>
							<groupindex>1</groupindex>
						</link>
						<logginginfo>
							<description />
							<scene />
							<shottake />
							<lognote />
							<good />
							<originalvideofilename />
							<originalaudiofilename />
						</logginginfo>
						<colorinfo>
							<lut />
							<lut1 />
							<asc_sop />
							<asc_sat />
							<lut2 />
						</colorinfo>
					<labels><label2>Caribbean</label2></labels></clipitem>
					<clipitem id="clipitem-87">
						<masterclipid>clipitem-3-338</masterclipid>
						<name>Taylor_Swift_Travis_Kelce_-_The_New_Power_Couple.mp4</name>
						<enabled>TRUE</enabled>
						<duration>150</duration>
						<rate>
							<timebase>25</timebase>
							<ntsc>FALSE</ntsc>
						</rate>
						<start>140700</start>
						<end>140850</end>
						<in>50550</in>
						<out>50700</out>
						<pproTicksIn>0</pproTicksIn>
						<pproTicksOut>875013995520000</pproTicksOut>
						<alphatype>none</alphatype>
						<pixelaspectratio>square</pixelaspectratio>
						<anamorphic>FALSE</anamorphic>
						<file id="file-31">
							<name>Taylor_Swift_Travis_Kelce_-_The_New_Power_Couple.mp4</name>
							<pathurl>file://localhost/Users/themalikano/Documents/VideoAutomation/premiere_videos/Taylor_Swift_Travis_Kelce_-_The_New_Power_Couple.mp4</pathurl>
							<rate>
								<timebase>25</timebase>
								<ntsc>FALSE</ntsc>
							</rate>
							<duration>86118</duration>
							<timecode>
								<rate>
									<timebase>25</timebase>
									<ntsc>FALSE</ntsc>
								</rate>
								<string>00:00:00:00</string>
								<frame>0</frame>
								<displayformat>NDF</displayformat>
							</timecode>
							<media>
								<video>
									<samplecharacteristics>
										<rate>
											<timebase>25</timebase>
											<ntsc>FALSE</ntsc>
										</rate>
										<width>1920</width>
										<height>1080</height>
										<anamorphic>FALSE</anamorphic>
										<pixelaspectratio>square</pixelaspectratio>
										<fielddominance>none</fielddominance>
									</samplecharacteristics>
								</video>
								<audio>
									<samplecharacteristics>
										<depth>16</depth>
										<samplerate>44100</samplerate>
									</samplecharacteristics>
									<channelcount>2</channelcount>
								</audio>
							</media>
						</file>
						<link>
							<linkclipref>clipitem-87</linkclipref>
							<mediatype>video</mediatype>
							<trackindex>1</trackindex>
							<clipindex>3</clipindex>
						</link>
						<link>
							<linkclipref>clipitem-95</linkclipref>
							<mediatype>audio</mediatype>
							<trackindex>1</trackindex>
							<clipindex>3</clipindex>
							<groupindex>1</groupindex>
						</link>
						<link>
							<linkclipref>clipitem-103</linkclipref>
							<mediatype>audio</mediatype>
							<trackindex>2</trackindex>
							<clipindex>3</clipindex>
							<groupindex>1</groupindex>
						</link>
						<logginginfo>
							<description />
							<scene />
							<shottake />
							<lognote />
							<good />
							<originalvideofilename />
							<originalaudiofilename />
						</logginginfo>
						<colorinfo>
							<lut />
							<lut1 />
							<asc_sop />
							<asc_sat />
							<lut2 />
						</colorinfo>
					<labels><label2>Caribbean</label2></labels></clipitem>
					<clipitem id="clipitem-87">
						<masterclipid>clipitem-3-483</masterclipid>
						<name>Taylor_Swift_Travis_Kelce_-_The_New_Power_Couple.mp4</name>
						<enabled>TRUE</enabled>
						<duration>150</duration>
						<rate>
							<timebase>25</timebase>
							<ntsc>FALSE</ntsc>
						</rate>
						<start>140850</start>
						<end>141000</end>
						<in>72300</in>
						<out>72450</out>
						<pproTicksIn>0</pproTicksIn>
						<pproTicksOut>875013995520000</pproTicksOut>
						<alphatype>none</alphatype>
						<pixelaspectratio>square</pixelaspectratio>
						<anamorphic>FALSE</anamorphic>
						<file id="file-31">
							<name>Taylor_Swift_Travis_Kelce_-_The_New_Power_Couple.mp4</name>
							<pathurl>file://localhost/Users/themalikano/Documents/VideoAutomation/premiere_videos/Taylor_Swift_Travis_Kelce_-_The_New_Power_Couple.mp4</pathurl>
							<rate>
								<timebase>25</timebase>
								<ntsc>FALSE</ntsc>
							</rate>
							<duration>86118</duration>
							<timecode>
								<rate>
									<timebase>25</timebase>
									<ntsc>FALSE</ntsc>
								</rate>
								<string>00:00:00:00</string>
								<frame>0</frame>
								<displayformat>NDF</displayformat>
							</timecode>
							<media>
								<video>
									<samplecharacteristics>
										<rate>
											<timebase>25</timebase>
											<ntsc>FALSE</ntsc>
										</rate>
										<width>1920</width>
										<height>1080</height>
										<anamorphic>FALSE</anamorphic>
										<pixelaspectratio>square</pixelaspectratio>
										<fielddominance>none</fielddominance>
									</samplecharacteristics>
								</video>
								<audio>
									<samplecharacteristics>
										<depth>16</depth>
										<samplerate>44100</samplerate>
									</samplecharacteristics>
									<channelcount>2</channelcount>
								</audio>
							</media>
						</file>
						<link>
							<linkclipref>clipitem-87</linkclipref>
							<mediatype>video</mediatype>
							<trackindex>1</trackindex>
							<clipindex>3</clipindex>
						</link>
						<link>
							<linkclipref>clipitem-95</linkclipref>
							<mediatype>audio</mediatype>
							<trackindex>1</trackindex>
							<clipindex>3</clipindex>
							<groupindex>1</groupindex>
						</link>
						<link>
							<linkclipref>clipitem-103</linkclipref>
							<mediatype>audio</mediatype>
							<trackindex>2</trackindex>
							<clipindex>3</clipindex>
							<groupindex>1</groupindex>
						</link>
						<logginginfo>
							<description />
							<scene />
							<shottake />
							<lognote />
							<good />
							<originalvideofilename />
							<originalaudiofilename />
						</logginginfo>
						<colorinfo>
							<lut />
							<lut1 />
							<asc_sop />
							<asc_sat />
							<lut2 />
						</colorinfo>
					<labels><label2>Caribbean</label2></labels></clipitem>
					<clipitem id="clipitem-87">
						<masterclipid>clipitem-3-311</masterclipid>
						<name>Taylor_Swift_Travis_Kelce_-_The_New_Power_Couple.mp4</name>
						<enabled>TRUE</enabled>
						<duration>150</duration>
						<rate>
							<timebase>25</timebase>
							<ntsc>FALSE</ntsc>
						</rate>
						<start>141000</start>
						<end>141150</end>
						<in>46500</in>
						<out>46650</out>
						<pproTicksIn>0</pproTicksIn>
						<pproTicksOut>875013995520000</pproTicksOut>
						<alphatype>none</alphatype>
						<pixelaspectratio>square</pixelaspectratio>
						<anamorphic>FALSE</anamorphic>
						<file id="file-31">
							<name>Taylor_Swift_Travis_Kelce_-_The_New_Power_Couple.mp4</name>
							<pathurl>file://localhost/Users/themalikano/Documents/VideoAutomation/premiere_videos/Taylor_Swift_Travis_Kelce_-_The_New_Power_Couple.mp4</pathurl>
							<rate>
								<timebase>25</timebase>
								<ntsc>FALSE</ntsc>
							</rate>
							<duration>86118</duration>
							<timecode>
								<rate>
									<timebase>25</timebase>
									<ntsc>FALSE</ntsc>
								</rate>
								<string>00:00:00:00</string>
								<frame>0</frame>
								<displayformat>NDF</displayformat>
							</timecode>
							<media>
								<video>
									<samplecharacteristics>
										<rate>
											<timebase>25</timebase>
											<ntsc>FALSE</ntsc>
										</rate>
										<width>1920</width>
										<height>1080</height>
										<anamorphic>FALSE</anamorphic>
										<pixelaspectratio>square</pixelaspectratio>
										<fielddominance>none</fielddominance>
									</samplecharacteristics>
								</video>
								<audio>
									<samplecharacteristics>
										<depth>16</depth>
										<samplerate>44100</samplerate>
									</samplecharacteristics>
									<channelcount>2</channelcount>
								</audio>
							</media>
						</file>
						<link>
							<linkclipref>clipitem-87</linkclipref>
							<mediatype>video</mediatype>
							<trackindex>1</trackindex>
							<clipindex>3</clipindex>
						</link>
						<link>
							<linkclipref>clipitem-95</linkclipref>
							<mediatype>audio</mediatype>
							<trackindex>1</trackindex>
							<clipindex>3</clipindex>
							<groupindex>1</groupindex>
						</link>
						<link>
							<linkclipref>clipitem-103</linkclipref>
							<mediatype>audio</mediatype>
							<trackindex>2</trackindex>
							<clipindex>3</clipindex>
							<groupindex>1</groupindex>
						</link>
						<logginginfo>
							<description />
							<scene />
							<shottake />
							<lognote />
							<good />
							<originalvideofilename />
							<originalaudiofilename />
						</logginginfo>
						<colorinfo>
							<lut />
							<lut1 />
							<asc_sop />
							<asc_sat />
							<lut2 />
						</colorinfo>
					<labels><label2>Caribbean</label2></labels></clipitem>
					<clipitem id="clipitem-87">
						<masterclipid>clipitem-3-343</masterclipid>
						<name>Taylor_Swift_Travis_Kelce_-_The_New_Power_Couple.mp4</name>
						<enabled>TRUE</enabled>
						<duration>150</duration>
						<rate>
							<timebase>25</timebase>
							<ntsc>FALSE</ntsc>
						</rate>
						<start>141150</start>
						<end>141300</end>
						<in>51300</in>
						<out>51450</out>
						<pproTicksIn>0</pproTicksIn>
						<pproTicksOut>875013995520000</pproTicksOut>
						<alphatype>none</alphatype>
						<pixelaspectratio>square</pixelaspectratio>
						<anamorphic>FALSE</anamorphic>
						<file id="file-31">
							<name>Taylor_Swift_Travis_Kelce_-_The_New_Power_Couple.mp4</name>
							<pathurl>file://localhost/Users/themalikano/Documents/VideoAutomation/premiere_videos/Taylor_Swift_Travis_Kelce_-_The_New_Power_Couple.mp4</pathurl>
							<rate>
								<timebase>25</timebase>
								<ntsc>FALSE</ntsc>
							</rate>
							<duration>86118</duration>
							<timecode>
								<rate>
									<timebase>25</timebase>
									<ntsc>FALSE</ntsc>
								</rate>
								<string>00:00:00:00</string>
								<frame>0</frame>
								<displayformat>NDF</displayformat>
							</timecode>
							<media>
								<video>
									<samplecharacteristics>
										<rate>
											<timebase>25</timebase>
											<ntsc>FALSE</ntsc>
										</rate>
										<width>1920</width>
										<height>1080</height>
										<anamorphic>FALSE</anamorphic>
										<pixelaspectratio>square</pixelaspectratio>
										<fielddominance>none</fielddominance>
									</samplecharacteristics>
								</video>
								<audio>
									<samplecharacteristics>
										<depth>16</depth>
										<samplerate>44100</samplerate>
									</samplecharacteristics>
									<channelcount>2</channelcount>
								</audio>
							</media>
						</file>
						<link>
							<linkclipref>clipitem-87</linkclipref>
							<mediatype>video</mediatype>
							<trackindex>1</trackindex>
							<clipindex>3</clipindex>
						</link>
						<link>
							<linkclipref>clipitem-95</linkclipref>
							<mediatype>audio</mediatype>
							<trackindex>1</trackindex>
							<clipindex>3</clipindex>
							<groupindex>1</groupindex>
						</link>
						<link>
							<linkclipref>clipitem-103</linkclipref>
							<mediatype>audio</mediatype>
							<trackindex>2</trackindex>
							<clipindex>3</clipindex>
							<groupindex>1</groupindex>
						</link>
						<logginginfo>
							<description />
							<scene />
							<shottake />
							<lognote />
							<good />
							<originalvideofilename />
							<originalaudiofilename />
						</logginginfo>
						<colorinfo>
							<lut />
							<lut1 />
							<asc_sop />
							<asc_sat />
							<lut2 />
						</colorinfo>
					<labels><label2>Caribbean</label2></labels></clipitem>
					<clipitem id="clipitem-87">
						<masterclipid>clipitem-3-490</masterclipid>
						<name>Taylor_Swift_Travis_Kelce_-_The_New_Power_Couple.mp4</name>
						<enabled>TRUE</enabled>
						<duration>150</duration>
						<rate>
							<timebase>25</timebase>
							<ntsc>FALSE</ntsc>
						</rate>
						<start>141300</start>
						<end>141450</end>
						<in>73350</in>
						<out>73500</out>
						<pproTicksIn>0</pproTicksIn>
						<pproTicksOut>875013995520000</pproTicksOut>
						<alphatype>none</alphatype>
						<pixelaspectratio>square</pixelaspectratio>
						<anamorphic>FALSE</anamorphic>
						<file id="file-31">
							<name>Taylor_Swift_Travis_Kelce_-_The_New_Power_Couple.mp4</name>
							<pathurl>file://localhost/Users/themalikano/Documents/VideoAutomation/premiere_videos/Taylor_Swift_Travis_Kelce_-_The_New_Power_Couple.mp4</pathurl>
							<rate>
								<timebase>25</timebase>
								<ntsc>FALSE</ntsc>
							</rate>
							<duration>86118</duration>
							<timecode>
								<rate>
									<timebase>25</timebase>
									<ntsc>FALSE</ntsc>
								</rate>
								<string>00:00:00:00</string>
								<frame>0</frame>
								<displayformat>NDF</displayformat>
							</timecode>
							<media>
								<video>
									<samplecharacteristics>
										<rate>
											<timebase>25</timebase>
											<ntsc>FALSE</ntsc>
										</rate>
										<width>1920</width>
										<height>1080</height>
										<anamorphic>FALSE</anamorphic>
										<pixelaspectratio>square</pixelaspectratio>
										<fielddominance>none</fielddominance>
									</samplecharacteristics>
								</video>
								<audio>
									<samplecharacteristics>
										<depth>16</depth>
										<samplerate>44100</samplerate>
									</samplecharacteristics>
									<channelcount>2</channelcount>
								</audio>
							</media>
						</file>
						<link>
							<linkclipref>clipitem-87</linkclipref>
							<mediatype>video</mediatype>
							<trackindex>1</trackindex>
							<clipindex>3</clipindex>
						</link>
						<link>
							<linkclipref>clipitem-95</linkclipref>
							<mediatype>audio</mediatype>
							<trackindex>1</trackindex>
							<clipindex>3</clipindex>
							<groupindex>1</groupindex>
						</link>
						<link>
							<linkclipref>clipitem-103</linkclipref>
							<mediatype>audio</mediatype>
							<trackindex>2</trackindex>
							<clipindex>3</clipindex>
							<groupindex>1</groupindex>
						</link>
						<logginginfo>
							<description />
							<scene />
							<shottake />
							<lognote />
							<good />
							<originalvideofilename />
							<originalaudiofilename />
						</logginginfo>
						<colorinfo>
							<lut />
							<lut1 />
							<asc_sop />
							<asc_sat />
							<lut2 />
						</colorinfo>
					<labels><label2>Caribbean</label2></labels></clipitem>
					<clipitem id="clipitem-87">
						<masterclipid>clipitem-3-15</masterclipid>
						<name>Taylor_Swift_Travis_Kelce_-_The_New_Power_Couple.mp4</name>
						<enabled>TRUE</enabled>
						<duration>150</duration>
						<rate>
							<timebase>25</timebase>
							<ntsc>FALSE</ntsc>
						</rate>
						<start>141450</start>
						<end>141600</end>
						<in>2100</in>
						<out>2250</out>
						<pproTicksIn>0</pproTicksIn>
						<pproTicksOut>875013995520000</pproTicksOut>
						<alphatype>none</alphatype>
						<pixelaspectratio>square</pixelaspectratio>
						<anamorphic>FALSE</anamorphic>
						<file id="file-31">
							<name>Taylor_Swift_Travis_Kelce_-_The_New_Power_Couple.mp4</name>
							<pathurl>file://localhost/Users/themalikano/Documents/VideoAutomation/premiere_videos/Taylor_Swift_Travis_Kelce_-_The_New_Power_Couple.mp4</pathurl>
							<rate>
								<timebase>25</timebase>
								<ntsc>FALSE</ntsc>
							</rate>
							<duration>86118</duration>
							<timecode>
								<rate>
									<timebase>25</timebase>
									<ntsc>FALSE</ntsc>
								</rate>
								<string>00:00:00:00</string>
								<frame>0</frame>
								<displayformat>NDF</displayformat>
							</timecode>
							<media>
								<video>
									<samplecharacteristics>
										<rate>
											<timebase>25</timebase>
											<ntsc>FALSE</ntsc>
										</rate>
										<width>1920</width>
										<height>1080</height>
										<anamorphic>FALSE</anamorphic>
										<pixelaspectratio>square</pixelaspectratio>
										<fielddominance>none</fielddominance>
									</samplecharacteristics>
								</video>
								<audio>
									<samplecharacteristics>
										<depth>16</depth>
										<samplerate>44100</samplerate>
									</samplecharacteristics>
									<channelcount>2</channelcount>
								</audio>
							</media>
						</file>
						<link>
							<linkclipref>clipitem-87</linkclipref>
							<mediatype>video</mediatype>
							<trackindex>1</trackindex>
							<clipindex>3</clipindex>
						</link>
						<link>
							<linkclipref>clipitem-95</linkclipref>
							<mediatype>audio</mediatype>
							<trackindex>1</trackindex>
							<clipindex>3</clipindex>
							<groupindex>1</groupindex>
						</link>
						<link>
							<linkclipref>clipitem-103</linkclipref>
							<mediatype>audio</mediatype>
							<trackindex>2</trackindex>
							<clipindex>3</clipindex>
							<groupindex>1</groupindex>
						</link>
						<logginginfo>
							<description />
							<scene />
							<shottake />
							<lognote />
							<good />
							<originalvideofilename />
							<originalaudiofilename />
						</logginginfo>
						<colorinfo>
							<lut />
							<lut1 />
							<asc_sop />
							<asc_sat />
							<lut2 />
						</colorinfo>
					<labels><label2>Caribbean</label2></labels></clipitem>
					<clipitem id="clipitem-87">
						<masterclipid>clipitem-3-317</masterclipid>
						<name>Taylor_Swift_Travis_Kelce_-_The_New_Power_Couple.mp4</name>
						<enabled>TRUE</enabled>
						<duration>150</duration>
						<rate>
							<timebase>25</timebase>
							<ntsc>FALSE</ntsc>
						</rate>
						<start>141600</start>
						<end>141750</end>
						<in>47400</in>
						<out>47550</out>
						<pproTicksIn>0</pproTicksIn>
						<pproTicksOut>875013995520000</pproTicksOut>
						<alphatype>none</alphatype>
						<pixelaspectratio>square</pixelaspectratio>
						<anamorphic>FALSE</anamorphic>
						<file id="file-31">
							<name>Taylor_Swift_Travis_Kelce_-_The_New_Power_Couple.mp4</name>
							<pathurl>file://localhost/Users/themalikano/Documents/VideoAutomation/premiere_videos/Taylor_Swift_Travis_Kelce_-_The_New_Power_Couple.mp4</pathurl>
							<rate>
								<timebase>25</timebase>
								<ntsc>FALSE</ntsc>
							</rate>
							<duration>86118</duration>
							<timecode>
								<rate>
									<timebase>25</timebase>
									<ntsc>FALSE</ntsc>
								</rate>
								<string>00:00:00:00</string>
								<frame>0</frame>
								<displayformat>NDF</displayformat>
							</timecode>
							<media>
								<video>
									<samplecharacteristics>
										<rate>
											<timebase>25</timebase>
											<ntsc>FALSE</ntsc>
										</rate>
										<width>1920</width>
										<height>1080</height>
										<anamorphic>FALSE</anamorphic>
										<pixelaspectratio>square</pixelaspectratio>
										<fielddominance>none</fielddominance>
									</samplecharacteristics>
								</video>
								<audio>
									<samplecharacteristics>
										<depth>16</depth>
										<samplerate>44100</samplerate>
									</samplecharacteristics>
									<channelcount>2</channelcount>
								</audio>
							</media>
						</file>
						<link>
							<linkclipref>clipitem-87</linkclipref>
							<mediatype>video</mediatype>
							<trackindex>1</trackindex>
							<clipindex>3</clipindex>
						</link>
						<link>
							<linkclipref>clipitem-95</linkclipref>
							<mediatype>audio</mediatype>
							<trackindex>1</trackindex>
							<clipindex>3</clipindex>
							<groupindex>1</groupindex>
						</link>
						<link>
							<linkclipref>clipitem-103</linkclipref>
							<mediatype>audio</mediatype>
							<trackindex>2</trackindex>
							<clipindex>3</clipindex>
							<groupindex>1</groupindex>
						</link>
						<logginginfo>
							<description />
							<scene />
							<shottake />
							<lognote />
							<good />
							<originalvideofilename />
							<originalaudiofilename />
						</logginginfo>
						<colorinfo>
							<lut />
							<lut1 />
							<asc_sop />
							<asc_sat />
							<lut2 />
						</colorinfo>
					<labels><label2>Caribbean</label2></labels></clipitem>
					<clipitem id="clipitem-87">
						<masterclipid>clipitem-3-314</masterclipid>
						<name>Taylor_Swift_Travis_Kelce_-_The_New_Power_Couple.mp4</name>
						<enabled>TRUE</enabled>
						<duration>150</duration>
						<rate>
							<timebase>25</timebase>
							<ntsc>FALSE</ntsc>
						</rate>
						<start>141750</start>
						<end>141900</end>
						<in>46950</in>
						<out>47100</out>
						<pproTicksIn>0</pproTicksIn>
						<pproTicksOut>875013995520000</pproTicksOut>
						<alphatype>none</alphatype>
						<pixelaspectratio>square</pixelaspectratio>
						<anamorphic>FALSE</anamorphic>
						<file id="file-31">
							<name>Taylor_Swift_Travis_Kelce_-_The_New_Power_Couple.mp4</name>
							<pathurl>file://localhost/Users/themalikano/Documents/VideoAutomation/premiere_videos/Taylor_Swift_Travis_Kelce_-_The_New_Power_Couple.mp4</pathurl>
							<rate>
								<timebase>25</timebase>
								<ntsc>FALSE</ntsc>
							</rate>
							<duration>86118</duration>
							<timecode>
								<rate>
									<timebase>25</timebase>
									<ntsc>FALSE</ntsc>
								</rate>
								<string>00:00:00:00</string>
								<frame>0</frame>
								<displayformat>NDF</displayformat>
							</timecode>
							<media>
								<video>
									<samplecharacteristics>
										<rate>
											<timebase>25</timebase>
											<ntsc>FALSE</ntsc>
										</rate>
										<width>1920</width>
										<height>1080</height>
										<anamorphic>FALSE</anamorphic>
										<pixelaspectratio>square</pixelaspectratio>
										<fielddominance>none</fielddominance>
									</samplecharacteristics>
								</video>
								<audio>
									<samplecharacteristics>
										<depth>16</depth>
										<samplerate>44100</samplerate>
									</samplecharacteristics>
									<channelcount>2</channelcount>
								</audio>
							</media>
						</file>
						<link>
							<linkclipref>clipitem-87</linkclipref>
							<mediatype>video</mediatype>
							<trackindex>1</trackindex>
							<clipindex>3</clipindex>
						</link>
						<link>
							<linkclipref>clipitem-95</linkclipref>
							<mediatype>audio</mediatype>
							<trackindex>1</trackindex>
							<clipindex>3</clipindex>
							<groupindex>1</groupindex>
						</link>
						<link>
							<linkclipref>clipitem-103</linkclipref>
							<mediatype>audio</mediatype>
							<trackindex>2</trackindex>
							<clipindex>3</clipindex>
							<groupindex>1</groupindex>
						</link>
						<logginginfo>
							<description />
							<scene />
							<shottake />
							<lognote />
							<good />
							<originalvideofilename />
							<originalaudiofilename />
						</logginginfo>
						<colorinfo>
							<lut />
							<lut1 />
							<asc_sop />
							<asc_sat />
							<lut2 />
						</colorinfo>
					<labels><label2>Caribbean</label2></labels></clipitem>
					<clipitem id="clipitem-87">
						<masterclipid>clipitem-3-217</masterclipid>
						<name>Taylor_Swift_Travis_Kelce_-_The_New_Power_Couple.mp4</name>
						<enabled>TRUE</enabled>
						<duration>150</duration>
						<rate>
							<timebase>25</timebase>
							<ntsc>FALSE</ntsc>
						</rate>
						<start>141900</start>
						<end>142050</end>
						<in>32400</in>
						<out>32550</out>
						<pproTicksIn>0</pproTicksIn>
						<pproTicksOut>875013995520000</pproTicksOut>
						<alphatype>none</alphatype>
						<pixelaspectratio>square</pixelaspectratio>
						<anamorphic>FALSE</anamorphic>
						<file id="file-31">
							<name>Taylor_Swift_Travis_Kelce_-_The_New_Power_Couple.mp4</name>
							<pathurl>file://localhost/Users/themalikano/Documents/VideoAutomation/premiere_videos/Taylor_Swift_Travis_Kelce_-_The_New_Power_Couple.mp4</pathurl>
							<rate>
								<timebase>25</timebase>
								<ntsc>FALSE</ntsc>
							</rate>
							<duration>86118</duration>
							<timecode>
								<rate>
									<timebase>25</timebase>
									<ntsc>FALSE</ntsc>
								</rate>
								<string>00:00:00:00</string>
								<frame>0</frame>
								<displayformat>NDF</displayformat>
							</timecode>
							<media>
								<video>
									<samplecharacteristics>
										<rate>
											<timebase>25</timebase>
											<ntsc>FALSE</ntsc>
										</rate>
										<width>1920</width>
										<height>1080</height>
										<anamorphic>FALSE</anamorphic>
										<pixelaspectratio>square</pixelaspectratio>
										<fielddominance>none</fielddominance>
									</samplecharacteristics>
								</video>
								<audio>
									<samplecharacteristics>
										<depth>16</depth>
										<samplerate>44100</samplerate>
									</samplecharacteristics>
									<channelcount>2</channelcount>
								</audio>
							</media>
						</file>
						<link>
							<linkclipref>clipitem-87</linkclipref>
							<mediatype>video</mediatype>
							<trackindex>1</trackindex>
							<clipindex>3</clipindex>
						</link>
						<link>
							<linkclipref>clipitem-95</linkclipref>
							<mediatype>audio</mediatype>
							<trackindex>1</trackindex>
							<clipindex>3</clipindex>
							<groupindex>1</groupindex>
						</link>
						<link>
							<linkclipref>clipitem-103</linkclipref>
							<mediatype>audio</mediatype>
							<trackindex>2</trackindex>
							<clipindex>3</clipindex>
							<groupindex>1</groupindex>
						</link>
						<logginginfo>
							<description />
							<scene />
							<shottake />
							<lognote />
							<good />
							<originalvideofilename />
							<originalaudiofilename />
						</logginginfo>
						<colorinfo>
							<lut />
							<lut1 />
							<asc_sop />
							<asc_sat />
							<lut2 />
						</colorinfo>
					<labels><label2>Caribbean</label2></labels></clipitem>
					<clipitem id="clipitem-87">
						<masterclipid>clipitem-3-128</masterclipid>
						<name>Taylor_Swift_Travis_Kelce_-_The_New_Power_Couple.mp4</name>
						<enabled>TRUE</enabled>
						<duration>150</duration>
						<rate>
							<timebase>25</timebase>
							<ntsc>FALSE</ntsc>
						</rate>
						<start>142050</start>
						<end>142200</end>
						<in>19050</in>
						<out>19200</out>
						<pproTicksIn>0</pproTicksIn>
						<pproTicksOut>875013995520000</pproTicksOut>
						<alphatype>none</alphatype>
						<pixelaspectratio>square</pixelaspectratio>
						<anamorphic>FALSE</anamorphic>
						<file id="file-31">
							<name>Taylor_Swift_Travis_Kelce_-_The_New_Power_Couple.mp4</name>
							<pathurl>file://localhost/Users/themalikano/Documents/VideoAutomation/premiere_videos/Taylor_Swift_Travis_Kelce_-_The_New_Power_Couple.mp4</pathurl>
							<rate>
								<timebase>25</timebase>
								<ntsc>FALSE</ntsc>
							</rate>
							<duration>86118</duration>
							<timecode>
								<rate>
									<timebase>25</timebase>
									<ntsc>FALSE</ntsc>
								</rate>
								<string>00:00:00:00</string>
								<frame>0</frame>
								<displayformat>NDF</displayformat>
							</timecode>
							<media>
								<video>
									<samplecharacteristics>
										<rate>
											<timebase>25</timebase>
											<ntsc>FALSE</ntsc>
										</rate>
										<width>1920</width>
										<height>1080</height>
										<anamorphic>FALSE</anamorphic>
										<pixelaspectratio>square</pixelaspectratio>
										<fielddominance>none</fielddominance>
									</samplecharacteristics>
								</video>
								<audio>
									<samplecharacteristics>
										<depth>16</depth>
										<samplerate>44100</samplerate>
									</samplecharacteristics>
									<channelcount>2</channelcount>
								</audio>
							</media>
						</file>
						<link>
							<linkclipref>clipitem-87</linkclipref>
							<mediatype>video</mediatype>
							<trackindex>1</trackindex>
							<clipindex>3</clipindex>
						</link>
						<link>
							<linkclipref>clipitem-95</linkclipref>
							<mediatype>audio</mediatype>
							<trackindex>1</trackindex>
							<clipindex>3</clipindex>
							<groupindex>1</groupindex>
						</link>
						<link>
							<linkclipref>clipitem-103</linkclipref>
							<mediatype>audio</mediatype>
							<trackindex>2</trackindex>
							<clipindex>3</clipindex>
							<groupindex>1</groupindex>
						</link>
						<logginginfo>
							<description />
							<scene />
							<shottake />
							<lognote />
							<good />
							<originalvideofilename />
							<originalaudiofilename />
						</logginginfo>
						<colorinfo>
							<lut />
							<lut1 />
							<asc_sop />
							<asc_sat />
							<lut2 />
						</colorinfo>
					<labels><label2>Caribbean</label2></labels></clipitem>
					<clipitem id="clipitem-87">
						<masterclipid>clipitem-3-347</masterclipid>
						<name>Taylor_Swift_Travis_Kelce_-_The_New_Power_Couple.mp4</name>
						<enabled>TRUE</enabled>
						<duration>150</duration>
						<rate>
							<timebase>25</timebase>
							<ntsc>FALSE</ntsc>
						</rate>
						<start>142200</start>
						<end>142350</end>
						<in>51900</in>
						<out>52050</out>
						<pproTicksIn>0</pproTicksIn>
						<pproTicksOut>875013995520000</pproTicksOut>
						<alphatype>none</alphatype>
						<pixelaspectratio>square</pixelaspectratio>
						<anamorphic>FALSE</anamorphic>
						<file id="file-31">
							<name>Taylor_Swift_Travis_Kelce_-_The_New_Power_Couple.mp4</name>
							<pathurl>file://localhost/Users/themalikano/Documents/VideoAutomation/premiere_videos/Taylor_Swift_Travis_Kelce_-_The_New_Power_Couple.mp4</pathurl>
							<rate>
								<timebase>25</timebase>
								<ntsc>FALSE</ntsc>
							</rate>
							<duration>86118</duration>
							<timecode>
								<rate>
									<timebase>25</timebase>
									<ntsc>FALSE</ntsc>
								</rate>
								<string>00:00:00:00</string>
								<frame>0</frame>
								<displayformat>NDF</displayformat>
							</timecode>
							<media>
								<video>
									<samplecharacteristics>
										<rate>
											<timebase>25</timebase>
											<ntsc>FALSE</ntsc>
										</rate>
										<width>1920</width>
										<height>1080</height>
										<anamorphic>FALSE</anamorphic>
										<pixelaspectratio>square</pixelaspectratio>
										<fielddominance>none</fielddominance>
									</samplecharacteristics>
								</video>
								<audio>
									<samplecharacteristics>
										<depth>16</depth>
										<samplerate>44100</samplerate>
									</samplecharacteristics>
									<channelcount>2</channelcount>
								</audio>
							</media>
						</file>
						<link>
							<linkclipref>clipitem-87</linkclipref>
							<mediatype>video</mediatype>
							<trackindex>1</trackindex>
							<clipindex>3</clipindex>
						</link>
						<link>
							<linkclipref>clipitem-95</linkclipref>
							<mediatype>audio</mediatype>
							<trackindex>1</trackindex>
							<clipindex>3</clipindex>
							<groupindex>1</groupindex>
						</link>
						<link>
							<linkclipref>clipitem-103</linkclipref>
							<mediatype>audio</mediatype>
							<trackindex>2</trackindex>
							<clipindex>3</clipindex>
							<groupindex>1</groupindex>
						</link>
						<logginginfo>
							<description />
							<scene />
							<shottake />
							<lognote />
							<good />
							<originalvideofilename />
							<originalaudiofilename />
						</logginginfo>
						<colorinfo>
							<lut />
							<lut1 />
							<asc_sop />
							<asc_sat />
							<lut2 />
						</colorinfo>
					<labels><label2>Caribbean</label2></labels></clipitem>
					<clipitem id="clipitem-87">
						<masterclipid>clipitem-3-38</masterclipid>
						<name>Taylor_Swift_Travis_Kelce_-_The_New_Power_Couple.mp4</name>
						<enabled>TRUE</enabled>
						<duration>150</duration>
						<rate>
							<timebase>25</timebase>
							<ntsc>FALSE</ntsc>
						</rate>
						<start>142350</start>
						<end>142500</end>
						<in>5550</in>
						<out>5700</out>
						<pproTicksIn>0</pproTicksIn>
						<pproTicksOut>875013995520000</pproTicksOut>
						<alphatype>none</alphatype>
						<pixelaspectratio>square</pixelaspectratio>
						<anamorphic>FALSE</anamorphic>
						<file id="file-31">
							<name>Taylor_Swift_Travis_Kelce_-_The_New_Power_Couple.mp4</name>
							<pathurl>file://localhost/Users/themalikano/Documents/VideoAutomation/premiere_videos/Taylor_Swift_Travis_Kelce_-_The_New_Power_Couple.mp4</pathurl>
							<rate>
								<timebase>25</timebase>
								<ntsc>FALSE</ntsc>
							</rate>
							<duration>86118</duration>
							<timecode>
								<rate>
									<timebase>25</timebase>
									<ntsc>FALSE</ntsc>
								</rate>
								<string>00:00:00:00</string>
								<frame>0</frame>
								<displayformat>NDF</displayformat>
							</timecode>
							<media>
								<video>
									<samplecharacteristics>
										<rate>
											<timebase>25</timebase>
											<ntsc>FALSE</ntsc>
										</rate>
										<width>1920</width>
										<height>1080</height>
										<anamorphic>FALSE</anamorphic>
										<pixelaspectratio>square</pixelaspectratio>
										<fielddominance>none</fielddominance>
									</samplecharacteristics>
								</video>
								<audio>
									<samplecharacteristics>
										<depth>16</depth>
										<samplerate>44100</samplerate>
									</samplecharacteristics>
									<channelcount>2</channelcount>
								</audio>
							</media>
						</file>
						<link>
							<linkclipref>clipitem-87</linkclipref>
							<mediatype>video</mediatype>
							<trackindex>1</trackindex>
							<clipindex>3</clipindex>
						</link>
						<link>
							<linkclipref>clipitem-95</linkclipref>
							<mediatype>audio</mediatype>
							<trackindex>1</trackindex>
							<clipindex>3</clipindex>
							<groupindex>1</groupindex>
						</link>
						<link>
							<linkclipref>clipitem-103</linkclipref>
							<mediatype>audio</mediatype>
							<trackindex>2</trackindex>
							<clipindex>3</clipindex>
							<groupindex>1</groupindex>
						</link>
						<logginginfo>
							<description />
							<scene />
							<shottake />
							<lognote />
							<good />
							<originalvideofilename />
							<originalaudiofilename />
						</logginginfo>
						<colorinfo>
							<lut />
							<lut1 />
							<asc_sop />
							<asc_sat />
							<lut2 />
						</colorinfo>
					<labels><label2>Caribbean</label2></labels></clipitem>
					<clipitem id="clipitem-87">
						<masterclipid>clipitem-3-420</masterclipid>
						<name>Taylor_Swift_Travis_Kelce_-_The_New_Power_Couple.mp4</name>
						<enabled>TRUE</enabled>
						<duration>150</duration>
						<rate>
							<timebase>25</timebase>
							<ntsc>FALSE</ntsc>
						</rate>
						<start>142500</start>
						<end>142650</end>
						<in>62850</in>
						<out>63000</out>
						<pproTicksIn>0</pproTicksIn>
						<pproTicksOut>875013995520000</pproTicksOut>
						<alphatype>none</alphatype>
						<pixelaspectratio>square</pixelaspectratio>
						<anamorphic>FALSE</anamorphic>
						<file id="file-31">
							<name>Taylor_Swift_Travis_Kelce_-_The_New_Power_Couple.mp4</name>
							<pathurl>file://localhost/Users/themalikano/Documents/VideoAutomation/premiere_videos/Taylor_Swift_Travis_Kelce_-_The_New_Power_Couple.mp4</pathurl>
							<rate>
								<timebase>25</timebase>
								<ntsc>FALSE</ntsc>
							</rate>
							<duration>86118</duration>
							<timecode>
								<rate>
									<timebase>25</timebase>
									<ntsc>FALSE</ntsc>
								</rate>
								<string>00:00:00:00</string>
								<frame>0</frame>
								<displayformat>NDF</displayformat>
							</timecode>
							<media>
								<video>
									<samplecharacteristics>
										<rate>
											<timebase>25</timebase>
											<ntsc>FALSE</ntsc>
										</rate>
										<width>1920</width>
										<height>1080</height>
										<anamorphic>FALSE</anamorphic>
										<pixelaspectratio>square</pixelaspectratio>
										<fielddominance>none</fielddominance>
									</samplecharacteristics>
								</video>
								<audio>
									<samplecharacteristics>
										<depth>16</depth>
										<samplerate>44100</samplerate>
									</samplecharacteristics>
									<channelcount>2</channelcount>
								</audio>
							</media>
						</file>
						<link>
							<linkclipref>clipitem-87</linkclipref>
							<mediatype>video</mediatype>
							<trackindex>1</trackindex>
							<clipindex>3</clipindex>
						</link>
						<link>
							<linkclipref>clipitem-95</linkclipref>
							<mediatype>audio</mediatype>
							<trackindex>1</trackindex>
							<clipindex>3</clipindex>
							<groupindex>1</groupindex>
						</link>
						<link>
							<linkclipref>clipitem-103</linkclipref>
							<mediatype>audio</mediatype>
							<trackindex>2</trackindex>
							<clipindex>3</clipindex>
							<groupindex>1</groupindex>
						</link>
						<logginginfo>
							<description />
							<scene />
							<shottake />
							<lognote />
							<good />
							<originalvideofilename />
							<originalaudiofilename />
						</logginginfo>
						<colorinfo>
							<lut />
							<lut1 />
							<asc_sop />
							<asc_sat />
							<lut2 />
						</colorinfo>
					<labels><label2>Caribbean</label2></labels></clipitem>
					<clipitem id="clipitem-87">
						<masterclipid>clipitem-3-159</masterclipid>
						<name>Taylor_Swift_Travis_Kelce_-_The_New_Power_Couple.mp4</name>
						<enabled>TRUE</enabled>
						<duration>150</duration>
						<rate>
							<timebase>25</timebase>
							<ntsc>FALSE</ntsc>
						</rate>
						<start>142650</start>
						<end>142800</end>
						<in>23700</in>
						<out>23850</out>
						<pproTicksIn>0</pproTicksIn>
						<pproTicksOut>875013995520000</pproTicksOut>
						<alphatype>none</alphatype>
						<pixelaspectratio>square</pixelaspectratio>
						<anamorphic>FALSE</anamorphic>
						<file id="file-31">
							<name>Taylor_Swift_Travis_Kelce_-_The_New_Power_Couple.mp4</name>
							<pathurl>file://localhost/Users/themalikano/Documents/VideoAutomation/premiere_videos/Taylor_Swift_Travis_Kelce_-_The_New_Power_Couple.mp4</pathurl>
							<rate>
								<timebase>25</timebase>
								<ntsc>FALSE</ntsc>
							</rate>
							<duration>86118</duration>
							<timecode>
								<rate>
									<timebase>25</timebase>
									<ntsc>FALSE</ntsc>
								</rate>
								<string>00:00:00:00</string>
								<frame>0</frame>
								<displayformat>NDF</displayformat>
							</timecode>
							<media>
								<video>
									<samplecharacteristics>
										<rate>
											<timebase>25</timebase>
											<ntsc>FALSE</ntsc>
										</rate>
										<width>1920</width>
										<height>1080</height>
										<anamorphic>FALSE</anamorphic>
										<pixelaspectratio>square</pixelaspectratio>
										<fielddominance>none</fielddominance>
									</samplecharacteristics>
								</video>
								<audio>
									<samplecharacteristics>
										<depth>16</depth>
										<samplerate>44100</samplerate>
									</samplecharacteristics>
									<channelcount>2</channelcount>
								</audio>
							</media>
						</file>
						<link>
							<linkclipref>clipitem-87</linkclipref>
							<mediatype>video</mediatype>
							<trackindex>1</trackindex>
							<clipindex>3</clipindex>
						</link>
						<link>
							<linkclipref>clipitem-95</linkclipref>
							<mediatype>audio</mediatype>
							<trackindex>1</trackindex>
							<clipindex>3</clipindex>
							<groupindex>1</groupindex>
						</link>
						<link>
							<linkclipref>clipitem-103</linkclipref>
							<mediatype>audio</mediatype>
							<trackindex>2</trackindex>
							<clipindex>3</clipindex>
							<groupindex>1</groupindex>
						</link>
						<logginginfo>
							<description />
							<scene />
							<shottake />
							<lognote />
							<good />
							<originalvideofilename />
							<originalaudiofilename />
						</logginginfo>
						<colorinfo>
							<lut />
							<lut1 />
							<asc_sop />
							<asc_sat />
							<lut2 />
						</colorinfo>
					<labels><label2>Caribbean</label2></labels></clipitem>
					<clipitem id="clipitem-87">
						<masterclipid>clipitem-3-415</masterclipid>
						<name>Taylor_Swift_Travis_Kelce_-_The_New_Power_Couple.mp4</name>
						<enabled>TRUE</enabled>
						<duration>150</duration>
						<rate>
							<timebase>25</timebase>
							<ntsc>FALSE</ntsc>
						</rate>
						<start>142800</start>
						<end>142950</end>
						<in>62100</in>
						<out>62250</out>
						<pproTicksIn>0</pproTicksIn>
						<pproTicksOut>875013995520000</pproTicksOut>
						<alphatype>none</alphatype>
						<pixelaspectratio>square</pixelaspectratio>
						<anamorphic>FALSE</anamorphic>
						<file id="file-31">
							<name>Taylor_Swift_Travis_Kelce_-_The_New_Power_Couple.mp4</name>
							<pathurl>file://localhost/Users/themalikano/Documents/VideoAutomation/premiere_videos/Taylor_Swift_Travis_Kelce_-_The_New_Power_Couple.mp4</pathurl>
							<rate>
								<timebase>25</timebase>
								<ntsc>FALSE</ntsc>
							</rate>
							<duration>86118</duration>
							<timecode>
								<rate>
									<timebase>25</timebase>
									<ntsc>FALSE</ntsc>
								</rate>
								<string>00:00:00:00</string>
								<frame>0</frame>
								<displayformat>NDF</displayformat>
							</timecode>
							<media>
								<video>
									<samplecharacteristics>
										<rate>
											<timebase>25</timebase>
											<ntsc>FALSE</ntsc>
										</rate>
										<width>1920</width>
										<height>1080</height>
										<anamorphic>FALSE</anamorphic>
										<pixelaspectratio>square</pixelaspectratio>
										<fielddominance>none</fielddominance>
									</samplecharacteristics>
								</video>
								<audio>
									<samplecharacteristics>
										<depth>16</depth>
										<samplerate>44100</samplerate>
									</samplecharacteristics>
									<channelcount>2</channelcount>
								</audio>
							</media>
						</file>
						<link>
							<linkclipref>clipitem-87</linkclipref>
							<mediatype>video</mediatype>
							<trackindex>1</trackindex>
							<clipindex>3</clipindex>
						</link>
						<link>
							<linkclipref>clipitem-95</linkclipref>
							<mediatype>audio</mediatype>
							<trackindex>1</trackindex>
							<clipindex>3</clipindex>
							<groupindex>1</groupindex>
						</link>
						<link>
							<linkclipref>clipitem-103</linkclipref>
							<mediatype>audio</mediatype>
							<trackindex>2</trackindex>
							<clipindex>3</clipindex>
							<groupindex>1</groupindex>
						</link>
						<logginginfo>
							<description />
							<scene />
							<shottake />
							<lognote />
							<good />
							<originalvideofilename />
							<originalaudiofilename />
						</logginginfo>
						<colorinfo>
							<lut />
							<lut1 />
							<asc_sop />
							<asc_sat />
							<lut2 />
						</colorinfo>
					<labels><label2>Caribbean</label2></labels></clipitem>
					<clipitem id="clipitem-87">
						<masterclipid>clipitem-3-153</masterclipid>
						<name>Taylor_Swift_Travis_Kelce_-_The_New_Power_Couple.mp4</name>
						<enabled>TRUE</enabled>
						<duration>150</duration>
						<rate>
							<timebase>25</timebase>
							<ntsc>FALSE</ntsc>
						</rate>
						<start>142950</start>
						<end>143100</end>
						<in>22800</in>
						<out>22950</out>
						<pproTicksIn>0</pproTicksIn>
						<pproTicksOut>875013995520000</pproTicksOut>
						<alphatype>none</alphatype>
						<pixelaspectratio>square</pixelaspectratio>
						<anamorphic>FALSE</anamorphic>
						<file id="file-31">
							<name>Taylor_Swift_Travis_Kelce_-_The_New_Power_Couple.mp4</name>
							<pathurl>file://localhost/Users/themalikano/Documents/VideoAutomation/premiere_videos/Taylor_Swift_Travis_Kelce_-_The_New_Power_Couple.mp4</pathurl>
							<rate>
								<timebase>25</timebase>
								<ntsc>FALSE</ntsc>
							</rate>
							<duration>86118</duration>
							<timecode>
								<rate>
									<timebase>25</timebase>
									<ntsc>FALSE</ntsc>
								</rate>
								<string>00:00:00:00</string>
								<frame>0</frame>
								<displayformat>NDF</displayformat>
							</timecode>
							<media>
								<video>
									<samplecharacteristics>
										<rate>
											<timebase>25</timebase>
											<ntsc>FALSE</ntsc>
										</rate>
										<width>1920</width>
										<height>1080</height>
										<anamorphic>FALSE</anamorphic>
										<pixelaspectratio>square</pixelaspectratio>
										<fielddominance>none</fielddominance>
									</samplecharacteristics>
								</video>
								<audio>
									<samplecharacteristics>
										<depth>16</depth>
										<samplerate>44100</samplerate>
									</samplecharacteristics>
									<channelcount>2</channelcount>
								</audio>
							</media>
						</file>
						<link>
							<linkclipref>clipitem-87</linkclipref>
							<mediatype>video</mediatype>
							<trackindex>1</trackindex>
							<clipindex>3</clipindex>
						</link>
						<link>
							<linkclipref>clipitem-95</linkclipref>
							<mediatype>audio</mediatype>
							<trackindex>1</trackindex>
							<clipindex>3</clipindex>
							<groupindex>1</groupindex>
						</link>
						<link>
							<linkclipref>clipitem-103</linkclipref>
							<mediatype>audio</mediatype>
							<trackindex>2</trackindex>
							<clipindex>3</clipindex>
							<groupindex>1</groupindex>
						</link>
						<logginginfo>
							<description />
							<scene />
							<shottake />
							<lognote />
							<good />
							<originalvideofilename />
							<originalaudiofilename />
						</logginginfo>
						<colorinfo>
							<lut />
							<lut1 />
							<asc_sop />
							<asc_sat />
							<lut2 />
						</colorinfo>
					<labels><label2>Caribbean</label2></labels></clipitem>
					<clipitem id="clipitem-87">
						<masterclipid>clipitem-3-171</masterclipid>
						<name>Taylor_Swift_Travis_Kelce_-_The_New_Power_Couple.mp4</name>
						<enabled>TRUE</enabled>
						<duration>150</duration>
						<rate>
							<timebase>25</timebase>
							<ntsc>FALSE</ntsc>
						</rate>
						<start>143100</start>
						<end>143250</end>
						<in>25500</in>
						<out>25650</out>
						<pproTicksIn>0</pproTicksIn>
						<pproTicksOut>875013995520000</pproTicksOut>
						<alphatype>none</alphatype>
						<pixelaspectratio>square</pixelaspectratio>
						<anamorphic>FALSE</anamorphic>
						<file id="file-31">
							<name>Taylor_Swift_Travis_Kelce_-_The_New_Power_Couple.mp4</name>
							<pathurl>file://localhost/Users/themalikano/Documents/VideoAutomation/premiere_videos/Taylor_Swift_Travis_Kelce_-_The_New_Power_Couple.mp4</pathurl>
							<rate>
								<timebase>25</timebase>
								<ntsc>FALSE</ntsc>
							</rate>
							<duration>86118</duration>
							<timecode>
								<rate>
									<timebase>25</timebase>
									<ntsc>FALSE</ntsc>
								</rate>
								<string>00:00:00:00</string>
								<frame>0</frame>
								<displayformat>NDF</displayformat>
							</timecode>
							<media>
								<video>
									<samplecharacteristics>
										<rate>
											<timebase>25</timebase>
											<ntsc>FALSE</ntsc>
										</rate>
										<width>1920</width>
										<height>1080</height>
										<anamorphic>FALSE</anamorphic>
										<pixelaspectratio>square</pixelaspectratio>
										<fielddominance>none</fielddominance>
									</samplecharacteristics>
								</video>
								<audio>
									<samplecharacteristics>
										<depth>16</depth>
										<samplerate>44100</samplerate>
									</samplecharacteristics>
									<channelcount>2</channelcount>
								</audio>
							</media>
						</file>
						<link>
							<linkclipref>clipitem-87</linkclipref>
							<mediatype>video</mediatype>
							<trackindex>1</trackindex>
							<clipindex>3</clipindex>
						</link>
						<link>
							<linkclipref>clipitem-95</linkclipref>
							<mediatype>audio</mediatype>
							<trackindex>1</trackindex>
							<clipindex>3</clipindex>
							<groupindex>1</groupindex>
						</link>
						<link>
							<linkclipref>clipitem-103</linkclipref>
							<mediatype>audio</mediatype>
							<trackindex>2</trackindex>
							<clipindex>3</clipindex>
							<groupindex>1</groupindex>
						</link>
						<logginginfo>
							<description />
							<scene />
							<shottake />
							<lognote />
							<good />
							<originalvideofilename />
							<originalaudiofilename />
						</logginginfo>
						<colorinfo>
							<lut />
							<lut1 />
							<asc_sop />
							<asc_sat />
							<lut2 />
						</colorinfo>
					<labels><label2>Caribbean</label2></labels></clipitem>
					<clipitem id="clipitem-87">
						<masterclipid>clipitem-3-282</masterclipid>
						<name>Taylor_Swift_Travis_Kelce_-_The_New_Power_Couple.mp4</name>
						<enabled>TRUE</enabled>
						<duration>150</duration>
						<rate>
							<timebase>25</timebase>
							<ntsc>FALSE</ntsc>
						</rate>
						<start>143250</start>
						<end>143400</end>
						<in>42150</in>
						<out>42300</out>
						<pproTicksIn>0</pproTicksIn>
						<pproTicksOut>875013995520000</pproTicksOut>
						<alphatype>none</alphatype>
						<pixelaspectratio>square</pixelaspectratio>
						<anamorphic>FALSE</anamorphic>
						<file id="file-31">
							<name>Taylor_Swift_Travis_Kelce_-_The_New_Power_Couple.mp4</name>
							<pathurl>file://localhost/Users/themalikano/Documents/VideoAutomation/premiere_videos/Taylor_Swift_Travis_Kelce_-_The_New_Power_Couple.mp4</pathurl>
							<rate>
								<timebase>25</timebase>
								<ntsc>FALSE</ntsc>
							</rate>
							<duration>86118</duration>
							<timecode>
								<rate>
									<timebase>25</timebase>
									<ntsc>FALSE</ntsc>
								</rate>
								<string>00:00:00:00</string>
								<frame>0</frame>
								<displayformat>NDF</displayformat>
							</timecode>
							<media>
								<video>
									<samplecharacteristics>
										<rate>
											<timebase>25</timebase>
											<ntsc>FALSE</ntsc>
										</rate>
										<width>1920</width>
										<height>1080</height>
										<anamorphic>FALSE</anamorphic>
										<pixelaspectratio>square</pixelaspectratio>
										<fielddominance>none</fielddominance>
									</samplecharacteristics>
								</video>
								<audio>
									<samplecharacteristics>
										<depth>16</depth>
										<samplerate>44100</samplerate>
									</samplecharacteristics>
									<channelcount>2</channelcount>
								</audio>
							</media>
						</file>
						<link>
							<linkclipref>clipitem-87</linkclipref>
							<mediatype>video</mediatype>
							<trackindex>1</trackindex>
							<clipindex>3</clipindex>
						</link>
						<link>
							<linkclipref>clipitem-95</linkclipref>
							<mediatype>audio</mediatype>
							<trackindex>1</trackindex>
							<clipindex>3</clipindex>
							<groupindex>1</groupindex>
						</link>
						<link>
							<linkclipref>clipitem-103</linkclipref>
							<mediatype>audio</mediatype>
							<trackindex>2</trackindex>
							<clipindex>3</clipindex>
							<groupindex>1</groupindex>
						</link>
						<logginginfo>
							<description />
							<scene />
							<shottake />
							<lognote />
							<good />
							<originalvideofilename />
							<originalaudiofilename />
						</logginginfo>
						<colorinfo>
							<lut />
							<lut1 />
							<asc_sop />
							<asc_sat />
							<lut2 />
						</colorinfo>
					<labels><label2>Caribbean</label2></labels></clipitem>
					<clipitem id="clipitem-87">
						<masterclipid>clipitem-3-283</masterclipid>
						<name>Taylor_Swift_Travis_Kelce_-_The_New_Power_Couple.mp4</name>
						<enabled>TRUE</enabled>
						<duration>150</duration>
						<rate>
							<timebase>25</timebase>
							<ntsc>FALSE</ntsc>
						</rate>
						<start>143400</start>
						<end>143550</end>
						<in>42300</in>
						<out>42450</out>
						<pproTicksIn>0</pproTicksIn>
						<pproTicksOut>875013995520000</pproTicksOut>
						<alphatype>none</alphatype>
						<pixelaspectratio>square</pixelaspectratio>
						<anamorphic>FALSE</anamorphic>
						<file id="file-31">
							<name>Taylor_Swift_Travis_Kelce_-_The_New_Power_Couple.mp4</name>
							<pathurl>file://localhost/Users/themalikano/Documents/VideoAutomation/premiere_videos/Taylor_Swift_Travis_Kelce_-_The_New_Power_Couple.mp4</pathurl>
							<rate>
								<timebase>25</timebase>
								<ntsc>FALSE</ntsc>
							</rate>
							<duration>86118</duration>
							<timecode>
								<rate>
									<timebase>25</timebase>
									<ntsc>FALSE</ntsc>
								</rate>
								<string>00:00:00:00</string>
								<frame>0</frame>
								<displayformat>NDF</displayformat>
							</timecode>
							<media>
								<video>
									<samplecharacteristics>
										<rate>
											<timebase>25</timebase>
											<ntsc>FALSE</ntsc>
										</rate>
										<width>1920</width>
										<height>1080</height>
										<anamorphic>FALSE</anamorphic>
										<pixelaspectratio>square</pixelaspectratio>
										<fielddominance>none</fielddominance>
									</samplecharacteristics>
								</video>
								<audio>
									<samplecharacteristics>
										<depth>16</depth>
										<samplerate>44100</samplerate>
									</samplecharacteristics>
									<channelcount>2</channelcount>
								</audio>
							</media>
						</file>
						<link>
							<linkclipref>clipitem-87</linkclipref>
							<mediatype>video</mediatype>
							<trackindex>1</trackindex>
							<clipindex>3</clipindex>
						</link>
						<link>
							<linkclipref>clipitem-95</linkclipref>
							<mediatype>audio</mediatype>
							<trackindex>1</trackindex>
							<clipindex>3</clipindex>
							<groupindex>1</groupindex>
						</link>
						<link>
							<linkclipref>clipitem-103</linkclipref>
							<mediatype>audio</mediatype>
							<trackindex>2</trackindex>
							<clipindex>3</clipindex>
							<groupindex>1</groupindex>
						</link>
						<logginginfo>
							<description />
							<scene />
							<shottake />
							<lognote />
							<good />
							<originalvideofilename />
							<originalaudiofilename />
						</logginginfo>
						<colorinfo>
							<lut />
							<lut1 />
							<asc_sop />
							<asc_sat />
							<lut2 />
						</colorinfo>
					<labels><label2>Caribbean</label2></labels></clipitem>
					<clipitem id="clipitem-87">
						<masterclipid>clipitem-3-409</masterclipid>
						<name>Taylor_Swift_Travis_Kelce_-_The_New_Power_Couple.mp4</name>
						<enabled>TRUE</enabled>
						<duration>150</duration>
						<rate>
							<timebase>25</timebase>
							<ntsc>FALSE</ntsc>
						</rate>
						<start>143550</start>
						<end>143700</end>
						<in>61200</in>
						<out>61350</out>
						<pproTicksIn>0</pproTicksIn>
						<pproTicksOut>875013995520000</pproTicksOut>
						<alphatype>none</alphatype>
						<pixelaspectratio>square</pixelaspectratio>
						<anamorphic>FALSE</anamorphic>
						<file id="file-31">
							<name>Taylor_Swift_Travis_Kelce_-_The_New_Power_Couple.mp4</name>
							<pathurl>file://localhost/Users/themalikano/Documents/VideoAutomation/premiere_videos/Taylor_Swift_Travis_Kelce_-_The_New_Power_Couple.mp4</pathurl>
							<rate>
								<timebase>25</timebase>
								<ntsc>FALSE</ntsc>
							</rate>
							<duration>86118</duration>
							<timecode>
								<rate>
									<timebase>25</timebase>
									<ntsc>FALSE</ntsc>
								</rate>
								<string>00:00:00:00</string>
								<frame>0</frame>
								<displayformat>NDF</displayformat>
							</timecode>
							<media>
								<video>
									<samplecharacteristics>
										<rate>
											<timebase>25</timebase>
											<ntsc>FALSE</ntsc>
										</rate>
										<width>1920</width>
										<height>1080</height>
										<anamorphic>FALSE</anamorphic>
										<pixelaspectratio>square</pixelaspectratio>
										<fielddominance>none</fielddominance>
									</samplecharacteristics>
								</video>
								<audio>
									<samplecharacteristics>
										<depth>16</depth>
										<samplerate>44100</samplerate>
									</samplecharacteristics>
									<channelcount>2</channelcount>
								</audio>
							</media>
						</file>
						<link>
							<linkclipref>clipitem-87</linkclipref>
							<mediatype>video</mediatype>
							<trackindex>1</trackindex>
							<clipindex>3</clipindex>
						</link>
						<link>
							<linkclipref>clipitem-95</linkclipref>
							<mediatype>audio</mediatype>
							<trackindex>1</trackindex>
							<clipindex>3</clipindex>
							<groupindex>1</groupindex>
						</link>
						<link>
							<linkclipref>clipitem-103</linkclipref>
							<mediatype>audio</mediatype>
							<trackindex>2</trackindex>
							<clipindex>3</clipindex>
							<groupindex>1</groupindex>
						</link>
						<logginginfo>
							<description />
							<scene />
							<shottake />
							<lognote />
							<good />
							<originalvideofilename />
							<originalaudiofilename />
						</logginginfo>
						<colorinfo>
							<lut />
							<lut1 />
							<asc_sop />
							<asc_sat />
							<lut2 />
						</colorinfo>
					<labels><label2>Caribbean</label2></labels></clipitem>
					<clipitem id="clipitem-87">
						<masterclipid>clipitem-3-246</masterclipid>
						<name>Taylor_Swift_Travis_Kelce_-_The_New_Power_Couple.mp4</name>
						<enabled>TRUE</enabled>
						<duration>150</duration>
						<rate>
							<timebase>25</timebase>
							<ntsc>FALSE</ntsc>
						</rate>
						<start>143700</start>
						<end>143850</end>
						<in>36750</in>
						<out>36900</out>
						<pproTicksIn>0</pproTicksIn>
						<pproTicksOut>875013995520000</pproTicksOut>
						<alphatype>none</alphatype>
						<pixelaspectratio>square</pixelaspectratio>
						<anamorphic>FALSE</anamorphic>
						<file id="file-31">
							<name>Taylor_Swift_Travis_Kelce_-_The_New_Power_Couple.mp4</name>
							<pathurl>file://localhost/Users/themalikano/Documents/VideoAutomation/premiere_videos/Taylor_Swift_Travis_Kelce_-_The_New_Power_Couple.mp4</pathurl>
							<rate>
								<timebase>25</timebase>
								<ntsc>FALSE</ntsc>
							</rate>
							<duration>86118</duration>
							<timecode>
								<rate>
									<timebase>25</timebase>
									<ntsc>FALSE</ntsc>
								</rate>
								<string>00:00:00:00</string>
								<frame>0</frame>
								<displayformat>NDF</displayformat>
							</timecode>
							<media>
								<video>
									<samplecharacteristics>
										<rate>
											<timebase>25</timebase>
											<ntsc>FALSE</ntsc>
										</rate>
										<width>1920</width>
										<height>1080</height>
										<anamorphic>FALSE</anamorphic>
										<pixelaspectratio>square</pixelaspectratio>
										<fielddominance>none</fielddominance>
									</samplecharacteristics>
								</video>
								<audio>
									<samplecharacteristics>
										<depth>16</depth>
										<samplerate>44100</samplerate>
									</samplecharacteristics>
									<channelcount>2</channelcount>
								</audio>
							</media>
						</file>
						<link>
							<linkclipref>clipitem-87</linkclipref>
							<mediatype>video</mediatype>
							<trackindex>1</trackindex>
							<clipindex>3</clipindex>
						</link>
						<link>
							<linkclipref>clipitem-95</linkclipref>
							<mediatype>audio</mediatype>
							<trackindex>1</trackindex>
							<clipindex>3</clipindex>
							<groupindex>1</groupindex>
						</link>
						<link>
							<linkclipref>clipitem-103</linkclipref>
							<mediatype>audio</mediatype>
							<trackindex>2</trackindex>
							<clipindex>3</clipindex>
							<groupindex>1</groupindex>
						</link>
						<logginginfo>
							<description />
							<scene />
							<shottake />
							<lognote />
							<good />
							<originalvideofilename />
							<originalaudiofilename />
						</logginginfo>
						<colorinfo>
							<lut />
							<lut1 />
							<asc_sop />
							<asc_sat />
							<lut2 />
						</colorinfo>
					<labels><label2>Caribbean</label2></labels></clipitem>
					<clipitem id="clipitem-87">
						<masterclipid>clipitem-3-185</masterclipid>
						<name>Taylor_Swift_Travis_Kelce_-_The_New_Power_Couple.mp4</name>
						<enabled>TRUE</enabled>
						<duration>150</duration>
						<rate>
							<timebase>25</timebase>
							<ntsc>FALSE</ntsc>
						</rate>
						<start>143850</start>
						<end>144000</end>
						<in>27600</in>
						<out>27750</out>
						<pproTicksIn>0</pproTicksIn>
						<pproTicksOut>875013995520000</pproTicksOut>
						<alphatype>none</alphatype>
						<pixelaspectratio>square</pixelaspectratio>
						<anamorphic>FALSE</anamorphic>
						<file id="file-31">
							<name>Taylor_Swift_Travis_Kelce_-_The_New_Power_Couple.mp4</name>
							<pathurl>file://localhost/Users/themalikano/Documents/VideoAutomation/premiere_videos/Taylor_Swift_Travis_Kelce_-_The_New_Power_Couple.mp4</pathurl>
							<rate>
								<timebase>25</timebase>
								<ntsc>FALSE</ntsc>
							</rate>
							<duration>86118</duration>
							<timecode>
								<rate>
									<timebase>25</timebase>
									<ntsc>FALSE</ntsc>
								</rate>
								<string>00:00:00:00</string>
								<frame>0</frame>
								<displayformat>NDF</displayformat>
							</timecode>
							<media>
								<video>
									<samplecharacteristics>
										<rate>
											<timebase>25</timebase>
											<ntsc>FALSE</ntsc>
										</rate>
										<width>1920</width>
										<height>1080</height>
										<anamorphic>FALSE</anamorphic>
										<pixelaspectratio>square</pixelaspectratio>
										<fielddominance>none</fielddominance>
									</samplecharacteristics>
								</video>
								<audio>
									<samplecharacteristics>
										<depth>16</depth>
										<samplerate>44100</samplerate>
									</samplecharacteristics>
									<channelcount>2</channelcount>
								</audio>
							</media>
						</file>
						<link>
							<linkclipref>clipitem-87</linkclipref>
							<mediatype>video</mediatype>
							<trackindex>1</trackindex>
							<clipindex>3</clipindex>
						</link>
						<link>
							<linkclipref>clipitem-95</linkclipref>
							<mediatype>audio</mediatype>
							<trackindex>1</trackindex>
							<clipindex>3</clipindex>
							<groupindex>1</groupindex>
						</link>
						<link>
							<linkclipref>clipitem-103</linkclipref>
							<mediatype>audio</mediatype>
							<trackindex>2</trackindex>
							<clipindex>3</clipindex>
							<groupindex>1</groupindex>
						</link>
						<logginginfo>
							<description />
							<scene />
							<shottake />
							<lognote />
							<good />
							<originalvideofilename />
							<originalaudiofilename />
						</logginginfo>
						<colorinfo>
							<lut />
							<lut1 />
							<asc_sop />
							<asc_sat />
							<lut2 />
						</colorinfo>
					<labels><label2>Caribbean</label2></labels></clipitem>
					<clipitem id="clipitem-87">
						<masterclipid>clipitem-3-493</masterclipid>
						<name>Taylor_Swift_Travis_Kelce_-_The_New_Power_Couple.mp4</name>
						<enabled>TRUE</enabled>
						<duration>150</duration>
						<rate>
							<timebase>25</timebase>
							<ntsc>FALSE</ntsc>
						</rate>
						<start>144000</start>
						<end>144150</end>
						<in>73800</in>
						<out>73950</out>
						<pproTicksIn>0</pproTicksIn>
						<pproTicksOut>875013995520000</pproTicksOut>
						<alphatype>none</alphatype>
						<pixelaspectratio>square</pixelaspectratio>
						<anamorphic>FALSE</anamorphic>
						<file id="file-31">
							<name>Taylor_Swift_Travis_Kelce_-_The_New_Power_Couple.mp4</name>
							<pathurl>file://localhost/Users/themalikano/Documents/VideoAutomation/premiere_videos/Taylor_Swift_Travis_Kelce_-_The_New_Power_Couple.mp4</pathurl>
							<rate>
								<timebase>25</timebase>
								<ntsc>FALSE</ntsc>
							</rate>
							<duration>86118</duration>
							<timecode>
								<rate>
									<timebase>25</timebase>
									<ntsc>FALSE</ntsc>
								</rate>
								<string>00:00:00:00</string>
								<frame>0</frame>
								<displayformat>NDF</displayformat>
							</timecode>
							<media>
								<video>
									<samplecharacteristics>
										<rate>
											<timebase>25</timebase>
											<ntsc>FALSE</ntsc>
										</rate>
										<width>1920</width>
										<height>1080</height>
										<anamorphic>FALSE</anamorphic>
										<pixelaspectratio>square</pixelaspectratio>
										<fielddominance>none</fielddominance>
									</samplecharacteristics>
								</video>
								<audio>
									<samplecharacteristics>
										<depth>16</depth>
										<samplerate>44100</samplerate>
									</samplecharacteristics>
									<channelcount>2</channelcount>
								</audio>
							</media>
						</file>
						<link>
							<linkclipref>clipitem-87</linkclipref>
							<mediatype>video</mediatype>
							<trackindex>1</trackindex>
							<clipindex>3</clipindex>
						</link>
						<link>
							<linkclipref>clipitem-95</linkclipref>
							<mediatype>audio</mediatype>
							<trackindex>1</trackindex>
							<clipindex>3</clipindex>
							<groupindex>1</groupindex>
						</link>
						<link>
							<linkclipref>clipitem-103</linkclipref>
							<mediatype>audio</mediatype>
							<trackindex>2</trackindex>
							<clipindex>3</clipindex>
							<groupindex>1</groupindex>
						</link>
						<logginginfo>
							<description />
							<scene />
							<shottake />
							<lognote />
							<good />
							<originalvideofilename />
							<originalaudiofilename />
						</logginginfo>
						<colorinfo>
							<lut />
							<lut1 />
							<asc_sop />
							<asc_sat />
							<lut2 />
						</colorinfo>
					<labels><label2>Caribbean</label2></labels></clipitem>
					<clipitem id="clipitem-87">
						<masterclipid>clipitem-3-199</masterclipid>
						<name>Taylor_Swift_Travis_Kelce_-_The_New_Power_Couple.mp4</name>
						<enabled>TRUE</enabled>
						<duration>150</duration>
						<rate>
							<timebase>25</timebase>
							<ntsc>FALSE</ntsc>
						</rate>
						<start>144150</start>
						<end>144300</end>
						<in>29700</in>
						<out>29850</out>
						<pproTicksIn>0</pproTicksIn>
						<pproTicksOut>875013995520000</pproTicksOut>
						<alphatype>none</alphatype>
						<pixelaspectratio>square</pixelaspectratio>
						<anamorphic>FALSE</anamorphic>
						<file id="file-31">
							<name>Taylor_Swift_Travis_Kelce_-_The_New_Power_Couple.mp4</name>
							<pathurl>file://localhost/Users/themalikano/Documents/VideoAutomation/premiere_videos/Taylor_Swift_Travis_Kelce_-_The_New_Power_Couple.mp4</pathurl>
							<rate>
								<timebase>25</timebase>
								<ntsc>FALSE</ntsc>
							</rate>
							<duration>86118</duration>
							<timecode>
								<rate>
									<timebase>25</timebase>
									<ntsc>FALSE</ntsc>
								</rate>
								<string>00:00:00:00</string>
								<frame>0</frame>
								<displayformat>NDF</displayformat>
							</timecode>
							<media>
								<video>
									<samplecharacteristics>
										<rate>
											<timebase>25</timebase>
											<ntsc>FALSE</ntsc>
										</rate>
										<width>1920</width>
										<height>1080</height>
										<anamorphic>FALSE</anamorphic>
										<pixelaspectratio>square</pixelaspectratio>
										<fielddominance>none</fielddominance>
									</samplecharacteristics>
								</video>
								<audio>
									<samplecharacteristics>
										<depth>16</depth>
										<samplerate>44100</samplerate>
									</samplecharacteristics>
									<channelcount>2</channelcount>
								</audio>
							</media>
						</file>
						<link>
							<linkclipref>clipitem-87</linkclipref>
							<mediatype>video</mediatype>
							<trackindex>1</trackindex>
							<clipindex>3</clipindex>
						</link>
						<link>
							<linkclipref>clipitem-95</linkclipref>
							<mediatype>audio</mediatype>
							<trackindex>1</trackindex>
							<clipindex>3</clipindex>
							<groupindex>1</groupindex>
						</link>
						<link>
							<linkclipref>clipitem-103</linkclipref>
							<mediatype>audio</mediatype>
							<trackindex>2</trackindex>
							<clipindex>3</clipindex>
							<groupindex>1</groupindex>
						</link>
						<logginginfo>
							<description />
							<scene />
							<shottake />
							<lognote />
							<good />
							<originalvideofilename />
							<originalaudiofilename />
						</logginginfo>
						<colorinfo>
							<lut />
							<lut1 />
							<asc_sop />
							<asc_sat />
							<lut2 />
						</colorinfo>
					<labels><label2>Caribbean</label2></labels></clipitem>
					<clipitem id="clipitem-87">
						<masterclipid>clipitem-3-229</masterclipid>
						<name>Taylor_Swift_Travis_Kelce_-_The_New_Power_Couple.mp4</name>
						<enabled>TRUE</enabled>
						<duration>150</duration>
						<rate>
							<timebase>25</timebase>
							<ntsc>FALSE</ntsc>
						</rate>
						<start>144300</start>
						<end>144450</end>
						<in>34200</in>
						<out>34350</out>
						<pproTicksIn>0</pproTicksIn>
						<pproTicksOut>875013995520000</pproTicksOut>
						<alphatype>none</alphatype>
						<pixelaspectratio>square</pixelaspectratio>
						<anamorphic>FALSE</anamorphic>
						<file id="file-31">
							<name>Taylor_Swift_Travis_Kelce_-_The_New_Power_Couple.mp4</name>
							<pathurl>file://localhost/Users/themalikano/Documents/VideoAutomation/premiere_videos/Taylor_Swift_Travis_Kelce_-_The_New_Power_Couple.mp4</pathurl>
							<rate>
								<timebase>25</timebase>
								<ntsc>FALSE</ntsc>
							</rate>
							<duration>86118</duration>
							<timecode>
								<rate>
									<timebase>25</timebase>
									<ntsc>FALSE</ntsc>
								</rate>
								<string>00:00:00:00</string>
								<frame>0</frame>
								<displayformat>NDF</displayformat>
							</timecode>
							<media>
								<video>
									<samplecharacteristics>
										<rate>
											<timebase>25</timebase>
											<ntsc>FALSE</ntsc>
										</rate>
										<width>1920</width>
										<height>1080</height>
										<anamorphic>FALSE</anamorphic>
										<pixelaspectratio>square</pixelaspectratio>
										<fielddominance>none</fielddominance>
									</samplecharacteristics>
								</video>
								<audio>
									<samplecharacteristics>
										<depth>16</depth>
										<samplerate>44100</samplerate>
									</samplecharacteristics>
									<channelcount>2</channelcount>
								</audio>
							</media>
						</file>
						<link>
							<linkclipref>clipitem-87</linkclipref>
							<mediatype>video</mediatype>
							<trackindex>1</trackindex>
							<clipindex>3</clipindex>
						</link>
						<link>
							<linkclipref>clipitem-95</linkclipref>
							<mediatype>audio</mediatype>
							<trackindex>1</trackindex>
							<clipindex>3</clipindex>
							<groupindex>1</groupindex>
						</link>
						<link>
							<linkclipref>clipitem-103</linkclipref>
							<mediatype>audio</mediatype>
							<trackindex>2</trackindex>
							<clipindex>3</clipindex>
							<groupindex>1</groupindex>
						</link>
						<logginginfo>
							<description />
							<scene />
							<shottake />
							<lognote />
							<good />
							<originalvideofilename />
							<originalaudiofilename />
						</logginginfo>
						<colorinfo>
							<lut />
							<lut1 />
							<asc_sop />
							<asc_sat />
							<lut2 />
						</colorinfo>
					<labels><label2>Caribbean</label2></labels></clipitem>
					<clipitem id="clipitem-87">
						<masterclipid>clipitem-3-543</masterclipid>
						<name>Taylor_Swift_Travis_Kelce_-_The_New_Power_Couple.mp4</name>
						<enabled>TRUE</enabled>
						<duration>150</duration>
						<rate>
							<timebase>25</timebase>
							<ntsc>FALSE</ntsc>
						</rate>
						<start>144450</start>
						<end>144600</end>
						<in>81300</in>
						<out>81450</out>
						<pproTicksIn>0</pproTicksIn>
						<pproTicksOut>875013995520000</pproTicksOut>
						<alphatype>none</alphatype>
						<pixelaspectratio>square</pixelaspectratio>
						<anamorphic>FALSE</anamorphic>
						<file id="file-31">
							<name>Taylor_Swift_Travis_Kelce_-_The_New_Power_Couple.mp4</name>
							<pathurl>file://localhost/Users/themalikano/Documents/VideoAutomation/premiere_videos/Taylor_Swift_Travis_Kelce_-_The_New_Power_Couple.mp4</pathurl>
							<rate>
								<timebase>25</timebase>
								<ntsc>FALSE</ntsc>
							</rate>
							<duration>86118</duration>
							<timecode>
								<rate>
									<timebase>25</timebase>
									<ntsc>FALSE</ntsc>
								</rate>
								<string>00:00:00:00</string>
								<frame>0</frame>
								<displayformat>NDF</displayformat>
							</timecode>
							<media>
								<video>
									<samplecharacteristics>
										<rate>
											<timebase>25</timebase>
											<ntsc>FALSE</ntsc>
										</rate>
										<width>1920</width>
										<height>1080</height>
										<anamorphic>FALSE</anamorphic>
										<pixelaspectratio>square</pixelaspectratio>
										<fielddominance>none</fielddominance>
									</samplecharacteristics>
								</video>
								<audio>
									<samplecharacteristics>
										<depth>16</depth>
										<samplerate>44100</samplerate>
									</samplecharacteristics>
									<channelcount>2</channelcount>
								</audio>
							</media>
						</file>
						<link>
							<linkclipref>clipitem-87</linkclipref>
							<mediatype>video</mediatype>
							<trackindex>1</trackindex>
							<clipindex>3</clipindex>
						</link>
						<link>
							<linkclipref>clipitem-95</linkclipref>
							<mediatype>audio</mediatype>
							<trackindex>1</trackindex>
							<clipindex>3</clipindex>
							<groupindex>1</groupindex>
						</link>
						<link>
							<linkclipref>clipitem-103</linkclipref>
							<mediatype>audio</mediatype>
							<trackindex>2</trackindex>
							<clipindex>3</clipindex>
							<groupindex>1</groupindex>
						</link>
						<logginginfo>
							<description />
							<scene />
							<shottake />
							<lognote />
							<good />
							<originalvideofilename />
							<originalaudiofilename />
						</logginginfo>
						<colorinfo>
							<lut />
							<lut1 />
							<asc_sop />
							<asc_sat />
							<lut2 />
						</colorinfo>
					<labels><label2>Caribbean</label2></labels></clipitem>
					<clipitem id="clipitem-87">
						<masterclipid>clipitem-3-508</masterclipid>
						<name>Taylor_Swift_Travis_Kelce_-_The_New_Power_Couple.mp4</name>
						<enabled>TRUE</enabled>
						<duration>150</duration>
						<rate>
							<timebase>25</timebase>
							<ntsc>FALSE</ntsc>
						</rate>
						<start>144600</start>
						<end>144750</end>
						<in>76050</in>
						<out>76200</out>
						<pproTicksIn>0</pproTicksIn>
						<pproTicksOut>875013995520000</pproTicksOut>
						<alphatype>none</alphatype>
						<pixelaspectratio>square</pixelaspectratio>
						<anamorphic>FALSE</anamorphic>
						<file id="file-31">
							<name>Taylor_Swift_Travis_Kelce_-_The_New_Power_Couple.mp4</name>
							<pathurl>file://localhost/Users/themalikano/Documents/VideoAutomation/premiere_videos/Taylor_Swift_Travis_Kelce_-_The_New_Power_Couple.mp4</pathurl>
							<rate>
								<timebase>25</timebase>
								<ntsc>FALSE</ntsc>
							</rate>
							<duration>86118</duration>
							<timecode>
								<rate>
									<timebase>25</timebase>
									<ntsc>FALSE</ntsc>
								</rate>
								<string>00:00:00:00</string>
								<frame>0</frame>
								<displayformat>NDF</displayformat>
							</timecode>
							<media>
								<video>
									<samplecharacteristics>
										<rate>
											<timebase>25</timebase>
											<ntsc>FALSE</ntsc>
										</rate>
										<width>1920</width>
										<height>1080</height>
										<anamorphic>FALSE</anamorphic>
										<pixelaspectratio>square</pixelaspectratio>
										<fielddominance>none</fielddominance>
									</samplecharacteristics>
								</video>
								<audio>
									<samplecharacteristics>
										<depth>16</depth>
										<samplerate>44100</samplerate>
									</samplecharacteristics>
									<channelcount>2</channelcount>
								</audio>
							</media>
						</file>
						<link>
							<linkclipref>clipitem-87</linkclipref>
							<mediatype>video</mediatype>
							<trackindex>1</trackindex>
							<clipindex>3</clipindex>
						</link>
						<link>
							<linkclipref>clipitem-95</linkclipref>
							<mediatype>audio</mediatype>
							<trackindex>1</trackindex>
							<clipindex>3</clipindex>
							<groupindex>1</groupindex>
						</link>
						<link>
							<linkclipref>clipitem-103</linkclipref>
							<mediatype>audio</mediatype>
							<trackindex>2</trackindex>
							<clipindex>3</clipindex>
							<groupindex>1</groupindex>
						</link>
						<logginginfo>
							<description />
							<scene />
							<shottake />
							<lognote />
							<good />
							<originalvideofilename />
							<originalaudiofilename />
						</logginginfo>
						<colorinfo>
							<lut />
							<lut1 />
							<asc_sop />
							<asc_sat />
							<lut2 />
						</colorinfo>
					<labels><label2>Caribbean</label2></labels></clipitem>
					<clipitem id="clipitem-87">
						<masterclipid>clipitem-3-570</masterclipid>
						<name>Taylor_Swift_Travis_Kelce_-_The_New_Power_Couple.mp4</name>
						<enabled>TRUE</enabled>
						<duration>150</duration>
						<rate>
							<timebase>25</timebase>
							<ntsc>FALSE</ntsc>
						</rate>
						<start>144750</start>
						<end>144900</end>
						<in>85350</in>
						<out>85500</out>
						<pproTicksIn>0</pproTicksIn>
						<pproTicksOut>875013995520000</pproTicksOut>
						<alphatype>none</alphatype>
						<pixelaspectratio>square</pixelaspectratio>
						<anamorphic>FALSE</anamorphic>
						<file id="file-31">
							<name>Taylor_Swift_Travis_Kelce_-_The_New_Power_Couple.mp4</name>
							<pathurl>file://localhost/Users/themalikano/Documents/VideoAutomation/premiere_videos/Taylor_Swift_Travis_Kelce_-_The_New_Power_Couple.mp4</pathurl>
							<rate>
								<timebase>25</timebase>
								<ntsc>FALSE</ntsc>
							</rate>
							<duration>86118</duration>
							<timecode>
								<rate>
									<timebase>25</timebase>
									<ntsc>FALSE</ntsc>
								</rate>
								<string>00:00:00:00</string>
								<frame>0</frame>
								<displayformat>NDF</displayformat>
							</timecode>
							<media>
								<video>
									<samplecharacteristics>
										<rate>
											<timebase>25</timebase>
											<ntsc>FALSE</ntsc>
										</rate>
										<width>1920</width>
										<height>1080</height>
										<anamorphic>FALSE</anamorphic>
										<pixelaspectratio>square</pixelaspectratio>
										<fielddominance>none</fielddominance>
									</samplecharacteristics>
								</video>
								<audio>
									<samplecharacteristics>
										<depth>16</depth>
										<samplerate>44100</samplerate>
									</samplecharacteristics>
									<channelcount>2</channelcount>
								</audio>
							</media>
						</file>
						<link>
							<linkclipref>clipitem-87</linkclipref>
							<mediatype>video</mediatype>
							<trackindex>1</trackindex>
							<clipindex>3</clipindex>
						</link>
						<link>
							<linkclipref>clipitem-95</linkclipref>
							<mediatype>audio</mediatype>
							<trackindex>1</trackindex>
							<clipindex>3</clipindex>
							<groupindex>1</groupindex>
						</link>
						<link>
							<linkclipref>clipitem-103</linkclipref>
							<mediatype>audio</mediatype>
							<trackindex>2</trackindex>
							<clipindex>3</clipindex>
							<groupindex>1</groupindex>
						</link>
						<logginginfo>
							<description />
							<scene />
							<shottake />
							<lognote />
							<good />
							<originalvideofilename />
							<originalaudiofilename />
						</logginginfo>
						<colorinfo>
							<lut />
							<lut1 />
							<asc_sop />
							<asc_sat />
							<lut2 />
						</colorinfo>
					<labels><label2>Caribbean</label2></labels></clipitem>
					<clipitem id="clipitem-87">
						<masterclipid>clipitem-3-385</masterclipid>
						<name>Taylor_Swift_Travis_Kelce_-_The_New_Power_Couple.mp4</name>
						<enabled>TRUE</enabled>
						<duration>150</duration>
						<rate>
							<timebase>25</timebase>
							<ntsc>FALSE</ntsc>
						</rate>
						<start>144900</start>
						<end>145050</end>
						<in>57600</in>
						<out>57750</out>
						<pproTicksIn>0</pproTicksIn>
						<pproTicksOut>875013995520000</pproTicksOut>
						<alphatype>none</alphatype>
						<pixelaspectratio>square</pixelaspectratio>
						<anamorphic>FALSE</anamorphic>
						<file id="file-31">
							<name>Taylor_Swift_Travis_Kelce_-_The_New_Power_Couple.mp4</name>
							<pathurl>file://localhost/Users/themalikano/Documents/VideoAutomation/premiere_videos/Taylor_Swift_Travis_Kelce_-_The_New_Power_Couple.mp4</pathurl>
							<rate>
								<timebase>25</timebase>
								<ntsc>FALSE</ntsc>
							</rate>
							<duration>86118</duration>
							<timecode>
								<rate>
									<timebase>25</timebase>
									<ntsc>FALSE</ntsc>
								</rate>
								<string>00:00:00:00</string>
								<frame>0</frame>
								<displayformat>NDF</displayformat>
							</timecode>
							<media>
								<video>
									<samplecharacteristics>
										<rate>
											<timebase>25</timebase>
											<ntsc>FALSE</ntsc>
										</rate>
										<width>1920</width>
										<height>1080</height>
										<anamorphic>FALSE</anamorphic>
										<pixelaspectratio>square</pixelaspectratio>
										<fielddominance>none</fielddominance>
									</samplecharacteristics>
								</video>
								<audio>
									<samplecharacteristics>
										<depth>16</depth>
										<samplerate>44100</samplerate>
									</samplecharacteristics>
									<channelcount>2</channelcount>
								</audio>
							</media>
						</file>
						<link>
							<linkclipref>clipitem-87</linkclipref>
							<mediatype>video</mediatype>
							<trackindex>1</trackindex>
							<clipindex>3</clipindex>
						</link>
						<link>
							<linkclipref>clipitem-95</linkclipref>
							<mediatype>audio</mediatype>
							<trackindex>1</trackindex>
							<clipindex>3</clipindex>
							<groupindex>1</groupindex>
						</link>
						<link>
							<linkclipref>clipitem-103</linkclipref>
							<mediatype>audio</mediatype>
							<trackindex>2</trackindex>
							<clipindex>3</clipindex>
							<groupindex>1</groupindex>
						</link>
						<logginginfo>
							<description />
							<scene />
							<shottake />
							<lognote />
							<good />
							<originalvideofilename />
							<originalaudiofilename />
						</logginginfo>
						<colorinfo>
							<lut />
							<lut1 />
							<asc_sop />
							<asc_sat />
							<lut2 />
						</colorinfo>
					<labels><label2>Caribbean</label2></labels></clipitem>
					<clipitem id="clipitem-87">
						<masterclipid>clipitem-3-358</masterclipid>
						<name>Taylor_Swift_Travis_Kelce_-_The_New_Power_Couple.mp4</name>
						<enabled>TRUE</enabled>
						<duration>150</duration>
						<rate>
							<timebase>25</timebase>
							<ntsc>FALSE</ntsc>
						</rate>
						<start>145050</start>
						<end>145200</end>
						<in>53550</in>
						<out>53700</out>
						<pproTicksIn>0</pproTicksIn>
						<pproTicksOut>875013995520000</pproTicksOut>
						<alphatype>none</alphatype>
						<pixelaspectratio>square</pixelaspectratio>
						<anamorphic>FALSE</anamorphic>
						<file id="file-31">
							<name>Taylor_Swift_Travis_Kelce_-_The_New_Power_Couple.mp4</name>
							<pathurl>file://localhost/Users/themalikano/Documents/VideoAutomation/premiere_videos/Taylor_Swift_Travis_Kelce_-_The_New_Power_Couple.mp4</pathurl>
							<rate>
								<timebase>25</timebase>
								<ntsc>FALSE</ntsc>
							</rate>
							<duration>86118</duration>
							<timecode>
								<rate>
									<timebase>25</timebase>
									<ntsc>FALSE</ntsc>
								</rate>
								<string>00:00:00:00</string>
								<frame>0</frame>
								<displayformat>NDF</displayformat>
							</timecode>
							<media>
								<video>
									<samplecharacteristics>
										<rate>
											<timebase>25</timebase>
											<ntsc>FALSE</ntsc>
										</rate>
										<width>1920</width>
										<height>1080</height>
										<anamorphic>FALSE</anamorphic>
										<pixelaspectratio>square</pixelaspectratio>
										<fielddominance>none</fielddominance>
									</samplecharacteristics>
								</video>
								<audio>
									<samplecharacteristics>
										<depth>16</depth>
										<samplerate>44100</samplerate>
									</samplecharacteristics>
									<channelcount>2</channelcount>
								</audio>
							</media>
						</file>
						<link>
							<linkclipref>clipitem-87</linkclipref>
							<mediatype>video</mediatype>
							<trackindex>1</trackindex>
							<clipindex>3</clipindex>
						</link>
						<link>
							<linkclipref>clipitem-95</linkclipref>
							<mediatype>audio</mediatype>
							<trackindex>1</trackindex>
							<clipindex>3</clipindex>
							<groupindex>1</groupindex>
						</link>
						<link>
							<linkclipref>clipitem-103</linkclipref>
							<mediatype>audio</mediatype>
							<trackindex>2</trackindex>
							<clipindex>3</clipindex>
							<groupindex>1</groupindex>
						</link>
						<logginginfo>
							<description />
							<scene />
							<shottake />
							<lognote />
							<good />
							<originalvideofilename />
							<originalaudiofilename />
						</logginginfo>
						<colorinfo>
							<lut />
							<lut1 />
							<asc_sop />
							<asc_sat />
							<lut2 />
						</colorinfo>
					<labels><label2>Caribbean</label2></labels></clipitem>
					<clipitem id="clipitem-87">
						<masterclipid>clipitem-3-84</masterclipid>
						<name>Taylor_Swift_Travis_Kelce_-_The_New_Power_Couple.mp4</name>
						<enabled>TRUE</enabled>
						<duration>150</duration>
						<rate>
							<timebase>25</timebase>
							<ntsc>FALSE</ntsc>
						</rate>
						<start>145200</start>
						<end>145350</end>
						<in>12450</in>
						<out>12600</out>
						<pproTicksIn>0</pproTicksIn>
						<pproTicksOut>875013995520000</pproTicksOut>
						<alphatype>none</alphatype>
						<pixelaspectratio>square</pixelaspectratio>
						<anamorphic>FALSE</anamorphic>
						<file id="file-31">
							<name>Taylor_Swift_Travis_Kelce_-_The_New_Power_Couple.mp4</name>
							<pathurl>file://localhost/Users/themalikano/Documents/VideoAutomation/premiere_videos/Taylor_Swift_Travis_Kelce_-_The_New_Power_Couple.mp4</pathurl>
							<rate>
								<timebase>25</timebase>
								<ntsc>FALSE</ntsc>
							</rate>
							<duration>86118</duration>
							<timecode>
								<rate>
									<timebase>25</timebase>
									<ntsc>FALSE</ntsc>
								</rate>
								<string>00:00:00:00</string>
								<frame>0</frame>
								<displayformat>NDF</displayformat>
							</timecode>
							<media>
								<video>
									<samplecharacteristics>
										<rate>
											<timebase>25</timebase>
											<ntsc>FALSE</ntsc>
										</rate>
										<width>1920</width>
										<height>1080</height>
										<anamorphic>FALSE</anamorphic>
										<pixelaspectratio>square</pixelaspectratio>
										<fielddominance>none</fielddominance>
									</samplecharacteristics>
								</video>
								<audio>
									<samplecharacteristics>
										<depth>16</depth>
										<samplerate>44100</samplerate>
									</samplecharacteristics>
									<channelcount>2</channelcount>
								</audio>
							</media>
						</file>
						<link>
							<linkclipref>clipitem-87</linkclipref>
							<mediatype>video</mediatype>
							<trackindex>1</trackindex>
							<clipindex>3</clipindex>
						</link>
						<link>
							<linkclipref>clipitem-95</linkclipref>
							<mediatype>audio</mediatype>
							<trackindex>1</trackindex>
							<clipindex>3</clipindex>
							<groupindex>1</groupindex>
						</link>
						<link>
							<linkclipref>clipitem-103</linkclipref>
							<mediatype>audio</mediatype>
							<trackindex>2</trackindex>
							<clipindex>3</clipindex>
							<groupindex>1</groupindex>
						</link>
						<logginginfo>
							<description />
							<scene />
							<shottake />
							<lognote />
							<good />
							<originalvideofilename />
							<originalaudiofilename />
						</logginginfo>
						<colorinfo>
							<lut />
							<lut1 />
							<asc_sop />
							<asc_sat />
							<lut2 />
						</colorinfo>
					<labels><label2>Caribbean</label2></labels></clipitem>
					<clipitem id="clipitem-87">
						<masterclipid>clipitem-3-4</masterclipid>
						<name>Taylor_Swift_Travis_Kelce_-_The_New_Power_Couple.mp4</name>
						<enabled>TRUE</enabled>
						<duration>150</duration>
						<rate>
							<timebase>25</timebase>
							<ntsc>FALSE</ntsc>
						</rate>
						<start>145350</start>
						<end>145500</end>
						<in>450</in>
						<out>600</out>
						<pproTicksIn>0</pproTicksIn>
						<pproTicksOut>875013995520000</pproTicksOut>
						<alphatype>none</alphatype>
						<pixelaspectratio>square</pixelaspectratio>
						<anamorphic>FALSE</anamorphic>
						<file id="file-31">
							<name>Taylor_Swift_Travis_Kelce_-_The_New_Power_Couple.mp4</name>
							<pathurl>file://localhost/Users/themalikano/Documents/VideoAutomation/premiere_videos/Taylor_Swift_Travis_Kelce_-_The_New_Power_Couple.mp4</pathurl>
							<rate>
								<timebase>25</timebase>
								<ntsc>FALSE</ntsc>
							</rate>
							<duration>86118</duration>
							<timecode>
								<rate>
									<timebase>25</timebase>
									<ntsc>FALSE</ntsc>
								</rate>
								<string>00:00:00:00</string>
								<frame>0</frame>
								<displayformat>NDF</displayformat>
							</timecode>
							<media>
								<video>
									<samplecharacteristics>
										<rate>
											<timebase>25</timebase>
											<ntsc>FALSE</ntsc>
										</rate>
										<width>1920</width>
										<height>1080</height>
										<anamorphic>FALSE</anamorphic>
										<pixelaspectratio>square</pixelaspectratio>
										<fielddominance>none</fielddominance>
									</samplecharacteristics>
								</video>
								<audio>
									<samplecharacteristics>
										<depth>16</depth>
										<samplerate>44100</samplerate>
									</samplecharacteristics>
									<channelcount>2</channelcount>
								</audio>
							</media>
						</file>
						<link>
							<linkclipref>clipitem-87</linkclipref>
							<mediatype>video</mediatype>
							<trackindex>1</trackindex>
							<clipindex>3</clipindex>
						</link>
						<link>
							<linkclipref>clipitem-95</linkclipref>
							<mediatype>audio</mediatype>
							<trackindex>1</trackindex>
							<clipindex>3</clipindex>
							<groupindex>1</groupindex>
						</link>
						<link>
							<linkclipref>clipitem-103</linkclipref>
							<mediatype>audio</mediatype>
							<trackindex>2</trackindex>
							<clipindex>3</clipindex>
							<groupindex>1</groupindex>
						</link>
						<logginginfo>
							<description />
							<scene />
							<shottake />
							<lognote />
							<good />
							<originalvideofilename />
							<originalaudiofilename />
						</logginginfo>
						<colorinfo>
							<lut />
							<lut1 />
							<asc_sop />
							<asc_sat />
							<lut2 />
						</colorinfo>
					<labels><label2>Caribbean</label2></labels></clipitem>
					<clipitem id="clipitem-87">
						<masterclipid>clipitem-3-482</masterclipid>
						<name>Taylor_Swift_Travis_Kelce_-_The_New_Power_Couple.mp4</name>
						<enabled>TRUE</enabled>
						<duration>150</duration>
						<rate>
							<timebase>25</timebase>
							<ntsc>FALSE</ntsc>
						</rate>
						<start>145500</start>
						<end>145650</end>
						<in>72150</in>
						<out>72300</out>
						<pproTicksIn>0</pproTicksIn>
						<pproTicksOut>875013995520000</pproTicksOut>
						<alphatype>none</alphatype>
						<pixelaspectratio>square</pixelaspectratio>
						<anamorphic>FALSE</anamorphic>
						<file id="file-31">
							<name>Taylor_Swift_Travis_Kelce_-_The_New_Power_Couple.mp4</name>
							<pathurl>file://localhost/Users/themalikano/Documents/VideoAutomation/premiere_videos/Taylor_Swift_Travis_Kelce_-_The_New_Power_Couple.mp4</pathurl>
							<rate>
								<timebase>25</timebase>
								<ntsc>FALSE</ntsc>
							</rate>
							<duration>86118</duration>
							<timecode>
								<rate>
									<timebase>25</timebase>
									<ntsc>FALSE</ntsc>
								</rate>
								<string>00:00:00:00</string>
								<frame>0</frame>
								<displayformat>NDF</displayformat>
							</timecode>
							<media>
								<video>
									<samplecharacteristics>
										<rate>
											<timebase>25</timebase>
											<ntsc>FALSE</ntsc>
										</rate>
										<width>1920</width>
										<height>1080</height>
										<anamorphic>FALSE</anamorphic>
										<pixelaspectratio>square</pixelaspectratio>
										<fielddominance>none</fielddominance>
									</samplecharacteristics>
								</video>
								<audio>
									<samplecharacteristics>
										<depth>16</depth>
										<samplerate>44100</samplerate>
									</samplecharacteristics>
									<channelcount>2</channelcount>
								</audio>
							</media>
						</file>
						<link>
							<linkclipref>clipitem-87</linkclipref>
							<mediatype>video</mediatype>
							<trackindex>1</trackindex>
							<clipindex>3</clipindex>
						</link>
						<link>
							<linkclipref>clipitem-95</linkclipref>
							<mediatype>audio</mediatype>
							<trackindex>1</trackindex>
							<clipindex>3</clipindex>
							<groupindex>1</groupindex>
						</link>
						<link>
							<linkclipref>clipitem-103</linkclipref>
							<mediatype>audio</mediatype>
							<trackindex>2</trackindex>
							<clipindex>3</clipindex>
							<groupindex>1</groupindex>
						</link>
						<logginginfo>
							<description />
							<scene />
							<shottake />
							<lognote />
							<good />
							<originalvideofilename />
							<originalaudiofilename />
						</logginginfo>
						<colorinfo>
							<lut />
							<lut1 />
							<asc_sop />
							<asc_sat />
							<lut2 />
						</colorinfo>
					<labels><label2>Caribbean</label2></labels></clipitem>
					<clipitem id="clipitem-87">
						<masterclipid>clipitem-3-162</masterclipid>
						<name>Taylor_Swift_Travis_Kelce_-_The_New_Power_Couple.mp4</name>
						<enabled>TRUE</enabled>
						<duration>150</duration>
						<rate>
							<timebase>25</timebase>
							<ntsc>FALSE</ntsc>
						</rate>
						<start>145650</start>
						<end>145800</end>
						<in>24150</in>
						<out>24300</out>
						<pproTicksIn>0</pproTicksIn>
						<pproTicksOut>875013995520000</pproTicksOut>
						<alphatype>none</alphatype>
						<pixelaspectratio>square</pixelaspectratio>
						<anamorphic>FALSE</anamorphic>
						<file id="file-31">
							<name>Taylor_Swift_Travis_Kelce_-_The_New_Power_Couple.mp4</name>
							<pathurl>file://localhost/Users/themalikano/Documents/VideoAutomation/premiere_videos/Taylor_Swift_Travis_Kelce_-_The_New_Power_Couple.mp4</pathurl>
							<rate>
								<timebase>25</timebase>
								<ntsc>FALSE</ntsc>
							</rate>
							<duration>86118</duration>
							<timecode>
								<rate>
									<timebase>25</timebase>
									<ntsc>FALSE</ntsc>
								</rate>
								<string>00:00:00:00</string>
								<frame>0</frame>
								<displayformat>NDF</displayformat>
							</timecode>
							<media>
								<video>
									<samplecharacteristics>
										<rate>
											<timebase>25</timebase>
											<ntsc>FALSE</ntsc>
										</rate>
										<width>1920</width>
										<height>1080</height>
										<anamorphic>FALSE</anamorphic>
										<pixelaspectratio>square</pixelaspectratio>
										<fielddominance>none</fielddominance>
									</samplecharacteristics>
								</video>
								<audio>
									<samplecharacteristics>
										<depth>16</depth>
										<samplerate>44100</samplerate>
									</samplecharacteristics>
									<channelcount>2</channelcount>
								</audio>
							</media>
						</file>
						<link>
							<linkclipref>clipitem-87</linkclipref>
							<mediatype>video</mediatype>
							<trackindex>1</trackindex>
							<clipindex>3</clipindex>
						</link>
						<link>
							<linkclipref>clipitem-95</linkclipref>
							<mediatype>audio</mediatype>
							<trackindex>1</trackindex>
							<clipindex>3</clipindex>
							<groupindex>1</groupindex>
						</link>
						<link>
							<linkclipref>clipitem-103</linkclipref>
							<mediatype>audio</mediatype>
							<trackindex>2</trackindex>
							<clipindex>3</clipindex>
							<groupindex>1</groupindex>
						</link>
						<logginginfo>
							<description />
							<scene />
							<shottake />
							<lognote />
							<good />
							<originalvideofilename />
							<originalaudiofilename />
						</logginginfo>
						<colorinfo>
							<lut />
							<lut1 />
							<asc_sop />
							<asc_sat />
							<lut2 />
						</colorinfo>
					<labels><label2>Caribbean</label2></labels></clipitem>
					<clipitem id="clipitem-87">
						<masterclipid>clipitem-3-276</masterclipid>
						<name>Taylor_Swift_Travis_Kelce_-_The_New_Power_Couple.mp4</name>
						<enabled>TRUE</enabled>
						<duration>150</duration>
						<rate>
							<timebase>25</timebase>
							<ntsc>FALSE</ntsc>
						</rate>
						<start>145800</start>
						<end>145950</end>
						<in>41250</in>
						<out>41400</out>
						<pproTicksIn>0</pproTicksIn>
						<pproTicksOut>875013995520000</pproTicksOut>
						<alphatype>none</alphatype>
						<pixelaspectratio>square</pixelaspectratio>
						<anamorphic>FALSE</anamorphic>
						<file id="file-31">
							<name>Taylor_Swift_Travis_Kelce_-_The_New_Power_Couple.mp4</name>
							<pathurl>file://localhost/Users/themalikano/Documents/VideoAutomation/premiere_videos/Taylor_Swift_Travis_Kelce_-_The_New_Power_Couple.mp4</pathurl>
							<rate>
								<timebase>25</timebase>
								<ntsc>FALSE</ntsc>
							</rate>
							<duration>86118</duration>
							<timecode>
								<rate>
									<timebase>25</timebase>
									<ntsc>FALSE</ntsc>
								</rate>
								<string>00:00:00:00</string>
								<frame>0</frame>
								<displayformat>NDF</displayformat>
							</timecode>
							<media>
								<video>
									<samplecharacteristics>
										<rate>
											<timebase>25</timebase>
											<ntsc>FALSE</ntsc>
										</rate>
										<width>1920</width>
										<height>1080</height>
										<anamorphic>FALSE</anamorphic>
										<pixelaspectratio>square</pixelaspectratio>
										<fielddominance>none</fielddominance>
									</samplecharacteristics>
								</video>
								<audio>
									<samplecharacteristics>
										<depth>16</depth>
										<samplerate>44100</samplerate>
									</samplecharacteristics>
									<channelcount>2</channelcount>
								</audio>
							</media>
						</file>
						<link>
							<linkclipref>clipitem-87</linkclipref>
							<mediatype>video</mediatype>
							<trackindex>1</trackindex>
							<clipindex>3</clipindex>
						</link>
						<link>
							<linkclipref>clipitem-95</linkclipref>
							<mediatype>audio</mediatype>
							<trackindex>1</trackindex>
							<clipindex>3</clipindex>
							<groupindex>1</groupindex>
						</link>
						<link>
							<linkclipref>clipitem-103</linkclipref>
							<mediatype>audio</mediatype>
							<trackindex>2</trackindex>
							<clipindex>3</clipindex>
							<groupindex>1</groupindex>
						</link>
						<logginginfo>
							<description />
							<scene />
							<shottake />
							<lognote />
							<good />
							<originalvideofilename />
							<originalaudiofilename />
						</logginginfo>
						<colorinfo>
							<lut />
							<lut1 />
							<asc_sop />
							<asc_sat />
							<lut2 />
						</colorinfo>
					<labels><label2>Caribbean</label2></labels></clipitem>
					<clipitem id="clipitem-87">
						<masterclipid>clipitem-3-296</masterclipid>
						<name>Taylor_Swift_Travis_Kelce_-_The_New_Power_Couple.mp4</name>
						<enabled>TRUE</enabled>
						<duration>150</duration>
						<rate>
							<timebase>25</timebase>
							<ntsc>FALSE</ntsc>
						</rate>
						<start>145950</start>
						<end>146100</end>
						<in>44250</in>
						<out>44400</out>
						<pproTicksIn>0</pproTicksIn>
						<pproTicksOut>875013995520000</pproTicksOut>
						<alphatype>none</alphatype>
						<pixelaspectratio>square</pixelaspectratio>
						<anamorphic>FALSE</anamorphic>
						<file id="file-31">
							<name>Taylor_Swift_Travis_Kelce_-_The_New_Power_Couple.mp4</name>
							<pathurl>file://localhost/Users/themalikano/Documents/VideoAutomation/premiere_videos/Taylor_Swift_Travis_Kelce_-_The_New_Power_Couple.mp4</pathurl>
							<rate>
								<timebase>25</timebase>
								<ntsc>FALSE</ntsc>
							</rate>
							<duration>86118</duration>
							<timecode>
								<rate>
									<timebase>25</timebase>
									<ntsc>FALSE</ntsc>
								</rate>
								<string>00:00:00:00</string>
								<frame>0</frame>
								<displayformat>NDF</displayformat>
							</timecode>
							<media>
								<video>
									<samplecharacteristics>
										<rate>
											<timebase>25</timebase>
											<ntsc>FALSE</ntsc>
										</rate>
										<width>1920</width>
										<height>1080</height>
										<anamorphic>FALSE</anamorphic>
										<pixelaspectratio>square</pixelaspectratio>
										<fielddominance>none</fielddominance>
									</samplecharacteristics>
								</video>
								<audio>
									<samplecharacteristics>
										<depth>16</depth>
										<samplerate>44100</samplerate>
									</samplecharacteristics>
									<channelcount>2</channelcount>
								</audio>
							</media>
						</file>
						<link>
							<linkclipref>clipitem-87</linkclipref>
							<mediatype>video</mediatype>
							<trackindex>1</trackindex>
							<clipindex>3</clipindex>
						</link>
						<link>
							<linkclipref>clipitem-95</linkclipref>
							<mediatype>audio</mediatype>
							<trackindex>1</trackindex>
							<clipindex>3</clipindex>
							<groupindex>1</groupindex>
						</link>
						<link>
							<linkclipref>clipitem-103</linkclipref>
							<mediatype>audio</mediatype>
							<trackindex>2</trackindex>
							<clipindex>3</clipindex>
							<groupindex>1</groupindex>
						</link>
						<logginginfo>
							<description />
							<scene />
							<shottake />
							<lognote />
							<good />
							<originalvideofilename />
							<originalaudiofilename />
						</logginginfo>
						<colorinfo>
							<lut />
							<lut1 />
							<asc_sop />
							<asc_sat />
							<lut2 />
						</colorinfo>
					<labels><label2>Caribbean</label2></labels></clipitem>
					<clipitem id="clipitem-87">
						<masterclipid>clipitem-3-526</masterclipid>
						<name>Taylor_Swift_Travis_Kelce_-_The_New_Power_Couple.mp4</name>
						<enabled>TRUE</enabled>
						<duration>150</duration>
						<rate>
							<timebase>25</timebase>
							<ntsc>FALSE</ntsc>
						</rate>
						<start>146100</start>
						<end>146250</end>
						<in>78750</in>
						<out>78900</out>
						<pproTicksIn>0</pproTicksIn>
						<pproTicksOut>875013995520000</pproTicksOut>
						<alphatype>none</alphatype>
						<pixelaspectratio>square</pixelaspectratio>
						<anamorphic>FALSE</anamorphic>
						<file id="file-31">
							<name>Taylor_Swift_Travis_Kelce_-_The_New_Power_Couple.mp4</name>
							<pathurl>file://localhost/Users/themalikano/Documents/VideoAutomation/premiere_videos/Taylor_Swift_Travis_Kelce_-_The_New_Power_Couple.mp4</pathurl>
							<rate>
								<timebase>25</timebase>
								<ntsc>FALSE</ntsc>
							</rate>
							<duration>86118</duration>
							<timecode>
								<rate>
									<timebase>25</timebase>
									<ntsc>FALSE</ntsc>
								</rate>
								<string>00:00:00:00</string>
								<frame>0</frame>
								<displayformat>NDF</displayformat>
							</timecode>
							<media>
								<video>
									<samplecharacteristics>
										<rate>
											<timebase>25</timebase>
											<ntsc>FALSE</ntsc>
										</rate>
										<width>1920</width>
										<height>1080</height>
										<anamorphic>FALSE</anamorphic>
										<pixelaspectratio>square</pixelaspectratio>
										<fielddominance>none</fielddominance>
									</samplecharacteristics>
								</video>
								<audio>
									<samplecharacteristics>
										<depth>16</depth>
										<samplerate>44100</samplerate>
									</samplecharacteristics>
									<channelcount>2</channelcount>
								</audio>
							</media>
						</file>
						<link>
							<linkclipref>clipitem-87</linkclipref>
							<mediatype>video</mediatype>
							<trackindex>1</trackindex>
							<clipindex>3</clipindex>
						</link>
						<link>
							<linkclipref>clipitem-95</linkclipref>
							<mediatype>audio</mediatype>
							<trackindex>1</trackindex>
							<clipindex>3</clipindex>
							<groupindex>1</groupindex>
						</link>
						<link>
							<linkclipref>clipitem-103</linkclipref>
							<mediatype>audio</mediatype>
							<trackindex>2</trackindex>
							<clipindex>3</clipindex>
							<groupindex>1</groupindex>
						</link>
						<logginginfo>
							<description />
							<scene />
							<shottake />
							<lognote />
							<good />
							<originalvideofilename />
							<originalaudiofilename />
						</logginginfo>
						<colorinfo>
							<lut />
							<lut1 />
							<asc_sop />
							<asc_sat />
							<lut2 />
						</colorinfo>
					<labels><label2>Caribbean</label2></labels></clipitem>
					<clipitem id="clipitem-87">
						<masterclipid>clipitem-3-95</masterclipid>
						<name>Taylor_Swift_Travis_Kelce_-_The_New_Power_Couple.mp4</name>
						<enabled>TRUE</enabled>
						<duration>150</duration>
						<rate>
							<timebase>25</timebase>
							<ntsc>FALSE</ntsc>
						</rate>
						<start>146250</start>
						<end>146400</end>
						<in>14100</in>
						<out>14250</out>
						<pproTicksIn>0</pproTicksIn>
						<pproTicksOut>875013995520000</pproTicksOut>
						<alphatype>none</alphatype>
						<pixelaspectratio>square</pixelaspectratio>
						<anamorphic>FALSE</anamorphic>
						<file id="file-31">
							<name>Taylor_Swift_Travis_Kelce_-_The_New_Power_Couple.mp4</name>
							<pathurl>file://localhost/Users/themalikano/Documents/VideoAutomation/premiere_videos/Taylor_Swift_Travis_Kelce_-_The_New_Power_Couple.mp4</pathurl>
							<rate>
								<timebase>25</timebase>
								<ntsc>FALSE</ntsc>
							</rate>
							<duration>86118</duration>
							<timecode>
								<rate>
									<timebase>25</timebase>
									<ntsc>FALSE</ntsc>
								</rate>
								<string>00:00:00:00</string>
								<frame>0</frame>
								<displayformat>NDF</displayformat>
							</timecode>
							<media>
								<video>
									<samplecharacteristics>
										<rate>
											<timebase>25</timebase>
											<ntsc>FALSE</ntsc>
										</rate>
										<width>1920</width>
										<height>1080</height>
										<anamorphic>FALSE</anamorphic>
										<pixelaspectratio>square</pixelaspectratio>
										<fielddominance>none</fielddominance>
									</samplecharacteristics>
								</video>
								<audio>
									<samplecharacteristics>
										<depth>16</depth>
										<samplerate>44100</samplerate>
									</samplecharacteristics>
									<channelcount>2</channelcount>
								</audio>
							</media>
						</file>
						<link>
							<linkclipref>clipitem-87</linkclipref>
							<mediatype>video</mediatype>
							<trackindex>1</trackindex>
							<clipindex>3</clipindex>
						</link>
						<link>
							<linkclipref>clipitem-95</linkclipref>
							<mediatype>audio</mediatype>
							<trackindex>1</trackindex>
							<clipindex>3</clipindex>
							<groupindex>1</groupindex>
						</link>
						<link>
							<linkclipref>clipitem-103</linkclipref>
							<mediatype>audio</mediatype>
							<trackindex>2</trackindex>
							<clipindex>3</clipindex>
							<groupindex>1</groupindex>
						</link>
						<logginginfo>
							<description />
							<scene />
							<shottake />
							<lognote />
							<good />
							<originalvideofilename />
							<originalaudiofilename />
						</logginginfo>
						<colorinfo>
							<lut />
							<lut1 />
							<asc_sop />
							<asc_sat />
							<lut2 />
						</colorinfo>
					<labels><label2>Caribbean</label2></labels></clipitem>
					<clipitem id="clipitem-87">
						<masterclipid>clipitem-3-532</masterclipid>
						<name>Taylor_Swift_Travis_Kelce_-_The_New_Power_Couple.mp4</name>
						<enabled>TRUE</enabled>
						<duration>150</duration>
						<rate>
							<timebase>25</timebase>
							<ntsc>FALSE</ntsc>
						</rate>
						<start>146400</start>
						<end>146550</end>
						<in>79650</in>
						<out>79800</out>
						<pproTicksIn>0</pproTicksIn>
						<pproTicksOut>875013995520000</pproTicksOut>
						<alphatype>none</alphatype>
						<pixelaspectratio>square</pixelaspectratio>
						<anamorphic>FALSE</anamorphic>
						<file id="file-31">
							<name>Taylor_Swift_Travis_Kelce_-_The_New_Power_Couple.mp4</name>
							<pathurl>file://localhost/Users/themalikano/Documents/VideoAutomation/premiere_videos/Taylor_Swift_Travis_Kelce_-_The_New_Power_Couple.mp4</pathurl>
							<rate>
								<timebase>25</timebase>
								<ntsc>FALSE</ntsc>
							</rate>
							<duration>86118</duration>
							<timecode>
								<rate>
									<timebase>25</timebase>
									<ntsc>FALSE</ntsc>
								</rate>
								<string>00:00:00:00</string>
								<frame>0</frame>
								<displayformat>NDF</displayformat>
							</timecode>
							<media>
								<video>
									<samplecharacteristics>
										<rate>
											<timebase>25</timebase>
											<ntsc>FALSE</ntsc>
										</rate>
										<width>1920</width>
										<height>1080</height>
										<anamorphic>FALSE</anamorphic>
										<pixelaspectratio>square</pixelaspectratio>
										<fielddominance>none</fielddominance>
									</samplecharacteristics>
								</video>
								<audio>
									<samplecharacteristics>
										<depth>16</depth>
										<samplerate>44100</samplerate>
									</samplecharacteristics>
									<channelcount>2</channelcount>
								</audio>
							</media>
						</file>
						<link>
							<linkclipref>clipitem-87</linkclipref>
							<mediatype>video</mediatype>
							<trackindex>1</trackindex>
							<clipindex>3</clipindex>
						</link>
						<link>
							<linkclipref>clipitem-95</linkclipref>
							<mediatype>audio</mediatype>
							<trackindex>1</trackindex>
							<clipindex>3</clipindex>
							<groupindex>1</groupindex>
						</link>
						<link>
							<linkclipref>clipitem-103</linkclipref>
							<mediatype>audio</mediatype>
							<trackindex>2</trackindex>
							<clipindex>3</clipindex>
							<groupindex>1</groupindex>
						</link>
						<logginginfo>
							<description />
							<scene />
							<shottake />
							<lognote />
							<good />
							<originalvideofilename />
							<originalaudiofilename />
						</logginginfo>
						<colorinfo>
							<lut />
							<lut1 />
							<asc_sop />
							<asc_sat />
							<lut2 />
						</colorinfo>
					<labels><label2>Caribbean</label2></labels></clipitem>
					<clipitem id="clipitem-87">
						<masterclipid>clipitem-3-375</masterclipid>
						<name>Taylor_Swift_Travis_Kelce_-_The_New_Power_Couple.mp4</name>
						<enabled>TRUE</enabled>
						<duration>150</duration>
						<rate>
							<timebase>25</timebase>
							<ntsc>FALSE</ntsc>
						</rate>
						<start>146550</start>
						<end>146700</end>
						<in>56100</in>
						<out>56250</out>
						<pproTicksIn>0</pproTicksIn>
						<pproTicksOut>875013995520000</pproTicksOut>
						<alphatype>none</alphatype>
						<pixelaspectratio>square</pixelaspectratio>
						<anamorphic>FALSE</anamorphic>
						<file id="file-31">
							<name>Taylor_Swift_Travis_Kelce_-_The_New_Power_Couple.mp4</name>
							<pathurl>file://localhost/Users/themalikano/Documents/VideoAutomation/premiere_videos/Taylor_Swift_Travis_Kelce_-_The_New_Power_Couple.mp4</pathurl>
							<rate>
								<timebase>25</timebase>
								<ntsc>FALSE</ntsc>
							</rate>
							<duration>86118</duration>
							<timecode>
								<rate>
									<timebase>25</timebase>
									<ntsc>FALSE</ntsc>
								</rate>
								<string>00:00:00:00</string>
								<frame>0</frame>
								<displayformat>NDF</displayformat>
							</timecode>
							<media>
								<video>
									<samplecharacteristics>
										<rate>
											<timebase>25</timebase>
											<ntsc>FALSE</ntsc>
										</rate>
										<width>1920</width>
										<height>1080</height>
										<anamorphic>FALSE</anamorphic>
										<pixelaspectratio>square</pixelaspectratio>
										<fielddominance>none</fielddominance>
									</samplecharacteristics>
								</video>
								<audio>
									<samplecharacteristics>
										<depth>16</depth>
										<samplerate>44100</samplerate>
									</samplecharacteristics>
									<channelcount>2</channelcount>
								</audio>
							</media>
						</file>
						<link>
							<linkclipref>clipitem-87</linkclipref>
							<mediatype>video</mediatype>
							<trackindex>1</trackindex>
							<clipindex>3</clipindex>
						</link>
						<link>
							<linkclipref>clipitem-95</linkclipref>
							<mediatype>audio</mediatype>
							<trackindex>1</trackindex>
							<clipindex>3</clipindex>
							<groupindex>1</groupindex>
						</link>
						<link>
							<linkclipref>clipitem-103</linkclipref>
							<mediatype>audio</mediatype>
							<trackindex>2</trackindex>
							<clipindex>3</clipindex>
							<groupindex>1</groupindex>
						</link>
						<logginginfo>
							<description />
							<scene />
							<shottake />
							<lognote />
							<good />
							<originalvideofilename />
							<originalaudiofilename />
						</logginginfo>
						<colorinfo>
							<lut />
							<lut1 />
							<asc_sop />
							<asc_sat />
							<lut2 />
						</colorinfo>
					<labels><label2>Caribbean</label2></labels></clipitem>
					<clipitem id="clipitem-87">
						<masterclipid>clipitem-3-85</masterclipid>
						<name>Taylor_Swift_Travis_Kelce_-_The_New_Power_Couple.mp4</name>
						<enabled>TRUE</enabled>
						<duration>150</duration>
						<rate>
							<timebase>25</timebase>
							<ntsc>FALSE</ntsc>
						</rate>
						<start>146700</start>
						<end>146850</end>
						<in>12600</in>
						<out>12750</out>
						<pproTicksIn>0</pproTicksIn>
						<pproTicksOut>875013995520000</pproTicksOut>
						<alphatype>none</alphatype>
						<pixelaspectratio>square</pixelaspectratio>
						<anamorphic>FALSE</anamorphic>
						<file id="file-31">
							<name>Taylor_Swift_Travis_Kelce_-_The_New_Power_Couple.mp4</name>
							<pathurl>file://localhost/Users/themalikano/Documents/VideoAutomation/premiere_videos/Taylor_Swift_Travis_Kelce_-_The_New_Power_Couple.mp4</pathurl>
							<rate>
								<timebase>25</timebase>
								<ntsc>FALSE</ntsc>
							</rate>
							<duration>86118</duration>
							<timecode>
								<rate>
									<timebase>25</timebase>
									<ntsc>FALSE</ntsc>
								</rate>
								<string>00:00:00:00</string>
								<frame>0</frame>
								<displayformat>NDF</displayformat>
							</timecode>
							<media>
								<video>
									<samplecharacteristics>
										<rate>
											<timebase>25</timebase>
											<ntsc>FALSE</ntsc>
										</rate>
										<width>1920</width>
										<height>1080</height>
										<anamorphic>FALSE</anamorphic>
										<pixelaspectratio>square</pixelaspectratio>
										<fielddominance>none</fielddominance>
									</samplecharacteristics>
								</video>
								<audio>
									<samplecharacteristics>
										<depth>16</depth>
										<samplerate>44100</samplerate>
									</samplecharacteristics>
									<channelcount>2</channelcount>
								</audio>
							</media>
						</file>
						<link>
							<linkclipref>clipitem-87</linkclipref>
							<mediatype>video</mediatype>
							<trackindex>1</trackindex>
							<clipindex>3</clipindex>
						</link>
						<link>
							<linkclipref>clipitem-95</linkclipref>
							<mediatype>audio</mediatype>
							<trackindex>1</trackindex>
							<clipindex>3</clipindex>
							<groupindex>1</groupindex>
						</link>
						<link>
							<linkclipref>clipitem-103</linkclipref>
							<mediatype>audio</mediatype>
							<trackindex>2</trackindex>
							<clipindex>3</clipindex>
							<groupindex>1</groupindex>
						</link>
						<logginginfo>
							<description />
							<scene />
							<shottake />
							<lognote />
							<good />
							<originalvideofilename />
							<originalaudiofilename />
						</logginginfo>
						<colorinfo>
							<lut />
							<lut1 />
							<asc_sop />
							<asc_sat />
							<lut2 />
						</colorinfo>
					<labels><label2>Caribbean</label2></labels></clipitem>
					<clipitem id="clipitem-87">
						<masterclipid>clipitem-3-19</masterclipid>
						<name>Taylor_Swift_Travis_Kelce_-_The_New_Power_Couple.mp4</name>
						<enabled>TRUE</enabled>
						<duration>150</duration>
						<rate>
							<timebase>25</timebase>
							<ntsc>FALSE</ntsc>
						</rate>
						<start>146850</start>
						<end>147000</end>
						<in>2700</in>
						<out>2850</out>
						<pproTicksIn>0</pproTicksIn>
						<pproTicksOut>875013995520000</pproTicksOut>
						<alphatype>none</alphatype>
						<pixelaspectratio>square</pixelaspectratio>
						<anamorphic>FALSE</anamorphic>
						<file id="file-31">
							<name>Taylor_Swift_Travis_Kelce_-_The_New_Power_Couple.mp4</name>
							<pathurl>file://localhost/Users/themalikano/Documents/VideoAutomation/premiere_videos/Taylor_Swift_Travis_Kelce_-_The_New_Power_Couple.mp4</pathurl>
							<rate>
								<timebase>25</timebase>
								<ntsc>FALSE</ntsc>
							</rate>
							<duration>86118</duration>
							<timecode>
								<rate>
									<timebase>25</timebase>
									<ntsc>FALSE</ntsc>
								</rate>
								<string>00:00:00:00</string>
								<frame>0</frame>
								<displayformat>NDF</displayformat>
							</timecode>
							<media>
								<video>
									<samplecharacteristics>
										<rate>
											<timebase>25</timebase>
											<ntsc>FALSE</ntsc>
										</rate>
										<width>1920</width>
										<height>1080</height>
										<anamorphic>FALSE</anamorphic>
										<pixelaspectratio>square</pixelaspectratio>
										<fielddominance>none</fielddominance>
									</samplecharacteristics>
								</video>
								<audio>
									<samplecharacteristics>
										<depth>16</depth>
										<samplerate>44100</samplerate>
									</samplecharacteristics>
									<channelcount>2</channelcount>
								</audio>
							</media>
						</file>
						<link>
							<linkclipref>clipitem-87</linkclipref>
							<mediatype>video</mediatype>
							<trackindex>1</trackindex>
							<clipindex>3</clipindex>
						</link>
						<link>
							<linkclipref>clipitem-95</linkclipref>
							<mediatype>audio</mediatype>
							<trackindex>1</trackindex>
							<clipindex>3</clipindex>
							<groupindex>1</groupindex>
						</link>
						<link>
							<linkclipref>clipitem-103</linkclipref>
							<mediatype>audio</mediatype>
							<trackindex>2</trackindex>
							<clipindex>3</clipindex>
							<groupindex>1</groupindex>
						</link>
						<logginginfo>
							<description />
							<scene />
							<shottake />
							<lognote />
							<good />
							<originalvideofilename />
							<originalaudiofilename />
						</logginginfo>
						<colorinfo>
							<lut />
							<lut1 />
							<asc_sop />
							<asc_sat />
							<lut2 />
						</colorinfo>
					<labels><label2>Caribbean</label2></labels></clipitem>
					<clipitem id="clipitem-87">
						<masterclipid>clipitem-3-124</masterclipid>
						<name>Taylor_Swift_Travis_Kelce_-_The_New_Power_Couple.mp4</name>
						<enabled>TRUE</enabled>
						<duration>150</duration>
						<rate>
							<timebase>25</timebase>
							<ntsc>FALSE</ntsc>
						</rate>
						<start>147000</start>
						<end>147150</end>
						<in>18450</in>
						<out>18600</out>
						<pproTicksIn>0</pproTicksIn>
						<pproTicksOut>875013995520000</pproTicksOut>
						<alphatype>none</alphatype>
						<pixelaspectratio>square</pixelaspectratio>
						<anamorphic>FALSE</anamorphic>
						<file id="file-31">
							<name>Taylor_Swift_Travis_Kelce_-_The_New_Power_Couple.mp4</name>
							<pathurl>file://localhost/Users/themalikano/Documents/VideoAutomation/premiere_videos/Taylor_Swift_Travis_Kelce_-_The_New_Power_Couple.mp4</pathurl>
							<rate>
								<timebase>25</timebase>
								<ntsc>FALSE</ntsc>
							</rate>
							<duration>86118</duration>
							<timecode>
								<rate>
									<timebase>25</timebase>
									<ntsc>FALSE</ntsc>
								</rate>
								<string>00:00:00:00</string>
								<frame>0</frame>
								<displayformat>NDF</displayformat>
							</timecode>
							<media>
								<video>
									<samplecharacteristics>
										<rate>
											<timebase>25</timebase>
											<ntsc>FALSE</ntsc>
										</rate>
										<width>1920</width>
										<height>1080</height>
										<anamorphic>FALSE</anamorphic>
										<pixelaspectratio>square</pixelaspectratio>
										<fielddominance>none</fielddominance>
									</samplecharacteristics>
								</video>
								<audio>
									<samplecharacteristics>
										<depth>16</depth>
										<samplerate>44100</samplerate>
									</samplecharacteristics>
									<channelcount>2</channelcount>
								</audio>
							</media>
						</file>
						<link>
							<linkclipref>clipitem-87</linkclipref>
							<mediatype>video</mediatype>
							<trackindex>1</trackindex>
							<clipindex>3</clipindex>
						</link>
						<link>
							<linkclipref>clipitem-95</linkclipref>
							<mediatype>audio</mediatype>
							<trackindex>1</trackindex>
							<clipindex>3</clipindex>
							<groupindex>1</groupindex>
						</link>
						<link>
							<linkclipref>clipitem-103</linkclipref>
							<mediatype>audio</mediatype>
							<trackindex>2</trackindex>
							<clipindex>3</clipindex>
							<groupindex>1</groupindex>
						</link>
						<logginginfo>
							<description />
							<scene />
							<shottake />
							<lognote />
							<good />
							<originalvideofilename />
							<originalaudiofilename />
						</logginginfo>
						<colorinfo>
							<lut />
							<lut1 />
							<asc_sop />
							<asc_sat />
							<lut2 />
						</colorinfo>
					<labels><label2>Caribbean</label2></labels></clipitem>
					<clipitem id="clipitem-87">
						<masterclipid>clipitem-3-82</masterclipid>
						<name>Taylor_Swift_Travis_Kelce_-_The_New_Power_Couple.mp4</name>
						<enabled>TRUE</enabled>
						<duration>150</duration>
						<rate>
							<timebase>25</timebase>
							<ntsc>FALSE</ntsc>
						</rate>
						<start>147150</start>
						<end>147300</end>
						<in>12150</in>
						<out>12300</out>
						<pproTicksIn>0</pproTicksIn>
						<pproTicksOut>875013995520000</pproTicksOut>
						<alphatype>none</alphatype>
						<pixelaspectratio>square</pixelaspectratio>
						<anamorphic>FALSE</anamorphic>
						<file id="file-31">
							<name>Taylor_Swift_Travis_Kelce_-_The_New_Power_Couple.mp4</name>
							<pathurl>file://localhost/Users/themalikano/Documents/VideoAutomation/premiere_videos/Taylor_Swift_Travis_Kelce_-_The_New_Power_Couple.mp4</pathurl>
							<rate>
								<timebase>25</timebase>
								<ntsc>FALSE</ntsc>
							</rate>
							<duration>86118</duration>
							<timecode>
								<rate>
									<timebase>25</timebase>
									<ntsc>FALSE</ntsc>
								</rate>
								<string>00:00:00:00</string>
								<frame>0</frame>
								<displayformat>NDF</displayformat>
							</timecode>
							<media>
								<video>
									<samplecharacteristics>
										<rate>
											<timebase>25</timebase>
											<ntsc>FALSE</ntsc>
										</rate>
										<width>1920</width>
										<height>1080</height>
										<anamorphic>FALSE</anamorphic>
										<pixelaspectratio>square</pixelaspectratio>
										<fielddominance>none</fielddominance>
									</samplecharacteristics>
								</video>
								<audio>
									<samplecharacteristics>
										<depth>16</depth>
										<samplerate>44100</samplerate>
									</samplecharacteristics>
									<channelcount>2</channelcount>
								</audio>
							</media>
						</file>
						<link>
							<linkclipref>clipitem-87</linkclipref>
							<mediatype>video</mediatype>
							<trackindex>1</trackindex>
							<clipindex>3</clipindex>
						</link>
						<link>
							<linkclipref>clipitem-95</linkclipref>
							<mediatype>audio</mediatype>
							<trackindex>1</trackindex>
							<clipindex>3</clipindex>
							<groupindex>1</groupindex>
						</link>
						<link>
							<linkclipref>clipitem-103</linkclipref>
							<mediatype>audio</mediatype>
							<trackindex>2</trackindex>
							<clipindex>3</clipindex>
							<groupindex>1</groupindex>
						</link>
						<logginginfo>
							<description />
							<scene />
							<shottake />
							<lognote />
							<good />
							<originalvideofilename />
							<originalaudiofilename />
						</logginginfo>
						<colorinfo>
							<lut />
							<lut1 />
							<asc_sop />
							<asc_sat />
							<lut2 />
						</colorinfo>
					<labels><label2>Caribbean</label2></labels></clipitem>
					<clipitem id="clipitem-87">
						<masterclipid>clipitem-3-549</masterclipid>
						<name>Taylor_Swift_Travis_Kelce_-_The_New_Power_Couple.mp4</name>
						<enabled>TRUE</enabled>
						<duration>150</duration>
						<rate>
							<timebase>25</timebase>
							<ntsc>FALSE</ntsc>
						</rate>
						<start>147300</start>
						<end>147450</end>
						<in>82200</in>
						<out>82350</out>
						<pproTicksIn>0</pproTicksIn>
						<pproTicksOut>875013995520000</pproTicksOut>
						<alphatype>none</alphatype>
						<pixelaspectratio>square</pixelaspectratio>
						<anamorphic>FALSE</anamorphic>
						<file id="file-31">
							<name>Taylor_Swift_Travis_Kelce_-_The_New_Power_Couple.mp4</name>
							<pathurl>file://localhost/Users/themalikano/Documents/VideoAutomation/premiere_videos/Taylor_Swift_Travis_Kelce_-_The_New_Power_Couple.mp4</pathurl>
							<rate>
								<timebase>25</timebase>
								<ntsc>FALSE</ntsc>
							</rate>
							<duration>86118</duration>
							<timecode>
								<rate>
									<timebase>25</timebase>
									<ntsc>FALSE</ntsc>
								</rate>
								<string>00:00:00:00</string>
								<frame>0</frame>
								<displayformat>NDF</displayformat>
							</timecode>
							<media>
								<video>
									<samplecharacteristics>
										<rate>
											<timebase>25</timebase>
											<ntsc>FALSE</ntsc>
										</rate>
										<width>1920</width>
										<height>1080</height>
										<anamorphic>FALSE</anamorphic>
										<pixelaspectratio>square</pixelaspectratio>
										<fielddominance>none</fielddominance>
									</samplecharacteristics>
								</video>
								<audio>
									<samplecharacteristics>
										<depth>16</depth>
										<samplerate>44100</samplerate>
									</samplecharacteristics>
									<channelcount>2</channelcount>
								</audio>
							</media>
						</file>
						<link>
							<linkclipref>clipitem-87</linkclipref>
							<mediatype>video</mediatype>
							<trackindex>1</trackindex>
							<clipindex>3</clipindex>
						</link>
						<link>
							<linkclipref>clipitem-95</linkclipref>
							<mediatype>audio</mediatype>
							<trackindex>1</trackindex>
							<clipindex>3</clipindex>
							<groupindex>1</groupindex>
						</link>
						<link>
							<linkclipref>clipitem-103</linkclipref>
							<mediatype>audio</mediatype>
							<trackindex>2</trackindex>
							<clipindex>3</clipindex>
							<groupindex>1</groupindex>
						</link>
						<logginginfo>
							<description />
							<scene />
							<shottake />
							<lognote />
							<good />
							<originalvideofilename />
							<originalaudiofilename />
						</logginginfo>
						<colorinfo>
							<lut />
							<lut1 />
							<asc_sop />
							<asc_sat />
							<lut2 />
						</colorinfo>
					<labels><label2>Caribbean</label2></labels></clipitem>
					<clipitem id="clipitem-87">
						<masterclipid>clipitem-3-20</masterclipid>
						<name>Taylor_Swift_Travis_Kelce_-_The_New_Power_Couple.mp4</name>
						<enabled>TRUE</enabled>
						<duration>150</duration>
						<rate>
							<timebase>25</timebase>
							<ntsc>FALSE</ntsc>
						</rate>
						<start>147450</start>
						<end>147600</end>
						<in>2850</in>
						<out>3000</out>
						<pproTicksIn>0</pproTicksIn>
						<pproTicksOut>875013995520000</pproTicksOut>
						<alphatype>none</alphatype>
						<pixelaspectratio>square</pixelaspectratio>
						<anamorphic>FALSE</anamorphic>
						<file id="file-31">
							<name>Taylor_Swift_Travis_Kelce_-_The_New_Power_Couple.mp4</name>
							<pathurl>file://localhost/Users/themalikano/Documents/VideoAutomation/premiere_videos/Taylor_Swift_Travis_Kelce_-_The_New_Power_Couple.mp4</pathurl>
							<rate>
								<timebase>25</timebase>
								<ntsc>FALSE</ntsc>
							</rate>
							<duration>86118</duration>
							<timecode>
								<rate>
									<timebase>25</timebase>
									<ntsc>FALSE</ntsc>
								</rate>
								<string>00:00:00:00</string>
								<frame>0</frame>
								<displayformat>NDF</displayformat>
							</timecode>
							<media>
								<video>
									<samplecharacteristics>
										<rate>
											<timebase>25</timebase>
											<ntsc>FALSE</ntsc>
										</rate>
										<width>1920</width>
										<height>1080</height>
										<anamorphic>FALSE</anamorphic>
										<pixelaspectratio>square</pixelaspectratio>
										<fielddominance>none</fielddominance>
									</samplecharacteristics>
								</video>
								<audio>
									<samplecharacteristics>
										<depth>16</depth>
										<samplerate>44100</samplerate>
									</samplecharacteristics>
									<channelcount>2</channelcount>
								</audio>
							</media>
						</file>
						<link>
							<linkclipref>clipitem-87</linkclipref>
							<mediatype>video</mediatype>
							<trackindex>1</trackindex>
							<clipindex>3</clipindex>
						</link>
						<link>
							<linkclipref>clipitem-95</linkclipref>
							<mediatype>audio</mediatype>
							<trackindex>1</trackindex>
							<clipindex>3</clipindex>
							<groupindex>1</groupindex>
						</link>
						<link>
							<linkclipref>clipitem-103</linkclipref>
							<mediatype>audio</mediatype>
							<trackindex>2</trackindex>
							<clipindex>3</clipindex>
							<groupindex>1</groupindex>
						</link>
						<logginginfo>
							<description />
							<scene />
							<shottake />
							<lognote />
							<good />
							<originalvideofilename />
							<originalaudiofilename />
						</logginginfo>
						<colorinfo>
							<lut />
							<lut1 />
							<asc_sop />
							<asc_sat />
							<lut2 />
						</colorinfo>
					<labels><label2>Caribbean</label2></labels></clipitem>
					<clipitem id="clipitem-87">
						<masterclipid>clipitem-3-12</masterclipid>
						<name>Taylor_Swift_Travis_Kelce_-_The_New_Power_Couple.mp4</name>
						<enabled>TRUE</enabled>
						<duration>150</duration>
						<rate>
							<timebase>25</timebase>
							<ntsc>FALSE</ntsc>
						</rate>
						<start>147600</start>
						<end>147750</end>
						<in>1650</in>
						<out>1800</out>
						<pproTicksIn>0</pproTicksIn>
						<pproTicksOut>875013995520000</pproTicksOut>
						<alphatype>none</alphatype>
						<pixelaspectratio>square</pixelaspectratio>
						<anamorphic>FALSE</anamorphic>
						<file id="file-31">
							<name>Taylor_Swift_Travis_Kelce_-_The_New_Power_Couple.mp4</name>
							<pathurl>file://localhost/Users/themalikano/Documents/VideoAutomation/premiere_videos/Taylor_Swift_Travis_Kelce_-_The_New_Power_Couple.mp4</pathurl>
							<rate>
								<timebase>25</timebase>
								<ntsc>FALSE</ntsc>
							</rate>
							<duration>86118</duration>
							<timecode>
								<rate>
									<timebase>25</timebase>
									<ntsc>FALSE</ntsc>
								</rate>
								<string>00:00:00:00</string>
								<frame>0</frame>
								<displayformat>NDF</displayformat>
							</timecode>
							<media>
								<video>
									<samplecharacteristics>
										<rate>
											<timebase>25</timebase>
											<ntsc>FALSE</ntsc>
										</rate>
										<width>1920</width>
										<height>1080</height>
										<anamorphic>FALSE</anamorphic>
										<pixelaspectratio>square</pixelaspectratio>
										<fielddominance>none</fielddominance>
									</samplecharacteristics>
								</video>
								<audio>
									<samplecharacteristics>
										<depth>16</depth>
										<samplerate>44100</samplerate>
									</samplecharacteristics>
									<channelcount>2</channelcount>
								</audio>
							</media>
						</file>
						<link>
							<linkclipref>clipitem-87</linkclipref>
							<mediatype>video</mediatype>
							<trackindex>1</trackindex>
							<clipindex>3</clipindex>
						</link>
						<link>
							<linkclipref>clipitem-95</linkclipref>
							<mediatype>audio</mediatype>
							<trackindex>1</trackindex>
							<clipindex>3</clipindex>
							<groupindex>1</groupindex>
						</link>
						<link>
							<linkclipref>clipitem-103</linkclipref>
							<mediatype>audio</mediatype>
							<trackindex>2</trackindex>
							<clipindex>3</clipindex>
							<groupindex>1</groupindex>
						</link>
						<logginginfo>
							<description />
							<scene />
							<shottake />
							<lognote />
							<good />
							<originalvideofilename />
							<originalaudiofilename />
						</logginginfo>
						<colorinfo>
							<lut />
							<lut1 />
							<asc_sop />
							<asc_sat />
							<lut2 />
						</colorinfo>
					<labels><label2>Caribbean</label2></labels></clipitem>
					<clipitem id="clipitem-87">
						<masterclipid>clipitem-3-453</masterclipid>
						<name>Taylor_Swift_Travis_Kelce_-_The_New_Power_Couple.mp4</name>
						<enabled>TRUE</enabled>
						<duration>150</duration>
						<rate>
							<timebase>25</timebase>
							<ntsc>FALSE</ntsc>
						</rate>
						<start>147750</start>
						<end>147900</end>
						<in>67800</in>
						<out>67950</out>
						<pproTicksIn>0</pproTicksIn>
						<pproTicksOut>875013995520000</pproTicksOut>
						<alphatype>none</alphatype>
						<pixelaspectratio>square</pixelaspectratio>
						<anamorphic>FALSE</anamorphic>
						<file id="file-31">
							<name>Taylor_Swift_Travis_Kelce_-_The_New_Power_Couple.mp4</name>
							<pathurl>file://localhost/Users/themalikano/Documents/VideoAutomation/premiere_videos/Taylor_Swift_Travis_Kelce_-_The_New_Power_Couple.mp4</pathurl>
							<rate>
								<timebase>25</timebase>
								<ntsc>FALSE</ntsc>
							</rate>
							<duration>86118</duration>
							<timecode>
								<rate>
									<timebase>25</timebase>
									<ntsc>FALSE</ntsc>
								</rate>
								<string>00:00:00:00</string>
								<frame>0</frame>
								<displayformat>NDF</displayformat>
							</timecode>
							<media>
								<video>
									<samplecharacteristics>
										<rate>
											<timebase>25</timebase>
											<ntsc>FALSE</ntsc>
										</rate>
										<width>1920</width>
										<height>1080</height>
										<anamorphic>FALSE</anamorphic>
										<pixelaspectratio>square</pixelaspectratio>
										<fielddominance>none</fielddominance>
									</samplecharacteristics>
								</video>
								<audio>
									<samplecharacteristics>
										<depth>16</depth>
										<samplerate>44100</samplerate>
									</samplecharacteristics>
									<channelcount>2</channelcount>
								</audio>
							</media>
						</file>
						<link>
							<linkclipref>clipitem-87</linkclipref>
							<mediatype>video</mediatype>
							<trackindex>1</trackindex>
							<clipindex>3</clipindex>
						</link>
						<link>
							<linkclipref>clipitem-95</linkclipref>
							<mediatype>audio</mediatype>
							<trackindex>1</trackindex>
							<clipindex>3</clipindex>
							<groupindex>1</groupindex>
						</link>
						<link>
							<linkclipref>clipitem-103</linkclipref>
							<mediatype>audio</mediatype>
							<trackindex>2</trackindex>
							<clipindex>3</clipindex>
							<groupindex>1</groupindex>
						</link>
						<logginginfo>
							<description />
							<scene />
							<shottake />
							<lognote />
							<good />
							<originalvideofilename />
							<originalaudiofilename />
						</logginginfo>
						<colorinfo>
							<lut />
							<lut1 />
							<asc_sop />
							<asc_sat />
							<lut2 />
						</colorinfo>
					<labels><label2>Caribbean</label2></labels></clipitem>
					<clipitem id="clipitem-87">
						<masterclipid>clipitem-3-404</masterclipid>
						<name>Taylor_Swift_Travis_Kelce_-_The_New_Power_Couple.mp4</name>
						<enabled>TRUE</enabled>
						<duration>150</duration>
						<rate>
							<timebase>25</timebase>
							<ntsc>FALSE</ntsc>
						</rate>
						<start>147900</start>
						<end>148050</end>
						<in>60450</in>
						<out>60600</out>
						<pproTicksIn>0</pproTicksIn>
						<pproTicksOut>875013995520000</pproTicksOut>
						<alphatype>none</alphatype>
						<pixelaspectratio>square</pixelaspectratio>
						<anamorphic>FALSE</anamorphic>
						<file id="file-31">
							<name>Taylor_Swift_Travis_Kelce_-_The_New_Power_Couple.mp4</name>
							<pathurl>file://localhost/Users/themalikano/Documents/VideoAutomation/premiere_videos/Taylor_Swift_Travis_Kelce_-_The_New_Power_Couple.mp4</pathurl>
							<rate>
								<timebase>25</timebase>
								<ntsc>FALSE</ntsc>
							</rate>
							<duration>86118</duration>
							<timecode>
								<rate>
									<timebase>25</timebase>
									<ntsc>FALSE</ntsc>
								</rate>
								<string>00:00:00:00</string>
								<frame>0</frame>
								<displayformat>NDF</displayformat>
							</timecode>
							<media>
								<video>
									<samplecharacteristics>
										<rate>
											<timebase>25</timebase>
											<ntsc>FALSE</ntsc>
										</rate>
										<width>1920</width>
										<height>1080</height>
										<anamorphic>FALSE</anamorphic>
										<pixelaspectratio>square</pixelaspectratio>
										<fielddominance>none</fielddominance>
									</samplecharacteristics>
								</video>
								<audio>
									<samplecharacteristics>
										<depth>16</depth>
										<samplerate>44100</samplerate>
									</samplecharacteristics>
									<channelcount>2</channelcount>
								</audio>
							</media>
						</file>
						<link>
							<linkclipref>clipitem-87</linkclipref>
							<mediatype>video</mediatype>
							<trackindex>1</trackindex>
							<clipindex>3</clipindex>
						</link>
						<link>
							<linkclipref>clipitem-95</linkclipref>
							<mediatype>audio</mediatype>
							<trackindex>1</trackindex>
							<clipindex>3</clipindex>
							<groupindex>1</groupindex>
						</link>
						<link>
							<linkclipref>clipitem-103</linkclipref>
							<mediatype>audio</mediatype>
							<trackindex>2</trackindex>
							<clipindex>3</clipindex>
							<groupindex>1</groupindex>
						</link>
						<logginginfo>
							<description />
							<scene />
							<shottake />
							<lognote />
							<good />
							<originalvideofilename />
							<originalaudiofilename />
						</logginginfo>
						<colorinfo>
							<lut />
							<lut1 />
							<asc_sop />
							<asc_sat />
							<lut2 />
						</colorinfo>
					<labels><label2>Caribbean</label2></labels></clipitem>
					<clipitem id="clipitem-87">
						<masterclipid>clipitem-3-332</masterclipid>
						<name>Taylor_Swift_Travis_Kelce_-_The_New_Power_Couple.mp4</name>
						<enabled>TRUE</enabled>
						<duration>150</duration>
						<rate>
							<timebase>25</timebase>
							<ntsc>FALSE</ntsc>
						</rate>
						<start>148050</start>
						<end>148200</end>
						<in>49650</in>
						<out>49800</out>
						<pproTicksIn>0</pproTicksIn>
						<pproTicksOut>875013995520000</pproTicksOut>
						<alphatype>none</alphatype>
						<pixelaspectratio>square</pixelaspectratio>
						<anamorphic>FALSE</anamorphic>
						<file id="file-31">
							<name>Taylor_Swift_Travis_Kelce_-_The_New_Power_Couple.mp4</name>
							<pathurl>file://localhost/Users/themalikano/Documents/VideoAutomation/premiere_videos/Taylor_Swift_Travis_Kelce_-_The_New_Power_Couple.mp4</pathurl>
							<rate>
								<timebase>25</timebase>
								<ntsc>FALSE</ntsc>
							</rate>
							<duration>86118</duration>
							<timecode>
								<rate>
									<timebase>25</timebase>
									<ntsc>FALSE</ntsc>
								</rate>
								<string>00:00:00:00</string>
								<frame>0</frame>
								<displayformat>NDF</displayformat>
							</timecode>
							<media>
								<video>
									<samplecharacteristics>
										<rate>
											<timebase>25</timebase>
											<ntsc>FALSE</ntsc>
										</rate>
										<width>1920</width>
										<height>1080</height>
										<anamorphic>FALSE</anamorphic>
										<pixelaspectratio>square</pixelaspectratio>
										<fielddominance>none</fielddominance>
									</samplecharacteristics>
								</video>
								<audio>
									<samplecharacteristics>
										<depth>16</depth>
										<samplerate>44100</samplerate>
									</samplecharacteristics>
									<channelcount>2</channelcount>
								</audio>
							</media>
						</file>
						<link>
							<linkclipref>clipitem-87</linkclipref>
							<mediatype>video</mediatype>
							<trackindex>1</trackindex>
							<clipindex>3</clipindex>
						</link>
						<link>
							<linkclipref>clipitem-95</linkclipref>
							<mediatype>audio</mediatype>
							<trackindex>1</trackindex>
							<clipindex>3</clipindex>
							<groupindex>1</groupindex>
						</link>
						<link>
							<linkclipref>clipitem-103</linkclipref>
							<mediatype>audio</mediatype>
							<trackindex>2</trackindex>
							<clipindex>3</clipindex>
							<groupindex>1</groupindex>
						</link>
						<logginginfo>
							<description />
							<scene />
							<shottake />
							<lognote />
							<good />
							<originalvideofilename />
							<originalaudiofilename />
						</logginginfo>
						<colorinfo>
							<lut />
							<lut1 />
							<asc_sop />
							<asc_sat />
							<lut2 />
						</colorinfo>
					<labels><label2>Caribbean</label2></labels></clipitem>
					<clipitem id="clipitem-87">
						<masterclipid>clipitem-3-43</masterclipid>
						<name>Taylor_Swift_Travis_Kelce_-_The_New_Power_Couple.mp4</name>
						<enabled>TRUE</enabled>
						<duration>150</duration>
						<rate>
							<timebase>25</timebase>
							<ntsc>FALSE</ntsc>
						</rate>
						<start>148200</start>
						<end>148350</end>
						<in>6300</in>
						<out>6450</out>
						<pproTicksIn>0</pproTicksIn>
						<pproTicksOut>875013995520000</pproTicksOut>
						<alphatype>none</alphatype>
						<pixelaspectratio>square</pixelaspectratio>
						<anamorphic>FALSE</anamorphic>
						<file id="file-31">
							<name>Taylor_Swift_Travis_Kelce_-_The_New_Power_Couple.mp4</name>
							<pathurl>file://localhost/Users/themalikano/Documents/VideoAutomation/premiere_videos/Taylor_Swift_Travis_Kelce_-_The_New_Power_Couple.mp4</pathurl>
							<rate>
								<timebase>25</timebase>
								<ntsc>FALSE</ntsc>
							</rate>
							<duration>86118</duration>
							<timecode>
								<rate>
									<timebase>25</timebase>
									<ntsc>FALSE</ntsc>
								</rate>
								<string>00:00:00:00</string>
								<frame>0</frame>
								<displayformat>NDF</displayformat>
							</timecode>
							<media>
								<video>
									<samplecharacteristics>
										<rate>
											<timebase>25</timebase>
											<ntsc>FALSE</ntsc>
										</rate>
										<width>1920</width>
										<height>1080</height>
										<anamorphic>FALSE</anamorphic>
										<pixelaspectratio>square</pixelaspectratio>
										<fielddominance>none</fielddominance>
									</samplecharacteristics>
								</video>
								<audio>
									<samplecharacteristics>
										<depth>16</depth>
										<samplerate>44100</samplerate>
									</samplecharacteristics>
									<channelcount>2</channelcount>
								</audio>
							</media>
						</file>
						<link>
							<linkclipref>clipitem-87</linkclipref>
							<mediatype>video</mediatype>
							<trackindex>1</trackindex>
							<clipindex>3</clipindex>
						</link>
						<link>
							<linkclipref>clipitem-95</linkclipref>
							<mediatype>audio</mediatype>
							<trackindex>1</trackindex>
							<clipindex>3</clipindex>
							<groupindex>1</groupindex>
						</link>
						<link>
							<linkclipref>clipitem-103</linkclipref>
							<mediatype>audio</mediatype>
							<trackindex>2</trackindex>
							<clipindex>3</clipindex>
							<groupindex>1</groupindex>
						</link>
						<logginginfo>
							<description />
							<scene />
							<shottake />
							<lognote />
							<good />
							<originalvideofilename />
							<originalaudiofilename />
						</logginginfo>
						<colorinfo>
							<lut />
							<lut1 />
							<asc_sop />
							<asc_sat />
							<lut2 />
						</colorinfo>
					<labels><label2>Caribbean</label2></labels></clipitem>
					<clipitem id="clipitem-87">
						<masterclipid>clipitem-3-287</masterclipid>
						<name>Taylor_Swift_Travis_Kelce_-_The_New_Power_Couple.mp4</name>
						<enabled>TRUE</enabled>
						<duration>150</duration>
						<rate>
							<timebase>25</timebase>
							<ntsc>FALSE</ntsc>
						</rate>
						<start>148350</start>
						<end>148500</end>
						<in>42900</in>
						<out>43050</out>
						<pproTicksIn>0</pproTicksIn>
						<pproTicksOut>875013995520000</pproTicksOut>
						<alphatype>none</alphatype>
						<pixelaspectratio>square</pixelaspectratio>
						<anamorphic>FALSE</anamorphic>
						<file id="file-31">
							<name>Taylor_Swift_Travis_Kelce_-_The_New_Power_Couple.mp4</name>
							<pathurl>file://localhost/Users/themalikano/Documents/VideoAutomation/premiere_videos/Taylor_Swift_Travis_Kelce_-_The_New_Power_Couple.mp4</pathurl>
							<rate>
								<timebase>25</timebase>
								<ntsc>FALSE</ntsc>
							</rate>
							<duration>86118</duration>
							<timecode>
								<rate>
									<timebase>25</timebase>
									<ntsc>FALSE</ntsc>
								</rate>
								<string>00:00:00:00</string>
								<frame>0</frame>
								<displayformat>NDF</displayformat>
							</timecode>
							<media>
								<video>
									<samplecharacteristics>
										<rate>
											<timebase>25</timebase>
											<ntsc>FALSE</ntsc>
										</rate>
										<width>1920</width>
										<height>1080</height>
										<anamorphic>FALSE</anamorphic>
										<pixelaspectratio>square</pixelaspectratio>
										<fielddominance>none</fielddominance>
									</samplecharacteristics>
								</video>
								<audio>
									<samplecharacteristics>
										<depth>16</depth>
										<samplerate>44100</samplerate>
									</samplecharacteristics>
									<channelcount>2</channelcount>
								</audio>
							</media>
						</file>
						<link>
							<linkclipref>clipitem-87</linkclipref>
							<mediatype>video</mediatype>
							<trackindex>1</trackindex>
							<clipindex>3</clipindex>
						</link>
						<link>
							<linkclipref>clipitem-95</linkclipref>
							<mediatype>audio</mediatype>
							<trackindex>1</trackindex>
							<clipindex>3</clipindex>
							<groupindex>1</groupindex>
						</link>
						<link>
							<linkclipref>clipitem-103</linkclipref>
							<mediatype>audio</mediatype>
							<trackindex>2</trackindex>
							<clipindex>3</clipindex>
							<groupindex>1</groupindex>
						</link>
						<logginginfo>
							<description />
							<scene />
							<shottake />
							<lognote />
							<good />
							<originalvideofilename />
							<originalaudiofilename />
						</logginginfo>
						<colorinfo>
							<lut />
							<lut1 />
							<asc_sop />
							<asc_sat />
							<lut2 />
						</colorinfo>
					<labels><label2>Caribbean</label2></labels></clipitem>
					<clipitem id="clipitem-87">
						<masterclipid>clipitem-3-492</masterclipid>
						<name>Taylor_Swift_Travis_Kelce_-_The_New_Power_Couple.mp4</name>
						<enabled>TRUE</enabled>
						<duration>150</duration>
						<rate>
							<timebase>25</timebase>
							<ntsc>FALSE</ntsc>
						</rate>
						<start>148500</start>
						<end>148650</end>
						<in>73650</in>
						<out>73800</out>
						<pproTicksIn>0</pproTicksIn>
						<pproTicksOut>875013995520000</pproTicksOut>
						<alphatype>none</alphatype>
						<pixelaspectratio>square</pixelaspectratio>
						<anamorphic>FALSE</anamorphic>
						<file id="file-31">
							<name>Taylor_Swift_Travis_Kelce_-_The_New_Power_Couple.mp4</name>
							<pathurl>file://localhost/Users/themalikano/Documents/VideoAutomation/premiere_videos/Taylor_Swift_Travis_Kelce_-_The_New_Power_Couple.mp4</pathurl>
							<rate>
								<timebase>25</timebase>
								<ntsc>FALSE</ntsc>
							</rate>
							<duration>86118</duration>
							<timecode>
								<rate>
									<timebase>25</timebase>
									<ntsc>FALSE</ntsc>
								</rate>
								<string>00:00:00:00</string>
								<frame>0</frame>
								<displayformat>NDF</displayformat>
							</timecode>
							<media>
								<video>
									<samplecharacteristics>
										<rate>
											<timebase>25</timebase>
											<ntsc>FALSE</ntsc>
										</rate>
										<width>1920</width>
										<height>1080</height>
										<anamorphic>FALSE</anamorphic>
										<pixelaspectratio>square</pixelaspectratio>
										<fielddominance>none</fielddominance>
									</samplecharacteristics>
								</video>
								<audio>
									<samplecharacteristics>
										<depth>16</depth>
										<samplerate>44100</samplerate>
									</samplecharacteristics>
									<channelcount>2</channelcount>
								</audio>
							</media>
						</file>
						<link>
							<linkclipref>clipitem-87</linkclipref>
							<mediatype>video</mediatype>
							<trackindex>1</trackindex>
							<clipindex>3</clipindex>
						</link>
						<link>
							<linkclipref>clipitem-95</linkclipref>
							<mediatype>audio</mediatype>
							<trackindex>1</trackindex>
							<clipindex>3</clipindex>
							<groupindex>1</groupindex>
						</link>
						<link>
							<linkclipref>clipitem-103</linkclipref>
							<mediatype>audio</mediatype>
							<trackindex>2</trackindex>
							<clipindex>3</clipindex>
							<groupindex>1</groupindex>
						</link>
						<logginginfo>
							<description />
							<scene />
							<shottake />
							<lognote />
							<good />
							<originalvideofilename />
							<originalaudiofilename />
						</logginginfo>
						<colorinfo>
							<lut />
							<lut1 />
							<asc_sop />
							<asc_sat />
							<lut2 />
						</colorinfo>
					<labels><label2>Caribbean</label2></labels></clipitem>
					<clipitem id="clipitem-87">
						<masterclipid>clipitem-3-40</masterclipid>
						<name>Taylor_Swift_Travis_Kelce_-_The_New_Power_Couple.mp4</name>
						<enabled>TRUE</enabled>
						<duration>150</duration>
						<rate>
							<timebase>25</timebase>
							<ntsc>FALSE</ntsc>
						</rate>
						<start>148650</start>
						<end>148800</end>
						<in>5850</in>
						<out>6000</out>
						<pproTicksIn>0</pproTicksIn>
						<pproTicksOut>875013995520000</pproTicksOut>
						<alphatype>none</alphatype>
						<pixelaspectratio>square</pixelaspectratio>
						<anamorphic>FALSE</anamorphic>
						<file id="file-31">
							<name>Taylor_Swift_Travis_Kelce_-_The_New_Power_Couple.mp4</name>
							<pathurl>file://localhost/Users/themalikano/Documents/VideoAutomation/premiere_videos/Taylor_Swift_Travis_Kelce_-_The_New_Power_Couple.mp4</pathurl>
							<rate>
								<timebase>25</timebase>
								<ntsc>FALSE</ntsc>
							</rate>
							<duration>86118</duration>
							<timecode>
								<rate>
									<timebase>25</timebase>
									<ntsc>FALSE</ntsc>
								</rate>
								<string>00:00:00:00</string>
								<frame>0</frame>
								<displayformat>NDF</displayformat>
							</timecode>
							<media>
								<video>
									<samplecharacteristics>
										<rate>
											<timebase>25</timebase>
											<ntsc>FALSE</ntsc>
										</rate>
										<width>1920</width>
										<height>1080</height>
										<anamorphic>FALSE</anamorphic>
										<pixelaspectratio>square</pixelaspectratio>
										<fielddominance>none</fielddominance>
									</samplecharacteristics>
								</video>
								<audio>
									<samplecharacteristics>
										<depth>16</depth>
										<samplerate>44100</samplerate>
									</samplecharacteristics>
									<channelcount>2</channelcount>
								</audio>
							</media>
						</file>
						<link>
							<linkclipref>clipitem-87</linkclipref>
							<mediatype>video</mediatype>
							<trackindex>1</trackindex>
							<clipindex>3</clipindex>
						</link>
						<link>
							<linkclipref>clipitem-95</linkclipref>
							<mediatype>audio</mediatype>
							<trackindex>1</trackindex>
							<clipindex>3</clipindex>
							<groupindex>1</groupindex>
						</link>
						<link>
							<linkclipref>clipitem-103</linkclipref>
							<mediatype>audio</mediatype>
							<trackindex>2</trackindex>
							<clipindex>3</clipindex>
							<groupindex>1</groupindex>
						</link>
						<logginginfo>
							<description />
							<scene />
							<shottake />
							<lognote />
							<good />
							<originalvideofilename />
							<originalaudiofilename />
						</logginginfo>
						<colorinfo>
							<lut />
							<lut1 />
							<asc_sop />
							<asc_sat />
							<lut2 />
						</colorinfo>
					<labels><label2>Caribbean</label2></labels></clipitem>
					<clipitem id="clipitem-87">
						<masterclipid>clipitem-3-207</masterclipid>
						<name>Taylor_Swift_Travis_Kelce_-_The_New_Power_Couple.mp4</name>
						<enabled>TRUE</enabled>
						<duration>150</duration>
						<rate>
							<timebase>25</timebase>
							<ntsc>FALSE</ntsc>
						</rate>
						<start>148800</start>
						<end>148950</end>
						<in>30900</in>
						<out>31050</out>
						<pproTicksIn>0</pproTicksIn>
						<pproTicksOut>875013995520000</pproTicksOut>
						<alphatype>none</alphatype>
						<pixelaspectratio>square</pixelaspectratio>
						<anamorphic>FALSE</anamorphic>
						<file id="file-31">
							<name>Taylor_Swift_Travis_Kelce_-_The_New_Power_Couple.mp4</name>
							<pathurl>file://localhost/Users/themalikano/Documents/VideoAutomation/premiere_videos/Taylor_Swift_Travis_Kelce_-_The_New_Power_Couple.mp4</pathurl>
							<rate>
								<timebase>25</timebase>
								<ntsc>FALSE</ntsc>
							</rate>
							<duration>86118</duration>
							<timecode>
								<rate>
									<timebase>25</timebase>
									<ntsc>FALSE</ntsc>
								</rate>
								<string>00:00:00:00</string>
								<frame>0</frame>
								<displayformat>NDF</displayformat>
							</timecode>
							<media>
								<video>
									<samplecharacteristics>
										<rate>
											<timebase>25</timebase>
											<ntsc>FALSE</ntsc>
										</rate>
										<width>1920</width>
										<height>1080</height>
										<anamorphic>FALSE</anamorphic>
										<pixelaspectratio>square</pixelaspectratio>
										<fielddominance>none</fielddominance>
									</samplecharacteristics>
								</video>
								<audio>
									<samplecharacteristics>
										<depth>16</depth>
										<samplerate>44100</samplerate>
									</samplecharacteristics>
									<channelcount>2</channelcount>
								</audio>
							</media>
						</file>
						<link>
							<linkclipref>clipitem-87</linkclipref>
							<mediatype>video</mediatype>
							<trackindex>1</trackindex>
							<clipindex>3</clipindex>
						</link>
						<link>
							<linkclipref>clipitem-95</linkclipref>
							<mediatype>audio</mediatype>
							<trackindex>1</trackindex>
							<clipindex>3</clipindex>
							<groupindex>1</groupindex>
						</link>
						<link>
							<linkclipref>clipitem-103</linkclipref>
							<mediatype>audio</mediatype>
							<trackindex>2</trackindex>
							<clipindex>3</clipindex>
							<groupindex>1</groupindex>
						</link>
						<logginginfo>
							<description />
							<scene />
							<shottake />
							<lognote />
							<good />
							<originalvideofilename />
							<originalaudiofilename />
						</logginginfo>
						<colorinfo>
							<lut />
							<lut1 />
							<asc_sop />
							<asc_sat />
							<lut2 />
						</colorinfo>
					<labels><label2>Caribbean</label2></labels></clipitem>
					<clipitem id="clipitem-87">
						<masterclipid>clipitem-3-72</masterclipid>
						<name>Taylor_Swift_Travis_Kelce_-_The_New_Power_Couple.mp4</name>
						<enabled>TRUE</enabled>
						<duration>150</duration>
						<rate>
							<timebase>25</timebase>
							<ntsc>FALSE</ntsc>
						</rate>
						<start>148950</start>
						<end>149100</end>
						<in>10650</in>
						<out>10800</out>
						<pproTicksIn>0</pproTicksIn>
						<pproTicksOut>875013995520000</pproTicksOut>
						<alphatype>none</alphatype>
						<pixelaspectratio>square</pixelaspectratio>
						<anamorphic>FALSE</anamorphic>
						<file id="file-31">
							<name>Taylor_Swift_Travis_Kelce_-_The_New_Power_Couple.mp4</name>
							<pathurl>file://localhost/Users/themalikano/Documents/VideoAutomation/premiere_videos/Taylor_Swift_Travis_Kelce_-_The_New_Power_Couple.mp4</pathurl>
							<rate>
								<timebase>25</timebase>
								<ntsc>FALSE</ntsc>
							</rate>
							<duration>86118</duration>
							<timecode>
								<rate>
									<timebase>25</timebase>
									<ntsc>FALSE</ntsc>
								</rate>
								<string>00:00:00:00</string>
								<frame>0</frame>
								<displayformat>NDF</displayformat>
							</timecode>
							<media>
								<video>
									<samplecharacteristics>
										<rate>
											<timebase>25</timebase>
											<ntsc>FALSE</ntsc>
										</rate>
										<width>1920</width>
										<height>1080</height>
										<anamorphic>FALSE</anamorphic>
										<pixelaspectratio>square</pixelaspectratio>
										<fielddominance>none</fielddominance>
									</samplecharacteristics>
								</video>
								<audio>
									<samplecharacteristics>
										<depth>16</depth>
										<samplerate>44100</samplerate>
									</samplecharacteristics>
									<channelcount>2</channelcount>
								</audio>
							</media>
						</file>
						<link>
							<linkclipref>clipitem-87</linkclipref>
							<mediatype>video</mediatype>
							<trackindex>1</trackindex>
							<clipindex>3</clipindex>
						</link>
						<link>
							<linkclipref>clipitem-95</linkclipref>
							<mediatype>audio</mediatype>
							<trackindex>1</trackindex>
							<clipindex>3</clipindex>
							<groupindex>1</groupindex>
						</link>
						<link>
							<linkclipref>clipitem-103</linkclipref>
							<mediatype>audio</mediatype>
							<trackindex>2</trackindex>
							<clipindex>3</clipindex>
							<groupindex>1</groupindex>
						</link>
						<logginginfo>
							<description />
							<scene />
							<shottake />
							<lognote />
							<good />
							<originalvideofilename />
							<originalaudiofilename />
						</logginginfo>
						<colorinfo>
							<lut />
							<lut1 />
							<asc_sop />
							<asc_sat />
							<lut2 />
						</colorinfo>
					<labels><label2>Caribbean</label2></labels></clipitem>
					<clipitem id="clipitem-87">
						<masterclipid>clipitem-3-39</masterclipid>
						<name>Taylor_Swift_Travis_Kelce_-_The_New_Power_Couple.mp4</name>
						<enabled>TRUE</enabled>
						<duration>150</duration>
						<rate>
							<timebase>25</timebase>
							<ntsc>FALSE</ntsc>
						</rate>
						<start>149100</start>
						<end>149250</end>
						<in>5700</in>
						<out>5850</out>
						<pproTicksIn>0</pproTicksIn>
						<pproTicksOut>875013995520000</pproTicksOut>
						<alphatype>none</alphatype>
						<pixelaspectratio>square</pixelaspectratio>
						<anamorphic>FALSE</anamorphic>
						<file id="file-31">
							<name>Taylor_Swift_Travis_Kelce_-_The_New_Power_Couple.mp4</name>
							<pathurl>file://localhost/Users/themalikano/Documents/VideoAutomation/premiere_videos/Taylor_Swift_Travis_Kelce_-_The_New_Power_Couple.mp4</pathurl>
							<rate>
								<timebase>25</timebase>
								<ntsc>FALSE</ntsc>
							</rate>
							<duration>86118</duration>
							<timecode>
								<rate>
									<timebase>25</timebase>
									<ntsc>FALSE</ntsc>
								</rate>
								<string>00:00:00:00</string>
								<frame>0</frame>
								<displayformat>NDF</displayformat>
							</timecode>
							<media>
								<video>
									<samplecharacteristics>
										<rate>
											<timebase>25</timebase>
											<ntsc>FALSE</ntsc>
										</rate>
										<width>1920</width>
										<height>1080</height>
										<anamorphic>FALSE</anamorphic>
										<pixelaspectratio>square</pixelaspectratio>
										<fielddominance>none</fielddominance>
									</samplecharacteristics>
								</video>
								<audio>
									<samplecharacteristics>
										<depth>16</depth>
										<samplerate>44100</samplerate>
									</samplecharacteristics>
									<channelcount>2</channelcount>
								</audio>
							</media>
						</file>
						<link>
							<linkclipref>clipitem-87</linkclipref>
							<mediatype>video</mediatype>
							<trackindex>1</trackindex>
							<clipindex>3</clipindex>
						</link>
						<link>
							<linkclipref>clipitem-95</linkclipref>
							<mediatype>audio</mediatype>
							<trackindex>1</trackindex>
							<clipindex>3</clipindex>
							<groupindex>1</groupindex>
						</link>
						<link>
							<linkclipref>clipitem-103</linkclipref>
							<mediatype>audio</mediatype>
							<trackindex>2</trackindex>
							<clipindex>3</clipindex>
							<groupindex>1</groupindex>
						</link>
						<logginginfo>
							<description />
							<scene />
							<shottake />
							<lognote />
							<good />
							<originalvideofilename />
							<originalaudiofilename />
						</logginginfo>
						<colorinfo>
							<lut />
							<lut1 />
							<asc_sop />
							<asc_sat />
							<lut2 />
						</colorinfo>
					<labels><label2>Caribbean</label2></labels></clipitem>
					<clipitem id="clipitem-87">
						<masterclipid>clipitem-3-360</masterclipid>
						<name>Taylor_Swift_Travis_Kelce_-_The_New_Power_Couple.mp4</name>
						<enabled>TRUE</enabled>
						<duration>150</duration>
						<rate>
							<timebase>25</timebase>
							<ntsc>FALSE</ntsc>
						</rate>
						<start>149250</start>
						<end>149400</end>
						<in>53850</in>
						<out>54000</out>
						<pproTicksIn>0</pproTicksIn>
						<pproTicksOut>875013995520000</pproTicksOut>
						<alphatype>none</alphatype>
						<pixelaspectratio>square</pixelaspectratio>
						<anamorphic>FALSE</anamorphic>
						<file id="file-31">
							<name>Taylor_Swift_Travis_Kelce_-_The_New_Power_Couple.mp4</name>
							<pathurl>file://localhost/Users/themalikano/Documents/VideoAutomation/premiere_videos/Taylor_Swift_Travis_Kelce_-_The_New_Power_Couple.mp4</pathurl>
							<rate>
								<timebase>25</timebase>
								<ntsc>FALSE</ntsc>
							</rate>
							<duration>86118</duration>
							<timecode>
								<rate>
									<timebase>25</timebase>
									<ntsc>FALSE</ntsc>
								</rate>
								<string>00:00:00:00</string>
								<frame>0</frame>
								<displayformat>NDF</displayformat>
							</timecode>
							<media>
								<video>
									<samplecharacteristics>
										<rate>
											<timebase>25</timebase>
											<ntsc>FALSE</ntsc>
										</rate>
										<width>1920</width>
										<height>1080</height>
										<anamorphic>FALSE</anamorphic>
										<pixelaspectratio>square</pixelaspectratio>
										<fielddominance>none</fielddominance>
									</samplecharacteristics>
								</video>
								<audio>
									<samplecharacteristics>
										<depth>16</depth>
										<samplerate>44100</samplerate>
									</samplecharacteristics>
									<channelcount>2</channelcount>
								</audio>
							</media>
						</file>
						<link>
							<linkclipref>clipitem-87</linkclipref>
							<mediatype>video</mediatype>
							<trackindex>1</trackindex>
							<clipindex>3</clipindex>
						</link>
						<link>
							<linkclipref>clipitem-95</linkclipref>
							<mediatype>audio</mediatype>
							<trackindex>1</trackindex>
							<clipindex>3</clipindex>
							<groupindex>1</groupindex>
						</link>
						<link>
							<linkclipref>clipitem-103</linkclipref>
							<mediatype>audio</mediatype>
							<trackindex>2</trackindex>
							<clipindex>3</clipindex>
							<groupindex>1</groupindex>
						</link>
						<logginginfo>
							<description />
							<scene />
							<shottake />
							<lognote />
							<good />
							<originalvideofilename />
							<originalaudiofilename />
						</logginginfo>
						<colorinfo>
							<lut />
							<lut1 />
							<asc_sop />
							<asc_sat />
							<lut2 />
						</colorinfo>
					<labels><label2>Caribbean</label2></labels></clipitem>
					<clipitem id="clipitem-87">
						<masterclipid>clipitem-3-450</masterclipid>
						<name>Taylor_Swift_Travis_Kelce_-_The_New_Power_Couple.mp4</name>
						<enabled>TRUE</enabled>
						<duration>150</duration>
						<rate>
							<timebase>25</timebase>
							<ntsc>FALSE</ntsc>
						</rate>
						<start>149400</start>
						<end>149550</end>
						<in>67350</in>
						<out>67500</out>
						<pproTicksIn>0</pproTicksIn>
						<pproTicksOut>875013995520000</pproTicksOut>
						<alphatype>none</alphatype>
						<pixelaspectratio>square</pixelaspectratio>
						<anamorphic>FALSE</anamorphic>
						<file id="file-31">
							<name>Taylor_Swift_Travis_Kelce_-_The_New_Power_Couple.mp4</name>
							<pathurl>file://localhost/Users/themalikano/Documents/VideoAutomation/premiere_videos/Taylor_Swift_Travis_Kelce_-_The_New_Power_Couple.mp4</pathurl>
							<rate>
								<timebase>25</timebase>
								<ntsc>FALSE</ntsc>
							</rate>
							<duration>86118</duration>
							<timecode>
								<rate>
									<timebase>25</timebase>
									<ntsc>FALSE</ntsc>
								</rate>
								<string>00:00:00:00</string>
								<frame>0</frame>
								<displayformat>NDF</displayformat>
							</timecode>
							<media>
								<video>
									<samplecharacteristics>
										<rate>
											<timebase>25</timebase>
											<ntsc>FALSE</ntsc>
										</rate>
										<width>1920</width>
										<height>1080</height>
										<anamorphic>FALSE</anamorphic>
										<pixelaspectratio>square</pixelaspectratio>
										<fielddominance>none</fielddominance>
									</samplecharacteristics>
								</video>
								<audio>
									<samplecharacteristics>
										<depth>16</depth>
										<samplerate>44100</samplerate>
									</samplecharacteristics>
									<channelcount>2</channelcount>
								</audio>
							</media>
						</file>
						<link>
							<linkclipref>clipitem-87</linkclipref>
							<mediatype>video</mediatype>
							<trackindex>1</trackindex>
							<clipindex>3</clipindex>
						</link>
						<link>
							<linkclipref>clipitem-95</linkclipref>
							<mediatype>audio</mediatype>
							<trackindex>1</trackindex>
							<clipindex>3</clipindex>
							<groupindex>1</groupindex>
						</link>
						<link>
							<linkclipref>clipitem-103</linkclipref>
							<mediatype>audio</mediatype>
							<trackindex>2</trackindex>
							<clipindex>3</clipindex>
							<groupindex>1</groupindex>
						</link>
						<logginginfo>
							<description />
							<scene />
							<shottake />
							<lognote />
							<good />
							<originalvideofilename />
							<originalaudiofilename />
						</logginginfo>
						<colorinfo>
							<lut />
							<lut1 />
							<asc_sop />
							<asc_sat />
							<lut2 />
						</colorinfo>
					<labels><label2>Caribbean</label2></labels></clipitem>
					<clipitem id="clipitem-87">
						<masterclipid>clipitem-3-59</masterclipid>
						<name>Taylor_Swift_Travis_Kelce_-_The_New_Power_Couple.mp4</name>
						<enabled>TRUE</enabled>
						<duration>150</duration>
						<rate>
							<timebase>25</timebase>
							<ntsc>FALSE</ntsc>
						</rate>
						<start>149550</start>
						<end>149700</end>
						<in>8700</in>
						<out>8850</out>
						<pproTicksIn>0</pproTicksIn>
						<pproTicksOut>875013995520000</pproTicksOut>
						<alphatype>none</alphatype>
						<pixelaspectratio>square</pixelaspectratio>
						<anamorphic>FALSE</anamorphic>
						<file id="file-31">
							<name>Taylor_Swift_Travis_Kelce_-_The_New_Power_Couple.mp4</name>
							<pathurl>file://localhost/Users/themalikano/Documents/VideoAutomation/premiere_videos/Taylor_Swift_Travis_Kelce_-_The_New_Power_Couple.mp4</pathurl>
							<rate>
								<timebase>25</timebase>
								<ntsc>FALSE</ntsc>
							</rate>
							<duration>86118</duration>
							<timecode>
								<rate>
									<timebase>25</timebase>
									<ntsc>FALSE</ntsc>
								</rate>
								<string>00:00:00:00</string>
								<frame>0</frame>
								<displayformat>NDF</displayformat>
							</timecode>
							<media>
								<video>
									<samplecharacteristics>
										<rate>
											<timebase>25</timebase>
											<ntsc>FALSE</ntsc>
										</rate>
										<width>1920</width>
										<height>1080</height>
										<anamorphic>FALSE</anamorphic>
										<pixelaspectratio>square</pixelaspectratio>
										<fielddominance>none</fielddominance>
									</samplecharacteristics>
								</video>
								<audio>
									<samplecharacteristics>
										<depth>16</depth>
										<samplerate>44100</samplerate>
									</samplecharacteristics>
									<channelcount>2</channelcount>
								</audio>
							</media>
						</file>
						<link>
							<linkclipref>clipitem-87</linkclipref>
							<mediatype>video</mediatype>
							<trackindex>1</trackindex>
							<clipindex>3</clipindex>
						</link>
						<link>
							<linkclipref>clipitem-95</linkclipref>
							<mediatype>audio</mediatype>
							<trackindex>1</trackindex>
							<clipindex>3</clipindex>
							<groupindex>1</groupindex>
						</link>
						<link>
							<linkclipref>clipitem-103</linkclipref>
							<mediatype>audio</mediatype>
							<trackindex>2</trackindex>
							<clipindex>3</clipindex>
							<groupindex>1</groupindex>
						</link>
						<logginginfo>
							<description />
							<scene />
							<shottake />
							<lognote />
							<good />
							<originalvideofilename />
							<originalaudiofilename />
						</logginginfo>
						<colorinfo>
							<lut />
							<lut1 />
							<asc_sop />
							<asc_sat />
							<lut2 />
						</colorinfo>
					<labels><label2>Caribbean</label2></labels></clipitem>
					<clipitem id="clipitem-87">
						<masterclipid>clipitem-3-97</masterclipid>
						<name>Taylor_Swift_Travis_Kelce_-_The_New_Power_Couple.mp4</name>
						<enabled>TRUE</enabled>
						<duration>150</duration>
						<rate>
							<timebase>25</timebase>
							<ntsc>FALSE</ntsc>
						</rate>
						<start>149700</start>
						<end>149850</end>
						<in>14400</in>
						<out>14550</out>
						<pproTicksIn>0</pproTicksIn>
						<pproTicksOut>875013995520000</pproTicksOut>
						<alphatype>none</alphatype>
						<pixelaspectratio>square</pixelaspectratio>
						<anamorphic>FALSE</anamorphic>
						<file id="file-31">
							<name>Taylor_Swift_Travis_Kelce_-_The_New_Power_Couple.mp4</name>
							<pathurl>file://localhost/Users/themalikano/Documents/VideoAutomation/premiere_videos/Taylor_Swift_Travis_Kelce_-_The_New_Power_Couple.mp4</pathurl>
							<rate>
								<timebase>25</timebase>
								<ntsc>FALSE</ntsc>
							</rate>
							<duration>86118</duration>
							<timecode>
								<rate>
									<timebase>25</timebase>
									<ntsc>FALSE</ntsc>
								</rate>
								<string>00:00:00:00</string>
								<frame>0</frame>
								<displayformat>NDF</displayformat>
							</timecode>
							<media>
								<video>
									<samplecharacteristics>
										<rate>
											<timebase>25</timebase>
											<ntsc>FALSE</ntsc>
										</rate>
										<width>1920</width>
										<height>1080</height>
										<anamorphic>FALSE</anamorphic>
										<pixelaspectratio>square</pixelaspectratio>
										<fielddominance>none</fielddominance>
									</samplecharacteristics>
								</video>
								<audio>
									<samplecharacteristics>
										<depth>16</depth>
										<samplerate>44100</samplerate>
									</samplecharacteristics>
									<channelcount>2</channelcount>
								</audio>
							</media>
						</file>
						<link>
							<linkclipref>clipitem-87</linkclipref>
							<mediatype>video</mediatype>
							<trackindex>1</trackindex>
							<clipindex>3</clipindex>
						</link>
						<link>
							<linkclipref>clipitem-95</linkclipref>
							<mediatype>audio</mediatype>
							<trackindex>1</trackindex>
							<clipindex>3</clipindex>
							<groupindex>1</groupindex>
						</link>
						<link>
							<linkclipref>clipitem-103</linkclipref>
							<mediatype>audio</mediatype>
							<trackindex>2</trackindex>
							<clipindex>3</clipindex>
							<groupindex>1</groupindex>
						</link>
						<logginginfo>
							<description />
							<scene />
							<shottake />
							<lognote />
							<good />
							<originalvideofilename />
							<originalaudiofilename />
						</logginginfo>
						<colorinfo>
							<lut />
							<lut1 />
							<asc_sop />
							<asc_sat />
							<lut2 />
						</colorinfo>
					<labels><label2>Caribbean</label2></labels></clipitem>
					<clipitem id="clipitem-87">
						<masterclipid>clipitem-3-255</masterclipid>
						<name>Taylor_Swift_Travis_Kelce_-_The_New_Power_Couple.mp4</name>
						<enabled>TRUE</enabled>
						<duration>150</duration>
						<rate>
							<timebase>25</timebase>
							<ntsc>FALSE</ntsc>
						</rate>
						<start>149850</start>
						<end>150000</end>
						<in>38100</in>
						<out>38250</out>
						<pproTicksIn>0</pproTicksIn>
						<pproTicksOut>875013995520000</pproTicksOut>
						<alphatype>none</alphatype>
						<pixelaspectratio>square</pixelaspectratio>
						<anamorphic>FALSE</anamorphic>
						<file id="file-31">
							<name>Taylor_Swift_Travis_Kelce_-_The_New_Power_Couple.mp4</name>
							<pathurl>file://localhost/Users/themalikano/Documents/VideoAutomation/premiere_videos/Taylor_Swift_Travis_Kelce_-_The_New_Power_Couple.mp4</pathurl>
							<rate>
								<timebase>25</timebase>
								<ntsc>FALSE</ntsc>
							</rate>
							<duration>86118</duration>
							<timecode>
								<rate>
									<timebase>25</timebase>
									<ntsc>FALSE</ntsc>
								</rate>
								<string>00:00:00:00</string>
								<frame>0</frame>
								<displayformat>NDF</displayformat>
							</timecode>
							<media>
								<video>
									<samplecharacteristics>
										<rate>
											<timebase>25</timebase>
											<ntsc>FALSE</ntsc>
										</rate>
										<width>1920</width>
										<height>1080</height>
										<anamorphic>FALSE</anamorphic>
										<pixelaspectratio>square</pixelaspectratio>
										<fielddominance>none</fielddominance>
									</samplecharacteristics>
								</video>
								<audio>
									<samplecharacteristics>
										<depth>16</depth>
										<samplerate>44100</samplerate>
									</samplecharacteristics>
									<channelcount>2</channelcount>
								</audio>
							</media>
						</file>
						<link>
							<linkclipref>clipitem-87</linkclipref>
							<mediatype>video</mediatype>
							<trackindex>1</trackindex>
							<clipindex>3</clipindex>
						</link>
						<link>
							<linkclipref>clipitem-95</linkclipref>
							<mediatype>audio</mediatype>
							<trackindex>1</trackindex>
							<clipindex>3</clipindex>
							<groupindex>1</groupindex>
						</link>
						<link>
							<linkclipref>clipitem-103</linkclipref>
							<mediatype>audio</mediatype>
							<trackindex>2</trackindex>
							<clipindex>3</clipindex>
							<groupindex>1</groupindex>
						</link>
						<logginginfo>
							<description />
							<scene />
							<shottake />
							<lognote />
							<good />
							<originalvideofilename />
							<originalaudiofilename />
						</logginginfo>
						<colorinfo>
							<lut />
							<lut1 />
							<asc_sop />
							<asc_sat />
							<lut2 />
						</colorinfo>
					<labels><label2>Caribbean</label2></labels></clipitem>
					<clipitem id="clipitem-87">
						<masterclipid>clipitem-3-7</masterclipid>
						<name>Taylor_Swift_Travis_Kelce_-_The_New_Power_Couple.mp4</name>
						<enabled>TRUE</enabled>
						<duration>150</duration>
						<rate>
							<timebase>25</timebase>
							<ntsc>FALSE</ntsc>
						</rate>
						<start>150000</start>
						<end>150150</end>
						<in>900</in>
						<out>1050</out>
						<pproTicksIn>0</pproTicksIn>
						<pproTicksOut>875013995520000</pproTicksOut>
						<alphatype>none</alphatype>
						<pixelaspectratio>square</pixelaspectratio>
						<anamorphic>FALSE</anamorphic>
						<file id="file-31">
							<name>Taylor_Swift_Travis_Kelce_-_The_New_Power_Couple.mp4</name>
							<pathurl>file://localhost/Users/themalikano/Documents/VideoAutomation/premiere_videos/Taylor_Swift_Travis_Kelce_-_The_New_Power_Couple.mp4</pathurl>
							<rate>
								<timebase>25</timebase>
								<ntsc>FALSE</ntsc>
							</rate>
							<duration>86118</duration>
							<timecode>
								<rate>
									<timebase>25</timebase>
									<ntsc>FALSE</ntsc>
								</rate>
								<string>00:00:00:00</string>
								<frame>0</frame>
								<displayformat>NDF</displayformat>
							</timecode>
							<media>
								<video>
									<samplecharacteristics>
										<rate>
											<timebase>25</timebase>
											<ntsc>FALSE</ntsc>
										</rate>
										<width>1920</width>
										<height>1080</height>
										<anamorphic>FALSE</anamorphic>
										<pixelaspectratio>square</pixelaspectratio>
										<fielddominance>none</fielddominance>
									</samplecharacteristics>
								</video>
								<audio>
									<samplecharacteristics>
										<depth>16</depth>
										<samplerate>44100</samplerate>
									</samplecharacteristics>
									<channelcount>2</channelcount>
								</audio>
							</media>
						</file>
						<link>
							<linkclipref>clipitem-87</linkclipref>
							<mediatype>video</mediatype>
							<trackindex>1</trackindex>
							<clipindex>3</clipindex>
						</link>
						<link>
							<linkclipref>clipitem-95</linkclipref>
							<mediatype>audio</mediatype>
							<trackindex>1</trackindex>
							<clipindex>3</clipindex>
							<groupindex>1</groupindex>
						</link>
						<link>
							<linkclipref>clipitem-103</linkclipref>
							<mediatype>audio</mediatype>
							<trackindex>2</trackindex>
							<clipindex>3</clipindex>
							<groupindex>1</groupindex>
						</link>
						<logginginfo>
							<description />
							<scene />
							<shottake />
							<lognote />
							<good />
							<originalvideofilename />
							<originalaudiofilename />
						</logginginfo>
						<colorinfo>
							<lut />
							<lut1 />
							<asc_sop />
							<asc_sat />
							<lut2 />
						</colorinfo>
					<labels><label2>Caribbean</label2></labels></clipitem>
					<clipitem id="clipitem-87">
						<masterclipid>clipitem-3-515</masterclipid>
						<name>Taylor_Swift_Travis_Kelce_-_The_New_Power_Couple.mp4</name>
						<enabled>TRUE</enabled>
						<duration>150</duration>
						<rate>
							<timebase>25</timebase>
							<ntsc>FALSE</ntsc>
						</rate>
						<start>150150</start>
						<end>150300</end>
						<in>77100</in>
						<out>77250</out>
						<pproTicksIn>0</pproTicksIn>
						<pproTicksOut>875013995520000</pproTicksOut>
						<alphatype>none</alphatype>
						<pixelaspectratio>square</pixelaspectratio>
						<anamorphic>FALSE</anamorphic>
						<file id="file-31">
							<name>Taylor_Swift_Travis_Kelce_-_The_New_Power_Couple.mp4</name>
							<pathurl>file://localhost/Users/themalikano/Documents/VideoAutomation/premiere_videos/Taylor_Swift_Travis_Kelce_-_The_New_Power_Couple.mp4</pathurl>
							<rate>
								<timebase>25</timebase>
								<ntsc>FALSE</ntsc>
							</rate>
							<duration>86118</duration>
							<timecode>
								<rate>
									<timebase>25</timebase>
									<ntsc>FALSE</ntsc>
								</rate>
								<string>00:00:00:00</string>
								<frame>0</frame>
								<displayformat>NDF</displayformat>
							</timecode>
							<media>
								<video>
									<samplecharacteristics>
										<rate>
											<timebase>25</timebase>
											<ntsc>FALSE</ntsc>
										</rate>
										<width>1920</width>
										<height>1080</height>
										<anamorphic>FALSE</anamorphic>
										<pixelaspectratio>square</pixelaspectratio>
										<fielddominance>none</fielddominance>
									</samplecharacteristics>
								</video>
								<audio>
									<samplecharacteristics>
										<depth>16</depth>
										<samplerate>44100</samplerate>
									</samplecharacteristics>
									<channelcount>2</channelcount>
								</audio>
							</media>
						</file>
						<link>
							<linkclipref>clipitem-87</linkclipref>
							<mediatype>video</mediatype>
							<trackindex>1</trackindex>
							<clipindex>3</clipindex>
						</link>
						<link>
							<linkclipref>clipitem-95</linkclipref>
							<mediatype>audio</mediatype>
							<trackindex>1</trackindex>
							<clipindex>3</clipindex>
							<groupindex>1</groupindex>
						</link>
						<link>
							<linkclipref>clipitem-103</linkclipref>
							<mediatype>audio</mediatype>
							<trackindex>2</trackindex>
							<clipindex>3</clipindex>
							<groupindex>1</groupindex>
						</link>
						<logginginfo>
							<description />
							<scene />
							<shottake />
							<lognote />
							<good />
							<originalvideofilename />
							<originalaudiofilename />
						</logginginfo>
						<colorinfo>
							<lut />
							<lut1 />
							<asc_sop />
							<asc_sat />
							<lut2 />
						</colorinfo>
					<labels><label2>Caribbean</label2></labels></clipitem>
					<clipitem id="clipitem-87">
						<masterclipid>clipitem-3-163</masterclipid>
						<name>Taylor_Swift_Travis_Kelce_-_The_New_Power_Couple.mp4</name>
						<enabled>TRUE</enabled>
						<duration>150</duration>
						<rate>
							<timebase>25</timebase>
							<ntsc>FALSE</ntsc>
						</rate>
						<start>150300</start>
						<end>150450</end>
						<in>24300</in>
						<out>24450</out>
						<pproTicksIn>0</pproTicksIn>
						<pproTicksOut>875013995520000</pproTicksOut>
						<alphatype>none</alphatype>
						<pixelaspectratio>square</pixelaspectratio>
						<anamorphic>FALSE</anamorphic>
						<file id="file-31">
							<name>Taylor_Swift_Travis_Kelce_-_The_New_Power_Couple.mp4</name>
							<pathurl>file://localhost/Users/themalikano/Documents/VideoAutomation/premiere_videos/Taylor_Swift_Travis_Kelce_-_The_New_Power_Couple.mp4</pathurl>
							<rate>
								<timebase>25</timebase>
								<ntsc>FALSE</ntsc>
							</rate>
							<duration>86118</duration>
							<timecode>
								<rate>
									<timebase>25</timebase>
									<ntsc>FALSE</ntsc>
								</rate>
								<string>00:00:00:00</string>
								<frame>0</frame>
								<displayformat>NDF</displayformat>
							</timecode>
							<media>
								<video>
									<samplecharacteristics>
										<rate>
											<timebase>25</timebase>
											<ntsc>FALSE</ntsc>
										</rate>
										<width>1920</width>
										<height>1080</height>
										<anamorphic>FALSE</anamorphic>
										<pixelaspectratio>square</pixelaspectratio>
										<fielddominance>none</fielddominance>
									</samplecharacteristics>
								</video>
								<audio>
									<samplecharacteristics>
										<depth>16</depth>
										<samplerate>44100</samplerate>
									</samplecharacteristics>
									<channelcount>2</channelcount>
								</audio>
							</media>
						</file>
						<link>
							<linkclipref>clipitem-87</linkclipref>
							<mediatype>video</mediatype>
							<trackindex>1</trackindex>
							<clipindex>3</clipindex>
						</link>
						<link>
							<linkclipref>clipitem-95</linkclipref>
							<mediatype>audio</mediatype>
							<trackindex>1</trackindex>
							<clipindex>3</clipindex>
							<groupindex>1</groupindex>
						</link>
						<link>
							<linkclipref>clipitem-103</linkclipref>
							<mediatype>audio</mediatype>
							<trackindex>2</trackindex>
							<clipindex>3</clipindex>
							<groupindex>1</groupindex>
						</link>
						<logginginfo>
							<description />
							<scene />
							<shottake />
							<lognote />
							<good />
							<originalvideofilename />
							<originalaudiofilename />
						</logginginfo>
						<colorinfo>
							<lut />
							<lut1 />
							<asc_sop />
							<asc_sat />
							<lut2 />
						</colorinfo>
					<labels><label2>Caribbean</label2></labels></clipitem>
					<clipitem id="clipitem-87">
						<masterclipid>clipitem-3-448</masterclipid>
						<name>Taylor_Swift_Travis_Kelce_-_The_New_Power_Couple.mp4</name>
						<enabled>TRUE</enabled>
						<duration>150</duration>
						<rate>
							<timebase>25</timebase>
							<ntsc>FALSE</ntsc>
						</rate>
						<start>150450</start>
						<end>150600</end>
						<in>67050</in>
						<out>67200</out>
						<pproTicksIn>0</pproTicksIn>
						<pproTicksOut>875013995520000</pproTicksOut>
						<alphatype>none</alphatype>
						<pixelaspectratio>square</pixelaspectratio>
						<anamorphic>FALSE</anamorphic>
						<file id="file-31">
							<name>Taylor_Swift_Travis_Kelce_-_The_New_Power_Couple.mp4</name>
							<pathurl>file://localhost/Users/themalikano/Documents/VideoAutomation/premiere_videos/Taylor_Swift_Travis_Kelce_-_The_New_Power_Couple.mp4</pathurl>
							<rate>
								<timebase>25</timebase>
								<ntsc>FALSE</ntsc>
							</rate>
							<duration>86118</duration>
							<timecode>
								<rate>
									<timebase>25</timebase>
									<ntsc>FALSE</ntsc>
								</rate>
								<string>00:00:00:00</string>
								<frame>0</frame>
								<displayformat>NDF</displayformat>
							</timecode>
							<media>
								<video>
									<samplecharacteristics>
										<rate>
											<timebase>25</timebase>
											<ntsc>FALSE</ntsc>
										</rate>
										<width>1920</width>
										<height>1080</height>
										<anamorphic>FALSE</anamorphic>
										<pixelaspectratio>square</pixelaspectratio>
										<fielddominance>none</fielddominance>
									</samplecharacteristics>
								</video>
								<audio>
									<samplecharacteristics>
										<depth>16</depth>
										<samplerate>44100</samplerate>
									</samplecharacteristics>
									<channelcount>2</channelcount>
								</audio>
							</media>
						</file>
						<link>
							<linkclipref>clipitem-87</linkclipref>
							<mediatype>video</mediatype>
							<trackindex>1</trackindex>
							<clipindex>3</clipindex>
						</link>
						<link>
							<linkclipref>clipitem-95</linkclipref>
							<mediatype>audio</mediatype>
							<trackindex>1</trackindex>
							<clipindex>3</clipindex>
							<groupindex>1</groupindex>
						</link>
						<link>
							<linkclipref>clipitem-103</linkclipref>
							<mediatype>audio</mediatype>
							<trackindex>2</trackindex>
							<clipindex>3</clipindex>
							<groupindex>1</groupindex>
						</link>
						<logginginfo>
							<description />
							<scene />
							<shottake />
							<lognote />
							<good />
							<originalvideofilename />
							<originalaudiofilename />
						</logginginfo>
						<colorinfo>
							<lut />
							<lut1 />
							<asc_sop />
							<asc_sat />
							<lut2 />
						</colorinfo>
					<labels><label2>Caribbean</label2></labels></clipitem>
					<clipitem id="clipitem-87">
						<masterclipid>clipitem-3-345</masterclipid>
						<name>Taylor_Swift_Travis_Kelce_-_The_New_Power_Couple.mp4</name>
						<enabled>TRUE</enabled>
						<duration>150</duration>
						<rate>
							<timebase>25</timebase>
							<ntsc>FALSE</ntsc>
						</rate>
						<start>150600</start>
						<end>150750</end>
						<in>51600</in>
						<out>51750</out>
						<pproTicksIn>0</pproTicksIn>
						<pproTicksOut>875013995520000</pproTicksOut>
						<alphatype>none</alphatype>
						<pixelaspectratio>square</pixelaspectratio>
						<anamorphic>FALSE</anamorphic>
						<file id="file-31">
							<name>Taylor_Swift_Travis_Kelce_-_The_New_Power_Couple.mp4</name>
							<pathurl>file://localhost/Users/themalikano/Documents/VideoAutomation/premiere_videos/Taylor_Swift_Travis_Kelce_-_The_New_Power_Couple.mp4</pathurl>
							<rate>
								<timebase>25</timebase>
								<ntsc>FALSE</ntsc>
							</rate>
							<duration>86118</duration>
							<timecode>
								<rate>
									<timebase>25</timebase>
									<ntsc>FALSE</ntsc>
								</rate>
								<string>00:00:00:00</string>
								<frame>0</frame>
								<displayformat>NDF</displayformat>
							</timecode>
							<media>
								<video>
									<samplecharacteristics>
										<rate>
											<timebase>25</timebase>
											<ntsc>FALSE</ntsc>
										</rate>
										<width>1920</width>
										<height>1080</height>
										<anamorphic>FALSE</anamorphic>
										<pixelaspectratio>square</pixelaspectratio>
										<fielddominance>none</fielddominance>
									</samplecharacteristics>
								</video>
								<audio>
									<samplecharacteristics>
										<depth>16</depth>
										<samplerate>44100</samplerate>
									</samplecharacteristics>
									<channelcount>2</channelcount>
								</audio>
							</media>
						</file>
						<link>
							<linkclipref>clipitem-87</linkclipref>
							<mediatype>video</mediatype>
							<trackindex>1</trackindex>
							<clipindex>3</clipindex>
						</link>
						<link>
							<linkclipref>clipitem-95</linkclipref>
							<mediatype>audio</mediatype>
							<trackindex>1</trackindex>
							<clipindex>3</clipindex>
							<groupindex>1</groupindex>
						</link>
						<link>
							<linkclipref>clipitem-103</linkclipref>
							<mediatype>audio</mediatype>
							<trackindex>2</trackindex>
							<clipindex>3</clipindex>
							<groupindex>1</groupindex>
						</link>
						<logginginfo>
							<description />
							<scene />
							<shottake />
							<lognote />
							<good />
							<originalvideofilename />
							<originalaudiofilename />
						</logginginfo>
						<colorinfo>
							<lut />
							<lut1 />
							<asc_sop />
							<asc_sat />
							<lut2 />
						</colorinfo>
					<labels><label2>Caribbean</label2></labels></clipitem>
					<clipitem id="clipitem-87">
						<masterclipid>clipitem-3-34</masterclipid>
						<name>Taylor_Swift_Travis_Kelce_-_The_New_Power_Couple.mp4</name>
						<enabled>TRUE</enabled>
						<duration>150</duration>
						<rate>
							<timebase>25</timebase>
							<ntsc>FALSE</ntsc>
						</rate>
						<start>150750</start>
						<end>150900</end>
						<in>4950</in>
						<out>5100</out>
						<pproTicksIn>0</pproTicksIn>
						<pproTicksOut>875013995520000</pproTicksOut>
						<alphatype>none</alphatype>
						<pixelaspectratio>square</pixelaspectratio>
						<anamorphic>FALSE</anamorphic>
						<file id="file-31">
							<name>Taylor_Swift_Travis_Kelce_-_The_New_Power_Couple.mp4</name>
							<pathurl>file://localhost/Users/themalikano/Documents/VideoAutomation/premiere_videos/Taylor_Swift_Travis_Kelce_-_The_New_Power_Couple.mp4</pathurl>
							<rate>
								<timebase>25</timebase>
								<ntsc>FALSE</ntsc>
							</rate>
							<duration>86118</duration>
							<timecode>
								<rate>
									<timebase>25</timebase>
									<ntsc>FALSE</ntsc>
								</rate>
								<string>00:00:00:00</string>
								<frame>0</frame>
								<displayformat>NDF</displayformat>
							</timecode>
							<media>
								<video>
									<samplecharacteristics>
										<rate>
											<timebase>25</timebase>
											<ntsc>FALSE</ntsc>
										</rate>
										<width>1920</width>
										<height>1080</height>
										<anamorphic>FALSE</anamorphic>
										<pixelaspectratio>square</pixelaspectratio>
										<fielddominance>none</fielddominance>
									</samplecharacteristics>
								</video>
								<audio>
									<samplecharacteristics>
										<depth>16</depth>
										<samplerate>44100</samplerate>
									</samplecharacteristics>
									<channelcount>2</channelcount>
								</audio>
							</media>
						</file>
						<link>
							<linkclipref>clipitem-87</linkclipref>
							<mediatype>video</mediatype>
							<trackindex>1</trackindex>
							<clipindex>3</clipindex>
						</link>
						<link>
							<linkclipref>clipitem-95</linkclipref>
							<mediatype>audio</mediatype>
							<trackindex>1</trackindex>
							<clipindex>3</clipindex>
							<groupindex>1</groupindex>
						</link>
						<link>
							<linkclipref>clipitem-103</linkclipref>
							<mediatype>audio</mediatype>
							<trackindex>2</trackindex>
							<clipindex>3</clipindex>
							<groupindex>1</groupindex>
						</link>
						<logginginfo>
							<description />
							<scene />
							<shottake />
							<lognote />
							<good />
							<originalvideofilename />
							<originalaudiofilename />
						</logginginfo>
						<colorinfo>
							<lut />
							<lut1 />
							<asc_sop />
							<asc_sat />
							<lut2 />
						</colorinfo>
					<labels><label2>Caribbean</label2></labels></clipitem>
					<clipitem id="clipitem-87">
						<masterclipid>clipitem-3-323</masterclipid>
						<name>Taylor_Swift_Travis_Kelce_-_The_New_Power_Couple.mp4</name>
						<enabled>TRUE</enabled>
						<duration>150</duration>
						<rate>
							<timebase>25</timebase>
							<ntsc>FALSE</ntsc>
						</rate>
						<start>150900</start>
						<end>151050</end>
						<in>48300</in>
						<out>48450</out>
						<pproTicksIn>0</pproTicksIn>
						<pproTicksOut>875013995520000</pproTicksOut>
						<alphatype>none</alphatype>
						<pixelaspectratio>square</pixelaspectratio>
						<anamorphic>FALSE</anamorphic>
						<file id="file-31">
							<name>Taylor_Swift_Travis_Kelce_-_The_New_Power_Couple.mp4</name>
							<pathurl>file://localhost/Users/themalikano/Documents/VideoAutomation/premiere_videos/Taylor_Swift_Travis_Kelce_-_The_New_Power_Couple.mp4</pathurl>
							<rate>
								<timebase>25</timebase>
								<ntsc>FALSE</ntsc>
							</rate>
							<duration>86118</duration>
							<timecode>
								<rate>
									<timebase>25</timebase>
									<ntsc>FALSE</ntsc>
								</rate>
								<string>00:00:00:00</string>
								<frame>0</frame>
								<displayformat>NDF</displayformat>
							</timecode>
							<media>
								<video>
									<samplecharacteristics>
										<rate>
											<timebase>25</timebase>
											<ntsc>FALSE</ntsc>
										</rate>
										<width>1920</width>
										<height>1080</height>
										<anamorphic>FALSE</anamorphic>
										<pixelaspectratio>square</pixelaspectratio>
										<fielddominance>none</fielddominance>
									</samplecharacteristics>
								</video>
								<audio>
									<samplecharacteristics>
										<depth>16</depth>
										<samplerate>44100</samplerate>
									</samplecharacteristics>
									<channelcount>2</channelcount>
								</audio>
							</media>
						</file>
						<link>
							<linkclipref>clipitem-87</linkclipref>
							<mediatype>video</mediatype>
							<trackindex>1</trackindex>
							<clipindex>3</clipindex>
						</link>
						<link>
							<linkclipref>clipitem-95</linkclipref>
							<mediatype>audio</mediatype>
							<trackindex>1</trackindex>
							<clipindex>3</clipindex>
							<groupindex>1</groupindex>
						</link>
						<link>
							<linkclipref>clipitem-103</linkclipref>
							<mediatype>audio</mediatype>
							<trackindex>2</trackindex>
							<clipindex>3</clipindex>
							<groupindex>1</groupindex>
						</link>
						<logginginfo>
							<description />
							<scene />
							<shottake />
							<lognote />
							<good />
							<originalvideofilename />
							<originalaudiofilename />
						</logginginfo>
						<colorinfo>
							<lut />
							<lut1 />
							<asc_sop />
							<asc_sat />
							<lut2 />
						</colorinfo>
					<labels><label2>Caribbean</label2></labels></clipitem>
					<clipitem id="clipitem-87">
						<masterclipid>clipitem-3-222</masterclipid>
						<name>Taylor_Swift_Travis_Kelce_-_The_New_Power_Couple.mp4</name>
						<enabled>TRUE</enabled>
						<duration>150</duration>
						<rate>
							<timebase>25</timebase>
							<ntsc>FALSE</ntsc>
						</rate>
						<start>151050</start>
						<end>151200</end>
						<in>33150</in>
						<out>33300</out>
						<pproTicksIn>0</pproTicksIn>
						<pproTicksOut>875013995520000</pproTicksOut>
						<alphatype>none</alphatype>
						<pixelaspectratio>square</pixelaspectratio>
						<anamorphic>FALSE</anamorphic>
						<file id="file-31">
							<name>Taylor_Swift_Travis_Kelce_-_The_New_Power_Couple.mp4</name>
							<pathurl>file://localhost/Users/themalikano/Documents/VideoAutomation/premiere_videos/Taylor_Swift_Travis_Kelce_-_The_New_Power_Couple.mp4</pathurl>
							<rate>
								<timebase>25</timebase>
								<ntsc>FALSE</ntsc>
							</rate>
							<duration>86118</duration>
							<timecode>
								<rate>
									<timebase>25</timebase>
									<ntsc>FALSE</ntsc>
								</rate>
								<string>00:00:00:00</string>
								<frame>0</frame>
								<displayformat>NDF</displayformat>
							</timecode>
							<media>
								<video>
									<samplecharacteristics>
										<rate>
											<timebase>25</timebase>
											<ntsc>FALSE</ntsc>
										</rate>
										<width>1920</width>
										<height>1080</height>
										<anamorphic>FALSE</anamorphic>
										<pixelaspectratio>square</pixelaspectratio>
										<fielddominance>none</fielddominance>
									</samplecharacteristics>
								</video>
								<audio>
									<samplecharacteristics>
										<depth>16</depth>
										<samplerate>44100</samplerate>
									</samplecharacteristics>
									<channelcount>2</channelcount>
								</audio>
							</media>
						</file>
						<link>
							<linkclipref>clipitem-87</linkclipref>
							<mediatype>video</mediatype>
							<trackindex>1</trackindex>
							<clipindex>3</clipindex>
						</link>
						<link>
							<linkclipref>clipitem-95</linkclipref>
							<mediatype>audio</mediatype>
							<trackindex>1</trackindex>
							<clipindex>3</clipindex>
							<groupindex>1</groupindex>
						</link>
						<link>
							<linkclipref>clipitem-103</linkclipref>
							<mediatype>audio</mediatype>
							<trackindex>2</trackindex>
							<clipindex>3</clipindex>
							<groupindex>1</groupindex>
						</link>
						<logginginfo>
							<description />
							<scene />
							<shottake />
							<lognote />
							<good />
							<originalvideofilename />
							<originalaudiofilename />
						</logginginfo>
						<colorinfo>
							<lut />
							<lut1 />
							<asc_sop />
							<asc_sat />
							<lut2 />
						</colorinfo>
					<labels><label2>Caribbean</label2></labels></clipitem>
					<clipitem id="clipitem-87">
						<masterclipid>clipitem-3-29</masterclipid>
						<name>Taylor_Swift_Travis_Kelce_-_The_New_Power_Couple.mp4</name>
						<enabled>TRUE</enabled>
						<duration>150</duration>
						<rate>
							<timebase>25</timebase>
							<ntsc>FALSE</ntsc>
						</rate>
						<start>151200</start>
						<end>151350</end>
						<in>4200</in>
						<out>4350</out>
						<pproTicksIn>0</pproTicksIn>
						<pproTicksOut>875013995520000</pproTicksOut>
						<alphatype>none</alphatype>
						<pixelaspectratio>square</pixelaspectratio>
						<anamorphic>FALSE</anamorphic>
						<file id="file-31">
							<name>Taylor_Swift_Travis_Kelce_-_The_New_Power_Couple.mp4</name>
							<pathurl>file://localhost/Users/themalikano/Documents/VideoAutomation/premiere_videos/Taylor_Swift_Travis_Kelce_-_The_New_Power_Couple.mp4</pathurl>
							<rate>
								<timebase>25</timebase>
								<ntsc>FALSE</ntsc>
							</rate>
							<duration>86118</duration>
							<timecode>
								<rate>
									<timebase>25</timebase>
									<ntsc>FALSE</ntsc>
								</rate>
								<string>00:00:00:00</string>
								<frame>0</frame>
								<displayformat>NDF</displayformat>
							</timecode>
							<media>
								<video>
									<samplecharacteristics>
										<rate>
											<timebase>25</timebase>
											<ntsc>FALSE</ntsc>
										</rate>
										<width>1920</width>
										<height>1080</height>
										<anamorphic>FALSE</anamorphic>
										<pixelaspectratio>square</pixelaspectratio>
										<fielddominance>none</fielddominance>
									</samplecharacteristics>
								</video>
								<audio>
									<samplecharacteristics>
										<depth>16</depth>
										<samplerate>44100</samplerate>
									</samplecharacteristics>
									<channelcount>2</channelcount>
								</audio>
							</media>
						</file>
						<link>
							<linkclipref>clipitem-87</linkclipref>
							<mediatype>video</mediatype>
							<trackindex>1</trackindex>
							<clipindex>3</clipindex>
						</link>
						<link>
							<linkclipref>clipitem-95</linkclipref>
							<mediatype>audio</mediatype>
							<trackindex>1</trackindex>
							<clipindex>3</clipindex>
							<groupindex>1</groupindex>
						</link>
						<link>
							<linkclipref>clipitem-103</linkclipref>
							<mediatype>audio</mediatype>
							<trackindex>2</trackindex>
							<clipindex>3</clipindex>
							<groupindex>1</groupindex>
						</link>
						<logginginfo>
							<description />
							<scene />
							<shottake />
							<lognote />
							<good />
							<originalvideofilename />
							<originalaudiofilename />
						</logginginfo>
						<colorinfo>
							<lut />
							<lut1 />
							<asc_sop />
							<asc_sat />
							<lut2 />
						</colorinfo>
					<labels><label2>Caribbean</label2></labels></clipitem>
					<clipitem id="clipitem-87">
						<masterclipid>clipitem-3-103</masterclipid>
						<name>Taylor_Swift_Travis_Kelce_-_The_New_Power_Couple.mp4</name>
						<enabled>TRUE</enabled>
						<duration>150</duration>
						<rate>
							<timebase>25</timebase>
							<ntsc>FALSE</ntsc>
						</rate>
						<start>151350</start>
						<end>151500</end>
						<in>15300</in>
						<out>15450</out>
						<pproTicksIn>0</pproTicksIn>
						<pproTicksOut>875013995520000</pproTicksOut>
						<alphatype>none</alphatype>
						<pixelaspectratio>square</pixelaspectratio>
						<anamorphic>FALSE</anamorphic>
						<file id="file-31">
							<name>Taylor_Swift_Travis_Kelce_-_The_New_Power_Couple.mp4</name>
							<pathurl>file://localhost/Users/themalikano/Documents/VideoAutomation/premiere_videos/Taylor_Swift_Travis_Kelce_-_The_New_Power_Couple.mp4</pathurl>
							<rate>
								<timebase>25</timebase>
								<ntsc>FALSE</ntsc>
							</rate>
							<duration>86118</duration>
							<timecode>
								<rate>
									<timebase>25</timebase>
									<ntsc>FALSE</ntsc>
								</rate>
								<string>00:00:00:00</string>
								<frame>0</frame>
								<displayformat>NDF</displayformat>
							</timecode>
							<media>
								<video>
									<samplecharacteristics>
										<rate>
											<timebase>25</timebase>
											<ntsc>FALSE</ntsc>
										</rate>
										<width>1920</width>
										<height>1080</height>
										<anamorphic>FALSE</anamorphic>
										<pixelaspectratio>square</pixelaspectratio>
										<fielddominance>none</fielddominance>
									</samplecharacteristics>
								</video>
								<audio>
									<samplecharacteristics>
										<depth>16</depth>
										<samplerate>44100</samplerate>
									</samplecharacteristics>
									<channelcount>2</channelcount>
								</audio>
							</media>
						</file>
						<link>
							<linkclipref>clipitem-87</linkclipref>
							<mediatype>video</mediatype>
							<trackindex>1</trackindex>
							<clipindex>3</clipindex>
						</link>
						<link>
							<linkclipref>clipitem-95</linkclipref>
							<mediatype>audio</mediatype>
							<trackindex>1</trackindex>
							<clipindex>3</clipindex>
							<groupindex>1</groupindex>
						</link>
						<link>
							<linkclipref>clipitem-103</linkclipref>
							<mediatype>audio</mediatype>
							<trackindex>2</trackindex>
							<clipindex>3</clipindex>
							<groupindex>1</groupindex>
						</link>
						<logginginfo>
							<description />
							<scene />
							<shottake />
							<lognote />
							<good />
							<originalvideofilename />
							<originalaudiofilename />
						</logginginfo>
						<colorinfo>
							<lut />
							<lut1 />
							<asc_sop />
							<asc_sat />
							<lut2 />
						</colorinfo>
					<labels><label2>Caribbean</label2></labels></clipitem>
					<clipitem id="clipitem-87">
						<masterclipid>clipitem-3-447</masterclipid>
						<name>Taylor_Swift_Travis_Kelce_-_The_New_Power_Couple.mp4</name>
						<enabled>TRUE</enabled>
						<duration>150</duration>
						<rate>
							<timebase>25</timebase>
							<ntsc>FALSE</ntsc>
						</rate>
						<start>151500</start>
						<end>151650</end>
						<in>66900</in>
						<out>67050</out>
						<pproTicksIn>0</pproTicksIn>
						<pproTicksOut>875013995520000</pproTicksOut>
						<alphatype>none</alphatype>
						<pixelaspectratio>square</pixelaspectratio>
						<anamorphic>FALSE</anamorphic>
						<file id="file-31">
							<name>Taylor_Swift_Travis_Kelce_-_The_New_Power_Couple.mp4</name>
							<pathurl>file://localhost/Users/themalikano/Documents/VideoAutomation/premiere_videos/Taylor_Swift_Travis_Kelce_-_The_New_Power_Couple.mp4</pathurl>
							<rate>
								<timebase>25</timebase>
								<ntsc>FALSE</ntsc>
							</rate>
							<duration>86118</duration>
							<timecode>
								<rate>
									<timebase>25</timebase>
									<ntsc>FALSE</ntsc>
								</rate>
								<string>00:00:00:00</string>
								<frame>0</frame>
								<displayformat>NDF</displayformat>
							</timecode>
							<media>
								<video>
									<samplecharacteristics>
										<rate>
											<timebase>25</timebase>
											<ntsc>FALSE</ntsc>
										</rate>
										<width>1920</width>
										<height>1080</height>
										<anamorphic>FALSE</anamorphic>
										<pixelaspectratio>square</pixelaspectratio>
										<fielddominance>none</fielddominance>
									</samplecharacteristics>
								</video>
								<audio>
									<samplecharacteristics>
										<depth>16</depth>
										<samplerate>44100</samplerate>
									</samplecharacteristics>
									<channelcount>2</channelcount>
								</audio>
							</media>
						</file>
						<link>
							<linkclipref>clipitem-87</linkclipref>
							<mediatype>video</mediatype>
							<trackindex>1</trackindex>
							<clipindex>3</clipindex>
						</link>
						<link>
							<linkclipref>clipitem-95</linkclipref>
							<mediatype>audio</mediatype>
							<trackindex>1</trackindex>
							<clipindex>3</clipindex>
							<groupindex>1</groupindex>
						</link>
						<link>
							<linkclipref>clipitem-103</linkclipref>
							<mediatype>audio</mediatype>
							<trackindex>2</trackindex>
							<clipindex>3</clipindex>
							<groupindex>1</groupindex>
						</link>
						<logginginfo>
							<description />
							<scene />
							<shottake />
							<lognote />
							<good />
							<originalvideofilename />
							<originalaudiofilename />
						</logginginfo>
						<colorinfo>
							<lut />
							<lut1 />
							<asc_sop />
							<asc_sat />
							<lut2 />
						</colorinfo>
					<labels><label2>Caribbean</label2></labels></clipitem>
					<clipitem id="clipitem-87">
						<masterclipid>clipitem-3-298</masterclipid>
						<name>Taylor_Swift_Travis_Kelce_-_The_New_Power_Couple.mp4</name>
						<enabled>TRUE</enabled>
						<duration>150</duration>
						<rate>
							<timebase>25</timebase>
							<ntsc>FALSE</ntsc>
						</rate>
						<start>151650</start>
						<end>151800</end>
						<in>44550</in>
						<out>44700</out>
						<pproTicksIn>0</pproTicksIn>
						<pproTicksOut>875013995520000</pproTicksOut>
						<alphatype>none</alphatype>
						<pixelaspectratio>square</pixelaspectratio>
						<anamorphic>FALSE</anamorphic>
						<file id="file-31">
							<name>Taylor_Swift_Travis_Kelce_-_The_New_Power_Couple.mp4</name>
							<pathurl>file://localhost/Users/themalikano/Documents/VideoAutomation/premiere_videos/Taylor_Swift_Travis_Kelce_-_The_New_Power_Couple.mp4</pathurl>
							<rate>
								<timebase>25</timebase>
								<ntsc>FALSE</ntsc>
							</rate>
							<duration>86118</duration>
							<timecode>
								<rate>
									<timebase>25</timebase>
									<ntsc>FALSE</ntsc>
								</rate>
								<string>00:00:00:00</string>
								<frame>0</frame>
								<displayformat>NDF</displayformat>
							</timecode>
							<media>
								<video>
									<samplecharacteristics>
										<rate>
											<timebase>25</timebase>
											<ntsc>FALSE</ntsc>
										</rate>
										<width>1920</width>
										<height>1080</height>
										<anamorphic>FALSE</anamorphic>
										<pixelaspectratio>square</pixelaspectratio>
										<fielddominance>none</fielddominance>
									</samplecharacteristics>
								</video>
								<audio>
									<samplecharacteristics>
										<depth>16</depth>
										<samplerate>44100</samplerate>
									</samplecharacteristics>
									<channelcount>2</channelcount>
								</audio>
							</media>
						</file>
						<link>
							<linkclipref>clipitem-87</linkclipref>
							<mediatype>video</mediatype>
							<trackindex>1</trackindex>
							<clipindex>3</clipindex>
						</link>
						<link>
							<linkclipref>clipitem-95</linkclipref>
							<mediatype>audio</mediatype>
							<trackindex>1</trackindex>
							<clipindex>3</clipindex>
							<groupindex>1</groupindex>
						</link>
						<link>
							<linkclipref>clipitem-103</linkclipref>
							<mediatype>audio</mediatype>
							<trackindex>2</trackindex>
							<clipindex>3</clipindex>
							<groupindex>1</groupindex>
						</link>
						<logginginfo>
							<description />
							<scene />
							<shottake />
							<lognote />
							<good />
							<originalvideofilename />
							<originalaudiofilename />
						</logginginfo>
						<colorinfo>
							<lut />
							<lut1 />
							<asc_sop />
							<asc_sat />
							<lut2 />
						</colorinfo>
					<labels><label2>Caribbean</label2></labels></clipitem>
					<clipitem id="clipitem-87">
						<masterclipid>clipitem-3-408</masterclipid>
						<name>Taylor_Swift_Travis_Kelce_-_The_New_Power_Couple.mp4</name>
						<enabled>TRUE</enabled>
						<duration>150</duration>
						<rate>
							<timebase>25</timebase>
							<ntsc>FALSE</ntsc>
						</rate>
						<start>151800</start>
						<end>151950</end>
						<in>61050</in>
						<out>61200</out>
						<pproTicksIn>0</pproTicksIn>
						<pproTicksOut>875013995520000</pproTicksOut>
						<alphatype>none</alphatype>
						<pixelaspectratio>square</pixelaspectratio>
						<anamorphic>FALSE</anamorphic>
						<file id="file-31">
							<name>Taylor_Swift_Travis_Kelce_-_The_New_Power_Couple.mp4</name>
							<pathurl>file://localhost/Users/themalikano/Documents/VideoAutomation/premiere_videos/Taylor_Swift_Travis_Kelce_-_The_New_Power_Couple.mp4</pathurl>
							<rate>
								<timebase>25</timebase>
								<ntsc>FALSE</ntsc>
							</rate>
							<duration>86118</duration>
							<timecode>
								<rate>
									<timebase>25</timebase>
									<ntsc>FALSE</ntsc>
								</rate>
								<string>00:00:00:00</string>
								<frame>0</frame>
								<displayformat>NDF</displayformat>
							</timecode>
							<media>
								<video>
									<samplecharacteristics>
										<rate>
											<timebase>25</timebase>
											<ntsc>FALSE</ntsc>
										</rate>
										<width>1920</width>
										<height>1080</height>
										<anamorphic>FALSE</anamorphic>
										<pixelaspectratio>square</pixelaspectratio>
										<fielddominance>none</fielddominance>
									</samplecharacteristics>
								</video>
								<audio>
									<samplecharacteristics>
										<depth>16</depth>
										<samplerate>44100</samplerate>
									</samplecharacteristics>
									<channelcount>2</channelcount>
								</audio>
							</media>
						</file>
						<link>
							<linkclipref>clipitem-87</linkclipref>
							<mediatype>video</mediatype>
							<trackindex>1</trackindex>
							<clipindex>3</clipindex>
						</link>
						<link>
							<linkclipref>clipitem-95</linkclipref>
							<mediatype>audio</mediatype>
							<trackindex>1</trackindex>
							<clipindex>3</clipindex>
							<groupindex>1</groupindex>
						</link>
						<link>
							<linkclipref>clipitem-103</linkclipref>
							<mediatype>audio</mediatype>
							<trackindex>2</trackindex>
							<clipindex>3</clipindex>
							<groupindex>1</groupindex>
						</link>
						<logginginfo>
							<description />
							<scene />
							<shottake />
							<lognote />
							<good />
							<originalvideofilename />
							<originalaudiofilename />
						</logginginfo>
						<colorinfo>
							<lut />
							<lut1 />
							<asc_sop />
							<asc_sat />
							<lut2 />
						</colorinfo>
					<labels><label2>Caribbean</label2></labels></clipitem>
					<clipitem id="clipitem-87">
						<masterclipid>clipitem-3-474</masterclipid>
						<name>Taylor_Swift_Travis_Kelce_-_The_New_Power_Couple.mp4</name>
						<enabled>TRUE</enabled>
						<duration>150</duration>
						<rate>
							<timebase>25</timebase>
							<ntsc>FALSE</ntsc>
						</rate>
						<start>151950</start>
						<end>152100</end>
						<in>70950</in>
						<out>71100</out>
						<pproTicksIn>0</pproTicksIn>
						<pproTicksOut>875013995520000</pproTicksOut>
						<alphatype>none</alphatype>
						<pixelaspectratio>square</pixelaspectratio>
						<anamorphic>FALSE</anamorphic>
						<file id="file-31">
							<name>Taylor_Swift_Travis_Kelce_-_The_New_Power_Couple.mp4</name>
							<pathurl>file://localhost/Users/themalikano/Documents/VideoAutomation/premiere_videos/Taylor_Swift_Travis_Kelce_-_The_New_Power_Couple.mp4</pathurl>
							<rate>
								<timebase>25</timebase>
								<ntsc>FALSE</ntsc>
							</rate>
							<duration>86118</duration>
							<timecode>
								<rate>
									<timebase>25</timebase>
									<ntsc>FALSE</ntsc>
								</rate>
								<string>00:00:00:00</string>
								<frame>0</frame>
								<displayformat>NDF</displayformat>
							</timecode>
							<media>
								<video>
									<samplecharacteristics>
										<rate>
											<timebase>25</timebase>
											<ntsc>FALSE</ntsc>
										</rate>
										<width>1920</width>
										<height>1080</height>
										<anamorphic>FALSE</anamorphic>
										<pixelaspectratio>square</pixelaspectratio>
										<fielddominance>none</fielddominance>
									</samplecharacteristics>
								</video>
								<audio>
									<samplecharacteristics>
										<depth>16</depth>
										<samplerate>44100</samplerate>
									</samplecharacteristics>
									<channelcount>2</channelcount>
								</audio>
							</media>
						</file>
						<link>
							<linkclipref>clipitem-87</linkclipref>
							<mediatype>video</mediatype>
							<trackindex>1</trackindex>
							<clipindex>3</clipindex>
						</link>
						<link>
							<linkclipref>clipitem-95</linkclipref>
							<mediatype>audio</mediatype>
							<trackindex>1</trackindex>
							<clipindex>3</clipindex>
							<groupindex>1</groupindex>
						</link>
						<link>
							<linkclipref>clipitem-103</linkclipref>
							<mediatype>audio</mediatype>
							<trackindex>2</trackindex>
							<clipindex>3</clipindex>
							<groupindex>1</groupindex>
						</link>
						<logginginfo>
							<description />
							<scene />
							<shottake />
							<lognote />
							<good />
							<originalvideofilename />
							<originalaudiofilename />
						</logginginfo>
						<colorinfo>
							<lut />
							<lut1 />
							<asc_sop />
							<asc_sat />
							<lut2 />
						</colorinfo>
					<labels><label2>Caribbean</label2></labels></clipitem>
					<clipitem id="clipitem-87">
						<masterclipid>clipitem-3-310</masterclipid>
						<name>Taylor_Swift_Travis_Kelce_-_The_New_Power_Couple.mp4</name>
						<enabled>TRUE</enabled>
						<duration>150</duration>
						<rate>
							<timebase>25</timebase>
							<ntsc>FALSE</ntsc>
						</rate>
						<start>152100</start>
						<end>152250</end>
						<in>46350</in>
						<out>46500</out>
						<pproTicksIn>0</pproTicksIn>
						<pproTicksOut>875013995520000</pproTicksOut>
						<alphatype>none</alphatype>
						<pixelaspectratio>square</pixelaspectratio>
						<anamorphic>FALSE</anamorphic>
						<file id="file-31">
							<name>Taylor_Swift_Travis_Kelce_-_The_New_Power_Couple.mp4</name>
							<pathurl>file://localhost/Users/themalikano/Documents/VideoAutomation/premiere_videos/Taylor_Swift_Travis_Kelce_-_The_New_Power_Couple.mp4</pathurl>
							<rate>
								<timebase>25</timebase>
								<ntsc>FALSE</ntsc>
							</rate>
							<duration>86118</duration>
							<timecode>
								<rate>
									<timebase>25</timebase>
									<ntsc>FALSE</ntsc>
								</rate>
								<string>00:00:00:00</string>
								<frame>0</frame>
								<displayformat>NDF</displayformat>
							</timecode>
							<media>
								<video>
									<samplecharacteristics>
										<rate>
											<timebase>25</timebase>
											<ntsc>FALSE</ntsc>
										</rate>
										<width>1920</width>
										<height>1080</height>
										<anamorphic>FALSE</anamorphic>
										<pixelaspectratio>square</pixelaspectratio>
										<fielddominance>none</fielddominance>
									</samplecharacteristics>
								</video>
								<audio>
									<samplecharacteristics>
										<depth>16</depth>
										<samplerate>44100</samplerate>
									</samplecharacteristics>
									<channelcount>2</channelcount>
								</audio>
							</media>
						</file>
						<link>
							<linkclipref>clipitem-87</linkclipref>
							<mediatype>video</mediatype>
							<trackindex>1</trackindex>
							<clipindex>3</clipindex>
						</link>
						<link>
							<linkclipref>clipitem-95</linkclipref>
							<mediatype>audio</mediatype>
							<trackindex>1</trackindex>
							<clipindex>3</clipindex>
							<groupindex>1</groupindex>
						</link>
						<link>
							<linkclipref>clipitem-103</linkclipref>
							<mediatype>audio</mediatype>
							<trackindex>2</trackindex>
							<clipindex>3</clipindex>
							<groupindex>1</groupindex>
						</link>
						<logginginfo>
							<description />
							<scene />
							<shottake />
							<lognote />
							<good />
							<originalvideofilename />
							<originalaudiofilename />
						</logginginfo>
						<colorinfo>
							<lut />
							<lut1 />
							<asc_sop />
							<asc_sat />
							<lut2 />
						</colorinfo>
					<labels><label2>Caribbean</label2></labels></clipitem>
					<clipitem id="clipitem-87">
						<masterclipid>clipitem-3-201</masterclipid>
						<name>Taylor_Swift_Travis_Kelce_-_The_New_Power_Couple.mp4</name>
						<enabled>TRUE</enabled>
						<duration>150</duration>
						<rate>
							<timebase>25</timebase>
							<ntsc>FALSE</ntsc>
						</rate>
						<start>152250</start>
						<end>152400</end>
						<in>30000</in>
						<out>30150</out>
						<pproTicksIn>0</pproTicksIn>
						<pproTicksOut>875013995520000</pproTicksOut>
						<alphatype>none</alphatype>
						<pixelaspectratio>square</pixelaspectratio>
						<anamorphic>FALSE</anamorphic>
						<file id="file-31">
							<name>Taylor_Swift_Travis_Kelce_-_The_New_Power_Couple.mp4</name>
							<pathurl>file://localhost/Users/themalikano/Documents/VideoAutomation/premiere_videos/Taylor_Swift_Travis_Kelce_-_The_New_Power_Couple.mp4</pathurl>
							<rate>
								<timebase>25</timebase>
								<ntsc>FALSE</ntsc>
							</rate>
							<duration>86118</duration>
							<timecode>
								<rate>
									<timebase>25</timebase>
									<ntsc>FALSE</ntsc>
								</rate>
								<string>00:00:00:00</string>
								<frame>0</frame>
								<displayformat>NDF</displayformat>
							</timecode>
							<media>
								<video>
									<samplecharacteristics>
										<rate>
											<timebase>25</timebase>
											<ntsc>FALSE</ntsc>
										</rate>
										<width>1920</width>
										<height>1080</height>
										<anamorphic>FALSE</anamorphic>
										<pixelaspectratio>square</pixelaspectratio>
										<fielddominance>none</fielddominance>
									</samplecharacteristics>
								</video>
								<audio>
									<samplecharacteristics>
										<depth>16</depth>
										<samplerate>44100</samplerate>
									</samplecharacteristics>
									<channelcount>2</channelcount>
								</audio>
							</media>
						</file>
						<link>
							<linkclipref>clipitem-87</linkclipref>
							<mediatype>video</mediatype>
							<trackindex>1</trackindex>
							<clipindex>3</clipindex>
						</link>
						<link>
							<linkclipref>clipitem-95</linkclipref>
							<mediatype>audio</mediatype>
							<trackindex>1</trackindex>
							<clipindex>3</clipindex>
							<groupindex>1</groupindex>
						</link>
						<link>
							<linkclipref>clipitem-103</linkclipref>
							<mediatype>audio</mediatype>
							<trackindex>2</trackindex>
							<clipindex>3</clipindex>
							<groupindex>1</groupindex>
						</link>
						<logginginfo>
							<description />
							<scene />
							<shottake />
							<lognote />
							<good />
							<originalvideofilename />
							<originalaudiofilename />
						</logginginfo>
						<colorinfo>
							<lut />
							<lut1 />
							<asc_sop />
							<asc_sat />
							<lut2 />
						</colorinfo>
					<labels><label2>Caribbean</label2></labels></clipitem>
					<clipitem id="clipitem-87">
						<masterclipid>clipitem-3-544</masterclipid>
						<name>Taylor_Swift_Travis_Kelce_-_The_New_Power_Couple.mp4</name>
						<enabled>TRUE</enabled>
						<duration>150</duration>
						<rate>
							<timebase>25</timebase>
							<ntsc>FALSE</ntsc>
						</rate>
						<start>152400</start>
						<end>152550</end>
						<in>81450</in>
						<out>81600</out>
						<pproTicksIn>0</pproTicksIn>
						<pproTicksOut>875013995520000</pproTicksOut>
						<alphatype>none</alphatype>
						<pixelaspectratio>square</pixelaspectratio>
						<anamorphic>FALSE</anamorphic>
						<file id="file-31">
							<name>Taylor_Swift_Travis_Kelce_-_The_New_Power_Couple.mp4</name>
							<pathurl>file://localhost/Users/themalikano/Documents/VideoAutomation/premiere_videos/Taylor_Swift_Travis_Kelce_-_The_New_Power_Couple.mp4</pathurl>
							<rate>
								<timebase>25</timebase>
								<ntsc>FALSE</ntsc>
							</rate>
							<duration>86118</duration>
							<timecode>
								<rate>
									<timebase>25</timebase>
									<ntsc>FALSE</ntsc>
								</rate>
								<string>00:00:00:00</string>
								<frame>0</frame>
								<displayformat>NDF</displayformat>
							</timecode>
							<media>
								<video>
									<samplecharacteristics>
										<rate>
											<timebase>25</timebase>
											<ntsc>FALSE</ntsc>
										</rate>
										<width>1920</width>
										<height>1080</height>
										<anamorphic>FALSE</anamorphic>
										<pixelaspectratio>square</pixelaspectratio>
										<fielddominance>none</fielddominance>
									</samplecharacteristics>
								</video>
								<audio>
									<samplecharacteristics>
										<depth>16</depth>
										<samplerate>44100</samplerate>
									</samplecharacteristics>
									<channelcount>2</channelcount>
								</audio>
							</media>
						</file>
						<link>
							<linkclipref>clipitem-87</linkclipref>
							<mediatype>video</mediatype>
							<trackindex>1</trackindex>
							<clipindex>3</clipindex>
						</link>
						<link>
							<linkclipref>clipitem-95</linkclipref>
							<mediatype>audio</mediatype>
							<trackindex>1</trackindex>
							<clipindex>3</clipindex>
							<groupindex>1</groupindex>
						</link>
						<link>
							<linkclipref>clipitem-103</linkclipref>
							<mediatype>audio</mediatype>
							<trackindex>2</trackindex>
							<clipindex>3</clipindex>
							<groupindex>1</groupindex>
						</link>
						<logginginfo>
							<description />
							<scene />
							<shottake />
							<lognote />
							<good />
							<originalvideofilename />
							<originalaudiofilename />
						</logginginfo>
						<colorinfo>
							<lut />
							<lut1 />
							<asc_sop />
							<asc_sat />
							<lut2 />
						</colorinfo>
					<labels><label2>Caribbean</label2></labels></clipitem>
					<clipitem id="clipitem-87">
						<masterclipid>clipitem-3-485</masterclipid>
						<name>Taylor_Swift_Travis_Kelce_-_The_New_Power_Couple.mp4</name>
						<enabled>TRUE</enabled>
						<duration>150</duration>
						<rate>
							<timebase>25</timebase>
							<ntsc>FALSE</ntsc>
						</rate>
						<start>152550</start>
						<end>152700</end>
						<in>72600</in>
						<out>72750</out>
						<pproTicksIn>0</pproTicksIn>
						<pproTicksOut>875013995520000</pproTicksOut>
						<alphatype>none</alphatype>
						<pixelaspectratio>square</pixelaspectratio>
						<anamorphic>FALSE</anamorphic>
						<file id="file-31">
							<name>Taylor_Swift_Travis_Kelce_-_The_New_Power_Couple.mp4</name>
							<pathurl>file://localhost/Users/themalikano/Documents/VideoAutomation/premiere_videos/Taylor_Swift_Travis_Kelce_-_The_New_Power_Couple.mp4</pathurl>
							<rate>
								<timebase>25</timebase>
								<ntsc>FALSE</ntsc>
							</rate>
							<duration>86118</duration>
							<timecode>
								<rate>
									<timebase>25</timebase>
									<ntsc>FALSE</ntsc>
								</rate>
								<string>00:00:00:00</string>
								<frame>0</frame>
								<displayformat>NDF</displayformat>
							</timecode>
							<media>
								<video>
									<samplecharacteristics>
										<rate>
											<timebase>25</timebase>
											<ntsc>FALSE</ntsc>
										</rate>
										<width>1920</width>
										<height>1080</height>
										<anamorphic>FALSE</anamorphic>
										<pixelaspectratio>square</pixelaspectratio>
										<fielddominance>none</fielddominance>
									</samplecharacteristics>
								</video>
								<audio>
									<samplecharacteristics>
										<depth>16</depth>
										<samplerate>44100</samplerate>
									</samplecharacteristics>
									<channelcount>2</channelcount>
								</audio>
							</media>
						</file>
						<link>
							<linkclipref>clipitem-87</linkclipref>
							<mediatype>video</mediatype>
							<trackindex>1</trackindex>
							<clipindex>3</clipindex>
						</link>
						<link>
							<linkclipref>clipitem-95</linkclipref>
							<mediatype>audio</mediatype>
							<trackindex>1</trackindex>
							<clipindex>3</clipindex>
							<groupindex>1</groupindex>
						</link>
						<link>
							<linkclipref>clipitem-103</linkclipref>
							<mediatype>audio</mediatype>
							<trackindex>2</trackindex>
							<clipindex>3</clipindex>
							<groupindex>1</groupindex>
						</link>
						<logginginfo>
							<description />
							<scene />
							<shottake />
							<lognote />
							<good />
							<originalvideofilename />
							<originalaudiofilename />
						</logginginfo>
						<colorinfo>
							<lut />
							<lut1 />
							<asc_sop />
							<asc_sat />
							<lut2 />
						</colorinfo>
					<labels><label2>Caribbean</label2></labels></clipitem>
					<clipitem id="clipitem-87">
						<masterclipid>clipitem-3-480</masterclipid>
						<name>Taylor_Swift_Travis_Kelce_-_The_New_Power_Couple.mp4</name>
						<enabled>TRUE</enabled>
						<duration>150</duration>
						<rate>
							<timebase>25</timebase>
							<ntsc>FALSE</ntsc>
						</rate>
						<start>152700</start>
						<end>152850</end>
						<in>71850</in>
						<out>72000</out>
						<pproTicksIn>0</pproTicksIn>
						<pproTicksOut>875013995520000</pproTicksOut>
						<alphatype>none</alphatype>
						<pixelaspectratio>square</pixelaspectratio>
						<anamorphic>FALSE</anamorphic>
						<file id="file-31">
							<name>Taylor_Swift_Travis_Kelce_-_The_New_Power_Couple.mp4</name>
							<pathurl>file://localhost/Users/themalikano/Documents/VideoAutomation/premiere_videos/Taylor_Swift_Travis_Kelce_-_The_New_Power_Couple.mp4</pathurl>
							<rate>
								<timebase>25</timebase>
								<ntsc>FALSE</ntsc>
							</rate>
							<duration>86118</duration>
							<timecode>
								<rate>
									<timebase>25</timebase>
									<ntsc>FALSE</ntsc>
								</rate>
								<string>00:00:00:00</string>
								<frame>0</frame>
								<displayformat>NDF</displayformat>
							</timecode>
							<media>
								<video>
									<samplecharacteristics>
										<rate>
											<timebase>25</timebase>
											<ntsc>FALSE</ntsc>
										</rate>
										<width>1920</width>
										<height>1080</height>
										<anamorphic>FALSE</anamorphic>
										<pixelaspectratio>square</pixelaspectratio>
										<fielddominance>none</fielddominance>
									</samplecharacteristics>
								</video>
								<audio>
									<samplecharacteristics>
										<depth>16</depth>
										<samplerate>44100</samplerate>
									</samplecharacteristics>
									<channelcount>2</channelcount>
								</audio>
							</media>
						</file>
						<link>
							<linkclipref>clipitem-87</linkclipref>
							<mediatype>video</mediatype>
							<trackindex>1</trackindex>
							<clipindex>3</clipindex>
						</link>
						<link>
							<linkclipref>clipitem-95</linkclipref>
							<mediatype>audio</mediatype>
							<trackindex>1</trackindex>
							<clipindex>3</clipindex>
							<groupindex>1</groupindex>
						</link>
						<link>
							<linkclipref>clipitem-103</linkclipref>
							<mediatype>audio</mediatype>
							<trackindex>2</trackindex>
							<clipindex>3</clipindex>
							<groupindex>1</groupindex>
						</link>
						<logginginfo>
							<description />
							<scene />
							<shottake />
							<lognote />
							<good />
							<originalvideofilename />
							<originalaudiofilename />
						</logginginfo>
						<colorinfo>
							<lut />
							<lut1 />
							<asc_sop />
							<asc_sat />
							<lut2 />
						</colorinfo>
					<labels><label2>Caribbean</label2></labels></clipitem>
					<clipitem id="clipitem-87">
						<masterclipid>clipitem-3-45</masterclipid>
						<name>Taylor_Swift_Travis_Kelce_-_The_New_Power_Couple.mp4</name>
						<enabled>TRUE</enabled>
						<duration>150</duration>
						<rate>
							<timebase>25</timebase>
							<ntsc>FALSE</ntsc>
						</rate>
						<start>152850</start>
						<end>153000</end>
						<in>6600</in>
						<out>6750</out>
						<pproTicksIn>0</pproTicksIn>
						<pproTicksOut>875013995520000</pproTicksOut>
						<alphatype>none</alphatype>
						<pixelaspectratio>square</pixelaspectratio>
						<anamorphic>FALSE</anamorphic>
						<file id="file-31">
							<name>Taylor_Swift_Travis_Kelce_-_The_New_Power_Couple.mp4</name>
							<pathurl>file://localhost/Users/themalikano/Documents/VideoAutomation/premiere_videos/Taylor_Swift_Travis_Kelce_-_The_New_Power_Couple.mp4</pathurl>
							<rate>
								<timebase>25</timebase>
								<ntsc>FALSE</ntsc>
							</rate>
							<duration>86118</duration>
							<timecode>
								<rate>
									<timebase>25</timebase>
									<ntsc>FALSE</ntsc>
								</rate>
								<string>00:00:00:00</string>
								<frame>0</frame>
								<displayformat>NDF</displayformat>
							</timecode>
							<media>
								<video>
									<samplecharacteristics>
										<rate>
											<timebase>25</timebase>
											<ntsc>FALSE</ntsc>
										</rate>
										<width>1920</width>
										<height>1080</height>
										<anamorphic>FALSE</anamorphic>
										<pixelaspectratio>square</pixelaspectratio>
										<fielddominance>none</fielddominance>
									</samplecharacteristics>
								</video>
								<audio>
									<samplecharacteristics>
										<depth>16</depth>
										<samplerate>44100</samplerate>
									</samplecharacteristics>
									<channelcount>2</channelcount>
								</audio>
							</media>
						</file>
						<link>
							<linkclipref>clipitem-87</linkclipref>
							<mediatype>video</mediatype>
							<trackindex>1</trackindex>
							<clipindex>3</clipindex>
						</link>
						<link>
							<linkclipref>clipitem-95</linkclipref>
							<mediatype>audio</mediatype>
							<trackindex>1</trackindex>
							<clipindex>3</clipindex>
							<groupindex>1</groupindex>
						</link>
						<link>
							<linkclipref>clipitem-103</linkclipref>
							<mediatype>audio</mediatype>
							<trackindex>2</trackindex>
							<clipindex>3</clipindex>
							<groupindex>1</groupindex>
						</link>
						<logginginfo>
							<description />
							<scene />
							<shottake />
							<lognote />
							<good />
							<originalvideofilename />
							<originalaudiofilename />
						</logginginfo>
						<colorinfo>
							<lut />
							<lut1 />
							<asc_sop />
							<asc_sat />
							<lut2 />
						</colorinfo>
					<labels><label2>Caribbean</label2></labels></clipitem>
					<clipitem id="clipitem-87">
						<masterclipid>clipitem-3-430</masterclipid>
						<name>Taylor_Swift_Travis_Kelce_-_The_New_Power_Couple.mp4</name>
						<enabled>TRUE</enabled>
						<duration>150</duration>
						<rate>
							<timebase>25</timebase>
							<ntsc>FALSE</ntsc>
						</rate>
						<start>153000</start>
						<end>153150</end>
						<in>64350</in>
						<out>64500</out>
						<pproTicksIn>0</pproTicksIn>
						<pproTicksOut>875013995520000</pproTicksOut>
						<alphatype>none</alphatype>
						<pixelaspectratio>square</pixelaspectratio>
						<anamorphic>FALSE</anamorphic>
						<file id="file-31">
							<name>Taylor_Swift_Travis_Kelce_-_The_New_Power_Couple.mp4</name>
							<pathurl>file://localhost/Users/themalikano/Documents/VideoAutomation/premiere_videos/Taylor_Swift_Travis_Kelce_-_The_New_Power_Couple.mp4</pathurl>
							<rate>
								<timebase>25</timebase>
								<ntsc>FALSE</ntsc>
							</rate>
							<duration>86118</duration>
							<timecode>
								<rate>
									<timebase>25</timebase>
									<ntsc>FALSE</ntsc>
								</rate>
								<string>00:00:00:00</string>
								<frame>0</frame>
								<displayformat>NDF</displayformat>
							</timecode>
							<media>
								<video>
									<samplecharacteristics>
										<rate>
											<timebase>25</timebase>
											<ntsc>FALSE</ntsc>
										</rate>
										<width>1920</width>
										<height>1080</height>
										<anamorphic>FALSE</anamorphic>
										<pixelaspectratio>square</pixelaspectratio>
										<fielddominance>none</fielddominance>
									</samplecharacteristics>
								</video>
								<audio>
									<samplecharacteristics>
										<depth>16</depth>
										<samplerate>44100</samplerate>
									</samplecharacteristics>
									<channelcount>2</channelcount>
								</audio>
							</media>
						</file>
						<link>
							<linkclipref>clipitem-87</linkclipref>
							<mediatype>video</mediatype>
							<trackindex>1</trackindex>
							<clipindex>3</clipindex>
						</link>
						<link>
							<linkclipref>clipitem-95</linkclipref>
							<mediatype>audio</mediatype>
							<trackindex>1</trackindex>
							<clipindex>3</clipindex>
							<groupindex>1</groupindex>
						</link>
						<link>
							<linkclipref>clipitem-103</linkclipref>
							<mediatype>audio</mediatype>
							<trackindex>2</trackindex>
							<clipindex>3</clipindex>
							<groupindex>1</groupindex>
						</link>
						<logginginfo>
							<description />
							<scene />
							<shottake />
							<lognote />
							<good />
							<originalvideofilename />
							<originalaudiofilename />
						</logginginfo>
						<colorinfo>
							<lut />
							<lut1 />
							<asc_sop />
							<asc_sat />
							<lut2 />
						</colorinfo>
					<labels><label2>Caribbean</label2></labels></clipitem>
					<clipitem id="clipitem-87">
						<masterclipid>clipitem-3-244</masterclipid>
						<name>Taylor_Swift_Travis_Kelce_-_The_New_Power_Couple.mp4</name>
						<enabled>TRUE</enabled>
						<duration>150</duration>
						<rate>
							<timebase>25</timebase>
							<ntsc>FALSE</ntsc>
						</rate>
						<start>153150</start>
						<end>153300</end>
						<in>36450</in>
						<out>36600</out>
						<pproTicksIn>0</pproTicksIn>
						<pproTicksOut>875013995520000</pproTicksOut>
						<alphatype>none</alphatype>
						<pixelaspectratio>square</pixelaspectratio>
						<anamorphic>FALSE</anamorphic>
						<file id="file-31">
							<name>Taylor_Swift_Travis_Kelce_-_The_New_Power_Couple.mp4</name>
							<pathurl>file://localhost/Users/themalikano/Documents/VideoAutomation/premiere_videos/Taylor_Swift_Travis_Kelce_-_The_New_Power_Couple.mp4</pathurl>
							<rate>
								<timebase>25</timebase>
								<ntsc>FALSE</ntsc>
							</rate>
							<duration>86118</duration>
							<timecode>
								<rate>
									<timebase>25</timebase>
									<ntsc>FALSE</ntsc>
								</rate>
								<string>00:00:00:00</string>
								<frame>0</frame>
								<displayformat>NDF</displayformat>
							</timecode>
							<media>
								<video>
									<samplecharacteristics>
										<rate>
											<timebase>25</timebase>
											<ntsc>FALSE</ntsc>
										</rate>
										<width>1920</width>
										<height>1080</height>
										<anamorphic>FALSE</anamorphic>
										<pixelaspectratio>square</pixelaspectratio>
										<fielddominance>none</fielddominance>
									</samplecharacteristics>
								</video>
								<audio>
									<samplecharacteristics>
										<depth>16</depth>
										<samplerate>44100</samplerate>
									</samplecharacteristics>
									<channelcount>2</channelcount>
								</audio>
							</media>
						</file>
						<link>
							<linkclipref>clipitem-87</linkclipref>
							<mediatype>video</mediatype>
							<trackindex>1</trackindex>
							<clipindex>3</clipindex>
						</link>
						<link>
							<linkclipref>clipitem-95</linkclipref>
							<mediatype>audio</mediatype>
							<trackindex>1</trackindex>
							<clipindex>3</clipindex>
							<groupindex>1</groupindex>
						</link>
						<link>
							<linkclipref>clipitem-103</linkclipref>
							<mediatype>audio</mediatype>
							<trackindex>2</trackindex>
							<clipindex>3</clipindex>
							<groupindex>1</groupindex>
						</link>
						<logginginfo>
							<description />
							<scene />
							<shottake />
							<lognote />
							<good />
							<originalvideofilename />
							<originalaudiofilename />
						</logginginfo>
						<colorinfo>
							<lut />
							<lut1 />
							<asc_sop />
							<asc_sat />
							<lut2 />
						</colorinfo>
					<labels><label2>Caribbean</label2></labels></clipitem>
					<clipitem id="clipitem-87">
						<masterclipid>clipitem-3-514</masterclipid>
						<name>Taylor_Swift_Travis_Kelce_-_The_New_Power_Couple.mp4</name>
						<enabled>TRUE</enabled>
						<duration>150</duration>
						<rate>
							<timebase>25</timebase>
							<ntsc>FALSE</ntsc>
						</rate>
						<start>153300</start>
						<end>153450</end>
						<in>76950</in>
						<out>77100</out>
						<pproTicksIn>0</pproTicksIn>
						<pproTicksOut>875013995520000</pproTicksOut>
						<alphatype>none</alphatype>
						<pixelaspectratio>square</pixelaspectratio>
						<anamorphic>FALSE</anamorphic>
						<file id="file-31">
							<name>Taylor_Swift_Travis_Kelce_-_The_New_Power_Couple.mp4</name>
							<pathurl>file://localhost/Users/themalikano/Documents/VideoAutomation/premiere_videos/Taylor_Swift_Travis_Kelce_-_The_New_Power_Couple.mp4</pathurl>
							<rate>
								<timebase>25</timebase>
								<ntsc>FALSE</ntsc>
							</rate>
							<duration>86118</duration>
							<timecode>
								<rate>
									<timebase>25</timebase>
									<ntsc>FALSE</ntsc>
								</rate>
								<string>00:00:00:00</string>
								<frame>0</frame>
								<displayformat>NDF</displayformat>
							</timecode>
							<media>
								<video>
									<samplecharacteristics>
										<rate>
											<timebase>25</timebase>
											<ntsc>FALSE</ntsc>
										</rate>
										<width>1920</width>
										<height>1080</height>
										<anamorphic>FALSE</anamorphic>
										<pixelaspectratio>square</pixelaspectratio>
										<fielddominance>none</fielddominance>
									</samplecharacteristics>
								</video>
								<audio>
									<samplecharacteristics>
										<depth>16</depth>
										<samplerate>44100</samplerate>
									</samplecharacteristics>
									<channelcount>2</channelcount>
								</audio>
							</media>
						</file>
						<link>
							<linkclipref>clipitem-87</linkclipref>
							<mediatype>video</mediatype>
							<trackindex>1</trackindex>
							<clipindex>3</clipindex>
						</link>
						<link>
							<linkclipref>clipitem-95</linkclipref>
							<mediatype>audio</mediatype>
							<trackindex>1</trackindex>
							<clipindex>3</clipindex>
							<groupindex>1</groupindex>
						</link>
						<link>
							<linkclipref>clipitem-103</linkclipref>
							<mediatype>audio</mediatype>
							<trackindex>2</trackindex>
							<clipindex>3</clipindex>
							<groupindex>1</groupindex>
						</link>
						<logginginfo>
							<description />
							<scene />
							<shottake />
							<lognote />
							<good />
							<originalvideofilename />
							<originalaudiofilename />
						</logginginfo>
						<colorinfo>
							<lut />
							<lut1 />
							<asc_sop />
							<asc_sat />
							<lut2 />
						</colorinfo>
					<labels><label2>Caribbean</label2></labels></clipitem>
					<clipitem id="clipitem-87">
						<masterclipid>clipitem-3-270</masterclipid>
						<name>Taylor_Swift_Travis_Kelce_-_The_New_Power_Couple.mp4</name>
						<enabled>TRUE</enabled>
						<duration>150</duration>
						<rate>
							<timebase>25</timebase>
							<ntsc>FALSE</ntsc>
						</rate>
						<start>153450</start>
						<end>153600</end>
						<in>40350</in>
						<out>40500</out>
						<pproTicksIn>0</pproTicksIn>
						<pproTicksOut>875013995520000</pproTicksOut>
						<alphatype>none</alphatype>
						<pixelaspectratio>square</pixelaspectratio>
						<anamorphic>FALSE</anamorphic>
						<file id="file-31">
							<name>Taylor_Swift_Travis_Kelce_-_The_New_Power_Couple.mp4</name>
							<pathurl>file://localhost/Users/themalikano/Documents/VideoAutomation/premiere_videos/Taylor_Swift_Travis_Kelce_-_The_New_Power_Couple.mp4</pathurl>
							<rate>
								<timebase>25</timebase>
								<ntsc>FALSE</ntsc>
							</rate>
							<duration>86118</duration>
							<timecode>
								<rate>
									<timebase>25</timebase>
									<ntsc>FALSE</ntsc>
								</rate>
								<string>00:00:00:00</string>
								<frame>0</frame>
								<displayformat>NDF</displayformat>
							</timecode>
							<media>
								<video>
									<samplecharacteristics>
										<rate>
											<timebase>25</timebase>
											<ntsc>FALSE</ntsc>
										</rate>
										<width>1920</width>
										<height>1080</height>
										<anamorphic>FALSE</anamorphic>
										<pixelaspectratio>square</pixelaspectratio>
										<fielddominance>none</fielddominance>
									</samplecharacteristics>
								</video>
								<audio>
									<samplecharacteristics>
										<depth>16</depth>
										<samplerate>44100</samplerate>
									</samplecharacteristics>
									<channelcount>2</channelcount>
								</audio>
							</media>
						</file>
						<link>
							<linkclipref>clipitem-87</linkclipref>
							<mediatype>video</mediatype>
							<trackindex>1</trackindex>
							<clipindex>3</clipindex>
						</link>
						<link>
							<linkclipref>clipitem-95</linkclipref>
							<mediatype>audio</mediatype>
							<trackindex>1</trackindex>
							<clipindex>3</clipindex>
							<groupindex>1</groupindex>
						</link>
						<link>
							<linkclipref>clipitem-103</linkclipref>
							<mediatype>audio</mediatype>
							<trackindex>2</trackindex>
							<clipindex>3</clipindex>
							<groupindex>1</groupindex>
						</link>
						<logginginfo>
							<description />
							<scene />
							<shottake />
							<lognote />
							<good />
							<originalvideofilename />
							<originalaudiofilename />
						</logginginfo>
						<colorinfo>
							<lut />
							<lut1 />
							<asc_sop />
							<asc_sat />
							<lut2 />
						</colorinfo>
					<labels><label2>Caribbean</label2></labels></clipitem>
					<clipitem id="clipitem-87">
						<masterclipid>clipitem-3-216</masterclipid>
						<name>Taylor_Swift_Travis_Kelce_-_The_New_Power_Couple.mp4</name>
						<enabled>TRUE</enabled>
						<duration>150</duration>
						<rate>
							<timebase>25</timebase>
							<ntsc>FALSE</ntsc>
						</rate>
						<start>153600</start>
						<end>153750</end>
						<in>32250</in>
						<out>32400</out>
						<pproTicksIn>0</pproTicksIn>
						<pproTicksOut>875013995520000</pproTicksOut>
						<alphatype>none</alphatype>
						<pixelaspectratio>square</pixelaspectratio>
						<anamorphic>FALSE</anamorphic>
						<file id="file-31">
							<name>Taylor_Swift_Travis_Kelce_-_The_New_Power_Couple.mp4</name>
							<pathurl>file://localhost/Users/themalikano/Documents/VideoAutomation/premiere_videos/Taylor_Swift_Travis_Kelce_-_The_New_Power_Couple.mp4</pathurl>
							<rate>
								<timebase>25</timebase>
								<ntsc>FALSE</ntsc>
							</rate>
							<duration>86118</duration>
							<timecode>
								<rate>
									<timebase>25</timebase>
									<ntsc>FALSE</ntsc>
								</rate>
								<string>00:00:00:00</string>
								<frame>0</frame>
								<displayformat>NDF</displayformat>
							</timecode>
							<media>
								<video>
									<samplecharacteristics>
										<rate>
											<timebase>25</timebase>
											<ntsc>FALSE</ntsc>
										</rate>
										<width>1920</width>
										<height>1080</height>
										<anamorphic>FALSE</anamorphic>
										<pixelaspectratio>square</pixelaspectratio>
										<fielddominance>none</fielddominance>
									</samplecharacteristics>
								</video>
								<audio>
									<samplecharacteristics>
										<depth>16</depth>
										<samplerate>44100</samplerate>
									</samplecharacteristics>
									<channelcount>2</channelcount>
								</audio>
							</media>
						</file>
						<link>
							<linkclipref>clipitem-87</linkclipref>
							<mediatype>video</mediatype>
							<trackindex>1</trackindex>
							<clipindex>3</clipindex>
						</link>
						<link>
							<linkclipref>clipitem-95</linkclipref>
							<mediatype>audio</mediatype>
							<trackindex>1</trackindex>
							<clipindex>3</clipindex>
							<groupindex>1</groupindex>
						</link>
						<link>
							<linkclipref>clipitem-103</linkclipref>
							<mediatype>audio</mediatype>
							<trackindex>2</trackindex>
							<clipindex>3</clipindex>
							<groupindex>1</groupindex>
						</link>
						<logginginfo>
							<description />
							<scene />
							<shottake />
							<lognote />
							<good />
							<originalvideofilename />
							<originalaudiofilename />
						</logginginfo>
						<colorinfo>
							<lut />
							<lut1 />
							<asc_sop />
							<asc_sat />
							<lut2 />
						</colorinfo>
					<labels><label2>Caribbean</label2></labels></clipitem>
					<clipitem id="clipitem-87">
						<masterclipid>clipitem-3-413</masterclipid>
						<name>Taylor_Swift_Travis_Kelce_-_The_New_Power_Couple.mp4</name>
						<enabled>TRUE</enabled>
						<duration>150</duration>
						<rate>
							<timebase>25</timebase>
							<ntsc>FALSE</ntsc>
						</rate>
						<start>153750</start>
						<end>153900</end>
						<in>61800</in>
						<out>61950</out>
						<pproTicksIn>0</pproTicksIn>
						<pproTicksOut>875013995520000</pproTicksOut>
						<alphatype>none</alphatype>
						<pixelaspectratio>square</pixelaspectratio>
						<anamorphic>FALSE</anamorphic>
						<file id="file-31">
							<name>Taylor_Swift_Travis_Kelce_-_The_New_Power_Couple.mp4</name>
							<pathurl>file://localhost/Users/themalikano/Documents/VideoAutomation/premiere_videos/Taylor_Swift_Travis_Kelce_-_The_New_Power_Couple.mp4</pathurl>
							<rate>
								<timebase>25</timebase>
								<ntsc>FALSE</ntsc>
							</rate>
							<duration>86118</duration>
							<timecode>
								<rate>
									<timebase>25</timebase>
									<ntsc>FALSE</ntsc>
								</rate>
								<string>00:00:00:00</string>
								<frame>0</frame>
								<displayformat>NDF</displayformat>
							</timecode>
							<media>
								<video>
									<samplecharacteristics>
										<rate>
											<timebase>25</timebase>
											<ntsc>FALSE</ntsc>
										</rate>
										<width>1920</width>
										<height>1080</height>
										<anamorphic>FALSE</anamorphic>
										<pixelaspectratio>square</pixelaspectratio>
										<fielddominance>none</fielddominance>
									</samplecharacteristics>
								</video>
								<audio>
									<samplecharacteristics>
										<depth>16</depth>
										<samplerate>44100</samplerate>
									</samplecharacteristics>
									<channelcount>2</channelcount>
								</audio>
							</media>
						</file>
						<link>
							<linkclipref>clipitem-87</linkclipref>
							<mediatype>video</mediatype>
							<trackindex>1</trackindex>
							<clipindex>3</clipindex>
						</link>
						<link>
							<linkclipref>clipitem-95</linkclipref>
							<mediatype>audio</mediatype>
							<trackindex>1</trackindex>
							<clipindex>3</clipindex>
							<groupindex>1</groupindex>
						</link>
						<link>
							<linkclipref>clipitem-103</linkclipref>
							<mediatype>audio</mediatype>
							<trackindex>2</trackindex>
							<clipindex>3</clipindex>
							<groupindex>1</groupindex>
						</link>
						<logginginfo>
							<description />
							<scene />
							<shottake />
							<lognote />
							<good />
							<originalvideofilename />
							<originalaudiofilename />
						</logginginfo>
						<colorinfo>
							<lut />
							<lut1 />
							<asc_sop />
							<asc_sat />
							<lut2 />
						</colorinfo>
					<labels><label2>Caribbean</label2></labels></clipitem>
					<clipitem id="clipitem-87">
						<masterclipid>clipitem-3-230</masterclipid>
						<name>Taylor_Swift_Travis_Kelce_-_The_New_Power_Couple.mp4</name>
						<enabled>TRUE</enabled>
						<duration>150</duration>
						<rate>
							<timebase>25</timebase>
							<ntsc>FALSE</ntsc>
						</rate>
						<start>153900</start>
						<end>154050</end>
						<in>34350</in>
						<out>34500</out>
						<pproTicksIn>0</pproTicksIn>
						<pproTicksOut>875013995520000</pproTicksOut>
						<alphatype>none</alphatype>
						<pixelaspectratio>square</pixelaspectratio>
						<anamorphic>FALSE</anamorphic>
						<file id="file-31">
							<name>Taylor_Swift_Travis_Kelce_-_The_New_Power_Couple.mp4</name>
							<pathurl>file://localhost/Users/themalikano/Documents/VideoAutomation/premiere_videos/Taylor_Swift_Travis_Kelce_-_The_New_Power_Couple.mp4</pathurl>
							<rate>
								<timebase>25</timebase>
								<ntsc>FALSE</ntsc>
							</rate>
							<duration>86118</duration>
							<timecode>
								<rate>
									<timebase>25</timebase>
									<ntsc>FALSE</ntsc>
								</rate>
								<string>00:00:00:00</string>
								<frame>0</frame>
								<displayformat>NDF</displayformat>
							</timecode>
							<media>
								<video>
									<samplecharacteristics>
										<rate>
											<timebase>25</timebase>
											<ntsc>FALSE</ntsc>
										</rate>
										<width>1920</width>
										<height>1080</height>
										<anamorphic>FALSE</anamorphic>
										<pixelaspectratio>square</pixelaspectratio>
										<fielddominance>none</fielddominance>
									</samplecharacteristics>
								</video>
								<audio>
									<samplecharacteristics>
										<depth>16</depth>
										<samplerate>44100</samplerate>
									</samplecharacteristics>
									<channelcount>2</channelcount>
								</audio>
							</media>
						</file>
						<link>
							<linkclipref>clipitem-87</linkclipref>
							<mediatype>video</mediatype>
							<trackindex>1</trackindex>
							<clipindex>3</clipindex>
						</link>
						<link>
							<linkclipref>clipitem-95</linkclipref>
							<mediatype>audio</mediatype>
							<trackindex>1</trackindex>
							<clipindex>3</clipindex>
							<groupindex>1</groupindex>
						</link>
						<link>
							<linkclipref>clipitem-103</linkclipref>
							<mediatype>audio</mediatype>
							<trackindex>2</trackindex>
							<clipindex>3</clipindex>
							<groupindex>1</groupindex>
						</link>
						<logginginfo>
							<description />
							<scene />
							<shottake />
							<lognote />
							<good />
							<originalvideofilename />
							<originalaudiofilename />
						</logginginfo>
						<colorinfo>
							<lut />
							<lut1 />
							<asc_sop />
							<asc_sat />
							<lut2 />
						</colorinfo>
					<labels><label2>Caribbean</label2></labels></clipitem>
					<clipitem id="clipitem-87">
						<masterclipid>clipitem-3-535</masterclipid>
						<name>Taylor_Swift_Travis_Kelce_-_The_New_Power_Couple.mp4</name>
						<enabled>TRUE</enabled>
						<duration>150</duration>
						<rate>
							<timebase>25</timebase>
							<ntsc>FALSE</ntsc>
						</rate>
						<start>154050</start>
						<end>154200</end>
						<in>80100</in>
						<out>80250</out>
						<pproTicksIn>0</pproTicksIn>
						<pproTicksOut>875013995520000</pproTicksOut>
						<alphatype>none</alphatype>
						<pixelaspectratio>square</pixelaspectratio>
						<anamorphic>FALSE</anamorphic>
						<file id="file-31">
							<name>Taylor_Swift_Travis_Kelce_-_The_New_Power_Couple.mp4</name>
							<pathurl>file://localhost/Users/themalikano/Documents/VideoAutomation/premiere_videos/Taylor_Swift_Travis_Kelce_-_The_New_Power_Couple.mp4</pathurl>
							<rate>
								<timebase>25</timebase>
								<ntsc>FALSE</ntsc>
							</rate>
							<duration>86118</duration>
							<timecode>
								<rate>
									<timebase>25</timebase>
									<ntsc>FALSE</ntsc>
								</rate>
								<string>00:00:00:00</string>
								<frame>0</frame>
								<displayformat>NDF</displayformat>
							</timecode>
							<media>
								<video>
									<samplecharacteristics>
										<rate>
											<timebase>25</timebase>
											<ntsc>FALSE</ntsc>
										</rate>
										<width>1920</width>
										<height>1080</height>
										<anamorphic>FALSE</anamorphic>
										<pixelaspectratio>square</pixelaspectratio>
										<fielddominance>none</fielddominance>
									</samplecharacteristics>
								</video>
								<audio>
									<samplecharacteristics>
										<depth>16</depth>
										<samplerate>44100</samplerate>
									</samplecharacteristics>
									<channelcount>2</channelcount>
								</audio>
							</media>
						</file>
						<link>
							<linkclipref>clipitem-87</linkclipref>
							<mediatype>video</mediatype>
							<trackindex>1</trackindex>
							<clipindex>3</clipindex>
						</link>
						<link>
							<linkclipref>clipitem-95</linkclipref>
							<mediatype>audio</mediatype>
							<trackindex>1</trackindex>
							<clipindex>3</clipindex>
							<groupindex>1</groupindex>
						</link>
						<link>
							<linkclipref>clipitem-103</linkclipref>
							<mediatype>audio</mediatype>
							<trackindex>2</trackindex>
							<clipindex>3</clipindex>
							<groupindex>1</groupindex>
						</link>
						<logginginfo>
							<description />
							<scene />
							<shottake />
							<lognote />
							<good />
							<originalvideofilename />
							<originalaudiofilename />
						</logginginfo>
						<colorinfo>
							<lut />
							<lut1 />
							<asc_sop />
							<asc_sat />
							<lut2 />
						</colorinfo>
					<labels><label2>Caribbean</label2></labels></clipitem>
					<clipitem id="clipitem-87">
						<masterclipid>clipitem-3-510</masterclipid>
						<name>Taylor_Swift_Travis_Kelce_-_The_New_Power_Couple.mp4</name>
						<enabled>TRUE</enabled>
						<duration>150</duration>
						<rate>
							<timebase>25</timebase>
							<ntsc>FALSE</ntsc>
						</rate>
						<start>154200</start>
						<end>154350</end>
						<in>76350</in>
						<out>76500</out>
						<pproTicksIn>0</pproTicksIn>
						<pproTicksOut>875013995520000</pproTicksOut>
						<alphatype>none</alphatype>
						<pixelaspectratio>square</pixelaspectratio>
						<anamorphic>FALSE</anamorphic>
						<file id="file-31">
							<name>Taylor_Swift_Travis_Kelce_-_The_New_Power_Couple.mp4</name>
							<pathurl>file://localhost/Users/themalikano/Documents/VideoAutomation/premiere_videos/Taylor_Swift_Travis_Kelce_-_The_New_Power_Couple.mp4</pathurl>
							<rate>
								<timebase>25</timebase>
								<ntsc>FALSE</ntsc>
							</rate>
							<duration>86118</duration>
							<timecode>
								<rate>
									<timebase>25</timebase>
									<ntsc>FALSE</ntsc>
								</rate>
								<string>00:00:00:00</string>
								<frame>0</frame>
								<displayformat>NDF</displayformat>
							</timecode>
							<media>
								<video>
									<samplecharacteristics>
										<rate>
											<timebase>25</timebase>
											<ntsc>FALSE</ntsc>
										</rate>
										<width>1920</width>
										<height>1080</height>
										<anamorphic>FALSE</anamorphic>
										<pixelaspectratio>square</pixelaspectratio>
										<fielddominance>none</fielddominance>
									</samplecharacteristics>
								</video>
								<audio>
									<samplecharacteristics>
										<depth>16</depth>
										<samplerate>44100</samplerate>
									</samplecharacteristics>
									<channelcount>2</channelcount>
								</audio>
							</media>
						</file>
						<link>
							<linkclipref>clipitem-87</linkclipref>
							<mediatype>video</mediatype>
							<trackindex>1</trackindex>
							<clipindex>3</clipindex>
						</link>
						<link>
							<linkclipref>clipitem-95</linkclipref>
							<mediatype>audio</mediatype>
							<trackindex>1</trackindex>
							<clipindex>3</clipindex>
							<groupindex>1</groupindex>
						</link>
						<link>
							<linkclipref>clipitem-103</linkclipref>
							<mediatype>audio</mediatype>
							<trackindex>2</trackindex>
							<clipindex>3</clipindex>
							<groupindex>1</groupindex>
						</link>
						<logginginfo>
							<description />
							<scene />
							<shottake />
							<lognote />
							<good />
							<originalvideofilename />
							<originalaudiofilename />
						</logginginfo>
						<colorinfo>
							<lut />
							<lut1 />
							<asc_sop />
							<asc_sat />
							<lut2 />
						</colorinfo>
					<labels><label2>Caribbean</label2></labels></clipitem>
					<clipitem id="clipitem-87">
						<masterclipid>clipitem-3-225</masterclipid>
						<name>Taylor_Swift_Travis_Kelce_-_The_New_Power_Couple.mp4</name>
						<enabled>TRUE</enabled>
						<duration>150</duration>
						<rate>
							<timebase>25</timebase>
							<ntsc>FALSE</ntsc>
						</rate>
						<start>154350</start>
						<end>154500</end>
						<in>33600</in>
						<out>33750</out>
						<pproTicksIn>0</pproTicksIn>
						<pproTicksOut>875013995520000</pproTicksOut>
						<alphatype>none</alphatype>
						<pixelaspectratio>square</pixelaspectratio>
						<anamorphic>FALSE</anamorphic>
						<file id="file-31">
							<name>Taylor_Swift_Travis_Kelce_-_The_New_Power_Couple.mp4</name>
							<pathurl>file://localhost/Users/themalikano/Documents/VideoAutomation/premiere_videos/Taylor_Swift_Travis_Kelce_-_The_New_Power_Couple.mp4</pathurl>
							<rate>
								<timebase>25</timebase>
								<ntsc>FALSE</ntsc>
							</rate>
							<duration>86118</duration>
							<timecode>
								<rate>
									<timebase>25</timebase>
									<ntsc>FALSE</ntsc>
								</rate>
								<string>00:00:00:00</string>
								<frame>0</frame>
								<displayformat>NDF</displayformat>
							</timecode>
							<media>
								<video>
									<samplecharacteristics>
										<rate>
											<timebase>25</timebase>
											<ntsc>FALSE</ntsc>
										</rate>
										<width>1920</width>
										<height>1080</height>
										<anamorphic>FALSE</anamorphic>
										<pixelaspectratio>square</pixelaspectratio>
										<fielddominance>none</fielddominance>
									</samplecharacteristics>
								</video>
								<audio>
									<samplecharacteristics>
										<depth>16</depth>
										<samplerate>44100</samplerate>
									</samplecharacteristics>
									<channelcount>2</channelcount>
								</audio>
							</media>
						</file>
						<link>
							<linkclipref>clipitem-87</linkclipref>
							<mediatype>video</mediatype>
							<trackindex>1</trackindex>
							<clipindex>3</clipindex>
						</link>
						<link>
							<linkclipref>clipitem-95</linkclipref>
							<mediatype>audio</mediatype>
							<trackindex>1</trackindex>
							<clipindex>3</clipindex>
							<groupindex>1</groupindex>
						</link>
						<link>
							<linkclipref>clipitem-103</linkclipref>
							<mediatype>audio</mediatype>
							<trackindex>2</trackindex>
							<clipindex>3</clipindex>
							<groupindex>1</groupindex>
						</link>
						<logginginfo>
							<description />
							<scene />
							<shottake />
							<lognote />
							<good />
							<originalvideofilename />
							<originalaudiofilename />
						</logginginfo>
						<colorinfo>
							<lut />
							<lut1 />
							<asc_sop />
							<asc_sat />
							<lut2 />
						</colorinfo>
					<labels><label2>Caribbean</label2></labels></clipitem>
					<clipitem id="clipitem-87">
						<masterclipid>clipitem-3-319</masterclipid>
						<name>Taylor_Swift_Travis_Kelce_-_The_New_Power_Couple.mp4</name>
						<enabled>TRUE</enabled>
						<duration>150</duration>
						<rate>
							<timebase>25</timebase>
							<ntsc>FALSE</ntsc>
						</rate>
						<start>154500</start>
						<end>154650</end>
						<in>47700</in>
						<out>47850</out>
						<pproTicksIn>0</pproTicksIn>
						<pproTicksOut>875013995520000</pproTicksOut>
						<alphatype>none</alphatype>
						<pixelaspectratio>square</pixelaspectratio>
						<anamorphic>FALSE</anamorphic>
						<file id="file-31">
							<name>Taylor_Swift_Travis_Kelce_-_The_New_Power_Couple.mp4</name>
							<pathurl>file://localhost/Users/themalikano/Documents/VideoAutomation/premiere_videos/Taylor_Swift_Travis_Kelce_-_The_New_Power_Couple.mp4</pathurl>
							<rate>
								<timebase>25</timebase>
								<ntsc>FALSE</ntsc>
							</rate>
							<duration>86118</duration>
							<timecode>
								<rate>
									<timebase>25</timebase>
									<ntsc>FALSE</ntsc>
								</rate>
								<string>00:00:00:00</string>
								<frame>0</frame>
								<displayformat>NDF</displayformat>
							</timecode>
							<media>
								<video>
									<samplecharacteristics>
										<rate>
											<timebase>25</timebase>
											<ntsc>FALSE</ntsc>
										</rate>
										<width>1920</width>
										<height>1080</height>
										<anamorphic>FALSE</anamorphic>
										<pixelaspectratio>square</pixelaspectratio>
										<fielddominance>none</fielddominance>
									</samplecharacteristics>
								</video>
								<audio>
									<samplecharacteristics>
										<depth>16</depth>
										<samplerate>44100</samplerate>
									</samplecharacteristics>
									<channelcount>2</channelcount>
								</audio>
							</media>
						</file>
						<link>
							<linkclipref>clipitem-87</linkclipref>
							<mediatype>video</mediatype>
							<trackindex>1</trackindex>
							<clipindex>3</clipindex>
						</link>
						<link>
							<linkclipref>clipitem-95</linkclipref>
							<mediatype>audio</mediatype>
							<trackindex>1</trackindex>
							<clipindex>3</clipindex>
							<groupindex>1</groupindex>
						</link>
						<link>
							<linkclipref>clipitem-103</linkclipref>
							<mediatype>audio</mediatype>
							<trackindex>2</trackindex>
							<clipindex>3</clipindex>
							<groupindex>1</groupindex>
						</link>
						<logginginfo>
							<description />
							<scene />
							<shottake />
							<lognote />
							<good />
							<originalvideofilename />
							<originalaudiofilename />
						</logginginfo>
						<colorinfo>
							<lut />
							<lut1 />
							<asc_sop />
							<asc_sat />
							<lut2 />
						</colorinfo>
					<labels><label2>Caribbean</label2></labels></clipitem>
					<clipitem id="clipitem-87">
						<masterclipid>clipitem-3-339</masterclipid>
						<name>Taylor_Swift_Travis_Kelce_-_The_New_Power_Couple.mp4</name>
						<enabled>TRUE</enabled>
						<duration>150</duration>
						<rate>
							<timebase>25</timebase>
							<ntsc>FALSE</ntsc>
						</rate>
						<start>154650</start>
						<end>154800</end>
						<in>50700</in>
						<out>50850</out>
						<pproTicksIn>0</pproTicksIn>
						<pproTicksOut>875013995520000</pproTicksOut>
						<alphatype>none</alphatype>
						<pixelaspectratio>square</pixelaspectratio>
						<anamorphic>FALSE</anamorphic>
						<file id="file-31">
							<name>Taylor_Swift_Travis_Kelce_-_The_New_Power_Couple.mp4</name>
							<pathurl>file://localhost/Users/themalikano/Documents/VideoAutomation/premiere_videos/Taylor_Swift_Travis_Kelce_-_The_New_Power_Couple.mp4</pathurl>
							<rate>
								<timebase>25</timebase>
								<ntsc>FALSE</ntsc>
							</rate>
							<duration>86118</duration>
							<timecode>
								<rate>
									<timebase>25</timebase>
									<ntsc>FALSE</ntsc>
								</rate>
								<string>00:00:00:00</string>
								<frame>0</frame>
								<displayformat>NDF</displayformat>
							</timecode>
							<media>
								<video>
									<samplecharacteristics>
										<rate>
											<timebase>25</timebase>
											<ntsc>FALSE</ntsc>
										</rate>
										<width>1920</width>
										<height>1080</height>
										<anamorphic>FALSE</anamorphic>
										<pixelaspectratio>square</pixelaspectratio>
										<fielddominance>none</fielddominance>
									</samplecharacteristics>
								</video>
								<audio>
									<samplecharacteristics>
										<depth>16</depth>
										<samplerate>44100</samplerate>
									</samplecharacteristics>
									<channelcount>2</channelcount>
								</audio>
							</media>
						</file>
						<link>
							<linkclipref>clipitem-87</linkclipref>
							<mediatype>video</mediatype>
							<trackindex>1</trackindex>
							<clipindex>3</clipindex>
						</link>
						<link>
							<linkclipref>clipitem-95</linkclipref>
							<mediatype>audio</mediatype>
							<trackindex>1</trackindex>
							<clipindex>3</clipindex>
							<groupindex>1</groupindex>
						</link>
						<link>
							<linkclipref>clipitem-103</linkclipref>
							<mediatype>audio</mediatype>
							<trackindex>2</trackindex>
							<clipindex>3</clipindex>
							<groupindex>1</groupindex>
						</link>
						<logginginfo>
							<description />
							<scene />
							<shottake />
							<lognote />
							<good />
							<originalvideofilename />
							<originalaudiofilename />
						</logginginfo>
						<colorinfo>
							<lut />
							<lut1 />
							<asc_sop />
							<asc_sat />
							<lut2 />
						</colorinfo>
					<labels><label2>Caribbean</label2></labels></clipitem>
					<clipitem id="clipitem-87">
						<masterclipid>clipitem-3-105</masterclipid>
						<name>Taylor_Swift_Travis_Kelce_-_The_New_Power_Couple.mp4</name>
						<enabled>TRUE</enabled>
						<duration>150</duration>
						<rate>
							<timebase>25</timebase>
							<ntsc>FALSE</ntsc>
						</rate>
						<start>154800</start>
						<end>154950</end>
						<in>15600</in>
						<out>15750</out>
						<pproTicksIn>0</pproTicksIn>
						<pproTicksOut>875013995520000</pproTicksOut>
						<alphatype>none</alphatype>
						<pixelaspectratio>square</pixelaspectratio>
						<anamorphic>FALSE</anamorphic>
						<file id="file-31">
							<name>Taylor_Swift_Travis_Kelce_-_The_New_Power_Couple.mp4</name>
							<pathurl>file://localhost/Users/themalikano/Documents/VideoAutomation/premiere_videos/Taylor_Swift_Travis_Kelce_-_The_New_Power_Couple.mp4</pathurl>
							<rate>
								<timebase>25</timebase>
								<ntsc>FALSE</ntsc>
							</rate>
							<duration>86118</duration>
							<timecode>
								<rate>
									<timebase>25</timebase>
									<ntsc>FALSE</ntsc>
								</rate>
								<string>00:00:00:00</string>
								<frame>0</frame>
								<displayformat>NDF</displayformat>
							</timecode>
							<media>
								<video>
									<samplecharacteristics>
										<rate>
											<timebase>25</timebase>
											<ntsc>FALSE</ntsc>
										</rate>
										<width>1920</width>
										<height>1080</height>
										<anamorphic>FALSE</anamorphic>
										<pixelaspectratio>square</pixelaspectratio>
										<fielddominance>none</fielddominance>
									</samplecharacteristics>
								</video>
								<audio>
									<samplecharacteristics>
										<depth>16</depth>
										<samplerate>44100</samplerate>
									</samplecharacteristics>
									<channelcount>2</channelcount>
								</audio>
							</media>
						</file>
						<link>
							<linkclipref>clipitem-87</linkclipref>
							<mediatype>video</mediatype>
							<trackindex>1</trackindex>
							<clipindex>3</clipindex>
						</link>
						<link>
							<linkclipref>clipitem-95</linkclipref>
							<mediatype>audio</mediatype>
							<trackindex>1</trackindex>
							<clipindex>3</clipindex>
							<groupindex>1</groupindex>
						</link>
						<link>
							<linkclipref>clipitem-103</linkclipref>
							<mediatype>audio</mediatype>
							<trackindex>2</trackindex>
							<clipindex>3</clipindex>
							<groupindex>1</groupindex>
						</link>
						<logginginfo>
							<description />
							<scene />
							<shottake />
							<lognote />
							<good />
							<originalvideofilename />
							<originalaudiofilename />
						</logginginfo>
						<colorinfo>
							<lut />
							<lut1 />
							<asc_sop />
							<asc_sat />
							<lut2 />
						</colorinfo>
					<labels><label2>Caribbean</label2></labels></clipitem>
					<clipitem id="clipitem-87">
						<masterclipid>clipitem-3-369</masterclipid>
						<name>Taylor_Swift_Travis_Kelce_-_The_New_Power_Couple.mp4</name>
						<enabled>TRUE</enabled>
						<duration>150</duration>
						<rate>
							<timebase>25</timebase>
							<ntsc>FALSE</ntsc>
						</rate>
						<start>154950</start>
						<end>155100</end>
						<in>55200</in>
						<out>55350</out>
						<pproTicksIn>0</pproTicksIn>
						<pproTicksOut>875013995520000</pproTicksOut>
						<alphatype>none</alphatype>
						<pixelaspectratio>square</pixelaspectratio>
						<anamorphic>FALSE</anamorphic>
						<file id="file-31">
							<name>Taylor_Swift_Travis_Kelce_-_The_New_Power_Couple.mp4</name>
							<pathurl>file://localhost/Users/themalikano/Documents/VideoAutomation/premiere_videos/Taylor_Swift_Travis_Kelce_-_The_New_Power_Couple.mp4</pathurl>
							<rate>
								<timebase>25</timebase>
								<ntsc>FALSE</ntsc>
							</rate>
							<duration>86118</duration>
							<timecode>
								<rate>
									<timebase>25</timebase>
									<ntsc>FALSE</ntsc>
								</rate>
								<string>00:00:00:00</string>
								<frame>0</frame>
								<displayformat>NDF</displayformat>
							</timecode>
							<media>
								<video>
									<samplecharacteristics>
										<rate>
											<timebase>25</timebase>
											<ntsc>FALSE</ntsc>
										</rate>
										<width>1920</width>
										<height>1080</height>
										<anamorphic>FALSE</anamorphic>
										<pixelaspectratio>square</pixelaspectratio>
										<fielddominance>none</fielddominance>
									</samplecharacteristics>
								</video>
								<audio>
									<samplecharacteristics>
										<depth>16</depth>
										<samplerate>44100</samplerate>
									</samplecharacteristics>
									<channelcount>2</channelcount>
								</audio>
							</media>
						</file>
						<link>
							<linkclipref>clipitem-87</linkclipref>
							<mediatype>video</mediatype>
							<trackindex>1</trackindex>
							<clipindex>3</clipindex>
						</link>
						<link>
							<linkclipref>clipitem-95</linkclipref>
							<mediatype>audio</mediatype>
							<trackindex>1</trackindex>
							<clipindex>3</clipindex>
							<groupindex>1</groupindex>
						</link>
						<link>
							<linkclipref>clipitem-103</linkclipref>
							<mediatype>audio</mediatype>
							<trackindex>2</trackindex>
							<clipindex>3</clipindex>
							<groupindex>1</groupindex>
						</link>
						<logginginfo>
							<description />
							<scene />
							<shottake />
							<lognote />
							<good />
							<originalvideofilename />
							<originalaudiofilename />
						</logginginfo>
						<colorinfo>
							<lut />
							<lut1 />
							<asc_sop />
							<asc_sat />
							<lut2 />
						</colorinfo>
					<labels><label2>Caribbean</label2></labels></clipitem>
					<clipitem id="clipitem-87">
						<masterclipid>clipitem-3-494</masterclipid>
						<name>Taylor_Swift_Travis_Kelce_-_The_New_Power_Couple.mp4</name>
						<enabled>TRUE</enabled>
						<duration>150</duration>
						<rate>
							<timebase>25</timebase>
							<ntsc>FALSE</ntsc>
						</rate>
						<start>155100</start>
						<end>155250</end>
						<in>73950</in>
						<out>74100</out>
						<pproTicksIn>0</pproTicksIn>
						<pproTicksOut>875013995520000</pproTicksOut>
						<alphatype>none</alphatype>
						<pixelaspectratio>square</pixelaspectratio>
						<anamorphic>FALSE</anamorphic>
						<file id="file-31">
							<name>Taylor_Swift_Travis_Kelce_-_The_New_Power_Couple.mp4</name>
							<pathurl>file://localhost/Users/themalikano/Documents/VideoAutomation/premiere_videos/Taylor_Swift_Travis_Kelce_-_The_New_Power_Couple.mp4</pathurl>
							<rate>
								<timebase>25</timebase>
								<ntsc>FALSE</ntsc>
							</rate>
							<duration>86118</duration>
							<timecode>
								<rate>
									<timebase>25</timebase>
									<ntsc>FALSE</ntsc>
								</rate>
								<string>00:00:00:00</string>
								<frame>0</frame>
								<displayformat>NDF</displayformat>
							</timecode>
							<media>
								<video>
									<samplecharacteristics>
										<rate>
											<timebase>25</timebase>
											<ntsc>FALSE</ntsc>
										</rate>
										<width>1920</width>
										<height>1080</height>
										<anamorphic>FALSE</anamorphic>
										<pixelaspectratio>square</pixelaspectratio>
										<fielddominance>none</fielddominance>
									</samplecharacteristics>
								</video>
								<audio>
									<samplecharacteristics>
										<depth>16</depth>
										<samplerate>44100</samplerate>
									</samplecharacteristics>
									<channelcount>2</channelcount>
								</audio>
							</media>
						</file>
						<link>
							<linkclipref>clipitem-87</linkclipref>
							<mediatype>video</mediatype>
							<trackindex>1</trackindex>
							<clipindex>3</clipindex>
						</link>
						<link>
							<linkclipref>clipitem-95</linkclipref>
							<mediatype>audio</mediatype>
							<trackindex>1</trackindex>
							<clipindex>3</clipindex>
							<groupindex>1</groupindex>
						</link>
						<link>
							<linkclipref>clipitem-103</linkclipref>
							<mediatype>audio</mediatype>
							<trackindex>2</trackindex>
							<clipindex>3</clipindex>
							<groupindex>1</groupindex>
						</link>
						<logginginfo>
							<description />
							<scene />
							<shottake />
							<lognote />
							<good />
							<originalvideofilename />
							<originalaudiofilename />
						</logginginfo>
						<colorinfo>
							<lut />
							<lut1 />
							<asc_sop />
							<asc_sat />
							<lut2 />
						</colorinfo>
					<labels><label2>Caribbean</label2></labels></clipitem>
					<clipitem id="clipitem-87">
						<masterclipid>clipitem-3-281</masterclipid>
						<name>Taylor_Swift_Travis_Kelce_-_The_New_Power_Couple.mp4</name>
						<enabled>TRUE</enabled>
						<duration>150</duration>
						<rate>
							<timebase>25</timebase>
							<ntsc>FALSE</ntsc>
						</rate>
						<start>155250</start>
						<end>155400</end>
						<in>42000</in>
						<out>42150</out>
						<pproTicksIn>0</pproTicksIn>
						<pproTicksOut>875013995520000</pproTicksOut>
						<alphatype>none</alphatype>
						<pixelaspectratio>square</pixelaspectratio>
						<anamorphic>FALSE</anamorphic>
						<file id="file-31">
							<name>Taylor_Swift_Travis_Kelce_-_The_New_Power_Couple.mp4</name>
							<pathurl>file://localhost/Users/themalikano/Documents/VideoAutomation/premiere_videos/Taylor_Swift_Travis_Kelce_-_The_New_Power_Couple.mp4</pathurl>
							<rate>
								<timebase>25</timebase>
								<ntsc>FALSE</ntsc>
							</rate>
							<duration>86118</duration>
							<timecode>
								<rate>
									<timebase>25</timebase>
									<ntsc>FALSE</ntsc>
								</rate>
								<string>00:00:00:00</string>
								<frame>0</frame>
								<displayformat>NDF</displayformat>
							</timecode>
							<media>
								<video>
									<samplecharacteristics>
										<rate>
											<timebase>25</timebase>
											<ntsc>FALSE</ntsc>
										</rate>
										<width>1920</width>
										<height>1080</height>
										<anamorphic>FALSE</anamorphic>
										<pixelaspectratio>square</pixelaspectratio>
										<fielddominance>none</fielddominance>
									</samplecharacteristics>
								</video>
								<audio>
									<samplecharacteristics>
										<depth>16</depth>
										<samplerate>44100</samplerate>
									</samplecharacteristics>
									<channelcount>2</channelcount>
								</audio>
							</media>
						</file>
						<link>
							<linkclipref>clipitem-87</linkclipref>
							<mediatype>video</mediatype>
							<trackindex>1</trackindex>
							<clipindex>3</clipindex>
						</link>
						<link>
							<linkclipref>clipitem-95</linkclipref>
							<mediatype>audio</mediatype>
							<trackindex>1</trackindex>
							<clipindex>3</clipindex>
							<groupindex>1</groupindex>
						</link>
						<link>
							<linkclipref>clipitem-103</linkclipref>
							<mediatype>audio</mediatype>
							<trackindex>2</trackindex>
							<clipindex>3</clipindex>
							<groupindex>1</groupindex>
						</link>
						<logginginfo>
							<description />
							<scene />
							<shottake />
							<lognote />
							<good />
							<originalvideofilename />
							<originalaudiofilename />
						</logginginfo>
						<colorinfo>
							<lut />
							<lut1 />
							<asc_sop />
							<asc_sat />
							<lut2 />
						</colorinfo>
					<labels><label2>Caribbean</label2></labels></clipitem>
					<clipitem id="clipitem-87">
						<masterclipid>clipitem-3-487</masterclipid>
						<name>Taylor_Swift_Travis_Kelce_-_The_New_Power_Couple.mp4</name>
						<enabled>TRUE</enabled>
						<duration>150</duration>
						<rate>
							<timebase>25</timebase>
							<ntsc>FALSE</ntsc>
						</rate>
						<start>155400</start>
						<end>155550</end>
						<in>72900</in>
						<out>73050</out>
						<pproTicksIn>0</pproTicksIn>
						<pproTicksOut>875013995520000</pproTicksOut>
						<alphatype>none</alphatype>
						<pixelaspectratio>square</pixelaspectratio>
						<anamorphic>FALSE</anamorphic>
						<file id="file-31">
							<name>Taylor_Swift_Travis_Kelce_-_The_New_Power_Couple.mp4</name>
							<pathurl>file://localhost/Users/themalikano/Documents/VideoAutomation/premiere_videos/Taylor_Swift_Travis_Kelce_-_The_New_Power_Couple.mp4</pathurl>
							<rate>
								<timebase>25</timebase>
								<ntsc>FALSE</ntsc>
							</rate>
							<duration>86118</duration>
							<timecode>
								<rate>
									<timebase>25</timebase>
									<ntsc>FALSE</ntsc>
								</rate>
								<string>00:00:00:00</string>
								<frame>0</frame>
								<displayformat>NDF</displayformat>
							</timecode>
							<media>
								<video>
									<samplecharacteristics>
										<rate>
											<timebase>25</timebase>
											<ntsc>FALSE</ntsc>
										</rate>
										<width>1920</width>
										<height>1080</height>
										<anamorphic>FALSE</anamorphic>
										<pixelaspectratio>square</pixelaspectratio>
										<fielddominance>none</fielddominance>
									</samplecharacteristics>
								</video>
								<audio>
									<samplecharacteristics>
										<depth>16</depth>
										<samplerate>44100</samplerate>
									</samplecharacteristics>
									<channelcount>2</channelcount>
								</audio>
							</media>
						</file>
						<link>
							<linkclipref>clipitem-87</linkclipref>
							<mediatype>video</mediatype>
							<trackindex>1</trackindex>
							<clipindex>3</clipindex>
						</link>
						<link>
							<linkclipref>clipitem-95</linkclipref>
							<mediatype>audio</mediatype>
							<trackindex>1</trackindex>
							<clipindex>3</clipindex>
							<groupindex>1</groupindex>
						</link>
						<link>
							<linkclipref>clipitem-103</linkclipref>
							<mediatype>audio</mediatype>
							<trackindex>2</trackindex>
							<clipindex>3</clipindex>
							<groupindex>1</groupindex>
						</link>
						<logginginfo>
							<description />
							<scene />
							<shottake />
							<lognote />
							<good />
							<originalvideofilename />
							<originalaudiofilename />
						</logginginfo>
						<colorinfo>
							<lut />
							<lut1 />
							<asc_sop />
							<asc_sat />
							<lut2 />
						</colorinfo>
					<labels><label2>Caribbean</label2></labels></clipitem>
					<clipitem id="clipitem-87">
						<masterclipid>clipitem-3-268</masterclipid>
						<name>Taylor_Swift_Travis_Kelce_-_The_New_Power_Couple.mp4</name>
						<enabled>TRUE</enabled>
						<duration>150</duration>
						<rate>
							<timebase>25</timebase>
							<ntsc>FALSE</ntsc>
						</rate>
						<start>155550</start>
						<end>155700</end>
						<in>40050</in>
						<out>40200</out>
						<pproTicksIn>0</pproTicksIn>
						<pproTicksOut>875013995520000</pproTicksOut>
						<alphatype>none</alphatype>
						<pixelaspectratio>square</pixelaspectratio>
						<anamorphic>FALSE</anamorphic>
						<file id="file-31">
							<name>Taylor_Swift_Travis_Kelce_-_The_New_Power_Couple.mp4</name>
							<pathurl>file://localhost/Users/themalikano/Documents/VideoAutomation/premiere_videos/Taylor_Swift_Travis_Kelce_-_The_New_Power_Couple.mp4</pathurl>
							<rate>
								<timebase>25</timebase>
								<ntsc>FALSE</ntsc>
							</rate>
							<duration>86118</duration>
							<timecode>
								<rate>
									<timebase>25</timebase>
									<ntsc>FALSE</ntsc>
								</rate>
								<string>00:00:00:00</string>
								<frame>0</frame>
								<displayformat>NDF</displayformat>
							</timecode>
							<media>
								<video>
									<samplecharacteristics>
										<rate>
											<timebase>25</timebase>
											<ntsc>FALSE</ntsc>
										</rate>
										<width>1920</width>
										<height>1080</height>
										<anamorphic>FALSE</anamorphic>
										<pixelaspectratio>square</pixelaspectratio>
										<fielddominance>none</fielddominance>
									</samplecharacteristics>
								</video>
								<audio>
									<samplecharacteristics>
										<depth>16</depth>
										<samplerate>44100</samplerate>
									</samplecharacteristics>
									<channelcount>2</channelcount>
								</audio>
							</media>
						</file>
						<link>
							<linkclipref>clipitem-87</linkclipref>
							<mediatype>video</mediatype>
							<trackindex>1</trackindex>
							<clipindex>3</clipindex>
						</link>
						<link>
							<linkclipref>clipitem-95</linkclipref>
							<mediatype>audio</mediatype>
							<trackindex>1</trackindex>
							<clipindex>3</clipindex>
							<groupindex>1</groupindex>
						</link>
						<link>
							<linkclipref>clipitem-103</linkclipref>
							<mediatype>audio</mediatype>
							<trackindex>2</trackindex>
							<clipindex>3</clipindex>
							<groupindex>1</groupindex>
						</link>
						<logginginfo>
							<description />
							<scene />
							<shottake />
							<lognote />
							<good />
							<originalvideofilename />
							<originalaudiofilename />
						</logginginfo>
						<colorinfo>
							<lut />
							<lut1 />
							<asc_sop />
							<asc_sat />
							<lut2 />
						</colorinfo>
					<labels><label2>Caribbean</label2></labels></clipitem>
					<clipitem id="clipitem-87">
						<masterclipid>clipitem-3-303</masterclipid>
						<name>Taylor_Swift_Travis_Kelce_-_The_New_Power_Couple.mp4</name>
						<enabled>TRUE</enabled>
						<duration>150</duration>
						<rate>
							<timebase>25</timebase>
							<ntsc>FALSE</ntsc>
						</rate>
						<start>155700</start>
						<end>155850</end>
						<in>45300</in>
						<out>45450</out>
						<pproTicksIn>0</pproTicksIn>
						<pproTicksOut>875013995520000</pproTicksOut>
						<alphatype>none</alphatype>
						<pixelaspectratio>square</pixelaspectratio>
						<anamorphic>FALSE</anamorphic>
						<file id="file-31">
							<name>Taylor_Swift_Travis_Kelce_-_The_New_Power_Couple.mp4</name>
							<pathurl>file://localhost/Users/themalikano/Documents/VideoAutomation/premiere_videos/Taylor_Swift_Travis_Kelce_-_The_New_Power_Couple.mp4</pathurl>
							<rate>
								<timebase>25</timebase>
								<ntsc>FALSE</ntsc>
							</rate>
							<duration>86118</duration>
							<timecode>
								<rate>
									<timebase>25</timebase>
									<ntsc>FALSE</ntsc>
								</rate>
								<string>00:00:00:00</string>
								<frame>0</frame>
								<displayformat>NDF</displayformat>
							</timecode>
							<media>
								<video>
									<samplecharacteristics>
										<rate>
											<timebase>25</timebase>
											<ntsc>FALSE</ntsc>
										</rate>
										<width>1920</width>
										<height>1080</height>
										<anamorphic>FALSE</anamorphic>
										<pixelaspectratio>square</pixelaspectratio>
										<fielddominance>none</fielddominance>
									</samplecharacteristics>
								</video>
								<audio>
									<samplecharacteristics>
										<depth>16</depth>
										<samplerate>44100</samplerate>
									</samplecharacteristics>
									<channelcount>2</channelcount>
								</audio>
							</media>
						</file>
						<link>
							<linkclipref>clipitem-87</linkclipref>
							<mediatype>video</mediatype>
							<trackindex>1</trackindex>
							<clipindex>3</clipindex>
						</link>
						<link>
							<linkclipref>clipitem-95</linkclipref>
							<mediatype>audio</mediatype>
							<trackindex>1</trackindex>
							<clipindex>3</clipindex>
							<groupindex>1</groupindex>
						</link>
						<link>
							<linkclipref>clipitem-103</linkclipref>
							<mediatype>audio</mediatype>
							<trackindex>2</trackindex>
							<clipindex>3</clipindex>
							<groupindex>1</groupindex>
						</link>
						<logginginfo>
							<description />
							<scene />
							<shottake />
							<lognote />
							<good />
							<originalvideofilename />
							<originalaudiofilename />
						</logginginfo>
						<colorinfo>
							<lut />
							<lut1 />
							<asc_sop />
							<asc_sat />
							<lut2 />
						</colorinfo>
					<labels><label2>Caribbean</label2></labels></clipitem>
					<clipitem id="clipitem-87">
						<masterclipid>clipitem-3-141</masterclipid>
						<name>Taylor_Swift_Travis_Kelce_-_The_New_Power_Couple.mp4</name>
						<enabled>TRUE</enabled>
						<duration>150</duration>
						<rate>
							<timebase>25</timebase>
							<ntsc>FALSE</ntsc>
						</rate>
						<start>155850</start>
						<end>156000</end>
						<in>21000</in>
						<out>21150</out>
						<pproTicksIn>0</pproTicksIn>
						<pproTicksOut>875013995520000</pproTicksOut>
						<alphatype>none</alphatype>
						<pixelaspectratio>square</pixelaspectratio>
						<anamorphic>FALSE</anamorphic>
						<file id="file-31">
							<name>Taylor_Swift_Travis_Kelce_-_The_New_Power_Couple.mp4</name>
							<pathurl>file://localhost/Users/themalikano/Documents/VideoAutomation/premiere_videos/Taylor_Swift_Travis_Kelce_-_The_New_Power_Couple.mp4</pathurl>
							<rate>
								<timebase>25</timebase>
								<ntsc>FALSE</ntsc>
							</rate>
							<duration>86118</duration>
							<timecode>
								<rate>
									<timebase>25</timebase>
									<ntsc>FALSE</ntsc>
								</rate>
								<string>00:00:00:00</string>
								<frame>0</frame>
								<displayformat>NDF</displayformat>
							</timecode>
							<media>
								<video>
									<samplecharacteristics>
										<rate>
											<timebase>25</timebase>
											<ntsc>FALSE</ntsc>
										</rate>
										<width>1920</width>
										<height>1080</height>
										<anamorphic>FALSE</anamorphic>
										<pixelaspectratio>square</pixelaspectratio>
										<fielddominance>none</fielddominance>
									</samplecharacteristics>
								</video>
								<audio>
									<samplecharacteristics>
										<depth>16</depth>
										<samplerate>44100</samplerate>
									</samplecharacteristics>
									<channelcount>2</channelcount>
								</audio>
							</media>
						</file>
						<link>
							<linkclipref>clipitem-87</linkclipref>
							<mediatype>video</mediatype>
							<trackindex>1</trackindex>
							<clipindex>3</clipindex>
						</link>
						<link>
							<linkclipref>clipitem-95</linkclipref>
							<mediatype>audio</mediatype>
							<trackindex>1</trackindex>
							<clipindex>3</clipindex>
							<groupindex>1</groupindex>
						</link>
						<link>
							<linkclipref>clipitem-103</linkclipref>
							<mediatype>audio</mediatype>
							<trackindex>2</trackindex>
							<clipindex>3</clipindex>
							<groupindex>1</groupindex>
						</link>
						<logginginfo>
							<description />
							<scene />
							<shottake />
							<lognote />
							<good />
							<originalvideofilename />
							<originalaudiofilename />
						</logginginfo>
						<colorinfo>
							<lut />
							<lut1 />
							<asc_sop />
							<asc_sat />
							<lut2 />
						</colorinfo>
					<labels><label2>Caribbean</label2></labels></clipitem>
					<clipitem id="clipitem-87">
						<masterclipid>clipitem-3-131</masterclipid>
						<name>Taylor_Swift_Travis_Kelce_-_The_New_Power_Couple.mp4</name>
						<enabled>TRUE</enabled>
						<duration>150</duration>
						<rate>
							<timebase>25</timebase>
							<ntsc>FALSE</ntsc>
						</rate>
						<start>156000</start>
						<end>156150</end>
						<in>19500</in>
						<out>19650</out>
						<pproTicksIn>0</pproTicksIn>
						<pproTicksOut>875013995520000</pproTicksOut>
						<alphatype>none</alphatype>
						<pixelaspectratio>square</pixelaspectratio>
						<anamorphic>FALSE</anamorphic>
						<file id="file-31">
							<name>Taylor_Swift_Travis_Kelce_-_The_New_Power_Couple.mp4</name>
							<pathurl>file://localhost/Users/themalikano/Documents/VideoAutomation/premiere_videos/Taylor_Swift_Travis_Kelce_-_The_New_Power_Couple.mp4</pathurl>
							<rate>
								<timebase>25</timebase>
								<ntsc>FALSE</ntsc>
							</rate>
							<duration>86118</duration>
							<timecode>
								<rate>
									<timebase>25</timebase>
									<ntsc>FALSE</ntsc>
								</rate>
								<string>00:00:00:00</string>
								<frame>0</frame>
								<displayformat>NDF</displayformat>
							</timecode>
							<media>
								<video>
									<samplecharacteristics>
										<rate>
											<timebase>25</timebase>
											<ntsc>FALSE</ntsc>
										</rate>
										<width>1920</width>
										<height>1080</height>
										<anamorphic>FALSE</anamorphic>
										<pixelaspectratio>square</pixelaspectratio>
										<fielddominance>none</fielddominance>
									</samplecharacteristics>
								</video>
								<audio>
									<samplecharacteristics>
										<depth>16</depth>
										<samplerate>44100</samplerate>
									</samplecharacteristics>
									<channelcount>2</channelcount>
								</audio>
							</media>
						</file>
						<link>
							<linkclipref>clipitem-87</linkclipref>
							<mediatype>video</mediatype>
							<trackindex>1</trackindex>
							<clipindex>3</clipindex>
						</link>
						<link>
							<linkclipref>clipitem-95</linkclipref>
							<mediatype>audio</mediatype>
							<trackindex>1</trackindex>
							<clipindex>3</clipindex>
							<groupindex>1</groupindex>
						</link>
						<link>
							<linkclipref>clipitem-103</linkclipref>
							<mediatype>audio</mediatype>
							<trackindex>2</trackindex>
							<clipindex>3</clipindex>
							<groupindex>1</groupindex>
						</link>
						<logginginfo>
							<description />
							<scene />
							<shottake />
							<lognote />
							<good />
							<originalvideofilename />
							<originalaudiofilename />
						</logginginfo>
						<colorinfo>
							<lut />
							<lut1 />
							<asc_sop />
							<asc_sat />
							<lut2 />
						</colorinfo>
					<labels><label2>Caribbean</label2></labels></clipitem>
					<clipitem id="clipitem-87">
						<masterclipid>clipitem-3-376</masterclipid>
						<name>Taylor_Swift_Travis_Kelce_-_The_New_Power_Couple.mp4</name>
						<enabled>TRUE</enabled>
						<duration>150</duration>
						<rate>
							<timebase>25</timebase>
							<ntsc>FALSE</ntsc>
						</rate>
						<start>156150</start>
						<end>156300</end>
						<in>56250</in>
						<out>56400</out>
						<pproTicksIn>0</pproTicksIn>
						<pproTicksOut>875013995520000</pproTicksOut>
						<alphatype>none</alphatype>
						<pixelaspectratio>square</pixelaspectratio>
						<anamorphic>FALSE</anamorphic>
						<file id="file-31">
							<name>Taylor_Swift_Travis_Kelce_-_The_New_Power_Couple.mp4</name>
							<pathurl>file://localhost/Users/themalikano/Documents/VideoAutomation/premiere_videos/Taylor_Swift_Travis_Kelce_-_The_New_Power_Couple.mp4</pathurl>
							<rate>
								<timebase>25</timebase>
								<ntsc>FALSE</ntsc>
							</rate>
							<duration>86118</duration>
							<timecode>
								<rate>
									<timebase>25</timebase>
									<ntsc>FALSE</ntsc>
								</rate>
								<string>00:00:00:00</string>
								<frame>0</frame>
								<displayformat>NDF</displayformat>
							</timecode>
							<media>
								<video>
									<samplecharacteristics>
										<rate>
											<timebase>25</timebase>
											<ntsc>FALSE</ntsc>
										</rate>
										<width>1920</width>
										<height>1080</height>
										<anamorphic>FALSE</anamorphic>
										<pixelaspectratio>square</pixelaspectratio>
										<fielddominance>none</fielddominance>
									</samplecharacteristics>
								</video>
								<audio>
									<samplecharacteristics>
										<depth>16</depth>
										<samplerate>44100</samplerate>
									</samplecharacteristics>
									<channelcount>2</channelcount>
								</audio>
							</media>
						</file>
						<link>
							<linkclipref>clipitem-87</linkclipref>
							<mediatype>video</mediatype>
							<trackindex>1</trackindex>
							<clipindex>3</clipindex>
						</link>
						<link>
							<linkclipref>clipitem-95</linkclipref>
							<mediatype>audio</mediatype>
							<trackindex>1</trackindex>
							<clipindex>3</clipindex>
							<groupindex>1</groupindex>
						</link>
						<link>
							<linkclipref>clipitem-103</linkclipref>
							<mediatype>audio</mediatype>
							<trackindex>2</trackindex>
							<clipindex>3</clipindex>
							<groupindex>1</groupindex>
						</link>
						<logginginfo>
							<description />
							<scene />
							<shottake />
							<lognote />
							<good />
							<originalvideofilename />
							<originalaudiofilename />
						</logginginfo>
						<colorinfo>
							<lut />
							<lut1 />
							<asc_sop />
							<asc_sat />
							<lut2 />
						</colorinfo>
					<labels><label2>Caribbean</label2></labels></clipitem>
					<clipitem id="clipitem-87">
						<masterclipid>clipitem-3-27</masterclipid>
						<name>Taylor_Swift_Travis_Kelce_-_The_New_Power_Couple.mp4</name>
						<enabled>TRUE</enabled>
						<duration>150</duration>
						<rate>
							<timebase>25</timebase>
							<ntsc>FALSE</ntsc>
						</rate>
						<start>156300</start>
						<end>156450</end>
						<in>3900</in>
						<out>4050</out>
						<pproTicksIn>0</pproTicksIn>
						<pproTicksOut>875013995520000</pproTicksOut>
						<alphatype>none</alphatype>
						<pixelaspectratio>square</pixelaspectratio>
						<anamorphic>FALSE</anamorphic>
						<file id="file-31">
							<name>Taylor_Swift_Travis_Kelce_-_The_New_Power_Couple.mp4</name>
							<pathurl>file://localhost/Users/themalikano/Documents/VideoAutomation/premiere_videos/Taylor_Swift_Travis_Kelce_-_The_New_Power_Couple.mp4</pathurl>
							<rate>
								<timebase>25</timebase>
								<ntsc>FALSE</ntsc>
							</rate>
							<duration>86118</duration>
							<timecode>
								<rate>
									<timebase>25</timebase>
									<ntsc>FALSE</ntsc>
								</rate>
								<string>00:00:00:00</string>
								<frame>0</frame>
								<displayformat>NDF</displayformat>
							</timecode>
							<media>
								<video>
									<samplecharacteristics>
										<rate>
											<timebase>25</timebase>
											<ntsc>FALSE</ntsc>
										</rate>
										<width>1920</width>
										<height>1080</height>
										<anamorphic>FALSE</anamorphic>
										<pixelaspectratio>square</pixelaspectratio>
										<fielddominance>none</fielddominance>
									</samplecharacteristics>
								</video>
								<audio>
									<samplecharacteristics>
										<depth>16</depth>
										<samplerate>44100</samplerate>
									</samplecharacteristics>
									<channelcount>2</channelcount>
								</audio>
							</media>
						</file>
						<link>
							<linkclipref>clipitem-87</linkclipref>
							<mediatype>video</mediatype>
							<trackindex>1</trackindex>
							<clipindex>3</clipindex>
						</link>
						<link>
							<linkclipref>clipitem-95</linkclipref>
							<mediatype>audio</mediatype>
							<trackindex>1</trackindex>
							<clipindex>3</clipindex>
							<groupindex>1</groupindex>
						</link>
						<link>
							<linkclipref>clipitem-103</linkclipref>
							<mediatype>audio</mediatype>
							<trackindex>2</trackindex>
							<clipindex>3</clipindex>
							<groupindex>1</groupindex>
						</link>
						<logginginfo>
							<description />
							<scene />
							<shottake />
							<lognote />
							<good />
							<originalvideofilename />
							<originalaudiofilename />
						</logginginfo>
						<colorinfo>
							<lut />
							<lut1 />
							<asc_sop />
							<asc_sat />
							<lut2 />
						</colorinfo>
					<labels><label2>Caribbean</label2></labels></clipitem>
					<clipitem id="clipitem-87">
						<masterclipid>clipitem-3-17</masterclipid>
						<name>Taylor_Swift_Travis_Kelce_-_The_New_Power_Couple.mp4</name>
						<enabled>TRUE</enabled>
						<duration>150</duration>
						<rate>
							<timebase>25</timebase>
							<ntsc>FALSE</ntsc>
						</rate>
						<start>156450</start>
						<end>156600</end>
						<in>2400</in>
						<out>2550</out>
						<pproTicksIn>0</pproTicksIn>
						<pproTicksOut>875013995520000</pproTicksOut>
						<alphatype>none</alphatype>
						<pixelaspectratio>square</pixelaspectratio>
						<anamorphic>FALSE</anamorphic>
						<file id="file-31">
							<name>Taylor_Swift_Travis_Kelce_-_The_New_Power_Couple.mp4</name>
							<pathurl>file://localhost/Users/themalikano/Documents/VideoAutomation/premiere_videos/Taylor_Swift_Travis_Kelce_-_The_New_Power_Couple.mp4</pathurl>
							<rate>
								<timebase>25</timebase>
								<ntsc>FALSE</ntsc>
							</rate>
							<duration>86118</duration>
							<timecode>
								<rate>
									<timebase>25</timebase>
									<ntsc>FALSE</ntsc>
								</rate>
								<string>00:00:00:00</string>
								<frame>0</frame>
								<displayformat>NDF</displayformat>
							</timecode>
							<media>
								<video>
									<samplecharacteristics>
										<rate>
											<timebase>25</timebase>
											<ntsc>FALSE</ntsc>
										</rate>
										<width>1920</width>
										<height>1080</height>
										<anamorphic>FALSE</anamorphic>
										<pixelaspectratio>square</pixelaspectratio>
										<fielddominance>none</fielddominance>
									</samplecharacteristics>
								</video>
								<audio>
									<samplecharacteristics>
										<depth>16</depth>
										<samplerate>44100</samplerate>
									</samplecharacteristics>
									<channelcount>2</channelcount>
								</audio>
							</media>
						</file>
						<link>
							<linkclipref>clipitem-87</linkclipref>
							<mediatype>video</mediatype>
							<trackindex>1</trackindex>
							<clipindex>3</clipindex>
						</link>
						<link>
							<linkclipref>clipitem-95</linkclipref>
							<mediatype>audio</mediatype>
							<trackindex>1</trackindex>
							<clipindex>3</clipindex>
							<groupindex>1</groupindex>
						</link>
						<link>
							<linkclipref>clipitem-103</linkclipref>
							<mediatype>audio</mediatype>
							<trackindex>2</trackindex>
							<clipindex>3</clipindex>
							<groupindex>1</groupindex>
						</link>
						<logginginfo>
							<description />
							<scene />
							<shottake />
							<lognote />
							<good />
							<originalvideofilename />
							<originalaudiofilename />
						</logginginfo>
						<colorinfo>
							<lut />
							<lut1 />
							<asc_sop />
							<asc_sat />
							<lut2 />
						</colorinfo>
					<labels><label2>Caribbean</label2></labels></clipitem>
					<clipitem id="clipitem-87">
						<masterclipid>clipitem-3-478</masterclipid>
						<name>Taylor_Swift_Travis_Kelce_-_The_New_Power_Couple.mp4</name>
						<enabled>TRUE</enabled>
						<duration>150</duration>
						<rate>
							<timebase>25</timebase>
							<ntsc>FALSE</ntsc>
						</rate>
						<start>156600</start>
						<end>156750</end>
						<in>71550</in>
						<out>71700</out>
						<pproTicksIn>0</pproTicksIn>
						<pproTicksOut>875013995520000</pproTicksOut>
						<alphatype>none</alphatype>
						<pixelaspectratio>square</pixelaspectratio>
						<anamorphic>FALSE</anamorphic>
						<file id="file-31">
							<name>Taylor_Swift_Travis_Kelce_-_The_New_Power_Couple.mp4</name>
							<pathurl>file://localhost/Users/themalikano/Documents/VideoAutomation/premiere_videos/Taylor_Swift_Travis_Kelce_-_The_New_Power_Couple.mp4</pathurl>
							<rate>
								<timebase>25</timebase>
								<ntsc>FALSE</ntsc>
							</rate>
							<duration>86118</duration>
							<timecode>
								<rate>
									<timebase>25</timebase>
									<ntsc>FALSE</ntsc>
								</rate>
								<string>00:00:00:00</string>
								<frame>0</frame>
								<displayformat>NDF</displayformat>
							</timecode>
							<media>
								<video>
									<samplecharacteristics>
										<rate>
											<timebase>25</timebase>
											<ntsc>FALSE</ntsc>
										</rate>
										<width>1920</width>
										<height>1080</height>
										<anamorphic>FALSE</anamorphic>
										<pixelaspectratio>square</pixelaspectratio>
										<fielddominance>none</fielddominance>
									</samplecharacteristics>
								</video>
								<audio>
									<samplecharacteristics>
										<depth>16</depth>
										<samplerate>44100</samplerate>
									</samplecharacteristics>
									<channelcount>2</channelcount>
								</audio>
							</media>
						</file>
						<link>
							<linkclipref>clipitem-87</linkclipref>
							<mediatype>video</mediatype>
							<trackindex>1</trackindex>
							<clipindex>3</clipindex>
						</link>
						<link>
							<linkclipref>clipitem-95</linkclipref>
							<mediatype>audio</mediatype>
							<trackindex>1</trackindex>
							<clipindex>3</clipindex>
							<groupindex>1</groupindex>
						</link>
						<link>
							<linkclipref>clipitem-103</linkclipref>
							<mediatype>audio</mediatype>
							<trackindex>2</trackindex>
							<clipindex>3</clipindex>
							<groupindex>1</groupindex>
						</link>
						<logginginfo>
							<description />
							<scene />
							<shottake />
							<lognote />
							<good />
							<originalvideofilename />
							<originalaudiofilename />
						</logginginfo>
						<colorinfo>
							<lut />
							<lut1 />
							<asc_sop />
							<asc_sat />
							<lut2 />
						</colorinfo>
					<labels><label2>Caribbean</label2></labels></clipitem>
					<clipitem id="clipitem-87">
						<masterclipid>clipitem-3-122</masterclipid>
						<name>Taylor_Swift_Travis_Kelce_-_The_New_Power_Couple.mp4</name>
						<enabled>TRUE</enabled>
						<duration>150</duration>
						<rate>
							<timebase>25</timebase>
							<ntsc>FALSE</ntsc>
						</rate>
						<start>156750</start>
						<end>156900</end>
						<in>18150</in>
						<out>18300</out>
						<pproTicksIn>0</pproTicksIn>
						<pproTicksOut>875013995520000</pproTicksOut>
						<alphatype>none</alphatype>
						<pixelaspectratio>square</pixelaspectratio>
						<anamorphic>FALSE</anamorphic>
						<file id="file-31">
							<name>Taylor_Swift_Travis_Kelce_-_The_New_Power_Couple.mp4</name>
							<pathurl>file://localhost/Users/themalikano/Documents/VideoAutomation/premiere_videos/Taylor_Swift_Travis_Kelce_-_The_New_Power_Couple.mp4</pathurl>
							<rate>
								<timebase>25</timebase>
								<ntsc>FALSE</ntsc>
							</rate>
							<duration>86118</duration>
							<timecode>
								<rate>
									<timebase>25</timebase>
									<ntsc>FALSE</ntsc>
								</rate>
								<string>00:00:00:00</string>
								<frame>0</frame>
								<displayformat>NDF</displayformat>
							</timecode>
							<media>
								<video>
									<samplecharacteristics>
										<rate>
											<timebase>25</timebase>
											<ntsc>FALSE</ntsc>
										</rate>
										<width>1920</width>
										<height>1080</height>
										<anamorphic>FALSE</anamorphic>
										<pixelaspectratio>square</pixelaspectratio>
										<fielddominance>none</fielddominance>
									</samplecharacteristics>
								</video>
								<audio>
									<samplecharacteristics>
										<depth>16</depth>
										<samplerate>44100</samplerate>
									</samplecharacteristics>
									<channelcount>2</channelcount>
								</audio>
							</media>
						</file>
						<link>
							<linkclipref>clipitem-87</linkclipref>
							<mediatype>video</mediatype>
							<trackindex>1</trackindex>
							<clipindex>3</clipindex>
						</link>
						<link>
							<linkclipref>clipitem-95</linkclipref>
							<mediatype>audio</mediatype>
							<trackindex>1</trackindex>
							<clipindex>3</clipindex>
							<groupindex>1</groupindex>
						</link>
						<link>
							<linkclipref>clipitem-103</linkclipref>
							<mediatype>audio</mediatype>
							<trackindex>2</trackindex>
							<clipindex>3</clipindex>
							<groupindex>1</groupindex>
						</link>
						<logginginfo>
							<description />
							<scene />
							<shottake />
							<lognote />
							<good />
							<originalvideofilename />
							<originalaudiofilename />
						</logginginfo>
						<colorinfo>
							<lut />
							<lut1 />
							<asc_sop />
							<asc_sat />
							<lut2 />
						</colorinfo>
					<labels><label2>Caribbean</label2></labels></clipitem>
					<clipitem id="clipitem-87">
						<masterclipid>clipitem-3-414</masterclipid>
						<name>Taylor_Swift_Travis_Kelce_-_The_New_Power_Couple.mp4</name>
						<enabled>TRUE</enabled>
						<duration>150</duration>
						<rate>
							<timebase>25</timebase>
							<ntsc>FALSE</ntsc>
						</rate>
						<start>156900</start>
						<end>157050</end>
						<in>61950</in>
						<out>62100</out>
						<pproTicksIn>0</pproTicksIn>
						<pproTicksOut>875013995520000</pproTicksOut>
						<alphatype>none</alphatype>
						<pixelaspectratio>square</pixelaspectratio>
						<anamorphic>FALSE</anamorphic>
						<file id="file-31">
							<name>Taylor_Swift_Travis_Kelce_-_The_New_Power_Couple.mp4</name>
							<pathurl>file://localhost/Users/themalikano/Documents/VideoAutomation/premiere_videos/Taylor_Swift_Travis_Kelce_-_The_New_Power_Couple.mp4</pathurl>
							<rate>
								<timebase>25</timebase>
								<ntsc>FALSE</ntsc>
							</rate>
							<duration>86118</duration>
							<timecode>
								<rate>
									<timebase>25</timebase>
									<ntsc>FALSE</ntsc>
								</rate>
								<string>00:00:00:00</string>
								<frame>0</frame>
								<displayformat>NDF</displayformat>
							</timecode>
							<media>
								<video>
									<samplecharacteristics>
										<rate>
											<timebase>25</timebase>
											<ntsc>FALSE</ntsc>
										</rate>
										<width>1920</width>
										<height>1080</height>
										<anamorphic>FALSE</anamorphic>
										<pixelaspectratio>square</pixelaspectratio>
										<fielddominance>none</fielddominance>
									</samplecharacteristics>
								</video>
								<audio>
									<samplecharacteristics>
										<depth>16</depth>
										<samplerate>44100</samplerate>
									</samplecharacteristics>
									<channelcount>2</channelcount>
								</audio>
							</media>
						</file>
						<link>
							<linkclipref>clipitem-87</linkclipref>
							<mediatype>video</mediatype>
							<trackindex>1</trackindex>
							<clipindex>3</clipindex>
						</link>
						<link>
							<linkclipref>clipitem-95</linkclipref>
							<mediatype>audio</mediatype>
							<trackindex>1</trackindex>
							<clipindex>3</clipindex>
							<groupindex>1</groupindex>
						</link>
						<link>
							<linkclipref>clipitem-103</linkclipref>
							<mediatype>audio</mediatype>
							<trackindex>2</trackindex>
							<clipindex>3</clipindex>
							<groupindex>1</groupindex>
						</link>
						<logginginfo>
							<description />
							<scene />
							<shottake />
							<lognote />
							<good />
							<originalvideofilename />
							<originalaudiofilename />
						</logginginfo>
						<colorinfo>
							<lut />
							<lut1 />
							<asc_sop />
							<asc_sat />
							<lut2 />
						</colorinfo>
					<labels><label2>Caribbean</label2></labels></clipitem>
					<clipitem id="clipitem-87">
						<masterclipid>clipitem-3-205</masterclipid>
						<name>Taylor_Swift_Travis_Kelce_-_The_New_Power_Couple.mp4</name>
						<enabled>TRUE</enabled>
						<duration>150</duration>
						<rate>
							<timebase>25</timebase>
							<ntsc>FALSE</ntsc>
						</rate>
						<start>157050</start>
						<end>157200</end>
						<in>30600</in>
						<out>30750</out>
						<pproTicksIn>0</pproTicksIn>
						<pproTicksOut>875013995520000</pproTicksOut>
						<alphatype>none</alphatype>
						<pixelaspectratio>square</pixelaspectratio>
						<anamorphic>FALSE</anamorphic>
						<file id="file-31">
							<name>Taylor_Swift_Travis_Kelce_-_The_New_Power_Couple.mp4</name>
							<pathurl>file://localhost/Users/themalikano/Documents/VideoAutomation/premiere_videos/Taylor_Swift_Travis_Kelce_-_The_New_Power_Couple.mp4</pathurl>
							<rate>
								<timebase>25</timebase>
								<ntsc>FALSE</ntsc>
							</rate>
							<duration>86118</duration>
							<timecode>
								<rate>
									<timebase>25</timebase>
									<ntsc>FALSE</ntsc>
								</rate>
								<string>00:00:00:00</string>
								<frame>0</frame>
								<displayformat>NDF</displayformat>
							</timecode>
							<media>
								<video>
									<samplecharacteristics>
										<rate>
											<timebase>25</timebase>
											<ntsc>FALSE</ntsc>
										</rate>
										<width>1920</width>
										<height>1080</height>
										<anamorphic>FALSE</anamorphic>
										<pixelaspectratio>square</pixelaspectratio>
										<fielddominance>none</fielddominance>
									</samplecharacteristics>
								</video>
								<audio>
									<samplecharacteristics>
										<depth>16</depth>
										<samplerate>44100</samplerate>
									</samplecharacteristics>
									<channelcount>2</channelcount>
								</audio>
							</media>
						</file>
						<link>
							<linkclipref>clipitem-87</linkclipref>
							<mediatype>video</mediatype>
							<trackindex>1</trackindex>
							<clipindex>3</clipindex>
						</link>
						<link>
							<linkclipref>clipitem-95</linkclipref>
							<mediatype>audio</mediatype>
							<trackindex>1</trackindex>
							<clipindex>3</clipindex>
							<groupindex>1</groupindex>
						</link>
						<link>
							<linkclipref>clipitem-103</linkclipref>
							<mediatype>audio</mediatype>
							<trackindex>2</trackindex>
							<clipindex>3</clipindex>
							<groupindex>1</groupindex>
						</link>
						<logginginfo>
							<description />
							<scene />
							<shottake />
							<lognote />
							<good />
							<originalvideofilename />
							<originalaudiofilename />
						</logginginfo>
						<colorinfo>
							<lut />
							<lut1 />
							<asc_sop />
							<asc_sat />
							<lut2 />
						</colorinfo>
					<labels><label2>Caribbean</label2></labels></clipitem>
					<clipitem id="clipitem-87">
						<masterclipid>clipitem-3-542</masterclipid>
						<name>Taylor_Swift_Travis_Kelce_-_The_New_Power_Couple.mp4</name>
						<enabled>TRUE</enabled>
						<duration>150</duration>
						<rate>
							<timebase>25</timebase>
							<ntsc>FALSE</ntsc>
						</rate>
						<start>157200</start>
						<end>157350</end>
						<in>81150</in>
						<out>81300</out>
						<pproTicksIn>0</pproTicksIn>
						<pproTicksOut>875013995520000</pproTicksOut>
						<alphatype>none</alphatype>
						<pixelaspectratio>square</pixelaspectratio>
						<anamorphic>FALSE</anamorphic>
						<file id="file-31">
							<name>Taylor_Swift_Travis_Kelce_-_The_New_Power_Couple.mp4</name>
							<pathurl>file://localhost/Users/themalikano/Documents/VideoAutomation/premiere_videos/Taylor_Swift_Travis_Kelce_-_The_New_Power_Couple.mp4</pathurl>
							<rate>
								<timebase>25</timebase>
								<ntsc>FALSE</ntsc>
							</rate>
							<duration>86118</duration>
							<timecode>
								<rate>
									<timebase>25</timebase>
									<ntsc>FALSE</ntsc>
								</rate>
								<string>00:00:00:00</string>
								<frame>0</frame>
								<displayformat>NDF</displayformat>
							</timecode>
							<media>
								<video>
									<samplecharacteristics>
										<rate>
											<timebase>25</timebase>
											<ntsc>FALSE</ntsc>
										</rate>
										<width>1920</width>
										<height>1080</height>
										<anamorphic>FALSE</anamorphic>
										<pixelaspectratio>square</pixelaspectratio>
										<fielddominance>none</fielddominance>
									</samplecharacteristics>
								</video>
								<audio>
									<samplecharacteristics>
										<depth>16</depth>
										<samplerate>44100</samplerate>
									</samplecharacteristics>
									<channelcount>2</channelcount>
								</audio>
							</media>
						</file>
						<link>
							<linkclipref>clipitem-87</linkclipref>
							<mediatype>video</mediatype>
							<trackindex>1</trackindex>
							<clipindex>3</clipindex>
						</link>
						<link>
							<linkclipref>clipitem-95</linkclipref>
							<mediatype>audio</mediatype>
							<trackindex>1</trackindex>
							<clipindex>3</clipindex>
							<groupindex>1</groupindex>
						</link>
						<link>
							<linkclipref>clipitem-103</linkclipref>
							<mediatype>audio</mediatype>
							<trackindex>2</trackindex>
							<clipindex>3</clipindex>
							<groupindex>1</groupindex>
						</link>
						<logginginfo>
							<description />
							<scene />
							<shottake />
							<lognote />
							<good />
							<originalvideofilename />
							<originalaudiofilename />
						</logginginfo>
						<colorinfo>
							<lut />
							<lut1 />
							<asc_sop />
							<asc_sat />
							<lut2 />
						</colorinfo>
					<labels><label2>Caribbean</label2></labels></clipitem>
					<clipitem id="clipitem-87">
						<masterclipid>clipitem-3-204</masterclipid>
						<name>Taylor_Swift_Travis_Kelce_-_The_New_Power_Couple.mp4</name>
						<enabled>TRUE</enabled>
						<duration>150</duration>
						<rate>
							<timebase>25</timebase>
							<ntsc>FALSE</ntsc>
						</rate>
						<start>157350</start>
						<end>157500</end>
						<in>30450</in>
						<out>30600</out>
						<pproTicksIn>0</pproTicksIn>
						<pproTicksOut>875013995520000</pproTicksOut>
						<alphatype>none</alphatype>
						<pixelaspectratio>square</pixelaspectratio>
						<anamorphic>FALSE</anamorphic>
						<file id="file-31">
							<name>Taylor_Swift_Travis_Kelce_-_The_New_Power_Couple.mp4</name>
							<pathurl>file://localhost/Users/themalikano/Documents/VideoAutomation/premiere_videos/Taylor_Swift_Travis_Kelce_-_The_New_Power_Couple.mp4</pathurl>
							<rate>
								<timebase>25</timebase>
								<ntsc>FALSE</ntsc>
							</rate>
							<duration>86118</duration>
							<timecode>
								<rate>
									<timebase>25</timebase>
									<ntsc>FALSE</ntsc>
								</rate>
								<string>00:00:00:00</string>
								<frame>0</frame>
								<displayformat>NDF</displayformat>
							</timecode>
							<media>
								<video>
									<samplecharacteristics>
										<rate>
											<timebase>25</timebase>
											<ntsc>FALSE</ntsc>
										</rate>
										<width>1920</width>
										<height>1080</height>
										<anamorphic>FALSE</anamorphic>
										<pixelaspectratio>square</pixelaspectratio>
										<fielddominance>none</fielddominance>
									</samplecharacteristics>
								</video>
								<audio>
									<samplecharacteristics>
										<depth>16</depth>
										<samplerate>44100</samplerate>
									</samplecharacteristics>
									<channelcount>2</channelcount>
								</audio>
							</media>
						</file>
						<link>
							<linkclipref>clipitem-87</linkclipref>
							<mediatype>video</mediatype>
							<trackindex>1</trackindex>
							<clipindex>3</clipindex>
						</link>
						<link>
							<linkclipref>clipitem-95</linkclipref>
							<mediatype>audio</mediatype>
							<trackindex>1</trackindex>
							<clipindex>3</clipindex>
							<groupindex>1</groupindex>
						</link>
						<link>
							<linkclipref>clipitem-103</linkclipref>
							<mediatype>audio</mediatype>
							<trackindex>2</trackindex>
							<clipindex>3</clipindex>
							<groupindex>1</groupindex>
						</link>
						<logginginfo>
							<description />
							<scene />
							<shottake />
							<lognote />
							<good />
							<originalvideofilename />
							<originalaudiofilename />
						</logginginfo>
						<colorinfo>
							<lut />
							<lut1 />
							<asc_sop />
							<asc_sat />
							<lut2 />
						</colorinfo>
					<labels><label2>Caribbean</label2></labels></clipitem>
					<clipitem id="clipitem-87">
						<masterclipid>clipitem-3-539</masterclipid>
						<name>Taylor_Swift_Travis_Kelce_-_The_New_Power_Couple.mp4</name>
						<enabled>TRUE</enabled>
						<duration>150</duration>
						<rate>
							<timebase>25</timebase>
							<ntsc>FALSE</ntsc>
						</rate>
						<start>157500</start>
						<end>157650</end>
						<in>80700</in>
						<out>80850</out>
						<pproTicksIn>0</pproTicksIn>
						<pproTicksOut>875013995520000</pproTicksOut>
						<alphatype>none</alphatype>
						<pixelaspectratio>square</pixelaspectratio>
						<anamorphic>FALSE</anamorphic>
						<file id="file-31">
							<name>Taylor_Swift_Travis_Kelce_-_The_New_Power_Couple.mp4</name>
							<pathurl>file://localhost/Users/themalikano/Documents/VideoAutomation/premiere_videos/Taylor_Swift_Travis_Kelce_-_The_New_Power_Couple.mp4</pathurl>
							<rate>
								<timebase>25</timebase>
								<ntsc>FALSE</ntsc>
							</rate>
							<duration>86118</duration>
							<timecode>
								<rate>
									<timebase>25</timebase>
									<ntsc>FALSE</ntsc>
								</rate>
								<string>00:00:00:00</string>
								<frame>0</frame>
								<displayformat>NDF</displayformat>
							</timecode>
							<media>
								<video>
									<samplecharacteristics>
										<rate>
											<timebase>25</timebase>
											<ntsc>FALSE</ntsc>
										</rate>
										<width>1920</width>
										<height>1080</height>
										<anamorphic>FALSE</anamorphic>
										<pixelaspectratio>square</pixelaspectratio>
										<fielddominance>none</fielddominance>
									</samplecharacteristics>
								</video>
								<audio>
									<samplecharacteristics>
										<depth>16</depth>
										<samplerate>44100</samplerate>
									</samplecharacteristics>
									<channelcount>2</channelcount>
								</audio>
							</media>
						</file>
						<link>
							<linkclipref>clipitem-87</linkclipref>
							<mediatype>video</mediatype>
							<trackindex>1</trackindex>
							<clipindex>3</clipindex>
						</link>
						<link>
							<linkclipref>clipitem-95</linkclipref>
							<mediatype>audio</mediatype>
							<trackindex>1</trackindex>
							<clipindex>3</clipindex>
							<groupindex>1</groupindex>
						</link>
						<link>
							<linkclipref>clipitem-103</linkclipref>
							<mediatype>audio</mediatype>
							<trackindex>2</trackindex>
							<clipindex>3</clipindex>
							<groupindex>1</groupindex>
						</link>
						<logginginfo>
							<description />
							<scene />
							<shottake />
							<lognote />
							<good />
							<originalvideofilename />
							<originalaudiofilename />
						</logginginfo>
						<colorinfo>
							<lut />
							<lut1 />
							<asc_sop />
							<asc_sat />
							<lut2 />
						</colorinfo>
					<labels><label2>Caribbean</label2></labels></clipitem>
					<clipitem id="clipitem-87">
						<masterclipid>clipitem-3-265</masterclipid>
						<name>Taylor_Swift_Travis_Kelce_-_The_New_Power_Couple.mp4</name>
						<enabled>TRUE</enabled>
						<duration>150</duration>
						<rate>
							<timebase>25</timebase>
							<ntsc>FALSE</ntsc>
						</rate>
						<start>157650</start>
						<end>157800</end>
						<in>39600</in>
						<out>39750</out>
						<pproTicksIn>0</pproTicksIn>
						<pproTicksOut>875013995520000</pproTicksOut>
						<alphatype>none</alphatype>
						<pixelaspectratio>square</pixelaspectratio>
						<anamorphic>FALSE</anamorphic>
						<file id="file-31">
							<name>Taylor_Swift_Travis_Kelce_-_The_New_Power_Couple.mp4</name>
							<pathurl>file://localhost/Users/themalikano/Documents/VideoAutomation/premiere_videos/Taylor_Swift_Travis_Kelce_-_The_New_Power_Couple.mp4</pathurl>
							<rate>
								<timebase>25</timebase>
								<ntsc>FALSE</ntsc>
							</rate>
							<duration>86118</duration>
							<timecode>
								<rate>
									<timebase>25</timebase>
									<ntsc>FALSE</ntsc>
								</rate>
								<string>00:00:00:00</string>
								<frame>0</frame>
								<displayformat>NDF</displayformat>
							</timecode>
							<media>
								<video>
									<samplecharacteristics>
										<rate>
											<timebase>25</timebase>
											<ntsc>FALSE</ntsc>
										</rate>
										<width>1920</width>
										<height>1080</height>
										<anamorphic>FALSE</anamorphic>
										<pixelaspectratio>square</pixelaspectratio>
										<fielddominance>none</fielddominance>
									</samplecharacteristics>
								</video>
								<audio>
									<samplecharacteristics>
										<depth>16</depth>
										<samplerate>44100</samplerate>
									</samplecharacteristics>
									<channelcount>2</channelcount>
								</audio>
							</media>
						</file>
						<link>
							<linkclipref>clipitem-87</linkclipref>
							<mediatype>video</mediatype>
							<trackindex>1</trackindex>
							<clipindex>3</clipindex>
						</link>
						<link>
							<linkclipref>clipitem-95</linkclipref>
							<mediatype>audio</mediatype>
							<trackindex>1</trackindex>
							<clipindex>3</clipindex>
							<groupindex>1</groupindex>
						</link>
						<link>
							<linkclipref>clipitem-103</linkclipref>
							<mediatype>audio</mediatype>
							<trackindex>2</trackindex>
							<clipindex>3</clipindex>
							<groupindex>1</groupindex>
						</link>
						<logginginfo>
							<description />
							<scene />
							<shottake />
							<lognote />
							<good />
							<originalvideofilename />
							<originalaudiofilename />
						</logginginfo>
						<colorinfo>
							<lut />
							<lut1 />
							<asc_sop />
							<asc_sat />
							<lut2 />
						</colorinfo>
					<labels><label2>Caribbean</label2></labels></clipitem>
					<clipitem id="clipitem-87">
						<masterclipid>clipitem-3-108</masterclipid>
						<name>Taylor_Swift_Travis_Kelce_-_The_New_Power_Couple.mp4</name>
						<enabled>TRUE</enabled>
						<duration>150</duration>
						<rate>
							<timebase>25</timebase>
							<ntsc>FALSE</ntsc>
						</rate>
						<start>157800</start>
						<end>157950</end>
						<in>16050</in>
						<out>16200</out>
						<pproTicksIn>0</pproTicksIn>
						<pproTicksOut>875013995520000</pproTicksOut>
						<alphatype>none</alphatype>
						<pixelaspectratio>square</pixelaspectratio>
						<anamorphic>FALSE</anamorphic>
						<file id="file-31">
							<name>Taylor_Swift_Travis_Kelce_-_The_New_Power_Couple.mp4</name>
							<pathurl>file://localhost/Users/themalikano/Documents/VideoAutomation/premiere_videos/Taylor_Swift_Travis_Kelce_-_The_New_Power_Couple.mp4</pathurl>
							<rate>
								<timebase>25</timebase>
								<ntsc>FALSE</ntsc>
							</rate>
							<duration>86118</duration>
							<timecode>
								<rate>
									<timebase>25</timebase>
									<ntsc>FALSE</ntsc>
								</rate>
								<string>00:00:00:00</string>
								<frame>0</frame>
								<displayformat>NDF</displayformat>
							</timecode>
							<media>
								<video>
									<samplecharacteristics>
										<rate>
											<timebase>25</timebase>
											<ntsc>FALSE</ntsc>
										</rate>
										<width>1920</width>
										<height>1080</height>
										<anamorphic>FALSE</anamorphic>
										<pixelaspectratio>square</pixelaspectratio>
										<fielddominance>none</fielddominance>
									</samplecharacteristics>
								</video>
								<audio>
									<samplecharacteristics>
										<depth>16</depth>
										<samplerate>44100</samplerate>
									</samplecharacteristics>
									<channelcount>2</channelcount>
								</audio>
							</media>
						</file>
						<link>
							<linkclipref>clipitem-87</linkclipref>
							<mediatype>video</mediatype>
							<trackindex>1</trackindex>
							<clipindex>3</clipindex>
						</link>
						<link>
							<linkclipref>clipitem-95</linkclipref>
							<mediatype>audio</mediatype>
							<trackindex>1</trackindex>
							<clipindex>3</clipindex>
							<groupindex>1</groupindex>
						</link>
						<link>
							<linkclipref>clipitem-103</linkclipref>
							<mediatype>audio</mediatype>
							<trackindex>2</trackindex>
							<clipindex>3</clipindex>
							<groupindex>1</groupindex>
						</link>
						<logginginfo>
							<description />
							<scene />
							<shottake />
							<lognote />
							<good />
							<originalvideofilename />
							<originalaudiofilename />
						</logginginfo>
						<colorinfo>
							<lut />
							<lut1 />
							<asc_sop />
							<asc_sat />
							<lut2 />
						</colorinfo>
					<labels><label2>Caribbean</label2></labels></clipitem>
					<clipitem id="clipitem-87">
						<masterclipid>clipitem-3-509</masterclipid>
						<name>Taylor_Swift_Travis_Kelce_-_The_New_Power_Couple.mp4</name>
						<enabled>TRUE</enabled>
						<duration>150</duration>
						<rate>
							<timebase>25</timebase>
							<ntsc>FALSE</ntsc>
						</rate>
						<start>157950</start>
						<end>158100</end>
						<in>76200</in>
						<out>76350</out>
						<pproTicksIn>0</pproTicksIn>
						<pproTicksOut>875013995520000</pproTicksOut>
						<alphatype>none</alphatype>
						<pixelaspectratio>square</pixelaspectratio>
						<anamorphic>FALSE</anamorphic>
						<file id="file-31">
							<name>Taylor_Swift_Travis_Kelce_-_The_New_Power_Couple.mp4</name>
							<pathurl>file://localhost/Users/themalikano/Documents/VideoAutomation/premiere_videos/Taylor_Swift_Travis_Kelce_-_The_New_Power_Couple.mp4</pathurl>
							<rate>
								<timebase>25</timebase>
								<ntsc>FALSE</ntsc>
							</rate>
							<duration>86118</duration>
							<timecode>
								<rate>
									<timebase>25</timebase>
									<ntsc>FALSE</ntsc>
								</rate>
								<string>00:00:00:00</string>
								<frame>0</frame>
								<displayformat>NDF</displayformat>
							</timecode>
							<media>
								<video>
									<samplecharacteristics>
										<rate>
											<timebase>25</timebase>
											<ntsc>FALSE</ntsc>
										</rate>
										<width>1920</width>
										<height>1080</height>
										<anamorphic>FALSE</anamorphic>
										<pixelaspectratio>square</pixelaspectratio>
										<fielddominance>none</fielddominance>
									</samplecharacteristics>
								</video>
								<audio>
									<samplecharacteristics>
										<depth>16</depth>
										<samplerate>44100</samplerate>
									</samplecharacteristics>
									<channelcount>2</channelcount>
								</audio>
							</media>
						</file>
						<link>
							<linkclipref>clipitem-87</linkclipref>
							<mediatype>video</mediatype>
							<trackindex>1</trackindex>
							<clipindex>3</clipindex>
						</link>
						<link>
							<linkclipref>clipitem-95</linkclipref>
							<mediatype>audio</mediatype>
							<trackindex>1</trackindex>
							<clipindex>3</clipindex>
							<groupindex>1</groupindex>
						</link>
						<link>
							<linkclipref>clipitem-103</linkclipref>
							<mediatype>audio</mediatype>
							<trackindex>2</trackindex>
							<clipindex>3</clipindex>
							<groupindex>1</groupindex>
						</link>
						<logginginfo>
							<description />
							<scene />
							<shottake />
							<lognote />
							<good />
							<originalvideofilename />
							<originalaudiofilename />
						</logginginfo>
						<colorinfo>
							<lut />
							<lut1 />
							<asc_sop />
							<asc_sat />
							<lut2 />
						</colorinfo>
					<labels><label2>Caribbean</label2></labels></clipitem>
					<clipitem id="clipitem-87">
						<masterclipid>clipitem-3-551</masterclipid>
						<name>Taylor_Swift_Travis_Kelce_-_The_New_Power_Couple.mp4</name>
						<enabled>TRUE</enabled>
						<duration>150</duration>
						<rate>
							<timebase>25</timebase>
							<ntsc>FALSE</ntsc>
						</rate>
						<start>158100</start>
						<end>158250</end>
						<in>82500</in>
						<out>82650</out>
						<pproTicksIn>0</pproTicksIn>
						<pproTicksOut>875013995520000</pproTicksOut>
						<alphatype>none</alphatype>
						<pixelaspectratio>square</pixelaspectratio>
						<anamorphic>FALSE</anamorphic>
						<file id="file-31">
							<name>Taylor_Swift_Travis_Kelce_-_The_New_Power_Couple.mp4</name>
							<pathurl>file://localhost/Users/themalikano/Documents/VideoAutomation/premiere_videos/Taylor_Swift_Travis_Kelce_-_The_New_Power_Couple.mp4</pathurl>
							<rate>
								<timebase>25</timebase>
								<ntsc>FALSE</ntsc>
							</rate>
							<duration>86118</duration>
							<timecode>
								<rate>
									<timebase>25</timebase>
									<ntsc>FALSE</ntsc>
								</rate>
								<string>00:00:00:00</string>
								<frame>0</frame>
								<displayformat>NDF</displayformat>
							</timecode>
							<media>
								<video>
									<samplecharacteristics>
										<rate>
											<timebase>25</timebase>
											<ntsc>FALSE</ntsc>
										</rate>
										<width>1920</width>
										<height>1080</height>
										<anamorphic>FALSE</anamorphic>
										<pixelaspectratio>square</pixelaspectratio>
										<fielddominance>none</fielddominance>
									</samplecharacteristics>
								</video>
								<audio>
									<samplecharacteristics>
										<depth>16</depth>
										<samplerate>44100</samplerate>
									</samplecharacteristics>
									<channelcount>2</channelcount>
								</audio>
							</media>
						</file>
						<link>
							<linkclipref>clipitem-87</linkclipref>
							<mediatype>video</mediatype>
							<trackindex>1</trackindex>
							<clipindex>3</clipindex>
						</link>
						<link>
							<linkclipref>clipitem-95</linkclipref>
							<mediatype>audio</mediatype>
							<trackindex>1</trackindex>
							<clipindex>3</clipindex>
							<groupindex>1</groupindex>
						</link>
						<link>
							<linkclipref>clipitem-103</linkclipref>
							<mediatype>audio</mediatype>
							<trackindex>2</trackindex>
							<clipindex>3</clipindex>
							<groupindex>1</groupindex>
						</link>
						<logginginfo>
							<description />
							<scene />
							<shottake />
							<lognote />
							<good />
							<originalvideofilename />
							<originalaudiofilename />
						</logginginfo>
						<colorinfo>
							<lut />
							<lut1 />
							<asc_sop />
							<asc_sat />
							<lut2 />
						</colorinfo>
					<labels><label2>Caribbean</label2></labels></clipitem>
					<clipitem id="clipitem-87">
						<masterclipid>clipitem-3-553</masterclipid>
						<name>Taylor_Swift_Travis_Kelce_-_The_New_Power_Couple.mp4</name>
						<enabled>TRUE</enabled>
						<duration>150</duration>
						<rate>
							<timebase>25</timebase>
							<ntsc>FALSE</ntsc>
						</rate>
						<start>158250</start>
						<end>158400</end>
						<in>82800</in>
						<out>82950</out>
						<pproTicksIn>0</pproTicksIn>
						<pproTicksOut>875013995520000</pproTicksOut>
						<alphatype>none</alphatype>
						<pixelaspectratio>square</pixelaspectratio>
						<anamorphic>FALSE</anamorphic>
						<file id="file-31">
							<name>Taylor_Swift_Travis_Kelce_-_The_New_Power_Couple.mp4</name>
							<pathurl>file://localhost/Users/themalikano/Documents/VideoAutomation/premiere_videos/Taylor_Swift_Travis_Kelce_-_The_New_Power_Couple.mp4</pathurl>
							<rate>
								<timebase>25</timebase>
								<ntsc>FALSE</ntsc>
							</rate>
							<duration>86118</duration>
							<timecode>
								<rate>
									<timebase>25</timebase>
									<ntsc>FALSE</ntsc>
								</rate>
								<string>00:00:00:00</string>
								<frame>0</frame>
								<displayformat>NDF</displayformat>
							</timecode>
							<media>
								<video>
									<samplecharacteristics>
										<rate>
											<timebase>25</timebase>
											<ntsc>FALSE</ntsc>
										</rate>
										<width>1920</width>
										<height>1080</height>
										<anamorphic>FALSE</anamorphic>
										<pixelaspectratio>square</pixelaspectratio>
										<fielddominance>none</fielddominance>
									</samplecharacteristics>
								</video>
								<audio>
									<samplecharacteristics>
										<depth>16</depth>
										<samplerate>44100</samplerate>
									</samplecharacteristics>
									<channelcount>2</channelcount>
								</audio>
							</media>
						</file>
						<link>
							<linkclipref>clipitem-87</linkclipref>
							<mediatype>video</mediatype>
							<trackindex>1</trackindex>
							<clipindex>3</clipindex>
						</link>
						<link>
							<linkclipref>clipitem-95</linkclipref>
							<mediatype>audio</mediatype>
							<trackindex>1</trackindex>
							<clipindex>3</clipindex>
							<groupindex>1</groupindex>
						</link>
						<link>
							<linkclipref>clipitem-103</linkclipref>
							<mediatype>audio</mediatype>
							<trackindex>2</trackindex>
							<clipindex>3</clipindex>
							<groupindex>1</groupindex>
						</link>
						<logginginfo>
							<description />
							<scene />
							<shottake />
							<lognote />
							<good />
							<originalvideofilename />
							<originalaudiofilename />
						</logginginfo>
						<colorinfo>
							<lut />
							<lut1 />
							<asc_sop />
							<asc_sat />
							<lut2 />
						</colorinfo>
					<labels><label2>Caribbean</label2></labels></clipitem>
					<clipitem id="clipitem-87">
						<masterclipid>clipitem-3-109</masterclipid>
						<name>Taylor_Swift_Travis_Kelce_-_The_New_Power_Couple.mp4</name>
						<enabled>TRUE</enabled>
						<duration>150</duration>
						<rate>
							<timebase>25</timebase>
							<ntsc>FALSE</ntsc>
						</rate>
						<start>158400</start>
						<end>158550</end>
						<in>16200</in>
						<out>16350</out>
						<pproTicksIn>0</pproTicksIn>
						<pproTicksOut>875013995520000</pproTicksOut>
						<alphatype>none</alphatype>
						<pixelaspectratio>square</pixelaspectratio>
						<anamorphic>FALSE</anamorphic>
						<file id="file-31">
							<name>Taylor_Swift_Travis_Kelce_-_The_New_Power_Couple.mp4</name>
							<pathurl>file://localhost/Users/themalikano/Documents/VideoAutomation/premiere_videos/Taylor_Swift_Travis_Kelce_-_The_New_Power_Couple.mp4</pathurl>
							<rate>
								<timebase>25</timebase>
								<ntsc>FALSE</ntsc>
							</rate>
							<duration>86118</duration>
							<timecode>
								<rate>
									<timebase>25</timebase>
									<ntsc>FALSE</ntsc>
								</rate>
								<string>00:00:00:00</string>
								<frame>0</frame>
								<displayformat>NDF</displayformat>
							</timecode>
							<media>
								<video>
									<samplecharacteristics>
										<rate>
											<timebase>25</timebase>
											<ntsc>FALSE</ntsc>
										</rate>
										<width>1920</width>
										<height>1080</height>
										<anamorphic>FALSE</anamorphic>
										<pixelaspectratio>square</pixelaspectratio>
										<fielddominance>none</fielddominance>
									</samplecharacteristics>
								</video>
								<audio>
									<samplecharacteristics>
										<depth>16</depth>
										<samplerate>44100</samplerate>
									</samplecharacteristics>
									<channelcount>2</channelcount>
								</audio>
							</media>
						</file>
						<link>
							<linkclipref>clipitem-87</linkclipref>
							<mediatype>video</mediatype>
							<trackindex>1</trackindex>
							<clipindex>3</clipindex>
						</link>
						<link>
							<linkclipref>clipitem-95</linkclipref>
							<mediatype>audio</mediatype>
							<trackindex>1</trackindex>
							<clipindex>3</clipindex>
							<groupindex>1</groupindex>
						</link>
						<link>
							<linkclipref>clipitem-103</linkclipref>
							<mediatype>audio</mediatype>
							<trackindex>2</trackindex>
							<clipindex>3</clipindex>
							<groupindex>1</groupindex>
						</link>
						<logginginfo>
							<description />
							<scene />
							<shottake />
							<lognote />
							<good />
							<originalvideofilename />
							<originalaudiofilename />
						</logginginfo>
						<colorinfo>
							<lut />
							<lut1 />
							<asc_sop />
							<asc_sat />
							<lut2 />
						</colorinfo>
					<labels><label2>Caribbean</label2></labels></clipitem>
					<clipitem id="clipitem-87">
						<masterclipid>clipitem-3-176</masterclipid>
						<name>Taylor_Swift_Travis_Kelce_-_The_New_Power_Couple.mp4</name>
						<enabled>TRUE</enabled>
						<duration>150</duration>
						<rate>
							<timebase>25</timebase>
							<ntsc>FALSE</ntsc>
						</rate>
						<start>158550</start>
						<end>158700</end>
						<in>26250</in>
						<out>26400</out>
						<pproTicksIn>0</pproTicksIn>
						<pproTicksOut>875013995520000</pproTicksOut>
						<alphatype>none</alphatype>
						<pixelaspectratio>square</pixelaspectratio>
						<anamorphic>FALSE</anamorphic>
						<file id="file-31">
							<name>Taylor_Swift_Travis_Kelce_-_The_New_Power_Couple.mp4</name>
							<pathurl>file://localhost/Users/themalikano/Documents/VideoAutomation/premiere_videos/Taylor_Swift_Travis_Kelce_-_The_New_Power_Couple.mp4</pathurl>
							<rate>
								<timebase>25</timebase>
								<ntsc>FALSE</ntsc>
							</rate>
							<duration>86118</duration>
							<timecode>
								<rate>
									<timebase>25</timebase>
									<ntsc>FALSE</ntsc>
								</rate>
								<string>00:00:00:00</string>
								<frame>0</frame>
								<displayformat>NDF</displayformat>
							</timecode>
							<media>
								<video>
									<samplecharacteristics>
										<rate>
											<timebase>25</timebase>
											<ntsc>FALSE</ntsc>
										</rate>
										<width>1920</width>
										<height>1080</height>
										<anamorphic>FALSE</anamorphic>
										<pixelaspectratio>square</pixelaspectratio>
										<fielddominance>none</fielddominance>
									</samplecharacteristics>
								</video>
								<audio>
									<samplecharacteristics>
										<depth>16</depth>
										<samplerate>44100</samplerate>
									</samplecharacteristics>
									<channelcount>2</channelcount>
								</audio>
							</media>
						</file>
						<link>
							<linkclipref>clipitem-87</linkclipref>
							<mediatype>video</mediatype>
							<trackindex>1</trackindex>
							<clipindex>3</clipindex>
						</link>
						<link>
							<linkclipref>clipitem-95</linkclipref>
							<mediatype>audio</mediatype>
							<trackindex>1</trackindex>
							<clipindex>3</clipindex>
							<groupindex>1</groupindex>
						</link>
						<link>
							<linkclipref>clipitem-103</linkclipref>
							<mediatype>audio</mediatype>
							<trackindex>2</trackindex>
							<clipindex>3</clipindex>
							<groupindex>1</groupindex>
						</link>
						<logginginfo>
							<description />
							<scene />
							<shottake />
							<lognote />
							<good />
							<originalvideofilename />
							<originalaudiofilename />
						</logginginfo>
						<colorinfo>
							<lut />
							<lut1 />
							<asc_sop />
							<asc_sat />
							<lut2 />
						</colorinfo>
					<labels><label2>Caribbean</label2></labels></clipitem>
					<clipitem id="clipitem-87">
						<masterclipid>clipitem-3-107</masterclipid>
						<name>Taylor_Swift_Travis_Kelce_-_The_New_Power_Couple.mp4</name>
						<enabled>TRUE</enabled>
						<duration>150</duration>
						<rate>
							<timebase>25</timebase>
							<ntsc>FALSE</ntsc>
						</rate>
						<start>158700</start>
						<end>158850</end>
						<in>15900</in>
						<out>16050</out>
						<pproTicksIn>0</pproTicksIn>
						<pproTicksOut>875013995520000</pproTicksOut>
						<alphatype>none</alphatype>
						<pixelaspectratio>square</pixelaspectratio>
						<anamorphic>FALSE</anamorphic>
						<file id="file-31">
							<name>Taylor_Swift_Travis_Kelce_-_The_New_Power_Couple.mp4</name>
							<pathurl>file://localhost/Users/themalikano/Documents/VideoAutomation/premiere_videos/Taylor_Swift_Travis_Kelce_-_The_New_Power_Couple.mp4</pathurl>
							<rate>
								<timebase>25</timebase>
								<ntsc>FALSE</ntsc>
							</rate>
							<duration>86118</duration>
							<timecode>
								<rate>
									<timebase>25</timebase>
									<ntsc>FALSE</ntsc>
								</rate>
								<string>00:00:00:00</string>
								<frame>0</frame>
								<displayformat>NDF</displayformat>
							</timecode>
							<media>
								<video>
									<samplecharacteristics>
										<rate>
											<timebase>25</timebase>
											<ntsc>FALSE</ntsc>
										</rate>
										<width>1920</width>
										<height>1080</height>
										<anamorphic>FALSE</anamorphic>
										<pixelaspectratio>square</pixelaspectratio>
										<fielddominance>none</fielddominance>
									</samplecharacteristics>
								</video>
								<audio>
									<samplecharacteristics>
										<depth>16</depth>
										<samplerate>44100</samplerate>
									</samplecharacteristics>
									<channelcount>2</channelcount>
								</audio>
							</media>
						</file>
						<link>
							<linkclipref>clipitem-87</linkclipref>
							<mediatype>video</mediatype>
							<trackindex>1</trackindex>
							<clipindex>3</clipindex>
						</link>
						<link>
							<linkclipref>clipitem-95</linkclipref>
							<mediatype>audio</mediatype>
							<trackindex>1</trackindex>
							<clipindex>3</clipindex>
							<groupindex>1</groupindex>
						</link>
						<link>
							<linkclipref>clipitem-103</linkclipref>
							<mediatype>audio</mediatype>
							<trackindex>2</trackindex>
							<clipindex>3</clipindex>
							<groupindex>1</groupindex>
						</link>
						<logginginfo>
							<description />
							<scene />
							<shottake />
							<lognote />
							<good />
							<originalvideofilename />
							<originalaudiofilename />
						</logginginfo>
						<colorinfo>
							<lut />
							<lut1 />
							<asc_sop />
							<asc_sat />
							<lut2 />
						</colorinfo>
					<labels><label2>Caribbean</label2></labels></clipitem>
					<clipitem id="clipitem-87">
						<masterclipid>clipitem-3-398</masterclipid>
						<name>Taylor_Swift_Travis_Kelce_-_The_New_Power_Couple.mp4</name>
						<enabled>TRUE</enabled>
						<duration>150</duration>
						<rate>
							<timebase>25</timebase>
							<ntsc>FALSE</ntsc>
						</rate>
						<start>158850</start>
						<end>159000</end>
						<in>59550</in>
						<out>59700</out>
						<pproTicksIn>0</pproTicksIn>
						<pproTicksOut>875013995520000</pproTicksOut>
						<alphatype>none</alphatype>
						<pixelaspectratio>square</pixelaspectratio>
						<anamorphic>FALSE</anamorphic>
						<file id="file-31">
							<name>Taylor_Swift_Travis_Kelce_-_The_New_Power_Couple.mp4</name>
							<pathurl>file://localhost/Users/themalikano/Documents/VideoAutomation/premiere_videos/Taylor_Swift_Travis_Kelce_-_The_New_Power_Couple.mp4</pathurl>
							<rate>
								<timebase>25</timebase>
								<ntsc>FALSE</ntsc>
							</rate>
							<duration>86118</duration>
							<timecode>
								<rate>
									<timebase>25</timebase>
									<ntsc>FALSE</ntsc>
								</rate>
								<string>00:00:00:00</string>
								<frame>0</frame>
								<displayformat>NDF</displayformat>
							</timecode>
							<media>
								<video>
									<samplecharacteristics>
										<rate>
											<timebase>25</timebase>
											<ntsc>FALSE</ntsc>
										</rate>
										<width>1920</width>
										<height>1080</height>
										<anamorphic>FALSE</anamorphic>
										<pixelaspectratio>square</pixelaspectratio>
										<fielddominance>none</fielddominance>
									</samplecharacteristics>
								</video>
								<audio>
									<samplecharacteristics>
										<depth>16</depth>
										<samplerate>44100</samplerate>
									</samplecharacteristics>
									<channelcount>2</channelcount>
								</audio>
							</media>
						</file>
						<link>
							<linkclipref>clipitem-87</linkclipref>
							<mediatype>video</mediatype>
							<trackindex>1</trackindex>
							<clipindex>3</clipindex>
						</link>
						<link>
							<linkclipref>clipitem-95</linkclipref>
							<mediatype>audio</mediatype>
							<trackindex>1</trackindex>
							<clipindex>3</clipindex>
							<groupindex>1</groupindex>
						</link>
						<link>
							<linkclipref>clipitem-103</linkclipref>
							<mediatype>audio</mediatype>
							<trackindex>2</trackindex>
							<clipindex>3</clipindex>
							<groupindex>1</groupindex>
						</link>
						<logginginfo>
							<description />
							<scene />
							<shottake />
							<lognote />
							<good />
							<originalvideofilename />
							<originalaudiofilename />
						</logginginfo>
						<colorinfo>
							<lut />
							<lut1 />
							<asc_sop />
							<asc_sat />
							<lut2 />
						</colorinfo>
					<labels><label2>Caribbean</label2></labels></clipitem>
					<clipitem id="clipitem-87">
						<masterclipid>clipitem-3-142</masterclipid>
						<name>Taylor_Swift_Travis_Kelce_-_The_New_Power_Couple.mp4</name>
						<enabled>TRUE</enabled>
						<duration>150</duration>
						<rate>
							<timebase>25</timebase>
							<ntsc>FALSE</ntsc>
						</rate>
						<start>159000</start>
						<end>159150</end>
						<in>21150</in>
						<out>21300</out>
						<pproTicksIn>0</pproTicksIn>
						<pproTicksOut>875013995520000</pproTicksOut>
						<alphatype>none</alphatype>
						<pixelaspectratio>square</pixelaspectratio>
						<anamorphic>FALSE</anamorphic>
						<file id="file-31">
							<name>Taylor_Swift_Travis_Kelce_-_The_New_Power_Couple.mp4</name>
							<pathurl>file://localhost/Users/themalikano/Documents/VideoAutomation/premiere_videos/Taylor_Swift_Travis_Kelce_-_The_New_Power_Couple.mp4</pathurl>
							<rate>
								<timebase>25</timebase>
								<ntsc>FALSE</ntsc>
							</rate>
							<duration>86118</duration>
							<timecode>
								<rate>
									<timebase>25</timebase>
									<ntsc>FALSE</ntsc>
								</rate>
								<string>00:00:00:00</string>
								<frame>0</frame>
								<displayformat>NDF</displayformat>
							</timecode>
							<media>
								<video>
									<samplecharacteristics>
										<rate>
											<timebase>25</timebase>
											<ntsc>FALSE</ntsc>
										</rate>
										<width>1920</width>
										<height>1080</height>
										<anamorphic>FALSE</anamorphic>
										<pixelaspectratio>square</pixelaspectratio>
										<fielddominance>none</fielddominance>
									</samplecharacteristics>
								</video>
								<audio>
									<samplecharacteristics>
										<depth>16</depth>
										<samplerate>44100</samplerate>
									</samplecharacteristics>
									<channelcount>2</channelcount>
								</audio>
							</media>
						</file>
						<link>
							<linkclipref>clipitem-87</linkclipref>
							<mediatype>video</mediatype>
							<trackindex>1</trackindex>
							<clipindex>3</clipindex>
						</link>
						<link>
							<linkclipref>clipitem-95</linkclipref>
							<mediatype>audio</mediatype>
							<trackindex>1</trackindex>
							<clipindex>3</clipindex>
							<groupindex>1</groupindex>
						</link>
						<link>
							<linkclipref>clipitem-103</linkclipref>
							<mediatype>audio</mediatype>
							<trackindex>2</trackindex>
							<clipindex>3</clipindex>
							<groupindex>1</groupindex>
						</link>
						<logginginfo>
							<description />
							<scene />
							<shottake />
							<lognote />
							<good />
							<originalvideofilename />
							<originalaudiofilename />
						</logginginfo>
						<colorinfo>
							<lut />
							<lut1 />
							<asc_sop />
							<asc_sat />
							<lut2 />
						</colorinfo>
					<labels><label2>Caribbean</label2></labels></clipitem>
					<clipitem id="clipitem-87">
						<masterclipid>clipitem-3-196</masterclipid>
						<name>Taylor_Swift_Travis_Kelce_-_The_New_Power_Couple.mp4</name>
						<enabled>TRUE</enabled>
						<duration>150</duration>
						<rate>
							<timebase>25</timebase>
							<ntsc>FALSE</ntsc>
						</rate>
						<start>159150</start>
						<end>159300</end>
						<in>29250</in>
						<out>29400</out>
						<pproTicksIn>0</pproTicksIn>
						<pproTicksOut>875013995520000</pproTicksOut>
						<alphatype>none</alphatype>
						<pixelaspectratio>square</pixelaspectratio>
						<anamorphic>FALSE</anamorphic>
						<file id="file-31">
							<name>Taylor_Swift_Travis_Kelce_-_The_New_Power_Couple.mp4</name>
							<pathurl>file://localhost/Users/themalikano/Documents/VideoAutomation/premiere_videos/Taylor_Swift_Travis_Kelce_-_The_New_Power_Couple.mp4</pathurl>
							<rate>
								<timebase>25</timebase>
								<ntsc>FALSE</ntsc>
							</rate>
							<duration>86118</duration>
							<timecode>
								<rate>
									<timebase>25</timebase>
									<ntsc>FALSE</ntsc>
								</rate>
								<string>00:00:00:00</string>
								<frame>0</frame>
								<displayformat>NDF</displayformat>
							</timecode>
							<media>
								<video>
									<samplecharacteristics>
										<rate>
											<timebase>25</timebase>
											<ntsc>FALSE</ntsc>
										</rate>
										<width>1920</width>
										<height>1080</height>
										<anamorphic>FALSE</anamorphic>
										<pixelaspectratio>square</pixelaspectratio>
										<fielddominance>none</fielddominance>
									</samplecharacteristics>
								</video>
								<audio>
									<samplecharacteristics>
										<depth>16</depth>
										<samplerate>44100</samplerate>
									</samplecharacteristics>
									<channelcount>2</channelcount>
								</audio>
							</media>
						</file>
						<link>
							<linkclipref>clipitem-87</linkclipref>
							<mediatype>video</mediatype>
							<trackindex>1</trackindex>
							<clipindex>3</clipindex>
						</link>
						<link>
							<linkclipref>clipitem-95</linkclipref>
							<mediatype>audio</mediatype>
							<trackindex>1</trackindex>
							<clipindex>3</clipindex>
							<groupindex>1</groupindex>
						</link>
						<link>
							<linkclipref>clipitem-103</linkclipref>
							<mediatype>audio</mediatype>
							<trackindex>2</trackindex>
							<clipindex>3</clipindex>
							<groupindex>1</groupindex>
						</link>
						<logginginfo>
							<description />
							<scene />
							<shottake />
							<lognote />
							<good />
							<originalvideofilename />
							<originalaudiofilename />
						</logginginfo>
						<colorinfo>
							<lut />
							<lut1 />
							<asc_sop />
							<asc_sat />
							<lut2 />
						</colorinfo>
					<labels><label2>Caribbean</label2></labels></clipitem>
					<clipitem id="clipitem-87">
						<masterclipid>clipitem-3-316</masterclipid>
						<name>Taylor_Swift_Travis_Kelce_-_The_New_Power_Couple.mp4</name>
						<enabled>TRUE</enabled>
						<duration>150</duration>
						<rate>
							<timebase>25</timebase>
							<ntsc>FALSE</ntsc>
						</rate>
						<start>159300</start>
						<end>159450</end>
						<in>47250</in>
						<out>47400</out>
						<pproTicksIn>0</pproTicksIn>
						<pproTicksOut>875013995520000</pproTicksOut>
						<alphatype>none</alphatype>
						<pixelaspectratio>square</pixelaspectratio>
						<anamorphic>FALSE</anamorphic>
						<file id="file-31">
							<name>Taylor_Swift_Travis_Kelce_-_The_New_Power_Couple.mp4</name>
							<pathurl>file://localhost/Users/themalikano/Documents/VideoAutomation/premiere_videos/Taylor_Swift_Travis_Kelce_-_The_New_Power_Couple.mp4</pathurl>
							<rate>
								<timebase>25</timebase>
								<ntsc>FALSE</ntsc>
							</rate>
							<duration>86118</duration>
							<timecode>
								<rate>
									<timebase>25</timebase>
									<ntsc>FALSE</ntsc>
								</rate>
								<string>00:00:00:00</string>
								<frame>0</frame>
								<displayformat>NDF</displayformat>
							</timecode>
							<media>
								<video>
									<samplecharacteristics>
										<rate>
											<timebase>25</timebase>
											<ntsc>FALSE</ntsc>
										</rate>
										<width>1920</width>
										<height>1080</height>
										<anamorphic>FALSE</anamorphic>
										<pixelaspectratio>square</pixelaspectratio>
										<fielddominance>none</fielddominance>
									</samplecharacteristics>
								</video>
								<audio>
									<samplecharacteristics>
										<depth>16</depth>
										<samplerate>44100</samplerate>
									</samplecharacteristics>
									<channelcount>2</channelcount>
								</audio>
							</media>
						</file>
						<link>
							<linkclipref>clipitem-87</linkclipref>
							<mediatype>video</mediatype>
							<trackindex>1</trackindex>
							<clipindex>3</clipindex>
						</link>
						<link>
							<linkclipref>clipitem-95</linkclipref>
							<mediatype>audio</mediatype>
							<trackindex>1</trackindex>
							<clipindex>3</clipindex>
							<groupindex>1</groupindex>
						</link>
						<link>
							<linkclipref>clipitem-103</linkclipref>
							<mediatype>audio</mediatype>
							<trackindex>2</trackindex>
							<clipindex>3</clipindex>
							<groupindex>1</groupindex>
						</link>
						<logginginfo>
							<description />
							<scene />
							<shottake />
							<lognote />
							<good />
							<originalvideofilename />
							<originalaudiofilename />
						</logginginfo>
						<colorinfo>
							<lut />
							<lut1 />
							<asc_sop />
							<asc_sat />
							<lut2 />
						</colorinfo>
					<labels><label2>Caribbean</label2></labels></clipitem>
					<clipitem id="clipitem-87">
						<masterclipid>clipitem-3-446</masterclipid>
						<name>Taylor_Swift_Travis_Kelce_-_The_New_Power_Couple.mp4</name>
						<enabled>TRUE</enabled>
						<duration>150</duration>
						<rate>
							<timebase>25</timebase>
							<ntsc>FALSE</ntsc>
						</rate>
						<start>159450</start>
						<end>159600</end>
						<in>66750</in>
						<out>66900</out>
						<pproTicksIn>0</pproTicksIn>
						<pproTicksOut>875013995520000</pproTicksOut>
						<alphatype>none</alphatype>
						<pixelaspectratio>square</pixelaspectratio>
						<anamorphic>FALSE</anamorphic>
						<file id="file-31">
							<name>Taylor_Swift_Travis_Kelce_-_The_New_Power_Couple.mp4</name>
							<pathurl>file://localhost/Users/themalikano/Documents/VideoAutomation/premiere_videos/Taylor_Swift_Travis_Kelce_-_The_New_Power_Couple.mp4</pathurl>
							<rate>
								<timebase>25</timebase>
								<ntsc>FALSE</ntsc>
							</rate>
							<duration>86118</duration>
							<timecode>
								<rate>
									<timebase>25</timebase>
									<ntsc>FALSE</ntsc>
								</rate>
								<string>00:00:00:00</string>
								<frame>0</frame>
								<displayformat>NDF</displayformat>
							</timecode>
							<media>
								<video>
									<samplecharacteristics>
										<rate>
											<timebase>25</timebase>
											<ntsc>FALSE</ntsc>
										</rate>
										<width>1920</width>
										<height>1080</height>
										<anamorphic>FALSE</anamorphic>
										<pixelaspectratio>square</pixelaspectratio>
										<fielddominance>none</fielddominance>
									</samplecharacteristics>
								</video>
								<audio>
									<samplecharacteristics>
										<depth>16</depth>
										<samplerate>44100</samplerate>
									</samplecharacteristics>
									<channelcount>2</channelcount>
								</audio>
							</media>
						</file>
						<link>
							<linkclipref>clipitem-87</linkclipref>
							<mediatype>video</mediatype>
							<trackindex>1</trackindex>
							<clipindex>3</clipindex>
						</link>
						<link>
							<linkclipref>clipitem-95</linkclipref>
							<mediatype>audio</mediatype>
							<trackindex>1</trackindex>
							<clipindex>3</clipindex>
							<groupindex>1</groupindex>
						</link>
						<link>
							<linkclipref>clipitem-103</linkclipref>
							<mediatype>audio</mediatype>
							<trackindex>2</trackindex>
							<clipindex>3</clipindex>
							<groupindex>1</groupindex>
						</link>
						<logginginfo>
							<description />
							<scene />
							<shottake />
							<lognote />
							<good />
							<originalvideofilename />
							<originalaudiofilename />
						</logginginfo>
						<colorinfo>
							<lut />
							<lut1 />
							<asc_sop />
							<asc_sat />
							<lut2 />
						</colorinfo>
					<labels><label2>Caribbean</label2></labels></clipitem>
					<clipitem id="clipitem-87">
						<masterclipid>clipitem-3-507</masterclipid>
						<name>Taylor_Swift_Travis_Kelce_-_The_New_Power_Couple.mp4</name>
						<enabled>TRUE</enabled>
						<duration>150</duration>
						<rate>
							<timebase>25</timebase>
							<ntsc>FALSE</ntsc>
						</rate>
						<start>159600</start>
						<end>159750</end>
						<in>75900</in>
						<out>76050</out>
						<pproTicksIn>0</pproTicksIn>
						<pproTicksOut>875013995520000</pproTicksOut>
						<alphatype>none</alphatype>
						<pixelaspectratio>square</pixelaspectratio>
						<anamorphic>FALSE</anamorphic>
						<file id="file-31">
							<name>Taylor_Swift_Travis_Kelce_-_The_New_Power_Couple.mp4</name>
							<pathurl>file://localhost/Users/themalikano/Documents/VideoAutomation/premiere_videos/Taylor_Swift_Travis_Kelce_-_The_New_Power_Couple.mp4</pathurl>
							<rate>
								<timebase>25</timebase>
								<ntsc>FALSE</ntsc>
							</rate>
							<duration>86118</duration>
							<timecode>
								<rate>
									<timebase>25</timebase>
									<ntsc>FALSE</ntsc>
								</rate>
								<string>00:00:00:00</string>
								<frame>0</frame>
								<displayformat>NDF</displayformat>
							</timecode>
							<media>
								<video>
									<samplecharacteristics>
										<rate>
											<timebase>25</timebase>
											<ntsc>FALSE</ntsc>
										</rate>
										<width>1920</width>
										<height>1080</height>
										<anamorphic>FALSE</anamorphic>
										<pixelaspectratio>square</pixelaspectratio>
										<fielddominance>none</fielddominance>
									</samplecharacteristics>
								</video>
								<audio>
									<samplecharacteristics>
										<depth>16</depth>
										<samplerate>44100</samplerate>
									</samplecharacteristics>
									<channelcount>2</channelcount>
								</audio>
							</media>
						</file>
						<link>
							<linkclipref>clipitem-87</linkclipref>
							<mediatype>video</mediatype>
							<trackindex>1</trackindex>
							<clipindex>3</clipindex>
						</link>
						<link>
							<linkclipref>clipitem-95</linkclipref>
							<mediatype>audio</mediatype>
							<trackindex>1</trackindex>
							<clipindex>3</clipindex>
							<groupindex>1</groupindex>
						</link>
						<link>
							<linkclipref>clipitem-103</linkclipref>
							<mediatype>audio</mediatype>
							<trackindex>2</trackindex>
							<clipindex>3</clipindex>
							<groupindex>1</groupindex>
						</link>
						<logginginfo>
							<description />
							<scene />
							<shottake />
							<lognote />
							<good />
							<originalvideofilename />
							<originalaudiofilename />
						</logginginfo>
						<colorinfo>
							<lut />
							<lut1 />
							<asc_sop />
							<asc_sat />
							<lut2 />
						</colorinfo>
					<labels><label2>Caribbean</label2></labels></clipitem>
					<clipitem id="clipitem-87">
						<masterclipid>clipitem-3-32</masterclipid>
						<name>Taylor_Swift_Travis_Kelce_-_The_New_Power_Couple.mp4</name>
						<enabled>TRUE</enabled>
						<duration>150</duration>
						<rate>
							<timebase>25</timebase>
							<ntsc>FALSE</ntsc>
						</rate>
						<start>159750</start>
						<end>159900</end>
						<in>4650</in>
						<out>4800</out>
						<pproTicksIn>0</pproTicksIn>
						<pproTicksOut>875013995520000</pproTicksOut>
						<alphatype>none</alphatype>
						<pixelaspectratio>square</pixelaspectratio>
						<anamorphic>FALSE</anamorphic>
						<file id="file-31">
							<name>Taylor_Swift_Travis_Kelce_-_The_New_Power_Couple.mp4</name>
							<pathurl>file://localhost/Users/themalikano/Documents/VideoAutomation/premiere_videos/Taylor_Swift_Travis_Kelce_-_The_New_Power_Couple.mp4</pathurl>
							<rate>
								<timebase>25</timebase>
								<ntsc>FALSE</ntsc>
							</rate>
							<duration>86118</duration>
							<timecode>
								<rate>
									<timebase>25</timebase>
									<ntsc>FALSE</ntsc>
								</rate>
								<string>00:00:00:00</string>
								<frame>0</frame>
								<displayformat>NDF</displayformat>
							</timecode>
							<media>
								<video>
									<samplecharacteristics>
										<rate>
											<timebase>25</timebase>
											<ntsc>FALSE</ntsc>
										</rate>
										<width>1920</width>
										<height>1080</height>
										<anamorphic>FALSE</anamorphic>
										<pixelaspectratio>square</pixelaspectratio>
										<fielddominance>none</fielddominance>
									</samplecharacteristics>
								</video>
								<audio>
									<samplecharacteristics>
										<depth>16</depth>
										<samplerate>44100</samplerate>
									</samplecharacteristics>
									<channelcount>2</channelcount>
								</audio>
							</media>
						</file>
						<link>
							<linkclipref>clipitem-87</linkclipref>
							<mediatype>video</mediatype>
							<trackindex>1</trackindex>
							<clipindex>3</clipindex>
						</link>
						<link>
							<linkclipref>clipitem-95</linkclipref>
							<mediatype>audio</mediatype>
							<trackindex>1</trackindex>
							<clipindex>3</clipindex>
							<groupindex>1</groupindex>
						</link>
						<link>
							<linkclipref>clipitem-103</linkclipref>
							<mediatype>audio</mediatype>
							<trackindex>2</trackindex>
							<clipindex>3</clipindex>
							<groupindex>1</groupindex>
						</link>
						<logginginfo>
							<description />
							<scene />
							<shottake />
							<lognote />
							<good />
							<originalvideofilename />
							<originalaudiofilename />
						</logginginfo>
						<colorinfo>
							<lut />
							<lut1 />
							<asc_sop />
							<asc_sat />
							<lut2 />
						</colorinfo>
					<labels><label2>Caribbean</label2></labels></clipitem>
					<clipitem id="clipitem-87">
						<masterclipid>clipitem-3-572</masterclipid>
						<name>Taylor_Swift_Travis_Kelce_-_The_New_Power_Couple.mp4</name>
						<enabled>TRUE</enabled>
						<duration>150</duration>
						<rate>
							<timebase>25</timebase>
							<ntsc>FALSE</ntsc>
						</rate>
						<start>159900</start>
						<end>160050</end>
						<in>85650</in>
						<out>85800</out>
						<pproTicksIn>0</pproTicksIn>
						<pproTicksOut>875013995520000</pproTicksOut>
						<alphatype>none</alphatype>
						<pixelaspectratio>square</pixelaspectratio>
						<anamorphic>FALSE</anamorphic>
						<file id="file-31">
							<name>Taylor_Swift_Travis_Kelce_-_The_New_Power_Couple.mp4</name>
							<pathurl>file://localhost/Users/themalikano/Documents/VideoAutomation/premiere_videos/Taylor_Swift_Travis_Kelce_-_The_New_Power_Couple.mp4</pathurl>
							<rate>
								<timebase>25</timebase>
								<ntsc>FALSE</ntsc>
							</rate>
							<duration>86118</duration>
							<timecode>
								<rate>
									<timebase>25</timebase>
									<ntsc>FALSE</ntsc>
								</rate>
								<string>00:00:00:00</string>
								<frame>0</frame>
								<displayformat>NDF</displayformat>
							</timecode>
							<media>
								<video>
									<samplecharacteristics>
										<rate>
											<timebase>25</timebase>
											<ntsc>FALSE</ntsc>
										</rate>
										<width>1920</width>
										<height>1080</height>
										<anamorphic>FALSE</anamorphic>
										<pixelaspectratio>square</pixelaspectratio>
										<fielddominance>none</fielddominance>
									</samplecharacteristics>
								</video>
								<audio>
									<samplecharacteristics>
										<depth>16</depth>
										<samplerate>44100</samplerate>
									</samplecharacteristics>
									<channelcount>2</channelcount>
								</audio>
							</media>
						</file>
						<link>
							<linkclipref>clipitem-87</linkclipref>
							<mediatype>video</mediatype>
							<trackindex>1</trackindex>
							<clipindex>3</clipindex>
						</link>
						<link>
							<linkclipref>clipitem-95</linkclipref>
							<mediatype>audio</mediatype>
							<trackindex>1</trackindex>
							<clipindex>3</clipindex>
							<groupindex>1</groupindex>
						</link>
						<link>
							<linkclipref>clipitem-103</linkclipref>
							<mediatype>audio</mediatype>
							<trackindex>2</trackindex>
							<clipindex>3</clipindex>
							<groupindex>1</groupindex>
						</link>
						<logginginfo>
							<description />
							<scene />
							<shottake />
							<lognote />
							<good />
							<originalvideofilename />
							<originalaudiofilename />
						</logginginfo>
						<colorinfo>
							<lut />
							<lut1 />
							<asc_sop />
							<asc_sat />
							<lut2 />
						</colorinfo>
					<labels><label2>Caribbean</label2></labels></clipitem>
					<clipitem id="clipitem-87">
						<masterclipid>clipitem-3-451</masterclipid>
						<name>Taylor_Swift_Travis_Kelce_-_The_New_Power_Couple.mp4</name>
						<enabled>TRUE</enabled>
						<duration>150</duration>
						<rate>
							<timebase>25</timebase>
							<ntsc>FALSE</ntsc>
						</rate>
						<start>160050</start>
						<end>160200</end>
						<in>67500</in>
						<out>67650</out>
						<pproTicksIn>0</pproTicksIn>
						<pproTicksOut>875013995520000</pproTicksOut>
						<alphatype>none</alphatype>
						<pixelaspectratio>square</pixelaspectratio>
						<anamorphic>FALSE</anamorphic>
						<file id="file-31">
							<name>Taylor_Swift_Travis_Kelce_-_The_New_Power_Couple.mp4</name>
							<pathurl>file://localhost/Users/themalikano/Documents/VideoAutomation/premiere_videos/Taylor_Swift_Travis_Kelce_-_The_New_Power_Couple.mp4</pathurl>
							<rate>
								<timebase>25</timebase>
								<ntsc>FALSE</ntsc>
							</rate>
							<duration>86118</duration>
							<timecode>
								<rate>
									<timebase>25</timebase>
									<ntsc>FALSE</ntsc>
								</rate>
								<string>00:00:00:00</string>
								<frame>0</frame>
								<displayformat>NDF</displayformat>
							</timecode>
							<media>
								<video>
									<samplecharacteristics>
										<rate>
											<timebase>25</timebase>
											<ntsc>FALSE</ntsc>
										</rate>
										<width>1920</width>
										<height>1080</height>
										<anamorphic>FALSE</anamorphic>
										<pixelaspectratio>square</pixelaspectratio>
										<fielddominance>none</fielddominance>
									</samplecharacteristics>
								</video>
								<audio>
									<samplecharacteristics>
										<depth>16</depth>
										<samplerate>44100</samplerate>
									</samplecharacteristics>
									<channelcount>2</channelcount>
								</audio>
							</media>
						</file>
						<link>
							<linkclipref>clipitem-87</linkclipref>
							<mediatype>video</mediatype>
							<trackindex>1</trackindex>
							<clipindex>3</clipindex>
						</link>
						<link>
							<linkclipref>clipitem-95</linkclipref>
							<mediatype>audio</mediatype>
							<trackindex>1</trackindex>
							<clipindex>3</clipindex>
							<groupindex>1</groupindex>
						</link>
						<link>
							<linkclipref>clipitem-103</linkclipref>
							<mediatype>audio</mediatype>
							<trackindex>2</trackindex>
							<clipindex>3</clipindex>
							<groupindex>1</groupindex>
						</link>
						<logginginfo>
							<description />
							<scene />
							<shottake />
							<lognote />
							<good />
							<originalvideofilename />
							<originalaudiofilename />
						</logginginfo>
						<colorinfo>
							<lut />
							<lut1 />
							<asc_sop />
							<asc_sat />
							<lut2 />
						</colorinfo>
					<labels><label2>Caribbean</label2></labels></clipitem>
					<clipitem id="clipitem-87">
						<masterclipid>clipitem-3-529</masterclipid>
						<name>Taylor_Swift_Travis_Kelce_-_The_New_Power_Couple.mp4</name>
						<enabled>TRUE</enabled>
						<duration>150</duration>
						<rate>
							<timebase>25</timebase>
							<ntsc>FALSE</ntsc>
						</rate>
						<start>160200</start>
						<end>160350</end>
						<in>79200</in>
						<out>79350</out>
						<pproTicksIn>0</pproTicksIn>
						<pproTicksOut>875013995520000</pproTicksOut>
						<alphatype>none</alphatype>
						<pixelaspectratio>square</pixelaspectratio>
						<anamorphic>FALSE</anamorphic>
						<file id="file-31">
							<name>Taylor_Swift_Travis_Kelce_-_The_New_Power_Couple.mp4</name>
							<pathurl>file://localhost/Users/themalikano/Documents/VideoAutomation/premiere_videos/Taylor_Swift_Travis_Kelce_-_The_New_Power_Couple.mp4</pathurl>
							<rate>
								<timebase>25</timebase>
								<ntsc>FALSE</ntsc>
							</rate>
							<duration>86118</duration>
							<timecode>
								<rate>
									<timebase>25</timebase>
									<ntsc>FALSE</ntsc>
								</rate>
								<string>00:00:00:00</string>
								<frame>0</frame>
								<displayformat>NDF</displayformat>
							</timecode>
							<media>
								<video>
									<samplecharacteristics>
										<rate>
											<timebase>25</timebase>
											<ntsc>FALSE</ntsc>
										</rate>
										<width>1920</width>
										<height>1080</height>
										<anamorphic>FALSE</anamorphic>
										<pixelaspectratio>square</pixelaspectratio>
										<fielddominance>none</fielddominance>
									</samplecharacteristics>
								</video>
								<audio>
									<samplecharacteristics>
										<depth>16</depth>
										<samplerate>44100</samplerate>
									</samplecharacteristics>
									<channelcount>2</channelcount>
								</audio>
							</media>
						</file>
						<link>
							<linkclipref>clipitem-87</linkclipref>
							<mediatype>video</mediatype>
							<trackindex>1</trackindex>
							<clipindex>3</clipindex>
						</link>
						<link>
							<linkclipref>clipitem-95</linkclipref>
							<mediatype>audio</mediatype>
							<trackindex>1</trackindex>
							<clipindex>3</clipindex>
							<groupindex>1</groupindex>
						</link>
						<link>
							<linkclipref>clipitem-103</linkclipref>
							<mediatype>audio</mediatype>
							<trackindex>2</trackindex>
							<clipindex>3</clipindex>
							<groupindex>1</groupindex>
						</link>
						<logginginfo>
							<description />
							<scene />
							<shottake />
							<lognote />
							<good />
							<originalvideofilename />
							<originalaudiofilename />
						</logginginfo>
						<colorinfo>
							<lut />
							<lut1 />
							<asc_sop />
							<asc_sat />
							<lut2 />
						</colorinfo>
					<labels><label2>Caribbean</label2></labels></clipitem>
					<clipitem id="clipitem-87">
						<masterclipid>clipitem-3-211</masterclipid>
						<name>Taylor_Swift_Travis_Kelce_-_The_New_Power_Couple.mp4</name>
						<enabled>TRUE</enabled>
						<duration>150</duration>
						<rate>
							<timebase>25</timebase>
							<ntsc>FALSE</ntsc>
						</rate>
						<start>160350</start>
						<end>160500</end>
						<in>31500</in>
						<out>31650</out>
						<pproTicksIn>0</pproTicksIn>
						<pproTicksOut>875013995520000</pproTicksOut>
						<alphatype>none</alphatype>
						<pixelaspectratio>square</pixelaspectratio>
						<anamorphic>FALSE</anamorphic>
						<file id="file-31">
							<name>Taylor_Swift_Travis_Kelce_-_The_New_Power_Couple.mp4</name>
							<pathurl>file://localhost/Users/themalikano/Documents/VideoAutomation/premiere_videos/Taylor_Swift_Travis_Kelce_-_The_New_Power_Couple.mp4</pathurl>
							<rate>
								<timebase>25</timebase>
								<ntsc>FALSE</ntsc>
							</rate>
							<duration>86118</duration>
							<timecode>
								<rate>
									<timebase>25</timebase>
									<ntsc>FALSE</ntsc>
								</rate>
								<string>00:00:00:00</string>
								<frame>0</frame>
								<displayformat>NDF</displayformat>
							</timecode>
							<media>
								<video>
									<samplecharacteristics>
										<rate>
											<timebase>25</timebase>
											<ntsc>FALSE</ntsc>
										</rate>
										<width>1920</width>
										<height>1080</height>
										<anamorphic>FALSE</anamorphic>
										<pixelaspectratio>square</pixelaspectratio>
										<fielddominance>none</fielddominance>
									</samplecharacteristics>
								</video>
								<audio>
									<samplecharacteristics>
										<depth>16</depth>
										<samplerate>44100</samplerate>
									</samplecharacteristics>
									<channelcount>2</channelcount>
								</audio>
							</media>
						</file>
						<link>
							<linkclipref>clipitem-87</linkclipref>
							<mediatype>video</mediatype>
							<trackindex>1</trackindex>
							<clipindex>3</clipindex>
						</link>
						<link>
							<linkclipref>clipitem-95</linkclipref>
							<mediatype>audio</mediatype>
							<trackindex>1</trackindex>
							<clipindex>3</clipindex>
							<groupindex>1</groupindex>
						</link>
						<link>
							<linkclipref>clipitem-103</linkclipref>
							<mediatype>audio</mediatype>
							<trackindex>2</trackindex>
							<clipindex>3</clipindex>
							<groupindex>1</groupindex>
						</link>
						<logginginfo>
							<description />
							<scene />
							<shottake />
							<lognote />
							<good />
							<originalvideofilename />
							<originalaudiofilename />
						</logginginfo>
						<colorinfo>
							<lut />
							<lut1 />
							<asc_sop />
							<asc_sat />
							<lut2 />
						</colorinfo>
					<labels><label2>Caribbean</label2></labels></clipitem>
					<clipitem id="clipitem-87">
						<masterclipid>clipitem-3-299</masterclipid>
						<name>Taylor_Swift_Travis_Kelce_-_The_New_Power_Couple.mp4</name>
						<enabled>TRUE</enabled>
						<duration>150</duration>
						<rate>
							<timebase>25</timebase>
							<ntsc>FALSE</ntsc>
						</rate>
						<start>160500</start>
						<end>160650</end>
						<in>44700</in>
						<out>44850</out>
						<pproTicksIn>0</pproTicksIn>
						<pproTicksOut>875013995520000</pproTicksOut>
						<alphatype>none</alphatype>
						<pixelaspectratio>square</pixelaspectratio>
						<anamorphic>FALSE</anamorphic>
						<file id="file-31">
							<name>Taylor_Swift_Travis_Kelce_-_The_New_Power_Couple.mp4</name>
							<pathurl>file://localhost/Users/themalikano/Documents/VideoAutomation/premiere_videos/Taylor_Swift_Travis_Kelce_-_The_New_Power_Couple.mp4</pathurl>
							<rate>
								<timebase>25</timebase>
								<ntsc>FALSE</ntsc>
							</rate>
							<duration>86118</duration>
							<timecode>
								<rate>
									<timebase>25</timebase>
									<ntsc>FALSE</ntsc>
								</rate>
								<string>00:00:00:00</string>
								<frame>0</frame>
								<displayformat>NDF</displayformat>
							</timecode>
							<media>
								<video>
									<samplecharacteristics>
										<rate>
											<timebase>25</timebase>
											<ntsc>FALSE</ntsc>
										</rate>
										<width>1920</width>
										<height>1080</height>
										<anamorphic>FALSE</anamorphic>
										<pixelaspectratio>square</pixelaspectratio>
										<fielddominance>none</fielddominance>
									</samplecharacteristics>
								</video>
								<audio>
									<samplecharacteristics>
										<depth>16</depth>
										<samplerate>44100</samplerate>
									</samplecharacteristics>
									<channelcount>2</channelcount>
								</audio>
							</media>
						</file>
						<link>
							<linkclipref>clipitem-87</linkclipref>
							<mediatype>video</mediatype>
							<trackindex>1</trackindex>
							<clipindex>3</clipindex>
						</link>
						<link>
							<linkclipref>clipitem-95</linkclipref>
							<mediatype>audio</mediatype>
							<trackindex>1</trackindex>
							<clipindex>3</clipindex>
							<groupindex>1</groupindex>
						</link>
						<link>
							<linkclipref>clipitem-103</linkclipref>
							<mediatype>audio</mediatype>
							<trackindex>2</trackindex>
							<clipindex>3</clipindex>
							<groupindex>1</groupindex>
						</link>
						<logginginfo>
							<description />
							<scene />
							<shottake />
							<lognote />
							<good />
							<originalvideofilename />
							<originalaudiofilename />
						</logginginfo>
						<colorinfo>
							<lut />
							<lut1 />
							<asc_sop />
							<asc_sat />
							<lut2 />
						</colorinfo>
					<labels><label2>Caribbean</label2></labels></clipitem>
					<clipitem id="clipitem-87">
						<masterclipid>clipitem-3-393</masterclipid>
						<name>Taylor_Swift_Travis_Kelce_-_The_New_Power_Couple.mp4</name>
						<enabled>TRUE</enabled>
						<duration>150</duration>
						<rate>
							<timebase>25</timebase>
							<ntsc>FALSE</ntsc>
						</rate>
						<start>160650</start>
						<end>160800</end>
						<in>58800</in>
						<out>58950</out>
						<pproTicksIn>0</pproTicksIn>
						<pproTicksOut>875013995520000</pproTicksOut>
						<alphatype>none</alphatype>
						<pixelaspectratio>square</pixelaspectratio>
						<anamorphic>FALSE</anamorphic>
						<file id="file-31">
							<name>Taylor_Swift_Travis_Kelce_-_The_New_Power_Couple.mp4</name>
							<pathurl>file://localhost/Users/themalikano/Documents/VideoAutomation/premiere_videos/Taylor_Swift_Travis_Kelce_-_The_New_Power_Couple.mp4</pathurl>
							<rate>
								<timebase>25</timebase>
								<ntsc>FALSE</ntsc>
							</rate>
							<duration>86118</duration>
							<timecode>
								<rate>
									<timebase>25</timebase>
									<ntsc>FALSE</ntsc>
								</rate>
								<string>00:00:00:00</string>
								<frame>0</frame>
								<displayformat>NDF</displayformat>
							</timecode>
							<media>
								<video>
									<samplecharacteristics>
										<rate>
											<timebase>25</timebase>
											<ntsc>FALSE</ntsc>
										</rate>
										<width>1920</width>
										<height>1080</height>
										<anamorphic>FALSE</anamorphic>
										<pixelaspectratio>square</pixelaspectratio>
										<fielddominance>none</fielddominance>
									</samplecharacteristics>
								</video>
								<audio>
									<samplecharacteristics>
										<depth>16</depth>
										<samplerate>44100</samplerate>
									</samplecharacteristics>
									<channelcount>2</channelcount>
								</audio>
							</media>
						</file>
						<link>
							<linkclipref>clipitem-87</linkclipref>
							<mediatype>video</mediatype>
							<trackindex>1</trackindex>
							<clipindex>3</clipindex>
						</link>
						<link>
							<linkclipref>clipitem-95</linkclipref>
							<mediatype>audio</mediatype>
							<trackindex>1</trackindex>
							<clipindex>3</clipindex>
							<groupindex>1</groupindex>
						</link>
						<link>
							<linkclipref>clipitem-103</linkclipref>
							<mediatype>audio</mediatype>
							<trackindex>2</trackindex>
							<clipindex>3</clipindex>
							<groupindex>1</groupindex>
						</link>
						<logginginfo>
							<description />
							<scene />
							<shottake />
							<lognote />
							<good />
							<originalvideofilename />
							<originalaudiofilename />
						</logginginfo>
						<colorinfo>
							<lut />
							<lut1 />
							<asc_sop />
							<asc_sat />
							<lut2 />
						</colorinfo>
					<labels><label2>Caribbean</label2></labels></clipitem>
					<clipitem id="clipitem-87">
						<masterclipid>clipitem-3-120</masterclipid>
						<name>Taylor_Swift_Travis_Kelce_-_The_New_Power_Couple.mp4</name>
						<enabled>TRUE</enabled>
						<duration>150</duration>
						<rate>
							<timebase>25</timebase>
							<ntsc>FALSE</ntsc>
						</rate>
						<start>160800</start>
						<end>160950</end>
						<in>17850</in>
						<out>18000</out>
						<pproTicksIn>0</pproTicksIn>
						<pproTicksOut>875013995520000</pproTicksOut>
						<alphatype>none</alphatype>
						<pixelaspectratio>square</pixelaspectratio>
						<anamorphic>FALSE</anamorphic>
						<file id="file-31">
							<name>Taylor_Swift_Travis_Kelce_-_The_New_Power_Couple.mp4</name>
							<pathurl>file://localhost/Users/themalikano/Documents/VideoAutomation/premiere_videos/Taylor_Swift_Travis_Kelce_-_The_New_Power_Couple.mp4</pathurl>
							<rate>
								<timebase>25</timebase>
								<ntsc>FALSE</ntsc>
							</rate>
							<duration>86118</duration>
							<timecode>
								<rate>
									<timebase>25</timebase>
									<ntsc>FALSE</ntsc>
								</rate>
								<string>00:00:00:00</string>
								<frame>0</frame>
								<displayformat>NDF</displayformat>
							</timecode>
							<media>
								<video>
									<samplecharacteristics>
										<rate>
											<timebase>25</timebase>
											<ntsc>FALSE</ntsc>
										</rate>
										<width>1920</width>
										<height>1080</height>
										<anamorphic>FALSE</anamorphic>
										<pixelaspectratio>square</pixelaspectratio>
										<fielddominance>none</fielddominance>
									</samplecharacteristics>
								</video>
								<audio>
									<samplecharacteristics>
										<depth>16</depth>
										<samplerate>44100</samplerate>
									</samplecharacteristics>
									<channelcount>2</channelcount>
								</audio>
							</media>
						</file>
						<link>
							<linkclipref>clipitem-87</linkclipref>
							<mediatype>video</mediatype>
							<trackindex>1</trackindex>
							<clipindex>3</clipindex>
						</link>
						<link>
							<linkclipref>clipitem-95</linkclipref>
							<mediatype>audio</mediatype>
							<trackindex>1</trackindex>
							<clipindex>3</clipindex>
							<groupindex>1</groupindex>
						</link>
						<link>
							<linkclipref>clipitem-103</linkclipref>
							<mediatype>audio</mediatype>
							<trackindex>2</trackindex>
							<clipindex>3</clipindex>
							<groupindex>1</groupindex>
						</link>
						<logginginfo>
							<description />
							<scene />
							<shottake />
							<lognote />
							<good />
							<originalvideofilename />
							<originalaudiofilename />
						</logginginfo>
						<colorinfo>
							<lut />
							<lut1 />
							<asc_sop />
							<asc_sat />
							<lut2 />
						</colorinfo>
					<labels><label2>Caribbean</label2></labels></clipitem>
					<clipitem id="clipitem-87">
						<masterclipid>clipitem-3-527</masterclipid>
						<name>Taylor_Swift_Travis_Kelce_-_The_New_Power_Couple.mp4</name>
						<enabled>TRUE</enabled>
						<duration>150</duration>
						<rate>
							<timebase>25</timebase>
							<ntsc>FALSE</ntsc>
						</rate>
						<start>160950</start>
						<end>161100</end>
						<in>78900</in>
						<out>79050</out>
						<pproTicksIn>0</pproTicksIn>
						<pproTicksOut>875013995520000</pproTicksOut>
						<alphatype>none</alphatype>
						<pixelaspectratio>square</pixelaspectratio>
						<anamorphic>FALSE</anamorphic>
						<file id="file-31">
							<name>Taylor_Swift_Travis_Kelce_-_The_New_Power_Couple.mp4</name>
							<pathurl>file://localhost/Users/themalikano/Documents/VideoAutomation/premiere_videos/Taylor_Swift_Travis_Kelce_-_The_New_Power_Couple.mp4</pathurl>
							<rate>
								<timebase>25</timebase>
								<ntsc>FALSE</ntsc>
							</rate>
							<duration>86118</duration>
							<timecode>
								<rate>
									<timebase>25</timebase>
									<ntsc>FALSE</ntsc>
								</rate>
								<string>00:00:00:00</string>
								<frame>0</frame>
								<displayformat>NDF</displayformat>
							</timecode>
							<media>
								<video>
									<samplecharacteristics>
										<rate>
											<timebase>25</timebase>
											<ntsc>FALSE</ntsc>
										</rate>
										<width>1920</width>
										<height>1080</height>
										<anamorphic>FALSE</anamorphic>
										<pixelaspectratio>square</pixelaspectratio>
										<fielddominance>none</fielddominance>
									</samplecharacteristics>
								</video>
								<audio>
									<samplecharacteristics>
										<depth>16</depth>
										<samplerate>44100</samplerate>
									</samplecharacteristics>
									<channelcount>2</channelcount>
								</audio>
							</media>
						</file>
						<link>
							<linkclipref>clipitem-87</linkclipref>
							<mediatype>video</mediatype>
							<trackindex>1</trackindex>
							<clipindex>3</clipindex>
						</link>
						<link>
							<linkclipref>clipitem-95</linkclipref>
							<mediatype>audio</mediatype>
							<trackindex>1</trackindex>
							<clipindex>3</clipindex>
							<groupindex>1</groupindex>
						</link>
						<link>
							<linkclipref>clipitem-103</linkclipref>
							<mediatype>audio</mediatype>
							<trackindex>2</trackindex>
							<clipindex>3</clipindex>
							<groupindex>1</groupindex>
						</link>
						<logginginfo>
							<description />
							<scene />
							<shottake />
							<lognote />
							<good />
							<originalvideofilename />
							<originalaudiofilename />
						</logginginfo>
						<colorinfo>
							<lut />
							<lut1 />
							<asc_sop />
							<asc_sat />
							<lut2 />
						</colorinfo>
					<labels><label2>Caribbean</label2></labels></clipitem>
					<clipitem id="clipitem-87">
						<masterclipid>clipitem-3-366</masterclipid>
						<name>Taylor_Swift_Travis_Kelce_-_The_New_Power_Couple.mp4</name>
						<enabled>TRUE</enabled>
						<duration>150</duration>
						<rate>
							<timebase>25</timebase>
							<ntsc>FALSE</ntsc>
						</rate>
						<start>161100</start>
						<end>161250</end>
						<in>54750</in>
						<out>54900</out>
						<pproTicksIn>0</pproTicksIn>
						<pproTicksOut>875013995520000</pproTicksOut>
						<alphatype>none</alphatype>
						<pixelaspectratio>square</pixelaspectratio>
						<anamorphic>FALSE</anamorphic>
						<file id="file-31">
							<name>Taylor_Swift_Travis_Kelce_-_The_New_Power_Couple.mp4</name>
							<pathurl>file://localhost/Users/themalikano/Documents/VideoAutomation/premiere_videos/Taylor_Swift_Travis_Kelce_-_The_New_Power_Couple.mp4</pathurl>
							<rate>
								<timebase>25</timebase>
								<ntsc>FALSE</ntsc>
							</rate>
							<duration>86118</duration>
							<timecode>
								<rate>
									<timebase>25</timebase>
									<ntsc>FALSE</ntsc>
								</rate>
								<string>00:00:00:00</string>
								<frame>0</frame>
								<displayformat>NDF</displayformat>
							</timecode>
							<media>
								<video>
									<samplecharacteristics>
										<rate>
											<timebase>25</timebase>
											<ntsc>FALSE</ntsc>
										</rate>
										<width>1920</width>
										<height>1080</height>
										<anamorphic>FALSE</anamorphic>
										<pixelaspectratio>square</pixelaspectratio>
										<fielddominance>none</fielddominance>
									</samplecharacteristics>
								</video>
								<audio>
									<samplecharacteristics>
										<depth>16</depth>
										<samplerate>44100</samplerate>
									</samplecharacteristics>
									<channelcount>2</channelcount>
								</audio>
							</media>
						</file>
						<link>
							<linkclipref>clipitem-87</linkclipref>
							<mediatype>video</mediatype>
							<trackindex>1</trackindex>
							<clipindex>3</clipindex>
						</link>
						<link>
							<linkclipref>clipitem-95</linkclipref>
							<mediatype>audio</mediatype>
							<trackindex>1</trackindex>
							<clipindex>3</clipindex>
							<groupindex>1</groupindex>
						</link>
						<link>
							<linkclipref>clipitem-103</linkclipref>
							<mediatype>audio</mediatype>
							<trackindex>2</trackindex>
							<clipindex>3</clipindex>
							<groupindex>1</groupindex>
						</link>
						<logginginfo>
							<description />
							<scene />
							<shottake />
							<lognote />
							<good />
							<originalvideofilename />
							<originalaudiofilename />
						</logginginfo>
						<colorinfo>
							<lut />
							<lut1 />
							<asc_sop />
							<asc_sat />
							<lut2 />
						</colorinfo>
					<labels><label2>Caribbean</label2></labels></clipitem>
					<clipitem id="clipitem-87">
						<masterclipid>clipitem-3-249</masterclipid>
						<name>Taylor_Swift_Travis_Kelce_-_The_New_Power_Couple.mp4</name>
						<enabled>TRUE</enabled>
						<duration>150</duration>
						<rate>
							<timebase>25</timebase>
							<ntsc>FALSE</ntsc>
						</rate>
						<start>161250</start>
						<end>161400</end>
						<in>37200</in>
						<out>37350</out>
						<pproTicksIn>0</pproTicksIn>
						<pproTicksOut>875013995520000</pproTicksOut>
						<alphatype>none</alphatype>
						<pixelaspectratio>square</pixelaspectratio>
						<anamorphic>FALSE</anamorphic>
						<file id="file-31">
							<name>Taylor_Swift_Travis_Kelce_-_The_New_Power_Couple.mp4</name>
							<pathurl>file://localhost/Users/themalikano/Documents/VideoAutomation/premiere_videos/Taylor_Swift_Travis_Kelce_-_The_New_Power_Couple.mp4</pathurl>
							<rate>
								<timebase>25</timebase>
								<ntsc>FALSE</ntsc>
							</rate>
							<duration>86118</duration>
							<timecode>
								<rate>
									<timebase>25</timebase>
									<ntsc>FALSE</ntsc>
								</rate>
								<string>00:00:00:00</string>
								<frame>0</frame>
								<displayformat>NDF</displayformat>
							</timecode>
							<media>
								<video>
									<samplecharacteristics>
										<rate>
											<timebase>25</timebase>
											<ntsc>FALSE</ntsc>
										</rate>
										<width>1920</width>
										<height>1080</height>
										<anamorphic>FALSE</anamorphic>
										<pixelaspectratio>square</pixelaspectratio>
										<fielddominance>none</fielddominance>
									</samplecharacteristics>
								</video>
								<audio>
									<samplecharacteristics>
										<depth>16</depth>
										<samplerate>44100</samplerate>
									</samplecharacteristics>
									<channelcount>2</channelcount>
								</audio>
							</media>
						</file>
						<link>
							<linkclipref>clipitem-87</linkclipref>
							<mediatype>video</mediatype>
							<trackindex>1</trackindex>
							<clipindex>3</clipindex>
						</link>
						<link>
							<linkclipref>clipitem-95</linkclipref>
							<mediatype>audio</mediatype>
							<trackindex>1</trackindex>
							<clipindex>3</clipindex>
							<groupindex>1</groupindex>
						</link>
						<link>
							<linkclipref>clipitem-103</linkclipref>
							<mediatype>audio</mediatype>
							<trackindex>2</trackindex>
							<clipindex>3</clipindex>
							<groupindex>1</groupindex>
						</link>
						<logginginfo>
							<description />
							<scene />
							<shottake />
							<lognote />
							<good />
							<originalvideofilename />
							<originalaudiofilename />
						</logginginfo>
						<colorinfo>
							<lut />
							<lut1 />
							<asc_sop />
							<asc_sat />
							<lut2 />
						</colorinfo>
					<labels><label2>Caribbean</label2></labels></clipitem>
					<clipitem id="clipitem-87">
						<masterclipid>clipitem-3-170</masterclipid>
						<name>Taylor_Swift_Travis_Kelce_-_The_New_Power_Couple.mp4</name>
						<enabled>TRUE</enabled>
						<duration>150</duration>
						<rate>
							<timebase>25</timebase>
							<ntsc>FALSE</ntsc>
						</rate>
						<start>161400</start>
						<end>161550</end>
						<in>25350</in>
						<out>25500</out>
						<pproTicksIn>0</pproTicksIn>
						<pproTicksOut>875013995520000</pproTicksOut>
						<alphatype>none</alphatype>
						<pixelaspectratio>square</pixelaspectratio>
						<anamorphic>FALSE</anamorphic>
						<file id="file-31">
							<name>Taylor_Swift_Travis_Kelce_-_The_New_Power_Couple.mp4</name>
							<pathurl>file://localhost/Users/themalikano/Documents/VideoAutomation/premiere_videos/Taylor_Swift_Travis_Kelce_-_The_New_Power_Couple.mp4</pathurl>
							<rate>
								<timebase>25</timebase>
								<ntsc>FALSE</ntsc>
							</rate>
							<duration>86118</duration>
							<timecode>
								<rate>
									<timebase>25</timebase>
									<ntsc>FALSE</ntsc>
								</rate>
								<string>00:00:00:00</string>
								<frame>0</frame>
								<displayformat>NDF</displayformat>
							</timecode>
							<media>
								<video>
									<samplecharacteristics>
										<rate>
											<timebase>25</timebase>
											<ntsc>FALSE</ntsc>
										</rate>
										<width>1920</width>
										<height>1080</height>
										<anamorphic>FALSE</anamorphic>
										<pixelaspectratio>square</pixelaspectratio>
										<fielddominance>none</fielddominance>
									</samplecharacteristics>
								</video>
								<audio>
									<samplecharacteristics>
										<depth>16</depth>
										<samplerate>44100</samplerate>
									</samplecharacteristics>
									<channelcount>2</channelcount>
								</audio>
							</media>
						</file>
						<link>
							<linkclipref>clipitem-87</linkclipref>
							<mediatype>video</mediatype>
							<trackindex>1</trackindex>
							<clipindex>3</clipindex>
						</link>
						<link>
							<linkclipref>clipitem-95</linkclipref>
							<mediatype>audio</mediatype>
							<trackindex>1</trackindex>
							<clipindex>3</clipindex>
							<groupindex>1</groupindex>
						</link>
						<link>
							<linkclipref>clipitem-103</linkclipref>
							<mediatype>audio</mediatype>
							<trackindex>2</trackindex>
							<clipindex>3</clipindex>
							<groupindex>1</groupindex>
						</link>
						<logginginfo>
							<description />
							<scene />
							<shottake />
							<lognote />
							<good />
							<originalvideofilename />
							<originalaudiofilename />
						</logginginfo>
						<colorinfo>
							<lut />
							<lut1 />
							<asc_sop />
							<asc_sat />
							<lut2 />
						</colorinfo>
					<labels><label2>Caribbean</label2></labels></clipitem>
					<clipitem id="clipitem-87">
						<masterclipid>clipitem-3-247</masterclipid>
						<name>Taylor_Swift_Travis_Kelce_-_The_New_Power_Couple.mp4</name>
						<enabled>TRUE</enabled>
						<duration>150</duration>
						<rate>
							<timebase>25</timebase>
							<ntsc>FALSE</ntsc>
						</rate>
						<start>161550</start>
						<end>161700</end>
						<in>36900</in>
						<out>37050</out>
						<pproTicksIn>0</pproTicksIn>
						<pproTicksOut>875013995520000</pproTicksOut>
						<alphatype>none</alphatype>
						<pixelaspectratio>square</pixelaspectratio>
						<anamorphic>FALSE</anamorphic>
						<file id="file-31">
							<name>Taylor_Swift_Travis_Kelce_-_The_New_Power_Couple.mp4</name>
							<pathurl>file://localhost/Users/themalikano/Documents/VideoAutomation/premiere_videos/Taylor_Swift_Travis_Kelce_-_The_New_Power_Couple.mp4</pathurl>
							<rate>
								<timebase>25</timebase>
								<ntsc>FALSE</ntsc>
							</rate>
							<duration>86118</duration>
							<timecode>
								<rate>
									<timebase>25</timebase>
									<ntsc>FALSE</ntsc>
								</rate>
								<string>00:00:00:00</string>
								<frame>0</frame>
								<displayformat>NDF</displayformat>
							</timecode>
							<media>
								<video>
									<samplecharacteristics>
										<rate>
											<timebase>25</timebase>
											<ntsc>FALSE</ntsc>
										</rate>
										<width>1920</width>
										<height>1080</height>
										<anamorphic>FALSE</anamorphic>
										<pixelaspectratio>square</pixelaspectratio>
										<fielddominance>none</fielddominance>
									</samplecharacteristics>
								</video>
								<audio>
									<samplecharacteristics>
										<depth>16</depth>
										<samplerate>44100</samplerate>
									</samplecharacteristics>
									<channelcount>2</channelcount>
								</audio>
							</media>
						</file>
						<link>
							<linkclipref>clipitem-87</linkclipref>
							<mediatype>video</mediatype>
							<trackindex>1</trackindex>
							<clipindex>3</clipindex>
						</link>
						<link>
							<linkclipref>clipitem-95</linkclipref>
							<mediatype>audio</mediatype>
							<trackindex>1</trackindex>
							<clipindex>3</clipindex>
							<groupindex>1</groupindex>
						</link>
						<link>
							<linkclipref>clipitem-103</linkclipref>
							<mediatype>audio</mediatype>
							<trackindex>2</trackindex>
							<clipindex>3</clipindex>
							<groupindex>1</groupindex>
						</link>
						<logginginfo>
							<description />
							<scene />
							<shottake />
							<lognote />
							<good />
							<originalvideofilename />
							<originalaudiofilename />
						</logginginfo>
						<colorinfo>
							<lut />
							<lut1 />
							<asc_sop />
							<asc_sat />
							<lut2 />
						</colorinfo>
					<labels><label2>Caribbean</label2></labels></clipitem>
					<clipitem id="clipitem-87">
						<masterclipid>clipitem-3-364</masterclipid>
						<name>Taylor_Swift_Travis_Kelce_-_The_New_Power_Couple.mp4</name>
						<enabled>TRUE</enabled>
						<duration>150</duration>
						<rate>
							<timebase>25</timebase>
							<ntsc>FALSE</ntsc>
						</rate>
						<start>161700</start>
						<end>161850</end>
						<in>54450</in>
						<out>54600</out>
						<pproTicksIn>0</pproTicksIn>
						<pproTicksOut>875013995520000</pproTicksOut>
						<alphatype>none</alphatype>
						<pixelaspectratio>square</pixelaspectratio>
						<anamorphic>FALSE</anamorphic>
						<file id="file-31">
							<name>Taylor_Swift_Travis_Kelce_-_The_New_Power_Couple.mp4</name>
							<pathurl>file://localhost/Users/themalikano/Documents/VideoAutomation/premiere_videos/Taylor_Swift_Travis_Kelce_-_The_New_Power_Couple.mp4</pathurl>
							<rate>
								<timebase>25</timebase>
								<ntsc>FALSE</ntsc>
							</rate>
							<duration>86118</duration>
							<timecode>
								<rate>
									<timebase>25</timebase>
									<ntsc>FALSE</ntsc>
								</rate>
								<string>00:00:00:00</string>
								<frame>0</frame>
								<displayformat>NDF</displayformat>
							</timecode>
							<media>
								<video>
									<samplecharacteristics>
										<rate>
											<timebase>25</timebase>
											<ntsc>FALSE</ntsc>
										</rate>
										<width>1920</width>
										<height>1080</height>
										<anamorphic>FALSE</anamorphic>
										<pixelaspectratio>square</pixelaspectratio>
										<fielddominance>none</fielddominance>
									</samplecharacteristics>
								</video>
								<audio>
									<samplecharacteristics>
										<depth>16</depth>
										<samplerate>44100</samplerate>
									</samplecharacteristics>
									<channelcount>2</channelcount>
								</audio>
							</media>
						</file>
						<link>
							<linkclipref>clipitem-87</linkclipref>
							<mediatype>video</mediatype>
							<trackindex>1</trackindex>
							<clipindex>3</clipindex>
						</link>
						<link>
							<linkclipref>clipitem-95</linkclipref>
							<mediatype>audio</mediatype>
							<trackindex>1</trackindex>
							<clipindex>3</clipindex>
							<groupindex>1</groupindex>
						</link>
						<link>
							<linkclipref>clipitem-103</linkclipref>
							<mediatype>audio</mediatype>
							<trackindex>2</trackindex>
							<clipindex>3</clipindex>
							<groupindex>1</groupindex>
						</link>
						<logginginfo>
							<description />
							<scene />
							<shottake />
							<lognote />
							<good />
							<originalvideofilename />
							<originalaudiofilename />
						</logginginfo>
						<colorinfo>
							<lut />
							<lut1 />
							<asc_sop />
							<asc_sat />
							<lut2 />
						</colorinfo>
					<labels><label2>Caribbean</label2></labels></clipitem>
					<clipitem id="clipitem-87">
						<masterclipid>clipitem-3-313</masterclipid>
						<name>Taylor_Swift_Travis_Kelce_-_The_New_Power_Couple.mp4</name>
						<enabled>TRUE</enabled>
						<duration>150</duration>
						<rate>
							<timebase>25</timebase>
							<ntsc>FALSE</ntsc>
						</rate>
						<start>161850</start>
						<end>162000</end>
						<in>46800</in>
						<out>46950</out>
						<pproTicksIn>0</pproTicksIn>
						<pproTicksOut>875013995520000</pproTicksOut>
						<alphatype>none</alphatype>
						<pixelaspectratio>square</pixelaspectratio>
						<anamorphic>FALSE</anamorphic>
						<file id="file-31">
							<name>Taylor_Swift_Travis_Kelce_-_The_New_Power_Couple.mp4</name>
							<pathurl>file://localhost/Users/themalikano/Documents/VideoAutomation/premiere_videos/Taylor_Swift_Travis_Kelce_-_The_New_Power_Couple.mp4</pathurl>
							<rate>
								<timebase>25</timebase>
								<ntsc>FALSE</ntsc>
							</rate>
							<duration>86118</duration>
							<timecode>
								<rate>
									<timebase>25</timebase>
									<ntsc>FALSE</ntsc>
								</rate>
								<string>00:00:00:00</string>
								<frame>0</frame>
								<displayformat>NDF</displayformat>
							</timecode>
							<media>
								<video>
									<samplecharacteristics>
										<rate>
											<timebase>25</timebase>
											<ntsc>FALSE</ntsc>
										</rate>
										<width>1920</width>
										<height>1080</height>
										<anamorphic>FALSE</anamorphic>
										<pixelaspectratio>square</pixelaspectratio>
										<fielddominance>none</fielddominance>
									</samplecharacteristics>
								</video>
								<audio>
									<samplecharacteristics>
										<depth>16</depth>
										<samplerate>44100</samplerate>
									</samplecharacteristics>
									<channelcount>2</channelcount>
								</audio>
							</media>
						</file>
						<link>
							<linkclipref>clipitem-87</linkclipref>
							<mediatype>video</mediatype>
							<trackindex>1</trackindex>
							<clipindex>3</clipindex>
						</link>
						<link>
							<linkclipref>clipitem-95</linkclipref>
							<mediatype>audio</mediatype>
							<trackindex>1</trackindex>
							<clipindex>3</clipindex>
							<groupindex>1</groupindex>
						</link>
						<link>
							<linkclipref>clipitem-103</linkclipref>
							<mediatype>audio</mediatype>
							<trackindex>2</trackindex>
							<clipindex>3</clipindex>
							<groupindex>1</groupindex>
						</link>
						<logginginfo>
							<description />
							<scene />
							<shottake />
							<lognote />
							<good />
							<originalvideofilename />
							<originalaudiofilename />
						</logginginfo>
						<colorinfo>
							<lut />
							<lut1 />
							<asc_sop />
							<asc_sat />
							<lut2 />
						</colorinfo>
					<labels><label2>Caribbean</label2></labels></clipitem>
					<clipitem id="clipitem-87">
						<masterclipid>clipitem-3-426</masterclipid>
						<name>Taylor_Swift_Travis_Kelce_-_The_New_Power_Couple.mp4</name>
						<enabled>TRUE</enabled>
						<duration>150</duration>
						<rate>
							<timebase>25</timebase>
							<ntsc>FALSE</ntsc>
						</rate>
						<start>162000</start>
						<end>162150</end>
						<in>63750</in>
						<out>63900</out>
						<pproTicksIn>0</pproTicksIn>
						<pproTicksOut>875013995520000</pproTicksOut>
						<alphatype>none</alphatype>
						<pixelaspectratio>square</pixelaspectratio>
						<anamorphic>FALSE</anamorphic>
						<file id="file-31">
							<name>Taylor_Swift_Travis_Kelce_-_The_New_Power_Couple.mp4</name>
							<pathurl>file://localhost/Users/themalikano/Documents/VideoAutomation/premiere_videos/Taylor_Swift_Travis_Kelce_-_The_New_Power_Couple.mp4</pathurl>
							<rate>
								<timebase>25</timebase>
								<ntsc>FALSE</ntsc>
							</rate>
							<duration>86118</duration>
							<timecode>
								<rate>
									<timebase>25</timebase>
									<ntsc>FALSE</ntsc>
								</rate>
								<string>00:00:00:00</string>
								<frame>0</frame>
								<displayformat>NDF</displayformat>
							</timecode>
							<media>
								<video>
									<samplecharacteristics>
										<rate>
											<timebase>25</timebase>
											<ntsc>FALSE</ntsc>
										</rate>
										<width>1920</width>
										<height>1080</height>
										<anamorphic>FALSE</anamorphic>
										<pixelaspectratio>square</pixelaspectratio>
										<fielddominance>none</fielddominance>
									</samplecharacteristics>
								</video>
								<audio>
									<samplecharacteristics>
										<depth>16</depth>
										<samplerate>44100</samplerate>
									</samplecharacteristics>
									<channelcount>2</channelcount>
								</audio>
							</media>
						</file>
						<link>
							<linkclipref>clipitem-87</linkclipref>
							<mediatype>video</mediatype>
							<trackindex>1</trackindex>
							<clipindex>3</clipindex>
						</link>
						<link>
							<linkclipref>clipitem-95</linkclipref>
							<mediatype>audio</mediatype>
							<trackindex>1</trackindex>
							<clipindex>3</clipindex>
							<groupindex>1</groupindex>
						</link>
						<link>
							<linkclipref>clipitem-103</linkclipref>
							<mediatype>audio</mediatype>
							<trackindex>2</trackindex>
							<clipindex>3</clipindex>
							<groupindex>1</groupindex>
						</link>
						<logginginfo>
							<description />
							<scene />
							<shottake />
							<lognote />
							<good />
							<originalvideofilename />
							<originalaudiofilename />
						</logginginfo>
						<colorinfo>
							<lut />
							<lut1 />
							<asc_sop />
							<asc_sat />
							<lut2 />
						</colorinfo>
					<labels><label2>Caribbean</label2></labels></clipitem>
					<clipitem id="clipitem-87">
						<masterclipid>clipitem-3-406</masterclipid>
						<name>Taylor_Swift_Travis_Kelce_-_The_New_Power_Couple.mp4</name>
						<enabled>TRUE</enabled>
						<duration>150</duration>
						<rate>
							<timebase>25</timebase>
							<ntsc>FALSE</ntsc>
						</rate>
						<start>162150</start>
						<end>162300</end>
						<in>60750</in>
						<out>60900</out>
						<pproTicksIn>0</pproTicksIn>
						<pproTicksOut>875013995520000</pproTicksOut>
						<alphatype>none</alphatype>
						<pixelaspectratio>square</pixelaspectratio>
						<anamorphic>FALSE</anamorphic>
						<file id="file-31">
							<name>Taylor_Swift_Travis_Kelce_-_The_New_Power_Couple.mp4</name>
							<pathurl>file://localhost/Users/themalikano/Documents/VideoAutomation/premiere_videos/Taylor_Swift_Travis_Kelce_-_The_New_Power_Couple.mp4</pathurl>
							<rate>
								<timebase>25</timebase>
								<ntsc>FALSE</ntsc>
							</rate>
							<duration>86118</duration>
							<timecode>
								<rate>
									<timebase>25</timebase>
									<ntsc>FALSE</ntsc>
								</rate>
								<string>00:00:00:00</string>
								<frame>0</frame>
								<displayformat>NDF</displayformat>
							</timecode>
							<media>
								<video>
									<samplecharacteristics>
										<rate>
											<timebase>25</timebase>
											<ntsc>FALSE</ntsc>
										</rate>
										<width>1920</width>
										<height>1080</height>
										<anamorphic>FALSE</anamorphic>
										<pixelaspectratio>square</pixelaspectratio>
										<fielddominance>none</fielddominance>
									</samplecharacteristics>
								</video>
								<audio>
									<samplecharacteristics>
										<depth>16</depth>
										<samplerate>44100</samplerate>
									</samplecharacteristics>
									<channelcount>2</channelcount>
								</audio>
							</media>
						</file>
						<link>
							<linkclipref>clipitem-87</linkclipref>
							<mediatype>video</mediatype>
							<trackindex>1</trackindex>
							<clipindex>3</clipindex>
						</link>
						<link>
							<linkclipref>clipitem-95</linkclipref>
							<mediatype>audio</mediatype>
							<trackindex>1</trackindex>
							<clipindex>3</clipindex>
							<groupindex>1</groupindex>
						</link>
						<link>
							<linkclipref>clipitem-103</linkclipref>
							<mediatype>audio</mediatype>
							<trackindex>2</trackindex>
							<clipindex>3</clipindex>
							<groupindex>1</groupindex>
						</link>
						<logginginfo>
							<description />
							<scene />
							<shottake />
							<lognote />
							<good />
							<originalvideofilename />
							<originalaudiofilename />
						</logginginfo>
						<colorinfo>
							<lut />
							<lut1 />
							<asc_sop />
							<asc_sat />
							<lut2 />
						</colorinfo>
					<labels><label2>Caribbean</label2></labels></clipitem>
					<clipitem id="clipitem-87">
						<masterclipid>clipitem-3-350</masterclipid>
						<name>Taylor_Swift_Travis_Kelce_-_The_New_Power_Couple.mp4</name>
						<enabled>TRUE</enabled>
						<duration>150</duration>
						<rate>
							<timebase>25</timebase>
							<ntsc>FALSE</ntsc>
						</rate>
						<start>162300</start>
						<end>162450</end>
						<in>52350</in>
						<out>52500</out>
						<pproTicksIn>0</pproTicksIn>
						<pproTicksOut>875013995520000</pproTicksOut>
						<alphatype>none</alphatype>
						<pixelaspectratio>square</pixelaspectratio>
						<anamorphic>FALSE</anamorphic>
						<file id="file-31">
							<name>Taylor_Swift_Travis_Kelce_-_The_New_Power_Couple.mp4</name>
							<pathurl>file://localhost/Users/themalikano/Documents/VideoAutomation/premiere_videos/Taylor_Swift_Travis_Kelce_-_The_New_Power_Couple.mp4</pathurl>
							<rate>
								<timebase>25</timebase>
								<ntsc>FALSE</ntsc>
							</rate>
							<duration>86118</duration>
							<timecode>
								<rate>
									<timebase>25</timebase>
									<ntsc>FALSE</ntsc>
								</rate>
								<string>00:00:00:00</string>
								<frame>0</frame>
								<displayformat>NDF</displayformat>
							</timecode>
							<media>
								<video>
									<samplecharacteristics>
										<rate>
											<timebase>25</timebase>
											<ntsc>FALSE</ntsc>
										</rate>
										<width>1920</width>
										<height>1080</height>
										<anamorphic>FALSE</anamorphic>
										<pixelaspectratio>square</pixelaspectratio>
										<fielddominance>none</fielddominance>
									</samplecharacteristics>
								</video>
								<audio>
									<samplecharacteristics>
										<depth>16</depth>
										<samplerate>44100</samplerate>
									</samplecharacteristics>
									<channelcount>2</channelcount>
								</audio>
							</media>
						</file>
						<link>
							<linkclipref>clipitem-87</linkclipref>
							<mediatype>video</mediatype>
							<trackindex>1</trackindex>
							<clipindex>3</clipindex>
						</link>
						<link>
							<linkclipref>clipitem-95</linkclipref>
							<mediatype>audio</mediatype>
							<trackindex>1</trackindex>
							<clipindex>3</clipindex>
							<groupindex>1</groupindex>
						</link>
						<link>
							<linkclipref>clipitem-103</linkclipref>
							<mediatype>audio</mediatype>
							<trackindex>2</trackindex>
							<clipindex>3</clipindex>
							<groupindex>1</groupindex>
						</link>
						<logginginfo>
							<description />
							<scene />
							<shottake />
							<lognote />
							<good />
							<originalvideofilename />
							<originalaudiofilename />
						</logginginfo>
						<colorinfo>
							<lut />
							<lut1 />
							<asc_sop />
							<asc_sat />
							<lut2 />
						</colorinfo>
					<labels><label2>Caribbean</label2></labels></clipitem>
					<clipitem id="clipitem-87">
						<masterclipid>clipitem-3-46</masterclipid>
						<name>Taylor_Swift_Travis_Kelce_-_The_New_Power_Couple.mp4</name>
						<enabled>TRUE</enabled>
						<duration>150</duration>
						<rate>
							<timebase>25</timebase>
							<ntsc>FALSE</ntsc>
						</rate>
						<start>162450</start>
						<end>162600</end>
						<in>6750</in>
						<out>6900</out>
						<pproTicksIn>0</pproTicksIn>
						<pproTicksOut>875013995520000</pproTicksOut>
						<alphatype>none</alphatype>
						<pixelaspectratio>square</pixelaspectratio>
						<anamorphic>FALSE</anamorphic>
						<file id="file-31">
							<name>Taylor_Swift_Travis_Kelce_-_The_New_Power_Couple.mp4</name>
							<pathurl>file://localhost/Users/themalikano/Documents/VideoAutomation/premiere_videos/Taylor_Swift_Travis_Kelce_-_The_New_Power_Couple.mp4</pathurl>
							<rate>
								<timebase>25</timebase>
								<ntsc>FALSE</ntsc>
							</rate>
							<duration>86118</duration>
							<timecode>
								<rate>
									<timebase>25</timebase>
									<ntsc>FALSE</ntsc>
								</rate>
								<string>00:00:00:00</string>
								<frame>0</frame>
								<displayformat>NDF</displayformat>
							</timecode>
							<media>
								<video>
									<samplecharacteristics>
										<rate>
											<timebase>25</timebase>
											<ntsc>FALSE</ntsc>
										</rate>
										<width>1920</width>
										<height>1080</height>
										<anamorphic>FALSE</anamorphic>
										<pixelaspectratio>square</pixelaspectratio>
										<fielddominance>none</fielddominance>
									</samplecharacteristics>
								</video>
								<audio>
									<samplecharacteristics>
										<depth>16</depth>
										<samplerate>44100</samplerate>
									</samplecharacteristics>
									<channelcount>2</channelcount>
								</audio>
							</media>
						</file>
						<link>
							<linkclipref>clipitem-87</linkclipref>
							<mediatype>video</mediatype>
							<trackindex>1</trackindex>
							<clipindex>3</clipindex>
						</link>
						<link>
							<linkclipref>clipitem-95</linkclipref>
							<mediatype>audio</mediatype>
							<trackindex>1</trackindex>
							<clipindex>3</clipindex>
							<groupindex>1</groupindex>
						</link>
						<link>
							<linkclipref>clipitem-103</linkclipref>
							<mediatype>audio</mediatype>
							<trackindex>2</trackindex>
							<clipindex>3</clipindex>
							<groupindex>1</groupindex>
						</link>
						<logginginfo>
							<description />
							<scene />
							<shottake />
							<lognote />
							<good />
							<originalvideofilename />
							<originalaudiofilename />
						</logginginfo>
						<colorinfo>
							<lut />
							<lut1 />
							<asc_sop />
							<asc_sat />
							<lut2 />
						</colorinfo>
					<labels><label2>Caribbean</label2></labels></clipitem>
					<clipitem id="clipitem-87">
						<masterclipid>clipitem-3-147</masterclipid>
						<name>Taylor_Swift_Travis_Kelce_-_The_New_Power_Couple.mp4</name>
						<enabled>TRUE</enabled>
						<duration>150</duration>
						<rate>
							<timebase>25</timebase>
							<ntsc>FALSE</ntsc>
						</rate>
						<start>162600</start>
						<end>162750</end>
						<in>21900</in>
						<out>22050</out>
						<pproTicksIn>0</pproTicksIn>
						<pproTicksOut>875013995520000</pproTicksOut>
						<alphatype>none</alphatype>
						<pixelaspectratio>square</pixelaspectratio>
						<anamorphic>FALSE</anamorphic>
						<file id="file-31">
							<name>Taylor_Swift_Travis_Kelce_-_The_New_Power_Couple.mp4</name>
							<pathurl>file://localhost/Users/themalikano/Documents/VideoAutomation/premiere_videos/Taylor_Swift_Travis_Kelce_-_The_New_Power_Couple.mp4</pathurl>
							<rate>
								<timebase>25</timebase>
								<ntsc>FALSE</ntsc>
							</rate>
							<duration>86118</duration>
							<timecode>
								<rate>
									<timebase>25</timebase>
									<ntsc>FALSE</ntsc>
								</rate>
								<string>00:00:00:00</string>
								<frame>0</frame>
								<displayformat>NDF</displayformat>
							</timecode>
							<media>
								<video>
									<samplecharacteristics>
										<rate>
											<timebase>25</timebase>
											<ntsc>FALSE</ntsc>
										</rate>
										<width>1920</width>
										<height>1080</height>
										<anamorphic>FALSE</anamorphic>
										<pixelaspectratio>square</pixelaspectratio>
										<fielddominance>none</fielddominance>
									</samplecharacteristics>
								</video>
								<audio>
									<samplecharacteristics>
										<depth>16</depth>
										<samplerate>44100</samplerate>
									</samplecharacteristics>
									<channelcount>2</channelcount>
								</audio>
							</media>
						</file>
						<link>
							<linkclipref>clipitem-87</linkclipref>
							<mediatype>video</mediatype>
							<trackindex>1</trackindex>
							<clipindex>3</clipindex>
						</link>
						<link>
							<linkclipref>clipitem-95</linkclipref>
							<mediatype>audio</mediatype>
							<trackindex>1</trackindex>
							<clipindex>3</clipindex>
							<groupindex>1</groupindex>
						</link>
						<link>
							<linkclipref>clipitem-103</linkclipref>
							<mediatype>audio</mediatype>
							<trackindex>2</trackindex>
							<clipindex>3</clipindex>
							<groupindex>1</groupindex>
						</link>
						<logginginfo>
							<description />
							<scene />
							<shottake />
							<lognote />
							<good />
							<originalvideofilename />
							<originalaudiofilename />
						</logginginfo>
						<colorinfo>
							<lut />
							<lut1 />
							<asc_sop />
							<asc_sat />
							<lut2 />
						</colorinfo>
					<labels><label2>Caribbean</label2></labels></clipitem>
					<clipitem id="clipitem-87">
						<masterclipid>clipitem-3-114</masterclipid>
						<name>Taylor_Swift_Travis_Kelce_-_The_New_Power_Couple.mp4</name>
						<enabled>TRUE</enabled>
						<duration>150</duration>
						<rate>
							<timebase>25</timebase>
							<ntsc>FALSE</ntsc>
						</rate>
						<start>162750</start>
						<end>162900</end>
						<in>16950</in>
						<out>17100</out>
						<pproTicksIn>0</pproTicksIn>
						<pproTicksOut>875013995520000</pproTicksOut>
						<alphatype>none</alphatype>
						<pixelaspectratio>square</pixelaspectratio>
						<anamorphic>FALSE</anamorphic>
						<file id="file-31">
							<name>Taylor_Swift_Travis_Kelce_-_The_New_Power_Couple.mp4</name>
							<pathurl>file://localhost/Users/themalikano/Documents/VideoAutomation/premiere_videos/Taylor_Swift_Travis_Kelce_-_The_New_Power_Couple.mp4</pathurl>
							<rate>
								<timebase>25</timebase>
								<ntsc>FALSE</ntsc>
							</rate>
							<duration>86118</duration>
							<timecode>
								<rate>
									<timebase>25</timebase>
									<ntsc>FALSE</ntsc>
								</rate>
								<string>00:00:00:00</string>
								<frame>0</frame>
								<displayformat>NDF</displayformat>
							</timecode>
							<media>
								<video>
									<samplecharacteristics>
										<rate>
											<timebase>25</timebase>
											<ntsc>FALSE</ntsc>
										</rate>
										<width>1920</width>
										<height>1080</height>
										<anamorphic>FALSE</anamorphic>
										<pixelaspectratio>square</pixelaspectratio>
										<fielddominance>none</fielddominance>
									</samplecharacteristics>
								</video>
								<audio>
									<samplecharacteristics>
										<depth>16</depth>
										<samplerate>44100</samplerate>
									</samplecharacteristics>
									<channelcount>2</channelcount>
								</audio>
							</media>
						</file>
						<link>
							<linkclipref>clipitem-87</linkclipref>
							<mediatype>video</mediatype>
							<trackindex>1</trackindex>
							<clipindex>3</clipindex>
						</link>
						<link>
							<linkclipref>clipitem-95</linkclipref>
							<mediatype>audio</mediatype>
							<trackindex>1</trackindex>
							<clipindex>3</clipindex>
							<groupindex>1</groupindex>
						</link>
						<link>
							<linkclipref>clipitem-103</linkclipref>
							<mediatype>audio</mediatype>
							<trackindex>2</trackindex>
							<clipindex>3</clipindex>
							<groupindex>1</groupindex>
						</link>
						<logginginfo>
							<description />
							<scene />
							<shottake />
							<lognote />
							<good />
							<originalvideofilename />
							<originalaudiofilename />
						</logginginfo>
						<colorinfo>
							<lut />
							<lut1 />
							<asc_sop />
							<asc_sat />
							<lut2 />
						</colorinfo>
					<labels><label2>Caribbean</label2></labels></clipitem>
					<clipitem id="clipitem-87">
						<masterclipid>clipitem-3-308</masterclipid>
						<name>Taylor_Swift_Travis_Kelce_-_The_New_Power_Couple.mp4</name>
						<enabled>TRUE</enabled>
						<duration>150</duration>
						<rate>
							<timebase>25</timebase>
							<ntsc>FALSE</ntsc>
						</rate>
						<start>162900</start>
						<end>163050</end>
						<in>46050</in>
						<out>46200</out>
						<pproTicksIn>0</pproTicksIn>
						<pproTicksOut>875013995520000</pproTicksOut>
						<alphatype>none</alphatype>
						<pixelaspectratio>square</pixelaspectratio>
						<anamorphic>FALSE</anamorphic>
						<file id="file-31">
							<name>Taylor_Swift_Travis_Kelce_-_The_New_Power_Couple.mp4</name>
							<pathurl>file://localhost/Users/themalikano/Documents/VideoAutomation/premiere_videos/Taylor_Swift_Travis_Kelce_-_The_New_Power_Couple.mp4</pathurl>
							<rate>
								<timebase>25</timebase>
								<ntsc>FALSE</ntsc>
							</rate>
							<duration>86118</duration>
							<timecode>
								<rate>
									<timebase>25</timebase>
									<ntsc>FALSE</ntsc>
								</rate>
								<string>00:00:00:00</string>
								<frame>0</frame>
								<displayformat>NDF</displayformat>
							</timecode>
							<media>
								<video>
									<samplecharacteristics>
										<rate>
											<timebase>25</timebase>
											<ntsc>FALSE</ntsc>
										</rate>
										<width>1920</width>
										<height>1080</height>
										<anamorphic>FALSE</anamorphic>
										<pixelaspectratio>square</pixelaspectratio>
										<fielddominance>none</fielddominance>
									</samplecharacteristics>
								</video>
								<audio>
									<samplecharacteristics>
										<depth>16</depth>
										<samplerate>44100</samplerate>
									</samplecharacteristics>
									<channelcount>2</channelcount>
								</audio>
							</media>
						</file>
						<link>
							<linkclipref>clipitem-87</linkclipref>
							<mediatype>video</mediatype>
							<trackindex>1</trackindex>
							<clipindex>3</clipindex>
						</link>
						<link>
							<linkclipref>clipitem-95</linkclipref>
							<mediatype>audio</mediatype>
							<trackindex>1</trackindex>
							<clipindex>3</clipindex>
							<groupindex>1</groupindex>
						</link>
						<link>
							<linkclipref>clipitem-103</linkclipref>
							<mediatype>audio</mediatype>
							<trackindex>2</trackindex>
							<clipindex>3</clipindex>
							<groupindex>1</groupindex>
						</link>
						<logginginfo>
							<description />
							<scene />
							<shottake />
							<lognote />
							<good />
							<originalvideofilename />
							<originalaudiofilename />
						</logginginfo>
						<colorinfo>
							<lut />
							<lut1 />
							<asc_sop />
							<asc_sat />
							<lut2 />
						</colorinfo>
					<labels><label2>Caribbean</label2></labels></clipitem>
					<clipitem id="clipitem-87">
						<masterclipid>clipitem-3-140</masterclipid>
						<name>Taylor_Swift_Travis_Kelce_-_The_New_Power_Couple.mp4</name>
						<enabled>TRUE</enabled>
						<duration>150</duration>
						<rate>
							<timebase>25</timebase>
							<ntsc>FALSE</ntsc>
						</rate>
						<start>163050</start>
						<end>163200</end>
						<in>20850</in>
						<out>21000</out>
						<pproTicksIn>0</pproTicksIn>
						<pproTicksOut>875013995520000</pproTicksOut>
						<alphatype>none</alphatype>
						<pixelaspectratio>square</pixelaspectratio>
						<anamorphic>FALSE</anamorphic>
						<file id="file-31">
							<name>Taylor_Swift_Travis_Kelce_-_The_New_Power_Couple.mp4</name>
							<pathurl>file://localhost/Users/themalikano/Documents/VideoAutomation/premiere_videos/Taylor_Swift_Travis_Kelce_-_The_New_Power_Couple.mp4</pathurl>
							<rate>
								<timebase>25</timebase>
								<ntsc>FALSE</ntsc>
							</rate>
							<duration>86118</duration>
							<timecode>
								<rate>
									<timebase>25</timebase>
									<ntsc>FALSE</ntsc>
								</rate>
								<string>00:00:00:00</string>
								<frame>0</frame>
								<displayformat>NDF</displayformat>
							</timecode>
							<media>
								<video>
									<samplecharacteristics>
										<rate>
											<timebase>25</timebase>
											<ntsc>FALSE</ntsc>
										</rate>
										<width>1920</width>
										<height>1080</height>
										<anamorphic>FALSE</anamorphic>
										<pixelaspectratio>square</pixelaspectratio>
										<fielddominance>none</fielddominance>
									</samplecharacteristics>
								</video>
								<audio>
									<samplecharacteristics>
										<depth>16</depth>
										<samplerate>44100</samplerate>
									</samplecharacteristics>
									<channelcount>2</channelcount>
								</audio>
							</media>
						</file>
						<link>
							<linkclipref>clipitem-87</linkclipref>
							<mediatype>video</mediatype>
							<trackindex>1</trackindex>
							<clipindex>3</clipindex>
						</link>
						<link>
							<linkclipref>clipitem-95</linkclipref>
							<mediatype>audio</mediatype>
							<trackindex>1</trackindex>
							<clipindex>3</clipindex>
							<groupindex>1</groupindex>
						</link>
						<link>
							<linkclipref>clipitem-103</linkclipref>
							<mediatype>audio</mediatype>
							<trackindex>2</trackindex>
							<clipindex>3</clipindex>
							<groupindex>1</groupindex>
						</link>
						<logginginfo>
							<description />
							<scene />
							<shottake />
							<lognote />
							<good />
							<originalvideofilename />
							<originalaudiofilename />
						</logginginfo>
						<colorinfo>
							<lut />
							<lut1 />
							<asc_sop />
							<asc_sat />
							<lut2 />
						</colorinfo>
					<labels><label2>Caribbean</label2></labels></clipitem>
					<clipitem id="clipitem-87">
						<masterclipid>clipitem-3-219</masterclipid>
						<name>Taylor_Swift_Travis_Kelce_-_The_New_Power_Couple.mp4</name>
						<enabled>TRUE</enabled>
						<duration>150</duration>
						<rate>
							<timebase>25</timebase>
							<ntsc>FALSE</ntsc>
						</rate>
						<start>163200</start>
						<end>163350</end>
						<in>32700</in>
						<out>32850</out>
						<pproTicksIn>0</pproTicksIn>
						<pproTicksOut>875013995520000</pproTicksOut>
						<alphatype>none</alphatype>
						<pixelaspectratio>square</pixelaspectratio>
						<anamorphic>FALSE</anamorphic>
						<file id="file-31">
							<name>Taylor_Swift_Travis_Kelce_-_The_New_Power_Couple.mp4</name>
							<pathurl>file://localhost/Users/themalikano/Documents/VideoAutomation/premiere_videos/Taylor_Swift_Travis_Kelce_-_The_New_Power_Couple.mp4</pathurl>
							<rate>
								<timebase>25</timebase>
								<ntsc>FALSE</ntsc>
							</rate>
							<duration>86118</duration>
							<timecode>
								<rate>
									<timebase>25</timebase>
									<ntsc>FALSE</ntsc>
								</rate>
								<string>00:00:00:00</string>
								<frame>0</frame>
								<displayformat>NDF</displayformat>
							</timecode>
							<media>
								<video>
									<samplecharacteristics>
										<rate>
											<timebase>25</timebase>
											<ntsc>FALSE</ntsc>
										</rate>
										<width>1920</width>
										<height>1080</height>
										<anamorphic>FALSE</anamorphic>
										<pixelaspectratio>square</pixelaspectratio>
										<fielddominance>none</fielddominance>
									</samplecharacteristics>
								</video>
								<audio>
									<samplecharacteristics>
										<depth>16</depth>
										<samplerate>44100</samplerate>
									</samplecharacteristics>
									<channelcount>2</channelcount>
								</audio>
							</media>
						</file>
						<link>
							<linkclipref>clipitem-87</linkclipref>
							<mediatype>video</mediatype>
							<trackindex>1</trackindex>
							<clipindex>3</clipindex>
						</link>
						<link>
							<linkclipref>clipitem-95</linkclipref>
							<mediatype>audio</mediatype>
							<trackindex>1</trackindex>
							<clipindex>3</clipindex>
							<groupindex>1</groupindex>
						</link>
						<link>
							<linkclipref>clipitem-103</linkclipref>
							<mediatype>audio</mediatype>
							<trackindex>2</trackindex>
							<clipindex>3</clipindex>
							<groupindex>1</groupindex>
						</link>
						<logginginfo>
							<description />
							<scene />
							<shottake />
							<lognote />
							<good />
							<originalvideofilename />
							<originalaudiofilename />
						</logginginfo>
						<colorinfo>
							<lut />
							<lut1 />
							<asc_sop />
							<asc_sat />
							<lut2 />
						</colorinfo>
					<labels><label2>Caribbean</label2></labels></clipitem>
					<clipitem id="clipitem-87">
						<masterclipid>clipitem-3-335</masterclipid>
						<name>Taylor_Swift_Travis_Kelce_-_The_New_Power_Couple.mp4</name>
						<enabled>TRUE</enabled>
						<duration>150</duration>
						<rate>
							<timebase>25</timebase>
							<ntsc>FALSE</ntsc>
						</rate>
						<start>163350</start>
						<end>163500</end>
						<in>50100</in>
						<out>50250</out>
						<pproTicksIn>0</pproTicksIn>
						<pproTicksOut>875013995520000</pproTicksOut>
						<alphatype>none</alphatype>
						<pixelaspectratio>square</pixelaspectratio>
						<anamorphic>FALSE</anamorphic>
						<file id="file-31">
							<name>Taylor_Swift_Travis_Kelce_-_The_New_Power_Couple.mp4</name>
							<pathurl>file://localhost/Users/themalikano/Documents/VideoAutomation/premiere_videos/Taylor_Swift_Travis_Kelce_-_The_New_Power_Couple.mp4</pathurl>
							<rate>
								<timebase>25</timebase>
								<ntsc>FALSE</ntsc>
							</rate>
							<duration>86118</duration>
							<timecode>
								<rate>
									<timebase>25</timebase>
									<ntsc>FALSE</ntsc>
								</rate>
								<string>00:00:00:00</string>
								<frame>0</frame>
								<displayformat>NDF</displayformat>
							</timecode>
							<media>
								<video>
									<samplecharacteristics>
										<rate>
											<timebase>25</timebase>
											<ntsc>FALSE</ntsc>
										</rate>
										<width>1920</width>
										<height>1080</height>
										<anamorphic>FALSE</anamorphic>
										<pixelaspectratio>square</pixelaspectratio>
										<fielddominance>none</fielddominance>
									</samplecharacteristics>
								</video>
								<audio>
									<samplecharacteristics>
										<depth>16</depth>
										<samplerate>44100</samplerate>
									</samplecharacteristics>
									<channelcount>2</channelcount>
								</audio>
							</media>
						</file>
						<link>
							<linkclipref>clipitem-87</linkclipref>
							<mediatype>video</mediatype>
							<trackindex>1</trackindex>
							<clipindex>3</clipindex>
						</link>
						<link>
							<linkclipref>clipitem-95</linkclipref>
							<mediatype>audio</mediatype>
							<trackindex>1</trackindex>
							<clipindex>3</clipindex>
							<groupindex>1</groupindex>
						</link>
						<link>
							<linkclipref>clipitem-103</linkclipref>
							<mediatype>audio</mediatype>
							<trackindex>2</trackindex>
							<clipindex>3</clipindex>
							<groupindex>1</groupindex>
						</link>
						<logginginfo>
							<description />
							<scene />
							<shottake />
							<lognote />
							<good />
							<originalvideofilename />
							<originalaudiofilename />
						</logginginfo>
						<colorinfo>
							<lut />
							<lut1 />
							<asc_sop />
							<asc_sat />
							<lut2 />
						</colorinfo>
					<labels><label2>Caribbean</label2></labels></clipitem>
					<clipitem id="clipitem-87">
						<masterclipid>clipitem-3-352</masterclipid>
						<name>Taylor_Swift_Travis_Kelce_-_The_New_Power_Couple.mp4</name>
						<enabled>TRUE</enabled>
						<duration>150</duration>
						<rate>
							<timebase>25</timebase>
							<ntsc>FALSE</ntsc>
						</rate>
						<start>163500</start>
						<end>163650</end>
						<in>52650</in>
						<out>52800</out>
						<pproTicksIn>0</pproTicksIn>
						<pproTicksOut>875013995520000</pproTicksOut>
						<alphatype>none</alphatype>
						<pixelaspectratio>square</pixelaspectratio>
						<anamorphic>FALSE</anamorphic>
						<file id="file-31">
							<name>Taylor_Swift_Travis_Kelce_-_The_New_Power_Couple.mp4</name>
							<pathurl>file://localhost/Users/themalikano/Documents/VideoAutomation/premiere_videos/Taylor_Swift_Travis_Kelce_-_The_New_Power_Couple.mp4</pathurl>
							<rate>
								<timebase>25</timebase>
								<ntsc>FALSE</ntsc>
							</rate>
							<duration>86118</duration>
							<timecode>
								<rate>
									<timebase>25</timebase>
									<ntsc>FALSE</ntsc>
								</rate>
								<string>00:00:00:00</string>
								<frame>0</frame>
								<displayformat>NDF</displayformat>
							</timecode>
							<media>
								<video>
									<samplecharacteristics>
										<rate>
											<timebase>25</timebase>
											<ntsc>FALSE</ntsc>
										</rate>
										<width>1920</width>
										<height>1080</height>
										<anamorphic>FALSE</anamorphic>
										<pixelaspectratio>square</pixelaspectratio>
										<fielddominance>none</fielddominance>
									</samplecharacteristics>
								</video>
								<audio>
									<samplecharacteristics>
										<depth>16</depth>
										<samplerate>44100</samplerate>
									</samplecharacteristics>
									<channelcount>2</channelcount>
								</audio>
							</media>
						</file>
						<link>
							<linkclipref>clipitem-87</linkclipref>
							<mediatype>video</mediatype>
							<trackindex>1</trackindex>
							<clipindex>3</clipindex>
						</link>
						<link>
							<linkclipref>clipitem-95</linkclipref>
							<mediatype>audio</mediatype>
							<trackindex>1</trackindex>
							<clipindex>3</clipindex>
							<groupindex>1</groupindex>
						</link>
						<link>
							<linkclipref>clipitem-103</linkclipref>
							<mediatype>audio</mediatype>
							<trackindex>2</trackindex>
							<clipindex>3</clipindex>
							<groupindex>1</groupindex>
						</link>
						<logginginfo>
							<description />
							<scene />
							<shottake />
							<lognote />
							<good />
							<originalvideofilename />
							<originalaudiofilename />
						</logginginfo>
						<colorinfo>
							<lut />
							<lut1 />
							<asc_sop />
							<asc_sat />
							<lut2 />
						</colorinfo>
					<labels><label2>Caribbean</label2></labels></clipitem>
					<clipitem id="clipitem-87">
						<masterclipid>clipitem-3-87</masterclipid>
						<name>Taylor_Swift_Travis_Kelce_-_The_New_Power_Couple.mp4</name>
						<enabled>TRUE</enabled>
						<duration>150</duration>
						<rate>
							<timebase>25</timebase>
							<ntsc>FALSE</ntsc>
						</rate>
						<start>163650</start>
						<end>163800</end>
						<in>12900</in>
						<out>13050</out>
						<pproTicksIn>0</pproTicksIn>
						<pproTicksOut>875013995520000</pproTicksOut>
						<alphatype>none</alphatype>
						<pixelaspectratio>square</pixelaspectratio>
						<anamorphic>FALSE</anamorphic>
						<file id="file-31">
							<name>Taylor_Swift_Travis_Kelce_-_The_New_Power_Couple.mp4</name>
							<pathurl>file://localhost/Users/themalikano/Documents/VideoAutomation/premiere_videos/Taylor_Swift_Travis_Kelce_-_The_New_Power_Couple.mp4</pathurl>
							<rate>
								<timebase>25</timebase>
								<ntsc>FALSE</ntsc>
							</rate>
							<duration>86118</duration>
							<timecode>
								<rate>
									<timebase>25</timebase>
									<ntsc>FALSE</ntsc>
								</rate>
								<string>00:00:00:00</string>
								<frame>0</frame>
								<displayformat>NDF</displayformat>
							</timecode>
							<media>
								<video>
									<samplecharacteristics>
										<rate>
											<timebase>25</timebase>
											<ntsc>FALSE</ntsc>
										</rate>
										<width>1920</width>
										<height>1080</height>
										<anamorphic>FALSE</anamorphic>
										<pixelaspectratio>square</pixelaspectratio>
										<fielddominance>none</fielddominance>
									</samplecharacteristics>
								</video>
								<audio>
									<samplecharacteristics>
										<depth>16</depth>
										<samplerate>44100</samplerate>
									</samplecharacteristics>
									<channelcount>2</channelcount>
								</audio>
							</media>
						</file>
						<link>
							<linkclipref>clipitem-87</linkclipref>
							<mediatype>video</mediatype>
							<trackindex>1</trackindex>
							<clipindex>3</clipindex>
						</link>
						<link>
							<linkclipref>clipitem-95</linkclipref>
							<mediatype>audio</mediatype>
							<trackindex>1</trackindex>
							<clipindex>3</clipindex>
							<groupindex>1</groupindex>
						</link>
						<link>
							<linkclipref>clipitem-103</linkclipref>
							<mediatype>audio</mediatype>
							<trackindex>2</trackindex>
							<clipindex>3</clipindex>
							<groupindex>1</groupindex>
						</link>
						<logginginfo>
							<description />
							<scene />
							<shottake />
							<lognote />
							<good />
							<originalvideofilename />
							<originalaudiofilename />
						</logginginfo>
						<colorinfo>
							<lut />
							<lut1 />
							<asc_sop />
							<asc_sat />
							<lut2 />
						</colorinfo>
					<labels><label2>Caribbean</label2></labels></clipitem>
					<clipitem id="clipitem-87">
						<masterclipid>clipitem-3-464</masterclipid>
						<name>Taylor_Swift_Travis_Kelce_-_The_New_Power_Couple.mp4</name>
						<enabled>TRUE</enabled>
						<duration>150</duration>
						<rate>
							<timebase>25</timebase>
							<ntsc>FALSE</ntsc>
						</rate>
						<start>163800</start>
						<end>163950</end>
						<in>69450</in>
						<out>69600</out>
						<pproTicksIn>0</pproTicksIn>
						<pproTicksOut>875013995520000</pproTicksOut>
						<alphatype>none</alphatype>
						<pixelaspectratio>square</pixelaspectratio>
						<anamorphic>FALSE</anamorphic>
						<file id="file-31">
							<name>Taylor_Swift_Travis_Kelce_-_The_New_Power_Couple.mp4</name>
							<pathurl>file://localhost/Users/themalikano/Documents/VideoAutomation/premiere_videos/Taylor_Swift_Travis_Kelce_-_The_New_Power_Couple.mp4</pathurl>
							<rate>
								<timebase>25</timebase>
								<ntsc>FALSE</ntsc>
							</rate>
							<duration>86118</duration>
							<timecode>
								<rate>
									<timebase>25</timebase>
									<ntsc>FALSE</ntsc>
								</rate>
								<string>00:00:00:00</string>
								<frame>0</frame>
								<displayformat>NDF</displayformat>
							</timecode>
							<media>
								<video>
									<samplecharacteristics>
										<rate>
											<timebase>25</timebase>
											<ntsc>FALSE</ntsc>
										</rate>
										<width>1920</width>
										<height>1080</height>
										<anamorphic>FALSE</anamorphic>
										<pixelaspectratio>square</pixelaspectratio>
										<fielddominance>none</fielddominance>
									</samplecharacteristics>
								</video>
								<audio>
									<samplecharacteristics>
										<depth>16</depth>
										<samplerate>44100</samplerate>
									</samplecharacteristics>
									<channelcount>2</channelcount>
								</audio>
							</media>
						</file>
						<link>
							<linkclipref>clipitem-87</linkclipref>
							<mediatype>video</mediatype>
							<trackindex>1</trackindex>
							<clipindex>3</clipindex>
						</link>
						<link>
							<linkclipref>clipitem-95</linkclipref>
							<mediatype>audio</mediatype>
							<trackindex>1</trackindex>
							<clipindex>3</clipindex>
							<groupindex>1</groupindex>
						</link>
						<link>
							<linkclipref>clipitem-103</linkclipref>
							<mediatype>audio</mediatype>
							<trackindex>2</trackindex>
							<clipindex>3</clipindex>
							<groupindex>1</groupindex>
						</link>
						<logginginfo>
							<description />
							<scene />
							<shottake />
							<lognote />
							<good />
							<originalvideofilename />
							<originalaudiofilename />
						</logginginfo>
						<colorinfo>
							<lut />
							<lut1 />
							<asc_sop />
							<asc_sat />
							<lut2 />
						</colorinfo>
					<labels><label2>Caribbean</label2></labels></clipitem>
					<clipitem id="clipitem-87">
						<masterclipid>clipitem-3-168</masterclipid>
						<name>Taylor_Swift_Travis_Kelce_-_The_New_Power_Couple.mp4</name>
						<enabled>TRUE</enabled>
						<duration>150</duration>
						<rate>
							<timebase>25</timebase>
							<ntsc>FALSE</ntsc>
						</rate>
						<start>163950</start>
						<end>164100</end>
						<in>25050</in>
						<out>25200</out>
						<pproTicksIn>0</pproTicksIn>
						<pproTicksOut>875013995520000</pproTicksOut>
						<alphatype>none</alphatype>
						<pixelaspectratio>square</pixelaspectratio>
						<anamorphic>FALSE</anamorphic>
						<file id="file-31">
							<name>Taylor_Swift_Travis_Kelce_-_The_New_Power_Couple.mp4</name>
							<pathurl>file://localhost/Users/themalikano/Documents/VideoAutomation/premiere_videos/Taylor_Swift_Travis_Kelce_-_The_New_Power_Couple.mp4</pathurl>
							<rate>
								<timebase>25</timebase>
								<ntsc>FALSE</ntsc>
							</rate>
							<duration>86118</duration>
							<timecode>
								<rate>
									<timebase>25</timebase>
									<ntsc>FALSE</ntsc>
								</rate>
								<string>00:00:00:00</string>
								<frame>0</frame>
								<displayformat>NDF</displayformat>
							</timecode>
							<media>
								<video>
									<samplecharacteristics>
										<rate>
											<timebase>25</timebase>
											<ntsc>FALSE</ntsc>
										</rate>
										<width>1920</width>
										<height>1080</height>
										<anamorphic>FALSE</anamorphic>
										<pixelaspectratio>square</pixelaspectratio>
										<fielddominance>none</fielddominance>
									</samplecharacteristics>
								</video>
								<audio>
									<samplecharacteristics>
										<depth>16</depth>
										<samplerate>44100</samplerate>
									</samplecharacteristics>
									<channelcount>2</channelcount>
								</audio>
							</media>
						</file>
						<link>
							<linkclipref>clipitem-87</linkclipref>
							<mediatype>video</mediatype>
							<trackindex>1</trackindex>
							<clipindex>3</clipindex>
						</link>
						<link>
							<linkclipref>clipitem-95</linkclipref>
							<mediatype>audio</mediatype>
							<trackindex>1</trackindex>
							<clipindex>3</clipindex>
							<groupindex>1</groupindex>
						</link>
						<link>
							<linkclipref>clipitem-103</linkclipref>
							<mediatype>audio</mediatype>
							<trackindex>2</trackindex>
							<clipindex>3</clipindex>
							<groupindex>1</groupindex>
						</link>
						<logginginfo>
							<description />
							<scene />
							<shottake />
							<lognote />
							<good />
							<originalvideofilename />
							<originalaudiofilename />
						</logginginfo>
						<colorinfo>
							<lut />
							<lut1 />
							<asc_sop />
							<asc_sat />
							<lut2 />
						</colorinfo>
					<labels><label2>Caribbean</label2></labels></clipitem>
					<clipitem id="clipitem-87">
						<masterclipid>clipitem-3-411</masterclipid>
						<name>Taylor_Swift_Travis_Kelce_-_The_New_Power_Couple.mp4</name>
						<enabled>TRUE</enabled>
						<duration>150</duration>
						<rate>
							<timebase>25</timebase>
							<ntsc>FALSE</ntsc>
						</rate>
						<start>164100</start>
						<end>164250</end>
						<in>61500</in>
						<out>61650</out>
						<pproTicksIn>0</pproTicksIn>
						<pproTicksOut>875013995520000</pproTicksOut>
						<alphatype>none</alphatype>
						<pixelaspectratio>square</pixelaspectratio>
						<anamorphic>FALSE</anamorphic>
						<file id="file-31">
							<name>Taylor_Swift_Travis_Kelce_-_The_New_Power_Couple.mp4</name>
							<pathurl>file://localhost/Users/themalikano/Documents/VideoAutomation/premiere_videos/Taylor_Swift_Travis_Kelce_-_The_New_Power_Couple.mp4</pathurl>
							<rate>
								<timebase>25</timebase>
								<ntsc>FALSE</ntsc>
							</rate>
							<duration>86118</duration>
							<timecode>
								<rate>
									<timebase>25</timebase>
									<ntsc>FALSE</ntsc>
								</rate>
								<string>00:00:00:00</string>
								<frame>0</frame>
								<displayformat>NDF</displayformat>
							</timecode>
							<media>
								<video>
									<samplecharacteristics>
										<rate>
											<timebase>25</timebase>
											<ntsc>FALSE</ntsc>
										</rate>
										<width>1920</width>
										<height>1080</height>
										<anamorphic>FALSE</anamorphic>
										<pixelaspectratio>square</pixelaspectratio>
										<fielddominance>none</fielddominance>
									</samplecharacteristics>
								</video>
								<audio>
									<samplecharacteristics>
										<depth>16</depth>
										<samplerate>44100</samplerate>
									</samplecharacteristics>
									<channelcount>2</channelcount>
								</audio>
							</media>
						</file>
						<link>
							<linkclipref>clipitem-87</linkclipref>
							<mediatype>video</mediatype>
							<trackindex>1</trackindex>
							<clipindex>3</clipindex>
						</link>
						<link>
							<linkclipref>clipitem-95</linkclipref>
							<mediatype>audio</mediatype>
							<trackindex>1</trackindex>
							<clipindex>3</clipindex>
							<groupindex>1</groupindex>
						</link>
						<link>
							<linkclipref>clipitem-103</linkclipref>
							<mediatype>audio</mediatype>
							<trackindex>2</trackindex>
							<clipindex>3</clipindex>
							<groupindex>1</groupindex>
						</link>
						<logginginfo>
							<description />
							<scene />
							<shottake />
							<lognote />
							<good />
							<originalvideofilename />
							<originalaudiofilename />
						</logginginfo>
						<colorinfo>
							<lut />
							<lut1 />
							<asc_sop />
							<asc_sat />
							<lut2 />
						</colorinfo>
					<labels><label2>Caribbean</label2></labels></clipitem>
					<clipitem id="clipitem-87">
						<masterclipid>clipitem-3-55</masterclipid>
						<name>Taylor_Swift_Travis_Kelce_-_The_New_Power_Couple.mp4</name>
						<enabled>TRUE</enabled>
						<duration>150</duration>
						<rate>
							<timebase>25</timebase>
							<ntsc>FALSE</ntsc>
						</rate>
						<start>164250</start>
						<end>164400</end>
						<in>8100</in>
						<out>8250</out>
						<pproTicksIn>0</pproTicksIn>
						<pproTicksOut>875013995520000</pproTicksOut>
						<alphatype>none</alphatype>
						<pixelaspectratio>square</pixelaspectratio>
						<anamorphic>FALSE</anamorphic>
						<file id="file-31">
							<name>Taylor_Swift_Travis_Kelce_-_The_New_Power_Couple.mp4</name>
							<pathurl>file://localhost/Users/themalikano/Documents/VideoAutomation/premiere_videos/Taylor_Swift_Travis_Kelce_-_The_New_Power_Couple.mp4</pathurl>
							<rate>
								<timebase>25</timebase>
								<ntsc>FALSE</ntsc>
							</rate>
							<duration>86118</duration>
							<timecode>
								<rate>
									<timebase>25</timebase>
									<ntsc>FALSE</ntsc>
								</rate>
								<string>00:00:00:00</string>
								<frame>0</frame>
								<displayformat>NDF</displayformat>
							</timecode>
							<media>
								<video>
									<samplecharacteristics>
										<rate>
											<timebase>25</timebase>
											<ntsc>FALSE</ntsc>
										</rate>
										<width>1920</width>
										<height>1080</height>
										<anamorphic>FALSE</anamorphic>
										<pixelaspectratio>square</pixelaspectratio>
										<fielddominance>none</fielddominance>
									</samplecharacteristics>
								</video>
								<audio>
									<samplecharacteristics>
										<depth>16</depth>
										<samplerate>44100</samplerate>
									</samplecharacteristics>
									<channelcount>2</channelcount>
								</audio>
							</media>
						</file>
						<link>
							<linkclipref>clipitem-87</linkclipref>
							<mediatype>video</mediatype>
							<trackindex>1</trackindex>
							<clipindex>3</clipindex>
						</link>
						<link>
							<linkclipref>clipitem-95</linkclipref>
							<mediatype>audio</mediatype>
							<trackindex>1</trackindex>
							<clipindex>3</clipindex>
							<groupindex>1</groupindex>
						</link>
						<link>
							<linkclipref>clipitem-103</linkclipref>
							<mediatype>audio</mediatype>
							<trackindex>2</trackindex>
							<clipindex>3</clipindex>
							<groupindex>1</groupindex>
						</link>
						<logginginfo>
							<description />
							<scene />
							<shottake />
							<lognote />
							<good />
							<originalvideofilename />
							<originalaudiofilename />
						</logginginfo>
						<colorinfo>
							<lut />
							<lut1 />
							<asc_sop />
							<asc_sat />
							<lut2 />
						</colorinfo>
					<labels><label2>Caribbean</label2></labels></clipitem>
					<clipitem id="clipitem-87">
						<masterclipid>clipitem-3-53</masterclipid>
						<name>Taylor_Swift_Travis_Kelce_-_The_New_Power_Couple.mp4</name>
						<enabled>TRUE</enabled>
						<duration>150</duration>
						<rate>
							<timebase>25</timebase>
							<ntsc>FALSE</ntsc>
						</rate>
						<start>164400</start>
						<end>164550</end>
						<in>7800</in>
						<out>7950</out>
						<pproTicksIn>0</pproTicksIn>
						<pproTicksOut>875013995520000</pproTicksOut>
						<alphatype>none</alphatype>
						<pixelaspectratio>square</pixelaspectratio>
						<anamorphic>FALSE</anamorphic>
						<file id="file-31">
							<name>Taylor_Swift_Travis_Kelce_-_The_New_Power_Couple.mp4</name>
							<pathurl>file://localhost/Users/themalikano/Documents/VideoAutomation/premiere_videos/Taylor_Swift_Travis_Kelce_-_The_New_Power_Couple.mp4</pathurl>
							<rate>
								<timebase>25</timebase>
								<ntsc>FALSE</ntsc>
							</rate>
							<duration>86118</duration>
							<timecode>
								<rate>
									<timebase>25</timebase>
									<ntsc>FALSE</ntsc>
								</rate>
								<string>00:00:00:00</string>
								<frame>0</frame>
								<displayformat>NDF</displayformat>
							</timecode>
							<media>
								<video>
									<samplecharacteristics>
										<rate>
											<timebase>25</timebase>
											<ntsc>FALSE</ntsc>
										</rate>
										<width>1920</width>
										<height>1080</height>
										<anamorphic>FALSE</anamorphic>
										<pixelaspectratio>square</pixelaspectratio>
										<fielddominance>none</fielddominance>
									</samplecharacteristics>
								</video>
								<audio>
									<samplecharacteristics>
										<depth>16</depth>
										<samplerate>44100</samplerate>
									</samplecharacteristics>
									<channelcount>2</channelcount>
								</audio>
							</media>
						</file>
						<link>
							<linkclipref>clipitem-87</linkclipref>
							<mediatype>video</mediatype>
							<trackindex>1</trackindex>
							<clipindex>3</clipindex>
						</link>
						<link>
							<linkclipref>clipitem-95</linkclipref>
							<mediatype>audio</mediatype>
							<trackindex>1</trackindex>
							<clipindex>3</clipindex>
							<groupindex>1</groupindex>
						</link>
						<link>
							<linkclipref>clipitem-103</linkclipref>
							<mediatype>audio</mediatype>
							<trackindex>2</trackindex>
							<clipindex>3</clipindex>
							<groupindex>1</groupindex>
						</link>
						<logginginfo>
							<description />
							<scene />
							<shottake />
							<lognote />
							<good />
							<originalvideofilename />
							<originalaudiofilename />
						</logginginfo>
						<colorinfo>
							<lut />
							<lut1 />
							<asc_sop />
							<asc_sat />
							<lut2 />
						</colorinfo>
					<labels><label2>Caribbean</label2></labels></clipitem>
					<clipitem id="clipitem-87">
						<masterclipid>clipitem-3-263</masterclipid>
						<name>Taylor_Swift_Travis_Kelce_-_The_New_Power_Couple.mp4</name>
						<enabled>TRUE</enabled>
						<duration>150</duration>
						<rate>
							<timebase>25</timebase>
							<ntsc>FALSE</ntsc>
						</rate>
						<start>164550</start>
						<end>164700</end>
						<in>39300</in>
						<out>39450</out>
						<pproTicksIn>0</pproTicksIn>
						<pproTicksOut>875013995520000</pproTicksOut>
						<alphatype>none</alphatype>
						<pixelaspectratio>square</pixelaspectratio>
						<anamorphic>FALSE</anamorphic>
						<file id="file-31">
							<name>Taylor_Swift_Travis_Kelce_-_The_New_Power_Couple.mp4</name>
							<pathurl>file://localhost/Users/themalikano/Documents/VideoAutomation/premiere_videos/Taylor_Swift_Travis_Kelce_-_The_New_Power_Couple.mp4</pathurl>
							<rate>
								<timebase>25</timebase>
								<ntsc>FALSE</ntsc>
							</rate>
							<duration>86118</duration>
							<timecode>
								<rate>
									<timebase>25</timebase>
									<ntsc>FALSE</ntsc>
								</rate>
								<string>00:00:00:00</string>
								<frame>0</frame>
								<displayformat>NDF</displayformat>
							</timecode>
							<media>
								<video>
									<samplecharacteristics>
										<rate>
											<timebase>25</timebase>
											<ntsc>FALSE</ntsc>
										</rate>
										<width>1920</width>
										<height>1080</height>
										<anamorphic>FALSE</anamorphic>
										<pixelaspectratio>square</pixelaspectratio>
										<fielddominance>none</fielddominance>
									</samplecharacteristics>
								</video>
								<audio>
									<samplecharacteristics>
										<depth>16</depth>
										<samplerate>44100</samplerate>
									</samplecharacteristics>
									<channelcount>2</channelcount>
								</audio>
							</media>
						</file>
						<link>
							<linkclipref>clipitem-87</linkclipref>
							<mediatype>video</mediatype>
							<trackindex>1</trackindex>
							<clipindex>3</clipindex>
						</link>
						<link>
							<linkclipref>clipitem-95</linkclipref>
							<mediatype>audio</mediatype>
							<trackindex>1</trackindex>
							<clipindex>3</clipindex>
							<groupindex>1</groupindex>
						</link>
						<link>
							<linkclipref>clipitem-103</linkclipref>
							<mediatype>audio</mediatype>
							<trackindex>2</trackindex>
							<clipindex>3</clipindex>
							<groupindex>1</groupindex>
						</link>
						<logginginfo>
							<description />
							<scene />
							<shottake />
							<lognote />
							<good />
							<originalvideofilename />
							<originalaudiofilename />
						</logginginfo>
						<colorinfo>
							<lut />
							<lut1 />
							<asc_sop />
							<asc_sat />
							<lut2 />
						</colorinfo>
					<labels><label2>Caribbean</label2></labels></clipitem>
					<clipitem id="clipitem-87">
						<masterclipid>clipitem-3-100</masterclipid>
						<name>Taylor_Swift_Travis_Kelce_-_The_New_Power_Couple.mp4</name>
						<enabled>TRUE</enabled>
						<duration>150</duration>
						<rate>
							<timebase>25</timebase>
							<ntsc>FALSE</ntsc>
						</rate>
						<start>164700</start>
						<end>164850</end>
						<in>14850</in>
						<out>15000</out>
						<pproTicksIn>0</pproTicksIn>
						<pproTicksOut>875013995520000</pproTicksOut>
						<alphatype>none</alphatype>
						<pixelaspectratio>square</pixelaspectratio>
						<anamorphic>FALSE</anamorphic>
						<file id="file-31">
							<name>Taylor_Swift_Travis_Kelce_-_The_New_Power_Couple.mp4</name>
							<pathurl>file://localhost/Users/themalikano/Documents/VideoAutomation/premiere_videos/Taylor_Swift_Travis_Kelce_-_The_New_Power_Couple.mp4</pathurl>
							<rate>
								<timebase>25</timebase>
								<ntsc>FALSE</ntsc>
							</rate>
							<duration>86118</duration>
							<timecode>
								<rate>
									<timebase>25</timebase>
									<ntsc>FALSE</ntsc>
								</rate>
								<string>00:00:00:00</string>
								<frame>0</frame>
								<displayformat>NDF</displayformat>
							</timecode>
							<media>
								<video>
									<samplecharacteristics>
										<rate>
											<timebase>25</timebase>
											<ntsc>FALSE</ntsc>
										</rate>
										<width>1920</width>
										<height>1080</height>
										<anamorphic>FALSE</anamorphic>
										<pixelaspectratio>square</pixelaspectratio>
										<fielddominance>none</fielddominance>
									</samplecharacteristics>
								</video>
								<audio>
									<samplecharacteristics>
										<depth>16</depth>
										<samplerate>44100</samplerate>
									</samplecharacteristics>
									<channelcount>2</channelcount>
								</audio>
							</media>
						</file>
						<link>
							<linkclipref>clipitem-87</linkclipref>
							<mediatype>video</mediatype>
							<trackindex>1</trackindex>
							<clipindex>3</clipindex>
						</link>
						<link>
							<linkclipref>clipitem-95</linkclipref>
							<mediatype>audio</mediatype>
							<trackindex>1</trackindex>
							<clipindex>3</clipindex>
							<groupindex>1</groupindex>
						</link>
						<link>
							<linkclipref>clipitem-103</linkclipref>
							<mediatype>audio</mediatype>
							<trackindex>2</trackindex>
							<clipindex>3</clipindex>
							<groupindex>1</groupindex>
						</link>
						<logginginfo>
							<description />
							<scene />
							<shottake />
							<lognote />
							<good />
							<originalvideofilename />
							<originalaudiofilename />
						</logginginfo>
						<colorinfo>
							<lut />
							<lut1 />
							<asc_sop />
							<asc_sat />
							<lut2 />
						</colorinfo>
					<labels><label2>Caribbean</label2></labels></clipitem>
					<clipitem id="clipitem-87">
						<masterclipid>clipitem-3-433</masterclipid>
						<name>Taylor_Swift_Travis_Kelce_-_The_New_Power_Couple.mp4</name>
						<enabled>TRUE</enabled>
						<duration>150</duration>
						<rate>
							<timebase>25</timebase>
							<ntsc>FALSE</ntsc>
						</rate>
						<start>164850</start>
						<end>165000</end>
						<in>64800</in>
						<out>64950</out>
						<pproTicksIn>0</pproTicksIn>
						<pproTicksOut>875013995520000</pproTicksOut>
						<alphatype>none</alphatype>
						<pixelaspectratio>square</pixelaspectratio>
						<anamorphic>FALSE</anamorphic>
						<file id="file-31">
							<name>Taylor_Swift_Travis_Kelce_-_The_New_Power_Couple.mp4</name>
							<pathurl>file://localhost/Users/themalikano/Documents/VideoAutomation/premiere_videos/Taylor_Swift_Travis_Kelce_-_The_New_Power_Couple.mp4</pathurl>
							<rate>
								<timebase>25</timebase>
								<ntsc>FALSE</ntsc>
							</rate>
							<duration>86118</duration>
							<timecode>
								<rate>
									<timebase>25</timebase>
									<ntsc>FALSE</ntsc>
								</rate>
								<string>00:00:00:00</string>
								<frame>0</frame>
								<displayformat>NDF</displayformat>
							</timecode>
							<media>
								<video>
									<samplecharacteristics>
										<rate>
											<timebase>25</timebase>
											<ntsc>FALSE</ntsc>
										</rate>
										<width>1920</width>
										<height>1080</height>
										<anamorphic>FALSE</anamorphic>
										<pixelaspectratio>square</pixelaspectratio>
										<fielddominance>none</fielddominance>
									</samplecharacteristics>
								</video>
								<audio>
									<samplecharacteristics>
										<depth>16</depth>
										<samplerate>44100</samplerate>
									</samplecharacteristics>
									<channelcount>2</channelcount>
								</audio>
							</media>
						</file>
						<link>
							<linkclipref>clipitem-87</linkclipref>
							<mediatype>video</mediatype>
							<trackindex>1</trackindex>
							<clipindex>3</clipindex>
						</link>
						<link>
							<linkclipref>clipitem-95</linkclipref>
							<mediatype>audio</mediatype>
							<trackindex>1</trackindex>
							<clipindex>3</clipindex>
							<groupindex>1</groupindex>
						</link>
						<link>
							<linkclipref>clipitem-103</linkclipref>
							<mediatype>audio</mediatype>
							<trackindex>2</trackindex>
							<clipindex>3</clipindex>
							<groupindex>1</groupindex>
						</link>
						<logginginfo>
							<description />
							<scene />
							<shottake />
							<lognote />
							<good />
							<originalvideofilename />
							<originalaudiofilename />
						</logginginfo>
						<colorinfo>
							<lut />
							<lut1 />
							<asc_sop />
							<asc_sat />
							<lut2 />
						</colorinfo>
					<labels><label2>Caribbean</label2></labels></clipitem>
					<clipitem id="clipitem-87">
						<masterclipid>clipitem-3-242</masterclipid>
						<name>Taylor_Swift_Travis_Kelce_-_The_New_Power_Couple.mp4</name>
						<enabled>TRUE</enabled>
						<duration>150</duration>
						<rate>
							<timebase>25</timebase>
							<ntsc>FALSE</ntsc>
						</rate>
						<start>165000</start>
						<end>165150</end>
						<in>36150</in>
						<out>36300</out>
						<pproTicksIn>0</pproTicksIn>
						<pproTicksOut>875013995520000</pproTicksOut>
						<alphatype>none</alphatype>
						<pixelaspectratio>square</pixelaspectratio>
						<anamorphic>FALSE</anamorphic>
						<file id="file-31">
							<name>Taylor_Swift_Travis_Kelce_-_The_New_Power_Couple.mp4</name>
							<pathurl>file://localhost/Users/themalikano/Documents/VideoAutomation/premiere_videos/Taylor_Swift_Travis_Kelce_-_The_New_Power_Couple.mp4</pathurl>
							<rate>
								<timebase>25</timebase>
								<ntsc>FALSE</ntsc>
							</rate>
							<duration>86118</duration>
							<timecode>
								<rate>
									<timebase>25</timebase>
									<ntsc>FALSE</ntsc>
								</rate>
								<string>00:00:00:00</string>
								<frame>0</frame>
								<displayformat>NDF</displayformat>
							</timecode>
							<media>
								<video>
									<samplecharacteristics>
										<rate>
											<timebase>25</timebase>
											<ntsc>FALSE</ntsc>
										</rate>
										<width>1920</width>
										<height>1080</height>
										<anamorphic>FALSE</anamorphic>
										<pixelaspectratio>square</pixelaspectratio>
										<fielddominance>none</fielddominance>
									</samplecharacteristics>
								</video>
								<audio>
									<samplecharacteristics>
										<depth>16</depth>
										<samplerate>44100</samplerate>
									</samplecharacteristics>
									<channelcount>2</channelcount>
								</audio>
							</media>
						</file>
						<link>
							<linkclipref>clipitem-87</linkclipref>
							<mediatype>video</mediatype>
							<trackindex>1</trackindex>
							<clipindex>3</clipindex>
						</link>
						<link>
							<linkclipref>clipitem-95</linkclipref>
							<mediatype>audio</mediatype>
							<trackindex>1</trackindex>
							<clipindex>3</clipindex>
							<groupindex>1</groupindex>
						</link>
						<link>
							<linkclipref>clipitem-103</linkclipref>
							<mediatype>audio</mediatype>
							<trackindex>2</trackindex>
							<clipindex>3</clipindex>
							<groupindex>1</groupindex>
						</link>
						<logginginfo>
							<description />
							<scene />
							<shottake />
							<lognote />
							<good />
							<originalvideofilename />
							<originalaudiofilename />
						</logginginfo>
						<colorinfo>
							<lut />
							<lut1 />
							<asc_sop />
							<asc_sat />
							<lut2 />
						</colorinfo>
					<labels><label2>Caribbean</label2></labels></clipitem>
					<clipitem id="clipitem-87">
						<masterclipid>clipitem-3-419</masterclipid>
						<name>Taylor_Swift_Travis_Kelce_-_The_New_Power_Couple.mp4</name>
						<enabled>TRUE</enabled>
						<duration>150</duration>
						<rate>
							<timebase>25</timebase>
							<ntsc>FALSE</ntsc>
						</rate>
						<start>165150</start>
						<end>165300</end>
						<in>62700</in>
						<out>62850</out>
						<pproTicksIn>0</pproTicksIn>
						<pproTicksOut>875013995520000</pproTicksOut>
						<alphatype>none</alphatype>
						<pixelaspectratio>square</pixelaspectratio>
						<anamorphic>FALSE</anamorphic>
						<file id="file-31">
							<name>Taylor_Swift_Travis_Kelce_-_The_New_Power_Couple.mp4</name>
							<pathurl>file://localhost/Users/themalikano/Documents/VideoAutomation/premiere_videos/Taylor_Swift_Travis_Kelce_-_The_New_Power_Couple.mp4</pathurl>
							<rate>
								<timebase>25</timebase>
								<ntsc>FALSE</ntsc>
							</rate>
							<duration>86118</duration>
							<timecode>
								<rate>
									<timebase>25</timebase>
									<ntsc>FALSE</ntsc>
								</rate>
								<string>00:00:00:00</string>
								<frame>0</frame>
								<displayformat>NDF</displayformat>
							</timecode>
							<media>
								<video>
									<samplecharacteristics>
										<rate>
											<timebase>25</timebase>
											<ntsc>FALSE</ntsc>
										</rate>
										<width>1920</width>
										<height>1080</height>
										<anamorphic>FALSE</anamorphic>
										<pixelaspectratio>square</pixelaspectratio>
										<fielddominance>none</fielddominance>
									</samplecharacteristics>
								</video>
								<audio>
									<samplecharacteristics>
										<depth>16</depth>
										<samplerate>44100</samplerate>
									</samplecharacteristics>
									<channelcount>2</channelcount>
								</audio>
							</media>
						</file>
						<link>
							<linkclipref>clipitem-87</linkclipref>
							<mediatype>video</mediatype>
							<trackindex>1</trackindex>
							<clipindex>3</clipindex>
						</link>
						<link>
							<linkclipref>clipitem-95</linkclipref>
							<mediatype>audio</mediatype>
							<trackindex>1</trackindex>
							<clipindex>3</clipindex>
							<groupindex>1</groupindex>
						</link>
						<link>
							<linkclipref>clipitem-103</linkclipref>
							<mediatype>audio</mediatype>
							<trackindex>2</trackindex>
							<clipindex>3</clipindex>
							<groupindex>1</groupindex>
						</link>
						<logginginfo>
							<description />
							<scene />
							<shottake />
							<lognote />
							<good />
							<originalvideofilename />
							<originalaudiofilename />
						</logginginfo>
						<colorinfo>
							<lut />
							<lut1 />
							<asc_sop />
							<asc_sat />
							<lut2 />
						</colorinfo>
					<labels><label2>Caribbean</label2></labels></clipitem>
					<clipitem id="clipitem-87">
						<masterclipid>clipitem-3-119</masterclipid>
						<name>Taylor_Swift_Travis_Kelce_-_The_New_Power_Couple.mp4</name>
						<enabled>TRUE</enabled>
						<duration>150</duration>
						<rate>
							<timebase>25</timebase>
							<ntsc>FALSE</ntsc>
						</rate>
						<start>165300</start>
						<end>165450</end>
						<in>17700</in>
						<out>17850</out>
						<pproTicksIn>0</pproTicksIn>
						<pproTicksOut>875013995520000</pproTicksOut>
						<alphatype>none</alphatype>
						<pixelaspectratio>square</pixelaspectratio>
						<anamorphic>FALSE</anamorphic>
						<file id="file-31">
							<name>Taylor_Swift_Travis_Kelce_-_The_New_Power_Couple.mp4</name>
							<pathurl>file://localhost/Users/themalikano/Documents/VideoAutomation/premiere_videos/Taylor_Swift_Travis_Kelce_-_The_New_Power_Couple.mp4</pathurl>
							<rate>
								<timebase>25</timebase>
								<ntsc>FALSE</ntsc>
							</rate>
							<duration>86118</duration>
							<timecode>
								<rate>
									<timebase>25</timebase>
									<ntsc>FALSE</ntsc>
								</rate>
								<string>00:00:00:00</string>
								<frame>0</frame>
								<displayformat>NDF</displayformat>
							</timecode>
							<media>
								<video>
									<samplecharacteristics>
										<rate>
											<timebase>25</timebase>
											<ntsc>FALSE</ntsc>
										</rate>
										<width>1920</width>
										<height>1080</height>
										<anamorphic>FALSE</anamorphic>
										<pixelaspectratio>square</pixelaspectratio>
										<fielddominance>none</fielddominance>
									</samplecharacteristics>
								</video>
								<audio>
									<samplecharacteristics>
										<depth>16</depth>
										<samplerate>44100</samplerate>
									</samplecharacteristics>
									<channelcount>2</channelcount>
								</audio>
							</media>
						</file>
						<link>
							<linkclipref>clipitem-87</linkclipref>
							<mediatype>video</mediatype>
							<trackindex>1</trackindex>
							<clipindex>3</clipindex>
						</link>
						<link>
							<linkclipref>clipitem-95</linkclipref>
							<mediatype>audio</mediatype>
							<trackindex>1</trackindex>
							<clipindex>3</clipindex>
							<groupindex>1</groupindex>
						</link>
						<link>
							<linkclipref>clipitem-103</linkclipref>
							<mediatype>audio</mediatype>
							<trackindex>2</trackindex>
							<clipindex>3</clipindex>
							<groupindex>1</groupindex>
						</link>
						<logginginfo>
							<description />
							<scene />
							<shottake />
							<lognote />
							<good />
							<originalvideofilename />
							<originalaudiofilename />
						</logginginfo>
						<colorinfo>
							<lut />
							<lut1 />
							<asc_sop />
							<asc_sat />
							<lut2 />
						</colorinfo>
					<labels><label2>Caribbean</label2></labels></clipitem>
					<clipitem id="clipitem-87">
						<masterclipid>clipitem-3-521</masterclipid>
						<name>Taylor_Swift_Travis_Kelce_-_The_New_Power_Couple.mp4</name>
						<enabled>TRUE</enabled>
						<duration>150</duration>
						<rate>
							<timebase>25</timebase>
							<ntsc>FALSE</ntsc>
						</rate>
						<start>165450</start>
						<end>165600</end>
						<in>78000</in>
						<out>78150</out>
						<pproTicksIn>0</pproTicksIn>
						<pproTicksOut>875013995520000</pproTicksOut>
						<alphatype>none</alphatype>
						<pixelaspectratio>square</pixelaspectratio>
						<anamorphic>FALSE</anamorphic>
						<file id="file-31">
							<name>Taylor_Swift_Travis_Kelce_-_The_New_Power_Couple.mp4</name>
							<pathurl>file://localhost/Users/themalikano/Documents/VideoAutomation/premiere_videos/Taylor_Swift_Travis_Kelce_-_The_New_Power_Couple.mp4</pathurl>
							<rate>
								<timebase>25</timebase>
								<ntsc>FALSE</ntsc>
							</rate>
							<duration>86118</duration>
							<timecode>
								<rate>
									<timebase>25</timebase>
									<ntsc>FALSE</ntsc>
								</rate>
								<string>00:00:00:00</string>
								<frame>0</frame>
								<displayformat>NDF</displayformat>
							</timecode>
							<media>
								<video>
									<samplecharacteristics>
										<rate>
											<timebase>25</timebase>
											<ntsc>FALSE</ntsc>
										</rate>
										<width>1920</width>
										<height>1080</height>
										<anamorphic>FALSE</anamorphic>
										<pixelaspectratio>square</pixelaspectratio>
										<fielddominance>none</fielddominance>
									</samplecharacteristics>
								</video>
								<audio>
									<samplecharacteristics>
										<depth>16</depth>
										<samplerate>44100</samplerate>
									</samplecharacteristics>
									<channelcount>2</channelcount>
								</audio>
							</media>
						</file>
						<link>
							<linkclipref>clipitem-87</linkclipref>
							<mediatype>video</mediatype>
							<trackindex>1</trackindex>
							<clipindex>3</clipindex>
						</link>
						<link>
							<linkclipref>clipitem-95</linkclipref>
							<mediatype>audio</mediatype>
							<trackindex>1</trackindex>
							<clipindex>3</clipindex>
							<groupindex>1</groupindex>
						</link>
						<link>
							<linkclipref>clipitem-103</linkclipref>
							<mediatype>audio</mediatype>
							<trackindex>2</trackindex>
							<clipindex>3</clipindex>
							<groupindex>1</groupindex>
						</link>
						<logginginfo>
							<description />
							<scene />
							<shottake />
							<lognote />
							<good />
							<originalvideofilename />
							<originalaudiofilename />
						</logginginfo>
						<colorinfo>
							<lut />
							<lut1 />
							<asc_sop />
							<asc_sat />
							<lut2 />
						</colorinfo>
					<labels><label2>Caribbean</label2></labels></clipitem>
					<clipitem id="clipitem-87">
						<masterclipid>clipitem-3-66</masterclipid>
						<name>Taylor_Swift_Travis_Kelce_-_The_New_Power_Couple.mp4</name>
						<enabled>TRUE</enabled>
						<duration>150</duration>
						<rate>
							<timebase>25</timebase>
							<ntsc>FALSE</ntsc>
						</rate>
						<start>165600</start>
						<end>165750</end>
						<in>9750</in>
						<out>9900</out>
						<pproTicksIn>0</pproTicksIn>
						<pproTicksOut>875013995520000</pproTicksOut>
						<alphatype>none</alphatype>
						<pixelaspectratio>square</pixelaspectratio>
						<anamorphic>FALSE</anamorphic>
						<file id="file-31">
							<name>Taylor_Swift_Travis_Kelce_-_The_New_Power_Couple.mp4</name>
							<pathurl>file://localhost/Users/themalikano/Documents/VideoAutomation/premiere_videos/Taylor_Swift_Travis_Kelce_-_The_New_Power_Couple.mp4</pathurl>
							<rate>
								<timebase>25</timebase>
								<ntsc>FALSE</ntsc>
							</rate>
							<duration>86118</duration>
							<timecode>
								<rate>
									<timebase>25</timebase>
									<ntsc>FALSE</ntsc>
								</rate>
								<string>00:00:00:00</string>
								<frame>0</frame>
								<displayformat>NDF</displayformat>
							</timecode>
							<media>
								<video>
									<samplecharacteristics>
										<rate>
											<timebase>25</timebase>
											<ntsc>FALSE</ntsc>
										</rate>
										<width>1920</width>
										<height>1080</height>
										<anamorphic>FALSE</anamorphic>
										<pixelaspectratio>square</pixelaspectratio>
										<fielddominance>none</fielddominance>
									</samplecharacteristics>
								</video>
								<audio>
									<samplecharacteristics>
										<depth>16</depth>
										<samplerate>44100</samplerate>
									</samplecharacteristics>
									<channelcount>2</channelcount>
								</audio>
							</media>
						</file>
						<link>
							<linkclipref>clipitem-87</linkclipref>
							<mediatype>video</mediatype>
							<trackindex>1</trackindex>
							<clipindex>3</clipindex>
						</link>
						<link>
							<linkclipref>clipitem-95</linkclipref>
							<mediatype>audio</mediatype>
							<trackindex>1</trackindex>
							<clipindex>3</clipindex>
							<groupindex>1</groupindex>
						</link>
						<link>
							<linkclipref>clipitem-103</linkclipref>
							<mediatype>audio</mediatype>
							<trackindex>2</trackindex>
							<clipindex>3</clipindex>
							<groupindex>1</groupindex>
						</link>
						<logginginfo>
							<description />
							<scene />
							<shottake />
							<lognote />
							<good />
							<originalvideofilename />
							<originalaudiofilename />
						</logginginfo>
						<colorinfo>
							<lut />
							<lut1 />
							<asc_sop />
							<asc_sat />
							<lut2 />
						</colorinfo>
					<labels><label2>Caribbean</label2></labels></clipitem>
					<clipitem id="clipitem-87">
						<masterclipid>clipitem-3-37</masterclipid>
						<name>Taylor_Swift_Travis_Kelce_-_The_New_Power_Couple.mp4</name>
						<enabled>TRUE</enabled>
						<duration>150</duration>
						<rate>
							<timebase>25</timebase>
							<ntsc>FALSE</ntsc>
						</rate>
						<start>165750</start>
						<end>165900</end>
						<in>5400</in>
						<out>5550</out>
						<pproTicksIn>0</pproTicksIn>
						<pproTicksOut>875013995520000</pproTicksOut>
						<alphatype>none</alphatype>
						<pixelaspectratio>square</pixelaspectratio>
						<anamorphic>FALSE</anamorphic>
						<file id="file-31">
							<name>Taylor_Swift_Travis_Kelce_-_The_New_Power_Couple.mp4</name>
							<pathurl>file://localhost/Users/themalikano/Documents/VideoAutomation/premiere_videos/Taylor_Swift_Travis_Kelce_-_The_New_Power_Couple.mp4</pathurl>
							<rate>
								<timebase>25</timebase>
								<ntsc>FALSE</ntsc>
							</rate>
							<duration>86118</duration>
							<timecode>
								<rate>
									<timebase>25</timebase>
									<ntsc>FALSE</ntsc>
								</rate>
								<string>00:00:00:00</string>
								<frame>0</frame>
								<displayformat>NDF</displayformat>
							</timecode>
							<media>
								<video>
									<samplecharacteristics>
										<rate>
											<timebase>25</timebase>
											<ntsc>FALSE</ntsc>
										</rate>
										<width>1920</width>
										<height>1080</height>
										<anamorphic>FALSE</anamorphic>
										<pixelaspectratio>square</pixelaspectratio>
										<fielddominance>none</fielddominance>
									</samplecharacteristics>
								</video>
								<audio>
									<samplecharacteristics>
										<depth>16</depth>
										<samplerate>44100</samplerate>
									</samplecharacteristics>
									<channelcount>2</channelcount>
								</audio>
							</media>
						</file>
						<link>
							<linkclipref>clipitem-87</linkclipref>
							<mediatype>video</mediatype>
							<trackindex>1</trackindex>
							<clipindex>3</clipindex>
						</link>
						<link>
							<linkclipref>clipitem-95</linkclipref>
							<mediatype>audio</mediatype>
							<trackindex>1</trackindex>
							<clipindex>3</clipindex>
							<groupindex>1</groupindex>
						</link>
						<link>
							<linkclipref>clipitem-103</linkclipref>
							<mediatype>audio</mediatype>
							<trackindex>2</trackindex>
							<clipindex>3</clipindex>
							<groupindex>1</groupindex>
						</link>
						<logginginfo>
							<description />
							<scene />
							<shottake />
							<lognote />
							<good />
							<originalvideofilename />
							<originalaudiofilename />
						</logginginfo>
						<colorinfo>
							<lut />
							<lut1 />
							<asc_sop />
							<asc_sat />
							<lut2 />
						</colorinfo>
					<labels><label2>Caribbean</label2></labels></clipitem>
					<clipitem id="clipitem-87">
						<masterclipid>clipitem-3-134</masterclipid>
						<name>Taylor_Swift_Travis_Kelce_-_The_New_Power_Couple.mp4</name>
						<enabled>TRUE</enabled>
						<duration>150</duration>
						<rate>
							<timebase>25</timebase>
							<ntsc>FALSE</ntsc>
						</rate>
						<start>165900</start>
						<end>166050</end>
						<in>19950</in>
						<out>20100</out>
						<pproTicksIn>0</pproTicksIn>
						<pproTicksOut>875013995520000</pproTicksOut>
						<alphatype>none</alphatype>
						<pixelaspectratio>square</pixelaspectratio>
						<anamorphic>FALSE</anamorphic>
						<file id="file-31">
							<name>Taylor_Swift_Travis_Kelce_-_The_New_Power_Couple.mp4</name>
							<pathurl>file://localhost/Users/themalikano/Documents/VideoAutomation/premiere_videos/Taylor_Swift_Travis_Kelce_-_The_New_Power_Couple.mp4</pathurl>
							<rate>
								<timebase>25</timebase>
								<ntsc>FALSE</ntsc>
							</rate>
							<duration>86118</duration>
							<timecode>
								<rate>
									<timebase>25</timebase>
									<ntsc>FALSE</ntsc>
								</rate>
								<string>00:00:00:00</string>
								<frame>0</frame>
								<displayformat>NDF</displayformat>
							</timecode>
							<media>
								<video>
									<samplecharacteristics>
										<rate>
											<timebase>25</timebase>
											<ntsc>FALSE</ntsc>
										</rate>
										<width>1920</width>
										<height>1080</height>
										<anamorphic>FALSE</anamorphic>
										<pixelaspectratio>square</pixelaspectratio>
										<fielddominance>none</fielddominance>
									</samplecharacteristics>
								</video>
								<audio>
									<samplecharacteristics>
										<depth>16</depth>
										<samplerate>44100</samplerate>
									</samplecharacteristics>
									<channelcount>2</channelcount>
								</audio>
							</media>
						</file>
						<link>
							<linkclipref>clipitem-87</linkclipref>
							<mediatype>video</mediatype>
							<trackindex>1</trackindex>
							<clipindex>3</clipindex>
						</link>
						<link>
							<linkclipref>clipitem-95</linkclipref>
							<mediatype>audio</mediatype>
							<trackindex>1</trackindex>
							<clipindex>3</clipindex>
							<groupindex>1</groupindex>
						</link>
						<link>
							<linkclipref>clipitem-103</linkclipref>
							<mediatype>audio</mediatype>
							<trackindex>2</trackindex>
							<clipindex>3</clipindex>
							<groupindex>1</groupindex>
						</link>
						<logginginfo>
							<description />
							<scene />
							<shottake />
							<lognote />
							<good />
							<originalvideofilename />
							<originalaudiofilename />
						</logginginfo>
						<colorinfo>
							<lut />
							<lut1 />
							<asc_sop />
							<asc_sat />
							<lut2 />
						</colorinfo>
					<labels><label2>Caribbean</label2></labels></clipitem>
					<clipitem id="clipitem-87">
						<masterclipid>clipitem-3-91</masterclipid>
						<name>Taylor_Swift_Travis_Kelce_-_The_New_Power_Couple.mp4</name>
						<enabled>TRUE</enabled>
						<duration>150</duration>
						<rate>
							<timebase>25</timebase>
							<ntsc>FALSE</ntsc>
						</rate>
						<start>166050</start>
						<end>166200</end>
						<in>13500</in>
						<out>13650</out>
						<pproTicksIn>0</pproTicksIn>
						<pproTicksOut>875013995520000</pproTicksOut>
						<alphatype>none</alphatype>
						<pixelaspectratio>square</pixelaspectratio>
						<anamorphic>FALSE</anamorphic>
						<file id="file-31">
							<name>Taylor_Swift_Travis_Kelce_-_The_New_Power_Couple.mp4</name>
							<pathurl>file://localhost/Users/themalikano/Documents/VideoAutomation/premiere_videos/Taylor_Swift_Travis_Kelce_-_The_New_Power_Couple.mp4</pathurl>
							<rate>
								<timebase>25</timebase>
								<ntsc>FALSE</ntsc>
							</rate>
							<duration>86118</duration>
							<timecode>
								<rate>
									<timebase>25</timebase>
									<ntsc>FALSE</ntsc>
								</rate>
								<string>00:00:00:00</string>
								<frame>0</frame>
								<displayformat>NDF</displayformat>
							</timecode>
							<media>
								<video>
									<samplecharacteristics>
										<rate>
											<timebase>25</timebase>
											<ntsc>FALSE</ntsc>
										</rate>
										<width>1920</width>
										<height>1080</height>
										<anamorphic>FALSE</anamorphic>
										<pixelaspectratio>square</pixelaspectratio>
										<fielddominance>none</fielddominance>
									</samplecharacteristics>
								</video>
								<audio>
									<samplecharacteristics>
										<depth>16</depth>
										<samplerate>44100</samplerate>
									</samplecharacteristics>
									<channelcount>2</channelcount>
								</audio>
							</media>
						</file>
						<link>
							<linkclipref>clipitem-87</linkclipref>
							<mediatype>video</mediatype>
							<trackindex>1</trackindex>
							<clipindex>3</clipindex>
						</link>
						<link>
							<linkclipref>clipitem-95</linkclipref>
							<mediatype>audio</mediatype>
							<trackindex>1</trackindex>
							<clipindex>3</clipindex>
							<groupindex>1</groupindex>
						</link>
						<link>
							<linkclipref>clipitem-103</linkclipref>
							<mediatype>audio</mediatype>
							<trackindex>2</trackindex>
							<clipindex>3</clipindex>
							<groupindex>1</groupindex>
						</link>
						<logginginfo>
							<description />
							<scene />
							<shottake />
							<lognote />
							<good />
							<originalvideofilename />
							<originalaudiofilename />
						</logginginfo>
						<colorinfo>
							<lut />
							<lut1 />
							<asc_sop />
							<asc_sat />
							<lut2 />
						</colorinfo>
					<labels><label2>Caribbean</label2></labels></clipitem>
					<clipitem id="clipitem-87">
						<masterclipid>clipitem-3-455</masterclipid>
						<name>Taylor_Swift_Travis_Kelce_-_The_New_Power_Couple.mp4</name>
						<enabled>TRUE</enabled>
						<duration>150</duration>
						<rate>
							<timebase>25</timebase>
							<ntsc>FALSE</ntsc>
						</rate>
						<start>166200</start>
						<end>166350</end>
						<in>68100</in>
						<out>68250</out>
						<pproTicksIn>0</pproTicksIn>
						<pproTicksOut>875013995520000</pproTicksOut>
						<alphatype>none</alphatype>
						<pixelaspectratio>square</pixelaspectratio>
						<anamorphic>FALSE</anamorphic>
						<file id="file-31">
							<name>Taylor_Swift_Travis_Kelce_-_The_New_Power_Couple.mp4</name>
							<pathurl>file://localhost/Users/themalikano/Documents/VideoAutomation/premiere_videos/Taylor_Swift_Travis_Kelce_-_The_New_Power_Couple.mp4</pathurl>
							<rate>
								<timebase>25</timebase>
								<ntsc>FALSE</ntsc>
							</rate>
							<duration>86118</duration>
							<timecode>
								<rate>
									<timebase>25</timebase>
									<ntsc>FALSE</ntsc>
								</rate>
								<string>00:00:00:00</string>
								<frame>0</frame>
								<displayformat>NDF</displayformat>
							</timecode>
							<media>
								<video>
									<samplecharacteristics>
										<rate>
											<timebase>25</timebase>
											<ntsc>FALSE</ntsc>
										</rate>
										<width>1920</width>
										<height>1080</height>
										<anamorphic>FALSE</anamorphic>
										<pixelaspectratio>square</pixelaspectratio>
										<fielddominance>none</fielddominance>
									</samplecharacteristics>
								</video>
								<audio>
									<samplecharacteristics>
										<depth>16</depth>
										<samplerate>44100</samplerate>
									</samplecharacteristics>
									<channelcount>2</channelcount>
								</audio>
							</media>
						</file>
						<link>
							<linkclipref>clipitem-87</linkclipref>
							<mediatype>video</mediatype>
							<trackindex>1</trackindex>
							<clipindex>3</clipindex>
						</link>
						<link>
							<linkclipref>clipitem-95</linkclipref>
							<mediatype>audio</mediatype>
							<trackindex>1</trackindex>
							<clipindex>3</clipindex>
							<groupindex>1</groupindex>
						</link>
						<link>
							<linkclipref>clipitem-103</linkclipref>
							<mediatype>audio</mediatype>
							<trackindex>2</trackindex>
							<clipindex>3</clipindex>
							<groupindex>1</groupindex>
						</link>
						<logginginfo>
							<description />
							<scene />
							<shottake />
							<lognote />
							<good />
							<originalvideofilename />
							<originalaudiofilename />
						</logginginfo>
						<colorinfo>
							<lut />
							<lut1 />
							<asc_sop />
							<asc_sat />
							<lut2 />
						</colorinfo>
					<labels><label2>Caribbean</label2></labels></clipitem>
					<clipitem id="clipitem-87">
						<masterclipid>clipitem-3-341</masterclipid>
						<name>Taylor_Swift_Travis_Kelce_-_The_New_Power_Couple.mp4</name>
						<enabled>TRUE</enabled>
						<duration>150</duration>
						<rate>
							<timebase>25</timebase>
							<ntsc>FALSE</ntsc>
						</rate>
						<start>166350</start>
						<end>166500</end>
						<in>51000</in>
						<out>51150</out>
						<pproTicksIn>0</pproTicksIn>
						<pproTicksOut>875013995520000</pproTicksOut>
						<alphatype>none</alphatype>
						<pixelaspectratio>square</pixelaspectratio>
						<anamorphic>FALSE</anamorphic>
						<file id="file-31">
							<name>Taylor_Swift_Travis_Kelce_-_The_New_Power_Couple.mp4</name>
							<pathurl>file://localhost/Users/themalikano/Documents/VideoAutomation/premiere_videos/Taylor_Swift_Travis_Kelce_-_The_New_Power_Couple.mp4</pathurl>
							<rate>
								<timebase>25</timebase>
								<ntsc>FALSE</ntsc>
							</rate>
							<duration>86118</duration>
							<timecode>
								<rate>
									<timebase>25</timebase>
									<ntsc>FALSE</ntsc>
								</rate>
								<string>00:00:00:00</string>
								<frame>0</frame>
								<displayformat>NDF</displayformat>
							</timecode>
							<media>
								<video>
									<samplecharacteristics>
										<rate>
											<timebase>25</timebase>
											<ntsc>FALSE</ntsc>
										</rate>
										<width>1920</width>
										<height>1080</height>
										<anamorphic>FALSE</anamorphic>
										<pixelaspectratio>square</pixelaspectratio>
										<fielddominance>none</fielddominance>
									</samplecharacteristics>
								</video>
								<audio>
									<samplecharacteristics>
										<depth>16</depth>
										<samplerate>44100</samplerate>
									</samplecharacteristics>
									<channelcount>2</channelcount>
								</audio>
							</media>
						</file>
						<link>
							<linkclipref>clipitem-87</linkclipref>
							<mediatype>video</mediatype>
							<trackindex>1</trackindex>
							<clipindex>3</clipindex>
						</link>
						<link>
							<linkclipref>clipitem-95</linkclipref>
							<mediatype>audio</mediatype>
							<trackindex>1</trackindex>
							<clipindex>3</clipindex>
							<groupindex>1</groupindex>
						</link>
						<link>
							<linkclipref>clipitem-103</linkclipref>
							<mediatype>audio</mediatype>
							<trackindex>2</trackindex>
							<clipindex>3</clipindex>
							<groupindex>1</groupindex>
						</link>
						<logginginfo>
							<description />
							<scene />
							<shottake />
							<lognote />
							<good />
							<originalvideofilename />
							<originalaudiofilename />
						</logginginfo>
						<colorinfo>
							<lut />
							<lut1 />
							<asc_sop />
							<asc_sat />
							<lut2 />
						</colorinfo>
					<labels><label2>Caribbean</label2></labels></clipitem>
					<clipitem id="clipitem-87">
						<masterclipid>clipitem-3-293</masterclipid>
						<name>Taylor_Swift_Travis_Kelce_-_The_New_Power_Couple.mp4</name>
						<enabled>TRUE</enabled>
						<duration>150</duration>
						<rate>
							<timebase>25</timebase>
							<ntsc>FALSE</ntsc>
						</rate>
						<start>166500</start>
						<end>166650</end>
						<in>43800</in>
						<out>43950</out>
						<pproTicksIn>0</pproTicksIn>
						<pproTicksOut>875013995520000</pproTicksOut>
						<alphatype>none</alphatype>
						<pixelaspectratio>square</pixelaspectratio>
						<anamorphic>FALSE</anamorphic>
						<file id="file-31">
							<name>Taylor_Swift_Travis_Kelce_-_The_New_Power_Couple.mp4</name>
							<pathurl>file://localhost/Users/themalikano/Documents/VideoAutomation/premiere_videos/Taylor_Swift_Travis_Kelce_-_The_New_Power_Couple.mp4</pathurl>
							<rate>
								<timebase>25</timebase>
								<ntsc>FALSE</ntsc>
							</rate>
							<duration>86118</duration>
							<timecode>
								<rate>
									<timebase>25</timebase>
									<ntsc>FALSE</ntsc>
								</rate>
								<string>00:00:00:00</string>
								<frame>0</frame>
								<displayformat>NDF</displayformat>
							</timecode>
							<media>
								<video>
									<samplecharacteristics>
										<rate>
											<timebase>25</timebase>
											<ntsc>FALSE</ntsc>
										</rate>
										<width>1920</width>
										<height>1080</height>
										<anamorphic>FALSE</anamorphic>
										<pixelaspectratio>square</pixelaspectratio>
										<fielddominance>none</fielddominance>
									</samplecharacteristics>
								</video>
								<audio>
									<samplecharacteristics>
										<depth>16</depth>
										<samplerate>44100</samplerate>
									</samplecharacteristics>
									<channelcount>2</channelcount>
								</audio>
							</media>
						</file>
						<link>
							<linkclipref>clipitem-87</linkclipref>
							<mediatype>video</mediatype>
							<trackindex>1</trackindex>
							<clipindex>3</clipindex>
						</link>
						<link>
							<linkclipref>clipitem-95</linkclipref>
							<mediatype>audio</mediatype>
							<trackindex>1</trackindex>
							<clipindex>3</clipindex>
							<groupindex>1</groupindex>
						</link>
						<link>
							<linkclipref>clipitem-103</linkclipref>
							<mediatype>audio</mediatype>
							<trackindex>2</trackindex>
							<clipindex>3</clipindex>
							<groupindex>1</groupindex>
						</link>
						<logginginfo>
							<description />
							<scene />
							<shottake />
							<lognote />
							<good />
							<originalvideofilename />
							<originalaudiofilename />
						</logginginfo>
						<colorinfo>
							<lut />
							<lut1 />
							<asc_sop />
							<asc_sat />
							<lut2 />
						</colorinfo>
					<labels><label2>Caribbean</label2></labels></clipitem>
					<clipitem id="clipitem-87">
						<masterclipid>clipitem-3-44</masterclipid>
						<name>Taylor_Swift_Travis_Kelce_-_The_New_Power_Couple.mp4</name>
						<enabled>TRUE</enabled>
						<duration>150</duration>
						<rate>
							<timebase>25</timebase>
							<ntsc>FALSE</ntsc>
						</rate>
						<start>166650</start>
						<end>166800</end>
						<in>6450</in>
						<out>6600</out>
						<pproTicksIn>0</pproTicksIn>
						<pproTicksOut>875013995520000</pproTicksOut>
						<alphatype>none</alphatype>
						<pixelaspectratio>square</pixelaspectratio>
						<anamorphic>FALSE</anamorphic>
						<file id="file-31">
							<name>Taylor_Swift_Travis_Kelce_-_The_New_Power_Couple.mp4</name>
							<pathurl>file://localhost/Users/themalikano/Documents/VideoAutomation/premiere_videos/Taylor_Swift_Travis_Kelce_-_The_New_Power_Couple.mp4</pathurl>
							<rate>
								<timebase>25</timebase>
								<ntsc>FALSE</ntsc>
							</rate>
							<duration>86118</duration>
							<timecode>
								<rate>
									<timebase>25</timebase>
									<ntsc>FALSE</ntsc>
								</rate>
								<string>00:00:00:00</string>
								<frame>0</frame>
								<displayformat>NDF</displayformat>
							</timecode>
							<media>
								<video>
									<samplecharacteristics>
										<rate>
											<timebase>25</timebase>
											<ntsc>FALSE</ntsc>
										</rate>
										<width>1920</width>
										<height>1080</height>
										<anamorphic>FALSE</anamorphic>
										<pixelaspectratio>square</pixelaspectratio>
										<fielddominance>none</fielddominance>
									</samplecharacteristics>
								</video>
								<audio>
									<samplecharacteristics>
										<depth>16</depth>
										<samplerate>44100</samplerate>
									</samplecharacteristics>
									<channelcount>2</channelcount>
								</audio>
							</media>
						</file>
						<link>
							<linkclipref>clipitem-87</linkclipref>
							<mediatype>video</mediatype>
							<trackindex>1</trackindex>
							<clipindex>3</clipindex>
						</link>
						<link>
							<linkclipref>clipitem-95</linkclipref>
							<mediatype>audio</mediatype>
							<trackindex>1</trackindex>
							<clipindex>3</clipindex>
							<groupindex>1</groupindex>
						</link>
						<link>
							<linkclipref>clipitem-103</linkclipref>
							<mediatype>audio</mediatype>
							<trackindex>2</trackindex>
							<clipindex>3</clipindex>
							<groupindex>1</groupindex>
						</link>
						<logginginfo>
							<description />
							<scene />
							<shottake />
							<lognote />
							<good />
							<originalvideofilename />
							<originalaudiofilename />
						</logginginfo>
						<colorinfo>
							<lut />
							<lut1 />
							<asc_sop />
							<asc_sat />
							<lut2 />
						</colorinfo>
					<labels><label2>Caribbean</label2></labels></clipitem>
					<clipitem id="clipitem-87">
						<masterclipid>clipitem-3-182</masterclipid>
						<name>Taylor_Swift_Travis_Kelce_-_The_New_Power_Couple.mp4</name>
						<enabled>TRUE</enabled>
						<duration>150</duration>
						<rate>
							<timebase>25</timebase>
							<ntsc>FALSE</ntsc>
						</rate>
						<start>166800</start>
						<end>166950</end>
						<in>27150</in>
						<out>27300</out>
						<pproTicksIn>0</pproTicksIn>
						<pproTicksOut>875013995520000</pproTicksOut>
						<alphatype>none</alphatype>
						<pixelaspectratio>square</pixelaspectratio>
						<anamorphic>FALSE</anamorphic>
						<file id="file-31">
							<name>Taylor_Swift_Travis_Kelce_-_The_New_Power_Couple.mp4</name>
							<pathurl>file://localhost/Users/themalikano/Documents/VideoAutomation/premiere_videos/Taylor_Swift_Travis_Kelce_-_The_New_Power_Couple.mp4</pathurl>
							<rate>
								<timebase>25</timebase>
								<ntsc>FALSE</ntsc>
							</rate>
							<duration>86118</duration>
							<timecode>
								<rate>
									<timebase>25</timebase>
									<ntsc>FALSE</ntsc>
								</rate>
								<string>00:00:00:00</string>
								<frame>0</frame>
								<displayformat>NDF</displayformat>
							</timecode>
							<media>
								<video>
									<samplecharacteristics>
										<rate>
											<timebase>25</timebase>
											<ntsc>FALSE</ntsc>
										</rate>
										<width>1920</width>
										<height>1080</height>
										<anamorphic>FALSE</anamorphic>
										<pixelaspectratio>square</pixelaspectratio>
										<fielddominance>none</fielddominance>
									</samplecharacteristics>
								</video>
								<audio>
									<samplecharacteristics>
										<depth>16</depth>
										<samplerate>44100</samplerate>
									</samplecharacteristics>
									<channelcount>2</channelcount>
								</audio>
							</media>
						</file>
						<link>
							<linkclipref>clipitem-87</linkclipref>
							<mediatype>video</mediatype>
							<trackindex>1</trackindex>
							<clipindex>3</clipindex>
						</link>
						<link>
							<linkclipref>clipitem-95</linkclipref>
							<mediatype>audio</mediatype>
							<trackindex>1</trackindex>
							<clipindex>3</clipindex>
							<groupindex>1</groupindex>
						</link>
						<link>
							<linkclipref>clipitem-103</linkclipref>
							<mediatype>audio</mediatype>
							<trackindex>2</trackindex>
							<clipindex>3</clipindex>
							<groupindex>1</groupindex>
						</link>
						<logginginfo>
							<description />
							<scene />
							<shottake />
							<lognote />
							<good />
							<originalvideofilename />
							<originalaudiofilename />
						</logginginfo>
						<colorinfo>
							<lut />
							<lut1 />
							<asc_sop />
							<asc_sat />
							<lut2 />
						</colorinfo>
					<labels><label2>Caribbean</label2></labels></clipitem>
					<clipitem id="clipitem-87">
						<masterclipid>clipitem-3-354</masterclipid>
						<name>Taylor_Swift_Travis_Kelce_-_The_New_Power_Couple.mp4</name>
						<enabled>TRUE</enabled>
						<duration>150</duration>
						<rate>
							<timebase>25</timebase>
							<ntsc>FALSE</ntsc>
						</rate>
						<start>166950</start>
						<end>167100</end>
						<in>52950</in>
						<out>53100</out>
						<pproTicksIn>0</pproTicksIn>
						<pproTicksOut>875013995520000</pproTicksOut>
						<alphatype>none</alphatype>
						<pixelaspectratio>square</pixelaspectratio>
						<anamorphic>FALSE</anamorphic>
						<file id="file-31">
							<name>Taylor_Swift_Travis_Kelce_-_The_New_Power_Couple.mp4</name>
							<pathurl>file://localhost/Users/themalikano/Documents/VideoAutomation/premiere_videos/Taylor_Swift_Travis_Kelce_-_The_New_Power_Couple.mp4</pathurl>
							<rate>
								<timebase>25</timebase>
								<ntsc>FALSE</ntsc>
							</rate>
							<duration>86118</duration>
							<timecode>
								<rate>
									<timebase>25</timebase>
									<ntsc>FALSE</ntsc>
								</rate>
								<string>00:00:00:00</string>
								<frame>0</frame>
								<displayformat>NDF</displayformat>
							</timecode>
							<media>
								<video>
									<samplecharacteristics>
										<rate>
											<timebase>25</timebase>
											<ntsc>FALSE</ntsc>
										</rate>
										<width>1920</width>
										<height>1080</height>
										<anamorphic>FALSE</anamorphic>
										<pixelaspectratio>square</pixelaspectratio>
										<fielddominance>none</fielddominance>
									</samplecharacteristics>
								</video>
								<audio>
									<samplecharacteristics>
										<depth>16</depth>
										<samplerate>44100</samplerate>
									</samplecharacteristics>
									<channelcount>2</channelcount>
								</audio>
							</media>
						</file>
						<link>
							<linkclipref>clipitem-87</linkclipref>
							<mediatype>video</mediatype>
							<trackindex>1</trackindex>
							<clipindex>3</clipindex>
						</link>
						<link>
							<linkclipref>clipitem-95</linkclipref>
							<mediatype>audio</mediatype>
							<trackindex>1</trackindex>
							<clipindex>3</clipindex>
							<groupindex>1</groupindex>
						</link>
						<link>
							<linkclipref>clipitem-103</linkclipref>
							<mediatype>audio</mediatype>
							<trackindex>2</trackindex>
							<clipindex>3</clipindex>
							<groupindex>1</groupindex>
						</link>
						<logginginfo>
							<description />
							<scene />
							<shottake />
							<lognote />
							<good />
							<originalvideofilename />
							<originalaudiofilename />
						</logginginfo>
						<colorinfo>
							<lut />
							<lut1 />
							<asc_sop />
							<asc_sat />
							<lut2 />
						</colorinfo>
					<labels><label2>Caribbean</label2></labels></clipitem>
					<clipitem id="clipitem-87">
						<masterclipid>clipitem-3-445</masterclipid>
						<name>Taylor_Swift_Travis_Kelce_-_The_New_Power_Couple.mp4</name>
						<enabled>TRUE</enabled>
						<duration>150</duration>
						<rate>
							<timebase>25</timebase>
							<ntsc>FALSE</ntsc>
						</rate>
						<start>167100</start>
						<end>167250</end>
						<in>66600</in>
						<out>66750</out>
						<pproTicksIn>0</pproTicksIn>
						<pproTicksOut>875013995520000</pproTicksOut>
						<alphatype>none</alphatype>
						<pixelaspectratio>square</pixelaspectratio>
						<anamorphic>FALSE</anamorphic>
						<file id="file-31">
							<name>Taylor_Swift_Travis_Kelce_-_The_New_Power_Couple.mp4</name>
							<pathurl>file://localhost/Users/themalikano/Documents/VideoAutomation/premiere_videos/Taylor_Swift_Travis_Kelce_-_The_New_Power_Couple.mp4</pathurl>
							<rate>
								<timebase>25</timebase>
								<ntsc>FALSE</ntsc>
							</rate>
							<duration>86118</duration>
							<timecode>
								<rate>
									<timebase>25</timebase>
									<ntsc>FALSE</ntsc>
								</rate>
								<string>00:00:00:00</string>
								<frame>0</frame>
								<displayformat>NDF</displayformat>
							</timecode>
							<media>
								<video>
									<samplecharacteristics>
										<rate>
											<timebase>25</timebase>
											<ntsc>FALSE</ntsc>
										</rate>
										<width>1920</width>
										<height>1080</height>
										<anamorphic>FALSE</anamorphic>
										<pixelaspectratio>square</pixelaspectratio>
										<fielddominance>none</fielddominance>
									</samplecharacteristics>
								</video>
								<audio>
									<samplecharacteristics>
										<depth>16</depth>
										<samplerate>44100</samplerate>
									</samplecharacteristics>
									<channelcount>2</channelcount>
								</audio>
							</media>
						</file>
						<link>
							<linkclipref>clipitem-87</linkclipref>
							<mediatype>video</mediatype>
							<trackindex>1</trackindex>
							<clipindex>3</clipindex>
						</link>
						<link>
							<linkclipref>clipitem-95</linkclipref>
							<mediatype>audio</mediatype>
							<trackindex>1</trackindex>
							<clipindex>3</clipindex>
							<groupindex>1</groupindex>
						</link>
						<link>
							<linkclipref>clipitem-103</linkclipref>
							<mediatype>audio</mediatype>
							<trackindex>2</trackindex>
							<clipindex>3</clipindex>
							<groupindex>1</groupindex>
						</link>
						<logginginfo>
							<description />
							<scene />
							<shottake />
							<lognote />
							<good />
							<originalvideofilename />
							<originalaudiofilename />
						</logginginfo>
						<colorinfo>
							<lut />
							<lut1 />
							<asc_sop />
							<asc_sat />
							<lut2 />
						</colorinfo>
					<labels><label2>Caribbean</label2></labels></clipitem>
					<clipitem id="clipitem-87">
						<masterclipid>clipitem-3-70</masterclipid>
						<name>Taylor_Swift_Travis_Kelce_-_The_New_Power_Couple.mp4</name>
						<enabled>TRUE</enabled>
						<duration>150</duration>
						<rate>
							<timebase>25</timebase>
							<ntsc>FALSE</ntsc>
						</rate>
						<start>167250</start>
						<end>167400</end>
						<in>10350</in>
						<out>10500</out>
						<pproTicksIn>0</pproTicksIn>
						<pproTicksOut>875013995520000</pproTicksOut>
						<alphatype>none</alphatype>
						<pixelaspectratio>square</pixelaspectratio>
						<anamorphic>FALSE</anamorphic>
						<file id="file-31">
							<name>Taylor_Swift_Travis_Kelce_-_The_New_Power_Couple.mp4</name>
							<pathurl>file://localhost/Users/themalikano/Documents/VideoAutomation/premiere_videos/Taylor_Swift_Travis_Kelce_-_The_New_Power_Couple.mp4</pathurl>
							<rate>
								<timebase>25</timebase>
								<ntsc>FALSE</ntsc>
							</rate>
							<duration>86118</duration>
							<timecode>
								<rate>
									<timebase>25</timebase>
									<ntsc>FALSE</ntsc>
								</rate>
								<string>00:00:00:00</string>
								<frame>0</frame>
								<displayformat>NDF</displayformat>
							</timecode>
							<media>
								<video>
									<samplecharacteristics>
										<rate>
											<timebase>25</timebase>
											<ntsc>FALSE</ntsc>
										</rate>
										<width>1920</width>
										<height>1080</height>
										<anamorphic>FALSE</anamorphic>
										<pixelaspectratio>square</pixelaspectratio>
										<fielddominance>none</fielddominance>
									</samplecharacteristics>
								</video>
								<audio>
									<samplecharacteristics>
										<depth>16</depth>
										<samplerate>44100</samplerate>
									</samplecharacteristics>
									<channelcount>2</channelcount>
								</audio>
							</media>
						</file>
						<link>
							<linkclipref>clipitem-87</linkclipref>
							<mediatype>video</mediatype>
							<trackindex>1</trackindex>
							<clipindex>3</clipindex>
						</link>
						<link>
							<linkclipref>clipitem-95</linkclipref>
							<mediatype>audio</mediatype>
							<trackindex>1</trackindex>
							<clipindex>3</clipindex>
							<groupindex>1</groupindex>
						</link>
						<link>
							<linkclipref>clipitem-103</linkclipref>
							<mediatype>audio</mediatype>
							<trackindex>2</trackindex>
							<clipindex>3</clipindex>
							<groupindex>1</groupindex>
						</link>
						<logginginfo>
							<description />
							<scene />
							<shottake />
							<lognote />
							<good />
							<originalvideofilename />
							<originalaudiofilename />
						</logginginfo>
						<colorinfo>
							<lut />
							<lut1 />
							<asc_sop />
							<asc_sat />
							<lut2 />
						</colorinfo>
					<labels><label2>Caribbean</label2></labels></clipitem>
					<clipitem id="clipitem-87">
						<masterclipid>clipitem-3-157</masterclipid>
						<name>Taylor_Swift_Travis_Kelce_-_The_New_Power_Couple.mp4</name>
						<enabled>TRUE</enabled>
						<duration>150</duration>
						<rate>
							<timebase>25</timebase>
							<ntsc>FALSE</ntsc>
						</rate>
						<start>167400</start>
						<end>167550</end>
						<in>23400</in>
						<out>23550</out>
						<pproTicksIn>0</pproTicksIn>
						<pproTicksOut>875013995520000</pproTicksOut>
						<alphatype>none</alphatype>
						<pixelaspectratio>square</pixelaspectratio>
						<anamorphic>FALSE</anamorphic>
						<file id="file-31">
							<name>Taylor_Swift_Travis_Kelce_-_The_New_Power_Couple.mp4</name>
							<pathurl>file://localhost/Users/themalikano/Documents/VideoAutomation/premiere_videos/Taylor_Swift_Travis_Kelce_-_The_New_Power_Couple.mp4</pathurl>
							<rate>
								<timebase>25</timebase>
								<ntsc>FALSE</ntsc>
							</rate>
							<duration>86118</duration>
							<timecode>
								<rate>
									<timebase>25</timebase>
									<ntsc>FALSE</ntsc>
								</rate>
								<string>00:00:00:00</string>
								<frame>0</frame>
								<displayformat>NDF</displayformat>
							</timecode>
							<media>
								<video>
									<samplecharacteristics>
										<rate>
											<timebase>25</timebase>
											<ntsc>FALSE</ntsc>
										</rate>
										<width>1920</width>
										<height>1080</height>
										<anamorphic>FALSE</anamorphic>
										<pixelaspectratio>square</pixelaspectratio>
										<fielddominance>none</fielddominance>
									</samplecharacteristics>
								</video>
								<audio>
									<samplecharacteristics>
										<depth>16</depth>
										<samplerate>44100</samplerate>
									</samplecharacteristics>
									<channelcount>2</channelcount>
								</audio>
							</media>
						</file>
						<link>
							<linkclipref>clipitem-87</linkclipref>
							<mediatype>video</mediatype>
							<trackindex>1</trackindex>
							<clipindex>3</clipindex>
						</link>
						<link>
							<linkclipref>clipitem-95</linkclipref>
							<mediatype>audio</mediatype>
							<trackindex>1</trackindex>
							<clipindex>3</clipindex>
							<groupindex>1</groupindex>
						</link>
						<link>
							<linkclipref>clipitem-103</linkclipref>
							<mediatype>audio</mediatype>
							<trackindex>2</trackindex>
							<clipindex>3</clipindex>
							<groupindex>1</groupindex>
						</link>
						<logginginfo>
							<description />
							<scene />
							<shottake />
							<lognote />
							<good />
							<originalvideofilename />
							<originalaudiofilename />
						</logginginfo>
						<colorinfo>
							<lut />
							<lut1 />
							<asc_sop />
							<asc_sat />
							<lut2 />
						</colorinfo>
					<labels><label2>Caribbean</label2></labels></clipitem>
					<clipitem id="clipitem-87">
						<masterclipid>clipitem-3-3</masterclipid>
						<name>Taylor_Swift_Travis_Kelce_-_The_New_Power_Couple.mp4</name>
						<enabled>TRUE</enabled>
						<duration>150</duration>
						<rate>
							<timebase>25</timebase>
							<ntsc>FALSE</ntsc>
						</rate>
						<start>167550</start>
						<end>167700</end>
						<in>300</in>
						<out>450</out>
						<pproTicksIn>0</pproTicksIn>
						<pproTicksOut>875013995520000</pproTicksOut>
						<alphatype>none</alphatype>
						<pixelaspectratio>square</pixelaspectratio>
						<anamorphic>FALSE</anamorphic>
						<file id="file-31">
							<name>Taylor_Swift_Travis_Kelce_-_The_New_Power_Couple.mp4</name>
							<pathurl>file://localhost/Users/themalikano/Documents/VideoAutomation/premiere_videos/Taylor_Swift_Travis_Kelce_-_The_New_Power_Couple.mp4</pathurl>
							<rate>
								<timebase>25</timebase>
								<ntsc>FALSE</ntsc>
							</rate>
							<duration>86118</duration>
							<timecode>
								<rate>
									<timebase>25</timebase>
									<ntsc>FALSE</ntsc>
								</rate>
								<string>00:00:00:00</string>
								<frame>0</frame>
								<displayformat>NDF</displayformat>
							</timecode>
							<media>
								<video>
									<samplecharacteristics>
										<rate>
											<timebase>25</timebase>
											<ntsc>FALSE</ntsc>
										</rate>
										<width>1920</width>
										<height>1080</height>
										<anamorphic>FALSE</anamorphic>
										<pixelaspectratio>square</pixelaspectratio>
										<fielddominance>none</fielddominance>
									</samplecharacteristics>
								</video>
								<audio>
									<samplecharacteristics>
										<depth>16</depth>
										<samplerate>44100</samplerate>
									</samplecharacteristics>
									<channelcount>2</channelcount>
								</audio>
							</media>
						</file>
						<link>
							<linkclipref>clipitem-87</linkclipref>
							<mediatype>video</mediatype>
							<trackindex>1</trackindex>
							<clipindex>3</clipindex>
						</link>
						<link>
							<linkclipref>clipitem-95</linkclipref>
							<mediatype>audio</mediatype>
							<trackindex>1</trackindex>
							<clipindex>3</clipindex>
							<groupindex>1</groupindex>
						</link>
						<link>
							<linkclipref>clipitem-103</linkclipref>
							<mediatype>audio</mediatype>
							<trackindex>2</trackindex>
							<clipindex>3</clipindex>
							<groupindex>1</groupindex>
						</link>
						<logginginfo>
							<description />
							<scene />
							<shottake />
							<lognote />
							<good />
							<originalvideofilename />
							<originalaudiofilename />
						</logginginfo>
						<colorinfo>
							<lut />
							<lut1 />
							<asc_sop />
							<asc_sat />
							<lut2 />
						</colorinfo>
					<labels><label2>Caribbean</label2></labels></clipitem>
					<clipitem id="clipitem-87">
						<masterclipid>clipitem-3-78</masterclipid>
						<name>Taylor_Swift_Travis_Kelce_-_The_New_Power_Couple.mp4</name>
						<enabled>TRUE</enabled>
						<duration>150</duration>
						<rate>
							<timebase>25</timebase>
							<ntsc>FALSE</ntsc>
						</rate>
						<start>167700</start>
						<end>167850</end>
						<in>11550</in>
						<out>11700</out>
						<pproTicksIn>0</pproTicksIn>
						<pproTicksOut>875013995520000</pproTicksOut>
						<alphatype>none</alphatype>
						<pixelaspectratio>square</pixelaspectratio>
						<anamorphic>FALSE</anamorphic>
						<file id="file-31">
							<name>Taylor_Swift_Travis_Kelce_-_The_New_Power_Couple.mp4</name>
							<pathurl>file://localhost/Users/themalikano/Documents/VideoAutomation/premiere_videos/Taylor_Swift_Travis_Kelce_-_The_New_Power_Couple.mp4</pathurl>
							<rate>
								<timebase>25</timebase>
								<ntsc>FALSE</ntsc>
							</rate>
							<duration>86118</duration>
							<timecode>
								<rate>
									<timebase>25</timebase>
									<ntsc>FALSE</ntsc>
								</rate>
								<string>00:00:00:00</string>
								<frame>0</frame>
								<displayformat>NDF</displayformat>
							</timecode>
							<media>
								<video>
									<samplecharacteristics>
										<rate>
											<timebase>25</timebase>
											<ntsc>FALSE</ntsc>
										</rate>
										<width>1920</width>
										<height>1080</height>
										<anamorphic>FALSE</anamorphic>
										<pixelaspectratio>square</pixelaspectratio>
										<fielddominance>none</fielddominance>
									</samplecharacteristics>
								</video>
								<audio>
									<samplecharacteristics>
										<depth>16</depth>
										<samplerate>44100</samplerate>
									</samplecharacteristics>
									<channelcount>2</channelcount>
								</audio>
							</media>
						</file>
						<link>
							<linkclipref>clipitem-87</linkclipref>
							<mediatype>video</mediatype>
							<trackindex>1</trackindex>
							<clipindex>3</clipindex>
						</link>
						<link>
							<linkclipref>clipitem-95</linkclipref>
							<mediatype>audio</mediatype>
							<trackindex>1</trackindex>
							<clipindex>3</clipindex>
							<groupindex>1</groupindex>
						</link>
						<link>
							<linkclipref>clipitem-103</linkclipref>
							<mediatype>audio</mediatype>
							<trackindex>2</trackindex>
							<clipindex>3</clipindex>
							<groupindex>1</groupindex>
						</link>
						<logginginfo>
							<description />
							<scene />
							<shottake />
							<lognote />
							<good />
							<originalvideofilename />
							<originalaudiofilename />
						</logginginfo>
						<colorinfo>
							<lut />
							<lut1 />
							<asc_sop />
							<asc_sat />
							<lut2 />
						</colorinfo>
					<labels><label2>Caribbean</label2></labels></clipitem>
					<clipitem id="clipitem-87">
						<masterclipid>clipitem-3-258</masterclipid>
						<name>Taylor_Swift_Travis_Kelce_-_The_New_Power_Couple.mp4</name>
						<enabled>TRUE</enabled>
						<duration>150</duration>
						<rate>
							<timebase>25</timebase>
							<ntsc>FALSE</ntsc>
						</rate>
						<start>167850</start>
						<end>168000</end>
						<in>38550</in>
						<out>38700</out>
						<pproTicksIn>0</pproTicksIn>
						<pproTicksOut>875013995520000</pproTicksOut>
						<alphatype>none</alphatype>
						<pixelaspectratio>square</pixelaspectratio>
						<anamorphic>FALSE</anamorphic>
						<file id="file-31">
							<name>Taylor_Swift_Travis_Kelce_-_The_New_Power_Couple.mp4</name>
							<pathurl>file://localhost/Users/themalikano/Documents/VideoAutomation/premiere_videos/Taylor_Swift_Travis_Kelce_-_The_New_Power_Couple.mp4</pathurl>
							<rate>
								<timebase>25</timebase>
								<ntsc>FALSE</ntsc>
							</rate>
							<duration>86118</duration>
							<timecode>
								<rate>
									<timebase>25</timebase>
									<ntsc>FALSE</ntsc>
								</rate>
								<string>00:00:00:00</string>
								<frame>0</frame>
								<displayformat>NDF</displayformat>
							</timecode>
							<media>
								<video>
									<samplecharacteristics>
										<rate>
											<timebase>25</timebase>
											<ntsc>FALSE</ntsc>
										</rate>
										<width>1920</width>
										<height>1080</height>
										<anamorphic>FALSE</anamorphic>
										<pixelaspectratio>square</pixelaspectratio>
										<fielddominance>none</fielddominance>
									</samplecharacteristics>
								</video>
								<audio>
									<samplecharacteristics>
										<depth>16</depth>
										<samplerate>44100</samplerate>
									</samplecharacteristics>
									<channelcount>2</channelcount>
								</audio>
							</media>
						</file>
						<link>
							<linkclipref>clipitem-87</linkclipref>
							<mediatype>video</mediatype>
							<trackindex>1</trackindex>
							<clipindex>3</clipindex>
						</link>
						<link>
							<linkclipref>clipitem-95</linkclipref>
							<mediatype>audio</mediatype>
							<trackindex>1</trackindex>
							<clipindex>3</clipindex>
							<groupindex>1</groupindex>
						</link>
						<link>
							<linkclipref>clipitem-103</linkclipref>
							<mediatype>audio</mediatype>
							<trackindex>2</trackindex>
							<clipindex>3</clipindex>
							<groupindex>1</groupindex>
						</link>
						<logginginfo>
							<description />
							<scene />
							<shottake />
							<lognote />
							<good />
							<originalvideofilename />
							<originalaudiofilename />
						</logginginfo>
						<colorinfo>
							<lut />
							<lut1 />
							<asc_sop />
							<asc_sat />
							<lut2 />
						</colorinfo>
					<labels><label2>Caribbean</label2></labels></clipitem>
					<clipitem id="clipitem-87">
						<masterclipid>clipitem-3-261</masterclipid>
						<name>Taylor_Swift_Travis_Kelce_-_The_New_Power_Couple.mp4</name>
						<enabled>TRUE</enabled>
						<duration>150</duration>
						<rate>
							<timebase>25</timebase>
							<ntsc>FALSE</ntsc>
						</rate>
						<start>168000</start>
						<end>168150</end>
						<in>39000</in>
						<out>39150</out>
						<pproTicksIn>0</pproTicksIn>
						<pproTicksOut>875013995520000</pproTicksOut>
						<alphatype>none</alphatype>
						<pixelaspectratio>square</pixelaspectratio>
						<anamorphic>FALSE</anamorphic>
						<file id="file-31">
							<name>Taylor_Swift_Travis_Kelce_-_The_New_Power_Couple.mp4</name>
							<pathurl>file://localhost/Users/themalikano/Documents/VideoAutomation/premiere_videos/Taylor_Swift_Travis_Kelce_-_The_New_Power_Couple.mp4</pathurl>
							<rate>
								<timebase>25</timebase>
								<ntsc>FALSE</ntsc>
							</rate>
							<duration>86118</duration>
							<timecode>
								<rate>
									<timebase>25</timebase>
									<ntsc>FALSE</ntsc>
								</rate>
								<string>00:00:00:00</string>
								<frame>0</frame>
								<displayformat>NDF</displayformat>
							</timecode>
							<media>
								<video>
									<samplecharacteristics>
										<rate>
											<timebase>25</timebase>
											<ntsc>FALSE</ntsc>
										</rate>
										<width>1920</width>
										<height>1080</height>
										<anamorphic>FALSE</anamorphic>
										<pixelaspectratio>square</pixelaspectratio>
										<fielddominance>none</fielddominance>
									</samplecharacteristics>
								</video>
								<audio>
									<samplecharacteristics>
										<depth>16</depth>
										<samplerate>44100</samplerate>
									</samplecharacteristics>
									<channelcount>2</channelcount>
								</audio>
							</media>
						</file>
						<link>
							<linkclipref>clipitem-87</linkclipref>
							<mediatype>video</mediatype>
							<trackindex>1</trackindex>
							<clipindex>3</clipindex>
						</link>
						<link>
							<linkclipref>clipitem-95</linkclipref>
							<mediatype>audio</mediatype>
							<trackindex>1</trackindex>
							<clipindex>3</clipindex>
							<groupindex>1</groupindex>
						</link>
						<link>
							<linkclipref>clipitem-103</linkclipref>
							<mediatype>audio</mediatype>
							<trackindex>2</trackindex>
							<clipindex>3</clipindex>
							<groupindex>1</groupindex>
						</link>
						<logginginfo>
							<description />
							<scene />
							<shottake />
							<lognote />
							<good />
							<originalvideofilename />
							<originalaudiofilename />
						</logginginfo>
						<colorinfo>
							<lut />
							<lut1 />
							<asc_sop />
							<asc_sat />
							<lut2 />
						</colorinfo>
					<labels><label2>Caribbean</label2></labels></clipitem>
					<clipitem id="clipitem-87">
						<masterclipid>clipitem-3-63</masterclipid>
						<name>Taylor_Swift_Travis_Kelce_-_The_New_Power_Couple.mp4</name>
						<enabled>TRUE</enabled>
						<duration>150</duration>
						<rate>
							<timebase>25</timebase>
							<ntsc>FALSE</ntsc>
						</rate>
						<start>168150</start>
						<end>168300</end>
						<in>9300</in>
						<out>9450</out>
						<pproTicksIn>0</pproTicksIn>
						<pproTicksOut>875013995520000</pproTicksOut>
						<alphatype>none</alphatype>
						<pixelaspectratio>square</pixelaspectratio>
						<anamorphic>FALSE</anamorphic>
						<file id="file-31">
							<name>Taylor_Swift_Travis_Kelce_-_The_New_Power_Couple.mp4</name>
							<pathurl>file://localhost/Users/themalikano/Documents/VideoAutomation/premiere_videos/Taylor_Swift_Travis_Kelce_-_The_New_Power_Couple.mp4</pathurl>
							<rate>
								<timebase>25</timebase>
								<ntsc>FALSE</ntsc>
							</rate>
							<duration>86118</duration>
							<timecode>
								<rate>
									<timebase>25</timebase>
									<ntsc>FALSE</ntsc>
								</rate>
								<string>00:00:00:00</string>
								<frame>0</frame>
								<displayformat>NDF</displayformat>
							</timecode>
							<media>
								<video>
									<samplecharacteristics>
										<rate>
											<timebase>25</timebase>
											<ntsc>FALSE</ntsc>
										</rate>
										<width>1920</width>
										<height>1080</height>
										<anamorphic>FALSE</anamorphic>
										<pixelaspectratio>square</pixelaspectratio>
										<fielddominance>none</fielddominance>
									</samplecharacteristics>
								</video>
								<audio>
									<samplecharacteristics>
										<depth>16</depth>
										<samplerate>44100</samplerate>
									</samplecharacteristics>
									<channelcount>2</channelcount>
								</audio>
							</media>
						</file>
						<link>
							<linkclipref>clipitem-87</linkclipref>
							<mediatype>video</mediatype>
							<trackindex>1</trackindex>
							<clipindex>3</clipindex>
						</link>
						<link>
							<linkclipref>clipitem-95</linkclipref>
							<mediatype>audio</mediatype>
							<trackindex>1</trackindex>
							<clipindex>3</clipindex>
							<groupindex>1</groupindex>
						</link>
						<link>
							<linkclipref>clipitem-103</linkclipref>
							<mediatype>audio</mediatype>
							<trackindex>2</trackindex>
							<clipindex>3</clipindex>
							<groupindex>1</groupindex>
						</link>
						<logginginfo>
							<description />
							<scene />
							<shottake />
							<lognote />
							<good />
							<originalvideofilename />
							<originalaudiofilename />
						</logginginfo>
						<colorinfo>
							<lut />
							<lut1 />
							<asc_sop />
							<asc_sat />
							<lut2 />
						</colorinfo>
					<labels><label2>Caribbean</label2></labels></clipitem>
					<clipitem id="clipitem-87">
						<masterclipid>clipitem-3-454</masterclipid>
						<name>Taylor_Swift_Travis_Kelce_-_The_New_Power_Couple.mp4</name>
						<enabled>TRUE</enabled>
						<duration>150</duration>
						<rate>
							<timebase>25</timebase>
							<ntsc>FALSE</ntsc>
						</rate>
						<start>168300</start>
						<end>168450</end>
						<in>67950</in>
						<out>68100</out>
						<pproTicksIn>0</pproTicksIn>
						<pproTicksOut>875013995520000</pproTicksOut>
						<alphatype>none</alphatype>
						<pixelaspectratio>square</pixelaspectratio>
						<anamorphic>FALSE</anamorphic>
						<file id="file-31">
							<name>Taylor_Swift_Travis_Kelce_-_The_New_Power_Couple.mp4</name>
							<pathurl>file://localhost/Users/themalikano/Documents/VideoAutomation/premiere_videos/Taylor_Swift_Travis_Kelce_-_The_New_Power_Couple.mp4</pathurl>
							<rate>
								<timebase>25</timebase>
								<ntsc>FALSE</ntsc>
							</rate>
							<duration>86118</duration>
							<timecode>
								<rate>
									<timebase>25</timebase>
									<ntsc>FALSE</ntsc>
								</rate>
								<string>00:00:00:00</string>
								<frame>0</frame>
								<displayformat>NDF</displayformat>
							</timecode>
							<media>
								<video>
									<samplecharacteristics>
										<rate>
											<timebase>25</timebase>
											<ntsc>FALSE</ntsc>
										</rate>
										<width>1920</width>
										<height>1080</height>
										<anamorphic>FALSE</anamorphic>
										<pixelaspectratio>square</pixelaspectratio>
										<fielddominance>none</fielddominance>
									</samplecharacteristics>
								</video>
								<audio>
									<samplecharacteristics>
										<depth>16</depth>
										<samplerate>44100</samplerate>
									</samplecharacteristics>
									<channelcount>2</channelcount>
								</audio>
							</media>
						</file>
						<link>
							<linkclipref>clipitem-87</linkclipref>
							<mediatype>video</mediatype>
							<trackindex>1</trackindex>
							<clipindex>3</clipindex>
						</link>
						<link>
							<linkclipref>clipitem-95</linkclipref>
							<mediatype>audio</mediatype>
							<trackindex>1</trackindex>
							<clipindex>3</clipindex>
							<groupindex>1</groupindex>
						</link>
						<link>
							<linkclipref>clipitem-103</linkclipref>
							<mediatype>audio</mediatype>
							<trackindex>2</trackindex>
							<clipindex>3</clipindex>
							<groupindex>1</groupindex>
						</link>
						<logginginfo>
							<description />
							<scene />
							<shottake />
							<lognote />
							<good />
							<originalvideofilename />
							<originalaudiofilename />
						</logginginfo>
						<colorinfo>
							<lut />
							<lut1 />
							<asc_sop />
							<asc_sat />
							<lut2 />
						</colorinfo>
					<labels><label2>Caribbean</label2></labels></clipitem>
					<clipitem id="clipitem-87">
						<masterclipid>clipitem-3-99</masterclipid>
						<name>Taylor_Swift_Travis_Kelce_-_The_New_Power_Couple.mp4</name>
						<enabled>TRUE</enabled>
						<duration>150</duration>
						<rate>
							<timebase>25</timebase>
							<ntsc>FALSE</ntsc>
						</rate>
						<start>168450</start>
						<end>168600</end>
						<in>14700</in>
						<out>14850</out>
						<pproTicksIn>0</pproTicksIn>
						<pproTicksOut>875013995520000</pproTicksOut>
						<alphatype>none</alphatype>
						<pixelaspectratio>square</pixelaspectratio>
						<anamorphic>FALSE</anamorphic>
						<file id="file-31">
							<name>Taylor_Swift_Travis_Kelce_-_The_New_Power_Couple.mp4</name>
							<pathurl>file://localhost/Users/themalikano/Documents/VideoAutomation/premiere_videos/Taylor_Swift_Travis_Kelce_-_The_New_Power_Couple.mp4</pathurl>
							<rate>
								<timebase>25</timebase>
								<ntsc>FALSE</ntsc>
							</rate>
							<duration>86118</duration>
							<timecode>
								<rate>
									<timebase>25</timebase>
									<ntsc>FALSE</ntsc>
								</rate>
								<string>00:00:00:00</string>
								<frame>0</frame>
								<displayformat>NDF</displayformat>
							</timecode>
							<media>
								<video>
									<samplecharacteristics>
										<rate>
											<timebase>25</timebase>
											<ntsc>FALSE</ntsc>
										</rate>
										<width>1920</width>
										<height>1080</height>
										<anamorphic>FALSE</anamorphic>
										<pixelaspectratio>square</pixelaspectratio>
										<fielddominance>none</fielddominance>
									</samplecharacteristics>
								</video>
								<audio>
									<samplecharacteristics>
										<depth>16</depth>
										<samplerate>44100</samplerate>
									</samplecharacteristics>
									<channelcount>2</channelcount>
								</audio>
							</media>
						</file>
						<link>
							<linkclipref>clipitem-87</linkclipref>
							<mediatype>video</mediatype>
							<trackindex>1</trackindex>
							<clipindex>3</clipindex>
						</link>
						<link>
							<linkclipref>clipitem-95</linkclipref>
							<mediatype>audio</mediatype>
							<trackindex>1</trackindex>
							<clipindex>3</clipindex>
							<groupindex>1</groupindex>
						</link>
						<link>
							<linkclipref>clipitem-103</linkclipref>
							<mediatype>audio</mediatype>
							<trackindex>2</trackindex>
							<clipindex>3</clipindex>
							<groupindex>1</groupindex>
						</link>
						<logginginfo>
							<description />
							<scene />
							<shottake />
							<lognote />
							<good />
							<originalvideofilename />
							<originalaudiofilename />
						</logginginfo>
						<colorinfo>
							<lut />
							<lut1 />
							<asc_sop />
							<asc_sat />
							<lut2 />
						</colorinfo>
					<labels><label2>Caribbean</label2></labels></clipitem>
					<clipitem id="clipitem-87">
						<masterclipid>clipitem-3-503</masterclipid>
						<name>Taylor_Swift_Travis_Kelce_-_The_New_Power_Couple.mp4</name>
						<enabled>TRUE</enabled>
						<duration>150</duration>
						<rate>
							<timebase>25</timebase>
							<ntsc>FALSE</ntsc>
						</rate>
						<start>168600</start>
						<end>168750</end>
						<in>75300</in>
						<out>75450</out>
						<pproTicksIn>0</pproTicksIn>
						<pproTicksOut>875013995520000</pproTicksOut>
						<alphatype>none</alphatype>
						<pixelaspectratio>square</pixelaspectratio>
						<anamorphic>FALSE</anamorphic>
						<file id="file-31">
							<name>Taylor_Swift_Travis_Kelce_-_The_New_Power_Couple.mp4</name>
							<pathurl>file://localhost/Users/themalikano/Documents/VideoAutomation/premiere_videos/Taylor_Swift_Travis_Kelce_-_The_New_Power_Couple.mp4</pathurl>
							<rate>
								<timebase>25</timebase>
								<ntsc>FALSE</ntsc>
							</rate>
							<duration>86118</duration>
							<timecode>
								<rate>
									<timebase>25</timebase>
									<ntsc>FALSE</ntsc>
								</rate>
								<string>00:00:00:00</string>
								<frame>0</frame>
								<displayformat>NDF</displayformat>
							</timecode>
							<media>
								<video>
									<samplecharacteristics>
										<rate>
											<timebase>25</timebase>
											<ntsc>FALSE</ntsc>
										</rate>
										<width>1920</width>
										<height>1080</height>
										<anamorphic>FALSE</anamorphic>
										<pixelaspectratio>square</pixelaspectratio>
										<fielddominance>none</fielddominance>
									</samplecharacteristics>
								</video>
								<audio>
									<samplecharacteristics>
										<depth>16</depth>
										<samplerate>44100</samplerate>
									</samplecharacteristics>
									<channelcount>2</channelcount>
								</audio>
							</media>
						</file>
						<link>
							<linkclipref>clipitem-87</linkclipref>
							<mediatype>video</mediatype>
							<trackindex>1</trackindex>
							<clipindex>3</clipindex>
						</link>
						<link>
							<linkclipref>clipitem-95</linkclipref>
							<mediatype>audio</mediatype>
							<trackindex>1</trackindex>
							<clipindex>3</clipindex>
							<groupindex>1</groupindex>
						</link>
						<link>
							<linkclipref>clipitem-103</linkclipref>
							<mediatype>audio</mediatype>
							<trackindex>2</trackindex>
							<clipindex>3</clipindex>
							<groupindex>1</groupindex>
						</link>
						<logginginfo>
							<description />
							<scene />
							<shottake />
							<lognote />
							<good />
							<originalvideofilename />
							<originalaudiofilename />
						</logginginfo>
						<colorinfo>
							<lut />
							<lut1 />
							<asc_sop />
							<asc_sat />
							<lut2 />
						</colorinfo>
					<labels><label2>Caribbean</label2></labels></clipitem>
					<clipitem id="clipitem-87">
						<masterclipid>clipitem-3-349</masterclipid>
						<name>Taylor_Swift_Travis_Kelce_-_The_New_Power_Couple.mp4</name>
						<enabled>TRUE</enabled>
						<duration>150</duration>
						<rate>
							<timebase>25</timebase>
							<ntsc>FALSE</ntsc>
						</rate>
						<start>168750</start>
						<end>168900</end>
						<in>52200</in>
						<out>52350</out>
						<pproTicksIn>0</pproTicksIn>
						<pproTicksOut>875013995520000</pproTicksOut>
						<alphatype>none</alphatype>
						<pixelaspectratio>square</pixelaspectratio>
						<anamorphic>FALSE</anamorphic>
						<file id="file-31">
							<name>Taylor_Swift_Travis_Kelce_-_The_New_Power_Couple.mp4</name>
							<pathurl>file://localhost/Users/themalikano/Documents/VideoAutomation/premiere_videos/Taylor_Swift_Travis_Kelce_-_The_New_Power_Couple.mp4</pathurl>
							<rate>
								<timebase>25</timebase>
								<ntsc>FALSE</ntsc>
							</rate>
							<duration>86118</duration>
							<timecode>
								<rate>
									<timebase>25</timebase>
									<ntsc>FALSE</ntsc>
								</rate>
								<string>00:00:00:00</string>
								<frame>0</frame>
								<displayformat>NDF</displayformat>
							</timecode>
							<media>
								<video>
									<samplecharacteristics>
										<rate>
											<timebase>25</timebase>
											<ntsc>FALSE</ntsc>
										</rate>
										<width>1920</width>
										<height>1080</height>
										<anamorphic>FALSE</anamorphic>
										<pixelaspectratio>square</pixelaspectratio>
										<fielddominance>none</fielddominance>
									</samplecharacteristics>
								</video>
								<audio>
									<samplecharacteristics>
										<depth>16</depth>
										<samplerate>44100</samplerate>
									</samplecharacteristics>
									<channelcount>2</channelcount>
								</audio>
							</media>
						</file>
						<link>
							<linkclipref>clipitem-87</linkclipref>
							<mediatype>video</mediatype>
							<trackindex>1</trackindex>
							<clipindex>3</clipindex>
						</link>
						<link>
							<linkclipref>clipitem-95</linkclipref>
							<mediatype>audio</mediatype>
							<trackindex>1</trackindex>
							<clipindex>3</clipindex>
							<groupindex>1</groupindex>
						</link>
						<link>
							<linkclipref>clipitem-103</linkclipref>
							<mediatype>audio</mediatype>
							<trackindex>2</trackindex>
							<clipindex>3</clipindex>
							<groupindex>1</groupindex>
						</link>
						<logginginfo>
							<description />
							<scene />
							<shottake />
							<lognote />
							<good />
							<originalvideofilename />
							<originalaudiofilename />
						</logginginfo>
						<colorinfo>
							<lut />
							<lut1 />
							<asc_sop />
							<asc_sat />
							<lut2 />
						</colorinfo>
					<labels><label2>Caribbean</label2></labels></clipitem>
					<clipitem id="clipitem-87">
						<masterclipid>clipitem-3-439</masterclipid>
						<name>Taylor_Swift_Travis_Kelce_-_The_New_Power_Couple.mp4</name>
						<enabled>TRUE</enabled>
						<duration>150</duration>
						<rate>
							<timebase>25</timebase>
							<ntsc>FALSE</ntsc>
						</rate>
						<start>168900</start>
						<end>169050</end>
						<in>65700</in>
						<out>65850</out>
						<pproTicksIn>0</pproTicksIn>
						<pproTicksOut>875013995520000</pproTicksOut>
						<alphatype>none</alphatype>
						<pixelaspectratio>square</pixelaspectratio>
						<anamorphic>FALSE</anamorphic>
						<file id="file-31">
							<name>Taylor_Swift_Travis_Kelce_-_The_New_Power_Couple.mp4</name>
							<pathurl>file://localhost/Users/themalikano/Documents/VideoAutomation/premiere_videos/Taylor_Swift_Travis_Kelce_-_The_New_Power_Couple.mp4</pathurl>
							<rate>
								<timebase>25</timebase>
								<ntsc>FALSE</ntsc>
							</rate>
							<duration>86118</duration>
							<timecode>
								<rate>
									<timebase>25</timebase>
									<ntsc>FALSE</ntsc>
								</rate>
								<string>00:00:00:00</string>
								<frame>0</frame>
								<displayformat>NDF</displayformat>
							</timecode>
							<media>
								<video>
									<samplecharacteristics>
										<rate>
											<timebase>25</timebase>
											<ntsc>FALSE</ntsc>
										</rate>
										<width>1920</width>
										<height>1080</height>
										<anamorphic>FALSE</anamorphic>
										<pixelaspectratio>square</pixelaspectratio>
										<fielddominance>none</fielddominance>
									</samplecharacteristics>
								</video>
								<audio>
									<samplecharacteristics>
										<depth>16</depth>
										<samplerate>44100</samplerate>
									</samplecharacteristics>
									<channelcount>2</channelcount>
								</audio>
							</media>
						</file>
						<link>
							<linkclipref>clipitem-87</linkclipref>
							<mediatype>video</mediatype>
							<trackindex>1</trackindex>
							<clipindex>3</clipindex>
						</link>
						<link>
							<linkclipref>clipitem-95</linkclipref>
							<mediatype>audio</mediatype>
							<trackindex>1</trackindex>
							<clipindex>3</clipindex>
							<groupindex>1</groupindex>
						</link>
						<link>
							<linkclipref>clipitem-103</linkclipref>
							<mediatype>audio</mediatype>
							<trackindex>2</trackindex>
							<clipindex>3</clipindex>
							<groupindex>1</groupindex>
						</link>
						<logginginfo>
							<description />
							<scene />
							<shottake />
							<lognote />
							<good />
							<originalvideofilename />
							<originalaudiofilename />
						</logginginfo>
						<colorinfo>
							<lut />
							<lut1 />
							<asc_sop />
							<asc_sat />
							<lut2 />
						</colorinfo>
					<labels><label2>Caribbean</label2></labels></clipitem>
					<clipitem id="clipitem-87">
						<masterclipid>clipitem-3-60</masterclipid>
						<name>Taylor_Swift_Travis_Kelce_-_The_New_Power_Couple.mp4</name>
						<enabled>TRUE</enabled>
						<duration>150</duration>
						<rate>
							<timebase>25</timebase>
							<ntsc>FALSE</ntsc>
						</rate>
						<start>169050</start>
						<end>169200</end>
						<in>8850</in>
						<out>9000</out>
						<pproTicksIn>0</pproTicksIn>
						<pproTicksOut>875013995520000</pproTicksOut>
						<alphatype>none</alphatype>
						<pixelaspectratio>square</pixelaspectratio>
						<anamorphic>FALSE</anamorphic>
						<file id="file-31">
							<name>Taylor_Swift_Travis_Kelce_-_The_New_Power_Couple.mp4</name>
							<pathurl>file://localhost/Users/themalikano/Documents/VideoAutomation/premiere_videos/Taylor_Swift_Travis_Kelce_-_The_New_Power_Couple.mp4</pathurl>
							<rate>
								<timebase>25</timebase>
								<ntsc>FALSE</ntsc>
							</rate>
							<duration>86118</duration>
							<timecode>
								<rate>
									<timebase>25</timebase>
									<ntsc>FALSE</ntsc>
								</rate>
								<string>00:00:00:00</string>
								<frame>0</frame>
								<displayformat>NDF</displayformat>
							</timecode>
							<media>
								<video>
									<samplecharacteristics>
										<rate>
											<timebase>25</timebase>
											<ntsc>FALSE</ntsc>
										</rate>
										<width>1920</width>
										<height>1080</height>
										<anamorphic>FALSE</anamorphic>
										<pixelaspectratio>square</pixelaspectratio>
										<fielddominance>none</fielddominance>
									</samplecharacteristics>
								</video>
								<audio>
									<samplecharacteristics>
										<depth>16</depth>
										<samplerate>44100</samplerate>
									</samplecharacteristics>
									<channelcount>2</channelcount>
								</audio>
							</media>
						</file>
						<link>
							<linkclipref>clipitem-87</linkclipref>
							<mediatype>video</mediatype>
							<trackindex>1</trackindex>
							<clipindex>3</clipindex>
						</link>
						<link>
							<linkclipref>clipitem-95</linkclipref>
							<mediatype>audio</mediatype>
							<trackindex>1</trackindex>
							<clipindex>3</clipindex>
							<groupindex>1</groupindex>
						</link>
						<link>
							<linkclipref>clipitem-103</linkclipref>
							<mediatype>audio</mediatype>
							<trackindex>2</trackindex>
							<clipindex>3</clipindex>
							<groupindex>1</groupindex>
						</link>
						<logginginfo>
							<description />
							<scene />
							<shottake />
							<lognote />
							<good />
							<originalvideofilename />
							<originalaudiofilename />
						</logginginfo>
						<colorinfo>
							<lut />
							<lut1 />
							<asc_sop />
							<asc_sat />
							<lut2 />
						</colorinfo>
					<labels><label2>Caribbean</label2></labels></clipitem>
					<clipitem id="clipitem-87">
						<masterclipid>clipitem-3-175</masterclipid>
						<name>Taylor_Swift_Travis_Kelce_-_The_New_Power_Couple.mp4</name>
						<enabled>TRUE</enabled>
						<duration>150</duration>
						<rate>
							<timebase>25</timebase>
							<ntsc>FALSE</ntsc>
						</rate>
						<start>169200</start>
						<end>169350</end>
						<in>26100</in>
						<out>26250</out>
						<pproTicksIn>0</pproTicksIn>
						<pproTicksOut>875013995520000</pproTicksOut>
						<alphatype>none</alphatype>
						<pixelaspectratio>square</pixelaspectratio>
						<anamorphic>FALSE</anamorphic>
						<file id="file-31">
							<name>Taylor_Swift_Travis_Kelce_-_The_New_Power_Couple.mp4</name>
							<pathurl>file://localhost/Users/themalikano/Documents/VideoAutomation/premiere_videos/Taylor_Swift_Travis_Kelce_-_The_New_Power_Couple.mp4</pathurl>
							<rate>
								<timebase>25</timebase>
								<ntsc>FALSE</ntsc>
							</rate>
							<duration>86118</duration>
							<timecode>
								<rate>
									<timebase>25</timebase>
									<ntsc>FALSE</ntsc>
								</rate>
								<string>00:00:00:00</string>
								<frame>0</frame>
								<displayformat>NDF</displayformat>
							</timecode>
							<media>
								<video>
									<samplecharacteristics>
										<rate>
											<timebase>25</timebase>
											<ntsc>FALSE</ntsc>
										</rate>
										<width>1920</width>
										<height>1080</height>
										<anamorphic>FALSE</anamorphic>
										<pixelaspectratio>square</pixelaspectratio>
										<fielddominance>none</fielddominance>
									</samplecharacteristics>
								</video>
								<audio>
									<samplecharacteristics>
										<depth>16</depth>
										<samplerate>44100</samplerate>
									</samplecharacteristics>
									<channelcount>2</channelcount>
								</audio>
							</media>
						</file>
						<link>
							<linkclipref>clipitem-87</linkclipref>
							<mediatype>video</mediatype>
							<trackindex>1</trackindex>
							<clipindex>3</clipindex>
						</link>
						<link>
							<linkclipref>clipitem-95</linkclipref>
							<mediatype>audio</mediatype>
							<trackindex>1</trackindex>
							<clipindex>3</clipindex>
							<groupindex>1</groupindex>
						</link>
						<link>
							<linkclipref>clipitem-103</linkclipref>
							<mediatype>audio</mediatype>
							<trackindex>2</trackindex>
							<clipindex>3</clipindex>
							<groupindex>1</groupindex>
						</link>
						<logginginfo>
							<description />
							<scene />
							<shottake />
							<lognote />
							<good />
							<originalvideofilename />
							<originalaudiofilename />
						</logginginfo>
						<colorinfo>
							<lut />
							<lut1 />
							<asc_sop />
							<asc_sat />
							<lut2 />
						</colorinfo>
					<labels><label2>Caribbean</label2></labels></clipitem>
					<clipitem id="clipitem-87">
						<masterclipid>clipitem-3-469</masterclipid>
						<name>Taylor_Swift_Travis_Kelce_-_The_New_Power_Couple.mp4</name>
						<enabled>TRUE</enabled>
						<duration>150</duration>
						<rate>
							<timebase>25</timebase>
							<ntsc>FALSE</ntsc>
						</rate>
						<start>169350</start>
						<end>169500</end>
						<in>70200</in>
						<out>70350</out>
						<pproTicksIn>0</pproTicksIn>
						<pproTicksOut>875013995520000</pproTicksOut>
						<alphatype>none</alphatype>
						<pixelaspectratio>square</pixelaspectratio>
						<anamorphic>FALSE</anamorphic>
						<file id="file-31">
							<name>Taylor_Swift_Travis_Kelce_-_The_New_Power_Couple.mp4</name>
							<pathurl>file://localhost/Users/themalikano/Documents/VideoAutomation/premiere_videos/Taylor_Swift_Travis_Kelce_-_The_New_Power_Couple.mp4</pathurl>
							<rate>
								<timebase>25</timebase>
								<ntsc>FALSE</ntsc>
							</rate>
							<duration>86118</duration>
							<timecode>
								<rate>
									<timebase>25</timebase>
									<ntsc>FALSE</ntsc>
								</rate>
								<string>00:00:00:00</string>
								<frame>0</frame>
								<displayformat>NDF</displayformat>
							</timecode>
							<media>
								<video>
									<samplecharacteristics>
										<rate>
											<timebase>25</timebase>
											<ntsc>FALSE</ntsc>
										</rate>
										<width>1920</width>
										<height>1080</height>
										<anamorphic>FALSE</anamorphic>
										<pixelaspectratio>square</pixelaspectratio>
										<fielddominance>none</fielddominance>
									</samplecharacteristics>
								</video>
								<audio>
									<samplecharacteristics>
										<depth>16</depth>
										<samplerate>44100</samplerate>
									</samplecharacteristics>
									<channelcount>2</channelcount>
								</audio>
							</media>
						</file>
						<link>
							<linkclipref>clipitem-87</linkclipref>
							<mediatype>video</mediatype>
							<trackindex>1</trackindex>
							<clipindex>3</clipindex>
						</link>
						<link>
							<linkclipref>clipitem-95</linkclipref>
							<mediatype>audio</mediatype>
							<trackindex>1</trackindex>
							<clipindex>3</clipindex>
							<groupindex>1</groupindex>
						</link>
						<link>
							<linkclipref>clipitem-103</linkclipref>
							<mediatype>audio</mediatype>
							<trackindex>2</trackindex>
							<clipindex>3</clipindex>
							<groupindex>1</groupindex>
						</link>
						<logginginfo>
							<description />
							<scene />
							<shottake />
							<lognote />
							<good />
							<originalvideofilename />
							<originalaudiofilename />
						</logginginfo>
						<colorinfo>
							<lut />
							<lut1 />
							<asc_sop />
							<asc_sat />
							<lut2 />
						</colorinfo>
					<labels><label2>Caribbean</label2></labels></clipitem>
					<clipitem id="clipitem-87">
						<masterclipid>clipitem-3-558</masterclipid>
						<name>Taylor_Swift_Travis_Kelce_-_The_New_Power_Couple.mp4</name>
						<enabled>TRUE</enabled>
						<duration>150</duration>
						<rate>
							<timebase>25</timebase>
							<ntsc>FALSE</ntsc>
						</rate>
						<start>169500</start>
						<end>169650</end>
						<in>83550</in>
						<out>83700</out>
						<pproTicksIn>0</pproTicksIn>
						<pproTicksOut>875013995520000</pproTicksOut>
						<alphatype>none</alphatype>
						<pixelaspectratio>square</pixelaspectratio>
						<anamorphic>FALSE</anamorphic>
						<file id="file-31">
							<name>Taylor_Swift_Travis_Kelce_-_The_New_Power_Couple.mp4</name>
							<pathurl>file://localhost/Users/themalikano/Documents/VideoAutomation/premiere_videos/Taylor_Swift_Travis_Kelce_-_The_New_Power_Couple.mp4</pathurl>
							<rate>
								<timebase>25</timebase>
								<ntsc>FALSE</ntsc>
							</rate>
							<duration>86118</duration>
							<timecode>
								<rate>
									<timebase>25</timebase>
									<ntsc>FALSE</ntsc>
								</rate>
								<string>00:00:00:00</string>
								<frame>0</frame>
								<displayformat>NDF</displayformat>
							</timecode>
							<media>
								<video>
									<samplecharacteristics>
										<rate>
											<timebase>25</timebase>
											<ntsc>FALSE</ntsc>
										</rate>
										<width>1920</width>
										<height>1080</height>
										<anamorphic>FALSE</anamorphic>
										<pixelaspectratio>square</pixelaspectratio>
										<fielddominance>none</fielddominance>
									</samplecharacteristics>
								</video>
								<audio>
									<samplecharacteristics>
										<depth>16</depth>
										<samplerate>44100</samplerate>
									</samplecharacteristics>
									<channelcount>2</channelcount>
								</audio>
							</media>
						</file>
						<link>
							<linkclipref>clipitem-87</linkclipref>
							<mediatype>video</mediatype>
							<trackindex>1</trackindex>
							<clipindex>3</clipindex>
						</link>
						<link>
							<linkclipref>clipitem-95</linkclipref>
							<mediatype>audio</mediatype>
							<trackindex>1</trackindex>
							<clipindex>3</clipindex>
							<groupindex>1</groupindex>
						</link>
						<link>
							<linkclipref>clipitem-103</linkclipref>
							<mediatype>audio</mediatype>
							<trackindex>2</trackindex>
							<clipindex>3</clipindex>
							<groupindex>1</groupindex>
						</link>
						<logginginfo>
							<description />
							<scene />
							<shottake />
							<lognote />
							<good />
							<originalvideofilename />
							<originalaudiofilename />
						</logginginfo>
						<colorinfo>
							<lut />
							<lut1 />
							<asc_sop />
							<asc_sat />
							<lut2 />
						</colorinfo>
					<labels><label2>Caribbean</label2></labels></clipitem>
					<clipitem id="clipitem-87">
						<masterclipid>clipitem-3-262</masterclipid>
						<name>Taylor_Swift_Travis_Kelce_-_The_New_Power_Couple.mp4</name>
						<enabled>TRUE</enabled>
						<duration>150</duration>
						<rate>
							<timebase>25</timebase>
							<ntsc>FALSE</ntsc>
						</rate>
						<start>169650</start>
						<end>169800</end>
						<in>39150</in>
						<out>39300</out>
						<pproTicksIn>0</pproTicksIn>
						<pproTicksOut>875013995520000</pproTicksOut>
						<alphatype>none</alphatype>
						<pixelaspectratio>square</pixelaspectratio>
						<anamorphic>FALSE</anamorphic>
						<file id="file-31">
							<name>Taylor_Swift_Travis_Kelce_-_The_New_Power_Couple.mp4</name>
							<pathurl>file://localhost/Users/themalikano/Documents/VideoAutomation/premiere_videos/Taylor_Swift_Travis_Kelce_-_The_New_Power_Couple.mp4</pathurl>
							<rate>
								<timebase>25</timebase>
								<ntsc>FALSE</ntsc>
							</rate>
							<duration>86118</duration>
							<timecode>
								<rate>
									<timebase>25</timebase>
									<ntsc>FALSE</ntsc>
								</rate>
								<string>00:00:00:00</string>
								<frame>0</frame>
								<displayformat>NDF</displayformat>
							</timecode>
							<media>
								<video>
									<samplecharacteristics>
										<rate>
											<timebase>25</timebase>
											<ntsc>FALSE</ntsc>
										</rate>
										<width>1920</width>
										<height>1080</height>
										<anamorphic>FALSE</anamorphic>
										<pixelaspectratio>square</pixelaspectratio>
										<fielddominance>none</fielddominance>
									</samplecharacteristics>
								</video>
								<audio>
									<samplecharacteristics>
										<depth>16</depth>
										<samplerate>44100</samplerate>
									</samplecharacteristics>
									<channelcount>2</channelcount>
								</audio>
							</media>
						</file>
						<link>
							<linkclipref>clipitem-87</linkclipref>
							<mediatype>video</mediatype>
							<trackindex>1</trackindex>
							<clipindex>3</clipindex>
						</link>
						<link>
							<linkclipref>clipitem-95</linkclipref>
							<mediatype>audio</mediatype>
							<trackindex>1</trackindex>
							<clipindex>3</clipindex>
							<groupindex>1</groupindex>
						</link>
						<link>
							<linkclipref>clipitem-103</linkclipref>
							<mediatype>audio</mediatype>
							<trackindex>2</trackindex>
							<clipindex>3</clipindex>
							<groupindex>1</groupindex>
						</link>
						<logginginfo>
							<description />
							<scene />
							<shottake />
							<lognote />
							<good />
							<originalvideofilename />
							<originalaudiofilename />
						</logginginfo>
						<colorinfo>
							<lut />
							<lut1 />
							<asc_sop />
							<asc_sat />
							<lut2 />
						</colorinfo>
					<labels><label2>Caribbean</label2></labels></clipitem>
					<clipitem id="clipitem-87">
						<masterclipid>clipitem-3-152</masterclipid>
						<name>Taylor_Swift_Travis_Kelce_-_The_New_Power_Couple.mp4</name>
						<enabled>TRUE</enabled>
						<duration>150</duration>
						<rate>
							<timebase>25</timebase>
							<ntsc>FALSE</ntsc>
						</rate>
						<start>169800</start>
						<end>169950</end>
						<in>22650</in>
						<out>22800</out>
						<pproTicksIn>0</pproTicksIn>
						<pproTicksOut>875013995520000</pproTicksOut>
						<alphatype>none</alphatype>
						<pixelaspectratio>square</pixelaspectratio>
						<anamorphic>FALSE</anamorphic>
						<file id="file-31">
							<name>Taylor_Swift_Travis_Kelce_-_The_New_Power_Couple.mp4</name>
							<pathurl>file://localhost/Users/themalikano/Documents/VideoAutomation/premiere_videos/Taylor_Swift_Travis_Kelce_-_The_New_Power_Couple.mp4</pathurl>
							<rate>
								<timebase>25</timebase>
								<ntsc>FALSE</ntsc>
							</rate>
							<duration>86118</duration>
							<timecode>
								<rate>
									<timebase>25</timebase>
									<ntsc>FALSE</ntsc>
								</rate>
								<string>00:00:00:00</string>
								<frame>0</frame>
								<displayformat>NDF</displayformat>
							</timecode>
							<media>
								<video>
									<samplecharacteristics>
										<rate>
											<timebase>25</timebase>
											<ntsc>FALSE</ntsc>
										</rate>
										<width>1920</width>
										<height>1080</height>
										<anamorphic>FALSE</anamorphic>
										<pixelaspectratio>square</pixelaspectratio>
										<fielddominance>none</fielddominance>
									</samplecharacteristics>
								</video>
								<audio>
									<samplecharacteristics>
										<depth>16</depth>
										<samplerate>44100</samplerate>
									</samplecharacteristics>
									<channelcount>2</channelcount>
								</audio>
							</media>
						</file>
						<link>
							<linkclipref>clipitem-87</linkclipref>
							<mediatype>video</mediatype>
							<trackindex>1</trackindex>
							<clipindex>3</clipindex>
						</link>
						<link>
							<linkclipref>clipitem-95</linkclipref>
							<mediatype>audio</mediatype>
							<trackindex>1</trackindex>
							<clipindex>3</clipindex>
							<groupindex>1</groupindex>
						</link>
						<link>
							<linkclipref>clipitem-103</linkclipref>
							<mediatype>audio</mediatype>
							<trackindex>2</trackindex>
							<clipindex>3</clipindex>
							<groupindex>1</groupindex>
						</link>
						<logginginfo>
							<description />
							<scene />
							<shottake />
							<lognote />
							<good />
							<originalvideofilename />
							<originalaudiofilename />
						</logginginfo>
						<colorinfo>
							<lut />
							<lut1 />
							<asc_sop />
							<asc_sat />
							<lut2 />
						</colorinfo>
					<labels><label2>Caribbean</label2></labels></clipitem>
					<clipitem id="clipitem-87">
						<masterclipid>clipitem-3-417</masterclipid>
						<name>Taylor_Swift_Travis_Kelce_-_The_New_Power_Couple.mp4</name>
						<enabled>TRUE</enabled>
						<duration>150</duration>
						<rate>
							<timebase>25</timebase>
							<ntsc>FALSE</ntsc>
						</rate>
						<start>169950</start>
						<end>170100</end>
						<in>62400</in>
						<out>62550</out>
						<pproTicksIn>0</pproTicksIn>
						<pproTicksOut>875013995520000</pproTicksOut>
						<alphatype>none</alphatype>
						<pixelaspectratio>square</pixelaspectratio>
						<anamorphic>FALSE</anamorphic>
						<file id="file-31">
							<name>Taylor_Swift_Travis_Kelce_-_The_New_Power_Couple.mp4</name>
							<pathurl>file://localhost/Users/themalikano/Documents/VideoAutomation/premiere_videos/Taylor_Swift_Travis_Kelce_-_The_New_Power_Couple.mp4</pathurl>
							<rate>
								<timebase>25</timebase>
								<ntsc>FALSE</ntsc>
							</rate>
							<duration>86118</duration>
							<timecode>
								<rate>
									<timebase>25</timebase>
									<ntsc>FALSE</ntsc>
								</rate>
								<string>00:00:00:00</string>
								<frame>0</frame>
								<displayformat>NDF</displayformat>
							</timecode>
							<media>
								<video>
									<samplecharacteristics>
										<rate>
											<timebase>25</timebase>
											<ntsc>FALSE</ntsc>
										</rate>
										<width>1920</width>
										<height>1080</height>
										<anamorphic>FALSE</anamorphic>
										<pixelaspectratio>square</pixelaspectratio>
										<fielddominance>none</fielddominance>
									</samplecharacteristics>
								</video>
								<audio>
									<samplecharacteristics>
										<depth>16</depth>
										<samplerate>44100</samplerate>
									</samplecharacteristics>
									<channelcount>2</channelcount>
								</audio>
							</media>
						</file>
						<link>
							<linkclipref>clipitem-87</linkclipref>
							<mediatype>video</mediatype>
							<trackindex>1</trackindex>
							<clipindex>3</clipindex>
						</link>
						<link>
							<linkclipref>clipitem-95</linkclipref>
							<mediatype>audio</mediatype>
							<trackindex>1</trackindex>
							<clipindex>3</clipindex>
							<groupindex>1</groupindex>
						</link>
						<link>
							<linkclipref>clipitem-103</linkclipref>
							<mediatype>audio</mediatype>
							<trackindex>2</trackindex>
							<clipindex>3</clipindex>
							<groupindex>1</groupindex>
						</link>
						<logginginfo>
							<description />
							<scene />
							<shottake />
							<lognote />
							<good />
							<originalvideofilename />
							<originalaudiofilename />
						</logginginfo>
						<colorinfo>
							<lut />
							<lut1 />
							<asc_sop />
							<asc_sat />
							<lut2 />
						</colorinfo>
					<labels><label2>Caribbean</label2></labels></clipitem>
					<clipitem id="clipitem-87">
						<masterclipid>clipitem-3-165</masterclipid>
						<name>Taylor_Swift_Travis_Kelce_-_The_New_Power_Couple.mp4</name>
						<enabled>TRUE</enabled>
						<duration>150</duration>
						<rate>
							<timebase>25</timebase>
							<ntsc>FALSE</ntsc>
						</rate>
						<start>170100</start>
						<end>170250</end>
						<in>24600</in>
						<out>24750</out>
						<pproTicksIn>0</pproTicksIn>
						<pproTicksOut>875013995520000</pproTicksOut>
						<alphatype>none</alphatype>
						<pixelaspectratio>square</pixelaspectratio>
						<anamorphic>FALSE</anamorphic>
						<file id="file-31">
							<name>Taylor_Swift_Travis_Kelce_-_The_New_Power_Couple.mp4</name>
							<pathurl>file://localhost/Users/themalikano/Documents/VideoAutomation/premiere_videos/Taylor_Swift_Travis_Kelce_-_The_New_Power_Couple.mp4</pathurl>
							<rate>
								<timebase>25</timebase>
								<ntsc>FALSE</ntsc>
							</rate>
							<duration>86118</duration>
							<timecode>
								<rate>
									<timebase>25</timebase>
									<ntsc>FALSE</ntsc>
								</rate>
								<string>00:00:00:00</string>
								<frame>0</frame>
								<displayformat>NDF</displayformat>
							</timecode>
							<media>
								<video>
									<samplecharacteristics>
										<rate>
											<timebase>25</timebase>
											<ntsc>FALSE</ntsc>
										</rate>
										<width>1920</width>
										<height>1080</height>
										<anamorphic>FALSE</anamorphic>
										<pixelaspectratio>square</pixelaspectratio>
										<fielddominance>none</fielddominance>
									</samplecharacteristics>
								</video>
								<audio>
									<samplecharacteristics>
										<depth>16</depth>
										<samplerate>44100</samplerate>
									</samplecharacteristics>
									<channelcount>2</channelcount>
								</audio>
							</media>
						</file>
						<link>
							<linkclipref>clipitem-87</linkclipref>
							<mediatype>video</mediatype>
							<trackindex>1</trackindex>
							<clipindex>3</clipindex>
						</link>
						<link>
							<linkclipref>clipitem-95</linkclipref>
							<mediatype>audio</mediatype>
							<trackindex>1</trackindex>
							<clipindex>3</clipindex>
							<groupindex>1</groupindex>
						</link>
						<link>
							<linkclipref>clipitem-103</linkclipref>
							<mediatype>audio</mediatype>
							<trackindex>2</trackindex>
							<clipindex>3</clipindex>
							<groupindex>1</groupindex>
						</link>
						<logginginfo>
							<description />
							<scene />
							<shottake />
							<lognote />
							<good />
							<originalvideofilename />
							<originalaudiofilename />
						</logginginfo>
						<colorinfo>
							<lut />
							<lut1 />
							<asc_sop />
							<asc_sat />
							<lut2 />
						</colorinfo>
					<labels><label2>Caribbean</label2></labels></clipitem>
					<clipitem id="clipitem-87">
						<masterclipid>clipitem-3-69</masterclipid>
						<name>Taylor_Swift_Travis_Kelce_-_The_New_Power_Couple.mp4</name>
						<enabled>TRUE</enabled>
						<duration>150</duration>
						<rate>
							<timebase>25</timebase>
							<ntsc>FALSE</ntsc>
						</rate>
						<start>170250</start>
						<end>170400</end>
						<in>10200</in>
						<out>10350</out>
						<pproTicksIn>0</pproTicksIn>
						<pproTicksOut>875013995520000</pproTicksOut>
						<alphatype>none</alphatype>
						<pixelaspectratio>square</pixelaspectratio>
						<anamorphic>FALSE</anamorphic>
						<file id="file-31">
							<name>Taylor_Swift_Travis_Kelce_-_The_New_Power_Couple.mp4</name>
							<pathurl>file://localhost/Users/themalikano/Documents/VideoAutomation/premiere_videos/Taylor_Swift_Travis_Kelce_-_The_New_Power_Couple.mp4</pathurl>
							<rate>
								<timebase>25</timebase>
								<ntsc>FALSE</ntsc>
							</rate>
							<duration>86118</duration>
							<timecode>
								<rate>
									<timebase>25</timebase>
									<ntsc>FALSE</ntsc>
								</rate>
								<string>00:00:00:00</string>
								<frame>0</frame>
								<displayformat>NDF</displayformat>
							</timecode>
							<media>
								<video>
									<samplecharacteristics>
										<rate>
											<timebase>25</timebase>
											<ntsc>FALSE</ntsc>
										</rate>
										<width>1920</width>
										<height>1080</height>
										<anamorphic>FALSE</anamorphic>
										<pixelaspectratio>square</pixelaspectratio>
										<fielddominance>none</fielddominance>
									</samplecharacteristics>
								</video>
								<audio>
									<samplecharacteristics>
										<depth>16</depth>
										<samplerate>44100</samplerate>
									</samplecharacteristics>
									<channelcount>2</channelcount>
								</audio>
							</media>
						</file>
						<link>
							<linkclipref>clipitem-87</linkclipref>
							<mediatype>video</mediatype>
							<trackindex>1</trackindex>
							<clipindex>3</clipindex>
						</link>
						<link>
							<linkclipref>clipitem-95</linkclipref>
							<mediatype>audio</mediatype>
							<trackindex>1</trackindex>
							<clipindex>3</clipindex>
							<groupindex>1</groupindex>
						</link>
						<link>
							<linkclipref>clipitem-103</linkclipref>
							<mediatype>audio</mediatype>
							<trackindex>2</trackindex>
							<clipindex>3</clipindex>
							<groupindex>1</groupindex>
						</link>
						<logginginfo>
							<description />
							<scene />
							<shottake />
							<lognote />
							<good />
							<originalvideofilename />
							<originalaudiofilename />
						</logginginfo>
						<colorinfo>
							<lut />
							<lut1 />
							<asc_sop />
							<asc_sat />
							<lut2 />
						</colorinfo>
					<labels><label2>Caribbean</label2></labels></clipitem>
					<clipitem id="clipitem-87">
						<masterclipid>clipitem-3-188</masterclipid>
						<name>Taylor_Swift_Travis_Kelce_-_The_New_Power_Couple.mp4</name>
						<enabled>TRUE</enabled>
						<duration>150</duration>
						<rate>
							<timebase>25</timebase>
							<ntsc>FALSE</ntsc>
						</rate>
						<start>170400</start>
						<end>170550</end>
						<in>28050</in>
						<out>28200</out>
						<pproTicksIn>0</pproTicksIn>
						<pproTicksOut>875013995520000</pproTicksOut>
						<alphatype>none</alphatype>
						<pixelaspectratio>square</pixelaspectratio>
						<anamorphic>FALSE</anamorphic>
						<file id="file-31">
							<name>Taylor_Swift_Travis_Kelce_-_The_New_Power_Couple.mp4</name>
							<pathurl>file://localhost/Users/themalikano/Documents/VideoAutomation/premiere_videos/Taylor_Swift_Travis_Kelce_-_The_New_Power_Couple.mp4</pathurl>
							<rate>
								<timebase>25</timebase>
								<ntsc>FALSE</ntsc>
							</rate>
							<duration>86118</duration>
							<timecode>
								<rate>
									<timebase>25</timebase>
									<ntsc>FALSE</ntsc>
								</rate>
								<string>00:00:00:00</string>
								<frame>0</frame>
								<displayformat>NDF</displayformat>
							</timecode>
							<media>
								<video>
									<samplecharacteristics>
										<rate>
											<timebase>25</timebase>
											<ntsc>FALSE</ntsc>
										</rate>
										<width>1920</width>
										<height>1080</height>
										<anamorphic>FALSE</anamorphic>
										<pixelaspectratio>square</pixelaspectratio>
										<fielddominance>none</fielddominance>
									</samplecharacteristics>
								</video>
								<audio>
									<samplecharacteristics>
										<depth>16</depth>
										<samplerate>44100</samplerate>
									</samplecharacteristics>
									<channelcount>2</channelcount>
								</audio>
							</media>
						</file>
						<link>
							<linkclipref>clipitem-87</linkclipref>
							<mediatype>video</mediatype>
							<trackindex>1</trackindex>
							<clipindex>3</clipindex>
						</link>
						<link>
							<linkclipref>clipitem-95</linkclipref>
							<mediatype>audio</mediatype>
							<trackindex>1</trackindex>
							<clipindex>3</clipindex>
							<groupindex>1</groupindex>
						</link>
						<link>
							<linkclipref>clipitem-103</linkclipref>
							<mediatype>audio</mediatype>
							<trackindex>2</trackindex>
							<clipindex>3</clipindex>
							<groupindex>1</groupindex>
						</link>
						<logginginfo>
							<description />
							<scene />
							<shottake />
							<lognote />
							<good />
							<originalvideofilename />
							<originalaudiofilename />
						</logginginfo>
						<colorinfo>
							<lut />
							<lut1 />
							<asc_sop />
							<asc_sat />
							<lut2 />
						</colorinfo>
					<labels><label2>Caribbean</label2></labels></clipitem>
					<clipitem id="clipitem-87">
						<masterclipid>clipitem-3-477</masterclipid>
						<name>Taylor_Swift_Travis_Kelce_-_The_New_Power_Couple.mp4</name>
						<enabled>TRUE</enabled>
						<duration>150</duration>
						<rate>
							<timebase>25</timebase>
							<ntsc>FALSE</ntsc>
						</rate>
						<start>170550</start>
						<end>170700</end>
						<in>71400</in>
						<out>71550</out>
						<pproTicksIn>0</pproTicksIn>
						<pproTicksOut>875013995520000</pproTicksOut>
						<alphatype>none</alphatype>
						<pixelaspectratio>square</pixelaspectratio>
						<anamorphic>FALSE</anamorphic>
						<file id="file-31">
							<name>Taylor_Swift_Travis_Kelce_-_The_New_Power_Couple.mp4</name>
							<pathurl>file://localhost/Users/themalikano/Documents/VideoAutomation/premiere_videos/Taylor_Swift_Travis_Kelce_-_The_New_Power_Couple.mp4</pathurl>
							<rate>
								<timebase>25</timebase>
								<ntsc>FALSE</ntsc>
							</rate>
							<duration>86118</duration>
							<timecode>
								<rate>
									<timebase>25</timebase>
									<ntsc>FALSE</ntsc>
								</rate>
								<string>00:00:00:00</string>
								<frame>0</frame>
								<displayformat>NDF</displayformat>
							</timecode>
							<media>
								<video>
									<samplecharacteristics>
										<rate>
											<timebase>25</timebase>
											<ntsc>FALSE</ntsc>
										</rate>
										<width>1920</width>
										<height>1080</height>
										<anamorphic>FALSE</anamorphic>
										<pixelaspectratio>square</pixelaspectratio>
										<fielddominance>none</fielddominance>
									</samplecharacteristics>
								</video>
								<audio>
									<samplecharacteristics>
										<depth>16</depth>
										<samplerate>44100</samplerate>
									</samplecharacteristics>
									<channelcount>2</channelcount>
								</audio>
							</media>
						</file>
						<link>
							<linkclipref>clipitem-87</linkclipref>
							<mediatype>video</mediatype>
							<trackindex>1</trackindex>
							<clipindex>3</clipindex>
						</link>
						<link>
							<linkclipref>clipitem-95</linkclipref>
							<mediatype>audio</mediatype>
							<trackindex>1</trackindex>
							<clipindex>3</clipindex>
							<groupindex>1</groupindex>
						</link>
						<link>
							<linkclipref>clipitem-103</linkclipref>
							<mediatype>audio</mediatype>
							<trackindex>2</trackindex>
							<clipindex>3</clipindex>
							<groupindex>1</groupindex>
						</link>
						<logginginfo>
							<description />
							<scene />
							<shottake />
							<lognote />
							<good />
							<originalvideofilename />
							<originalaudiofilename />
						</logginginfo>
						<colorinfo>
							<lut />
							<lut1 />
							<asc_sop />
							<asc_sat />
							<lut2 />
						</colorinfo>
					<labels><label2>Caribbean</label2></labels></clipitem>
					<clipitem id="clipitem-87">
						<masterclipid>clipitem-3-212</masterclipid>
						<name>Taylor_Swift_Travis_Kelce_-_The_New_Power_Couple.mp4</name>
						<enabled>TRUE</enabled>
						<duration>150</duration>
						<rate>
							<timebase>25</timebase>
							<ntsc>FALSE</ntsc>
						</rate>
						<start>170700</start>
						<end>170850</end>
						<in>31650</in>
						<out>31800</out>
						<pproTicksIn>0</pproTicksIn>
						<pproTicksOut>875013995520000</pproTicksOut>
						<alphatype>none</alphatype>
						<pixelaspectratio>square</pixelaspectratio>
						<anamorphic>FALSE</anamorphic>
						<file id="file-31">
							<name>Taylor_Swift_Travis_Kelce_-_The_New_Power_Couple.mp4</name>
							<pathurl>file://localhost/Users/themalikano/Documents/VideoAutomation/premiere_videos/Taylor_Swift_Travis_Kelce_-_The_New_Power_Couple.mp4</pathurl>
							<rate>
								<timebase>25</timebase>
								<ntsc>FALSE</ntsc>
							</rate>
							<duration>86118</duration>
							<timecode>
								<rate>
									<timebase>25</timebase>
									<ntsc>FALSE</ntsc>
								</rate>
								<string>00:00:00:00</string>
								<frame>0</frame>
								<displayformat>NDF</displayformat>
							</timecode>
							<media>
								<video>
									<samplecharacteristics>
										<rate>
											<timebase>25</timebase>
											<ntsc>FALSE</ntsc>
										</rate>
										<width>1920</width>
										<height>1080</height>
										<anamorphic>FALSE</anamorphic>
										<pixelaspectratio>square</pixelaspectratio>
										<fielddominance>none</fielddominance>
									</samplecharacteristics>
								</video>
								<audio>
									<samplecharacteristics>
										<depth>16</depth>
										<samplerate>44100</samplerate>
									</samplecharacteristics>
									<channelcount>2</channelcount>
								</audio>
							</media>
						</file>
						<link>
							<linkclipref>clipitem-87</linkclipref>
							<mediatype>video</mediatype>
							<trackindex>1</trackindex>
							<clipindex>3</clipindex>
						</link>
						<link>
							<linkclipref>clipitem-95</linkclipref>
							<mediatype>audio</mediatype>
							<trackindex>1</trackindex>
							<clipindex>3</clipindex>
							<groupindex>1</groupindex>
						</link>
						<link>
							<linkclipref>clipitem-103</linkclipref>
							<mediatype>audio</mediatype>
							<trackindex>2</trackindex>
							<clipindex>3</clipindex>
							<groupindex>1</groupindex>
						</link>
						<logginginfo>
							<description />
							<scene />
							<shottake />
							<lognote />
							<good />
							<originalvideofilename />
							<originalaudiofilename />
						</logginginfo>
						<colorinfo>
							<lut />
							<lut1 />
							<asc_sop />
							<asc_sat />
							<lut2 />
						</colorinfo>
					<labels><label2>Caribbean</label2></labels></clipitem>
					<clipitem id="clipitem-87">
						<masterclipid>clipitem-3-214</masterclipid>
						<name>Taylor_Swift_Travis_Kelce_-_The_New_Power_Couple.mp4</name>
						<enabled>TRUE</enabled>
						<duration>150</duration>
						<rate>
							<timebase>25</timebase>
							<ntsc>FALSE</ntsc>
						</rate>
						<start>170850</start>
						<end>171000</end>
						<in>31950</in>
						<out>32100</out>
						<pproTicksIn>0</pproTicksIn>
						<pproTicksOut>875013995520000</pproTicksOut>
						<alphatype>none</alphatype>
						<pixelaspectratio>square</pixelaspectratio>
						<anamorphic>FALSE</anamorphic>
						<file id="file-31">
							<name>Taylor_Swift_Travis_Kelce_-_The_New_Power_Couple.mp4</name>
							<pathurl>file://localhost/Users/themalikano/Documents/VideoAutomation/premiere_videos/Taylor_Swift_Travis_Kelce_-_The_New_Power_Couple.mp4</pathurl>
							<rate>
								<timebase>25</timebase>
								<ntsc>FALSE</ntsc>
							</rate>
							<duration>86118</duration>
							<timecode>
								<rate>
									<timebase>25</timebase>
									<ntsc>FALSE</ntsc>
								</rate>
								<string>00:00:00:00</string>
								<frame>0</frame>
								<displayformat>NDF</displayformat>
							</timecode>
							<media>
								<video>
									<samplecharacteristics>
										<rate>
											<timebase>25</timebase>
											<ntsc>FALSE</ntsc>
										</rate>
										<width>1920</width>
										<height>1080</height>
										<anamorphic>FALSE</anamorphic>
										<pixelaspectratio>square</pixelaspectratio>
										<fielddominance>none</fielddominance>
									</samplecharacteristics>
								</video>
								<audio>
									<samplecharacteristics>
										<depth>16</depth>
										<samplerate>44100</samplerate>
									</samplecharacteristics>
									<channelcount>2</channelcount>
								</audio>
							</media>
						</file>
						<link>
							<linkclipref>clipitem-87</linkclipref>
							<mediatype>video</mediatype>
							<trackindex>1</trackindex>
							<clipindex>3</clipindex>
						</link>
						<link>
							<linkclipref>clipitem-95</linkclipref>
							<mediatype>audio</mediatype>
							<trackindex>1</trackindex>
							<clipindex>3</clipindex>
							<groupindex>1</groupindex>
						</link>
						<link>
							<linkclipref>clipitem-103</linkclipref>
							<mediatype>audio</mediatype>
							<trackindex>2</trackindex>
							<clipindex>3</clipindex>
							<groupindex>1</groupindex>
						</link>
						<logginginfo>
							<description />
							<scene />
							<shottake />
							<lognote />
							<good />
							<originalvideofilename />
							<originalaudiofilename />
						</logginginfo>
						<colorinfo>
							<lut />
							<lut1 />
							<asc_sop />
							<asc_sat />
							<lut2 />
						</colorinfo>
					<labels><label2>Caribbean</label2></labels></clipitem>
					<clipitem id="clipitem-87">
						<masterclipid>clipitem-3-98</masterclipid>
						<name>Taylor_Swift_Travis_Kelce_-_The_New_Power_Couple.mp4</name>
						<enabled>TRUE</enabled>
						<duration>150</duration>
						<rate>
							<timebase>25</timebase>
							<ntsc>FALSE</ntsc>
						</rate>
						<start>171000</start>
						<end>171150</end>
						<in>14550</in>
						<out>14700</out>
						<pproTicksIn>0</pproTicksIn>
						<pproTicksOut>875013995520000</pproTicksOut>
						<alphatype>none</alphatype>
						<pixelaspectratio>square</pixelaspectratio>
						<anamorphic>FALSE</anamorphic>
						<file id="file-31">
							<name>Taylor_Swift_Travis_Kelce_-_The_New_Power_Couple.mp4</name>
							<pathurl>file://localhost/Users/themalikano/Documents/VideoAutomation/premiere_videos/Taylor_Swift_Travis_Kelce_-_The_New_Power_Couple.mp4</pathurl>
							<rate>
								<timebase>25</timebase>
								<ntsc>FALSE</ntsc>
							</rate>
							<duration>86118</duration>
							<timecode>
								<rate>
									<timebase>25</timebase>
									<ntsc>FALSE</ntsc>
								</rate>
								<string>00:00:00:00</string>
								<frame>0</frame>
								<displayformat>NDF</displayformat>
							</timecode>
							<media>
								<video>
									<samplecharacteristics>
										<rate>
											<timebase>25</timebase>
											<ntsc>FALSE</ntsc>
										</rate>
										<width>1920</width>
										<height>1080</height>
										<anamorphic>FALSE</anamorphic>
										<pixelaspectratio>square</pixelaspectratio>
										<fielddominance>none</fielddominance>
									</samplecharacteristics>
								</video>
								<audio>
									<samplecharacteristics>
										<depth>16</depth>
										<samplerate>44100</samplerate>
									</samplecharacteristics>
									<channelcount>2</channelcount>
								</audio>
							</media>
						</file>
						<link>
							<linkclipref>clipitem-87</linkclipref>
							<mediatype>video</mediatype>
							<trackindex>1</trackindex>
							<clipindex>3</clipindex>
						</link>
						<link>
							<linkclipref>clipitem-95</linkclipref>
							<mediatype>audio</mediatype>
							<trackindex>1</trackindex>
							<clipindex>3</clipindex>
							<groupindex>1</groupindex>
						</link>
						<link>
							<linkclipref>clipitem-103</linkclipref>
							<mediatype>audio</mediatype>
							<trackindex>2</trackindex>
							<clipindex>3</clipindex>
							<groupindex>1</groupindex>
						</link>
						<logginginfo>
							<description />
							<scene />
							<shottake />
							<lognote />
							<good />
							<originalvideofilename />
							<originalaudiofilename />
						</logginginfo>
						<colorinfo>
							<lut />
							<lut1 />
							<asc_sop />
							<asc_sat />
							<lut2 />
						</colorinfo>
					<labels><label2>Caribbean</label2></labels></clipitem>
					<clipitem id="clipitem-87">
						<masterclipid>clipitem-3-334</masterclipid>
						<name>Taylor_Swift_Travis_Kelce_-_The_New_Power_Couple.mp4</name>
						<enabled>TRUE</enabled>
						<duration>150</duration>
						<rate>
							<timebase>25</timebase>
							<ntsc>FALSE</ntsc>
						</rate>
						<start>171150</start>
						<end>171300</end>
						<in>49950</in>
						<out>50100</out>
						<pproTicksIn>0</pproTicksIn>
						<pproTicksOut>875013995520000</pproTicksOut>
						<alphatype>none</alphatype>
						<pixelaspectratio>square</pixelaspectratio>
						<anamorphic>FALSE</anamorphic>
						<file id="file-31">
							<name>Taylor_Swift_Travis_Kelce_-_The_New_Power_Couple.mp4</name>
							<pathurl>file://localhost/Users/themalikano/Documents/VideoAutomation/premiere_videos/Taylor_Swift_Travis_Kelce_-_The_New_Power_Couple.mp4</pathurl>
							<rate>
								<timebase>25</timebase>
								<ntsc>FALSE</ntsc>
							</rate>
							<duration>86118</duration>
							<timecode>
								<rate>
									<timebase>25</timebase>
									<ntsc>FALSE</ntsc>
								</rate>
								<string>00:00:00:00</string>
								<frame>0</frame>
								<displayformat>NDF</displayformat>
							</timecode>
							<media>
								<video>
									<samplecharacteristics>
										<rate>
											<timebase>25</timebase>
											<ntsc>FALSE</ntsc>
										</rate>
										<width>1920</width>
										<height>1080</height>
										<anamorphic>FALSE</anamorphic>
										<pixelaspectratio>square</pixelaspectratio>
										<fielddominance>none</fielddominance>
									</samplecharacteristics>
								</video>
								<audio>
									<samplecharacteristics>
										<depth>16</depth>
										<samplerate>44100</samplerate>
									</samplecharacteristics>
									<channelcount>2</channelcount>
								</audio>
							</media>
						</file>
						<link>
							<linkclipref>clipitem-87</linkclipref>
							<mediatype>video</mediatype>
							<trackindex>1</trackindex>
							<clipindex>3</clipindex>
						</link>
						<link>
							<linkclipref>clipitem-95</linkclipref>
							<mediatype>audio</mediatype>
							<trackindex>1</trackindex>
							<clipindex>3</clipindex>
							<groupindex>1</groupindex>
						</link>
						<link>
							<linkclipref>clipitem-103</linkclipref>
							<mediatype>audio</mediatype>
							<trackindex>2</trackindex>
							<clipindex>3</clipindex>
							<groupindex>1</groupindex>
						</link>
						<logginginfo>
							<description />
							<scene />
							<shottake />
							<lognote />
							<good />
							<originalvideofilename />
							<originalaudiofilename />
						</logginginfo>
						<colorinfo>
							<lut />
							<lut1 />
							<asc_sop />
							<asc_sat />
							<lut2 />
						</colorinfo>
					<labels><label2>Caribbean</label2></labels></clipitem>
					<clipitem id="clipitem-87">
						<masterclipid>clipitem-3-172</masterclipid>
						<name>Taylor_Swift_Travis_Kelce_-_The_New_Power_Couple.mp4</name>
						<enabled>TRUE</enabled>
						<duration>150</duration>
						<rate>
							<timebase>25</timebase>
							<ntsc>FALSE</ntsc>
						</rate>
						<start>171300</start>
						<end>171450</end>
						<in>25650</in>
						<out>25800</out>
						<pproTicksIn>0</pproTicksIn>
						<pproTicksOut>875013995520000</pproTicksOut>
						<alphatype>none</alphatype>
						<pixelaspectratio>square</pixelaspectratio>
						<anamorphic>FALSE</anamorphic>
						<file id="file-31">
							<name>Taylor_Swift_Travis_Kelce_-_The_New_Power_Couple.mp4</name>
							<pathurl>file://localhost/Users/themalikano/Documents/VideoAutomation/premiere_videos/Taylor_Swift_Travis_Kelce_-_The_New_Power_Couple.mp4</pathurl>
							<rate>
								<timebase>25</timebase>
								<ntsc>FALSE</ntsc>
							</rate>
							<duration>86118</duration>
							<timecode>
								<rate>
									<timebase>25</timebase>
									<ntsc>FALSE</ntsc>
								</rate>
								<string>00:00:00:00</string>
								<frame>0</frame>
								<displayformat>NDF</displayformat>
							</timecode>
							<media>
								<video>
									<samplecharacteristics>
										<rate>
											<timebase>25</timebase>
											<ntsc>FALSE</ntsc>
										</rate>
										<width>1920</width>
										<height>1080</height>
										<anamorphic>FALSE</anamorphic>
										<pixelaspectratio>square</pixelaspectratio>
										<fielddominance>none</fielddominance>
									</samplecharacteristics>
								</video>
								<audio>
									<samplecharacteristics>
										<depth>16</depth>
										<samplerate>44100</samplerate>
									</samplecharacteristics>
									<channelcount>2</channelcount>
								</audio>
							</media>
						</file>
						<link>
							<linkclipref>clipitem-87</linkclipref>
							<mediatype>video</mediatype>
							<trackindex>1</trackindex>
							<clipindex>3</clipindex>
						</link>
						<link>
							<linkclipref>clipitem-95</linkclipref>
							<mediatype>audio</mediatype>
							<trackindex>1</trackindex>
							<clipindex>3</clipindex>
							<groupindex>1</groupindex>
						</link>
						<link>
							<linkclipref>clipitem-103</linkclipref>
							<mediatype>audio</mediatype>
							<trackindex>2</trackindex>
							<clipindex>3</clipindex>
							<groupindex>1</groupindex>
						</link>
						<logginginfo>
							<description />
							<scene />
							<shottake />
							<lognote />
							<good />
							<originalvideofilename />
							<originalaudiofilename />
						</logginginfo>
						<colorinfo>
							<lut />
							<lut1 />
							<asc_sop />
							<asc_sat />
							<lut2 />
						</colorinfo>
					<labels><label2>Caribbean</label2></labels></clipitem>
					<clipitem id="clipitem-87">
						<masterclipid>clipitem-3-432</masterclipid>
						<name>Taylor_Swift_Travis_Kelce_-_The_New_Power_Couple.mp4</name>
						<enabled>TRUE</enabled>
						<duration>150</duration>
						<rate>
							<timebase>25</timebase>
							<ntsc>FALSE</ntsc>
						</rate>
						<start>171450</start>
						<end>171600</end>
						<in>64650</in>
						<out>64800</out>
						<pproTicksIn>0</pproTicksIn>
						<pproTicksOut>875013995520000</pproTicksOut>
						<alphatype>none</alphatype>
						<pixelaspectratio>square</pixelaspectratio>
						<anamorphic>FALSE</anamorphic>
						<file id="file-31">
							<name>Taylor_Swift_Travis_Kelce_-_The_New_Power_Couple.mp4</name>
							<pathurl>file://localhost/Users/themalikano/Documents/VideoAutomation/premiere_videos/Taylor_Swift_Travis_Kelce_-_The_New_Power_Couple.mp4</pathurl>
							<rate>
								<timebase>25</timebase>
								<ntsc>FALSE</ntsc>
							</rate>
							<duration>86118</duration>
							<timecode>
								<rate>
									<timebase>25</timebase>
									<ntsc>FALSE</ntsc>
								</rate>
								<string>00:00:00:00</string>
								<frame>0</frame>
								<displayformat>NDF</displayformat>
							</timecode>
							<media>
								<video>
									<samplecharacteristics>
										<rate>
											<timebase>25</timebase>
											<ntsc>FALSE</ntsc>
										</rate>
										<width>1920</width>
										<height>1080</height>
										<anamorphic>FALSE</anamorphic>
										<pixelaspectratio>square</pixelaspectratio>
										<fielddominance>none</fielddominance>
									</samplecharacteristics>
								</video>
								<audio>
									<samplecharacteristics>
										<depth>16</depth>
										<samplerate>44100</samplerate>
									</samplecharacteristics>
									<channelcount>2</channelcount>
								</audio>
							</media>
						</file>
						<link>
							<linkclipref>clipitem-87</linkclipref>
							<mediatype>video</mediatype>
							<trackindex>1</trackindex>
							<clipindex>3</clipindex>
						</link>
						<link>
							<linkclipref>clipitem-95</linkclipref>
							<mediatype>audio</mediatype>
							<trackindex>1</trackindex>
							<clipindex>3</clipindex>
							<groupindex>1</groupindex>
						</link>
						<link>
							<linkclipref>clipitem-103</linkclipref>
							<mediatype>audio</mediatype>
							<trackindex>2</trackindex>
							<clipindex>3</clipindex>
							<groupindex>1</groupindex>
						</link>
						<logginginfo>
							<description />
							<scene />
							<shottake />
							<lognote />
							<good />
							<originalvideofilename />
							<originalaudiofilename />
						</logginginfo>
						<colorinfo>
							<lut />
							<lut1 />
							<asc_sop />
							<asc_sat />
							<lut2 />
						</colorinfo>
					<labels><label2>Caribbean</label2></labels></clipitem>
					<clipitem id="clipitem-87">
						<masterclipid>clipitem-3-412</masterclipid>
						<name>Taylor_Swift_Travis_Kelce_-_The_New_Power_Couple.mp4</name>
						<enabled>TRUE</enabled>
						<duration>150</duration>
						<rate>
							<timebase>25</timebase>
							<ntsc>FALSE</ntsc>
						</rate>
						<start>171600</start>
						<end>171750</end>
						<in>61650</in>
						<out>61800</out>
						<pproTicksIn>0</pproTicksIn>
						<pproTicksOut>875013995520000</pproTicksOut>
						<alphatype>none</alphatype>
						<pixelaspectratio>square</pixelaspectratio>
						<anamorphic>FALSE</anamorphic>
						<file id="file-31">
							<name>Taylor_Swift_Travis_Kelce_-_The_New_Power_Couple.mp4</name>
							<pathurl>file://localhost/Users/themalikano/Documents/VideoAutomation/premiere_videos/Taylor_Swift_Travis_Kelce_-_The_New_Power_Couple.mp4</pathurl>
							<rate>
								<timebase>25</timebase>
								<ntsc>FALSE</ntsc>
							</rate>
							<duration>86118</duration>
							<timecode>
								<rate>
									<timebase>25</timebase>
									<ntsc>FALSE</ntsc>
								</rate>
								<string>00:00:00:00</string>
								<frame>0</frame>
								<displayformat>NDF</displayformat>
							</timecode>
							<media>
								<video>
									<samplecharacteristics>
										<rate>
											<timebase>25</timebase>
											<ntsc>FALSE</ntsc>
										</rate>
										<width>1920</width>
										<height>1080</height>
										<anamorphic>FALSE</anamorphic>
										<pixelaspectratio>square</pixelaspectratio>
										<fielddominance>none</fielddominance>
									</samplecharacteristics>
								</video>
								<audio>
									<samplecharacteristics>
										<depth>16</depth>
										<samplerate>44100</samplerate>
									</samplecharacteristics>
									<channelcount>2</channelcount>
								</audio>
							</media>
						</file>
						<link>
							<linkclipref>clipitem-87</linkclipref>
							<mediatype>video</mediatype>
							<trackindex>1</trackindex>
							<clipindex>3</clipindex>
						</link>
						<link>
							<linkclipref>clipitem-95</linkclipref>
							<mediatype>audio</mediatype>
							<trackindex>1</trackindex>
							<clipindex>3</clipindex>
							<groupindex>1</groupindex>
						</link>
						<link>
							<linkclipref>clipitem-103</linkclipref>
							<mediatype>audio</mediatype>
							<trackindex>2</trackindex>
							<clipindex>3</clipindex>
							<groupindex>1</groupindex>
						</link>
						<logginginfo>
							<description />
							<scene />
							<shottake />
							<lognote />
							<good />
							<originalvideofilename />
							<originalaudiofilename />
						</logginginfo>
						<colorinfo>
							<lut />
							<lut1 />
							<asc_sop />
							<asc_sat />
							<lut2 />
						</colorinfo>
					<labels><label2>Caribbean</label2></labels></clipitem>
					<clipitem id="clipitem-87">
						<masterclipid>clipitem-3-273</masterclipid>
						<name>Taylor_Swift_Travis_Kelce_-_The_New_Power_Couple.mp4</name>
						<enabled>TRUE</enabled>
						<duration>150</duration>
						<rate>
							<timebase>25</timebase>
							<ntsc>FALSE</ntsc>
						</rate>
						<start>171750</start>
						<end>171900</end>
						<in>40800</in>
						<out>40950</out>
						<pproTicksIn>0</pproTicksIn>
						<pproTicksOut>875013995520000</pproTicksOut>
						<alphatype>none</alphatype>
						<pixelaspectratio>square</pixelaspectratio>
						<anamorphic>FALSE</anamorphic>
						<file id="file-31">
							<name>Taylor_Swift_Travis_Kelce_-_The_New_Power_Couple.mp4</name>
							<pathurl>file://localhost/Users/themalikano/Documents/VideoAutomation/premiere_videos/Taylor_Swift_Travis_Kelce_-_The_New_Power_Couple.mp4</pathurl>
							<rate>
								<timebase>25</timebase>
								<ntsc>FALSE</ntsc>
							</rate>
							<duration>86118</duration>
							<timecode>
								<rate>
									<timebase>25</timebase>
									<ntsc>FALSE</ntsc>
								</rate>
								<string>00:00:00:00</string>
								<frame>0</frame>
								<displayformat>NDF</displayformat>
							</timecode>
							<media>
								<video>
									<samplecharacteristics>
										<rate>
											<timebase>25</timebase>
											<ntsc>FALSE</ntsc>
										</rate>
										<width>1920</width>
										<height>1080</height>
										<anamorphic>FALSE</anamorphic>
										<pixelaspectratio>square</pixelaspectratio>
										<fielddominance>none</fielddominance>
									</samplecharacteristics>
								</video>
								<audio>
									<samplecharacteristics>
										<depth>16</depth>
										<samplerate>44100</samplerate>
									</samplecharacteristics>
									<channelcount>2</channelcount>
								</audio>
							</media>
						</file>
						<link>
							<linkclipref>clipitem-87</linkclipref>
							<mediatype>video</mediatype>
							<trackindex>1</trackindex>
							<clipindex>3</clipindex>
						</link>
						<link>
							<linkclipref>clipitem-95</linkclipref>
							<mediatype>audio</mediatype>
							<trackindex>1</trackindex>
							<clipindex>3</clipindex>
							<groupindex>1</groupindex>
						</link>
						<link>
							<linkclipref>clipitem-103</linkclipref>
							<mediatype>audio</mediatype>
							<trackindex>2</trackindex>
							<clipindex>3</clipindex>
							<groupindex>1</groupindex>
						</link>
						<logginginfo>
							<description />
							<scene />
							<shottake />
							<lognote />
							<good />
							<originalvideofilename />
							<originalaudiofilename />
						</logginginfo>
						<colorinfo>
							<lut />
							<lut1 />
							<asc_sop />
							<asc_sat />
							<lut2 />
						</colorinfo>
					<labels><label2>Caribbean</label2></labels></clipitem>
					<clipitem id="clipitem-87">
						<masterclipid>clipitem-3-288</masterclipid>
						<name>Taylor_Swift_Travis_Kelce_-_The_New_Power_Couple.mp4</name>
						<enabled>TRUE</enabled>
						<duration>150</duration>
						<rate>
							<timebase>25</timebase>
							<ntsc>FALSE</ntsc>
						</rate>
						<start>171900</start>
						<end>172050</end>
						<in>43050</in>
						<out>43200</out>
						<pproTicksIn>0</pproTicksIn>
						<pproTicksOut>875013995520000</pproTicksOut>
						<alphatype>none</alphatype>
						<pixelaspectratio>square</pixelaspectratio>
						<anamorphic>FALSE</anamorphic>
						<file id="file-31">
							<name>Taylor_Swift_Travis_Kelce_-_The_New_Power_Couple.mp4</name>
							<pathurl>file://localhost/Users/themalikano/Documents/VideoAutomation/premiere_videos/Taylor_Swift_Travis_Kelce_-_The_New_Power_Couple.mp4</pathurl>
							<rate>
								<timebase>25</timebase>
								<ntsc>FALSE</ntsc>
							</rate>
							<duration>86118</duration>
							<timecode>
								<rate>
									<timebase>25</timebase>
									<ntsc>FALSE</ntsc>
								</rate>
								<string>00:00:00:00</string>
								<frame>0</frame>
								<displayformat>NDF</displayformat>
							</timecode>
							<media>
								<video>
									<samplecharacteristics>
										<rate>
											<timebase>25</timebase>
											<ntsc>FALSE</ntsc>
										</rate>
										<width>1920</width>
										<height>1080</height>
										<anamorphic>FALSE</anamorphic>
										<pixelaspectratio>square</pixelaspectratio>
										<fielddominance>none</fielddominance>
									</samplecharacteristics>
								</video>
								<audio>
									<samplecharacteristics>
										<depth>16</depth>
										<samplerate>44100</samplerate>
									</samplecharacteristics>
									<channelcount>2</channelcount>
								</audio>
							</media>
						</file>
						<link>
							<linkclipref>clipitem-87</linkclipref>
							<mediatype>video</mediatype>
							<trackindex>1</trackindex>
							<clipindex>3</clipindex>
						</link>
						<link>
							<linkclipref>clipitem-95</linkclipref>
							<mediatype>audio</mediatype>
							<trackindex>1</trackindex>
							<clipindex>3</clipindex>
							<groupindex>1</groupindex>
						</link>
						<link>
							<linkclipref>clipitem-103</linkclipref>
							<mediatype>audio</mediatype>
							<trackindex>2</trackindex>
							<clipindex>3</clipindex>
							<groupindex>1</groupindex>
						</link>
						<logginginfo>
							<description />
							<scene />
							<shottake />
							<lognote />
							<good />
							<originalvideofilename />
							<originalaudiofilename />
						</logginginfo>
						<colorinfo>
							<lut />
							<lut1 />
							<asc_sop />
							<asc_sat />
							<lut2 />
						</colorinfo>
					<labels><label2>Caribbean</label2></labels></clipitem>
					<clipitem id="clipitem-87">
						<masterclipid>clipitem-3-30</masterclipid>
						<name>Taylor_Swift_Travis_Kelce_-_The_New_Power_Couple.mp4</name>
						<enabled>TRUE</enabled>
						<duration>150</duration>
						<rate>
							<timebase>25</timebase>
							<ntsc>FALSE</ntsc>
						</rate>
						<start>172050</start>
						<end>172200</end>
						<in>4350</in>
						<out>4500</out>
						<pproTicksIn>0</pproTicksIn>
						<pproTicksOut>875013995520000</pproTicksOut>
						<alphatype>none</alphatype>
						<pixelaspectratio>square</pixelaspectratio>
						<anamorphic>FALSE</anamorphic>
						<file id="file-31">
							<name>Taylor_Swift_Travis_Kelce_-_The_New_Power_Couple.mp4</name>
							<pathurl>file://localhost/Users/themalikano/Documents/VideoAutomation/premiere_videos/Taylor_Swift_Travis_Kelce_-_The_New_Power_Couple.mp4</pathurl>
							<rate>
								<timebase>25</timebase>
								<ntsc>FALSE</ntsc>
							</rate>
							<duration>86118</duration>
							<timecode>
								<rate>
									<timebase>25</timebase>
									<ntsc>FALSE</ntsc>
								</rate>
								<string>00:00:00:00</string>
								<frame>0</frame>
								<displayformat>NDF</displayformat>
							</timecode>
							<media>
								<video>
									<samplecharacteristics>
										<rate>
											<timebase>25</timebase>
											<ntsc>FALSE</ntsc>
										</rate>
										<width>1920</width>
										<height>1080</height>
										<anamorphic>FALSE</anamorphic>
										<pixelaspectratio>square</pixelaspectratio>
										<fielddominance>none</fielddominance>
									</samplecharacteristics>
								</video>
								<audio>
									<samplecharacteristics>
										<depth>16</depth>
										<samplerate>44100</samplerate>
									</samplecharacteristics>
									<channelcount>2</channelcount>
								</audio>
							</media>
						</file>
						<link>
							<linkclipref>clipitem-87</linkclipref>
							<mediatype>video</mediatype>
							<trackindex>1</trackindex>
							<clipindex>3</clipindex>
						</link>
						<link>
							<linkclipref>clipitem-95</linkclipref>
							<mediatype>audio</mediatype>
							<trackindex>1</trackindex>
							<clipindex>3</clipindex>
							<groupindex>1</groupindex>
						</link>
						<link>
							<linkclipref>clipitem-103</linkclipref>
							<mediatype>audio</mediatype>
							<trackindex>2</trackindex>
							<clipindex>3</clipindex>
							<groupindex>1</groupindex>
						</link>
						<logginginfo>
							<description />
							<scene />
							<shottake />
							<lognote />
							<good />
							<originalvideofilename />
							<originalaudiofilename />
						</logginginfo>
						<colorinfo>
							<lut />
							<lut1 />
							<asc_sop />
							<asc_sat />
							<lut2 />
						</colorinfo>
					<labels><label2>Caribbean</label2></labels></clipitem>
					<clipitem id="clipitem-87">
						<masterclipid>clipitem-3-538</masterclipid>
						<name>Taylor_Swift_Travis_Kelce_-_The_New_Power_Couple.mp4</name>
						<enabled>TRUE</enabled>
						<duration>150</duration>
						<rate>
							<timebase>25</timebase>
							<ntsc>FALSE</ntsc>
						</rate>
						<start>172200</start>
						<end>172350</end>
						<in>80550</in>
						<out>80700</out>
						<pproTicksIn>0</pproTicksIn>
						<pproTicksOut>875013995520000</pproTicksOut>
						<alphatype>none</alphatype>
						<pixelaspectratio>square</pixelaspectratio>
						<anamorphic>FALSE</anamorphic>
						<file id="file-31">
							<name>Taylor_Swift_Travis_Kelce_-_The_New_Power_Couple.mp4</name>
							<pathurl>file://localhost/Users/themalikano/Documents/VideoAutomation/premiere_videos/Taylor_Swift_Travis_Kelce_-_The_New_Power_Couple.mp4</pathurl>
							<rate>
								<timebase>25</timebase>
								<ntsc>FALSE</ntsc>
							</rate>
							<duration>86118</duration>
							<timecode>
								<rate>
									<timebase>25</timebase>
									<ntsc>FALSE</ntsc>
								</rate>
								<string>00:00:00:00</string>
								<frame>0</frame>
								<displayformat>NDF</displayformat>
							</timecode>
							<media>
								<video>
									<samplecharacteristics>
										<rate>
											<timebase>25</timebase>
											<ntsc>FALSE</ntsc>
										</rate>
										<width>1920</width>
										<height>1080</height>
										<anamorphic>FALSE</anamorphic>
										<pixelaspectratio>square</pixelaspectratio>
										<fielddominance>none</fielddominance>
									</samplecharacteristics>
								</video>
								<audio>
									<samplecharacteristics>
										<depth>16</depth>
										<samplerate>44100</samplerate>
									</samplecharacteristics>
									<channelcount>2</channelcount>
								</audio>
							</media>
						</file>
						<link>
							<linkclipref>clipitem-87</linkclipref>
							<mediatype>video</mediatype>
							<trackindex>1</trackindex>
							<clipindex>3</clipindex>
						</link>
						<link>
							<linkclipref>clipitem-95</linkclipref>
							<mediatype>audio</mediatype>
							<trackindex>1</trackindex>
							<clipindex>3</clipindex>
							<groupindex>1</groupindex>
						</link>
						<link>
							<linkclipref>clipitem-103</linkclipref>
							<mediatype>audio</mediatype>
							<trackindex>2</trackindex>
							<clipindex>3</clipindex>
							<groupindex>1</groupindex>
						</link>
						<logginginfo>
							<description />
							<scene />
							<shottake />
							<lognote />
							<good />
							<originalvideofilename />
							<originalaudiofilename />
						</logginginfo>
						<colorinfo>
							<lut />
							<lut1 />
							<asc_sop />
							<asc_sat />
							<lut2 />
						</colorinfo>
					<labels><label2>Caribbean</label2></labels></clipitem>
					<clipitem id="clipitem-87">
						<masterclipid>clipitem-3-106</masterclipid>
						<name>Taylor_Swift_Travis_Kelce_-_The_New_Power_Couple.mp4</name>
						<enabled>TRUE</enabled>
						<duration>150</duration>
						<rate>
							<timebase>25</timebase>
							<ntsc>FALSE</ntsc>
						</rate>
						<start>172350</start>
						<end>172500</end>
						<in>15750</in>
						<out>15900</out>
						<pproTicksIn>0</pproTicksIn>
						<pproTicksOut>875013995520000</pproTicksOut>
						<alphatype>none</alphatype>
						<pixelaspectratio>square</pixelaspectratio>
						<anamorphic>FALSE</anamorphic>
						<file id="file-31">
							<name>Taylor_Swift_Travis_Kelce_-_The_New_Power_Couple.mp4</name>
							<pathurl>file://localhost/Users/themalikano/Documents/VideoAutomation/premiere_videos/Taylor_Swift_Travis_Kelce_-_The_New_Power_Couple.mp4</pathurl>
							<rate>
								<timebase>25</timebase>
								<ntsc>FALSE</ntsc>
							</rate>
							<duration>86118</duration>
							<timecode>
								<rate>
									<timebase>25</timebase>
									<ntsc>FALSE</ntsc>
								</rate>
								<string>00:00:00:00</string>
								<frame>0</frame>
								<displayformat>NDF</displayformat>
							</timecode>
							<media>
								<video>
									<samplecharacteristics>
										<rate>
											<timebase>25</timebase>
											<ntsc>FALSE</ntsc>
										</rate>
										<width>1920</width>
										<height>1080</height>
										<anamorphic>FALSE</anamorphic>
										<pixelaspectratio>square</pixelaspectratio>
										<fielddominance>none</fielddominance>
									</samplecharacteristics>
								</video>
								<audio>
									<samplecharacteristics>
										<depth>16</depth>
										<samplerate>44100</samplerate>
									</samplecharacteristics>
									<channelcount>2</channelcount>
								</audio>
							</media>
						</file>
						<link>
							<linkclipref>clipitem-87</linkclipref>
							<mediatype>video</mediatype>
							<trackindex>1</trackindex>
							<clipindex>3</clipindex>
						</link>
						<link>
							<linkclipref>clipitem-95</linkclipref>
							<mediatype>audio</mediatype>
							<trackindex>1</trackindex>
							<clipindex>3</clipindex>
							<groupindex>1</groupindex>
						</link>
						<link>
							<linkclipref>clipitem-103</linkclipref>
							<mediatype>audio</mediatype>
							<trackindex>2</trackindex>
							<clipindex>3</clipindex>
							<groupindex>1</groupindex>
						</link>
						<logginginfo>
							<description />
							<scene />
							<shottake />
							<lognote />
							<good />
							<originalvideofilename />
							<originalaudiofilename />
						</logginginfo>
						<colorinfo>
							<lut />
							<lut1 />
							<asc_sop />
							<asc_sat />
							<lut2 />
						</colorinfo>
					<labels><label2>Caribbean</label2></labels></clipitem>
					<clipitem id="clipitem-87">
						<masterclipid>clipitem-3-155</masterclipid>
						<name>Taylor_Swift_Travis_Kelce_-_The_New_Power_Couple.mp4</name>
						<enabled>TRUE</enabled>
						<duration>150</duration>
						<rate>
							<timebase>25</timebase>
							<ntsc>FALSE</ntsc>
						</rate>
						<start>172500</start>
						<end>172650</end>
						<in>23100</in>
						<out>23250</out>
						<pproTicksIn>0</pproTicksIn>
						<pproTicksOut>875013995520000</pproTicksOut>
						<alphatype>none</alphatype>
						<pixelaspectratio>square</pixelaspectratio>
						<anamorphic>FALSE</anamorphic>
						<file id="file-31">
							<name>Taylor_Swift_Travis_Kelce_-_The_New_Power_Couple.mp4</name>
							<pathurl>file://localhost/Users/themalikano/Documents/VideoAutomation/premiere_videos/Taylor_Swift_Travis_Kelce_-_The_New_Power_Couple.mp4</pathurl>
							<rate>
								<timebase>25</timebase>
								<ntsc>FALSE</ntsc>
							</rate>
							<duration>86118</duration>
							<timecode>
								<rate>
									<timebase>25</timebase>
									<ntsc>FALSE</ntsc>
								</rate>
								<string>00:00:00:00</string>
								<frame>0</frame>
								<displayformat>NDF</displayformat>
							</timecode>
							<media>
								<video>
									<samplecharacteristics>
										<rate>
											<timebase>25</timebase>
											<ntsc>FALSE</ntsc>
										</rate>
										<width>1920</width>
										<height>1080</height>
										<anamorphic>FALSE</anamorphic>
										<pixelaspectratio>square</pixelaspectratio>
										<fielddominance>none</fielddominance>
									</samplecharacteristics>
								</video>
								<audio>
									<samplecharacteristics>
										<depth>16</depth>
										<samplerate>44100</samplerate>
									</samplecharacteristics>
									<channelcount>2</channelcount>
								</audio>
							</media>
						</file>
						<link>
							<linkclipref>clipitem-87</linkclipref>
							<mediatype>video</mediatype>
							<trackindex>1</trackindex>
							<clipindex>3</clipindex>
						</link>
						<link>
							<linkclipref>clipitem-95</linkclipref>
							<mediatype>audio</mediatype>
							<trackindex>1</trackindex>
							<clipindex>3</clipindex>
							<groupindex>1</groupindex>
						</link>
						<link>
							<linkclipref>clipitem-103</linkclipref>
							<mediatype>audio</mediatype>
							<trackindex>2</trackindex>
							<clipindex>3</clipindex>
							<groupindex>1</groupindex>
						</link>
						<logginginfo>
							<description />
							<scene />
							<shottake />
							<lognote />
							<good />
							<originalvideofilename />
							<originalaudiofilename />
						</logginginfo>
						<colorinfo>
							<lut />
							<lut1 />
							<asc_sop />
							<asc_sat />
							<lut2 />
						</colorinfo>
					<labels><label2>Caribbean</label2></labels></clipitem>
					<clipitem id="clipitem-87">
						<masterclipid>clipitem-3-547</masterclipid>
						<name>Taylor_Swift_Travis_Kelce_-_The_New_Power_Couple.mp4</name>
						<enabled>TRUE</enabled>
						<duration>150</duration>
						<rate>
							<timebase>25</timebase>
							<ntsc>FALSE</ntsc>
						</rate>
						<start>172650</start>
						<end>172800</end>
						<in>81900</in>
						<out>82050</out>
						<pproTicksIn>0</pproTicksIn>
						<pproTicksOut>875013995520000</pproTicksOut>
						<alphatype>none</alphatype>
						<pixelaspectratio>square</pixelaspectratio>
						<anamorphic>FALSE</anamorphic>
						<file id="file-31">
							<name>Taylor_Swift_Travis_Kelce_-_The_New_Power_Couple.mp4</name>
							<pathurl>file://localhost/Users/themalikano/Documents/VideoAutomation/premiere_videos/Taylor_Swift_Travis_Kelce_-_The_New_Power_Couple.mp4</pathurl>
							<rate>
								<timebase>25</timebase>
								<ntsc>FALSE</ntsc>
							</rate>
							<duration>86118</duration>
							<timecode>
								<rate>
									<timebase>25</timebase>
									<ntsc>FALSE</ntsc>
								</rate>
								<string>00:00:00:00</string>
								<frame>0</frame>
								<displayformat>NDF</displayformat>
							</timecode>
							<media>
								<video>
									<samplecharacteristics>
										<rate>
											<timebase>25</timebase>
											<ntsc>FALSE</ntsc>
										</rate>
										<width>1920</width>
										<height>1080</height>
										<anamorphic>FALSE</anamorphic>
										<pixelaspectratio>square</pixelaspectratio>
										<fielddominance>none</fielddominance>
									</samplecharacteristics>
								</video>
								<audio>
									<samplecharacteristics>
										<depth>16</depth>
										<samplerate>44100</samplerate>
									</samplecharacteristics>
									<channelcount>2</channelcount>
								</audio>
							</media>
						</file>
						<link>
							<linkclipref>clipitem-87</linkclipref>
							<mediatype>video</mediatype>
							<trackindex>1</trackindex>
							<clipindex>3</clipindex>
						</link>
						<link>
							<linkclipref>clipitem-95</linkclipref>
							<mediatype>audio</mediatype>
							<trackindex>1</trackindex>
							<clipindex>3</clipindex>
							<groupindex>1</groupindex>
						</link>
						<link>
							<linkclipref>clipitem-103</linkclipref>
							<mediatype>audio</mediatype>
							<trackindex>2</trackindex>
							<clipindex>3</clipindex>
							<groupindex>1</groupindex>
						</link>
						<logginginfo>
							<description />
							<scene />
							<shottake />
							<lognote />
							<good />
							<originalvideofilename />
							<originalaudiofilename />
						</logginginfo>
						<colorinfo>
							<lut />
							<lut1 />
							<asc_sop />
							<asc_sat />
							<lut2 />
						</colorinfo>
					<labels><label2>Caribbean</label2></labels></clipitem>
					<clipitem id="clipitem-87">
						<masterclipid>clipitem-3-466</masterclipid>
						<name>Taylor_Swift_Travis_Kelce_-_The_New_Power_Couple.mp4</name>
						<enabled>TRUE</enabled>
						<duration>150</duration>
						<rate>
							<timebase>25</timebase>
							<ntsc>FALSE</ntsc>
						</rate>
						<start>172800</start>
						<end>172950</end>
						<in>69750</in>
						<out>69900</out>
						<pproTicksIn>0</pproTicksIn>
						<pproTicksOut>875013995520000</pproTicksOut>
						<alphatype>none</alphatype>
						<pixelaspectratio>square</pixelaspectratio>
						<anamorphic>FALSE</anamorphic>
						<file id="file-31">
							<name>Taylor_Swift_Travis_Kelce_-_The_New_Power_Couple.mp4</name>
							<pathurl>file://localhost/Users/themalikano/Documents/VideoAutomation/premiere_videos/Taylor_Swift_Travis_Kelce_-_The_New_Power_Couple.mp4</pathurl>
							<rate>
								<timebase>25</timebase>
								<ntsc>FALSE</ntsc>
							</rate>
							<duration>86118</duration>
							<timecode>
								<rate>
									<timebase>25</timebase>
									<ntsc>FALSE</ntsc>
								</rate>
								<string>00:00:00:00</string>
								<frame>0</frame>
								<displayformat>NDF</displayformat>
							</timecode>
							<media>
								<video>
									<samplecharacteristics>
										<rate>
											<timebase>25</timebase>
											<ntsc>FALSE</ntsc>
										</rate>
										<width>1920</width>
										<height>1080</height>
										<anamorphic>FALSE</anamorphic>
										<pixelaspectratio>square</pixelaspectratio>
										<fielddominance>none</fielddominance>
									</samplecharacteristics>
								</video>
								<audio>
									<samplecharacteristics>
										<depth>16</depth>
										<samplerate>44100</samplerate>
									</samplecharacteristics>
									<channelcount>2</channelcount>
								</audio>
							</media>
						</file>
						<link>
							<linkclipref>clipitem-87</linkclipref>
							<mediatype>video</mediatype>
							<trackindex>1</trackindex>
							<clipindex>3</clipindex>
						</link>
						<link>
							<linkclipref>clipitem-95</linkclipref>
							<mediatype>audio</mediatype>
							<trackindex>1</trackindex>
							<clipindex>3</clipindex>
							<groupindex>1</groupindex>
						</link>
						<link>
							<linkclipref>clipitem-103</linkclipref>
							<mediatype>audio</mediatype>
							<trackindex>2</trackindex>
							<clipindex>3</clipindex>
							<groupindex>1</groupindex>
						</link>
						<logginginfo>
							<description />
							<scene />
							<shottake />
							<lognote />
							<good />
							<originalvideofilename />
							<originalaudiofilename />
						</logginginfo>
						<colorinfo>
							<lut />
							<lut1 />
							<asc_sop />
							<asc_sat />
							<lut2 />
						</colorinfo>
					<labels><label2>Caribbean</label2></labels></clipitem>
					<clipitem id="clipitem-87">
						<masterclipid>clipitem-3-537</masterclipid>
						<name>Taylor_Swift_Travis_Kelce_-_The_New_Power_Couple.mp4</name>
						<enabled>TRUE</enabled>
						<duration>150</duration>
						<rate>
							<timebase>25</timebase>
							<ntsc>FALSE</ntsc>
						</rate>
						<start>172950</start>
						<end>173100</end>
						<in>80400</in>
						<out>80550</out>
						<pproTicksIn>0</pproTicksIn>
						<pproTicksOut>875013995520000</pproTicksOut>
						<alphatype>none</alphatype>
						<pixelaspectratio>square</pixelaspectratio>
						<anamorphic>FALSE</anamorphic>
						<file id="file-31">
							<name>Taylor_Swift_Travis_Kelce_-_The_New_Power_Couple.mp4</name>
							<pathurl>file://localhost/Users/themalikano/Documents/VideoAutomation/premiere_videos/Taylor_Swift_Travis_Kelce_-_The_New_Power_Couple.mp4</pathurl>
							<rate>
								<timebase>25</timebase>
								<ntsc>FALSE</ntsc>
							</rate>
							<duration>86118</duration>
							<timecode>
								<rate>
									<timebase>25</timebase>
									<ntsc>FALSE</ntsc>
								</rate>
								<string>00:00:00:00</string>
								<frame>0</frame>
								<displayformat>NDF</displayformat>
							</timecode>
							<media>
								<video>
									<samplecharacteristics>
										<rate>
											<timebase>25</timebase>
											<ntsc>FALSE</ntsc>
										</rate>
										<width>1920</width>
										<height>1080</height>
										<anamorphic>FALSE</anamorphic>
										<pixelaspectratio>square</pixelaspectratio>
										<fielddominance>none</fielddominance>
									</samplecharacteristics>
								</video>
								<audio>
									<samplecharacteristics>
										<depth>16</depth>
										<samplerate>44100</samplerate>
									</samplecharacteristics>
									<channelcount>2</channelcount>
								</audio>
							</media>
						</file>
						<link>
							<linkclipref>clipitem-87</linkclipref>
							<mediatype>video</mediatype>
							<trackindex>1</trackindex>
							<clipindex>3</clipindex>
						</link>
						<link>
							<linkclipref>clipitem-95</linkclipref>
							<mediatype>audio</mediatype>
							<trackindex>1</trackindex>
							<clipindex>3</clipindex>
							<groupindex>1</groupindex>
						</link>
						<link>
							<linkclipref>clipitem-103</linkclipref>
							<mediatype>audio</mediatype>
							<trackindex>2</trackindex>
							<clipindex>3</clipindex>
							<groupindex>1</groupindex>
						</link>
						<logginginfo>
							<description />
							<scene />
							<shottake />
							<lognote />
							<good />
							<originalvideofilename />
							<originalaudiofilename />
						</logginginfo>
						<colorinfo>
							<lut />
							<lut1 />
							<asc_sop />
							<asc_sat />
							<lut2 />
						</colorinfo>
					<labels><label2>Caribbean</label2></labels></clipitem>
					<clipitem id="clipitem-87">
						<masterclipid>clipitem-3-424</masterclipid>
						<name>Taylor_Swift_Travis_Kelce_-_The_New_Power_Couple.mp4</name>
						<enabled>TRUE</enabled>
						<duration>150</duration>
						<rate>
							<timebase>25</timebase>
							<ntsc>FALSE</ntsc>
						</rate>
						<start>173100</start>
						<end>173250</end>
						<in>63450</in>
						<out>63600</out>
						<pproTicksIn>0</pproTicksIn>
						<pproTicksOut>875013995520000</pproTicksOut>
						<alphatype>none</alphatype>
						<pixelaspectratio>square</pixelaspectratio>
						<anamorphic>FALSE</anamorphic>
						<file id="file-31">
							<name>Taylor_Swift_Travis_Kelce_-_The_New_Power_Couple.mp4</name>
							<pathurl>file://localhost/Users/themalikano/Documents/VideoAutomation/premiere_videos/Taylor_Swift_Travis_Kelce_-_The_New_Power_Couple.mp4</pathurl>
							<rate>
								<timebase>25</timebase>
								<ntsc>FALSE</ntsc>
							</rate>
							<duration>86118</duration>
							<timecode>
								<rate>
									<timebase>25</timebase>
									<ntsc>FALSE</ntsc>
								</rate>
								<string>00:00:00:00</string>
								<frame>0</frame>
								<displayformat>NDF</displayformat>
							</timecode>
							<media>
								<video>
									<samplecharacteristics>
										<rate>
											<timebase>25</timebase>
											<ntsc>FALSE</ntsc>
										</rate>
										<width>1920</width>
										<height>1080</height>
										<anamorphic>FALSE</anamorphic>
										<pixelaspectratio>square</pixelaspectratio>
										<fielddominance>none</fielddominance>
									</samplecharacteristics>
								</video>
								<audio>
									<samplecharacteristics>
										<depth>16</depth>
										<samplerate>44100</samplerate>
									</samplecharacteristics>
									<channelcount>2</channelcount>
								</audio>
							</media>
						</file>
						<link>
							<linkclipref>clipitem-87</linkclipref>
							<mediatype>video</mediatype>
							<trackindex>1</trackindex>
							<clipindex>3</clipindex>
						</link>
						<link>
							<linkclipref>clipitem-95</linkclipref>
							<mediatype>audio</mediatype>
							<trackindex>1</trackindex>
							<clipindex>3</clipindex>
							<groupindex>1</groupindex>
						</link>
						<link>
							<linkclipref>clipitem-103</linkclipref>
							<mediatype>audio</mediatype>
							<trackindex>2</trackindex>
							<clipindex>3</clipindex>
							<groupindex>1</groupindex>
						</link>
						<logginginfo>
							<description />
							<scene />
							<shottake />
							<lognote />
							<good />
							<originalvideofilename />
							<originalaudiofilename />
						</logginginfo>
						<colorinfo>
							<lut />
							<lut1 />
							<asc_sop />
							<asc_sat />
							<lut2 />
						</colorinfo>
					<labels><label2>Caribbean</label2></labels></clipitem>
					<clipitem id="clipitem-87">
						<masterclipid>clipitem-3-402</masterclipid>
						<name>Taylor_Swift_Travis_Kelce_-_The_New_Power_Couple.mp4</name>
						<enabled>TRUE</enabled>
						<duration>150</duration>
						<rate>
							<timebase>25</timebase>
							<ntsc>FALSE</ntsc>
						</rate>
						<start>173250</start>
						<end>173400</end>
						<in>60150</in>
						<out>60300</out>
						<pproTicksIn>0</pproTicksIn>
						<pproTicksOut>875013995520000</pproTicksOut>
						<alphatype>none</alphatype>
						<pixelaspectratio>square</pixelaspectratio>
						<anamorphic>FALSE</anamorphic>
						<file id="file-31">
							<name>Taylor_Swift_Travis_Kelce_-_The_New_Power_Couple.mp4</name>
							<pathurl>file://localhost/Users/themalikano/Documents/VideoAutomation/premiere_videos/Taylor_Swift_Travis_Kelce_-_The_New_Power_Couple.mp4</pathurl>
							<rate>
								<timebase>25</timebase>
								<ntsc>FALSE</ntsc>
							</rate>
							<duration>86118</duration>
							<timecode>
								<rate>
									<timebase>25</timebase>
									<ntsc>FALSE</ntsc>
								</rate>
								<string>00:00:00:00</string>
								<frame>0</frame>
								<displayformat>NDF</displayformat>
							</timecode>
							<media>
								<video>
									<samplecharacteristics>
										<rate>
											<timebase>25</timebase>
											<ntsc>FALSE</ntsc>
										</rate>
										<width>1920</width>
										<height>1080</height>
										<anamorphic>FALSE</anamorphic>
										<pixelaspectratio>square</pixelaspectratio>
										<fielddominance>none</fielddominance>
									</samplecharacteristics>
								</video>
								<audio>
									<samplecharacteristics>
										<depth>16</depth>
										<samplerate>44100</samplerate>
									</samplecharacteristics>
									<channelcount>2</channelcount>
								</audio>
							</media>
						</file>
						<link>
							<linkclipref>clipitem-87</linkclipref>
							<mediatype>video</mediatype>
							<trackindex>1</trackindex>
							<clipindex>3</clipindex>
						</link>
						<link>
							<linkclipref>clipitem-95</linkclipref>
							<mediatype>audio</mediatype>
							<trackindex>1</trackindex>
							<clipindex>3</clipindex>
							<groupindex>1</groupindex>
						</link>
						<link>
							<linkclipref>clipitem-103</linkclipref>
							<mediatype>audio</mediatype>
							<trackindex>2</trackindex>
							<clipindex>3</clipindex>
							<groupindex>1</groupindex>
						</link>
						<logginginfo>
							<description />
							<scene />
							<shottake />
							<lognote />
							<good />
							<originalvideofilename />
							<originalaudiofilename />
						</logginginfo>
						<colorinfo>
							<lut />
							<lut1 />
							<asc_sop />
							<asc_sat />
							<lut2 />
						</colorinfo>
					<labels><label2>Caribbean</label2></labels></clipitem>
					<clipitem id="clipitem-87">
						<masterclipid>clipitem-3-146</masterclipid>
						<name>Taylor_Swift_Travis_Kelce_-_The_New_Power_Couple.mp4</name>
						<enabled>TRUE</enabled>
						<duration>150</duration>
						<rate>
							<timebase>25</timebase>
							<ntsc>FALSE</ntsc>
						</rate>
						<start>173400</start>
						<end>173550</end>
						<in>21750</in>
						<out>21900</out>
						<pproTicksIn>0</pproTicksIn>
						<pproTicksOut>875013995520000</pproTicksOut>
						<alphatype>none</alphatype>
						<pixelaspectratio>square</pixelaspectratio>
						<anamorphic>FALSE</anamorphic>
						<file id="file-31">
							<name>Taylor_Swift_Travis_Kelce_-_The_New_Power_Couple.mp4</name>
							<pathurl>file://localhost/Users/themalikano/Documents/VideoAutomation/premiere_videos/Taylor_Swift_Travis_Kelce_-_The_New_Power_Couple.mp4</pathurl>
							<rate>
								<timebase>25</timebase>
								<ntsc>FALSE</ntsc>
							</rate>
							<duration>86118</duration>
							<timecode>
								<rate>
									<timebase>25</timebase>
									<ntsc>FALSE</ntsc>
								</rate>
								<string>00:00:00:00</string>
								<frame>0</frame>
								<displayformat>NDF</displayformat>
							</timecode>
							<media>
								<video>
									<samplecharacteristics>
										<rate>
											<timebase>25</timebase>
											<ntsc>FALSE</ntsc>
										</rate>
										<width>1920</width>
										<height>1080</height>
										<anamorphic>FALSE</anamorphic>
										<pixelaspectratio>square</pixelaspectratio>
										<fielddominance>none</fielddominance>
									</samplecharacteristics>
								</video>
								<audio>
									<samplecharacteristics>
										<depth>16</depth>
										<samplerate>44100</samplerate>
									</samplecharacteristics>
									<channelcount>2</channelcount>
								</audio>
							</media>
						</file>
						<link>
							<linkclipref>clipitem-87</linkclipref>
							<mediatype>video</mediatype>
							<trackindex>1</trackindex>
							<clipindex>3</clipindex>
						</link>
						<link>
							<linkclipref>clipitem-95</linkclipref>
							<mediatype>audio</mediatype>
							<trackindex>1</trackindex>
							<clipindex>3</clipindex>
							<groupindex>1</groupindex>
						</link>
						<link>
							<linkclipref>clipitem-103</linkclipref>
							<mediatype>audio</mediatype>
							<trackindex>2</trackindex>
							<clipindex>3</clipindex>
							<groupindex>1</groupindex>
						</link>
						<logginginfo>
							<description />
							<scene />
							<shottake />
							<lognote />
							<good />
							<originalvideofilename />
							<originalaudiofilename />
						</logginginfo>
						<colorinfo>
							<lut />
							<lut1 />
							<asc_sop />
							<asc_sat />
							<lut2 />
						</colorinfo>
					<labels><label2>Caribbean</label2></labels></clipitem>
					<clipitem id="clipitem-87">
						<masterclipid>clipitem-3-566</masterclipid>
						<name>Taylor_Swift_Travis_Kelce_-_The_New_Power_Couple.mp4</name>
						<enabled>TRUE</enabled>
						<duration>150</duration>
						<rate>
							<timebase>25</timebase>
							<ntsc>FALSE</ntsc>
						</rate>
						<start>173550</start>
						<end>173700</end>
						<in>84750</in>
						<out>84900</out>
						<pproTicksIn>0</pproTicksIn>
						<pproTicksOut>875013995520000</pproTicksOut>
						<alphatype>none</alphatype>
						<pixelaspectratio>square</pixelaspectratio>
						<anamorphic>FALSE</anamorphic>
						<file id="file-31">
							<name>Taylor_Swift_Travis_Kelce_-_The_New_Power_Couple.mp4</name>
							<pathurl>file://localhost/Users/themalikano/Documents/VideoAutomation/premiere_videos/Taylor_Swift_Travis_Kelce_-_The_New_Power_Couple.mp4</pathurl>
							<rate>
								<timebase>25</timebase>
								<ntsc>FALSE</ntsc>
							</rate>
							<duration>86118</duration>
							<timecode>
								<rate>
									<timebase>25</timebase>
									<ntsc>FALSE</ntsc>
								</rate>
								<string>00:00:00:00</string>
								<frame>0</frame>
								<displayformat>NDF</displayformat>
							</timecode>
							<media>
								<video>
									<samplecharacteristics>
										<rate>
											<timebase>25</timebase>
											<ntsc>FALSE</ntsc>
										</rate>
										<width>1920</width>
										<height>1080</height>
										<anamorphic>FALSE</anamorphic>
										<pixelaspectratio>square</pixelaspectratio>
										<fielddominance>none</fielddominance>
									</samplecharacteristics>
								</video>
								<audio>
									<samplecharacteristics>
										<depth>16</depth>
										<samplerate>44100</samplerate>
									</samplecharacteristics>
									<channelcount>2</channelcount>
								</audio>
							</media>
						</file>
						<link>
							<linkclipref>clipitem-87</linkclipref>
							<mediatype>video</mediatype>
							<trackindex>1</trackindex>
							<clipindex>3</clipindex>
						</link>
						<link>
							<linkclipref>clipitem-95</linkclipref>
							<mediatype>audio</mediatype>
							<trackindex>1</trackindex>
							<clipindex>3</clipindex>
							<groupindex>1</groupindex>
						</link>
						<link>
							<linkclipref>clipitem-103</linkclipref>
							<mediatype>audio</mediatype>
							<trackindex>2</trackindex>
							<clipindex>3</clipindex>
							<groupindex>1</groupindex>
						</link>
						<logginginfo>
							<description />
							<scene />
							<shottake />
							<lognote />
							<good />
							<originalvideofilename />
							<originalaudiofilename />
						</logginginfo>
						<colorinfo>
							<lut />
							<lut1 />
							<asc_sop />
							<asc_sat />
							<lut2 />
						</colorinfo>
					<labels><label2>Caribbean</label2></labels></clipitem>
					<clipitem id="clipitem-87">
						<masterclipid>clipitem-3-407</masterclipid>
						<name>Taylor_Swift_Travis_Kelce_-_The_New_Power_Couple.mp4</name>
						<enabled>TRUE</enabled>
						<duration>150</duration>
						<rate>
							<timebase>25</timebase>
							<ntsc>FALSE</ntsc>
						</rate>
						<start>173700</start>
						<end>173850</end>
						<in>60900</in>
						<out>61050</out>
						<pproTicksIn>0</pproTicksIn>
						<pproTicksOut>875013995520000</pproTicksOut>
						<alphatype>none</alphatype>
						<pixelaspectratio>square</pixelaspectratio>
						<anamorphic>FALSE</anamorphic>
						<file id="file-31">
							<name>Taylor_Swift_Travis_Kelce_-_The_New_Power_Couple.mp4</name>
							<pathurl>file://localhost/Users/themalikano/Documents/VideoAutomation/premiere_videos/Taylor_Swift_Travis_Kelce_-_The_New_Power_Couple.mp4</pathurl>
							<rate>
								<timebase>25</timebase>
								<ntsc>FALSE</ntsc>
							</rate>
							<duration>86118</duration>
							<timecode>
								<rate>
									<timebase>25</timebase>
									<ntsc>FALSE</ntsc>
								</rate>
								<string>00:00:00:00</string>
								<frame>0</frame>
								<displayformat>NDF</displayformat>
							</timecode>
							<media>
								<video>
									<samplecharacteristics>
										<rate>
											<timebase>25</timebase>
											<ntsc>FALSE</ntsc>
										</rate>
										<width>1920</width>
										<height>1080</height>
										<anamorphic>FALSE</anamorphic>
										<pixelaspectratio>square</pixelaspectratio>
										<fielddominance>none</fielddominance>
									</samplecharacteristics>
								</video>
								<audio>
									<samplecharacteristics>
										<depth>16</depth>
										<samplerate>44100</samplerate>
									</samplecharacteristics>
									<channelcount>2</channelcount>
								</audio>
							</media>
						</file>
						<link>
							<linkclipref>clipitem-87</linkclipref>
							<mediatype>video</mediatype>
							<trackindex>1</trackindex>
							<clipindex>3</clipindex>
						</link>
						<link>
							<linkclipref>clipitem-95</linkclipref>
							<mediatype>audio</mediatype>
							<trackindex>1</trackindex>
							<clipindex>3</clipindex>
							<groupindex>1</groupindex>
						</link>
						<link>
							<linkclipref>clipitem-103</linkclipref>
							<mediatype>audio</mediatype>
							<trackindex>2</trackindex>
							<clipindex>3</clipindex>
							<groupindex>1</groupindex>
						</link>
						<logginginfo>
							<description />
							<scene />
							<shottake />
							<lognote />
							<good />
							<originalvideofilename />
							<originalaudiofilename />
						</logginginfo>
						<colorinfo>
							<lut />
							<lut1 />
							<asc_sop />
							<asc_sat />
							<lut2 />
						</colorinfo>
					<labels><label2>Caribbean</label2></labels></clipitem>
					<clipitem id="clipitem-87">
						<masterclipid>clipitem-3-567</masterclipid>
						<name>Taylor_Swift_Travis_Kelce_-_The_New_Power_Couple.mp4</name>
						<enabled>TRUE</enabled>
						<duration>150</duration>
						<rate>
							<timebase>25</timebase>
							<ntsc>FALSE</ntsc>
						</rate>
						<start>173850</start>
						<end>174000</end>
						<in>84900</in>
						<out>85050</out>
						<pproTicksIn>0</pproTicksIn>
						<pproTicksOut>875013995520000</pproTicksOut>
						<alphatype>none</alphatype>
						<pixelaspectratio>square</pixelaspectratio>
						<anamorphic>FALSE</anamorphic>
						<file id="file-31">
							<name>Taylor_Swift_Travis_Kelce_-_The_New_Power_Couple.mp4</name>
							<pathurl>file://localhost/Users/themalikano/Documents/VideoAutomation/premiere_videos/Taylor_Swift_Travis_Kelce_-_The_New_Power_Couple.mp4</pathurl>
							<rate>
								<timebase>25</timebase>
								<ntsc>FALSE</ntsc>
							</rate>
							<duration>86118</duration>
							<timecode>
								<rate>
									<timebase>25</timebase>
									<ntsc>FALSE</ntsc>
								</rate>
								<string>00:00:00:00</string>
								<frame>0</frame>
								<displayformat>NDF</displayformat>
							</timecode>
							<media>
								<video>
									<samplecharacteristics>
										<rate>
											<timebase>25</timebase>
											<ntsc>FALSE</ntsc>
										</rate>
										<width>1920</width>
										<height>1080</height>
										<anamorphic>FALSE</anamorphic>
										<pixelaspectratio>square</pixelaspectratio>
										<fielddominance>none</fielddominance>
									</samplecharacteristics>
								</video>
								<audio>
									<samplecharacteristics>
										<depth>16</depth>
										<samplerate>44100</samplerate>
									</samplecharacteristics>
									<channelcount>2</channelcount>
								</audio>
							</media>
						</file>
						<link>
							<linkclipref>clipitem-87</linkclipref>
							<mediatype>video</mediatype>
							<trackindex>1</trackindex>
							<clipindex>3</clipindex>
						</link>
						<link>
							<linkclipref>clipitem-95</linkclipref>
							<mediatype>audio</mediatype>
							<trackindex>1</trackindex>
							<clipindex>3</clipindex>
							<groupindex>1</groupindex>
						</link>
						<link>
							<linkclipref>clipitem-103</linkclipref>
							<mediatype>audio</mediatype>
							<trackindex>2</trackindex>
							<clipindex>3</clipindex>
							<groupindex>1</groupindex>
						</link>
						<logginginfo>
							<description />
							<scene />
							<shottake />
							<lognote />
							<good />
							<originalvideofilename />
							<originalaudiofilename />
						</logginginfo>
						<colorinfo>
							<lut />
							<lut1 />
							<asc_sop />
							<asc_sat />
							<lut2 />
						</colorinfo>
					<labels><label2>Caribbean</label2></labels></clipitem>
					<clipitem id="clipitem-87">
						<masterclipid>clipitem-3-226</masterclipid>
						<name>Taylor_Swift_Travis_Kelce_-_The_New_Power_Couple.mp4</name>
						<enabled>TRUE</enabled>
						<duration>150</duration>
						<rate>
							<timebase>25</timebase>
							<ntsc>FALSE</ntsc>
						</rate>
						<start>174000</start>
						<end>174150</end>
						<in>33750</in>
						<out>33900</out>
						<pproTicksIn>0</pproTicksIn>
						<pproTicksOut>875013995520000</pproTicksOut>
						<alphatype>none</alphatype>
						<pixelaspectratio>square</pixelaspectratio>
						<anamorphic>FALSE</anamorphic>
						<file id="file-31">
							<name>Taylor_Swift_Travis_Kelce_-_The_New_Power_Couple.mp4</name>
							<pathurl>file://localhost/Users/themalikano/Documents/VideoAutomation/premiere_videos/Taylor_Swift_Travis_Kelce_-_The_New_Power_Couple.mp4</pathurl>
							<rate>
								<timebase>25</timebase>
								<ntsc>FALSE</ntsc>
							</rate>
							<duration>86118</duration>
							<timecode>
								<rate>
									<timebase>25</timebase>
									<ntsc>FALSE</ntsc>
								</rate>
								<string>00:00:00:00</string>
								<frame>0</frame>
								<displayformat>NDF</displayformat>
							</timecode>
							<media>
								<video>
									<samplecharacteristics>
										<rate>
											<timebase>25</timebase>
											<ntsc>FALSE</ntsc>
										</rate>
										<width>1920</width>
										<height>1080</height>
										<anamorphic>FALSE</anamorphic>
										<pixelaspectratio>square</pixelaspectratio>
										<fielddominance>none</fielddominance>
									</samplecharacteristics>
								</video>
								<audio>
									<samplecharacteristics>
										<depth>16</depth>
										<samplerate>44100</samplerate>
									</samplecharacteristics>
									<channelcount>2</channelcount>
								</audio>
							</media>
						</file>
						<link>
							<linkclipref>clipitem-87</linkclipref>
							<mediatype>video</mediatype>
							<trackindex>1</trackindex>
							<clipindex>3</clipindex>
						</link>
						<link>
							<linkclipref>clipitem-95</linkclipref>
							<mediatype>audio</mediatype>
							<trackindex>1</trackindex>
							<clipindex>3</clipindex>
							<groupindex>1</groupindex>
						</link>
						<link>
							<linkclipref>clipitem-103</linkclipref>
							<mediatype>audio</mediatype>
							<trackindex>2</trackindex>
							<clipindex>3</clipindex>
							<groupindex>1</groupindex>
						</link>
						<logginginfo>
							<description />
							<scene />
							<shottake />
							<lognote />
							<good />
							<originalvideofilename />
							<originalaudiofilename />
						</logginginfo>
						<colorinfo>
							<lut />
							<lut1 />
							<asc_sop />
							<asc_sat />
							<lut2 />
						</colorinfo>
					<labels><label2>Caribbean</label2></labels></clipitem>
					<clipitem id="clipitem-87">
						<masterclipid>clipitem-3-363</masterclipid>
						<name>Taylor_Swift_Travis_Kelce_-_The_New_Power_Couple.mp4</name>
						<enabled>TRUE</enabled>
						<duration>150</duration>
						<rate>
							<timebase>25</timebase>
							<ntsc>FALSE</ntsc>
						</rate>
						<start>174150</start>
						<end>174300</end>
						<in>54300</in>
						<out>54450</out>
						<pproTicksIn>0</pproTicksIn>
						<pproTicksOut>875013995520000</pproTicksOut>
						<alphatype>none</alphatype>
						<pixelaspectratio>square</pixelaspectratio>
						<anamorphic>FALSE</anamorphic>
						<file id="file-31">
							<name>Taylor_Swift_Travis_Kelce_-_The_New_Power_Couple.mp4</name>
							<pathurl>file://localhost/Users/themalikano/Documents/VideoAutomation/premiere_videos/Taylor_Swift_Travis_Kelce_-_The_New_Power_Couple.mp4</pathurl>
							<rate>
								<timebase>25</timebase>
								<ntsc>FALSE</ntsc>
							</rate>
							<duration>86118</duration>
							<timecode>
								<rate>
									<timebase>25</timebase>
									<ntsc>FALSE</ntsc>
								</rate>
								<string>00:00:00:00</string>
								<frame>0</frame>
								<displayformat>NDF</displayformat>
							</timecode>
							<media>
								<video>
									<samplecharacteristics>
										<rate>
											<timebase>25</timebase>
											<ntsc>FALSE</ntsc>
										</rate>
										<width>1920</width>
										<height>1080</height>
										<anamorphic>FALSE</anamorphic>
										<pixelaspectratio>square</pixelaspectratio>
										<fielddominance>none</fielddominance>
									</samplecharacteristics>
								</video>
								<audio>
									<samplecharacteristics>
										<depth>16</depth>
										<samplerate>44100</samplerate>
									</samplecharacteristics>
									<channelcount>2</channelcount>
								</audio>
							</media>
						</file>
						<link>
							<linkclipref>clipitem-87</linkclipref>
							<mediatype>video</mediatype>
							<trackindex>1</trackindex>
							<clipindex>3</clipindex>
						</link>
						<link>
							<linkclipref>clipitem-95</linkclipref>
							<mediatype>audio</mediatype>
							<trackindex>1</trackindex>
							<clipindex>3</clipindex>
							<groupindex>1</groupindex>
						</link>
						<link>
							<linkclipref>clipitem-103</linkclipref>
							<mediatype>audio</mediatype>
							<trackindex>2</trackindex>
							<clipindex>3</clipindex>
							<groupindex>1</groupindex>
						</link>
						<logginginfo>
							<description />
							<scene />
							<shottake />
							<lognote />
							<good />
							<originalvideofilename />
							<originalaudiofilename />
						</logginginfo>
						<colorinfo>
							<lut />
							<lut1 />
							<asc_sop />
							<asc_sat />
							<lut2 />
						</colorinfo>
					<labels><label2>Caribbean</label2></labels></clipitem>
					<clipitem id="clipitem-87">
						<masterclipid>clipitem-3-378</masterclipid>
						<name>Taylor_Swift_Travis_Kelce_-_The_New_Power_Couple.mp4</name>
						<enabled>TRUE</enabled>
						<duration>150</duration>
						<rate>
							<timebase>25</timebase>
							<ntsc>FALSE</ntsc>
						</rate>
						<start>174300</start>
						<end>174450</end>
						<in>56550</in>
						<out>56700</out>
						<pproTicksIn>0</pproTicksIn>
						<pproTicksOut>875013995520000</pproTicksOut>
						<alphatype>none</alphatype>
						<pixelaspectratio>square</pixelaspectratio>
						<anamorphic>FALSE</anamorphic>
						<file id="file-31">
							<name>Taylor_Swift_Travis_Kelce_-_The_New_Power_Couple.mp4</name>
							<pathurl>file://localhost/Users/themalikano/Documents/VideoAutomation/premiere_videos/Taylor_Swift_Travis_Kelce_-_The_New_Power_Couple.mp4</pathurl>
							<rate>
								<timebase>25</timebase>
								<ntsc>FALSE</ntsc>
							</rate>
							<duration>86118</duration>
							<timecode>
								<rate>
									<timebase>25</timebase>
									<ntsc>FALSE</ntsc>
								</rate>
								<string>00:00:00:00</string>
								<frame>0</frame>
								<displayformat>NDF</displayformat>
							</timecode>
							<media>
								<video>
									<samplecharacteristics>
										<rate>
											<timebase>25</timebase>
											<ntsc>FALSE</ntsc>
										</rate>
										<width>1920</width>
										<height>1080</height>
										<anamorphic>FALSE</anamorphic>
										<pixelaspectratio>square</pixelaspectratio>
										<fielddominance>none</fielddominance>
									</samplecharacteristics>
								</video>
								<audio>
									<samplecharacteristics>
										<depth>16</depth>
										<samplerate>44100</samplerate>
									</samplecharacteristics>
									<channelcount>2</channelcount>
								</audio>
							</media>
						</file>
						<link>
							<linkclipref>clipitem-87</linkclipref>
							<mediatype>video</mediatype>
							<trackindex>1</trackindex>
							<clipindex>3</clipindex>
						</link>
						<link>
							<linkclipref>clipitem-95</linkclipref>
							<mediatype>audio</mediatype>
							<trackindex>1</trackindex>
							<clipindex>3</clipindex>
							<groupindex>1</groupindex>
						</link>
						<link>
							<linkclipref>clipitem-103</linkclipref>
							<mediatype>audio</mediatype>
							<trackindex>2</trackindex>
							<clipindex>3</clipindex>
							<groupindex>1</groupindex>
						</link>
						<logginginfo>
							<description />
							<scene />
							<shottake />
							<lognote />
							<good />
							<originalvideofilename />
							<originalaudiofilename />
						</logginginfo>
						<colorinfo>
							<lut />
							<lut1 />
							<asc_sop />
							<asc_sat />
							<lut2 />
						</colorinfo>
					<labels><label2>Caribbean</label2></labels></clipitem>
					<clipitem id="clipitem-87">
						<masterclipid>clipitem-3-516</masterclipid>
						<name>Taylor_Swift_Travis_Kelce_-_The_New_Power_Couple.mp4</name>
						<enabled>TRUE</enabled>
						<duration>150</duration>
						<rate>
							<timebase>25</timebase>
							<ntsc>FALSE</ntsc>
						</rate>
						<start>174450</start>
						<end>174600</end>
						<in>77250</in>
						<out>77400</out>
						<pproTicksIn>0</pproTicksIn>
						<pproTicksOut>875013995520000</pproTicksOut>
						<alphatype>none</alphatype>
						<pixelaspectratio>square</pixelaspectratio>
						<anamorphic>FALSE</anamorphic>
						<file id="file-31">
							<name>Taylor_Swift_Travis_Kelce_-_The_New_Power_Couple.mp4</name>
							<pathurl>file://localhost/Users/themalikano/Documents/VideoAutomation/premiere_videos/Taylor_Swift_Travis_Kelce_-_The_New_Power_Couple.mp4</pathurl>
							<rate>
								<timebase>25</timebase>
								<ntsc>FALSE</ntsc>
							</rate>
							<duration>86118</duration>
							<timecode>
								<rate>
									<timebase>25</timebase>
									<ntsc>FALSE</ntsc>
								</rate>
								<string>00:00:00:00</string>
								<frame>0</frame>
								<displayformat>NDF</displayformat>
							</timecode>
							<media>
								<video>
									<samplecharacteristics>
										<rate>
											<timebase>25</timebase>
											<ntsc>FALSE</ntsc>
										</rate>
										<width>1920</width>
										<height>1080</height>
										<anamorphic>FALSE</anamorphic>
										<pixelaspectratio>square</pixelaspectratio>
										<fielddominance>none</fielddominance>
									</samplecharacteristics>
								</video>
								<audio>
									<samplecharacteristics>
										<depth>16</depth>
										<samplerate>44100</samplerate>
									</samplecharacteristics>
									<channelcount>2</channelcount>
								</audio>
							</media>
						</file>
						<link>
							<linkclipref>clipitem-87</linkclipref>
							<mediatype>video</mediatype>
							<trackindex>1</trackindex>
							<clipindex>3</clipindex>
						</link>
						<link>
							<linkclipref>clipitem-95</linkclipref>
							<mediatype>audio</mediatype>
							<trackindex>1</trackindex>
							<clipindex>3</clipindex>
							<groupindex>1</groupindex>
						</link>
						<link>
							<linkclipref>clipitem-103</linkclipref>
							<mediatype>audio</mediatype>
							<trackindex>2</trackindex>
							<clipindex>3</clipindex>
							<groupindex>1</groupindex>
						</link>
						<logginginfo>
							<description />
							<scene />
							<shottake />
							<lognote />
							<good />
							<originalvideofilename />
							<originalaudiofilename />
						</logginginfo>
						<colorinfo>
							<lut />
							<lut1 />
							<asc_sop />
							<asc_sat />
							<lut2 />
						</colorinfo>
					<labels><label2>Caribbean</label2></labels></clipitem>
					<clipitem id="clipitem-87">
						<masterclipid>clipitem-3-121</masterclipid>
						<name>Taylor_Swift_Travis_Kelce_-_The_New_Power_Couple.mp4</name>
						<enabled>TRUE</enabled>
						<duration>150</duration>
						<rate>
							<timebase>25</timebase>
							<ntsc>FALSE</ntsc>
						</rate>
						<start>174600</start>
						<end>174750</end>
						<in>18000</in>
						<out>18150</out>
						<pproTicksIn>0</pproTicksIn>
						<pproTicksOut>875013995520000</pproTicksOut>
						<alphatype>none</alphatype>
						<pixelaspectratio>square</pixelaspectratio>
						<anamorphic>FALSE</anamorphic>
						<file id="file-31">
							<name>Taylor_Swift_Travis_Kelce_-_The_New_Power_Couple.mp4</name>
							<pathurl>file://localhost/Users/themalikano/Documents/VideoAutomation/premiere_videos/Taylor_Swift_Travis_Kelce_-_The_New_Power_Couple.mp4</pathurl>
							<rate>
								<timebase>25</timebase>
								<ntsc>FALSE</ntsc>
							</rate>
							<duration>86118</duration>
							<timecode>
								<rate>
									<timebase>25</timebase>
									<ntsc>FALSE</ntsc>
								</rate>
								<string>00:00:00:00</string>
								<frame>0</frame>
								<displayformat>NDF</displayformat>
							</timecode>
							<media>
								<video>
									<samplecharacteristics>
										<rate>
											<timebase>25</timebase>
											<ntsc>FALSE</ntsc>
										</rate>
										<width>1920</width>
										<height>1080</height>
										<anamorphic>FALSE</anamorphic>
										<pixelaspectratio>square</pixelaspectratio>
										<fielddominance>none</fielddominance>
									</samplecharacteristics>
								</video>
								<audio>
									<samplecharacteristics>
										<depth>16</depth>
										<samplerate>44100</samplerate>
									</samplecharacteristics>
									<channelcount>2</channelcount>
								</audio>
							</media>
						</file>
						<link>
							<linkclipref>clipitem-87</linkclipref>
							<mediatype>video</mediatype>
							<trackindex>1</trackindex>
							<clipindex>3</clipindex>
						</link>
						<link>
							<linkclipref>clipitem-95</linkclipref>
							<mediatype>audio</mediatype>
							<trackindex>1</trackindex>
							<clipindex>3</clipindex>
							<groupindex>1</groupindex>
						</link>
						<link>
							<linkclipref>clipitem-103</linkclipref>
							<mediatype>audio</mediatype>
							<trackindex>2</trackindex>
							<clipindex>3</clipindex>
							<groupindex>1</groupindex>
						</link>
						<logginginfo>
							<description />
							<scene />
							<shottake />
							<lognote />
							<good />
							<originalvideofilename />
							<originalaudiofilename />
						</logginginfo>
						<colorinfo>
							<lut />
							<lut1 />
							<asc_sop />
							<asc_sat />
							<lut2 />
						</colorinfo>
					<labels><label2>Caribbean</label2></labels></clipitem>
					<clipitem id="clipitem-87">
						<masterclipid>clipitem-3-333</masterclipid>
						<name>Taylor_Swift_Travis_Kelce_-_The_New_Power_Couple.mp4</name>
						<enabled>TRUE</enabled>
						<duration>150</duration>
						<rate>
							<timebase>25</timebase>
							<ntsc>FALSE</ntsc>
						</rate>
						<start>174750</start>
						<end>174900</end>
						<in>49800</in>
						<out>49950</out>
						<pproTicksIn>0</pproTicksIn>
						<pproTicksOut>875013995520000</pproTicksOut>
						<alphatype>none</alphatype>
						<pixelaspectratio>square</pixelaspectratio>
						<anamorphic>FALSE</anamorphic>
						<file id="file-31">
							<name>Taylor_Swift_Travis_Kelce_-_The_New_Power_Couple.mp4</name>
							<pathurl>file://localhost/Users/themalikano/Documents/VideoAutomation/premiere_videos/Taylor_Swift_Travis_Kelce_-_The_New_Power_Couple.mp4</pathurl>
							<rate>
								<timebase>25</timebase>
								<ntsc>FALSE</ntsc>
							</rate>
							<duration>86118</duration>
							<timecode>
								<rate>
									<timebase>25</timebase>
									<ntsc>FALSE</ntsc>
								</rate>
								<string>00:00:00:00</string>
								<frame>0</frame>
								<displayformat>NDF</displayformat>
							</timecode>
							<media>
								<video>
									<samplecharacteristics>
										<rate>
											<timebase>25</timebase>
											<ntsc>FALSE</ntsc>
										</rate>
										<width>1920</width>
										<height>1080</height>
										<anamorphic>FALSE</anamorphic>
										<pixelaspectratio>square</pixelaspectratio>
										<fielddominance>none</fielddominance>
									</samplecharacteristics>
								</video>
								<audio>
									<samplecharacteristics>
										<depth>16</depth>
										<samplerate>44100</samplerate>
									</samplecharacteristics>
									<channelcount>2</channelcount>
								</audio>
							</media>
						</file>
						<link>
							<linkclipref>clipitem-87</linkclipref>
							<mediatype>video</mediatype>
							<trackindex>1</trackindex>
							<clipindex>3</clipindex>
						</link>
						<link>
							<linkclipref>clipitem-95</linkclipref>
							<mediatype>audio</mediatype>
							<trackindex>1</trackindex>
							<clipindex>3</clipindex>
							<groupindex>1</groupindex>
						</link>
						<link>
							<linkclipref>clipitem-103</linkclipref>
							<mediatype>audio</mediatype>
							<trackindex>2</trackindex>
							<clipindex>3</clipindex>
							<groupindex>1</groupindex>
						</link>
						<logginginfo>
							<description />
							<scene />
							<shottake />
							<lognote />
							<good />
							<originalvideofilename />
							<originalaudiofilename />
						</logginginfo>
						<colorinfo>
							<lut />
							<lut1 />
							<asc_sop />
							<asc_sat />
							<lut2 />
						</colorinfo>
					<labels><label2>Caribbean</label2></labels></clipitem>
					<clipitem id="clipitem-87">
						<masterclipid>clipitem-3-135</masterclipid>
						<name>Taylor_Swift_Travis_Kelce_-_The_New_Power_Couple.mp4</name>
						<enabled>TRUE</enabled>
						<duration>150</duration>
						<rate>
							<timebase>25</timebase>
							<ntsc>FALSE</ntsc>
						</rate>
						<start>174900</start>
						<end>175050</end>
						<in>20100</in>
						<out>20250</out>
						<pproTicksIn>0</pproTicksIn>
						<pproTicksOut>875013995520000</pproTicksOut>
						<alphatype>none</alphatype>
						<pixelaspectratio>square</pixelaspectratio>
						<anamorphic>FALSE</anamorphic>
						<file id="file-31">
							<name>Taylor_Swift_Travis_Kelce_-_The_New_Power_Couple.mp4</name>
							<pathurl>file://localhost/Users/themalikano/Documents/VideoAutomation/premiere_videos/Taylor_Swift_Travis_Kelce_-_The_New_Power_Couple.mp4</pathurl>
							<rate>
								<timebase>25</timebase>
								<ntsc>FALSE</ntsc>
							</rate>
							<duration>86118</duration>
							<timecode>
								<rate>
									<timebase>25</timebase>
									<ntsc>FALSE</ntsc>
								</rate>
								<string>00:00:00:00</string>
								<frame>0</frame>
								<displayformat>NDF</displayformat>
							</timecode>
							<media>
								<video>
									<samplecharacteristics>
										<rate>
											<timebase>25</timebase>
											<ntsc>FALSE</ntsc>
										</rate>
										<width>1920</width>
										<height>1080</height>
										<anamorphic>FALSE</anamorphic>
										<pixelaspectratio>square</pixelaspectratio>
										<fielddominance>none</fielddominance>
									</samplecharacteristics>
								</video>
								<audio>
									<samplecharacteristics>
										<depth>16</depth>
										<samplerate>44100</samplerate>
									</samplecharacteristics>
									<channelcount>2</channelcount>
								</audio>
							</media>
						</file>
						<link>
							<linkclipref>clipitem-87</linkclipref>
							<mediatype>video</mediatype>
							<trackindex>1</trackindex>
							<clipindex>3</clipindex>
						</link>
						<link>
							<linkclipref>clipitem-95</linkclipref>
							<mediatype>audio</mediatype>
							<trackindex>1</trackindex>
							<clipindex>3</clipindex>
							<groupindex>1</groupindex>
						</link>
						<link>
							<linkclipref>clipitem-103</linkclipref>
							<mediatype>audio</mediatype>
							<trackindex>2</trackindex>
							<clipindex>3</clipindex>
							<groupindex>1</groupindex>
						</link>
						<logginginfo>
							<description />
							<scene />
							<shottake />
							<lognote />
							<good />
							<originalvideofilename />
							<originalaudiofilename />
						</logginginfo>
						<colorinfo>
							<lut />
							<lut1 />
							<asc_sop />
							<asc_sat />
							<lut2 />
						</colorinfo>
					<labels><label2>Caribbean</label2></labels></clipitem>
					<clipitem id="clipitem-87">
						<masterclipid>clipitem-3-574</masterclipid>
						<name>Taylor_Swift_Travis_Kelce_-_The_New_Power_Couple.mp4</name>
						<enabled>TRUE</enabled>
						<duration>150</duration>
						<rate>
							<timebase>25</timebase>
							<ntsc>FALSE</ntsc>
						</rate>
						<start>175050</start>
						<end>175200</end>
						<in>85950</in>
						<out>86100</out>
						<pproTicksIn>0</pproTicksIn>
						<pproTicksOut>875013995520000</pproTicksOut>
						<alphatype>none</alphatype>
						<pixelaspectratio>square</pixelaspectratio>
						<anamorphic>FALSE</anamorphic>
						<file id="file-31">
							<name>Taylor_Swift_Travis_Kelce_-_The_New_Power_Couple.mp4</name>
							<pathurl>file://localhost/Users/themalikano/Documents/VideoAutomation/premiere_videos/Taylor_Swift_Travis_Kelce_-_The_New_Power_Couple.mp4</pathurl>
							<rate>
								<timebase>25</timebase>
								<ntsc>FALSE</ntsc>
							</rate>
							<duration>86118</duration>
							<timecode>
								<rate>
									<timebase>25</timebase>
									<ntsc>FALSE</ntsc>
								</rate>
								<string>00:00:00:00</string>
								<frame>0</frame>
								<displayformat>NDF</displayformat>
							</timecode>
							<media>
								<video>
									<samplecharacteristics>
										<rate>
											<timebase>25</timebase>
											<ntsc>FALSE</ntsc>
										</rate>
										<width>1920</width>
										<height>1080</height>
										<anamorphic>FALSE</anamorphic>
										<pixelaspectratio>square</pixelaspectratio>
										<fielddominance>none</fielddominance>
									</samplecharacteristics>
								</video>
								<audio>
									<samplecharacteristics>
										<depth>16</depth>
										<samplerate>44100</samplerate>
									</samplecharacteristics>
									<channelcount>2</channelcount>
								</audio>
							</media>
						</file>
						<link>
							<linkclipref>clipitem-87</linkclipref>
							<mediatype>video</mediatype>
							<trackindex>1</trackindex>
							<clipindex>3</clipindex>
						</link>
						<link>
							<linkclipref>clipitem-95</linkclipref>
							<mediatype>audio</mediatype>
							<trackindex>1</trackindex>
							<clipindex>3</clipindex>
							<groupindex>1</groupindex>
						</link>
						<link>
							<linkclipref>clipitem-103</linkclipref>
							<mediatype>audio</mediatype>
							<trackindex>2</trackindex>
							<clipindex>3</clipindex>
							<groupindex>1</groupindex>
						</link>
						<logginginfo>
							<description />
							<scene />
							<shottake />
							<lognote />
							<good />
							<originalvideofilename />
							<originalaudiofilename />
						</logginginfo>
						<colorinfo>
							<lut />
							<lut1 />
							<asc_sop />
							<asc_sat />
							<lut2 />
						</colorinfo>
					<labels><label2>Caribbean</label2></labels></clipitem>
					<clipitem id="clipitem-87">
						<masterclipid>clipitem-3-228</masterclipid>
						<name>Taylor_Swift_Travis_Kelce_-_The_New_Power_Couple.mp4</name>
						<enabled>TRUE</enabled>
						<duration>150</duration>
						<rate>
							<timebase>25</timebase>
							<ntsc>FALSE</ntsc>
						</rate>
						<start>175200</start>
						<end>175350</end>
						<in>34050</in>
						<out>34200</out>
						<pproTicksIn>0</pproTicksIn>
						<pproTicksOut>875013995520000</pproTicksOut>
						<alphatype>none</alphatype>
						<pixelaspectratio>square</pixelaspectratio>
						<anamorphic>FALSE</anamorphic>
						<file id="file-31">
							<name>Taylor_Swift_Travis_Kelce_-_The_New_Power_Couple.mp4</name>
							<pathurl>file://localhost/Users/themalikano/Documents/VideoAutomation/premiere_videos/Taylor_Swift_Travis_Kelce_-_The_New_Power_Couple.mp4</pathurl>
							<rate>
								<timebase>25</timebase>
								<ntsc>FALSE</ntsc>
							</rate>
							<duration>86118</duration>
							<timecode>
								<rate>
									<timebase>25</timebase>
									<ntsc>FALSE</ntsc>
								</rate>
								<string>00:00:00:00</string>
								<frame>0</frame>
								<displayformat>NDF</displayformat>
							</timecode>
							<media>
								<video>
									<samplecharacteristics>
										<rate>
											<timebase>25</timebase>
											<ntsc>FALSE</ntsc>
										</rate>
										<width>1920</width>
										<height>1080</height>
										<anamorphic>FALSE</anamorphic>
										<pixelaspectratio>square</pixelaspectratio>
										<fielddominance>none</fielddominance>
									</samplecharacteristics>
								</video>
								<audio>
									<samplecharacteristics>
										<depth>16</depth>
										<samplerate>44100</samplerate>
									</samplecharacteristics>
									<channelcount>2</channelcount>
								</audio>
							</media>
						</file>
						<link>
							<linkclipref>clipitem-87</linkclipref>
							<mediatype>video</mediatype>
							<trackindex>1</trackindex>
							<clipindex>3</clipindex>
						</link>
						<link>
							<linkclipref>clipitem-95</linkclipref>
							<mediatype>audio</mediatype>
							<trackindex>1</trackindex>
							<clipindex>3</clipindex>
							<groupindex>1</groupindex>
						</link>
						<link>
							<linkclipref>clipitem-103</linkclipref>
							<mediatype>audio</mediatype>
							<trackindex>2</trackindex>
							<clipindex>3</clipindex>
							<groupindex>1</groupindex>
						</link>
						<logginginfo>
							<description />
							<scene />
							<shottake />
							<lognote />
							<good />
							<originalvideofilename />
							<originalaudiofilename />
						</logginginfo>
						<colorinfo>
							<lut />
							<lut1 />
							<asc_sop />
							<asc_sat />
							<lut2 />
						</colorinfo>
					<labels><label2>Caribbean</label2></labels></clipitem>
					<clipitem id="clipitem-87">
						<masterclipid>clipitem-3-264</masterclipid>
						<name>Taylor_Swift_Travis_Kelce_-_The_New_Power_Couple.mp4</name>
						<enabled>TRUE</enabled>
						<duration>150</duration>
						<rate>
							<timebase>25</timebase>
							<ntsc>FALSE</ntsc>
						</rate>
						<start>175350</start>
						<end>175500</end>
						<in>39450</in>
						<out>39600</out>
						<pproTicksIn>0</pproTicksIn>
						<pproTicksOut>875013995520000</pproTicksOut>
						<alphatype>none</alphatype>
						<pixelaspectratio>square</pixelaspectratio>
						<anamorphic>FALSE</anamorphic>
						<file id="file-31">
							<name>Taylor_Swift_Travis_Kelce_-_The_New_Power_Couple.mp4</name>
							<pathurl>file://localhost/Users/themalikano/Documents/VideoAutomation/premiere_videos/Taylor_Swift_Travis_Kelce_-_The_New_Power_Couple.mp4</pathurl>
							<rate>
								<timebase>25</timebase>
								<ntsc>FALSE</ntsc>
							</rate>
							<duration>86118</duration>
							<timecode>
								<rate>
									<timebase>25</timebase>
									<ntsc>FALSE</ntsc>
								</rate>
								<string>00:00:00:00</string>
								<frame>0</frame>
								<displayformat>NDF</displayformat>
							</timecode>
							<media>
								<video>
									<samplecharacteristics>
										<rate>
											<timebase>25</timebase>
											<ntsc>FALSE</ntsc>
										</rate>
										<width>1920</width>
										<height>1080</height>
										<anamorphic>FALSE</anamorphic>
										<pixelaspectratio>square</pixelaspectratio>
										<fielddominance>none</fielddominance>
									</samplecharacteristics>
								</video>
								<audio>
									<samplecharacteristics>
										<depth>16</depth>
										<samplerate>44100</samplerate>
									</samplecharacteristics>
									<channelcount>2</channelcount>
								</audio>
							</media>
						</file>
						<link>
							<linkclipref>clipitem-87</linkclipref>
							<mediatype>video</mediatype>
							<trackindex>1</trackindex>
							<clipindex>3</clipindex>
						</link>
						<link>
							<linkclipref>clipitem-95</linkclipref>
							<mediatype>audio</mediatype>
							<trackindex>1</trackindex>
							<clipindex>3</clipindex>
							<groupindex>1</groupindex>
						</link>
						<link>
							<linkclipref>clipitem-103</linkclipref>
							<mediatype>audio</mediatype>
							<trackindex>2</trackindex>
							<clipindex>3</clipindex>
							<groupindex>1</groupindex>
						</link>
						<logginginfo>
							<description />
							<scene />
							<shottake />
							<lognote />
							<good />
							<originalvideofilename />
							<originalaudiofilename />
						</logginginfo>
						<colorinfo>
							<lut />
							<lut1 />
							<asc_sop />
							<asc_sat />
							<lut2 />
						</colorinfo>
					<labels><label2>Caribbean</label2></labels></clipitem>
					<clipitem id="clipitem-87">
						<masterclipid>clipitem-3-16</masterclipid>
						<name>Taylor_Swift_Travis_Kelce_-_The_New_Power_Couple.mp4</name>
						<enabled>TRUE</enabled>
						<duration>150</duration>
						<rate>
							<timebase>25</timebase>
							<ntsc>FALSE</ntsc>
						</rate>
						<start>175500</start>
						<end>175650</end>
						<in>2250</in>
						<out>2400</out>
						<pproTicksIn>0</pproTicksIn>
						<pproTicksOut>875013995520000</pproTicksOut>
						<alphatype>none</alphatype>
						<pixelaspectratio>square</pixelaspectratio>
						<anamorphic>FALSE</anamorphic>
						<file id="file-31">
							<name>Taylor_Swift_Travis_Kelce_-_The_New_Power_Couple.mp4</name>
							<pathurl>file://localhost/Users/themalikano/Documents/VideoAutomation/premiere_videos/Taylor_Swift_Travis_Kelce_-_The_New_Power_Couple.mp4</pathurl>
							<rate>
								<timebase>25</timebase>
								<ntsc>FALSE</ntsc>
							</rate>
							<duration>86118</duration>
							<timecode>
								<rate>
									<timebase>25</timebase>
									<ntsc>FALSE</ntsc>
								</rate>
								<string>00:00:00:00</string>
								<frame>0</frame>
								<displayformat>NDF</displayformat>
							</timecode>
							<media>
								<video>
									<samplecharacteristics>
										<rate>
											<timebase>25</timebase>
											<ntsc>FALSE</ntsc>
										</rate>
										<width>1920</width>
										<height>1080</height>
										<anamorphic>FALSE</anamorphic>
										<pixelaspectratio>square</pixelaspectratio>
										<fielddominance>none</fielddominance>
									</samplecharacteristics>
								</video>
								<audio>
									<samplecharacteristics>
										<depth>16</depth>
										<samplerate>44100</samplerate>
									</samplecharacteristics>
									<channelcount>2</channelcount>
								</audio>
							</media>
						</file>
						<link>
							<linkclipref>clipitem-87</linkclipref>
							<mediatype>video</mediatype>
							<trackindex>1</trackindex>
							<clipindex>3</clipindex>
						</link>
						<link>
							<linkclipref>clipitem-95</linkclipref>
							<mediatype>audio</mediatype>
							<trackindex>1</trackindex>
							<clipindex>3</clipindex>
							<groupindex>1</groupindex>
						</link>
						<link>
							<linkclipref>clipitem-103</linkclipref>
							<mediatype>audio</mediatype>
							<trackindex>2</trackindex>
							<clipindex>3</clipindex>
							<groupindex>1</groupindex>
						</link>
						<logginginfo>
							<description />
							<scene />
							<shottake />
							<lognote />
							<good />
							<originalvideofilename />
							<originalaudiofilename />
						</logginginfo>
						<colorinfo>
							<lut />
							<lut1 />
							<asc_sop />
							<asc_sat />
							<lut2 />
						</colorinfo>
					<labels><label2>Caribbean</label2></labels></clipitem>
					<clipitem id="clipitem-87">
						<masterclipid>clipitem-3-237</masterclipid>
						<name>Taylor_Swift_Travis_Kelce_-_The_New_Power_Couple.mp4</name>
						<enabled>TRUE</enabled>
						<duration>150</duration>
						<rate>
							<timebase>25</timebase>
							<ntsc>FALSE</ntsc>
						</rate>
						<start>175650</start>
						<end>175800</end>
						<in>35400</in>
						<out>35550</out>
						<pproTicksIn>0</pproTicksIn>
						<pproTicksOut>875013995520000</pproTicksOut>
						<alphatype>none</alphatype>
						<pixelaspectratio>square</pixelaspectratio>
						<anamorphic>FALSE</anamorphic>
						<file id="file-31">
							<name>Taylor_Swift_Travis_Kelce_-_The_New_Power_Couple.mp4</name>
							<pathurl>file://localhost/Users/themalikano/Documents/VideoAutomation/premiere_videos/Taylor_Swift_Travis_Kelce_-_The_New_Power_Couple.mp4</pathurl>
							<rate>
								<timebase>25</timebase>
								<ntsc>FALSE</ntsc>
							</rate>
							<duration>86118</duration>
							<timecode>
								<rate>
									<timebase>25</timebase>
									<ntsc>FALSE</ntsc>
								</rate>
								<string>00:00:00:00</string>
								<frame>0</frame>
								<displayformat>NDF</displayformat>
							</timecode>
							<media>
								<video>
									<samplecharacteristics>
										<rate>
											<timebase>25</timebase>
											<ntsc>FALSE</ntsc>
										</rate>
										<width>1920</width>
										<height>1080</height>
										<anamorphic>FALSE</anamorphic>
										<pixelaspectratio>square</pixelaspectratio>
										<fielddominance>none</fielddominance>
									</samplecharacteristics>
								</video>
								<audio>
									<samplecharacteristics>
										<depth>16</depth>
										<samplerate>44100</samplerate>
									</samplecharacteristics>
									<channelcount>2</channelcount>
								</audio>
							</media>
						</file>
						<link>
							<linkclipref>clipitem-87</linkclipref>
							<mediatype>video</mediatype>
							<trackindex>1</trackindex>
							<clipindex>3</clipindex>
						</link>
						<link>
							<linkclipref>clipitem-95</linkclipref>
							<mediatype>audio</mediatype>
							<trackindex>1</trackindex>
							<clipindex>3</clipindex>
							<groupindex>1</groupindex>
						</link>
						<link>
							<linkclipref>clipitem-103</linkclipref>
							<mediatype>audio</mediatype>
							<trackindex>2</trackindex>
							<clipindex>3</clipindex>
							<groupindex>1</groupindex>
						</link>
						<logginginfo>
							<description />
							<scene />
							<shottake />
							<lognote />
							<good />
							<originalvideofilename />
							<originalaudiofilename />
						</logginginfo>
						<colorinfo>
							<lut />
							<lut1 />
							<asc_sop />
							<asc_sat />
							<lut2 />
						</colorinfo>
					<labels><label2>Caribbean</label2></labels></clipitem>
					<clipitem id="clipitem-87">
						<masterclipid>clipitem-3-540</masterclipid>
						<name>Taylor_Swift_Travis_Kelce_-_The_New_Power_Couple.mp4</name>
						<enabled>TRUE</enabled>
						<duration>150</duration>
						<rate>
							<timebase>25</timebase>
							<ntsc>FALSE</ntsc>
						</rate>
						<start>175800</start>
						<end>175950</end>
						<in>80850</in>
						<out>81000</out>
						<pproTicksIn>0</pproTicksIn>
						<pproTicksOut>875013995520000</pproTicksOut>
						<alphatype>none</alphatype>
						<pixelaspectratio>square</pixelaspectratio>
						<anamorphic>FALSE</anamorphic>
						<file id="file-31">
							<name>Taylor_Swift_Travis_Kelce_-_The_New_Power_Couple.mp4</name>
							<pathurl>file://localhost/Users/themalikano/Documents/VideoAutomation/premiere_videos/Taylor_Swift_Travis_Kelce_-_The_New_Power_Couple.mp4</pathurl>
							<rate>
								<timebase>25</timebase>
								<ntsc>FALSE</ntsc>
							</rate>
							<duration>86118</duration>
							<timecode>
								<rate>
									<timebase>25</timebase>
									<ntsc>FALSE</ntsc>
								</rate>
								<string>00:00:00:00</string>
								<frame>0</frame>
								<displayformat>NDF</displayformat>
							</timecode>
							<media>
								<video>
									<samplecharacteristics>
										<rate>
											<timebase>25</timebase>
											<ntsc>FALSE</ntsc>
										</rate>
										<width>1920</width>
										<height>1080</height>
										<anamorphic>FALSE</anamorphic>
										<pixelaspectratio>square</pixelaspectratio>
										<fielddominance>none</fielddominance>
									</samplecharacteristics>
								</video>
								<audio>
									<samplecharacteristics>
										<depth>16</depth>
										<samplerate>44100</samplerate>
									</samplecharacteristics>
									<channelcount>2</channelcount>
								</audio>
							</media>
						</file>
						<link>
							<linkclipref>clipitem-87</linkclipref>
							<mediatype>video</mediatype>
							<trackindex>1</trackindex>
							<clipindex>3</clipindex>
						</link>
						<link>
							<linkclipref>clipitem-95</linkclipref>
							<mediatype>audio</mediatype>
							<trackindex>1</trackindex>
							<clipindex>3</clipindex>
							<groupindex>1</groupindex>
						</link>
						<link>
							<linkclipref>clipitem-103</linkclipref>
							<mediatype>audio</mediatype>
							<trackindex>2</trackindex>
							<clipindex>3</clipindex>
							<groupindex>1</groupindex>
						</link>
						<logginginfo>
							<description />
							<scene />
							<shottake />
							<lognote />
							<good />
							<originalvideofilename />
							<originalaudiofilename />
						</logginginfo>
						<colorinfo>
							<lut />
							<lut1 />
							<asc_sop />
							<asc_sat />
							<lut2 />
						</colorinfo>
					<labels><label2>Caribbean</label2></labels></clipitem>
					<clipitem id="clipitem-87">
						<masterclipid>clipitem-3-499</masterclipid>
						<name>Taylor_Swift_Travis_Kelce_-_The_New_Power_Couple.mp4</name>
						<enabled>TRUE</enabled>
						<duration>150</duration>
						<rate>
							<timebase>25</timebase>
							<ntsc>FALSE</ntsc>
						</rate>
						<start>175950</start>
						<end>176100</end>
						<in>74700</in>
						<out>74850</out>
						<pproTicksIn>0</pproTicksIn>
						<pproTicksOut>875013995520000</pproTicksOut>
						<alphatype>none</alphatype>
						<pixelaspectratio>square</pixelaspectratio>
						<anamorphic>FALSE</anamorphic>
						<file id="file-31">
							<name>Taylor_Swift_Travis_Kelce_-_The_New_Power_Couple.mp4</name>
							<pathurl>file://localhost/Users/themalikano/Documents/VideoAutomation/premiere_videos/Taylor_Swift_Travis_Kelce_-_The_New_Power_Couple.mp4</pathurl>
							<rate>
								<timebase>25</timebase>
								<ntsc>FALSE</ntsc>
							</rate>
							<duration>86118</duration>
							<timecode>
								<rate>
									<timebase>25</timebase>
									<ntsc>FALSE</ntsc>
								</rate>
								<string>00:00:00:00</string>
								<frame>0</frame>
								<displayformat>NDF</displayformat>
							</timecode>
							<media>
								<video>
									<samplecharacteristics>
										<rate>
											<timebase>25</timebase>
											<ntsc>FALSE</ntsc>
										</rate>
										<width>1920</width>
										<height>1080</height>
										<anamorphic>FALSE</anamorphic>
										<pixelaspectratio>square</pixelaspectratio>
										<fielddominance>none</fielddominance>
									</samplecharacteristics>
								</video>
								<audio>
									<samplecharacteristics>
										<depth>16</depth>
										<samplerate>44100</samplerate>
									</samplecharacteristics>
									<channelcount>2</channelcount>
								</audio>
							</media>
						</file>
						<link>
							<linkclipref>clipitem-87</linkclipref>
							<mediatype>video</mediatype>
							<trackindex>1</trackindex>
							<clipindex>3</clipindex>
						</link>
						<link>
							<linkclipref>clipitem-95</linkclipref>
							<mediatype>audio</mediatype>
							<trackindex>1</trackindex>
							<clipindex>3</clipindex>
							<groupindex>1</groupindex>
						</link>
						<link>
							<linkclipref>clipitem-103</linkclipref>
							<mediatype>audio</mediatype>
							<trackindex>2</trackindex>
							<clipindex>3</clipindex>
							<groupindex>1</groupindex>
						</link>
						<logginginfo>
							<description />
							<scene />
							<shottake />
							<lognote />
							<good />
							<originalvideofilename />
							<originalaudiofilename />
						</logginginfo>
						<colorinfo>
							<lut />
							<lut1 />
							<asc_sop />
							<asc_sat />
							<lut2 />
						</colorinfo>
					<labels><label2>Caribbean</label2></labels></clipitem>
					<clipitem id="clipitem-87">
						<masterclipid>clipitem-3-42</masterclipid>
						<name>Taylor_Swift_Travis_Kelce_-_The_New_Power_Couple.mp4</name>
						<enabled>TRUE</enabled>
						<duration>150</duration>
						<rate>
							<timebase>25</timebase>
							<ntsc>FALSE</ntsc>
						</rate>
						<start>176100</start>
						<end>176250</end>
						<in>6150</in>
						<out>6300</out>
						<pproTicksIn>0</pproTicksIn>
						<pproTicksOut>875013995520000</pproTicksOut>
						<alphatype>none</alphatype>
						<pixelaspectratio>square</pixelaspectratio>
						<anamorphic>FALSE</anamorphic>
						<file id="file-31">
							<name>Taylor_Swift_Travis_Kelce_-_The_New_Power_Couple.mp4</name>
							<pathurl>file://localhost/Users/themalikano/Documents/VideoAutomation/premiere_videos/Taylor_Swift_Travis_Kelce_-_The_New_Power_Couple.mp4</pathurl>
							<rate>
								<timebase>25</timebase>
								<ntsc>FALSE</ntsc>
							</rate>
							<duration>86118</duration>
							<timecode>
								<rate>
									<timebase>25</timebase>
									<ntsc>FALSE</ntsc>
								</rate>
								<string>00:00:00:00</string>
								<frame>0</frame>
								<displayformat>NDF</displayformat>
							</timecode>
							<media>
								<video>
									<samplecharacteristics>
										<rate>
											<timebase>25</timebase>
											<ntsc>FALSE</ntsc>
										</rate>
										<width>1920</width>
										<height>1080</height>
										<anamorphic>FALSE</anamorphic>
										<pixelaspectratio>square</pixelaspectratio>
										<fielddominance>none</fielddominance>
									</samplecharacteristics>
								</video>
								<audio>
									<samplecharacteristics>
										<depth>16</depth>
										<samplerate>44100</samplerate>
									</samplecharacteristics>
									<channelcount>2</channelcount>
								</audio>
							</media>
						</file>
						<link>
							<linkclipref>clipitem-87</linkclipref>
							<mediatype>video</mediatype>
							<trackindex>1</trackindex>
							<clipindex>3</clipindex>
						</link>
						<link>
							<linkclipref>clipitem-95</linkclipref>
							<mediatype>audio</mediatype>
							<trackindex>1</trackindex>
							<clipindex>3</clipindex>
							<groupindex>1</groupindex>
						</link>
						<link>
							<linkclipref>clipitem-103</linkclipref>
							<mediatype>audio</mediatype>
							<trackindex>2</trackindex>
							<clipindex>3</clipindex>
							<groupindex>1</groupindex>
						</link>
						<logginginfo>
							<description />
							<scene />
							<shottake />
							<lognote />
							<good />
							<originalvideofilename />
							<originalaudiofilename />
						</logginginfo>
						<colorinfo>
							<lut />
							<lut1 />
							<asc_sop />
							<asc_sat />
							<lut2 />
						</colorinfo>
					<labels><label2>Caribbean</label2></labels></clipitem>
					<clipitem id="clipitem-87">
						<masterclipid>clipitem-3-440</masterclipid>
						<name>Taylor_Swift_Travis_Kelce_-_The_New_Power_Couple.mp4</name>
						<enabled>TRUE</enabled>
						<duration>150</duration>
						<rate>
							<timebase>25</timebase>
							<ntsc>FALSE</ntsc>
						</rate>
						<start>176250</start>
						<end>176400</end>
						<in>65850</in>
						<out>66000</out>
						<pproTicksIn>0</pproTicksIn>
						<pproTicksOut>875013995520000</pproTicksOut>
						<alphatype>none</alphatype>
						<pixelaspectratio>square</pixelaspectratio>
						<anamorphic>FALSE</anamorphic>
						<file id="file-31">
							<name>Taylor_Swift_Travis_Kelce_-_The_New_Power_Couple.mp4</name>
							<pathurl>file://localhost/Users/themalikano/Documents/VideoAutomation/premiere_videos/Taylor_Swift_Travis_Kelce_-_The_New_Power_Couple.mp4</pathurl>
							<rate>
								<timebase>25</timebase>
								<ntsc>FALSE</ntsc>
							</rate>
							<duration>86118</duration>
							<timecode>
								<rate>
									<timebase>25</timebase>
									<ntsc>FALSE</ntsc>
								</rate>
								<string>00:00:00:00</string>
								<frame>0</frame>
								<displayformat>NDF</displayformat>
							</timecode>
							<media>
								<video>
									<samplecharacteristics>
										<rate>
											<timebase>25</timebase>
											<ntsc>FALSE</ntsc>
										</rate>
										<width>1920</width>
										<height>1080</height>
										<anamorphic>FALSE</anamorphic>
										<pixelaspectratio>square</pixelaspectratio>
										<fielddominance>none</fielddominance>
									</samplecharacteristics>
								</video>
								<audio>
									<samplecharacteristics>
										<depth>16</depth>
										<samplerate>44100</samplerate>
									</samplecharacteristics>
									<channelcount>2</channelcount>
								</audio>
							</media>
						</file>
						<link>
							<linkclipref>clipitem-87</linkclipref>
							<mediatype>video</mediatype>
							<trackindex>1</trackindex>
							<clipindex>3</clipindex>
						</link>
						<link>
							<linkclipref>clipitem-95</linkclipref>
							<mediatype>audio</mediatype>
							<trackindex>1</trackindex>
							<clipindex>3</clipindex>
							<groupindex>1</groupindex>
						</link>
						<link>
							<linkclipref>clipitem-103</linkclipref>
							<mediatype>audio</mediatype>
							<trackindex>2</trackindex>
							<clipindex>3</clipindex>
							<groupindex>1</groupindex>
						</link>
						<logginginfo>
							<description />
							<scene />
							<shottake />
							<lognote />
							<good />
							<originalvideofilename />
							<originalaudiofilename />
						</logginginfo>
						<colorinfo>
							<lut />
							<lut1 />
							<asc_sop />
							<asc_sat />
							<lut2 />
						</colorinfo>
					<labels><label2>Caribbean</label2></labels></clipitem>
					<clipitem id="clipitem-87">
						<masterclipid>clipitem-3-309</masterclipid>
						<name>Taylor_Swift_Travis_Kelce_-_The_New_Power_Couple.mp4</name>
						<enabled>TRUE</enabled>
						<duration>150</duration>
						<rate>
							<timebase>25</timebase>
							<ntsc>FALSE</ntsc>
						</rate>
						<start>176400</start>
						<end>176550</end>
						<in>46200</in>
						<out>46350</out>
						<pproTicksIn>0</pproTicksIn>
						<pproTicksOut>875013995520000</pproTicksOut>
						<alphatype>none</alphatype>
						<pixelaspectratio>square</pixelaspectratio>
						<anamorphic>FALSE</anamorphic>
						<file id="file-31">
							<name>Taylor_Swift_Travis_Kelce_-_The_New_Power_Couple.mp4</name>
							<pathurl>file://localhost/Users/themalikano/Documents/VideoAutomation/premiere_videos/Taylor_Swift_Travis_Kelce_-_The_New_Power_Couple.mp4</pathurl>
							<rate>
								<timebase>25</timebase>
								<ntsc>FALSE</ntsc>
							</rate>
							<duration>86118</duration>
							<timecode>
								<rate>
									<timebase>25</timebase>
									<ntsc>FALSE</ntsc>
								</rate>
								<string>00:00:00:00</string>
								<frame>0</frame>
								<displayformat>NDF</displayformat>
							</timecode>
							<media>
								<video>
									<samplecharacteristics>
										<rate>
											<timebase>25</timebase>
											<ntsc>FALSE</ntsc>
										</rate>
										<width>1920</width>
										<height>1080</height>
										<anamorphic>FALSE</anamorphic>
										<pixelaspectratio>square</pixelaspectratio>
										<fielddominance>none</fielddominance>
									</samplecharacteristics>
								</video>
								<audio>
									<samplecharacteristics>
										<depth>16</depth>
										<samplerate>44100</samplerate>
									</samplecharacteristics>
									<channelcount>2</channelcount>
								</audio>
							</media>
						</file>
						<link>
							<linkclipref>clipitem-87</linkclipref>
							<mediatype>video</mediatype>
							<trackindex>1</trackindex>
							<clipindex>3</clipindex>
						</link>
						<link>
							<linkclipref>clipitem-95</linkclipref>
							<mediatype>audio</mediatype>
							<trackindex>1</trackindex>
							<clipindex>3</clipindex>
							<groupindex>1</groupindex>
						</link>
						<link>
							<linkclipref>clipitem-103</linkclipref>
							<mediatype>audio</mediatype>
							<trackindex>2</trackindex>
							<clipindex>3</clipindex>
							<groupindex>1</groupindex>
						</link>
						<logginginfo>
							<description />
							<scene />
							<shottake />
							<lognote />
							<good />
							<originalvideofilename />
							<originalaudiofilename />
						</logginginfo>
						<colorinfo>
							<lut />
							<lut1 />
							<asc_sop />
							<asc_sat />
							<lut2 />
						</colorinfo>
					<labels><label2>Caribbean</label2></labels></clipitem>
					<clipitem id="clipitem-87">
						<masterclipid>clipitem-3-428</masterclipid>
						<name>Taylor_Swift_Travis_Kelce_-_The_New_Power_Couple.mp4</name>
						<enabled>TRUE</enabled>
						<duration>150</duration>
						<rate>
							<timebase>25</timebase>
							<ntsc>FALSE</ntsc>
						</rate>
						<start>176550</start>
						<end>176700</end>
						<in>64050</in>
						<out>64200</out>
						<pproTicksIn>0</pproTicksIn>
						<pproTicksOut>875013995520000</pproTicksOut>
						<alphatype>none</alphatype>
						<pixelaspectratio>square</pixelaspectratio>
						<anamorphic>FALSE</anamorphic>
						<file id="file-31">
							<name>Taylor_Swift_Travis_Kelce_-_The_New_Power_Couple.mp4</name>
							<pathurl>file://localhost/Users/themalikano/Documents/VideoAutomation/premiere_videos/Taylor_Swift_Travis_Kelce_-_The_New_Power_Couple.mp4</pathurl>
							<rate>
								<timebase>25</timebase>
								<ntsc>FALSE</ntsc>
							</rate>
							<duration>86118</duration>
							<timecode>
								<rate>
									<timebase>25</timebase>
									<ntsc>FALSE</ntsc>
								</rate>
								<string>00:00:00:00</string>
								<frame>0</frame>
								<displayformat>NDF</displayformat>
							</timecode>
							<media>
								<video>
									<samplecharacteristics>
										<rate>
											<timebase>25</timebase>
											<ntsc>FALSE</ntsc>
										</rate>
										<width>1920</width>
										<height>1080</height>
										<anamorphic>FALSE</anamorphic>
										<pixelaspectratio>square</pixelaspectratio>
										<fielddominance>none</fielddominance>
									</samplecharacteristics>
								</video>
								<audio>
									<samplecharacteristics>
										<depth>16</depth>
										<samplerate>44100</samplerate>
									</samplecharacteristics>
									<channelcount>2</channelcount>
								</audio>
							</media>
						</file>
						<link>
							<linkclipref>clipitem-87</linkclipref>
							<mediatype>video</mediatype>
							<trackindex>1</trackindex>
							<clipindex>3</clipindex>
						</link>
						<link>
							<linkclipref>clipitem-95</linkclipref>
							<mediatype>audio</mediatype>
							<trackindex>1</trackindex>
							<clipindex>3</clipindex>
							<groupindex>1</groupindex>
						</link>
						<link>
							<linkclipref>clipitem-103</linkclipref>
							<mediatype>audio</mediatype>
							<trackindex>2</trackindex>
							<clipindex>3</clipindex>
							<groupindex>1</groupindex>
						</link>
						<logginginfo>
							<description />
							<scene />
							<shottake />
							<lognote />
							<good />
							<originalvideofilename />
							<originalaudiofilename />
						</logginginfo>
						<colorinfo>
							<lut />
							<lut1 />
							<asc_sop />
							<asc_sat />
							<lut2 />
						</colorinfo>
					<labels><label2>Caribbean</label2></labels></clipitem>
					<clipitem id="clipitem-87">
						<masterclipid>clipitem-3-79</masterclipid>
						<name>Taylor_Swift_Travis_Kelce_-_The_New_Power_Couple.mp4</name>
						<enabled>TRUE</enabled>
						<duration>150</duration>
						<rate>
							<timebase>25</timebase>
							<ntsc>FALSE</ntsc>
						</rate>
						<start>176700</start>
						<end>176850</end>
						<in>11700</in>
						<out>11850</out>
						<pproTicksIn>0</pproTicksIn>
						<pproTicksOut>875013995520000</pproTicksOut>
						<alphatype>none</alphatype>
						<pixelaspectratio>square</pixelaspectratio>
						<anamorphic>FALSE</anamorphic>
						<file id="file-31">
							<name>Taylor_Swift_Travis_Kelce_-_The_New_Power_Couple.mp4</name>
							<pathurl>file://localhost/Users/themalikano/Documents/VideoAutomation/premiere_videos/Taylor_Swift_Travis_Kelce_-_The_New_Power_Couple.mp4</pathurl>
							<rate>
								<timebase>25</timebase>
								<ntsc>FALSE</ntsc>
							</rate>
							<duration>86118</duration>
							<timecode>
								<rate>
									<timebase>25</timebase>
									<ntsc>FALSE</ntsc>
								</rate>
								<string>00:00:00:00</string>
								<frame>0</frame>
								<displayformat>NDF</displayformat>
							</timecode>
							<media>
								<video>
									<samplecharacteristics>
										<rate>
											<timebase>25</timebase>
											<ntsc>FALSE</ntsc>
										</rate>
										<width>1920</width>
										<height>1080</height>
										<anamorphic>FALSE</anamorphic>
										<pixelaspectratio>square</pixelaspectratio>
										<fielddominance>none</fielddominance>
									</samplecharacteristics>
								</video>
								<audio>
									<samplecharacteristics>
										<depth>16</depth>
										<samplerate>44100</samplerate>
									</samplecharacteristics>
									<channelcount>2</channelcount>
								</audio>
							</media>
						</file>
						<link>
							<linkclipref>clipitem-87</linkclipref>
							<mediatype>video</mediatype>
							<trackindex>1</trackindex>
							<clipindex>3</clipindex>
						</link>
						<link>
							<linkclipref>clipitem-95</linkclipref>
							<mediatype>audio</mediatype>
							<trackindex>1</trackindex>
							<clipindex>3</clipindex>
							<groupindex>1</groupindex>
						</link>
						<link>
							<linkclipref>clipitem-103</linkclipref>
							<mediatype>audio</mediatype>
							<trackindex>2</trackindex>
							<clipindex>3</clipindex>
							<groupindex>1</groupindex>
						</link>
						<logginginfo>
							<description />
							<scene />
							<shottake />
							<lognote />
							<good />
							<originalvideofilename />
							<originalaudiofilename />
						</logginginfo>
						<colorinfo>
							<lut />
							<lut1 />
							<asc_sop />
							<asc_sat />
							<lut2 />
						</colorinfo>
					<labels><label2>Caribbean</label2></labels></clipitem>
					<clipitem id="clipitem-87">
						<masterclipid>clipitem-3-427</masterclipid>
						<name>Taylor_Swift_Travis_Kelce_-_The_New_Power_Couple.mp4</name>
						<enabled>TRUE</enabled>
						<duration>150</duration>
						<rate>
							<timebase>25</timebase>
							<ntsc>FALSE</ntsc>
						</rate>
						<start>176850</start>
						<end>177000</end>
						<in>63900</in>
						<out>64050</out>
						<pproTicksIn>0</pproTicksIn>
						<pproTicksOut>875013995520000</pproTicksOut>
						<alphatype>none</alphatype>
						<pixelaspectratio>square</pixelaspectratio>
						<anamorphic>FALSE</anamorphic>
						<file id="file-31">
							<name>Taylor_Swift_Travis_Kelce_-_The_New_Power_Couple.mp4</name>
							<pathurl>file://localhost/Users/themalikano/Documents/VideoAutomation/premiere_videos/Taylor_Swift_Travis_Kelce_-_The_New_Power_Couple.mp4</pathurl>
							<rate>
								<timebase>25</timebase>
								<ntsc>FALSE</ntsc>
							</rate>
							<duration>86118</duration>
							<timecode>
								<rate>
									<timebase>25</timebase>
									<ntsc>FALSE</ntsc>
								</rate>
								<string>00:00:00:00</string>
								<frame>0</frame>
								<displayformat>NDF</displayformat>
							</timecode>
							<media>
								<video>
									<samplecharacteristics>
										<rate>
											<timebase>25</timebase>
											<ntsc>FALSE</ntsc>
										</rate>
										<width>1920</width>
										<height>1080</height>
										<anamorphic>FALSE</anamorphic>
										<pixelaspectratio>square</pixelaspectratio>
										<fielddominance>none</fielddominance>
									</samplecharacteristics>
								</video>
								<audio>
									<samplecharacteristics>
										<depth>16</depth>
										<samplerate>44100</samplerate>
									</samplecharacteristics>
									<channelcount>2</channelcount>
								</audio>
							</media>
						</file>
						<link>
							<linkclipref>clipitem-87</linkclipref>
							<mediatype>video</mediatype>
							<trackindex>1</trackindex>
							<clipindex>3</clipindex>
						</link>
						<link>
							<linkclipref>clipitem-95</linkclipref>
							<mediatype>audio</mediatype>
							<trackindex>1</trackindex>
							<clipindex>3</clipindex>
							<groupindex>1</groupindex>
						</link>
						<link>
							<linkclipref>clipitem-103</linkclipref>
							<mediatype>audio</mediatype>
							<trackindex>2</trackindex>
							<clipindex>3</clipindex>
							<groupindex>1</groupindex>
						</link>
						<logginginfo>
							<description />
							<scene />
							<shottake />
							<lognote />
							<good />
							<originalvideofilename />
							<originalaudiofilename />
						</logginginfo>
						<colorinfo>
							<lut />
							<lut1 />
							<asc_sop />
							<asc_sat />
							<lut2 />
						</colorinfo>
					<labels><label2>Caribbean</label2></labels></clipitem>
					<clipitem id="clipitem-87">
						<masterclipid>clipitem-3-463</masterclipid>
						<name>Taylor_Swift_Travis_Kelce_-_The_New_Power_Couple.mp4</name>
						<enabled>TRUE</enabled>
						<duration>150</duration>
						<rate>
							<timebase>25</timebase>
							<ntsc>FALSE</ntsc>
						</rate>
						<start>177000</start>
						<end>177150</end>
						<in>69300</in>
						<out>69450</out>
						<pproTicksIn>0</pproTicksIn>
						<pproTicksOut>875013995520000</pproTicksOut>
						<alphatype>none</alphatype>
						<pixelaspectratio>square</pixelaspectratio>
						<anamorphic>FALSE</anamorphic>
						<file id="file-31">
							<name>Taylor_Swift_Travis_Kelce_-_The_New_Power_Couple.mp4</name>
							<pathurl>file://localhost/Users/themalikano/Documents/VideoAutomation/premiere_videos/Taylor_Swift_Travis_Kelce_-_The_New_Power_Couple.mp4</pathurl>
							<rate>
								<timebase>25</timebase>
								<ntsc>FALSE</ntsc>
							</rate>
							<duration>86118</duration>
							<timecode>
								<rate>
									<timebase>25</timebase>
									<ntsc>FALSE</ntsc>
								</rate>
								<string>00:00:00:00</string>
								<frame>0</frame>
								<displayformat>NDF</displayformat>
							</timecode>
							<media>
								<video>
									<samplecharacteristics>
										<rate>
											<timebase>25</timebase>
											<ntsc>FALSE</ntsc>
										</rate>
										<width>1920</width>
										<height>1080</height>
										<anamorphic>FALSE</anamorphic>
										<pixelaspectratio>square</pixelaspectratio>
										<fielddominance>none</fielddominance>
									</samplecharacteristics>
								</video>
								<audio>
									<samplecharacteristics>
										<depth>16</depth>
										<samplerate>44100</samplerate>
									</samplecharacteristics>
									<channelcount>2</channelcount>
								</audio>
							</media>
						</file>
						<link>
							<linkclipref>clipitem-87</linkclipref>
							<mediatype>video</mediatype>
							<trackindex>1</trackindex>
							<clipindex>3</clipindex>
						</link>
						<link>
							<linkclipref>clipitem-95</linkclipref>
							<mediatype>audio</mediatype>
							<trackindex>1</trackindex>
							<clipindex>3</clipindex>
							<groupindex>1</groupindex>
						</link>
						<link>
							<linkclipref>clipitem-103</linkclipref>
							<mediatype>audio</mediatype>
							<trackindex>2</trackindex>
							<clipindex>3</clipindex>
							<groupindex>1</groupindex>
						</link>
						<logginginfo>
							<description />
							<scene />
							<shottake />
							<lognote />
							<good />
							<originalvideofilename />
							<originalaudiofilename />
						</logginginfo>
						<colorinfo>
							<lut />
							<lut1 />
							<asc_sop />
							<asc_sat />
							<lut2 />
						</colorinfo>
					<labels><label2>Caribbean</label2></labels></clipitem>
					<clipitem id="clipitem-87">
						<masterclipid>clipitem-3-177</masterclipid>
						<name>Taylor_Swift_Travis_Kelce_-_The_New_Power_Couple.mp4</name>
						<enabled>TRUE</enabled>
						<duration>150</duration>
						<rate>
							<timebase>25</timebase>
							<ntsc>FALSE</ntsc>
						</rate>
						<start>177150</start>
						<end>177300</end>
						<in>26400</in>
						<out>26550</out>
						<pproTicksIn>0</pproTicksIn>
						<pproTicksOut>875013995520000</pproTicksOut>
						<alphatype>none</alphatype>
						<pixelaspectratio>square</pixelaspectratio>
						<anamorphic>FALSE</anamorphic>
						<file id="file-31">
							<name>Taylor_Swift_Travis_Kelce_-_The_New_Power_Couple.mp4</name>
							<pathurl>file://localhost/Users/themalikano/Documents/VideoAutomation/premiere_videos/Taylor_Swift_Travis_Kelce_-_The_New_Power_Couple.mp4</pathurl>
							<rate>
								<timebase>25</timebase>
								<ntsc>FALSE</ntsc>
							</rate>
							<duration>86118</duration>
							<timecode>
								<rate>
									<timebase>25</timebase>
									<ntsc>FALSE</ntsc>
								</rate>
								<string>00:00:00:00</string>
								<frame>0</frame>
								<displayformat>NDF</displayformat>
							</timecode>
							<media>
								<video>
									<samplecharacteristics>
										<rate>
											<timebase>25</timebase>
											<ntsc>FALSE</ntsc>
										</rate>
										<width>1920</width>
										<height>1080</height>
										<anamorphic>FALSE</anamorphic>
										<pixelaspectratio>square</pixelaspectratio>
										<fielddominance>none</fielddominance>
									</samplecharacteristics>
								</video>
								<audio>
									<samplecharacteristics>
										<depth>16</depth>
										<samplerate>44100</samplerate>
									</samplecharacteristics>
									<channelcount>2</channelcount>
								</audio>
							</media>
						</file>
						<link>
							<linkclipref>clipitem-87</linkclipref>
							<mediatype>video</mediatype>
							<trackindex>1</trackindex>
							<clipindex>3</clipindex>
						</link>
						<link>
							<linkclipref>clipitem-95</linkclipref>
							<mediatype>audio</mediatype>
							<trackindex>1</trackindex>
							<clipindex>3</clipindex>
							<groupindex>1</groupindex>
						</link>
						<link>
							<linkclipref>clipitem-103</linkclipref>
							<mediatype>audio</mediatype>
							<trackindex>2</trackindex>
							<clipindex>3</clipindex>
							<groupindex>1</groupindex>
						</link>
						<logginginfo>
							<description />
							<scene />
							<shottake />
							<lognote />
							<good />
							<originalvideofilename />
							<originalaudiofilename />
						</logginginfo>
						<colorinfo>
							<lut />
							<lut1 />
							<asc_sop />
							<asc_sat />
							<lut2 />
						</colorinfo>
					<labels><label2>Caribbean</label2></labels></clipitem>
					<clipitem id="clipitem-87">
						<masterclipid>clipitem-3-559</masterclipid>
						<name>Taylor_Swift_Travis_Kelce_-_The_New_Power_Couple.mp4</name>
						<enabled>TRUE</enabled>
						<duration>150</duration>
						<rate>
							<timebase>25</timebase>
							<ntsc>FALSE</ntsc>
						</rate>
						<start>177300</start>
						<end>177450</end>
						<in>83700</in>
						<out>83850</out>
						<pproTicksIn>0</pproTicksIn>
						<pproTicksOut>875013995520000</pproTicksOut>
						<alphatype>none</alphatype>
						<pixelaspectratio>square</pixelaspectratio>
						<anamorphic>FALSE</anamorphic>
						<file id="file-31">
							<name>Taylor_Swift_Travis_Kelce_-_The_New_Power_Couple.mp4</name>
							<pathurl>file://localhost/Users/themalikano/Documents/VideoAutomation/premiere_videos/Taylor_Swift_Travis_Kelce_-_The_New_Power_Couple.mp4</pathurl>
							<rate>
								<timebase>25</timebase>
								<ntsc>FALSE</ntsc>
							</rate>
							<duration>86118</duration>
							<timecode>
								<rate>
									<timebase>25</timebase>
									<ntsc>FALSE</ntsc>
								</rate>
								<string>00:00:00:00</string>
								<frame>0</frame>
								<displayformat>NDF</displayformat>
							</timecode>
							<media>
								<video>
									<samplecharacteristics>
										<rate>
											<timebase>25</timebase>
											<ntsc>FALSE</ntsc>
										</rate>
										<width>1920</width>
										<height>1080</height>
										<anamorphic>FALSE</anamorphic>
										<pixelaspectratio>square</pixelaspectratio>
										<fielddominance>none</fielddominance>
									</samplecharacteristics>
								</video>
								<audio>
									<samplecharacteristics>
										<depth>16</depth>
										<samplerate>44100</samplerate>
									</samplecharacteristics>
									<channelcount>2</channelcount>
								</audio>
							</media>
						</file>
						<link>
							<linkclipref>clipitem-87</linkclipref>
							<mediatype>video</mediatype>
							<trackindex>1</trackindex>
							<clipindex>3</clipindex>
						</link>
						<link>
							<linkclipref>clipitem-95</linkclipref>
							<mediatype>audio</mediatype>
							<trackindex>1</trackindex>
							<clipindex>3</clipindex>
							<groupindex>1</groupindex>
						</link>
						<link>
							<linkclipref>clipitem-103</linkclipref>
							<mediatype>audio</mediatype>
							<trackindex>2</trackindex>
							<clipindex>3</clipindex>
							<groupindex>1</groupindex>
						</link>
						<logginginfo>
							<description />
							<scene />
							<shottake />
							<lognote />
							<good />
							<originalvideofilename />
							<originalaudiofilename />
						</logginginfo>
						<colorinfo>
							<lut />
							<lut1 />
							<asc_sop />
							<asc_sat />
							<lut2 />
						</colorinfo>
					<labels><label2>Caribbean</label2></labels></clipitem>
					<clipitem id="clipitem-87">
						<masterclipid>clipitem-3-259</masterclipid>
						<name>Taylor_Swift_Travis_Kelce_-_The_New_Power_Couple.mp4</name>
						<enabled>TRUE</enabled>
						<duration>150</duration>
						<rate>
							<timebase>25</timebase>
							<ntsc>FALSE</ntsc>
						</rate>
						<start>177450</start>
						<end>177600</end>
						<in>38700</in>
						<out>38850</out>
						<pproTicksIn>0</pproTicksIn>
						<pproTicksOut>875013995520000</pproTicksOut>
						<alphatype>none</alphatype>
						<pixelaspectratio>square</pixelaspectratio>
						<anamorphic>FALSE</anamorphic>
						<file id="file-31">
							<name>Taylor_Swift_Travis_Kelce_-_The_New_Power_Couple.mp4</name>
							<pathurl>file://localhost/Users/themalikano/Documents/VideoAutomation/premiere_videos/Taylor_Swift_Travis_Kelce_-_The_New_Power_Couple.mp4</pathurl>
							<rate>
								<timebase>25</timebase>
								<ntsc>FALSE</ntsc>
							</rate>
							<duration>86118</duration>
							<timecode>
								<rate>
									<timebase>25</timebase>
									<ntsc>FALSE</ntsc>
								</rate>
								<string>00:00:00:00</string>
								<frame>0</frame>
								<displayformat>NDF</displayformat>
							</timecode>
							<media>
								<video>
									<samplecharacteristics>
										<rate>
											<timebase>25</timebase>
											<ntsc>FALSE</ntsc>
										</rate>
										<width>1920</width>
										<height>1080</height>
										<anamorphic>FALSE</anamorphic>
										<pixelaspectratio>square</pixelaspectratio>
										<fielddominance>none</fielddominance>
									</samplecharacteristics>
								</video>
								<audio>
									<samplecharacteristics>
										<depth>16</depth>
										<samplerate>44100</samplerate>
									</samplecharacteristics>
									<channelcount>2</channelcount>
								</audio>
							</media>
						</file>
						<link>
							<linkclipref>clipitem-87</linkclipref>
							<mediatype>video</mediatype>
							<trackindex>1</trackindex>
							<clipindex>3</clipindex>
						</link>
						<link>
							<linkclipref>clipitem-95</linkclipref>
							<mediatype>audio</mediatype>
							<trackindex>1</trackindex>
							<clipindex>3</clipindex>
							<groupindex>1</groupindex>
						</link>
						<link>
							<linkclipref>clipitem-103</linkclipref>
							<mediatype>audio</mediatype>
							<trackindex>2</trackindex>
							<clipindex>3</clipindex>
							<groupindex>1</groupindex>
						</link>
						<logginginfo>
							<description />
							<scene />
							<shottake />
							<lognote />
							<good />
							<originalvideofilename />
							<originalaudiofilename />
						</logginginfo>
						<colorinfo>
							<lut />
							<lut1 />
							<asc_sop />
							<asc_sat />
							<lut2 />
						</colorinfo>
					<labels><label2>Caribbean</label2></labels></clipitem>
					<clipitem id="clipitem-87">
						<masterclipid>clipitem-3-344</masterclipid>
						<name>Taylor_Swift_Travis_Kelce_-_The_New_Power_Couple.mp4</name>
						<enabled>TRUE</enabled>
						<duration>150</duration>
						<rate>
							<timebase>25</timebase>
							<ntsc>FALSE</ntsc>
						</rate>
						<start>177600</start>
						<end>177750</end>
						<in>51450</in>
						<out>51600</out>
						<pproTicksIn>0</pproTicksIn>
						<pproTicksOut>875013995520000</pproTicksOut>
						<alphatype>none</alphatype>
						<pixelaspectratio>square</pixelaspectratio>
						<anamorphic>FALSE</anamorphic>
						<file id="file-31">
							<name>Taylor_Swift_Travis_Kelce_-_The_New_Power_Couple.mp4</name>
							<pathurl>file://localhost/Users/themalikano/Documents/VideoAutomation/premiere_videos/Taylor_Swift_Travis_Kelce_-_The_New_Power_Couple.mp4</pathurl>
							<rate>
								<timebase>25</timebase>
								<ntsc>FALSE</ntsc>
							</rate>
							<duration>86118</duration>
							<timecode>
								<rate>
									<timebase>25</timebase>
									<ntsc>FALSE</ntsc>
								</rate>
								<string>00:00:00:00</string>
								<frame>0</frame>
								<displayformat>NDF</displayformat>
							</timecode>
							<media>
								<video>
									<samplecharacteristics>
										<rate>
											<timebase>25</timebase>
											<ntsc>FALSE</ntsc>
										</rate>
										<width>1920</width>
										<height>1080</height>
										<anamorphic>FALSE</anamorphic>
										<pixelaspectratio>square</pixelaspectratio>
										<fielddominance>none</fielddominance>
									</samplecharacteristics>
								</video>
								<audio>
									<samplecharacteristics>
										<depth>16</depth>
										<samplerate>44100</samplerate>
									</samplecharacteristics>
									<channelcount>2</channelcount>
								</audio>
							</media>
						</file>
						<link>
							<linkclipref>clipitem-87</linkclipref>
							<mediatype>video</mediatype>
							<trackindex>1</trackindex>
							<clipindex>3</clipindex>
						</link>
						<link>
							<linkclipref>clipitem-95</linkclipref>
							<mediatype>audio</mediatype>
							<trackindex>1</trackindex>
							<clipindex>3</clipindex>
							<groupindex>1</groupindex>
						</link>
						<link>
							<linkclipref>clipitem-103</linkclipref>
							<mediatype>audio</mediatype>
							<trackindex>2</trackindex>
							<clipindex>3</clipindex>
							<groupindex>1</groupindex>
						</link>
						<logginginfo>
							<description />
							<scene />
							<shottake />
							<lognote />
							<good />
							<originalvideofilename />
							<originalaudiofilename />
						</logginginfo>
						<colorinfo>
							<lut />
							<lut1 />
							<asc_sop />
							<asc_sat />
							<lut2 />
						</colorinfo>
					<labels><label2>Caribbean</label2></labels></clipitem>
					<clipitem id="clipitem-87">
						<masterclipid>clipitem-3-213</masterclipid>
						<name>Taylor_Swift_Travis_Kelce_-_The_New_Power_Couple.mp4</name>
						<enabled>TRUE</enabled>
						<duration>150</duration>
						<rate>
							<timebase>25</timebase>
							<ntsc>FALSE</ntsc>
						</rate>
						<start>177750</start>
						<end>177900</end>
						<in>31800</in>
						<out>31950</out>
						<pproTicksIn>0</pproTicksIn>
						<pproTicksOut>875013995520000</pproTicksOut>
						<alphatype>none</alphatype>
						<pixelaspectratio>square</pixelaspectratio>
						<anamorphic>FALSE</anamorphic>
						<file id="file-31">
							<name>Taylor_Swift_Travis_Kelce_-_The_New_Power_Couple.mp4</name>
							<pathurl>file://localhost/Users/themalikano/Documents/VideoAutomation/premiere_videos/Taylor_Swift_Travis_Kelce_-_The_New_Power_Couple.mp4</pathurl>
							<rate>
								<timebase>25</timebase>
								<ntsc>FALSE</ntsc>
							</rate>
							<duration>86118</duration>
							<timecode>
								<rate>
									<timebase>25</timebase>
									<ntsc>FALSE</ntsc>
								</rate>
								<string>00:00:00:00</string>
								<frame>0</frame>
								<displayformat>NDF</displayformat>
							</timecode>
							<media>
								<video>
									<samplecharacteristics>
										<rate>
											<timebase>25</timebase>
											<ntsc>FALSE</ntsc>
										</rate>
										<width>1920</width>
										<height>1080</height>
										<anamorphic>FALSE</anamorphic>
										<pixelaspectratio>square</pixelaspectratio>
										<fielddominance>none</fielddominance>
									</samplecharacteristics>
								</video>
								<audio>
									<samplecharacteristics>
										<depth>16</depth>
										<samplerate>44100</samplerate>
									</samplecharacteristics>
									<channelcount>2</channelcount>
								</audio>
							</media>
						</file>
						<link>
							<linkclipref>clipitem-87</linkclipref>
							<mediatype>video</mediatype>
							<trackindex>1</trackindex>
							<clipindex>3</clipindex>
						</link>
						<link>
							<linkclipref>clipitem-95</linkclipref>
							<mediatype>audio</mediatype>
							<trackindex>1</trackindex>
							<clipindex>3</clipindex>
							<groupindex>1</groupindex>
						</link>
						<link>
							<linkclipref>clipitem-103</linkclipref>
							<mediatype>audio</mediatype>
							<trackindex>2</trackindex>
							<clipindex>3</clipindex>
							<groupindex>1</groupindex>
						</link>
						<logginginfo>
							<description />
							<scene />
							<shottake />
							<lognote />
							<good />
							<originalvideofilename />
							<originalaudiofilename />
						</logginginfo>
						<colorinfo>
							<lut />
							<lut1 />
							<asc_sop />
							<asc_sat />
							<lut2 />
						</colorinfo>
					<labels><label2>Caribbean</label2></labels></clipitem>
					<clipitem id="clipitem-87">
						<masterclipid>clipitem-3-320</masterclipid>
						<name>Taylor_Swift_Travis_Kelce_-_The_New_Power_Couple.mp4</name>
						<enabled>TRUE</enabled>
						<duration>150</duration>
						<rate>
							<timebase>25</timebase>
							<ntsc>FALSE</ntsc>
						</rate>
						<start>177900</start>
						<end>178050</end>
						<in>47850</in>
						<out>48000</out>
						<pproTicksIn>0</pproTicksIn>
						<pproTicksOut>875013995520000</pproTicksOut>
						<alphatype>none</alphatype>
						<pixelaspectratio>square</pixelaspectratio>
						<anamorphic>FALSE</anamorphic>
						<file id="file-31">
							<name>Taylor_Swift_Travis_Kelce_-_The_New_Power_Couple.mp4</name>
							<pathurl>file://localhost/Users/themalikano/Documents/VideoAutomation/premiere_videos/Taylor_Swift_Travis_Kelce_-_The_New_Power_Couple.mp4</pathurl>
							<rate>
								<timebase>25</timebase>
								<ntsc>FALSE</ntsc>
							</rate>
							<duration>86118</duration>
							<timecode>
								<rate>
									<timebase>25</timebase>
									<ntsc>FALSE</ntsc>
								</rate>
								<string>00:00:00:00</string>
								<frame>0</frame>
								<displayformat>NDF</displayformat>
							</timecode>
							<media>
								<video>
									<samplecharacteristics>
										<rate>
											<timebase>25</timebase>
											<ntsc>FALSE</ntsc>
										</rate>
										<width>1920</width>
										<height>1080</height>
										<anamorphic>FALSE</anamorphic>
										<pixelaspectratio>square</pixelaspectratio>
										<fielddominance>none</fielddominance>
									</samplecharacteristics>
								</video>
								<audio>
									<samplecharacteristics>
										<depth>16</depth>
										<samplerate>44100</samplerate>
									</samplecharacteristics>
									<channelcount>2</channelcount>
								</audio>
							</media>
						</file>
						<link>
							<linkclipref>clipitem-87</linkclipref>
							<mediatype>video</mediatype>
							<trackindex>1</trackindex>
							<clipindex>3</clipindex>
						</link>
						<link>
							<linkclipref>clipitem-95</linkclipref>
							<mediatype>audio</mediatype>
							<trackindex>1</trackindex>
							<clipindex>3</clipindex>
							<groupindex>1</groupindex>
						</link>
						<link>
							<linkclipref>clipitem-103</linkclipref>
							<mediatype>audio</mediatype>
							<trackindex>2</trackindex>
							<clipindex>3</clipindex>
							<groupindex>1</groupindex>
						</link>
						<logginginfo>
							<description />
							<scene />
							<shottake />
							<lognote />
							<good />
							<originalvideofilename />
							<originalaudiofilename />
						</logginginfo>
						<colorinfo>
							<lut />
							<lut1 />
							<asc_sop />
							<asc_sat />
							<lut2 />
						</colorinfo>
					<labels><label2>Caribbean</label2></labels></clipitem>
					<clipitem id="clipitem-87">
						<masterclipid>clipitem-3-64</masterclipid>
						<name>Taylor_Swift_Travis_Kelce_-_The_New_Power_Couple.mp4</name>
						<enabled>TRUE</enabled>
						<duration>150</duration>
						<rate>
							<timebase>25</timebase>
							<ntsc>FALSE</ntsc>
						</rate>
						<start>178050</start>
						<end>178200</end>
						<in>9450</in>
						<out>9600</out>
						<pproTicksIn>0</pproTicksIn>
						<pproTicksOut>875013995520000</pproTicksOut>
						<alphatype>none</alphatype>
						<pixelaspectratio>square</pixelaspectratio>
						<anamorphic>FALSE</anamorphic>
						<file id="file-31">
							<name>Taylor_Swift_Travis_Kelce_-_The_New_Power_Couple.mp4</name>
							<pathurl>file://localhost/Users/themalikano/Documents/VideoAutomation/premiere_videos/Taylor_Swift_Travis_Kelce_-_The_New_Power_Couple.mp4</pathurl>
							<rate>
								<timebase>25</timebase>
								<ntsc>FALSE</ntsc>
							</rate>
							<duration>86118</duration>
							<timecode>
								<rate>
									<timebase>25</timebase>
									<ntsc>FALSE</ntsc>
								</rate>
								<string>00:00:00:00</string>
								<frame>0</frame>
								<displayformat>NDF</displayformat>
							</timecode>
							<media>
								<video>
									<samplecharacteristics>
										<rate>
											<timebase>25</timebase>
											<ntsc>FALSE</ntsc>
										</rate>
										<width>1920</width>
										<height>1080</height>
										<anamorphic>FALSE</anamorphic>
										<pixelaspectratio>square</pixelaspectratio>
										<fielddominance>none</fielddominance>
									</samplecharacteristics>
								</video>
								<audio>
									<samplecharacteristics>
										<depth>16</depth>
										<samplerate>44100</samplerate>
									</samplecharacteristics>
									<channelcount>2</channelcount>
								</audio>
							</media>
						</file>
						<link>
							<linkclipref>clipitem-87</linkclipref>
							<mediatype>video</mediatype>
							<trackindex>1</trackindex>
							<clipindex>3</clipindex>
						</link>
						<link>
							<linkclipref>clipitem-95</linkclipref>
							<mediatype>audio</mediatype>
							<trackindex>1</trackindex>
							<clipindex>3</clipindex>
							<groupindex>1</groupindex>
						</link>
						<link>
							<linkclipref>clipitem-103</linkclipref>
							<mediatype>audio</mediatype>
							<trackindex>2</trackindex>
							<clipindex>3</clipindex>
							<groupindex>1</groupindex>
						</link>
						<logginginfo>
							<description />
							<scene />
							<shottake />
							<lognote />
							<good />
							<originalvideofilename />
							<originalaudiofilename />
						</logginginfo>
						<colorinfo>
							<lut />
							<lut1 />
							<asc_sop />
							<asc_sat />
							<lut2 />
						</colorinfo>
					<labels><label2>Caribbean</label2></labels></clipitem>
					<clipitem id="clipitem-87">
						<masterclipid>clipitem-3-144</masterclipid>
						<name>Taylor_Swift_Travis_Kelce_-_The_New_Power_Couple.mp4</name>
						<enabled>TRUE</enabled>
						<duration>150</duration>
						<rate>
							<timebase>25</timebase>
							<ntsc>FALSE</ntsc>
						</rate>
						<start>178200</start>
						<end>178350</end>
						<in>21450</in>
						<out>21600</out>
						<pproTicksIn>0</pproTicksIn>
						<pproTicksOut>875013995520000</pproTicksOut>
						<alphatype>none</alphatype>
						<pixelaspectratio>square</pixelaspectratio>
						<anamorphic>FALSE</anamorphic>
						<file id="file-31">
							<name>Taylor_Swift_Travis_Kelce_-_The_New_Power_Couple.mp4</name>
							<pathurl>file://localhost/Users/themalikano/Documents/VideoAutomation/premiere_videos/Taylor_Swift_Travis_Kelce_-_The_New_Power_Couple.mp4</pathurl>
							<rate>
								<timebase>25</timebase>
								<ntsc>FALSE</ntsc>
							</rate>
							<duration>86118</duration>
							<timecode>
								<rate>
									<timebase>25</timebase>
									<ntsc>FALSE</ntsc>
								</rate>
								<string>00:00:00:00</string>
								<frame>0</frame>
								<displayformat>NDF</displayformat>
							</timecode>
							<media>
								<video>
									<samplecharacteristics>
										<rate>
											<timebase>25</timebase>
											<ntsc>FALSE</ntsc>
										</rate>
										<width>1920</width>
										<height>1080</height>
										<anamorphic>FALSE</anamorphic>
										<pixelaspectratio>square</pixelaspectratio>
										<fielddominance>none</fielddominance>
									</samplecharacteristics>
								</video>
								<audio>
									<samplecharacteristics>
										<depth>16</depth>
										<samplerate>44100</samplerate>
									</samplecharacteristics>
									<channelcount>2</channelcount>
								</audio>
							</media>
						</file>
						<link>
							<linkclipref>clipitem-87</linkclipref>
							<mediatype>video</mediatype>
							<trackindex>1</trackindex>
							<clipindex>3</clipindex>
						</link>
						<link>
							<linkclipref>clipitem-95</linkclipref>
							<mediatype>audio</mediatype>
							<trackindex>1</trackindex>
							<clipindex>3</clipindex>
							<groupindex>1</groupindex>
						</link>
						<link>
							<linkclipref>clipitem-103</linkclipref>
							<mediatype>audio</mediatype>
							<trackindex>2</trackindex>
							<clipindex>3</clipindex>
							<groupindex>1</groupindex>
						</link>
						<logginginfo>
							<description />
							<scene />
							<shottake />
							<lognote />
							<good />
							<originalvideofilename />
							<originalaudiofilename />
						</logginginfo>
						<colorinfo>
							<lut />
							<lut1 />
							<asc_sop />
							<asc_sat />
							<lut2 />
						</colorinfo>
					<labels><label2>Caribbean</label2></labels></clipitem>
					</track>
				<track TL.SQTrackShy="0" TL.SQTrackExpandedHeight="25" TL.SQTrackExpanded="0" MZ.TrackTargeted="0">
					<enabled>TRUE</enabled>
					<locked>FALSE</locked>
				</track>
				<track TL.SQTrackShy="0" TL.SQTrackExpandedHeight="25" TL.SQTrackExpanded="0" MZ.TrackTargeted="0">
					<enabled>TRUE</enabled>
					<locked>FALSE</locked>
				</track>
			</video>
			<audio>
				<numOutputChannels>2</numOutputChannels>
				<format>
					<samplecharacteristics>
						<depth>16</depth>
						<samplerate>48000</samplerate>
					</samplecharacteristics>
				</format>
				<outputs>
					<group>
						<index>1</index>
						<numchannels>1</numchannels>
						<downmix>0</downmix>
						<channel>
							<index>1</index>
						</channel>
					</group>
					<group>
						<index>2</index>
						<numchannels>1</numchannels>
						<downmix>0</downmix>
						<channel>
							<index>2</index>
						</channel>
					</group>
				</outputs>
				<track TL.SQTrackAudioKeyframeStyle="0" TL.SQTrackShy="0" TL.SQTrackExpandedHeight="25" TL.SQTrackExpanded="0" MZ.TrackTargeted="1" PannerCurrentValue="0.5" PannerIsInverted="true" PannerStartKeyframe="-91445760000000000,0.5,0,0,0,0,0,0" PannerName="Balance" currentExplodedTrackIndex="0" totalExplodedTrackCount="2" premiereTrackType="Stereo">
					<clipitem id="clipitem-93" premiereChannelType="stereo">
						<masterclipid>masterclip-29</masterclipid>
						<name>Taylor_Swift_Reveals_What_Fiance_Travis_Kelce_Said_Before_Proposal_E_News.mp4</name>
						<enabled>TRUE</enabled>
						<duration>3547</duration>
						<rate>
							<timebase>25</timebase>
							<ntsc>FALSE</ntsc>
						</rate>
						<start>0</start>
						<end>3547</end>
						<in>0</in>
						<out>3547</out>
						<pproTicksIn>0</pproTicksIn>
						<pproTicksOut>36039790080000</pproTicksOut>
						<file id="file-29" />
						<sourcetrack>
							<mediatype>audio</mediatype>
							<trackindex>1</trackindex>
						</sourcetrack>
						<link>
							<linkclipref>clipitem-85</linkclipref>
							<mediatype>video</mediatype>
							<trackindex>1</trackindex>
							<clipindex>1</clipindex>
						</link>
						<link>
							<linkclipref>clipitem-93</linkclipref>
							<mediatype>audio</mediatype>
							<trackindex>1</trackindex>
							<clipindex>1</clipindex>
							<groupindex>1</groupindex>
						</link>
						<link>
							<linkclipref>clipitem-101</linkclipref>
							<mediatype>audio</mediatype>
							<trackindex>2</trackindex>
							<clipindex>1</clipindex>
							<groupindex>1</groupindex>
						</link>
						<logginginfo>
							<description />
							<scene />
							<shottake />
							<lognote />
							<good />
							<originalvideofilename />
							<originalaudiofilename />
						</logginginfo>
						<colorinfo>
							<lut />
							<lut1 />
							<asc_sop />
							<asc_sat />
							<lut2 />
						</colorinfo>
					</clipitem>
					<clipitem id="clipitem-94" premiereChannelType="stereo">
						<masterclipid>masterclip-30</masterclipid>
						<name>Taylor_Swift_Shares_The_Story_Of_Calling_Travis_Kelce_For_The_First_Time.mp4</name>
						<enabled>TRUE</enabled>
						<duration>23270</duration>
						<rate>
							<timebase>25</timebase>
							<ntsc>FALSE</ntsc>
						</rate>
						<start>3547</start>
						<end>26817</end>
						<in>0</in>
						<out>23270</out>
						<pproTicksIn>0</pproTicksIn>
						<pproTicksOut>236438092800000</pproTicksOut>
						<file id="file-30" />
						<sourcetrack>
							<mediatype>audio</mediatype>
							<trackindex>1</trackindex>
						</sourcetrack>
						<link>
							<linkclipref>clipitem-86</linkclipref>
							<mediatype>video</mediatype>
							<trackindex>1</trackindex>
							<clipindex>2</clipindex>
						</link>
						<link>
							<linkclipref>clipitem-94</linkclipref>
							<mediatype>audio</mediatype>
							<trackindex>1</trackindex>
							<clipindex>2</clipindex>
							<groupindex>1</groupindex>
						</link>
						<link>
							<linkclipref>clipitem-102</linkclipref>
							<mediatype>audio</mediatype>
							<trackindex>2</trackindex>
							<clipindex>2</clipindex>
							<groupindex>1</groupindex>
						</link>
						<logginginfo>
							<description />
							<scene />
							<shottake />
							<lognote />
							<good />
							<originalvideofilename />
							<originalaudiofilename />
						</logginginfo>
						<colorinfo>
							<lut />
							<lut1 />
							<asc_sop />
							<asc_sat />
							<lut2 />
						</colorinfo>
					</clipitem>
					<clipitem id="clipitem-95" premiereChannelType="stereo">
						<masterclipid>masterclip-31</masterclipid>
						<name>Taylor_Swift_Travis_Kelce_-_The_New_Power_Couple.mp4</name>
						<enabled>TRUE</enabled>
						<duration>86118</duration>
						<rate>
							<timebase>25</timebase>
							<ntsc>FALSE</ntsc>
						</rate>
						<start>26817</start>
						<end>112935</end>
						<in>0</in>
						<out>86118</out>
						<pproTicksIn>0</pproTicksIn>
						<pproTicksOut>875013995520000</pproTicksOut>
						<file id="file-31" />
						<sourcetrack>
							<mediatype>audio</mediatype>
							<trackindex>1</trackindex>
						</sourcetrack>
						<link>
							<linkclipref>clipitem-87</linkclipref>
							<mediatype>video</mediatype>
							<trackindex>1</trackindex>
							<clipindex>3</clipindex>
						</link>
						<link>
							<linkclipref>clipitem-95</linkclipref>
							<mediatype>audio</mediatype>
							<trackindex>1</trackindex>
							<clipindex>3</clipindex>
							<groupindex>1</groupindex>
						</link>
						<link>
							<linkclipref>clipitem-103</linkclipref>
							<mediatype>audio</mediatype>
							<trackindex>2</trackindex>
							<clipindex>3</clipindex>
							<groupindex>1</groupindex>
						</link>
						<logginginfo>
							<description />
							<scene />
							<shottake />
							<lognote />
							<good />
							<originalvideofilename />
							<originalaudiofilename />
						</logginginfo>
						<colorinfo>
							<lut />
							<lut1 />
							<asc_sop />
							<asc_sat />
							<lut2 />
						</colorinfo>
					</clipitem>
					<clipitem id="clipitem-96" premiereChannelType="stereo">
						<masterclipid>masterclip-32</masterclipid>
						<name>Travis_Kelce_ANNOUNCE_WEDDING_DATE_with_Taylor_Swift_Why_He_was_Delaying_all_Along.mp4</name>
						<enabled>TRUE</enabled>
						<duration>41278</duration>
						<rate>
							<timebase>25</timebase>
							<ntsc>FALSE</ntsc>
						</rate>
						<start>112935</start>
						<end>154213</end>
						<in>0</in>
						<out>41278</out>
						<pproTicksIn>0</pproTicksIn>
						<pproTicksOut>419410897920000</pproTicksOut>
						<file id="file-32" />
						<sourcetrack>
							<mediatype>audio</mediatype>
							<trackindex>1</trackindex>
						</sourcetrack>
						<link>
							<linkclipref>clipitem-88</linkclipref>
							<mediatype>video</mediatype>
							<trackindex>1</trackindex>
							<clipindex>4</clipindex>
						</link>
						<link>
							<linkclipref>clipitem-96</linkclipref>
							<mediatype>audio</mediatype>
							<trackindex>1</trackindex>
							<clipindex>4</clipindex>
							<groupindex>1</groupindex>
						</link>
						<link>
							<linkclipref>clipitem-104</linkclipref>
							<mediatype>audio</mediatype>
							<trackindex>2</trackindex>
							<clipindex>4</clipindex>
							<groupindex>1</groupindex>
						</link>
						<logginginfo>
							<description />
							<scene />
							<shottake />
							<lognote />
							<good />
							<originalvideofilename />
							<originalaudiofilename />
						</logginginfo>
						<colorinfo>
							<lut />
							<lut1 />
							<asc_sop />
							<asc_sat />
							<lut2 />
						</colorinfo>
					</clipitem>
					<clipitem id="clipitem-97" premiereChannelType="stereo">
						<masterclipid>masterclip-33</masterclipid>
						<name>Travis_Kelce_s_appearance_on_The_Eras_Tour_during_I_Can_Do_It_With_A_Broken_Heart_in_London.mp4</name>
						<enabled>TRUE</enabled>
						<duration>2709</duration>
						<rate>
							<timebase>25</timebase>
							<ntsc>FALSE</ntsc>
						</rate>
						<start>154213</start>
						<end>156922</end>
						<in>0</in>
						<out>2709</out>
						<pproTicksIn>0</pproTicksIn>
						<pproTicksOut>27525173760000</pproTicksOut>
						<file id="file-33" />
						<sourcetrack>
							<mediatype>audio</mediatype>
							<trackindex>1</trackindex>
						</sourcetrack>
						<link>
							<linkclipref>clipitem-89</linkclipref>
							<mediatype>video</mediatype>
							<trackindex>1</trackindex>
							<clipindex>5</clipindex>
						</link>
						<link>
							<linkclipref>clipitem-97</linkclipref>
							<mediatype>audio</mediatype>
							<trackindex>1</trackindex>
							<clipindex>5</clipindex>
							<groupindex>1</groupindex>
						</link>
						<link>
							<linkclipref>clipitem-105</linkclipref>
							<mediatype>audio</mediatype>
							<trackindex>2</trackindex>
							<clipindex>5</clipindex>
							<groupindex>1</groupindex>
						</link>
						<logginginfo>
							<description />
							<scene />
							<shottake />
							<lognote />
							<good />
							<originalvideofilename />
							<originalaudiofilename />
						</logginginfo>
						<colorinfo>
							<lut />
							<lut1 />
							<asc_sop />
							<asc_sat />
							<lut2 />
						</colorinfo>
					</clipitem>
					<clipitem id="clipitem-98" premiereChannelType="stereo">
						<masterclipid>masterclip-34</masterclipid>
						<name>Travis_Kelce_talks_about_postponing_his_wedding_to_Fiance_Taylor_Swift_on_the_New_Heights_Podcast.mp4</name>
						<enabled>TRUE</enabled>
						<duration>14703</duration>
						<rate>
							<timebase>25</timebase>
							<ntsc>FALSE</ntsc>
						</rate>
						<start>156922</start>
						<end>171625</end>
						<in>0</in>
						<out>14703</out>
						<pproTicksIn>0</pproTicksIn>
						<pproTicksOut>149391889920000</pproTicksOut>
						<file id="file-34" />
						<sourcetrack>
							<mediatype>audio</mediatype>
							<trackindex>1</trackindex>
						</sourcetrack>
						<link>
							<linkclipref>clipitem-90</linkclipref>
							<mediatype>video</mediatype>
							<trackindex>1</trackindex>
							<clipindex>6</clipindex>
						</link>
						<link>
							<linkclipref>clipitem-98</linkclipref>
							<mediatype>audio</mediatype>
							<trackindex>1</trackindex>
							<clipindex>6</clipindex>
							<groupindex>1</groupindex>
						</link>
						<link>
							<linkclipref>clipitem-106</linkclipref>
							<mediatype>audio</mediatype>
							<trackindex>2</trackindex>
							<clipindex>6</clipindex>
							<groupindex>1</groupindex>
						</link>
						<logginginfo>
							<description />
							<scene />
							<shottake />
							<lognote />
							<good />
							<originalvideofilename />
							<originalaudiofilename />
						</logginginfo>
						<colorinfo>
							<lut />
							<lut1 />
							<asc_sop />
							<asc_sat />
							<lut2 />
						</colorinfo>
					</clipitem>
					<clipitem id="clipitem-99" premiereChannelType="stereo">
						<masterclipid>masterclip-35</masterclipid>
						<name>What_Caused_Taylor_Swift-Blake_Lively_Rift_The_View.mp4</name>
						<enabled>TRUE</enabled>
						<duration>4501</duration>
						<rate>
							<timebase>25</timebase>
							<ntsc>FALSE</ntsc>
						</rate>
						<start>171625</start>
						<end>176126</end>
						<in>0</in>
						<out>4501</out>
						<pproTicksIn>0</pproTicksIn>
						<pproTicksOut>45733040640000</pproTicksOut>
						<file id="file-35" />
						<sourcetrack>
							<mediatype>audio</mediatype>
							<trackindex>1</trackindex>
						</sourcetrack>
						<link>
							<linkclipref>clipitem-91</linkclipref>
							<mediatype>video</mediatype>
							<trackindex>1</trackindex>
							<clipindex>7</clipindex>
						</link>
						<link>
							<linkclipref>clipitem-99</linkclipref>
							<mediatype>audio</mediatype>
							<trackindex>1</trackindex>
							<clipindex>7</clipindex>
							<groupindex>1</groupindex>
						</link>
						<link>
							<linkclipref>clipitem-107</linkclipref>
							<mediatype>audio</mediatype>
							<trackindex>2</trackindex>
							<clipindex>7</clipindex>
							<groupindex>1</groupindex>
						</link>
						<logginginfo>
							<description />
							<scene />
							<shottake />
							<lognote />
							<good />
							<originalvideofilename />
							<originalaudiofilename />
						</logginginfo>
						<colorinfo>
							<lut />
							<lut1 />
							<asc_sop />
							<asc_sat />
							<lut2 />
						</colorinfo>
					</clipitem>
					<clipitem id="clipitem-100" premiereChannelType="stereo">
						<masterclipid>masterclip-36</masterclipid>
						<name>Why_Travis_Kelce_Jokes_Taylor_Swift_Is_Going_to_KILL_Him.mp4</name>
						<enabled>TRUE</enabled>
						<duration>2485</duration>
						<rate>
							<timebase>25</timebase>
							<ntsc>FALSE</ntsc>
						</rate>
						<start>176126</start>
						<end>178611</end>
						<in>0</in>
						<out>2485</out>
						<pproTicksIn>0</pproTicksIn>
						<pproTicksOut>25249190400000</pproTicksOut>
						<file id="file-36" />
						<sourcetrack>
							<mediatype>audio</mediatype>
							<trackindex>1</trackindex>
						</sourcetrack>
						<link>
							<linkclipref>clipitem-92</linkclipref>
							<mediatype>video</mediatype>
							<trackindex>1</trackindex>
							<clipindex>8</clipindex>
						</link>
						<link>
							<linkclipref>clipitem-100</linkclipref>
							<mediatype>audio</mediatype>
							<trackindex>1</trackindex>
							<clipindex>8</clipindex>
							<groupindex>1</groupindex>
						</link>
						<link>
							<linkclipref>clipitem-108</linkclipref>
							<mediatype>audio</mediatype>
							<trackindex>2</trackindex>
							<clipindex>8</clipindex>
							<groupindex>1</groupindex>
						</link>
						<logginginfo>
							<description />
							<scene />
							<shottake />
							<lognote />
							<good />
							<originalvideofilename />
							<originalaudiofilename />
						</logginginfo>
						<colorinfo>
							<lut />
							<lut1 />
							<asc_sop />
							<asc_sat />
							<lut2 />
						</colorinfo>
					</clipitem>
					<enabled>TRUE</enabled>
					<locked>FALSE</locked>
					<outputchannelindex>1</outputchannelindex>
				</track>
				<track TL.SQTrackAudioKeyframeStyle="0" TL.SQTrackShy="0" TL.SQTrackExpandedHeight="25" TL.SQTrackExpanded="0" MZ.TrackTargeted="1" PannerCurrentValue="0.5" PannerIsInverted="true" PannerStartKeyframe="-91445760000000000,0.5,0,0,0,0,0,0" PannerName="Balance" currentExplodedTrackIndex="1" totalExplodedTrackCount="2" premiereTrackType="Stereo">
					<clipitem id="clipitem-101" premiereChannelType="stereo">
						<masterclipid>masterclip-29</masterclipid>
						<name>Taylor_Swift_Reveals_What_Fiance_Travis_Kelce_Said_Before_Proposal_E_News.mp4</name>
						<enabled>TRUE</enabled>
						<duration>3547</duration>
						<rate>
							<timebase>25</timebase>
							<ntsc>FALSE</ntsc>
						</rate>
						<start>0</start>
						<end>3547</end>
						<in>0</in>
						<out>3547</out>
						<pproTicksIn>0</pproTicksIn>
						<pproTicksOut>36039790080000</pproTicksOut>
						<file id="file-29" />
						<sourcetrack>
							<mediatype>audio</mediatype>
							<trackindex>2</trackindex>
						</sourcetrack>
						<link>
							<linkclipref>clipitem-85</linkclipref>
							<mediatype>video</mediatype>
							<trackindex>1</trackindex>
							<clipindex>1</clipindex>
						</link>
						<link>
							<linkclipref>clipitem-93</linkclipref>
							<mediatype>audio</mediatype>
							<trackindex>1</trackindex>
							<clipindex>1</clipindex>
							<groupindex>1</groupindex>
						</link>
						<link>
							<linkclipref>clipitem-101</linkclipref>
							<mediatype>audio</mediatype>
							<trackindex>2</trackindex>
							<clipindex>1</clipindex>
							<groupindex>1</groupindex>
						</link>
						<logginginfo>
							<description />
							<scene />
							<shottake />
							<lognote />
							<good />
							<originalvideofilename />
							<originalaudiofilename />
						</logginginfo>
						<colorinfo>
							<lut />
							<lut1 />
							<asc_sop />
							<asc_sat />
							<lut2 />
						</colorinfo>
					</clipitem>
					<clipitem id="clipitem-102" premiereChannelType="stereo">
						<masterclipid>masterclip-30</masterclipid>
						<name>Taylor_Swift_Shares_The_Story_Of_Calling_Travis_Kelce_For_The_First_Time.mp4</name>
						<enabled>TRUE</enabled>
						<duration>23270</duration>
						<rate>
							<timebase>25</timebase>
							<ntsc>FALSE</ntsc>
						</rate>
						<start>3547</start>
						<end>26817</end>
						<in>0</in>
						<out>23270</out>
						<pproTicksIn>0</pproTicksIn>
						<pproTicksOut>236438092800000</pproTicksOut>
						<file id="file-30" />
						<sourcetrack>
							<mediatype>audio</mediatype>
							<trackindex>2</trackindex>
						</sourcetrack>
						<link>
							<linkclipref>clipitem-86</linkclipref>
							<mediatype>video</mediatype>
							<trackindex>1</trackindex>
							<clipindex>2</clipindex>
						</link>
						<link>
							<linkclipref>clipitem-94</linkclipref>
							<mediatype>audio</mediatype>
							<trackindex>1</trackindex>
							<clipindex>2</clipindex>
							<groupindex>1</groupindex>
						</link>
						<link>
							<linkclipref>clipitem-102</linkclipref>
							<mediatype>audio</mediatype>
							<trackindex>2</trackindex>
							<clipindex>2</clipindex>
							<groupindex>1</groupindex>
						</link>
						<logginginfo>
							<description />
							<scene />
							<shottake />
							<lognote />
							<good />
							<originalvideofilename />
							<originalaudiofilename />
						</logginginfo>
						<colorinfo>
							<lut />
							<lut1 />
							<asc_sop />
							<asc_sat />
							<lut2 />
						</colorinfo>
					</clipitem>
					<clipitem id="clipitem-103" premiereChannelType="stereo">
						<masterclipid>masterclip-31</masterclipid>
						<name>Taylor_Swift_Travis_Kelce_-_The_New_Power_Couple.mp4</name>
						<enabled>TRUE</enabled>
						<duration>86118</duration>
						<rate>
							<timebase>25</timebase>
							<ntsc>FALSE</ntsc>
						</rate>
						<start>26817</start>
						<end>112935</end>
						<in>0</in>
						<out>86118</out>
						<pproTicksIn>0</pproTicksIn>
						<pproTicksOut>875013995520000</pproTicksOut>
						<file id="file-31" />
						<sourcetrack>
							<mediatype>audio</mediatype>
							<trackindex>2</trackindex>
						</sourcetrack>
						<link>
							<linkclipref>clipitem-87</linkclipref>
							<mediatype>video</mediatype>
							<trackindex>1</trackindex>
							<clipindex>3</clipindex>
						</link>
						<link>
							<linkclipref>clipitem-95</linkclipref>
							<mediatype>audio</mediatype>
							<trackindex>1</trackindex>
							<clipindex>3</clipindex>
							<groupindex>1</groupindex>
						</link>
						<link>
							<linkclipref>clipitem-103</linkclipref>
							<mediatype>audio</mediatype>
							<trackindex>2</trackindex>
							<clipindex>3</clipindex>
							<groupindex>1</groupindex>
						</link>
						<logginginfo>
							<description />
							<scene />
							<shottake />
							<lognote />
							<good />
							<originalvideofilename />
							<originalaudiofilename />
						</logginginfo>
						<colorinfo>
							<lut />
							<lut1 />
							<asc_sop />
							<asc_sat />
							<lut2 />
						</colorinfo>
					</clipitem>
					<clipitem id="clipitem-104" premiereChannelType="stereo">
						<masterclipid>masterclip-32</masterclipid>
						<name>Travis_Kelce_ANNOUNCE_WEDDING_DATE_with_Taylor_Swift_Why_He_was_Delaying_all_Along.mp4</name>
						<enabled>TRUE</enabled>
						<duration>41278</duration>
						<rate>
							<timebase>25</timebase>
							<ntsc>FALSE</ntsc>
						</rate>
						<start>112935</start>
						<end>154213</end>
						<in>0</in>
						<out>41278</out>
						<pproTicksIn>0</pproTicksIn>
						<pproTicksOut>419410897920000</pproTicksOut>
						<file id="file-32" />
						<sourcetrack>
							<mediatype>audio</mediatype>
							<trackindex>2</trackindex>
						</sourcetrack>
						<link>
							<linkclipref>clipitem-88</linkclipref>
							<mediatype>video</mediatype>
							<trackindex>1</trackindex>
							<clipindex>4</clipindex>
						</link>
						<link>
							<linkclipref>clipitem-96</linkclipref>
							<mediatype>audio</mediatype>
							<trackindex>1</trackindex>
							<clipindex>4</clipindex>
							<groupindex>1</groupindex>
						</link>
						<link>
							<linkclipref>clipitem-104</linkclipref>
							<mediatype>audio</mediatype>
							<trackindex>2</trackindex>
							<clipindex>4</clipindex>
							<groupindex>1</groupindex>
						</link>
						<logginginfo>
							<description />
							<scene />
							<shottake />
							<lognote />
							<good />
							<originalvideofilename />
							<originalaudiofilename />
						</logginginfo>
						<colorinfo>
							<lut />
							<lut1 />
							<asc_sop />
							<asc_sat />
							<lut2 />
						</colorinfo>
					</clipitem>
					<clipitem id="clipitem-105" premiereChannelType="stereo">
						<masterclipid>masterclip-33</masterclipid>
						<name>Travis_Kelce_s_appearance_on_The_Eras_Tour_during_I_Can_Do_It_With_A_Broken_Heart_in_London.mp4</name>
						<enabled>TRUE</enabled>
						<duration>2709</duration>
						<rate>
							<timebase>25</timebase>
							<ntsc>FALSE</ntsc>
						</rate>
						<start>154213</start>
						<end>156922</end>
						<in>0</in>
						<out>2709</out>
						<pproTicksIn>0</pproTicksIn>
						<pproTicksOut>27525173760000</pproTicksOut>
						<file id="file-33" />
						<sourcetrack>
							<mediatype>audio</mediatype>
							<trackindex>2</trackindex>
						</sourcetrack>
						<link>
							<linkclipref>clipitem-89</linkclipref>
							<mediatype>video</mediatype>
							<trackindex>1</trackindex>
							<clipindex>5</clipindex>
						</link>
						<link>
							<linkclipref>clipitem-97</linkclipref>
							<mediatype>audio</mediatype>
							<trackindex>1</trackindex>
							<clipindex>5</clipindex>
							<groupindex>1</groupindex>
						</link>
						<link>
							<linkclipref>clipitem-105</linkclipref>
							<mediatype>audio</mediatype>
							<trackindex>2</trackindex>
							<clipindex>5</clipindex>
							<groupindex>1</groupindex>
						</link>
						<logginginfo>
							<description />
							<scene />
							<shottake />
							<lognote />
							<good />
							<originalvideofilename />
							<originalaudiofilename />
						</logginginfo>
						<colorinfo>
							<lut />
							<lut1 />
							<asc_sop />
							<asc_sat />
							<lut2 />
						</colorinfo>
					</clipitem>
					<clipitem id="clipitem-106" premiereChannelType="stereo">
						<masterclipid>masterclip-34</masterclipid>
						<name>Travis_Kelce_talks_about_postponing_his_wedding_to_Fiance_Taylor_Swift_on_the_New_Heights_Podcast.mp4</name>
						<enabled>TRUE</enabled>
						<duration>14703</duration>
						<rate>
							<timebase>25</timebase>
							<ntsc>FALSE</ntsc>
						</rate>
						<start>156922</start>
						<end>171625</end>
						<in>0</in>
						<out>14703</out>
						<pproTicksIn>0</pproTicksIn>
						<pproTicksOut>149391889920000</pproTicksOut>
						<file id="file-34" />
						<sourcetrack>
							<mediatype>audio</mediatype>
							<trackindex>2</trackindex>
						</sourcetrack>
						<link>
							<linkclipref>clipitem-90</linkclipref>
							<mediatype>video</mediatype>
							<trackindex>1</trackindex>
							<clipindex>6</clipindex>
						</link>
						<link>
							<linkclipref>clipitem-98</linkclipref>
							<mediatype>audio</mediatype>
							<trackindex>1</trackindex>
							<clipindex>6</clipindex>
							<groupindex>1</groupindex>
						</link>
						<link>
							<linkclipref>clipitem-106</linkclipref>
							<mediatype>audio</mediatype>
							<trackindex>2</trackindex>
							<clipindex>6</clipindex>
							<groupindex>1</groupindex>
						</link>
						<logginginfo>
							<description />
							<scene />
							<shottake />
							<lognote />
							<good />
							<originalvideofilename />
							<originalaudiofilename />
						</logginginfo>
						<colorinfo>
							<lut />
							<lut1 />
							<asc_sop />
							<asc_sat />
							<lut2 />
						</colorinfo>
					</clipitem>
					<clipitem id="clipitem-107" premiereChannelType="stereo">
						<masterclipid>masterclip-35</masterclipid>
						<name>What_Caused_Taylor_Swift-Blake_Lively_Rift_The_View.mp4</name>
						<enabled>TRUE</enabled>
						<duration>4501</duration>
						<rate>
							<timebase>25</timebase>
							<ntsc>FALSE</ntsc>
						</rate>
						<start>171625</start>
						<end>176126</end>
						<in>0</in>
						<out>4501</out>
						<pproTicksIn>0</pproTicksIn>
						<pproTicksOut>45733040640000</pproTicksOut>
						<file id="file-35" />
						<sourcetrack>
							<mediatype>audio</mediatype>
							<trackindex>2</trackindex>
						</sourcetrack>
						<link>
							<linkclipref>clipitem-91</linkclipref>
							<mediatype>video</mediatype>
							<trackindex>1</trackindex>
							<clipindex>7</clipindex>
						</link>
						<link>
							<linkclipref>clipitem-99</linkclipref>
							<mediatype>audio</mediatype>
							<trackindex>1</trackindex>
							<clipindex>7</clipindex>
							<groupindex>1</groupindex>
						</link>
						<link>
							<linkclipref>clipitem-107</linkclipref>
							<mediatype>audio</mediatype>
							<trackindex>2</trackindex>
							<clipindex>7</clipindex>
							<groupindex>1</groupindex>
						</link>
						<logginginfo>
							<description />
							<scene />
							<shottake />
							<lognote />
							<good />
							<originalvideofilename />
							<originalaudiofilename />
						</logginginfo>
						<colorinfo>
							<lut />
							<lut1 />
							<asc_sop />
							<asc_sat />
							<lut2 />
						</colorinfo>
					</clipitem>
					<clipitem id="clipitem-108" premiereChannelType="stereo">
						<masterclipid>masterclip-36</masterclipid>
						<name>Why_Travis_Kelce_Jokes_Taylor_Swift_Is_Going_to_KILL_Him.mp4</name>
						<enabled>TRUE</enabled>
						<duration>2485</duration>
						<rate>
							<timebase>25</timebase>
							<ntsc>FALSE</ntsc>
						</rate>
						<start>176126</start>
						<end>178611</end>
						<in>0</in>
						<out>2485</out>
						<pproTicksIn>0</pproTicksIn>
						<pproTicksOut>25249190400000</pproTicksOut>
						<file id="file-36" />
						<sourcetrack>
							<mediatype>audio</mediatype>
							<trackindex>2</trackindex>
						</sourcetrack>
						<link>
							<linkclipref>clipitem-92</linkclipref>
							<mediatype>video</mediatype>
							<trackindex>1</trackindex>
							<clipindex>8</clipindex>
						</link>
						<link>
							<linkclipref>clipitem-100</linkclipref>
							<mediatype>audio</mediatype>
							<trackindex>1</trackindex>
							<clipindex>8</clipindex>
							<groupindex>1</groupindex>
						</link>
						<link>
							<linkclipref>clipitem-108</linkclipref>
							<mediatype>audio</mediatype>
							<trackindex>2</trackindex>
							<clipindex>8</clipindex>
							<groupindex>1</groupindex>
						</link>
						<logginginfo>
							<description />
							<scene />
							<shottake />
							<lognote />
							<good />
							<originalvideofilename />
							<originalaudiofilename />
						</logginginfo>
						<colorinfo>
							<lut />
							<lut1 />
							<asc_sop />
							<asc_sat />
							<lut2 />
						</colorinfo>
					</clipitem>
					<enabled>TRUE</enabled>
					<locked>FALSE</locked>
					<outputchannelindex>2</outputchannelindex>
				</track>
				<track TL.SQTrackAudioKeyframeStyle="0" TL.SQTrackShy="0" TL.SQTrackExpandedHeight="25" TL.SQTrackExpanded="0" MZ.TrackTargeted="1" PannerCurrentValue="0.5" PannerIsInverted="true" PannerStartKeyframe="-91445760000000000,0.5,0,0,0,0,0,0" PannerName="Balance" currentExplodedTrackIndex="0" totalExplodedTrackCount="2" premiereTrackType="Stereo">
					<enabled>TRUE</enabled>
					<locked>FALSE</locked>
					<outputchannelindex>1</outputchannelindex>
				</track>
				<track TL.SQTrackAudioKeyframeStyle="0" TL.SQTrackShy="0" TL.SQTrackExpandedHeight="25" TL.SQTrackExpanded="0" MZ.TrackTargeted="1" PannerCurrentValue="0.5" PannerIsInverted="true" PannerStartKeyframe="-91445760000000000,0.5,0,0,0,0,0,0" PannerName="Balance" currentExplodedTrackIndex="1" totalExplodedTrackCount="2" premiereTrackType="Stereo">
					<enabled>TRUE</enabled>
					<locked>FALSE</locked>
					<outputchannelindex>2</outputchannelindex>
				</track>
				<track TL.SQTrackAudioKeyframeStyle="0" TL.SQTrackShy="0" TL.SQTrackExpandedHeight="25" TL.SQTrackExpanded="0" MZ.TrackTargeted="1" PannerCurrentValue="0.5" PannerIsInverted="true" PannerStartKeyframe="-91445760000000000,0.5,0,0,0,0,0,0" PannerName="Balance" currentExplodedTrackIndex="0" totalExplodedTrackCount="2" premiereTrackType="Stereo">
					<enabled>TRUE</enabled>
					<locked>FALSE</locked>
					<outputchannelindex>1</outputchannelindex>
				</track>
				<track TL.SQTrackAudioKeyframeStyle="0" TL.SQTrackShy="0" TL.SQTrackExpandedHeight="25" TL.SQTrackExpanded="0" MZ.TrackTargeted="1" PannerCurrentValue="0.5" PannerIsInverted="true" PannerStartKeyframe="-91445760000000000,0.5,0,0,0,0,0,0" PannerName="Balance" currentExplodedTrackIndex="1" totalExplodedTrackCount="2" premiereTrackType="Stereo">
					<enabled>TRUE</enabled>
					<locked>FALSE</locked>
					<outputchannelindex>2</outputchannelindex>
				</track>
			</audio>
		</media>
		<timecode>
			<rate>
				<timebase>25</timebase>
				<ntsc>FALSE</ntsc>
			</rate>
			<string>00:00:00:00</string>
			<frame>0</frame>
			<displayformat>NDF</displayformat>
		</timecode>
		<labels>
			<label2>Forest</label2>
		</labels>
		<logginginfo>
			<description />
			<scene />
			<shottake />
			<lognote />
			<good />
			<originalvideofilename />
			<originalaudiofilename />
		</logginginfo>
	</sequence>
</xmeml>